G04 #@! TF.GenerationSoftware,KiCad,Pcbnew,(5.0.0)*
G04 #@! TF.CreationDate,2019-02-01T23:10:10-06:00*
G04 #@! TF.ProjectId,4x4_backpack,3478345F6261636B7061636B2E6B6963,rev?*
G04 #@! TF.SameCoordinates,Original*
G04 #@! TF.FileFunction,Copper,L2,Bot,Signal*
G04 #@! TF.FilePolarity,Positive*
%FSLAX46Y46*%
G04 Gerber Fmt 4.6, Leading zero omitted, Abs format (unit mm)*
G04 Created by KiCad (PCBNEW (5.0.0)) date 02/01/19 23:10:10*
%MOMM*%
%LPD*%
G01*
G04 APERTURE LIST*
G04 #@! TA.AperFunction,ComponentPad*
%ADD10C,1.450000*%
G04 #@! TD*
G04 #@! TA.AperFunction,ComponentPad*
%ADD11O,1.200000X1.900000*%
G04 #@! TD*
G04 #@! TA.AperFunction,ComponentPad*
%ADD12R,1.700000X1.700000*%
G04 #@! TD*
G04 #@! TA.AperFunction,ComponentPad*
%ADD13O,1.700000X1.700000*%
G04 #@! TD*
G04 #@! TA.AperFunction,WasherPad*
%ADD14C,1.000000*%
G04 #@! TD*
G04 #@! TA.AperFunction,ConnectorPad*
%ADD15C,0.787400*%
G04 #@! TD*
G04 #@! TA.AperFunction,ComponentPad*
%ADD16R,0.635000X0.635000*%
G04 #@! TD*
G04 #@! TA.AperFunction,ViaPad*
%ADD17C,0.800000*%
G04 #@! TD*
G04 #@! TA.AperFunction,Conductor*
%ADD18C,0.250000*%
G04 #@! TD*
G04 #@! TA.AperFunction,Conductor*
%ADD19C,0.500000*%
G04 #@! TD*
G04 #@! TA.AperFunction,Conductor*
%ADD20C,0.254000*%
G04 #@! TD*
G04 APERTURE END LIST*
D10*
G04 #@! TO.P,J17,6*
G04 #@! TO.N,Net-(J17-Pad6)*
X142200000Y-80329500D03*
X137200000Y-80329500D03*
D11*
X143200000Y-77629500D03*
X136200000Y-77629500D03*
G04 #@! TD*
D12*
G04 #@! TO.P,J1,1*
G04 #@! TO.N,ROW1*
X77470000Y-82232500D03*
D13*
G04 #@! TO.P,J1,2*
G04 #@! TO.N,ROW2*
X77470000Y-84772500D03*
G04 #@! TO.P,J1,3*
G04 #@! TO.N,ROW3*
X77470000Y-87312500D03*
G04 #@! TO.P,J1,4*
G04 #@! TO.N,ROW4*
X77470000Y-89852500D03*
G04 #@! TD*
G04 #@! TO.P,J2,4*
G04 #@! TO.N,COL4*
X77470000Y-108902500D03*
G04 #@! TO.P,J2,3*
G04 #@! TO.N,COL3*
X77470000Y-106362500D03*
G04 #@! TO.P,J2,2*
G04 #@! TO.N,COL2*
X77470000Y-103822500D03*
D12*
G04 #@! TO.P,J2,1*
G04 #@! TO.N,COL1*
X77470000Y-101282500D03*
G04 #@! TD*
G04 #@! TO.P,J3,1*
G04 #@! TO.N,COL5*
X77470000Y-120332500D03*
D13*
G04 #@! TO.P,J3,2*
G04 #@! TO.N,COL6*
X77470000Y-122872500D03*
G04 #@! TO.P,J3,3*
G04 #@! TO.N,COL7*
X77470000Y-125412500D03*
G04 #@! TO.P,J3,4*
G04 #@! TO.N,COL8*
X77470000Y-127952500D03*
G04 #@! TD*
G04 #@! TO.P,J4,4*
G04 #@! TO.N,COL12*
X77470000Y-147002500D03*
G04 #@! TO.P,J4,3*
G04 #@! TO.N,COL11*
X77470000Y-144462500D03*
G04 #@! TO.P,J4,2*
G04 #@! TO.N,COL10*
X77470000Y-141922500D03*
D12*
G04 #@! TO.P,J4,1*
G04 #@! TO.N,COL9*
X77470000Y-139382500D03*
G04 #@! TD*
G04 #@! TO.P,J5,1*
G04 #@! TO.N,ROW1*
X151130000Y-82232500D03*
D13*
G04 #@! TO.P,J5,2*
G04 #@! TO.N,ROW2*
X151130000Y-84772500D03*
G04 #@! TO.P,J5,3*
G04 #@! TO.N,ROW3*
X151130000Y-87312500D03*
G04 #@! TO.P,J5,4*
G04 #@! TO.N,ROW4*
X151130000Y-89852500D03*
G04 #@! TD*
G04 #@! TO.P,J6,4*
G04 #@! TO.N,COL8*
X151130000Y-108902500D03*
G04 #@! TO.P,J6,3*
G04 #@! TO.N,COL7*
X151130000Y-106362500D03*
G04 #@! TO.P,J6,2*
G04 #@! TO.N,COL6*
X151130000Y-103822500D03*
D12*
G04 #@! TO.P,J6,1*
G04 #@! TO.N,COL5*
X151130000Y-101282500D03*
G04 #@! TD*
G04 #@! TO.P,J7,1*
G04 #@! TO.N,COL9*
X151130000Y-120332500D03*
D13*
G04 #@! TO.P,J7,2*
G04 #@! TO.N,COL10*
X151130000Y-122872500D03*
G04 #@! TO.P,J7,3*
G04 #@! TO.N,COL11*
X151130000Y-125412500D03*
G04 #@! TO.P,J7,4*
G04 #@! TO.N,COL12*
X151130000Y-127952500D03*
G04 #@! TD*
G04 #@! TO.P,J8,4*
G04 #@! TO.N,COL16*
X151130000Y-147002500D03*
G04 #@! TO.P,J8,3*
G04 #@! TO.N,COL15*
X151130000Y-144462500D03*
G04 #@! TO.P,J8,2*
G04 #@! TO.N,COL14*
X151130000Y-141922500D03*
D12*
G04 #@! TO.P,J8,1*
G04 #@! TO.N,COL13*
X151130000Y-139382500D03*
G04 #@! TD*
G04 #@! TO.P,J9,1*
G04 #@! TO.N,VCC*
X118110000Y-85090000D03*
D13*
G04 #@! TO.P,J9,2*
G04 #@! TO.N,GND*
X120650000Y-85090000D03*
G04 #@! TO.P,J9,3*
G04 #@! TO.N,SWDCLK*
X123190000Y-85090000D03*
G04 #@! TO.P,J9,4*
G04 #@! TO.N,SWDIO*
X125730000Y-85090000D03*
G04 #@! TD*
D14*
G04 #@! TO.P,SW1,*
G04 #@! TO.N,*
X110260000Y-147320000D03*
X113260000Y-147320000D03*
G04 #@! TD*
D15*
G04 #@! TO.P,J10,1*
G04 #@! TO.N,VCC*
X130429000Y-94742000D03*
G04 #@! TO.P,J10,2*
G04 #@! TO.N,SWDIO*
X131699000Y-94742000D03*
G04 #@! TO.P,J10,3*
G04 #@! TO.N,GND*
X132969000Y-94742000D03*
G04 #@! TO.P,J10,4*
G04 #@! TO.N,SWDCLK*
X134239000Y-94742000D03*
G04 #@! TO.P,J10,5*
G04 #@! TO.N,N/C*
X135509000Y-94742000D03*
G04 #@! TO.P,J10,6*
X135509000Y-96012000D03*
G04 #@! TO.P,J10,7*
X134239000Y-96012000D03*
G04 #@! TO.P,J10,8*
X132969000Y-96012000D03*
G04 #@! TO.P,J10,9*
X131699000Y-96012000D03*
G04 #@! TO.P,J10,10*
X130429000Y-96012000D03*
G04 #@! TD*
D16*
G04 #@! TO.P,U1,42*
G04 #@! TO.N,COL14*
X105339000Y-84620000D03*
G04 #@! TO.P,U1,40*
G04 #@! TO.N,COL16*
X105339000Y-85890000D03*
G04 #@! TO.P,U1,38*
G04 #@! TO.N,/P1.02*
X105339000Y-87160000D03*
G04 #@! TO.P,U1,36*
G04 #@! TO.N,N/C*
X105339000Y-88430000D03*
G04 #@! TO.P,U1,34*
G04 #@! TO.N,COL9*
X105339000Y-89700000D03*
G04 #@! TO.P,U1,32*
G04 #@! TO.N,COL10*
X105339000Y-90970000D03*
G04 #@! TO.P,U1,30*
G04 #@! TO.N,COL11*
X105339000Y-92240000D03*
G04 #@! TO.P,U1,28*
G04 #@! TO.N,COL12*
X105339000Y-93510000D03*
G04 #@! TO.P,U1,12*
G04 #@! TO.N,N/C*
X97084000Y-96050000D03*
G04 #@! TO.P,U1,14*
X98354000Y-96050000D03*
G04 #@! TO.P,U1,16*
X99624000Y-96050000D03*
G04 #@! TO.P,U1,24*
X104704000Y-96050000D03*
G04 #@! TO.P,U1,22*
X103434000Y-96050000D03*
G04 #@! TO.P,U1,20*
X102164000Y-96050000D03*
G04 #@! TO.P,U1,18*
X100894000Y-96050000D03*
G04 #@! TD*
D17*
G04 #@! TO.N,GND*
X132334000Y-139319000D03*
X132334000Y-141605000D03*
X129921000Y-139319000D03*
G04 #@! TO.N,COL5*
X99568000Y-102235000D03*
G04 #@! TO.N,COL6*
X100330000Y-103251000D03*
X99187000Y-120142002D03*
X100203000Y-117602000D03*
G04 #@! TO.N,COL7*
X109474000Y-90551000D03*
X102108000Y-117094000D03*
X100457000Y-120396000D03*
G04 #@! TO.N,COL8*
X110744000Y-89408000D03*
X105537000Y-117094000D03*
X100330000Y-121412006D03*
G04 #@! TO.N,COL12*
X88990000Y-115904299D03*
X83693000Y-146304000D03*
G04 #@! TO.N,COL11*
X88138000Y-116459000D03*
X82677000Y-144462500D03*
G04 #@! TO.N,COL10*
X86868000Y-117475000D03*
X83947000Y-141986006D03*
G04 #@! TO.N,COL9*
X85471000Y-139382500D03*
X85642157Y-118337816D03*
G04 #@! TO.N,COL16*
X125224990Y-117678393D03*
G04 #@! TO.N,COL15*
X112210629Y-86254946D03*
X125482834Y-115789417D03*
G04 #@! TO.N,COL14*
X126207844Y-114058924D03*
G04 #@! TO.N,COL13*
X114935000Y-85979000D03*
X126238000Y-112776000D03*
G04 #@! TO.N,GND*
X127381000Y-86740998D03*
X91821000Y-89027000D03*
X90043000Y-89027000D03*
X88265000Y-89027000D03*
X86741000Y-89027000D03*
X98806000Y-109474000D03*
X98806000Y-111633000D03*
X98806000Y-112776000D03*
X91567000Y-121539000D03*
X95250000Y-121539000D03*
X91440000Y-124206000D03*
X94361000Y-124206000D03*
X80772000Y-121539000D03*
X83439000Y-121539000D03*
X80772000Y-123952000D03*
X83566000Y-123952000D03*
X81026000Y-126746000D03*
X83820000Y-126746000D03*
X96012000Y-118999000D03*
X96139000Y-116205000D03*
X90805000Y-119126000D03*
X91059000Y-116205000D03*
X137160000Y-104394000D03*
X132080000Y-99060000D03*
X127000000Y-107823000D03*
X123317000Y-107696000D03*
X125222000Y-109601000D03*
X121920000Y-104140000D03*
X119380000Y-104140000D03*
X119380000Y-101600000D03*
X117856000Y-99060000D03*
X136144000Y-98425000D03*
X127381000Y-95377000D03*
X133223000Y-115316000D03*
X128143000Y-111887000D03*
X135763000Y-112649000D03*
X140081000Y-108204000D03*
X145796000Y-102997000D03*
X148717000Y-100457000D03*
X129794000Y-141605000D03*
X131064000Y-140462002D03*
X115443000Y-129540000D03*
X115443000Y-138430000D03*
X124206000Y-129286000D03*
X111379000Y-129540000D03*
X106680000Y-129159000D03*
X94869000Y-140589000D03*
X103251000Y-123063000D03*
X90805000Y-129667000D03*
X90424000Y-135890000D03*
X96647000Y-129540000D03*
X80518000Y-118745000D03*
X83693000Y-118745000D03*
X80645000Y-129286000D03*
X83820000Y-129286000D03*
X80391000Y-137795000D03*
X83058000Y-137795000D03*
X80391000Y-140589000D03*
X82804000Y-140462000D03*
X80391000Y-143383000D03*
X80264000Y-145796000D03*
X105156000Y-126111000D03*
X108585000Y-126111000D03*
X115697000Y-126111000D03*
X130429000Y-125984000D03*
X123063000Y-125984000D03*
X138938000Y-125984000D03*
X148463000Y-126111000D03*
X148844000Y-121539000D03*
X141351000Y-121666000D03*
X142494000Y-119253000D03*
X150622000Y-117348000D03*
X150749000Y-111379000D03*
X148336000Y-104648000D03*
X135509000Y-117602000D03*
X117221000Y-107950000D03*
X121920000Y-112649000D03*
X118364000Y-91821000D03*
X124841000Y-91948000D03*
X142113000Y-84709000D03*
X144272000Y-85725000D03*
X142240000Y-87630000D03*
X86106000Y-145923000D03*
X98679000Y-140589000D03*
G04 #@! TO.N,VCC*
X124841000Y-94488000D03*
X101092000Y-115824000D03*
X103123996Y-107061000D03*
G04 #@! TO.N,RESET*
X111506000Y-115697000D03*
X111506000Y-99186999D03*
G04 #@! TO.N,/P0.31*
X92329000Y-94234000D03*
X91948000Y-96647000D03*
G04 #@! TO.N,/P1.02*
X84679396Y-118909399D03*
G04 #@! TD*
D18*
G04 #@! TO.N,ROW1*
X150030000Y-82232500D02*
X151130000Y-82232500D01*
X81145374Y-81605010D02*
X134754626Y-81605010D01*
X134754626Y-81605010D02*
X134825636Y-81534000D01*
X80517884Y-82232500D02*
X81145374Y-81605010D01*
X134825636Y-81534000D02*
X149331500Y-81534000D01*
X149331500Y-81534000D02*
X150030000Y-82232500D01*
X77470000Y-82232500D02*
X80517884Y-82232500D01*
G04 #@! TO.N,ROW2*
X145530980Y-82042000D02*
X148261480Y-84772500D01*
X134954047Y-82042000D02*
X145530980Y-82042000D01*
X134941026Y-82055021D02*
X134954047Y-82042000D01*
X79526499Y-83922501D02*
X81393979Y-82055021D01*
X78319999Y-83922501D02*
X79526499Y-83922501D01*
X77470000Y-84772500D02*
X78319999Y-83922501D01*
X81393979Y-82055021D02*
X134941026Y-82055021D01*
X148261480Y-84772500D02*
X151130000Y-84772500D01*
G04 #@! TO.N,ROW3*
X149927919Y-87312500D02*
X151130000Y-87312500D01*
X81851500Y-82931000D02*
X85090000Y-82931000D01*
X77470000Y-87312500D02*
X81851500Y-82931000D01*
X85090000Y-82931000D02*
X85515969Y-82505031D01*
X85515969Y-82505031D02*
X144481031Y-82505031D01*
X144481031Y-82505031D02*
X149288500Y-87312500D01*
X149288500Y-87312500D02*
X149927919Y-87312500D01*
G04 #@! TO.N,ROW4*
X144232541Y-82955041D02*
X151130000Y-89852500D01*
X86081959Y-82955041D02*
X144232541Y-82955041D01*
X85979000Y-83058000D02*
X86081959Y-82955041D01*
X85599410Y-83058000D02*
X85979000Y-83058000D01*
X77470000Y-89852500D02*
X78804910Y-89852500D01*
X78804910Y-89852500D02*
X85599410Y-83058000D01*
G04 #@! TO.N,COL5*
X77470000Y-120332500D02*
X97345500Y-120332500D01*
X97345500Y-104457500D02*
X97345500Y-120332500D01*
X99568000Y-102235000D02*
X97345500Y-104457500D01*
X98806000Y-118872000D02*
X97345500Y-120332500D01*
X132440500Y-118872000D02*
X98806000Y-118872000D01*
X151130000Y-101282500D02*
X150030000Y-101282500D01*
X150030000Y-101282500D02*
X132440500Y-118872000D01*
G04 #@! TO.N,COL6*
X96329502Y-122872500D02*
X77470000Y-122872500D01*
X99060002Y-120142002D02*
X96329502Y-122872500D01*
X99187000Y-120142002D02*
X99060002Y-120142002D01*
X135408501Y-119543999D02*
X99785003Y-119543999D01*
X99586999Y-119742003D02*
X99187000Y-120142002D01*
X99785003Y-119543999D02*
X99586999Y-119742003D01*
X151130000Y-103822500D02*
X135408501Y-119543999D01*
X100330000Y-103251000D02*
X100330000Y-117475000D01*
X100330000Y-117475000D02*
X100203000Y-117602000D01*
G04 #@! TO.N,COL7*
X109023991Y-91001009D02*
X109023991Y-110305009D01*
X109474000Y-90551000D02*
X109023991Y-91001009D01*
X109023991Y-110305009D02*
X108896991Y-110305009D01*
X108896991Y-110305009D02*
X102108000Y-117094000D01*
X101022685Y-120396000D02*
X100457000Y-120396000D01*
X137096500Y-120396000D02*
X101022685Y-120396000D01*
X151130000Y-106362500D02*
X137096500Y-120396000D01*
X100272998Y-120396000D02*
X100457000Y-120396000D01*
X95256498Y-125412500D02*
X100272998Y-120396000D01*
X77470000Y-125412500D02*
X95256498Y-125412500D01*
G04 #@! TO.N,COL8*
X110744000Y-109091590D02*
X109474000Y-110361590D01*
X110744000Y-89408000D02*
X110744000Y-109091590D01*
X109474000Y-110361590D02*
X109474000Y-113157000D01*
X109474000Y-113157000D02*
X105537000Y-117094000D01*
X93789506Y-127952500D02*
X99930001Y-121812005D01*
X99930001Y-121812005D02*
X100330000Y-121412006D01*
X77470000Y-127952500D02*
X93789506Y-127952500D01*
X138620494Y-121412006D02*
X100895685Y-121412006D01*
X151130000Y-108902500D02*
X138620494Y-121412006D01*
X100895685Y-121412006D02*
X100330000Y-121412006D01*
G04 #@! TO.N,COL12*
X89027000Y-104775000D02*
X89027000Y-115867299D01*
X89027000Y-115867299D02*
X88990000Y-115904299D01*
X95377000Y-96266000D02*
X93599000Y-98044000D01*
X93218000Y-98552000D02*
X93218000Y-100584000D01*
X93599000Y-98044000D02*
X93599000Y-98171000D01*
X93218000Y-100584000D02*
X89027000Y-104775000D01*
X93599000Y-98171000D02*
X93218000Y-98552000D01*
X95377000Y-95250000D02*
X95377000Y-96266000D01*
X105339000Y-93510000D02*
X97117000Y-93510000D01*
X97117000Y-93510000D02*
X95377000Y-95250000D01*
X84092999Y-145904001D02*
X83693000Y-146304000D01*
X83293001Y-146703999D02*
X83693000Y-146304000D01*
X82994500Y-147002500D02*
X83293001Y-146703999D01*
X151130000Y-127952500D02*
X102048732Y-127952500D01*
X102048732Y-127952500D02*
X84097231Y-145904001D01*
X77470000Y-147002500D02*
X82994500Y-147002500D01*
X84097231Y-145904001D02*
X84092999Y-145904001D01*
G04 #@! TO.N,COL11*
X84902322Y-144462500D02*
X105158821Y-124206000D01*
X105158821Y-124206000D02*
X149923500Y-124206000D01*
X150280001Y-124562501D02*
X151130000Y-125412500D01*
X149923500Y-124206000D02*
X150280001Y-124562501D01*
X97750589Y-92240000D02*
X94499022Y-95491567D01*
X105339000Y-92240000D02*
X97750589Y-92240000D01*
X94499022Y-95491567D02*
X94499022Y-96507567D01*
X92767989Y-99256011D02*
X88265000Y-103759000D01*
X92767989Y-98238600D02*
X92767989Y-99256011D01*
X94499022Y-96507567D02*
X92767989Y-98238600D01*
X88265000Y-103759000D02*
X88265000Y-116332000D01*
X88265000Y-116332000D02*
X88138000Y-116459000D01*
X77470000Y-144462500D02*
X82677000Y-144462500D01*
X82677000Y-144462500D02*
X84902322Y-144462500D01*
G04 #@! TO.N,COL10*
X86805910Y-141922500D02*
X78672081Y-141922500D01*
X78672081Y-141922500D02*
X77470000Y-141922500D01*
X105855910Y-122872500D02*
X86805910Y-141922500D01*
X151130000Y-122872500D02*
X105855910Y-122872500D01*
X91186000Y-99949000D02*
X86868000Y-104267000D01*
X94049011Y-95305167D02*
X94049011Y-96255402D01*
X98384178Y-90970000D02*
X94049011Y-95305167D01*
X105339000Y-90970000D02*
X98384178Y-90970000D01*
X94049011Y-96255402D02*
X91186000Y-99118412D01*
X91186000Y-99118412D02*
X91186000Y-99949000D01*
X86868000Y-104267000D02*
X86868000Y-117475000D01*
G04 #@! TO.N,COL9*
X106229989Y-121862011D02*
X88709500Y-139382500D01*
X151130000Y-120332500D02*
X140336411Y-120332500D01*
X138806900Y-121862011D02*
X106229989Y-121862011D01*
X140336411Y-120332500D02*
X138806900Y-121862011D01*
X88709500Y-139382500D02*
X85471000Y-139382500D01*
X85471000Y-139382500D02*
X77470000Y-139382500D01*
X105339000Y-89700000D02*
X99017767Y-89700000D01*
X99017767Y-89700000D02*
X93599000Y-95118767D01*
X93599000Y-96069002D02*
X85642157Y-104025845D01*
X85642157Y-104025845D02*
X85642157Y-117772131D01*
X85642157Y-117772131D02*
X85642157Y-118337816D01*
X93599000Y-95118767D02*
X93599000Y-96069002D01*
G04 #@! TO.N,COL16*
X115108967Y-107562370D02*
X124824991Y-117278394D01*
X109766000Y-85890000D02*
X115108967Y-91232967D01*
X115108967Y-91232967D02*
X115108967Y-107562370D01*
X124824991Y-117278394D02*
X125224990Y-117678393D01*
X105339000Y-85890000D02*
X109766000Y-85890000D01*
G04 #@! TO.N,COL15*
X115558978Y-89603295D02*
X115558978Y-104461613D01*
X125482834Y-115223732D02*
X125482834Y-115789417D01*
X115558978Y-104461613D02*
X125482834Y-114385469D01*
X112210629Y-86254946D02*
X115558978Y-89603295D01*
X125482834Y-114385469D02*
X125482834Y-115223732D01*
G04 #@! TO.N,COL14*
X125807845Y-113658925D02*
X126207844Y-114058924D01*
X116008989Y-103860069D02*
X125807845Y-113658925D01*
X116008989Y-89027987D02*
X116008989Y-103860069D01*
X105339000Y-84620000D02*
X111601002Y-84620000D01*
X111601002Y-84620000D02*
X116008989Y-89027987D01*
G04 #@! TO.N,COL13*
X126301500Y-112712500D02*
X126238000Y-112776000D01*
X116459000Y-102870000D02*
X126301500Y-112712500D01*
X114935000Y-85979000D02*
X116459000Y-87503000D01*
X116459000Y-87503000D02*
X116459000Y-102870000D01*
G04 #@! TO.N,GND*
X147701000Y-133477000D02*
X109601000Y-133477000D01*
X127381000Y-87306683D02*
X127381000Y-86740998D01*
X127381000Y-89154000D02*
X127381000Y-87306683D01*
X132969000Y-94742000D02*
X127381000Y-89154000D01*
G04 #@! TO.N,VCC*
X118491000Y-85090000D02*
X118110000Y-85090000D01*
X120523000Y-87122000D02*
X118491000Y-85090000D01*
X130429000Y-94742000D02*
X122809000Y-87122000D01*
X122809000Y-87122000D02*
X120523000Y-87122000D01*
X130035301Y-94348301D02*
X130429000Y-94742000D01*
X129775001Y-94088001D02*
X130035301Y-94348301D01*
X125240999Y-94088001D02*
X129775001Y-94088001D01*
X124841000Y-94488000D02*
X125240999Y-94088001D01*
D19*
X103123996Y-113792004D02*
X103123996Y-107626685D01*
X103123996Y-107626685D02*
X103123996Y-107061000D01*
X101092000Y-115824000D02*
X103123996Y-113792004D01*
D18*
G04 #@! TO.N,RESET*
X111506000Y-115697000D02*
X111506000Y-99186999D01*
G04 #@! TO.N,SWDCLK*
X123190000Y-85090000D02*
X123190000Y-85725000D01*
X134239000Y-94185225D02*
X134239000Y-94742000D01*
X128270000Y-88216225D02*
X134239000Y-94185225D01*
X128270000Y-85725000D02*
X128270000Y-88216225D01*
X126238000Y-83693000D02*
X128270000Y-85725000D01*
X123190000Y-85090000D02*
X124587000Y-83693000D01*
X124587000Y-83693000D02*
X126238000Y-83693000D01*
G04 #@! TO.N,SWDIO*
X125730000Y-85090000D02*
X125730000Y-85725000D01*
X125730000Y-88773000D02*
X125730000Y-85090000D01*
X131699000Y-94742000D02*
X125730000Y-88773000D01*
G04 #@! TO.N,/P0.31*
X91948000Y-95504000D02*
X91948000Y-96647000D01*
X92329000Y-94234000D02*
X92329000Y-95123000D01*
X92329000Y-95123000D02*
X91948000Y-95504000D01*
G04 #@! TO.N,/P1.02*
X84679396Y-100810602D02*
X84679396Y-118909399D01*
X105339000Y-87160000D02*
X98329998Y-87160000D01*
X98329998Y-87160000D02*
X84679396Y-100810602D01*
G04 #@! TD*
D20*
G04 #@! TO.N,GND*
G36*
X150059375Y-129023125D02*
X150550582Y-129351339D01*
X150983744Y-129437500D01*
X151276256Y-129437500D01*
X151690000Y-129355201D01*
X151690000Y-137885060D01*
X150280000Y-137885060D01*
X150032235Y-137934343D01*
X149822191Y-138074691D01*
X149681843Y-138284735D01*
X149632560Y-138532500D01*
X149632560Y-140232500D01*
X149681843Y-140480265D01*
X149822191Y-140690309D01*
X150032235Y-140830657D01*
X150077619Y-140839684D01*
X150059375Y-140851875D01*
X149731161Y-141343082D01*
X149615908Y-141922500D01*
X149731161Y-142501918D01*
X150059375Y-142993125D01*
X150357761Y-143192500D01*
X150059375Y-143391875D01*
X149731161Y-143883082D01*
X149615908Y-144462500D01*
X149731161Y-145041918D01*
X150059375Y-145533125D01*
X150357761Y-145732500D01*
X150059375Y-145931875D01*
X149731161Y-146423082D01*
X149615908Y-147002500D01*
X149731161Y-147581918D01*
X150059375Y-148073125D01*
X150550582Y-148401339D01*
X150983744Y-148487500D01*
X151276256Y-148487500D01*
X151690000Y-148405201D01*
X151690000Y-150328773D01*
X151673751Y-150381922D01*
X151672423Y-150390803D01*
X151610774Y-150821276D01*
X151474352Y-151121322D01*
X151259200Y-151371018D01*
X150982614Y-151550292D01*
X150642479Y-151652013D01*
X150440530Y-151667021D01*
X150336016Y-151690000D01*
X78271227Y-151690000D01*
X78218078Y-151673751D01*
X78209197Y-151672423D01*
X77778724Y-151610774D01*
X77478678Y-151474352D01*
X77228982Y-151259200D01*
X77049708Y-150982614D01*
X76947987Y-150642479D01*
X76932979Y-150440530D01*
X76910000Y-150336016D01*
X76910000Y-148405201D01*
X77323744Y-148487500D01*
X77616256Y-148487500D01*
X78049418Y-148401339D01*
X78540625Y-148073125D01*
X78748178Y-147762500D01*
X82919653Y-147762500D01*
X82994500Y-147777388D01*
X83069347Y-147762500D01*
X83069352Y-147762500D01*
X83291037Y-147718404D01*
X83542429Y-147550429D01*
X83584831Y-147486970D01*
X83732801Y-147339000D01*
X83898874Y-147339000D01*
X84279280Y-147181431D01*
X84366477Y-147094234D01*
X109125000Y-147094234D01*
X109125000Y-147545766D01*
X109297793Y-147962926D01*
X109617074Y-148282207D01*
X110034234Y-148455000D01*
X110485766Y-148455000D01*
X110902926Y-148282207D01*
X111222207Y-147962926D01*
X111395000Y-147545766D01*
X111395000Y-147094234D01*
X112125000Y-147094234D01*
X112125000Y-147545766D01*
X112297793Y-147962926D01*
X112617074Y-148282207D01*
X113034234Y-148455000D01*
X113485766Y-148455000D01*
X113902926Y-148282207D01*
X114222207Y-147962926D01*
X114395000Y-147545766D01*
X114395000Y-147094234D01*
X114222207Y-146677074D01*
X113902926Y-146357793D01*
X113485766Y-146185000D01*
X113034234Y-146185000D01*
X112617074Y-146357793D01*
X112297793Y-146677074D01*
X112125000Y-147094234D01*
X111395000Y-147094234D01*
X111222207Y-146677074D01*
X110902926Y-146357793D01*
X110485766Y-146185000D01*
X110034234Y-146185000D01*
X109617074Y-146357793D01*
X109297793Y-146677074D01*
X109125000Y-147094234D01*
X84366477Y-147094234D01*
X84570431Y-146890280D01*
X84728000Y-146509874D01*
X84728000Y-146348033D01*
X96374165Y-134701868D01*
X108555737Y-134701868D01*
X108666641Y-134979099D01*
X109312593Y-135222323D01*
X110002453Y-135199836D01*
X110535359Y-134979099D01*
X110646263Y-134701868D01*
X146655737Y-134701868D01*
X146766641Y-134979099D01*
X147412593Y-135222323D01*
X148102453Y-135199836D01*
X148635359Y-134979099D01*
X148746263Y-134701868D01*
X147701000Y-133656605D01*
X146655737Y-134701868D01*
X110646263Y-134701868D01*
X109601000Y-133656605D01*
X108555737Y-134701868D01*
X96374165Y-134701868D01*
X97887440Y-133188593D01*
X107855677Y-133188593D01*
X107878164Y-133878453D01*
X108098901Y-134411359D01*
X108376132Y-134522263D01*
X109421395Y-133477000D01*
X109780605Y-133477000D01*
X110825868Y-134522263D01*
X111103099Y-134411359D01*
X111346323Y-133765407D01*
X111327521Y-133188593D01*
X145955677Y-133188593D01*
X145978164Y-133878453D01*
X146198901Y-134411359D01*
X146476132Y-134522263D01*
X147521395Y-133477000D01*
X147880605Y-133477000D01*
X148925868Y-134522263D01*
X149203099Y-134411359D01*
X149446323Y-133765407D01*
X149423836Y-133075547D01*
X149203099Y-132542641D01*
X148925868Y-132431737D01*
X147880605Y-133477000D01*
X147521395Y-133477000D01*
X146476132Y-132431737D01*
X146198901Y-132542641D01*
X145955677Y-133188593D01*
X111327521Y-133188593D01*
X111323836Y-133075547D01*
X111103099Y-132542641D01*
X110825868Y-132431737D01*
X109780605Y-133477000D01*
X109421395Y-133477000D01*
X108376132Y-132431737D01*
X108098901Y-132542641D01*
X107855677Y-133188593D01*
X97887440Y-133188593D01*
X98823901Y-132252132D01*
X108555737Y-132252132D01*
X109601000Y-133297395D01*
X110646263Y-132252132D01*
X146655737Y-132252132D01*
X147701000Y-133297395D01*
X148746263Y-132252132D01*
X148635359Y-131974901D01*
X147989407Y-131731677D01*
X147299547Y-131754164D01*
X146766641Y-131974901D01*
X146655737Y-132252132D01*
X110646263Y-132252132D01*
X110535359Y-131974901D01*
X109889407Y-131731677D01*
X109199547Y-131754164D01*
X108666641Y-131974901D01*
X108555737Y-132252132D01*
X98823901Y-132252132D01*
X102363534Y-128712500D01*
X149851822Y-128712500D01*
X150059375Y-129023125D01*
X150059375Y-129023125D01*
G37*
X150059375Y-129023125D02*
X150550582Y-129351339D01*
X150983744Y-129437500D01*
X151276256Y-129437500D01*
X151690000Y-129355201D01*
X151690000Y-137885060D01*
X150280000Y-137885060D01*
X150032235Y-137934343D01*
X149822191Y-138074691D01*
X149681843Y-138284735D01*
X149632560Y-138532500D01*
X149632560Y-140232500D01*
X149681843Y-140480265D01*
X149822191Y-140690309D01*
X150032235Y-140830657D01*
X150077619Y-140839684D01*
X150059375Y-140851875D01*
X149731161Y-141343082D01*
X149615908Y-141922500D01*
X149731161Y-142501918D01*
X150059375Y-142993125D01*
X150357761Y-143192500D01*
X150059375Y-143391875D01*
X149731161Y-143883082D01*
X149615908Y-144462500D01*
X149731161Y-145041918D01*
X150059375Y-145533125D01*
X150357761Y-145732500D01*
X150059375Y-145931875D01*
X149731161Y-146423082D01*
X149615908Y-147002500D01*
X149731161Y-147581918D01*
X150059375Y-148073125D01*
X150550582Y-148401339D01*
X150983744Y-148487500D01*
X151276256Y-148487500D01*
X151690000Y-148405201D01*
X151690000Y-150328773D01*
X151673751Y-150381922D01*
X151672423Y-150390803D01*
X151610774Y-150821276D01*
X151474352Y-151121322D01*
X151259200Y-151371018D01*
X150982614Y-151550292D01*
X150642479Y-151652013D01*
X150440530Y-151667021D01*
X150336016Y-151690000D01*
X78271227Y-151690000D01*
X78218078Y-151673751D01*
X78209197Y-151672423D01*
X77778724Y-151610774D01*
X77478678Y-151474352D01*
X77228982Y-151259200D01*
X77049708Y-150982614D01*
X76947987Y-150642479D01*
X76932979Y-150440530D01*
X76910000Y-150336016D01*
X76910000Y-148405201D01*
X77323744Y-148487500D01*
X77616256Y-148487500D01*
X78049418Y-148401339D01*
X78540625Y-148073125D01*
X78748178Y-147762500D01*
X82919653Y-147762500D01*
X82994500Y-147777388D01*
X83069347Y-147762500D01*
X83069352Y-147762500D01*
X83291037Y-147718404D01*
X83542429Y-147550429D01*
X83584831Y-147486970D01*
X83732801Y-147339000D01*
X83898874Y-147339000D01*
X84279280Y-147181431D01*
X84366477Y-147094234D01*
X109125000Y-147094234D01*
X109125000Y-147545766D01*
X109297793Y-147962926D01*
X109617074Y-148282207D01*
X110034234Y-148455000D01*
X110485766Y-148455000D01*
X110902926Y-148282207D01*
X111222207Y-147962926D01*
X111395000Y-147545766D01*
X111395000Y-147094234D01*
X112125000Y-147094234D01*
X112125000Y-147545766D01*
X112297793Y-147962926D01*
X112617074Y-148282207D01*
X113034234Y-148455000D01*
X113485766Y-148455000D01*
X113902926Y-148282207D01*
X114222207Y-147962926D01*
X114395000Y-147545766D01*
X114395000Y-147094234D01*
X114222207Y-146677074D01*
X113902926Y-146357793D01*
X113485766Y-146185000D01*
X113034234Y-146185000D01*
X112617074Y-146357793D01*
X112297793Y-146677074D01*
X112125000Y-147094234D01*
X111395000Y-147094234D01*
X111222207Y-146677074D01*
X110902926Y-146357793D01*
X110485766Y-146185000D01*
X110034234Y-146185000D01*
X109617074Y-146357793D01*
X109297793Y-146677074D01*
X109125000Y-147094234D01*
X84366477Y-147094234D01*
X84570431Y-146890280D01*
X84728000Y-146509874D01*
X84728000Y-146348033D01*
X96374165Y-134701868D01*
X108555737Y-134701868D01*
X108666641Y-134979099D01*
X109312593Y-135222323D01*
X110002453Y-135199836D01*
X110535359Y-134979099D01*
X110646263Y-134701868D01*
X146655737Y-134701868D01*
X146766641Y-134979099D01*
X147412593Y-135222323D01*
X148102453Y-135199836D01*
X148635359Y-134979099D01*
X148746263Y-134701868D01*
X147701000Y-133656605D01*
X146655737Y-134701868D01*
X110646263Y-134701868D01*
X109601000Y-133656605D01*
X108555737Y-134701868D01*
X96374165Y-134701868D01*
X97887440Y-133188593D01*
X107855677Y-133188593D01*
X107878164Y-133878453D01*
X108098901Y-134411359D01*
X108376132Y-134522263D01*
X109421395Y-133477000D01*
X109780605Y-133477000D01*
X110825868Y-134522263D01*
X111103099Y-134411359D01*
X111346323Y-133765407D01*
X111327521Y-133188593D01*
X145955677Y-133188593D01*
X145978164Y-133878453D01*
X146198901Y-134411359D01*
X146476132Y-134522263D01*
X147521395Y-133477000D01*
X147880605Y-133477000D01*
X148925868Y-134522263D01*
X149203099Y-134411359D01*
X149446323Y-133765407D01*
X149423836Y-133075547D01*
X149203099Y-132542641D01*
X148925868Y-132431737D01*
X147880605Y-133477000D01*
X147521395Y-133477000D01*
X146476132Y-132431737D01*
X146198901Y-132542641D01*
X145955677Y-133188593D01*
X111327521Y-133188593D01*
X111323836Y-133075547D01*
X111103099Y-132542641D01*
X110825868Y-132431737D01*
X109780605Y-133477000D01*
X109421395Y-133477000D01*
X108376132Y-132431737D01*
X108098901Y-132542641D01*
X107855677Y-133188593D01*
X97887440Y-133188593D01*
X98823901Y-132252132D01*
X108555737Y-132252132D01*
X109601000Y-133297395D01*
X110646263Y-132252132D01*
X146655737Y-132252132D01*
X147701000Y-133297395D01*
X148746263Y-132252132D01*
X148635359Y-131974901D01*
X147989407Y-131731677D01*
X147299547Y-131754164D01*
X146766641Y-131974901D01*
X146655737Y-132252132D01*
X110646263Y-132252132D01*
X110535359Y-131974901D01*
X109889407Y-131731677D01*
X109199547Y-131754164D01*
X108666641Y-131974901D01*
X108555737Y-132252132D01*
X98823901Y-132252132D01*
X102363534Y-128712500D01*
X149851822Y-128712500D01*
X150059375Y-129023125D01*
G36*
X82090720Y-145339931D02*
X82471126Y-145497500D01*
X82882874Y-145497500D01*
X83263280Y-145339931D01*
X83380711Y-145222500D01*
X83703931Y-145222500D01*
X83657431Y-145269000D01*
X83487126Y-145269000D01*
X83106720Y-145426569D01*
X82815569Y-145717720D01*
X82658000Y-146098126D01*
X82658000Y-146242500D01*
X78748178Y-146242500D01*
X78540625Y-145931875D01*
X78242239Y-145732500D01*
X78540625Y-145533125D01*
X78748178Y-145222500D01*
X81973289Y-145222500D01*
X82090720Y-145339931D01*
X82090720Y-145339931D01*
G37*
X82090720Y-145339931D02*
X82471126Y-145497500D01*
X82882874Y-145497500D01*
X83263280Y-145339931D01*
X83380711Y-145222500D01*
X83703931Y-145222500D01*
X83657431Y-145269000D01*
X83487126Y-145269000D01*
X83106720Y-145426569D01*
X82815569Y-145717720D01*
X82658000Y-146098126D01*
X82658000Y-146242500D01*
X78748178Y-146242500D01*
X78540625Y-145931875D01*
X78242239Y-145732500D01*
X78540625Y-145533125D01*
X78748178Y-145222500D01*
X81973289Y-145222500D01*
X82090720Y-145339931D01*
G36*
X83360720Y-142863437D02*
X83741126Y-143021006D01*
X84152874Y-143021006D01*
X84533280Y-142863437D01*
X84714217Y-142682500D01*
X85607521Y-142682500D01*
X84587521Y-143702500D01*
X83380711Y-143702500D01*
X83263280Y-143585069D01*
X82882874Y-143427500D01*
X82471126Y-143427500D01*
X82090720Y-143585069D01*
X81973289Y-143702500D01*
X78748178Y-143702500D01*
X78540625Y-143391875D01*
X78242239Y-143192500D01*
X78540625Y-142993125D01*
X78748178Y-142682500D01*
X83179783Y-142682500D01*
X83360720Y-142863437D01*
X83360720Y-142863437D01*
G37*
X83360720Y-142863437D02*
X83741126Y-143021006D01*
X84152874Y-143021006D01*
X84533280Y-142863437D01*
X84714217Y-142682500D01*
X85607521Y-142682500D01*
X84587521Y-143702500D01*
X83380711Y-143702500D01*
X83263280Y-143585069D01*
X82882874Y-143427500D01*
X82471126Y-143427500D01*
X82090720Y-143585069D01*
X81973289Y-143702500D01*
X78748178Y-143702500D01*
X78540625Y-143391875D01*
X78242239Y-143192500D01*
X78540625Y-142993125D01*
X78748178Y-142682500D01*
X83179783Y-142682500D01*
X83360720Y-142863437D01*
G36*
X84884720Y-140259931D02*
X85265126Y-140417500D01*
X85676874Y-140417500D01*
X86057280Y-140259931D01*
X86174711Y-140142500D01*
X87511109Y-140142500D01*
X86491109Y-141162500D01*
X84587205Y-141162500D01*
X84533280Y-141108575D01*
X84152874Y-140951006D01*
X83741126Y-140951006D01*
X83360720Y-141108575D01*
X83306795Y-141162500D01*
X78748178Y-141162500D01*
X78540625Y-140851875D01*
X78522381Y-140839684D01*
X78567765Y-140830657D01*
X78777809Y-140690309D01*
X78918157Y-140480265D01*
X78967440Y-140232500D01*
X78967440Y-140142500D01*
X84767289Y-140142500D01*
X84884720Y-140259931D01*
X84884720Y-140259931D01*
G37*
X84884720Y-140259931D02*
X85265126Y-140417500D01*
X85676874Y-140417500D01*
X86057280Y-140259931D01*
X86174711Y-140142500D01*
X87511109Y-140142500D01*
X86491109Y-141162500D01*
X84587205Y-141162500D01*
X84533280Y-141108575D01*
X84152874Y-140951006D01*
X83741126Y-140951006D01*
X83360720Y-141108575D01*
X83306795Y-141162500D01*
X78748178Y-141162500D01*
X78540625Y-140851875D01*
X78522381Y-140839684D01*
X78567765Y-140830657D01*
X78777809Y-140690309D01*
X78918157Y-140480265D01*
X78967440Y-140232500D01*
X78967440Y-140142500D01*
X84767289Y-140142500D01*
X84884720Y-140259931D01*
G36*
X88394699Y-138622500D02*
X86174711Y-138622500D01*
X86057280Y-138505069D01*
X85676874Y-138347500D01*
X85265126Y-138347500D01*
X84884720Y-138505069D01*
X84767289Y-138622500D01*
X78967440Y-138622500D01*
X78967440Y-138532500D01*
X78918157Y-138284735D01*
X78777809Y-138074691D01*
X78567765Y-137934343D01*
X78320000Y-137885060D01*
X76910000Y-137885060D01*
X76910000Y-134701868D01*
X79980737Y-134701868D01*
X80091641Y-134979099D01*
X80737593Y-135222323D01*
X81427453Y-135199836D01*
X81960359Y-134979099D01*
X82071263Y-134701868D01*
X81026000Y-133656605D01*
X79980737Y-134701868D01*
X76910000Y-134701868D01*
X76910000Y-133188593D01*
X79280677Y-133188593D01*
X79303164Y-133878453D01*
X79523901Y-134411359D01*
X79801132Y-134522263D01*
X80846395Y-133477000D01*
X81205605Y-133477000D01*
X82250868Y-134522263D01*
X82528099Y-134411359D01*
X82771323Y-133765407D01*
X82748836Y-133075547D01*
X82528099Y-132542641D01*
X82250868Y-132431737D01*
X81205605Y-133477000D01*
X80846395Y-133477000D01*
X79801132Y-132431737D01*
X79523901Y-132542641D01*
X79280677Y-133188593D01*
X76910000Y-133188593D01*
X76910000Y-132252132D01*
X79980737Y-132252132D01*
X81026000Y-133297395D01*
X82071263Y-132252132D01*
X81960359Y-131974901D01*
X81314407Y-131731677D01*
X80624547Y-131754164D01*
X80091641Y-131974901D01*
X79980737Y-132252132D01*
X76910000Y-132252132D01*
X76910000Y-129355201D01*
X77323744Y-129437500D01*
X77616256Y-129437500D01*
X78049418Y-129351339D01*
X78540625Y-129023125D01*
X78748178Y-128712500D01*
X93714659Y-128712500D01*
X93789506Y-128727388D01*
X93864353Y-128712500D01*
X93864358Y-128712500D01*
X94086043Y-128668404D01*
X94337435Y-128500429D01*
X94379837Y-128436970D01*
X100369803Y-122447006D01*
X100535874Y-122447006D01*
X100916280Y-122289437D01*
X101033711Y-122172006D01*
X104845192Y-122172006D01*
X88394699Y-138622500D01*
X88394699Y-138622500D01*
G37*
X88394699Y-138622500D02*
X86174711Y-138622500D01*
X86057280Y-138505069D01*
X85676874Y-138347500D01*
X85265126Y-138347500D01*
X84884720Y-138505069D01*
X84767289Y-138622500D01*
X78967440Y-138622500D01*
X78967440Y-138532500D01*
X78918157Y-138284735D01*
X78777809Y-138074691D01*
X78567765Y-137934343D01*
X78320000Y-137885060D01*
X76910000Y-137885060D01*
X76910000Y-134701868D01*
X79980737Y-134701868D01*
X80091641Y-134979099D01*
X80737593Y-135222323D01*
X81427453Y-135199836D01*
X81960359Y-134979099D01*
X82071263Y-134701868D01*
X81026000Y-133656605D01*
X79980737Y-134701868D01*
X76910000Y-134701868D01*
X76910000Y-133188593D01*
X79280677Y-133188593D01*
X79303164Y-133878453D01*
X79523901Y-134411359D01*
X79801132Y-134522263D01*
X80846395Y-133477000D01*
X81205605Y-133477000D01*
X82250868Y-134522263D01*
X82528099Y-134411359D01*
X82771323Y-133765407D01*
X82748836Y-133075547D01*
X82528099Y-132542641D01*
X82250868Y-132431737D01*
X81205605Y-133477000D01*
X80846395Y-133477000D01*
X79801132Y-132431737D01*
X79523901Y-132542641D01*
X79280677Y-133188593D01*
X76910000Y-133188593D01*
X76910000Y-132252132D01*
X79980737Y-132252132D01*
X81026000Y-133297395D01*
X82071263Y-132252132D01*
X81960359Y-131974901D01*
X81314407Y-131731677D01*
X80624547Y-131754164D01*
X80091641Y-131974901D01*
X79980737Y-132252132D01*
X76910000Y-132252132D01*
X76910000Y-129355201D01*
X77323744Y-129437500D01*
X77616256Y-129437500D01*
X78049418Y-129351339D01*
X78540625Y-129023125D01*
X78748178Y-128712500D01*
X93714659Y-128712500D01*
X93789506Y-128727388D01*
X93864353Y-128712500D01*
X93864358Y-128712500D01*
X94086043Y-128668404D01*
X94337435Y-128500429D01*
X94379837Y-128436970D01*
X100369803Y-122447006D01*
X100535874Y-122447006D01*
X100916280Y-122289437D01*
X101033711Y-122172006D01*
X104845192Y-122172006D01*
X88394699Y-138622500D01*
G36*
X149688791Y-125046092D02*
X149615908Y-125412500D01*
X149731161Y-125991918D01*
X150059375Y-126483125D01*
X150357761Y-126682500D01*
X150059375Y-126881875D01*
X149851822Y-127192500D01*
X103247124Y-127192500D01*
X105473624Y-124966000D01*
X149608699Y-124966000D01*
X149688791Y-125046092D01*
X149688791Y-125046092D01*
G37*
X149688791Y-125046092D02*
X149615908Y-125412500D01*
X149731161Y-125991918D01*
X150059375Y-126483125D01*
X150357761Y-126682500D01*
X150059375Y-126881875D01*
X149851822Y-127192500D01*
X103247124Y-127192500D01*
X105473624Y-124966000D01*
X149608699Y-124966000D01*
X149688791Y-125046092D01*
G36*
X93474705Y-127192500D02*
X78748178Y-127192500D01*
X78540625Y-126881875D01*
X78242239Y-126682500D01*
X78540625Y-126483125D01*
X78748178Y-126172500D01*
X94494705Y-126172500D01*
X93474705Y-127192500D01*
X93474705Y-127192500D01*
G37*
X93474705Y-127192500D02*
X78748178Y-127192500D01*
X78540625Y-126881875D01*
X78242239Y-126682500D01*
X78540625Y-126483125D01*
X78748178Y-126172500D01*
X94494705Y-126172500D01*
X93474705Y-127192500D01*
G36*
X94941697Y-124652500D02*
X78748178Y-124652500D01*
X78540625Y-124341875D01*
X78242239Y-124142500D01*
X78540625Y-123943125D01*
X78748178Y-123632500D01*
X95961696Y-123632500D01*
X94941697Y-124652500D01*
X94941697Y-124652500D01*
G37*
X94941697Y-124652500D02*
X78748178Y-124652500D01*
X78540625Y-124341875D01*
X78242239Y-124142500D01*
X78540625Y-123943125D01*
X78748178Y-123632500D01*
X95961696Y-123632500D01*
X94941697Y-124652500D01*
G36*
X96014700Y-122112500D02*
X78748178Y-122112500D01*
X78540625Y-121801875D01*
X78522381Y-121789684D01*
X78567765Y-121780657D01*
X78777809Y-121640309D01*
X78918157Y-121430265D01*
X78967440Y-121182500D01*
X78967440Y-121092500D01*
X97034701Y-121092500D01*
X96014700Y-122112500D01*
X96014700Y-122112500D01*
G37*
X96014700Y-122112500D02*
X78748178Y-122112500D01*
X78540625Y-121801875D01*
X78522381Y-121789684D01*
X78567765Y-121780657D01*
X78777809Y-121640309D01*
X78918157Y-121430265D01*
X78967440Y-121182500D01*
X78967440Y-121092500D01*
X97034701Y-121092500D01*
X96014700Y-122112500D01*
G36*
X149632560Y-121182500D02*
X149681843Y-121430265D01*
X149822191Y-121640309D01*
X150032235Y-121780657D01*
X150077619Y-121789684D01*
X150059375Y-121801875D01*
X149851822Y-122112500D01*
X139631212Y-122112500D01*
X140651213Y-121092500D01*
X149632560Y-121092500D01*
X149632560Y-121182500D01*
X149632560Y-121182500D01*
G37*
X149632560Y-121182500D02*
X149681843Y-121430265D01*
X149822191Y-121640309D01*
X150032235Y-121780657D01*
X150077619Y-121789684D01*
X150059375Y-121801875D01*
X149851822Y-122112500D01*
X139631212Y-122112500D01*
X140651213Y-121092500D01*
X149632560Y-121092500D01*
X149632560Y-121182500D01*
G36*
X151690000Y-118835060D02*
X150280000Y-118835060D01*
X150032235Y-118884343D01*
X149822191Y-119024691D01*
X149681843Y-119234735D01*
X149632560Y-119482500D01*
X149632560Y-119572500D01*
X141534801Y-119572500D01*
X150763593Y-110343709D01*
X150983744Y-110387500D01*
X151276256Y-110387500D01*
X151690001Y-110305201D01*
X151690000Y-118835060D01*
X151690000Y-118835060D01*
G37*
X151690000Y-118835060D02*
X150280000Y-118835060D01*
X150032235Y-118884343D01*
X149822191Y-119024691D01*
X149681843Y-119234735D01*
X149632560Y-119482500D01*
X149632560Y-119572500D01*
X141534801Y-119572500D01*
X150763593Y-110343709D01*
X150983744Y-110387500D01*
X151276256Y-110387500D01*
X151690001Y-110305201D01*
X151690000Y-118835060D01*
G36*
X114348967Y-91547770D02*
X114348968Y-107487518D01*
X114334079Y-107562370D01*
X114348968Y-107637222D01*
X114393064Y-107858907D01*
X114561039Y-108110299D01*
X114624495Y-108152699D01*
X124189990Y-117718195D01*
X124189990Y-117884267D01*
X124284320Y-118112000D01*
X105783916Y-118112000D01*
X106123280Y-117971431D01*
X106414431Y-117680280D01*
X106572000Y-117299874D01*
X106572000Y-117133801D01*
X109958473Y-113747329D01*
X110021929Y-113704929D01*
X110164269Y-113491903D01*
X110189904Y-113453538D01*
X110208056Y-113362280D01*
X110234000Y-113231852D01*
X110234000Y-113231848D01*
X110248888Y-113157000D01*
X110234000Y-113082152D01*
X110234000Y-110676391D01*
X110746000Y-110164391D01*
X110746000Y-114993289D01*
X110628569Y-115110720D01*
X110471000Y-115491126D01*
X110471000Y-115902874D01*
X110628569Y-116283280D01*
X110919720Y-116574431D01*
X111300126Y-116732000D01*
X111711874Y-116732000D01*
X112092280Y-116574431D01*
X112383431Y-116283280D01*
X112541000Y-115902874D01*
X112541000Y-115491126D01*
X112383431Y-115110720D01*
X112266000Y-114993289D01*
X112266000Y-99890710D01*
X112383431Y-99773279D01*
X112541000Y-99392873D01*
X112541000Y-98981125D01*
X112383431Y-98600719D01*
X112092280Y-98309568D01*
X111711874Y-98151999D01*
X111504000Y-98151999D01*
X111504000Y-90111711D01*
X111621431Y-89994280D01*
X111779000Y-89613874D01*
X111779000Y-89202126D01*
X111621431Y-88821720D01*
X111330280Y-88530569D01*
X110949874Y-88373000D01*
X110538126Y-88373000D01*
X110157720Y-88530569D01*
X109866569Y-88821720D01*
X109709000Y-89202126D01*
X109709000Y-89528064D01*
X109679874Y-89516000D01*
X109268126Y-89516000D01*
X108887720Y-89673569D01*
X108596569Y-89964720D01*
X108439000Y-90345126D01*
X108439000Y-90508547D01*
X108308087Y-90704473D01*
X108263991Y-90926158D01*
X108263991Y-90926162D01*
X108249103Y-91001009D01*
X108263991Y-91075856D01*
X108263992Y-109863206D01*
X103892733Y-114234466D01*
X103957648Y-114137314D01*
X104008996Y-113879169D01*
X104008996Y-113879165D01*
X104026333Y-113792005D01*
X104008996Y-113704845D01*
X104008996Y-107629007D01*
X104158996Y-107266874D01*
X104158996Y-106855126D01*
X104001427Y-106474720D01*
X103710276Y-106183569D01*
X103329870Y-106026000D01*
X102918122Y-106026000D01*
X102537716Y-106183569D01*
X102246565Y-106474720D01*
X102088996Y-106855126D01*
X102088996Y-107266874D01*
X102238996Y-107629007D01*
X102238996Y-107713849D01*
X102238997Y-107713854D01*
X102238996Y-113425425D01*
X101090000Y-114574422D01*
X101090000Y-103954711D01*
X101207431Y-103837280D01*
X101365000Y-103456874D01*
X101365000Y-103045126D01*
X101207431Y-102664720D01*
X100916280Y-102373569D01*
X100603000Y-102243804D01*
X100603000Y-102029126D01*
X100445431Y-101648720D01*
X100154280Y-101357569D01*
X99773874Y-101200000D01*
X99362126Y-101200000D01*
X98981720Y-101357569D01*
X98690569Y-101648720D01*
X98533000Y-102029126D01*
X98533000Y-102195198D01*
X96861030Y-103867169D01*
X96797571Y-103909571D01*
X96629596Y-104160964D01*
X96585500Y-104382649D01*
X96585500Y-104382653D01*
X96570612Y-104457500D01*
X96585500Y-104532347D01*
X96585501Y-119572500D01*
X85480006Y-119572500D01*
X85556827Y-119495679D01*
X85607718Y-119372816D01*
X85848031Y-119372816D01*
X86228437Y-119215247D01*
X86519588Y-118924096D01*
X86677157Y-118543690D01*
X86677157Y-118510000D01*
X87073874Y-118510000D01*
X87454280Y-118352431D01*
X87745431Y-118061280D01*
X87903000Y-117680874D01*
X87903000Y-117481936D01*
X87932126Y-117494000D01*
X88343874Y-117494000D01*
X88724280Y-117336431D01*
X89015431Y-117045280D01*
X89059330Y-116939299D01*
X89195874Y-116939299D01*
X89576280Y-116781730D01*
X89867431Y-116490579D01*
X90025000Y-116110173D01*
X90025000Y-115698425D01*
X89867431Y-115318019D01*
X89787000Y-115237588D01*
X89787000Y-105089801D01*
X93702473Y-101174329D01*
X93765929Y-101131929D01*
X93933904Y-100880537D01*
X93978000Y-100658852D01*
X93978000Y-100658848D01*
X93992888Y-100584001D01*
X93978000Y-100509154D01*
X93978000Y-98866802D01*
X94083472Y-98761329D01*
X94146929Y-98718929D01*
X94225914Y-98600719D01*
X94314903Y-98467538D01*
X94314903Y-98467537D01*
X94314904Y-98467536D01*
X94330954Y-98386847D01*
X95861473Y-96856329D01*
X95924929Y-96813929D01*
X96055958Y-96617831D01*
X96092904Y-96562538D01*
X96125379Y-96399270D01*
X96168343Y-96615265D01*
X96308691Y-96825309D01*
X96518735Y-96965657D01*
X96766500Y-97014940D01*
X97401500Y-97014940D01*
X97649265Y-96965657D01*
X97719000Y-96919061D01*
X97788735Y-96965657D01*
X98036500Y-97014940D01*
X98671500Y-97014940D01*
X98919265Y-96965657D01*
X98989000Y-96919061D01*
X99058735Y-96965657D01*
X99306500Y-97014940D01*
X99941500Y-97014940D01*
X100189265Y-96965657D01*
X100259000Y-96919061D01*
X100328735Y-96965657D01*
X100576500Y-97014940D01*
X101211500Y-97014940D01*
X101459265Y-96965657D01*
X101529000Y-96919061D01*
X101598735Y-96965657D01*
X101846500Y-97014940D01*
X102481500Y-97014940D01*
X102729265Y-96965657D01*
X102799000Y-96919061D01*
X102868735Y-96965657D01*
X103116500Y-97014940D01*
X103751500Y-97014940D01*
X103999265Y-96965657D01*
X104069000Y-96919061D01*
X104138735Y-96965657D01*
X104386500Y-97014940D01*
X105021500Y-97014940D01*
X105269265Y-96965657D01*
X105479309Y-96825309D01*
X105619657Y-96615265D01*
X105668940Y-96367500D01*
X105668940Y-95732500D01*
X105619657Y-95484735D01*
X105479309Y-95274691D01*
X105269265Y-95134343D01*
X105021500Y-95085060D01*
X104386500Y-95085060D01*
X104138735Y-95134343D01*
X104069000Y-95180939D01*
X103999265Y-95134343D01*
X103751500Y-95085060D01*
X103116500Y-95085060D01*
X102868735Y-95134343D01*
X102799000Y-95180939D01*
X102729265Y-95134343D01*
X102481500Y-95085060D01*
X101846500Y-95085060D01*
X101598735Y-95134343D01*
X101529000Y-95180939D01*
X101459265Y-95134343D01*
X101211500Y-95085060D01*
X100576500Y-95085060D01*
X100328735Y-95134343D01*
X100259000Y-95180939D01*
X100189265Y-95134343D01*
X99941500Y-95085060D01*
X99306500Y-95085060D01*
X99058735Y-95134343D01*
X98989000Y-95180939D01*
X98919265Y-95134343D01*
X98671500Y-95085060D01*
X98036500Y-95085060D01*
X97788735Y-95134343D01*
X97719000Y-95180939D01*
X97649265Y-95134343D01*
X97401500Y-95085060D01*
X96766500Y-95085060D01*
X96579556Y-95122245D01*
X97431802Y-94270000D01*
X104553462Y-94270000D01*
X104563691Y-94285309D01*
X104773735Y-94425657D01*
X105021500Y-94474940D01*
X105656500Y-94474940D01*
X105904265Y-94425657D01*
X106114309Y-94285309D01*
X106254657Y-94075265D01*
X106303940Y-93827500D01*
X106303940Y-93192500D01*
X106254657Y-92944735D01*
X106208061Y-92875000D01*
X106254657Y-92805265D01*
X106303940Y-92557500D01*
X106303940Y-91922500D01*
X106254657Y-91674735D01*
X106208061Y-91605000D01*
X106254657Y-91535265D01*
X106303940Y-91287500D01*
X106303940Y-90652500D01*
X106254657Y-90404735D01*
X106208061Y-90335000D01*
X106254657Y-90265265D01*
X106303940Y-90017500D01*
X106303940Y-89382500D01*
X106254657Y-89134735D01*
X106208061Y-89065000D01*
X106254657Y-88995265D01*
X106303940Y-88747500D01*
X106303940Y-88112500D01*
X106254657Y-87864735D01*
X106208061Y-87795000D01*
X106254657Y-87725265D01*
X106303940Y-87477500D01*
X106303940Y-86842500D01*
X106265650Y-86650000D01*
X109451199Y-86650000D01*
X114348967Y-91547770D01*
X114348967Y-91547770D01*
G37*
X114348967Y-91547770D02*
X114348968Y-107487518D01*
X114334079Y-107562370D01*
X114348968Y-107637222D01*
X114393064Y-107858907D01*
X114561039Y-108110299D01*
X114624495Y-108152699D01*
X124189990Y-117718195D01*
X124189990Y-117884267D01*
X124284320Y-118112000D01*
X105783916Y-118112000D01*
X106123280Y-117971431D01*
X106414431Y-117680280D01*
X106572000Y-117299874D01*
X106572000Y-117133801D01*
X109958473Y-113747329D01*
X110021929Y-113704929D01*
X110164269Y-113491903D01*
X110189904Y-113453538D01*
X110208056Y-113362280D01*
X110234000Y-113231852D01*
X110234000Y-113231848D01*
X110248888Y-113157000D01*
X110234000Y-113082152D01*
X110234000Y-110676391D01*
X110746000Y-110164391D01*
X110746000Y-114993289D01*
X110628569Y-115110720D01*
X110471000Y-115491126D01*
X110471000Y-115902874D01*
X110628569Y-116283280D01*
X110919720Y-116574431D01*
X111300126Y-116732000D01*
X111711874Y-116732000D01*
X112092280Y-116574431D01*
X112383431Y-116283280D01*
X112541000Y-115902874D01*
X112541000Y-115491126D01*
X112383431Y-115110720D01*
X112266000Y-114993289D01*
X112266000Y-99890710D01*
X112383431Y-99773279D01*
X112541000Y-99392873D01*
X112541000Y-98981125D01*
X112383431Y-98600719D01*
X112092280Y-98309568D01*
X111711874Y-98151999D01*
X111504000Y-98151999D01*
X111504000Y-90111711D01*
X111621431Y-89994280D01*
X111779000Y-89613874D01*
X111779000Y-89202126D01*
X111621431Y-88821720D01*
X111330280Y-88530569D01*
X110949874Y-88373000D01*
X110538126Y-88373000D01*
X110157720Y-88530569D01*
X109866569Y-88821720D01*
X109709000Y-89202126D01*
X109709000Y-89528064D01*
X109679874Y-89516000D01*
X109268126Y-89516000D01*
X108887720Y-89673569D01*
X108596569Y-89964720D01*
X108439000Y-90345126D01*
X108439000Y-90508547D01*
X108308087Y-90704473D01*
X108263991Y-90926158D01*
X108263991Y-90926162D01*
X108249103Y-91001009D01*
X108263991Y-91075856D01*
X108263992Y-109863206D01*
X103892733Y-114234466D01*
X103957648Y-114137314D01*
X104008996Y-113879169D01*
X104008996Y-113879165D01*
X104026333Y-113792005D01*
X104008996Y-113704845D01*
X104008996Y-107629007D01*
X104158996Y-107266874D01*
X104158996Y-106855126D01*
X104001427Y-106474720D01*
X103710276Y-106183569D01*
X103329870Y-106026000D01*
X102918122Y-106026000D01*
X102537716Y-106183569D01*
X102246565Y-106474720D01*
X102088996Y-106855126D01*
X102088996Y-107266874D01*
X102238996Y-107629007D01*
X102238996Y-107713849D01*
X102238997Y-107713854D01*
X102238996Y-113425425D01*
X101090000Y-114574422D01*
X101090000Y-103954711D01*
X101207431Y-103837280D01*
X101365000Y-103456874D01*
X101365000Y-103045126D01*
X101207431Y-102664720D01*
X100916280Y-102373569D01*
X100603000Y-102243804D01*
X100603000Y-102029126D01*
X100445431Y-101648720D01*
X100154280Y-101357569D01*
X99773874Y-101200000D01*
X99362126Y-101200000D01*
X98981720Y-101357569D01*
X98690569Y-101648720D01*
X98533000Y-102029126D01*
X98533000Y-102195198D01*
X96861030Y-103867169D01*
X96797571Y-103909571D01*
X96629596Y-104160964D01*
X96585500Y-104382649D01*
X96585500Y-104382653D01*
X96570612Y-104457500D01*
X96585500Y-104532347D01*
X96585501Y-119572500D01*
X85480006Y-119572500D01*
X85556827Y-119495679D01*
X85607718Y-119372816D01*
X85848031Y-119372816D01*
X86228437Y-119215247D01*
X86519588Y-118924096D01*
X86677157Y-118543690D01*
X86677157Y-118510000D01*
X87073874Y-118510000D01*
X87454280Y-118352431D01*
X87745431Y-118061280D01*
X87903000Y-117680874D01*
X87903000Y-117481936D01*
X87932126Y-117494000D01*
X88343874Y-117494000D01*
X88724280Y-117336431D01*
X89015431Y-117045280D01*
X89059330Y-116939299D01*
X89195874Y-116939299D01*
X89576280Y-116781730D01*
X89867431Y-116490579D01*
X90025000Y-116110173D01*
X90025000Y-115698425D01*
X89867431Y-115318019D01*
X89787000Y-115237588D01*
X89787000Y-105089801D01*
X93702473Y-101174329D01*
X93765929Y-101131929D01*
X93933904Y-100880537D01*
X93978000Y-100658852D01*
X93978000Y-100658848D01*
X93992888Y-100584001D01*
X93978000Y-100509154D01*
X93978000Y-98866802D01*
X94083472Y-98761329D01*
X94146929Y-98718929D01*
X94225914Y-98600719D01*
X94314903Y-98467538D01*
X94314903Y-98467537D01*
X94314904Y-98467536D01*
X94330954Y-98386847D01*
X95861473Y-96856329D01*
X95924929Y-96813929D01*
X96055958Y-96617831D01*
X96092904Y-96562538D01*
X96125379Y-96399270D01*
X96168343Y-96615265D01*
X96308691Y-96825309D01*
X96518735Y-96965657D01*
X96766500Y-97014940D01*
X97401500Y-97014940D01*
X97649265Y-96965657D01*
X97719000Y-96919061D01*
X97788735Y-96965657D01*
X98036500Y-97014940D01*
X98671500Y-97014940D01*
X98919265Y-96965657D01*
X98989000Y-96919061D01*
X99058735Y-96965657D01*
X99306500Y-97014940D01*
X99941500Y-97014940D01*
X100189265Y-96965657D01*
X100259000Y-96919061D01*
X100328735Y-96965657D01*
X100576500Y-97014940D01*
X101211500Y-97014940D01*
X101459265Y-96965657D01*
X101529000Y-96919061D01*
X101598735Y-96965657D01*
X101846500Y-97014940D01*
X102481500Y-97014940D01*
X102729265Y-96965657D01*
X102799000Y-96919061D01*
X102868735Y-96965657D01*
X103116500Y-97014940D01*
X103751500Y-97014940D01*
X103999265Y-96965657D01*
X104069000Y-96919061D01*
X104138735Y-96965657D01*
X104386500Y-97014940D01*
X105021500Y-97014940D01*
X105269265Y-96965657D01*
X105479309Y-96825309D01*
X105619657Y-96615265D01*
X105668940Y-96367500D01*
X105668940Y-95732500D01*
X105619657Y-95484735D01*
X105479309Y-95274691D01*
X105269265Y-95134343D01*
X105021500Y-95085060D01*
X104386500Y-95085060D01*
X104138735Y-95134343D01*
X104069000Y-95180939D01*
X103999265Y-95134343D01*
X103751500Y-95085060D01*
X103116500Y-95085060D01*
X102868735Y-95134343D01*
X102799000Y-95180939D01*
X102729265Y-95134343D01*
X102481500Y-95085060D01*
X101846500Y-95085060D01*
X101598735Y-95134343D01*
X101529000Y-95180939D01*
X101459265Y-95134343D01*
X101211500Y-95085060D01*
X100576500Y-95085060D01*
X100328735Y-95134343D01*
X100259000Y-95180939D01*
X100189265Y-95134343D01*
X99941500Y-95085060D01*
X99306500Y-95085060D01*
X99058735Y-95134343D01*
X98989000Y-95180939D01*
X98919265Y-95134343D01*
X98671500Y-95085060D01*
X98036500Y-95085060D01*
X97788735Y-95134343D01*
X97719000Y-95180939D01*
X97649265Y-95134343D01*
X97401500Y-95085060D01*
X96766500Y-95085060D01*
X96579556Y-95122245D01*
X97431802Y-94270000D01*
X104553462Y-94270000D01*
X104563691Y-94285309D01*
X104773735Y-94425657D01*
X105021500Y-94474940D01*
X105656500Y-94474940D01*
X105904265Y-94425657D01*
X106114309Y-94285309D01*
X106254657Y-94075265D01*
X106303940Y-93827500D01*
X106303940Y-93192500D01*
X106254657Y-92944735D01*
X106208061Y-92875000D01*
X106254657Y-92805265D01*
X106303940Y-92557500D01*
X106303940Y-91922500D01*
X106254657Y-91674735D01*
X106208061Y-91605000D01*
X106254657Y-91535265D01*
X106303940Y-91287500D01*
X106303940Y-90652500D01*
X106254657Y-90404735D01*
X106208061Y-90335000D01*
X106254657Y-90265265D01*
X106303940Y-90017500D01*
X106303940Y-89382500D01*
X106254657Y-89134735D01*
X106208061Y-89065000D01*
X106254657Y-88995265D01*
X106303940Y-88747500D01*
X106303940Y-88112500D01*
X106254657Y-87864735D01*
X106208061Y-87795000D01*
X106254657Y-87725265D01*
X106303940Y-87477500D01*
X106303940Y-86842500D01*
X106265650Y-86650000D01*
X109451199Y-86650000D01*
X114348967Y-91547770D01*
G36*
X104563691Y-83844691D02*
X104423343Y-84054735D01*
X104374060Y-84302500D01*
X104374060Y-84937500D01*
X104423343Y-85185265D01*
X104469939Y-85255000D01*
X104423343Y-85324735D01*
X104374060Y-85572500D01*
X104374060Y-86207500D01*
X104412350Y-86400000D01*
X98404844Y-86400000D01*
X98329997Y-86385112D01*
X98255150Y-86400000D01*
X98255146Y-86400000D01*
X98033461Y-86444096D01*
X98008432Y-86460820D01*
X97845524Y-86569671D01*
X97845522Y-86569673D01*
X97782069Y-86612071D01*
X97739671Y-86675524D01*
X84194926Y-100220271D01*
X84131467Y-100262673D01*
X83963492Y-100514066D01*
X83919396Y-100735751D01*
X83919396Y-100735755D01*
X83904508Y-100810602D01*
X83919396Y-100885449D01*
X83919397Y-118205687D01*
X83801965Y-118323119D01*
X83644396Y-118703525D01*
X83644396Y-119115273D01*
X83801965Y-119495679D01*
X83878786Y-119572500D01*
X78967440Y-119572500D01*
X78967440Y-119482500D01*
X78918157Y-119234735D01*
X78777809Y-119024691D01*
X78567765Y-118884343D01*
X78320000Y-118835060D01*
X76910000Y-118835060D01*
X76910000Y-110305201D01*
X77323744Y-110387500D01*
X77616256Y-110387500D01*
X78049418Y-110301339D01*
X78540625Y-109973125D01*
X78868839Y-109481918D01*
X78984092Y-108902500D01*
X78868839Y-108323082D01*
X78540625Y-107831875D01*
X78242239Y-107632500D01*
X78540625Y-107433125D01*
X78868839Y-106941918D01*
X78984092Y-106362500D01*
X78868839Y-105783082D01*
X78540625Y-105291875D01*
X78242239Y-105092500D01*
X78540625Y-104893125D01*
X78868839Y-104401918D01*
X78984092Y-103822500D01*
X78868839Y-103243082D01*
X78540625Y-102751875D01*
X78522381Y-102739684D01*
X78567765Y-102730657D01*
X78777809Y-102590309D01*
X78918157Y-102380265D01*
X78967440Y-102132500D01*
X78967440Y-100432500D01*
X78918157Y-100184735D01*
X78777809Y-99974691D01*
X78567765Y-99834343D01*
X78320000Y-99785060D01*
X76910000Y-99785060D01*
X76910000Y-96601868D01*
X79980737Y-96601868D01*
X80091641Y-96879099D01*
X80737593Y-97122323D01*
X81427453Y-97099836D01*
X81960359Y-96879099D01*
X82071263Y-96601868D01*
X81026000Y-95556605D01*
X79980737Y-96601868D01*
X76910000Y-96601868D01*
X76910000Y-95088593D01*
X79280677Y-95088593D01*
X79303164Y-95778453D01*
X79523901Y-96311359D01*
X79801132Y-96422263D01*
X80846395Y-95377000D01*
X81205605Y-95377000D01*
X82250868Y-96422263D01*
X82528099Y-96311359D01*
X82771323Y-95665407D01*
X82748836Y-94975547D01*
X82528099Y-94442641D01*
X82250868Y-94331737D01*
X81205605Y-95377000D01*
X80846395Y-95377000D01*
X79801132Y-94331737D01*
X79523901Y-94442641D01*
X79280677Y-95088593D01*
X76910000Y-95088593D01*
X76910000Y-94152132D01*
X79980737Y-94152132D01*
X81026000Y-95197395D01*
X82071263Y-94152132D01*
X81960359Y-93874901D01*
X81314407Y-93631677D01*
X80624547Y-93654164D01*
X80091641Y-93874901D01*
X79980737Y-94152132D01*
X76910000Y-94152132D01*
X76910000Y-91255201D01*
X77323744Y-91337500D01*
X77616256Y-91337500D01*
X78049418Y-91251339D01*
X78540625Y-90923125D01*
X78746053Y-90615681D01*
X78804910Y-90627388D01*
X78879757Y-90612500D01*
X78879762Y-90612500D01*
X79101447Y-90568404D01*
X79352839Y-90400429D01*
X79395241Y-90336970D01*
X85912543Y-83819669D01*
X85979000Y-83832888D01*
X86053847Y-83818000D01*
X86053852Y-83818000D01*
X86275537Y-83773904D01*
X86363632Y-83715041D01*
X104757724Y-83715041D01*
X104563691Y-83844691D01*
X104563691Y-83844691D01*
G37*
X104563691Y-83844691D02*
X104423343Y-84054735D01*
X104374060Y-84302500D01*
X104374060Y-84937500D01*
X104423343Y-85185265D01*
X104469939Y-85255000D01*
X104423343Y-85324735D01*
X104374060Y-85572500D01*
X104374060Y-86207500D01*
X104412350Y-86400000D01*
X98404844Y-86400000D01*
X98329997Y-86385112D01*
X98255150Y-86400000D01*
X98255146Y-86400000D01*
X98033461Y-86444096D01*
X98008432Y-86460820D01*
X97845524Y-86569671D01*
X97845522Y-86569673D01*
X97782069Y-86612071D01*
X97739671Y-86675524D01*
X84194926Y-100220271D01*
X84131467Y-100262673D01*
X83963492Y-100514066D01*
X83919396Y-100735751D01*
X83919396Y-100735755D01*
X83904508Y-100810602D01*
X83919396Y-100885449D01*
X83919397Y-118205687D01*
X83801965Y-118323119D01*
X83644396Y-118703525D01*
X83644396Y-119115273D01*
X83801965Y-119495679D01*
X83878786Y-119572500D01*
X78967440Y-119572500D01*
X78967440Y-119482500D01*
X78918157Y-119234735D01*
X78777809Y-119024691D01*
X78567765Y-118884343D01*
X78320000Y-118835060D01*
X76910000Y-118835060D01*
X76910000Y-110305201D01*
X77323744Y-110387500D01*
X77616256Y-110387500D01*
X78049418Y-110301339D01*
X78540625Y-109973125D01*
X78868839Y-109481918D01*
X78984092Y-108902500D01*
X78868839Y-108323082D01*
X78540625Y-107831875D01*
X78242239Y-107632500D01*
X78540625Y-107433125D01*
X78868839Y-106941918D01*
X78984092Y-106362500D01*
X78868839Y-105783082D01*
X78540625Y-105291875D01*
X78242239Y-105092500D01*
X78540625Y-104893125D01*
X78868839Y-104401918D01*
X78984092Y-103822500D01*
X78868839Y-103243082D01*
X78540625Y-102751875D01*
X78522381Y-102739684D01*
X78567765Y-102730657D01*
X78777809Y-102590309D01*
X78918157Y-102380265D01*
X78967440Y-102132500D01*
X78967440Y-100432500D01*
X78918157Y-100184735D01*
X78777809Y-99974691D01*
X78567765Y-99834343D01*
X78320000Y-99785060D01*
X76910000Y-99785060D01*
X76910000Y-96601868D01*
X79980737Y-96601868D01*
X80091641Y-96879099D01*
X80737593Y-97122323D01*
X81427453Y-97099836D01*
X81960359Y-96879099D01*
X82071263Y-96601868D01*
X81026000Y-95556605D01*
X79980737Y-96601868D01*
X76910000Y-96601868D01*
X76910000Y-95088593D01*
X79280677Y-95088593D01*
X79303164Y-95778453D01*
X79523901Y-96311359D01*
X79801132Y-96422263D01*
X80846395Y-95377000D01*
X81205605Y-95377000D01*
X82250868Y-96422263D01*
X82528099Y-96311359D01*
X82771323Y-95665407D01*
X82748836Y-94975547D01*
X82528099Y-94442641D01*
X82250868Y-94331737D01*
X81205605Y-95377000D01*
X80846395Y-95377000D01*
X79801132Y-94331737D01*
X79523901Y-94442641D01*
X79280677Y-95088593D01*
X76910000Y-95088593D01*
X76910000Y-94152132D01*
X79980737Y-94152132D01*
X81026000Y-95197395D01*
X82071263Y-94152132D01*
X81960359Y-93874901D01*
X81314407Y-93631677D01*
X80624547Y-93654164D01*
X80091641Y-93874901D01*
X79980737Y-94152132D01*
X76910000Y-94152132D01*
X76910000Y-91255201D01*
X77323744Y-91337500D01*
X77616256Y-91337500D01*
X78049418Y-91251339D01*
X78540625Y-90923125D01*
X78746053Y-90615681D01*
X78804910Y-90627388D01*
X78879757Y-90612500D01*
X78879762Y-90612500D01*
X79101447Y-90568404D01*
X79352839Y-90400429D01*
X79395241Y-90336970D01*
X85912543Y-83819669D01*
X85979000Y-83832888D01*
X86053847Y-83818000D01*
X86053852Y-83818000D01*
X86275537Y-83773904D01*
X86363632Y-83715041D01*
X104757724Y-83715041D01*
X104563691Y-83844691D01*
G36*
X149822191Y-102590309D02*
X150032235Y-102730657D01*
X150077619Y-102739684D01*
X150059375Y-102751875D01*
X149731161Y-103243082D01*
X149615908Y-103822500D01*
X149688791Y-104188907D01*
X135093700Y-118783999D01*
X133603302Y-118783999D01*
X149812098Y-102575204D01*
X149822191Y-102590309D01*
X149822191Y-102590309D01*
G37*
X149822191Y-102590309D02*
X150032235Y-102730657D01*
X150077619Y-102739684D01*
X150059375Y-102751875D01*
X149731161Y-103243082D01*
X149615908Y-103822500D01*
X149688791Y-104188907D01*
X135093700Y-118783999D01*
X133603302Y-118783999D01*
X149812098Y-102575204D01*
X149822191Y-102590309D01*
G36*
X99452569Y-103837280D02*
X99570000Y-103954711D01*
X99570001Y-116771288D01*
X99325569Y-117015720D01*
X99168000Y-117396126D01*
X99168000Y-117807874D01*
X99293973Y-118112000D01*
X98880847Y-118112000D01*
X98806000Y-118097112D01*
X98731153Y-118112000D01*
X98731148Y-118112000D01*
X98509463Y-118156096D01*
X98258071Y-118324071D01*
X98215671Y-118387527D01*
X98105500Y-118497698D01*
X98105500Y-104772301D01*
X99331883Y-103545918D01*
X99452569Y-103837280D01*
X99452569Y-103837280D01*
G37*
X99452569Y-103837280D02*
X99570000Y-103954711D01*
X99570001Y-116771288D01*
X99325569Y-117015720D01*
X99168000Y-117396126D01*
X99168000Y-117807874D01*
X99293973Y-118112000D01*
X98880847Y-118112000D01*
X98806000Y-118097112D01*
X98731153Y-118112000D01*
X98731148Y-118112000D01*
X98509463Y-118156096D01*
X98258071Y-118324071D01*
X98215671Y-118387527D01*
X98105500Y-118497698D01*
X98105500Y-104772301D01*
X99331883Y-103545918D01*
X99452569Y-103837280D01*
G36*
X116802191Y-83782191D02*
X116661843Y-83992235D01*
X116612560Y-84240000D01*
X116612560Y-85940000D01*
X116661843Y-86187765D01*
X116802191Y-86397809D01*
X117012235Y-86538157D01*
X117260000Y-86587440D01*
X118913639Y-86587440D01*
X119932670Y-87606472D01*
X119975071Y-87669929D01*
X120226463Y-87837904D01*
X120448148Y-87882000D01*
X120448153Y-87882000D01*
X120523000Y-87896888D01*
X120597847Y-87882000D01*
X122494199Y-87882000D01*
X127940199Y-93328001D01*
X125315845Y-93328001D01*
X125240998Y-93313113D01*
X125166151Y-93328001D01*
X125166147Y-93328001D01*
X124944462Y-93372097D01*
X124823382Y-93453000D01*
X124635126Y-93453000D01*
X124254720Y-93610569D01*
X123963569Y-93901720D01*
X123806000Y-94282126D01*
X123806000Y-94693874D01*
X123963569Y-95074280D01*
X124254720Y-95365431D01*
X124635126Y-95523000D01*
X125046874Y-95523000D01*
X125427280Y-95365431D01*
X125718431Y-95074280D01*
X125812159Y-94848001D01*
X128154691Y-94848001D01*
X128028700Y-95152169D01*
X128028700Y-95601831D01*
X128200778Y-96017264D01*
X128518736Y-96335222D01*
X128934169Y-96507300D01*
X129383831Y-96507300D01*
X129500659Y-96458908D01*
X129556911Y-96594712D01*
X129846288Y-96884089D01*
X130224379Y-97040700D01*
X130633621Y-97040700D01*
X131011712Y-96884089D01*
X131064000Y-96831801D01*
X131116288Y-96884089D01*
X131494379Y-97040700D01*
X131903621Y-97040700D01*
X132281712Y-96884089D01*
X132334000Y-96831801D01*
X132386288Y-96884089D01*
X132764379Y-97040700D01*
X133173621Y-97040700D01*
X133551712Y-96884089D01*
X133604000Y-96831801D01*
X133656288Y-96884089D01*
X134034379Y-97040700D01*
X134443621Y-97040700D01*
X134821712Y-96884089D01*
X134874000Y-96831801D01*
X134926288Y-96884089D01*
X135304379Y-97040700D01*
X135713621Y-97040700D01*
X135807714Y-97001725D01*
X135820778Y-97033264D01*
X136138736Y-97351222D01*
X136554169Y-97523300D01*
X137003831Y-97523300D01*
X137419264Y-97351222D01*
X137737222Y-97033264D01*
X137909300Y-96617831D01*
X137909300Y-96601868D01*
X146655737Y-96601868D01*
X146766641Y-96879099D01*
X147412593Y-97122323D01*
X148102453Y-97099836D01*
X148635359Y-96879099D01*
X148746263Y-96601868D01*
X147701000Y-95556605D01*
X146655737Y-96601868D01*
X137909300Y-96601868D01*
X137909300Y-96168169D01*
X137737222Y-95752736D01*
X137419264Y-95434778D01*
X137279776Y-95377000D01*
X137419264Y-95319222D01*
X137649893Y-95088593D01*
X145955677Y-95088593D01*
X145978164Y-95778453D01*
X146198901Y-96311359D01*
X146476132Y-96422263D01*
X147521395Y-95377000D01*
X147880605Y-95377000D01*
X148925868Y-96422263D01*
X149203099Y-96311359D01*
X149446323Y-95665407D01*
X149423836Y-94975547D01*
X149203099Y-94442641D01*
X148925868Y-94331737D01*
X147880605Y-95377000D01*
X147521395Y-95377000D01*
X146476132Y-94331737D01*
X146198901Y-94442641D01*
X145955677Y-95088593D01*
X137649893Y-95088593D01*
X137737222Y-95001264D01*
X137909300Y-94585831D01*
X137909300Y-94152132D01*
X146655737Y-94152132D01*
X147701000Y-95197395D01*
X148746263Y-94152132D01*
X148635359Y-93874901D01*
X147989407Y-93631677D01*
X147299547Y-93654164D01*
X146766641Y-93874901D01*
X146655737Y-94152132D01*
X137909300Y-94152132D01*
X137909300Y-94136169D01*
X137737222Y-93720736D01*
X137419264Y-93402778D01*
X137003831Y-93230700D01*
X136554169Y-93230700D01*
X136138736Y-93402778D01*
X135820778Y-93720736D01*
X135807714Y-93752275D01*
X135713621Y-93713300D01*
X135304379Y-93713300D01*
X134938875Y-93864697D01*
X134829329Y-93700752D01*
X134786929Y-93637296D01*
X134723473Y-93594896D01*
X129030000Y-87901424D01*
X129030000Y-85799847D01*
X129044888Y-85725000D01*
X129030000Y-85650153D01*
X129030000Y-85650148D01*
X128985904Y-85428463D01*
X128817929Y-85177071D01*
X128754473Y-85134671D01*
X127334842Y-83715041D01*
X143917740Y-83715041D01*
X149688791Y-89486093D01*
X149615908Y-89852500D01*
X149731161Y-90431918D01*
X150059375Y-90923125D01*
X150550582Y-91251339D01*
X150983744Y-91337500D01*
X151276256Y-91337500D01*
X151690001Y-91255201D01*
X151690001Y-99785060D01*
X150280000Y-99785060D01*
X150032235Y-99834343D01*
X149822191Y-99974691D01*
X149681843Y-100184735D01*
X149632560Y-100432500D01*
X149632560Y-100634017D01*
X149545526Y-100692171D01*
X149545524Y-100692173D01*
X149482071Y-100734571D01*
X149439673Y-100798024D01*
X132125699Y-118112000D01*
X126165660Y-118112000D01*
X126259990Y-117884267D01*
X126259990Y-117472519D01*
X126102421Y-117092113D01*
X125811270Y-116800962D01*
X125778302Y-116787306D01*
X126069114Y-116666848D01*
X126360265Y-116375697D01*
X126517834Y-115995291D01*
X126517834Y-115583543D01*
X126360265Y-115203137D01*
X126251052Y-115093924D01*
X126413718Y-115093924D01*
X126794124Y-114936355D01*
X127085275Y-114645204D01*
X127242844Y-114264798D01*
X127242844Y-113853050D01*
X127085275Y-113472644D01*
X127045171Y-113432540D01*
X127115431Y-113362280D01*
X127273000Y-112981874D01*
X127273000Y-112570126D01*
X127115431Y-112189720D01*
X126824280Y-111898569D01*
X126443874Y-111741000D01*
X126404802Y-111741000D01*
X117219000Y-102555199D01*
X117219000Y-96601868D01*
X118080737Y-96601868D01*
X118191641Y-96879099D01*
X118837593Y-97122323D01*
X119527453Y-97099836D01*
X120060359Y-96879099D01*
X120171263Y-96601868D01*
X119126000Y-95556605D01*
X118080737Y-96601868D01*
X117219000Y-96601868D01*
X117219000Y-95088593D01*
X117380677Y-95088593D01*
X117403164Y-95778453D01*
X117623901Y-96311359D01*
X117901132Y-96422263D01*
X118946395Y-95377000D01*
X119305605Y-95377000D01*
X120350868Y-96422263D01*
X120628099Y-96311359D01*
X120871323Y-95665407D01*
X120848836Y-94975547D01*
X120628099Y-94442641D01*
X120350868Y-94331737D01*
X119305605Y-95377000D01*
X118946395Y-95377000D01*
X117901132Y-94331737D01*
X117623901Y-94442641D01*
X117380677Y-95088593D01*
X117219000Y-95088593D01*
X117219000Y-94152132D01*
X118080737Y-94152132D01*
X119126000Y-95197395D01*
X120171263Y-94152132D01*
X120060359Y-93874901D01*
X119414407Y-93631677D01*
X118724547Y-93654164D01*
X118191641Y-93874901D01*
X118080737Y-94152132D01*
X117219000Y-94152132D01*
X117219000Y-87577846D01*
X117233888Y-87502999D01*
X117219000Y-87428152D01*
X117219000Y-87428148D01*
X117174904Y-87206463D01*
X117118468Y-87122000D01*
X117049329Y-87018526D01*
X117049327Y-87018524D01*
X117006929Y-86955071D01*
X116943476Y-86912673D01*
X115970000Y-85939198D01*
X115970000Y-85773126D01*
X115812431Y-85392720D01*
X115521280Y-85101569D01*
X115140874Y-84944000D01*
X114729126Y-84944000D01*
X114348720Y-85101569D01*
X114057569Y-85392720D01*
X113900000Y-85773126D01*
X113900000Y-85844197D01*
X112191333Y-84135530D01*
X112148931Y-84072071D01*
X111897539Y-83904096D01*
X111675854Y-83860000D01*
X111675849Y-83860000D01*
X111601002Y-83845112D01*
X111526155Y-83860000D01*
X106124538Y-83860000D01*
X106114309Y-83844691D01*
X105920276Y-83715041D01*
X116902687Y-83715041D01*
X116802191Y-83782191D01*
X116802191Y-83782191D01*
G37*
X116802191Y-83782191D02*
X116661843Y-83992235D01*
X116612560Y-84240000D01*
X116612560Y-85940000D01*
X116661843Y-86187765D01*
X116802191Y-86397809D01*
X117012235Y-86538157D01*
X117260000Y-86587440D01*
X118913639Y-86587440D01*
X119932670Y-87606472D01*
X119975071Y-87669929D01*
X120226463Y-87837904D01*
X120448148Y-87882000D01*
X120448153Y-87882000D01*
X120523000Y-87896888D01*
X120597847Y-87882000D01*
X122494199Y-87882000D01*
X127940199Y-93328001D01*
X125315845Y-93328001D01*
X125240998Y-93313113D01*
X125166151Y-93328001D01*
X125166147Y-93328001D01*
X124944462Y-93372097D01*
X124823382Y-93453000D01*
X124635126Y-93453000D01*
X124254720Y-93610569D01*
X123963569Y-93901720D01*
X123806000Y-94282126D01*
X123806000Y-94693874D01*
X123963569Y-95074280D01*
X124254720Y-95365431D01*
X124635126Y-95523000D01*
X125046874Y-95523000D01*
X125427280Y-95365431D01*
X125718431Y-95074280D01*
X125812159Y-94848001D01*
X128154691Y-94848001D01*
X128028700Y-95152169D01*
X128028700Y-95601831D01*
X128200778Y-96017264D01*
X128518736Y-96335222D01*
X128934169Y-96507300D01*
X129383831Y-96507300D01*
X129500659Y-96458908D01*
X129556911Y-96594712D01*
X129846288Y-96884089D01*
X130224379Y-97040700D01*
X130633621Y-97040700D01*
X131011712Y-96884089D01*
X131064000Y-96831801D01*
X131116288Y-96884089D01*
X131494379Y-97040700D01*
X131903621Y-97040700D01*
X132281712Y-96884089D01*
X132334000Y-96831801D01*
X132386288Y-96884089D01*
X132764379Y-97040700D01*
X133173621Y-97040700D01*
X133551712Y-96884089D01*
X133604000Y-96831801D01*
X133656288Y-96884089D01*
X134034379Y-97040700D01*
X134443621Y-97040700D01*
X134821712Y-96884089D01*
X134874000Y-96831801D01*
X134926288Y-96884089D01*
X135304379Y-97040700D01*
X135713621Y-97040700D01*
X135807714Y-97001725D01*
X135820778Y-97033264D01*
X136138736Y-97351222D01*
X136554169Y-97523300D01*
X137003831Y-97523300D01*
X137419264Y-97351222D01*
X137737222Y-97033264D01*
X137909300Y-96617831D01*
X137909300Y-96601868D01*
X146655737Y-96601868D01*
X146766641Y-96879099D01*
X147412593Y-97122323D01*
X148102453Y-97099836D01*
X148635359Y-96879099D01*
X148746263Y-96601868D01*
X147701000Y-95556605D01*
X146655737Y-96601868D01*
X137909300Y-96601868D01*
X137909300Y-96168169D01*
X137737222Y-95752736D01*
X137419264Y-95434778D01*
X137279776Y-95377000D01*
X137419264Y-95319222D01*
X137649893Y-95088593D01*
X145955677Y-95088593D01*
X145978164Y-95778453D01*
X146198901Y-96311359D01*
X146476132Y-96422263D01*
X147521395Y-95377000D01*
X147880605Y-95377000D01*
X148925868Y-96422263D01*
X149203099Y-96311359D01*
X149446323Y-95665407D01*
X149423836Y-94975547D01*
X149203099Y-94442641D01*
X148925868Y-94331737D01*
X147880605Y-95377000D01*
X147521395Y-95377000D01*
X146476132Y-94331737D01*
X146198901Y-94442641D01*
X145955677Y-95088593D01*
X137649893Y-95088593D01*
X137737222Y-95001264D01*
X137909300Y-94585831D01*
X137909300Y-94152132D01*
X146655737Y-94152132D01*
X147701000Y-95197395D01*
X148746263Y-94152132D01*
X148635359Y-93874901D01*
X147989407Y-93631677D01*
X147299547Y-93654164D01*
X146766641Y-93874901D01*
X146655737Y-94152132D01*
X137909300Y-94152132D01*
X137909300Y-94136169D01*
X137737222Y-93720736D01*
X137419264Y-93402778D01*
X137003831Y-93230700D01*
X136554169Y-93230700D01*
X136138736Y-93402778D01*
X135820778Y-93720736D01*
X135807714Y-93752275D01*
X135713621Y-93713300D01*
X135304379Y-93713300D01*
X134938875Y-93864697D01*
X134829329Y-93700752D01*
X134786929Y-93637296D01*
X134723473Y-93594896D01*
X129030000Y-87901424D01*
X129030000Y-85799847D01*
X129044888Y-85725000D01*
X129030000Y-85650153D01*
X129030000Y-85650148D01*
X128985904Y-85428463D01*
X128817929Y-85177071D01*
X128754473Y-85134671D01*
X127334842Y-83715041D01*
X143917740Y-83715041D01*
X149688791Y-89486093D01*
X149615908Y-89852500D01*
X149731161Y-90431918D01*
X150059375Y-90923125D01*
X150550582Y-91251339D01*
X150983744Y-91337500D01*
X151276256Y-91337500D01*
X151690001Y-91255201D01*
X151690001Y-99785060D01*
X150280000Y-99785060D01*
X150032235Y-99834343D01*
X149822191Y-99974691D01*
X149681843Y-100184735D01*
X149632560Y-100432500D01*
X149632560Y-100634017D01*
X149545526Y-100692171D01*
X149545524Y-100692173D01*
X149482071Y-100734571D01*
X149439673Y-100798024D01*
X132125699Y-118112000D01*
X126165660Y-118112000D01*
X126259990Y-117884267D01*
X126259990Y-117472519D01*
X126102421Y-117092113D01*
X125811270Y-116800962D01*
X125778302Y-116787306D01*
X126069114Y-116666848D01*
X126360265Y-116375697D01*
X126517834Y-115995291D01*
X126517834Y-115583543D01*
X126360265Y-115203137D01*
X126251052Y-115093924D01*
X126413718Y-115093924D01*
X126794124Y-114936355D01*
X127085275Y-114645204D01*
X127242844Y-114264798D01*
X127242844Y-113853050D01*
X127085275Y-113472644D01*
X127045171Y-113432540D01*
X127115431Y-113362280D01*
X127273000Y-112981874D01*
X127273000Y-112570126D01*
X127115431Y-112189720D01*
X126824280Y-111898569D01*
X126443874Y-111741000D01*
X126404802Y-111741000D01*
X117219000Y-102555199D01*
X117219000Y-96601868D01*
X118080737Y-96601868D01*
X118191641Y-96879099D01*
X118837593Y-97122323D01*
X119527453Y-97099836D01*
X120060359Y-96879099D01*
X120171263Y-96601868D01*
X119126000Y-95556605D01*
X118080737Y-96601868D01*
X117219000Y-96601868D01*
X117219000Y-95088593D01*
X117380677Y-95088593D01*
X117403164Y-95778453D01*
X117623901Y-96311359D01*
X117901132Y-96422263D01*
X118946395Y-95377000D01*
X119305605Y-95377000D01*
X120350868Y-96422263D01*
X120628099Y-96311359D01*
X120871323Y-95665407D01*
X120848836Y-94975547D01*
X120628099Y-94442641D01*
X120350868Y-94331737D01*
X119305605Y-95377000D01*
X118946395Y-95377000D01*
X117901132Y-94331737D01*
X117623901Y-94442641D01*
X117380677Y-95088593D01*
X117219000Y-95088593D01*
X117219000Y-94152132D01*
X118080737Y-94152132D01*
X119126000Y-95197395D01*
X120171263Y-94152132D01*
X120060359Y-93874901D01*
X119414407Y-93631677D01*
X118724547Y-93654164D01*
X118191641Y-93874901D01*
X118080737Y-94152132D01*
X117219000Y-94152132D01*
X117219000Y-87577846D01*
X117233888Y-87502999D01*
X117219000Y-87428152D01*
X117219000Y-87428148D01*
X117174904Y-87206463D01*
X117118468Y-87122000D01*
X117049329Y-87018526D01*
X117049327Y-87018524D01*
X117006929Y-86955071D01*
X116943476Y-86912673D01*
X115970000Y-85939198D01*
X115970000Y-85773126D01*
X115812431Y-85392720D01*
X115521280Y-85101569D01*
X115140874Y-84944000D01*
X114729126Y-84944000D01*
X114348720Y-85101569D01*
X114057569Y-85392720D01*
X113900000Y-85773126D01*
X113900000Y-85844197D01*
X112191333Y-84135530D01*
X112148931Y-84072071D01*
X111897539Y-83904096D01*
X111675854Y-83860000D01*
X111675849Y-83860000D01*
X111601002Y-83845112D01*
X111526155Y-83860000D01*
X106124538Y-83860000D01*
X106114309Y-83844691D01*
X105920276Y-83715041D01*
X116902687Y-83715041D01*
X116802191Y-83782191D01*
G36*
X124722834Y-114700271D02*
X124722834Y-115085706D01*
X124605403Y-115203137D01*
X124447834Y-115583543D01*
X124447834Y-115826435D01*
X115868967Y-107247569D01*
X115868967Y-105846403D01*
X124722834Y-114700271D01*
X124722834Y-114700271D01*
G37*
X124722834Y-114700271D02*
X124722834Y-115085706D01*
X124605403Y-115203137D01*
X124447834Y-115583543D01*
X124447834Y-115826435D01*
X115868967Y-107247569D01*
X115868967Y-105846403D01*
X124722834Y-114700271D01*
G36*
X133162748Y-94727858D02*
X133148605Y-94742000D01*
X133162748Y-94756143D01*
X132983143Y-94935748D01*
X132969000Y-94921605D01*
X132954858Y-94935748D01*
X132775253Y-94756143D01*
X132789395Y-94742000D01*
X132775253Y-94727858D01*
X132954858Y-94548253D01*
X132969000Y-94562395D01*
X132983143Y-94548253D01*
X133162748Y-94727858D01*
X133162748Y-94727858D01*
G37*
X133162748Y-94727858D02*
X133148605Y-94742000D01*
X133162748Y-94756143D01*
X132983143Y-94935748D01*
X132969000Y-94921605D01*
X132954858Y-94935748D01*
X132775253Y-94756143D01*
X132789395Y-94742000D01*
X132775253Y-94727858D01*
X132954858Y-94548253D01*
X132969000Y-94562395D01*
X132983143Y-94548253D01*
X133162748Y-94727858D01*
G36*
X127510000Y-86039802D02*
X127510001Y-88141373D01*
X127495112Y-88216225D01*
X127510001Y-88291077D01*
X127554097Y-88512762D01*
X127722072Y-88764154D01*
X127785528Y-88806554D01*
X132710102Y-93731129D01*
X132680693Y-93733549D01*
X132459781Y-93825054D01*
X132436389Y-94024588D01*
X132281712Y-93869911D01*
X131903621Y-93713300D01*
X131745102Y-93713300D01*
X126490000Y-88458199D01*
X126490000Y-86368178D01*
X126800625Y-86160625D01*
X127128839Y-85669418D01*
X127130627Y-85660429D01*
X127510000Y-86039802D01*
X127510000Y-86039802D01*
G37*
X127510000Y-86039802D02*
X127510001Y-88141373D01*
X127495112Y-88216225D01*
X127510001Y-88291077D01*
X127554097Y-88512762D01*
X127722072Y-88764154D01*
X127785528Y-88806554D01*
X132710102Y-93731129D01*
X132680693Y-93733549D01*
X132459781Y-93825054D01*
X132436389Y-94024588D01*
X132281712Y-93869911D01*
X131903621Y-93713300D01*
X131745102Y-93713300D01*
X126490000Y-88458199D01*
X126490000Y-86368178D01*
X126800625Y-86160625D01*
X127128839Y-85669418D01*
X127130627Y-85660429D01*
X127510000Y-86039802D01*
G36*
X120777000Y-84963000D02*
X120797000Y-84963000D01*
X120797000Y-85217000D01*
X120777000Y-85217000D01*
X120777000Y-85237000D01*
X120523000Y-85237000D01*
X120523000Y-85217000D01*
X120503000Y-85217000D01*
X120503000Y-84963000D01*
X120523000Y-84963000D01*
X120523000Y-84943000D01*
X120777000Y-84943000D01*
X120777000Y-84963000D01*
X120777000Y-84963000D01*
G37*
X120777000Y-84963000D02*
X120797000Y-84963000D01*
X120797000Y-85217000D01*
X120777000Y-85217000D01*
X120777000Y-85237000D01*
X120523000Y-85237000D01*
X120523000Y-85217000D01*
X120503000Y-85217000D01*
X120503000Y-84963000D01*
X120523000Y-84963000D01*
X120523000Y-84943000D01*
X120777000Y-84943000D01*
X120777000Y-84963000D01*
G04 #@! TD*
M02*
