G04 #@! TF.GenerationSoftware,KiCad,Pcbnew,(5.0.0)*
G04 #@! TF.CreationDate,2018-10-27T23:19:20-06:00*
G04 #@! TF.ProjectId,4x4_backpack,3478345F6261636B7061636B2E6B6963,rev?*
G04 #@! TF.SameCoordinates,Original*
G04 #@! TF.FileFunction,Paste,Top*
G04 #@! TF.FilePolarity,Positive*
%FSLAX46Y46*%
G04 Gerber Fmt 4.6, Leading zero omitted, Abs format (unit mm)*
G04 Created by KiCad (PCBNEW (5.0.0)) date 10/27/18 23:19:20*
%MOMM*%
%LPD*%
G01*
G04 APERTURE LIST*
%ADD10C,0.100000*%
%ADD11C,1.150000*%
%ADD12R,0.900000X0.800000*%
%ADD13R,3.250000X3.250000*%
%ADD14R,0.900000X1.250000*%
%ADD15R,0.900000X0.900000*%
%ADD16R,1.800000X1.100000*%
%ADD17R,0.720000X2.200000*%
%ADD18R,2.200000X0.720000*%
G04 APERTURE END LIST*
D10*
G04 #@! TO.C,C1*
G36*
X88104505Y-93651204D02*
X88128773Y-93654804D01*
X88152572Y-93660765D01*
X88175671Y-93669030D01*
X88197850Y-93679520D01*
X88218893Y-93692132D01*
X88238599Y-93706747D01*
X88256777Y-93723223D01*
X88273253Y-93741401D01*
X88287868Y-93761107D01*
X88300480Y-93782150D01*
X88310970Y-93804329D01*
X88319235Y-93827428D01*
X88325196Y-93851227D01*
X88328796Y-93875495D01*
X88330000Y-93899999D01*
X88330000Y-94550001D01*
X88328796Y-94574505D01*
X88325196Y-94598773D01*
X88319235Y-94622572D01*
X88310970Y-94645671D01*
X88300480Y-94667850D01*
X88287868Y-94688893D01*
X88273253Y-94708599D01*
X88256777Y-94726777D01*
X88238599Y-94743253D01*
X88218893Y-94757868D01*
X88197850Y-94770480D01*
X88175671Y-94780970D01*
X88152572Y-94789235D01*
X88128773Y-94795196D01*
X88104505Y-94798796D01*
X88080001Y-94800000D01*
X87179999Y-94800000D01*
X87155495Y-94798796D01*
X87131227Y-94795196D01*
X87107428Y-94789235D01*
X87084329Y-94780970D01*
X87062150Y-94770480D01*
X87041107Y-94757868D01*
X87021401Y-94743253D01*
X87003223Y-94726777D01*
X86986747Y-94708599D01*
X86972132Y-94688893D01*
X86959520Y-94667850D01*
X86949030Y-94645671D01*
X86940765Y-94622572D01*
X86934804Y-94598773D01*
X86931204Y-94574505D01*
X86930000Y-94550001D01*
X86930000Y-93899999D01*
X86931204Y-93875495D01*
X86934804Y-93851227D01*
X86940765Y-93827428D01*
X86949030Y-93804329D01*
X86959520Y-93782150D01*
X86972132Y-93761107D01*
X86986747Y-93741401D01*
X87003223Y-93723223D01*
X87021401Y-93706747D01*
X87041107Y-93692132D01*
X87062150Y-93679520D01*
X87084329Y-93669030D01*
X87107428Y-93660765D01*
X87131227Y-93654804D01*
X87155495Y-93651204D01*
X87179999Y-93650000D01*
X88080001Y-93650000D01*
X88104505Y-93651204D01*
X88104505Y-93651204D01*
G37*
D11*
X87630000Y-94225000D03*
D10*
G36*
X88104505Y-95701204D02*
X88128773Y-95704804D01*
X88152572Y-95710765D01*
X88175671Y-95719030D01*
X88197850Y-95729520D01*
X88218893Y-95742132D01*
X88238599Y-95756747D01*
X88256777Y-95773223D01*
X88273253Y-95791401D01*
X88287868Y-95811107D01*
X88300480Y-95832150D01*
X88310970Y-95854329D01*
X88319235Y-95877428D01*
X88325196Y-95901227D01*
X88328796Y-95925495D01*
X88330000Y-95949999D01*
X88330000Y-96600001D01*
X88328796Y-96624505D01*
X88325196Y-96648773D01*
X88319235Y-96672572D01*
X88310970Y-96695671D01*
X88300480Y-96717850D01*
X88287868Y-96738893D01*
X88273253Y-96758599D01*
X88256777Y-96776777D01*
X88238599Y-96793253D01*
X88218893Y-96807868D01*
X88197850Y-96820480D01*
X88175671Y-96830970D01*
X88152572Y-96839235D01*
X88128773Y-96845196D01*
X88104505Y-96848796D01*
X88080001Y-96850000D01*
X87179999Y-96850000D01*
X87155495Y-96848796D01*
X87131227Y-96845196D01*
X87107428Y-96839235D01*
X87084329Y-96830970D01*
X87062150Y-96820480D01*
X87041107Y-96807868D01*
X87021401Y-96793253D01*
X87003223Y-96776777D01*
X86986747Y-96758599D01*
X86972132Y-96738893D01*
X86959520Y-96717850D01*
X86949030Y-96695671D01*
X86940765Y-96672572D01*
X86934804Y-96648773D01*
X86931204Y-96624505D01*
X86930000Y-96600001D01*
X86930000Y-95949999D01*
X86931204Y-95925495D01*
X86934804Y-95901227D01*
X86940765Y-95877428D01*
X86949030Y-95854329D01*
X86959520Y-95832150D01*
X86972132Y-95811107D01*
X86986747Y-95791401D01*
X87003223Y-95773223D01*
X87021401Y-95756747D01*
X87041107Y-95742132D01*
X87062150Y-95729520D01*
X87084329Y-95719030D01*
X87107428Y-95710765D01*
X87131227Y-95704804D01*
X87155495Y-95701204D01*
X87179999Y-95700000D01*
X88080001Y-95700000D01*
X88104505Y-95701204D01*
X88104505Y-95701204D01*
G37*
D11*
X87630000Y-96275000D03*
G04 #@! TD*
D10*
G04 #@! TO.C,C2*
G36*
X88104505Y-103811204D02*
X88128773Y-103814804D01*
X88152572Y-103820765D01*
X88175671Y-103829030D01*
X88197850Y-103839520D01*
X88218893Y-103852132D01*
X88238599Y-103866747D01*
X88256777Y-103883223D01*
X88273253Y-103901401D01*
X88287868Y-103921107D01*
X88300480Y-103942150D01*
X88310970Y-103964329D01*
X88319235Y-103987428D01*
X88325196Y-104011227D01*
X88328796Y-104035495D01*
X88330000Y-104059999D01*
X88330000Y-104710001D01*
X88328796Y-104734505D01*
X88325196Y-104758773D01*
X88319235Y-104782572D01*
X88310970Y-104805671D01*
X88300480Y-104827850D01*
X88287868Y-104848893D01*
X88273253Y-104868599D01*
X88256777Y-104886777D01*
X88238599Y-104903253D01*
X88218893Y-104917868D01*
X88197850Y-104930480D01*
X88175671Y-104940970D01*
X88152572Y-104949235D01*
X88128773Y-104955196D01*
X88104505Y-104958796D01*
X88080001Y-104960000D01*
X87179999Y-104960000D01*
X87155495Y-104958796D01*
X87131227Y-104955196D01*
X87107428Y-104949235D01*
X87084329Y-104940970D01*
X87062150Y-104930480D01*
X87041107Y-104917868D01*
X87021401Y-104903253D01*
X87003223Y-104886777D01*
X86986747Y-104868599D01*
X86972132Y-104848893D01*
X86959520Y-104827850D01*
X86949030Y-104805671D01*
X86940765Y-104782572D01*
X86934804Y-104758773D01*
X86931204Y-104734505D01*
X86930000Y-104710001D01*
X86930000Y-104059999D01*
X86931204Y-104035495D01*
X86934804Y-104011227D01*
X86940765Y-103987428D01*
X86949030Y-103964329D01*
X86959520Y-103942150D01*
X86972132Y-103921107D01*
X86986747Y-103901401D01*
X87003223Y-103883223D01*
X87021401Y-103866747D01*
X87041107Y-103852132D01*
X87062150Y-103839520D01*
X87084329Y-103829030D01*
X87107428Y-103820765D01*
X87131227Y-103814804D01*
X87155495Y-103811204D01*
X87179999Y-103810000D01*
X88080001Y-103810000D01*
X88104505Y-103811204D01*
X88104505Y-103811204D01*
G37*
D11*
X87630000Y-104385000D03*
D10*
G36*
X88104505Y-105861204D02*
X88128773Y-105864804D01*
X88152572Y-105870765D01*
X88175671Y-105879030D01*
X88197850Y-105889520D01*
X88218893Y-105902132D01*
X88238599Y-105916747D01*
X88256777Y-105933223D01*
X88273253Y-105951401D01*
X88287868Y-105971107D01*
X88300480Y-105992150D01*
X88310970Y-106014329D01*
X88319235Y-106037428D01*
X88325196Y-106061227D01*
X88328796Y-106085495D01*
X88330000Y-106109999D01*
X88330000Y-106760001D01*
X88328796Y-106784505D01*
X88325196Y-106808773D01*
X88319235Y-106832572D01*
X88310970Y-106855671D01*
X88300480Y-106877850D01*
X88287868Y-106898893D01*
X88273253Y-106918599D01*
X88256777Y-106936777D01*
X88238599Y-106953253D01*
X88218893Y-106967868D01*
X88197850Y-106980480D01*
X88175671Y-106990970D01*
X88152572Y-106999235D01*
X88128773Y-107005196D01*
X88104505Y-107008796D01*
X88080001Y-107010000D01*
X87179999Y-107010000D01*
X87155495Y-107008796D01*
X87131227Y-107005196D01*
X87107428Y-106999235D01*
X87084329Y-106990970D01*
X87062150Y-106980480D01*
X87041107Y-106967868D01*
X87021401Y-106953253D01*
X87003223Y-106936777D01*
X86986747Y-106918599D01*
X86972132Y-106898893D01*
X86959520Y-106877850D01*
X86949030Y-106855671D01*
X86940765Y-106832572D01*
X86934804Y-106808773D01*
X86931204Y-106784505D01*
X86930000Y-106760001D01*
X86930000Y-106109999D01*
X86931204Y-106085495D01*
X86934804Y-106061227D01*
X86940765Y-106037428D01*
X86949030Y-106014329D01*
X86959520Y-105992150D01*
X86972132Y-105971107D01*
X86986747Y-105951401D01*
X87003223Y-105933223D01*
X87021401Y-105916747D01*
X87041107Y-105902132D01*
X87062150Y-105889520D01*
X87084329Y-105879030D01*
X87107428Y-105870765D01*
X87131227Y-105864804D01*
X87155495Y-105861204D01*
X87179999Y-105860000D01*
X88080001Y-105860000D01*
X88104505Y-105861204D01*
X88104505Y-105861204D01*
G37*
D11*
X87630000Y-106435000D03*
G04 #@! TD*
D10*
G04 #@! TO.C,C3*
G36*
X91914505Y-109671204D02*
X91938773Y-109674804D01*
X91962572Y-109680765D01*
X91985671Y-109689030D01*
X92007850Y-109699520D01*
X92028893Y-109712132D01*
X92048599Y-109726747D01*
X92066777Y-109743223D01*
X92083253Y-109761401D01*
X92097868Y-109781107D01*
X92110480Y-109802150D01*
X92120970Y-109824329D01*
X92129235Y-109847428D01*
X92135196Y-109871227D01*
X92138796Y-109895495D01*
X92140000Y-109919999D01*
X92140000Y-110570001D01*
X92138796Y-110594505D01*
X92135196Y-110618773D01*
X92129235Y-110642572D01*
X92120970Y-110665671D01*
X92110480Y-110687850D01*
X92097868Y-110708893D01*
X92083253Y-110728599D01*
X92066777Y-110746777D01*
X92048599Y-110763253D01*
X92028893Y-110777868D01*
X92007850Y-110790480D01*
X91985671Y-110800970D01*
X91962572Y-110809235D01*
X91938773Y-110815196D01*
X91914505Y-110818796D01*
X91890001Y-110820000D01*
X90989999Y-110820000D01*
X90965495Y-110818796D01*
X90941227Y-110815196D01*
X90917428Y-110809235D01*
X90894329Y-110800970D01*
X90872150Y-110790480D01*
X90851107Y-110777868D01*
X90831401Y-110763253D01*
X90813223Y-110746777D01*
X90796747Y-110728599D01*
X90782132Y-110708893D01*
X90769520Y-110687850D01*
X90759030Y-110665671D01*
X90750765Y-110642572D01*
X90744804Y-110618773D01*
X90741204Y-110594505D01*
X90740000Y-110570001D01*
X90740000Y-109919999D01*
X90741204Y-109895495D01*
X90744804Y-109871227D01*
X90750765Y-109847428D01*
X90759030Y-109824329D01*
X90769520Y-109802150D01*
X90782132Y-109781107D01*
X90796747Y-109761401D01*
X90813223Y-109743223D01*
X90831401Y-109726747D01*
X90851107Y-109712132D01*
X90872150Y-109699520D01*
X90894329Y-109689030D01*
X90917428Y-109680765D01*
X90941227Y-109674804D01*
X90965495Y-109671204D01*
X90989999Y-109670000D01*
X91890001Y-109670000D01*
X91914505Y-109671204D01*
X91914505Y-109671204D01*
G37*
D11*
X91440000Y-110245000D03*
D10*
G36*
X91914505Y-107621204D02*
X91938773Y-107624804D01*
X91962572Y-107630765D01*
X91985671Y-107639030D01*
X92007850Y-107649520D01*
X92028893Y-107662132D01*
X92048599Y-107676747D01*
X92066777Y-107693223D01*
X92083253Y-107711401D01*
X92097868Y-107731107D01*
X92110480Y-107752150D01*
X92120970Y-107774329D01*
X92129235Y-107797428D01*
X92135196Y-107821227D01*
X92138796Y-107845495D01*
X92140000Y-107869999D01*
X92140000Y-108520001D01*
X92138796Y-108544505D01*
X92135196Y-108568773D01*
X92129235Y-108592572D01*
X92120970Y-108615671D01*
X92110480Y-108637850D01*
X92097868Y-108658893D01*
X92083253Y-108678599D01*
X92066777Y-108696777D01*
X92048599Y-108713253D01*
X92028893Y-108727868D01*
X92007850Y-108740480D01*
X91985671Y-108750970D01*
X91962572Y-108759235D01*
X91938773Y-108765196D01*
X91914505Y-108768796D01*
X91890001Y-108770000D01*
X90989999Y-108770000D01*
X90965495Y-108768796D01*
X90941227Y-108765196D01*
X90917428Y-108759235D01*
X90894329Y-108750970D01*
X90872150Y-108740480D01*
X90851107Y-108727868D01*
X90831401Y-108713253D01*
X90813223Y-108696777D01*
X90796747Y-108678599D01*
X90782132Y-108658893D01*
X90769520Y-108637850D01*
X90759030Y-108615671D01*
X90750765Y-108592572D01*
X90744804Y-108568773D01*
X90741204Y-108544505D01*
X90740000Y-108520001D01*
X90740000Y-107869999D01*
X90741204Y-107845495D01*
X90744804Y-107821227D01*
X90750765Y-107797428D01*
X90759030Y-107774329D01*
X90769520Y-107752150D01*
X90782132Y-107731107D01*
X90796747Y-107711401D01*
X90813223Y-107693223D01*
X90831401Y-107676747D01*
X90851107Y-107662132D01*
X90872150Y-107649520D01*
X90894329Y-107639030D01*
X90917428Y-107630765D01*
X90941227Y-107624804D01*
X90965495Y-107621204D01*
X90989999Y-107620000D01*
X91890001Y-107620000D01*
X91914505Y-107621204D01*
X91914505Y-107621204D01*
G37*
D11*
X91440000Y-108195000D03*
G04 #@! TD*
D10*
G04 #@! TO.C,C4*
G36*
X88104505Y-87301204D02*
X88128773Y-87304804D01*
X88152572Y-87310765D01*
X88175671Y-87319030D01*
X88197850Y-87329520D01*
X88218893Y-87342132D01*
X88238599Y-87356747D01*
X88256777Y-87373223D01*
X88273253Y-87391401D01*
X88287868Y-87411107D01*
X88300480Y-87432150D01*
X88310970Y-87454329D01*
X88319235Y-87477428D01*
X88325196Y-87501227D01*
X88328796Y-87525495D01*
X88330000Y-87549999D01*
X88330000Y-88200001D01*
X88328796Y-88224505D01*
X88325196Y-88248773D01*
X88319235Y-88272572D01*
X88310970Y-88295671D01*
X88300480Y-88317850D01*
X88287868Y-88338893D01*
X88273253Y-88358599D01*
X88256777Y-88376777D01*
X88238599Y-88393253D01*
X88218893Y-88407868D01*
X88197850Y-88420480D01*
X88175671Y-88430970D01*
X88152572Y-88439235D01*
X88128773Y-88445196D01*
X88104505Y-88448796D01*
X88080001Y-88450000D01*
X87179999Y-88450000D01*
X87155495Y-88448796D01*
X87131227Y-88445196D01*
X87107428Y-88439235D01*
X87084329Y-88430970D01*
X87062150Y-88420480D01*
X87041107Y-88407868D01*
X87021401Y-88393253D01*
X87003223Y-88376777D01*
X86986747Y-88358599D01*
X86972132Y-88338893D01*
X86959520Y-88317850D01*
X86949030Y-88295671D01*
X86940765Y-88272572D01*
X86934804Y-88248773D01*
X86931204Y-88224505D01*
X86930000Y-88200001D01*
X86930000Y-87549999D01*
X86931204Y-87525495D01*
X86934804Y-87501227D01*
X86940765Y-87477428D01*
X86949030Y-87454329D01*
X86959520Y-87432150D01*
X86972132Y-87411107D01*
X86986747Y-87391401D01*
X87003223Y-87373223D01*
X87021401Y-87356747D01*
X87041107Y-87342132D01*
X87062150Y-87329520D01*
X87084329Y-87319030D01*
X87107428Y-87310765D01*
X87131227Y-87304804D01*
X87155495Y-87301204D01*
X87179999Y-87300000D01*
X88080001Y-87300000D01*
X88104505Y-87301204D01*
X88104505Y-87301204D01*
G37*
D11*
X87630000Y-87875000D03*
D10*
G36*
X88104505Y-89351204D02*
X88128773Y-89354804D01*
X88152572Y-89360765D01*
X88175671Y-89369030D01*
X88197850Y-89379520D01*
X88218893Y-89392132D01*
X88238599Y-89406747D01*
X88256777Y-89423223D01*
X88273253Y-89441401D01*
X88287868Y-89461107D01*
X88300480Y-89482150D01*
X88310970Y-89504329D01*
X88319235Y-89527428D01*
X88325196Y-89551227D01*
X88328796Y-89575495D01*
X88330000Y-89599999D01*
X88330000Y-90250001D01*
X88328796Y-90274505D01*
X88325196Y-90298773D01*
X88319235Y-90322572D01*
X88310970Y-90345671D01*
X88300480Y-90367850D01*
X88287868Y-90388893D01*
X88273253Y-90408599D01*
X88256777Y-90426777D01*
X88238599Y-90443253D01*
X88218893Y-90457868D01*
X88197850Y-90470480D01*
X88175671Y-90480970D01*
X88152572Y-90489235D01*
X88128773Y-90495196D01*
X88104505Y-90498796D01*
X88080001Y-90500000D01*
X87179999Y-90500000D01*
X87155495Y-90498796D01*
X87131227Y-90495196D01*
X87107428Y-90489235D01*
X87084329Y-90480970D01*
X87062150Y-90470480D01*
X87041107Y-90457868D01*
X87021401Y-90443253D01*
X87003223Y-90426777D01*
X86986747Y-90408599D01*
X86972132Y-90388893D01*
X86959520Y-90367850D01*
X86949030Y-90345671D01*
X86940765Y-90322572D01*
X86934804Y-90298773D01*
X86931204Y-90274505D01*
X86930000Y-90250001D01*
X86930000Y-89599999D01*
X86931204Y-89575495D01*
X86934804Y-89551227D01*
X86940765Y-89527428D01*
X86949030Y-89504329D01*
X86959520Y-89482150D01*
X86972132Y-89461107D01*
X86986747Y-89441401D01*
X87003223Y-89423223D01*
X87021401Y-89406747D01*
X87041107Y-89392132D01*
X87062150Y-89379520D01*
X87084329Y-89369030D01*
X87107428Y-89360765D01*
X87131227Y-89354804D01*
X87155495Y-89351204D01*
X87179999Y-89350000D01*
X88080001Y-89350000D01*
X88104505Y-89351204D01*
X88104505Y-89351204D01*
G37*
D11*
X87630000Y-89925000D03*
G04 #@! TD*
D10*
G04 #@! TO.C,L1*
G36*
X88104505Y-98731204D02*
X88128773Y-98734804D01*
X88152572Y-98740765D01*
X88175671Y-98749030D01*
X88197850Y-98759520D01*
X88218893Y-98772132D01*
X88238599Y-98786747D01*
X88256777Y-98803223D01*
X88273253Y-98821401D01*
X88287868Y-98841107D01*
X88300480Y-98862150D01*
X88310970Y-98884329D01*
X88319235Y-98907428D01*
X88325196Y-98931227D01*
X88328796Y-98955495D01*
X88330000Y-98979999D01*
X88330000Y-99630001D01*
X88328796Y-99654505D01*
X88325196Y-99678773D01*
X88319235Y-99702572D01*
X88310970Y-99725671D01*
X88300480Y-99747850D01*
X88287868Y-99768893D01*
X88273253Y-99788599D01*
X88256777Y-99806777D01*
X88238599Y-99823253D01*
X88218893Y-99837868D01*
X88197850Y-99850480D01*
X88175671Y-99860970D01*
X88152572Y-99869235D01*
X88128773Y-99875196D01*
X88104505Y-99878796D01*
X88080001Y-99880000D01*
X87179999Y-99880000D01*
X87155495Y-99878796D01*
X87131227Y-99875196D01*
X87107428Y-99869235D01*
X87084329Y-99860970D01*
X87062150Y-99850480D01*
X87041107Y-99837868D01*
X87021401Y-99823253D01*
X87003223Y-99806777D01*
X86986747Y-99788599D01*
X86972132Y-99768893D01*
X86959520Y-99747850D01*
X86949030Y-99725671D01*
X86940765Y-99702572D01*
X86934804Y-99678773D01*
X86931204Y-99654505D01*
X86930000Y-99630001D01*
X86930000Y-98979999D01*
X86931204Y-98955495D01*
X86934804Y-98931227D01*
X86940765Y-98907428D01*
X86949030Y-98884329D01*
X86959520Y-98862150D01*
X86972132Y-98841107D01*
X86986747Y-98821401D01*
X87003223Y-98803223D01*
X87021401Y-98786747D01*
X87041107Y-98772132D01*
X87062150Y-98759520D01*
X87084329Y-98749030D01*
X87107428Y-98740765D01*
X87131227Y-98734804D01*
X87155495Y-98731204D01*
X87179999Y-98730000D01*
X88080001Y-98730000D01*
X88104505Y-98731204D01*
X88104505Y-98731204D01*
G37*
D11*
X87630000Y-99305000D03*
D10*
G36*
X88104505Y-100781204D02*
X88128773Y-100784804D01*
X88152572Y-100790765D01*
X88175671Y-100799030D01*
X88197850Y-100809520D01*
X88218893Y-100822132D01*
X88238599Y-100836747D01*
X88256777Y-100853223D01*
X88273253Y-100871401D01*
X88287868Y-100891107D01*
X88300480Y-100912150D01*
X88310970Y-100934329D01*
X88319235Y-100957428D01*
X88325196Y-100981227D01*
X88328796Y-101005495D01*
X88330000Y-101029999D01*
X88330000Y-101680001D01*
X88328796Y-101704505D01*
X88325196Y-101728773D01*
X88319235Y-101752572D01*
X88310970Y-101775671D01*
X88300480Y-101797850D01*
X88287868Y-101818893D01*
X88273253Y-101838599D01*
X88256777Y-101856777D01*
X88238599Y-101873253D01*
X88218893Y-101887868D01*
X88197850Y-101900480D01*
X88175671Y-101910970D01*
X88152572Y-101919235D01*
X88128773Y-101925196D01*
X88104505Y-101928796D01*
X88080001Y-101930000D01*
X87179999Y-101930000D01*
X87155495Y-101928796D01*
X87131227Y-101925196D01*
X87107428Y-101919235D01*
X87084329Y-101910970D01*
X87062150Y-101900480D01*
X87041107Y-101887868D01*
X87021401Y-101873253D01*
X87003223Y-101856777D01*
X86986747Y-101838599D01*
X86972132Y-101818893D01*
X86959520Y-101797850D01*
X86949030Y-101775671D01*
X86940765Y-101752572D01*
X86934804Y-101728773D01*
X86931204Y-101704505D01*
X86930000Y-101680001D01*
X86930000Y-101029999D01*
X86931204Y-101005495D01*
X86934804Y-100981227D01*
X86940765Y-100957428D01*
X86949030Y-100934329D01*
X86959520Y-100912150D01*
X86972132Y-100891107D01*
X86986747Y-100871401D01*
X87003223Y-100853223D01*
X87021401Y-100836747D01*
X87041107Y-100822132D01*
X87062150Y-100809520D01*
X87084329Y-100799030D01*
X87107428Y-100790765D01*
X87131227Y-100784804D01*
X87155495Y-100781204D01*
X87179999Y-100780000D01*
X88080001Y-100780000D01*
X88104505Y-100781204D01*
X88104505Y-100781204D01*
G37*
D11*
X87630000Y-101355000D03*
G04 #@! TD*
D12*
G04 #@! TO.C,Q1*
X99584000Y-145862000D03*
X99584000Y-147762000D03*
X101584000Y-146812000D03*
G04 #@! TD*
D10*
G04 #@! TO.C,R1*
G36*
X99654505Y-141541204D02*
X99678773Y-141544804D01*
X99702572Y-141550765D01*
X99725671Y-141559030D01*
X99747850Y-141569520D01*
X99768893Y-141582132D01*
X99788599Y-141596747D01*
X99806777Y-141613223D01*
X99823253Y-141631401D01*
X99837868Y-141651107D01*
X99850480Y-141672150D01*
X99860970Y-141694329D01*
X99869235Y-141717428D01*
X99875196Y-141741227D01*
X99878796Y-141765495D01*
X99880000Y-141789999D01*
X99880000Y-142690001D01*
X99878796Y-142714505D01*
X99875196Y-142738773D01*
X99869235Y-142762572D01*
X99860970Y-142785671D01*
X99850480Y-142807850D01*
X99837868Y-142828893D01*
X99823253Y-142848599D01*
X99806777Y-142866777D01*
X99788599Y-142883253D01*
X99768893Y-142897868D01*
X99747850Y-142910480D01*
X99725671Y-142920970D01*
X99702572Y-142929235D01*
X99678773Y-142935196D01*
X99654505Y-142938796D01*
X99630001Y-142940000D01*
X98979999Y-142940000D01*
X98955495Y-142938796D01*
X98931227Y-142935196D01*
X98907428Y-142929235D01*
X98884329Y-142920970D01*
X98862150Y-142910480D01*
X98841107Y-142897868D01*
X98821401Y-142883253D01*
X98803223Y-142866777D01*
X98786747Y-142848599D01*
X98772132Y-142828893D01*
X98759520Y-142807850D01*
X98749030Y-142785671D01*
X98740765Y-142762572D01*
X98734804Y-142738773D01*
X98731204Y-142714505D01*
X98730000Y-142690001D01*
X98730000Y-141789999D01*
X98731204Y-141765495D01*
X98734804Y-141741227D01*
X98740765Y-141717428D01*
X98749030Y-141694329D01*
X98759520Y-141672150D01*
X98772132Y-141651107D01*
X98786747Y-141631401D01*
X98803223Y-141613223D01*
X98821401Y-141596747D01*
X98841107Y-141582132D01*
X98862150Y-141569520D01*
X98884329Y-141559030D01*
X98907428Y-141550765D01*
X98931227Y-141544804D01*
X98955495Y-141541204D01*
X98979999Y-141540000D01*
X99630001Y-141540000D01*
X99654505Y-141541204D01*
X99654505Y-141541204D01*
G37*
D11*
X99305000Y-142240000D03*
D10*
G36*
X101704505Y-141541204D02*
X101728773Y-141544804D01*
X101752572Y-141550765D01*
X101775671Y-141559030D01*
X101797850Y-141569520D01*
X101818893Y-141582132D01*
X101838599Y-141596747D01*
X101856777Y-141613223D01*
X101873253Y-141631401D01*
X101887868Y-141651107D01*
X101900480Y-141672150D01*
X101910970Y-141694329D01*
X101919235Y-141717428D01*
X101925196Y-141741227D01*
X101928796Y-141765495D01*
X101930000Y-141789999D01*
X101930000Y-142690001D01*
X101928796Y-142714505D01*
X101925196Y-142738773D01*
X101919235Y-142762572D01*
X101910970Y-142785671D01*
X101900480Y-142807850D01*
X101887868Y-142828893D01*
X101873253Y-142848599D01*
X101856777Y-142866777D01*
X101838599Y-142883253D01*
X101818893Y-142897868D01*
X101797850Y-142910480D01*
X101775671Y-142920970D01*
X101752572Y-142929235D01*
X101728773Y-142935196D01*
X101704505Y-142938796D01*
X101680001Y-142940000D01*
X101029999Y-142940000D01*
X101005495Y-142938796D01*
X100981227Y-142935196D01*
X100957428Y-142929235D01*
X100934329Y-142920970D01*
X100912150Y-142910480D01*
X100891107Y-142897868D01*
X100871401Y-142883253D01*
X100853223Y-142866777D01*
X100836747Y-142848599D01*
X100822132Y-142828893D01*
X100809520Y-142807850D01*
X100799030Y-142785671D01*
X100790765Y-142762572D01*
X100784804Y-142738773D01*
X100781204Y-142714505D01*
X100780000Y-142690001D01*
X100780000Y-141789999D01*
X100781204Y-141765495D01*
X100784804Y-141741227D01*
X100790765Y-141717428D01*
X100799030Y-141694329D01*
X100809520Y-141672150D01*
X100822132Y-141651107D01*
X100836747Y-141631401D01*
X100853223Y-141613223D01*
X100871401Y-141596747D01*
X100891107Y-141582132D01*
X100912150Y-141569520D01*
X100934329Y-141559030D01*
X100957428Y-141550765D01*
X100981227Y-141544804D01*
X101005495Y-141541204D01*
X101029999Y-141540000D01*
X101680001Y-141540000D01*
X101704505Y-141541204D01*
X101704505Y-141541204D01*
G37*
D11*
X101355000Y-142240000D03*
G04 #@! TD*
D13*
G04 #@! TO.C,E1*
X143510000Y-140462000D03*
X118618000Y-140462000D03*
X131064000Y-140462000D03*
G04 #@! TD*
D14*
G04 #@! TO.C,SW1*
X112510000Y-145245000D03*
X114010000Y-145245000D03*
X109510000Y-145245000D03*
D15*
X108060000Y-148420000D03*
X108060000Y-146220000D03*
X115460000Y-146220000D03*
X115460000Y-148420000D03*
G04 #@! TD*
D16*
G04 #@! TO.C,SW2*
X95810000Y-146630000D03*
X89610000Y-146630000D03*
X95810000Y-142930000D03*
X89610000Y-142930000D03*
G04 #@! TD*
D17*
G04 #@! TO.C,U1*
X108712000Y-105664000D03*
X107442000Y-105664000D03*
X106172000Y-105664000D03*
X104902000Y-105664000D03*
X103632000Y-105664000D03*
X102362000Y-105664000D03*
X101092000Y-105664000D03*
X99822000Y-105664000D03*
X98552000Y-105664000D03*
X97282000Y-105664000D03*
X96012000Y-105664000D03*
X94742000Y-105664000D03*
D18*
X110490000Y-103886000D03*
X110490000Y-102616000D03*
X110490000Y-101346000D03*
X110490000Y-100076000D03*
X110490000Y-98806000D03*
X110490000Y-97536000D03*
X110490000Y-96266000D03*
X110490000Y-94996000D03*
X110490000Y-93726000D03*
X110490000Y-92456000D03*
X110490000Y-91186000D03*
X110490000Y-89916000D03*
X110490000Y-88646000D03*
X110490000Y-87376000D03*
X110490000Y-84836000D03*
X110490000Y-83566000D03*
X92964000Y-83566000D03*
X92964000Y-84836000D03*
X92964000Y-87376000D03*
X92964000Y-88646000D03*
X92964000Y-89916000D03*
X92964000Y-91186000D03*
X92964000Y-92456000D03*
X92964000Y-93726000D03*
X92964000Y-94996000D03*
X92964000Y-96266000D03*
X92964000Y-97536000D03*
X92964000Y-98806000D03*
X92964000Y-100076000D03*
X92964000Y-101346000D03*
X92964000Y-102616000D03*
X92964000Y-103886000D03*
G04 #@! TD*
M02*
