G04 #@! TF.GenerationSoftware,KiCad,Pcbnew,(5.0.0)*
G04 #@! TF.CreationDate,2019-11-08T12:20:02-06:00*
G04 #@! TF.ProjectId,EByte_E73,45427974655F4537332E6B696361645F,rev?*
G04 #@! TF.SameCoordinates,Original*
G04 #@! TF.FileFunction,Copper,L1,Top,Signal*
G04 #@! TF.FilePolarity,Positive*
%FSLAX46Y46*%
G04 Gerber Fmt 4.6, Leading zero omitted, Abs format (unit mm)*
G04 Created by KiCad (PCBNEW (5.0.0)) date 11/08/19 12:20:02*
%MOMM*%
%LPD*%
G01*
G04 APERTURE LIST*
G04 #@! TA.AperFunction,EtchedComponent*
%ADD10C,0.010000*%
G04 #@! TD*
G04 #@! TA.AperFunction,ComponentPad*
%ADD11R,1.752600X1.752600*%
G04 #@! TD*
G04 #@! TA.AperFunction,ComponentPad*
%ADD12C,1.752600*%
G04 #@! TD*
G04 #@! TA.AperFunction,ComponentPad*
%ADD13C,0.400000*%
G04 #@! TD*
G04 #@! TA.AperFunction,SMDPad,CuDef*
%ADD14R,0.720000X2.200000*%
G04 #@! TD*
G04 #@! TA.AperFunction,SMDPad,CuDef*
%ADD15R,2.200000X0.720000*%
G04 #@! TD*
G04 #@! TA.AperFunction,SMDPad,CuDef*
%ADD16R,1.500000X1.900000*%
G04 #@! TD*
G04 #@! TA.AperFunction,ComponentPad*
%ADD17C,1.450000*%
G04 #@! TD*
G04 #@! TA.AperFunction,SMDPad,CuDef*
%ADD18R,0.400000X1.350000*%
G04 #@! TD*
G04 #@! TA.AperFunction,ComponentPad*
%ADD19O,1.200000X1.900000*%
G04 #@! TD*
G04 #@! TA.AperFunction,SMDPad,CuDef*
%ADD20R,1.200000X1.900000*%
G04 #@! TD*
G04 #@! TA.AperFunction,SMDPad,CuDef*
%ADD21R,0.900000X0.800000*%
G04 #@! TD*
G04 #@! TA.AperFunction,SMDPad,CuDef*
%ADD22R,1.250000X1.500000*%
G04 #@! TD*
G04 #@! TA.AperFunction,SMDPad,CuDef*
%ADD23R,1.500000X1.250000*%
G04 #@! TD*
G04 #@! TA.AperFunction,ComponentPad*
%ADD24R,1.700000X1.700000*%
G04 #@! TD*
G04 #@! TA.AperFunction,ComponentPad*
%ADD25O,1.700000X1.700000*%
G04 #@! TD*
G04 #@! TA.AperFunction,SMDPad,CuDef*
%ADD26R,1.500000X1.300000*%
G04 #@! TD*
G04 #@! TA.AperFunction,SMDPad,CuDef*
%ADD27R,0.900000X1.200000*%
G04 #@! TD*
G04 #@! TA.AperFunction,ViaPad*
%ADD28C,0.600000*%
G04 #@! TD*
G04 #@! TA.AperFunction,Conductor*
%ADD29C,0.250000*%
G04 #@! TD*
G04 #@! TA.AperFunction,Conductor*
%ADD30C,0.500000*%
G04 #@! TD*
G04 #@! TA.AperFunction,Conductor*
%ADD31C,0.200000*%
G04 #@! TD*
G04 #@! TA.AperFunction,Conductor*
%ADD32C,0.254000*%
G04 #@! TD*
G04 APERTURE END LIST*
D10*
G04 #@! TO.C,JP2*
G36*
X114251040Y-104288260D02*
X114296240Y-104544760D01*
X114426540Y-104770360D01*
X114626040Y-104937760D01*
X114870840Y-105026860D01*
X115131240Y-105026860D01*
X115376040Y-104937760D01*
X115575540Y-104770360D01*
X115705840Y-104544760D01*
X115751040Y-104288260D01*
X114251040Y-104288260D01*
X114251040Y-104288260D01*
G37*
X114251040Y-104288260D02*
X114296240Y-104544760D01*
X114426540Y-104770360D01*
X114626040Y-104937760D01*
X114870840Y-105026860D01*
X115131240Y-105026860D01*
X115376040Y-104937760D01*
X115575540Y-104770360D01*
X115705840Y-104544760D01*
X115751040Y-104288260D01*
X114251040Y-104288260D01*
G36*
X115751040Y-104088260D02*
X115705840Y-103831760D01*
X115575540Y-103606160D01*
X115376040Y-103438760D01*
X115131240Y-103349660D01*
X114870840Y-103349660D01*
X114626040Y-103438760D01*
X114426540Y-103606160D01*
X114296240Y-103831760D01*
X114251040Y-104088260D01*
X115751040Y-104088260D01*
X115751040Y-104088260D01*
G37*
X115751040Y-104088260D02*
X115705840Y-103831760D01*
X115575540Y-103606160D01*
X115376040Y-103438760D01*
X115131240Y-103349660D01*
X114870840Y-103349660D01*
X114626040Y-103438760D01*
X114426540Y-103606160D01*
X114296240Y-103831760D01*
X114251040Y-104088260D01*
X115751040Y-104088260D01*
G04 #@! TO.C,JP1*
G36*
X103377060Y-147504720D02*
X103120560Y-147549920D01*
X102894960Y-147680220D01*
X102727560Y-147879720D01*
X102638460Y-148124520D01*
X102638460Y-148384920D01*
X102727560Y-148629720D01*
X102894960Y-148829220D01*
X103120560Y-148959520D01*
X103377060Y-149004720D01*
X103377060Y-147504720D01*
X103377060Y-147504720D01*
G37*
X103377060Y-147504720D02*
X103120560Y-147549920D01*
X102894960Y-147680220D01*
X102727560Y-147879720D01*
X102638460Y-148124520D01*
X102638460Y-148384920D01*
X102727560Y-148629720D01*
X102894960Y-148829220D01*
X103120560Y-148959520D01*
X103377060Y-149004720D01*
X103377060Y-147504720D01*
G36*
X103577060Y-149004720D02*
X103833560Y-148959520D01*
X104059160Y-148829220D01*
X104226560Y-148629720D01*
X104315660Y-148384920D01*
X104315660Y-148124520D01*
X104226560Y-147879720D01*
X104059160Y-147680220D01*
X103833560Y-147549920D01*
X103577060Y-147504720D01*
X103577060Y-149004720D01*
X103577060Y-149004720D01*
G37*
X103577060Y-149004720D02*
X103833560Y-148959520D01*
X104059160Y-148829220D01*
X104226560Y-148629720D01*
X104315660Y-148384920D01*
X104315660Y-148124520D01*
X104226560Y-147879720D01*
X104059160Y-147680220D01*
X103833560Y-147549920D01*
X103577060Y-147504720D01*
X103577060Y-149004720D01*
G04 #@! TD*
D11*
G04 #@! TO.P,U2,1*
G04 #@! TO.N,N/C*
X101600000Y-152146000D03*
D12*
G04 #@! TO.P,U2,2*
G04 #@! TO.N,GND*
X101600000Y-149606000D03*
G04 #@! TO.P,U2,3*
G04 #@! TO.N,RESET*
X101600000Y-147066000D03*
G04 #@! TO.P,U2,4*
G04 #@! TO.N,VCC*
X101600000Y-144526000D03*
G04 #@! TO.P,U2,5*
G04 #@! TO.N,/P0.05*
X101600000Y-141986000D03*
G04 #@! TO.P,U2,6*
G04 #@! TO.N,/P0.04*
X101600000Y-139446000D03*
G04 #@! TO.P,U2,7*
G04 #@! TO.N,/P0.03*
X101600000Y-136906000D03*
G04 #@! TO.P,U2,8*
G04 #@! TO.N,/P0.02*
X101600000Y-134366000D03*
G04 #@! TO.P,U2,9*
G04 #@! TO.N,SCK*
X101600000Y-131826000D03*
G04 #@! TO.P,U2,10*
G04 #@! TO.N,MISO*
X101600000Y-129286000D03*
G04 #@! TO.P,U2,11*
G04 #@! TO.N,MOSI*
X101600000Y-126746000D03*
G04 #@! TO.P,U2,12*
G04 #@! TO.N,/P0.11*
X101600000Y-124206000D03*
G04 #@! TO.P,U2,24*
G04 #@! TO.N,/P0.16*
X116840000Y-124206000D03*
G04 #@! TO.P,U2,23*
G04 #@! TO.N,/P0.15*
X116840000Y-126746000D03*
G04 #@! TO.P,U2,22*
G04 #@! TO.N,/P0.30*
X116840000Y-129286000D03*
G04 #@! TO.P,U2,21*
G04 #@! TO.N,/P0.29*
X116840000Y-131826000D03*
G04 #@! TO.P,U2,20*
G04 #@! TO.N,/P0.28*
X116840000Y-134366000D03*
G04 #@! TO.P,U2,19*
G04 #@! TO.N,/P0.27*
X116840000Y-136906000D03*
G04 #@! TO.P,U2,18*
G04 #@! TO.N,SCL*
X116840000Y-139446000D03*
G04 #@! TO.P,U2,17*
G04 #@! TO.N,SDA*
X116840000Y-141986000D03*
G04 #@! TO.P,U2,16*
G04 #@! TO.N,GND*
X116840000Y-144526000D03*
G04 #@! TO.P,U2,15*
X116840000Y-147066000D03*
G04 #@! TO.P,U2,14*
G04 #@! TO.N,/P0.07*
X116840000Y-149606000D03*
G04 #@! TO.P,U2,13*
G04 #@! TO.N,/P0.17*
X116840000Y-152146000D03*
G04 #@! TD*
D13*
G04 #@! TO.P,JP2,2*
G04 #@! TO.N,GND*
X115001040Y-103738260D03*
G04 #@! TO.P,JP2,1*
G04 #@! TO.N,Net-(JP2-Pad1)*
X115001040Y-104638260D03*
X115001040Y-104638260D03*
G04 #@! TO.P,JP2,2*
G04 #@! TO.N,GND*
X115001040Y-103738260D03*
G04 #@! TD*
D14*
G04 #@! TO.P,U1,27*
G04 #@! TO.N,SCK*
X116332000Y-120904000D03*
G04 #@! TO.P,U1,26*
G04 #@! TO.N,/P0.11*
X115062000Y-120904000D03*
G04 #@! TO.P,U1,25*
G04 #@! TO.N,N/C*
X113792000Y-120904000D03*
G04 #@! TO.P,U1,24*
X112522000Y-120904000D03*
G04 #@! TO.P,U1,23*
G04 #@! TO.N,RXD*
X111252000Y-120904000D03*
G04 #@! TO.P,U1,22*
G04 #@! TO.N,/P0.07*
X109982000Y-120904000D03*
G04 #@! TO.P,U1,21*
G04 #@! TO.N,TXD*
X108712000Y-120904000D03*
G04 #@! TO.P,U1,20*
G04 #@! TO.N,/P0.05*
X107442000Y-120904000D03*
G04 #@! TO.P,U1,19*
G04 #@! TO.N,/P0.04*
X106172000Y-120904000D03*
G04 #@! TO.P,U1,18*
G04 #@! TO.N,/P0.03*
X104902000Y-120904000D03*
G04 #@! TO.P,U1,17*
G04 #@! TO.N,/P0.02*
X103632000Y-120904000D03*
G04 #@! TO.P,U1,16*
G04 #@! TO.N,VCC*
X102362000Y-120904000D03*
D15*
G04 #@! TO.P,U1,28*
G04 #@! TO.N,MOSI*
X118110000Y-119126000D03*
G04 #@! TO.P,U1,29*
G04 #@! TO.N,MISO*
X118110000Y-117856000D03*
G04 #@! TO.P,U1,30*
G04 #@! TO.N,/P0.15*
X118110000Y-116586000D03*
G04 #@! TO.P,U1,31*
G04 #@! TO.N,/P0.16*
X118110000Y-115316000D03*
G04 #@! TO.P,U1,32*
G04 #@! TO.N,/P0.17*
X118110000Y-114046000D03*
G04 #@! TO.P,U1,33*
G04 #@! TO.N,N/C*
X118110000Y-112776000D03*
G04 #@! TO.P,U1,34*
X118110000Y-111506000D03*
G04 #@! TO.P,U1,35*
X118110000Y-110236000D03*
G04 #@! TO.P,U1,36*
G04 #@! TO.N,RESET*
X118110000Y-108966000D03*
G04 #@! TO.P,U1,37*
G04 #@! TO.N,SWDCLK*
X118110000Y-107696000D03*
G04 #@! TO.P,U1,38*
G04 #@! TO.N,SWDIO*
X118110000Y-106426000D03*
G04 #@! TO.P,U1,39*
G04 #@! TO.N,Net-(JP2-Pad1)*
X118110000Y-105156000D03*
G04 #@! TO.P,U1,40*
G04 #@! TO.N,N/C*
X118110000Y-103886000D03*
G04 #@! TO.P,U1,41*
X118110000Y-102616000D03*
G04 #@! TO.P,U1,42*
G04 #@! TO.N,GND*
X118110000Y-100076000D03*
G04 #@! TO.P,U1,43*
X118110000Y-98806000D03*
G04 #@! TO.P,U1,0*
X100584000Y-98806000D03*
G04 #@! TO.P,U1,1*
X100584000Y-100076000D03*
G04 #@! TO.P,U1,2*
X100584000Y-102616000D03*
G04 #@! TO.P,U1,3*
G04 #@! TO.N,N/C*
X100584000Y-103886000D03*
G04 #@! TO.P,U1,4*
G04 #@! TO.N,Net-(C4-Pad1)*
X100584000Y-105156000D03*
G04 #@! TO.P,U1,5*
G04 #@! TO.N,SDA*
X100584000Y-106426000D03*
G04 #@! TO.P,U1,6*
G04 #@! TO.N,SCL*
X100584000Y-107696000D03*
G04 #@! TO.P,U1,7*
G04 #@! TO.N,/P0.27*
X100584000Y-108966000D03*
G04 #@! TO.P,U1,8*
G04 #@! TO.N,/P0.28*
X100584000Y-110236000D03*
G04 #@! TO.P,U1,9*
G04 #@! TO.N,/P0.29*
X100584000Y-111506000D03*
G04 #@! TO.P,U1,10*
G04 #@! TO.N,/P0.30*
X100584000Y-112776000D03*
G04 #@! TO.P,U1,11*
G04 #@! TO.N,/P0.31*
X100584000Y-114046000D03*
G04 #@! TO.P,U1,12*
G04 #@! TO.N,Net-(C1-Pad1)*
X100584000Y-115316000D03*
G04 #@! TO.P,U1,13*
G04 #@! TO.N,Net-(L1-Pad2)*
X100584000Y-116586000D03*
G04 #@! TO.P,U1,14*
G04 #@! TO.N,Net-(C2-Pad1)*
X100584000Y-117856000D03*
G04 #@! TO.P,U1,15*
G04 #@! TO.N,GND*
X100584000Y-119126000D03*
G04 #@! TD*
D16*
G04 #@! TO.P,J1,6*
G04 #@! TO.N,Net-(J1-Pad6)*
X110169200Y-152208980D03*
D17*
X106669200Y-149508980D03*
D18*
G04 #@! TO.P,J1,2*
G04 #@! TO.N,/Data-*
X108519200Y-149508980D03*
G04 #@! TO.P,J1,1*
G04 #@! TO.N,/VBus*
X107869200Y-149508980D03*
G04 #@! TO.P,J1,5*
G04 #@! TO.N,GND*
X110469200Y-149508980D03*
G04 #@! TO.P,J1,4*
G04 #@! TO.N,N/C*
X109819200Y-149508980D03*
G04 #@! TO.P,J1,3*
G04 #@! TO.N,/Data+*
X109169200Y-149508980D03*
D17*
G04 #@! TO.P,J1,6*
G04 #@! TO.N,Net-(J1-Pad6)*
X111669200Y-149508980D03*
D16*
X108169200Y-152208980D03*
D19*
X105669200Y-152208980D03*
X112669200Y-152208980D03*
D20*
X112069200Y-152208980D03*
X106269200Y-152208980D03*
G04 #@! TD*
D21*
G04 #@! TO.P,Q1,1*
G04 #@! TO.N,/VBus*
X111973360Y-138132820D03*
G04 #@! TO.P,Q1,2*
G04 #@! TO.N,Net-(C5-Pad1)*
X111973360Y-136232820D03*
G04 #@! TO.P,Q1,3*
G04 #@! TO.N,/VBatt*
X109973360Y-137182820D03*
G04 #@! TD*
D22*
G04 #@! TO.P,C5,1*
G04 #@! TO.N,Net-(C5-Pad1)*
X114434620Y-136011280D03*
G04 #@! TO.P,C5,2*
G04 #@! TO.N,GND*
X114434620Y-138511280D03*
G04 #@! TD*
D23*
G04 #@! TO.P,C7,1*
G04 #@! TO.N,/VBatt*
X109752760Y-134246620D03*
G04 #@! TO.P,C7,2*
G04 #@! TO.N,GND*
X112252760Y-134246620D03*
G04 #@! TD*
D24*
G04 #@! TO.P,J3,1*
G04 #@! TO.N,/VBatt*
X106072940Y-134167880D03*
D25*
G04 #@! TO.P,J3,2*
G04 #@! TO.N,GND*
X106072940Y-136707880D03*
G04 #@! TD*
D26*
G04 #@! TO.P,R2,1*
G04 #@! TO.N,/VBus*
X110890060Y-142333980D03*
G04 #@! TO.P,R2,2*
G04 #@! TO.N,GND*
X113590060Y-142333980D03*
G04 #@! TD*
G04 #@! TO.P,R3,1*
G04 #@! TO.N,Net-(R3-Pad1)*
X109617520Y-132308600D03*
G04 #@! TO.P,R3,2*
G04 #@! TO.N,GND*
X112317520Y-132308600D03*
G04 #@! TD*
D23*
G04 #@! TO.P,C8,1*
G04 #@! TO.N,/VBus*
X111004980Y-144432020D03*
G04 #@! TO.P,C8,2*
G04 #@! TO.N,GND*
X113504980Y-144432020D03*
G04 #@! TD*
D26*
G04 #@! TO.P,R6,1*
G04 #@! TO.N,RXD*
X104970600Y-144409160D03*
G04 #@! TO.P,R6,2*
G04 #@! TO.N,Net-(R6-Pad2)*
X107670600Y-144409160D03*
G04 #@! TD*
D23*
G04 #@! TO.P,C9,1*
G04 #@! TO.N,Net-(C9-Pad1)*
X105028360Y-142402560D03*
G04 #@! TO.P,C9,2*
G04 #@! TO.N,/DTR*
X107528360Y-142402560D03*
G04 #@! TD*
D24*
G04 #@! TO.P,J2,1*
G04 #@! TO.N,RXD*
X112229900Y-129715260D03*
D25*
G04 #@! TO.P,J2,2*
G04 #@! TO.N,TXD*
X109689900Y-129715260D03*
G04 #@! TO.P,J2,3*
G04 #@! TO.N,VCC*
X112229900Y-127175260D03*
G04 #@! TO.P,J2,4*
G04 #@! TO.N,GND*
X109689900Y-127175260D03*
G04 #@! TO.P,J2,5*
G04 #@! TO.N,SWDCLK*
X112229900Y-124635260D03*
G04 #@! TO.P,J2,6*
G04 #@! TO.N,SWDIO*
X109689900Y-124635260D03*
G04 #@! TD*
D13*
G04 #@! TO.P,JP1,2*
G04 #@! TO.N,Net-(C9-Pad1)*
X103927060Y-148254720D03*
G04 #@! TO.P,JP1,1*
G04 #@! TO.N,RESET*
X103027060Y-148254720D03*
X103027060Y-148254720D03*
G04 #@! TO.P,JP1,2*
G04 #@! TO.N,Net-(C9-Pad1)*
X103927060Y-148254720D03*
G04 #@! TD*
D27*
G04 #@! TO.P,D1,1*
G04 #@! TO.N,Net-(C5-Pad1)*
X107850000Y-139360000D03*
G04 #@! TO.P,D1,2*
G04 #@! TO.N,/VBus*
X104550000Y-139360000D03*
G04 #@! TD*
D28*
G04 #@! TO.N,GND*
X103940000Y-149606000D03*
X106350000Y-143390000D03*
X109450000Y-143330000D03*
X111972968Y-143357040D03*
X105400000Y-129710000D03*
X104815640Y-114808000D03*
X105775760Y-105806484D03*
X101036120Y-120291860D03*
X112882680Y-138930380D03*
X111452771Y-133596380D03*
X103124000Y-100076000D03*
X102362000Y-100076000D03*
X109474000Y-100076000D03*
X116078000Y-100076000D03*
X116078000Y-98806000D03*
X109474000Y-98806000D03*
X103124000Y-98806000D03*
X102362000Y-98806000D03*
G04 #@! TO.N,Net-(C1-Pad1)*
X102351840Y-115133120D03*
G04 #@! TO.N,Net-(C2-Pad1)*
X102144164Y-117310340D03*
G04 #@! TO.N,VCC*
X104889300Y-116235480D03*
G04 #@! TO.N,SWDIO*
X111757460Y-108003340D03*
G04 #@! TO.N,RESET*
X107246420Y-105791000D03*
G04 #@! TO.N,SWDCLK*
X112274185Y-108658339D03*
G04 #@! TO.N,Net-(L1-Pad2)*
X102402640Y-116265960D03*
G04 #@! TO.N,SCK*
X105671708Y-118579336D03*
G04 #@! TO.N,/P0.11*
X103740379Y-119196281D03*
G04 #@! TO.N,TXD*
X108567220Y-119136330D03*
X108313220Y-123855480D03*
X110568164Y-146007023D03*
G04 #@! TO.N,/P0.02*
X103525320Y-123639580D03*
G04 #@! TO.N,MOSI*
X104365728Y-118588588D03*
G04 #@! TO.N,MISO*
X105008691Y-117248951D03*
G04 #@! TO.N,/P0.15*
X116682210Y-116926346D03*
G04 #@! TO.N,/P0.16*
X116220410Y-116273078D03*
G04 #@! TO.N,SDA*
X112024560Y-110153001D03*
G04 #@! TO.N,SCL*
X112760760Y-110881160D03*
G04 #@! TO.N,/P0.27*
X113570969Y-111272954D03*
G04 #@! TO.N,/P0.28*
X113988612Y-112063856D03*
G04 #@! TO.N,/P0.29*
X114438623Y-114513360D03*
G04 #@! TO.N,/P0.30*
X114438623Y-113392642D03*
G04 #@! TO.N,/P0.07*
X117224186Y-120241060D03*
X115008660Y-119156480D03*
G04 #@! TO.N,Net-(C4-Pad1)*
X102486460Y-105666540D03*
G04 #@! TO.N,/Data-*
X108460000Y-148230000D03*
G04 #@! TO.N,/VBus*
X108892184Y-138955728D03*
X109902325Y-147717229D03*
X112118140Y-141678660D03*
G04 #@! TO.N,/Data+*
X109271888Y-148209742D03*
G04 #@! TO.N,Net-(C5-Pad1)*
X112615980Y-135895080D03*
G04 #@! TO.N,/VBatt*
X107294680Y-125310900D03*
X110202751Y-135203616D03*
G04 #@! TO.N,Net-(R3-Pad1)*
X110923364Y-136883375D03*
G04 #@! TO.N,Net-(C9-Pad1)*
X104940000Y-143230000D03*
G04 #@! TO.N,/DTR*
X109190049Y-141777720D03*
G04 #@! TO.N,Net-(R6-Pad2)*
X109304969Y-144416780D03*
G04 #@! TO.N,/P0.31*
X110149810Y-113746280D03*
G04 #@! TD*
D29*
G04 #@! TO.N,GND*
X109450000Y-143330000D02*
X109025736Y-143330000D01*
X109025736Y-143330000D02*
X108965736Y-143390000D01*
X108965736Y-143390000D02*
X106350000Y-143390000D01*
X113404040Y-143420000D02*
X112035928Y-143420000D01*
X112035928Y-143420000D02*
X111972968Y-143357040D01*
X113590060Y-142333980D02*
X113590060Y-143233980D01*
X113590060Y-143233980D02*
X113404040Y-143420000D01*
X112273080Y-146763740D02*
X112575340Y-147066000D01*
X107101640Y-146763740D02*
X112273080Y-146763740D01*
X104259380Y-149606000D02*
X107101640Y-146763740D01*
X101600000Y-149606000D02*
X104259380Y-149606000D01*
D30*
X103545640Y-116055140D02*
X104792780Y-114808000D01*
X104792780Y-114808000D02*
X104815640Y-114808000D01*
X103545640Y-117119400D02*
X103545640Y-116055140D01*
X101999039Y-118666001D02*
X103545640Y-117119400D01*
X101043999Y-118666001D02*
X101999039Y-118666001D01*
X100584000Y-119126000D02*
X101043999Y-118666001D01*
D29*
X109474000Y-100076000D02*
X108061760Y-100076000D01*
X108061760Y-100076000D02*
X105923080Y-102214680D01*
X105923080Y-102214680D02*
X105923080Y-105659164D01*
X105923080Y-105659164D02*
X105775760Y-105806484D01*
X100584000Y-119126000D02*
X100584000Y-119839740D01*
X100584000Y-119839740D02*
X101036120Y-120291860D01*
X113590060Y-139355840D02*
X113308140Y-139355840D01*
X113308140Y-139355840D02*
X112882680Y-138930380D01*
X111452771Y-133596380D02*
X111602520Y-133596380D01*
X111602520Y-133596380D02*
X112252760Y-134246620D01*
X112317520Y-132308600D02*
X112317520Y-134181860D01*
X112317520Y-134181860D02*
X112252760Y-134246620D01*
X112317520Y-132308600D02*
X113317520Y-132308600D01*
X113317520Y-132308600D02*
X115384621Y-134375701D01*
X114434620Y-138386280D02*
X114434620Y-138511280D01*
X115384621Y-134375701D02*
X115384621Y-137436279D01*
X115384621Y-137436279D02*
X114434620Y-138386280D01*
X113590060Y-142333980D02*
X113590060Y-139355840D01*
X113590060Y-139355840D02*
X114434620Y-138511280D01*
X113504980Y-144432020D02*
X116746020Y-144432020D01*
X116746020Y-144432020D02*
X116840000Y-144526000D01*
X113590060Y-142333980D02*
X113590060Y-144346940D01*
X113590060Y-144346940D02*
X113504980Y-144432020D01*
X110469200Y-149508980D02*
X110469200Y-149172140D01*
X110469200Y-149172140D02*
X112575340Y-147066000D01*
X115600725Y-147066000D02*
X116840000Y-147066000D01*
X112575340Y-147066000D02*
X115600725Y-147066000D01*
X115001040Y-103738260D02*
X115001040Y-101152960D01*
X115001040Y-101152960D02*
X116078000Y-100076000D01*
X116467500Y-144153500D02*
X116840000Y-144526000D01*
X100584000Y-100076000D02*
X102362000Y-100076000D01*
X109474000Y-100076000D02*
X103124000Y-100076000D01*
X118110000Y-100076000D02*
X116078000Y-100076000D01*
X116078000Y-98806000D02*
X118110000Y-98806000D01*
X103124000Y-98806000D02*
X109474000Y-98806000D01*
X100584000Y-98806000D02*
X102362000Y-98806000D01*
X100584000Y-119126000D02*
X100076000Y-119634000D01*
X100076000Y-119634000D02*
X100076000Y-121412000D01*
X99314000Y-147320000D02*
X101600000Y-149606000D01*
X100076000Y-121412000D02*
X99314000Y-122174000D01*
X99314000Y-122174000D02*
X99314000Y-147320000D01*
X100584000Y-100076000D02*
X100584000Y-102616000D01*
X100584000Y-98806000D02*
X100584000Y-100076000D01*
X118110000Y-100076000D02*
X118110000Y-98806000D01*
X117370000Y-100076000D02*
X118110000Y-100076000D01*
D31*
X116395500Y-144081500D02*
X116840000Y-144526000D01*
X116840000Y-147066000D02*
X116840000Y-145826725D01*
X116840000Y-145826725D02*
X116840000Y-144526000D01*
D29*
G04 #@! TO.N,Net-(C1-Pad1)*
X102351840Y-115133120D02*
X100766880Y-115133120D01*
X100766880Y-115133120D02*
X100584000Y-115316000D01*
X100584000Y-115316000D02*
X101324000Y-115316000D01*
G04 #@! TO.N,Net-(C2-Pad1)*
X100584000Y-117856000D02*
X101324000Y-117856000D01*
X101934000Y-117246000D02*
X102079824Y-117246000D01*
X101324000Y-117856000D02*
X101934000Y-117246000D01*
X102079824Y-117246000D02*
X102144164Y-117310340D01*
D30*
G04 #@! TO.N,VCC*
X104245651Y-116879129D02*
X104589301Y-116535479D01*
X104245651Y-117409354D02*
X104245651Y-116879129D01*
X102362000Y-120904000D02*
X102362000Y-119293005D01*
X104589301Y-116535479D02*
X104889300Y-116235480D01*
X102362000Y-119293005D02*
X104245651Y-117409354D01*
D29*
X101600000Y-144526000D02*
X99822000Y-142748000D01*
X99822000Y-142748000D02*
X99822000Y-122682000D01*
X99822000Y-122682000D02*
X101600000Y-120904000D01*
X101600000Y-120904000D02*
X101854000Y-120904000D01*
X101854000Y-120904000D02*
X102362000Y-120904000D01*
X102362000Y-120904000D02*
X102362000Y-120164000D01*
G04 #@! TO.N,SWDIO*
X118110000Y-106426000D02*
X117858540Y-106677460D01*
X117858540Y-106677460D02*
X116197380Y-106677460D01*
X116197380Y-106677460D02*
X115798600Y-107076240D01*
X115798600Y-107076240D02*
X115798600Y-107109260D01*
X115798600Y-107109260D02*
X115661870Y-107245990D01*
X115661870Y-107245990D02*
X113050124Y-107245990D01*
X113050124Y-107245990D02*
X112993814Y-107302300D01*
X112993814Y-107302300D02*
X112458500Y-107302300D01*
X112458500Y-107302300D02*
X112057459Y-107703341D01*
X112057459Y-107703341D02*
X111757460Y-108003340D01*
G04 #@! TO.N,RESET*
X108379344Y-105791000D02*
X107670684Y-105791000D01*
X112047265Y-109458921D02*
X108379344Y-105791000D01*
X116267079Y-109458921D02*
X112047265Y-109458921D01*
X116760000Y-108966000D02*
X116267079Y-109458921D01*
X118110000Y-108966000D02*
X116760000Y-108966000D01*
X107670684Y-105791000D02*
X107246420Y-105791000D01*
D31*
X101926000Y-146740000D02*
X101600000Y-147066000D01*
D29*
G04 #@! TO.N,SWDCLK*
X112574184Y-108358340D02*
X112274185Y-108658339D01*
X118110000Y-107696000D02*
X113236524Y-107696000D01*
X113236524Y-107696000D02*
X112574184Y-108358340D01*
G04 #@! TO.N,Net-(L1-Pad2)*
X100584000Y-116586000D02*
X102082600Y-116586000D01*
X102082600Y-116586000D02*
X102402640Y-116265960D01*
X100584000Y-116586000D02*
X101324000Y-116586000D01*
G04 #@! TO.N,SCK*
X116332000Y-120904000D02*
X116332000Y-118946347D01*
X107161479Y-117089565D02*
X105971707Y-118279337D01*
X105971707Y-118279337D02*
X105671708Y-118579336D01*
X114475218Y-117089565D02*
X107161479Y-117089565D01*
X116332000Y-118946347D02*
X114475218Y-117089565D01*
X116332000Y-120904000D02*
X116332000Y-121644000D01*
G04 #@! TO.N,/P0.11*
X104164643Y-119196281D02*
X103740379Y-119196281D01*
X115672000Y-118922758D02*
X114887182Y-118137940D01*
X115672000Y-119554000D02*
X115672000Y-118922758D01*
X115062000Y-120904000D02*
X115062000Y-120164000D01*
X106311981Y-119225221D02*
X104193583Y-119225221D01*
X114887182Y-118137940D02*
X107399262Y-118137940D01*
X104193583Y-119225221D02*
X104164643Y-119196281D01*
X115062000Y-120164000D02*
X115672000Y-119554000D01*
X107399262Y-118137940D02*
X106311981Y-119225221D01*
X115062000Y-120904000D02*
X115062000Y-121644000D01*
G04 #@! TO.N,RXD*
X111252000Y-120904000D02*
X111252000Y-121644000D01*
X104151334Y-138041825D02*
X103710000Y-138483159D01*
X111252000Y-121644000D02*
X110285120Y-122610880D01*
X110285120Y-122610880D02*
X108394500Y-122610880D01*
X108394500Y-122610880D02*
X104424480Y-126580900D01*
X104267000Y-133252143D02*
X104267000Y-137825480D01*
X104424480Y-126580900D02*
X104424480Y-133094663D01*
X104424480Y-133094663D02*
X104267000Y-133252143D01*
X103710000Y-143190000D02*
X104929160Y-144409160D01*
X104267000Y-137825480D02*
X104151334Y-137941146D01*
X104151334Y-137941146D02*
X104151334Y-138041825D01*
X103710000Y-138483159D02*
X103710000Y-143190000D01*
X104929160Y-144409160D02*
X104970600Y-144409160D01*
X111252000Y-120904000D02*
X111252000Y-121795540D01*
X111252000Y-121795540D02*
X114490500Y-125034040D01*
X114490500Y-125034040D02*
X114490500Y-128554660D01*
X114490500Y-128554660D02*
X113329900Y-129715260D01*
X113329900Y-129715260D02*
X112229900Y-129715260D01*
G04 #@! TO.N,TXD*
X104583461Y-146007023D02*
X110143900Y-146007023D01*
X103816984Y-137626388D02*
X103701323Y-137742048D01*
X108712000Y-120904000D02*
X108712000Y-121644000D01*
X110143900Y-146007023D02*
X110568164Y-146007023D01*
X103974469Y-126381531D02*
X103974469Y-132908263D01*
X103701323Y-137855425D02*
X103259989Y-138296759D01*
X103259989Y-138296759D02*
X103259989Y-144683551D01*
X103974469Y-132908263D02*
X103816989Y-133065743D01*
X108712000Y-121644000D02*
X103974469Y-126381531D01*
X103816989Y-133065743D02*
X103816989Y-136893486D01*
X103259989Y-144683551D02*
X104583461Y-146007023D01*
X103816989Y-136893486D02*
X103816984Y-137626388D01*
X103701323Y-137742048D02*
X103701323Y-137855425D01*
X108712000Y-119281110D02*
X108567220Y-119136330D01*
X108712000Y-120904000D02*
X108712000Y-119281110D01*
X108912660Y-125948440D02*
X110202082Y-125948440D01*
X110202082Y-125948440D02*
X110864901Y-126611259D01*
X110864901Y-126611259D02*
X110864901Y-128540259D01*
X110864901Y-128540259D02*
X110539899Y-128865261D01*
X110539899Y-128865261D02*
X109689900Y-129715260D01*
X108313220Y-125349000D02*
X108912660Y-125948440D01*
X108313220Y-123855480D02*
X108313220Y-125349000D01*
X108712000Y-120904000D02*
X108712000Y-120164000D01*
G04 #@! TO.N,/P0.05*
X102476299Y-141109701D02*
X101600000Y-141986000D01*
X102809978Y-138110359D02*
X102809978Y-140776022D01*
X102809978Y-140776022D02*
X102476299Y-141109701D01*
X103366975Y-137439985D02*
X103251312Y-137555648D01*
X103251312Y-137555648D02*
X103251312Y-137669025D01*
X103366978Y-132879343D02*
X103366975Y-137439985D01*
X103524458Y-132721863D02*
X103366978Y-132879343D01*
X107442000Y-122254000D02*
X103524458Y-126171542D01*
X103251312Y-137669025D02*
X102809978Y-138110359D01*
X103524458Y-126171542D02*
X103524458Y-132721863D01*
X107442000Y-120904000D02*
X107442000Y-122254000D01*
G04 #@! TO.N,/P0.04*
X102801301Y-137482625D02*
X101600000Y-138683926D01*
X106172000Y-122887589D02*
X103074447Y-125985142D01*
X102916967Y-132692943D02*
X102916965Y-137253583D01*
X101600000Y-138683926D02*
X101600000Y-139446000D01*
X102801301Y-137369248D02*
X102801301Y-137482625D01*
X106172000Y-120904000D02*
X106172000Y-122887589D01*
X103074447Y-132535463D02*
X102916967Y-132692943D01*
X102916965Y-137253583D02*
X102801301Y-137369248D01*
X103074447Y-125985142D02*
X103074447Y-132535463D01*
G04 #@! TO.N,/P0.03*
X104902000Y-120904000D02*
X104902000Y-123521178D01*
X104902000Y-123521178D02*
X103015877Y-125407301D01*
X103015877Y-125407301D02*
X101160773Y-125407301D01*
X101160773Y-125407301D02*
X100398699Y-126169375D01*
X100723701Y-136029701D02*
X101600000Y-136906000D01*
X100398699Y-126169375D02*
X100398699Y-135704699D01*
X100398699Y-135704699D02*
X100723701Y-136029701D01*
G04 #@! TO.N,/P0.02*
X103632000Y-120904000D02*
X103632000Y-123532900D01*
X103632000Y-123532900D02*
X103525320Y-123639580D01*
X103632000Y-120904000D02*
X103632000Y-121644000D01*
G04 #@! TO.N,MOSI*
X105089798Y-118051742D02*
X104902574Y-118051742D01*
X116538064Y-118516000D02*
X114651244Y-116629180D01*
X114651244Y-116629180D02*
X106512360Y-116629180D01*
X117370000Y-119126000D02*
X116760000Y-118516000D01*
X116760000Y-118516000D02*
X116538064Y-118516000D01*
X104665727Y-118288589D02*
X104365728Y-118588588D01*
X104902574Y-118051742D02*
X104665727Y-118288589D01*
X106512360Y-116629180D02*
X105089798Y-118051742D01*
X118110000Y-119126000D02*
X117370000Y-119126000D01*
G04 #@! TO.N,MISO*
X105308690Y-116948952D02*
X105008691Y-117248951D01*
X106156782Y-116100860D02*
X105308690Y-116948952D01*
X116514474Y-117856000D02*
X114759334Y-116100860D01*
X114759334Y-116100860D02*
X106156782Y-116100860D01*
X118110000Y-117856000D02*
X116514474Y-117856000D01*
X101600000Y-129286000D02*
X102011480Y-128874520D01*
G04 #@! TO.N,/P0.15*
X117022556Y-116586000D02*
X116982209Y-116626347D01*
X116982209Y-116626347D02*
X116682210Y-116926346D01*
X118110000Y-116586000D02*
X117022556Y-116586000D01*
G04 #@! TO.N,/P0.16*
X116412922Y-116273078D02*
X116220410Y-116273078D01*
X118110000Y-115316000D02*
X117370000Y-115316000D01*
X117370000Y-115316000D02*
X116412922Y-116273078D01*
G04 #@! TO.N,SDA*
X111724561Y-109853002D02*
X112024560Y-110153001D01*
X108907559Y-107036000D02*
X111724561Y-109853002D01*
X101934000Y-107036000D02*
X108907559Y-107036000D01*
X100584000Y-106426000D02*
X101324000Y-106426000D01*
X101324000Y-106426000D02*
X101934000Y-107036000D01*
G04 #@! TO.N,SCL*
X100584000Y-107696000D02*
X108650596Y-107696000D01*
X108650596Y-107696000D02*
X111835756Y-110881160D01*
X111835756Y-110881160D02*
X112336496Y-110881160D01*
X112336496Y-110881160D02*
X112760760Y-110881160D01*
G04 #@! TO.N,/P0.27*
X108294996Y-108966000D02*
X110901949Y-111572953D01*
X113270970Y-111572953D02*
X113570969Y-111272954D01*
X100584000Y-108966000D02*
X108294996Y-108966000D01*
X110901949Y-111572953D02*
X113270970Y-111572953D01*
G04 #@! TO.N,/P0.28*
X100584000Y-110236000D02*
X108802996Y-110236000D01*
X108802996Y-110236000D02*
X110630852Y-112063856D01*
X110630852Y-112063856D02*
X113564348Y-112063856D01*
X113564348Y-112063856D02*
X113988612Y-112063856D01*
G04 #@! TO.N,/P0.29*
X115063625Y-113888358D02*
X114738622Y-114213361D01*
X115063625Y-113092640D02*
X115063625Y-113888358D01*
X110732582Y-112767640D02*
X114738625Y-112767640D01*
X110636212Y-112671270D02*
X110732582Y-112767640D01*
X109417465Y-111506000D02*
X110582733Y-112671268D01*
X100584000Y-111506000D02*
X109417465Y-111506000D01*
X110582733Y-112671268D02*
X110636212Y-112671270D01*
X114738622Y-114213361D02*
X114438623Y-114513360D01*
X114738625Y-112767640D02*
X115063625Y-113092640D01*
G04 #@! TO.N,/P0.30*
X110449811Y-113121279D02*
X110721174Y-113392642D01*
X101934000Y-112776000D02*
X102279279Y-113121279D01*
X102279279Y-113121279D02*
X110449811Y-113121279D01*
X114014359Y-113392642D02*
X114438623Y-113392642D01*
X100584000Y-112776000D02*
X101934000Y-112776000D01*
X110721174Y-113392642D02*
X114014359Y-113392642D01*
G04 #@! TO.N,Net-(JP2-Pad1)*
X115001040Y-104638260D02*
X115518780Y-105156000D01*
X115518780Y-105156000D02*
X118110000Y-105156000D01*
G04 #@! TO.N,/P0.07*
X117524185Y-120541059D02*
X117224186Y-120241060D01*
X118629989Y-121646863D02*
X117524185Y-120541059D01*
X116840000Y-149606000D02*
X118629989Y-147816011D01*
X118629989Y-147816011D02*
X118629989Y-121646863D01*
X114584396Y-119156480D02*
X115008660Y-119156480D01*
X109982000Y-120164000D02*
X110989520Y-119156480D01*
X109982000Y-120904000D02*
X109982000Y-120164000D01*
X110989520Y-119156480D02*
X114584396Y-119156480D01*
G04 #@! TO.N,/P0.17*
X118110000Y-114046000D02*
X118926000Y-114046000D01*
X119470001Y-114590001D02*
X119470001Y-114630999D01*
X118926000Y-114046000D02*
X119470001Y-114590001D01*
X119470001Y-114630999D02*
X119535001Y-114695999D01*
X119535001Y-114695999D02*
X119535001Y-115936001D01*
X119535001Y-115936001D02*
X119520002Y-115951000D01*
X119535001Y-119746001D02*
X119280000Y-120001002D01*
X119520002Y-118491000D02*
X119535001Y-118505999D01*
X119535001Y-117235999D02*
X119535001Y-118476001D01*
X119520002Y-115951000D02*
X119535001Y-115965999D01*
X119280000Y-149706000D02*
X117716299Y-151269701D01*
X119535001Y-118505999D02*
X119535001Y-119746001D01*
X119535001Y-117206001D02*
X119520002Y-117221000D01*
X119535001Y-115965999D02*
X119535001Y-117206001D01*
X119280000Y-120001002D02*
X119280000Y-149706000D01*
X119520002Y-117221000D02*
X119535001Y-117235999D01*
X119535001Y-118476001D02*
X119520002Y-118491000D01*
X117716299Y-151269701D02*
X116840000Y-152146000D01*
G04 #@! TO.N,Net-(C4-Pad1)*
X100584000Y-105156000D02*
X101975920Y-105156000D01*
X101975920Y-105156000D02*
X102186461Y-105366541D01*
X102186461Y-105366541D02*
X102486460Y-105666540D01*
G04 #@! TO.N,Net-(J1-Pad6)*
X112069200Y-152208980D02*
X112069200Y-149908980D01*
X112069200Y-149908980D02*
X111669200Y-149508980D01*
X110169200Y-152208980D02*
X112669200Y-152208980D01*
X108169200Y-152208980D02*
X110169200Y-152208980D01*
X108169200Y-152208980D02*
X105669200Y-152208980D01*
X106669200Y-149508980D02*
X105669200Y-150508980D01*
X105669200Y-150508980D02*
X105669200Y-152208980D01*
G04 #@! TO.N,/Data-*
X108519200Y-148289200D02*
X108460000Y-148230000D01*
X108519200Y-149508980D02*
X108519200Y-148289200D01*
G04 #@! TO.N,/VBus*
X109316448Y-138955728D02*
X108892184Y-138955728D01*
X110450452Y-138955728D02*
X109316448Y-138955728D01*
X108892184Y-139379992D02*
X108892184Y-138955728D01*
X108385002Y-140460000D02*
X108892184Y-139952818D01*
X106350000Y-140460000D02*
X108385002Y-140460000D01*
X104550000Y-139360000D02*
X105250000Y-139360000D01*
X108892184Y-139952818D02*
X108892184Y-139379992D01*
X111273360Y-138132820D02*
X110450452Y-138955728D01*
X105250000Y-139360000D02*
X106350000Y-140460000D01*
X111973360Y-138132820D02*
X111273360Y-138132820D01*
X107869200Y-149508980D02*
X107869200Y-149033980D01*
X107869200Y-149033980D02*
X107770000Y-148934780D01*
X107770000Y-147760000D02*
X108112770Y-147417230D01*
X107770000Y-148934780D02*
X107770000Y-147760000D01*
X108112770Y-147417230D02*
X109602326Y-147417230D01*
X109602326Y-147417230D02*
X109902325Y-147717229D01*
X111973360Y-138132820D02*
X111973360Y-141533880D01*
X111973360Y-141533880D02*
X112118140Y-141678660D01*
X112118140Y-141678660D02*
X111545380Y-141678660D01*
X111545380Y-141678660D02*
X110890060Y-142333980D01*
X111004980Y-144432020D02*
X111004980Y-142448900D01*
X111004980Y-142448900D02*
X110890060Y-142333980D01*
G04 #@! TO.N,/Data+*
X109169200Y-149508980D02*
X109169200Y-148312430D01*
X109169200Y-148312430D02*
X109271888Y-148209742D01*
G04 #@! TO.N,Net-(C5-Pad1)*
X107850000Y-139360000D02*
X107850000Y-138510000D01*
X107850000Y-138510000D02*
X108240000Y-138120000D01*
X108240000Y-138120000D02*
X110551178Y-138120000D01*
X110551178Y-138120000D02*
X111263359Y-137407819D01*
X111263359Y-137407819D02*
X111448361Y-137407819D01*
X111448361Y-137407819D02*
X111973360Y-136882820D01*
X111973360Y-136882820D02*
X111973360Y-136232820D01*
X112615980Y-135895080D02*
X112311100Y-135895080D01*
X112311100Y-135895080D02*
X111973360Y-136232820D01*
X111973360Y-136232820D02*
X111923360Y-136232820D01*
X111973360Y-136232820D02*
X114213080Y-136232820D01*
X114213080Y-136232820D02*
X114434620Y-136011280D01*
G04 #@! TO.N,/VBatt*
X107294680Y-125310900D02*
X107294680Y-132885180D01*
X107294680Y-132885180D02*
X106072940Y-134106920D01*
X106072940Y-134106920D02*
X106072940Y-134167880D01*
X106072940Y-134167880D02*
X109674020Y-134167880D01*
X109674020Y-134167880D02*
X109752760Y-134246620D01*
X109973360Y-135433007D02*
X110202751Y-135203616D01*
X109973360Y-137182820D02*
X109973360Y-135433007D01*
X109973360Y-137182820D02*
X109973360Y-134467220D01*
X109973360Y-134467220D02*
X109752760Y-134246620D01*
G04 #@! TO.N,Net-(R3-Pad1)*
X110923364Y-136459111D02*
X110923364Y-136883375D01*
X110827761Y-133418841D02*
X110827761Y-136363508D01*
X110827761Y-136363508D02*
X110923364Y-136459111D01*
X109717520Y-132308600D02*
X110827761Y-133418841D01*
X109617520Y-132308600D02*
X109717520Y-132308600D01*
X109617520Y-132308600D02*
X109517520Y-132308600D01*
G04 #@! TO.N,Net-(C9-Pad1)*
X104940000Y-142805736D02*
X104940000Y-143230000D01*
X104940000Y-142490920D02*
X104940000Y-142805736D01*
X105028360Y-142402560D02*
X104940000Y-142490920D01*
G04 #@! TO.N,/DTR*
X107528360Y-142402560D02*
X108565209Y-142402560D01*
X108890050Y-142077719D02*
X109190049Y-141777720D01*
X109332082Y-141635687D02*
X109190049Y-141777720D01*
X109332082Y-141615160D02*
X109332082Y-141635687D01*
X108565209Y-142402560D02*
X108890050Y-142077719D01*
G04 #@! TO.N,Net-(R6-Pad2)*
X109297349Y-144409160D02*
X109304969Y-144416780D01*
X107670600Y-144409160D02*
X109297349Y-144409160D01*
G04 #@! TO.N,/P0.31*
X109850090Y-114046000D02*
X110149810Y-113746280D01*
X100584000Y-114046000D02*
X109850090Y-114046000D01*
G04 #@! TD*
D32*
G04 #@! TO.N,GND*
G36*
X99274071Y-143295929D02*
X99337530Y-143338331D01*
X100128499Y-144129301D01*
X100088700Y-144225384D01*
X100088700Y-144826616D01*
X100318782Y-145382083D01*
X100732699Y-145796000D01*
X100318782Y-146209917D01*
X100088700Y-146765384D01*
X100088700Y-147366616D01*
X100318782Y-147922083D01*
X100743917Y-148347218D01*
X100776520Y-148360722D01*
X100716604Y-148542999D01*
X101600000Y-149426395D01*
X101614143Y-149412253D01*
X101793748Y-149591858D01*
X101779605Y-149606000D01*
X101793748Y-149620143D01*
X101614143Y-149799748D01*
X101600000Y-149785605D01*
X101585858Y-149799748D01*
X101406253Y-149620143D01*
X101420395Y-149606000D01*
X100536999Y-148722604D01*
X100282973Y-148806104D01*
X100077118Y-149370997D01*
X100103109Y-149971668D01*
X100282973Y-150405896D01*
X100536997Y-150489395D01*
X100422369Y-150604023D01*
X100487574Y-150669228D01*
X100475935Y-150671543D01*
X100265891Y-150811891D01*
X100125543Y-151021935D01*
X100076260Y-151269700D01*
X100076260Y-152960000D01*
X99135000Y-152960000D01*
X99135000Y-143087794D01*
X99274071Y-143295929D01*
X99274071Y-143295929D01*
G37*
X99274071Y-143295929D02*
X99337530Y-143338331D01*
X100128499Y-144129301D01*
X100088700Y-144225384D01*
X100088700Y-144826616D01*
X100318782Y-145382083D01*
X100732699Y-145796000D01*
X100318782Y-146209917D01*
X100088700Y-146765384D01*
X100088700Y-147366616D01*
X100318782Y-147922083D01*
X100743917Y-148347218D01*
X100776520Y-148360722D01*
X100716604Y-148542999D01*
X101600000Y-149426395D01*
X101614143Y-149412253D01*
X101793748Y-149591858D01*
X101779605Y-149606000D01*
X101793748Y-149620143D01*
X101614143Y-149799748D01*
X101600000Y-149785605D01*
X101585858Y-149799748D01*
X101406253Y-149620143D01*
X101420395Y-149606000D01*
X100536999Y-148722604D01*
X100282973Y-148806104D01*
X100077118Y-149370997D01*
X100103109Y-149971668D01*
X100282973Y-150405896D01*
X100536997Y-150489395D01*
X100422369Y-150604023D01*
X100487574Y-150669228D01*
X100475935Y-150671543D01*
X100265891Y-150811891D01*
X100125543Y-151021935D01*
X100076260Y-151269700D01*
X100076260Y-152960000D01*
X99135000Y-152960000D01*
X99135000Y-143087794D01*
X99274071Y-143295929D01*
G36*
X113211463Y-137009045D02*
X113351811Y-137219089D01*
X113412940Y-137259934D01*
X113271293Y-137401582D01*
X113174620Y-137634971D01*
X113174620Y-138225530D01*
X113333370Y-138384280D01*
X114307620Y-138384280D01*
X114307620Y-138364280D01*
X114561620Y-138364280D01*
X114561620Y-138384280D01*
X114581620Y-138384280D01*
X114581620Y-138638280D01*
X114561620Y-138638280D01*
X114561620Y-139737530D01*
X114720370Y-139896280D01*
X115185930Y-139896280D01*
X115360706Y-139823885D01*
X115558782Y-140302083D01*
X115972699Y-140716000D01*
X115558782Y-141129917D01*
X115328700Y-141685384D01*
X115328700Y-142286616D01*
X115558782Y-142842083D01*
X115983917Y-143267218D01*
X116016520Y-143280722D01*
X115956604Y-143462999D01*
X116840000Y-144346395D01*
X116854143Y-144332253D01*
X117033748Y-144511858D01*
X117019605Y-144526000D01*
X117033748Y-144540143D01*
X116854143Y-144719748D01*
X116840000Y-144705605D01*
X115956604Y-145589001D01*
X116024646Y-145796000D01*
X115956604Y-146002999D01*
X116840000Y-146886395D01*
X116854143Y-146872253D01*
X117033748Y-147051858D01*
X117019605Y-147066000D01*
X117033748Y-147080143D01*
X116854143Y-147259748D01*
X116840000Y-147245605D01*
X115956604Y-148129001D01*
X116016520Y-148311278D01*
X115983917Y-148324782D01*
X115558782Y-148749917D01*
X115328700Y-149305384D01*
X115328700Y-149906616D01*
X115558782Y-150462083D01*
X115972699Y-150876000D01*
X115558782Y-151289917D01*
X115328700Y-151845384D01*
X115328700Y-152446616D01*
X115541351Y-152960000D01*
X113848627Y-152960000D01*
X113904200Y-152680615D01*
X113904200Y-151737344D01*
X113832544Y-151377107D01*
X113559585Y-150968595D01*
X113151072Y-150695636D01*
X112829200Y-150631611D01*
X112829200Y-150262343D01*
X113029200Y-149779501D01*
X113029200Y-149238459D01*
X112822152Y-148738602D01*
X112439578Y-148356028D01*
X111939721Y-148148980D01*
X111398679Y-148148980D01*
X111033491Y-148300246D01*
X111028898Y-148295653D01*
X110795509Y-148198980D01*
X110727950Y-148198980D01*
X110705526Y-148221404D01*
X110837325Y-147903212D01*
X110837325Y-147531246D01*
X110694980Y-147187594D01*
X110449409Y-146942023D01*
X110754147Y-146942023D01*
X111022188Y-146830997D01*
X115317118Y-146830997D01*
X115343109Y-147431668D01*
X115522973Y-147865896D01*
X115776999Y-147949396D01*
X116660395Y-147066000D01*
X115776999Y-146182604D01*
X115522973Y-146266104D01*
X115317118Y-146830997D01*
X111022188Y-146830997D01*
X111097799Y-146799678D01*
X111360819Y-146536658D01*
X111503164Y-146193006D01*
X111503164Y-145821040D01*
X111454875Y-145704460D01*
X111754980Y-145704460D01*
X112002745Y-145655177D01*
X112212789Y-145514829D01*
X112253634Y-145453700D01*
X112395282Y-145595347D01*
X112628671Y-145692020D01*
X113219230Y-145692020D01*
X113377980Y-145533270D01*
X113377980Y-144559020D01*
X113631980Y-144559020D01*
X113631980Y-145533270D01*
X113790730Y-145692020D01*
X114381289Y-145692020D01*
X114614678Y-145595347D01*
X114793307Y-145416719D01*
X114889980Y-145183330D01*
X114889980Y-144717770D01*
X114731230Y-144559020D01*
X113631980Y-144559020D01*
X113377980Y-144559020D01*
X113357980Y-144559020D01*
X113357980Y-144305020D01*
X113377980Y-144305020D01*
X113377980Y-143545310D01*
X113463060Y-143460230D01*
X113463060Y-143330770D01*
X113631980Y-143330770D01*
X113631980Y-144305020D01*
X114731230Y-144305020D01*
X114745253Y-144290997D01*
X115317118Y-144290997D01*
X115343109Y-144891668D01*
X115522973Y-145325896D01*
X115776999Y-145409396D01*
X116660395Y-144526000D01*
X115776999Y-143642604D01*
X115522973Y-143726104D01*
X115317118Y-144290997D01*
X114745253Y-144290997D01*
X114889980Y-144146270D01*
X114889980Y-143680710D01*
X114793307Y-143447321D01*
X114784026Y-143438040D01*
X114878387Y-143343679D01*
X114975060Y-143110290D01*
X114975060Y-142619730D01*
X114816310Y-142460980D01*
X113717060Y-142460980D01*
X113717060Y-143245690D01*
X113631980Y-143330770D01*
X113463060Y-143330770D01*
X113463060Y-142460980D01*
X113443060Y-142460980D01*
X113443060Y-142206980D01*
X113463060Y-142206980D01*
X113463060Y-141207730D01*
X113717060Y-141207730D01*
X113717060Y-142206980D01*
X114816310Y-142206980D01*
X114975060Y-142048230D01*
X114975060Y-141557670D01*
X114878387Y-141324281D01*
X114699758Y-141145653D01*
X114466369Y-141048980D01*
X113875810Y-141048980D01*
X113717060Y-141207730D01*
X113463060Y-141207730D01*
X113304310Y-141048980D01*
X112810750Y-141048980D01*
X112733360Y-140971590D01*
X112733360Y-139089393D01*
X112881169Y-138990629D01*
X113010528Y-138797030D01*
X113174620Y-138797030D01*
X113174620Y-139387589D01*
X113271293Y-139620978D01*
X113449921Y-139799607D01*
X113683310Y-139896280D01*
X114148870Y-139896280D01*
X114307620Y-139737530D01*
X114307620Y-138638280D01*
X113333370Y-138638280D01*
X113174620Y-138797030D01*
X113010528Y-138797030D01*
X113021517Y-138780585D01*
X113070800Y-138532820D01*
X113070800Y-137732820D01*
X113021517Y-137485055D01*
X112881169Y-137275011D01*
X112743196Y-137182820D01*
X112881169Y-137090629D01*
X112946523Y-136992820D01*
X113208236Y-136992820D01*
X113211463Y-137009045D01*
X113211463Y-137009045D01*
G37*
X113211463Y-137009045D02*
X113351811Y-137219089D01*
X113412940Y-137259934D01*
X113271293Y-137401582D01*
X113174620Y-137634971D01*
X113174620Y-138225530D01*
X113333370Y-138384280D01*
X114307620Y-138384280D01*
X114307620Y-138364280D01*
X114561620Y-138364280D01*
X114561620Y-138384280D01*
X114581620Y-138384280D01*
X114581620Y-138638280D01*
X114561620Y-138638280D01*
X114561620Y-139737530D01*
X114720370Y-139896280D01*
X115185930Y-139896280D01*
X115360706Y-139823885D01*
X115558782Y-140302083D01*
X115972699Y-140716000D01*
X115558782Y-141129917D01*
X115328700Y-141685384D01*
X115328700Y-142286616D01*
X115558782Y-142842083D01*
X115983917Y-143267218D01*
X116016520Y-143280722D01*
X115956604Y-143462999D01*
X116840000Y-144346395D01*
X116854143Y-144332253D01*
X117033748Y-144511858D01*
X117019605Y-144526000D01*
X117033748Y-144540143D01*
X116854143Y-144719748D01*
X116840000Y-144705605D01*
X115956604Y-145589001D01*
X116024646Y-145796000D01*
X115956604Y-146002999D01*
X116840000Y-146886395D01*
X116854143Y-146872253D01*
X117033748Y-147051858D01*
X117019605Y-147066000D01*
X117033748Y-147080143D01*
X116854143Y-147259748D01*
X116840000Y-147245605D01*
X115956604Y-148129001D01*
X116016520Y-148311278D01*
X115983917Y-148324782D01*
X115558782Y-148749917D01*
X115328700Y-149305384D01*
X115328700Y-149906616D01*
X115558782Y-150462083D01*
X115972699Y-150876000D01*
X115558782Y-151289917D01*
X115328700Y-151845384D01*
X115328700Y-152446616D01*
X115541351Y-152960000D01*
X113848627Y-152960000D01*
X113904200Y-152680615D01*
X113904200Y-151737344D01*
X113832544Y-151377107D01*
X113559585Y-150968595D01*
X113151072Y-150695636D01*
X112829200Y-150631611D01*
X112829200Y-150262343D01*
X113029200Y-149779501D01*
X113029200Y-149238459D01*
X112822152Y-148738602D01*
X112439578Y-148356028D01*
X111939721Y-148148980D01*
X111398679Y-148148980D01*
X111033491Y-148300246D01*
X111028898Y-148295653D01*
X110795509Y-148198980D01*
X110727950Y-148198980D01*
X110705526Y-148221404D01*
X110837325Y-147903212D01*
X110837325Y-147531246D01*
X110694980Y-147187594D01*
X110449409Y-146942023D01*
X110754147Y-146942023D01*
X111022188Y-146830997D01*
X115317118Y-146830997D01*
X115343109Y-147431668D01*
X115522973Y-147865896D01*
X115776999Y-147949396D01*
X116660395Y-147066000D01*
X115776999Y-146182604D01*
X115522973Y-146266104D01*
X115317118Y-146830997D01*
X111022188Y-146830997D01*
X111097799Y-146799678D01*
X111360819Y-146536658D01*
X111503164Y-146193006D01*
X111503164Y-145821040D01*
X111454875Y-145704460D01*
X111754980Y-145704460D01*
X112002745Y-145655177D01*
X112212789Y-145514829D01*
X112253634Y-145453700D01*
X112395282Y-145595347D01*
X112628671Y-145692020D01*
X113219230Y-145692020D01*
X113377980Y-145533270D01*
X113377980Y-144559020D01*
X113631980Y-144559020D01*
X113631980Y-145533270D01*
X113790730Y-145692020D01*
X114381289Y-145692020D01*
X114614678Y-145595347D01*
X114793307Y-145416719D01*
X114889980Y-145183330D01*
X114889980Y-144717770D01*
X114731230Y-144559020D01*
X113631980Y-144559020D01*
X113377980Y-144559020D01*
X113357980Y-144559020D01*
X113357980Y-144305020D01*
X113377980Y-144305020D01*
X113377980Y-143545310D01*
X113463060Y-143460230D01*
X113463060Y-143330770D01*
X113631980Y-143330770D01*
X113631980Y-144305020D01*
X114731230Y-144305020D01*
X114745253Y-144290997D01*
X115317118Y-144290997D01*
X115343109Y-144891668D01*
X115522973Y-145325896D01*
X115776999Y-145409396D01*
X116660395Y-144526000D01*
X115776999Y-143642604D01*
X115522973Y-143726104D01*
X115317118Y-144290997D01*
X114745253Y-144290997D01*
X114889980Y-144146270D01*
X114889980Y-143680710D01*
X114793307Y-143447321D01*
X114784026Y-143438040D01*
X114878387Y-143343679D01*
X114975060Y-143110290D01*
X114975060Y-142619730D01*
X114816310Y-142460980D01*
X113717060Y-142460980D01*
X113717060Y-143245690D01*
X113631980Y-143330770D01*
X113463060Y-143330770D01*
X113463060Y-142460980D01*
X113443060Y-142460980D01*
X113443060Y-142206980D01*
X113463060Y-142206980D01*
X113463060Y-141207730D01*
X113717060Y-141207730D01*
X113717060Y-142206980D01*
X114816310Y-142206980D01*
X114975060Y-142048230D01*
X114975060Y-141557670D01*
X114878387Y-141324281D01*
X114699758Y-141145653D01*
X114466369Y-141048980D01*
X113875810Y-141048980D01*
X113717060Y-141207730D01*
X113463060Y-141207730D01*
X113304310Y-141048980D01*
X112810750Y-141048980D01*
X112733360Y-140971590D01*
X112733360Y-139089393D01*
X112881169Y-138990629D01*
X113010528Y-138797030D01*
X113174620Y-138797030D01*
X113174620Y-139387589D01*
X113271293Y-139620978D01*
X113449921Y-139799607D01*
X113683310Y-139896280D01*
X114148870Y-139896280D01*
X114307620Y-139737530D01*
X114307620Y-138638280D01*
X113333370Y-138638280D01*
X113174620Y-138797030D01*
X113010528Y-138797030D01*
X113021517Y-138780585D01*
X113070800Y-138532820D01*
X113070800Y-137732820D01*
X113021517Y-137485055D01*
X112881169Y-137275011D01*
X112743196Y-137182820D01*
X112881169Y-137090629D01*
X112946523Y-136992820D01*
X113208236Y-136992820D01*
X113211463Y-137009045D01*
G36*
X103993132Y-146491496D02*
X104035532Y-146554952D01*
X104286924Y-146722927D01*
X104508609Y-146767023D01*
X104508613Y-146767023D01*
X104583460Y-146781911D01*
X104658307Y-146767023D01*
X107717911Y-146767023D01*
X107564841Y-146869301D01*
X107522439Y-146932760D01*
X107285528Y-147169671D01*
X107222072Y-147212071D01*
X107179672Y-147275527D01*
X107179671Y-147275528D01*
X107054097Y-147463463D01*
X106995112Y-147760000D01*
X107010001Y-147834851D01*
X107010001Y-148178091D01*
X106939721Y-148148980D01*
X106398679Y-148148980D01*
X105898822Y-148356028D01*
X105516248Y-148738602D01*
X105309200Y-149238459D01*
X105309200Y-149779501D01*
X105313499Y-149789880D01*
X105184730Y-149918649D01*
X105121271Y-149961051D01*
X104953296Y-150212444D01*
X104909200Y-150434129D01*
X104909200Y-150434133D01*
X104894312Y-150508980D01*
X104909200Y-150583827D01*
X104909200Y-150881475D01*
X104778816Y-150968595D01*
X104505856Y-151377107D01*
X104434200Y-151737344D01*
X104434200Y-152680615D01*
X104489773Y-152960000D01*
X103123740Y-152960000D01*
X103123740Y-151269700D01*
X103074457Y-151021935D01*
X102934109Y-150811891D01*
X102724065Y-150671543D01*
X102712426Y-150669228D01*
X102777631Y-150604023D01*
X102663003Y-150489395D01*
X102917027Y-150405896D01*
X103122882Y-149841003D01*
X103112801Y-149608014D01*
X103265992Y-149635009D01*
X103322059Y-149633780D01*
X103377060Y-149644720D01*
X103445689Y-149631069D01*
X103477060Y-149630381D01*
X103508431Y-149631069D01*
X103577060Y-149644720D01*
X103632061Y-149633780D01*
X103688128Y-149635009D01*
X103944628Y-149589809D01*
X104048317Y-149549499D01*
X104153652Y-149513723D01*
X104379251Y-149383423D01*
X104462769Y-149310156D01*
X104549429Y-149240604D01*
X104716829Y-149041103D01*
X104770293Y-148943651D01*
X104827963Y-148848613D01*
X104917063Y-148603813D01*
X104933973Y-148493947D01*
X104955660Y-148384920D01*
X104955660Y-148124520D01*
X104933973Y-148015493D01*
X104917063Y-147905627D01*
X104827963Y-147660827D01*
X104770293Y-147565789D01*
X104716829Y-147468337D01*
X104549429Y-147268836D01*
X104462769Y-147199284D01*
X104379251Y-147126017D01*
X104153652Y-146995717D01*
X104048317Y-146959941D01*
X103944628Y-146919631D01*
X103688128Y-146874431D01*
X103632061Y-146875660D01*
X103577060Y-146864720D01*
X103508431Y-146878371D01*
X103477060Y-146879059D01*
X103445689Y-146878371D01*
X103377060Y-146864720D01*
X103322059Y-146875660D01*
X103265992Y-146874431D01*
X103111300Y-146901691D01*
X103111300Y-146765384D01*
X102881218Y-146209917D01*
X102467301Y-145796000D01*
X102881218Y-145382083D01*
X102881951Y-145380314D01*
X103993132Y-146491496D01*
X103993132Y-146491496D01*
G37*
X103993132Y-146491496D02*
X104035532Y-146554952D01*
X104286924Y-146722927D01*
X104508609Y-146767023D01*
X104508613Y-146767023D01*
X104583460Y-146781911D01*
X104658307Y-146767023D01*
X107717911Y-146767023D01*
X107564841Y-146869301D01*
X107522439Y-146932760D01*
X107285528Y-147169671D01*
X107222072Y-147212071D01*
X107179672Y-147275527D01*
X107179671Y-147275528D01*
X107054097Y-147463463D01*
X106995112Y-147760000D01*
X107010001Y-147834851D01*
X107010001Y-148178091D01*
X106939721Y-148148980D01*
X106398679Y-148148980D01*
X105898822Y-148356028D01*
X105516248Y-148738602D01*
X105309200Y-149238459D01*
X105309200Y-149779501D01*
X105313499Y-149789880D01*
X105184730Y-149918649D01*
X105121271Y-149961051D01*
X104953296Y-150212444D01*
X104909200Y-150434129D01*
X104909200Y-150434133D01*
X104894312Y-150508980D01*
X104909200Y-150583827D01*
X104909200Y-150881475D01*
X104778816Y-150968595D01*
X104505856Y-151377107D01*
X104434200Y-151737344D01*
X104434200Y-152680615D01*
X104489773Y-152960000D01*
X103123740Y-152960000D01*
X103123740Y-151269700D01*
X103074457Y-151021935D01*
X102934109Y-150811891D01*
X102724065Y-150671543D01*
X102712426Y-150669228D01*
X102777631Y-150604023D01*
X102663003Y-150489395D01*
X102917027Y-150405896D01*
X103122882Y-149841003D01*
X103112801Y-149608014D01*
X103265992Y-149635009D01*
X103322059Y-149633780D01*
X103377060Y-149644720D01*
X103445689Y-149631069D01*
X103477060Y-149630381D01*
X103508431Y-149631069D01*
X103577060Y-149644720D01*
X103632061Y-149633780D01*
X103688128Y-149635009D01*
X103944628Y-149589809D01*
X104048317Y-149549499D01*
X104153652Y-149513723D01*
X104379251Y-149383423D01*
X104462769Y-149310156D01*
X104549429Y-149240604D01*
X104716829Y-149041103D01*
X104770293Y-148943651D01*
X104827963Y-148848613D01*
X104917063Y-148603813D01*
X104933973Y-148493947D01*
X104955660Y-148384920D01*
X104955660Y-148124520D01*
X104933973Y-148015493D01*
X104917063Y-147905627D01*
X104827963Y-147660827D01*
X104770293Y-147565789D01*
X104716829Y-147468337D01*
X104549429Y-147268836D01*
X104462769Y-147199284D01*
X104379251Y-147126017D01*
X104153652Y-146995717D01*
X104048317Y-146959941D01*
X103944628Y-146919631D01*
X103688128Y-146874431D01*
X103632061Y-146875660D01*
X103577060Y-146864720D01*
X103508431Y-146878371D01*
X103477060Y-146879059D01*
X103445689Y-146878371D01*
X103377060Y-146864720D01*
X103322059Y-146875660D01*
X103265992Y-146874431D01*
X103111300Y-146901691D01*
X103111300Y-146765384D01*
X102881218Y-146209917D01*
X102467301Y-145796000D01*
X102881218Y-145382083D01*
X102881951Y-145380314D01*
X103993132Y-146491496D01*
G36*
X109492620Y-142983980D02*
X109541903Y-143231745D01*
X109682251Y-143441789D01*
X109718934Y-143466300D01*
X109661412Y-143552387D01*
X109490952Y-143481780D01*
X109118986Y-143481780D01*
X109020944Y-143522390D01*
X109018757Y-143511395D01*
X108878409Y-143301351D01*
X108865079Y-143292444D01*
X108876517Y-143275325D01*
X108914765Y-143083038D01*
X109113138Y-142950489D01*
X109155540Y-142887030D01*
X109329850Y-142712720D01*
X109376032Y-142712720D01*
X109492620Y-142664428D01*
X109492620Y-142983980D01*
X109492620Y-142983980D01*
G37*
X109492620Y-142983980D02*
X109541903Y-143231745D01*
X109682251Y-143441789D01*
X109718934Y-143466300D01*
X109661412Y-143552387D01*
X109490952Y-143481780D01*
X109118986Y-143481780D01*
X109020944Y-143522390D01*
X109018757Y-143511395D01*
X108878409Y-143301351D01*
X108865079Y-143292444D01*
X108876517Y-143275325D01*
X108914765Y-143083038D01*
X109113138Y-142950489D01*
X109155540Y-142887030D01*
X109329850Y-142712720D01*
X109376032Y-142712720D01*
X109492620Y-142664428D01*
X109492620Y-142983980D01*
G36*
X106320551Y-143485369D02*
X106333881Y-143494276D01*
X106322443Y-143511395D01*
X106320600Y-143520660D01*
X106318757Y-143511395D01*
X106268768Y-143436582D01*
X106278360Y-143422226D01*
X106320551Y-143485369D01*
X106320551Y-143485369D01*
G37*
X106320551Y-143485369D02*
X106333881Y-143494276D01*
X106322443Y-143511395D01*
X106320600Y-143520660D01*
X106318757Y-143511395D01*
X106268768Y-143436582D01*
X106278360Y-143422226D01*
X106320551Y-143485369D01*
G36*
X112301733Y-143343679D02*
X112311014Y-143352960D01*
X112253634Y-143410340D01*
X112212789Y-143349211D01*
X112176106Y-143324700D01*
X112238217Y-143231745D01*
X112243781Y-143203771D01*
X112301733Y-143343679D01*
X112301733Y-143343679D01*
G37*
X112301733Y-143343679D02*
X112311014Y-143352960D01*
X112253634Y-143410340D01*
X112212789Y-143349211D01*
X112176106Y-143324700D01*
X112238217Y-143231745D01*
X112243781Y-143203771D01*
X112301733Y-143343679D01*
G36*
X108404603Y-135119385D02*
X108544951Y-135329429D01*
X108754995Y-135469777D01*
X109002760Y-135519060D01*
X109213361Y-135519060D01*
X109213360Y-136226247D01*
X109065551Y-136325011D01*
X108925203Y-136535055D01*
X108875920Y-136782820D01*
X108875920Y-137360000D01*
X108314846Y-137360000D01*
X108239999Y-137345112D01*
X108165152Y-137360000D01*
X108165148Y-137360000D01*
X107943463Y-137404096D01*
X107692071Y-137572071D01*
X107649671Y-137635528D01*
X107365527Y-137919671D01*
X107302072Y-137962071D01*
X107259672Y-138025527D01*
X107259671Y-138025528D01*
X107171095Y-138158092D01*
X107152235Y-138161843D01*
X106942191Y-138302191D01*
X106801843Y-138512235D01*
X106752560Y-138760000D01*
X106752560Y-139700000D01*
X106664802Y-139700000D01*
X105840331Y-138875530D01*
X105797929Y-138812071D01*
X105636318Y-138704086D01*
X105598157Y-138512235D01*
X105457809Y-138302191D01*
X105247765Y-138161843D01*
X105000000Y-138112560D01*
X104984785Y-138112560D01*
X105027000Y-137900332D01*
X105027000Y-137900328D01*
X105041888Y-137825481D01*
X105027000Y-137750634D01*
X105027000Y-137722468D01*
X105191582Y-137903063D01*
X105716048Y-138149366D01*
X105945940Y-138028699D01*
X105945940Y-136834880D01*
X106199940Y-136834880D01*
X106199940Y-138028699D01*
X106429832Y-138149366D01*
X106954298Y-137903063D01*
X107344585Y-137474804D01*
X107514416Y-137064770D01*
X107393095Y-136834880D01*
X106199940Y-136834880D01*
X105945940Y-136834880D01*
X105925940Y-136834880D01*
X105925940Y-136580880D01*
X105945940Y-136580880D01*
X105945940Y-136560880D01*
X106199940Y-136560880D01*
X106199940Y-136580880D01*
X107393095Y-136580880D01*
X107514416Y-136350990D01*
X107344585Y-135940956D01*
X107067232Y-135636619D01*
X107170705Y-135616037D01*
X107380749Y-135475689D01*
X107521097Y-135265645D01*
X107570380Y-135017880D01*
X107570380Y-134927880D01*
X108366511Y-134927880D01*
X108404603Y-135119385D01*
X108404603Y-135119385D01*
G37*
X108404603Y-135119385D02*
X108544951Y-135329429D01*
X108754995Y-135469777D01*
X109002760Y-135519060D01*
X109213361Y-135519060D01*
X109213360Y-136226247D01*
X109065551Y-136325011D01*
X108925203Y-136535055D01*
X108875920Y-136782820D01*
X108875920Y-137360000D01*
X108314846Y-137360000D01*
X108239999Y-137345112D01*
X108165152Y-137360000D01*
X108165148Y-137360000D01*
X107943463Y-137404096D01*
X107692071Y-137572071D01*
X107649671Y-137635528D01*
X107365527Y-137919671D01*
X107302072Y-137962071D01*
X107259672Y-138025527D01*
X107259671Y-138025528D01*
X107171095Y-138158092D01*
X107152235Y-138161843D01*
X106942191Y-138302191D01*
X106801843Y-138512235D01*
X106752560Y-138760000D01*
X106752560Y-139700000D01*
X106664802Y-139700000D01*
X105840331Y-138875530D01*
X105797929Y-138812071D01*
X105636318Y-138704086D01*
X105598157Y-138512235D01*
X105457809Y-138302191D01*
X105247765Y-138161843D01*
X105000000Y-138112560D01*
X104984785Y-138112560D01*
X105027000Y-137900332D01*
X105027000Y-137900328D01*
X105041888Y-137825481D01*
X105027000Y-137750634D01*
X105027000Y-137722468D01*
X105191582Y-137903063D01*
X105716048Y-138149366D01*
X105945940Y-138028699D01*
X105945940Y-136834880D01*
X106199940Y-136834880D01*
X106199940Y-138028699D01*
X106429832Y-138149366D01*
X106954298Y-137903063D01*
X107344585Y-137474804D01*
X107514416Y-137064770D01*
X107393095Y-136834880D01*
X106199940Y-136834880D01*
X105945940Y-136834880D01*
X105925940Y-136834880D01*
X105925940Y-136580880D01*
X105945940Y-136580880D01*
X105945940Y-136560880D01*
X106199940Y-136560880D01*
X106199940Y-136580880D01*
X107393095Y-136580880D01*
X107514416Y-136350990D01*
X107344585Y-135940956D01*
X107067232Y-135636619D01*
X107170705Y-135616037D01*
X107380749Y-135475689D01*
X107521097Y-135265645D01*
X107570380Y-135017880D01*
X107570380Y-134927880D01*
X108366511Y-134927880D01*
X108404603Y-135119385D01*
G36*
X117869990Y-121961666D02*
X117869990Y-123098689D01*
X117696083Y-122924782D01*
X117140616Y-122694700D01*
X116539384Y-122694700D01*
X115983917Y-122924782D01*
X115558782Y-123349917D01*
X115328700Y-123905384D01*
X115328700Y-124506616D01*
X115558782Y-125062083D01*
X115972699Y-125476000D01*
X115558782Y-125889917D01*
X115328700Y-126445384D01*
X115328700Y-127046616D01*
X115558782Y-127602083D01*
X115972699Y-128016000D01*
X115558782Y-128429917D01*
X115328700Y-128985384D01*
X115328700Y-129586616D01*
X115558782Y-130142083D01*
X115972699Y-130556000D01*
X115558782Y-130969917D01*
X115328700Y-131525384D01*
X115328700Y-132126616D01*
X115558782Y-132682083D01*
X115972699Y-133096000D01*
X115558782Y-133509917D01*
X115328700Y-134065384D01*
X115328700Y-134666616D01*
X115334856Y-134681479D01*
X115307385Y-134663123D01*
X115059620Y-134613840D01*
X113809620Y-134613840D01*
X113637760Y-134648025D01*
X113637760Y-134532370D01*
X113479010Y-134373620D01*
X112379760Y-134373620D01*
X112379760Y-134393620D01*
X112125760Y-134393620D01*
X112125760Y-134373620D01*
X112105760Y-134373620D01*
X112105760Y-134119620D01*
X112125760Y-134119620D01*
X112125760Y-133499610D01*
X112190520Y-133434850D01*
X112190520Y-133145370D01*
X112379760Y-133145370D01*
X112379760Y-134119620D01*
X113479010Y-134119620D01*
X113637760Y-133960870D01*
X113637760Y-133495310D01*
X113576567Y-133347578D01*
X113605847Y-133318299D01*
X113702520Y-133084910D01*
X113702520Y-132594350D01*
X113543770Y-132435600D01*
X112444520Y-132435600D01*
X112444520Y-133080610D01*
X112379760Y-133145370D01*
X112190520Y-133145370D01*
X112190520Y-132435600D01*
X112170520Y-132435600D01*
X112170520Y-132181600D01*
X112190520Y-132181600D01*
X112190520Y-132161600D01*
X112444520Y-132161600D01*
X112444520Y-132181600D01*
X113543770Y-132181600D01*
X113702520Y-132022850D01*
X113702520Y-131532290D01*
X113605847Y-131298901D01*
X113427218Y-131120273D01*
X113405622Y-131111328D01*
X113537709Y-131023069D01*
X113678057Y-130813025D01*
X113727340Y-130565260D01*
X113727340Y-130363743D01*
X113877829Y-130263189D01*
X113920231Y-130199730D01*
X114974973Y-129144989D01*
X115038429Y-129102589D01*
X115206404Y-128851197D01*
X115250500Y-128629512D01*
X115250500Y-128629508D01*
X115265388Y-128554661D01*
X115250500Y-128479814D01*
X115250500Y-125108888D01*
X115265388Y-125034040D01*
X115250500Y-124959192D01*
X115250500Y-124959188D01*
X115206404Y-124737503D01*
X115038429Y-124486111D01*
X114974973Y-124443711D01*
X113131955Y-122600694D01*
X113157000Y-122583959D01*
X113184235Y-122602157D01*
X113432000Y-122651440D01*
X114152000Y-122651440D01*
X114399765Y-122602157D01*
X114427000Y-122583959D01*
X114454235Y-122602157D01*
X114702000Y-122651440D01*
X115422000Y-122651440D01*
X115669765Y-122602157D01*
X115697000Y-122583959D01*
X115724235Y-122602157D01*
X115972000Y-122651440D01*
X116692000Y-122651440D01*
X116939765Y-122602157D01*
X117149809Y-122461809D01*
X117290157Y-122251765D01*
X117339440Y-122004000D01*
X117339440Y-121431115D01*
X117869990Y-121961666D01*
X117869990Y-121961666D01*
G37*
X117869990Y-121961666D02*
X117869990Y-123098689D01*
X117696083Y-122924782D01*
X117140616Y-122694700D01*
X116539384Y-122694700D01*
X115983917Y-122924782D01*
X115558782Y-123349917D01*
X115328700Y-123905384D01*
X115328700Y-124506616D01*
X115558782Y-125062083D01*
X115972699Y-125476000D01*
X115558782Y-125889917D01*
X115328700Y-126445384D01*
X115328700Y-127046616D01*
X115558782Y-127602083D01*
X115972699Y-128016000D01*
X115558782Y-128429917D01*
X115328700Y-128985384D01*
X115328700Y-129586616D01*
X115558782Y-130142083D01*
X115972699Y-130556000D01*
X115558782Y-130969917D01*
X115328700Y-131525384D01*
X115328700Y-132126616D01*
X115558782Y-132682083D01*
X115972699Y-133096000D01*
X115558782Y-133509917D01*
X115328700Y-134065384D01*
X115328700Y-134666616D01*
X115334856Y-134681479D01*
X115307385Y-134663123D01*
X115059620Y-134613840D01*
X113809620Y-134613840D01*
X113637760Y-134648025D01*
X113637760Y-134532370D01*
X113479010Y-134373620D01*
X112379760Y-134373620D01*
X112379760Y-134393620D01*
X112125760Y-134393620D01*
X112125760Y-134373620D01*
X112105760Y-134373620D01*
X112105760Y-134119620D01*
X112125760Y-134119620D01*
X112125760Y-133499610D01*
X112190520Y-133434850D01*
X112190520Y-133145370D01*
X112379760Y-133145370D01*
X112379760Y-134119620D01*
X113479010Y-134119620D01*
X113637760Y-133960870D01*
X113637760Y-133495310D01*
X113576567Y-133347578D01*
X113605847Y-133318299D01*
X113702520Y-133084910D01*
X113702520Y-132594350D01*
X113543770Y-132435600D01*
X112444520Y-132435600D01*
X112444520Y-133080610D01*
X112379760Y-133145370D01*
X112190520Y-133145370D01*
X112190520Y-132435600D01*
X112170520Y-132435600D01*
X112170520Y-132181600D01*
X112190520Y-132181600D01*
X112190520Y-132161600D01*
X112444520Y-132161600D01*
X112444520Y-132181600D01*
X113543770Y-132181600D01*
X113702520Y-132022850D01*
X113702520Y-131532290D01*
X113605847Y-131298901D01*
X113427218Y-131120273D01*
X113405622Y-131111328D01*
X113537709Y-131023069D01*
X113678057Y-130813025D01*
X113727340Y-130565260D01*
X113727340Y-130363743D01*
X113877829Y-130263189D01*
X113920231Y-130199730D01*
X114974973Y-129144989D01*
X115038429Y-129102589D01*
X115206404Y-128851197D01*
X115250500Y-128629512D01*
X115250500Y-128629508D01*
X115265388Y-128554661D01*
X115250500Y-128479814D01*
X115250500Y-125108888D01*
X115265388Y-125034040D01*
X115250500Y-124959192D01*
X115250500Y-124959188D01*
X115206404Y-124737503D01*
X115038429Y-124486111D01*
X114974973Y-124443711D01*
X113131955Y-122600694D01*
X113157000Y-122583959D01*
X113184235Y-122602157D01*
X113432000Y-122651440D01*
X114152000Y-122651440D01*
X114399765Y-122602157D01*
X114427000Y-122583959D01*
X114454235Y-122602157D01*
X114702000Y-122651440D01*
X115422000Y-122651440D01*
X115669765Y-122602157D01*
X115697000Y-122583959D01*
X115724235Y-122602157D01*
X115972000Y-122651440D01*
X116692000Y-122651440D01*
X116939765Y-122602157D01*
X117149809Y-122461809D01*
X117290157Y-122251765D01*
X117339440Y-122004000D01*
X117339440Y-121431115D01*
X117869990Y-121961666D01*
G36*
X108322330Y-126432912D02*
X108364731Y-126496369D01*
X108378094Y-126505298D01*
X108248424Y-126818370D01*
X108369745Y-127048260D01*
X109562900Y-127048260D01*
X109562900Y-127028260D01*
X109816900Y-127028260D01*
X109816900Y-127048260D01*
X109836900Y-127048260D01*
X109836900Y-127302260D01*
X109816900Y-127302260D01*
X109816900Y-127322260D01*
X109562900Y-127322260D01*
X109562900Y-127302260D01*
X108369745Y-127302260D01*
X108248424Y-127532150D01*
X108418255Y-127942184D01*
X108808542Y-128370443D01*
X108938378Y-128431417D01*
X108619275Y-128644635D01*
X108291061Y-129135842D01*
X108175808Y-129715260D01*
X108291061Y-130294678D01*
X108619275Y-130785885D01*
X108956423Y-131011160D01*
X108867520Y-131011160D01*
X108619755Y-131060443D01*
X108409711Y-131200791D01*
X108269363Y-131410835D01*
X108220080Y-131658600D01*
X108220080Y-132958600D01*
X108269363Y-133206365D01*
X108399252Y-133400756D01*
X108397835Y-133407880D01*
X107859467Y-133407880D01*
X108010584Y-133181717D01*
X108054680Y-132960032D01*
X108054680Y-132960028D01*
X108069568Y-132885181D01*
X108054680Y-132810334D01*
X108054680Y-126165261D01*
X108322330Y-126432912D01*
X108322330Y-126432912D01*
G37*
X108322330Y-126432912D02*
X108364731Y-126496369D01*
X108378094Y-126505298D01*
X108248424Y-126818370D01*
X108369745Y-127048260D01*
X109562900Y-127048260D01*
X109562900Y-127028260D01*
X109816900Y-127028260D01*
X109816900Y-127048260D01*
X109836900Y-127048260D01*
X109836900Y-127302260D01*
X109816900Y-127302260D01*
X109816900Y-127322260D01*
X109562900Y-127322260D01*
X109562900Y-127302260D01*
X108369745Y-127302260D01*
X108248424Y-127532150D01*
X108418255Y-127942184D01*
X108808542Y-128370443D01*
X108938378Y-128431417D01*
X108619275Y-128644635D01*
X108291061Y-129135842D01*
X108175808Y-129715260D01*
X108291061Y-130294678D01*
X108619275Y-130785885D01*
X108956423Y-131011160D01*
X108867520Y-131011160D01*
X108619755Y-131060443D01*
X108409711Y-131200791D01*
X108269363Y-131410835D01*
X108220080Y-131658600D01*
X108220080Y-132958600D01*
X108269363Y-133206365D01*
X108399252Y-133400756D01*
X108397835Y-133407880D01*
X107859467Y-133407880D01*
X108010584Y-133181717D01*
X108054680Y-132960032D01*
X108054680Y-132960028D01*
X108069568Y-132885181D01*
X108054680Y-132810334D01*
X108054680Y-126165261D01*
X108322330Y-126432912D01*
G36*
X106502025Y-125840535D02*
X106534680Y-125873190D01*
X106534681Y-132570377D01*
X106434618Y-132670440D01*
X105222940Y-132670440D01*
X105184480Y-132678090D01*
X105184480Y-126895701D01*
X106425176Y-125655005D01*
X106502025Y-125840535D01*
X106502025Y-125840535D01*
G37*
X106502025Y-125840535D02*
X106534680Y-125873190D01*
X106534681Y-132570377D01*
X106434618Y-132670440D01*
X105222940Y-132670440D01*
X105184480Y-132678090D01*
X105184480Y-126895701D01*
X106425176Y-125655005D01*
X106502025Y-125840535D01*
G36*
X100711000Y-118999000D02*
X100731000Y-118999000D01*
X100731000Y-119253000D01*
X100711000Y-119253000D01*
X100711000Y-119962250D01*
X100869750Y-120121000D01*
X101354560Y-120121000D01*
X101354560Y-120177932D01*
X101351605Y-120178520D01*
X101303462Y-120188096D01*
X101181029Y-120269904D01*
X101052071Y-120356071D01*
X101009671Y-120419527D01*
X99337528Y-122091671D01*
X99274072Y-122134071D01*
X99231672Y-122197527D01*
X99231671Y-122197528D01*
X99135000Y-122342207D01*
X99135000Y-120028758D01*
X99357691Y-120121000D01*
X100298250Y-120121000D01*
X100457000Y-119962250D01*
X100457000Y-119253000D01*
X100437000Y-119253000D01*
X100437000Y-118999000D01*
X100457000Y-118999000D01*
X100457000Y-118979000D01*
X100711000Y-118979000D01*
X100711000Y-118999000D01*
X100711000Y-118999000D01*
G37*
X100711000Y-118999000D02*
X100731000Y-118999000D01*
X100731000Y-119253000D01*
X100711000Y-119253000D01*
X100711000Y-119962250D01*
X100869750Y-120121000D01*
X101354560Y-120121000D01*
X101354560Y-120177932D01*
X101351605Y-120178520D01*
X101303462Y-120188096D01*
X101181029Y-120269904D01*
X101052071Y-120356071D01*
X101009671Y-120419527D01*
X99337528Y-122091671D01*
X99274072Y-122134071D01*
X99231672Y-122197527D01*
X99231671Y-122197528D01*
X99135000Y-122342207D01*
X99135000Y-120028758D01*
X99357691Y-120121000D01*
X100298250Y-120121000D01*
X100457000Y-119962250D01*
X100457000Y-119253000D01*
X100437000Y-119253000D01*
X100437000Y-118999000D01*
X100457000Y-118999000D01*
X100457000Y-118979000D01*
X100711000Y-118979000D01*
X100711000Y-118999000D01*
G36*
X113503623Y-114327377D02*
X113503623Y-114699343D01*
X113645968Y-115042995D01*
X113908988Y-115306015D01*
X113993111Y-115340860D01*
X106231628Y-115340860D01*
X106156781Y-115325972D01*
X106081934Y-115340860D01*
X106081930Y-115340860D01*
X105860245Y-115384956D01*
X105608853Y-115552931D01*
X105576885Y-115600775D01*
X105418935Y-115442825D01*
X105075283Y-115300480D01*
X104703317Y-115300480D01*
X104359665Y-115442825D01*
X104096645Y-115705845D01*
X104046644Y-115826558D01*
X103681496Y-116191706D01*
X103607603Y-116241080D01*
X103558228Y-116314974D01*
X103558227Y-116314975D01*
X103517892Y-116375340D01*
X103411999Y-116533819D01*
X103360651Y-116791964D01*
X103360651Y-116791968D01*
X103343314Y-116879129D01*
X103360651Y-116966290D01*
X103360651Y-117042775D01*
X103079164Y-117324262D01*
X103079164Y-117124357D01*
X103016886Y-116974004D01*
X103195295Y-116795595D01*
X103337640Y-116451943D01*
X103337640Y-116079977D01*
X103195295Y-115736325D01*
X103133110Y-115674140D01*
X103144495Y-115662755D01*
X103286840Y-115319103D01*
X103286840Y-114947137D01*
X103228379Y-114806000D01*
X109775243Y-114806000D01*
X109850090Y-114820888D01*
X109924937Y-114806000D01*
X109924942Y-114806000D01*
X110146627Y-114761904D01*
X110267289Y-114681280D01*
X110335793Y-114681280D01*
X110679445Y-114538935D01*
X110942465Y-114275915D01*
X110993526Y-114152642D01*
X113576000Y-114152642D01*
X113503623Y-114327377D01*
X113503623Y-114327377D01*
G37*
X113503623Y-114327377D02*
X113503623Y-114699343D01*
X113645968Y-115042995D01*
X113908988Y-115306015D01*
X113993111Y-115340860D01*
X106231628Y-115340860D01*
X106156781Y-115325972D01*
X106081934Y-115340860D01*
X106081930Y-115340860D01*
X105860245Y-115384956D01*
X105608853Y-115552931D01*
X105576885Y-115600775D01*
X105418935Y-115442825D01*
X105075283Y-115300480D01*
X104703317Y-115300480D01*
X104359665Y-115442825D01*
X104096645Y-115705845D01*
X104046644Y-115826558D01*
X103681496Y-116191706D01*
X103607603Y-116241080D01*
X103558228Y-116314974D01*
X103558227Y-116314975D01*
X103517892Y-116375340D01*
X103411999Y-116533819D01*
X103360651Y-116791964D01*
X103360651Y-116791968D01*
X103343314Y-116879129D01*
X103360651Y-116966290D01*
X103360651Y-117042775D01*
X103079164Y-117324262D01*
X103079164Y-117124357D01*
X103016886Y-116974004D01*
X103195295Y-116795595D01*
X103337640Y-116451943D01*
X103337640Y-116079977D01*
X103195295Y-115736325D01*
X103133110Y-115674140D01*
X103144495Y-115662755D01*
X103286840Y-115319103D01*
X103286840Y-114947137D01*
X103228379Y-114806000D01*
X109775243Y-114806000D01*
X109850090Y-114820888D01*
X109924937Y-114806000D01*
X109924942Y-114806000D01*
X110146627Y-114761904D01*
X110267289Y-114681280D01*
X110335793Y-114681280D01*
X110679445Y-114538935D01*
X110942465Y-114275915D01*
X110993526Y-114152642D01*
X113576000Y-114152642D01*
X113503623Y-114327377D01*
G36*
X116471673Y-98086301D02*
X116375000Y-98319690D01*
X116375000Y-98520250D01*
X116533750Y-98679000D01*
X117983000Y-98679000D01*
X117983000Y-98659000D01*
X118237000Y-98659000D01*
X118237000Y-98679000D01*
X118257000Y-98679000D01*
X118257000Y-98933000D01*
X118237000Y-98933000D01*
X118237000Y-99949000D01*
X118257000Y-99949000D01*
X118257000Y-100203000D01*
X118237000Y-100203000D01*
X118237000Y-100912250D01*
X118395750Y-101071000D01*
X119305000Y-101071000D01*
X119305000Y-101627457D01*
X119210000Y-101608560D01*
X117010000Y-101608560D01*
X116762235Y-101657843D01*
X116552191Y-101798191D01*
X116411843Y-102008235D01*
X116362560Y-102256000D01*
X116362560Y-102976000D01*
X116411843Y-103223765D01*
X116430041Y-103251000D01*
X116411843Y-103278235D01*
X116362560Y-103526000D01*
X116362560Y-103870682D01*
X116336129Y-103720692D01*
X116295819Y-103617003D01*
X116260043Y-103511668D01*
X116129743Y-103286068D01*
X116056476Y-103202551D01*
X115986924Y-103115891D01*
X115787424Y-102948491D01*
X115689966Y-102895024D01*
X115594933Y-102837357D01*
X115350133Y-102748257D01*
X115240267Y-102731347D01*
X115131240Y-102709660D01*
X114870840Y-102709660D01*
X114761813Y-102731347D01*
X114651947Y-102748257D01*
X114407147Y-102837357D01*
X114312109Y-102895027D01*
X114214657Y-102948491D01*
X114015156Y-103115891D01*
X113945604Y-103202551D01*
X113872337Y-103286069D01*
X113742037Y-103511668D01*
X113706261Y-103617003D01*
X113665951Y-103720692D01*
X113620751Y-103977192D01*
X113621980Y-104033259D01*
X113611040Y-104088260D01*
X113624691Y-104156889D01*
X113625379Y-104188260D01*
X113624691Y-104219631D01*
X113611040Y-104288260D01*
X113621980Y-104343261D01*
X113620751Y-104399328D01*
X113665951Y-104655828D01*
X113706261Y-104759517D01*
X113742037Y-104864852D01*
X113872337Y-105090451D01*
X113945604Y-105173969D01*
X114015156Y-105260629D01*
X114214657Y-105428029D01*
X114312109Y-105481493D01*
X114407147Y-105539163D01*
X114651947Y-105628263D01*
X114761813Y-105645173D01*
X114870840Y-105666860D01*
X114946082Y-105666860D01*
X114970851Y-105703929D01*
X115222243Y-105871904D01*
X115443928Y-105916000D01*
X115443933Y-105916000D01*
X115518780Y-105930888D01*
X115593627Y-105916000D01*
X116129872Y-105916000D01*
X116122532Y-105917460D01*
X116122528Y-105917460D01*
X115900843Y-105961556D01*
X115649451Y-106129531D01*
X115607049Y-106192990D01*
X115314130Y-106485909D01*
X115314009Y-106485990D01*
X113124970Y-106485990D01*
X113050123Y-106471102D01*
X112975276Y-106485990D01*
X112975272Y-106485990D01*
X112753587Y-106530086D01*
X112735307Y-106542300D01*
X112533348Y-106542300D01*
X112458500Y-106527412D01*
X112383652Y-106542300D01*
X112383648Y-106542300D01*
X112161963Y-106586396D01*
X111910571Y-106754371D01*
X111868169Y-106817830D01*
X111617659Y-107068340D01*
X111571477Y-107068340D01*
X111227825Y-107210685D01*
X111050828Y-107387682D01*
X108969675Y-105306530D01*
X108927273Y-105243071D01*
X108675881Y-105075096D01*
X108454196Y-105031000D01*
X108454191Y-105031000D01*
X108379344Y-105016112D01*
X108304497Y-105031000D01*
X107808710Y-105031000D01*
X107776055Y-104998345D01*
X107432403Y-104856000D01*
X107060437Y-104856000D01*
X106716785Y-104998345D01*
X106453765Y-105261365D01*
X106311420Y-105605017D01*
X106311420Y-105976983D01*
X106435277Y-106276000D01*
X103199290Y-106276000D01*
X103279115Y-106196175D01*
X103421460Y-105852523D01*
X103421460Y-105480557D01*
X103279115Y-105136905D01*
X103016095Y-104873885D01*
X102672443Y-104731540D01*
X102626261Y-104731540D01*
X102566251Y-104671530D01*
X102523849Y-104608071D01*
X102290442Y-104452113D01*
X102331440Y-104246000D01*
X102331440Y-103526000D01*
X102282157Y-103278235D01*
X102259917Y-103244950D01*
X102319000Y-103102310D01*
X102319000Y-102901750D01*
X102160250Y-102743000D01*
X100711000Y-102743000D01*
X100711000Y-102763000D01*
X100457000Y-102763000D01*
X100457000Y-102743000D01*
X100437000Y-102743000D01*
X100437000Y-102489000D01*
X100457000Y-102489000D01*
X100457000Y-101779750D01*
X100711000Y-101779750D01*
X100711000Y-102489000D01*
X102160250Y-102489000D01*
X102319000Y-102330250D01*
X102319000Y-102129690D01*
X102222327Y-101896301D01*
X102043698Y-101717673D01*
X101810309Y-101621000D01*
X100869750Y-101621000D01*
X100711000Y-101779750D01*
X100457000Y-101779750D01*
X100298250Y-101621000D01*
X99357691Y-101621000D01*
X99135000Y-101713242D01*
X99135000Y-100978758D01*
X99357691Y-101071000D01*
X100298250Y-101071000D01*
X100457000Y-100912250D01*
X100457000Y-100203000D01*
X100711000Y-100203000D01*
X100711000Y-100912250D01*
X100869750Y-101071000D01*
X101810309Y-101071000D01*
X102043698Y-100974327D01*
X102222327Y-100795699D01*
X102319000Y-100562310D01*
X102319000Y-100361750D01*
X116375000Y-100361750D01*
X116375000Y-100562310D01*
X116471673Y-100795699D01*
X116650302Y-100974327D01*
X116883691Y-101071000D01*
X117824250Y-101071000D01*
X117983000Y-100912250D01*
X117983000Y-100203000D01*
X116533750Y-100203000D01*
X116375000Y-100361750D01*
X102319000Y-100361750D01*
X102160250Y-100203000D01*
X100711000Y-100203000D01*
X100457000Y-100203000D01*
X100437000Y-100203000D01*
X100437000Y-99949000D01*
X100457000Y-99949000D01*
X100457000Y-98933000D01*
X100711000Y-98933000D01*
X100711000Y-99949000D01*
X102160250Y-99949000D01*
X102319000Y-99790250D01*
X102319000Y-99589690D01*
X102257411Y-99441000D01*
X102319000Y-99292310D01*
X102319000Y-99091750D01*
X116375000Y-99091750D01*
X116375000Y-99292310D01*
X116436589Y-99441000D01*
X116375000Y-99589690D01*
X116375000Y-99790250D01*
X116533750Y-99949000D01*
X117983000Y-99949000D01*
X117983000Y-98933000D01*
X116533750Y-98933000D01*
X116375000Y-99091750D01*
X102319000Y-99091750D01*
X102160250Y-98933000D01*
X100711000Y-98933000D01*
X100457000Y-98933000D01*
X100437000Y-98933000D01*
X100437000Y-98679000D01*
X100457000Y-98679000D01*
X100457000Y-98659000D01*
X100711000Y-98659000D01*
X100711000Y-98679000D01*
X102160250Y-98679000D01*
X102319000Y-98520250D01*
X102319000Y-98319690D01*
X102222327Y-98086301D01*
X102053025Y-97917000D01*
X116640975Y-97917000D01*
X116471673Y-98086301D01*
X116471673Y-98086301D01*
G37*
X116471673Y-98086301D02*
X116375000Y-98319690D01*
X116375000Y-98520250D01*
X116533750Y-98679000D01*
X117983000Y-98679000D01*
X117983000Y-98659000D01*
X118237000Y-98659000D01*
X118237000Y-98679000D01*
X118257000Y-98679000D01*
X118257000Y-98933000D01*
X118237000Y-98933000D01*
X118237000Y-99949000D01*
X118257000Y-99949000D01*
X118257000Y-100203000D01*
X118237000Y-100203000D01*
X118237000Y-100912250D01*
X118395750Y-101071000D01*
X119305000Y-101071000D01*
X119305000Y-101627457D01*
X119210000Y-101608560D01*
X117010000Y-101608560D01*
X116762235Y-101657843D01*
X116552191Y-101798191D01*
X116411843Y-102008235D01*
X116362560Y-102256000D01*
X116362560Y-102976000D01*
X116411843Y-103223765D01*
X116430041Y-103251000D01*
X116411843Y-103278235D01*
X116362560Y-103526000D01*
X116362560Y-103870682D01*
X116336129Y-103720692D01*
X116295819Y-103617003D01*
X116260043Y-103511668D01*
X116129743Y-103286068D01*
X116056476Y-103202551D01*
X115986924Y-103115891D01*
X115787424Y-102948491D01*
X115689966Y-102895024D01*
X115594933Y-102837357D01*
X115350133Y-102748257D01*
X115240267Y-102731347D01*
X115131240Y-102709660D01*
X114870840Y-102709660D01*
X114761813Y-102731347D01*
X114651947Y-102748257D01*
X114407147Y-102837357D01*
X114312109Y-102895027D01*
X114214657Y-102948491D01*
X114015156Y-103115891D01*
X113945604Y-103202551D01*
X113872337Y-103286069D01*
X113742037Y-103511668D01*
X113706261Y-103617003D01*
X113665951Y-103720692D01*
X113620751Y-103977192D01*
X113621980Y-104033259D01*
X113611040Y-104088260D01*
X113624691Y-104156889D01*
X113625379Y-104188260D01*
X113624691Y-104219631D01*
X113611040Y-104288260D01*
X113621980Y-104343261D01*
X113620751Y-104399328D01*
X113665951Y-104655828D01*
X113706261Y-104759517D01*
X113742037Y-104864852D01*
X113872337Y-105090451D01*
X113945604Y-105173969D01*
X114015156Y-105260629D01*
X114214657Y-105428029D01*
X114312109Y-105481493D01*
X114407147Y-105539163D01*
X114651947Y-105628263D01*
X114761813Y-105645173D01*
X114870840Y-105666860D01*
X114946082Y-105666860D01*
X114970851Y-105703929D01*
X115222243Y-105871904D01*
X115443928Y-105916000D01*
X115443933Y-105916000D01*
X115518780Y-105930888D01*
X115593627Y-105916000D01*
X116129872Y-105916000D01*
X116122532Y-105917460D01*
X116122528Y-105917460D01*
X115900843Y-105961556D01*
X115649451Y-106129531D01*
X115607049Y-106192990D01*
X115314130Y-106485909D01*
X115314009Y-106485990D01*
X113124970Y-106485990D01*
X113050123Y-106471102D01*
X112975276Y-106485990D01*
X112975272Y-106485990D01*
X112753587Y-106530086D01*
X112735307Y-106542300D01*
X112533348Y-106542300D01*
X112458500Y-106527412D01*
X112383652Y-106542300D01*
X112383648Y-106542300D01*
X112161963Y-106586396D01*
X111910571Y-106754371D01*
X111868169Y-106817830D01*
X111617659Y-107068340D01*
X111571477Y-107068340D01*
X111227825Y-107210685D01*
X111050828Y-107387682D01*
X108969675Y-105306530D01*
X108927273Y-105243071D01*
X108675881Y-105075096D01*
X108454196Y-105031000D01*
X108454191Y-105031000D01*
X108379344Y-105016112D01*
X108304497Y-105031000D01*
X107808710Y-105031000D01*
X107776055Y-104998345D01*
X107432403Y-104856000D01*
X107060437Y-104856000D01*
X106716785Y-104998345D01*
X106453765Y-105261365D01*
X106311420Y-105605017D01*
X106311420Y-105976983D01*
X106435277Y-106276000D01*
X103199290Y-106276000D01*
X103279115Y-106196175D01*
X103421460Y-105852523D01*
X103421460Y-105480557D01*
X103279115Y-105136905D01*
X103016095Y-104873885D01*
X102672443Y-104731540D01*
X102626261Y-104731540D01*
X102566251Y-104671530D01*
X102523849Y-104608071D01*
X102290442Y-104452113D01*
X102331440Y-104246000D01*
X102331440Y-103526000D01*
X102282157Y-103278235D01*
X102259917Y-103244950D01*
X102319000Y-103102310D01*
X102319000Y-102901750D01*
X102160250Y-102743000D01*
X100711000Y-102743000D01*
X100711000Y-102763000D01*
X100457000Y-102763000D01*
X100457000Y-102743000D01*
X100437000Y-102743000D01*
X100437000Y-102489000D01*
X100457000Y-102489000D01*
X100457000Y-101779750D01*
X100711000Y-101779750D01*
X100711000Y-102489000D01*
X102160250Y-102489000D01*
X102319000Y-102330250D01*
X102319000Y-102129690D01*
X102222327Y-101896301D01*
X102043698Y-101717673D01*
X101810309Y-101621000D01*
X100869750Y-101621000D01*
X100711000Y-101779750D01*
X100457000Y-101779750D01*
X100298250Y-101621000D01*
X99357691Y-101621000D01*
X99135000Y-101713242D01*
X99135000Y-100978758D01*
X99357691Y-101071000D01*
X100298250Y-101071000D01*
X100457000Y-100912250D01*
X100457000Y-100203000D01*
X100711000Y-100203000D01*
X100711000Y-100912250D01*
X100869750Y-101071000D01*
X101810309Y-101071000D01*
X102043698Y-100974327D01*
X102222327Y-100795699D01*
X102319000Y-100562310D01*
X102319000Y-100361750D01*
X116375000Y-100361750D01*
X116375000Y-100562310D01*
X116471673Y-100795699D01*
X116650302Y-100974327D01*
X116883691Y-101071000D01*
X117824250Y-101071000D01*
X117983000Y-100912250D01*
X117983000Y-100203000D01*
X116533750Y-100203000D01*
X116375000Y-100361750D01*
X102319000Y-100361750D01*
X102160250Y-100203000D01*
X100711000Y-100203000D01*
X100457000Y-100203000D01*
X100437000Y-100203000D01*
X100437000Y-99949000D01*
X100457000Y-99949000D01*
X100457000Y-98933000D01*
X100711000Y-98933000D01*
X100711000Y-99949000D01*
X102160250Y-99949000D01*
X102319000Y-99790250D01*
X102319000Y-99589690D01*
X102257411Y-99441000D01*
X102319000Y-99292310D01*
X102319000Y-99091750D01*
X116375000Y-99091750D01*
X116375000Y-99292310D01*
X116436589Y-99441000D01*
X116375000Y-99589690D01*
X116375000Y-99790250D01*
X116533750Y-99949000D01*
X117983000Y-99949000D01*
X117983000Y-98933000D01*
X116533750Y-98933000D01*
X116375000Y-99091750D01*
X102319000Y-99091750D01*
X102160250Y-98933000D01*
X100711000Y-98933000D01*
X100457000Y-98933000D01*
X100437000Y-98933000D01*
X100437000Y-98679000D01*
X100457000Y-98679000D01*
X100457000Y-98659000D01*
X100711000Y-98659000D01*
X100711000Y-98679000D01*
X102160250Y-98679000D01*
X102319000Y-98520250D01*
X102319000Y-98319690D01*
X102222327Y-98086301D01*
X102053025Y-97917000D01*
X116640975Y-97917000D01*
X116471673Y-98086301D01*
G04 #@! TD*
M02*
