G04 #@! TF.GenerationSoftware,KiCad,Pcbnew,(5.0.0)*
G04 #@! TF.CreationDate,2019-11-08T12:20:02-06:00*
G04 #@! TF.ProjectId,EByte_E73,45427974655F4537332E6B696361645F,rev?*
G04 #@! TF.SameCoordinates,Original*
G04 #@! TF.FileFunction,Legend,Bot*
G04 #@! TF.FilePolarity,Positive*
%FSLAX46Y46*%
G04 Gerber Fmt 4.6, Leading zero omitted, Abs format (unit mm)*
G04 Created by KiCad (PCBNEW (5.0.0)) date 11/08/19 12:20:02*
%MOMM*%
%LPD*%
G01*
G04 APERTURE LIST*
%ADD10C,0.100000*%
%ADD11C,0.150000*%
%ADD12C,0.300000*%
%ADD13C,0.381000*%
%ADD14C,0.120000*%
%ADD15C,0.110000*%
G04 APERTURE END LIST*
D10*
X111688571Y-120621428D02*
X111688571Y-120021428D01*
X111545714Y-120021428D01*
X111460000Y-120050000D01*
X111402857Y-120107142D01*
X111374285Y-120164285D01*
X111345714Y-120278571D01*
X111345714Y-120364285D01*
X111374285Y-120478571D01*
X111402857Y-120535714D01*
X111460000Y-120592857D01*
X111545714Y-120621428D01*
X111688571Y-120621428D01*
X110860000Y-120592857D02*
X110917142Y-120621428D01*
X111031428Y-120621428D01*
X111088571Y-120592857D01*
X111117142Y-120535714D01*
X111117142Y-120307142D01*
X111088571Y-120250000D01*
X111031428Y-120221428D01*
X110917142Y-120221428D01*
X110860000Y-120250000D01*
X110831428Y-120307142D01*
X110831428Y-120364285D01*
X111117142Y-120421428D01*
X110602857Y-120592857D02*
X110545714Y-120621428D01*
X110431428Y-120621428D01*
X110374285Y-120592857D01*
X110345714Y-120535714D01*
X110345714Y-120507142D01*
X110374285Y-120450000D01*
X110431428Y-120421428D01*
X110517142Y-120421428D01*
X110574285Y-120392857D01*
X110602857Y-120335714D01*
X110602857Y-120307142D01*
X110574285Y-120250000D01*
X110517142Y-120221428D01*
X110431428Y-120221428D01*
X110374285Y-120250000D01*
X110088571Y-120621428D02*
X110088571Y-120221428D01*
X110088571Y-120021428D02*
X110117142Y-120050000D01*
X110088571Y-120078571D01*
X110060000Y-120050000D01*
X110088571Y-120021428D01*
X110088571Y-120078571D01*
X109545714Y-120221428D02*
X109545714Y-120707142D01*
X109574285Y-120764285D01*
X109602857Y-120792857D01*
X109660000Y-120821428D01*
X109745714Y-120821428D01*
X109802857Y-120792857D01*
X109545714Y-120592857D02*
X109602857Y-120621428D01*
X109717142Y-120621428D01*
X109774285Y-120592857D01*
X109802857Y-120564285D01*
X109831428Y-120507142D01*
X109831428Y-120335714D01*
X109802857Y-120278571D01*
X109774285Y-120250000D01*
X109717142Y-120221428D01*
X109602857Y-120221428D01*
X109545714Y-120250000D01*
X109260000Y-120221428D02*
X109260000Y-120621428D01*
X109260000Y-120278571D02*
X109231428Y-120250000D01*
X109174285Y-120221428D01*
X109088571Y-120221428D01*
X109031428Y-120250000D01*
X109002857Y-120307142D01*
X109002857Y-120621428D01*
X108488571Y-120592857D02*
X108545714Y-120621428D01*
X108660000Y-120621428D01*
X108717142Y-120592857D01*
X108745714Y-120535714D01*
X108745714Y-120307142D01*
X108717142Y-120250000D01*
X108660000Y-120221428D01*
X108545714Y-120221428D01*
X108488571Y-120250000D01*
X108460000Y-120307142D01*
X108460000Y-120364285D01*
X108745714Y-120421428D01*
X107945714Y-120621428D02*
X107945714Y-120021428D01*
X107945714Y-120592857D02*
X108002857Y-120621428D01*
X108117142Y-120621428D01*
X108174285Y-120592857D01*
X108202857Y-120564285D01*
X108231428Y-120507142D01*
X108231428Y-120335714D01*
X108202857Y-120278571D01*
X108174285Y-120250000D01*
X108117142Y-120221428D01*
X108002857Y-120221428D01*
X107945714Y-120250000D01*
X107002857Y-120307142D02*
X106917142Y-120335714D01*
X106888571Y-120364285D01*
X106860000Y-120421428D01*
X106860000Y-120507142D01*
X106888571Y-120564285D01*
X106917142Y-120592857D01*
X106974285Y-120621428D01*
X107202857Y-120621428D01*
X107202857Y-120021428D01*
X107002857Y-120021428D01*
X106945714Y-120050000D01*
X106917142Y-120078571D01*
X106888571Y-120135714D01*
X106888571Y-120192857D01*
X106917142Y-120250000D01*
X106945714Y-120278571D01*
X107002857Y-120307142D01*
X107202857Y-120307142D01*
X106660000Y-120221428D02*
X106517142Y-120621428D01*
X106374285Y-120221428D02*
X106517142Y-120621428D01*
X106574285Y-120764285D01*
X106602857Y-120792857D01*
X106660000Y-120821428D01*
X112945714Y-120992857D02*
X113460000Y-121764285D01*
X112488571Y-121221428D02*
X112488571Y-121621428D01*
X112745714Y-121221428D02*
X112745714Y-121535714D01*
X112717142Y-121592857D01*
X112660000Y-121621428D01*
X112574285Y-121621428D01*
X112517142Y-121592857D01*
X112488571Y-121564285D01*
X111774285Y-120992857D02*
X112288571Y-121764285D01*
X111574285Y-121221428D02*
X111574285Y-121735714D01*
X111602857Y-121792857D01*
X111660000Y-121821428D01*
X111688571Y-121821428D01*
X111574285Y-121021428D02*
X111602857Y-121050000D01*
X111574285Y-121078571D01*
X111545714Y-121050000D01*
X111574285Y-121021428D01*
X111574285Y-121078571D01*
X111288571Y-121221428D02*
X111288571Y-121821428D01*
X111288571Y-121250000D02*
X111231428Y-121221428D01*
X111117142Y-121221428D01*
X111060000Y-121250000D01*
X111031428Y-121278571D01*
X111002857Y-121335714D01*
X111002857Y-121507142D01*
X111031428Y-121564285D01*
X111060000Y-121592857D01*
X111117142Y-121621428D01*
X111231428Y-121621428D01*
X111288571Y-121592857D01*
X110488571Y-121592857D02*
X110545714Y-121621428D01*
X110660000Y-121621428D01*
X110717142Y-121592857D01*
X110745714Y-121564285D01*
X110774285Y-121507142D01*
X110774285Y-121335714D01*
X110745714Y-121278571D01*
X110717142Y-121250000D01*
X110660000Y-121221428D01*
X110545714Y-121221428D01*
X110488571Y-121250000D01*
X110145714Y-121621428D02*
X110202857Y-121592857D01*
X110231428Y-121564285D01*
X110260000Y-121507142D01*
X110260000Y-121335714D01*
X110231428Y-121278571D01*
X110202857Y-121250000D01*
X110145714Y-121221428D01*
X110060000Y-121221428D01*
X110002857Y-121250000D01*
X109974285Y-121278571D01*
X109945714Y-121335714D01*
X109945714Y-121507142D01*
X109974285Y-121564285D01*
X110002857Y-121592857D01*
X110060000Y-121621428D01*
X110145714Y-121621428D01*
X109688571Y-121221428D02*
X109688571Y-121621428D01*
X109688571Y-121278571D02*
X109660000Y-121250000D01*
X109602857Y-121221428D01*
X109517142Y-121221428D01*
X109460000Y-121250000D01*
X109431428Y-121307142D01*
X109431428Y-121621428D01*
X109174285Y-121592857D02*
X109117142Y-121621428D01*
X109002857Y-121621428D01*
X108945714Y-121592857D01*
X108917142Y-121535714D01*
X108917142Y-121507142D01*
X108945714Y-121450000D01*
X109002857Y-121421428D01*
X109088571Y-121421428D01*
X109145714Y-121392857D01*
X109174285Y-121335714D01*
X109174285Y-121307142D01*
X109145714Y-121250000D01*
X109088571Y-121221428D01*
X109002857Y-121221428D01*
X108945714Y-121250000D01*
X108745714Y-121221428D02*
X108517142Y-121221428D01*
X108660000Y-121021428D02*
X108660000Y-121535714D01*
X108631428Y-121592857D01*
X108574285Y-121621428D01*
X108517142Y-121621428D01*
X108060000Y-121621428D02*
X108060000Y-121307142D01*
X108088571Y-121250000D01*
X108145714Y-121221428D01*
X108260000Y-121221428D01*
X108317142Y-121250000D01*
X108060000Y-121592857D02*
X108117142Y-121621428D01*
X108260000Y-121621428D01*
X108317142Y-121592857D01*
X108345714Y-121535714D01*
X108345714Y-121478571D01*
X108317142Y-121421428D01*
X108260000Y-121392857D01*
X108117142Y-121392857D01*
X108060000Y-121364285D01*
X107774285Y-121221428D02*
X107774285Y-121621428D01*
X107774285Y-121278571D02*
X107745714Y-121250000D01*
X107688571Y-121221428D01*
X107602857Y-121221428D01*
X107545714Y-121250000D01*
X107517142Y-121307142D01*
X107517142Y-121621428D01*
X107317142Y-121221428D02*
X107088571Y-121221428D01*
X107231428Y-121021428D02*
X107231428Y-121535714D01*
X107202857Y-121592857D01*
X107145714Y-121621428D01*
X107088571Y-121621428D01*
X106888571Y-121621428D02*
X106888571Y-121221428D01*
X106888571Y-121021428D02*
X106917142Y-121050000D01*
X106888571Y-121078571D01*
X106860000Y-121050000D01*
X106888571Y-121021428D01*
X106888571Y-121078571D01*
X106602857Y-121221428D02*
X106602857Y-121621428D01*
X106602857Y-121278571D02*
X106574285Y-121250000D01*
X106517142Y-121221428D01*
X106431428Y-121221428D01*
X106374285Y-121250000D01*
X106345714Y-121307142D01*
X106345714Y-121621428D01*
X105831428Y-121592857D02*
X105888571Y-121621428D01*
X106002857Y-121621428D01*
X106060000Y-121592857D01*
X106088571Y-121535714D01*
X106088571Y-121307142D01*
X106060000Y-121250000D01*
X106002857Y-121221428D01*
X105888571Y-121221428D01*
X105831428Y-121250000D01*
X105802857Y-121307142D01*
X105802857Y-121364285D01*
X106088571Y-121421428D01*
X105288571Y-121621428D02*
X105288571Y-121307142D01*
X105317142Y-121250000D01*
X105374285Y-121221428D01*
X105488571Y-121221428D01*
X105545714Y-121250000D01*
X105288571Y-121592857D02*
X105345714Y-121621428D01*
X105488571Y-121621428D01*
X105545714Y-121592857D01*
X105574285Y-121535714D01*
X105574285Y-121478571D01*
X105545714Y-121421428D01*
X105488571Y-121392857D01*
X105345714Y-121392857D01*
X105288571Y-121364285D01*
X104745714Y-121221428D02*
X104745714Y-121621428D01*
X105002857Y-121221428D02*
X105002857Y-121535714D01*
X104974285Y-121592857D01*
X104917142Y-121621428D01*
X104831428Y-121621428D01*
X104774285Y-121592857D01*
X104745714Y-121564285D01*
X108949285Y-125723571D02*
X108842142Y-125759285D01*
X108663571Y-125759285D01*
X108592142Y-125723571D01*
X108556428Y-125687857D01*
X108520714Y-125616428D01*
X108520714Y-125545000D01*
X108556428Y-125473571D01*
X108592142Y-125437857D01*
X108663571Y-125402142D01*
X108806428Y-125366428D01*
X108877857Y-125330714D01*
X108913571Y-125295000D01*
X108949285Y-125223571D01*
X108949285Y-125152142D01*
X108913571Y-125080714D01*
X108877857Y-125045000D01*
X108806428Y-125009285D01*
X108627857Y-125009285D01*
X108520714Y-125045000D01*
X108270714Y-125009285D02*
X108092142Y-125759285D01*
X107949285Y-125223571D01*
X107806428Y-125759285D01*
X107627857Y-125009285D01*
X107342142Y-125759285D02*
X107342142Y-125009285D01*
X107163571Y-125009285D01*
X107056428Y-125045000D01*
X106985000Y-125116428D01*
X106949285Y-125187857D01*
X106913571Y-125330714D01*
X106913571Y-125437857D01*
X106949285Y-125580714D01*
X106985000Y-125652142D01*
X107056428Y-125723571D01*
X107163571Y-125759285D01*
X107342142Y-125759285D01*
X106592142Y-125759285D02*
X106592142Y-125009285D01*
X106092142Y-125009285D02*
X105949285Y-125009285D01*
X105877857Y-125045000D01*
X105806428Y-125116428D01*
X105770714Y-125259285D01*
X105770714Y-125509285D01*
X105806428Y-125652142D01*
X105877857Y-125723571D01*
X105949285Y-125759285D01*
X106092142Y-125759285D01*
X106163571Y-125723571D01*
X106235000Y-125652142D01*
X106270714Y-125509285D01*
X106270714Y-125259285D01*
X106235000Y-125116428D01*
X106163571Y-125045000D01*
X106092142Y-125009285D01*
X108491428Y-127745000D02*
X108562857Y-127709285D01*
X108670000Y-127709285D01*
X108777142Y-127745000D01*
X108848571Y-127816428D01*
X108884285Y-127887857D01*
X108920000Y-128030714D01*
X108920000Y-128137857D01*
X108884285Y-128280714D01*
X108848571Y-128352142D01*
X108777142Y-128423571D01*
X108670000Y-128459285D01*
X108598571Y-128459285D01*
X108491428Y-128423571D01*
X108455714Y-128387857D01*
X108455714Y-128137857D01*
X108598571Y-128137857D01*
X108134285Y-128459285D02*
X108134285Y-127709285D01*
X107705714Y-128459285D01*
X107705714Y-127709285D01*
X107348571Y-128459285D02*
X107348571Y-127709285D01*
X107170000Y-127709285D01*
X107062857Y-127745000D01*
X106991428Y-127816428D01*
X106955714Y-127887857D01*
X106920000Y-128030714D01*
X106920000Y-128137857D01*
X106955714Y-128280714D01*
X106991428Y-128352142D01*
X107062857Y-128423571D01*
X107170000Y-128459285D01*
X107348571Y-128459285D01*
X109006428Y-130249285D02*
X108577857Y-130249285D01*
X108792142Y-130999285D02*
X108792142Y-130249285D01*
X108399285Y-130249285D02*
X107899285Y-130999285D01*
X107899285Y-130249285D02*
X108399285Y-130999285D01*
X107613571Y-130999285D02*
X107613571Y-130249285D01*
X107435000Y-130249285D01*
X107327857Y-130285000D01*
X107256428Y-130356428D01*
X107220714Y-130427857D01*
X107185000Y-130570714D01*
X107185000Y-130677857D01*
X107220714Y-130820714D01*
X107256428Y-130892142D01*
X107327857Y-130963571D01*
X107435000Y-130999285D01*
X107613571Y-130999285D01*
X114460000Y-131229285D02*
X114710000Y-130872142D01*
X114888571Y-131229285D02*
X114888571Y-130479285D01*
X114602857Y-130479285D01*
X114531428Y-130515000D01*
X114495714Y-130550714D01*
X114460000Y-130622142D01*
X114460000Y-130729285D01*
X114495714Y-130800714D01*
X114531428Y-130836428D01*
X114602857Y-130872142D01*
X114888571Y-130872142D01*
X114210000Y-130479285D02*
X113710000Y-131229285D01*
X113710000Y-130479285D02*
X114210000Y-131229285D01*
X113424285Y-131229285D02*
X113424285Y-130479285D01*
X113245714Y-130479285D01*
X113138571Y-130515000D01*
X113067142Y-130586428D01*
X113031428Y-130657857D01*
X112995714Y-130800714D01*
X112995714Y-130907857D01*
X113031428Y-131050714D01*
X113067142Y-131122142D01*
X113138571Y-131193571D01*
X113245714Y-131229285D01*
X113424285Y-131229285D01*
X115050000Y-127479285D02*
X114800000Y-128229285D01*
X114550000Y-127479285D01*
X113871428Y-128157857D02*
X113907142Y-128193571D01*
X114014285Y-128229285D01*
X114085714Y-128229285D01*
X114192857Y-128193571D01*
X114264285Y-128122142D01*
X114300000Y-128050714D01*
X114335714Y-127907857D01*
X114335714Y-127800714D01*
X114300000Y-127657857D01*
X114264285Y-127586428D01*
X114192857Y-127515000D01*
X114085714Y-127479285D01*
X114014285Y-127479285D01*
X113907142Y-127515000D01*
X113871428Y-127550714D01*
X113121428Y-128157857D02*
X113157142Y-128193571D01*
X113264285Y-128229285D01*
X113335714Y-128229285D01*
X113442857Y-128193571D01*
X113514285Y-128122142D01*
X113550000Y-128050714D01*
X113585714Y-127907857D01*
X113585714Y-127800714D01*
X113550000Y-127657857D01*
X113514285Y-127586428D01*
X113442857Y-127515000D01*
X113335714Y-127479285D01*
X113264285Y-127479285D01*
X113157142Y-127515000D01*
X113121428Y-127550714D01*
X116487857Y-125743571D02*
X116380714Y-125779285D01*
X116202142Y-125779285D01*
X116130714Y-125743571D01*
X116095000Y-125707857D01*
X116059285Y-125636428D01*
X116059285Y-125565000D01*
X116095000Y-125493571D01*
X116130714Y-125457857D01*
X116202142Y-125422142D01*
X116345000Y-125386428D01*
X116416428Y-125350714D01*
X116452142Y-125315000D01*
X116487857Y-125243571D01*
X116487857Y-125172142D01*
X116452142Y-125100714D01*
X116416428Y-125065000D01*
X116345000Y-125029285D01*
X116166428Y-125029285D01*
X116059285Y-125065000D01*
X115809285Y-125029285D02*
X115630714Y-125779285D01*
X115487857Y-125243571D01*
X115345000Y-125779285D01*
X115166428Y-125029285D01*
X114880714Y-125779285D02*
X114880714Y-125029285D01*
X114702142Y-125029285D01*
X114595000Y-125065000D01*
X114523571Y-125136428D01*
X114487857Y-125207857D01*
X114452142Y-125350714D01*
X114452142Y-125457857D01*
X114487857Y-125600714D01*
X114523571Y-125672142D01*
X114595000Y-125743571D01*
X114702142Y-125779285D01*
X114880714Y-125779285D01*
X113702142Y-125707857D02*
X113737857Y-125743571D01*
X113845000Y-125779285D01*
X113916428Y-125779285D01*
X114023571Y-125743571D01*
X114095000Y-125672142D01*
X114130714Y-125600714D01*
X114166428Y-125457857D01*
X114166428Y-125350714D01*
X114130714Y-125207857D01*
X114095000Y-125136428D01*
X114023571Y-125065000D01*
X113916428Y-125029285D01*
X113845000Y-125029285D01*
X113737857Y-125065000D01*
X113702142Y-125100714D01*
X113380714Y-125779285D02*
X113380714Y-125029285D01*
X112952142Y-125779285D02*
X113273571Y-125350714D01*
X112952142Y-125029285D02*
X113380714Y-125457857D01*
X104423571Y-132601428D02*
X104423571Y-133172857D01*
X104709285Y-132887142D02*
X104137857Y-132887142D01*
X104316428Y-133780000D02*
X104352142Y-133887142D01*
X104387857Y-133922857D01*
X104459285Y-133958571D01*
X104566428Y-133958571D01*
X104637857Y-133922857D01*
X104673571Y-133887142D01*
X104709285Y-133815714D01*
X104709285Y-133530000D01*
X103959285Y-133530000D01*
X103959285Y-133780000D01*
X103995000Y-133851428D01*
X104030714Y-133887142D01*
X104102142Y-133922857D01*
X104173571Y-133922857D01*
X104245000Y-133887142D01*
X104280714Y-133851428D01*
X104316428Y-133780000D01*
X104316428Y-133530000D01*
X104709285Y-134601428D02*
X104316428Y-134601428D01*
X104245000Y-134565714D01*
X104209285Y-134494285D01*
X104209285Y-134351428D01*
X104245000Y-134280000D01*
X104673571Y-134601428D02*
X104709285Y-134530000D01*
X104709285Y-134351428D01*
X104673571Y-134280000D01*
X104602142Y-134244285D01*
X104530714Y-134244285D01*
X104459285Y-134280000D01*
X104423571Y-134351428D01*
X104423571Y-134530000D01*
X104387857Y-134601428D01*
X104209285Y-134851428D02*
X104209285Y-135137142D01*
X103959285Y-134958571D02*
X104602142Y-134958571D01*
X104673571Y-134994285D01*
X104709285Y-135065714D01*
X104709285Y-135137142D01*
X104209285Y-135280000D02*
X104209285Y-135565714D01*
X103959285Y-135387142D02*
X104602142Y-135387142D01*
X104673571Y-135422857D01*
X104709285Y-135494285D01*
X104709285Y-135565714D01*
X104235000Y-136338571D02*
X104199285Y-136267142D01*
X104199285Y-136160000D01*
X104235000Y-136052857D01*
X104306428Y-135981428D01*
X104377857Y-135945714D01*
X104520714Y-135910000D01*
X104627857Y-135910000D01*
X104770714Y-135945714D01*
X104842142Y-135981428D01*
X104913571Y-136052857D01*
X104949285Y-136160000D01*
X104949285Y-136231428D01*
X104913571Y-136338571D01*
X104877857Y-136374285D01*
X104627857Y-136374285D01*
X104627857Y-136231428D01*
X104949285Y-136695714D02*
X104199285Y-136695714D01*
X104949285Y-137124285D01*
X104199285Y-137124285D01*
X104949285Y-137481428D02*
X104199285Y-137481428D01*
X104199285Y-137660000D01*
X104235000Y-137767142D01*
X104306428Y-137838571D01*
X104377857Y-137874285D01*
X104520714Y-137910000D01*
X104627857Y-137910000D01*
X104770714Y-137874285D01*
X104842142Y-137838571D01*
X104913571Y-137767142D01*
X104949285Y-137660000D01*
X104949285Y-137481428D01*
D11*
X111832380Y-111868508D02*
X111356190Y-111535175D01*
X111832380Y-111297080D02*
X110832380Y-111297080D01*
X110832380Y-111678032D01*
X110880000Y-111773270D01*
X110927619Y-111820889D01*
X111022857Y-111868508D01*
X111165714Y-111868508D01*
X111260952Y-111820889D01*
X111308571Y-111773270D01*
X111356190Y-111678032D01*
X111356190Y-111297080D01*
X110832380Y-112201841D02*
X111832380Y-112868508D01*
X110832380Y-112868508D02*
X111832380Y-112201841D01*
X110784761Y-113963746D02*
X112070476Y-113106603D01*
X110832380Y-114154222D02*
X110832380Y-114725651D01*
X111832380Y-114439937D02*
X110832380Y-114439937D01*
X110832380Y-114963746D02*
X111832380Y-115630413D01*
X110832380Y-115630413D02*
X111832380Y-114963746D01*
X113482380Y-108511365D02*
X112482380Y-108511365D01*
X113482380Y-109082794D01*
X112482380Y-109082794D01*
X113482380Y-109701841D02*
X113434761Y-109606603D01*
X113387142Y-109558984D01*
X113291904Y-109511365D01*
X113006190Y-109511365D01*
X112910952Y-109558984D01*
X112863333Y-109606603D01*
X112815714Y-109701841D01*
X112815714Y-109844699D01*
X112863333Y-109939937D01*
X112910952Y-109987556D01*
X113006190Y-110035175D01*
X113291904Y-110035175D01*
X113387142Y-109987556D01*
X113434761Y-109939937D01*
X113482380Y-109844699D01*
X113482380Y-109701841D01*
X112815714Y-110320889D02*
X112815714Y-110701841D01*
X112482380Y-110463746D02*
X113339523Y-110463746D01*
X113434761Y-110511365D01*
X113482380Y-110606603D01*
X113482380Y-110701841D01*
X113387142Y-112368508D02*
X113434761Y-112320889D01*
X113482380Y-112178032D01*
X113482380Y-112082794D01*
X113434761Y-111939937D01*
X113339523Y-111844699D01*
X113244285Y-111797080D01*
X113053809Y-111749460D01*
X112910952Y-111749460D01*
X112720476Y-111797080D01*
X112625238Y-111844699D01*
X112530000Y-111939937D01*
X112482380Y-112082794D01*
X112482380Y-112178032D01*
X112530000Y-112320889D01*
X112577619Y-112368508D01*
X113482380Y-112939937D02*
X113434761Y-112844699D01*
X113387142Y-112797080D01*
X113291904Y-112749460D01*
X113006190Y-112749460D01*
X112910952Y-112797080D01*
X112863333Y-112844699D01*
X112815714Y-112939937D01*
X112815714Y-113082794D01*
X112863333Y-113178032D01*
X112910952Y-113225651D01*
X113006190Y-113273270D01*
X113291904Y-113273270D01*
X113387142Y-113225651D01*
X113434761Y-113178032D01*
X113482380Y-113082794D01*
X113482380Y-112939937D01*
X112815714Y-113701841D02*
X113482380Y-113701841D01*
X112910952Y-113701841D02*
X112863333Y-113749460D01*
X112815714Y-113844699D01*
X112815714Y-113987556D01*
X112863333Y-114082794D01*
X112958571Y-114130413D01*
X113482380Y-114130413D01*
X112815714Y-114606603D02*
X113482380Y-114606603D01*
X112910952Y-114606603D02*
X112863333Y-114654222D01*
X112815714Y-114749460D01*
X112815714Y-114892318D01*
X112863333Y-114987556D01*
X112958571Y-115035175D01*
X113482380Y-115035175D01*
X113434761Y-115892318D02*
X113482380Y-115797080D01*
X113482380Y-115606603D01*
X113434761Y-115511365D01*
X113339523Y-115463746D01*
X112958571Y-115463746D01*
X112863333Y-115511365D01*
X112815714Y-115606603D01*
X112815714Y-115797080D01*
X112863333Y-115892318D01*
X112958571Y-115939937D01*
X113053809Y-115939937D01*
X113149047Y-115463746D01*
X113434761Y-116797080D02*
X113482380Y-116701841D01*
X113482380Y-116511365D01*
X113434761Y-116416127D01*
X113387142Y-116368508D01*
X113291904Y-116320889D01*
X113006190Y-116320889D01*
X112910952Y-116368508D01*
X112863333Y-116416127D01*
X112815714Y-116511365D01*
X112815714Y-116701841D01*
X112863333Y-116797080D01*
X112815714Y-117082794D02*
X112815714Y-117463746D01*
X112482380Y-117225651D02*
X113339523Y-117225651D01*
X113434761Y-117273270D01*
X113482380Y-117368508D01*
X113482380Y-117463746D01*
X113434761Y-118178032D02*
X113482380Y-118082794D01*
X113482380Y-117892318D01*
X113434761Y-117797080D01*
X113339523Y-117749460D01*
X112958571Y-117749460D01*
X112863333Y-117797080D01*
X112815714Y-117892318D01*
X112815714Y-118082794D01*
X112863333Y-118178032D01*
X112958571Y-118225651D01*
X113053809Y-118225651D01*
X113149047Y-117749460D01*
X113482380Y-119082794D02*
X112482380Y-119082794D01*
X113434761Y-119082794D02*
X113482380Y-118987556D01*
X113482380Y-118797080D01*
X113434761Y-118701841D01*
X113387142Y-118654222D01*
X113291904Y-118606603D01*
X113006190Y-118606603D01*
X112910952Y-118654222D01*
X112863333Y-118701841D01*
X112815714Y-118797080D01*
X112815714Y-118987556D01*
X112863333Y-119082794D01*
X114465714Y-110297080D02*
X114465714Y-110678032D01*
X114132380Y-110439937D02*
X114989523Y-110439937D01*
X115084761Y-110487556D01*
X115132380Y-110582794D01*
X115132380Y-110678032D01*
X115132380Y-111154222D02*
X115084761Y-111058984D01*
X115037142Y-111011365D01*
X114941904Y-110963746D01*
X114656190Y-110963746D01*
X114560952Y-111011365D01*
X114513333Y-111058984D01*
X114465714Y-111154222D01*
X114465714Y-111297080D01*
X114513333Y-111392318D01*
X114560952Y-111439937D01*
X114656190Y-111487556D01*
X114941904Y-111487556D01*
X115037142Y-111439937D01*
X115084761Y-111392318D01*
X115132380Y-111297080D01*
X115132380Y-111154222D01*
X115132380Y-112678032D02*
X114132380Y-112678032D01*
X114132380Y-112916127D01*
X114180000Y-113058984D01*
X114275238Y-113154222D01*
X114370476Y-113201841D01*
X114560952Y-113249460D01*
X114703809Y-113249460D01*
X114894285Y-113201841D01*
X114989523Y-113154222D01*
X115084761Y-113058984D01*
X115132380Y-112916127D01*
X115132380Y-112678032D01*
X114227619Y-113630413D02*
X114180000Y-113678032D01*
X114132380Y-113773270D01*
X114132380Y-114011365D01*
X114180000Y-114106603D01*
X114227619Y-114154222D01*
X114322857Y-114201841D01*
X114418095Y-114201841D01*
X114560952Y-114154222D01*
X115132380Y-113582794D01*
X115132380Y-114201841D01*
X114084761Y-115344699D02*
X115370476Y-114487556D01*
X115132380Y-115678032D02*
X114132380Y-115678032D01*
X114132380Y-115916127D01*
X114180000Y-116058984D01*
X114275238Y-116154222D01*
X114370476Y-116201841D01*
X114560952Y-116249460D01*
X114703809Y-116249460D01*
X114894285Y-116201841D01*
X114989523Y-116154222D01*
X115084761Y-116058984D01*
X115132380Y-115916127D01*
X115132380Y-115678032D01*
X114132380Y-116582794D02*
X114132380Y-117201841D01*
X114513333Y-116868508D01*
X114513333Y-117011365D01*
X114560952Y-117106603D01*
X114608571Y-117154222D01*
X114703809Y-117201841D01*
X114941904Y-117201841D01*
X115037142Y-117154222D01*
X115084761Y-117106603D01*
X115132380Y-117011365D01*
X115132380Y-116725651D01*
X115084761Y-116630413D01*
X115037142Y-116582794D01*
D12*
X111317754Y-100664271D02*
X110817754Y-102164271D01*
X110317754Y-100664271D01*
X109889182Y-100807128D02*
X109817754Y-100735700D01*
X109674897Y-100664271D01*
X109317754Y-100664271D01*
X109174897Y-100735700D01*
X109103468Y-100807128D01*
X109032040Y-100949985D01*
X109032040Y-101092842D01*
X109103468Y-101307128D01*
X109960611Y-102164271D01*
X109032040Y-102164271D01*
X108389182Y-102021414D02*
X108317754Y-102092842D01*
X108389182Y-102164271D01*
X108460611Y-102092842D01*
X108389182Y-102021414D01*
X108389182Y-102164271D01*
X107389182Y-100664271D02*
X107246325Y-100664271D01*
X107103468Y-100735700D01*
X107032040Y-100807128D01*
X106960611Y-100949985D01*
X106889182Y-101235700D01*
X106889182Y-101592842D01*
X106960611Y-101878557D01*
X107032040Y-102021414D01*
X107103468Y-102092842D01*
X107246325Y-102164271D01*
X107389182Y-102164271D01*
X107532040Y-102092842D01*
X107603468Y-102021414D01*
X107674897Y-101878557D01*
X107746325Y-101592842D01*
X107746325Y-101235700D01*
X107674897Y-100949985D01*
X107603468Y-100807128D01*
X107532040Y-100735700D01*
X107389182Y-100664271D01*
X114017642Y-99217017D02*
X113803357Y-99288445D01*
X113731928Y-99359874D01*
X113660500Y-99502731D01*
X113660500Y-99717017D01*
X113731928Y-99859874D01*
X113803357Y-99931302D01*
X113946214Y-100002731D01*
X114517642Y-100002731D01*
X114517642Y-98502731D01*
X114017642Y-98502731D01*
X113874785Y-98574160D01*
X113803357Y-98645588D01*
X113731928Y-98788445D01*
X113731928Y-98931302D01*
X113803357Y-99074160D01*
X113874785Y-99145588D01*
X114017642Y-99217017D01*
X114517642Y-99217017D01*
X112803357Y-100002731D02*
X112946214Y-99931302D01*
X113017642Y-99788445D01*
X113017642Y-98502731D01*
X111589071Y-99002731D02*
X111589071Y-100002731D01*
X112231928Y-99002731D02*
X112231928Y-99788445D01*
X112160500Y-99931302D01*
X112017642Y-100002731D01*
X111803357Y-100002731D01*
X111660500Y-99931302D01*
X111589071Y-99859874D01*
X110303357Y-99931302D02*
X110446214Y-100002731D01*
X110731928Y-100002731D01*
X110874785Y-99931302D01*
X110946214Y-99788445D01*
X110946214Y-99217017D01*
X110874785Y-99074160D01*
X110731928Y-99002731D01*
X110446214Y-99002731D01*
X110303357Y-99074160D01*
X110231928Y-99217017D01*
X110231928Y-99359874D01*
X110946214Y-99502731D01*
X109589071Y-100002731D02*
X109589071Y-98502731D01*
X109089071Y-99574160D01*
X108589071Y-98502731D01*
X108589071Y-100002731D01*
X107874785Y-100002731D02*
X107874785Y-99002731D01*
X107874785Y-98502731D02*
X107946214Y-98574160D01*
X107874785Y-98645588D01*
X107803357Y-98574160D01*
X107874785Y-98502731D01*
X107874785Y-98645588D01*
X106517642Y-99931302D02*
X106660500Y-100002731D01*
X106946214Y-100002731D01*
X107089071Y-99931302D01*
X107160500Y-99859874D01*
X107231928Y-99717017D01*
X107231928Y-99288445D01*
X107160500Y-99145588D01*
X107089071Y-99074160D01*
X106946214Y-99002731D01*
X106660500Y-99002731D01*
X106517642Y-99074160D01*
X105874785Y-100002731D02*
X105874785Y-99002731D01*
X105874785Y-99288445D02*
X105803357Y-99145588D01*
X105731928Y-99074160D01*
X105589071Y-99002731D01*
X105446214Y-99002731D01*
X104731928Y-100002731D02*
X104874785Y-99931302D01*
X104946214Y-99859874D01*
X105017642Y-99717017D01*
X105017642Y-99288445D01*
X104946214Y-99145588D01*
X104874785Y-99074160D01*
X104731928Y-99002731D01*
X104517642Y-99002731D01*
X104374785Y-99074160D01*
X104303357Y-99145588D01*
X104231928Y-99288445D01*
X104231928Y-99717017D01*
X104303357Y-99859874D01*
X104374785Y-99931302D01*
X104517642Y-100002731D01*
X104731928Y-100002731D01*
D13*
G04 #@! TO.C,U2*
X118110000Y-153416000D02*
X100330000Y-153416000D01*
X100330000Y-153416000D02*
X100330000Y-122936000D01*
X100330000Y-122936000D02*
X118110000Y-122936000D01*
X118110000Y-122936000D02*
X118110000Y-153416000D01*
X102870000Y-153416000D02*
X102870000Y-150876000D01*
X102870000Y-150876000D02*
X100330000Y-150876000D01*
D14*
G04 #@! TO.C,C2*
X105244200Y-109780440D02*
X104244200Y-109780440D01*
X104244200Y-108080440D02*
X105244200Y-108080440D01*
G04 #@! TO.C,C1*
X105297540Y-111814980D02*
X104297540Y-111814980D01*
X104297540Y-110114980D02*
X105297540Y-110114980D01*
G04 #@! TO.C,C3*
X106826420Y-113990180D02*
X106826420Y-114990180D01*
X105126420Y-114990180D02*
X105126420Y-113990180D01*
G04 #@! TO.C,L1*
X104418020Y-115090500D02*
X104418020Y-113890500D01*
X102658020Y-113890500D02*
X102658020Y-115090500D01*
G04 #@! TO.C,R1*
X109205921Y-115030821D02*
X109205921Y-113830821D01*
X107445921Y-113830821D02*
X107445921Y-115030821D01*
G04 #@! TO.C,C4*
X105178160Y-107720500D02*
X104178160Y-107720500D01*
X104178160Y-106020500D02*
X105178160Y-106020500D01*
G04 #@! TO.C,U3*
X103774640Y-130657180D02*
X103774640Y-128857180D01*
X106994640Y-128857180D02*
X106994640Y-131307180D01*
D11*
G04 #@! TO.C,U4*
X114833400Y-142890240D02*
X114071400Y-142890240D01*
X114071400Y-142890240D02*
X114071400Y-144414240D01*
X114071400Y-144414240D02*
X114833400Y-144414240D01*
X103657400Y-141366240D02*
X103657400Y-145938240D01*
X103657400Y-145938240D02*
X114833400Y-145938240D01*
X114833400Y-145938240D02*
X114833400Y-141366240D01*
X114833400Y-141366240D02*
X103657400Y-141366240D01*
G04 #@! TO.C,U6*
X112486440Y-136204960D02*
G75*
G03X112486440Y-136204960I-127000J0D01*
G01*
X112994440Y-136839960D02*
X107914440Y-136839960D01*
X112994440Y-133537960D02*
X107914440Y-133537960D01*
X112994440Y-137347960D02*
X107914440Y-137347960D01*
X112994440Y-137347960D02*
X112994440Y-133537960D01*
X107914440Y-137347960D02*
X107914440Y-133537960D01*
D14*
G04 #@! TO.C,C6*
X111949800Y-104238160D02*
X110949800Y-104238160D01*
X110949800Y-102538160D02*
X111949800Y-102538160D01*
G04 #@! TO.C,R4*
X105380080Y-102876460D02*
X104180080Y-102876460D01*
X104180080Y-104636460D02*
X105380080Y-104636460D01*
G04 #@! TO.C,R5*
X112094580Y-104537620D02*
X110894580Y-104537620D01*
X110894580Y-106297620D02*
X112094580Y-106297620D01*
G04 #@! TO.C,U2*
D10*
X115599333Y-124156000D02*
X115499333Y-124189333D01*
X115466000Y-124222666D01*
X115432666Y-124289333D01*
X115432666Y-124389333D01*
X115466000Y-124456000D01*
X115499333Y-124489333D01*
X115566000Y-124522666D01*
X115832666Y-124522666D01*
X115832666Y-123822666D01*
X115599333Y-123822666D01*
X115532666Y-123856000D01*
X115499333Y-123889333D01*
X115466000Y-123956000D01*
X115466000Y-124022666D01*
X115499333Y-124089333D01*
X115532666Y-124122666D01*
X115599333Y-124156000D01*
X115832666Y-124156000D01*
X114799333Y-123822666D02*
X115132666Y-123822666D01*
X115166000Y-124156000D01*
X115132666Y-124122666D01*
X115066000Y-124089333D01*
X114899333Y-124089333D01*
X114832666Y-124122666D01*
X114799333Y-124156000D01*
X114766000Y-124222666D01*
X114766000Y-124389333D01*
X114799333Y-124456000D01*
X114832666Y-124489333D01*
X114899333Y-124522666D01*
X115066000Y-124522666D01*
X115132666Y-124489333D01*
X115166000Y-124456000D01*
X115599333Y-126696000D02*
X115499333Y-126729333D01*
X115466000Y-126762666D01*
X115432666Y-126829333D01*
X115432666Y-126929333D01*
X115466000Y-126996000D01*
X115499333Y-127029333D01*
X115566000Y-127062666D01*
X115832666Y-127062666D01*
X115832666Y-126362666D01*
X115599333Y-126362666D01*
X115532666Y-126396000D01*
X115499333Y-126429333D01*
X115466000Y-126496000D01*
X115466000Y-126562666D01*
X115499333Y-126629333D01*
X115532666Y-126662666D01*
X115599333Y-126696000D01*
X115832666Y-126696000D01*
X114832666Y-126596000D02*
X114832666Y-127062666D01*
X114999333Y-126329333D02*
X115166000Y-126829333D01*
X114732666Y-126829333D01*
X115799333Y-129236000D02*
X115566000Y-129236000D01*
X115466000Y-129602666D02*
X115799333Y-129602666D01*
X115799333Y-128902666D01*
X115466000Y-128902666D01*
X114866000Y-128902666D02*
X114999333Y-128902666D01*
X115066000Y-128936000D01*
X115099333Y-128969333D01*
X115166000Y-129069333D01*
X115199333Y-129202666D01*
X115199333Y-129469333D01*
X115166000Y-129536000D01*
X115132666Y-129569333D01*
X115066000Y-129602666D01*
X114932666Y-129602666D01*
X114866000Y-129569333D01*
X114832666Y-129536000D01*
X114799333Y-129469333D01*
X114799333Y-129302666D01*
X114832666Y-129236000D01*
X114866000Y-129202666D01*
X114932666Y-129169333D01*
X115066000Y-129169333D01*
X115132666Y-129202666D01*
X115166000Y-129236000D01*
X115199333Y-129302666D01*
X115832666Y-132142666D02*
X115832666Y-131442666D01*
X115666000Y-131442666D01*
X115566000Y-131476000D01*
X115499333Y-131542666D01*
X115466000Y-131609333D01*
X115432666Y-131742666D01*
X115432666Y-131842666D01*
X115466000Y-131976000D01*
X115499333Y-132042666D01*
X115566000Y-132109333D01*
X115666000Y-132142666D01*
X115832666Y-132142666D01*
X115199333Y-131442666D02*
X114732666Y-131442666D01*
X115032666Y-132142666D01*
X115432666Y-134616000D02*
X115466000Y-134649333D01*
X115566000Y-134682666D01*
X115632666Y-134682666D01*
X115732666Y-134649333D01*
X115799333Y-134582666D01*
X115832666Y-134516000D01*
X115866000Y-134382666D01*
X115866000Y-134282666D01*
X115832666Y-134149333D01*
X115799333Y-134082666D01*
X115732666Y-134016000D01*
X115632666Y-133982666D01*
X115566000Y-133982666D01*
X115466000Y-134016000D01*
X115432666Y-134049333D01*
X114832666Y-133982666D02*
X114966000Y-133982666D01*
X115032666Y-134016000D01*
X115066000Y-134049333D01*
X115132666Y-134149333D01*
X115166000Y-134282666D01*
X115166000Y-134549333D01*
X115132666Y-134616000D01*
X115099333Y-134649333D01*
X115032666Y-134682666D01*
X114899333Y-134682666D01*
X114832666Y-134649333D01*
X114799333Y-134616000D01*
X114766000Y-134549333D01*
X114766000Y-134382666D01*
X114799333Y-134316000D01*
X114832666Y-134282666D01*
X114899333Y-134249333D01*
X115032666Y-134249333D01*
X115099333Y-134282666D01*
X115132666Y-134316000D01*
X115166000Y-134382666D01*
X115832666Y-137222666D02*
X115832666Y-136522666D01*
X115666000Y-136522666D01*
X115566000Y-136556000D01*
X115499333Y-136622666D01*
X115466000Y-136689333D01*
X115432666Y-136822666D01*
X115432666Y-136922666D01*
X115466000Y-137056000D01*
X115499333Y-137122666D01*
X115566000Y-137189333D01*
X115666000Y-137222666D01*
X115832666Y-137222666D01*
X114832666Y-136756000D02*
X114832666Y-137222666D01*
X114999333Y-136489333D02*
X115166000Y-136989333D01*
X114732666Y-136989333D01*
X115832666Y-139762666D02*
X115832666Y-139062666D01*
X115666000Y-139062666D01*
X115566000Y-139096000D01*
X115499333Y-139162666D01*
X115466000Y-139229333D01*
X115432666Y-139362666D01*
X115432666Y-139462666D01*
X115466000Y-139596000D01*
X115499333Y-139662666D01*
X115566000Y-139729333D01*
X115666000Y-139762666D01*
X115832666Y-139762666D01*
X114999333Y-139062666D02*
X114932666Y-139062666D01*
X114866000Y-139096000D01*
X114832666Y-139129333D01*
X114799333Y-139196000D01*
X114766000Y-139329333D01*
X114766000Y-139496000D01*
X114799333Y-139629333D01*
X114832666Y-139696000D01*
X114866000Y-139729333D01*
X114932666Y-139762666D01*
X114999333Y-139762666D01*
X115066000Y-139729333D01*
X115099333Y-139696000D01*
X115132666Y-139629333D01*
X115166000Y-139496000D01*
X115166000Y-139329333D01*
X115132666Y-139196000D01*
X115099333Y-139129333D01*
X115066000Y-139096000D01*
X114999333Y-139062666D01*
X115832666Y-142302666D02*
X115832666Y-141602666D01*
X115666000Y-141602666D01*
X115566000Y-141636000D01*
X115499333Y-141702666D01*
X115466000Y-141769333D01*
X115432666Y-141902666D01*
X115432666Y-142002666D01*
X115466000Y-142136000D01*
X115499333Y-142202666D01*
X115566000Y-142269333D01*
X115666000Y-142302666D01*
X115832666Y-142302666D01*
X114766000Y-142302666D02*
X115166000Y-142302666D01*
X114966000Y-142302666D02*
X114966000Y-141602666D01*
X115032666Y-141702666D01*
X115099333Y-141769333D01*
X115166000Y-141802666D01*
X115341333Y-144176000D02*
X115408000Y-144142666D01*
X115508000Y-144142666D01*
X115608000Y-144176000D01*
X115674666Y-144242666D01*
X115708000Y-144309333D01*
X115741333Y-144442666D01*
X115741333Y-144542666D01*
X115708000Y-144676000D01*
X115674666Y-144742666D01*
X115608000Y-144809333D01*
X115508000Y-144842666D01*
X115441333Y-144842666D01*
X115341333Y-144809333D01*
X115308000Y-144776000D01*
X115308000Y-144542666D01*
X115441333Y-144542666D01*
X115008000Y-144842666D02*
X115008000Y-144142666D01*
X114608000Y-144842666D01*
X114608000Y-144142666D01*
X114274666Y-144842666D02*
X114274666Y-144142666D01*
X114108000Y-144142666D01*
X114008000Y-144176000D01*
X113941333Y-144242666D01*
X113908000Y-144309333D01*
X113874666Y-144442666D01*
X113874666Y-144542666D01*
X113908000Y-144676000D01*
X113941333Y-144742666D01*
X114008000Y-144809333D01*
X114108000Y-144842666D01*
X114274666Y-144842666D01*
X115341333Y-146716000D02*
X115408000Y-146682666D01*
X115508000Y-146682666D01*
X115608000Y-146716000D01*
X115674666Y-146782666D01*
X115708000Y-146849333D01*
X115741333Y-146982666D01*
X115741333Y-147082666D01*
X115708000Y-147216000D01*
X115674666Y-147282666D01*
X115608000Y-147349333D01*
X115508000Y-147382666D01*
X115441333Y-147382666D01*
X115341333Y-147349333D01*
X115308000Y-147316000D01*
X115308000Y-147082666D01*
X115441333Y-147082666D01*
X115008000Y-147382666D02*
X115008000Y-146682666D01*
X114608000Y-147382666D01*
X114608000Y-146682666D01*
X114274666Y-147382666D02*
X114274666Y-146682666D01*
X114108000Y-146682666D01*
X114008000Y-146716000D01*
X113941333Y-146782666D01*
X113908000Y-146849333D01*
X113874666Y-146982666D01*
X113874666Y-147082666D01*
X113908000Y-147216000D01*
X113941333Y-147282666D01*
X114008000Y-147349333D01*
X114108000Y-147382666D01*
X114274666Y-147382666D01*
X115832666Y-149922666D02*
X115832666Y-149222666D01*
X115666000Y-149222666D01*
X115566000Y-149256000D01*
X115499333Y-149322666D01*
X115466000Y-149389333D01*
X115432666Y-149522666D01*
X115432666Y-149622666D01*
X115466000Y-149756000D01*
X115499333Y-149822666D01*
X115566000Y-149889333D01*
X115666000Y-149922666D01*
X115832666Y-149922666D01*
X115166000Y-149289333D02*
X115132666Y-149256000D01*
X115066000Y-149222666D01*
X114899333Y-149222666D01*
X114832666Y-149256000D01*
X114799333Y-149289333D01*
X114766000Y-149356000D01*
X114766000Y-149422666D01*
X114799333Y-149522666D01*
X115199333Y-149922666D01*
X114766000Y-149922666D01*
X115832666Y-152462666D02*
X115832666Y-151762666D01*
X115666000Y-151762666D01*
X115566000Y-151796000D01*
X115499333Y-151862666D01*
X115466000Y-151929333D01*
X115432666Y-152062666D01*
X115432666Y-152162666D01*
X115466000Y-152296000D01*
X115499333Y-152362666D01*
X115566000Y-152429333D01*
X115666000Y-152462666D01*
X115832666Y-152462666D01*
X115199333Y-151762666D02*
X114766000Y-151762666D01*
X114999333Y-152029333D01*
X114899333Y-152029333D01*
X114832666Y-152062666D01*
X114799333Y-152096000D01*
X114766000Y-152162666D01*
X114766000Y-152329333D01*
X114799333Y-152396000D01*
X114832666Y-152429333D01*
X114899333Y-152462666D01*
X115099333Y-152462666D01*
X115166000Y-152429333D01*
X115199333Y-152396000D01*
X103407333Y-124156000D02*
X103307333Y-124189333D01*
X103274000Y-124222666D01*
X103240666Y-124289333D01*
X103240666Y-124389333D01*
X103274000Y-124456000D01*
X103307333Y-124489333D01*
X103374000Y-124522666D01*
X103640666Y-124522666D01*
X103640666Y-123822666D01*
X103407333Y-123822666D01*
X103340666Y-123856000D01*
X103307333Y-123889333D01*
X103274000Y-123956000D01*
X103274000Y-124022666D01*
X103307333Y-124089333D01*
X103340666Y-124122666D01*
X103407333Y-124156000D01*
X103640666Y-124156000D01*
X102640666Y-123822666D02*
X102774000Y-123822666D01*
X102840666Y-123856000D01*
X102874000Y-123889333D01*
X102940666Y-123989333D01*
X102974000Y-124122666D01*
X102974000Y-124389333D01*
X102940666Y-124456000D01*
X102907333Y-124489333D01*
X102840666Y-124522666D01*
X102707333Y-124522666D01*
X102640666Y-124489333D01*
X102607333Y-124456000D01*
X102574000Y-124389333D01*
X102574000Y-124222666D01*
X102607333Y-124156000D01*
X102640666Y-124122666D01*
X102707333Y-124089333D01*
X102840666Y-124089333D01*
X102907333Y-124122666D01*
X102940666Y-124156000D01*
X102974000Y-124222666D01*
X103407333Y-126696000D02*
X103307333Y-126729333D01*
X103274000Y-126762666D01*
X103240666Y-126829333D01*
X103240666Y-126929333D01*
X103274000Y-126996000D01*
X103307333Y-127029333D01*
X103374000Y-127062666D01*
X103640666Y-127062666D01*
X103640666Y-126362666D01*
X103407333Y-126362666D01*
X103340666Y-126396000D01*
X103307333Y-126429333D01*
X103274000Y-126496000D01*
X103274000Y-126562666D01*
X103307333Y-126629333D01*
X103340666Y-126662666D01*
X103407333Y-126696000D01*
X103640666Y-126696000D01*
X102974000Y-126429333D02*
X102940666Y-126396000D01*
X102874000Y-126362666D01*
X102707333Y-126362666D01*
X102640666Y-126396000D01*
X102607333Y-126429333D01*
X102574000Y-126496000D01*
X102574000Y-126562666D01*
X102607333Y-126662666D01*
X103007333Y-127062666D01*
X102574000Y-127062666D01*
X103407333Y-129236000D02*
X103307333Y-129269333D01*
X103274000Y-129302666D01*
X103240666Y-129369333D01*
X103240666Y-129469333D01*
X103274000Y-129536000D01*
X103307333Y-129569333D01*
X103374000Y-129602666D01*
X103640666Y-129602666D01*
X103640666Y-128902666D01*
X103407333Y-128902666D01*
X103340666Y-128936000D01*
X103307333Y-128969333D01*
X103274000Y-129036000D01*
X103274000Y-129102666D01*
X103307333Y-129169333D01*
X103340666Y-129202666D01*
X103407333Y-129236000D01*
X103640666Y-129236000D01*
X103007333Y-128902666D02*
X102574000Y-128902666D01*
X102807333Y-129169333D01*
X102707333Y-129169333D01*
X102640666Y-129202666D01*
X102607333Y-129236000D01*
X102574000Y-129302666D01*
X102574000Y-129469333D01*
X102607333Y-129536000D01*
X102640666Y-129569333D01*
X102707333Y-129602666D01*
X102907333Y-129602666D01*
X102974000Y-129569333D01*
X103007333Y-129536000D01*
X103407333Y-131776000D02*
X103307333Y-131809333D01*
X103274000Y-131842666D01*
X103240666Y-131909333D01*
X103240666Y-132009333D01*
X103274000Y-132076000D01*
X103307333Y-132109333D01*
X103374000Y-132142666D01*
X103640666Y-132142666D01*
X103640666Y-131442666D01*
X103407333Y-131442666D01*
X103340666Y-131476000D01*
X103307333Y-131509333D01*
X103274000Y-131576000D01*
X103274000Y-131642666D01*
X103307333Y-131709333D01*
X103340666Y-131742666D01*
X103407333Y-131776000D01*
X103640666Y-131776000D01*
X102574000Y-132142666D02*
X102974000Y-132142666D01*
X102774000Y-132142666D02*
X102774000Y-131442666D01*
X102840666Y-131542666D01*
X102907333Y-131609333D01*
X102974000Y-131642666D01*
X103357333Y-136856000D02*
X103590666Y-136856000D01*
X103590666Y-137222666D02*
X103590666Y-136522666D01*
X103257333Y-136522666D01*
X102690666Y-136522666D02*
X102824000Y-136522666D01*
X102890666Y-136556000D01*
X102924000Y-136589333D01*
X102990666Y-136689333D01*
X103024000Y-136822666D01*
X103024000Y-137089333D01*
X102990666Y-137156000D01*
X102957333Y-137189333D01*
X102890666Y-137222666D01*
X102757333Y-137222666D01*
X102690666Y-137189333D01*
X102657333Y-137156000D01*
X102624000Y-137089333D01*
X102624000Y-136922666D01*
X102657333Y-136856000D01*
X102690666Y-136822666D01*
X102757333Y-136789333D01*
X102890666Y-136789333D01*
X102957333Y-136822666D01*
X102990666Y-136856000D01*
X103024000Y-136922666D01*
X103357333Y-134316000D02*
X103590666Y-134316000D01*
X103590666Y-134682666D02*
X103590666Y-133982666D01*
X103257333Y-133982666D01*
X103057333Y-133982666D02*
X102590666Y-133982666D01*
X102890666Y-134682666D01*
X103357333Y-139396000D02*
X103590666Y-139396000D01*
X103590666Y-139762666D02*
X103590666Y-139062666D01*
X103257333Y-139062666D01*
X102657333Y-139062666D02*
X102990666Y-139062666D01*
X103024000Y-139396000D01*
X102990666Y-139362666D01*
X102924000Y-139329333D01*
X102757333Y-139329333D01*
X102690666Y-139362666D01*
X102657333Y-139396000D01*
X102624000Y-139462666D01*
X102624000Y-139629333D01*
X102657333Y-139696000D01*
X102690666Y-139729333D01*
X102757333Y-139762666D01*
X102924000Y-139762666D01*
X102990666Y-139729333D01*
X103024000Y-139696000D01*
X103357333Y-141936000D02*
X103590666Y-141936000D01*
X103590666Y-142302666D02*
X103590666Y-141602666D01*
X103257333Y-141602666D01*
X102690666Y-141836000D02*
X102690666Y-142302666D01*
X102857333Y-141569333D02*
X103024000Y-142069333D01*
X102590666Y-142069333D01*
X104565333Y-144142666D02*
X104332000Y-144842666D01*
X104098666Y-144142666D01*
X103465333Y-144776000D02*
X103498666Y-144809333D01*
X103598666Y-144842666D01*
X103665333Y-144842666D01*
X103765333Y-144809333D01*
X103832000Y-144742666D01*
X103865333Y-144676000D01*
X103898666Y-144542666D01*
X103898666Y-144442666D01*
X103865333Y-144309333D01*
X103832000Y-144242666D01*
X103765333Y-144176000D01*
X103665333Y-144142666D01*
X103598666Y-144142666D01*
X103498666Y-144176000D01*
X103465333Y-144209333D01*
X102765333Y-144776000D02*
X102798666Y-144809333D01*
X102898666Y-144842666D01*
X102965333Y-144842666D01*
X103065333Y-144809333D01*
X103132000Y-144742666D01*
X103165333Y-144676000D01*
X103198666Y-144542666D01*
X103198666Y-144442666D01*
X103165333Y-144309333D01*
X103132000Y-144242666D01*
X103065333Y-144176000D01*
X102965333Y-144142666D01*
X102898666Y-144142666D01*
X102798666Y-144176000D01*
X102765333Y-144209333D01*
X104015333Y-147382666D02*
X104248666Y-147049333D01*
X104415333Y-147382666D02*
X104415333Y-146682666D01*
X104148666Y-146682666D01*
X104082000Y-146716000D01*
X104048666Y-146749333D01*
X104015333Y-146816000D01*
X104015333Y-146916000D01*
X104048666Y-146982666D01*
X104082000Y-147016000D01*
X104148666Y-147049333D01*
X104415333Y-147049333D01*
X103748666Y-147349333D02*
X103648666Y-147382666D01*
X103482000Y-147382666D01*
X103415333Y-147349333D01*
X103382000Y-147316000D01*
X103348666Y-147249333D01*
X103348666Y-147182666D01*
X103382000Y-147116000D01*
X103415333Y-147082666D01*
X103482000Y-147049333D01*
X103615333Y-147016000D01*
X103682000Y-146982666D01*
X103715333Y-146949333D01*
X103748666Y-146882666D01*
X103748666Y-146816000D01*
X103715333Y-146749333D01*
X103682000Y-146716000D01*
X103615333Y-146682666D01*
X103448666Y-146682666D01*
X103348666Y-146716000D01*
X103148666Y-146682666D02*
X102748666Y-146682666D01*
X102948666Y-147382666D02*
X102948666Y-146682666D01*
X104165333Y-149256000D02*
X104232000Y-149222666D01*
X104332000Y-149222666D01*
X104432000Y-149256000D01*
X104498666Y-149322666D01*
X104532000Y-149389333D01*
X104565333Y-149522666D01*
X104565333Y-149622666D01*
X104532000Y-149756000D01*
X104498666Y-149822666D01*
X104432000Y-149889333D01*
X104332000Y-149922666D01*
X104265333Y-149922666D01*
X104165333Y-149889333D01*
X104132000Y-149856000D01*
X104132000Y-149622666D01*
X104265333Y-149622666D01*
X103832000Y-149922666D02*
X103832000Y-149222666D01*
X103432000Y-149922666D01*
X103432000Y-149222666D01*
X103098666Y-149922666D02*
X103098666Y-149222666D01*
X102932000Y-149222666D01*
X102832000Y-149256000D01*
X102765333Y-149322666D01*
X102732000Y-149389333D01*
X102698666Y-149522666D01*
X102698666Y-149622666D01*
X102732000Y-149756000D01*
X102765333Y-149822666D01*
X102832000Y-149889333D01*
X102932000Y-149922666D01*
X103098666Y-149922666D01*
X104623333Y-152208666D02*
X104856666Y-151875333D01*
X105023333Y-152208666D02*
X105023333Y-151508666D01*
X104756666Y-151508666D01*
X104690000Y-151542000D01*
X104656666Y-151575333D01*
X104623333Y-151642000D01*
X104623333Y-151742000D01*
X104656666Y-151808666D01*
X104690000Y-151842000D01*
X104756666Y-151875333D01*
X105023333Y-151875333D01*
X104356666Y-152008666D02*
X104023333Y-152008666D01*
X104423333Y-152208666D02*
X104190000Y-151508666D01*
X103956666Y-152208666D01*
X103790000Y-151508666D02*
X103623333Y-152208666D01*
X103490000Y-151708666D01*
X103356666Y-152208666D01*
X103190000Y-151508666D01*
G04 #@! TO.C,C2*
X102159042Y-108560365D02*
X102087614Y-108560365D01*
X102016185Y-108596080D01*
X101980471Y-108631794D01*
X101944757Y-108703222D01*
X101909042Y-108846080D01*
X101909042Y-109024651D01*
X101944757Y-109167508D01*
X101980471Y-109238937D01*
X102016185Y-109274651D01*
X102087614Y-109310365D01*
X102159042Y-109310365D01*
X102230471Y-109274651D01*
X102266185Y-109238937D01*
X102301900Y-109167508D01*
X102337614Y-109024651D01*
X102337614Y-108846080D01*
X102301900Y-108703222D01*
X102266185Y-108631794D01*
X102230471Y-108596080D01*
X102159042Y-108560365D01*
X101587614Y-109238937D02*
X101551900Y-109274651D01*
X101587614Y-109310365D01*
X101623328Y-109274651D01*
X101587614Y-109238937D01*
X101587614Y-109310365D01*
X100837614Y-109310365D02*
X101266185Y-109310365D01*
X101051900Y-109310365D02*
X101051900Y-108560365D01*
X101123328Y-108667508D01*
X101194757Y-108738937D01*
X101266185Y-108774651D01*
X100194757Y-108810365D02*
X100194757Y-109310365D01*
X100516185Y-108810365D02*
X100516185Y-109203222D01*
X100480471Y-109274651D01*
X100409042Y-109310365D01*
X100301900Y-109310365D01*
X100230471Y-109274651D01*
X100194757Y-109238937D01*
X99587614Y-108917508D02*
X99837614Y-108917508D01*
X99837614Y-109310365D02*
X99837614Y-108560365D01*
X99480471Y-108560365D01*
G04 #@! TO.C,C1*
X101998168Y-111268705D02*
X102426740Y-111268705D01*
X102212454Y-111268705D02*
X102212454Y-110518705D01*
X102283882Y-110625848D01*
X102355311Y-110697277D01*
X102426740Y-110732991D01*
X101355311Y-110768705D02*
X101355311Y-111268705D01*
X101676740Y-110768705D02*
X101676740Y-111161562D01*
X101641025Y-111232991D01*
X101569597Y-111268705D01*
X101462454Y-111268705D01*
X101391025Y-111232991D01*
X101355311Y-111197277D01*
X100748168Y-110875848D02*
X100998168Y-110875848D01*
X100998168Y-111268705D02*
X100998168Y-110518705D01*
X100641025Y-110518705D01*
G04 #@! TO.C,C3*
X106267445Y-117377548D02*
X106267445Y-116948977D01*
X106267445Y-117163262D02*
X105517445Y-117163262D01*
X105624588Y-117091834D01*
X105696017Y-117020405D01*
X105731731Y-116948977D01*
X105517445Y-117841834D02*
X105517445Y-117913262D01*
X105553160Y-117984691D01*
X105588874Y-118020405D01*
X105660302Y-118056120D01*
X105803160Y-118091834D01*
X105981731Y-118091834D01*
X106124588Y-118056120D01*
X106196017Y-118020405D01*
X106231731Y-117984691D01*
X106267445Y-117913262D01*
X106267445Y-117841834D01*
X106231731Y-117770405D01*
X106196017Y-117734691D01*
X106124588Y-117698977D01*
X105981731Y-117663262D01*
X105803160Y-117663262D01*
X105660302Y-117698977D01*
X105588874Y-117734691D01*
X105553160Y-117770405D01*
X105517445Y-117841834D01*
X105767445Y-118734691D02*
X106267445Y-118734691D01*
X105767445Y-118413262D02*
X106160302Y-118413262D01*
X106231731Y-118448977D01*
X106267445Y-118520405D01*
X106267445Y-118627548D01*
X106231731Y-118698977D01*
X106196017Y-118734691D01*
X105874588Y-119341834D02*
X105874588Y-119091834D01*
X106267445Y-119091834D02*
X105517445Y-119091834D01*
X105517445Y-119448977D01*
G04 #@! TO.C,JP2*
X115986428Y-100713571D02*
X115986428Y-100463571D01*
X116379285Y-100463571D02*
X115629285Y-100463571D01*
X115629285Y-100820714D01*
X116379285Y-101427857D02*
X115986428Y-101427857D01*
X115915000Y-101392142D01*
X115879285Y-101320714D01*
X115879285Y-101177857D01*
X115915000Y-101106428D01*
X116343571Y-101427857D02*
X116379285Y-101356428D01*
X116379285Y-101177857D01*
X116343571Y-101106428D01*
X116272142Y-101070714D01*
X116200714Y-101070714D01*
X116129285Y-101106428D01*
X116093571Y-101177857D01*
X116093571Y-101356428D01*
X116057857Y-101427857D01*
X116343571Y-102106428D02*
X116379285Y-102035000D01*
X116379285Y-101892142D01*
X116343571Y-101820714D01*
X116307857Y-101785000D01*
X116236428Y-101749285D01*
X116022142Y-101749285D01*
X115950714Y-101785000D01*
X115915000Y-101820714D01*
X115879285Y-101892142D01*
X115879285Y-102035000D01*
X115915000Y-102106428D01*
X115879285Y-102320714D02*
X115879285Y-102606428D01*
X115629285Y-102427857D02*
X116272142Y-102427857D01*
X116343571Y-102463571D01*
X116379285Y-102535000D01*
X116379285Y-102606428D01*
X116379285Y-102963571D02*
X116343571Y-102892142D01*
X116307857Y-102856428D01*
X116236428Y-102820714D01*
X116022142Y-102820714D01*
X115950714Y-102856428D01*
X115915000Y-102892142D01*
X115879285Y-102963571D01*
X115879285Y-103070714D01*
X115915000Y-103142142D01*
X115950714Y-103177857D01*
X116022142Y-103213571D01*
X116236428Y-103213571D01*
X116307857Y-103177857D01*
X116343571Y-103142142D01*
X116379285Y-103070714D01*
X116379285Y-102963571D01*
X116379285Y-103535000D02*
X115879285Y-103535000D01*
X116022142Y-103535000D02*
X115950714Y-103570714D01*
X115915000Y-103606428D01*
X115879285Y-103677857D01*
X115879285Y-103749285D01*
X115879285Y-103927857D02*
X116379285Y-104106428D01*
X115879285Y-104285000D02*
X116379285Y-104106428D01*
X116557857Y-104035000D01*
X116593571Y-103999285D01*
X116629285Y-103927857D01*
X116379285Y-105570714D02*
X116022142Y-105320714D01*
X116379285Y-105142142D02*
X115629285Y-105142142D01*
X115629285Y-105427857D01*
X115665000Y-105499285D01*
X115700714Y-105535000D01*
X115772142Y-105570714D01*
X115879285Y-105570714D01*
X115950714Y-105535000D01*
X115986428Y-105499285D01*
X116022142Y-105427857D01*
X116022142Y-105142142D01*
X116343571Y-106177857D02*
X116379285Y-106106428D01*
X116379285Y-105963571D01*
X116343571Y-105892142D01*
X116272142Y-105856428D01*
X115986428Y-105856428D01*
X115915000Y-105892142D01*
X115879285Y-105963571D01*
X115879285Y-106106428D01*
X115915000Y-106177857D01*
X115986428Y-106213571D01*
X116057857Y-106213571D01*
X116129285Y-105856428D01*
X116343571Y-106499285D02*
X116379285Y-106570714D01*
X116379285Y-106713571D01*
X116343571Y-106785000D01*
X116272142Y-106820714D01*
X116236428Y-106820714D01*
X116165000Y-106785000D01*
X116129285Y-106713571D01*
X116129285Y-106606428D01*
X116093571Y-106535000D01*
X116022142Y-106499285D01*
X115986428Y-106499285D01*
X115915000Y-106535000D01*
X115879285Y-106606428D01*
X115879285Y-106713571D01*
X115915000Y-106785000D01*
X116343571Y-107427857D02*
X116379285Y-107356428D01*
X116379285Y-107213571D01*
X116343571Y-107142142D01*
X116272142Y-107106428D01*
X115986428Y-107106428D01*
X115915000Y-107142142D01*
X115879285Y-107213571D01*
X115879285Y-107356428D01*
X115915000Y-107427857D01*
X115986428Y-107463571D01*
X116057857Y-107463571D01*
X116129285Y-107106428D01*
X115879285Y-107677857D02*
X115879285Y-107963571D01*
X115629285Y-107785000D02*
X116272142Y-107785000D01*
X116343571Y-107820714D01*
X116379285Y-107892142D01*
X116379285Y-107963571D01*
G04 #@! TO.C,L1*
X103892545Y-117494080D02*
X103892545Y-117065508D01*
X103892545Y-117279794D02*
X103142545Y-117279794D01*
X103249688Y-117208365D01*
X103321117Y-117136937D01*
X103356831Y-117065508D01*
X103142545Y-117958365D02*
X103142545Y-118029794D01*
X103178260Y-118101222D01*
X103213974Y-118136937D01*
X103285402Y-118172651D01*
X103428260Y-118208365D01*
X103606831Y-118208365D01*
X103749688Y-118172651D01*
X103821117Y-118136937D01*
X103856831Y-118101222D01*
X103892545Y-118029794D01*
X103892545Y-117958365D01*
X103856831Y-117886937D01*
X103821117Y-117851222D01*
X103749688Y-117815508D01*
X103606831Y-117779794D01*
X103428260Y-117779794D01*
X103285402Y-117815508D01*
X103213974Y-117851222D01*
X103178260Y-117886937D01*
X103142545Y-117958365D01*
X103392545Y-118851222D02*
X103892545Y-118851222D01*
X103392545Y-118529794D02*
X103785402Y-118529794D01*
X103856831Y-118565508D01*
X103892545Y-118636937D01*
X103892545Y-118744080D01*
X103856831Y-118815508D01*
X103821117Y-118851222D01*
X103892545Y-119208365D02*
X103142545Y-119208365D01*
X103499688Y-119208365D02*
X103499688Y-119636937D01*
X103892545Y-119636937D02*
X103142545Y-119636937D01*
G04 #@! TO.C,R1*
X108685525Y-117401951D02*
X108685525Y-116973380D01*
X108685525Y-117187665D02*
X107935525Y-117187665D01*
X108042668Y-117116237D01*
X108114097Y-117044808D01*
X108149811Y-116973380D01*
X107935525Y-117866237D02*
X107935525Y-117937665D01*
X107971240Y-118009094D01*
X108006954Y-118044808D01*
X108078382Y-118080522D01*
X108221240Y-118116237D01*
X108399811Y-118116237D01*
X108542668Y-118080522D01*
X108614097Y-118044808D01*
X108649811Y-118009094D01*
X108685525Y-117937665D01*
X108685525Y-117866237D01*
X108649811Y-117794808D01*
X108614097Y-117759094D01*
X108542668Y-117723380D01*
X108399811Y-117687665D01*
X108221240Y-117687665D01*
X108078382Y-117723380D01*
X108006954Y-117759094D01*
X107971240Y-117794808D01*
X107935525Y-117866237D01*
X108685525Y-118437665D02*
X107935525Y-118437665D01*
X108399811Y-118509094D02*
X108685525Y-118723380D01*
X108185525Y-118723380D02*
X108471240Y-118437665D01*
G04 #@! TO.C,C4*
X101860248Y-107331705D02*
X102288820Y-107331705D01*
X102074534Y-107331705D02*
X102074534Y-106581705D01*
X102145962Y-106688848D01*
X102217391Y-106760277D01*
X102288820Y-106795991D01*
X101395962Y-106581705D02*
X101324534Y-106581705D01*
X101253105Y-106617420D01*
X101217391Y-106653134D01*
X101181677Y-106724562D01*
X101145962Y-106867420D01*
X101145962Y-107045991D01*
X101181677Y-107188848D01*
X101217391Y-107260277D01*
X101253105Y-107295991D01*
X101324534Y-107331705D01*
X101395962Y-107331705D01*
X101467391Y-107295991D01*
X101503105Y-107260277D01*
X101538820Y-107188848D01*
X101574534Y-107045991D01*
X101574534Y-106867420D01*
X101538820Y-106724562D01*
X101503105Y-106653134D01*
X101467391Y-106617420D01*
X101395962Y-106581705D01*
X100681677Y-106581705D02*
X100610248Y-106581705D01*
X100538820Y-106617420D01*
X100503105Y-106653134D01*
X100467391Y-106724562D01*
X100431677Y-106867420D01*
X100431677Y-107045991D01*
X100467391Y-107188848D01*
X100503105Y-107260277D01*
X100538820Y-107295991D01*
X100610248Y-107331705D01*
X100681677Y-107331705D01*
X100753105Y-107295991D01*
X100788820Y-107260277D01*
X100824534Y-107188848D01*
X100860248Y-107045991D01*
X100860248Y-106867420D01*
X100824534Y-106724562D01*
X100788820Y-106653134D01*
X100753105Y-106617420D01*
X100681677Y-106581705D01*
X99538820Y-106831705D02*
X99538820Y-107581705D01*
X99538820Y-106867420D02*
X99467391Y-106831705D01*
X99324534Y-106831705D01*
X99253105Y-106867420D01*
X99217391Y-106903134D01*
X99181677Y-106974562D01*
X99181677Y-107188848D01*
X99217391Y-107260277D01*
X99253105Y-107295991D01*
X99324534Y-107331705D01*
X99467391Y-107331705D01*
X99538820Y-107295991D01*
X98610248Y-106938848D02*
X98860248Y-106938848D01*
X98860248Y-107331705D02*
X98860248Y-106581705D01*
X98503105Y-106581705D01*
G04 #@! TO.C,U3*
X105333333Y-125133809D02*
X105333333Y-125371904D01*
X105476190Y-125086190D02*
X104976190Y-125252857D01*
X105476190Y-125419523D01*
X105476190Y-125586190D02*
X104976190Y-125586190D01*
X104976190Y-125776666D01*
X105000000Y-125824285D01*
X105023809Y-125848095D01*
X105071428Y-125871904D01*
X105142857Y-125871904D01*
X105190476Y-125848095D01*
X105214285Y-125824285D01*
X105238095Y-125776666D01*
X105238095Y-125586190D01*
X105023809Y-126062380D02*
X105000000Y-126086190D01*
X104976190Y-126133809D01*
X104976190Y-126252857D01*
X105000000Y-126300476D01*
X105023809Y-126324285D01*
X105071428Y-126348095D01*
X105119047Y-126348095D01*
X105190476Y-126324285D01*
X105476190Y-126038571D01*
X105476190Y-126348095D01*
X105476190Y-126824285D02*
X105476190Y-126538571D01*
X105476190Y-126681428D02*
X104976190Y-126681428D01*
X105047619Y-126633809D01*
X105095238Y-126586190D01*
X105119047Y-126538571D01*
X105476190Y-127300476D02*
X105476190Y-127014761D01*
X105476190Y-127157619D02*
X104976190Y-127157619D01*
X105047619Y-127110000D01*
X105095238Y-127062380D01*
X105119047Y-127014761D01*
X105023809Y-127490952D02*
X105000000Y-127514761D01*
X104976190Y-127562380D01*
X104976190Y-127681428D01*
X105000000Y-127729047D01*
X105023809Y-127752857D01*
X105071428Y-127776666D01*
X105119047Y-127776666D01*
X105190476Y-127752857D01*
X105476190Y-127467142D01*
X105476190Y-127776666D01*
X105476190Y-127990952D02*
X104976190Y-127990952D01*
X105476190Y-128276666D02*
X105190476Y-128062380D01*
X104976190Y-128276666D02*
X105261904Y-127990952D01*
X105285714Y-128490952D02*
X105285714Y-128871904D01*
X104976190Y-129062380D02*
X104976190Y-129371904D01*
X105166666Y-129205238D01*
X105166666Y-129276666D01*
X105190476Y-129324285D01*
X105214285Y-129348095D01*
X105261904Y-129371904D01*
X105380952Y-129371904D01*
X105428571Y-129348095D01*
X105452380Y-129324285D01*
X105476190Y-129276666D01*
X105476190Y-129133809D01*
X105452380Y-129086190D01*
X105428571Y-129062380D01*
X105428571Y-129586190D02*
X105452380Y-129610000D01*
X105476190Y-129586190D01*
X105452380Y-129562380D01*
X105428571Y-129586190D01*
X105476190Y-129586190D01*
X104976190Y-129776666D02*
X104976190Y-130086190D01*
X105166666Y-129919523D01*
X105166666Y-129990952D01*
X105190476Y-130038571D01*
X105214285Y-130062380D01*
X105261904Y-130086190D01*
X105380952Y-130086190D01*
X105428571Y-130062380D01*
X105452380Y-130038571D01*
X105476190Y-129990952D01*
X105476190Y-129848095D01*
X105452380Y-129800476D01*
X105428571Y-129776666D01*
G04 #@! TO.C,U4*
D11*
X109961584Y-142477240D02*
X109961584Y-143286764D01*
X109913965Y-143382002D01*
X109866346Y-143429621D01*
X109771108Y-143477240D01*
X109580632Y-143477240D01*
X109485394Y-143429621D01*
X109437775Y-143382002D01*
X109390156Y-143286764D01*
X109390156Y-142477240D01*
X108485394Y-142810574D02*
X108485394Y-143477240D01*
X108723489Y-142429621D02*
X108961584Y-143143907D01*
X108342537Y-143143907D01*
D15*
X110852542Y-145190097D02*
X110888257Y-145225811D01*
X110995400Y-145261525D01*
X111066828Y-145261525D01*
X111173971Y-145225811D01*
X111245400Y-145154382D01*
X111281114Y-145082954D01*
X111316828Y-144940097D01*
X111316828Y-144832954D01*
X111281114Y-144690097D01*
X111245400Y-144618668D01*
X111173971Y-144547240D01*
X111066828Y-144511525D01*
X110995400Y-144511525D01*
X110888257Y-144547240D01*
X110852542Y-144582954D01*
X110531114Y-145261525D02*
X110531114Y-144511525D01*
X110531114Y-144868668D02*
X110102542Y-144868668D01*
X110102542Y-145261525D02*
X110102542Y-144511525D01*
X109816828Y-144511525D02*
X109352542Y-144511525D01*
X109602542Y-144797240D01*
X109495400Y-144797240D01*
X109423971Y-144832954D01*
X109388257Y-144868668D01*
X109352542Y-144940097D01*
X109352542Y-145118668D01*
X109388257Y-145190097D01*
X109423971Y-145225811D01*
X109495400Y-145261525D01*
X109709685Y-145261525D01*
X109781114Y-145225811D01*
X109816828Y-145190097D01*
X108709685Y-144761525D02*
X108709685Y-145261525D01*
X108888257Y-144475811D02*
X109066828Y-145011525D01*
X108602542Y-145011525D01*
X108173971Y-144511525D02*
X108102542Y-144511525D01*
X108031114Y-144547240D01*
X107995400Y-144582954D01*
X107959685Y-144654382D01*
X107923971Y-144797240D01*
X107923971Y-144975811D01*
X107959685Y-145118668D01*
X107995400Y-145190097D01*
X108031114Y-145225811D01*
X108102542Y-145261525D01*
X108173971Y-145261525D01*
X108245400Y-145225811D01*
X108281114Y-145190097D01*
X108316828Y-145118668D01*
X108352542Y-144975811D01*
X108352542Y-144797240D01*
X108316828Y-144654382D01*
X108281114Y-144582954D01*
X108245400Y-144547240D01*
X108173971Y-144511525D01*
X107173971Y-145190097D02*
X107209685Y-145225811D01*
X107316828Y-145261525D01*
X107388257Y-145261525D01*
X107495400Y-145225811D01*
X107566828Y-145154382D01*
X107602542Y-145082954D01*
X107638257Y-144940097D01*
X107638257Y-144832954D01*
X107602542Y-144690097D01*
X107566828Y-144618668D01*
X107495400Y-144547240D01*
X107388257Y-144511525D01*
X107316828Y-144511525D01*
X107209685Y-144547240D01*
X107173971Y-144582954D01*
G04 #@! TO.C,U6*
D10*
X111041428Y-135799285D02*
X111041428Y-136406428D01*
X111005714Y-136477857D01*
X110970000Y-136513571D01*
X110898571Y-136549285D01*
X110755714Y-136549285D01*
X110684285Y-136513571D01*
X110648571Y-136477857D01*
X110612857Y-136406428D01*
X110612857Y-135799285D01*
X109934285Y-135799285D02*
X110077142Y-135799285D01*
X110148571Y-135835000D01*
X110184285Y-135870714D01*
X110255714Y-135977857D01*
X110291428Y-136120714D01*
X110291428Y-136406428D01*
X110255714Y-136477857D01*
X110220000Y-136513571D01*
X110148571Y-136549285D01*
X110005714Y-136549285D01*
X109934285Y-136513571D01*
X109898571Y-136477857D01*
X109862857Y-136406428D01*
X109862857Y-136227857D01*
X109898571Y-136156428D01*
X109934285Y-136120714D01*
X110005714Y-136085000D01*
X110148571Y-136085000D01*
X110220000Y-136120714D01*
X110255714Y-136156428D01*
X110291428Y-136227857D01*
X112474837Y-134817524D02*
X112046265Y-134817524D01*
X112260551Y-135567524D02*
X112260551Y-134817524D01*
X111796265Y-135567524D02*
X111796265Y-134817524D01*
X111510551Y-134817524D01*
X111439122Y-134853239D01*
X111403408Y-134888953D01*
X111367694Y-134960381D01*
X111367694Y-135067524D01*
X111403408Y-135138953D01*
X111439122Y-135174667D01*
X111510551Y-135210381D01*
X111796265Y-135210381D01*
X110724837Y-135067524D02*
X110724837Y-135567524D01*
X110903408Y-134781810D02*
X111081980Y-135317524D01*
X110617694Y-135317524D01*
X110189122Y-134817524D02*
X110117694Y-134817524D01*
X110046265Y-134853239D01*
X110010551Y-134888953D01*
X109974837Y-134960381D01*
X109939122Y-135103239D01*
X109939122Y-135281810D01*
X109974837Y-135424667D01*
X110010551Y-135496096D01*
X110046265Y-135531810D01*
X110117694Y-135567524D01*
X110189122Y-135567524D01*
X110260551Y-135531810D01*
X110296265Y-135496096D01*
X110331980Y-135424667D01*
X110367694Y-135281810D01*
X110367694Y-135103239D01*
X110331980Y-134960381D01*
X110296265Y-134888953D01*
X110260551Y-134853239D01*
X110189122Y-134817524D01*
X109260551Y-134817524D02*
X109617694Y-134817524D01*
X109653408Y-135174667D01*
X109617694Y-135138953D01*
X109546265Y-135103239D01*
X109367694Y-135103239D01*
X109296265Y-135138953D01*
X109260551Y-135174667D01*
X109224837Y-135246096D01*
X109224837Y-135424667D01*
X109260551Y-135496096D01*
X109296265Y-135531810D01*
X109367694Y-135567524D01*
X109546265Y-135567524D01*
X109617694Y-135531810D01*
X109653408Y-135496096D01*
X108581980Y-134817524D02*
X108724837Y-134817524D01*
X108796265Y-134853239D01*
X108831980Y-134888953D01*
X108903408Y-134996096D01*
X108939122Y-135138953D01*
X108939122Y-135424667D01*
X108903408Y-135496096D01*
X108867694Y-135531810D01*
X108796265Y-135567524D01*
X108653408Y-135567524D01*
X108581980Y-135531810D01*
X108546265Y-135496096D01*
X108510551Y-135424667D01*
X108510551Y-135246096D01*
X108546265Y-135174667D01*
X108581980Y-135138953D01*
X108653408Y-135103239D01*
X108796265Y-135103239D01*
X108867694Y-135138953D01*
X108903408Y-135174667D01*
X108939122Y-135246096D01*
G04 #@! TO.C,C6*
X115223948Y-103153405D02*
X115652520Y-103153405D01*
X115438234Y-103153405D02*
X115438234Y-102403405D01*
X115509662Y-102510548D01*
X115581091Y-102581977D01*
X115652520Y-102617691D01*
X114902520Y-102653405D02*
X114902520Y-103153405D01*
X114902520Y-102724834D02*
X114866805Y-102689120D01*
X114795377Y-102653405D01*
X114688234Y-102653405D01*
X114616805Y-102689120D01*
X114581091Y-102760548D01*
X114581091Y-103153405D01*
X113973948Y-102760548D02*
X114223948Y-102760548D01*
X114223948Y-103153405D02*
X114223948Y-102403405D01*
X113866805Y-102403405D01*
G04 #@! TO.C,R4*
X102068554Y-103700194D02*
X102139982Y-103664480D01*
X102175697Y-103628765D01*
X102211411Y-103557337D01*
X102211411Y-103521622D01*
X102175697Y-103450194D01*
X102139982Y-103414480D01*
X102068554Y-103378765D01*
X101925697Y-103378765D01*
X101854268Y-103414480D01*
X101818554Y-103450194D01*
X101782840Y-103521622D01*
X101782840Y-103557337D01*
X101818554Y-103628765D01*
X101854268Y-103664480D01*
X101925697Y-103700194D01*
X102068554Y-103700194D01*
X102139982Y-103735908D01*
X102175697Y-103771622D01*
X102211411Y-103843051D01*
X102211411Y-103985908D01*
X102175697Y-104057337D01*
X102139982Y-104093051D01*
X102068554Y-104128765D01*
X101925697Y-104128765D01*
X101854268Y-104093051D01*
X101818554Y-104057337D01*
X101782840Y-103985908D01*
X101782840Y-103843051D01*
X101818554Y-103771622D01*
X101854268Y-103735908D01*
X101925697Y-103700194D01*
X101318554Y-103378765D02*
X101247125Y-103378765D01*
X101175697Y-103414480D01*
X101139982Y-103450194D01*
X101104268Y-103521622D01*
X101068554Y-103664480D01*
X101068554Y-103843051D01*
X101104268Y-103985908D01*
X101139982Y-104057337D01*
X101175697Y-104093051D01*
X101247125Y-104128765D01*
X101318554Y-104128765D01*
X101389982Y-104093051D01*
X101425697Y-104057337D01*
X101461411Y-103985908D01*
X101497125Y-103843051D01*
X101497125Y-103664480D01*
X101461411Y-103521622D01*
X101425697Y-103450194D01*
X101389982Y-103414480D01*
X101318554Y-103378765D01*
X100425697Y-103378765D02*
X100568554Y-103378765D01*
X100639982Y-103414480D01*
X100675697Y-103450194D01*
X100747125Y-103557337D01*
X100782840Y-103700194D01*
X100782840Y-103985908D01*
X100747125Y-104057337D01*
X100711411Y-104093051D01*
X100639982Y-104128765D01*
X100497125Y-104128765D01*
X100425697Y-104093051D01*
X100389982Y-104057337D01*
X100354268Y-103985908D01*
X100354268Y-103807337D01*
X100389982Y-103735908D01*
X100425697Y-103700194D01*
X100497125Y-103664480D01*
X100639982Y-103664480D01*
X100711411Y-103700194D01*
X100747125Y-103735908D01*
X100782840Y-103807337D01*
X100032840Y-104128765D02*
X100032840Y-103378765D01*
X99604268Y-104128765D02*
X99925697Y-103700194D01*
X99604268Y-103378765D02*
X100032840Y-103807337D01*
G04 #@! TO.C,R5*
X115275597Y-105172314D02*
X115239882Y-105136600D01*
X115168454Y-105100885D01*
X114989882Y-105100885D01*
X114918454Y-105136600D01*
X114882740Y-105172314D01*
X114847025Y-105243742D01*
X114847025Y-105315171D01*
X114882740Y-105422314D01*
X115311311Y-105850885D01*
X114847025Y-105850885D01*
X114525597Y-105850885D02*
X114525597Y-105100885D01*
X114275597Y-105636600D01*
X114025597Y-105100885D01*
X114025597Y-105850885D01*
G04 #@! TD*
M02*
