G04 #@! TF.GenerationSoftware,KiCad,Pcbnew,(5.0.0)*
G04 #@! TF.CreationDate,2020-05-09T15:13:36-06:00*
G04 #@! TF.ProjectId,4x4_backpack,3478345F6261636B7061636B2E6B6963,rev?*
G04 #@! TF.SameCoordinates,Original*
G04 #@! TF.FileFunction,Legend,Top*
G04 #@! TF.FilePolarity,Positive*
%FSLAX46Y46*%
G04 Gerber Fmt 4.6, Leading zero omitted, Abs format (unit mm)*
G04 Created by KiCad (PCBNEW (5.0.0)) date 05/09/20 15:13:36*
%MOMM*%
%LPD*%
G01*
G04 APERTURE LIST*
%ADD10C,0.120000*%
%ADD11C,0.200000*%
%ADD12C,0.150000*%
G04 APERTURE END LIST*
D10*
G04 #@! TO.C,SW1*
X88685000Y-104768000D02*
G75*
G03X88685000Y-104768000I-3000000J0D01*
G01*
X79785000Y-102768000D02*
X79785000Y-98668000D01*
X91585000Y-98668000D02*
X91585000Y-102768000D01*
X91585000Y-106768000D02*
X91585000Y-110868000D01*
X79785000Y-106768000D02*
X79785000Y-110868000D01*
X79785000Y-110868000D02*
X91585000Y-110868000D01*
X81885000Y-112268000D02*
X81585000Y-112568000D01*
X81585000Y-112568000D02*
X81585000Y-111968000D01*
X81585000Y-111968000D02*
X81885000Y-112268000D01*
X79785000Y-98668000D02*
X82185000Y-98668000D01*
X84385000Y-98668000D02*
X86985000Y-98668000D01*
X89185000Y-98668000D02*
X91585000Y-98668000D01*
X85185000Y-104768000D02*
X86185000Y-104768000D01*
X85685000Y-105268000D02*
X85685000Y-104268000D01*
D11*
G04 #@! TO.C,D16*
X133420000Y-146310000D02*
X133420000Y-140510000D01*
X135820000Y-146310000D02*
X133420000Y-146310000D01*
X135820000Y-140510000D02*
X135820000Y-146310000D01*
X135820000Y-140585000D02*
X133420000Y-140585000D01*
X135820000Y-140710000D02*
X133420000Y-140710000D01*
X133420000Y-140485000D02*
X135820000Y-140485000D01*
X135820000Y-140885000D02*
X133420000Y-140885000D01*
X135820000Y-141060000D02*
X133420000Y-141060000D01*
X135820000Y-141235000D02*
X133420000Y-141235000D01*
G04 #@! TO.C,D2*
X102940000Y-89160000D02*
X102940000Y-83360000D01*
X105340000Y-89160000D02*
X102940000Y-89160000D01*
X105340000Y-83360000D02*
X105340000Y-89160000D01*
X105340000Y-83435000D02*
X102940000Y-83435000D01*
X105340000Y-83560000D02*
X102940000Y-83560000D01*
X102940000Y-83335000D02*
X105340000Y-83335000D01*
X105340000Y-83735000D02*
X102940000Y-83735000D01*
X105340000Y-83910000D02*
X102940000Y-83910000D01*
X105340000Y-84085000D02*
X102940000Y-84085000D01*
D10*
G04 #@! TO.C,J1*
X76140000Y-91182500D02*
X78800000Y-91182500D01*
X76140000Y-83502500D02*
X76140000Y-91182500D01*
X78800000Y-83502500D02*
X78800000Y-91182500D01*
X76140000Y-83502500D02*
X78800000Y-83502500D01*
X76140000Y-82232500D02*
X76140000Y-80902500D01*
X76140000Y-80902500D02*
X77470000Y-80902500D01*
G04 #@! TO.C,J2*
X76140000Y-99952500D02*
X77470000Y-99952500D01*
X76140000Y-101282500D02*
X76140000Y-99952500D01*
X76140000Y-102552500D02*
X78800000Y-102552500D01*
X78800000Y-102552500D02*
X78800000Y-110232500D01*
X76140000Y-102552500D02*
X76140000Y-110232500D01*
X76140000Y-110232500D02*
X78800000Y-110232500D01*
G04 #@! TO.C,J3*
X76140000Y-129282500D02*
X78800000Y-129282500D01*
X76140000Y-121602500D02*
X76140000Y-129282500D01*
X78800000Y-121602500D02*
X78800000Y-129282500D01*
X76140000Y-121602500D02*
X78800000Y-121602500D01*
X76140000Y-120332500D02*
X76140000Y-119002500D01*
X76140000Y-119002500D02*
X77470000Y-119002500D01*
G04 #@! TO.C,J4*
X76140000Y-138052500D02*
X77470000Y-138052500D01*
X76140000Y-139382500D02*
X76140000Y-138052500D01*
X76140000Y-140652500D02*
X78800000Y-140652500D01*
X78800000Y-140652500D02*
X78800000Y-148332500D01*
X76140000Y-140652500D02*
X76140000Y-148332500D01*
X76140000Y-148332500D02*
X78800000Y-148332500D01*
G04 #@! TO.C,J5*
X149800000Y-91182500D02*
X152460000Y-91182500D01*
X149800000Y-83502500D02*
X149800000Y-91182500D01*
X152460000Y-83502500D02*
X152460000Y-91182500D01*
X149800000Y-83502500D02*
X152460000Y-83502500D01*
X149800000Y-82232500D02*
X149800000Y-80902500D01*
X149800000Y-80902500D02*
X151130000Y-80902500D01*
G04 #@! TO.C,J6*
X149800000Y-99952500D02*
X151130000Y-99952500D01*
X149800000Y-101282500D02*
X149800000Y-99952500D01*
X149800000Y-102552500D02*
X152460000Y-102552500D01*
X152460000Y-102552500D02*
X152460000Y-110232500D01*
X149800000Y-102552500D02*
X149800000Y-110232500D01*
X149800000Y-110232500D02*
X152460000Y-110232500D01*
G04 #@! TO.C,J7*
X149800000Y-129282500D02*
X152460000Y-129282500D01*
X149800000Y-121602500D02*
X149800000Y-129282500D01*
X152460000Y-121602500D02*
X152460000Y-129282500D01*
X149800000Y-121602500D02*
X152460000Y-121602500D01*
X149800000Y-120332500D02*
X149800000Y-119002500D01*
X149800000Y-119002500D02*
X151130000Y-119002500D01*
G04 #@! TO.C,J8*
X149800000Y-138052500D02*
X151130000Y-138052500D01*
X149800000Y-139382500D02*
X149800000Y-138052500D01*
X149800000Y-140652500D02*
X152460000Y-140652500D01*
X152460000Y-140652500D02*
X152460000Y-148332500D01*
X149800000Y-140652500D02*
X149800000Y-148332500D01*
X149800000Y-148332500D02*
X152460000Y-148332500D01*
D11*
G04 #@! TO.C,D1*
X85160000Y-89160000D02*
X85160000Y-83360000D01*
X87560000Y-89160000D02*
X85160000Y-89160000D01*
X87560000Y-83360000D02*
X87560000Y-89160000D01*
X87560000Y-83435000D02*
X85160000Y-83435000D01*
X87560000Y-83560000D02*
X85160000Y-83560000D01*
X85160000Y-83335000D02*
X87560000Y-83335000D01*
X87560000Y-83735000D02*
X85160000Y-83735000D01*
X87560000Y-83910000D02*
X85160000Y-83910000D01*
X87560000Y-84085000D02*
X85160000Y-84085000D01*
G04 #@! TO.C,D3*
X125660000Y-84085000D02*
X123260000Y-84085000D01*
X125660000Y-83910000D02*
X123260000Y-83910000D01*
X125660000Y-83735000D02*
X123260000Y-83735000D01*
X123260000Y-83335000D02*
X125660000Y-83335000D01*
X125660000Y-83560000D02*
X123260000Y-83560000D01*
X125660000Y-83435000D02*
X123260000Y-83435000D01*
X125660000Y-83360000D02*
X125660000Y-89160000D01*
X125660000Y-89160000D02*
X123260000Y-89160000D01*
X123260000Y-89160000D02*
X123260000Y-83360000D01*
G04 #@! TO.C,D4*
X143440000Y-84085000D02*
X141040000Y-84085000D01*
X143440000Y-83910000D02*
X141040000Y-83910000D01*
X143440000Y-83735000D02*
X141040000Y-83735000D01*
X141040000Y-83335000D02*
X143440000Y-83335000D01*
X143440000Y-83560000D02*
X141040000Y-83560000D01*
X143440000Y-83435000D02*
X141040000Y-83435000D01*
X143440000Y-83360000D02*
X143440000Y-89160000D01*
X143440000Y-89160000D02*
X141040000Y-89160000D01*
X141040000Y-89160000D02*
X141040000Y-83360000D01*
G04 #@! TO.C,D5*
X87700000Y-89160000D02*
X87700000Y-83360000D01*
X90100000Y-89160000D02*
X87700000Y-89160000D01*
X90100000Y-83360000D02*
X90100000Y-89160000D01*
X90100000Y-83435000D02*
X87700000Y-83435000D01*
X90100000Y-83560000D02*
X87700000Y-83560000D01*
X87700000Y-83335000D02*
X90100000Y-83335000D01*
X90100000Y-83735000D02*
X87700000Y-83735000D01*
X90100000Y-83910000D02*
X87700000Y-83910000D01*
X90100000Y-84085000D02*
X87700000Y-84085000D01*
G04 #@! TO.C,D6*
X107880000Y-84085000D02*
X105480000Y-84085000D01*
X107880000Y-83910000D02*
X105480000Y-83910000D01*
X107880000Y-83735000D02*
X105480000Y-83735000D01*
X105480000Y-83335000D02*
X107880000Y-83335000D01*
X107880000Y-83560000D02*
X105480000Y-83560000D01*
X107880000Y-83435000D02*
X105480000Y-83435000D01*
X107880000Y-83360000D02*
X107880000Y-89160000D01*
X107880000Y-89160000D02*
X105480000Y-89160000D01*
X105480000Y-89160000D02*
X105480000Y-83360000D01*
G04 #@! TO.C,D7*
X125800000Y-89160000D02*
X125800000Y-83360000D01*
X128200000Y-89160000D02*
X125800000Y-89160000D01*
X128200000Y-83360000D02*
X128200000Y-89160000D01*
X128200000Y-83435000D02*
X125800000Y-83435000D01*
X128200000Y-83560000D02*
X125800000Y-83560000D01*
X125800000Y-83335000D02*
X128200000Y-83335000D01*
X128200000Y-83735000D02*
X125800000Y-83735000D01*
X128200000Y-83910000D02*
X125800000Y-83910000D01*
X128200000Y-84085000D02*
X125800000Y-84085000D01*
G04 #@! TO.C,D8*
X145980000Y-84085000D02*
X143580000Y-84085000D01*
X145980000Y-83910000D02*
X143580000Y-83910000D01*
X145980000Y-83735000D02*
X143580000Y-83735000D01*
X143580000Y-83335000D02*
X145980000Y-83335000D01*
X145980000Y-83560000D02*
X143580000Y-83560000D01*
X145980000Y-83435000D02*
X143580000Y-83435000D01*
X145980000Y-83360000D02*
X145980000Y-89160000D01*
X145980000Y-89160000D02*
X143580000Y-89160000D01*
X143580000Y-89160000D02*
X143580000Y-83360000D01*
G04 #@! TO.C,D9*
X85020000Y-84085000D02*
X82620000Y-84085000D01*
X85020000Y-83910000D02*
X82620000Y-83910000D01*
X85020000Y-83735000D02*
X82620000Y-83735000D01*
X82620000Y-83335000D02*
X85020000Y-83335000D01*
X85020000Y-83560000D02*
X82620000Y-83560000D01*
X85020000Y-83435000D02*
X82620000Y-83435000D01*
X85020000Y-83360000D02*
X85020000Y-89160000D01*
X85020000Y-89160000D02*
X82620000Y-89160000D01*
X82620000Y-89160000D02*
X82620000Y-83360000D01*
G04 #@! TO.C,D10*
X100400000Y-89160000D02*
X100400000Y-83360000D01*
X102800000Y-89160000D02*
X100400000Y-89160000D01*
X102800000Y-83360000D02*
X102800000Y-89160000D01*
X102800000Y-83435000D02*
X100400000Y-83435000D01*
X102800000Y-83560000D02*
X100400000Y-83560000D01*
X100400000Y-83335000D02*
X102800000Y-83335000D01*
X102800000Y-83735000D02*
X100400000Y-83735000D01*
X102800000Y-83910000D02*
X100400000Y-83910000D01*
X102800000Y-84085000D02*
X100400000Y-84085000D01*
G04 #@! TO.C,D11*
X123120000Y-84085000D02*
X120720000Y-84085000D01*
X123120000Y-83910000D02*
X120720000Y-83910000D01*
X123120000Y-83735000D02*
X120720000Y-83735000D01*
X120720000Y-83335000D02*
X123120000Y-83335000D01*
X123120000Y-83560000D02*
X120720000Y-83560000D01*
X123120000Y-83435000D02*
X120720000Y-83435000D01*
X123120000Y-83360000D02*
X123120000Y-89160000D01*
X123120000Y-89160000D02*
X120720000Y-89160000D01*
X120720000Y-89160000D02*
X120720000Y-83360000D01*
G04 #@! TO.C,D12*
X138500000Y-89160000D02*
X138500000Y-83360000D01*
X140900000Y-89160000D02*
X138500000Y-89160000D01*
X140900000Y-83360000D02*
X140900000Y-89160000D01*
X140900000Y-83435000D02*
X138500000Y-83435000D01*
X140900000Y-83560000D02*
X138500000Y-83560000D01*
X138500000Y-83335000D02*
X140900000Y-83335000D01*
X140900000Y-83735000D02*
X138500000Y-83735000D01*
X140900000Y-83910000D02*
X138500000Y-83910000D01*
X140900000Y-84085000D02*
X138500000Y-84085000D01*
G04 #@! TO.C,D13*
X94050000Y-146310000D02*
X94050000Y-140510000D01*
X96450000Y-146310000D02*
X94050000Y-146310000D01*
X96450000Y-140510000D02*
X96450000Y-146310000D01*
X96450000Y-140585000D02*
X94050000Y-140585000D01*
X96450000Y-140710000D02*
X94050000Y-140710000D01*
X94050000Y-140485000D02*
X96450000Y-140485000D01*
X96450000Y-140885000D02*
X94050000Y-140885000D01*
X96450000Y-141060000D02*
X94050000Y-141060000D01*
X96450000Y-141235000D02*
X94050000Y-141235000D01*
G04 #@! TO.C,D14*
X115500000Y-141235000D02*
X113100000Y-141235000D01*
X115500000Y-141060000D02*
X113100000Y-141060000D01*
X115500000Y-140885000D02*
X113100000Y-140885000D01*
X113100000Y-140485000D02*
X115500000Y-140485000D01*
X115500000Y-140710000D02*
X113100000Y-140710000D01*
X115500000Y-140585000D02*
X113100000Y-140585000D01*
X115500000Y-140510000D02*
X115500000Y-146310000D01*
X115500000Y-146310000D02*
X113100000Y-146310000D01*
X113100000Y-146310000D02*
X113100000Y-140510000D01*
G04 #@! TO.C,D15*
X133280000Y-141235000D02*
X130880000Y-141235000D01*
X133280000Y-141060000D02*
X130880000Y-141060000D01*
X133280000Y-140885000D02*
X130880000Y-140885000D01*
X130880000Y-140485000D02*
X133280000Y-140485000D01*
X133280000Y-140710000D02*
X130880000Y-140710000D01*
X133280000Y-140585000D02*
X130880000Y-140585000D01*
X133280000Y-140510000D02*
X133280000Y-146310000D01*
X133280000Y-146310000D02*
X130880000Y-146310000D01*
X130880000Y-146310000D02*
X130880000Y-140510000D01*
D10*
G04 #@! TO.C,SW2*
X104735000Y-105268000D02*
X104735000Y-104268000D01*
X104235000Y-104768000D02*
X105235000Y-104768000D01*
X108235000Y-98668000D02*
X110635000Y-98668000D01*
X103435000Y-98668000D02*
X106035000Y-98668000D01*
X98835000Y-98668000D02*
X101235000Y-98668000D01*
X100635000Y-111968000D02*
X100935000Y-112268000D01*
X100635000Y-112568000D02*
X100635000Y-111968000D01*
X100935000Y-112268000D02*
X100635000Y-112568000D01*
X98835000Y-110868000D02*
X110635000Y-110868000D01*
X98835000Y-106768000D02*
X98835000Y-110868000D01*
X110635000Y-106768000D02*
X110635000Y-110868000D01*
X110635000Y-98668000D02*
X110635000Y-102768000D01*
X98835000Y-102768000D02*
X98835000Y-98668000D01*
X107735000Y-104768000D02*
G75*
G03X107735000Y-104768000I-3000000J0D01*
G01*
G04 #@! TO.C,SW3*
X126785000Y-104768000D02*
G75*
G03X126785000Y-104768000I-3000000J0D01*
G01*
X117885000Y-102768000D02*
X117885000Y-98668000D01*
X129685000Y-98668000D02*
X129685000Y-102768000D01*
X129685000Y-106768000D02*
X129685000Y-110868000D01*
X117885000Y-106768000D02*
X117885000Y-110868000D01*
X117885000Y-110868000D02*
X129685000Y-110868000D01*
X119985000Y-112268000D02*
X119685000Y-112568000D01*
X119685000Y-112568000D02*
X119685000Y-111968000D01*
X119685000Y-111968000D02*
X119985000Y-112268000D01*
X117885000Y-98668000D02*
X120285000Y-98668000D01*
X122485000Y-98668000D02*
X125085000Y-98668000D01*
X127285000Y-98668000D02*
X129685000Y-98668000D01*
X123285000Y-104768000D02*
X124285000Y-104768000D01*
X123785000Y-105268000D02*
X123785000Y-104268000D01*
G04 #@! TO.C,SW4*
X142835000Y-105268000D02*
X142835000Y-104268000D01*
X142335000Y-104768000D02*
X143335000Y-104768000D01*
X146335000Y-98668000D02*
X148735000Y-98668000D01*
X141535000Y-98668000D02*
X144135000Y-98668000D01*
X136935000Y-98668000D02*
X139335000Y-98668000D01*
X138735000Y-111968000D02*
X139035000Y-112268000D01*
X138735000Y-112568000D02*
X138735000Y-111968000D01*
X139035000Y-112268000D02*
X138735000Y-112568000D01*
X136935000Y-110868000D02*
X148735000Y-110868000D01*
X136935000Y-106768000D02*
X136935000Y-110868000D01*
X148735000Y-106768000D02*
X148735000Y-110868000D01*
X148735000Y-98668000D02*
X148735000Y-102768000D01*
X136935000Y-102768000D02*
X136935000Y-98668000D01*
X145835000Y-104768000D02*
G75*
G03X145835000Y-104768000I-3000000J0D01*
G01*
G04 #@! TO.C,SW1*
D12*
X78889761Y-110801333D02*
X78937380Y-110658476D01*
X78937380Y-110420380D01*
X78889761Y-110325142D01*
X78842142Y-110277523D01*
X78746904Y-110229904D01*
X78651666Y-110229904D01*
X78556428Y-110277523D01*
X78508809Y-110325142D01*
X78461190Y-110420380D01*
X78413571Y-110610857D01*
X78365952Y-110706095D01*
X78318333Y-110753714D01*
X78223095Y-110801333D01*
X78127857Y-110801333D01*
X78032619Y-110753714D01*
X77985000Y-110706095D01*
X77937380Y-110610857D01*
X77937380Y-110372761D01*
X77985000Y-110229904D01*
X77937380Y-109896571D02*
X78937380Y-109658476D01*
X78223095Y-109468000D01*
X78937380Y-109277523D01*
X77937380Y-109039428D01*
X78937380Y-108134666D02*
X78937380Y-108706095D01*
X78937380Y-108420380D02*
X77937380Y-108420380D01*
X78080238Y-108515619D01*
X78175476Y-108610857D01*
X78223095Y-108706095D01*
G04 #@! TO.C,D16*
X133056904Y-144481428D02*
X132256904Y-144481428D01*
X132256904Y-144290952D01*
X132295000Y-144176666D01*
X132371190Y-144100476D01*
X132447380Y-144062380D01*
X132599761Y-144024285D01*
X132714047Y-144024285D01*
X132866428Y-144062380D01*
X132942619Y-144100476D01*
X133018809Y-144176666D01*
X133056904Y-144290952D01*
X133056904Y-144481428D01*
X133056904Y-143262380D02*
X133056904Y-143719523D01*
X133056904Y-143490952D02*
X132256904Y-143490952D01*
X132371190Y-143567142D01*
X132447380Y-143643333D01*
X132485476Y-143719523D01*
X132256904Y-142576666D02*
X132256904Y-142729047D01*
X132295000Y-142805238D01*
X132333095Y-142843333D01*
X132447380Y-142919523D01*
X132599761Y-142957619D01*
X132904523Y-142957619D01*
X132980714Y-142919523D01*
X133018809Y-142881428D01*
X133056904Y-142805238D01*
X133056904Y-142652857D01*
X133018809Y-142576666D01*
X132980714Y-142538571D01*
X132904523Y-142500476D01*
X132714047Y-142500476D01*
X132637857Y-142538571D01*
X132599761Y-142576666D01*
X132561666Y-142652857D01*
X132561666Y-142805238D01*
X132599761Y-142881428D01*
X132637857Y-142919523D01*
X132714047Y-142957619D01*
G04 #@! TO.C,D2*
X102576904Y-86950476D02*
X101776904Y-86950476D01*
X101776904Y-86760000D01*
X101815000Y-86645714D01*
X101891190Y-86569523D01*
X101967380Y-86531428D01*
X102119761Y-86493333D01*
X102234047Y-86493333D01*
X102386428Y-86531428D01*
X102462619Y-86569523D01*
X102538809Y-86645714D01*
X102576904Y-86760000D01*
X102576904Y-86950476D01*
X101853095Y-86188571D02*
X101815000Y-86150476D01*
X101776904Y-86074285D01*
X101776904Y-85883809D01*
X101815000Y-85807619D01*
X101853095Y-85769523D01*
X101929285Y-85731428D01*
X102005476Y-85731428D01*
X102119761Y-85769523D01*
X102576904Y-86226666D01*
X102576904Y-85731428D01*
G04 #@! TO.C,D1*
X84796904Y-86950476D02*
X83996904Y-86950476D01*
X83996904Y-86760000D01*
X84035000Y-86645714D01*
X84111190Y-86569523D01*
X84187380Y-86531428D01*
X84339761Y-86493333D01*
X84454047Y-86493333D01*
X84606428Y-86531428D01*
X84682619Y-86569523D01*
X84758809Y-86645714D01*
X84796904Y-86760000D01*
X84796904Y-86950476D01*
X84796904Y-85731428D02*
X84796904Y-86188571D01*
X84796904Y-85960000D02*
X83996904Y-85960000D01*
X84111190Y-86036190D01*
X84187380Y-86112380D01*
X84225476Y-86188571D01*
G04 #@! TO.C,D3*
X122896904Y-86950476D02*
X122096904Y-86950476D01*
X122096904Y-86760000D01*
X122135000Y-86645714D01*
X122211190Y-86569523D01*
X122287380Y-86531428D01*
X122439761Y-86493333D01*
X122554047Y-86493333D01*
X122706428Y-86531428D01*
X122782619Y-86569523D01*
X122858809Y-86645714D01*
X122896904Y-86760000D01*
X122896904Y-86950476D01*
X122096904Y-86226666D02*
X122096904Y-85731428D01*
X122401666Y-85998095D01*
X122401666Y-85883809D01*
X122439761Y-85807619D01*
X122477857Y-85769523D01*
X122554047Y-85731428D01*
X122744523Y-85731428D01*
X122820714Y-85769523D01*
X122858809Y-85807619D01*
X122896904Y-85883809D01*
X122896904Y-86112380D01*
X122858809Y-86188571D01*
X122820714Y-86226666D01*
G04 #@! TO.C,D4*
X140676904Y-86950476D02*
X139876904Y-86950476D01*
X139876904Y-86760000D01*
X139915000Y-86645714D01*
X139991190Y-86569523D01*
X140067380Y-86531428D01*
X140219761Y-86493333D01*
X140334047Y-86493333D01*
X140486428Y-86531428D01*
X140562619Y-86569523D01*
X140638809Y-86645714D01*
X140676904Y-86760000D01*
X140676904Y-86950476D01*
X140143571Y-85807619D02*
X140676904Y-85807619D01*
X139838809Y-85998095D02*
X140410238Y-86188571D01*
X140410238Y-85693333D01*
G04 #@! TO.C,D5*
X87336904Y-86950476D02*
X86536904Y-86950476D01*
X86536904Y-86760000D01*
X86575000Y-86645714D01*
X86651190Y-86569523D01*
X86727380Y-86531428D01*
X86879761Y-86493333D01*
X86994047Y-86493333D01*
X87146428Y-86531428D01*
X87222619Y-86569523D01*
X87298809Y-86645714D01*
X87336904Y-86760000D01*
X87336904Y-86950476D01*
X86536904Y-85769523D02*
X86536904Y-86150476D01*
X86917857Y-86188571D01*
X86879761Y-86150476D01*
X86841666Y-86074285D01*
X86841666Y-85883809D01*
X86879761Y-85807619D01*
X86917857Y-85769523D01*
X86994047Y-85731428D01*
X87184523Y-85731428D01*
X87260714Y-85769523D01*
X87298809Y-85807619D01*
X87336904Y-85883809D01*
X87336904Y-86074285D01*
X87298809Y-86150476D01*
X87260714Y-86188571D01*
G04 #@! TO.C,D6*
X105116904Y-86950476D02*
X104316904Y-86950476D01*
X104316904Y-86760000D01*
X104355000Y-86645714D01*
X104431190Y-86569523D01*
X104507380Y-86531428D01*
X104659761Y-86493333D01*
X104774047Y-86493333D01*
X104926428Y-86531428D01*
X105002619Y-86569523D01*
X105078809Y-86645714D01*
X105116904Y-86760000D01*
X105116904Y-86950476D01*
X104316904Y-85807619D02*
X104316904Y-85960000D01*
X104355000Y-86036190D01*
X104393095Y-86074285D01*
X104507380Y-86150476D01*
X104659761Y-86188571D01*
X104964523Y-86188571D01*
X105040714Y-86150476D01*
X105078809Y-86112380D01*
X105116904Y-86036190D01*
X105116904Y-85883809D01*
X105078809Y-85807619D01*
X105040714Y-85769523D01*
X104964523Y-85731428D01*
X104774047Y-85731428D01*
X104697857Y-85769523D01*
X104659761Y-85807619D01*
X104621666Y-85883809D01*
X104621666Y-86036190D01*
X104659761Y-86112380D01*
X104697857Y-86150476D01*
X104774047Y-86188571D01*
G04 #@! TO.C,D7*
X125436904Y-86950476D02*
X124636904Y-86950476D01*
X124636904Y-86760000D01*
X124675000Y-86645714D01*
X124751190Y-86569523D01*
X124827380Y-86531428D01*
X124979761Y-86493333D01*
X125094047Y-86493333D01*
X125246428Y-86531428D01*
X125322619Y-86569523D01*
X125398809Y-86645714D01*
X125436904Y-86760000D01*
X125436904Y-86950476D01*
X124636904Y-86226666D02*
X124636904Y-85693333D01*
X125436904Y-86036190D01*
G04 #@! TO.C,D8*
X143216904Y-86950476D02*
X142416904Y-86950476D01*
X142416904Y-86760000D01*
X142455000Y-86645714D01*
X142531190Y-86569523D01*
X142607380Y-86531428D01*
X142759761Y-86493333D01*
X142874047Y-86493333D01*
X143026428Y-86531428D01*
X143102619Y-86569523D01*
X143178809Y-86645714D01*
X143216904Y-86760000D01*
X143216904Y-86950476D01*
X142759761Y-86036190D02*
X142721666Y-86112380D01*
X142683571Y-86150476D01*
X142607380Y-86188571D01*
X142569285Y-86188571D01*
X142493095Y-86150476D01*
X142455000Y-86112380D01*
X142416904Y-86036190D01*
X142416904Y-85883809D01*
X142455000Y-85807619D01*
X142493095Y-85769523D01*
X142569285Y-85731428D01*
X142607380Y-85731428D01*
X142683571Y-85769523D01*
X142721666Y-85807619D01*
X142759761Y-85883809D01*
X142759761Y-86036190D01*
X142797857Y-86112380D01*
X142835952Y-86150476D01*
X142912142Y-86188571D01*
X143064523Y-86188571D01*
X143140714Y-86150476D01*
X143178809Y-86112380D01*
X143216904Y-86036190D01*
X143216904Y-85883809D01*
X143178809Y-85807619D01*
X143140714Y-85769523D01*
X143064523Y-85731428D01*
X142912142Y-85731428D01*
X142835952Y-85769523D01*
X142797857Y-85807619D01*
X142759761Y-85883809D01*
G04 #@! TO.C,D9*
X82256904Y-86950476D02*
X81456904Y-86950476D01*
X81456904Y-86760000D01*
X81495000Y-86645714D01*
X81571190Y-86569523D01*
X81647380Y-86531428D01*
X81799761Y-86493333D01*
X81914047Y-86493333D01*
X82066428Y-86531428D01*
X82142619Y-86569523D01*
X82218809Y-86645714D01*
X82256904Y-86760000D01*
X82256904Y-86950476D01*
X82256904Y-86112380D02*
X82256904Y-85960000D01*
X82218809Y-85883809D01*
X82180714Y-85845714D01*
X82066428Y-85769523D01*
X81914047Y-85731428D01*
X81609285Y-85731428D01*
X81533095Y-85769523D01*
X81495000Y-85807619D01*
X81456904Y-85883809D01*
X81456904Y-86036190D01*
X81495000Y-86112380D01*
X81533095Y-86150476D01*
X81609285Y-86188571D01*
X81799761Y-86188571D01*
X81875952Y-86150476D01*
X81914047Y-86112380D01*
X81952142Y-86036190D01*
X81952142Y-85883809D01*
X81914047Y-85807619D01*
X81875952Y-85769523D01*
X81799761Y-85731428D01*
G04 #@! TO.C,D10*
X100036904Y-87331428D02*
X99236904Y-87331428D01*
X99236904Y-87140952D01*
X99275000Y-87026666D01*
X99351190Y-86950476D01*
X99427380Y-86912380D01*
X99579761Y-86874285D01*
X99694047Y-86874285D01*
X99846428Y-86912380D01*
X99922619Y-86950476D01*
X99998809Y-87026666D01*
X100036904Y-87140952D01*
X100036904Y-87331428D01*
X100036904Y-86112380D02*
X100036904Y-86569523D01*
X100036904Y-86340952D02*
X99236904Y-86340952D01*
X99351190Y-86417142D01*
X99427380Y-86493333D01*
X99465476Y-86569523D01*
X99236904Y-85617142D02*
X99236904Y-85540952D01*
X99275000Y-85464761D01*
X99313095Y-85426666D01*
X99389285Y-85388571D01*
X99541666Y-85350476D01*
X99732142Y-85350476D01*
X99884523Y-85388571D01*
X99960714Y-85426666D01*
X99998809Y-85464761D01*
X100036904Y-85540952D01*
X100036904Y-85617142D01*
X99998809Y-85693333D01*
X99960714Y-85731428D01*
X99884523Y-85769523D01*
X99732142Y-85807619D01*
X99541666Y-85807619D01*
X99389285Y-85769523D01*
X99313095Y-85731428D01*
X99275000Y-85693333D01*
X99236904Y-85617142D01*
G04 #@! TO.C,D11*
X120356904Y-87331428D02*
X119556904Y-87331428D01*
X119556904Y-87140952D01*
X119595000Y-87026666D01*
X119671190Y-86950476D01*
X119747380Y-86912380D01*
X119899761Y-86874285D01*
X120014047Y-86874285D01*
X120166428Y-86912380D01*
X120242619Y-86950476D01*
X120318809Y-87026666D01*
X120356904Y-87140952D01*
X120356904Y-87331428D01*
X120356904Y-86112380D02*
X120356904Y-86569523D01*
X120356904Y-86340952D02*
X119556904Y-86340952D01*
X119671190Y-86417142D01*
X119747380Y-86493333D01*
X119785476Y-86569523D01*
X120356904Y-85350476D02*
X120356904Y-85807619D01*
X120356904Y-85579047D02*
X119556904Y-85579047D01*
X119671190Y-85655238D01*
X119747380Y-85731428D01*
X119785476Y-85807619D01*
G04 #@! TO.C,D12*
X138136904Y-87331428D02*
X137336904Y-87331428D01*
X137336904Y-87140952D01*
X137375000Y-87026666D01*
X137451190Y-86950476D01*
X137527380Y-86912380D01*
X137679761Y-86874285D01*
X137794047Y-86874285D01*
X137946428Y-86912380D01*
X138022619Y-86950476D01*
X138098809Y-87026666D01*
X138136904Y-87140952D01*
X138136904Y-87331428D01*
X138136904Y-86112380D02*
X138136904Y-86569523D01*
X138136904Y-86340952D02*
X137336904Y-86340952D01*
X137451190Y-86417142D01*
X137527380Y-86493333D01*
X137565476Y-86569523D01*
X137413095Y-85807619D02*
X137375000Y-85769523D01*
X137336904Y-85693333D01*
X137336904Y-85502857D01*
X137375000Y-85426666D01*
X137413095Y-85388571D01*
X137489285Y-85350476D01*
X137565476Y-85350476D01*
X137679761Y-85388571D01*
X138136904Y-85845714D01*
X138136904Y-85350476D01*
G04 #@! TO.C,D13*
X93686904Y-144481428D02*
X92886904Y-144481428D01*
X92886904Y-144290952D01*
X92925000Y-144176666D01*
X93001190Y-144100476D01*
X93077380Y-144062380D01*
X93229761Y-144024285D01*
X93344047Y-144024285D01*
X93496428Y-144062380D01*
X93572619Y-144100476D01*
X93648809Y-144176666D01*
X93686904Y-144290952D01*
X93686904Y-144481428D01*
X93686904Y-143262380D02*
X93686904Y-143719523D01*
X93686904Y-143490952D02*
X92886904Y-143490952D01*
X93001190Y-143567142D01*
X93077380Y-143643333D01*
X93115476Y-143719523D01*
X92886904Y-142995714D02*
X92886904Y-142500476D01*
X93191666Y-142767142D01*
X93191666Y-142652857D01*
X93229761Y-142576666D01*
X93267857Y-142538571D01*
X93344047Y-142500476D01*
X93534523Y-142500476D01*
X93610714Y-142538571D01*
X93648809Y-142576666D01*
X93686904Y-142652857D01*
X93686904Y-142881428D01*
X93648809Y-142957619D01*
X93610714Y-142995714D01*
G04 #@! TO.C,D14*
X112736904Y-144481428D02*
X111936904Y-144481428D01*
X111936904Y-144290952D01*
X111975000Y-144176666D01*
X112051190Y-144100476D01*
X112127380Y-144062380D01*
X112279761Y-144024285D01*
X112394047Y-144024285D01*
X112546428Y-144062380D01*
X112622619Y-144100476D01*
X112698809Y-144176666D01*
X112736904Y-144290952D01*
X112736904Y-144481428D01*
X112736904Y-143262380D02*
X112736904Y-143719523D01*
X112736904Y-143490952D02*
X111936904Y-143490952D01*
X112051190Y-143567142D01*
X112127380Y-143643333D01*
X112165476Y-143719523D01*
X112203571Y-142576666D02*
X112736904Y-142576666D01*
X111898809Y-142767142D02*
X112470238Y-142957619D01*
X112470238Y-142462380D01*
G04 #@! TO.C,D15*
X130516904Y-144481428D02*
X129716904Y-144481428D01*
X129716904Y-144290952D01*
X129755000Y-144176666D01*
X129831190Y-144100476D01*
X129907380Y-144062380D01*
X130059761Y-144024285D01*
X130174047Y-144024285D01*
X130326428Y-144062380D01*
X130402619Y-144100476D01*
X130478809Y-144176666D01*
X130516904Y-144290952D01*
X130516904Y-144481428D01*
X130516904Y-143262380D02*
X130516904Y-143719523D01*
X130516904Y-143490952D02*
X129716904Y-143490952D01*
X129831190Y-143567142D01*
X129907380Y-143643333D01*
X129945476Y-143719523D01*
X129716904Y-142538571D02*
X129716904Y-142919523D01*
X130097857Y-142957619D01*
X130059761Y-142919523D01*
X130021666Y-142843333D01*
X130021666Y-142652857D01*
X130059761Y-142576666D01*
X130097857Y-142538571D01*
X130174047Y-142500476D01*
X130364523Y-142500476D01*
X130440714Y-142538571D01*
X130478809Y-142576666D01*
X130516904Y-142652857D01*
X130516904Y-142843333D01*
X130478809Y-142919523D01*
X130440714Y-142957619D01*
G04 #@! TO.C,SW2*
X97939761Y-110801333D02*
X97987380Y-110658476D01*
X97987380Y-110420380D01*
X97939761Y-110325142D01*
X97892142Y-110277523D01*
X97796904Y-110229904D01*
X97701666Y-110229904D01*
X97606428Y-110277523D01*
X97558809Y-110325142D01*
X97511190Y-110420380D01*
X97463571Y-110610857D01*
X97415952Y-110706095D01*
X97368333Y-110753714D01*
X97273095Y-110801333D01*
X97177857Y-110801333D01*
X97082619Y-110753714D01*
X97035000Y-110706095D01*
X96987380Y-110610857D01*
X96987380Y-110372761D01*
X97035000Y-110229904D01*
X96987380Y-109896571D02*
X97987380Y-109658476D01*
X97273095Y-109468000D01*
X97987380Y-109277523D01*
X96987380Y-109039428D01*
X97082619Y-108706095D02*
X97035000Y-108658476D01*
X96987380Y-108563238D01*
X96987380Y-108325142D01*
X97035000Y-108229904D01*
X97082619Y-108182285D01*
X97177857Y-108134666D01*
X97273095Y-108134666D01*
X97415952Y-108182285D01*
X97987380Y-108753714D01*
X97987380Y-108134666D01*
G04 #@! TO.C,SW3*
X116989761Y-110801333D02*
X117037380Y-110658476D01*
X117037380Y-110420380D01*
X116989761Y-110325142D01*
X116942142Y-110277523D01*
X116846904Y-110229904D01*
X116751666Y-110229904D01*
X116656428Y-110277523D01*
X116608809Y-110325142D01*
X116561190Y-110420380D01*
X116513571Y-110610857D01*
X116465952Y-110706095D01*
X116418333Y-110753714D01*
X116323095Y-110801333D01*
X116227857Y-110801333D01*
X116132619Y-110753714D01*
X116085000Y-110706095D01*
X116037380Y-110610857D01*
X116037380Y-110372761D01*
X116085000Y-110229904D01*
X116037380Y-109896571D02*
X117037380Y-109658476D01*
X116323095Y-109468000D01*
X117037380Y-109277523D01*
X116037380Y-109039428D01*
X116037380Y-108753714D02*
X116037380Y-108134666D01*
X116418333Y-108468000D01*
X116418333Y-108325142D01*
X116465952Y-108229904D01*
X116513571Y-108182285D01*
X116608809Y-108134666D01*
X116846904Y-108134666D01*
X116942142Y-108182285D01*
X116989761Y-108229904D01*
X117037380Y-108325142D01*
X117037380Y-108610857D01*
X116989761Y-108706095D01*
X116942142Y-108753714D01*
G04 #@! TO.C,SW4*
X136039761Y-110801333D02*
X136087380Y-110658476D01*
X136087380Y-110420380D01*
X136039761Y-110325142D01*
X135992142Y-110277523D01*
X135896904Y-110229904D01*
X135801666Y-110229904D01*
X135706428Y-110277523D01*
X135658809Y-110325142D01*
X135611190Y-110420380D01*
X135563571Y-110610857D01*
X135515952Y-110706095D01*
X135468333Y-110753714D01*
X135373095Y-110801333D01*
X135277857Y-110801333D01*
X135182619Y-110753714D01*
X135135000Y-110706095D01*
X135087380Y-110610857D01*
X135087380Y-110372761D01*
X135135000Y-110229904D01*
X135087380Y-109896571D02*
X136087380Y-109658476D01*
X135373095Y-109468000D01*
X136087380Y-109277523D01*
X135087380Y-109039428D01*
X135420714Y-108229904D02*
X136087380Y-108229904D01*
X135039761Y-108468000D02*
X135754047Y-108706095D01*
X135754047Y-108087047D01*
G04 #@! TD*
M02*
