M48
;DRILL file {KiCad (5.0.0)} date 05/09/20 15:13:40
;FORMAT={-:-/ absolute / inch / decimal}
FMAT,2
INCH,TZ
T1C0.0157
T2C0.0276
T3C0.0394
T4C0.0472
T5C0.0579
T6C0.0591
%
G90
G05
M72
T1
X3.05Y-3.75
X3.05Y-4.5
X3.05Y-5.25
X3.05Y-5.9
X3.1Y-5.95
X3.17Y-3.26
X3.19Y-5.87
X3.265Y-4.865
X3.325Y-4.12
X3.425Y-4.12
X3.495Y-3.67
X3.51Y-4.855
X3.715Y-3.355
X3.72Y-3.24
X3.885Y-4.865
X4.065Y-4.13
X4.16Y-4.855
X4.195Y-4.135
X4.205Y-3.7
X4.33Y-3.25
X4.535Y-4.85
X4.675Y-3.25
X4.84Y-4.845
X4.94Y-3.69
X4.97Y-4.15
X5.12Y-5.195
X5.245Y-3.255
X5.355Y-4.65
X5.5825Y-5.2175
X5.635Y-4.655
X5.69Y-4.875
X5.82Y-3.275
X5.82Y-4.96
X5.9Y-3.05
X5.9Y-5.95
X5.95Y-3.1
X5.95Y-3.75
X5.95Y-5.25
X5.95Y-5.9
T2
X5.7Y-3.2465
X5.7Y-3.5535
X3.75Y-5.4965
X3.75Y-5.8035
X5.Y-3.2465
X5.Y-3.5535
X4.2Y-3.2465
X4.2Y-3.5535
X4.1Y-3.2465
X4.1Y-3.5535
X3.5Y-3.2465
X3.5Y-3.5535
X5.6Y-3.2465
X5.6Y-3.5535
X5.3Y-5.4965
X5.3Y-5.8035
X4.5Y-5.4965
X4.5Y-5.8035
X4.Y-3.2465
X4.Y-3.5535
X3.3Y-3.2465
X3.3Y-3.5535
X4.9Y-3.2465
X4.9Y-3.5535
X5.2Y-5.4965
X5.2Y-5.8035
X4.8Y-3.2465
X4.8Y-3.5535
X5.5Y-3.2465
X5.5Y-3.5535
X3.4Y-3.2465
X3.4Y-3.5535
T3
X3.05Y-5.4875
X3.05Y-5.5875
X3.05Y-5.6875
X3.05Y-5.7875
X5.95Y-3.2375
X5.95Y-3.3375
X5.95Y-3.4375
X5.95Y-3.5375
X5.95Y-5.4875
X5.95Y-5.5875
X5.95Y-5.6875
X5.95Y-5.7875
X3.05Y-4.7375
X3.05Y-4.8375
X3.05Y-4.9375
X3.05Y-5.0375
X3.275Y-3.8491
X3.275Y-4.42
X3.3734Y-4.42
X3.4719Y-3.8491
X3.4719Y-4.42
X3.05Y-3.9875
X3.05Y-4.0875
X3.05Y-4.1875
X3.05Y-4.2875
X5.525Y-3.8491
X5.525Y-4.42
X5.6234Y-4.42
X5.7219Y-3.8491
X5.7219Y-4.42
X3.05Y-3.2375
X3.05Y-3.3375
X3.05Y-3.4375
X3.05Y-3.5375
X4.775Y-3.8491
X4.775Y-4.42
X4.8734Y-4.42
X4.9719Y-3.8491
X4.9719Y-4.42
X5.95Y-4.7375
X5.95Y-4.8375
X5.95Y-4.9375
X5.95Y-5.0375
X4.025Y-3.8491
X4.025Y-4.42
X4.1234Y-4.42
X4.2219Y-3.8491
X4.2219Y-4.42
X5.95Y-3.9875
X5.95Y-4.0875
X5.95Y-4.1875
X5.95Y-4.2875
T4
X3.9281Y-5.7746
X4.125Y-5.8573
X5.4281Y-5.7746
X5.625Y-5.8573
X4.6781Y-5.7746
X4.875Y-5.8573
X3.1781Y-5.7746
X3.375Y-5.8573
T5
X4.025Y-5.825
X4.0266Y-5.8022
X4.2234Y-5.7825
X4.275Y-5.725
X5.525Y-5.825
X5.5266Y-5.8022
X5.7234Y-5.7825
X5.775Y-5.725
X4.775Y-5.825
X4.7766Y-5.8022
X4.9734Y-5.7825
X5.025Y-5.725
X3.275Y-5.825
X3.2766Y-5.8022
X3.4734Y-5.7825
X3.525Y-5.725
T6
X3.153Y-4.1503G85X3.153Y-4.0991
G05
X3.5939Y-4.1503G85X3.5939Y-4.0991
G05
X5.403Y-4.1503G85X5.403Y-4.0991
G05
X5.8439Y-4.1503G85X5.8439Y-4.0991
G05
X4.653Y-4.1503G85X4.653Y-4.0991
G05
X5.0939Y-4.1503G85X5.0939Y-4.0991
G05
X3.903Y-4.1503G85X3.903Y-4.0991
G05
X4.3439Y-4.1503G85X4.3439Y-4.0991
G05
T0
M30
