G04 #@! TF.GenerationSoftware,KiCad,Pcbnew,(5.0.0)*
G04 #@! TF.CreationDate,2020-05-09T15:13:36-06:00*
G04 #@! TF.ProjectId,4x4_backpack,3478345F6261636B7061636B2E6B6963,rev?*
G04 #@! TF.SameCoordinates,Original*
G04 #@! TF.FileFunction,Copper,L2,Bot,Signal*
G04 #@! TF.FilePolarity,Positive*
%FSLAX46Y46*%
G04 Gerber Fmt 4.6, Leading zero omitted, Abs format (unit mm)*
G04 Created by KiCad (PCBNEW (5.0.0)) date 05/09/20 15:13:36*
%MOMM*%
%LPD*%
G01*
G04 APERTURE LIST*
G04 #@! TA.AperFunction,ComponentPad*
%ADD10R,2.000000X2.000000*%
G04 #@! TD*
G04 #@! TA.AperFunction,ComponentPad*
%ADD11C,2.000000*%
G04 #@! TD*
G04 #@! TA.AperFunction,ComponentPad*
%ADD12R,2.000000X3.200000*%
G04 #@! TD*
G04 #@! TA.AperFunction,ComponentPad*
%ADD13C,2.250000*%
G04 #@! TD*
G04 #@! TA.AperFunction,Conductor*
%ADD14C,2.250000*%
G04 #@! TD*
G04 #@! TA.AperFunction,ComponentPad*
%ADD15C,1.600000*%
G04 #@! TD*
G04 #@! TA.AperFunction,ComponentPad*
%ADD16R,1.600000X1.600000*%
G04 #@! TD*
G04 #@! TA.AperFunction,Conductor*
%ADD17R,0.500000X2.500000*%
G04 #@! TD*
G04 #@! TA.AperFunction,SMDPad,CuDef*
%ADD18R,1.200000X1.200000*%
G04 #@! TD*
G04 #@! TA.AperFunction,ComponentPad*
%ADD19R,1.700000X1.700000*%
G04 #@! TD*
G04 #@! TA.AperFunction,ComponentPad*
%ADD20O,1.700000X1.700000*%
G04 #@! TD*
G04 #@! TA.AperFunction,ViaPad*
%ADD21C,0.800000*%
G04 #@! TD*
G04 #@! TA.AperFunction,Conductor*
%ADD22C,0.250000*%
G04 #@! TD*
G04 #@! TA.AperFunction,Conductor*
%ADD23C,0.254000*%
G04 #@! TD*
G04 APERTURE END LIST*
D10*
G04 #@! TO.P,SW1,A*
G04 #@! TO.N,Net-(D1-Pad2)*
X83185000Y-112268000D03*
D11*
G04 #@! TO.P,SW1,C*
G04 #@! TO.N,COL1*
X85685000Y-112268000D03*
G04 #@! TO.P,SW1,B*
G04 #@! TO.N,Net-(D5-Pad2)*
X88185000Y-112268000D03*
D12*
G04 #@! TO.P,SW1,MP*
G04 #@! TO.N,N/C*
X80085000Y-104768000D03*
X91285000Y-104768000D03*
D11*
G04 #@! TO.P,SW1,S2*
G04 #@! TO.N,Net-(D9-Pad2)*
X83185000Y-97768000D03*
G04 #@! TO.P,SW1,S1*
G04 #@! TO.N,COL1*
X88185000Y-97768000D03*
G04 #@! TD*
G04 #@! TO.P,S16,1*
G04 #@! TO.N,Net-(D16-Pad2)*
X142875000Y-148775000D03*
G04 #@! TO.P,S16,2*
G04 #@! TO.N,COL4*
X137875000Y-146675000D03*
D13*
G04 #@! TO.P,S16,1*
G04 #@! TO.N,Net-(D16-Pad2)*
X145375000Y-146875000D03*
X146030005Y-146145004D03*
D14*
G04 #@! TD*
G04 #@! TO.N,Net-(D16-Pad2)*
G04 #@! TO.C,S16*
X146685000Y-145415000D02*
X145375010Y-146875008D01*
D13*
G04 #@! TO.P,S16,2*
G04 #@! TO.N,COL4*
X140335000Y-147955000D03*
X140355229Y-147665016D03*
D14*
G04 #@! TD*
G04 #@! TO.N,COL4*
G04 #@! TO.C,S16*
X140375000Y-147375000D02*
X140335458Y-147955032D01*
D15*
G04 #@! TO.P,D16,2*
G04 #@! TO.N,Net-(D16-Pad2)*
X134620000Y-147410000D03*
D16*
G04 #@! TO.P,D16,1*
G04 #@! TO.N,ROW4*
X134620000Y-139610000D03*
D17*
G04 #@! TD*
G04 #@! TO.N,Net-(D16-Pad2)*
G04 #@! TO.C,D16*
X134620000Y-146210000D03*
D18*
G04 #@! TO.P,D16,2*
G04 #@! TO.N,Net-(D16-Pad2)*
X134620000Y-145085000D03*
G04 #@! TO.P,D16,1*
G04 #@! TO.N,ROW4*
X134620000Y-141935000D03*
D17*
G04 #@! TD*
G04 #@! TO.N,ROW4*
G04 #@! TO.C,D16*
X134620000Y-140810000D03*
D15*
G04 #@! TO.P,D2,2*
G04 #@! TO.N,Net-(D2-Pad2)*
X104140000Y-90260000D03*
D16*
G04 #@! TO.P,D2,1*
G04 #@! TO.N,ROW1*
X104140000Y-82460000D03*
D17*
G04 #@! TD*
G04 #@! TO.N,Net-(D2-Pad2)*
G04 #@! TO.C,D2*
X104140000Y-89060000D03*
D18*
G04 #@! TO.P,D2,2*
G04 #@! TO.N,Net-(D2-Pad2)*
X104140000Y-87935000D03*
G04 #@! TO.P,D2,1*
G04 #@! TO.N,ROW1*
X104140000Y-84785000D03*
D17*
G04 #@! TD*
G04 #@! TO.N,ROW1*
G04 #@! TO.C,D2*
X104140000Y-83660000D03*
D19*
G04 #@! TO.P,J1,1*
G04 #@! TO.N,ROW1*
X77470000Y-82232500D03*
D20*
G04 #@! TO.P,J1,2*
G04 #@! TO.N,ROW2*
X77470000Y-84772500D03*
G04 #@! TO.P,J1,3*
G04 #@! TO.N,ROW3*
X77470000Y-87312500D03*
G04 #@! TO.P,J1,4*
G04 #@! TO.N,ROW4*
X77470000Y-89852500D03*
G04 #@! TD*
G04 #@! TO.P,J2,4*
G04 #@! TO.N,COL4*
X77470000Y-108902500D03*
G04 #@! TO.P,J2,3*
G04 #@! TO.N,COL3*
X77470000Y-106362500D03*
G04 #@! TO.P,J2,2*
G04 #@! TO.N,COL2*
X77470000Y-103822500D03*
D19*
G04 #@! TO.P,J2,1*
G04 #@! TO.N,COL1*
X77470000Y-101282500D03*
G04 #@! TD*
G04 #@! TO.P,J3,1*
G04 #@! TO.N,COL5*
X77470000Y-120332500D03*
D20*
G04 #@! TO.P,J3,2*
G04 #@! TO.N,COL6*
X77470000Y-122872500D03*
G04 #@! TO.P,J3,3*
G04 #@! TO.N,COL7*
X77470000Y-125412500D03*
G04 #@! TO.P,J3,4*
G04 #@! TO.N,COL8*
X77470000Y-127952500D03*
G04 #@! TD*
G04 #@! TO.P,J4,4*
G04 #@! TO.N,COL12*
X77470000Y-147002500D03*
G04 #@! TO.P,J4,3*
G04 #@! TO.N,COL11*
X77470000Y-144462500D03*
G04 #@! TO.P,J4,2*
G04 #@! TO.N,COL10*
X77470000Y-141922500D03*
D19*
G04 #@! TO.P,J4,1*
G04 #@! TO.N,COL9*
X77470000Y-139382500D03*
G04 #@! TD*
G04 #@! TO.P,J5,1*
G04 #@! TO.N,ROW1*
X151130000Y-82232500D03*
D20*
G04 #@! TO.P,J5,2*
G04 #@! TO.N,ROW2*
X151130000Y-84772500D03*
G04 #@! TO.P,J5,3*
G04 #@! TO.N,ROW3*
X151130000Y-87312500D03*
G04 #@! TO.P,J5,4*
G04 #@! TO.N,ROW4*
X151130000Y-89852500D03*
G04 #@! TD*
G04 #@! TO.P,J6,4*
G04 #@! TO.N,COL8*
X151130000Y-108902500D03*
G04 #@! TO.P,J6,3*
G04 #@! TO.N,COL7*
X151130000Y-106362500D03*
G04 #@! TO.P,J6,2*
G04 #@! TO.N,COL6*
X151130000Y-103822500D03*
D19*
G04 #@! TO.P,J6,1*
G04 #@! TO.N,COL5*
X151130000Y-101282500D03*
G04 #@! TD*
G04 #@! TO.P,J7,1*
G04 #@! TO.N,COL9*
X151130000Y-120332500D03*
D20*
G04 #@! TO.P,J7,2*
G04 #@! TO.N,COL10*
X151130000Y-122872500D03*
G04 #@! TO.P,J7,3*
G04 #@! TO.N,COL11*
X151130000Y-125412500D03*
G04 #@! TO.P,J7,4*
G04 #@! TO.N,COL12*
X151130000Y-127952500D03*
G04 #@! TD*
G04 #@! TO.P,J8,4*
G04 #@! TO.N,N/C*
X151130000Y-147002500D03*
G04 #@! TO.P,J8,3*
X151130000Y-144462500D03*
G04 #@! TO.P,J8,2*
X151130000Y-141922500D03*
D19*
G04 #@! TO.P,J8,1*
X151130000Y-139382500D03*
G04 #@! TD*
D15*
G04 #@! TO.P,D1,2*
G04 #@! TO.N,Net-(D1-Pad2)*
X86360000Y-90260000D03*
D16*
G04 #@! TO.P,D1,1*
G04 #@! TO.N,ROW1*
X86360000Y-82460000D03*
D17*
G04 #@! TD*
G04 #@! TO.N,Net-(D1-Pad2)*
G04 #@! TO.C,D1*
X86360000Y-89060000D03*
D18*
G04 #@! TO.P,D1,2*
G04 #@! TO.N,Net-(D1-Pad2)*
X86360000Y-87935000D03*
G04 #@! TO.P,D1,1*
G04 #@! TO.N,ROW1*
X86360000Y-84785000D03*
D17*
G04 #@! TD*
G04 #@! TO.N,ROW1*
G04 #@! TO.C,D1*
X86360000Y-83660000D03*
G04 #@! TO.N,ROW1*
G04 #@! TO.C,D3*
X124460000Y-83660000D03*
D18*
G04 #@! TD*
G04 #@! TO.P,D3,1*
G04 #@! TO.N,ROW1*
X124460000Y-84785000D03*
G04 #@! TO.P,D3,2*
G04 #@! TO.N,Net-(D3-Pad2)*
X124460000Y-87935000D03*
D17*
G04 #@! TD*
G04 #@! TO.N,Net-(D3-Pad2)*
G04 #@! TO.C,D3*
X124460000Y-89060000D03*
D16*
G04 #@! TO.P,D3,1*
G04 #@! TO.N,ROW1*
X124460000Y-82460000D03*
D15*
G04 #@! TO.P,D3,2*
G04 #@! TO.N,Net-(D3-Pad2)*
X124460000Y-90260000D03*
G04 #@! TD*
D17*
G04 #@! TO.N,ROW1*
G04 #@! TO.C,D4*
X142240000Y-83660000D03*
D18*
G04 #@! TD*
G04 #@! TO.P,D4,1*
G04 #@! TO.N,ROW1*
X142240000Y-84785000D03*
G04 #@! TO.P,D4,2*
G04 #@! TO.N,Net-(D4-Pad2)*
X142240000Y-87935000D03*
D17*
G04 #@! TD*
G04 #@! TO.N,Net-(D4-Pad2)*
G04 #@! TO.C,D4*
X142240000Y-89060000D03*
D16*
G04 #@! TO.P,D4,1*
G04 #@! TO.N,ROW1*
X142240000Y-82460000D03*
D15*
G04 #@! TO.P,D4,2*
G04 #@! TO.N,Net-(D4-Pad2)*
X142240000Y-90260000D03*
G04 #@! TD*
G04 #@! TO.P,D5,2*
G04 #@! TO.N,Net-(D5-Pad2)*
X88900000Y-90260000D03*
D16*
G04 #@! TO.P,D5,1*
G04 #@! TO.N,ROW2*
X88900000Y-82460000D03*
D17*
G04 #@! TD*
G04 #@! TO.N,Net-(D5-Pad2)*
G04 #@! TO.C,D5*
X88900000Y-89060000D03*
D18*
G04 #@! TO.P,D5,2*
G04 #@! TO.N,Net-(D5-Pad2)*
X88900000Y-87935000D03*
G04 #@! TO.P,D5,1*
G04 #@! TO.N,ROW2*
X88900000Y-84785000D03*
D17*
G04 #@! TD*
G04 #@! TO.N,ROW2*
G04 #@! TO.C,D5*
X88900000Y-83660000D03*
G04 #@! TO.N,ROW2*
G04 #@! TO.C,D6*
X106680000Y-83660000D03*
D18*
G04 #@! TD*
G04 #@! TO.P,D6,1*
G04 #@! TO.N,ROW2*
X106680000Y-84785000D03*
G04 #@! TO.P,D6,2*
G04 #@! TO.N,Net-(D6-Pad2)*
X106680000Y-87935000D03*
D17*
G04 #@! TD*
G04 #@! TO.N,Net-(D6-Pad2)*
G04 #@! TO.C,D6*
X106680000Y-89060000D03*
D16*
G04 #@! TO.P,D6,1*
G04 #@! TO.N,ROW2*
X106680000Y-82460000D03*
D15*
G04 #@! TO.P,D6,2*
G04 #@! TO.N,Net-(D6-Pad2)*
X106680000Y-90260000D03*
G04 #@! TD*
G04 #@! TO.P,D7,2*
G04 #@! TO.N,Net-(D7-Pad2)*
X127000000Y-90260000D03*
D16*
G04 #@! TO.P,D7,1*
G04 #@! TO.N,ROW2*
X127000000Y-82460000D03*
D17*
G04 #@! TD*
G04 #@! TO.N,Net-(D7-Pad2)*
G04 #@! TO.C,D7*
X127000000Y-89060000D03*
D18*
G04 #@! TO.P,D7,2*
G04 #@! TO.N,Net-(D7-Pad2)*
X127000000Y-87935000D03*
G04 #@! TO.P,D7,1*
G04 #@! TO.N,ROW2*
X127000000Y-84785000D03*
D17*
G04 #@! TD*
G04 #@! TO.N,ROW2*
G04 #@! TO.C,D7*
X127000000Y-83660000D03*
G04 #@! TO.N,ROW2*
G04 #@! TO.C,D8*
X144780000Y-83660000D03*
D18*
G04 #@! TD*
G04 #@! TO.P,D8,1*
G04 #@! TO.N,ROW2*
X144780000Y-84785000D03*
G04 #@! TO.P,D8,2*
G04 #@! TO.N,Net-(D8-Pad2)*
X144780000Y-87935000D03*
D17*
G04 #@! TD*
G04 #@! TO.N,Net-(D8-Pad2)*
G04 #@! TO.C,D8*
X144780000Y-89060000D03*
D16*
G04 #@! TO.P,D8,1*
G04 #@! TO.N,ROW2*
X144780000Y-82460000D03*
D15*
G04 #@! TO.P,D8,2*
G04 #@! TO.N,Net-(D8-Pad2)*
X144780000Y-90260000D03*
G04 #@! TD*
D17*
G04 #@! TO.N,ROW3*
G04 #@! TO.C,D9*
X83820000Y-83660000D03*
D18*
G04 #@! TD*
G04 #@! TO.P,D9,1*
G04 #@! TO.N,ROW3*
X83820000Y-84785000D03*
G04 #@! TO.P,D9,2*
G04 #@! TO.N,Net-(D9-Pad2)*
X83820000Y-87935000D03*
D17*
G04 #@! TD*
G04 #@! TO.N,Net-(D9-Pad2)*
G04 #@! TO.C,D9*
X83820000Y-89060000D03*
D16*
G04 #@! TO.P,D9,1*
G04 #@! TO.N,ROW3*
X83820000Y-82460000D03*
D15*
G04 #@! TO.P,D9,2*
G04 #@! TO.N,Net-(D9-Pad2)*
X83820000Y-90260000D03*
G04 #@! TD*
G04 #@! TO.P,D10,2*
G04 #@! TO.N,Net-(D10-Pad2)*
X101600000Y-90260000D03*
D16*
G04 #@! TO.P,D10,1*
G04 #@! TO.N,ROW3*
X101600000Y-82460000D03*
D17*
G04 #@! TD*
G04 #@! TO.N,Net-(D10-Pad2)*
G04 #@! TO.C,D10*
X101600000Y-89060000D03*
D18*
G04 #@! TO.P,D10,2*
G04 #@! TO.N,Net-(D10-Pad2)*
X101600000Y-87935000D03*
G04 #@! TO.P,D10,1*
G04 #@! TO.N,ROW3*
X101600000Y-84785000D03*
D17*
G04 #@! TD*
G04 #@! TO.N,ROW3*
G04 #@! TO.C,D10*
X101600000Y-83660000D03*
G04 #@! TO.N,ROW3*
G04 #@! TO.C,D11*
X121920000Y-83660000D03*
D18*
G04 #@! TD*
G04 #@! TO.P,D11,1*
G04 #@! TO.N,ROW3*
X121920000Y-84785000D03*
G04 #@! TO.P,D11,2*
G04 #@! TO.N,Net-(D11-Pad2)*
X121920000Y-87935000D03*
D17*
G04 #@! TD*
G04 #@! TO.N,Net-(D11-Pad2)*
G04 #@! TO.C,D11*
X121920000Y-89060000D03*
D16*
G04 #@! TO.P,D11,1*
G04 #@! TO.N,ROW3*
X121920000Y-82460000D03*
D15*
G04 #@! TO.P,D11,2*
G04 #@! TO.N,Net-(D11-Pad2)*
X121920000Y-90260000D03*
G04 #@! TD*
G04 #@! TO.P,D12,2*
G04 #@! TO.N,Net-(D12-Pad2)*
X139700000Y-90260000D03*
D16*
G04 #@! TO.P,D12,1*
G04 #@! TO.N,ROW3*
X139700000Y-82460000D03*
D17*
G04 #@! TD*
G04 #@! TO.N,Net-(D12-Pad2)*
G04 #@! TO.C,D12*
X139700000Y-89060000D03*
D18*
G04 #@! TO.P,D12,2*
G04 #@! TO.N,Net-(D12-Pad2)*
X139700000Y-87935000D03*
G04 #@! TO.P,D12,1*
G04 #@! TO.N,ROW3*
X139700000Y-84785000D03*
D17*
G04 #@! TD*
G04 #@! TO.N,ROW3*
G04 #@! TO.C,D12*
X139700000Y-83660000D03*
D15*
G04 #@! TO.P,D13,2*
G04 #@! TO.N,Net-(D13-Pad2)*
X95250000Y-147410000D03*
D16*
G04 #@! TO.P,D13,1*
G04 #@! TO.N,ROW4*
X95250000Y-139610000D03*
D17*
G04 #@! TD*
G04 #@! TO.N,Net-(D13-Pad2)*
G04 #@! TO.C,D13*
X95250000Y-146210000D03*
D18*
G04 #@! TO.P,D13,2*
G04 #@! TO.N,Net-(D13-Pad2)*
X95250000Y-145085000D03*
G04 #@! TO.P,D13,1*
G04 #@! TO.N,ROW4*
X95250000Y-141935000D03*
D17*
G04 #@! TD*
G04 #@! TO.N,ROW4*
G04 #@! TO.C,D13*
X95250000Y-140810000D03*
G04 #@! TO.N,ROW4*
G04 #@! TO.C,D14*
X114300000Y-140810000D03*
D18*
G04 #@! TD*
G04 #@! TO.P,D14,1*
G04 #@! TO.N,ROW4*
X114300000Y-141935000D03*
G04 #@! TO.P,D14,2*
G04 #@! TO.N,Net-(D14-Pad2)*
X114300000Y-145085000D03*
D17*
G04 #@! TD*
G04 #@! TO.N,Net-(D14-Pad2)*
G04 #@! TO.C,D14*
X114300000Y-146210000D03*
D16*
G04 #@! TO.P,D14,1*
G04 #@! TO.N,ROW4*
X114300000Y-139610000D03*
D15*
G04 #@! TO.P,D14,2*
G04 #@! TO.N,Net-(D14-Pad2)*
X114300000Y-147410000D03*
G04 #@! TD*
D17*
G04 #@! TO.N,ROW4*
G04 #@! TO.C,D15*
X132080000Y-140810000D03*
D18*
G04 #@! TD*
G04 #@! TO.P,D15,1*
G04 #@! TO.N,ROW4*
X132080000Y-141935000D03*
G04 #@! TO.P,D15,2*
G04 #@! TO.N,Net-(D15-Pad2)*
X132080000Y-145085000D03*
D17*
G04 #@! TD*
G04 #@! TO.N,Net-(D15-Pad2)*
G04 #@! TO.C,D15*
X132080000Y-146210000D03*
D16*
G04 #@! TO.P,D15,1*
G04 #@! TO.N,ROW4*
X132080000Y-139610000D03*
D15*
G04 #@! TO.P,D15,2*
G04 #@! TO.N,Net-(D15-Pad2)*
X132080000Y-147410000D03*
G04 #@! TD*
D11*
G04 #@! TO.P,S13,1*
G04 #@! TO.N,Net-(D13-Pad2)*
X85725000Y-148775000D03*
G04 #@! TO.P,S13,2*
G04 #@! TO.N,COL1*
X80725000Y-146675000D03*
D13*
G04 #@! TO.P,S13,1*
G04 #@! TO.N,Net-(D13-Pad2)*
X88225000Y-146875000D03*
X88880005Y-146145004D03*
D14*
G04 #@! TD*
G04 #@! TO.N,Net-(D13-Pad2)*
G04 #@! TO.C,S13*
X89535000Y-145415000D02*
X88225010Y-146875008D01*
D13*
G04 #@! TO.P,S13,2*
G04 #@! TO.N,COL1*
X83185000Y-147955000D03*
X83205229Y-147665016D03*
D14*
G04 #@! TD*
G04 #@! TO.N,COL1*
G04 #@! TO.C,S13*
X83225000Y-147375000D02*
X83185458Y-147955032D01*
D11*
G04 #@! TO.P,S14,1*
G04 #@! TO.N,Net-(D14-Pad2)*
X104775000Y-148775000D03*
G04 #@! TO.P,S14,2*
G04 #@! TO.N,COL2*
X99775000Y-146675000D03*
D13*
G04 #@! TO.P,S14,1*
G04 #@! TO.N,Net-(D14-Pad2)*
X107275000Y-146875000D03*
X107930005Y-146145004D03*
D14*
G04 #@! TD*
G04 #@! TO.N,Net-(D14-Pad2)*
G04 #@! TO.C,S14*
X108585000Y-145415000D02*
X107275010Y-146875008D01*
D13*
G04 #@! TO.P,S14,2*
G04 #@! TO.N,COL2*
X102235000Y-147955000D03*
X102255229Y-147665016D03*
D14*
G04 #@! TD*
G04 #@! TO.N,COL2*
G04 #@! TO.C,S14*
X102275000Y-147375000D02*
X102235458Y-147955032D01*
D13*
G04 #@! TO.P,S15,2*
G04 #@! TO.N,COL3*
X121305229Y-147665016D03*
D14*
G04 #@! TD*
G04 #@! TO.N,COL3*
G04 #@! TO.C,S15*
X121325000Y-147375000D02*
X121285458Y-147955032D01*
D13*
G04 #@! TO.P,S15,2*
G04 #@! TO.N,COL3*
X121285000Y-147955000D03*
G04 #@! TO.P,S15,1*
G04 #@! TO.N,Net-(D15-Pad2)*
X126980005Y-146145004D03*
D14*
G04 #@! TD*
G04 #@! TO.N,Net-(D15-Pad2)*
G04 #@! TO.C,S15*
X127635000Y-145415000D02*
X126325010Y-146875008D01*
D13*
G04 #@! TO.P,S15,1*
G04 #@! TO.N,Net-(D15-Pad2)*
X126325000Y-146875000D03*
D11*
G04 #@! TO.P,S15,2*
G04 #@! TO.N,COL3*
X118825000Y-146675000D03*
G04 #@! TO.P,S15,1*
G04 #@! TO.N,Net-(D15-Pad2)*
X123825000Y-148775000D03*
G04 #@! TD*
G04 #@! TO.P,SW2,S1*
G04 #@! TO.N,COL2*
X107235000Y-97768000D03*
G04 #@! TO.P,SW2,S2*
G04 #@! TO.N,Net-(D10-Pad2)*
X102235000Y-97768000D03*
D12*
G04 #@! TO.P,SW2,MP*
G04 #@! TO.N,N/C*
X110335000Y-104768000D03*
X99135000Y-104768000D03*
D11*
G04 #@! TO.P,SW2,B*
G04 #@! TO.N,Net-(D6-Pad2)*
X107235000Y-112268000D03*
G04 #@! TO.P,SW2,C*
G04 #@! TO.N,COL2*
X104735000Y-112268000D03*
D10*
G04 #@! TO.P,SW2,A*
G04 #@! TO.N,Net-(D2-Pad2)*
X102235000Y-112268000D03*
G04 #@! TD*
G04 #@! TO.P,SW3,A*
G04 #@! TO.N,Net-(D3-Pad2)*
X121285000Y-112268000D03*
D11*
G04 #@! TO.P,SW3,C*
G04 #@! TO.N,COL3*
X123785000Y-112268000D03*
G04 #@! TO.P,SW3,B*
G04 #@! TO.N,Net-(D7-Pad2)*
X126285000Y-112268000D03*
D12*
G04 #@! TO.P,SW3,MP*
G04 #@! TO.N,N/C*
X118185000Y-104768000D03*
X129385000Y-104768000D03*
D11*
G04 #@! TO.P,SW3,S2*
G04 #@! TO.N,Net-(D11-Pad2)*
X121285000Y-97768000D03*
G04 #@! TO.P,SW3,S1*
G04 #@! TO.N,COL3*
X126285000Y-97768000D03*
G04 #@! TD*
G04 #@! TO.P,SW4,S1*
G04 #@! TO.N,COL4*
X145335000Y-97768000D03*
G04 #@! TO.P,SW4,S2*
G04 #@! TO.N,Net-(D12-Pad2)*
X140335000Y-97768000D03*
D12*
G04 #@! TO.P,SW4,MP*
G04 #@! TO.N,N/C*
X148435000Y-104768000D03*
X137235000Y-104768000D03*
D11*
G04 #@! TO.P,SW4,B*
G04 #@! TO.N,Net-(D8-Pad2)*
X145335000Y-112268000D03*
G04 #@! TO.P,SW4,C*
G04 #@! TO.N,COL4*
X142835000Y-112268000D03*
D10*
G04 #@! TO.P,SW4,A*
G04 #@! TO.N,Net-(D4-Pad2)*
X140335000Y-112268000D03*
G04 #@! TD*
D21*
G04 #@! TO.N,GND*
X130048000Y-131953000D03*
X81026000Y-149098000D03*
X141795500Y-132524500D03*
X77470000Y-149860000D03*
X78740000Y-151130000D03*
X151130000Y-149860000D03*
X149860000Y-151130000D03*
X151130000Y-78740000D03*
X149860000Y-77470000D03*
X77470000Y-95250000D03*
X77470000Y-114300000D03*
X77470000Y-133350000D03*
X151130000Y-133350000D03*
X151130000Y-95250000D03*
X125476000Y-93726000D03*
X106807000Y-93980000D03*
X88773000Y-93218000D03*
X86995000Y-104648000D03*
X84455000Y-104648000D03*
X106553000Y-105029000D03*
X103251000Y-104902000D03*
X126238000Y-105410000D03*
X144526000Y-123825000D03*
X147828000Y-125984000D03*
X143129000Y-118237000D03*
X136017000Y-118110000D03*
X115189000Y-123190000D03*
X122936000Y-123063000D03*
X105664000Y-123317000D03*
X98679000Y-123571000D03*
X89154000Y-123317000D03*
X82931000Y-123571000D03*
X94361000Y-85217000D03*
X80518000Y-82804000D03*
X94488000Y-82296000D03*
X109982000Y-82550000D03*
X118745000Y-82550000D03*
X133223000Y-82677000D03*
X147828000Y-83185000D03*
G04 #@! TD*
D22*
G04 #@! TO.N,ROW3*
X77470000Y-87312500D02*
X79057500Y-87312500D01*
X81585000Y-84785000D02*
X83820000Y-84785000D01*
X79057500Y-87312500D02*
X81585000Y-84785000D01*
X121070000Y-84785000D02*
X121920000Y-84785000D01*
X120144999Y-85710001D02*
X121070000Y-84785000D01*
X102650001Y-85710001D02*
X120144999Y-85710001D01*
X101600000Y-84660000D02*
X102650001Y-85710001D01*
X101600000Y-83660000D02*
X101600000Y-84660000D01*
X138850000Y-84785000D02*
X139700000Y-84785000D01*
X137924999Y-85710001D02*
X138850000Y-84785000D01*
X122970001Y-85710001D02*
X137924999Y-85710001D01*
X121920000Y-84660000D02*
X122970001Y-85710001D01*
X121920000Y-83660000D02*
X121920000Y-84660000D01*
X149923500Y-86106000D02*
X151130000Y-87312500D01*
X141146000Y-86106000D02*
X149923500Y-86106000D01*
X139700000Y-83660000D02*
X139700000Y-84660000D01*
X139700000Y-84660000D02*
X141146000Y-86106000D01*
X100750000Y-84785000D02*
X101600000Y-84785000D01*
X99429000Y-86106000D02*
X100750000Y-84785000D01*
X85266000Y-86106000D02*
X99429000Y-86106000D01*
X83820000Y-83660000D02*
X83820000Y-84660000D01*
X83820000Y-84660000D02*
X85266000Y-86106000D01*
G04 #@! TO.N,ROW4*
X150280001Y-89002501D02*
X149835501Y-89002501D01*
X151130000Y-89852500D02*
X150280001Y-89002501D01*
X149835501Y-89002501D02*
X147389010Y-86556010D01*
X79057500Y-89852500D02*
X77470000Y-89852500D01*
X82353990Y-86556010D02*
X79057500Y-89852500D01*
X95250000Y-86810010D02*
X94996000Y-86556010D01*
X95250000Y-139610000D02*
X95250000Y-86810010D01*
X147389010Y-86556010D02*
X94996000Y-86556010D01*
X94996000Y-86556010D02*
X82353990Y-86556010D01*
G04 #@! TO.N,COL5*
X151130000Y-101282500D02*
X150178910Y-101282500D01*
X150030000Y-101282500D02*
X151130000Y-101282500D01*
X77470000Y-120332500D02*
X83374090Y-120332500D01*
G04 #@! TO.N,COL6*
X77470000Y-122872500D02*
X77470000Y-122553590D01*
G04 #@! TO.N,Net-(D8-Pad2)*
X145415000Y-112077500D02*
X145415000Y-112776000D01*
G04 #@! TO.N,COL9*
X151130000Y-120332500D02*
X151130000Y-118364000D01*
X78570000Y-139382500D02*
X77470000Y-139382500D01*
G04 #@! TO.N,COL4*
X145335000Y-109768000D02*
X142835000Y-112268000D01*
X145335000Y-97768000D02*
X145335000Y-109768000D01*
X140375000Y-147375000D02*
X140375000Y-145201000D01*
X140375000Y-145201000D02*
X139700000Y-144526000D01*
X139700000Y-115403000D02*
X142835000Y-112268000D01*
X139700000Y-144526000D02*
X139700000Y-115403000D01*
G04 #@! TO.N,COL3*
X123785000Y-100268000D02*
X126285000Y-97768000D01*
X123785000Y-112268000D02*
X123785000Y-100268000D01*
X121325000Y-147375000D02*
X121325000Y-145582000D01*
X121325000Y-145582000D02*
X120396000Y-144653000D01*
X120396000Y-115657000D02*
X123785000Y-112268000D01*
X120396000Y-144653000D02*
X120396000Y-115657000D01*
G04 #@! TO.N,COL2*
X104735000Y-100268000D02*
X107235000Y-97768000D01*
X104735000Y-112268000D02*
X104735000Y-100268000D01*
X100774999Y-145675001D02*
X100774999Y-144843001D01*
X99775000Y-146675000D02*
X100774999Y-145675001D01*
X100774999Y-144843001D02*
X101727000Y-143891000D01*
X101727000Y-115276000D02*
X104735000Y-112268000D01*
X101727000Y-143891000D02*
X101727000Y-115276000D01*
G04 #@! TO.N,COL1*
X77470000Y-101282500D02*
X77787500Y-100965000D01*
X85685000Y-100268000D02*
X88185000Y-97768000D01*
X85685000Y-112268000D02*
X85685000Y-100268000D01*
X83225000Y-147375000D02*
X83225000Y-144947000D01*
X83225000Y-144947000D02*
X82423000Y-144145000D01*
X82423000Y-144145000D02*
X82423000Y-137287000D01*
X85685000Y-134025000D02*
X85685000Y-112268000D01*
X82423000Y-137287000D02*
X85685000Y-134025000D01*
G04 #@! TO.N,Net-(D1-Pad2)*
X86360000Y-91391370D02*
X86360000Y-90260000D01*
X86360000Y-98956590D02*
X86360000Y-91391370D01*
X83185000Y-102131590D02*
X86360000Y-98956590D01*
X83185000Y-112268000D02*
X83185000Y-102131590D01*
G04 #@! TO.N,Net-(D2-Pad2)*
X104140000Y-90260000D02*
X104140000Y-98933000D01*
X102235000Y-100838000D02*
X102235000Y-112268000D01*
X104140000Y-98933000D02*
X102235000Y-100838000D01*
G04 #@! TO.N,Net-(D3-Pad2)*
X121285000Y-111018000D02*
X121285000Y-112268000D01*
X123334991Y-108968009D02*
X121285000Y-111018000D01*
X123334991Y-91385009D02*
X123334991Y-108968009D01*
X124460000Y-90260000D02*
X123334991Y-91385009D01*
G04 #@! TO.N,Net-(D4-Pad2)*
X143039999Y-91059999D02*
X143039999Y-108313001D01*
X142240000Y-90260000D02*
X143039999Y-91059999D01*
X143039999Y-108313001D02*
X140335000Y-111018000D01*
X140335000Y-111018000D02*
X140335000Y-112268000D01*
G04 #@! TO.N,Net-(D5-Pad2)*
X90170000Y-91530000D02*
X88900000Y-90260000D01*
X90170000Y-99060000D02*
X90170000Y-91530000D01*
X88185000Y-112268000D02*
X88185000Y-101045000D01*
X88185000Y-101045000D02*
X90170000Y-99060000D01*
G04 #@! TO.N,Net-(D6-Pad2)*
X109093000Y-92673000D02*
X106680000Y-90260000D01*
X109093000Y-99060000D02*
X109093000Y-92673000D01*
X108234999Y-99918001D02*
X109093000Y-99060000D01*
X107235000Y-112268000D02*
X108234999Y-111268001D01*
X108234999Y-111268001D02*
X108234999Y-99918001D01*
G04 #@! TO.N,Net-(D7-Pad2)*
X126285000Y-110853787D02*
X127635000Y-109503787D01*
X126285000Y-112268000D02*
X126285000Y-110853787D01*
X127000000Y-91391370D02*
X127000000Y-90260000D01*
X127635000Y-92026370D02*
X127000000Y-91391370D01*
X127635000Y-109503787D02*
X127635000Y-92026370D01*
G04 #@! TO.N,Net-(D8-Pad2)*
X146267000Y-90260000D02*
X144780000Y-90260000D01*
X149987000Y-93980000D02*
X146267000Y-90260000D01*
X146334999Y-111268001D02*
X146334999Y-101442001D01*
X146334999Y-101442001D02*
X147320000Y-100457000D01*
X147320000Y-100457000D02*
X147320000Y-99695000D01*
X147320000Y-99695000D02*
X149987000Y-97028000D01*
X145335000Y-112268000D02*
X146334999Y-111268001D01*
X149987000Y-97028000D02*
X149987000Y-93980000D01*
G04 #@! TO.N,Net-(D9-Pad2)*
X83820000Y-97133000D02*
X83820000Y-90260000D01*
X83185000Y-97768000D02*
X83820000Y-97133000D01*
G04 #@! TO.N,Net-(D10-Pad2)*
X101600000Y-97133000D02*
X102235000Y-97768000D01*
X101600000Y-90260000D02*
X101600000Y-97133000D01*
G04 #@! TO.N,Net-(D11-Pad2)*
X121920000Y-97133000D02*
X121285000Y-97768000D01*
X121920000Y-90260000D02*
X121920000Y-97133000D01*
G04 #@! TO.N,Net-(D12-Pad2)*
X139700000Y-97133000D02*
X140335000Y-97768000D01*
X139700000Y-90260000D02*
X139700000Y-97133000D01*
G04 #@! TD*
D23*
G04 #@! TO.N,GND*
G36*
X94490000Y-138162560D02*
X94450000Y-138162560D01*
X94202235Y-138211843D01*
X93992191Y-138352191D01*
X93851843Y-138562235D01*
X93802560Y-138810000D01*
X93802560Y-140410000D01*
X93851843Y-140657765D01*
X93992191Y-140867809D01*
X94134793Y-140963093D01*
X94051843Y-141087235D01*
X94002560Y-141335000D01*
X94002560Y-142535000D01*
X94051843Y-142782765D01*
X94192191Y-142992809D01*
X94402235Y-143133157D01*
X94650000Y-143182440D01*
X95850000Y-143182440D01*
X96097765Y-143133157D01*
X96307809Y-142992809D01*
X96448157Y-142782765D01*
X96497440Y-142535000D01*
X96497440Y-141335000D01*
X96448157Y-141087235D01*
X96365207Y-140963093D01*
X96507809Y-140867809D01*
X96648157Y-140657765D01*
X96697440Y-140410000D01*
X96697440Y-138810000D01*
X96648157Y-138562235D01*
X96507809Y-138352191D01*
X96297765Y-138211843D01*
X96050000Y-138162560D01*
X96010000Y-138162560D01*
X96010000Y-103168000D01*
X97487560Y-103168000D01*
X97487560Y-106368000D01*
X97536843Y-106615765D01*
X97677191Y-106825809D01*
X97887235Y-106966157D01*
X98135000Y-107015440D01*
X100135000Y-107015440D01*
X100382765Y-106966157D01*
X100592809Y-106825809D01*
X100733157Y-106615765D01*
X100782440Y-106368000D01*
X100782440Y-103168000D01*
X100733157Y-102920235D01*
X100592809Y-102710191D01*
X100382765Y-102569843D01*
X100135000Y-102520560D01*
X98135000Y-102520560D01*
X97887235Y-102569843D01*
X97677191Y-102710191D01*
X97536843Y-102920235D01*
X97487560Y-103168000D01*
X96010000Y-103168000D01*
X96010000Y-87316010D01*
X100356337Y-87316010D01*
X100352560Y-87335000D01*
X100352560Y-88535000D01*
X100401843Y-88782765D01*
X100542191Y-88992809D01*
X100702560Y-89099965D01*
X100702560Y-89128044D01*
X100383466Y-89447138D01*
X100165000Y-89974561D01*
X100165000Y-90545439D01*
X100383466Y-91072862D01*
X100787138Y-91476534D01*
X100840000Y-91498430D01*
X100840001Y-96863365D01*
X100600000Y-97442778D01*
X100600000Y-98093222D01*
X100848914Y-98694153D01*
X101308847Y-99154086D01*
X101909778Y-99403000D01*
X102560222Y-99403000D01*
X102619931Y-99378268D01*
X101750530Y-100247669D01*
X101687071Y-100290071D01*
X101519096Y-100541464D01*
X101475000Y-100763149D01*
X101475000Y-100763153D01*
X101460112Y-100838000D01*
X101475000Y-100912847D01*
X101475001Y-110620560D01*
X101235000Y-110620560D01*
X100987235Y-110669843D01*
X100777191Y-110810191D01*
X100636843Y-111020235D01*
X100587560Y-111268000D01*
X100587560Y-113268000D01*
X100636843Y-113515765D01*
X100777191Y-113725809D01*
X100987235Y-113866157D01*
X101235000Y-113915440D01*
X102012758Y-113915440D01*
X101242528Y-114685671D01*
X101179072Y-114728071D01*
X101136672Y-114791527D01*
X101136671Y-114791528D01*
X101011097Y-114979463D01*
X100952112Y-115276000D01*
X100967001Y-115350852D01*
X100967000Y-142011538D01*
X100550346Y-141594884D01*
X99995358Y-141365000D01*
X99394642Y-141365000D01*
X99334287Y-141390000D01*
X98979615Y-141390000D01*
X98433815Y-141616078D01*
X98016078Y-142033815D01*
X97790000Y-142579615D01*
X97790000Y-143170385D01*
X98016078Y-143716185D01*
X98433815Y-144133922D01*
X98979615Y-144360000D01*
X99334287Y-144360000D01*
X99394642Y-144385000D01*
X99995358Y-144385000D01*
X100250897Y-144279152D01*
X100227071Y-144295072D01*
X100184671Y-144358528D01*
X100184670Y-144358529D01*
X100166983Y-144385000D01*
X100059096Y-144546464D01*
X100014999Y-144768149D01*
X100014999Y-144768154D01*
X100000111Y-144843001D01*
X100014999Y-144917848D01*
X100014999Y-145040000D01*
X99449778Y-145040000D01*
X98848847Y-145288914D01*
X98388914Y-145748847D01*
X98140000Y-146349778D01*
X98140000Y-147000222D01*
X98388914Y-147601153D01*
X98848847Y-148061086D01*
X99449778Y-148310000D01*
X100100222Y-148310000D01*
X100475000Y-148154762D01*
X100475000Y-148305086D01*
X100520065Y-148413883D01*
X100534708Y-148527400D01*
X100651088Y-148730201D01*
X100742944Y-148951960D01*
X100826026Y-149035042D01*
X100883205Y-149134680D01*
X101069015Y-149278031D01*
X101238040Y-149447056D01*
X101346145Y-149491835D01*
X101437571Y-149562369D01*
X101665266Y-149624019D01*
X101884914Y-149715000D01*
X102001292Y-149715000D01*
X102113408Y-149745356D01*
X102348741Y-149715000D01*
X102585086Y-149715000D01*
X102691973Y-149670726D01*
X102807826Y-149655782D01*
X103014801Y-149537006D01*
X103231960Y-149447056D01*
X103268520Y-149410496D01*
X103388914Y-149701153D01*
X103848847Y-150161086D01*
X104449778Y-150410000D01*
X105100222Y-150410000D01*
X105701153Y-150161086D01*
X106161086Y-149701153D01*
X106410000Y-149100222D01*
X106410000Y-148449778D01*
X106395969Y-148415904D01*
X106485631Y-148453043D01*
X106678955Y-148567602D01*
X106806193Y-148585824D01*
X106924914Y-148635000D01*
X107149572Y-148635000D01*
X107372053Y-148666862D01*
X107496598Y-148635000D01*
X107625086Y-148635000D01*
X107832621Y-148549036D01*
X108050378Y-148493328D01*
X108153258Y-148416224D01*
X108271960Y-148367056D01*
X108430791Y-148208225D01*
X108469235Y-148179413D01*
X108553344Y-148085672D01*
X108767056Y-147871960D01*
X108785886Y-147826499D01*
X109415699Y-147124561D01*
X112865000Y-147124561D01*
X112865000Y-147695439D01*
X113083466Y-148222862D01*
X113487138Y-148626534D01*
X114014561Y-148845000D01*
X114585439Y-148845000D01*
X115112862Y-148626534D01*
X115516534Y-148222862D01*
X115735000Y-147695439D01*
X115735000Y-147124561D01*
X115516534Y-146597138D01*
X115197440Y-146278044D01*
X115197440Y-146249965D01*
X115357809Y-146142809D01*
X115498157Y-145932765D01*
X115547440Y-145685000D01*
X115547440Y-144485000D01*
X115498157Y-144237235D01*
X115357809Y-144027191D01*
X115147765Y-143886843D01*
X114900000Y-143837560D01*
X113700000Y-143837560D01*
X113452235Y-143886843D01*
X113242191Y-144027191D01*
X113101843Y-144237235D01*
X113052560Y-144485000D01*
X113052560Y-145685000D01*
X113101843Y-145932765D01*
X113242191Y-146142809D01*
X113402560Y-146249965D01*
X113402560Y-146278044D01*
X113083466Y-146597138D01*
X112865000Y-147124561D01*
X109415699Y-147124561D01*
X110010752Y-146461365D01*
X110277594Y-146011056D01*
X110376854Y-145317957D01*
X110203320Y-144639631D01*
X110012485Y-144385000D01*
X110155358Y-144385000D01*
X110215713Y-144360000D01*
X110570385Y-144360000D01*
X111116185Y-144133922D01*
X111533922Y-143716185D01*
X111760000Y-143170385D01*
X111760000Y-142579615D01*
X111533922Y-142033815D01*
X111116185Y-141616078D01*
X110570385Y-141390000D01*
X110215713Y-141390000D01*
X110155358Y-141365000D01*
X109554642Y-141365000D01*
X108999654Y-141594884D01*
X108574884Y-142019654D01*
X108345000Y-142574642D01*
X108345000Y-143175358D01*
X108533162Y-143629620D01*
X108487956Y-143623146D01*
X107809631Y-143796680D01*
X107390775Y-144110595D01*
X105996999Y-145663985D01*
X105782944Y-145878040D01*
X105696917Y-146085728D01*
X105582416Y-146278953D01*
X105564203Y-146406127D01*
X105515000Y-146524914D01*
X105515000Y-146749695D01*
X105483156Y-146972051D01*
X105515000Y-147096526D01*
X105515000Y-147225086D01*
X105558360Y-147329767D01*
X105100222Y-147140000D01*
X104449778Y-147140000D01*
X104041103Y-147309279D01*
X103975750Y-146802633D01*
X103627253Y-146195353D01*
X103072887Y-145767663D01*
X102397050Y-145584676D01*
X101702632Y-145674250D01*
X101530374Y-145773103D01*
X101534999Y-145749853D01*
X101534999Y-145749849D01*
X101549887Y-145675002D01*
X101534999Y-145600155D01*
X101534999Y-145157802D01*
X102211473Y-144481329D01*
X102274929Y-144438929D01*
X102317924Y-144374582D01*
X102442904Y-144187538D01*
X102452723Y-144138174D01*
X102546326Y-144364152D01*
X103285848Y-145103674D01*
X104252079Y-145503900D01*
X105297921Y-145503900D01*
X106264152Y-145103674D01*
X107003674Y-144364152D01*
X107403900Y-143397921D01*
X107403900Y-142352079D01*
X107003674Y-141385848D01*
X106264152Y-140646326D01*
X105297921Y-140246100D01*
X104252079Y-140246100D01*
X103285848Y-140646326D01*
X102546326Y-141385848D01*
X102487000Y-141529074D01*
X102487000Y-138469126D01*
X108960000Y-138469126D01*
X108960000Y-138880874D01*
X109117569Y-139261280D01*
X109408720Y-139552431D01*
X109789126Y-139710000D01*
X110200874Y-139710000D01*
X110581280Y-139552431D01*
X110872431Y-139261280D01*
X111030000Y-138880874D01*
X111030000Y-138810000D01*
X112852560Y-138810000D01*
X112852560Y-140410000D01*
X112901843Y-140657765D01*
X113042191Y-140867809D01*
X113184793Y-140963093D01*
X113101843Y-141087235D01*
X113052560Y-141335000D01*
X113052560Y-142535000D01*
X113101843Y-142782765D01*
X113242191Y-142992809D01*
X113452235Y-143133157D01*
X113700000Y-143182440D01*
X114900000Y-143182440D01*
X115147765Y-143133157D01*
X115357809Y-142992809D01*
X115498157Y-142782765D01*
X115547440Y-142535000D01*
X115547440Y-141335000D01*
X115498157Y-141087235D01*
X115415207Y-140963093D01*
X115557809Y-140867809D01*
X115698157Y-140657765D01*
X115747440Y-140410000D01*
X115747440Y-138810000D01*
X115698157Y-138562235D01*
X115557809Y-138352191D01*
X115347765Y-138211843D01*
X115100000Y-138162560D01*
X113500000Y-138162560D01*
X113252235Y-138211843D01*
X113042191Y-138352191D01*
X112901843Y-138562235D01*
X112852560Y-138810000D01*
X111030000Y-138810000D01*
X111030000Y-138469126D01*
X110872431Y-138088720D01*
X110581280Y-137797569D01*
X110200874Y-137640000D01*
X109789126Y-137640000D01*
X109408720Y-137797569D01*
X109117569Y-138088720D01*
X108960000Y-138469126D01*
X102487000Y-138469126D01*
X102487000Y-134701868D01*
X108555737Y-134701868D01*
X108666641Y-134979099D01*
X109312593Y-135222323D01*
X110002453Y-135199836D01*
X110535359Y-134979099D01*
X110646263Y-134701868D01*
X109601000Y-133656605D01*
X108555737Y-134701868D01*
X102487000Y-134701868D01*
X102487000Y-133188593D01*
X107855677Y-133188593D01*
X107878164Y-133878453D01*
X108098901Y-134411359D01*
X108376132Y-134522263D01*
X109421395Y-133477000D01*
X109780605Y-133477000D01*
X110825868Y-134522263D01*
X111103099Y-134411359D01*
X111346323Y-133765407D01*
X111323836Y-133075547D01*
X111103099Y-132542641D01*
X110825868Y-132431737D01*
X109780605Y-133477000D01*
X109421395Y-133477000D01*
X108376132Y-132431737D01*
X108098901Y-132542641D01*
X107855677Y-133188593D01*
X102487000Y-133188593D01*
X102487000Y-132252132D01*
X108555737Y-132252132D01*
X109601000Y-133297395D01*
X110646263Y-132252132D01*
X110535359Y-131974901D01*
X109889407Y-131731677D01*
X109199547Y-131754164D01*
X108666641Y-131974901D01*
X108555737Y-132252132D01*
X102487000Y-132252132D01*
X102487000Y-115590801D01*
X104243625Y-113834177D01*
X104409778Y-113903000D01*
X105060222Y-113903000D01*
X105661153Y-113654086D01*
X105985000Y-113330239D01*
X106308847Y-113654086D01*
X106909778Y-113903000D01*
X107560222Y-113903000D01*
X108161153Y-113654086D01*
X108621086Y-113194153D01*
X108870000Y-112593222D01*
X108870000Y-111942778D01*
X108804244Y-111784029D01*
X108950903Y-111564538D01*
X108994999Y-111342853D01*
X108994999Y-111342849D01*
X109009887Y-111268002D01*
X108994999Y-111193155D01*
X108994999Y-106904526D01*
X109087235Y-106966157D01*
X109335000Y-107015440D01*
X111335000Y-107015440D01*
X111582765Y-106966157D01*
X111792809Y-106825809D01*
X111933157Y-106615765D01*
X111982440Y-106368000D01*
X111982440Y-103168000D01*
X116537560Y-103168000D01*
X116537560Y-106368000D01*
X116586843Y-106615765D01*
X116727191Y-106825809D01*
X116937235Y-106966157D01*
X117185000Y-107015440D01*
X119185000Y-107015440D01*
X119432765Y-106966157D01*
X119642809Y-106825809D01*
X119783157Y-106615765D01*
X119832440Y-106368000D01*
X119832440Y-103168000D01*
X119783157Y-102920235D01*
X119642809Y-102710191D01*
X119432765Y-102569843D01*
X119185000Y-102520560D01*
X117185000Y-102520560D01*
X116937235Y-102569843D01*
X116727191Y-102710191D01*
X116586843Y-102920235D01*
X116537560Y-103168000D01*
X111982440Y-103168000D01*
X111933157Y-102920235D01*
X111792809Y-102710191D01*
X111582765Y-102569843D01*
X111335000Y-102520560D01*
X109335000Y-102520560D01*
X109087235Y-102569843D01*
X108994999Y-102631474D01*
X108994999Y-100232802D01*
X109577473Y-99650329D01*
X109640929Y-99607929D01*
X109683924Y-99543582D01*
X109808904Y-99356538D01*
X109829473Y-99253128D01*
X109853000Y-99134852D01*
X109853000Y-99134848D01*
X109867888Y-99060000D01*
X109853000Y-98985152D01*
X109853000Y-95088593D01*
X117380677Y-95088593D01*
X117403164Y-95778453D01*
X117623901Y-96311359D01*
X117901132Y-96422263D01*
X118946395Y-95377000D01*
X117901132Y-94331737D01*
X117623901Y-94442641D01*
X117380677Y-95088593D01*
X109853000Y-95088593D01*
X109853000Y-94152132D01*
X118080737Y-94152132D01*
X119126000Y-95197395D01*
X120171263Y-94152132D01*
X120060359Y-93874901D01*
X119414407Y-93631677D01*
X118724547Y-93654164D01*
X118191641Y-93874901D01*
X118080737Y-94152132D01*
X109853000Y-94152132D01*
X109853000Y-92747846D01*
X109867888Y-92672999D01*
X109853000Y-92598152D01*
X109853000Y-92598148D01*
X109808904Y-92376463D01*
X109761079Y-92304888D01*
X109683329Y-92188526D01*
X109683327Y-92188524D01*
X109640929Y-92125071D01*
X109577476Y-92082673D01*
X108093104Y-90598302D01*
X108115000Y-90545439D01*
X108115000Y-89974561D01*
X107896534Y-89447138D01*
X107577440Y-89128044D01*
X107577440Y-89099965D01*
X107737809Y-88992809D01*
X107878157Y-88782765D01*
X107927440Y-88535000D01*
X107927440Y-87335000D01*
X107923663Y-87316010D01*
X120676337Y-87316010D01*
X120672560Y-87335000D01*
X120672560Y-88535000D01*
X120721843Y-88782765D01*
X120862191Y-88992809D01*
X121022560Y-89099965D01*
X121022560Y-89128044D01*
X120703466Y-89447138D01*
X120485000Y-89974561D01*
X120485000Y-90545439D01*
X120703466Y-91072862D01*
X121107138Y-91476534D01*
X121160000Y-91498430D01*
X121160001Y-96133000D01*
X120959778Y-96133000D01*
X120646378Y-96262815D01*
X120871323Y-95665407D01*
X120848836Y-94975547D01*
X120628099Y-94442641D01*
X120350868Y-94331737D01*
X119305605Y-95377000D01*
X119319748Y-95391143D01*
X119140143Y-95570748D01*
X119126000Y-95556605D01*
X118080737Y-96601868D01*
X118191641Y-96879099D01*
X118837593Y-97122323D01*
X119527453Y-97099836D01*
X119846852Y-96967537D01*
X119650000Y-97442778D01*
X119650000Y-98093222D01*
X119898914Y-98694153D01*
X120358847Y-99154086D01*
X120959778Y-99403000D01*
X121610222Y-99403000D01*
X122211153Y-99154086D01*
X122574991Y-98790248D01*
X122574992Y-108653206D01*
X120800530Y-110427669D01*
X120737071Y-110470071D01*
X120636518Y-110620560D01*
X120285000Y-110620560D01*
X120037235Y-110669843D01*
X119827191Y-110810191D01*
X119686843Y-111020235D01*
X119637560Y-111268000D01*
X119637560Y-113268000D01*
X119686843Y-113515765D01*
X119827191Y-113725809D01*
X120037235Y-113866157D01*
X120285000Y-113915440D01*
X121062759Y-113915440D01*
X119911528Y-115066671D01*
X119848072Y-115109071D01*
X119805672Y-115172527D01*
X119805671Y-115172528D01*
X119680097Y-115360463D01*
X119621112Y-115657000D01*
X119636001Y-115731852D01*
X119636000Y-141630538D01*
X119600346Y-141594884D01*
X119045358Y-141365000D01*
X118444642Y-141365000D01*
X118384287Y-141390000D01*
X118029615Y-141390000D01*
X117483815Y-141616078D01*
X117066078Y-142033815D01*
X116840000Y-142579615D01*
X116840000Y-143170385D01*
X117066078Y-143716185D01*
X117483815Y-144133922D01*
X118029615Y-144360000D01*
X118384287Y-144360000D01*
X118444642Y-144385000D01*
X119045358Y-144385000D01*
X119600346Y-144155116D01*
X119636000Y-144119462D01*
X119636000Y-144578153D01*
X119621112Y-144653000D01*
X119636000Y-144727847D01*
X119636000Y-144727851D01*
X119680096Y-144949536D01*
X119848071Y-145200929D01*
X119911529Y-145243331D01*
X120492010Y-145823812D01*
X120290126Y-145939667D01*
X120211086Y-145748847D01*
X119751153Y-145288914D01*
X119150222Y-145040000D01*
X118499778Y-145040000D01*
X117898847Y-145288914D01*
X117438914Y-145748847D01*
X117190000Y-146349778D01*
X117190000Y-147000222D01*
X117438914Y-147601153D01*
X117898847Y-148061086D01*
X118499778Y-148310000D01*
X119150222Y-148310000D01*
X119525000Y-148154762D01*
X119525000Y-148305086D01*
X119570065Y-148413883D01*
X119584708Y-148527400D01*
X119701088Y-148730201D01*
X119792944Y-148951960D01*
X119876026Y-149035042D01*
X119933205Y-149134680D01*
X120119015Y-149278031D01*
X120288040Y-149447056D01*
X120396145Y-149491835D01*
X120487571Y-149562369D01*
X120715266Y-149624019D01*
X120934914Y-149715000D01*
X121051292Y-149715000D01*
X121163408Y-149745356D01*
X121398741Y-149715000D01*
X121635086Y-149715000D01*
X121741973Y-149670726D01*
X121857826Y-149655782D01*
X122064801Y-149537006D01*
X122281960Y-149447056D01*
X122318520Y-149410496D01*
X122438914Y-149701153D01*
X122898847Y-150161086D01*
X123499778Y-150410000D01*
X124150222Y-150410000D01*
X124751153Y-150161086D01*
X125211086Y-149701153D01*
X125460000Y-149100222D01*
X125460000Y-148449778D01*
X125445969Y-148415904D01*
X125535631Y-148453043D01*
X125728955Y-148567602D01*
X125856193Y-148585824D01*
X125974914Y-148635000D01*
X126199572Y-148635000D01*
X126422053Y-148666862D01*
X126546598Y-148635000D01*
X126675086Y-148635000D01*
X126882621Y-148549036D01*
X127100378Y-148493328D01*
X127203258Y-148416224D01*
X127321960Y-148367056D01*
X127480791Y-148208225D01*
X127519235Y-148179413D01*
X127603344Y-148085672D01*
X127817056Y-147871960D01*
X127835886Y-147826499D01*
X128465699Y-147124561D01*
X130645000Y-147124561D01*
X130645000Y-147695439D01*
X130863466Y-148222862D01*
X131267138Y-148626534D01*
X131794561Y-148845000D01*
X132365439Y-148845000D01*
X132892862Y-148626534D01*
X133296534Y-148222862D01*
X133350000Y-148093784D01*
X133403466Y-148222862D01*
X133807138Y-148626534D01*
X134334561Y-148845000D01*
X134905439Y-148845000D01*
X135432862Y-148626534D01*
X135836534Y-148222862D01*
X136055000Y-147695439D01*
X136055000Y-147124561D01*
X135836534Y-146597138D01*
X135517440Y-146278044D01*
X135517440Y-146249965D01*
X135677809Y-146142809D01*
X135818157Y-145932765D01*
X135867440Y-145685000D01*
X135867440Y-144485000D01*
X135818157Y-144237235D01*
X135677809Y-144027191D01*
X135467765Y-143886843D01*
X135220000Y-143837560D01*
X134020000Y-143837560D01*
X133772235Y-143886843D01*
X133562191Y-144027191D01*
X133421843Y-144237235D01*
X133372560Y-144485000D01*
X133372560Y-145685000D01*
X133421843Y-145932765D01*
X133562191Y-146142809D01*
X133722560Y-146249965D01*
X133722560Y-146278044D01*
X133403466Y-146597138D01*
X133350000Y-146726216D01*
X133296534Y-146597138D01*
X132977440Y-146278044D01*
X132977440Y-146249965D01*
X133137809Y-146142809D01*
X133278157Y-145932765D01*
X133327440Y-145685000D01*
X133327440Y-144485000D01*
X133278157Y-144237235D01*
X133137809Y-144027191D01*
X132927765Y-143886843D01*
X132680000Y-143837560D01*
X131480000Y-143837560D01*
X131232235Y-143886843D01*
X131022191Y-144027191D01*
X130881843Y-144237235D01*
X130832560Y-144485000D01*
X130832560Y-145685000D01*
X130881843Y-145932765D01*
X131022191Y-146142809D01*
X131182560Y-146249965D01*
X131182560Y-146278044D01*
X130863466Y-146597138D01*
X130645000Y-147124561D01*
X128465699Y-147124561D01*
X129060752Y-146461365D01*
X129327594Y-146011056D01*
X129426854Y-145317957D01*
X129253320Y-144639631D01*
X129062485Y-144385000D01*
X129205358Y-144385000D01*
X129265713Y-144360000D01*
X129620385Y-144360000D01*
X130166185Y-144133922D01*
X130583922Y-143716185D01*
X130810000Y-143170385D01*
X130810000Y-142579615D01*
X130583922Y-142033815D01*
X130166185Y-141616078D01*
X129620385Y-141390000D01*
X129265713Y-141390000D01*
X129205358Y-141365000D01*
X128604642Y-141365000D01*
X128049654Y-141594884D01*
X127624884Y-142019654D01*
X127395000Y-142574642D01*
X127395000Y-143175358D01*
X127583162Y-143629620D01*
X127537956Y-143623146D01*
X126859631Y-143796680D01*
X126440775Y-144110595D01*
X125046999Y-145663985D01*
X124832944Y-145878040D01*
X124746917Y-146085728D01*
X124632416Y-146278953D01*
X124614203Y-146406127D01*
X124565000Y-146524914D01*
X124565000Y-146749695D01*
X124533156Y-146972051D01*
X124565000Y-147096526D01*
X124565000Y-147225086D01*
X124608360Y-147329767D01*
X124150222Y-147140000D01*
X123499778Y-147140000D01*
X123091103Y-147309279D01*
X123025750Y-146802633D01*
X122677253Y-146195353D01*
X122122887Y-145767663D01*
X122085000Y-145757405D01*
X122085000Y-145656846D01*
X122099888Y-145581999D01*
X122085000Y-145507152D01*
X122085000Y-145507148D01*
X122040904Y-145285463D01*
X121943400Y-145139538D01*
X121915329Y-145097526D01*
X121915327Y-145097524D01*
X121872929Y-145034071D01*
X121809475Y-144991673D01*
X121156000Y-144338198D01*
X121156000Y-142352079D01*
X121196100Y-142352079D01*
X121196100Y-143397921D01*
X121596326Y-144364152D01*
X122335848Y-145103674D01*
X123302079Y-145503900D01*
X124347921Y-145503900D01*
X125314152Y-145103674D01*
X126053674Y-144364152D01*
X126453900Y-143397921D01*
X126453900Y-142352079D01*
X126053674Y-141385848D01*
X125314152Y-140646326D01*
X124347921Y-140246100D01*
X123302079Y-140246100D01*
X122335848Y-140646326D01*
X121596326Y-141385848D01*
X121196100Y-142352079D01*
X121156000Y-142352079D01*
X121156000Y-138469126D01*
X128010000Y-138469126D01*
X128010000Y-138880874D01*
X128167569Y-139261280D01*
X128458720Y-139552431D01*
X128839126Y-139710000D01*
X129250874Y-139710000D01*
X129631280Y-139552431D01*
X129922431Y-139261280D01*
X130080000Y-138880874D01*
X130080000Y-138810000D01*
X130632560Y-138810000D01*
X130632560Y-140410000D01*
X130681843Y-140657765D01*
X130822191Y-140867809D01*
X130964793Y-140963093D01*
X130881843Y-141087235D01*
X130832560Y-141335000D01*
X130832560Y-142535000D01*
X130881843Y-142782765D01*
X131022191Y-142992809D01*
X131232235Y-143133157D01*
X131480000Y-143182440D01*
X132680000Y-143182440D01*
X132927765Y-143133157D01*
X133137809Y-142992809D01*
X133278157Y-142782765D01*
X133327440Y-142535000D01*
X133327440Y-141335000D01*
X133278157Y-141087235D01*
X133195207Y-140963093D01*
X133337809Y-140867809D01*
X133350000Y-140849564D01*
X133362191Y-140867809D01*
X133504793Y-140963093D01*
X133421843Y-141087235D01*
X133372560Y-141335000D01*
X133372560Y-142535000D01*
X133421843Y-142782765D01*
X133562191Y-142992809D01*
X133772235Y-143133157D01*
X134020000Y-143182440D01*
X135220000Y-143182440D01*
X135467765Y-143133157D01*
X135677809Y-142992809D01*
X135818157Y-142782765D01*
X135867440Y-142535000D01*
X135867440Y-141335000D01*
X135818157Y-141087235D01*
X135735207Y-140963093D01*
X135877809Y-140867809D01*
X136018157Y-140657765D01*
X136067440Y-140410000D01*
X136067440Y-138810000D01*
X136018157Y-138562235D01*
X135877809Y-138352191D01*
X135667765Y-138211843D01*
X135420000Y-138162560D01*
X133820000Y-138162560D01*
X133572235Y-138211843D01*
X133362191Y-138352191D01*
X133350000Y-138370436D01*
X133337809Y-138352191D01*
X133127765Y-138211843D01*
X132880000Y-138162560D01*
X131280000Y-138162560D01*
X131032235Y-138211843D01*
X130822191Y-138352191D01*
X130681843Y-138562235D01*
X130632560Y-138810000D01*
X130080000Y-138810000D01*
X130080000Y-138469126D01*
X129922431Y-138088720D01*
X129631280Y-137797569D01*
X129250874Y-137640000D01*
X128839126Y-137640000D01*
X128458720Y-137797569D01*
X128167569Y-138088720D01*
X128010000Y-138469126D01*
X121156000Y-138469126D01*
X121156000Y-115971801D01*
X123293625Y-113834177D01*
X123459778Y-113903000D01*
X124110222Y-113903000D01*
X124711153Y-113654086D01*
X125035000Y-113330239D01*
X125358847Y-113654086D01*
X125959778Y-113903000D01*
X126610222Y-113903000D01*
X127211153Y-113654086D01*
X127671086Y-113194153D01*
X127920000Y-112593222D01*
X127920000Y-111942778D01*
X127671086Y-111341847D01*
X127271414Y-110942175D01*
X128119476Y-110094114D01*
X128182929Y-110051716D01*
X128225327Y-109988263D01*
X128225329Y-109988261D01*
X128350903Y-109800325D01*
X128350904Y-109800324D01*
X128395000Y-109578639D01*
X128395000Y-109578635D01*
X128409888Y-109503788D01*
X128395000Y-109428941D01*
X128395000Y-107015440D01*
X130385000Y-107015440D01*
X130632765Y-106966157D01*
X130842809Y-106825809D01*
X130983157Y-106615765D01*
X131032440Y-106368000D01*
X131032440Y-103168000D01*
X135587560Y-103168000D01*
X135587560Y-106368000D01*
X135636843Y-106615765D01*
X135777191Y-106825809D01*
X135987235Y-106966157D01*
X136235000Y-107015440D01*
X138235000Y-107015440D01*
X138482765Y-106966157D01*
X138692809Y-106825809D01*
X138833157Y-106615765D01*
X138882440Y-106368000D01*
X138882440Y-103168000D01*
X138833157Y-102920235D01*
X138692809Y-102710191D01*
X138482765Y-102569843D01*
X138235000Y-102520560D01*
X136235000Y-102520560D01*
X135987235Y-102569843D01*
X135777191Y-102710191D01*
X135636843Y-102920235D01*
X135587560Y-103168000D01*
X131032440Y-103168000D01*
X130983157Y-102920235D01*
X130842809Y-102710191D01*
X130632765Y-102569843D01*
X130385000Y-102520560D01*
X128395000Y-102520560D01*
X128395000Y-92101218D01*
X128409888Y-92026370D01*
X128395000Y-91951522D01*
X128395000Y-91951518D01*
X128350904Y-91729833D01*
X128182929Y-91478441D01*
X128119473Y-91436041D01*
X127986414Y-91302982D01*
X128216534Y-91072862D01*
X128435000Y-90545439D01*
X128435000Y-89974561D01*
X128216534Y-89447138D01*
X127897440Y-89128044D01*
X127897440Y-89099965D01*
X128057809Y-88992809D01*
X128198157Y-88782765D01*
X128247440Y-88535000D01*
X128247440Y-87335000D01*
X128243663Y-87316010D01*
X138456337Y-87316010D01*
X138452560Y-87335000D01*
X138452560Y-88535000D01*
X138501843Y-88782765D01*
X138642191Y-88992809D01*
X138802560Y-89099965D01*
X138802560Y-89128044D01*
X138483466Y-89447138D01*
X138265000Y-89974561D01*
X138265000Y-90545439D01*
X138483466Y-91072862D01*
X138887138Y-91476534D01*
X138940000Y-91498430D01*
X138940001Y-96863365D01*
X138700000Y-97442778D01*
X138700000Y-98093222D01*
X138948914Y-98694153D01*
X139408847Y-99154086D01*
X140009778Y-99403000D01*
X140660222Y-99403000D01*
X141261153Y-99154086D01*
X141721086Y-98694153D01*
X141970000Y-98093222D01*
X141970000Y-97442778D01*
X141721086Y-96841847D01*
X141261153Y-96381914D01*
X140660222Y-96133000D01*
X140460000Y-96133000D01*
X140460000Y-91498430D01*
X140512862Y-91476534D01*
X140916534Y-91072862D01*
X140970000Y-90943784D01*
X141023466Y-91072862D01*
X141427138Y-91476534D01*
X141954561Y-91695000D01*
X142279999Y-91695000D01*
X142280000Y-107998198D01*
X139850530Y-110427669D01*
X139787071Y-110470071D01*
X139686518Y-110620560D01*
X139335000Y-110620560D01*
X139087235Y-110669843D01*
X138877191Y-110810191D01*
X138736843Y-111020235D01*
X138687560Y-111268000D01*
X138687560Y-113268000D01*
X138736843Y-113515765D01*
X138877191Y-113725809D01*
X139087235Y-113866157D01*
X139335000Y-113915440D01*
X140112759Y-113915440D01*
X139215528Y-114812671D01*
X139152072Y-114855071D01*
X139109672Y-114918527D01*
X139109671Y-114918528D01*
X138984097Y-115106463D01*
X138925112Y-115403000D01*
X138940001Y-115477852D01*
X138940000Y-141884538D01*
X138650346Y-141594884D01*
X138095358Y-141365000D01*
X137494642Y-141365000D01*
X137434287Y-141390000D01*
X137079615Y-141390000D01*
X136533815Y-141616078D01*
X136116078Y-142033815D01*
X135890000Y-142579615D01*
X135890000Y-143170385D01*
X136116078Y-143716185D01*
X136533815Y-144133922D01*
X137079615Y-144360000D01*
X137434287Y-144360000D01*
X137494642Y-144385000D01*
X138095358Y-144385000D01*
X138650346Y-144155116D01*
X138940000Y-143865462D01*
X138940000Y-144451153D01*
X138925112Y-144526000D01*
X138940000Y-144600847D01*
X138940000Y-144600851D01*
X138984096Y-144822536D01*
X139152071Y-145073929D01*
X139215530Y-145116331D01*
X139615001Y-145515802D01*
X139615001Y-145781925D01*
X139340126Y-145939667D01*
X139261086Y-145748847D01*
X138801153Y-145288914D01*
X138200222Y-145040000D01*
X137549778Y-145040000D01*
X136948847Y-145288914D01*
X136488914Y-145748847D01*
X136240000Y-146349778D01*
X136240000Y-147000222D01*
X136488914Y-147601153D01*
X136948847Y-148061086D01*
X137549778Y-148310000D01*
X138200222Y-148310000D01*
X138575000Y-148154762D01*
X138575000Y-148305086D01*
X138620065Y-148413883D01*
X138634708Y-148527400D01*
X138751088Y-148730201D01*
X138842944Y-148951960D01*
X138926026Y-149035042D01*
X138983205Y-149134680D01*
X139169015Y-149278031D01*
X139338040Y-149447056D01*
X139446145Y-149491835D01*
X139537571Y-149562369D01*
X139765266Y-149624019D01*
X139984914Y-149715000D01*
X140101292Y-149715000D01*
X140213408Y-149745356D01*
X140448741Y-149715000D01*
X140685086Y-149715000D01*
X140791973Y-149670726D01*
X140907826Y-149655782D01*
X141114801Y-149537006D01*
X141331960Y-149447056D01*
X141368520Y-149410496D01*
X141488914Y-149701153D01*
X141948847Y-150161086D01*
X142549778Y-150410000D01*
X143200222Y-150410000D01*
X143801153Y-150161086D01*
X144261086Y-149701153D01*
X144510000Y-149100222D01*
X144510000Y-148449778D01*
X144495969Y-148415904D01*
X144585631Y-148453043D01*
X144778955Y-148567602D01*
X144906193Y-148585824D01*
X145024914Y-148635000D01*
X145249572Y-148635000D01*
X145472053Y-148666862D01*
X145596598Y-148635000D01*
X145725086Y-148635000D01*
X145932621Y-148549036D01*
X146150378Y-148493328D01*
X146253258Y-148416224D01*
X146371960Y-148367056D01*
X146530791Y-148208225D01*
X146569235Y-148179413D01*
X146653344Y-148085672D01*
X146867056Y-147871960D01*
X146885886Y-147826499D01*
X148110752Y-146461365D01*
X148377594Y-146011056D01*
X148476854Y-145317957D01*
X148303320Y-144639631D01*
X148112485Y-144385000D01*
X148255358Y-144385000D01*
X148315713Y-144360000D01*
X148670385Y-144360000D01*
X149216185Y-144133922D01*
X149633922Y-143716185D01*
X149860000Y-143170385D01*
X149860000Y-142694739D01*
X150059375Y-142993125D01*
X150357761Y-143192500D01*
X150059375Y-143391875D01*
X149731161Y-143883082D01*
X149615908Y-144462500D01*
X149731161Y-145041918D01*
X150059375Y-145533125D01*
X150357761Y-145732500D01*
X150059375Y-145931875D01*
X149731161Y-146423082D01*
X149615908Y-147002500D01*
X149731161Y-147581918D01*
X150059375Y-148073125D01*
X150550582Y-148401339D01*
X150983744Y-148487500D01*
X151276256Y-148487500D01*
X151690000Y-148405201D01*
X151690000Y-151690000D01*
X76910000Y-151690000D01*
X76910000Y-148405201D01*
X77323744Y-148487500D01*
X77616256Y-148487500D01*
X78049418Y-148401339D01*
X78540625Y-148073125D01*
X78868839Y-147581918D01*
X78984092Y-147002500D01*
X78868839Y-146423082D01*
X78540625Y-145931875D01*
X78242239Y-145732500D01*
X78540625Y-145533125D01*
X78868839Y-145041918D01*
X78984092Y-144462500D01*
X78868839Y-143883082D01*
X78540625Y-143391875D01*
X78242239Y-143192500D01*
X78540625Y-142993125D01*
X78740000Y-142694739D01*
X78740000Y-143170385D01*
X78966078Y-143716185D01*
X79383815Y-144133922D01*
X79929615Y-144360000D01*
X80284287Y-144360000D01*
X80344642Y-144385000D01*
X80945358Y-144385000D01*
X81500346Y-144155116D01*
X81663000Y-143992462D01*
X81663000Y-144070153D01*
X81648112Y-144145000D01*
X81663000Y-144219847D01*
X81663000Y-144219851D01*
X81707096Y-144441536D01*
X81875071Y-144692929D01*
X81938530Y-144735331D01*
X82465001Y-145261803D01*
X82465001Y-145781925D01*
X82190126Y-145939667D01*
X82111086Y-145748847D01*
X81651153Y-145288914D01*
X81050222Y-145040000D01*
X80399778Y-145040000D01*
X79798847Y-145288914D01*
X79338914Y-145748847D01*
X79090000Y-146349778D01*
X79090000Y-147000222D01*
X79338914Y-147601153D01*
X79798847Y-148061086D01*
X80399778Y-148310000D01*
X81050222Y-148310000D01*
X81425000Y-148154762D01*
X81425000Y-148305086D01*
X81470065Y-148413883D01*
X81484708Y-148527400D01*
X81601088Y-148730201D01*
X81692944Y-148951960D01*
X81776026Y-149035042D01*
X81833205Y-149134680D01*
X82019015Y-149278031D01*
X82188040Y-149447056D01*
X82296145Y-149491835D01*
X82387571Y-149562369D01*
X82615266Y-149624019D01*
X82834914Y-149715000D01*
X82951292Y-149715000D01*
X83063408Y-149745356D01*
X83298741Y-149715000D01*
X83535086Y-149715000D01*
X83641973Y-149670726D01*
X83757826Y-149655782D01*
X83964801Y-149537006D01*
X84181960Y-149447056D01*
X84218520Y-149410496D01*
X84338914Y-149701153D01*
X84798847Y-150161086D01*
X85399778Y-150410000D01*
X86050222Y-150410000D01*
X86651153Y-150161086D01*
X87111086Y-149701153D01*
X87360000Y-149100222D01*
X87360000Y-148449778D01*
X87345969Y-148415904D01*
X87435631Y-148453043D01*
X87628955Y-148567602D01*
X87756193Y-148585824D01*
X87874914Y-148635000D01*
X88099572Y-148635000D01*
X88322053Y-148666862D01*
X88446598Y-148635000D01*
X88575086Y-148635000D01*
X88782621Y-148549036D01*
X89000378Y-148493328D01*
X89103258Y-148416224D01*
X89221960Y-148367056D01*
X89380791Y-148208225D01*
X89419235Y-148179413D01*
X89503344Y-148085672D01*
X89717056Y-147871960D01*
X89735886Y-147826499D01*
X90365699Y-147124561D01*
X93815000Y-147124561D01*
X93815000Y-147695439D01*
X94033466Y-148222862D01*
X94437138Y-148626534D01*
X94964561Y-148845000D01*
X95535439Y-148845000D01*
X96062862Y-148626534D01*
X96466534Y-148222862D01*
X96685000Y-147695439D01*
X96685000Y-147124561D01*
X96466534Y-146597138D01*
X96147440Y-146278044D01*
X96147440Y-146249965D01*
X96307809Y-146142809D01*
X96448157Y-145932765D01*
X96497440Y-145685000D01*
X96497440Y-144485000D01*
X96448157Y-144237235D01*
X96307809Y-144027191D01*
X96097765Y-143886843D01*
X95850000Y-143837560D01*
X94650000Y-143837560D01*
X94402235Y-143886843D01*
X94192191Y-144027191D01*
X94051843Y-144237235D01*
X94002560Y-144485000D01*
X94002560Y-145685000D01*
X94051843Y-145932765D01*
X94192191Y-146142809D01*
X94352560Y-146249965D01*
X94352560Y-146278044D01*
X94033466Y-146597138D01*
X93815000Y-147124561D01*
X90365699Y-147124561D01*
X90960752Y-146461365D01*
X91227594Y-146011056D01*
X91326854Y-145317957D01*
X91153320Y-144639631D01*
X90962485Y-144385000D01*
X91105358Y-144385000D01*
X91165713Y-144360000D01*
X91520385Y-144360000D01*
X92066185Y-144133922D01*
X92483922Y-143716185D01*
X92710000Y-143170385D01*
X92710000Y-142579615D01*
X92483922Y-142033815D01*
X92066185Y-141616078D01*
X91520385Y-141390000D01*
X91165713Y-141390000D01*
X91105358Y-141365000D01*
X90504642Y-141365000D01*
X89949654Y-141594884D01*
X89524884Y-142019654D01*
X89295000Y-142574642D01*
X89295000Y-143175358D01*
X89483162Y-143629620D01*
X89437956Y-143623146D01*
X88759631Y-143796680D01*
X88340775Y-144110595D01*
X86946999Y-145663985D01*
X86732944Y-145878040D01*
X86646917Y-146085728D01*
X86532416Y-146278953D01*
X86514203Y-146406127D01*
X86465000Y-146524914D01*
X86465000Y-146749695D01*
X86433156Y-146972051D01*
X86465000Y-147096526D01*
X86465000Y-147225086D01*
X86508360Y-147329767D01*
X86050222Y-147140000D01*
X85399778Y-147140000D01*
X84991103Y-147309279D01*
X84925750Y-146802633D01*
X84577253Y-146195353D01*
X84022887Y-145767663D01*
X83985000Y-145757405D01*
X83985000Y-145021846D01*
X83999888Y-144946999D01*
X83985000Y-144872152D01*
X83985000Y-144872148D01*
X83980202Y-144848028D01*
X84235848Y-145103674D01*
X85202079Y-145503900D01*
X86247921Y-145503900D01*
X87214152Y-145103674D01*
X87953674Y-144364152D01*
X88353900Y-143397921D01*
X88353900Y-142352079D01*
X87953674Y-141385848D01*
X87214152Y-140646326D01*
X86247921Y-140246100D01*
X85202079Y-140246100D01*
X84235848Y-140646326D01*
X83496326Y-141385848D01*
X83183000Y-142142284D01*
X83183000Y-138469126D01*
X89910000Y-138469126D01*
X89910000Y-138880874D01*
X90067569Y-139261280D01*
X90358720Y-139552431D01*
X90739126Y-139710000D01*
X91150874Y-139710000D01*
X91531280Y-139552431D01*
X91822431Y-139261280D01*
X91980000Y-138880874D01*
X91980000Y-138469126D01*
X91822431Y-138088720D01*
X91531280Y-137797569D01*
X91150874Y-137640000D01*
X90739126Y-137640000D01*
X90358720Y-137797569D01*
X90067569Y-138088720D01*
X89910000Y-138469126D01*
X83183000Y-138469126D01*
X83183000Y-137601801D01*
X86169473Y-134615329D01*
X86232929Y-134572929D01*
X86400904Y-134321537D01*
X86445000Y-134099852D01*
X86445000Y-134099848D01*
X86459888Y-134025000D01*
X86445000Y-133950152D01*
X86445000Y-113722909D01*
X86611153Y-113654086D01*
X86935000Y-113330239D01*
X87258847Y-113654086D01*
X87859778Y-113903000D01*
X88510222Y-113903000D01*
X89111153Y-113654086D01*
X89571086Y-113194153D01*
X89820000Y-112593222D01*
X89820000Y-111942778D01*
X89571086Y-111341847D01*
X89111153Y-110881914D01*
X88945000Y-110813091D01*
X88945000Y-103168000D01*
X89637560Y-103168000D01*
X89637560Y-106368000D01*
X89686843Y-106615765D01*
X89827191Y-106825809D01*
X90037235Y-106966157D01*
X90285000Y-107015440D01*
X92285000Y-107015440D01*
X92532765Y-106966157D01*
X92742809Y-106825809D01*
X92883157Y-106615765D01*
X92932440Y-106368000D01*
X92932440Y-103168000D01*
X92883157Y-102920235D01*
X92742809Y-102710191D01*
X92532765Y-102569843D01*
X92285000Y-102520560D01*
X90285000Y-102520560D01*
X90037235Y-102569843D01*
X89827191Y-102710191D01*
X89686843Y-102920235D01*
X89637560Y-103168000D01*
X88945000Y-103168000D01*
X88945000Y-101359801D01*
X90654473Y-99650329D01*
X90717929Y-99607929D01*
X90885904Y-99356537D01*
X90930000Y-99134852D01*
X90930000Y-99134847D01*
X90944888Y-99060000D01*
X90930000Y-98985153D01*
X90930000Y-91604846D01*
X90944888Y-91529999D01*
X90930000Y-91455152D01*
X90930000Y-91455148D01*
X90885904Y-91233463D01*
X90717929Y-90982071D01*
X90654473Y-90939671D01*
X90313103Y-90598302D01*
X90335000Y-90545439D01*
X90335000Y-89974561D01*
X90116534Y-89447138D01*
X89797440Y-89128044D01*
X89797440Y-89099965D01*
X89957809Y-88992809D01*
X90098157Y-88782765D01*
X90147440Y-88535000D01*
X90147440Y-87335000D01*
X90143663Y-87316010D01*
X94490001Y-87316010D01*
X94490000Y-138162560D01*
X94490000Y-138162560D01*
G37*
X94490000Y-138162560D02*
X94450000Y-138162560D01*
X94202235Y-138211843D01*
X93992191Y-138352191D01*
X93851843Y-138562235D01*
X93802560Y-138810000D01*
X93802560Y-140410000D01*
X93851843Y-140657765D01*
X93992191Y-140867809D01*
X94134793Y-140963093D01*
X94051843Y-141087235D01*
X94002560Y-141335000D01*
X94002560Y-142535000D01*
X94051843Y-142782765D01*
X94192191Y-142992809D01*
X94402235Y-143133157D01*
X94650000Y-143182440D01*
X95850000Y-143182440D01*
X96097765Y-143133157D01*
X96307809Y-142992809D01*
X96448157Y-142782765D01*
X96497440Y-142535000D01*
X96497440Y-141335000D01*
X96448157Y-141087235D01*
X96365207Y-140963093D01*
X96507809Y-140867809D01*
X96648157Y-140657765D01*
X96697440Y-140410000D01*
X96697440Y-138810000D01*
X96648157Y-138562235D01*
X96507809Y-138352191D01*
X96297765Y-138211843D01*
X96050000Y-138162560D01*
X96010000Y-138162560D01*
X96010000Y-103168000D01*
X97487560Y-103168000D01*
X97487560Y-106368000D01*
X97536843Y-106615765D01*
X97677191Y-106825809D01*
X97887235Y-106966157D01*
X98135000Y-107015440D01*
X100135000Y-107015440D01*
X100382765Y-106966157D01*
X100592809Y-106825809D01*
X100733157Y-106615765D01*
X100782440Y-106368000D01*
X100782440Y-103168000D01*
X100733157Y-102920235D01*
X100592809Y-102710191D01*
X100382765Y-102569843D01*
X100135000Y-102520560D01*
X98135000Y-102520560D01*
X97887235Y-102569843D01*
X97677191Y-102710191D01*
X97536843Y-102920235D01*
X97487560Y-103168000D01*
X96010000Y-103168000D01*
X96010000Y-87316010D01*
X100356337Y-87316010D01*
X100352560Y-87335000D01*
X100352560Y-88535000D01*
X100401843Y-88782765D01*
X100542191Y-88992809D01*
X100702560Y-89099965D01*
X100702560Y-89128044D01*
X100383466Y-89447138D01*
X100165000Y-89974561D01*
X100165000Y-90545439D01*
X100383466Y-91072862D01*
X100787138Y-91476534D01*
X100840000Y-91498430D01*
X100840001Y-96863365D01*
X100600000Y-97442778D01*
X100600000Y-98093222D01*
X100848914Y-98694153D01*
X101308847Y-99154086D01*
X101909778Y-99403000D01*
X102560222Y-99403000D01*
X102619931Y-99378268D01*
X101750530Y-100247669D01*
X101687071Y-100290071D01*
X101519096Y-100541464D01*
X101475000Y-100763149D01*
X101475000Y-100763153D01*
X101460112Y-100838000D01*
X101475000Y-100912847D01*
X101475001Y-110620560D01*
X101235000Y-110620560D01*
X100987235Y-110669843D01*
X100777191Y-110810191D01*
X100636843Y-111020235D01*
X100587560Y-111268000D01*
X100587560Y-113268000D01*
X100636843Y-113515765D01*
X100777191Y-113725809D01*
X100987235Y-113866157D01*
X101235000Y-113915440D01*
X102012758Y-113915440D01*
X101242528Y-114685671D01*
X101179072Y-114728071D01*
X101136672Y-114791527D01*
X101136671Y-114791528D01*
X101011097Y-114979463D01*
X100952112Y-115276000D01*
X100967001Y-115350852D01*
X100967000Y-142011538D01*
X100550346Y-141594884D01*
X99995358Y-141365000D01*
X99394642Y-141365000D01*
X99334287Y-141390000D01*
X98979615Y-141390000D01*
X98433815Y-141616078D01*
X98016078Y-142033815D01*
X97790000Y-142579615D01*
X97790000Y-143170385D01*
X98016078Y-143716185D01*
X98433815Y-144133922D01*
X98979615Y-144360000D01*
X99334287Y-144360000D01*
X99394642Y-144385000D01*
X99995358Y-144385000D01*
X100250897Y-144279152D01*
X100227071Y-144295072D01*
X100184671Y-144358528D01*
X100184670Y-144358529D01*
X100166983Y-144385000D01*
X100059096Y-144546464D01*
X100014999Y-144768149D01*
X100014999Y-144768154D01*
X100000111Y-144843001D01*
X100014999Y-144917848D01*
X100014999Y-145040000D01*
X99449778Y-145040000D01*
X98848847Y-145288914D01*
X98388914Y-145748847D01*
X98140000Y-146349778D01*
X98140000Y-147000222D01*
X98388914Y-147601153D01*
X98848847Y-148061086D01*
X99449778Y-148310000D01*
X100100222Y-148310000D01*
X100475000Y-148154762D01*
X100475000Y-148305086D01*
X100520065Y-148413883D01*
X100534708Y-148527400D01*
X100651088Y-148730201D01*
X100742944Y-148951960D01*
X100826026Y-149035042D01*
X100883205Y-149134680D01*
X101069015Y-149278031D01*
X101238040Y-149447056D01*
X101346145Y-149491835D01*
X101437571Y-149562369D01*
X101665266Y-149624019D01*
X101884914Y-149715000D01*
X102001292Y-149715000D01*
X102113408Y-149745356D01*
X102348741Y-149715000D01*
X102585086Y-149715000D01*
X102691973Y-149670726D01*
X102807826Y-149655782D01*
X103014801Y-149537006D01*
X103231960Y-149447056D01*
X103268520Y-149410496D01*
X103388914Y-149701153D01*
X103848847Y-150161086D01*
X104449778Y-150410000D01*
X105100222Y-150410000D01*
X105701153Y-150161086D01*
X106161086Y-149701153D01*
X106410000Y-149100222D01*
X106410000Y-148449778D01*
X106395969Y-148415904D01*
X106485631Y-148453043D01*
X106678955Y-148567602D01*
X106806193Y-148585824D01*
X106924914Y-148635000D01*
X107149572Y-148635000D01*
X107372053Y-148666862D01*
X107496598Y-148635000D01*
X107625086Y-148635000D01*
X107832621Y-148549036D01*
X108050378Y-148493328D01*
X108153258Y-148416224D01*
X108271960Y-148367056D01*
X108430791Y-148208225D01*
X108469235Y-148179413D01*
X108553344Y-148085672D01*
X108767056Y-147871960D01*
X108785886Y-147826499D01*
X109415699Y-147124561D01*
X112865000Y-147124561D01*
X112865000Y-147695439D01*
X113083466Y-148222862D01*
X113487138Y-148626534D01*
X114014561Y-148845000D01*
X114585439Y-148845000D01*
X115112862Y-148626534D01*
X115516534Y-148222862D01*
X115735000Y-147695439D01*
X115735000Y-147124561D01*
X115516534Y-146597138D01*
X115197440Y-146278044D01*
X115197440Y-146249965D01*
X115357809Y-146142809D01*
X115498157Y-145932765D01*
X115547440Y-145685000D01*
X115547440Y-144485000D01*
X115498157Y-144237235D01*
X115357809Y-144027191D01*
X115147765Y-143886843D01*
X114900000Y-143837560D01*
X113700000Y-143837560D01*
X113452235Y-143886843D01*
X113242191Y-144027191D01*
X113101843Y-144237235D01*
X113052560Y-144485000D01*
X113052560Y-145685000D01*
X113101843Y-145932765D01*
X113242191Y-146142809D01*
X113402560Y-146249965D01*
X113402560Y-146278044D01*
X113083466Y-146597138D01*
X112865000Y-147124561D01*
X109415699Y-147124561D01*
X110010752Y-146461365D01*
X110277594Y-146011056D01*
X110376854Y-145317957D01*
X110203320Y-144639631D01*
X110012485Y-144385000D01*
X110155358Y-144385000D01*
X110215713Y-144360000D01*
X110570385Y-144360000D01*
X111116185Y-144133922D01*
X111533922Y-143716185D01*
X111760000Y-143170385D01*
X111760000Y-142579615D01*
X111533922Y-142033815D01*
X111116185Y-141616078D01*
X110570385Y-141390000D01*
X110215713Y-141390000D01*
X110155358Y-141365000D01*
X109554642Y-141365000D01*
X108999654Y-141594884D01*
X108574884Y-142019654D01*
X108345000Y-142574642D01*
X108345000Y-143175358D01*
X108533162Y-143629620D01*
X108487956Y-143623146D01*
X107809631Y-143796680D01*
X107390775Y-144110595D01*
X105996999Y-145663985D01*
X105782944Y-145878040D01*
X105696917Y-146085728D01*
X105582416Y-146278953D01*
X105564203Y-146406127D01*
X105515000Y-146524914D01*
X105515000Y-146749695D01*
X105483156Y-146972051D01*
X105515000Y-147096526D01*
X105515000Y-147225086D01*
X105558360Y-147329767D01*
X105100222Y-147140000D01*
X104449778Y-147140000D01*
X104041103Y-147309279D01*
X103975750Y-146802633D01*
X103627253Y-146195353D01*
X103072887Y-145767663D01*
X102397050Y-145584676D01*
X101702632Y-145674250D01*
X101530374Y-145773103D01*
X101534999Y-145749853D01*
X101534999Y-145749849D01*
X101549887Y-145675002D01*
X101534999Y-145600155D01*
X101534999Y-145157802D01*
X102211473Y-144481329D01*
X102274929Y-144438929D01*
X102317924Y-144374582D01*
X102442904Y-144187538D01*
X102452723Y-144138174D01*
X102546326Y-144364152D01*
X103285848Y-145103674D01*
X104252079Y-145503900D01*
X105297921Y-145503900D01*
X106264152Y-145103674D01*
X107003674Y-144364152D01*
X107403900Y-143397921D01*
X107403900Y-142352079D01*
X107003674Y-141385848D01*
X106264152Y-140646326D01*
X105297921Y-140246100D01*
X104252079Y-140246100D01*
X103285848Y-140646326D01*
X102546326Y-141385848D01*
X102487000Y-141529074D01*
X102487000Y-138469126D01*
X108960000Y-138469126D01*
X108960000Y-138880874D01*
X109117569Y-139261280D01*
X109408720Y-139552431D01*
X109789126Y-139710000D01*
X110200874Y-139710000D01*
X110581280Y-139552431D01*
X110872431Y-139261280D01*
X111030000Y-138880874D01*
X111030000Y-138810000D01*
X112852560Y-138810000D01*
X112852560Y-140410000D01*
X112901843Y-140657765D01*
X113042191Y-140867809D01*
X113184793Y-140963093D01*
X113101843Y-141087235D01*
X113052560Y-141335000D01*
X113052560Y-142535000D01*
X113101843Y-142782765D01*
X113242191Y-142992809D01*
X113452235Y-143133157D01*
X113700000Y-143182440D01*
X114900000Y-143182440D01*
X115147765Y-143133157D01*
X115357809Y-142992809D01*
X115498157Y-142782765D01*
X115547440Y-142535000D01*
X115547440Y-141335000D01*
X115498157Y-141087235D01*
X115415207Y-140963093D01*
X115557809Y-140867809D01*
X115698157Y-140657765D01*
X115747440Y-140410000D01*
X115747440Y-138810000D01*
X115698157Y-138562235D01*
X115557809Y-138352191D01*
X115347765Y-138211843D01*
X115100000Y-138162560D01*
X113500000Y-138162560D01*
X113252235Y-138211843D01*
X113042191Y-138352191D01*
X112901843Y-138562235D01*
X112852560Y-138810000D01*
X111030000Y-138810000D01*
X111030000Y-138469126D01*
X110872431Y-138088720D01*
X110581280Y-137797569D01*
X110200874Y-137640000D01*
X109789126Y-137640000D01*
X109408720Y-137797569D01*
X109117569Y-138088720D01*
X108960000Y-138469126D01*
X102487000Y-138469126D01*
X102487000Y-134701868D01*
X108555737Y-134701868D01*
X108666641Y-134979099D01*
X109312593Y-135222323D01*
X110002453Y-135199836D01*
X110535359Y-134979099D01*
X110646263Y-134701868D01*
X109601000Y-133656605D01*
X108555737Y-134701868D01*
X102487000Y-134701868D01*
X102487000Y-133188593D01*
X107855677Y-133188593D01*
X107878164Y-133878453D01*
X108098901Y-134411359D01*
X108376132Y-134522263D01*
X109421395Y-133477000D01*
X109780605Y-133477000D01*
X110825868Y-134522263D01*
X111103099Y-134411359D01*
X111346323Y-133765407D01*
X111323836Y-133075547D01*
X111103099Y-132542641D01*
X110825868Y-132431737D01*
X109780605Y-133477000D01*
X109421395Y-133477000D01*
X108376132Y-132431737D01*
X108098901Y-132542641D01*
X107855677Y-133188593D01*
X102487000Y-133188593D01*
X102487000Y-132252132D01*
X108555737Y-132252132D01*
X109601000Y-133297395D01*
X110646263Y-132252132D01*
X110535359Y-131974901D01*
X109889407Y-131731677D01*
X109199547Y-131754164D01*
X108666641Y-131974901D01*
X108555737Y-132252132D01*
X102487000Y-132252132D01*
X102487000Y-115590801D01*
X104243625Y-113834177D01*
X104409778Y-113903000D01*
X105060222Y-113903000D01*
X105661153Y-113654086D01*
X105985000Y-113330239D01*
X106308847Y-113654086D01*
X106909778Y-113903000D01*
X107560222Y-113903000D01*
X108161153Y-113654086D01*
X108621086Y-113194153D01*
X108870000Y-112593222D01*
X108870000Y-111942778D01*
X108804244Y-111784029D01*
X108950903Y-111564538D01*
X108994999Y-111342853D01*
X108994999Y-111342849D01*
X109009887Y-111268002D01*
X108994999Y-111193155D01*
X108994999Y-106904526D01*
X109087235Y-106966157D01*
X109335000Y-107015440D01*
X111335000Y-107015440D01*
X111582765Y-106966157D01*
X111792809Y-106825809D01*
X111933157Y-106615765D01*
X111982440Y-106368000D01*
X111982440Y-103168000D01*
X116537560Y-103168000D01*
X116537560Y-106368000D01*
X116586843Y-106615765D01*
X116727191Y-106825809D01*
X116937235Y-106966157D01*
X117185000Y-107015440D01*
X119185000Y-107015440D01*
X119432765Y-106966157D01*
X119642809Y-106825809D01*
X119783157Y-106615765D01*
X119832440Y-106368000D01*
X119832440Y-103168000D01*
X119783157Y-102920235D01*
X119642809Y-102710191D01*
X119432765Y-102569843D01*
X119185000Y-102520560D01*
X117185000Y-102520560D01*
X116937235Y-102569843D01*
X116727191Y-102710191D01*
X116586843Y-102920235D01*
X116537560Y-103168000D01*
X111982440Y-103168000D01*
X111933157Y-102920235D01*
X111792809Y-102710191D01*
X111582765Y-102569843D01*
X111335000Y-102520560D01*
X109335000Y-102520560D01*
X109087235Y-102569843D01*
X108994999Y-102631474D01*
X108994999Y-100232802D01*
X109577473Y-99650329D01*
X109640929Y-99607929D01*
X109683924Y-99543582D01*
X109808904Y-99356538D01*
X109829473Y-99253128D01*
X109853000Y-99134852D01*
X109853000Y-99134848D01*
X109867888Y-99060000D01*
X109853000Y-98985152D01*
X109853000Y-95088593D01*
X117380677Y-95088593D01*
X117403164Y-95778453D01*
X117623901Y-96311359D01*
X117901132Y-96422263D01*
X118946395Y-95377000D01*
X117901132Y-94331737D01*
X117623901Y-94442641D01*
X117380677Y-95088593D01*
X109853000Y-95088593D01*
X109853000Y-94152132D01*
X118080737Y-94152132D01*
X119126000Y-95197395D01*
X120171263Y-94152132D01*
X120060359Y-93874901D01*
X119414407Y-93631677D01*
X118724547Y-93654164D01*
X118191641Y-93874901D01*
X118080737Y-94152132D01*
X109853000Y-94152132D01*
X109853000Y-92747846D01*
X109867888Y-92672999D01*
X109853000Y-92598152D01*
X109853000Y-92598148D01*
X109808904Y-92376463D01*
X109761079Y-92304888D01*
X109683329Y-92188526D01*
X109683327Y-92188524D01*
X109640929Y-92125071D01*
X109577476Y-92082673D01*
X108093104Y-90598302D01*
X108115000Y-90545439D01*
X108115000Y-89974561D01*
X107896534Y-89447138D01*
X107577440Y-89128044D01*
X107577440Y-89099965D01*
X107737809Y-88992809D01*
X107878157Y-88782765D01*
X107927440Y-88535000D01*
X107927440Y-87335000D01*
X107923663Y-87316010D01*
X120676337Y-87316010D01*
X120672560Y-87335000D01*
X120672560Y-88535000D01*
X120721843Y-88782765D01*
X120862191Y-88992809D01*
X121022560Y-89099965D01*
X121022560Y-89128044D01*
X120703466Y-89447138D01*
X120485000Y-89974561D01*
X120485000Y-90545439D01*
X120703466Y-91072862D01*
X121107138Y-91476534D01*
X121160000Y-91498430D01*
X121160001Y-96133000D01*
X120959778Y-96133000D01*
X120646378Y-96262815D01*
X120871323Y-95665407D01*
X120848836Y-94975547D01*
X120628099Y-94442641D01*
X120350868Y-94331737D01*
X119305605Y-95377000D01*
X119319748Y-95391143D01*
X119140143Y-95570748D01*
X119126000Y-95556605D01*
X118080737Y-96601868D01*
X118191641Y-96879099D01*
X118837593Y-97122323D01*
X119527453Y-97099836D01*
X119846852Y-96967537D01*
X119650000Y-97442778D01*
X119650000Y-98093222D01*
X119898914Y-98694153D01*
X120358847Y-99154086D01*
X120959778Y-99403000D01*
X121610222Y-99403000D01*
X122211153Y-99154086D01*
X122574991Y-98790248D01*
X122574992Y-108653206D01*
X120800530Y-110427669D01*
X120737071Y-110470071D01*
X120636518Y-110620560D01*
X120285000Y-110620560D01*
X120037235Y-110669843D01*
X119827191Y-110810191D01*
X119686843Y-111020235D01*
X119637560Y-111268000D01*
X119637560Y-113268000D01*
X119686843Y-113515765D01*
X119827191Y-113725809D01*
X120037235Y-113866157D01*
X120285000Y-113915440D01*
X121062759Y-113915440D01*
X119911528Y-115066671D01*
X119848072Y-115109071D01*
X119805672Y-115172527D01*
X119805671Y-115172528D01*
X119680097Y-115360463D01*
X119621112Y-115657000D01*
X119636001Y-115731852D01*
X119636000Y-141630538D01*
X119600346Y-141594884D01*
X119045358Y-141365000D01*
X118444642Y-141365000D01*
X118384287Y-141390000D01*
X118029615Y-141390000D01*
X117483815Y-141616078D01*
X117066078Y-142033815D01*
X116840000Y-142579615D01*
X116840000Y-143170385D01*
X117066078Y-143716185D01*
X117483815Y-144133922D01*
X118029615Y-144360000D01*
X118384287Y-144360000D01*
X118444642Y-144385000D01*
X119045358Y-144385000D01*
X119600346Y-144155116D01*
X119636000Y-144119462D01*
X119636000Y-144578153D01*
X119621112Y-144653000D01*
X119636000Y-144727847D01*
X119636000Y-144727851D01*
X119680096Y-144949536D01*
X119848071Y-145200929D01*
X119911529Y-145243331D01*
X120492010Y-145823812D01*
X120290126Y-145939667D01*
X120211086Y-145748847D01*
X119751153Y-145288914D01*
X119150222Y-145040000D01*
X118499778Y-145040000D01*
X117898847Y-145288914D01*
X117438914Y-145748847D01*
X117190000Y-146349778D01*
X117190000Y-147000222D01*
X117438914Y-147601153D01*
X117898847Y-148061086D01*
X118499778Y-148310000D01*
X119150222Y-148310000D01*
X119525000Y-148154762D01*
X119525000Y-148305086D01*
X119570065Y-148413883D01*
X119584708Y-148527400D01*
X119701088Y-148730201D01*
X119792944Y-148951960D01*
X119876026Y-149035042D01*
X119933205Y-149134680D01*
X120119015Y-149278031D01*
X120288040Y-149447056D01*
X120396145Y-149491835D01*
X120487571Y-149562369D01*
X120715266Y-149624019D01*
X120934914Y-149715000D01*
X121051292Y-149715000D01*
X121163408Y-149745356D01*
X121398741Y-149715000D01*
X121635086Y-149715000D01*
X121741973Y-149670726D01*
X121857826Y-149655782D01*
X122064801Y-149537006D01*
X122281960Y-149447056D01*
X122318520Y-149410496D01*
X122438914Y-149701153D01*
X122898847Y-150161086D01*
X123499778Y-150410000D01*
X124150222Y-150410000D01*
X124751153Y-150161086D01*
X125211086Y-149701153D01*
X125460000Y-149100222D01*
X125460000Y-148449778D01*
X125445969Y-148415904D01*
X125535631Y-148453043D01*
X125728955Y-148567602D01*
X125856193Y-148585824D01*
X125974914Y-148635000D01*
X126199572Y-148635000D01*
X126422053Y-148666862D01*
X126546598Y-148635000D01*
X126675086Y-148635000D01*
X126882621Y-148549036D01*
X127100378Y-148493328D01*
X127203258Y-148416224D01*
X127321960Y-148367056D01*
X127480791Y-148208225D01*
X127519235Y-148179413D01*
X127603344Y-148085672D01*
X127817056Y-147871960D01*
X127835886Y-147826499D01*
X128465699Y-147124561D01*
X130645000Y-147124561D01*
X130645000Y-147695439D01*
X130863466Y-148222862D01*
X131267138Y-148626534D01*
X131794561Y-148845000D01*
X132365439Y-148845000D01*
X132892862Y-148626534D01*
X133296534Y-148222862D01*
X133350000Y-148093784D01*
X133403466Y-148222862D01*
X133807138Y-148626534D01*
X134334561Y-148845000D01*
X134905439Y-148845000D01*
X135432862Y-148626534D01*
X135836534Y-148222862D01*
X136055000Y-147695439D01*
X136055000Y-147124561D01*
X135836534Y-146597138D01*
X135517440Y-146278044D01*
X135517440Y-146249965D01*
X135677809Y-146142809D01*
X135818157Y-145932765D01*
X135867440Y-145685000D01*
X135867440Y-144485000D01*
X135818157Y-144237235D01*
X135677809Y-144027191D01*
X135467765Y-143886843D01*
X135220000Y-143837560D01*
X134020000Y-143837560D01*
X133772235Y-143886843D01*
X133562191Y-144027191D01*
X133421843Y-144237235D01*
X133372560Y-144485000D01*
X133372560Y-145685000D01*
X133421843Y-145932765D01*
X133562191Y-146142809D01*
X133722560Y-146249965D01*
X133722560Y-146278044D01*
X133403466Y-146597138D01*
X133350000Y-146726216D01*
X133296534Y-146597138D01*
X132977440Y-146278044D01*
X132977440Y-146249965D01*
X133137809Y-146142809D01*
X133278157Y-145932765D01*
X133327440Y-145685000D01*
X133327440Y-144485000D01*
X133278157Y-144237235D01*
X133137809Y-144027191D01*
X132927765Y-143886843D01*
X132680000Y-143837560D01*
X131480000Y-143837560D01*
X131232235Y-143886843D01*
X131022191Y-144027191D01*
X130881843Y-144237235D01*
X130832560Y-144485000D01*
X130832560Y-145685000D01*
X130881843Y-145932765D01*
X131022191Y-146142809D01*
X131182560Y-146249965D01*
X131182560Y-146278044D01*
X130863466Y-146597138D01*
X130645000Y-147124561D01*
X128465699Y-147124561D01*
X129060752Y-146461365D01*
X129327594Y-146011056D01*
X129426854Y-145317957D01*
X129253320Y-144639631D01*
X129062485Y-144385000D01*
X129205358Y-144385000D01*
X129265713Y-144360000D01*
X129620385Y-144360000D01*
X130166185Y-144133922D01*
X130583922Y-143716185D01*
X130810000Y-143170385D01*
X130810000Y-142579615D01*
X130583922Y-142033815D01*
X130166185Y-141616078D01*
X129620385Y-141390000D01*
X129265713Y-141390000D01*
X129205358Y-141365000D01*
X128604642Y-141365000D01*
X128049654Y-141594884D01*
X127624884Y-142019654D01*
X127395000Y-142574642D01*
X127395000Y-143175358D01*
X127583162Y-143629620D01*
X127537956Y-143623146D01*
X126859631Y-143796680D01*
X126440775Y-144110595D01*
X125046999Y-145663985D01*
X124832944Y-145878040D01*
X124746917Y-146085728D01*
X124632416Y-146278953D01*
X124614203Y-146406127D01*
X124565000Y-146524914D01*
X124565000Y-146749695D01*
X124533156Y-146972051D01*
X124565000Y-147096526D01*
X124565000Y-147225086D01*
X124608360Y-147329767D01*
X124150222Y-147140000D01*
X123499778Y-147140000D01*
X123091103Y-147309279D01*
X123025750Y-146802633D01*
X122677253Y-146195353D01*
X122122887Y-145767663D01*
X122085000Y-145757405D01*
X122085000Y-145656846D01*
X122099888Y-145581999D01*
X122085000Y-145507152D01*
X122085000Y-145507148D01*
X122040904Y-145285463D01*
X121943400Y-145139538D01*
X121915329Y-145097526D01*
X121915327Y-145097524D01*
X121872929Y-145034071D01*
X121809475Y-144991673D01*
X121156000Y-144338198D01*
X121156000Y-142352079D01*
X121196100Y-142352079D01*
X121196100Y-143397921D01*
X121596326Y-144364152D01*
X122335848Y-145103674D01*
X123302079Y-145503900D01*
X124347921Y-145503900D01*
X125314152Y-145103674D01*
X126053674Y-144364152D01*
X126453900Y-143397921D01*
X126453900Y-142352079D01*
X126053674Y-141385848D01*
X125314152Y-140646326D01*
X124347921Y-140246100D01*
X123302079Y-140246100D01*
X122335848Y-140646326D01*
X121596326Y-141385848D01*
X121196100Y-142352079D01*
X121156000Y-142352079D01*
X121156000Y-138469126D01*
X128010000Y-138469126D01*
X128010000Y-138880874D01*
X128167569Y-139261280D01*
X128458720Y-139552431D01*
X128839126Y-139710000D01*
X129250874Y-139710000D01*
X129631280Y-139552431D01*
X129922431Y-139261280D01*
X130080000Y-138880874D01*
X130080000Y-138810000D01*
X130632560Y-138810000D01*
X130632560Y-140410000D01*
X130681843Y-140657765D01*
X130822191Y-140867809D01*
X130964793Y-140963093D01*
X130881843Y-141087235D01*
X130832560Y-141335000D01*
X130832560Y-142535000D01*
X130881843Y-142782765D01*
X131022191Y-142992809D01*
X131232235Y-143133157D01*
X131480000Y-143182440D01*
X132680000Y-143182440D01*
X132927765Y-143133157D01*
X133137809Y-142992809D01*
X133278157Y-142782765D01*
X133327440Y-142535000D01*
X133327440Y-141335000D01*
X133278157Y-141087235D01*
X133195207Y-140963093D01*
X133337809Y-140867809D01*
X133350000Y-140849564D01*
X133362191Y-140867809D01*
X133504793Y-140963093D01*
X133421843Y-141087235D01*
X133372560Y-141335000D01*
X133372560Y-142535000D01*
X133421843Y-142782765D01*
X133562191Y-142992809D01*
X133772235Y-143133157D01*
X134020000Y-143182440D01*
X135220000Y-143182440D01*
X135467765Y-143133157D01*
X135677809Y-142992809D01*
X135818157Y-142782765D01*
X135867440Y-142535000D01*
X135867440Y-141335000D01*
X135818157Y-141087235D01*
X135735207Y-140963093D01*
X135877809Y-140867809D01*
X136018157Y-140657765D01*
X136067440Y-140410000D01*
X136067440Y-138810000D01*
X136018157Y-138562235D01*
X135877809Y-138352191D01*
X135667765Y-138211843D01*
X135420000Y-138162560D01*
X133820000Y-138162560D01*
X133572235Y-138211843D01*
X133362191Y-138352191D01*
X133350000Y-138370436D01*
X133337809Y-138352191D01*
X133127765Y-138211843D01*
X132880000Y-138162560D01*
X131280000Y-138162560D01*
X131032235Y-138211843D01*
X130822191Y-138352191D01*
X130681843Y-138562235D01*
X130632560Y-138810000D01*
X130080000Y-138810000D01*
X130080000Y-138469126D01*
X129922431Y-138088720D01*
X129631280Y-137797569D01*
X129250874Y-137640000D01*
X128839126Y-137640000D01*
X128458720Y-137797569D01*
X128167569Y-138088720D01*
X128010000Y-138469126D01*
X121156000Y-138469126D01*
X121156000Y-115971801D01*
X123293625Y-113834177D01*
X123459778Y-113903000D01*
X124110222Y-113903000D01*
X124711153Y-113654086D01*
X125035000Y-113330239D01*
X125358847Y-113654086D01*
X125959778Y-113903000D01*
X126610222Y-113903000D01*
X127211153Y-113654086D01*
X127671086Y-113194153D01*
X127920000Y-112593222D01*
X127920000Y-111942778D01*
X127671086Y-111341847D01*
X127271414Y-110942175D01*
X128119476Y-110094114D01*
X128182929Y-110051716D01*
X128225327Y-109988263D01*
X128225329Y-109988261D01*
X128350903Y-109800325D01*
X128350904Y-109800324D01*
X128395000Y-109578639D01*
X128395000Y-109578635D01*
X128409888Y-109503788D01*
X128395000Y-109428941D01*
X128395000Y-107015440D01*
X130385000Y-107015440D01*
X130632765Y-106966157D01*
X130842809Y-106825809D01*
X130983157Y-106615765D01*
X131032440Y-106368000D01*
X131032440Y-103168000D01*
X135587560Y-103168000D01*
X135587560Y-106368000D01*
X135636843Y-106615765D01*
X135777191Y-106825809D01*
X135987235Y-106966157D01*
X136235000Y-107015440D01*
X138235000Y-107015440D01*
X138482765Y-106966157D01*
X138692809Y-106825809D01*
X138833157Y-106615765D01*
X138882440Y-106368000D01*
X138882440Y-103168000D01*
X138833157Y-102920235D01*
X138692809Y-102710191D01*
X138482765Y-102569843D01*
X138235000Y-102520560D01*
X136235000Y-102520560D01*
X135987235Y-102569843D01*
X135777191Y-102710191D01*
X135636843Y-102920235D01*
X135587560Y-103168000D01*
X131032440Y-103168000D01*
X130983157Y-102920235D01*
X130842809Y-102710191D01*
X130632765Y-102569843D01*
X130385000Y-102520560D01*
X128395000Y-102520560D01*
X128395000Y-92101218D01*
X128409888Y-92026370D01*
X128395000Y-91951522D01*
X128395000Y-91951518D01*
X128350904Y-91729833D01*
X128182929Y-91478441D01*
X128119473Y-91436041D01*
X127986414Y-91302982D01*
X128216534Y-91072862D01*
X128435000Y-90545439D01*
X128435000Y-89974561D01*
X128216534Y-89447138D01*
X127897440Y-89128044D01*
X127897440Y-89099965D01*
X128057809Y-88992809D01*
X128198157Y-88782765D01*
X128247440Y-88535000D01*
X128247440Y-87335000D01*
X128243663Y-87316010D01*
X138456337Y-87316010D01*
X138452560Y-87335000D01*
X138452560Y-88535000D01*
X138501843Y-88782765D01*
X138642191Y-88992809D01*
X138802560Y-89099965D01*
X138802560Y-89128044D01*
X138483466Y-89447138D01*
X138265000Y-89974561D01*
X138265000Y-90545439D01*
X138483466Y-91072862D01*
X138887138Y-91476534D01*
X138940000Y-91498430D01*
X138940001Y-96863365D01*
X138700000Y-97442778D01*
X138700000Y-98093222D01*
X138948914Y-98694153D01*
X139408847Y-99154086D01*
X140009778Y-99403000D01*
X140660222Y-99403000D01*
X141261153Y-99154086D01*
X141721086Y-98694153D01*
X141970000Y-98093222D01*
X141970000Y-97442778D01*
X141721086Y-96841847D01*
X141261153Y-96381914D01*
X140660222Y-96133000D01*
X140460000Y-96133000D01*
X140460000Y-91498430D01*
X140512862Y-91476534D01*
X140916534Y-91072862D01*
X140970000Y-90943784D01*
X141023466Y-91072862D01*
X141427138Y-91476534D01*
X141954561Y-91695000D01*
X142279999Y-91695000D01*
X142280000Y-107998198D01*
X139850530Y-110427669D01*
X139787071Y-110470071D01*
X139686518Y-110620560D01*
X139335000Y-110620560D01*
X139087235Y-110669843D01*
X138877191Y-110810191D01*
X138736843Y-111020235D01*
X138687560Y-111268000D01*
X138687560Y-113268000D01*
X138736843Y-113515765D01*
X138877191Y-113725809D01*
X139087235Y-113866157D01*
X139335000Y-113915440D01*
X140112759Y-113915440D01*
X139215528Y-114812671D01*
X139152072Y-114855071D01*
X139109672Y-114918527D01*
X139109671Y-114918528D01*
X138984097Y-115106463D01*
X138925112Y-115403000D01*
X138940001Y-115477852D01*
X138940000Y-141884538D01*
X138650346Y-141594884D01*
X138095358Y-141365000D01*
X137494642Y-141365000D01*
X137434287Y-141390000D01*
X137079615Y-141390000D01*
X136533815Y-141616078D01*
X136116078Y-142033815D01*
X135890000Y-142579615D01*
X135890000Y-143170385D01*
X136116078Y-143716185D01*
X136533815Y-144133922D01*
X137079615Y-144360000D01*
X137434287Y-144360000D01*
X137494642Y-144385000D01*
X138095358Y-144385000D01*
X138650346Y-144155116D01*
X138940000Y-143865462D01*
X138940000Y-144451153D01*
X138925112Y-144526000D01*
X138940000Y-144600847D01*
X138940000Y-144600851D01*
X138984096Y-144822536D01*
X139152071Y-145073929D01*
X139215530Y-145116331D01*
X139615001Y-145515802D01*
X139615001Y-145781925D01*
X139340126Y-145939667D01*
X139261086Y-145748847D01*
X138801153Y-145288914D01*
X138200222Y-145040000D01*
X137549778Y-145040000D01*
X136948847Y-145288914D01*
X136488914Y-145748847D01*
X136240000Y-146349778D01*
X136240000Y-147000222D01*
X136488914Y-147601153D01*
X136948847Y-148061086D01*
X137549778Y-148310000D01*
X138200222Y-148310000D01*
X138575000Y-148154762D01*
X138575000Y-148305086D01*
X138620065Y-148413883D01*
X138634708Y-148527400D01*
X138751088Y-148730201D01*
X138842944Y-148951960D01*
X138926026Y-149035042D01*
X138983205Y-149134680D01*
X139169015Y-149278031D01*
X139338040Y-149447056D01*
X139446145Y-149491835D01*
X139537571Y-149562369D01*
X139765266Y-149624019D01*
X139984914Y-149715000D01*
X140101292Y-149715000D01*
X140213408Y-149745356D01*
X140448741Y-149715000D01*
X140685086Y-149715000D01*
X140791973Y-149670726D01*
X140907826Y-149655782D01*
X141114801Y-149537006D01*
X141331960Y-149447056D01*
X141368520Y-149410496D01*
X141488914Y-149701153D01*
X141948847Y-150161086D01*
X142549778Y-150410000D01*
X143200222Y-150410000D01*
X143801153Y-150161086D01*
X144261086Y-149701153D01*
X144510000Y-149100222D01*
X144510000Y-148449778D01*
X144495969Y-148415904D01*
X144585631Y-148453043D01*
X144778955Y-148567602D01*
X144906193Y-148585824D01*
X145024914Y-148635000D01*
X145249572Y-148635000D01*
X145472053Y-148666862D01*
X145596598Y-148635000D01*
X145725086Y-148635000D01*
X145932621Y-148549036D01*
X146150378Y-148493328D01*
X146253258Y-148416224D01*
X146371960Y-148367056D01*
X146530791Y-148208225D01*
X146569235Y-148179413D01*
X146653344Y-148085672D01*
X146867056Y-147871960D01*
X146885886Y-147826499D01*
X148110752Y-146461365D01*
X148377594Y-146011056D01*
X148476854Y-145317957D01*
X148303320Y-144639631D01*
X148112485Y-144385000D01*
X148255358Y-144385000D01*
X148315713Y-144360000D01*
X148670385Y-144360000D01*
X149216185Y-144133922D01*
X149633922Y-143716185D01*
X149860000Y-143170385D01*
X149860000Y-142694739D01*
X150059375Y-142993125D01*
X150357761Y-143192500D01*
X150059375Y-143391875D01*
X149731161Y-143883082D01*
X149615908Y-144462500D01*
X149731161Y-145041918D01*
X150059375Y-145533125D01*
X150357761Y-145732500D01*
X150059375Y-145931875D01*
X149731161Y-146423082D01*
X149615908Y-147002500D01*
X149731161Y-147581918D01*
X150059375Y-148073125D01*
X150550582Y-148401339D01*
X150983744Y-148487500D01*
X151276256Y-148487500D01*
X151690000Y-148405201D01*
X151690000Y-151690000D01*
X76910000Y-151690000D01*
X76910000Y-148405201D01*
X77323744Y-148487500D01*
X77616256Y-148487500D01*
X78049418Y-148401339D01*
X78540625Y-148073125D01*
X78868839Y-147581918D01*
X78984092Y-147002500D01*
X78868839Y-146423082D01*
X78540625Y-145931875D01*
X78242239Y-145732500D01*
X78540625Y-145533125D01*
X78868839Y-145041918D01*
X78984092Y-144462500D01*
X78868839Y-143883082D01*
X78540625Y-143391875D01*
X78242239Y-143192500D01*
X78540625Y-142993125D01*
X78740000Y-142694739D01*
X78740000Y-143170385D01*
X78966078Y-143716185D01*
X79383815Y-144133922D01*
X79929615Y-144360000D01*
X80284287Y-144360000D01*
X80344642Y-144385000D01*
X80945358Y-144385000D01*
X81500346Y-144155116D01*
X81663000Y-143992462D01*
X81663000Y-144070153D01*
X81648112Y-144145000D01*
X81663000Y-144219847D01*
X81663000Y-144219851D01*
X81707096Y-144441536D01*
X81875071Y-144692929D01*
X81938530Y-144735331D01*
X82465001Y-145261803D01*
X82465001Y-145781925D01*
X82190126Y-145939667D01*
X82111086Y-145748847D01*
X81651153Y-145288914D01*
X81050222Y-145040000D01*
X80399778Y-145040000D01*
X79798847Y-145288914D01*
X79338914Y-145748847D01*
X79090000Y-146349778D01*
X79090000Y-147000222D01*
X79338914Y-147601153D01*
X79798847Y-148061086D01*
X80399778Y-148310000D01*
X81050222Y-148310000D01*
X81425000Y-148154762D01*
X81425000Y-148305086D01*
X81470065Y-148413883D01*
X81484708Y-148527400D01*
X81601088Y-148730201D01*
X81692944Y-148951960D01*
X81776026Y-149035042D01*
X81833205Y-149134680D01*
X82019015Y-149278031D01*
X82188040Y-149447056D01*
X82296145Y-149491835D01*
X82387571Y-149562369D01*
X82615266Y-149624019D01*
X82834914Y-149715000D01*
X82951292Y-149715000D01*
X83063408Y-149745356D01*
X83298741Y-149715000D01*
X83535086Y-149715000D01*
X83641973Y-149670726D01*
X83757826Y-149655782D01*
X83964801Y-149537006D01*
X84181960Y-149447056D01*
X84218520Y-149410496D01*
X84338914Y-149701153D01*
X84798847Y-150161086D01*
X85399778Y-150410000D01*
X86050222Y-150410000D01*
X86651153Y-150161086D01*
X87111086Y-149701153D01*
X87360000Y-149100222D01*
X87360000Y-148449778D01*
X87345969Y-148415904D01*
X87435631Y-148453043D01*
X87628955Y-148567602D01*
X87756193Y-148585824D01*
X87874914Y-148635000D01*
X88099572Y-148635000D01*
X88322053Y-148666862D01*
X88446598Y-148635000D01*
X88575086Y-148635000D01*
X88782621Y-148549036D01*
X89000378Y-148493328D01*
X89103258Y-148416224D01*
X89221960Y-148367056D01*
X89380791Y-148208225D01*
X89419235Y-148179413D01*
X89503344Y-148085672D01*
X89717056Y-147871960D01*
X89735886Y-147826499D01*
X90365699Y-147124561D01*
X93815000Y-147124561D01*
X93815000Y-147695439D01*
X94033466Y-148222862D01*
X94437138Y-148626534D01*
X94964561Y-148845000D01*
X95535439Y-148845000D01*
X96062862Y-148626534D01*
X96466534Y-148222862D01*
X96685000Y-147695439D01*
X96685000Y-147124561D01*
X96466534Y-146597138D01*
X96147440Y-146278044D01*
X96147440Y-146249965D01*
X96307809Y-146142809D01*
X96448157Y-145932765D01*
X96497440Y-145685000D01*
X96497440Y-144485000D01*
X96448157Y-144237235D01*
X96307809Y-144027191D01*
X96097765Y-143886843D01*
X95850000Y-143837560D01*
X94650000Y-143837560D01*
X94402235Y-143886843D01*
X94192191Y-144027191D01*
X94051843Y-144237235D01*
X94002560Y-144485000D01*
X94002560Y-145685000D01*
X94051843Y-145932765D01*
X94192191Y-146142809D01*
X94352560Y-146249965D01*
X94352560Y-146278044D01*
X94033466Y-146597138D01*
X93815000Y-147124561D01*
X90365699Y-147124561D01*
X90960752Y-146461365D01*
X91227594Y-146011056D01*
X91326854Y-145317957D01*
X91153320Y-144639631D01*
X90962485Y-144385000D01*
X91105358Y-144385000D01*
X91165713Y-144360000D01*
X91520385Y-144360000D01*
X92066185Y-144133922D01*
X92483922Y-143716185D01*
X92710000Y-143170385D01*
X92710000Y-142579615D01*
X92483922Y-142033815D01*
X92066185Y-141616078D01*
X91520385Y-141390000D01*
X91165713Y-141390000D01*
X91105358Y-141365000D01*
X90504642Y-141365000D01*
X89949654Y-141594884D01*
X89524884Y-142019654D01*
X89295000Y-142574642D01*
X89295000Y-143175358D01*
X89483162Y-143629620D01*
X89437956Y-143623146D01*
X88759631Y-143796680D01*
X88340775Y-144110595D01*
X86946999Y-145663985D01*
X86732944Y-145878040D01*
X86646917Y-146085728D01*
X86532416Y-146278953D01*
X86514203Y-146406127D01*
X86465000Y-146524914D01*
X86465000Y-146749695D01*
X86433156Y-146972051D01*
X86465000Y-147096526D01*
X86465000Y-147225086D01*
X86508360Y-147329767D01*
X86050222Y-147140000D01*
X85399778Y-147140000D01*
X84991103Y-147309279D01*
X84925750Y-146802633D01*
X84577253Y-146195353D01*
X84022887Y-145767663D01*
X83985000Y-145757405D01*
X83985000Y-145021846D01*
X83999888Y-144946999D01*
X83985000Y-144872152D01*
X83985000Y-144872148D01*
X83980202Y-144848028D01*
X84235848Y-145103674D01*
X85202079Y-145503900D01*
X86247921Y-145503900D01*
X87214152Y-145103674D01*
X87953674Y-144364152D01*
X88353900Y-143397921D01*
X88353900Y-142352079D01*
X87953674Y-141385848D01*
X87214152Y-140646326D01*
X86247921Y-140246100D01*
X85202079Y-140246100D01*
X84235848Y-140646326D01*
X83496326Y-141385848D01*
X83183000Y-142142284D01*
X83183000Y-138469126D01*
X89910000Y-138469126D01*
X89910000Y-138880874D01*
X90067569Y-139261280D01*
X90358720Y-139552431D01*
X90739126Y-139710000D01*
X91150874Y-139710000D01*
X91531280Y-139552431D01*
X91822431Y-139261280D01*
X91980000Y-138880874D01*
X91980000Y-138469126D01*
X91822431Y-138088720D01*
X91531280Y-137797569D01*
X91150874Y-137640000D01*
X90739126Y-137640000D01*
X90358720Y-137797569D01*
X90067569Y-138088720D01*
X89910000Y-138469126D01*
X83183000Y-138469126D01*
X83183000Y-137601801D01*
X86169473Y-134615329D01*
X86232929Y-134572929D01*
X86400904Y-134321537D01*
X86445000Y-134099852D01*
X86445000Y-134099848D01*
X86459888Y-134025000D01*
X86445000Y-133950152D01*
X86445000Y-113722909D01*
X86611153Y-113654086D01*
X86935000Y-113330239D01*
X87258847Y-113654086D01*
X87859778Y-113903000D01*
X88510222Y-113903000D01*
X89111153Y-113654086D01*
X89571086Y-113194153D01*
X89820000Y-112593222D01*
X89820000Y-111942778D01*
X89571086Y-111341847D01*
X89111153Y-110881914D01*
X88945000Y-110813091D01*
X88945000Y-103168000D01*
X89637560Y-103168000D01*
X89637560Y-106368000D01*
X89686843Y-106615765D01*
X89827191Y-106825809D01*
X90037235Y-106966157D01*
X90285000Y-107015440D01*
X92285000Y-107015440D01*
X92532765Y-106966157D01*
X92742809Y-106825809D01*
X92883157Y-106615765D01*
X92932440Y-106368000D01*
X92932440Y-103168000D01*
X92883157Y-102920235D01*
X92742809Y-102710191D01*
X92532765Y-102569843D01*
X92285000Y-102520560D01*
X90285000Y-102520560D01*
X90037235Y-102569843D01*
X89827191Y-102710191D01*
X89686843Y-102920235D01*
X89637560Y-103168000D01*
X88945000Y-103168000D01*
X88945000Y-101359801D01*
X90654473Y-99650329D01*
X90717929Y-99607929D01*
X90885904Y-99356537D01*
X90930000Y-99134852D01*
X90930000Y-99134847D01*
X90944888Y-99060000D01*
X90930000Y-98985153D01*
X90930000Y-91604846D01*
X90944888Y-91529999D01*
X90930000Y-91455152D01*
X90930000Y-91455148D01*
X90885904Y-91233463D01*
X90717929Y-90982071D01*
X90654473Y-90939671D01*
X90313103Y-90598302D01*
X90335000Y-90545439D01*
X90335000Y-89974561D01*
X90116534Y-89447138D01*
X89797440Y-89128044D01*
X89797440Y-89099965D01*
X89957809Y-88992809D01*
X90098157Y-88782765D01*
X90147440Y-88535000D01*
X90147440Y-87335000D01*
X90143663Y-87316010D01*
X94490001Y-87316010D01*
X94490000Y-138162560D01*
G36*
X147187235Y-106966157D02*
X147435000Y-107015440D01*
X149435000Y-107015440D01*
X149682765Y-106966157D01*
X149729739Y-106934770D01*
X149731161Y-106941918D01*
X150059375Y-107433125D01*
X150357761Y-107632500D01*
X150059375Y-107831875D01*
X149731161Y-108323082D01*
X149615908Y-108902500D01*
X149731161Y-109481918D01*
X150059375Y-109973125D01*
X150550582Y-110301339D01*
X150983744Y-110387500D01*
X151276256Y-110387500D01*
X151690001Y-110305201D01*
X151690000Y-117834137D01*
X151677929Y-117816071D01*
X151426537Y-117648096D01*
X151130000Y-117589111D01*
X150833464Y-117648096D01*
X150582072Y-117816071D01*
X150414097Y-118067463D01*
X150370001Y-118289148D01*
X150370001Y-118835060D01*
X150280000Y-118835060D01*
X150032235Y-118884343D01*
X149822191Y-119024691D01*
X149681843Y-119234735D01*
X149632560Y-119482500D01*
X149632560Y-121182500D01*
X149681843Y-121430265D01*
X149822191Y-121640309D01*
X150032235Y-121780657D01*
X150077619Y-121789684D01*
X150059375Y-121801875D01*
X149731161Y-122293082D01*
X149615908Y-122872500D01*
X149731161Y-123451918D01*
X150059375Y-123943125D01*
X150357761Y-124142500D01*
X150059375Y-124341875D01*
X149731161Y-124833082D01*
X149615908Y-125412500D01*
X149731161Y-125991918D01*
X150059375Y-126483125D01*
X150357761Y-126682500D01*
X150059375Y-126881875D01*
X149731161Y-127373082D01*
X149615908Y-127952500D01*
X149731161Y-128531918D01*
X150059375Y-129023125D01*
X150550582Y-129351339D01*
X150983744Y-129437500D01*
X151276256Y-129437500D01*
X151690000Y-129355201D01*
X151690000Y-137885060D01*
X150280000Y-137885060D01*
X150032235Y-137934343D01*
X149822191Y-138074691D01*
X149681843Y-138284735D01*
X149632560Y-138532500D01*
X149632560Y-140232500D01*
X149681843Y-140480265D01*
X149822191Y-140690309D01*
X150032235Y-140830657D01*
X150077619Y-140839684D01*
X150059375Y-140851875D01*
X149731161Y-141343082D01*
X149615908Y-141922500D01*
X149641863Y-142052987D01*
X149633922Y-142033815D01*
X149216185Y-141616078D01*
X148670385Y-141390000D01*
X148315713Y-141390000D01*
X148255358Y-141365000D01*
X147654642Y-141365000D01*
X147099654Y-141594884D01*
X146674884Y-142019654D01*
X146445000Y-142574642D01*
X146445000Y-143175358D01*
X146633162Y-143629620D01*
X146587956Y-143623146D01*
X145909631Y-143796680D01*
X145490775Y-144110595D01*
X144096999Y-145663985D01*
X143882944Y-145878040D01*
X143796917Y-146085728D01*
X143682416Y-146278953D01*
X143664203Y-146406127D01*
X143615000Y-146524914D01*
X143615000Y-146749695D01*
X143583156Y-146972051D01*
X143615000Y-147096526D01*
X143615000Y-147225086D01*
X143658360Y-147329767D01*
X143200222Y-147140000D01*
X142549778Y-147140000D01*
X142141103Y-147309279D01*
X142075750Y-146802633D01*
X141727253Y-146195353D01*
X141172887Y-145767663D01*
X141135000Y-145757405D01*
X141135000Y-145275846D01*
X141149888Y-145200999D01*
X141135000Y-145126152D01*
X141135000Y-145126148D01*
X141090904Y-144904463D01*
X140922929Y-144653071D01*
X140859473Y-144610671D01*
X140460000Y-144211199D01*
X140460000Y-143914321D01*
X140646326Y-144364152D01*
X141385848Y-145103674D01*
X142352079Y-145503900D01*
X143397921Y-145503900D01*
X144364152Y-145103674D01*
X145103674Y-144364152D01*
X145503900Y-143397921D01*
X145503900Y-142352079D01*
X145103674Y-141385848D01*
X144364152Y-140646326D01*
X143397921Y-140246100D01*
X142352079Y-140246100D01*
X141385848Y-140646326D01*
X140646326Y-141385848D01*
X140460000Y-141835679D01*
X140460000Y-138469126D01*
X147060000Y-138469126D01*
X147060000Y-138880874D01*
X147217569Y-139261280D01*
X147508720Y-139552431D01*
X147889126Y-139710000D01*
X148300874Y-139710000D01*
X148681280Y-139552431D01*
X148972431Y-139261280D01*
X149130000Y-138880874D01*
X149130000Y-138469126D01*
X148972431Y-138088720D01*
X148681280Y-137797569D01*
X148300874Y-137640000D01*
X147889126Y-137640000D01*
X147508720Y-137797569D01*
X147217569Y-138088720D01*
X147060000Y-138469126D01*
X140460000Y-138469126D01*
X140460000Y-134701868D01*
X146655737Y-134701868D01*
X146766641Y-134979099D01*
X147412593Y-135222323D01*
X148102453Y-135199836D01*
X148635359Y-134979099D01*
X148746263Y-134701868D01*
X147701000Y-133656605D01*
X146655737Y-134701868D01*
X140460000Y-134701868D01*
X140460000Y-133188593D01*
X145955677Y-133188593D01*
X145978164Y-133878453D01*
X146198901Y-134411359D01*
X146476132Y-134522263D01*
X147521395Y-133477000D01*
X147880605Y-133477000D01*
X148925868Y-134522263D01*
X149203099Y-134411359D01*
X149446323Y-133765407D01*
X149423836Y-133075547D01*
X149203099Y-132542641D01*
X148925868Y-132431737D01*
X147880605Y-133477000D01*
X147521395Y-133477000D01*
X146476132Y-132431737D01*
X146198901Y-132542641D01*
X145955677Y-133188593D01*
X140460000Y-133188593D01*
X140460000Y-132252132D01*
X146655737Y-132252132D01*
X147701000Y-133297395D01*
X148746263Y-132252132D01*
X148635359Y-131974901D01*
X147989407Y-131731677D01*
X147299547Y-131754164D01*
X146766641Y-131974901D01*
X146655737Y-132252132D01*
X140460000Y-132252132D01*
X140460000Y-115717801D01*
X142343625Y-113834177D01*
X142509778Y-113903000D01*
X143160222Y-113903000D01*
X143761153Y-113654086D01*
X144085000Y-113330239D01*
X144408847Y-113654086D01*
X145009778Y-113903000D01*
X145660222Y-113903000D01*
X146261153Y-113654086D01*
X146721086Y-113194153D01*
X146970000Y-112593222D01*
X146970000Y-111942778D01*
X146904244Y-111784029D01*
X147050903Y-111564538D01*
X147094999Y-111342853D01*
X147094999Y-111342849D01*
X147109887Y-111268002D01*
X147094999Y-111193155D01*
X147094999Y-106904526D01*
X147187235Y-106966157D01*
X147187235Y-106966157D01*
G37*
X147187235Y-106966157D02*
X147435000Y-107015440D01*
X149435000Y-107015440D01*
X149682765Y-106966157D01*
X149729739Y-106934770D01*
X149731161Y-106941918D01*
X150059375Y-107433125D01*
X150357761Y-107632500D01*
X150059375Y-107831875D01*
X149731161Y-108323082D01*
X149615908Y-108902500D01*
X149731161Y-109481918D01*
X150059375Y-109973125D01*
X150550582Y-110301339D01*
X150983744Y-110387500D01*
X151276256Y-110387500D01*
X151690001Y-110305201D01*
X151690000Y-117834137D01*
X151677929Y-117816071D01*
X151426537Y-117648096D01*
X151130000Y-117589111D01*
X150833464Y-117648096D01*
X150582072Y-117816071D01*
X150414097Y-118067463D01*
X150370001Y-118289148D01*
X150370001Y-118835060D01*
X150280000Y-118835060D01*
X150032235Y-118884343D01*
X149822191Y-119024691D01*
X149681843Y-119234735D01*
X149632560Y-119482500D01*
X149632560Y-121182500D01*
X149681843Y-121430265D01*
X149822191Y-121640309D01*
X150032235Y-121780657D01*
X150077619Y-121789684D01*
X150059375Y-121801875D01*
X149731161Y-122293082D01*
X149615908Y-122872500D01*
X149731161Y-123451918D01*
X150059375Y-123943125D01*
X150357761Y-124142500D01*
X150059375Y-124341875D01*
X149731161Y-124833082D01*
X149615908Y-125412500D01*
X149731161Y-125991918D01*
X150059375Y-126483125D01*
X150357761Y-126682500D01*
X150059375Y-126881875D01*
X149731161Y-127373082D01*
X149615908Y-127952500D01*
X149731161Y-128531918D01*
X150059375Y-129023125D01*
X150550582Y-129351339D01*
X150983744Y-129437500D01*
X151276256Y-129437500D01*
X151690000Y-129355201D01*
X151690000Y-137885060D01*
X150280000Y-137885060D01*
X150032235Y-137934343D01*
X149822191Y-138074691D01*
X149681843Y-138284735D01*
X149632560Y-138532500D01*
X149632560Y-140232500D01*
X149681843Y-140480265D01*
X149822191Y-140690309D01*
X150032235Y-140830657D01*
X150077619Y-140839684D01*
X150059375Y-140851875D01*
X149731161Y-141343082D01*
X149615908Y-141922500D01*
X149641863Y-142052987D01*
X149633922Y-142033815D01*
X149216185Y-141616078D01*
X148670385Y-141390000D01*
X148315713Y-141390000D01*
X148255358Y-141365000D01*
X147654642Y-141365000D01*
X147099654Y-141594884D01*
X146674884Y-142019654D01*
X146445000Y-142574642D01*
X146445000Y-143175358D01*
X146633162Y-143629620D01*
X146587956Y-143623146D01*
X145909631Y-143796680D01*
X145490775Y-144110595D01*
X144096999Y-145663985D01*
X143882944Y-145878040D01*
X143796917Y-146085728D01*
X143682416Y-146278953D01*
X143664203Y-146406127D01*
X143615000Y-146524914D01*
X143615000Y-146749695D01*
X143583156Y-146972051D01*
X143615000Y-147096526D01*
X143615000Y-147225086D01*
X143658360Y-147329767D01*
X143200222Y-147140000D01*
X142549778Y-147140000D01*
X142141103Y-147309279D01*
X142075750Y-146802633D01*
X141727253Y-146195353D01*
X141172887Y-145767663D01*
X141135000Y-145757405D01*
X141135000Y-145275846D01*
X141149888Y-145200999D01*
X141135000Y-145126152D01*
X141135000Y-145126148D01*
X141090904Y-144904463D01*
X140922929Y-144653071D01*
X140859473Y-144610671D01*
X140460000Y-144211199D01*
X140460000Y-143914321D01*
X140646326Y-144364152D01*
X141385848Y-145103674D01*
X142352079Y-145503900D01*
X143397921Y-145503900D01*
X144364152Y-145103674D01*
X145103674Y-144364152D01*
X145503900Y-143397921D01*
X145503900Y-142352079D01*
X145103674Y-141385848D01*
X144364152Y-140646326D01*
X143397921Y-140246100D01*
X142352079Y-140246100D01*
X141385848Y-140646326D01*
X140646326Y-141385848D01*
X140460000Y-141835679D01*
X140460000Y-138469126D01*
X147060000Y-138469126D01*
X147060000Y-138880874D01*
X147217569Y-139261280D01*
X147508720Y-139552431D01*
X147889126Y-139710000D01*
X148300874Y-139710000D01*
X148681280Y-139552431D01*
X148972431Y-139261280D01*
X149130000Y-138880874D01*
X149130000Y-138469126D01*
X148972431Y-138088720D01*
X148681280Y-137797569D01*
X148300874Y-137640000D01*
X147889126Y-137640000D01*
X147508720Y-137797569D01*
X147217569Y-138088720D01*
X147060000Y-138469126D01*
X140460000Y-138469126D01*
X140460000Y-134701868D01*
X146655737Y-134701868D01*
X146766641Y-134979099D01*
X147412593Y-135222323D01*
X148102453Y-135199836D01*
X148635359Y-134979099D01*
X148746263Y-134701868D01*
X147701000Y-133656605D01*
X146655737Y-134701868D01*
X140460000Y-134701868D01*
X140460000Y-133188593D01*
X145955677Y-133188593D01*
X145978164Y-133878453D01*
X146198901Y-134411359D01*
X146476132Y-134522263D01*
X147521395Y-133477000D01*
X147880605Y-133477000D01*
X148925868Y-134522263D01*
X149203099Y-134411359D01*
X149446323Y-133765407D01*
X149423836Y-133075547D01*
X149203099Y-132542641D01*
X148925868Y-132431737D01*
X147880605Y-133477000D01*
X147521395Y-133477000D01*
X146476132Y-132431737D01*
X146198901Y-132542641D01*
X145955677Y-133188593D01*
X140460000Y-133188593D01*
X140460000Y-132252132D01*
X146655737Y-132252132D01*
X147701000Y-133297395D01*
X148746263Y-132252132D01*
X148635359Y-131974901D01*
X147989407Y-131731677D01*
X147299547Y-131754164D01*
X146766641Y-131974901D01*
X146655737Y-132252132D01*
X140460000Y-132252132D01*
X140460000Y-115717801D01*
X142343625Y-113834177D01*
X142509778Y-113903000D01*
X143160222Y-113903000D01*
X143761153Y-113654086D01*
X144085000Y-113330239D01*
X144408847Y-113654086D01*
X145009778Y-113903000D01*
X145660222Y-113903000D01*
X146261153Y-113654086D01*
X146721086Y-113194153D01*
X146970000Y-112593222D01*
X146970000Y-111942778D01*
X146904244Y-111784029D01*
X147050903Y-111564538D01*
X147094999Y-111342853D01*
X147094999Y-111342849D01*
X147109887Y-111268002D01*
X147094999Y-111193155D01*
X147094999Y-106904526D01*
X147187235Y-106966157D01*
G36*
X82572560Y-88535000D02*
X82621843Y-88782765D01*
X82762191Y-88992809D01*
X82922560Y-89099965D01*
X82922560Y-89128044D01*
X82603466Y-89447138D01*
X82385000Y-89974561D01*
X82385000Y-90545439D01*
X82603466Y-91072862D01*
X83007138Y-91476534D01*
X83060001Y-91498431D01*
X83060000Y-96133000D01*
X82859778Y-96133000D01*
X82546378Y-96262815D01*
X82771323Y-95665407D01*
X82748836Y-94975547D01*
X82528099Y-94442641D01*
X82250868Y-94331737D01*
X81205605Y-95377000D01*
X81219748Y-95391143D01*
X81040143Y-95570748D01*
X81026000Y-95556605D01*
X79980737Y-96601868D01*
X80091641Y-96879099D01*
X80737593Y-97122323D01*
X81427453Y-97099836D01*
X81746852Y-96967537D01*
X81550000Y-97442778D01*
X81550000Y-98093222D01*
X81798914Y-98694153D01*
X82258847Y-99154086D01*
X82859778Y-99403000D01*
X83510222Y-99403000D01*
X84111153Y-99154086D01*
X84571086Y-98694153D01*
X84820000Y-98093222D01*
X84820000Y-97442778D01*
X84580000Y-96863367D01*
X84580000Y-91498430D01*
X84632862Y-91476534D01*
X85036534Y-91072862D01*
X85090000Y-90943784D01*
X85143466Y-91072862D01*
X85547138Y-91476534D01*
X85600001Y-91498431D01*
X85600000Y-98641788D01*
X82700528Y-101541261D01*
X82637072Y-101583661D01*
X82594672Y-101647117D01*
X82594671Y-101647118D01*
X82469097Y-101835053D01*
X82410112Y-102131590D01*
X82425001Y-102206442D01*
X82425000Y-110620560D01*
X82185000Y-110620560D01*
X81937235Y-110669843D01*
X81727191Y-110810191D01*
X81586843Y-111020235D01*
X81537560Y-111268000D01*
X81537560Y-113268000D01*
X81586843Y-113515765D01*
X81727191Y-113725809D01*
X81937235Y-113866157D01*
X82185000Y-113915440D01*
X84185000Y-113915440D01*
X84432765Y-113866157D01*
X84642809Y-113725809D01*
X84718016Y-113613255D01*
X84758847Y-113654086D01*
X84925001Y-113722909D01*
X84925000Y-133710198D01*
X81938528Y-136696671D01*
X81875072Y-136739071D01*
X81832672Y-136802527D01*
X81832671Y-136802528D01*
X81707097Y-136990463D01*
X81648112Y-137287000D01*
X81663001Y-137361852D01*
X81663000Y-141757538D01*
X81500346Y-141594884D01*
X80945358Y-141365000D01*
X80344642Y-141365000D01*
X80284287Y-141390000D01*
X79929615Y-141390000D01*
X79383815Y-141616078D01*
X78966078Y-142033815D01*
X78958137Y-142052987D01*
X78984092Y-141922500D01*
X78868839Y-141343082D01*
X78540625Y-140851875D01*
X78522381Y-140839684D01*
X78567765Y-140830657D01*
X78777809Y-140690309D01*
X78918157Y-140480265D01*
X78967440Y-140232500D01*
X78967440Y-140030983D01*
X79117929Y-139930429D01*
X79285904Y-139679037D01*
X79344889Y-139382500D01*
X79285904Y-139085963D01*
X79117929Y-138834571D01*
X78967440Y-138734017D01*
X78967440Y-138532500D01*
X78918157Y-138284735D01*
X78777809Y-138074691D01*
X78567765Y-137934343D01*
X78320000Y-137885060D01*
X76910000Y-137885060D01*
X76910000Y-134701868D01*
X79980737Y-134701868D01*
X80091641Y-134979099D01*
X80737593Y-135222323D01*
X81427453Y-135199836D01*
X81960359Y-134979099D01*
X82071263Y-134701868D01*
X81026000Y-133656605D01*
X79980737Y-134701868D01*
X76910000Y-134701868D01*
X76910000Y-133188593D01*
X79280677Y-133188593D01*
X79303164Y-133878453D01*
X79523901Y-134411359D01*
X79801132Y-134522263D01*
X80846395Y-133477000D01*
X81205605Y-133477000D01*
X82250868Y-134522263D01*
X82528099Y-134411359D01*
X82771323Y-133765407D01*
X82748836Y-133075547D01*
X82528099Y-132542641D01*
X82250868Y-132431737D01*
X81205605Y-133477000D01*
X80846395Y-133477000D01*
X79801132Y-132431737D01*
X79523901Y-132542641D01*
X79280677Y-133188593D01*
X76910000Y-133188593D01*
X76910000Y-132252132D01*
X79980737Y-132252132D01*
X81026000Y-133297395D01*
X82071263Y-132252132D01*
X81960359Y-131974901D01*
X81314407Y-131731677D01*
X80624547Y-131754164D01*
X80091641Y-131974901D01*
X79980737Y-132252132D01*
X76910000Y-132252132D01*
X76910000Y-129355201D01*
X77323744Y-129437500D01*
X77616256Y-129437500D01*
X78049418Y-129351339D01*
X78540625Y-129023125D01*
X78868839Y-128531918D01*
X78984092Y-127952500D01*
X78868839Y-127373082D01*
X78540625Y-126881875D01*
X78242239Y-126682500D01*
X78540625Y-126483125D01*
X78868839Y-125991918D01*
X78984092Y-125412500D01*
X78868839Y-124833082D01*
X78540625Y-124341875D01*
X78242239Y-124142500D01*
X78540625Y-123943125D01*
X78868839Y-123451918D01*
X78984092Y-122872500D01*
X78868839Y-122293082D01*
X78540625Y-121801875D01*
X78522381Y-121789684D01*
X78567765Y-121780657D01*
X78777809Y-121640309D01*
X78918157Y-121430265D01*
X78967440Y-121182500D01*
X78967440Y-121092500D01*
X83448942Y-121092500D01*
X83670627Y-121048404D01*
X83922019Y-120880429D01*
X84089994Y-120629037D01*
X84148979Y-120332500D01*
X84089994Y-120035963D01*
X83922019Y-119784571D01*
X83670627Y-119616596D01*
X83448942Y-119572500D01*
X78967440Y-119572500D01*
X78967440Y-119482500D01*
X78918157Y-119234735D01*
X78777809Y-119024691D01*
X78567765Y-118884343D01*
X78320000Y-118835060D01*
X76910000Y-118835060D01*
X76910000Y-110305201D01*
X77323744Y-110387500D01*
X77616256Y-110387500D01*
X78049418Y-110301339D01*
X78540625Y-109973125D01*
X78868839Y-109481918D01*
X78984092Y-108902500D01*
X78868839Y-108323082D01*
X78540625Y-107831875D01*
X78242239Y-107632500D01*
X78540625Y-107433125D01*
X78850835Y-106968862D01*
X79085000Y-107015440D01*
X81085000Y-107015440D01*
X81332765Y-106966157D01*
X81542809Y-106825809D01*
X81683157Y-106615765D01*
X81732440Y-106368000D01*
X81732440Y-103168000D01*
X81683157Y-102920235D01*
X81542809Y-102710191D01*
X81332765Y-102569843D01*
X81085000Y-102520560D01*
X79085000Y-102520560D01*
X78837235Y-102569843D01*
X78627191Y-102710191D01*
X78569982Y-102795810D01*
X78540625Y-102751875D01*
X78522381Y-102739684D01*
X78567765Y-102730657D01*
X78777809Y-102590309D01*
X78918157Y-102380265D01*
X78967440Y-102132500D01*
X78967440Y-100432500D01*
X78918157Y-100184735D01*
X78777809Y-99974691D01*
X78567765Y-99834343D01*
X78320000Y-99785060D01*
X76910000Y-99785060D01*
X76910000Y-95088593D01*
X79280677Y-95088593D01*
X79303164Y-95778453D01*
X79523901Y-96311359D01*
X79801132Y-96422263D01*
X80846395Y-95377000D01*
X79801132Y-94331737D01*
X79523901Y-94442641D01*
X79280677Y-95088593D01*
X76910000Y-95088593D01*
X76910000Y-94152132D01*
X79980737Y-94152132D01*
X81026000Y-95197395D01*
X82071263Y-94152132D01*
X81960359Y-93874901D01*
X81314407Y-93631677D01*
X80624547Y-93654164D01*
X80091641Y-93874901D01*
X79980737Y-94152132D01*
X76910000Y-94152132D01*
X76910000Y-91255201D01*
X77323744Y-91337500D01*
X77616256Y-91337500D01*
X78049418Y-91251339D01*
X78540625Y-90923125D01*
X78748178Y-90612500D01*
X78982653Y-90612500D01*
X79057500Y-90627388D01*
X79132347Y-90612500D01*
X79132352Y-90612500D01*
X79354037Y-90568404D01*
X79605429Y-90400429D01*
X79647831Y-90336970D01*
X82572560Y-87412242D01*
X82572560Y-88535000D01*
X82572560Y-88535000D01*
G37*
X82572560Y-88535000D02*
X82621843Y-88782765D01*
X82762191Y-88992809D01*
X82922560Y-89099965D01*
X82922560Y-89128044D01*
X82603466Y-89447138D01*
X82385000Y-89974561D01*
X82385000Y-90545439D01*
X82603466Y-91072862D01*
X83007138Y-91476534D01*
X83060001Y-91498431D01*
X83060000Y-96133000D01*
X82859778Y-96133000D01*
X82546378Y-96262815D01*
X82771323Y-95665407D01*
X82748836Y-94975547D01*
X82528099Y-94442641D01*
X82250868Y-94331737D01*
X81205605Y-95377000D01*
X81219748Y-95391143D01*
X81040143Y-95570748D01*
X81026000Y-95556605D01*
X79980737Y-96601868D01*
X80091641Y-96879099D01*
X80737593Y-97122323D01*
X81427453Y-97099836D01*
X81746852Y-96967537D01*
X81550000Y-97442778D01*
X81550000Y-98093222D01*
X81798914Y-98694153D01*
X82258847Y-99154086D01*
X82859778Y-99403000D01*
X83510222Y-99403000D01*
X84111153Y-99154086D01*
X84571086Y-98694153D01*
X84820000Y-98093222D01*
X84820000Y-97442778D01*
X84580000Y-96863367D01*
X84580000Y-91498430D01*
X84632862Y-91476534D01*
X85036534Y-91072862D01*
X85090000Y-90943784D01*
X85143466Y-91072862D01*
X85547138Y-91476534D01*
X85600001Y-91498431D01*
X85600000Y-98641788D01*
X82700528Y-101541261D01*
X82637072Y-101583661D01*
X82594672Y-101647117D01*
X82594671Y-101647118D01*
X82469097Y-101835053D01*
X82410112Y-102131590D01*
X82425001Y-102206442D01*
X82425000Y-110620560D01*
X82185000Y-110620560D01*
X81937235Y-110669843D01*
X81727191Y-110810191D01*
X81586843Y-111020235D01*
X81537560Y-111268000D01*
X81537560Y-113268000D01*
X81586843Y-113515765D01*
X81727191Y-113725809D01*
X81937235Y-113866157D01*
X82185000Y-113915440D01*
X84185000Y-113915440D01*
X84432765Y-113866157D01*
X84642809Y-113725809D01*
X84718016Y-113613255D01*
X84758847Y-113654086D01*
X84925001Y-113722909D01*
X84925000Y-133710198D01*
X81938528Y-136696671D01*
X81875072Y-136739071D01*
X81832672Y-136802527D01*
X81832671Y-136802528D01*
X81707097Y-136990463D01*
X81648112Y-137287000D01*
X81663001Y-137361852D01*
X81663000Y-141757538D01*
X81500346Y-141594884D01*
X80945358Y-141365000D01*
X80344642Y-141365000D01*
X80284287Y-141390000D01*
X79929615Y-141390000D01*
X79383815Y-141616078D01*
X78966078Y-142033815D01*
X78958137Y-142052987D01*
X78984092Y-141922500D01*
X78868839Y-141343082D01*
X78540625Y-140851875D01*
X78522381Y-140839684D01*
X78567765Y-140830657D01*
X78777809Y-140690309D01*
X78918157Y-140480265D01*
X78967440Y-140232500D01*
X78967440Y-140030983D01*
X79117929Y-139930429D01*
X79285904Y-139679037D01*
X79344889Y-139382500D01*
X79285904Y-139085963D01*
X79117929Y-138834571D01*
X78967440Y-138734017D01*
X78967440Y-138532500D01*
X78918157Y-138284735D01*
X78777809Y-138074691D01*
X78567765Y-137934343D01*
X78320000Y-137885060D01*
X76910000Y-137885060D01*
X76910000Y-134701868D01*
X79980737Y-134701868D01*
X80091641Y-134979099D01*
X80737593Y-135222323D01*
X81427453Y-135199836D01*
X81960359Y-134979099D01*
X82071263Y-134701868D01*
X81026000Y-133656605D01*
X79980737Y-134701868D01*
X76910000Y-134701868D01*
X76910000Y-133188593D01*
X79280677Y-133188593D01*
X79303164Y-133878453D01*
X79523901Y-134411359D01*
X79801132Y-134522263D01*
X80846395Y-133477000D01*
X81205605Y-133477000D01*
X82250868Y-134522263D01*
X82528099Y-134411359D01*
X82771323Y-133765407D01*
X82748836Y-133075547D01*
X82528099Y-132542641D01*
X82250868Y-132431737D01*
X81205605Y-133477000D01*
X80846395Y-133477000D01*
X79801132Y-132431737D01*
X79523901Y-132542641D01*
X79280677Y-133188593D01*
X76910000Y-133188593D01*
X76910000Y-132252132D01*
X79980737Y-132252132D01*
X81026000Y-133297395D01*
X82071263Y-132252132D01*
X81960359Y-131974901D01*
X81314407Y-131731677D01*
X80624547Y-131754164D01*
X80091641Y-131974901D01*
X79980737Y-132252132D01*
X76910000Y-132252132D01*
X76910000Y-129355201D01*
X77323744Y-129437500D01*
X77616256Y-129437500D01*
X78049418Y-129351339D01*
X78540625Y-129023125D01*
X78868839Y-128531918D01*
X78984092Y-127952500D01*
X78868839Y-127373082D01*
X78540625Y-126881875D01*
X78242239Y-126682500D01*
X78540625Y-126483125D01*
X78868839Y-125991918D01*
X78984092Y-125412500D01*
X78868839Y-124833082D01*
X78540625Y-124341875D01*
X78242239Y-124142500D01*
X78540625Y-123943125D01*
X78868839Y-123451918D01*
X78984092Y-122872500D01*
X78868839Y-122293082D01*
X78540625Y-121801875D01*
X78522381Y-121789684D01*
X78567765Y-121780657D01*
X78777809Y-121640309D01*
X78918157Y-121430265D01*
X78967440Y-121182500D01*
X78967440Y-121092500D01*
X83448942Y-121092500D01*
X83670627Y-121048404D01*
X83922019Y-120880429D01*
X84089994Y-120629037D01*
X84148979Y-120332500D01*
X84089994Y-120035963D01*
X83922019Y-119784571D01*
X83670627Y-119616596D01*
X83448942Y-119572500D01*
X78967440Y-119572500D01*
X78967440Y-119482500D01*
X78918157Y-119234735D01*
X78777809Y-119024691D01*
X78567765Y-118884343D01*
X78320000Y-118835060D01*
X76910000Y-118835060D01*
X76910000Y-110305201D01*
X77323744Y-110387500D01*
X77616256Y-110387500D01*
X78049418Y-110301339D01*
X78540625Y-109973125D01*
X78868839Y-109481918D01*
X78984092Y-108902500D01*
X78868839Y-108323082D01*
X78540625Y-107831875D01*
X78242239Y-107632500D01*
X78540625Y-107433125D01*
X78850835Y-106968862D01*
X79085000Y-107015440D01*
X81085000Y-107015440D01*
X81332765Y-106966157D01*
X81542809Y-106825809D01*
X81683157Y-106615765D01*
X81732440Y-106368000D01*
X81732440Y-103168000D01*
X81683157Y-102920235D01*
X81542809Y-102710191D01*
X81332765Y-102569843D01*
X81085000Y-102520560D01*
X79085000Y-102520560D01*
X78837235Y-102569843D01*
X78627191Y-102710191D01*
X78569982Y-102795810D01*
X78540625Y-102751875D01*
X78522381Y-102739684D01*
X78567765Y-102730657D01*
X78777809Y-102590309D01*
X78918157Y-102380265D01*
X78967440Y-102132500D01*
X78967440Y-100432500D01*
X78918157Y-100184735D01*
X78777809Y-99974691D01*
X78567765Y-99834343D01*
X78320000Y-99785060D01*
X76910000Y-99785060D01*
X76910000Y-95088593D01*
X79280677Y-95088593D01*
X79303164Y-95778453D01*
X79523901Y-96311359D01*
X79801132Y-96422263D01*
X80846395Y-95377000D01*
X79801132Y-94331737D01*
X79523901Y-94442641D01*
X79280677Y-95088593D01*
X76910000Y-95088593D01*
X76910000Y-94152132D01*
X79980737Y-94152132D01*
X81026000Y-95197395D01*
X82071263Y-94152132D01*
X81960359Y-93874901D01*
X81314407Y-93631677D01*
X80624547Y-93654164D01*
X80091641Y-93874901D01*
X79980737Y-94152132D01*
X76910000Y-94152132D01*
X76910000Y-91255201D01*
X77323744Y-91337500D01*
X77616256Y-91337500D01*
X78049418Y-91251339D01*
X78540625Y-90923125D01*
X78748178Y-90612500D01*
X78982653Y-90612500D01*
X79057500Y-90627388D01*
X79132347Y-90612500D01*
X79132352Y-90612500D01*
X79354037Y-90568404D01*
X79605429Y-90400429D01*
X79647831Y-90336970D01*
X82572560Y-87412242D01*
X82572560Y-88535000D01*
G36*
X126875000Y-109188984D02*
X125800528Y-110263458D01*
X125737072Y-110305858D01*
X125694672Y-110369314D01*
X125694671Y-110369315D01*
X125569097Y-110557250D01*
X125517597Y-110816158D01*
X125358847Y-110881914D01*
X125035000Y-111205761D01*
X124711153Y-110881914D01*
X124545000Y-110813091D01*
X124545000Y-100582801D01*
X125793625Y-99334177D01*
X125959778Y-99403000D01*
X126610222Y-99403000D01*
X126875001Y-99293325D01*
X126875000Y-109188984D01*
X126875000Y-109188984D01*
G37*
X126875000Y-109188984D02*
X125800528Y-110263458D01*
X125737072Y-110305858D01*
X125694672Y-110369314D01*
X125694671Y-110369315D01*
X125569097Y-110557250D01*
X125517597Y-110816158D01*
X125358847Y-110881914D01*
X125035000Y-111205761D01*
X124711153Y-110881914D01*
X124545000Y-110813091D01*
X124545000Y-100582801D01*
X125793625Y-99334177D01*
X125959778Y-99403000D01*
X126610222Y-99403000D01*
X126875001Y-99293325D01*
X126875000Y-109188984D01*
G36*
X87700528Y-100454671D02*
X87637072Y-100497071D01*
X87594672Y-100560527D01*
X87594671Y-100560528D01*
X87478379Y-100734571D01*
X87469097Y-100748463D01*
X87440134Y-100894072D01*
X87410112Y-101045000D01*
X87425001Y-101119852D01*
X87425000Y-110813091D01*
X87258847Y-110881914D01*
X86935000Y-111205761D01*
X86611153Y-110881914D01*
X86445000Y-110813091D01*
X86445000Y-100582801D01*
X87693625Y-99334177D01*
X87859778Y-99403000D01*
X88510222Y-99403000D01*
X88923302Y-99231897D01*
X87700528Y-100454671D01*
X87700528Y-100454671D01*
G37*
X87700528Y-100454671D02*
X87637072Y-100497071D01*
X87594672Y-100560527D01*
X87594671Y-100560528D01*
X87478379Y-100734571D01*
X87469097Y-100748463D01*
X87440134Y-100894072D01*
X87410112Y-101045000D01*
X87425001Y-101119852D01*
X87425000Y-110813091D01*
X87258847Y-110881914D01*
X86935000Y-111205761D01*
X86611153Y-110881914D01*
X86445000Y-110813091D01*
X86445000Y-100582801D01*
X87693625Y-99334177D01*
X87859778Y-99403000D01*
X88510222Y-99403000D01*
X88923302Y-99231897D01*
X87700528Y-100454671D01*
G36*
X107750527Y-99327672D02*
X107687071Y-99370072D01*
X107644671Y-99433528D01*
X107644670Y-99433529D01*
X107519096Y-99621464D01*
X107460111Y-99918001D01*
X107475000Y-99992853D01*
X107474999Y-110633000D01*
X106909778Y-110633000D01*
X106308847Y-110881914D01*
X105985000Y-111205761D01*
X105661153Y-110881914D01*
X105495000Y-110813091D01*
X105495000Y-100582801D01*
X106743625Y-99334177D01*
X106909778Y-99403000D01*
X107560222Y-99403000D01*
X107756500Y-99321699D01*
X107750527Y-99327672D01*
X107750527Y-99327672D01*
G37*
X107750527Y-99327672D02*
X107687071Y-99370072D01*
X107644671Y-99433528D01*
X107644670Y-99433529D01*
X107519096Y-99621464D01*
X107460111Y-99918001D01*
X107475000Y-99992853D01*
X107474999Y-110633000D01*
X106909778Y-110633000D01*
X106308847Y-110881914D01*
X105985000Y-111205761D01*
X105661153Y-110881914D01*
X105495000Y-110813091D01*
X105495000Y-100582801D01*
X106743625Y-99334177D01*
X106909778Y-99403000D01*
X107560222Y-99403000D01*
X107756500Y-99321699D01*
X107750527Y-99327672D01*
G36*
X103960112Y-100268000D02*
X103975001Y-100342852D01*
X103975000Y-110813091D01*
X103808847Y-110881914D01*
X103768016Y-110922745D01*
X103692809Y-110810191D01*
X103482765Y-110669843D01*
X103235000Y-110620560D01*
X102995000Y-110620560D01*
X102995000Y-101152801D01*
X103980053Y-100167748D01*
X103960112Y-100268000D01*
X103960112Y-100268000D01*
G37*
X103960112Y-100268000D02*
X103975001Y-100342852D01*
X103975000Y-110813091D01*
X103808847Y-110881914D01*
X103768016Y-110922745D01*
X103692809Y-110810191D01*
X103482765Y-110669843D01*
X103235000Y-110620560D01*
X102995000Y-110620560D01*
X102995000Y-101152801D01*
X103980053Y-100167748D01*
X103960112Y-100268000D01*
G36*
X84925000Y-110813091D02*
X84758847Y-110881914D01*
X84718016Y-110922745D01*
X84642809Y-110810191D01*
X84432765Y-110669843D01*
X84185000Y-110620560D01*
X83945000Y-110620560D01*
X83945000Y-102446391D01*
X84925001Y-101466390D01*
X84925000Y-110813091D01*
X84925000Y-110813091D01*
G37*
X84925000Y-110813091D02*
X84758847Y-110881914D01*
X84718016Y-110922745D01*
X84642809Y-110810191D01*
X84432765Y-110669843D01*
X84185000Y-110620560D01*
X83945000Y-110620560D01*
X83945000Y-102446391D01*
X84925001Y-101466390D01*
X84925000Y-110813091D01*
G36*
X149245171Y-89486973D02*
X149287572Y-89550430D01*
X149351028Y-89592830D01*
X149538963Y-89718405D01*
X149587106Y-89727981D01*
X149638637Y-89738231D01*
X149615908Y-89852500D01*
X149731161Y-90431918D01*
X150059375Y-90923125D01*
X150550582Y-91251339D01*
X150983744Y-91337500D01*
X151276256Y-91337500D01*
X151690001Y-91255201D01*
X151690001Y-99785060D01*
X150280000Y-99785060D01*
X150032235Y-99834343D01*
X149822191Y-99974691D01*
X149681843Y-100184735D01*
X149632560Y-100432500D01*
X149632560Y-100634017D01*
X149482071Y-100734571D01*
X149314096Y-100985963D01*
X149255111Y-101282500D01*
X149314096Y-101579037D01*
X149482071Y-101830429D01*
X149632560Y-101930983D01*
X149632560Y-102132500D01*
X149681843Y-102380265D01*
X149822191Y-102590309D01*
X150032235Y-102730657D01*
X150077619Y-102739684D01*
X150059375Y-102751875D01*
X149990019Y-102855674D01*
X149892809Y-102710191D01*
X149682765Y-102569843D01*
X149435000Y-102520560D01*
X147435000Y-102520560D01*
X147187235Y-102569843D01*
X147094999Y-102631474D01*
X147094999Y-101756802D01*
X147804473Y-101047329D01*
X147867929Y-101004929D01*
X147910924Y-100940582D01*
X148035904Y-100753538D01*
X148053095Y-100667112D01*
X148080000Y-100531852D01*
X148080000Y-100531848D01*
X148094888Y-100457000D01*
X148080000Y-100382152D01*
X148080000Y-100009801D01*
X150471473Y-97618329D01*
X150534929Y-97575929D01*
X150702904Y-97324537D01*
X150747000Y-97102852D01*
X150747000Y-97102848D01*
X150761888Y-97028000D01*
X150747000Y-96953152D01*
X150747000Y-94054846D01*
X150761888Y-93979999D01*
X150747000Y-93905152D01*
X150747000Y-93905148D01*
X150702904Y-93683463D01*
X150661102Y-93620902D01*
X150577329Y-93495526D01*
X150577327Y-93495524D01*
X150534929Y-93432071D01*
X150471476Y-93389673D01*
X146857331Y-89775530D01*
X146814929Y-89712071D01*
X146563537Y-89544096D01*
X146341852Y-89500000D01*
X146341847Y-89500000D01*
X146267000Y-89485112D01*
X146192153Y-89500000D01*
X146018430Y-89500000D01*
X145996534Y-89447138D01*
X145677440Y-89128044D01*
X145677440Y-89099965D01*
X145837809Y-88992809D01*
X145978157Y-88782765D01*
X146027440Y-88535000D01*
X146027440Y-87335000D01*
X146023663Y-87316010D01*
X147074209Y-87316010D01*
X149245171Y-89486973D01*
X149245171Y-89486973D01*
G37*
X149245171Y-89486973D02*
X149287572Y-89550430D01*
X149351028Y-89592830D01*
X149538963Y-89718405D01*
X149587106Y-89727981D01*
X149638637Y-89738231D01*
X149615908Y-89852500D01*
X149731161Y-90431918D01*
X150059375Y-90923125D01*
X150550582Y-91251339D01*
X150983744Y-91337500D01*
X151276256Y-91337500D01*
X151690001Y-91255201D01*
X151690001Y-99785060D01*
X150280000Y-99785060D01*
X150032235Y-99834343D01*
X149822191Y-99974691D01*
X149681843Y-100184735D01*
X149632560Y-100432500D01*
X149632560Y-100634017D01*
X149482071Y-100734571D01*
X149314096Y-100985963D01*
X149255111Y-101282500D01*
X149314096Y-101579037D01*
X149482071Y-101830429D01*
X149632560Y-101930983D01*
X149632560Y-102132500D01*
X149681843Y-102380265D01*
X149822191Y-102590309D01*
X150032235Y-102730657D01*
X150077619Y-102739684D01*
X150059375Y-102751875D01*
X149990019Y-102855674D01*
X149892809Y-102710191D01*
X149682765Y-102569843D01*
X149435000Y-102520560D01*
X147435000Y-102520560D01*
X147187235Y-102569843D01*
X147094999Y-102631474D01*
X147094999Y-101756802D01*
X147804473Y-101047329D01*
X147867929Y-101004929D01*
X147910924Y-100940582D01*
X148035904Y-100753538D01*
X148053095Y-100667112D01*
X148080000Y-100531852D01*
X148080000Y-100531848D01*
X148094888Y-100457000D01*
X148080000Y-100382152D01*
X148080000Y-100009801D01*
X150471473Y-97618329D01*
X150534929Y-97575929D01*
X150702904Y-97324537D01*
X150747000Y-97102852D01*
X150747000Y-97102848D01*
X150761888Y-97028000D01*
X150747000Y-96953152D01*
X150747000Y-94054846D01*
X150761888Y-93979999D01*
X150747000Y-93905152D01*
X150747000Y-93905148D01*
X150702904Y-93683463D01*
X150661102Y-93620902D01*
X150577329Y-93495526D01*
X150577327Y-93495524D01*
X150534929Y-93432071D01*
X150471476Y-93389673D01*
X146857331Y-89775530D01*
X146814929Y-89712071D01*
X146563537Y-89544096D01*
X146341852Y-89500000D01*
X146341847Y-89500000D01*
X146267000Y-89485112D01*
X146192153Y-89500000D01*
X146018430Y-89500000D01*
X145996534Y-89447138D01*
X145677440Y-89128044D01*
X145677440Y-89099965D01*
X145837809Y-88992809D01*
X145978157Y-88782765D01*
X146027440Y-88535000D01*
X146027440Y-87335000D01*
X146023663Y-87316010D01*
X147074209Y-87316010D01*
X149245171Y-89486973D01*
G36*
X149227001Y-94294804D02*
X149227001Y-94500345D01*
X149203099Y-94442641D01*
X148925868Y-94331737D01*
X147880605Y-95377000D01*
X148925868Y-96422263D01*
X149203099Y-96311359D01*
X149227000Y-96247882D01*
X149227000Y-96713198D01*
X146835528Y-99104671D01*
X146772072Y-99147071D01*
X146729672Y-99210527D01*
X146729671Y-99210528D01*
X146701207Y-99253128D01*
X146604097Y-99398463D01*
X146560000Y-99620148D01*
X146560000Y-99620153D01*
X146545112Y-99695000D01*
X146560000Y-99769847D01*
X146560000Y-100142198D01*
X146095000Y-100607199D01*
X146095000Y-99222909D01*
X146261153Y-99154086D01*
X146721086Y-98694153D01*
X146970000Y-98093222D01*
X146970000Y-97442778D01*
X146721086Y-96841847D01*
X146568424Y-96689185D01*
X146655738Y-96601870D01*
X146766641Y-96879099D01*
X147412593Y-97122323D01*
X148102453Y-97099836D01*
X148635359Y-96879099D01*
X148746263Y-96601868D01*
X147701000Y-95556605D01*
X147686858Y-95570748D01*
X147507253Y-95391143D01*
X147521395Y-95377000D01*
X146476132Y-94331737D01*
X146198901Y-94442641D01*
X145955677Y-95088593D01*
X145978164Y-95778453D01*
X146198901Y-96311359D01*
X146476130Y-96422262D01*
X146388816Y-96509577D01*
X146261153Y-96381914D01*
X145660222Y-96133000D01*
X145009778Y-96133000D01*
X144408847Y-96381914D01*
X143948914Y-96841847D01*
X143799999Y-97201359D01*
X143799999Y-94152132D01*
X146655737Y-94152132D01*
X147701000Y-95197395D01*
X148746263Y-94152132D01*
X148635359Y-93874901D01*
X147989407Y-93631677D01*
X147299547Y-93654164D01*
X146766641Y-93874901D01*
X146655737Y-94152132D01*
X143799999Y-94152132D01*
X143799999Y-91309395D01*
X143967138Y-91476534D01*
X144494561Y-91695000D01*
X145065439Y-91695000D01*
X145592862Y-91476534D01*
X145996534Y-91072862D01*
X145999031Y-91066833D01*
X149227001Y-94294804D01*
X149227001Y-94294804D01*
G37*
X149227001Y-94294804D02*
X149227001Y-94500345D01*
X149203099Y-94442641D01*
X148925868Y-94331737D01*
X147880605Y-95377000D01*
X148925868Y-96422263D01*
X149203099Y-96311359D01*
X149227000Y-96247882D01*
X149227000Y-96713198D01*
X146835528Y-99104671D01*
X146772072Y-99147071D01*
X146729672Y-99210527D01*
X146729671Y-99210528D01*
X146701207Y-99253128D01*
X146604097Y-99398463D01*
X146560000Y-99620148D01*
X146560000Y-99620153D01*
X146545112Y-99695000D01*
X146560000Y-99769847D01*
X146560000Y-100142198D01*
X146095000Y-100607199D01*
X146095000Y-99222909D01*
X146261153Y-99154086D01*
X146721086Y-98694153D01*
X146970000Y-98093222D01*
X146970000Y-97442778D01*
X146721086Y-96841847D01*
X146568424Y-96689185D01*
X146655738Y-96601870D01*
X146766641Y-96879099D01*
X147412593Y-97122323D01*
X148102453Y-97099836D01*
X148635359Y-96879099D01*
X148746263Y-96601868D01*
X147701000Y-95556605D01*
X147686858Y-95570748D01*
X147507253Y-95391143D01*
X147521395Y-95377000D01*
X146476132Y-94331737D01*
X146198901Y-94442641D01*
X145955677Y-95088593D01*
X145978164Y-95778453D01*
X146198901Y-96311359D01*
X146476130Y-96422262D01*
X146388816Y-96509577D01*
X146261153Y-96381914D01*
X145660222Y-96133000D01*
X145009778Y-96133000D01*
X144408847Y-96381914D01*
X143948914Y-96841847D01*
X143799999Y-97201359D01*
X143799999Y-94152132D01*
X146655737Y-94152132D01*
X147701000Y-95197395D01*
X148746263Y-94152132D01*
X148635359Y-93874901D01*
X147989407Y-93631677D01*
X147299547Y-93654164D01*
X146766641Y-93874901D01*
X146655737Y-94152132D01*
X143799999Y-94152132D01*
X143799999Y-91309395D01*
X143967138Y-91476534D01*
X144494561Y-91695000D01*
X145065439Y-91695000D01*
X145592862Y-91476534D01*
X145996534Y-91072862D01*
X145999031Y-91066833D01*
X149227001Y-94294804D01*
G36*
X105463466Y-91072862D02*
X105867138Y-91476534D01*
X106394561Y-91695000D01*
X106965439Y-91695000D01*
X107018302Y-91673104D01*
X108333001Y-92987804D01*
X108333000Y-96553761D01*
X108161153Y-96381914D01*
X107560222Y-96133000D01*
X106909778Y-96133000D01*
X106308847Y-96381914D01*
X105848914Y-96841847D01*
X105600000Y-97442778D01*
X105600000Y-98093222D01*
X105668823Y-98259375D01*
X104894948Y-99033251D01*
X104900000Y-99007852D01*
X104900000Y-99007848D01*
X104914888Y-98933000D01*
X104900000Y-98858152D01*
X104900000Y-91498430D01*
X104952862Y-91476534D01*
X105356534Y-91072862D01*
X105410000Y-90943784D01*
X105463466Y-91072862D01*
X105463466Y-91072862D01*
G37*
X105463466Y-91072862D02*
X105867138Y-91476534D01*
X106394561Y-91695000D01*
X106965439Y-91695000D01*
X107018302Y-91673104D01*
X108333001Y-92987804D01*
X108333000Y-96553761D01*
X108161153Y-96381914D01*
X107560222Y-96133000D01*
X106909778Y-96133000D01*
X106308847Y-96381914D01*
X105848914Y-96841847D01*
X105600000Y-97442778D01*
X105600000Y-98093222D01*
X105668823Y-98259375D01*
X104894948Y-99033251D01*
X104900000Y-99007852D01*
X104900000Y-99007848D01*
X104914888Y-98933000D01*
X104900000Y-98858152D01*
X104900000Y-91498430D01*
X104952862Y-91476534D01*
X105356534Y-91072862D01*
X105410000Y-90943784D01*
X105463466Y-91072862D01*
G36*
X125783466Y-91072862D02*
X126187138Y-91476534D01*
X126246982Y-91501322D01*
X126284096Y-91687906D01*
X126452071Y-91939299D01*
X126515530Y-91981701D01*
X126875001Y-92341173D01*
X126875001Y-96242675D01*
X126610222Y-96133000D01*
X125959778Y-96133000D01*
X125358847Y-96381914D01*
X124898914Y-96841847D01*
X124650000Y-97442778D01*
X124650000Y-98093222D01*
X124718823Y-98259375D01*
X124094991Y-98883208D01*
X124094991Y-91699810D01*
X124121698Y-91673103D01*
X124174561Y-91695000D01*
X124745439Y-91695000D01*
X125272862Y-91476534D01*
X125676534Y-91072862D01*
X125730000Y-90943784D01*
X125783466Y-91072862D01*
X125783466Y-91072862D01*
G37*
X125783466Y-91072862D02*
X126187138Y-91476534D01*
X126246982Y-91501322D01*
X126284096Y-91687906D01*
X126452071Y-91939299D01*
X126515530Y-91981701D01*
X126875001Y-92341173D01*
X126875001Y-96242675D01*
X126610222Y-96133000D01*
X125959778Y-96133000D01*
X125358847Y-96381914D01*
X124898914Y-96841847D01*
X124650000Y-97442778D01*
X124650000Y-98093222D01*
X124718823Y-98259375D01*
X124094991Y-98883208D01*
X124094991Y-91699810D01*
X124121698Y-91673103D01*
X124174561Y-91695000D01*
X124745439Y-91695000D01*
X125272862Y-91476534D01*
X125676534Y-91072862D01*
X125730000Y-90943784D01*
X125783466Y-91072862D01*
G36*
X87683466Y-91072862D02*
X88087138Y-91476534D01*
X88614561Y-91695000D01*
X89185439Y-91695000D01*
X89238302Y-91673103D01*
X89410001Y-91844803D01*
X89410000Y-96680761D01*
X89111153Y-96381914D01*
X88510222Y-96133000D01*
X87859778Y-96133000D01*
X87258847Y-96381914D01*
X87120000Y-96520761D01*
X87120000Y-91498430D01*
X87172862Y-91476534D01*
X87576534Y-91072862D01*
X87630000Y-90943784D01*
X87683466Y-91072862D01*
X87683466Y-91072862D01*
G37*
X87683466Y-91072862D02*
X88087138Y-91476534D01*
X88614561Y-91695000D01*
X89185439Y-91695000D01*
X89238302Y-91673103D01*
X89410001Y-91844803D01*
X89410000Y-96680761D01*
X89111153Y-96381914D01*
X88510222Y-96133000D01*
X87859778Y-96133000D01*
X87258847Y-96381914D01*
X87120000Y-96520761D01*
X87120000Y-91498430D01*
X87172862Y-91476534D01*
X87576534Y-91072862D01*
X87630000Y-90943784D01*
X87683466Y-91072862D01*
G36*
X151690001Y-80735060D02*
X150280000Y-80735060D01*
X150032235Y-80784343D01*
X149822191Y-80924691D01*
X149681843Y-81134735D01*
X149632560Y-81382500D01*
X149632560Y-83082500D01*
X149681843Y-83330265D01*
X149822191Y-83540309D01*
X150032235Y-83680657D01*
X150077619Y-83689684D01*
X150059375Y-83701875D01*
X149731161Y-84193082D01*
X149615908Y-84772500D01*
X149729984Y-85346000D01*
X146027440Y-85346000D01*
X146027440Y-84185000D01*
X145978157Y-83937235D01*
X145895207Y-83813093D01*
X146037809Y-83717809D01*
X146178157Y-83507765D01*
X146227440Y-83260000D01*
X146227440Y-81660000D01*
X146178157Y-81412235D01*
X146037809Y-81202191D01*
X145827765Y-81061843D01*
X145580000Y-81012560D01*
X143980000Y-81012560D01*
X143732235Y-81061843D01*
X143522191Y-81202191D01*
X143510000Y-81220436D01*
X143497809Y-81202191D01*
X143287765Y-81061843D01*
X143040000Y-81012560D01*
X141440000Y-81012560D01*
X141192235Y-81061843D01*
X140982191Y-81202191D01*
X140970000Y-81220436D01*
X140957809Y-81202191D01*
X140747765Y-81061843D01*
X140500000Y-81012560D01*
X138900000Y-81012560D01*
X138652235Y-81061843D01*
X138442191Y-81202191D01*
X138301843Y-81412235D01*
X138252560Y-81660000D01*
X138252560Y-83260000D01*
X138301843Y-83507765D01*
X138442191Y-83717809D01*
X138584793Y-83813093D01*
X138501843Y-83937235D01*
X138463682Y-84129086D01*
X138302071Y-84237071D01*
X138259671Y-84300527D01*
X137610198Y-84950001D01*
X128247440Y-84950001D01*
X128247440Y-84185000D01*
X128198157Y-83937235D01*
X128115207Y-83813093D01*
X128257809Y-83717809D01*
X128398157Y-83507765D01*
X128447440Y-83260000D01*
X128447440Y-81660000D01*
X128398157Y-81412235D01*
X128257809Y-81202191D01*
X128047765Y-81061843D01*
X127800000Y-81012560D01*
X126200000Y-81012560D01*
X125952235Y-81061843D01*
X125742191Y-81202191D01*
X125730000Y-81220436D01*
X125717809Y-81202191D01*
X125507765Y-81061843D01*
X125260000Y-81012560D01*
X123660000Y-81012560D01*
X123412235Y-81061843D01*
X123202191Y-81202191D01*
X123190000Y-81220436D01*
X123177809Y-81202191D01*
X122967765Y-81061843D01*
X122720000Y-81012560D01*
X121120000Y-81012560D01*
X120872235Y-81061843D01*
X120662191Y-81202191D01*
X120521843Y-81412235D01*
X120472560Y-81660000D01*
X120472560Y-83260000D01*
X120521843Y-83507765D01*
X120662191Y-83717809D01*
X120804793Y-83813093D01*
X120721843Y-83937235D01*
X120683682Y-84129086D01*
X120522071Y-84237071D01*
X120479671Y-84300527D01*
X119830198Y-84950001D01*
X107927440Y-84950001D01*
X107927440Y-84185000D01*
X107878157Y-83937235D01*
X107795207Y-83813093D01*
X107937809Y-83717809D01*
X108078157Y-83507765D01*
X108127440Y-83260000D01*
X108127440Y-81660000D01*
X108078157Y-81412235D01*
X107937809Y-81202191D01*
X107727765Y-81061843D01*
X107480000Y-81012560D01*
X105880000Y-81012560D01*
X105632235Y-81061843D01*
X105422191Y-81202191D01*
X105410000Y-81220436D01*
X105397809Y-81202191D01*
X105187765Y-81061843D01*
X104940000Y-81012560D01*
X103340000Y-81012560D01*
X103092235Y-81061843D01*
X102882191Y-81202191D01*
X102870000Y-81220436D01*
X102857809Y-81202191D01*
X102647765Y-81061843D01*
X102400000Y-81012560D01*
X100800000Y-81012560D01*
X100552235Y-81061843D01*
X100342191Y-81202191D01*
X100201843Y-81412235D01*
X100152560Y-81660000D01*
X100152560Y-83260000D01*
X100201843Y-83507765D01*
X100342191Y-83717809D01*
X100484793Y-83813093D01*
X100401843Y-83937235D01*
X100363682Y-84129086D01*
X100202071Y-84237071D01*
X100159671Y-84300527D01*
X99114199Y-85346000D01*
X90147440Y-85346000D01*
X90147440Y-84185000D01*
X90098157Y-83937235D01*
X90015207Y-83813093D01*
X90157809Y-83717809D01*
X90298157Y-83507765D01*
X90347440Y-83260000D01*
X90347440Y-81660000D01*
X90298157Y-81412235D01*
X90157809Y-81202191D01*
X89947765Y-81061843D01*
X89700000Y-81012560D01*
X88100000Y-81012560D01*
X87852235Y-81061843D01*
X87642191Y-81202191D01*
X87630000Y-81220436D01*
X87617809Y-81202191D01*
X87407765Y-81061843D01*
X87160000Y-81012560D01*
X85560000Y-81012560D01*
X85312235Y-81061843D01*
X85102191Y-81202191D01*
X85090000Y-81220436D01*
X85077809Y-81202191D01*
X84867765Y-81061843D01*
X84620000Y-81012560D01*
X83020000Y-81012560D01*
X82772235Y-81061843D01*
X82562191Y-81202191D01*
X82421843Y-81412235D01*
X82372560Y-81660000D01*
X82372560Y-83260000D01*
X82421843Y-83507765D01*
X82562191Y-83717809D01*
X82704793Y-83813093D01*
X82621843Y-83937235D01*
X82604386Y-84025000D01*
X81659848Y-84025000D01*
X81585000Y-84010112D01*
X81510152Y-84025000D01*
X81510148Y-84025000D01*
X81336605Y-84059520D01*
X81288462Y-84069096D01*
X81224146Y-84112071D01*
X81037071Y-84237071D01*
X80994671Y-84300527D01*
X78745983Y-86549216D01*
X78540625Y-86241875D01*
X78242239Y-86042500D01*
X78540625Y-85843125D01*
X78868839Y-85351918D01*
X78984092Y-84772500D01*
X78868839Y-84193082D01*
X78540625Y-83701875D01*
X78522381Y-83689684D01*
X78567765Y-83680657D01*
X78777809Y-83540309D01*
X78918157Y-83330265D01*
X78967440Y-83082500D01*
X78967440Y-81382500D01*
X78918157Y-81134735D01*
X78777809Y-80924691D01*
X78567765Y-80784343D01*
X78320000Y-80735060D01*
X76910000Y-80735060D01*
X76910000Y-76910000D01*
X151690001Y-76910000D01*
X151690001Y-80735060D01*
X151690001Y-80735060D01*
G37*
X151690001Y-80735060D02*
X150280000Y-80735060D01*
X150032235Y-80784343D01*
X149822191Y-80924691D01*
X149681843Y-81134735D01*
X149632560Y-81382500D01*
X149632560Y-83082500D01*
X149681843Y-83330265D01*
X149822191Y-83540309D01*
X150032235Y-83680657D01*
X150077619Y-83689684D01*
X150059375Y-83701875D01*
X149731161Y-84193082D01*
X149615908Y-84772500D01*
X149729984Y-85346000D01*
X146027440Y-85346000D01*
X146027440Y-84185000D01*
X145978157Y-83937235D01*
X145895207Y-83813093D01*
X146037809Y-83717809D01*
X146178157Y-83507765D01*
X146227440Y-83260000D01*
X146227440Y-81660000D01*
X146178157Y-81412235D01*
X146037809Y-81202191D01*
X145827765Y-81061843D01*
X145580000Y-81012560D01*
X143980000Y-81012560D01*
X143732235Y-81061843D01*
X143522191Y-81202191D01*
X143510000Y-81220436D01*
X143497809Y-81202191D01*
X143287765Y-81061843D01*
X143040000Y-81012560D01*
X141440000Y-81012560D01*
X141192235Y-81061843D01*
X140982191Y-81202191D01*
X140970000Y-81220436D01*
X140957809Y-81202191D01*
X140747765Y-81061843D01*
X140500000Y-81012560D01*
X138900000Y-81012560D01*
X138652235Y-81061843D01*
X138442191Y-81202191D01*
X138301843Y-81412235D01*
X138252560Y-81660000D01*
X138252560Y-83260000D01*
X138301843Y-83507765D01*
X138442191Y-83717809D01*
X138584793Y-83813093D01*
X138501843Y-83937235D01*
X138463682Y-84129086D01*
X138302071Y-84237071D01*
X138259671Y-84300527D01*
X137610198Y-84950001D01*
X128247440Y-84950001D01*
X128247440Y-84185000D01*
X128198157Y-83937235D01*
X128115207Y-83813093D01*
X128257809Y-83717809D01*
X128398157Y-83507765D01*
X128447440Y-83260000D01*
X128447440Y-81660000D01*
X128398157Y-81412235D01*
X128257809Y-81202191D01*
X128047765Y-81061843D01*
X127800000Y-81012560D01*
X126200000Y-81012560D01*
X125952235Y-81061843D01*
X125742191Y-81202191D01*
X125730000Y-81220436D01*
X125717809Y-81202191D01*
X125507765Y-81061843D01*
X125260000Y-81012560D01*
X123660000Y-81012560D01*
X123412235Y-81061843D01*
X123202191Y-81202191D01*
X123190000Y-81220436D01*
X123177809Y-81202191D01*
X122967765Y-81061843D01*
X122720000Y-81012560D01*
X121120000Y-81012560D01*
X120872235Y-81061843D01*
X120662191Y-81202191D01*
X120521843Y-81412235D01*
X120472560Y-81660000D01*
X120472560Y-83260000D01*
X120521843Y-83507765D01*
X120662191Y-83717809D01*
X120804793Y-83813093D01*
X120721843Y-83937235D01*
X120683682Y-84129086D01*
X120522071Y-84237071D01*
X120479671Y-84300527D01*
X119830198Y-84950001D01*
X107927440Y-84950001D01*
X107927440Y-84185000D01*
X107878157Y-83937235D01*
X107795207Y-83813093D01*
X107937809Y-83717809D01*
X108078157Y-83507765D01*
X108127440Y-83260000D01*
X108127440Y-81660000D01*
X108078157Y-81412235D01*
X107937809Y-81202191D01*
X107727765Y-81061843D01*
X107480000Y-81012560D01*
X105880000Y-81012560D01*
X105632235Y-81061843D01*
X105422191Y-81202191D01*
X105410000Y-81220436D01*
X105397809Y-81202191D01*
X105187765Y-81061843D01*
X104940000Y-81012560D01*
X103340000Y-81012560D01*
X103092235Y-81061843D01*
X102882191Y-81202191D01*
X102870000Y-81220436D01*
X102857809Y-81202191D01*
X102647765Y-81061843D01*
X102400000Y-81012560D01*
X100800000Y-81012560D01*
X100552235Y-81061843D01*
X100342191Y-81202191D01*
X100201843Y-81412235D01*
X100152560Y-81660000D01*
X100152560Y-83260000D01*
X100201843Y-83507765D01*
X100342191Y-83717809D01*
X100484793Y-83813093D01*
X100401843Y-83937235D01*
X100363682Y-84129086D01*
X100202071Y-84237071D01*
X100159671Y-84300527D01*
X99114199Y-85346000D01*
X90147440Y-85346000D01*
X90147440Y-84185000D01*
X90098157Y-83937235D01*
X90015207Y-83813093D01*
X90157809Y-83717809D01*
X90298157Y-83507765D01*
X90347440Y-83260000D01*
X90347440Y-81660000D01*
X90298157Y-81412235D01*
X90157809Y-81202191D01*
X89947765Y-81061843D01*
X89700000Y-81012560D01*
X88100000Y-81012560D01*
X87852235Y-81061843D01*
X87642191Y-81202191D01*
X87630000Y-81220436D01*
X87617809Y-81202191D01*
X87407765Y-81061843D01*
X87160000Y-81012560D01*
X85560000Y-81012560D01*
X85312235Y-81061843D01*
X85102191Y-81202191D01*
X85090000Y-81220436D01*
X85077809Y-81202191D01*
X84867765Y-81061843D01*
X84620000Y-81012560D01*
X83020000Y-81012560D01*
X82772235Y-81061843D01*
X82562191Y-81202191D01*
X82421843Y-81412235D01*
X82372560Y-81660000D01*
X82372560Y-83260000D01*
X82421843Y-83507765D01*
X82562191Y-83717809D01*
X82704793Y-83813093D01*
X82621843Y-83937235D01*
X82604386Y-84025000D01*
X81659848Y-84025000D01*
X81585000Y-84010112D01*
X81510152Y-84025000D01*
X81510148Y-84025000D01*
X81336605Y-84059520D01*
X81288462Y-84069096D01*
X81224146Y-84112071D01*
X81037071Y-84237071D01*
X80994671Y-84300527D01*
X78745983Y-86549216D01*
X78540625Y-86241875D01*
X78242239Y-86042500D01*
X78540625Y-85843125D01*
X78868839Y-85351918D01*
X78984092Y-84772500D01*
X78868839Y-84193082D01*
X78540625Y-83701875D01*
X78522381Y-83689684D01*
X78567765Y-83680657D01*
X78777809Y-83540309D01*
X78918157Y-83330265D01*
X78967440Y-83082500D01*
X78967440Y-81382500D01*
X78918157Y-81134735D01*
X78777809Y-80924691D01*
X78567765Y-80784343D01*
X78320000Y-80735060D01*
X76910000Y-80735060D01*
X76910000Y-76910000D01*
X151690001Y-76910000D01*
X151690001Y-80735060D01*
G04 #@! TD*
M02*
