G04 #@! TF.GenerationSoftware,KiCad,Pcbnew,(5.0.0)*
G04 #@! TF.CreationDate,2019-04-25T00:21:32-06:00*
G04 #@! TF.ProjectId,TC2050_adapter,5443323035305F616461707465722E6B,rev?*
G04 #@! TF.SameCoordinates,Original*
G04 #@! TF.FileFunction,Soldermask,Top*
G04 #@! TF.FilePolarity,Negative*
%FSLAX46Y46*%
G04 Gerber Fmt 4.6, Leading zero omitted, Abs format (unit mm)*
G04 Created by KiCad (PCBNEW (5.0.0)) date 04/25/19 00:21:32*
%MOMM*%
%LPD*%
G01*
G04 APERTURE LIST*
%ADD10R,2.100000X2.100000*%
%ADD11O,2.100000X2.100000*%
%ADD12R,1.400000X1.400000*%
%ADD13O,1.400000X1.400000*%
%ADD14C,1.300000*%
%ADD15C,2.000000*%
%ADD16C,1.150000*%
%ADD17C,1.400000*%
G04 APERTURE END LIST*
D10*
G04 #@! TO.C,J1*
X27940000Y-38100000D03*
D11*
X27940000Y-35560000D03*
X27940000Y-33020000D03*
X27940000Y-30480000D03*
X27940000Y-27940000D03*
G04 #@! TD*
D12*
G04 #@! TO.C,J2*
X34925000Y-30480000D03*
D13*
X36195000Y-30480000D03*
X34925000Y-31750000D03*
X36195000Y-31750000D03*
X34925000Y-33020000D03*
X36195000Y-33020000D03*
X34925000Y-34290000D03*
X36195000Y-34290000D03*
X34925000Y-35560000D03*
X36195000Y-35560000D03*
G04 #@! TD*
D11*
G04 #@! TO.C,J3*
X43180000Y-38100000D03*
X43180000Y-35560000D03*
X43180000Y-33020000D03*
X43180000Y-30480000D03*
D10*
X43180000Y-27940000D03*
G04 #@! TD*
D11*
G04 #@! TO.C,J4*
X99552017Y-38120885D03*
X99552017Y-35580885D03*
X99552017Y-33040885D03*
X99552017Y-30500885D03*
D10*
X99552017Y-27960885D03*
G04 #@! TD*
G04 #@! TO.C,J6*
X84312018Y-38120885D03*
D11*
X84312018Y-35580885D03*
X84312018Y-33040885D03*
X84312018Y-30500885D03*
X84312018Y-27960885D03*
G04 #@! TD*
D14*
G04 #@! TO.C,J5*
X92503518Y-35580885D03*
X92503518Y-34310885D03*
X92503518Y-33040885D03*
X92503518Y-31770885D03*
X92503518Y-30500885D03*
X91233518Y-30500885D03*
X91233518Y-31770885D03*
X91233518Y-33040885D03*
X91233518Y-34310885D03*
X91233518Y-35580885D03*
D15*
X91868518Y-36850885D03*
X92884518Y-29230885D03*
X90852518Y-29230885D03*
G04 #@! TD*
D16*
G04 #@! TO.C,J7*
X50419000Y-30353000D03*
X50419000Y-31623000D03*
X50419000Y-32893000D03*
X50419000Y-34163000D03*
X50419000Y-35433000D03*
X51689000Y-35433000D03*
X51689000Y-34163000D03*
X51689000Y-32893000D03*
X51689000Y-31623000D03*
X51689000Y-30353000D03*
D17*
X51054000Y-29083000D03*
X50038000Y-36703000D03*
X52070000Y-36703000D03*
G04 #@! TD*
D15*
G04 #@! TO.C,J8*
X75485518Y-29230885D03*
X77517518Y-29230885D03*
X76501518Y-36850885D03*
D14*
X75866518Y-35580885D03*
X75866518Y-34310885D03*
X75866518Y-33040885D03*
X75866518Y-31770885D03*
X75866518Y-30500885D03*
X77136518Y-30500885D03*
X77136518Y-31770885D03*
X77136518Y-33040885D03*
X77136518Y-34310885D03*
X77136518Y-35580885D03*
G04 #@! TD*
G04 #@! TO.C,J9*
X68627517Y-35580885D03*
X68627517Y-34310885D03*
X68627517Y-33040885D03*
X68627517Y-31770885D03*
X68627517Y-30500885D03*
X67357517Y-30500885D03*
X67357517Y-31770885D03*
X67357517Y-33040885D03*
X67357517Y-34310885D03*
X67357517Y-35580885D03*
D15*
X67992517Y-36850885D03*
X69008517Y-29230885D03*
X66976517Y-29230885D03*
G04 #@! TD*
D14*
G04 #@! TO.C,J11*
X59055000Y-30226000D03*
X59055000Y-31496000D03*
X59055000Y-32766000D03*
X59055000Y-34036000D03*
X59055000Y-35306000D03*
X60325000Y-35306000D03*
X60325000Y-34036000D03*
X60325000Y-32766000D03*
X60325000Y-31496000D03*
X60325000Y-30226000D03*
D15*
X59690000Y-28956000D03*
X58674000Y-36576000D03*
X60706000Y-36576000D03*
G04 #@! TD*
M02*
