M48
;DRILL file {KiCad (5.0.0)} date 04/25/19 00:21:36
;FORMAT={-:-/ absolute / inch / decimal}
FMAT,2
INCH,TZ
T1C0.0118
T2C0.0197
T3C0.0256
T4C0.0276
T5C0.0394
T6C0.0551
%
G90
G05
M72
T1
X1.985Y-1.195
X1.985Y-1.245
X1.985Y-1.295
X1.985Y-1.345
X1.985Y-1.395
X2.035Y-1.195
X2.035Y-1.245
X2.035Y-1.295
X2.035Y-1.345
X2.035Y-1.395
T2
X1.97Y-1.445
X2.01Y-1.145
X2.05Y-1.445
T3
X1.375Y-1.2
X1.375Y-1.25
X1.375Y-1.3
X1.375Y-1.35
X1.375Y-1.4
X1.425Y-1.2
X1.425Y-1.25
X1.425Y-1.3
X1.425Y-1.35
X1.425Y-1.4
T4
X2.9869Y-1.2008
X2.9869Y-1.2508
X2.9869Y-1.3008
X2.9869Y-1.3508
X2.9869Y-1.4008
X3.0369Y-1.2008
X3.0369Y-1.2508
X3.0369Y-1.3008
X3.0369Y-1.3508
X3.0369Y-1.4008
X2.325Y-1.19
X2.325Y-1.24
X2.325Y-1.29
X2.325Y-1.34
X2.325Y-1.39
X2.375Y-1.19
X2.375Y-1.24
X2.375Y-1.29
X2.375Y-1.34
X2.375Y-1.39
X2.6519Y-1.2008
X2.6519Y-1.2508
X2.6519Y-1.3008
X2.6519Y-1.3508
X2.6519Y-1.4008
X2.7019Y-1.2008
X2.7019Y-1.2508
X2.7019Y-1.3008
X2.7019Y-1.3508
X2.7019Y-1.4008
X3.5919Y-1.2008
X3.5919Y-1.2508
X3.5919Y-1.3008
X3.5919Y-1.3508
X3.5919Y-1.4008
X3.6419Y-1.2008
X3.6419Y-1.2508
X3.6419Y-1.3008
X3.6419Y-1.3508
X3.6419Y-1.4008
T5
X3.9194Y-1.1008
X3.9194Y-1.2008
X3.9194Y-1.3008
X3.9194Y-1.4008
X3.9194Y-1.5008
X1.1Y-1.1
X1.1Y-1.2
X1.1Y-1.3
X1.1Y-1.4
X1.1Y-1.5
X3.3194Y-1.1008
X3.3194Y-1.2008
X3.3194Y-1.3008
X3.3194Y-1.4008
X3.3194Y-1.5008
X1.7Y-1.1
X1.7Y-1.2
X1.7Y-1.3
X1.7Y-1.4
X1.7Y-1.5
T6
X3.5769Y-1.1508
X3.6169Y-1.4508
X3.6569Y-1.1508
X2.9719Y-1.1508
X3.0119Y-1.4508
X3.0519Y-1.1508
X2.31Y-1.44
X2.35Y-1.14
X2.39Y-1.44
X2.6369Y-1.1508
X2.6769Y-1.4508
X2.7169Y-1.1508
T0
M30
