G04 #@! TF.FileFunction,Soldermask,Bot*
%FSLAX46Y46*%
G04 Gerber Fmt 4.6, Leading zero omitted, Abs format (unit mm)*
G04 Created by KiCad (PCBNEW 4.0.7) date 04/06/18 18:53:26*
%MOMM*%
%LPD*%
G01*
G04 APERTURE LIST*
%ADD10C,0.100000*%
%ADD11R,2.200000X1.500000*%
%ADD12R,2.152600X2.152600*%
%ADD13C,2.152600*%
%ADD14R,1.650000X1.900000*%
%ADD15R,1.150000X1.600000*%
%ADD16C,0.402000*%
%ADD17R,1.700000X1.900000*%
%ADD18R,2.100000X2.100000*%
%ADD19O,2.100000X2.100000*%
G04 APERTURE END LIST*
D10*
D11*
X106131500Y-144145000D03*
X112331500Y-144145000D03*
X106131500Y-140445000D03*
X112331500Y-140445000D03*
D12*
X101600000Y-152146000D03*
D13*
X101600000Y-149606000D03*
X101600000Y-147066000D03*
X101600000Y-144526000D03*
X101600000Y-141986000D03*
X101600000Y-139446000D03*
X101600000Y-136906000D03*
X101600000Y-134366000D03*
X101600000Y-131826000D03*
X101600000Y-129286000D03*
X101600000Y-126746000D03*
X101600000Y-124206000D03*
X116840000Y-124206000D03*
X116840000Y-126746000D03*
X116840000Y-129286000D03*
X116840000Y-131826000D03*
X116840000Y-134366000D03*
X116840000Y-136906000D03*
X116840000Y-139446000D03*
X116840000Y-141986000D03*
X116840000Y-144526000D03*
X116840000Y-147066000D03*
X116840000Y-149606000D03*
X116840000Y-152146000D03*
D14*
X103251000Y-114848000D03*
X103251000Y-117348000D03*
D15*
X107950000Y-115575000D03*
X107950000Y-117475000D03*
D16*
X114300000Y-104256000D03*
X114300000Y-105156000D03*
X114300000Y-105156000D03*
X114300000Y-104256000D03*
D17*
X105791000Y-114521000D03*
X105791000Y-117221000D03*
D11*
X112320000Y-146740000D03*
X106120000Y-146740000D03*
X112320000Y-150440000D03*
X106120000Y-150440000D03*
D18*
X110490000Y-137160000D03*
D19*
X107950000Y-137160000D03*
X110490000Y-134620000D03*
X107950000Y-134620000D03*
X110490000Y-132080000D03*
X107950000Y-132080000D03*
M02*
