G04 #@! TF.FileFunction,Legend,Bot*
%FSLAX46Y46*%
G04 Gerber Fmt 4.6, Leading zero omitted, Abs format (unit mm)*
G04 Created by KiCad (PCBNEW 4.0.7) date 05/29/18 11:00:58*
%MOMM*%
%LPD*%
G01*
G04 APERTURE LIST*
%ADD10C,0.100000*%
%ADD11C,0.150000*%
%ADD12C,0.300000*%
%ADD13C,0.200000*%
%ADD14C,0.120000*%
%ADD15C,0.381000*%
%ADD16C,0.203200*%
G04 APERTURE END LIST*
D10*
D11*
X111832381Y-111868509D02*
X111356190Y-111535175D01*
X111832381Y-111297080D02*
X110832381Y-111297080D01*
X110832381Y-111678033D01*
X110880000Y-111773271D01*
X110927619Y-111820890D01*
X111022857Y-111868509D01*
X111165714Y-111868509D01*
X111260952Y-111820890D01*
X111308571Y-111773271D01*
X111356190Y-111678033D01*
X111356190Y-111297080D01*
X110832381Y-112201842D02*
X111832381Y-112868509D01*
X110832381Y-112868509D02*
X111832381Y-112201842D01*
X110784762Y-113963747D02*
X112070476Y-113106604D01*
X110832381Y-114154223D02*
X110832381Y-114725652D01*
X111832381Y-114439937D02*
X110832381Y-114439937D01*
X110832381Y-114963747D02*
X111832381Y-115630414D01*
X110832381Y-115630414D02*
X111832381Y-114963747D01*
X113482381Y-108511365D02*
X112482381Y-108511365D01*
X113482381Y-109082794D01*
X112482381Y-109082794D01*
X113482381Y-109701841D02*
X113434762Y-109606603D01*
X113387143Y-109558984D01*
X113291905Y-109511365D01*
X113006190Y-109511365D01*
X112910952Y-109558984D01*
X112863333Y-109606603D01*
X112815714Y-109701841D01*
X112815714Y-109844699D01*
X112863333Y-109939937D01*
X112910952Y-109987556D01*
X113006190Y-110035175D01*
X113291905Y-110035175D01*
X113387143Y-109987556D01*
X113434762Y-109939937D01*
X113482381Y-109844699D01*
X113482381Y-109701841D01*
X112815714Y-110320889D02*
X112815714Y-110701841D01*
X112482381Y-110463746D02*
X113339524Y-110463746D01*
X113434762Y-110511365D01*
X113482381Y-110606603D01*
X113482381Y-110701841D01*
X113387143Y-112368509D02*
X113434762Y-112320890D01*
X113482381Y-112178033D01*
X113482381Y-112082795D01*
X113434762Y-111939937D01*
X113339524Y-111844699D01*
X113244286Y-111797080D01*
X113053810Y-111749461D01*
X112910952Y-111749461D01*
X112720476Y-111797080D01*
X112625238Y-111844699D01*
X112530000Y-111939937D01*
X112482381Y-112082795D01*
X112482381Y-112178033D01*
X112530000Y-112320890D01*
X112577619Y-112368509D01*
X113482381Y-112939937D02*
X113434762Y-112844699D01*
X113387143Y-112797080D01*
X113291905Y-112749461D01*
X113006190Y-112749461D01*
X112910952Y-112797080D01*
X112863333Y-112844699D01*
X112815714Y-112939937D01*
X112815714Y-113082795D01*
X112863333Y-113178033D01*
X112910952Y-113225652D01*
X113006190Y-113273271D01*
X113291905Y-113273271D01*
X113387143Y-113225652D01*
X113434762Y-113178033D01*
X113482381Y-113082795D01*
X113482381Y-112939937D01*
X112815714Y-113701842D02*
X113482381Y-113701842D01*
X112910952Y-113701842D02*
X112863333Y-113749461D01*
X112815714Y-113844699D01*
X112815714Y-113987557D01*
X112863333Y-114082795D01*
X112958571Y-114130414D01*
X113482381Y-114130414D01*
X112815714Y-114606604D02*
X113482381Y-114606604D01*
X112910952Y-114606604D02*
X112863333Y-114654223D01*
X112815714Y-114749461D01*
X112815714Y-114892319D01*
X112863333Y-114987557D01*
X112958571Y-115035176D01*
X113482381Y-115035176D01*
X113434762Y-115892319D02*
X113482381Y-115797081D01*
X113482381Y-115606604D01*
X113434762Y-115511366D01*
X113339524Y-115463747D01*
X112958571Y-115463747D01*
X112863333Y-115511366D01*
X112815714Y-115606604D01*
X112815714Y-115797081D01*
X112863333Y-115892319D01*
X112958571Y-115939938D01*
X113053810Y-115939938D01*
X113149048Y-115463747D01*
X113434762Y-116797081D02*
X113482381Y-116701843D01*
X113482381Y-116511366D01*
X113434762Y-116416128D01*
X113387143Y-116368509D01*
X113291905Y-116320890D01*
X113006190Y-116320890D01*
X112910952Y-116368509D01*
X112863333Y-116416128D01*
X112815714Y-116511366D01*
X112815714Y-116701843D01*
X112863333Y-116797081D01*
X112815714Y-117082795D02*
X112815714Y-117463747D01*
X112482381Y-117225652D02*
X113339524Y-117225652D01*
X113434762Y-117273271D01*
X113482381Y-117368509D01*
X113482381Y-117463747D01*
X113434762Y-118178034D02*
X113482381Y-118082796D01*
X113482381Y-117892319D01*
X113434762Y-117797081D01*
X113339524Y-117749462D01*
X112958571Y-117749462D01*
X112863333Y-117797081D01*
X112815714Y-117892319D01*
X112815714Y-118082796D01*
X112863333Y-118178034D01*
X112958571Y-118225653D01*
X113053810Y-118225653D01*
X113149048Y-117749462D01*
X113482381Y-119082796D02*
X112482381Y-119082796D01*
X113434762Y-119082796D02*
X113482381Y-118987558D01*
X113482381Y-118797081D01*
X113434762Y-118701843D01*
X113387143Y-118654224D01*
X113291905Y-118606605D01*
X113006190Y-118606605D01*
X112910952Y-118654224D01*
X112863333Y-118701843D01*
X112815714Y-118797081D01*
X112815714Y-118987558D01*
X112863333Y-119082796D01*
X114465714Y-110297080D02*
X114465714Y-110678032D01*
X114132381Y-110439937D02*
X114989524Y-110439937D01*
X115084762Y-110487556D01*
X115132381Y-110582794D01*
X115132381Y-110678032D01*
X115132381Y-111154223D02*
X115084762Y-111058985D01*
X115037143Y-111011366D01*
X114941905Y-110963747D01*
X114656190Y-110963747D01*
X114560952Y-111011366D01*
X114513333Y-111058985D01*
X114465714Y-111154223D01*
X114465714Y-111297081D01*
X114513333Y-111392319D01*
X114560952Y-111439938D01*
X114656190Y-111487557D01*
X114941905Y-111487557D01*
X115037143Y-111439938D01*
X115084762Y-111392319D01*
X115132381Y-111297081D01*
X115132381Y-111154223D01*
X115132381Y-112678033D02*
X114132381Y-112678033D01*
X114132381Y-112916128D01*
X114180000Y-113058986D01*
X114275238Y-113154224D01*
X114370476Y-113201843D01*
X114560952Y-113249462D01*
X114703810Y-113249462D01*
X114894286Y-113201843D01*
X114989524Y-113154224D01*
X115084762Y-113058986D01*
X115132381Y-112916128D01*
X115132381Y-112678033D01*
X114227619Y-113630414D02*
X114180000Y-113678033D01*
X114132381Y-113773271D01*
X114132381Y-114011367D01*
X114180000Y-114106605D01*
X114227619Y-114154224D01*
X114322857Y-114201843D01*
X114418095Y-114201843D01*
X114560952Y-114154224D01*
X115132381Y-113582795D01*
X115132381Y-114201843D01*
X114084762Y-115344700D02*
X115370476Y-114487557D01*
X115132381Y-115678033D02*
X114132381Y-115678033D01*
X114132381Y-115916128D01*
X114180000Y-116058986D01*
X114275238Y-116154224D01*
X114370476Y-116201843D01*
X114560952Y-116249462D01*
X114703810Y-116249462D01*
X114894286Y-116201843D01*
X114989524Y-116154224D01*
X115084762Y-116058986D01*
X115132381Y-115916128D01*
X115132381Y-115678033D01*
X114132381Y-116582795D02*
X114132381Y-117201843D01*
X114513333Y-116868509D01*
X114513333Y-117011367D01*
X114560952Y-117106605D01*
X114608571Y-117154224D01*
X114703810Y-117201843D01*
X114941905Y-117201843D01*
X115037143Y-117154224D01*
X115084762Y-117106605D01*
X115132381Y-117011367D01*
X115132381Y-116725652D01*
X115084762Y-116630414D01*
X115037143Y-116582795D01*
D12*
X111317754Y-100664271D02*
X110817754Y-102164271D01*
X110317754Y-100664271D01*
X109032040Y-102164271D02*
X109889183Y-102164271D01*
X109460611Y-102164271D02*
X109460611Y-100664271D01*
X109603468Y-100878557D01*
X109746326Y-101021414D01*
X109889183Y-101092843D01*
X108389183Y-102021414D02*
X108317755Y-102092843D01*
X108389183Y-102164271D01*
X108460612Y-102092843D01*
X108389183Y-102021414D01*
X108389183Y-102164271D01*
X106889183Y-102164271D02*
X107746326Y-102164271D01*
X107317754Y-102164271D02*
X107317754Y-100664271D01*
X107460611Y-100878557D01*
X107603469Y-101021414D01*
X107746326Y-101092843D01*
X114017642Y-99217017D02*
X113803356Y-99288446D01*
X113731928Y-99359874D01*
X113660499Y-99502731D01*
X113660499Y-99717017D01*
X113731928Y-99859874D01*
X113803356Y-99931303D01*
X113946214Y-100002731D01*
X114517642Y-100002731D01*
X114517642Y-98502731D01*
X114017642Y-98502731D01*
X113874785Y-98574160D01*
X113803356Y-98645589D01*
X113731928Y-98788446D01*
X113731928Y-98931303D01*
X113803356Y-99074160D01*
X113874785Y-99145589D01*
X114017642Y-99217017D01*
X114517642Y-99217017D01*
X112803356Y-100002731D02*
X112946214Y-99931303D01*
X113017642Y-99788446D01*
X113017642Y-98502731D01*
X111589071Y-99002731D02*
X111589071Y-100002731D01*
X112231928Y-99002731D02*
X112231928Y-99788446D01*
X112160500Y-99931303D01*
X112017642Y-100002731D01*
X111803357Y-100002731D01*
X111660500Y-99931303D01*
X111589071Y-99859874D01*
X110303357Y-99931303D02*
X110446214Y-100002731D01*
X110731928Y-100002731D01*
X110874785Y-99931303D01*
X110946214Y-99788446D01*
X110946214Y-99217017D01*
X110874785Y-99074160D01*
X110731928Y-99002731D01*
X110446214Y-99002731D01*
X110303357Y-99074160D01*
X110231928Y-99217017D01*
X110231928Y-99359874D01*
X110946214Y-99502731D01*
X109589071Y-100002731D02*
X109589071Y-98502731D01*
X109089071Y-99574160D01*
X108589071Y-98502731D01*
X108589071Y-100002731D01*
X107874785Y-100002731D02*
X107874785Y-99002731D01*
X107874785Y-98502731D02*
X107946214Y-98574160D01*
X107874785Y-98645589D01*
X107803357Y-98574160D01*
X107874785Y-98502731D01*
X107874785Y-98645589D01*
X106517642Y-99931303D02*
X106660499Y-100002731D01*
X106946213Y-100002731D01*
X107089071Y-99931303D01*
X107160499Y-99859874D01*
X107231928Y-99717017D01*
X107231928Y-99288446D01*
X107160499Y-99145589D01*
X107089071Y-99074160D01*
X106946213Y-99002731D01*
X106660499Y-99002731D01*
X106517642Y-99074160D01*
X105874785Y-100002731D02*
X105874785Y-99002731D01*
X105874785Y-99288446D02*
X105803357Y-99145589D01*
X105731928Y-99074160D01*
X105589071Y-99002731D01*
X105446214Y-99002731D01*
X104731928Y-100002731D02*
X104874786Y-99931303D01*
X104946214Y-99859874D01*
X105017643Y-99717017D01*
X105017643Y-99288446D01*
X104946214Y-99145589D01*
X104874786Y-99074160D01*
X104731928Y-99002731D01*
X104517643Y-99002731D01*
X104374786Y-99074160D01*
X104303357Y-99145589D01*
X104231928Y-99288446D01*
X104231928Y-99717017D01*
X104303357Y-99859874D01*
X104374786Y-99931303D01*
X104517643Y-100002731D01*
X104731928Y-100002731D01*
D13*
X108164047Y-130579762D02*
X108021190Y-130627381D01*
X107783094Y-130627381D01*
X107687856Y-130579762D01*
X107640237Y-130532143D01*
X107592618Y-130436905D01*
X107592618Y-130341667D01*
X107640237Y-130246429D01*
X107687856Y-130198810D01*
X107783094Y-130151190D01*
X107973571Y-130103571D01*
X108068809Y-130055952D01*
X108116428Y-130008333D01*
X108164047Y-129913095D01*
X108164047Y-129817857D01*
X108116428Y-129722619D01*
X108068809Y-129675000D01*
X107973571Y-129627381D01*
X107735475Y-129627381D01*
X107592618Y-129675000D01*
X107259285Y-129627381D02*
X107021190Y-130627381D01*
X106830713Y-129913095D01*
X106640237Y-130627381D01*
X106402142Y-129627381D01*
X106021190Y-130627381D02*
X106021190Y-129627381D01*
X105783095Y-129627381D01*
X105640237Y-129675000D01*
X105544999Y-129770238D01*
X105497380Y-129865476D01*
X105449761Y-130055952D01*
X105449761Y-130198810D01*
X105497380Y-130389286D01*
X105544999Y-130484524D01*
X105640237Y-130579762D01*
X105783095Y-130627381D01*
X106021190Y-130627381D01*
X105021190Y-130627381D02*
X105021190Y-129627381D01*
X104354524Y-129627381D02*
X104164047Y-129627381D01*
X104068809Y-129675000D01*
X103973571Y-129770238D01*
X103925952Y-129960714D01*
X103925952Y-130294048D01*
X103973571Y-130484524D01*
X104068809Y-130579762D01*
X104164047Y-130627381D01*
X104354524Y-130627381D01*
X104449762Y-130579762D01*
X104545000Y-130484524D01*
X104592619Y-130294048D01*
X104592619Y-129960714D01*
X104545000Y-129770238D01*
X104449762Y-129675000D01*
X104354524Y-129627381D01*
X115791905Y-130579762D02*
X115649048Y-130627381D01*
X115410952Y-130627381D01*
X115315714Y-130579762D01*
X115268095Y-130532143D01*
X115220476Y-130436905D01*
X115220476Y-130341667D01*
X115268095Y-130246429D01*
X115315714Y-130198810D01*
X115410952Y-130151190D01*
X115601429Y-130103571D01*
X115696667Y-130055952D01*
X115744286Y-130008333D01*
X115791905Y-129913095D01*
X115791905Y-129817857D01*
X115744286Y-129722619D01*
X115696667Y-129675000D01*
X115601429Y-129627381D01*
X115363333Y-129627381D01*
X115220476Y-129675000D01*
X114887143Y-129627381D02*
X114649048Y-130627381D01*
X114458571Y-129913095D01*
X114268095Y-130627381D01*
X114030000Y-129627381D01*
X113649048Y-130627381D02*
X113649048Y-129627381D01*
X113410953Y-129627381D01*
X113268095Y-129675000D01*
X113172857Y-129770238D01*
X113125238Y-129865476D01*
X113077619Y-130055952D01*
X113077619Y-130198810D01*
X113125238Y-130389286D01*
X113172857Y-130484524D01*
X113268095Y-130579762D01*
X113410953Y-130627381D01*
X113649048Y-130627381D01*
X112077619Y-130532143D02*
X112125238Y-130579762D01*
X112268095Y-130627381D01*
X112363333Y-130627381D01*
X112506191Y-130579762D01*
X112601429Y-130484524D01*
X112649048Y-130389286D01*
X112696667Y-130198810D01*
X112696667Y-130055952D01*
X112649048Y-129865476D01*
X112601429Y-129770238D01*
X112506191Y-129675000D01*
X112363333Y-129627381D01*
X112268095Y-129627381D01*
X112125238Y-129675000D01*
X112077619Y-129722619D01*
X111172857Y-130627381D02*
X111649048Y-130627381D01*
X111649048Y-129627381D01*
X110839524Y-130627381D02*
X110839524Y-129627381D01*
X110268095Y-130627381D02*
X110696667Y-130055952D01*
X110268095Y-129627381D02*
X110839524Y-130198810D01*
X106171904Y-134120000D02*
X106267142Y-134072381D01*
X106409999Y-134072381D01*
X106552857Y-134120000D01*
X106648095Y-134215238D01*
X106695714Y-134310476D01*
X106743333Y-134500952D01*
X106743333Y-134643810D01*
X106695714Y-134834286D01*
X106648095Y-134929524D01*
X106552857Y-135024762D01*
X106409999Y-135072381D01*
X106314761Y-135072381D01*
X106171904Y-135024762D01*
X106124285Y-134977143D01*
X106124285Y-134643810D01*
X106314761Y-134643810D01*
X105695714Y-135072381D02*
X105695714Y-134072381D01*
X105124285Y-135072381D01*
X105124285Y-134072381D01*
X104648095Y-135072381D02*
X104648095Y-134072381D01*
X104410000Y-134072381D01*
X104267142Y-134120000D01*
X104171904Y-134215238D01*
X104124285Y-134310476D01*
X104076666Y-134500952D01*
X104076666Y-134643810D01*
X104124285Y-134834286D01*
X104171904Y-134929524D01*
X104267142Y-135024762D01*
X104410000Y-135072381D01*
X104648095Y-135072381D01*
X114363333Y-134072381D02*
X114030000Y-135072381D01*
X113696666Y-134072381D01*
X112791904Y-134977143D02*
X112839523Y-135024762D01*
X112982380Y-135072381D01*
X113077618Y-135072381D01*
X113220476Y-135024762D01*
X113315714Y-134929524D01*
X113363333Y-134834286D01*
X113410952Y-134643810D01*
X113410952Y-134500952D01*
X113363333Y-134310476D01*
X113315714Y-134215238D01*
X113220476Y-134120000D01*
X113077618Y-134072381D01*
X112982380Y-134072381D01*
X112839523Y-134120000D01*
X112791904Y-134167619D01*
X111791904Y-134977143D02*
X111839523Y-135024762D01*
X111982380Y-135072381D01*
X112077618Y-135072381D01*
X112220476Y-135024762D01*
X112315714Y-134929524D01*
X112363333Y-134834286D01*
X112410952Y-134643810D01*
X112410952Y-134500952D01*
X112363333Y-134310476D01*
X112315714Y-134215238D01*
X112220476Y-134120000D01*
X112077618Y-134072381D01*
X111982380Y-134072381D01*
X111839523Y-134120000D01*
X111791904Y-134167619D01*
X106671905Y-136612381D02*
X106100476Y-136612381D01*
X106386191Y-137612381D02*
X106386191Y-136612381D01*
X105862381Y-136612381D02*
X105195714Y-137612381D01*
X105195714Y-136612381D02*
X105862381Y-137612381D01*
X104814762Y-137612381D02*
X104814762Y-136612381D01*
X104576667Y-136612381D01*
X104433809Y-136660000D01*
X104338571Y-136755238D01*
X104290952Y-136850476D01*
X104243333Y-137040952D01*
X104243333Y-137183810D01*
X104290952Y-137374286D01*
X104338571Y-137469524D01*
X104433809Y-137564762D01*
X104576667Y-137612381D01*
X104814762Y-137612381D01*
X113696666Y-137612381D02*
X114030000Y-137136190D01*
X114268095Y-137612381D02*
X114268095Y-136612381D01*
X113887142Y-136612381D01*
X113791904Y-136660000D01*
X113744285Y-136707619D01*
X113696666Y-136802857D01*
X113696666Y-136945714D01*
X113744285Y-137040952D01*
X113791904Y-137088571D01*
X113887142Y-137136190D01*
X114268095Y-137136190D01*
X113363333Y-136612381D02*
X112696666Y-137612381D01*
X112696666Y-136612381D02*
X113363333Y-137612381D01*
X112315714Y-137612381D02*
X112315714Y-136612381D01*
X112077619Y-136612381D01*
X111934761Y-136660000D01*
X111839523Y-136755238D01*
X111791904Y-136850476D01*
X111744285Y-137040952D01*
X111744285Y-137183810D01*
X111791904Y-137374286D01*
X111839523Y-137469524D01*
X111934761Y-137564762D01*
X112077619Y-137612381D01*
X112315714Y-137612381D01*
D14*
X107531500Y-139995000D02*
X107981500Y-139545000D01*
X110931500Y-139995000D02*
X110481500Y-139545000D01*
X110931500Y-144595000D02*
X110481500Y-145045000D01*
X107531500Y-144595000D02*
X107981500Y-145045000D01*
X111981500Y-143295000D02*
X111981500Y-141295000D01*
X107981500Y-139545000D02*
X110481500Y-139545000D01*
X106481500Y-143295000D02*
X106481500Y-141295000D01*
X107981500Y-145045000D02*
X110481500Y-145045000D01*
D15*
X118110000Y-153416000D02*
X100330000Y-153416000D01*
X100330000Y-153416000D02*
X100330000Y-122936000D01*
X100330000Y-122936000D02*
X118110000Y-122936000D01*
X118110000Y-122936000D02*
X118110000Y-153416000D01*
X102870000Y-153416000D02*
X102870000Y-150876000D01*
X102870000Y-150876000D02*
X100330000Y-150876000D01*
D14*
X102528000Y-116344000D02*
X102528000Y-115344000D01*
X104228000Y-115344000D02*
X104228000Y-116344000D01*
X106544000Y-116471000D02*
X106544000Y-115271000D01*
X104784000Y-115271000D02*
X104784000Y-116471000D01*
X110920000Y-150890000D02*
X110470000Y-151340000D01*
X107520000Y-150890000D02*
X107970000Y-151340000D01*
X107520000Y-146290000D02*
X107970000Y-145840000D01*
X110920000Y-146290000D02*
X110470000Y-145840000D01*
X106470000Y-147590000D02*
X106470000Y-149590000D01*
X110470000Y-151340000D02*
X107970000Y-151340000D01*
X111970000Y-147590000D02*
X111970000Y-149590000D01*
X110470000Y-145840000D02*
X107970000Y-145840000D01*
X106973000Y-116344000D02*
X106973000Y-115344000D01*
X108673000Y-115344000D02*
X108673000Y-116344000D01*
X105890000Y-104990000D02*
X104890000Y-104990000D01*
X104890000Y-103290000D02*
X105890000Y-103290000D01*
D11*
X110445786Y-139517381D02*
X110445786Y-138517381D01*
X110207691Y-138517381D01*
X110064833Y-138565000D01*
X109969595Y-138660238D01*
X109921976Y-138755476D01*
X109874357Y-138945952D01*
X109874357Y-139088810D01*
X109921976Y-139279286D01*
X109969595Y-139374524D01*
X110064833Y-139469762D01*
X110207691Y-139517381D01*
X110445786Y-139517381D01*
X109112452Y-138993571D02*
X109445786Y-138993571D01*
X109445786Y-139517381D02*
X109445786Y-138517381D01*
X108969595Y-138517381D01*
X108588643Y-138517381D02*
X108588643Y-139326905D01*
X108541024Y-139422143D01*
X108493405Y-139469762D01*
X108398167Y-139517381D01*
X108207690Y-139517381D01*
X108112452Y-139469762D01*
X108064833Y-139422143D01*
X108017214Y-139326905D01*
X108017214Y-138517381D01*
D16*
X109794524Y-133567714D02*
X108524524Y-133567714D01*
X108524524Y-134148286D01*
X108585000Y-134293428D01*
X108645476Y-134366000D01*
X108766429Y-134438571D01*
X108947857Y-134438571D01*
X109068810Y-134366000D01*
X109129286Y-134293428D01*
X109189762Y-134148286D01*
X109189762Y-133567714D01*
X109794524Y-135091714D02*
X108947857Y-135091714D01*
X109189762Y-135091714D02*
X109068810Y-135164286D01*
X109008333Y-135236857D01*
X108947857Y-135382000D01*
X108947857Y-135527143D01*
X109794524Y-136252857D02*
X109734048Y-136107715D01*
X109673571Y-136035143D01*
X109552619Y-135962572D01*
X109189762Y-135962572D01*
X109068810Y-136035143D01*
X109008333Y-136107715D01*
X108947857Y-136252857D01*
X108947857Y-136470572D01*
X109008333Y-136615715D01*
X109068810Y-136688286D01*
X109189762Y-136760857D01*
X109552619Y-136760857D01*
X109673571Y-136688286D01*
X109734048Y-136615715D01*
X109794524Y-136470572D01*
X109794524Y-136252857D01*
X109794524Y-137414000D02*
X108524524Y-137414000D01*
X109431667Y-137922000D01*
X108524524Y-138430000D01*
X109794524Y-138430000D01*
X109794524Y-139155714D02*
X108947857Y-139155714D01*
X108524524Y-139155714D02*
X108585000Y-139083143D01*
X108645476Y-139155714D01*
X108585000Y-139228286D01*
X108524524Y-139155714D01*
X108645476Y-139155714D01*
X109734048Y-140534571D02*
X109794524Y-140389428D01*
X109794524Y-140099142D01*
X109734048Y-139954000D01*
X109673571Y-139881428D01*
X109552619Y-139808857D01*
X109189762Y-139808857D01*
X109068810Y-139881428D01*
X109008333Y-139954000D01*
X108947857Y-140099142D01*
X108947857Y-140389428D01*
X109008333Y-140534571D01*
X109794524Y-141187714D02*
X108947857Y-141187714D01*
X109189762Y-141187714D02*
X109068810Y-141260286D01*
X109008333Y-141332857D01*
X108947857Y-141478000D01*
X108947857Y-141623143D01*
X109794524Y-142348857D02*
X109734048Y-142203715D01*
X109673571Y-142131143D01*
X109552619Y-142058572D01*
X109189762Y-142058572D01*
X109068810Y-142131143D01*
X109008333Y-142203715D01*
X108947857Y-142348857D01*
X108947857Y-142566572D01*
X109008333Y-142711715D01*
X109068810Y-142784286D01*
X109189762Y-142856857D01*
X109552619Y-142856857D01*
X109673571Y-142784286D01*
X109734048Y-142711715D01*
X109794524Y-142566572D01*
X109794524Y-142348857D01*
D10*
X115599333Y-124156000D02*
X115499333Y-124189333D01*
X115466000Y-124222667D01*
X115432666Y-124289333D01*
X115432666Y-124389333D01*
X115466000Y-124456000D01*
X115499333Y-124489333D01*
X115566000Y-124522667D01*
X115832666Y-124522667D01*
X115832666Y-123822667D01*
X115599333Y-123822667D01*
X115532666Y-123856000D01*
X115499333Y-123889333D01*
X115466000Y-123956000D01*
X115466000Y-124022667D01*
X115499333Y-124089333D01*
X115532666Y-124122667D01*
X115599333Y-124156000D01*
X115832666Y-124156000D01*
X114799333Y-123822667D02*
X115132666Y-123822667D01*
X115166000Y-124156000D01*
X115132666Y-124122667D01*
X115066000Y-124089333D01*
X114899333Y-124089333D01*
X114832666Y-124122667D01*
X114799333Y-124156000D01*
X114766000Y-124222667D01*
X114766000Y-124389333D01*
X114799333Y-124456000D01*
X114832666Y-124489333D01*
X114899333Y-124522667D01*
X115066000Y-124522667D01*
X115132666Y-124489333D01*
X115166000Y-124456000D01*
X115599333Y-126696000D02*
X115499333Y-126729333D01*
X115466000Y-126762667D01*
X115432666Y-126829333D01*
X115432666Y-126929333D01*
X115466000Y-126996000D01*
X115499333Y-127029333D01*
X115566000Y-127062667D01*
X115832666Y-127062667D01*
X115832666Y-126362667D01*
X115599333Y-126362667D01*
X115532666Y-126396000D01*
X115499333Y-126429333D01*
X115466000Y-126496000D01*
X115466000Y-126562667D01*
X115499333Y-126629333D01*
X115532666Y-126662667D01*
X115599333Y-126696000D01*
X115832666Y-126696000D01*
X114832666Y-126596000D02*
X114832666Y-127062667D01*
X114999333Y-126329333D02*
X115166000Y-126829333D01*
X114732666Y-126829333D01*
X115799333Y-129236000D02*
X115566000Y-129236000D01*
X115466000Y-129602667D02*
X115799333Y-129602667D01*
X115799333Y-128902667D01*
X115466000Y-128902667D01*
X114866000Y-128902667D02*
X114999334Y-128902667D01*
X115066000Y-128936000D01*
X115099334Y-128969333D01*
X115166000Y-129069333D01*
X115199334Y-129202667D01*
X115199334Y-129469333D01*
X115166000Y-129536000D01*
X115132667Y-129569333D01*
X115066000Y-129602667D01*
X114932667Y-129602667D01*
X114866000Y-129569333D01*
X114832667Y-129536000D01*
X114799334Y-129469333D01*
X114799334Y-129302667D01*
X114832667Y-129236000D01*
X114866000Y-129202667D01*
X114932667Y-129169333D01*
X115066000Y-129169333D01*
X115132667Y-129202667D01*
X115166000Y-129236000D01*
X115199334Y-129302667D01*
X115832666Y-132142667D02*
X115832666Y-131442667D01*
X115666000Y-131442667D01*
X115566000Y-131476000D01*
X115499333Y-131542667D01*
X115466000Y-131609333D01*
X115432666Y-131742667D01*
X115432666Y-131842667D01*
X115466000Y-131976000D01*
X115499333Y-132042667D01*
X115566000Y-132109333D01*
X115666000Y-132142667D01*
X115832666Y-132142667D01*
X115199333Y-131442667D02*
X114732666Y-131442667D01*
X115032666Y-132142667D01*
X115432666Y-134616000D02*
X115466000Y-134649333D01*
X115566000Y-134682667D01*
X115632666Y-134682667D01*
X115732666Y-134649333D01*
X115799333Y-134582667D01*
X115832666Y-134516000D01*
X115866000Y-134382667D01*
X115866000Y-134282667D01*
X115832666Y-134149333D01*
X115799333Y-134082667D01*
X115732666Y-134016000D01*
X115632666Y-133982667D01*
X115566000Y-133982667D01*
X115466000Y-134016000D01*
X115432666Y-134049333D01*
X114832666Y-133982667D02*
X114966000Y-133982667D01*
X115032666Y-134016000D01*
X115066000Y-134049333D01*
X115132666Y-134149333D01*
X115166000Y-134282667D01*
X115166000Y-134549333D01*
X115132666Y-134616000D01*
X115099333Y-134649333D01*
X115032666Y-134682667D01*
X114899333Y-134682667D01*
X114832666Y-134649333D01*
X114799333Y-134616000D01*
X114766000Y-134549333D01*
X114766000Y-134382667D01*
X114799333Y-134316000D01*
X114832666Y-134282667D01*
X114899333Y-134249333D01*
X115032666Y-134249333D01*
X115099333Y-134282667D01*
X115132666Y-134316000D01*
X115166000Y-134382667D01*
X115832666Y-137222667D02*
X115832666Y-136522667D01*
X115666000Y-136522667D01*
X115566000Y-136556000D01*
X115499333Y-136622667D01*
X115466000Y-136689333D01*
X115432666Y-136822667D01*
X115432666Y-136922667D01*
X115466000Y-137056000D01*
X115499333Y-137122667D01*
X115566000Y-137189333D01*
X115666000Y-137222667D01*
X115832666Y-137222667D01*
X114832666Y-136756000D02*
X114832666Y-137222667D01*
X114999333Y-136489333D02*
X115166000Y-136989333D01*
X114732666Y-136989333D01*
X115832666Y-139762667D02*
X115832666Y-139062667D01*
X115666000Y-139062667D01*
X115566000Y-139096000D01*
X115499333Y-139162667D01*
X115466000Y-139229333D01*
X115432666Y-139362667D01*
X115432666Y-139462667D01*
X115466000Y-139596000D01*
X115499333Y-139662667D01*
X115566000Y-139729333D01*
X115666000Y-139762667D01*
X115832666Y-139762667D01*
X114999333Y-139062667D02*
X114932666Y-139062667D01*
X114866000Y-139096000D01*
X114832666Y-139129333D01*
X114799333Y-139196000D01*
X114766000Y-139329333D01*
X114766000Y-139496000D01*
X114799333Y-139629333D01*
X114832666Y-139696000D01*
X114866000Y-139729333D01*
X114932666Y-139762667D01*
X114999333Y-139762667D01*
X115066000Y-139729333D01*
X115099333Y-139696000D01*
X115132666Y-139629333D01*
X115166000Y-139496000D01*
X115166000Y-139329333D01*
X115132666Y-139196000D01*
X115099333Y-139129333D01*
X115066000Y-139096000D01*
X114999333Y-139062667D01*
X115832666Y-142302667D02*
X115832666Y-141602667D01*
X115666000Y-141602667D01*
X115566000Y-141636000D01*
X115499333Y-141702667D01*
X115466000Y-141769333D01*
X115432666Y-141902667D01*
X115432666Y-142002667D01*
X115466000Y-142136000D01*
X115499333Y-142202667D01*
X115566000Y-142269333D01*
X115666000Y-142302667D01*
X115832666Y-142302667D01*
X114766000Y-142302667D02*
X115166000Y-142302667D01*
X114966000Y-142302667D02*
X114966000Y-141602667D01*
X115032666Y-141702667D01*
X115099333Y-141769333D01*
X115166000Y-141802667D01*
X115341333Y-144176000D02*
X115407999Y-144142667D01*
X115507999Y-144142667D01*
X115607999Y-144176000D01*
X115674666Y-144242667D01*
X115707999Y-144309333D01*
X115741333Y-144442667D01*
X115741333Y-144542667D01*
X115707999Y-144676000D01*
X115674666Y-144742667D01*
X115607999Y-144809333D01*
X115507999Y-144842667D01*
X115441333Y-144842667D01*
X115341333Y-144809333D01*
X115307999Y-144776000D01*
X115307999Y-144542667D01*
X115441333Y-144542667D01*
X115007999Y-144842667D02*
X115007999Y-144142667D01*
X114607999Y-144842667D01*
X114607999Y-144142667D01*
X114274666Y-144842667D02*
X114274666Y-144142667D01*
X114108000Y-144142667D01*
X114008000Y-144176000D01*
X113941333Y-144242667D01*
X113908000Y-144309333D01*
X113874666Y-144442667D01*
X113874666Y-144542667D01*
X113908000Y-144676000D01*
X113941333Y-144742667D01*
X114008000Y-144809333D01*
X114108000Y-144842667D01*
X114274666Y-144842667D01*
X115341333Y-146716000D02*
X115407999Y-146682667D01*
X115507999Y-146682667D01*
X115607999Y-146716000D01*
X115674666Y-146782667D01*
X115707999Y-146849333D01*
X115741333Y-146982667D01*
X115741333Y-147082667D01*
X115707999Y-147216000D01*
X115674666Y-147282667D01*
X115607999Y-147349333D01*
X115507999Y-147382667D01*
X115441333Y-147382667D01*
X115341333Y-147349333D01*
X115307999Y-147316000D01*
X115307999Y-147082667D01*
X115441333Y-147082667D01*
X115007999Y-147382667D02*
X115007999Y-146682667D01*
X114607999Y-147382667D01*
X114607999Y-146682667D01*
X114274666Y-147382667D02*
X114274666Y-146682667D01*
X114108000Y-146682667D01*
X114008000Y-146716000D01*
X113941333Y-146782667D01*
X113908000Y-146849333D01*
X113874666Y-146982667D01*
X113874666Y-147082667D01*
X113908000Y-147216000D01*
X113941333Y-147282667D01*
X114008000Y-147349333D01*
X114108000Y-147382667D01*
X114274666Y-147382667D01*
X115832666Y-149922667D02*
X115832666Y-149222667D01*
X115666000Y-149222667D01*
X115566000Y-149256000D01*
X115499333Y-149322667D01*
X115466000Y-149389333D01*
X115432666Y-149522667D01*
X115432666Y-149622667D01*
X115466000Y-149756000D01*
X115499333Y-149822667D01*
X115566000Y-149889333D01*
X115666000Y-149922667D01*
X115832666Y-149922667D01*
X115166000Y-149289333D02*
X115132666Y-149256000D01*
X115066000Y-149222667D01*
X114899333Y-149222667D01*
X114832666Y-149256000D01*
X114799333Y-149289333D01*
X114766000Y-149356000D01*
X114766000Y-149422667D01*
X114799333Y-149522667D01*
X115199333Y-149922667D01*
X114766000Y-149922667D01*
X115832666Y-152462667D02*
X115832666Y-151762667D01*
X115666000Y-151762667D01*
X115566000Y-151796000D01*
X115499333Y-151862667D01*
X115466000Y-151929333D01*
X115432666Y-152062667D01*
X115432666Y-152162667D01*
X115466000Y-152296000D01*
X115499333Y-152362667D01*
X115566000Y-152429333D01*
X115666000Y-152462667D01*
X115832666Y-152462667D01*
X115199333Y-151762667D02*
X114766000Y-151762667D01*
X114999333Y-152029333D01*
X114899333Y-152029333D01*
X114832666Y-152062667D01*
X114799333Y-152096000D01*
X114766000Y-152162667D01*
X114766000Y-152329333D01*
X114799333Y-152396000D01*
X114832666Y-152429333D01*
X114899333Y-152462667D01*
X115099333Y-152462667D01*
X115166000Y-152429333D01*
X115199333Y-152396000D01*
X103407333Y-124156000D02*
X103307333Y-124189333D01*
X103274000Y-124222667D01*
X103240666Y-124289333D01*
X103240666Y-124389333D01*
X103274000Y-124456000D01*
X103307333Y-124489333D01*
X103374000Y-124522667D01*
X103640666Y-124522667D01*
X103640666Y-123822667D01*
X103407333Y-123822667D01*
X103340666Y-123856000D01*
X103307333Y-123889333D01*
X103274000Y-123956000D01*
X103274000Y-124022667D01*
X103307333Y-124089333D01*
X103340666Y-124122667D01*
X103407333Y-124156000D01*
X103640666Y-124156000D01*
X102640666Y-123822667D02*
X102774000Y-123822667D01*
X102840666Y-123856000D01*
X102874000Y-123889333D01*
X102940666Y-123989333D01*
X102974000Y-124122667D01*
X102974000Y-124389333D01*
X102940666Y-124456000D01*
X102907333Y-124489333D01*
X102840666Y-124522667D01*
X102707333Y-124522667D01*
X102640666Y-124489333D01*
X102607333Y-124456000D01*
X102574000Y-124389333D01*
X102574000Y-124222667D01*
X102607333Y-124156000D01*
X102640666Y-124122667D01*
X102707333Y-124089333D01*
X102840666Y-124089333D01*
X102907333Y-124122667D01*
X102940666Y-124156000D01*
X102974000Y-124222667D01*
X103407333Y-126696000D02*
X103307333Y-126729333D01*
X103274000Y-126762667D01*
X103240666Y-126829333D01*
X103240666Y-126929333D01*
X103274000Y-126996000D01*
X103307333Y-127029333D01*
X103374000Y-127062667D01*
X103640666Y-127062667D01*
X103640666Y-126362667D01*
X103407333Y-126362667D01*
X103340666Y-126396000D01*
X103307333Y-126429333D01*
X103274000Y-126496000D01*
X103274000Y-126562667D01*
X103307333Y-126629333D01*
X103340666Y-126662667D01*
X103407333Y-126696000D01*
X103640666Y-126696000D01*
X102974000Y-126429333D02*
X102940666Y-126396000D01*
X102874000Y-126362667D01*
X102707333Y-126362667D01*
X102640666Y-126396000D01*
X102607333Y-126429333D01*
X102574000Y-126496000D01*
X102574000Y-126562667D01*
X102607333Y-126662667D01*
X103007333Y-127062667D01*
X102574000Y-127062667D01*
X103407333Y-129236000D02*
X103307333Y-129269333D01*
X103274000Y-129302667D01*
X103240666Y-129369333D01*
X103240666Y-129469333D01*
X103274000Y-129536000D01*
X103307333Y-129569333D01*
X103374000Y-129602667D01*
X103640666Y-129602667D01*
X103640666Y-128902667D01*
X103407333Y-128902667D01*
X103340666Y-128936000D01*
X103307333Y-128969333D01*
X103274000Y-129036000D01*
X103274000Y-129102667D01*
X103307333Y-129169333D01*
X103340666Y-129202667D01*
X103407333Y-129236000D01*
X103640666Y-129236000D01*
X103007333Y-128902667D02*
X102574000Y-128902667D01*
X102807333Y-129169333D01*
X102707333Y-129169333D01*
X102640666Y-129202667D01*
X102607333Y-129236000D01*
X102574000Y-129302667D01*
X102574000Y-129469333D01*
X102607333Y-129536000D01*
X102640666Y-129569333D01*
X102707333Y-129602667D01*
X102907333Y-129602667D01*
X102974000Y-129569333D01*
X103007333Y-129536000D01*
X103407333Y-131776000D02*
X103307333Y-131809333D01*
X103274000Y-131842667D01*
X103240666Y-131909333D01*
X103240666Y-132009333D01*
X103274000Y-132076000D01*
X103307333Y-132109333D01*
X103374000Y-132142667D01*
X103640666Y-132142667D01*
X103640666Y-131442667D01*
X103407333Y-131442667D01*
X103340666Y-131476000D01*
X103307333Y-131509333D01*
X103274000Y-131576000D01*
X103274000Y-131642667D01*
X103307333Y-131709333D01*
X103340666Y-131742667D01*
X103407333Y-131776000D01*
X103640666Y-131776000D01*
X102574000Y-132142667D02*
X102974000Y-132142667D01*
X102774000Y-132142667D02*
X102774000Y-131442667D01*
X102840666Y-131542667D01*
X102907333Y-131609333D01*
X102974000Y-131642667D01*
X103357333Y-136856000D02*
X103590666Y-136856000D01*
X103590666Y-137222667D02*
X103590666Y-136522667D01*
X103257333Y-136522667D01*
X102690666Y-136522667D02*
X102824000Y-136522667D01*
X102890666Y-136556000D01*
X102924000Y-136589333D01*
X102990666Y-136689333D01*
X103024000Y-136822667D01*
X103024000Y-137089333D01*
X102990666Y-137156000D01*
X102957333Y-137189333D01*
X102890666Y-137222667D01*
X102757333Y-137222667D01*
X102690666Y-137189333D01*
X102657333Y-137156000D01*
X102624000Y-137089333D01*
X102624000Y-136922667D01*
X102657333Y-136856000D01*
X102690666Y-136822667D01*
X102757333Y-136789333D01*
X102890666Y-136789333D01*
X102957333Y-136822667D01*
X102990666Y-136856000D01*
X103024000Y-136922667D01*
X103357333Y-134316000D02*
X103590666Y-134316000D01*
X103590666Y-134682667D02*
X103590666Y-133982667D01*
X103257333Y-133982667D01*
X103057333Y-133982667D02*
X102590666Y-133982667D01*
X102890666Y-134682667D01*
X103357333Y-139396000D02*
X103590666Y-139396000D01*
X103590666Y-139762667D02*
X103590666Y-139062667D01*
X103257333Y-139062667D01*
X102657333Y-139062667D02*
X102990666Y-139062667D01*
X103024000Y-139396000D01*
X102990666Y-139362667D01*
X102924000Y-139329333D01*
X102757333Y-139329333D01*
X102690666Y-139362667D01*
X102657333Y-139396000D01*
X102624000Y-139462667D01*
X102624000Y-139629333D01*
X102657333Y-139696000D01*
X102690666Y-139729333D01*
X102757333Y-139762667D01*
X102924000Y-139762667D01*
X102990666Y-139729333D01*
X103024000Y-139696000D01*
X103357333Y-141936000D02*
X103590666Y-141936000D01*
X103590666Y-142302667D02*
X103590666Y-141602667D01*
X103257333Y-141602667D01*
X102690666Y-141836000D02*
X102690666Y-142302667D01*
X102857333Y-141569333D02*
X103024000Y-142069333D01*
X102590666Y-142069333D01*
X104565333Y-144142667D02*
X104332000Y-144842667D01*
X104098667Y-144142667D01*
X103465333Y-144776000D02*
X103498667Y-144809333D01*
X103598667Y-144842667D01*
X103665333Y-144842667D01*
X103765333Y-144809333D01*
X103832000Y-144742667D01*
X103865333Y-144676000D01*
X103898667Y-144542667D01*
X103898667Y-144442667D01*
X103865333Y-144309333D01*
X103832000Y-144242667D01*
X103765333Y-144176000D01*
X103665333Y-144142667D01*
X103598667Y-144142667D01*
X103498667Y-144176000D01*
X103465333Y-144209333D01*
X102765333Y-144776000D02*
X102798667Y-144809333D01*
X102898667Y-144842667D01*
X102965333Y-144842667D01*
X103065333Y-144809333D01*
X103132000Y-144742667D01*
X103165333Y-144676000D01*
X103198667Y-144542667D01*
X103198667Y-144442667D01*
X103165333Y-144309333D01*
X103132000Y-144242667D01*
X103065333Y-144176000D01*
X102965333Y-144142667D01*
X102898667Y-144142667D01*
X102798667Y-144176000D01*
X102765333Y-144209333D01*
X104015333Y-147382667D02*
X104248667Y-147049333D01*
X104415333Y-147382667D02*
X104415333Y-146682667D01*
X104148667Y-146682667D01*
X104082000Y-146716000D01*
X104048667Y-146749333D01*
X104015333Y-146816000D01*
X104015333Y-146916000D01*
X104048667Y-146982667D01*
X104082000Y-147016000D01*
X104148667Y-147049333D01*
X104415333Y-147049333D01*
X103748667Y-147349333D02*
X103648667Y-147382667D01*
X103482000Y-147382667D01*
X103415333Y-147349333D01*
X103382000Y-147316000D01*
X103348667Y-147249333D01*
X103348667Y-147182667D01*
X103382000Y-147116000D01*
X103415333Y-147082667D01*
X103482000Y-147049333D01*
X103615333Y-147016000D01*
X103682000Y-146982667D01*
X103715333Y-146949333D01*
X103748667Y-146882667D01*
X103748667Y-146816000D01*
X103715333Y-146749333D01*
X103682000Y-146716000D01*
X103615333Y-146682667D01*
X103448667Y-146682667D01*
X103348667Y-146716000D01*
X103148666Y-146682667D02*
X102748666Y-146682667D01*
X102948666Y-147382667D02*
X102948666Y-146682667D01*
X104165333Y-149256000D02*
X104231999Y-149222667D01*
X104331999Y-149222667D01*
X104431999Y-149256000D01*
X104498666Y-149322667D01*
X104531999Y-149389333D01*
X104565333Y-149522667D01*
X104565333Y-149622667D01*
X104531999Y-149756000D01*
X104498666Y-149822667D01*
X104431999Y-149889333D01*
X104331999Y-149922667D01*
X104265333Y-149922667D01*
X104165333Y-149889333D01*
X104131999Y-149856000D01*
X104131999Y-149622667D01*
X104265333Y-149622667D01*
X103831999Y-149922667D02*
X103831999Y-149222667D01*
X103431999Y-149922667D01*
X103431999Y-149222667D01*
X103098666Y-149922667D02*
X103098666Y-149222667D01*
X102932000Y-149222667D01*
X102832000Y-149256000D01*
X102765333Y-149322667D01*
X102732000Y-149389333D01*
X102698666Y-149522667D01*
X102698666Y-149622667D01*
X102732000Y-149756000D01*
X102765333Y-149822667D01*
X102832000Y-149889333D01*
X102932000Y-149922667D01*
X103098666Y-149922667D01*
X104623333Y-152208667D02*
X104856667Y-151875333D01*
X105023333Y-152208667D02*
X105023333Y-151508667D01*
X104756667Y-151508667D01*
X104690000Y-151542000D01*
X104656667Y-151575333D01*
X104623333Y-151642000D01*
X104623333Y-151742000D01*
X104656667Y-151808667D01*
X104690000Y-151842000D01*
X104756667Y-151875333D01*
X105023333Y-151875333D01*
X104356667Y-152008667D02*
X104023333Y-152008667D01*
X104423333Y-152208667D02*
X104190000Y-151508667D01*
X103956667Y-152208667D01*
X103790000Y-151508667D02*
X103623333Y-152208667D01*
X103490000Y-151708667D01*
X103356667Y-152208667D01*
X103190000Y-151508667D01*
D11*
X104084381Y-111545762D02*
X104084381Y-110974333D01*
X104084381Y-111260047D02*
X103084381Y-111260047D01*
X103227238Y-111164809D01*
X103322476Y-111069571D01*
X103370095Y-110974333D01*
X103417714Y-112402905D02*
X104084381Y-112402905D01*
X103417714Y-111974333D02*
X103941524Y-111974333D01*
X104036762Y-112021952D01*
X104084381Y-112117190D01*
X104084381Y-112260048D01*
X104036762Y-112355286D01*
X103989143Y-112402905D01*
X103560571Y-113212429D02*
X103560571Y-112879095D01*
X104084381Y-112879095D02*
X103084381Y-112879095D01*
X103084381Y-113355286D01*
X106370381Y-110593334D02*
X106370381Y-110021905D01*
X106370381Y-110307619D02*
X105370381Y-110307619D01*
X105513238Y-110212381D01*
X105608476Y-110117143D01*
X105656095Y-110021905D01*
X105370381Y-111212381D02*
X105370381Y-111307620D01*
X105418000Y-111402858D01*
X105465619Y-111450477D01*
X105560857Y-111498096D01*
X105751333Y-111545715D01*
X105989429Y-111545715D01*
X106179905Y-111498096D01*
X106275143Y-111450477D01*
X106322762Y-111402858D01*
X106370381Y-111307620D01*
X106370381Y-111212381D01*
X106322762Y-111117143D01*
X106275143Y-111069524D01*
X106179905Y-111021905D01*
X105989429Y-110974286D01*
X105751333Y-110974286D01*
X105560857Y-111021905D01*
X105465619Y-111069524D01*
X105418000Y-111117143D01*
X105370381Y-111212381D01*
X105703714Y-112402858D02*
X106370381Y-112402858D01*
X105703714Y-111974286D02*
X106227524Y-111974286D01*
X106322762Y-112021905D01*
X106370381Y-112117143D01*
X106370381Y-112260001D01*
X106322762Y-112355239D01*
X106275143Y-112402858D01*
X106370381Y-112879048D02*
X105370381Y-112879048D01*
X105846571Y-112879048D02*
X105846571Y-113450477D01*
X106370381Y-113450477D02*
X105370381Y-113450477D01*
X110672381Y-152792381D02*
X111005715Y-152316190D01*
X111243810Y-152792381D02*
X111243810Y-151792381D01*
X110862857Y-151792381D01*
X110767619Y-151840000D01*
X110720000Y-151887619D01*
X110672381Y-151982857D01*
X110672381Y-152125714D01*
X110720000Y-152220952D01*
X110767619Y-152268571D01*
X110862857Y-152316190D01*
X111243810Y-152316190D01*
X110243810Y-152268571D02*
X109910476Y-152268571D01*
X109767619Y-152792381D02*
X110243810Y-152792381D01*
X110243810Y-151792381D01*
X109767619Y-151792381D01*
X109386667Y-152744762D02*
X109243810Y-152792381D01*
X109005714Y-152792381D01*
X108910476Y-152744762D01*
X108862857Y-152697143D01*
X108815238Y-152601905D01*
X108815238Y-152506667D01*
X108862857Y-152411429D01*
X108910476Y-152363810D01*
X109005714Y-152316190D01*
X109196191Y-152268571D01*
X109291429Y-152220952D01*
X109339048Y-152173333D01*
X109386667Y-152078095D01*
X109386667Y-151982857D01*
X109339048Y-151887619D01*
X109291429Y-151840000D01*
X109196191Y-151792381D01*
X108958095Y-151792381D01*
X108815238Y-151840000D01*
X108386667Y-152268571D02*
X108053333Y-152268571D01*
X107910476Y-152792381D02*
X108386667Y-152792381D01*
X108386667Y-151792381D01*
X107910476Y-151792381D01*
X107624762Y-151792381D02*
X107053333Y-151792381D01*
X107339048Y-152792381D02*
X107339048Y-151792381D01*
X106430143Y-115677334D02*
X106477762Y-115629715D01*
X106525381Y-115486858D01*
X106525381Y-115391620D01*
X106477762Y-115248762D01*
X106382524Y-115153524D01*
X106287286Y-115105905D01*
X106096810Y-115058286D01*
X105953952Y-115058286D01*
X105763476Y-115105905D01*
X105668238Y-115153524D01*
X105573000Y-115248762D01*
X105525381Y-115391620D01*
X105525381Y-115486858D01*
X105573000Y-115629715D01*
X105620619Y-115677334D01*
X105620619Y-116058286D02*
X105573000Y-116105905D01*
X105525381Y-116201143D01*
X105525381Y-116439239D01*
X105573000Y-116534477D01*
X105620619Y-116582096D01*
X105715857Y-116629715D01*
X105811095Y-116629715D01*
X105953952Y-116582096D01*
X106525381Y-116010667D01*
X106525381Y-116629715D01*
X107275381Y-109436143D02*
X107275381Y-109531382D01*
X107323000Y-109626620D01*
X107370619Y-109674239D01*
X107465857Y-109721858D01*
X107656333Y-109769477D01*
X107894429Y-109769477D01*
X108084905Y-109721858D01*
X108180143Y-109674239D01*
X108227762Y-109626620D01*
X108275381Y-109531382D01*
X108275381Y-109436143D01*
X108227762Y-109340905D01*
X108180143Y-109293286D01*
X108084905Y-109245667D01*
X107894429Y-109198048D01*
X107656333Y-109198048D01*
X107465857Y-109245667D01*
X107370619Y-109293286D01*
X107323000Y-109340905D01*
X107275381Y-109436143D01*
X108180143Y-110198048D02*
X108227762Y-110245667D01*
X108275381Y-110198048D01*
X108227762Y-110150429D01*
X108180143Y-110198048D01*
X108275381Y-110198048D01*
X108275381Y-111198048D02*
X108275381Y-110626619D01*
X108275381Y-110912333D02*
X107275381Y-110912333D01*
X107418238Y-110817095D01*
X107513476Y-110721857D01*
X107561095Y-110626619D01*
X107608714Y-112055191D02*
X108275381Y-112055191D01*
X107608714Y-111626619D02*
X108132524Y-111626619D01*
X108227762Y-111674238D01*
X108275381Y-111769476D01*
X108275381Y-111912334D01*
X108227762Y-112007572D01*
X108180143Y-112055191D01*
X107751571Y-112864715D02*
X107751571Y-112531381D01*
X108275381Y-112531381D02*
X107275381Y-112531381D01*
X107275381Y-113007572D01*
X107399531Y-106400861D02*
X107970960Y-106400861D01*
X107685246Y-106400861D02*
X107685246Y-105400861D01*
X107780484Y-105543718D01*
X107875722Y-105638956D01*
X107970960Y-105686575D01*
X106780484Y-105400861D02*
X106685245Y-105400861D01*
X106590007Y-105448480D01*
X106542388Y-105496099D01*
X106494769Y-105591337D01*
X106447150Y-105781813D01*
X106447150Y-106019909D01*
X106494769Y-106210385D01*
X106542388Y-106305623D01*
X106590007Y-106353242D01*
X106685245Y-106400861D01*
X106780484Y-106400861D01*
X106875722Y-106353242D01*
X106923341Y-106305623D01*
X106970960Y-106210385D01*
X107018579Y-106019909D01*
X107018579Y-105781813D01*
X106970960Y-105591337D01*
X106923341Y-105496099D01*
X106875722Y-105448480D01*
X106780484Y-105400861D01*
X105828103Y-105400861D02*
X105732864Y-105400861D01*
X105637626Y-105448480D01*
X105590007Y-105496099D01*
X105542388Y-105591337D01*
X105494769Y-105781813D01*
X105494769Y-106019909D01*
X105542388Y-106210385D01*
X105590007Y-106305623D01*
X105637626Y-106353242D01*
X105732864Y-106400861D01*
X105828103Y-106400861D01*
X105923341Y-106353242D01*
X105970960Y-106305623D01*
X106018579Y-106210385D01*
X106066198Y-106019909D01*
X106066198Y-105781813D01*
X106018579Y-105591337D01*
X105970960Y-105496099D01*
X105923341Y-105448480D01*
X105828103Y-105400861D01*
X104304293Y-105734194D02*
X104304293Y-106734194D01*
X104304293Y-105781813D02*
X104209055Y-105734194D01*
X104018578Y-105734194D01*
X103923340Y-105781813D01*
X103875721Y-105829432D01*
X103828102Y-105924670D01*
X103828102Y-106210385D01*
X103875721Y-106305623D01*
X103923340Y-106353242D01*
X104018578Y-106400861D01*
X104209055Y-106400861D01*
X104304293Y-106353242D01*
X103066197Y-105877051D02*
X103399531Y-105877051D01*
X103399531Y-106400861D02*
X103399531Y-105400861D01*
X102923340Y-105400861D01*
M02*
