G04 #@! TF.GenerationSoftware,KiCad,Pcbnew,(5.0.0)*
G04 #@! TF.CreationDate,2019-11-08T22:07:10-06:00*
G04 #@! TF.ProjectId,EByte_E73,45427974655F4537332E6B696361645F,rev?*
G04 #@! TF.SameCoordinates,Original*
G04 #@! TF.FileFunction,Legend,Top*
G04 #@! TF.FilePolarity,Positive*
%FSLAX46Y46*%
G04 Gerber Fmt 4.6, Leading zero omitted, Abs format (unit mm)*
G04 Created by KiCad (PCBNEW (5.0.0)) date 11/08/19 22:07:10*
%MOMM*%
%LPD*%
G01*
G04 APERTURE LIST*
%ADD10C,0.100000*%
%ADD11C,0.200000*%
%ADD12C,0.150000*%
%ADD13C,0.381000*%
%ADD14C,0.120000*%
%ADD15C,0.110000*%
G04 APERTURE END LIST*
D10*
X102993809Y-110974285D02*
X102827142Y-110974285D01*
X102827142Y-111236190D02*
X102827142Y-110736190D01*
X103065238Y-110736190D01*
X103327142Y-111236190D02*
X103279523Y-111212380D01*
X103255714Y-111188571D01*
X103231904Y-111140952D01*
X103231904Y-110998095D01*
X103255714Y-110950476D01*
X103279523Y-110926666D01*
X103327142Y-110902857D01*
X103398571Y-110902857D01*
X103446190Y-110926666D01*
X103470000Y-110950476D01*
X103493809Y-110998095D01*
X103493809Y-111140952D01*
X103470000Y-111188571D01*
X103446190Y-111212380D01*
X103398571Y-111236190D01*
X103327142Y-111236190D01*
X103708095Y-111236190D02*
X103708095Y-110902857D01*
X103708095Y-110998095D02*
X103731904Y-110950476D01*
X103755714Y-110926666D01*
X103803333Y-110902857D01*
X103850952Y-110902857D01*
X104374761Y-111093333D02*
X104612857Y-111093333D01*
X104327142Y-111236190D02*
X104493809Y-110736190D01*
X104660476Y-111236190D01*
X104803333Y-111212380D02*
X104850952Y-111236190D01*
X104946190Y-111236190D01*
X104993809Y-111212380D01*
X105017619Y-111164761D01*
X105017619Y-111140952D01*
X104993809Y-111093333D01*
X104946190Y-111069523D01*
X104874761Y-111069523D01*
X104827142Y-111045714D01*
X104803333Y-110998095D01*
X104803333Y-110974285D01*
X104827142Y-110926666D01*
X104874761Y-110902857D01*
X104946190Y-110902857D01*
X104993809Y-110926666D01*
X105208095Y-111212380D02*
X105255714Y-111236190D01*
X105350952Y-111236190D01*
X105398571Y-111212380D01*
X105422380Y-111164761D01*
X105422380Y-111140952D01*
X105398571Y-111093333D01*
X105350952Y-111069523D01*
X105279523Y-111069523D01*
X105231904Y-111045714D01*
X105208095Y-110998095D01*
X105208095Y-110974285D01*
X105231904Y-110926666D01*
X105279523Y-110902857D01*
X105350952Y-110902857D01*
X105398571Y-110926666D01*
X105827142Y-111212380D02*
X105779523Y-111236190D01*
X105684285Y-111236190D01*
X105636666Y-111212380D01*
X105612857Y-111164761D01*
X105612857Y-110974285D01*
X105636666Y-110926666D01*
X105684285Y-110902857D01*
X105779523Y-110902857D01*
X105827142Y-110926666D01*
X105850952Y-110974285D01*
X105850952Y-111021904D01*
X105612857Y-111069523D01*
X106065238Y-111236190D02*
X106065238Y-110902857D01*
X106065238Y-110950476D02*
X106089047Y-110926666D01*
X106136666Y-110902857D01*
X106208095Y-110902857D01*
X106255714Y-110926666D01*
X106279523Y-110974285D01*
X106279523Y-111236190D01*
X106279523Y-110974285D02*
X106303333Y-110926666D01*
X106350952Y-110902857D01*
X106422380Y-110902857D01*
X106470000Y-110926666D01*
X106493809Y-110974285D01*
X106493809Y-111236190D01*
X106731904Y-111236190D02*
X106731904Y-110736190D01*
X106731904Y-110926666D02*
X106779523Y-110902857D01*
X106874761Y-110902857D01*
X106922380Y-110926666D01*
X106946190Y-110950476D01*
X106970000Y-110998095D01*
X106970000Y-111140952D01*
X106946190Y-111188571D01*
X106922380Y-111212380D01*
X106874761Y-111236190D01*
X106779523Y-111236190D01*
X106731904Y-111212380D01*
X107255714Y-111236190D02*
X107208095Y-111212380D01*
X107184285Y-111164761D01*
X107184285Y-110736190D01*
X107398571Y-110902857D02*
X107517619Y-111236190D01*
X107636666Y-110902857D02*
X107517619Y-111236190D01*
X107470000Y-111355238D01*
X107446190Y-111379047D01*
X107398571Y-111402857D01*
X108208095Y-111236190D02*
X108208095Y-110736190D01*
X108446190Y-110902857D02*
X108446190Y-111236190D01*
X108446190Y-110950476D02*
X108470000Y-110926666D01*
X108517619Y-110902857D01*
X108589047Y-110902857D01*
X108636666Y-110926666D01*
X108660476Y-110974285D01*
X108660476Y-111236190D01*
X108874761Y-111212380D02*
X108922380Y-111236190D01*
X109017619Y-111236190D01*
X109065238Y-111212380D01*
X109089047Y-111164761D01*
X109089047Y-111140952D01*
X109065238Y-111093333D01*
X109017619Y-111069523D01*
X108946190Y-111069523D01*
X108898571Y-111045714D01*
X108874761Y-110998095D01*
X108874761Y-110974285D01*
X108898571Y-110926666D01*
X108946190Y-110902857D01*
X109017619Y-110902857D01*
X109065238Y-110926666D01*
X109231904Y-110902857D02*
X109422380Y-110902857D01*
X109303333Y-110736190D02*
X109303333Y-111164761D01*
X109327142Y-111212380D01*
X109374761Y-111236190D01*
X109422380Y-111236190D01*
X109589047Y-111236190D02*
X109589047Y-110902857D01*
X109589047Y-110998095D02*
X109612857Y-110950476D01*
X109636666Y-110926666D01*
X109684285Y-110902857D01*
X109731904Y-110902857D01*
X110112857Y-110902857D02*
X110112857Y-111236190D01*
X109898571Y-110902857D02*
X109898571Y-111164761D01*
X109922380Y-111212380D01*
X109970000Y-111236190D01*
X110041428Y-111236190D01*
X110089047Y-111212380D01*
X110112857Y-111188571D01*
X110565238Y-111212380D02*
X110517619Y-111236190D01*
X110422380Y-111236190D01*
X110374761Y-111212380D01*
X110350952Y-111188571D01*
X110327142Y-111140952D01*
X110327142Y-110998095D01*
X110350952Y-110950476D01*
X110374761Y-110926666D01*
X110422380Y-110902857D01*
X110517619Y-110902857D01*
X110565238Y-110926666D01*
X110708095Y-110902857D02*
X110898571Y-110902857D01*
X110779523Y-110736190D02*
X110779523Y-111164761D01*
X110803333Y-111212380D01*
X110850952Y-111236190D01*
X110898571Y-111236190D01*
X111065238Y-111236190D02*
X111065238Y-110902857D01*
X111065238Y-110736190D02*
X111041428Y-110760000D01*
X111065238Y-110783809D01*
X111089047Y-110760000D01*
X111065238Y-110736190D01*
X111065238Y-110783809D01*
X111374761Y-111236190D02*
X111327142Y-111212380D01*
X111303333Y-111188571D01*
X111279523Y-111140952D01*
X111279523Y-110998095D01*
X111303333Y-110950476D01*
X111327142Y-110926666D01*
X111374761Y-110902857D01*
X111446190Y-110902857D01*
X111493809Y-110926666D01*
X111517619Y-110950476D01*
X111541428Y-110998095D01*
X111541428Y-111140952D01*
X111517619Y-111188571D01*
X111493809Y-111212380D01*
X111446190Y-111236190D01*
X111374761Y-111236190D01*
X111755714Y-110902857D02*
X111755714Y-111236190D01*
X111755714Y-110950476D02*
X111779523Y-110926666D01*
X111827142Y-110902857D01*
X111898571Y-110902857D01*
X111946190Y-110926666D01*
X111970000Y-110974285D01*
X111970000Y-111236190D01*
X112184285Y-111212380D02*
X112231904Y-111236190D01*
X112327142Y-111236190D01*
X112374761Y-111212380D01*
X112398571Y-111164761D01*
X112398571Y-111140952D01*
X112374761Y-111093333D01*
X112327142Y-111069523D01*
X112255714Y-111069523D01*
X112208095Y-111045714D01*
X112184285Y-110998095D01*
X112184285Y-110974285D01*
X112208095Y-110926666D01*
X112255714Y-110902857D01*
X112327142Y-110902857D01*
X112374761Y-110926666D01*
X112636666Y-111212380D02*
X112636666Y-111236190D01*
X112612857Y-111283809D01*
X112589047Y-111307619D01*
X113231904Y-111236190D02*
X113231904Y-110902857D01*
X113231904Y-110998095D02*
X113255714Y-110950476D01*
X113279523Y-110926666D01*
X113327142Y-110902857D01*
X113374761Y-110902857D01*
X113731904Y-111212380D02*
X113684285Y-111236190D01*
X113589047Y-111236190D01*
X113541428Y-111212380D01*
X113517619Y-111164761D01*
X113517619Y-110974285D01*
X113541428Y-110926666D01*
X113589047Y-110902857D01*
X113684285Y-110902857D01*
X113731904Y-110926666D01*
X113755714Y-110974285D01*
X113755714Y-111021904D01*
X113517619Y-111069523D01*
X113898571Y-110902857D02*
X114089047Y-110902857D01*
X113970000Y-111236190D02*
X113970000Y-110807619D01*
X113993809Y-110760000D01*
X114041428Y-110736190D01*
X114089047Y-110736190D01*
X114446190Y-111212380D02*
X114398571Y-111236190D01*
X114303333Y-111236190D01*
X114255714Y-111212380D01*
X114231904Y-111164761D01*
X114231904Y-110974285D01*
X114255714Y-110926666D01*
X114303333Y-110902857D01*
X114398571Y-110902857D01*
X114446190Y-110926666D01*
X114470000Y-110974285D01*
X114470000Y-111021904D01*
X114231904Y-111069523D01*
X114684285Y-111236190D02*
X114684285Y-110902857D01*
X114684285Y-110998095D02*
X114708095Y-110950476D01*
X114731904Y-110926666D01*
X114779523Y-110902857D01*
X114827142Y-110902857D01*
X115303333Y-110902857D02*
X115493809Y-110902857D01*
X115374761Y-110736190D02*
X115374761Y-111164761D01*
X115398571Y-111212380D01*
X115446190Y-111236190D01*
X115493809Y-111236190D01*
X115731904Y-111236190D02*
X115684285Y-111212380D01*
X115660476Y-111188571D01*
X115636666Y-111140952D01*
X115636666Y-110998095D01*
X115660476Y-110950476D01*
X115684285Y-110926666D01*
X115731904Y-110902857D01*
X115803333Y-110902857D01*
X115850952Y-110926666D01*
X115874761Y-110950476D01*
X115898571Y-110998095D01*
X115898571Y-111140952D01*
X115874761Y-111188571D01*
X115850952Y-111212380D01*
X115803333Y-111236190D01*
X115731904Y-111236190D01*
X116112857Y-111188571D02*
X116136666Y-111212380D01*
X116112857Y-111236190D01*
X116089047Y-111212380D01*
X116112857Y-111188571D01*
X116112857Y-111236190D01*
X116112857Y-110926666D02*
X116136666Y-110950476D01*
X116112857Y-110974285D01*
X116089047Y-110950476D01*
X116112857Y-110926666D01*
X116112857Y-110974285D01*
X102719999Y-112086190D02*
X102719999Y-111586190D01*
X102934285Y-112086190D02*
X102934285Y-111824285D01*
X102910476Y-111776666D01*
X102862857Y-111752857D01*
X102791428Y-111752857D01*
X102743809Y-111776666D01*
X102719999Y-111800476D01*
X103100952Y-111752857D02*
X103291428Y-111752857D01*
X103172380Y-111586190D02*
X103172380Y-112014761D01*
X103196190Y-112062380D01*
X103243809Y-112086190D01*
X103291428Y-112086190D01*
X103386666Y-111752857D02*
X103577142Y-111752857D01*
X103458095Y-111586190D02*
X103458095Y-112014761D01*
X103481904Y-112062380D01*
X103529523Y-112086190D01*
X103577142Y-112086190D01*
X103743809Y-111752857D02*
X103743809Y-112252857D01*
X103743809Y-111776666D02*
X103791428Y-111752857D01*
X103886666Y-111752857D01*
X103934285Y-111776666D01*
X103958095Y-111800476D01*
X103981904Y-111848095D01*
X103981904Y-111990952D01*
X103958095Y-112038571D01*
X103934285Y-112062380D01*
X103886666Y-112086190D01*
X103791428Y-112086190D01*
X103743809Y-112062380D01*
X104172380Y-112062380D02*
X104219999Y-112086190D01*
X104315238Y-112086190D01*
X104362857Y-112062380D01*
X104386666Y-112014761D01*
X104386666Y-111990952D01*
X104362857Y-111943333D01*
X104315238Y-111919523D01*
X104243809Y-111919523D01*
X104196190Y-111895714D01*
X104172380Y-111848095D01*
X104172380Y-111824285D01*
X104196190Y-111776666D01*
X104243809Y-111752857D01*
X104315238Y-111752857D01*
X104362857Y-111776666D01*
X104600952Y-112038571D02*
X104624761Y-112062380D01*
X104600952Y-112086190D01*
X104577142Y-112062380D01*
X104600952Y-112038571D01*
X104600952Y-112086190D01*
X104600952Y-111776666D02*
X104624761Y-111800476D01*
X104600952Y-111824285D01*
X104577142Y-111800476D01*
X104600952Y-111776666D01*
X104600952Y-111824285D01*
X105196190Y-111562380D02*
X104767619Y-112205238D01*
X105719999Y-111562380D02*
X105291428Y-112205238D01*
X106100952Y-111752857D02*
X106100952Y-112157619D01*
X106077142Y-112205238D01*
X106053333Y-112229047D01*
X106005714Y-112252857D01*
X105934285Y-112252857D01*
X105886666Y-112229047D01*
X106100952Y-112062380D02*
X106053333Y-112086190D01*
X105958095Y-112086190D01*
X105910476Y-112062380D01*
X105886666Y-112038571D01*
X105862857Y-111990952D01*
X105862857Y-111848095D01*
X105886666Y-111800476D01*
X105910476Y-111776666D01*
X105958095Y-111752857D01*
X106053333Y-111752857D01*
X106100952Y-111776666D01*
X106339047Y-112086190D02*
X106339047Y-111752857D01*
X106339047Y-111586190D02*
X106315238Y-111610000D01*
X106339047Y-111633809D01*
X106362857Y-111610000D01*
X106339047Y-111586190D01*
X106339047Y-111633809D01*
X106505714Y-111752857D02*
X106696190Y-111752857D01*
X106577142Y-111586190D02*
X106577142Y-112014761D01*
X106600952Y-112062380D01*
X106648571Y-112086190D01*
X106696190Y-112086190D01*
X106862857Y-112086190D02*
X106862857Y-111586190D01*
X107077142Y-112086190D02*
X107077142Y-111824285D01*
X107053333Y-111776666D01*
X107005714Y-111752857D01*
X106934285Y-111752857D01*
X106886666Y-111776666D01*
X106862857Y-111800476D01*
X107529523Y-111752857D02*
X107529523Y-112086190D01*
X107315238Y-111752857D02*
X107315238Y-112014761D01*
X107339047Y-112062380D01*
X107386666Y-112086190D01*
X107458095Y-112086190D01*
X107505714Y-112062380D01*
X107529523Y-112038571D01*
X107767619Y-112086190D02*
X107767619Y-111586190D01*
X107767619Y-111776666D02*
X107815238Y-111752857D01*
X107910476Y-111752857D01*
X107958095Y-111776666D01*
X107981904Y-111800476D01*
X108005714Y-111848095D01*
X108005714Y-111990952D01*
X107981904Y-112038571D01*
X107958095Y-112062380D01*
X107910476Y-112086190D01*
X107815238Y-112086190D01*
X107767619Y-112062380D01*
X108220000Y-112038571D02*
X108243809Y-112062380D01*
X108220000Y-112086190D01*
X108196190Y-112062380D01*
X108220000Y-112038571D01*
X108220000Y-112086190D01*
X108672380Y-112062380D02*
X108624761Y-112086190D01*
X108529523Y-112086190D01*
X108481904Y-112062380D01*
X108458095Y-112038571D01*
X108434285Y-111990952D01*
X108434285Y-111848095D01*
X108458095Y-111800476D01*
X108481904Y-111776666D01*
X108529523Y-111752857D01*
X108624761Y-111752857D01*
X108672380Y-111776666D01*
X108958095Y-112086190D02*
X108910476Y-112062380D01*
X108886666Y-112038571D01*
X108862857Y-111990952D01*
X108862857Y-111848095D01*
X108886666Y-111800476D01*
X108910476Y-111776666D01*
X108958095Y-111752857D01*
X109029523Y-111752857D01*
X109077142Y-111776666D01*
X109100952Y-111800476D01*
X109124761Y-111848095D01*
X109124761Y-111990952D01*
X109100952Y-112038571D01*
X109077142Y-112062380D01*
X109029523Y-112086190D01*
X108958095Y-112086190D01*
X109339047Y-112086190D02*
X109339047Y-111752857D01*
X109339047Y-111800476D02*
X109362857Y-111776666D01*
X109410476Y-111752857D01*
X109481904Y-111752857D01*
X109529523Y-111776666D01*
X109553333Y-111824285D01*
X109553333Y-112086190D01*
X109553333Y-111824285D02*
X109577142Y-111776666D01*
X109624761Y-111752857D01*
X109696190Y-111752857D01*
X109743809Y-111776666D01*
X109767619Y-111824285D01*
X109767619Y-112086190D01*
X110362857Y-111562380D02*
X109934285Y-112205238D01*
X110529523Y-111752857D02*
X110529523Y-112181428D01*
X110505714Y-112229047D01*
X110458095Y-112252857D01*
X110434285Y-112252857D01*
X110529523Y-111586190D02*
X110505714Y-111610000D01*
X110529523Y-111633809D01*
X110553333Y-111610000D01*
X110529523Y-111586190D01*
X110529523Y-111633809D01*
X110767619Y-111752857D02*
X110767619Y-112252857D01*
X110767619Y-111776666D02*
X110815238Y-111752857D01*
X110910476Y-111752857D01*
X110958095Y-111776666D01*
X110981904Y-111800476D01*
X111005714Y-111848095D01*
X111005714Y-111990952D01*
X110981904Y-112038571D01*
X110958095Y-112062380D01*
X110910476Y-112086190D01*
X110815238Y-112086190D01*
X110767619Y-112062380D01*
X111434285Y-112062380D02*
X111386666Y-112086190D01*
X111291428Y-112086190D01*
X111243809Y-112062380D01*
X111219999Y-112038571D01*
X111196190Y-111990952D01*
X111196190Y-111848095D01*
X111219999Y-111800476D01*
X111243809Y-111776666D01*
X111291428Y-111752857D01*
X111386666Y-111752857D01*
X111434285Y-111776666D01*
X111719999Y-112086190D02*
X111672380Y-112062380D01*
X111648571Y-112038571D01*
X111624761Y-111990952D01*
X111624761Y-111848095D01*
X111648571Y-111800476D01*
X111672380Y-111776666D01*
X111719999Y-111752857D01*
X111791428Y-111752857D01*
X111839047Y-111776666D01*
X111862857Y-111800476D01*
X111886666Y-111848095D01*
X111886666Y-111990952D01*
X111862857Y-112038571D01*
X111839047Y-112062380D01*
X111791428Y-112086190D01*
X111719999Y-112086190D01*
X112100952Y-111752857D02*
X112100952Y-112086190D01*
X112100952Y-111800476D02*
X112124761Y-111776666D01*
X112172380Y-111752857D01*
X112243809Y-111752857D01*
X112291428Y-111776666D01*
X112315238Y-111824285D01*
X112315238Y-112086190D01*
X112529523Y-112062380D02*
X112577142Y-112086190D01*
X112672380Y-112086190D01*
X112719999Y-112062380D01*
X112743809Y-112014761D01*
X112743809Y-111990952D01*
X112719999Y-111943333D01*
X112672380Y-111919523D01*
X112600952Y-111919523D01*
X112553333Y-111895714D01*
X112529523Y-111848095D01*
X112529523Y-111824285D01*
X112553333Y-111776666D01*
X112600952Y-111752857D01*
X112672380Y-111752857D01*
X112719999Y-111776666D01*
X112886666Y-111752857D02*
X113077142Y-111752857D01*
X112958095Y-111586190D02*
X112958095Y-112014761D01*
X112981904Y-112062380D01*
X113029523Y-112086190D01*
X113077142Y-112086190D01*
X113458095Y-112086190D02*
X113458095Y-111824285D01*
X113434285Y-111776666D01*
X113386666Y-111752857D01*
X113291428Y-111752857D01*
X113243809Y-111776666D01*
X113458095Y-112062380D02*
X113410476Y-112086190D01*
X113291428Y-112086190D01*
X113243809Y-112062380D01*
X113219999Y-112014761D01*
X113219999Y-111967142D01*
X113243809Y-111919523D01*
X113291428Y-111895714D01*
X113410476Y-111895714D01*
X113458095Y-111871904D01*
X113696190Y-111752857D02*
X113696190Y-112086190D01*
X113696190Y-111800476D02*
X113719999Y-111776666D01*
X113767619Y-111752857D01*
X113839047Y-111752857D01*
X113886666Y-111776666D01*
X113910476Y-111824285D01*
X113910476Y-112086190D01*
X114077142Y-111752857D02*
X114267619Y-111752857D01*
X114148571Y-111586190D02*
X114148571Y-112014761D01*
X114172380Y-112062380D01*
X114219999Y-112086190D01*
X114267619Y-112086190D01*
X114434285Y-112086190D02*
X114434285Y-111752857D01*
X114434285Y-111586190D02*
X114410476Y-111610000D01*
X114434285Y-111633809D01*
X114458095Y-111610000D01*
X114434285Y-111586190D01*
X114434285Y-111633809D01*
X114672380Y-111752857D02*
X114672380Y-112086190D01*
X114672380Y-111800476D02*
X114696190Y-111776666D01*
X114743809Y-111752857D01*
X114815238Y-111752857D01*
X114862857Y-111776666D01*
X114886666Y-111824285D01*
X114886666Y-112086190D01*
X115315238Y-112062380D02*
X115267619Y-112086190D01*
X115172380Y-112086190D01*
X115124761Y-112062380D01*
X115100952Y-112014761D01*
X115100952Y-111824285D01*
X115124761Y-111776666D01*
X115172380Y-111752857D01*
X115267619Y-111752857D01*
X115315238Y-111776666D01*
X115339047Y-111824285D01*
X115339047Y-111871904D01*
X115100952Y-111919523D01*
X115767619Y-112086190D02*
X115767619Y-111824285D01*
X115743809Y-111776666D01*
X115696190Y-111752857D01*
X115600952Y-111752857D01*
X115553333Y-111776666D01*
X115767619Y-112062380D02*
X115719999Y-112086190D01*
X115600952Y-112086190D01*
X115553333Y-112062380D01*
X115529523Y-112014761D01*
X115529523Y-111967142D01*
X115553333Y-111919523D01*
X115600952Y-111895714D01*
X115719999Y-111895714D01*
X115767619Y-111871904D01*
X116219999Y-111752857D02*
X116219999Y-112086190D01*
X116005714Y-111752857D02*
X116005714Y-112014761D01*
X116029523Y-112062380D01*
X116077142Y-112086190D01*
X116148571Y-112086190D01*
X116196190Y-112062380D01*
X116219999Y-112038571D01*
X107089047Y-112412380D02*
X106660476Y-113055238D01*
X107255714Y-112936190D02*
X107255714Y-112436190D01*
X107541428Y-112936190D01*
X107541428Y-112436190D01*
X108065238Y-112936190D02*
X107898571Y-112698095D01*
X107779523Y-112936190D02*
X107779523Y-112436190D01*
X107970000Y-112436190D01*
X108017619Y-112460000D01*
X108041428Y-112483809D01*
X108065238Y-112531428D01*
X108065238Y-112602857D01*
X108041428Y-112650476D01*
X108017619Y-112674285D01*
X107970000Y-112698095D01*
X107779523Y-112698095D01*
X108446190Y-112674285D02*
X108279523Y-112674285D01*
X108279523Y-112936190D02*
X108279523Y-112436190D01*
X108517619Y-112436190D01*
X108946190Y-112436190D02*
X108708095Y-112436190D01*
X108684285Y-112674285D01*
X108708095Y-112650476D01*
X108755714Y-112626666D01*
X108874761Y-112626666D01*
X108922380Y-112650476D01*
X108946190Y-112674285D01*
X108970000Y-112721904D01*
X108970000Y-112840952D01*
X108946190Y-112888571D01*
X108922380Y-112912380D01*
X108874761Y-112936190D01*
X108755714Y-112936190D01*
X108708095Y-112912380D01*
X108684285Y-112888571D01*
X109160476Y-112483809D02*
X109184285Y-112460000D01*
X109231904Y-112436190D01*
X109350952Y-112436190D01*
X109398571Y-112460000D01*
X109422380Y-112483809D01*
X109446190Y-112531428D01*
X109446190Y-112579047D01*
X109422380Y-112650476D01*
X109136666Y-112936190D01*
X109446190Y-112936190D01*
X109660476Y-112745714D02*
X110041428Y-112745714D01*
X110446190Y-112674285D02*
X110517619Y-112698095D01*
X110541428Y-112721904D01*
X110565238Y-112769523D01*
X110565238Y-112840952D01*
X110541428Y-112888571D01*
X110517619Y-112912380D01*
X110470000Y-112936190D01*
X110279523Y-112936190D01*
X110279523Y-112436190D01*
X110446190Y-112436190D01*
X110493809Y-112460000D01*
X110517619Y-112483809D01*
X110541428Y-112531428D01*
X110541428Y-112579047D01*
X110517619Y-112626666D01*
X110493809Y-112650476D01*
X110446190Y-112674285D01*
X110279523Y-112674285D01*
X110850952Y-112936190D02*
X110803333Y-112912380D01*
X110779523Y-112888571D01*
X110755714Y-112840952D01*
X110755714Y-112698095D01*
X110779523Y-112650476D01*
X110803333Y-112626666D01*
X110850952Y-112602857D01*
X110922380Y-112602857D01*
X110970000Y-112626666D01*
X110993809Y-112650476D01*
X111017619Y-112698095D01*
X111017619Y-112840952D01*
X110993809Y-112888571D01*
X110970000Y-112912380D01*
X110922380Y-112936190D01*
X110850952Y-112936190D01*
X111446190Y-112936190D02*
X111446190Y-112674285D01*
X111422380Y-112626666D01*
X111374761Y-112602857D01*
X111279523Y-112602857D01*
X111231904Y-112626666D01*
X111446190Y-112912380D02*
X111398571Y-112936190D01*
X111279523Y-112936190D01*
X111231904Y-112912380D01*
X111208095Y-112864761D01*
X111208095Y-112817142D01*
X111231904Y-112769523D01*
X111279523Y-112745714D01*
X111398571Y-112745714D01*
X111446190Y-112721904D01*
X111684285Y-112936190D02*
X111684285Y-112602857D01*
X111684285Y-112698095D02*
X111708095Y-112650476D01*
X111731904Y-112626666D01*
X111779523Y-112602857D01*
X111827142Y-112602857D01*
X112208095Y-112936190D02*
X112208095Y-112436190D01*
X112208095Y-112912380D02*
X112160476Y-112936190D01*
X112065238Y-112936190D01*
X112017619Y-112912380D01*
X111993809Y-112888571D01*
X111970000Y-112840952D01*
X111970000Y-112698095D01*
X111993809Y-112650476D01*
X112017619Y-112626666D01*
X112065238Y-112602857D01*
X112160476Y-112602857D01*
X112208095Y-112626666D01*
X105422380Y-114374285D02*
X105255714Y-114374285D01*
X105255714Y-114636190D02*
X105255714Y-114136190D01*
X105493809Y-114136190D01*
X105755714Y-114636190D02*
X105708095Y-114612380D01*
X105684285Y-114588571D01*
X105660476Y-114540952D01*
X105660476Y-114398095D01*
X105684285Y-114350476D01*
X105708095Y-114326666D01*
X105755714Y-114302857D01*
X105827142Y-114302857D01*
X105874761Y-114326666D01*
X105898571Y-114350476D01*
X105922380Y-114398095D01*
X105922380Y-114540952D01*
X105898571Y-114588571D01*
X105874761Y-114612380D01*
X105827142Y-114636190D01*
X105755714Y-114636190D01*
X106136666Y-114636190D02*
X106136666Y-114302857D01*
X106136666Y-114398095D02*
X106160476Y-114350476D01*
X106184285Y-114326666D01*
X106231904Y-114302857D01*
X106279523Y-114302857D01*
X106993809Y-114374285D02*
X106827142Y-114374285D01*
X106827142Y-114636190D02*
X106827142Y-114136190D01*
X107065238Y-114136190D01*
X107255714Y-114636190D02*
X107255714Y-114302857D01*
X107255714Y-114136190D02*
X107231904Y-114160000D01*
X107255714Y-114183809D01*
X107279523Y-114160000D01*
X107255714Y-114136190D01*
X107255714Y-114183809D01*
X107493809Y-114636190D02*
X107493809Y-114302857D01*
X107493809Y-114398095D02*
X107517619Y-114350476D01*
X107541428Y-114326666D01*
X107589047Y-114302857D01*
X107636666Y-114302857D01*
X107803333Y-114636190D02*
X107803333Y-114302857D01*
X107803333Y-114350476D02*
X107827142Y-114326666D01*
X107874761Y-114302857D01*
X107946190Y-114302857D01*
X107993809Y-114326666D01*
X108017619Y-114374285D01*
X108017619Y-114636190D01*
X108017619Y-114374285D02*
X108041428Y-114326666D01*
X108089047Y-114302857D01*
X108160476Y-114302857D01*
X108208095Y-114326666D01*
X108231904Y-114374285D01*
X108231904Y-114636190D01*
X108422380Y-114302857D02*
X108517619Y-114636190D01*
X108612857Y-114398095D01*
X108708095Y-114636190D01*
X108803333Y-114302857D01*
X109208095Y-114636190D02*
X109208095Y-114374285D01*
X109184285Y-114326666D01*
X109136666Y-114302857D01*
X109041428Y-114302857D01*
X108993809Y-114326666D01*
X109208095Y-114612380D02*
X109160476Y-114636190D01*
X109041428Y-114636190D01*
X108993809Y-114612380D01*
X108970000Y-114564761D01*
X108970000Y-114517142D01*
X108993809Y-114469523D01*
X109041428Y-114445714D01*
X109160476Y-114445714D01*
X109208095Y-114421904D01*
X109446190Y-114636190D02*
X109446190Y-114302857D01*
X109446190Y-114398095D02*
X109470000Y-114350476D01*
X109493809Y-114326666D01*
X109541428Y-114302857D01*
X109589047Y-114302857D01*
X109946190Y-114612380D02*
X109898571Y-114636190D01*
X109803333Y-114636190D01*
X109755714Y-114612380D01*
X109731904Y-114564761D01*
X109731904Y-114374285D01*
X109755714Y-114326666D01*
X109803333Y-114302857D01*
X109898571Y-114302857D01*
X109946190Y-114326666D01*
X109970000Y-114374285D01*
X109970000Y-114421904D01*
X109731904Y-114469523D01*
X110208095Y-114612380D02*
X110208095Y-114636190D01*
X110184285Y-114683809D01*
X110160476Y-114707619D01*
X110803333Y-114636190D02*
X110803333Y-114302857D01*
X110803333Y-114398095D02*
X110827142Y-114350476D01*
X110850952Y-114326666D01*
X110898571Y-114302857D01*
X110946190Y-114302857D01*
X111303333Y-114612380D02*
X111255714Y-114636190D01*
X111160476Y-114636190D01*
X111112857Y-114612380D01*
X111089047Y-114564761D01*
X111089047Y-114374285D01*
X111112857Y-114326666D01*
X111160476Y-114302857D01*
X111255714Y-114302857D01*
X111303333Y-114326666D01*
X111327142Y-114374285D01*
X111327142Y-114421904D01*
X111089047Y-114469523D01*
X111470000Y-114302857D02*
X111660476Y-114302857D01*
X111541428Y-114636190D02*
X111541428Y-114207619D01*
X111565238Y-114160000D01*
X111612857Y-114136190D01*
X111660476Y-114136190D01*
X112017619Y-114612380D02*
X111970000Y-114636190D01*
X111874761Y-114636190D01*
X111827142Y-114612380D01*
X111803333Y-114564761D01*
X111803333Y-114374285D01*
X111827142Y-114326666D01*
X111874761Y-114302857D01*
X111970000Y-114302857D01*
X112017619Y-114326666D01*
X112041428Y-114374285D01*
X112041428Y-114421904D01*
X111803333Y-114469523D01*
X112255714Y-114636190D02*
X112255714Y-114302857D01*
X112255714Y-114398095D02*
X112279523Y-114350476D01*
X112303333Y-114326666D01*
X112350952Y-114302857D01*
X112398571Y-114302857D01*
X112874761Y-114302857D02*
X113065238Y-114302857D01*
X112946190Y-114136190D02*
X112946190Y-114564761D01*
X112970000Y-114612380D01*
X113017619Y-114636190D01*
X113065238Y-114636190D01*
X113303333Y-114636190D02*
X113255714Y-114612380D01*
X113231904Y-114588571D01*
X113208095Y-114540952D01*
X113208095Y-114398095D01*
X113231904Y-114350476D01*
X113255714Y-114326666D01*
X113303333Y-114302857D01*
X113374761Y-114302857D01*
X113422380Y-114326666D01*
X113446190Y-114350476D01*
X113470000Y-114398095D01*
X113470000Y-114540952D01*
X113446190Y-114588571D01*
X113422380Y-114612380D01*
X113374761Y-114636190D01*
X113303333Y-114636190D01*
X113684285Y-114588571D02*
X113708095Y-114612380D01*
X113684285Y-114636190D01*
X113660476Y-114612380D01*
X113684285Y-114588571D01*
X113684285Y-114636190D01*
X113684285Y-114326666D02*
X113708095Y-114350476D01*
X113684285Y-114374285D01*
X113660476Y-114350476D01*
X113684285Y-114326666D01*
X113684285Y-114374285D01*
X102719999Y-115486190D02*
X102719999Y-114986190D01*
X102934285Y-115486190D02*
X102934285Y-115224285D01*
X102910476Y-115176666D01*
X102862857Y-115152857D01*
X102791428Y-115152857D01*
X102743809Y-115176666D01*
X102719999Y-115200476D01*
X103100952Y-115152857D02*
X103291428Y-115152857D01*
X103172380Y-114986190D02*
X103172380Y-115414761D01*
X103196190Y-115462380D01*
X103243809Y-115486190D01*
X103291428Y-115486190D01*
X103386666Y-115152857D02*
X103577142Y-115152857D01*
X103458095Y-114986190D02*
X103458095Y-115414761D01*
X103481904Y-115462380D01*
X103529523Y-115486190D01*
X103577142Y-115486190D01*
X103743809Y-115152857D02*
X103743809Y-115652857D01*
X103743809Y-115176666D02*
X103791428Y-115152857D01*
X103886666Y-115152857D01*
X103934285Y-115176666D01*
X103958095Y-115200476D01*
X103981904Y-115248095D01*
X103981904Y-115390952D01*
X103958095Y-115438571D01*
X103934285Y-115462380D01*
X103886666Y-115486190D01*
X103791428Y-115486190D01*
X103743809Y-115462380D01*
X104172380Y-115462380D02*
X104219999Y-115486190D01*
X104315238Y-115486190D01*
X104362857Y-115462380D01*
X104386666Y-115414761D01*
X104386666Y-115390952D01*
X104362857Y-115343333D01*
X104315238Y-115319523D01*
X104243809Y-115319523D01*
X104196190Y-115295714D01*
X104172380Y-115248095D01*
X104172380Y-115224285D01*
X104196190Y-115176666D01*
X104243809Y-115152857D01*
X104315238Y-115152857D01*
X104362857Y-115176666D01*
X104600952Y-115438571D02*
X104624761Y-115462380D01*
X104600952Y-115486190D01*
X104577142Y-115462380D01*
X104600952Y-115438571D01*
X104600952Y-115486190D01*
X104600952Y-115176666D02*
X104624761Y-115200476D01*
X104600952Y-115224285D01*
X104577142Y-115200476D01*
X104600952Y-115176666D01*
X104600952Y-115224285D01*
X105196190Y-114962380D02*
X104767619Y-115605238D01*
X105719999Y-114962380D02*
X105291428Y-115605238D01*
X106100952Y-115152857D02*
X106100952Y-115557619D01*
X106077142Y-115605238D01*
X106053333Y-115629047D01*
X106005714Y-115652857D01*
X105934285Y-115652857D01*
X105886666Y-115629047D01*
X106100952Y-115462380D02*
X106053333Y-115486190D01*
X105958095Y-115486190D01*
X105910476Y-115462380D01*
X105886666Y-115438571D01*
X105862857Y-115390952D01*
X105862857Y-115248095D01*
X105886666Y-115200476D01*
X105910476Y-115176666D01*
X105958095Y-115152857D01*
X106053333Y-115152857D01*
X106100952Y-115176666D01*
X106339047Y-115486190D02*
X106339047Y-115152857D01*
X106339047Y-114986190D02*
X106315238Y-115010000D01*
X106339047Y-115033809D01*
X106362857Y-115010000D01*
X106339047Y-114986190D01*
X106339047Y-115033809D01*
X106505714Y-115152857D02*
X106696190Y-115152857D01*
X106577142Y-114986190D02*
X106577142Y-115414761D01*
X106600952Y-115462380D01*
X106648571Y-115486190D01*
X106696190Y-115486190D01*
X106862857Y-115486190D02*
X106862857Y-114986190D01*
X107077142Y-115486190D02*
X107077142Y-115224285D01*
X107053333Y-115176666D01*
X107005714Y-115152857D01*
X106934285Y-115152857D01*
X106886666Y-115176666D01*
X106862857Y-115200476D01*
X107529523Y-115152857D02*
X107529523Y-115486190D01*
X107315238Y-115152857D02*
X107315238Y-115414761D01*
X107339047Y-115462380D01*
X107386666Y-115486190D01*
X107458095Y-115486190D01*
X107505714Y-115462380D01*
X107529523Y-115438571D01*
X107767619Y-115486190D02*
X107767619Y-114986190D01*
X107767619Y-115176666D02*
X107815238Y-115152857D01*
X107910476Y-115152857D01*
X107958095Y-115176666D01*
X107981904Y-115200476D01*
X108005714Y-115248095D01*
X108005714Y-115390952D01*
X107981904Y-115438571D01*
X107958095Y-115462380D01*
X107910476Y-115486190D01*
X107815238Y-115486190D01*
X107767619Y-115462380D01*
X108220000Y-115438571D02*
X108243809Y-115462380D01*
X108220000Y-115486190D01*
X108196190Y-115462380D01*
X108220000Y-115438571D01*
X108220000Y-115486190D01*
X108672380Y-115462380D02*
X108624761Y-115486190D01*
X108529523Y-115486190D01*
X108481904Y-115462380D01*
X108458095Y-115438571D01*
X108434285Y-115390952D01*
X108434285Y-115248095D01*
X108458095Y-115200476D01*
X108481904Y-115176666D01*
X108529523Y-115152857D01*
X108624761Y-115152857D01*
X108672380Y-115176666D01*
X108958095Y-115486190D02*
X108910476Y-115462380D01*
X108886666Y-115438571D01*
X108862857Y-115390952D01*
X108862857Y-115248095D01*
X108886666Y-115200476D01*
X108910476Y-115176666D01*
X108958095Y-115152857D01*
X109029523Y-115152857D01*
X109077142Y-115176666D01*
X109100952Y-115200476D01*
X109124761Y-115248095D01*
X109124761Y-115390952D01*
X109100952Y-115438571D01*
X109077142Y-115462380D01*
X109029523Y-115486190D01*
X108958095Y-115486190D01*
X109339047Y-115486190D02*
X109339047Y-115152857D01*
X109339047Y-115200476D02*
X109362857Y-115176666D01*
X109410476Y-115152857D01*
X109481904Y-115152857D01*
X109529523Y-115176666D01*
X109553333Y-115224285D01*
X109553333Y-115486190D01*
X109553333Y-115224285D02*
X109577142Y-115176666D01*
X109624761Y-115152857D01*
X109696190Y-115152857D01*
X109743809Y-115176666D01*
X109767619Y-115224285D01*
X109767619Y-115486190D01*
X110362857Y-114962380D02*
X109934285Y-115605238D01*
X110529523Y-115152857D02*
X110529523Y-115581428D01*
X110505714Y-115629047D01*
X110458095Y-115652857D01*
X110434285Y-115652857D01*
X110529523Y-114986190D02*
X110505714Y-115010000D01*
X110529523Y-115033809D01*
X110553333Y-115010000D01*
X110529523Y-114986190D01*
X110529523Y-115033809D01*
X110767619Y-115152857D02*
X110767619Y-115652857D01*
X110767619Y-115176666D02*
X110815238Y-115152857D01*
X110910476Y-115152857D01*
X110958095Y-115176666D01*
X110981904Y-115200476D01*
X111005714Y-115248095D01*
X111005714Y-115390952D01*
X110981904Y-115438571D01*
X110958095Y-115462380D01*
X110910476Y-115486190D01*
X110815238Y-115486190D01*
X110767619Y-115462380D01*
X111434285Y-115462380D02*
X111386666Y-115486190D01*
X111291428Y-115486190D01*
X111243809Y-115462380D01*
X111219999Y-115438571D01*
X111196190Y-115390952D01*
X111196190Y-115248095D01*
X111219999Y-115200476D01*
X111243809Y-115176666D01*
X111291428Y-115152857D01*
X111386666Y-115152857D01*
X111434285Y-115176666D01*
X111719999Y-115486190D02*
X111672380Y-115462380D01*
X111648571Y-115438571D01*
X111624761Y-115390952D01*
X111624761Y-115248095D01*
X111648571Y-115200476D01*
X111672380Y-115176666D01*
X111719999Y-115152857D01*
X111791428Y-115152857D01*
X111839047Y-115176666D01*
X111862857Y-115200476D01*
X111886666Y-115248095D01*
X111886666Y-115390952D01*
X111862857Y-115438571D01*
X111839047Y-115462380D01*
X111791428Y-115486190D01*
X111719999Y-115486190D01*
X112100952Y-115152857D02*
X112100952Y-115486190D01*
X112100952Y-115200476D02*
X112124761Y-115176666D01*
X112172380Y-115152857D01*
X112243809Y-115152857D01*
X112291428Y-115176666D01*
X112315238Y-115224285D01*
X112315238Y-115486190D01*
X112529523Y-115462380D02*
X112577142Y-115486190D01*
X112672380Y-115486190D01*
X112719999Y-115462380D01*
X112743809Y-115414761D01*
X112743809Y-115390952D01*
X112719999Y-115343333D01*
X112672380Y-115319523D01*
X112600952Y-115319523D01*
X112553333Y-115295714D01*
X112529523Y-115248095D01*
X112529523Y-115224285D01*
X112553333Y-115176666D01*
X112600952Y-115152857D01*
X112672380Y-115152857D01*
X112719999Y-115176666D01*
X112886666Y-115152857D02*
X113077142Y-115152857D01*
X112958095Y-114986190D02*
X112958095Y-115414761D01*
X112981904Y-115462380D01*
X113029523Y-115486190D01*
X113077142Y-115486190D01*
X113458095Y-115486190D02*
X113458095Y-115224285D01*
X113434285Y-115176666D01*
X113386666Y-115152857D01*
X113291428Y-115152857D01*
X113243809Y-115176666D01*
X113458095Y-115462380D02*
X113410476Y-115486190D01*
X113291428Y-115486190D01*
X113243809Y-115462380D01*
X113219999Y-115414761D01*
X113219999Y-115367142D01*
X113243809Y-115319523D01*
X113291428Y-115295714D01*
X113410476Y-115295714D01*
X113458095Y-115271904D01*
X113696190Y-115152857D02*
X113696190Y-115486190D01*
X113696190Y-115200476D02*
X113719999Y-115176666D01*
X113767619Y-115152857D01*
X113839047Y-115152857D01*
X113886666Y-115176666D01*
X113910476Y-115224285D01*
X113910476Y-115486190D01*
X114077142Y-115152857D02*
X114267619Y-115152857D01*
X114148571Y-114986190D02*
X114148571Y-115414761D01*
X114172380Y-115462380D01*
X114219999Y-115486190D01*
X114267619Y-115486190D01*
X114434285Y-115486190D02*
X114434285Y-115152857D01*
X114434285Y-114986190D02*
X114410476Y-115010000D01*
X114434285Y-115033809D01*
X114458095Y-115010000D01*
X114434285Y-114986190D01*
X114434285Y-115033809D01*
X114672380Y-115152857D02*
X114672380Y-115486190D01*
X114672380Y-115200476D02*
X114696190Y-115176666D01*
X114743809Y-115152857D01*
X114815238Y-115152857D01*
X114862857Y-115176666D01*
X114886666Y-115224285D01*
X114886666Y-115486190D01*
X115315238Y-115462380D02*
X115267619Y-115486190D01*
X115172380Y-115486190D01*
X115124761Y-115462380D01*
X115100952Y-115414761D01*
X115100952Y-115224285D01*
X115124761Y-115176666D01*
X115172380Y-115152857D01*
X115267619Y-115152857D01*
X115315238Y-115176666D01*
X115339047Y-115224285D01*
X115339047Y-115271904D01*
X115100952Y-115319523D01*
X115767619Y-115486190D02*
X115767619Y-115224285D01*
X115743809Y-115176666D01*
X115696190Y-115152857D01*
X115600952Y-115152857D01*
X115553333Y-115176666D01*
X115767619Y-115462380D02*
X115719999Y-115486190D01*
X115600952Y-115486190D01*
X115553333Y-115462380D01*
X115529523Y-115414761D01*
X115529523Y-115367142D01*
X115553333Y-115319523D01*
X115600952Y-115295714D01*
X115719999Y-115295714D01*
X115767619Y-115271904D01*
X116219999Y-115152857D02*
X116219999Y-115486190D01*
X116005714Y-115152857D02*
X116005714Y-115414761D01*
X116029523Y-115462380D01*
X116077142Y-115486190D01*
X116148571Y-115486190D01*
X116196190Y-115462380D01*
X116219999Y-115438571D01*
X106993809Y-115812380D02*
X106565238Y-116455238D01*
X107327142Y-116074285D02*
X107398571Y-116098095D01*
X107422380Y-116121904D01*
X107446190Y-116169523D01*
X107446190Y-116240952D01*
X107422380Y-116288571D01*
X107398571Y-116312380D01*
X107350952Y-116336190D01*
X107160476Y-116336190D01*
X107160476Y-115836190D01*
X107327142Y-115836190D01*
X107374761Y-115860000D01*
X107398571Y-115883809D01*
X107422380Y-115931428D01*
X107422380Y-115979047D01*
X107398571Y-116026666D01*
X107374761Y-116050476D01*
X107327142Y-116074285D01*
X107160476Y-116074285D01*
X107731904Y-116336190D02*
X107684285Y-116312380D01*
X107660476Y-116264761D01*
X107660476Y-115836190D01*
X108136666Y-116002857D02*
X108136666Y-116336190D01*
X107922380Y-116002857D02*
X107922380Y-116264761D01*
X107946190Y-116312380D01*
X107993809Y-116336190D01*
X108065238Y-116336190D01*
X108112857Y-116312380D01*
X108136666Y-116288571D01*
X108565238Y-116312380D02*
X108517619Y-116336190D01*
X108422380Y-116336190D01*
X108374761Y-116312380D01*
X108350952Y-116264761D01*
X108350952Y-116074285D01*
X108374761Y-116026666D01*
X108422380Y-116002857D01*
X108517619Y-116002857D01*
X108565238Y-116026666D01*
X108589047Y-116074285D01*
X108589047Y-116121904D01*
X108350952Y-116169523D01*
X108803333Y-116336190D02*
X108803333Y-115836190D01*
X108970000Y-116193333D01*
X109136666Y-115836190D01*
X109136666Y-116336190D01*
X109374761Y-116336190D02*
X109374761Y-116002857D01*
X109374761Y-115836190D02*
X109350952Y-115860000D01*
X109374761Y-115883809D01*
X109398571Y-115860000D01*
X109374761Y-115836190D01*
X109374761Y-115883809D01*
X109827142Y-116312380D02*
X109779523Y-116336190D01*
X109684285Y-116336190D01*
X109636666Y-116312380D01*
X109612857Y-116288571D01*
X109589047Y-116240952D01*
X109589047Y-116098095D01*
X109612857Y-116050476D01*
X109636666Y-116026666D01*
X109684285Y-116002857D01*
X109779523Y-116002857D01*
X109827142Y-116026666D01*
X110041428Y-116336190D02*
X110041428Y-116002857D01*
X110041428Y-116098095D02*
X110065238Y-116050476D01*
X110089047Y-116026666D01*
X110136666Y-116002857D01*
X110184285Y-116002857D01*
X110422380Y-116336190D02*
X110374761Y-116312380D01*
X110350952Y-116288571D01*
X110327142Y-116240952D01*
X110327142Y-116098095D01*
X110350952Y-116050476D01*
X110374761Y-116026666D01*
X110422380Y-116002857D01*
X110493809Y-116002857D01*
X110541428Y-116026666D01*
X110565238Y-116050476D01*
X110589047Y-116098095D01*
X110589047Y-116240952D01*
X110565238Y-116288571D01*
X110541428Y-116312380D01*
X110493809Y-116336190D01*
X110422380Y-116336190D01*
X110684285Y-116383809D02*
X111065238Y-116383809D01*
X111350952Y-116074285D02*
X111422380Y-116098095D01*
X111446190Y-116121904D01*
X111470000Y-116169523D01*
X111470000Y-116240952D01*
X111446190Y-116288571D01*
X111422380Y-116312380D01*
X111374761Y-116336190D01*
X111184285Y-116336190D01*
X111184285Y-115836190D01*
X111350952Y-115836190D01*
X111398571Y-115860000D01*
X111422380Y-115883809D01*
X111446190Y-115931428D01*
X111446190Y-115979047D01*
X111422380Y-116026666D01*
X111398571Y-116050476D01*
X111350952Y-116074285D01*
X111184285Y-116074285D01*
X111922380Y-116336190D02*
X111684285Y-116336190D01*
X111684285Y-115836190D01*
X112089047Y-116074285D02*
X112255714Y-116074285D01*
X112327142Y-116336190D02*
X112089047Y-116336190D01*
X112089047Y-115836190D01*
X112327142Y-115836190D01*
X105759285Y-104423928D02*
X105509285Y-104423928D01*
X105509285Y-104816785D02*
X105509285Y-104066785D01*
X105866428Y-104066785D01*
X106259285Y-104816785D02*
X106187857Y-104781071D01*
X106152142Y-104745357D01*
X106116428Y-104673928D01*
X106116428Y-104459642D01*
X106152142Y-104388214D01*
X106187857Y-104352500D01*
X106259285Y-104316785D01*
X106366428Y-104316785D01*
X106437857Y-104352500D01*
X106473571Y-104388214D01*
X106509285Y-104459642D01*
X106509285Y-104673928D01*
X106473571Y-104745357D01*
X106437857Y-104781071D01*
X106366428Y-104816785D01*
X106259285Y-104816785D01*
X106830714Y-104816785D02*
X106830714Y-104316785D01*
X106830714Y-104459642D02*
X106866428Y-104388214D01*
X106902142Y-104352500D01*
X106973571Y-104316785D01*
X107045000Y-104316785D01*
X108187857Y-104316785D02*
X108187857Y-104816785D01*
X107866428Y-104316785D02*
X107866428Y-104709642D01*
X107902142Y-104781071D01*
X107973571Y-104816785D01*
X108080714Y-104816785D01*
X108152142Y-104781071D01*
X108187857Y-104745357D01*
X108509285Y-104781071D02*
X108580714Y-104816785D01*
X108723571Y-104816785D01*
X108795000Y-104781071D01*
X108830714Y-104709642D01*
X108830714Y-104673928D01*
X108795000Y-104602500D01*
X108723571Y-104566785D01*
X108616428Y-104566785D01*
X108545000Y-104531071D01*
X108509285Y-104459642D01*
X108509285Y-104423928D01*
X108545000Y-104352500D01*
X108616428Y-104316785D01*
X108723571Y-104316785D01*
X108795000Y-104352500D01*
X109437857Y-104781071D02*
X109366428Y-104816785D01*
X109223571Y-104816785D01*
X109152142Y-104781071D01*
X109116428Y-104709642D01*
X109116428Y-104423928D01*
X109152142Y-104352500D01*
X109223571Y-104316785D01*
X109366428Y-104316785D01*
X109437857Y-104352500D01*
X109473571Y-104423928D01*
X109473571Y-104495357D01*
X109116428Y-104566785D01*
X110295000Y-104316785D02*
X110437857Y-104816785D01*
X110580714Y-104459642D01*
X110723571Y-104816785D01*
X110866428Y-104316785D01*
X111152142Y-104816785D02*
X111152142Y-104316785D01*
X111152142Y-104066785D02*
X111116428Y-104102500D01*
X111152142Y-104138214D01*
X111187857Y-104102500D01*
X111152142Y-104066785D01*
X111152142Y-104138214D01*
X111402142Y-104316785D02*
X111687857Y-104316785D01*
X111509285Y-104066785D02*
X111509285Y-104709642D01*
X111545000Y-104781071D01*
X111616428Y-104816785D01*
X111687857Y-104816785D01*
X111937857Y-104816785D02*
X111937857Y-104066785D01*
X112259285Y-104816785D02*
X112259285Y-104423928D01*
X112223571Y-104352500D01*
X112152142Y-104316785D01*
X112045000Y-104316785D01*
X111973571Y-104352500D01*
X111937857Y-104388214D01*
X104223571Y-106041785D02*
X104223571Y-105291785D01*
X104652142Y-106041785D01*
X104652142Y-105291785D01*
X105437857Y-106041785D02*
X105187857Y-105684642D01*
X105009285Y-106041785D02*
X105009285Y-105291785D01*
X105295000Y-105291785D01*
X105366428Y-105327500D01*
X105402142Y-105363214D01*
X105437857Y-105434642D01*
X105437857Y-105541785D01*
X105402142Y-105613214D01*
X105366428Y-105648928D01*
X105295000Y-105684642D01*
X105009285Y-105684642D01*
X106009285Y-105648928D02*
X105759285Y-105648928D01*
X105759285Y-106041785D02*
X105759285Y-105291785D01*
X106116428Y-105291785D01*
X106759285Y-105291785D02*
X106402142Y-105291785D01*
X106366428Y-105648928D01*
X106402142Y-105613214D01*
X106473571Y-105577500D01*
X106652142Y-105577500D01*
X106723571Y-105613214D01*
X106759285Y-105648928D01*
X106795000Y-105720357D01*
X106795000Y-105898928D01*
X106759285Y-105970357D01*
X106723571Y-106006071D01*
X106652142Y-106041785D01*
X106473571Y-106041785D01*
X106402142Y-106006071D01*
X106366428Y-105970357D01*
X107080714Y-105363214D02*
X107116428Y-105327500D01*
X107187857Y-105291785D01*
X107366428Y-105291785D01*
X107437857Y-105327500D01*
X107473571Y-105363214D01*
X107509285Y-105434642D01*
X107509285Y-105506071D01*
X107473571Y-105613214D01*
X107045000Y-106041785D01*
X107509285Y-106041785D01*
X107937857Y-105613214D02*
X107866428Y-105577500D01*
X107830714Y-105541785D01*
X107795000Y-105470357D01*
X107795000Y-105434642D01*
X107830714Y-105363214D01*
X107866428Y-105327500D01*
X107937857Y-105291785D01*
X108080714Y-105291785D01*
X108152142Y-105327500D01*
X108187857Y-105363214D01*
X108223571Y-105434642D01*
X108223571Y-105470357D01*
X108187857Y-105541785D01*
X108152142Y-105577500D01*
X108080714Y-105613214D01*
X107937857Y-105613214D01*
X107866428Y-105648928D01*
X107830714Y-105684642D01*
X107795000Y-105756071D01*
X107795000Y-105898928D01*
X107830714Y-105970357D01*
X107866428Y-106006071D01*
X107937857Y-106041785D01*
X108080714Y-106041785D01*
X108152142Y-106006071D01*
X108187857Y-105970357D01*
X108223571Y-105898928D01*
X108223571Y-105756071D01*
X108187857Y-105684642D01*
X108152142Y-105648928D01*
X108080714Y-105613214D01*
X108473571Y-105291785D02*
X108937857Y-105291785D01*
X108687857Y-105577500D01*
X108795000Y-105577500D01*
X108866428Y-105613214D01*
X108902142Y-105648928D01*
X108937857Y-105720357D01*
X108937857Y-105898928D01*
X108902142Y-105970357D01*
X108866428Y-106006071D01*
X108795000Y-106041785D01*
X108580714Y-106041785D01*
X108509285Y-106006071D01*
X108473571Y-105970357D01*
X109223571Y-105363214D02*
X109259285Y-105327500D01*
X109330714Y-105291785D01*
X109509285Y-105291785D01*
X109580714Y-105327500D01*
X109616428Y-105363214D01*
X109652142Y-105434642D01*
X109652142Y-105506071D01*
X109616428Y-105613214D01*
X109187857Y-106041785D01*
X109652142Y-106041785D01*
X110545000Y-106041785D02*
X110545000Y-105291785D01*
X110795000Y-105827500D01*
X111045000Y-105291785D01*
X111045000Y-106041785D01*
X111509285Y-106041785D02*
X111437857Y-106006071D01*
X111402142Y-105970357D01*
X111366428Y-105898928D01*
X111366428Y-105684642D01*
X111402142Y-105613214D01*
X111437857Y-105577500D01*
X111509285Y-105541785D01*
X111616428Y-105541785D01*
X111687857Y-105577500D01*
X111723571Y-105613214D01*
X111759285Y-105684642D01*
X111759285Y-105898928D01*
X111723571Y-105970357D01*
X111687857Y-106006071D01*
X111616428Y-106041785D01*
X111509285Y-106041785D01*
X112402142Y-106041785D02*
X112402142Y-105291785D01*
X112402142Y-106006071D02*
X112330714Y-106041785D01*
X112187857Y-106041785D01*
X112116428Y-106006071D01*
X112080714Y-105970357D01*
X112045000Y-105898928D01*
X112045000Y-105684642D01*
X112080714Y-105613214D01*
X112116428Y-105577500D01*
X112187857Y-105541785D01*
X112330714Y-105541785D01*
X112402142Y-105577500D01*
X113080714Y-105541785D02*
X113080714Y-106041785D01*
X112759285Y-105541785D02*
X112759285Y-105934642D01*
X112795000Y-106006071D01*
X112866428Y-106041785D01*
X112973571Y-106041785D01*
X113045000Y-106006071D01*
X113080714Y-105970357D01*
X113545000Y-106041785D02*
X113473571Y-106006071D01*
X113437857Y-105934642D01*
X113437857Y-105291785D01*
X114116428Y-106006071D02*
X114045000Y-106041785D01*
X113902142Y-106041785D01*
X113830714Y-106006071D01*
X113795000Y-105934642D01*
X113795000Y-105648928D01*
X113830714Y-105577500D01*
X113902142Y-105541785D01*
X114045000Y-105541785D01*
X114116428Y-105577500D01*
X114152142Y-105648928D01*
X114152142Y-105720357D01*
X113795000Y-105791785D01*
X99776190Y-132924285D02*
X99276190Y-132924285D01*
X99276190Y-132733809D01*
X99300000Y-132686190D01*
X99323809Y-132662380D01*
X99371428Y-132638571D01*
X99442857Y-132638571D01*
X99490476Y-132662380D01*
X99514285Y-132686190D01*
X99538095Y-132733809D01*
X99538095Y-132924285D01*
X99276190Y-132329047D02*
X99276190Y-132281428D01*
X99300000Y-132233809D01*
X99323809Y-132210000D01*
X99371428Y-132186190D01*
X99466666Y-132162380D01*
X99585714Y-132162380D01*
X99680952Y-132186190D01*
X99728571Y-132210000D01*
X99752380Y-132233809D01*
X99776190Y-132281428D01*
X99776190Y-132329047D01*
X99752380Y-132376666D01*
X99728571Y-132400476D01*
X99680952Y-132424285D01*
X99585714Y-132448095D01*
X99466666Y-132448095D01*
X99371428Y-132424285D01*
X99323809Y-132400476D01*
X99300000Y-132376666D01*
X99276190Y-132329047D01*
X99728571Y-131948095D02*
X99752380Y-131924285D01*
X99776190Y-131948095D01*
X99752380Y-131971904D01*
X99728571Y-131948095D01*
X99776190Y-131948095D01*
X99776190Y-131448095D02*
X99776190Y-131733809D01*
X99776190Y-131590952D02*
X99276190Y-131590952D01*
X99347619Y-131638571D01*
X99395238Y-131686190D01*
X99419047Y-131733809D01*
X99323809Y-131257619D02*
X99300000Y-131233809D01*
X99276190Y-131186190D01*
X99276190Y-131067142D01*
X99300000Y-131019523D01*
X99323809Y-130995714D01*
X99371428Y-130971904D01*
X99419047Y-130971904D01*
X99490476Y-130995714D01*
X99776190Y-131281428D01*
X99776190Y-130971904D01*
X99786190Y-130384285D02*
X99286190Y-130384285D01*
X99286190Y-130193809D01*
X99310000Y-130146190D01*
X99333809Y-130122380D01*
X99381428Y-130098571D01*
X99452857Y-130098571D01*
X99500476Y-130122380D01*
X99524285Y-130146190D01*
X99548095Y-130193809D01*
X99548095Y-130384285D01*
X99286190Y-129789047D02*
X99286190Y-129741428D01*
X99310000Y-129693809D01*
X99333809Y-129670000D01*
X99381428Y-129646190D01*
X99476666Y-129622380D01*
X99595714Y-129622380D01*
X99690952Y-129646190D01*
X99738571Y-129670000D01*
X99762380Y-129693809D01*
X99786190Y-129741428D01*
X99786190Y-129789047D01*
X99762380Y-129836666D01*
X99738571Y-129860476D01*
X99690952Y-129884285D01*
X99595714Y-129908095D01*
X99476666Y-129908095D01*
X99381428Y-129884285D01*
X99333809Y-129860476D01*
X99310000Y-129836666D01*
X99286190Y-129789047D01*
X99738571Y-129408095D02*
X99762380Y-129384285D01*
X99786190Y-129408095D01*
X99762380Y-129431904D01*
X99738571Y-129408095D01*
X99786190Y-129408095D01*
X99786190Y-128908095D02*
X99786190Y-129193809D01*
X99786190Y-129050952D02*
X99286190Y-129050952D01*
X99357619Y-129098571D01*
X99405238Y-129146190D01*
X99429047Y-129193809D01*
X99452857Y-128479523D02*
X99786190Y-128479523D01*
X99262380Y-128598571D02*
X99619523Y-128717619D01*
X99619523Y-128408095D01*
X99846190Y-127784285D02*
X99346190Y-127784285D01*
X99346190Y-127593809D01*
X99370000Y-127546190D01*
X99393809Y-127522380D01*
X99441428Y-127498571D01*
X99512857Y-127498571D01*
X99560476Y-127522380D01*
X99584285Y-127546190D01*
X99608095Y-127593809D01*
X99608095Y-127784285D01*
X99346190Y-127189047D02*
X99346190Y-127141428D01*
X99370000Y-127093809D01*
X99393809Y-127070000D01*
X99441428Y-127046190D01*
X99536666Y-127022380D01*
X99655714Y-127022380D01*
X99750952Y-127046190D01*
X99798571Y-127070000D01*
X99822380Y-127093809D01*
X99846190Y-127141428D01*
X99846190Y-127189047D01*
X99822380Y-127236666D01*
X99798571Y-127260476D01*
X99750952Y-127284285D01*
X99655714Y-127308095D01*
X99536666Y-127308095D01*
X99441428Y-127284285D01*
X99393809Y-127260476D01*
X99370000Y-127236666D01*
X99346190Y-127189047D01*
X99798571Y-126808095D02*
X99822380Y-126784285D01*
X99846190Y-126808095D01*
X99822380Y-126831904D01*
X99798571Y-126808095D01*
X99846190Y-126808095D01*
X99846190Y-126308095D02*
X99846190Y-126593809D01*
X99846190Y-126450952D02*
X99346190Y-126450952D01*
X99417619Y-126498571D01*
X99465238Y-126546190D01*
X99489047Y-126593809D01*
X99346190Y-126141428D02*
X99346190Y-125831904D01*
X99536666Y-125998571D01*
X99536666Y-125927142D01*
X99560476Y-125879523D01*
X99584285Y-125855714D01*
X99631904Y-125831904D01*
X99750952Y-125831904D01*
X99798571Y-125855714D01*
X99822380Y-125879523D01*
X99846190Y-125927142D01*
X99846190Y-126070000D01*
X99822380Y-126117619D01*
X99798571Y-126141428D01*
X119096190Y-140554285D02*
X118596190Y-140554285D01*
X118596190Y-140363809D01*
X118620000Y-140316190D01*
X118643809Y-140292380D01*
X118691428Y-140268571D01*
X118762857Y-140268571D01*
X118810476Y-140292380D01*
X118834285Y-140316190D01*
X118858095Y-140363809D01*
X118858095Y-140554285D01*
X118596190Y-139959047D02*
X118596190Y-139911428D01*
X118620000Y-139863809D01*
X118643809Y-139840000D01*
X118691428Y-139816190D01*
X118786666Y-139792380D01*
X118905714Y-139792380D01*
X119000952Y-139816190D01*
X119048571Y-139840000D01*
X119072380Y-139863809D01*
X119096190Y-139911428D01*
X119096190Y-139959047D01*
X119072380Y-140006666D01*
X119048571Y-140030476D01*
X119000952Y-140054285D01*
X118905714Y-140078095D01*
X118786666Y-140078095D01*
X118691428Y-140054285D01*
X118643809Y-140030476D01*
X118620000Y-140006666D01*
X118596190Y-139959047D01*
X119048571Y-139578095D02*
X119072380Y-139554285D01*
X119096190Y-139578095D01*
X119072380Y-139601904D01*
X119048571Y-139578095D01*
X119096190Y-139578095D01*
X118643809Y-139363809D02*
X118620000Y-139340000D01*
X118596190Y-139292380D01*
X118596190Y-139173333D01*
X118620000Y-139125714D01*
X118643809Y-139101904D01*
X118691428Y-139078095D01*
X118739047Y-139078095D01*
X118810476Y-139101904D01*
X119096190Y-139387619D01*
X119096190Y-139078095D01*
X118596190Y-138649523D02*
X118596190Y-138744761D01*
X118620000Y-138792380D01*
X118643809Y-138816190D01*
X118715238Y-138863809D01*
X118810476Y-138887619D01*
X119000952Y-138887619D01*
X119048571Y-138863809D01*
X119072380Y-138840000D01*
X119096190Y-138792380D01*
X119096190Y-138697142D01*
X119072380Y-138649523D01*
X119048571Y-138625714D01*
X119000952Y-138601904D01*
X118881904Y-138601904D01*
X118834285Y-138625714D01*
X118810476Y-138649523D01*
X118786666Y-138697142D01*
X118786666Y-138792380D01*
X118810476Y-138840000D01*
X118834285Y-138863809D01*
X118881904Y-138887619D01*
X119046190Y-143044285D02*
X118546190Y-143044285D01*
X118546190Y-142853809D01*
X118570000Y-142806190D01*
X118593809Y-142782380D01*
X118641428Y-142758571D01*
X118712857Y-142758571D01*
X118760476Y-142782380D01*
X118784285Y-142806190D01*
X118808095Y-142853809D01*
X118808095Y-143044285D01*
X118546190Y-142449047D02*
X118546190Y-142401428D01*
X118570000Y-142353809D01*
X118593809Y-142330000D01*
X118641428Y-142306190D01*
X118736666Y-142282380D01*
X118855714Y-142282380D01*
X118950952Y-142306190D01*
X118998571Y-142330000D01*
X119022380Y-142353809D01*
X119046190Y-142401428D01*
X119046190Y-142449047D01*
X119022380Y-142496666D01*
X118998571Y-142520476D01*
X118950952Y-142544285D01*
X118855714Y-142568095D01*
X118736666Y-142568095D01*
X118641428Y-142544285D01*
X118593809Y-142520476D01*
X118570000Y-142496666D01*
X118546190Y-142449047D01*
X118998571Y-142068095D02*
X119022380Y-142044285D01*
X119046190Y-142068095D01*
X119022380Y-142091904D01*
X118998571Y-142068095D01*
X119046190Y-142068095D01*
X118593809Y-141853809D02*
X118570000Y-141830000D01*
X118546190Y-141782380D01*
X118546190Y-141663333D01*
X118570000Y-141615714D01*
X118593809Y-141591904D01*
X118641428Y-141568095D01*
X118689047Y-141568095D01*
X118760476Y-141591904D01*
X119046190Y-141877619D01*
X119046190Y-141568095D01*
X118546190Y-141115714D02*
X118546190Y-141353809D01*
X118784285Y-141377619D01*
X118760476Y-141353809D01*
X118736666Y-141306190D01*
X118736666Y-141187142D01*
X118760476Y-141139523D01*
X118784285Y-141115714D01*
X118831904Y-141091904D01*
X118950952Y-141091904D01*
X118998571Y-141115714D01*
X119022380Y-141139523D01*
X119046190Y-141187142D01*
X119046190Y-141306190D01*
X119022380Y-141353809D01*
X118998571Y-141377619D01*
X99806190Y-142944285D02*
X99306190Y-142944285D01*
X99306190Y-142753809D01*
X99330000Y-142706190D01*
X99353809Y-142682380D01*
X99401428Y-142658571D01*
X99472857Y-142658571D01*
X99520476Y-142682380D01*
X99544285Y-142706190D01*
X99568095Y-142753809D01*
X99568095Y-142944285D01*
X99306190Y-142349047D02*
X99306190Y-142301428D01*
X99330000Y-142253809D01*
X99353809Y-142230000D01*
X99401428Y-142206190D01*
X99496666Y-142182380D01*
X99615714Y-142182380D01*
X99710952Y-142206190D01*
X99758571Y-142230000D01*
X99782380Y-142253809D01*
X99806190Y-142301428D01*
X99806190Y-142349047D01*
X99782380Y-142396666D01*
X99758571Y-142420476D01*
X99710952Y-142444285D01*
X99615714Y-142468095D01*
X99496666Y-142468095D01*
X99401428Y-142444285D01*
X99353809Y-142420476D01*
X99330000Y-142396666D01*
X99306190Y-142349047D01*
X99758571Y-141968095D02*
X99782380Y-141944285D01*
X99806190Y-141968095D01*
X99782380Y-141991904D01*
X99758571Y-141968095D01*
X99806190Y-141968095D01*
X99306190Y-141634761D02*
X99306190Y-141587142D01*
X99330000Y-141539523D01*
X99353809Y-141515714D01*
X99401428Y-141491904D01*
X99496666Y-141468095D01*
X99615714Y-141468095D01*
X99710952Y-141491904D01*
X99758571Y-141515714D01*
X99782380Y-141539523D01*
X99806190Y-141587142D01*
X99806190Y-141634761D01*
X99782380Y-141682380D01*
X99758571Y-141706190D01*
X99710952Y-141730000D01*
X99615714Y-141753809D01*
X99496666Y-141753809D01*
X99401428Y-141730000D01*
X99353809Y-141706190D01*
X99330000Y-141682380D01*
X99306190Y-141634761D01*
X99306190Y-141015714D02*
X99306190Y-141253809D01*
X99544285Y-141277619D01*
X99520476Y-141253809D01*
X99496666Y-141206190D01*
X99496666Y-141087142D01*
X99520476Y-141039523D01*
X99544285Y-141015714D01*
X99591904Y-140991904D01*
X99710952Y-140991904D01*
X99758571Y-141015714D01*
X99782380Y-141039523D01*
X99806190Y-141087142D01*
X99806190Y-141206190D01*
X99782380Y-141253809D01*
X99758571Y-141277619D01*
X99846190Y-140374285D02*
X99346190Y-140374285D01*
X99346190Y-140183809D01*
X99370000Y-140136190D01*
X99393809Y-140112380D01*
X99441428Y-140088571D01*
X99512857Y-140088571D01*
X99560476Y-140112380D01*
X99584285Y-140136190D01*
X99608095Y-140183809D01*
X99608095Y-140374285D01*
X99346190Y-139779047D02*
X99346190Y-139731428D01*
X99370000Y-139683809D01*
X99393809Y-139660000D01*
X99441428Y-139636190D01*
X99536666Y-139612380D01*
X99655714Y-139612380D01*
X99750952Y-139636190D01*
X99798571Y-139660000D01*
X99822380Y-139683809D01*
X99846190Y-139731428D01*
X99846190Y-139779047D01*
X99822380Y-139826666D01*
X99798571Y-139850476D01*
X99750952Y-139874285D01*
X99655714Y-139898095D01*
X99536666Y-139898095D01*
X99441428Y-139874285D01*
X99393809Y-139850476D01*
X99370000Y-139826666D01*
X99346190Y-139779047D01*
X99798571Y-139398095D02*
X99822380Y-139374285D01*
X99846190Y-139398095D01*
X99822380Y-139421904D01*
X99798571Y-139398095D01*
X99846190Y-139398095D01*
X99346190Y-139064761D02*
X99346190Y-139017142D01*
X99370000Y-138969523D01*
X99393809Y-138945714D01*
X99441428Y-138921904D01*
X99536666Y-138898095D01*
X99655714Y-138898095D01*
X99750952Y-138921904D01*
X99798571Y-138945714D01*
X99822380Y-138969523D01*
X99846190Y-139017142D01*
X99846190Y-139064761D01*
X99822380Y-139112380D01*
X99798571Y-139136190D01*
X99750952Y-139160000D01*
X99655714Y-139183809D01*
X99536666Y-139183809D01*
X99441428Y-139160000D01*
X99393809Y-139136190D01*
X99370000Y-139112380D01*
X99346190Y-139064761D01*
X99512857Y-138469523D02*
X99846190Y-138469523D01*
X99322380Y-138588571D02*
X99679523Y-138707619D01*
X99679523Y-138398095D01*
X99846190Y-137824285D02*
X99346190Y-137824285D01*
X99346190Y-137633809D01*
X99370000Y-137586190D01*
X99393809Y-137562380D01*
X99441428Y-137538571D01*
X99512857Y-137538571D01*
X99560476Y-137562380D01*
X99584285Y-137586190D01*
X99608095Y-137633809D01*
X99608095Y-137824285D01*
X99346190Y-137229047D02*
X99346190Y-137181428D01*
X99370000Y-137133809D01*
X99393809Y-137110000D01*
X99441428Y-137086190D01*
X99536666Y-137062380D01*
X99655714Y-137062380D01*
X99750952Y-137086190D01*
X99798571Y-137110000D01*
X99822380Y-137133809D01*
X99846190Y-137181428D01*
X99846190Y-137229047D01*
X99822380Y-137276666D01*
X99798571Y-137300476D01*
X99750952Y-137324285D01*
X99655714Y-137348095D01*
X99536666Y-137348095D01*
X99441428Y-137324285D01*
X99393809Y-137300476D01*
X99370000Y-137276666D01*
X99346190Y-137229047D01*
X99798571Y-136848095D02*
X99822380Y-136824285D01*
X99846190Y-136848095D01*
X99822380Y-136871904D01*
X99798571Y-136848095D01*
X99846190Y-136848095D01*
X99346190Y-136514761D02*
X99346190Y-136467142D01*
X99370000Y-136419523D01*
X99393809Y-136395714D01*
X99441428Y-136371904D01*
X99536666Y-136348095D01*
X99655714Y-136348095D01*
X99750952Y-136371904D01*
X99798571Y-136395714D01*
X99822380Y-136419523D01*
X99846190Y-136467142D01*
X99846190Y-136514761D01*
X99822380Y-136562380D01*
X99798571Y-136586190D01*
X99750952Y-136610000D01*
X99655714Y-136633809D01*
X99536666Y-136633809D01*
X99441428Y-136610000D01*
X99393809Y-136586190D01*
X99370000Y-136562380D01*
X99346190Y-136514761D01*
X99346190Y-136181428D02*
X99346190Y-135871904D01*
X99536666Y-136038571D01*
X99536666Y-135967142D01*
X99560476Y-135919523D01*
X99584285Y-135895714D01*
X99631904Y-135871904D01*
X99750952Y-135871904D01*
X99798571Y-135895714D01*
X99822380Y-135919523D01*
X99846190Y-135967142D01*
X99846190Y-136110000D01*
X99822380Y-136157619D01*
X99798571Y-136181428D01*
X99846190Y-135324285D02*
X99346190Y-135324285D01*
X99346190Y-135133809D01*
X99370000Y-135086190D01*
X99393809Y-135062380D01*
X99441428Y-135038571D01*
X99512857Y-135038571D01*
X99560476Y-135062380D01*
X99584285Y-135086190D01*
X99608095Y-135133809D01*
X99608095Y-135324285D01*
X99346190Y-134729047D02*
X99346190Y-134681428D01*
X99370000Y-134633809D01*
X99393809Y-134610000D01*
X99441428Y-134586190D01*
X99536666Y-134562380D01*
X99655714Y-134562380D01*
X99750952Y-134586190D01*
X99798571Y-134610000D01*
X99822380Y-134633809D01*
X99846190Y-134681428D01*
X99846190Y-134729047D01*
X99822380Y-134776666D01*
X99798571Y-134800476D01*
X99750952Y-134824285D01*
X99655714Y-134848095D01*
X99536666Y-134848095D01*
X99441428Y-134824285D01*
X99393809Y-134800476D01*
X99370000Y-134776666D01*
X99346190Y-134729047D01*
X99798571Y-134348095D02*
X99822380Y-134324285D01*
X99846190Y-134348095D01*
X99822380Y-134371904D01*
X99798571Y-134348095D01*
X99846190Y-134348095D01*
X99346190Y-134014761D02*
X99346190Y-133967142D01*
X99370000Y-133919523D01*
X99393809Y-133895714D01*
X99441428Y-133871904D01*
X99536666Y-133848095D01*
X99655714Y-133848095D01*
X99750952Y-133871904D01*
X99798571Y-133895714D01*
X99822380Y-133919523D01*
X99846190Y-133967142D01*
X99846190Y-134014761D01*
X99822380Y-134062380D01*
X99798571Y-134086190D01*
X99750952Y-134110000D01*
X99655714Y-134133809D01*
X99536666Y-134133809D01*
X99441428Y-134110000D01*
X99393809Y-134086190D01*
X99370000Y-134062380D01*
X99346190Y-134014761D01*
X99393809Y-133657619D02*
X99370000Y-133633809D01*
X99346190Y-133586190D01*
X99346190Y-133467142D01*
X99370000Y-133419523D01*
X99393809Y-133395714D01*
X99441428Y-133371904D01*
X99489047Y-133371904D01*
X99560476Y-133395714D01*
X99846190Y-133681428D01*
X99846190Y-133371904D01*
X99866190Y-125214285D02*
X99366190Y-125214285D01*
X99366190Y-125023809D01*
X99390000Y-124976190D01*
X99413809Y-124952380D01*
X99461428Y-124928571D01*
X99532857Y-124928571D01*
X99580476Y-124952380D01*
X99604285Y-124976190D01*
X99628095Y-125023809D01*
X99628095Y-125214285D01*
X99366190Y-124619047D02*
X99366190Y-124571428D01*
X99390000Y-124523809D01*
X99413809Y-124500000D01*
X99461428Y-124476190D01*
X99556666Y-124452380D01*
X99675714Y-124452380D01*
X99770952Y-124476190D01*
X99818571Y-124500000D01*
X99842380Y-124523809D01*
X99866190Y-124571428D01*
X99866190Y-124619047D01*
X99842380Y-124666666D01*
X99818571Y-124690476D01*
X99770952Y-124714285D01*
X99675714Y-124738095D01*
X99556666Y-124738095D01*
X99461428Y-124714285D01*
X99413809Y-124690476D01*
X99390000Y-124666666D01*
X99366190Y-124619047D01*
X99818571Y-124238095D02*
X99842380Y-124214285D01*
X99866190Y-124238095D01*
X99842380Y-124261904D01*
X99818571Y-124238095D01*
X99866190Y-124238095D01*
X99866190Y-123738095D02*
X99866190Y-124023809D01*
X99866190Y-123880952D02*
X99366190Y-123880952D01*
X99437619Y-123928571D01*
X99485238Y-123976190D01*
X99509047Y-124023809D01*
X99866190Y-123261904D02*
X99866190Y-123547619D01*
X99866190Y-123404761D02*
X99366190Y-123404761D01*
X99437619Y-123452380D01*
X99485238Y-123500000D01*
X99509047Y-123547619D01*
X119106190Y-125164285D02*
X118606190Y-125164285D01*
X118606190Y-124973809D01*
X118630000Y-124926190D01*
X118653809Y-124902380D01*
X118701428Y-124878571D01*
X118772857Y-124878571D01*
X118820476Y-124902380D01*
X118844285Y-124926190D01*
X118868095Y-124973809D01*
X118868095Y-125164285D01*
X118606190Y-124569047D02*
X118606190Y-124521428D01*
X118630000Y-124473809D01*
X118653809Y-124450000D01*
X118701428Y-124426190D01*
X118796666Y-124402380D01*
X118915714Y-124402380D01*
X119010952Y-124426190D01*
X119058571Y-124450000D01*
X119082380Y-124473809D01*
X119106190Y-124521428D01*
X119106190Y-124569047D01*
X119082380Y-124616666D01*
X119058571Y-124640476D01*
X119010952Y-124664285D01*
X118915714Y-124688095D01*
X118796666Y-124688095D01*
X118701428Y-124664285D01*
X118653809Y-124640476D01*
X118630000Y-124616666D01*
X118606190Y-124569047D01*
X119058571Y-124188095D02*
X119082380Y-124164285D01*
X119106190Y-124188095D01*
X119082380Y-124211904D01*
X119058571Y-124188095D01*
X119106190Y-124188095D01*
X119106190Y-123688095D02*
X119106190Y-123973809D01*
X119106190Y-123830952D02*
X118606190Y-123830952D01*
X118677619Y-123878571D01*
X118725238Y-123926190D01*
X118749047Y-123973809D01*
X118606190Y-123259523D02*
X118606190Y-123354761D01*
X118630000Y-123402380D01*
X118653809Y-123426190D01*
X118725238Y-123473809D01*
X118820476Y-123497619D01*
X119010952Y-123497619D01*
X119058571Y-123473809D01*
X119082380Y-123450000D01*
X119106190Y-123402380D01*
X119106190Y-123307142D01*
X119082380Y-123259523D01*
X119058571Y-123235714D01*
X119010952Y-123211904D01*
X118891904Y-123211904D01*
X118844285Y-123235714D01*
X118820476Y-123259523D01*
X118796666Y-123307142D01*
X118796666Y-123402380D01*
X118820476Y-123450000D01*
X118844285Y-123473809D01*
X118891904Y-123497619D01*
X119106190Y-127764285D02*
X118606190Y-127764285D01*
X118606190Y-127573809D01*
X118630000Y-127526190D01*
X118653809Y-127502380D01*
X118701428Y-127478571D01*
X118772857Y-127478571D01*
X118820476Y-127502380D01*
X118844285Y-127526190D01*
X118868095Y-127573809D01*
X118868095Y-127764285D01*
X118606190Y-127169047D02*
X118606190Y-127121428D01*
X118630000Y-127073809D01*
X118653809Y-127050000D01*
X118701428Y-127026190D01*
X118796666Y-127002380D01*
X118915714Y-127002380D01*
X119010952Y-127026190D01*
X119058571Y-127050000D01*
X119082380Y-127073809D01*
X119106190Y-127121428D01*
X119106190Y-127169047D01*
X119082380Y-127216666D01*
X119058571Y-127240476D01*
X119010952Y-127264285D01*
X118915714Y-127288095D01*
X118796666Y-127288095D01*
X118701428Y-127264285D01*
X118653809Y-127240476D01*
X118630000Y-127216666D01*
X118606190Y-127169047D01*
X119058571Y-126788095D02*
X119082380Y-126764285D01*
X119106190Y-126788095D01*
X119082380Y-126811904D01*
X119058571Y-126788095D01*
X119106190Y-126788095D01*
X119106190Y-126288095D02*
X119106190Y-126573809D01*
X119106190Y-126430952D02*
X118606190Y-126430952D01*
X118677619Y-126478571D01*
X118725238Y-126526190D01*
X118749047Y-126573809D01*
X118606190Y-125835714D02*
X118606190Y-126073809D01*
X118844285Y-126097619D01*
X118820476Y-126073809D01*
X118796666Y-126026190D01*
X118796666Y-125907142D01*
X118820476Y-125859523D01*
X118844285Y-125835714D01*
X118891904Y-125811904D01*
X119010952Y-125811904D01*
X119058571Y-125835714D01*
X119082380Y-125859523D01*
X119106190Y-125907142D01*
X119106190Y-126026190D01*
X119082380Y-126073809D01*
X119058571Y-126097619D01*
X119116190Y-130324285D02*
X118616190Y-130324285D01*
X118616190Y-130133809D01*
X118640000Y-130086190D01*
X118663809Y-130062380D01*
X118711428Y-130038571D01*
X118782857Y-130038571D01*
X118830476Y-130062380D01*
X118854285Y-130086190D01*
X118878095Y-130133809D01*
X118878095Y-130324285D01*
X118616190Y-129729047D02*
X118616190Y-129681428D01*
X118640000Y-129633809D01*
X118663809Y-129610000D01*
X118711428Y-129586190D01*
X118806666Y-129562380D01*
X118925714Y-129562380D01*
X119020952Y-129586190D01*
X119068571Y-129610000D01*
X119092380Y-129633809D01*
X119116190Y-129681428D01*
X119116190Y-129729047D01*
X119092380Y-129776666D01*
X119068571Y-129800476D01*
X119020952Y-129824285D01*
X118925714Y-129848095D01*
X118806666Y-129848095D01*
X118711428Y-129824285D01*
X118663809Y-129800476D01*
X118640000Y-129776666D01*
X118616190Y-129729047D01*
X119068571Y-129348095D02*
X119092380Y-129324285D01*
X119116190Y-129348095D01*
X119092380Y-129371904D01*
X119068571Y-129348095D01*
X119116190Y-129348095D01*
X118616190Y-129157619D02*
X118616190Y-128848095D01*
X118806666Y-129014761D01*
X118806666Y-128943333D01*
X118830476Y-128895714D01*
X118854285Y-128871904D01*
X118901904Y-128848095D01*
X119020952Y-128848095D01*
X119068571Y-128871904D01*
X119092380Y-128895714D01*
X119116190Y-128943333D01*
X119116190Y-129086190D01*
X119092380Y-129133809D01*
X119068571Y-129157619D01*
X118616190Y-128538571D02*
X118616190Y-128490952D01*
X118640000Y-128443333D01*
X118663809Y-128419523D01*
X118711428Y-128395714D01*
X118806666Y-128371904D01*
X118925714Y-128371904D01*
X119020952Y-128395714D01*
X119068571Y-128419523D01*
X119092380Y-128443333D01*
X119116190Y-128490952D01*
X119116190Y-128538571D01*
X119092380Y-128586190D01*
X119068571Y-128610000D01*
X119020952Y-128633809D01*
X118925714Y-128657619D01*
X118806666Y-128657619D01*
X118711428Y-128633809D01*
X118663809Y-128610000D01*
X118640000Y-128586190D01*
X118616190Y-128538571D01*
X119136190Y-132814285D02*
X118636190Y-132814285D01*
X118636190Y-132623809D01*
X118660000Y-132576190D01*
X118683809Y-132552380D01*
X118731428Y-132528571D01*
X118802857Y-132528571D01*
X118850476Y-132552380D01*
X118874285Y-132576190D01*
X118898095Y-132623809D01*
X118898095Y-132814285D01*
X118636190Y-132219047D02*
X118636190Y-132171428D01*
X118660000Y-132123809D01*
X118683809Y-132100000D01*
X118731428Y-132076190D01*
X118826666Y-132052380D01*
X118945714Y-132052380D01*
X119040952Y-132076190D01*
X119088571Y-132100000D01*
X119112380Y-132123809D01*
X119136190Y-132171428D01*
X119136190Y-132219047D01*
X119112380Y-132266666D01*
X119088571Y-132290476D01*
X119040952Y-132314285D01*
X118945714Y-132338095D01*
X118826666Y-132338095D01*
X118731428Y-132314285D01*
X118683809Y-132290476D01*
X118660000Y-132266666D01*
X118636190Y-132219047D01*
X119088571Y-131838095D02*
X119112380Y-131814285D01*
X119136190Y-131838095D01*
X119112380Y-131861904D01*
X119088571Y-131838095D01*
X119136190Y-131838095D01*
X118683809Y-131623809D02*
X118660000Y-131600000D01*
X118636190Y-131552380D01*
X118636190Y-131433333D01*
X118660000Y-131385714D01*
X118683809Y-131361904D01*
X118731428Y-131338095D01*
X118779047Y-131338095D01*
X118850476Y-131361904D01*
X119136190Y-131647619D01*
X119136190Y-131338095D01*
X119136190Y-131100000D02*
X119136190Y-131004761D01*
X119112380Y-130957142D01*
X119088571Y-130933333D01*
X119017142Y-130885714D01*
X118921904Y-130861904D01*
X118731428Y-130861904D01*
X118683809Y-130885714D01*
X118660000Y-130909523D01*
X118636190Y-130957142D01*
X118636190Y-131052380D01*
X118660000Y-131100000D01*
X118683809Y-131123809D01*
X118731428Y-131147619D01*
X118850476Y-131147619D01*
X118898095Y-131123809D01*
X118921904Y-131100000D01*
X118945714Y-131052380D01*
X118945714Y-130957142D01*
X118921904Y-130909523D01*
X118898095Y-130885714D01*
X118850476Y-130861904D01*
X119076190Y-135404285D02*
X118576190Y-135404285D01*
X118576190Y-135213809D01*
X118600000Y-135166190D01*
X118623809Y-135142380D01*
X118671428Y-135118571D01*
X118742857Y-135118571D01*
X118790476Y-135142380D01*
X118814285Y-135166190D01*
X118838095Y-135213809D01*
X118838095Y-135404285D01*
X118576190Y-134809047D02*
X118576190Y-134761428D01*
X118600000Y-134713809D01*
X118623809Y-134690000D01*
X118671428Y-134666190D01*
X118766666Y-134642380D01*
X118885714Y-134642380D01*
X118980952Y-134666190D01*
X119028571Y-134690000D01*
X119052380Y-134713809D01*
X119076190Y-134761428D01*
X119076190Y-134809047D01*
X119052380Y-134856666D01*
X119028571Y-134880476D01*
X118980952Y-134904285D01*
X118885714Y-134928095D01*
X118766666Y-134928095D01*
X118671428Y-134904285D01*
X118623809Y-134880476D01*
X118600000Y-134856666D01*
X118576190Y-134809047D01*
X119028571Y-134428095D02*
X119052380Y-134404285D01*
X119076190Y-134428095D01*
X119052380Y-134451904D01*
X119028571Y-134428095D01*
X119076190Y-134428095D01*
X118623809Y-134213809D02*
X118600000Y-134190000D01*
X118576190Y-134142380D01*
X118576190Y-134023333D01*
X118600000Y-133975714D01*
X118623809Y-133951904D01*
X118671428Y-133928095D01*
X118719047Y-133928095D01*
X118790476Y-133951904D01*
X119076190Y-134237619D01*
X119076190Y-133928095D01*
X118790476Y-133642380D02*
X118766666Y-133690000D01*
X118742857Y-133713809D01*
X118695238Y-133737619D01*
X118671428Y-133737619D01*
X118623809Y-133713809D01*
X118600000Y-133690000D01*
X118576190Y-133642380D01*
X118576190Y-133547142D01*
X118600000Y-133499523D01*
X118623809Y-133475714D01*
X118671428Y-133451904D01*
X118695238Y-133451904D01*
X118742857Y-133475714D01*
X118766666Y-133499523D01*
X118790476Y-133547142D01*
X118790476Y-133642380D01*
X118814285Y-133690000D01*
X118838095Y-133713809D01*
X118885714Y-133737619D01*
X118980952Y-133737619D01*
X119028571Y-133713809D01*
X119052380Y-133690000D01*
X119076190Y-133642380D01*
X119076190Y-133547142D01*
X119052380Y-133499523D01*
X119028571Y-133475714D01*
X118980952Y-133451904D01*
X118885714Y-133451904D01*
X118838095Y-133475714D01*
X118814285Y-133499523D01*
X118790476Y-133547142D01*
X119086190Y-137924285D02*
X118586190Y-137924285D01*
X118586190Y-137733809D01*
X118610000Y-137686190D01*
X118633809Y-137662380D01*
X118681428Y-137638571D01*
X118752857Y-137638571D01*
X118800476Y-137662380D01*
X118824285Y-137686190D01*
X118848095Y-137733809D01*
X118848095Y-137924285D01*
X118586190Y-137329047D02*
X118586190Y-137281428D01*
X118610000Y-137233809D01*
X118633809Y-137210000D01*
X118681428Y-137186190D01*
X118776666Y-137162380D01*
X118895714Y-137162380D01*
X118990952Y-137186190D01*
X119038571Y-137210000D01*
X119062380Y-137233809D01*
X119086190Y-137281428D01*
X119086190Y-137329047D01*
X119062380Y-137376666D01*
X119038571Y-137400476D01*
X118990952Y-137424285D01*
X118895714Y-137448095D01*
X118776666Y-137448095D01*
X118681428Y-137424285D01*
X118633809Y-137400476D01*
X118610000Y-137376666D01*
X118586190Y-137329047D01*
X119038571Y-136948095D02*
X119062380Y-136924285D01*
X119086190Y-136948095D01*
X119062380Y-136971904D01*
X119038571Y-136948095D01*
X119086190Y-136948095D01*
X118633809Y-136733809D02*
X118610000Y-136710000D01*
X118586190Y-136662380D01*
X118586190Y-136543333D01*
X118610000Y-136495714D01*
X118633809Y-136471904D01*
X118681428Y-136448095D01*
X118729047Y-136448095D01*
X118800476Y-136471904D01*
X119086190Y-136757619D01*
X119086190Y-136448095D01*
X118586190Y-136281428D02*
X118586190Y-135948095D01*
X119086190Y-136162380D01*
X119116190Y-150564285D02*
X118616190Y-150564285D01*
X118616190Y-150373809D01*
X118640000Y-150326190D01*
X118663809Y-150302380D01*
X118711428Y-150278571D01*
X118782857Y-150278571D01*
X118830476Y-150302380D01*
X118854285Y-150326190D01*
X118878095Y-150373809D01*
X118878095Y-150564285D01*
X118616190Y-149969047D02*
X118616190Y-149921428D01*
X118640000Y-149873809D01*
X118663809Y-149850000D01*
X118711428Y-149826190D01*
X118806666Y-149802380D01*
X118925714Y-149802380D01*
X119020952Y-149826190D01*
X119068571Y-149850000D01*
X119092380Y-149873809D01*
X119116190Y-149921428D01*
X119116190Y-149969047D01*
X119092380Y-150016666D01*
X119068571Y-150040476D01*
X119020952Y-150064285D01*
X118925714Y-150088095D01*
X118806666Y-150088095D01*
X118711428Y-150064285D01*
X118663809Y-150040476D01*
X118640000Y-150016666D01*
X118616190Y-149969047D01*
X119068571Y-149588095D02*
X119092380Y-149564285D01*
X119116190Y-149588095D01*
X119092380Y-149611904D01*
X119068571Y-149588095D01*
X119116190Y-149588095D01*
X118616190Y-149254761D02*
X118616190Y-149207142D01*
X118640000Y-149159523D01*
X118663809Y-149135714D01*
X118711428Y-149111904D01*
X118806666Y-149088095D01*
X118925714Y-149088095D01*
X119020952Y-149111904D01*
X119068571Y-149135714D01*
X119092380Y-149159523D01*
X119116190Y-149207142D01*
X119116190Y-149254761D01*
X119092380Y-149302380D01*
X119068571Y-149326190D01*
X119020952Y-149350000D01*
X118925714Y-149373809D01*
X118806666Y-149373809D01*
X118711428Y-149350000D01*
X118663809Y-149326190D01*
X118640000Y-149302380D01*
X118616190Y-149254761D01*
X118616190Y-148921428D02*
X118616190Y-148588095D01*
X119116190Y-148802380D01*
X119056190Y-153084285D02*
X118556190Y-153084285D01*
X118556190Y-152893809D01*
X118580000Y-152846190D01*
X118603809Y-152822380D01*
X118651428Y-152798571D01*
X118722857Y-152798571D01*
X118770476Y-152822380D01*
X118794285Y-152846190D01*
X118818095Y-152893809D01*
X118818095Y-153084285D01*
X118556190Y-152489047D02*
X118556190Y-152441428D01*
X118580000Y-152393809D01*
X118603809Y-152370000D01*
X118651428Y-152346190D01*
X118746666Y-152322380D01*
X118865714Y-152322380D01*
X118960952Y-152346190D01*
X119008571Y-152370000D01*
X119032380Y-152393809D01*
X119056190Y-152441428D01*
X119056190Y-152489047D01*
X119032380Y-152536666D01*
X119008571Y-152560476D01*
X118960952Y-152584285D01*
X118865714Y-152608095D01*
X118746666Y-152608095D01*
X118651428Y-152584285D01*
X118603809Y-152560476D01*
X118580000Y-152536666D01*
X118556190Y-152489047D01*
X119008571Y-152108095D02*
X119032380Y-152084285D01*
X119056190Y-152108095D01*
X119032380Y-152131904D01*
X119008571Y-152108095D01*
X119056190Y-152108095D01*
X119056190Y-151608095D02*
X119056190Y-151893809D01*
X119056190Y-151750952D02*
X118556190Y-151750952D01*
X118627619Y-151798571D01*
X118675238Y-151846190D01*
X118699047Y-151893809D01*
X118770476Y-151322380D02*
X118746666Y-151370000D01*
X118722857Y-151393809D01*
X118675238Y-151417619D01*
X118651428Y-151417619D01*
X118603809Y-151393809D01*
X118580000Y-151370000D01*
X118556190Y-151322380D01*
X118556190Y-151227142D01*
X118580000Y-151179523D01*
X118603809Y-151155714D01*
X118651428Y-151131904D01*
X118675238Y-151131904D01*
X118722857Y-151155714D01*
X118746666Y-151179523D01*
X118770476Y-151227142D01*
X118770476Y-151322380D01*
X118794285Y-151370000D01*
X118818095Y-151393809D01*
X118865714Y-151417619D01*
X118960952Y-151417619D01*
X119008571Y-151393809D01*
X119032380Y-151370000D01*
X119056190Y-151322380D01*
X119056190Y-151227142D01*
X119032380Y-151179523D01*
X119008571Y-151155714D01*
X118960952Y-151131904D01*
X118865714Y-151131904D01*
X118818095Y-151155714D01*
X118794285Y-151179523D01*
X118770476Y-151227142D01*
X107251571Y-126879000D02*
X107180142Y-126843285D01*
X107073000Y-126843285D01*
X106965857Y-126879000D01*
X106894428Y-126950428D01*
X106858714Y-127021857D01*
X106823000Y-127164714D01*
X106823000Y-127271857D01*
X106858714Y-127414714D01*
X106894428Y-127486142D01*
X106965857Y-127557571D01*
X107073000Y-127593285D01*
X107144428Y-127593285D01*
X107251571Y-127557571D01*
X107287285Y-127521857D01*
X107287285Y-127271857D01*
X107144428Y-127271857D01*
X107608714Y-127593285D02*
X107608714Y-126843285D01*
X108037285Y-127593285D01*
X108037285Y-126843285D01*
X108394428Y-127593285D02*
X108394428Y-126843285D01*
X108573000Y-126843285D01*
X108680142Y-126879000D01*
X108751571Y-126950428D01*
X108787285Y-127021857D01*
X108823000Y-127164714D01*
X108823000Y-127271857D01*
X108787285Y-127414714D01*
X108751571Y-127486142D01*
X108680142Y-127557571D01*
X108573000Y-127593285D01*
X108394428Y-127593285D01*
X107003571Y-129383285D02*
X107432142Y-129383285D01*
X107217857Y-130133285D02*
X107217857Y-129383285D01*
X107610714Y-129383285D02*
X108110714Y-130133285D01*
X108110714Y-129383285D02*
X107610714Y-130133285D01*
X108396428Y-130133285D02*
X108396428Y-129383285D01*
X108575000Y-129383285D01*
X108682142Y-129419000D01*
X108753571Y-129490428D01*
X108789285Y-129561857D01*
X108825000Y-129704714D01*
X108825000Y-129811857D01*
X108789285Y-129954714D01*
X108753571Y-130026142D01*
X108682142Y-130097571D01*
X108575000Y-130133285D01*
X108396428Y-130133285D01*
X113800000Y-130387285D02*
X113550000Y-130030142D01*
X113371428Y-130387285D02*
X113371428Y-129637285D01*
X113657142Y-129637285D01*
X113728571Y-129673000D01*
X113764285Y-129708714D01*
X113800000Y-129780142D01*
X113800000Y-129887285D01*
X113764285Y-129958714D01*
X113728571Y-129994428D01*
X113657142Y-130030142D01*
X113371428Y-130030142D01*
X114050000Y-129637285D02*
X114550000Y-130387285D01*
X114550000Y-129637285D02*
X114050000Y-130387285D01*
X114835714Y-130387285D02*
X114835714Y-129637285D01*
X115014285Y-129637285D01*
X115121428Y-129673000D01*
X115192857Y-129744428D01*
X115228571Y-129815857D01*
X115264285Y-129958714D01*
X115264285Y-130065857D01*
X115228571Y-130208714D01*
X115192857Y-130280142D01*
X115121428Y-130351571D01*
X115014285Y-130387285D01*
X114835714Y-130387285D01*
X113040000Y-127449285D02*
X113290000Y-128199285D01*
X113540000Y-127449285D01*
X114218571Y-128127857D02*
X114182857Y-128163571D01*
X114075714Y-128199285D01*
X114004285Y-128199285D01*
X113897142Y-128163571D01*
X113825714Y-128092142D01*
X113790000Y-128020714D01*
X113754285Y-127877857D01*
X113754285Y-127770714D01*
X113790000Y-127627857D01*
X113825714Y-127556428D01*
X113897142Y-127485000D01*
X114004285Y-127449285D01*
X114075714Y-127449285D01*
X114182857Y-127485000D01*
X114218571Y-127520714D01*
X114968571Y-128127857D02*
X114932857Y-128163571D01*
X114825714Y-128199285D01*
X114754285Y-128199285D01*
X114647142Y-128163571D01*
X114575714Y-128092142D01*
X114540000Y-128020714D01*
X114504285Y-127877857D01*
X114504285Y-127770714D01*
X114540000Y-127627857D01*
X114575714Y-127556428D01*
X114647142Y-127485000D01*
X114754285Y-127449285D01*
X114825714Y-127449285D01*
X114932857Y-127485000D01*
X114968571Y-127520714D01*
X112972142Y-125773571D02*
X113079285Y-125809285D01*
X113257857Y-125809285D01*
X113329285Y-125773571D01*
X113365000Y-125737857D01*
X113400714Y-125666428D01*
X113400714Y-125595000D01*
X113365000Y-125523571D01*
X113329285Y-125487857D01*
X113257857Y-125452142D01*
X113115000Y-125416428D01*
X113043571Y-125380714D01*
X113007857Y-125345000D01*
X112972142Y-125273571D01*
X112972142Y-125202142D01*
X113007857Y-125130714D01*
X113043571Y-125095000D01*
X113115000Y-125059285D01*
X113293571Y-125059285D01*
X113400714Y-125095000D01*
X113650714Y-125059285D02*
X113829285Y-125809285D01*
X113972142Y-125273571D01*
X114115000Y-125809285D01*
X114293571Y-125059285D01*
X114579285Y-125809285D02*
X114579285Y-125059285D01*
X114757857Y-125059285D01*
X114865000Y-125095000D01*
X114936428Y-125166428D01*
X114972142Y-125237857D01*
X115007857Y-125380714D01*
X115007857Y-125487857D01*
X114972142Y-125630714D01*
X114936428Y-125702142D01*
X114865000Y-125773571D01*
X114757857Y-125809285D01*
X114579285Y-125809285D01*
X115757857Y-125737857D02*
X115722142Y-125773571D01*
X115615000Y-125809285D01*
X115543571Y-125809285D01*
X115436428Y-125773571D01*
X115365000Y-125702142D01*
X115329285Y-125630714D01*
X115293571Y-125487857D01*
X115293571Y-125380714D01*
X115329285Y-125237857D01*
X115365000Y-125166428D01*
X115436428Y-125095000D01*
X115543571Y-125059285D01*
X115615000Y-125059285D01*
X115722142Y-125095000D01*
X115757857Y-125130714D01*
X116079285Y-125809285D02*
X116079285Y-125059285D01*
X116507857Y-125809285D02*
X116186428Y-125380714D01*
X116507857Y-125059285D02*
X116079285Y-125487857D01*
X105344714Y-124890571D02*
X105451857Y-124926285D01*
X105630428Y-124926285D01*
X105701857Y-124890571D01*
X105737571Y-124854857D01*
X105773285Y-124783428D01*
X105773285Y-124712000D01*
X105737571Y-124640571D01*
X105701857Y-124604857D01*
X105630428Y-124569142D01*
X105487571Y-124533428D01*
X105416142Y-124497714D01*
X105380428Y-124462000D01*
X105344714Y-124390571D01*
X105344714Y-124319142D01*
X105380428Y-124247714D01*
X105416142Y-124212000D01*
X105487571Y-124176285D01*
X105666142Y-124176285D01*
X105773285Y-124212000D01*
X106023285Y-124176285D02*
X106201857Y-124926285D01*
X106344714Y-124390571D01*
X106487571Y-124926285D01*
X106666142Y-124176285D01*
X106951857Y-124926285D02*
X106951857Y-124176285D01*
X107130428Y-124176285D01*
X107237571Y-124212000D01*
X107309000Y-124283428D01*
X107344714Y-124354857D01*
X107380428Y-124497714D01*
X107380428Y-124604857D01*
X107344714Y-124747714D01*
X107309000Y-124819142D01*
X107237571Y-124890571D01*
X107130428Y-124926285D01*
X106951857Y-124926285D01*
X107701857Y-124926285D02*
X107701857Y-124176285D01*
X108201857Y-124176285D02*
X108344714Y-124176285D01*
X108416142Y-124212000D01*
X108487571Y-124283428D01*
X108523285Y-124426285D01*
X108523285Y-124676285D01*
X108487571Y-124819142D01*
X108416142Y-124890571D01*
X108344714Y-124926285D01*
X108201857Y-124926285D01*
X108130428Y-124890571D01*
X108059000Y-124819142D01*
X108023285Y-124676285D01*
X108023285Y-124426285D01*
X108059000Y-124283428D01*
X108130428Y-124212000D01*
X108201857Y-124176285D01*
D11*
X104600952Y-99147380D02*
X104600952Y-99861666D01*
X104553333Y-100004523D01*
X104458095Y-100099761D01*
X104315238Y-100147380D01*
X104220000Y-100147380D01*
X105553333Y-100147380D02*
X105077142Y-100147380D01*
X105077142Y-99147380D01*
X106458095Y-100052142D02*
X106410476Y-100099761D01*
X106267619Y-100147380D01*
X106172380Y-100147380D01*
X106029523Y-100099761D01*
X105934285Y-100004523D01*
X105886666Y-99909285D01*
X105839047Y-99718809D01*
X105839047Y-99575952D01*
X105886666Y-99385476D01*
X105934285Y-99290238D01*
X106029523Y-99195000D01*
X106172380Y-99147380D01*
X106267619Y-99147380D01*
X106410476Y-99195000D01*
X106458095Y-99242619D01*
X107172380Y-99147380D02*
X107172380Y-99861666D01*
X107124761Y-100004523D01*
X107029523Y-100099761D01*
X106886666Y-100147380D01*
X106791428Y-100147380D01*
X108124761Y-100147380D02*
X107648571Y-100147380D01*
X107648571Y-99147380D01*
X109029523Y-100052142D02*
X108981904Y-100099761D01*
X108839047Y-100147380D01*
X108743809Y-100147380D01*
X108600952Y-100099761D01*
X108505714Y-100004523D01*
X108458095Y-99909285D01*
X108410476Y-99718809D01*
X108410476Y-99575952D01*
X108458095Y-99385476D01*
X108505714Y-99290238D01*
X108600952Y-99195000D01*
X108743809Y-99147380D01*
X108839047Y-99147380D01*
X108981904Y-99195000D01*
X109029523Y-99242619D01*
X109743809Y-99147380D02*
X109743809Y-99861666D01*
X109696190Y-100004523D01*
X109600952Y-100099761D01*
X109458095Y-100147380D01*
X109362857Y-100147380D01*
X110696190Y-100147380D02*
X110220000Y-100147380D01*
X110220000Y-99147380D01*
X111600952Y-100052142D02*
X111553333Y-100099761D01*
X111410476Y-100147380D01*
X111315238Y-100147380D01*
X111172380Y-100099761D01*
X111077142Y-100004523D01*
X111029523Y-99909285D01*
X110981904Y-99718809D01*
X110981904Y-99575952D01*
X111029523Y-99385476D01*
X111077142Y-99290238D01*
X111172380Y-99195000D01*
X111315238Y-99147380D01*
X111410476Y-99147380D01*
X111553333Y-99195000D01*
X111600952Y-99242619D01*
X112315238Y-99147380D02*
X112315238Y-99861666D01*
X112267619Y-100004523D01*
X112172380Y-100099761D01*
X112029523Y-100147380D01*
X111934285Y-100147380D01*
X113267619Y-100147380D02*
X112791428Y-100147380D01*
X112791428Y-99147380D01*
X114172380Y-100052142D02*
X114124761Y-100099761D01*
X113981904Y-100147380D01*
X113886666Y-100147380D01*
X113743809Y-100099761D01*
X113648571Y-100004523D01*
X113600952Y-99909285D01*
X113553333Y-99718809D01*
X113553333Y-99575952D01*
X113600952Y-99385476D01*
X113648571Y-99290238D01*
X113743809Y-99195000D01*
X113886666Y-99147380D01*
X113981904Y-99147380D01*
X114124761Y-99195000D01*
X114172380Y-99242619D01*
D12*
G04 #@! TO.C,U4*
X104140000Y-143002000D02*
X104902000Y-143002000D01*
X104902000Y-143002000D02*
X104902000Y-144526000D01*
X104902000Y-144526000D02*
X104140000Y-144526000D01*
X115316000Y-141478000D02*
X115316000Y-146050000D01*
X115316000Y-146050000D02*
X104140000Y-146050000D01*
X104140000Y-146050000D02*
X104140000Y-141478000D01*
X104140000Y-141478000D02*
X115316000Y-141478000D01*
D13*
G04 #@! TO.C,U2*
X102870000Y-150876000D02*
X100330000Y-150876000D01*
X102870000Y-153416000D02*
X102870000Y-150876000D01*
X118110000Y-122936000D02*
X118110000Y-153416000D01*
X100330000Y-122936000D02*
X118110000Y-122936000D01*
X100330000Y-153416000D02*
X100330000Y-122936000D01*
X118110000Y-153416000D02*
X100330000Y-153416000D01*
D14*
G04 #@! TO.C,J1*
X105269200Y-149208980D02*
X105719200Y-149208980D01*
X105269200Y-151058980D02*
X105269200Y-149208980D01*
X113069200Y-153608980D02*
X113069200Y-153358980D01*
X105269200Y-153608980D02*
X105269200Y-153358980D01*
X113069200Y-151058980D02*
X113069200Y-149208980D01*
X113069200Y-149208980D02*
X112619200Y-149208980D01*
X107469200Y-148658980D02*
X107919200Y-148658980D01*
X107469200Y-148658980D02*
X107469200Y-149108980D01*
G04 #@! TO.C,J3*
X105089000Y-145736000D02*
X102429000Y-145736000D01*
X105089000Y-148336000D02*
X105089000Y-145736000D01*
X102429000Y-148336000D02*
X102429000Y-145736000D01*
X105089000Y-148336000D02*
X102429000Y-148336000D01*
X105089000Y-149606000D02*
X105089000Y-150936000D01*
X105089000Y-150936000D02*
X103759000Y-150936000D01*
G04 #@! TO.C,J2*
X113559900Y-123305260D02*
X108359900Y-123305260D01*
X113559900Y-128445260D02*
X113559900Y-123305260D01*
X108359900Y-131045260D02*
X108359900Y-123305260D01*
X113559900Y-128445260D02*
X110959900Y-128445260D01*
X110959900Y-128445260D02*
X110959900Y-131045260D01*
X110959900Y-131045260D02*
X108359900Y-131045260D01*
X113559900Y-129715260D02*
X113559900Y-131045260D01*
X113559900Y-131045260D02*
X112229900Y-131045260D01*
D12*
G04 #@! TO.C,U6*
X110236000Y-138176000D02*
G75*
G03X110236000Y-138176000I-127000J0D01*
G01*
X110744000Y-138811000D02*
X110744000Y-133731000D01*
X107442000Y-138811000D02*
X107442000Y-133731000D01*
X111252000Y-138811000D02*
X111252000Y-133731000D01*
X111252000Y-138811000D02*
X107442000Y-138811000D01*
X111252000Y-133731000D02*
X107442000Y-133731000D01*
G04 #@! TO.C,U4*
X109011815Y-142589000D02*
X109011815Y-143398524D01*
X109059434Y-143493762D01*
X109107053Y-143541381D01*
X109202291Y-143589000D01*
X109392767Y-143589000D01*
X109488005Y-143541381D01*
X109535624Y-143493762D01*
X109583243Y-143398524D01*
X109583243Y-142589000D01*
X110488005Y-142922334D02*
X110488005Y-143589000D01*
X110249910Y-142541381D02*
X110011815Y-143255667D01*
X110630862Y-143255667D01*
D15*
X108120857Y-145301857D02*
X108085142Y-145337571D01*
X107978000Y-145373285D01*
X107906571Y-145373285D01*
X107799428Y-145337571D01*
X107728000Y-145266142D01*
X107692285Y-145194714D01*
X107656571Y-145051857D01*
X107656571Y-144944714D01*
X107692285Y-144801857D01*
X107728000Y-144730428D01*
X107799428Y-144659000D01*
X107906571Y-144623285D01*
X107978000Y-144623285D01*
X108085142Y-144659000D01*
X108120857Y-144694714D01*
X108442285Y-145373285D02*
X108442285Y-144623285D01*
X108442285Y-144980428D02*
X108870857Y-144980428D01*
X108870857Y-145373285D02*
X108870857Y-144623285D01*
X109156571Y-144623285D02*
X109620857Y-144623285D01*
X109370857Y-144909000D01*
X109478000Y-144909000D01*
X109549428Y-144944714D01*
X109585142Y-144980428D01*
X109620857Y-145051857D01*
X109620857Y-145230428D01*
X109585142Y-145301857D01*
X109549428Y-145337571D01*
X109478000Y-145373285D01*
X109263714Y-145373285D01*
X109192285Y-145337571D01*
X109156571Y-145301857D01*
X110263714Y-144873285D02*
X110263714Y-145373285D01*
X110085142Y-144587571D02*
X109906571Y-145123285D01*
X110370857Y-145123285D01*
X110799428Y-144623285D02*
X110870857Y-144623285D01*
X110942285Y-144659000D01*
X110978000Y-144694714D01*
X111013714Y-144766142D01*
X111049428Y-144909000D01*
X111049428Y-145087571D01*
X111013714Y-145230428D01*
X110978000Y-145301857D01*
X110942285Y-145337571D01*
X110870857Y-145373285D01*
X110799428Y-145373285D01*
X110728000Y-145337571D01*
X110692285Y-145301857D01*
X110656571Y-145230428D01*
X110620857Y-145087571D01*
X110620857Y-144909000D01*
X110656571Y-144766142D01*
X110692285Y-144694714D01*
X110728000Y-144659000D01*
X110799428Y-144623285D01*
X111799428Y-145301857D02*
X111763714Y-145337571D01*
X111656571Y-145373285D01*
X111585142Y-145373285D01*
X111478000Y-145337571D01*
X111406571Y-145266142D01*
X111370857Y-145194714D01*
X111335142Y-145051857D01*
X111335142Y-144944714D01*
X111370857Y-144801857D01*
X111406571Y-144730428D01*
X111478000Y-144659000D01*
X111585142Y-144623285D01*
X111656571Y-144623285D01*
X111763714Y-144659000D01*
X111799428Y-144694714D01*
G04 #@! TO.C,U2*
D10*
X99757666Y-152502333D02*
X99424333Y-152735666D01*
X99757666Y-152902333D02*
X99057666Y-152902333D01*
X99057666Y-152635666D01*
X99091000Y-152569000D01*
X99124333Y-152535666D01*
X99191000Y-152502333D01*
X99291000Y-152502333D01*
X99357666Y-152535666D01*
X99391000Y-152569000D01*
X99424333Y-152635666D01*
X99424333Y-152902333D01*
X99557666Y-152235666D02*
X99557666Y-151902333D01*
X99757666Y-152302333D02*
X99057666Y-152069000D01*
X99757666Y-151835666D01*
X99057666Y-151669000D02*
X99757666Y-151502333D01*
X99257666Y-151369000D01*
X99757666Y-151235666D01*
X99057666Y-151069000D01*
X99091000Y-149885333D02*
X99057666Y-149952000D01*
X99057666Y-150052000D01*
X99091000Y-150152000D01*
X99157666Y-150218666D01*
X99224333Y-150252000D01*
X99357666Y-150285333D01*
X99457666Y-150285333D01*
X99591000Y-150252000D01*
X99657666Y-150218666D01*
X99724333Y-150152000D01*
X99757666Y-150052000D01*
X99757666Y-149985333D01*
X99724333Y-149885333D01*
X99691000Y-149852000D01*
X99457666Y-149852000D01*
X99457666Y-149985333D01*
X99757666Y-149552000D02*
X99057666Y-149552000D01*
X99757666Y-149152000D01*
X99057666Y-149152000D01*
X99757666Y-148818666D02*
X99057666Y-148818666D01*
X99057666Y-148652000D01*
X99091000Y-148552000D01*
X99157666Y-148485333D01*
X99224333Y-148452000D01*
X99357666Y-148418666D01*
X99457666Y-148418666D01*
X99591000Y-148452000D01*
X99657666Y-148485333D01*
X99724333Y-148552000D01*
X99757666Y-148652000D01*
X99757666Y-148818666D01*
X99757666Y-147449333D02*
X99424333Y-147682666D01*
X99757666Y-147849333D02*
X99057666Y-147849333D01*
X99057666Y-147582666D01*
X99091000Y-147516000D01*
X99124333Y-147482666D01*
X99191000Y-147449333D01*
X99291000Y-147449333D01*
X99357666Y-147482666D01*
X99391000Y-147516000D01*
X99424333Y-147582666D01*
X99424333Y-147849333D01*
X99724333Y-147182666D02*
X99757666Y-147082666D01*
X99757666Y-146916000D01*
X99724333Y-146849333D01*
X99691000Y-146816000D01*
X99624333Y-146782666D01*
X99557666Y-146782666D01*
X99491000Y-146816000D01*
X99457666Y-146849333D01*
X99424333Y-146916000D01*
X99391000Y-147049333D01*
X99357666Y-147116000D01*
X99324333Y-147149333D01*
X99257666Y-147182666D01*
X99191000Y-147182666D01*
X99124333Y-147149333D01*
X99091000Y-147116000D01*
X99057666Y-147049333D01*
X99057666Y-146882666D01*
X99091000Y-146782666D01*
X99057666Y-146582666D02*
X99057666Y-146182666D01*
X99757666Y-146382666D02*
X99057666Y-146382666D01*
X102698666Y-144142666D02*
X102932000Y-144842666D01*
X103165333Y-144142666D01*
X103798666Y-144776000D02*
X103765333Y-144809333D01*
X103665333Y-144842666D01*
X103598666Y-144842666D01*
X103498666Y-144809333D01*
X103432000Y-144742666D01*
X103398666Y-144676000D01*
X103365333Y-144542666D01*
X103365333Y-144442666D01*
X103398666Y-144309333D01*
X103432000Y-144242666D01*
X103498666Y-144176000D01*
X103598666Y-144142666D01*
X103665333Y-144142666D01*
X103765333Y-144176000D01*
X103798666Y-144209333D01*
X104498666Y-144776000D02*
X104465333Y-144809333D01*
X104365333Y-144842666D01*
X104298666Y-144842666D01*
X104198666Y-144809333D01*
X104132000Y-144742666D01*
X104098666Y-144676000D01*
X104065333Y-144542666D01*
X104065333Y-144442666D01*
X104098666Y-144309333D01*
X104132000Y-144242666D01*
X104198666Y-144176000D01*
X104298666Y-144142666D01*
X104365333Y-144142666D01*
X104465333Y-144176000D01*
X104498666Y-144209333D01*
X102890666Y-141936000D02*
X102657333Y-141936000D01*
X102657333Y-142302666D02*
X102657333Y-141602666D01*
X102990666Y-141602666D01*
X103557333Y-141836000D02*
X103557333Y-142302666D01*
X103390666Y-141569333D02*
X103224000Y-142069333D01*
X103657333Y-142069333D01*
X102890666Y-139396000D02*
X102657333Y-139396000D01*
X102657333Y-139762666D02*
X102657333Y-139062666D01*
X102990666Y-139062666D01*
X103590666Y-139062666D02*
X103257333Y-139062666D01*
X103224000Y-139396000D01*
X103257333Y-139362666D01*
X103324000Y-139329333D01*
X103490666Y-139329333D01*
X103557333Y-139362666D01*
X103590666Y-139396000D01*
X103624000Y-139462666D01*
X103624000Y-139629333D01*
X103590666Y-139696000D01*
X103557333Y-139729333D01*
X103490666Y-139762666D01*
X103324000Y-139762666D01*
X103257333Y-139729333D01*
X103224000Y-139696000D01*
X102890666Y-134316000D02*
X102657333Y-134316000D01*
X102657333Y-134682666D02*
X102657333Y-133982666D01*
X102990666Y-133982666D01*
X103190666Y-133982666D02*
X103657333Y-133982666D01*
X103357333Y-134682666D01*
X102890666Y-136856000D02*
X102657333Y-136856000D01*
X102657333Y-137222666D02*
X102657333Y-136522666D01*
X102990666Y-136522666D01*
X103557333Y-136522666D02*
X103424000Y-136522666D01*
X103357333Y-136556000D01*
X103324000Y-136589333D01*
X103257333Y-136689333D01*
X103224000Y-136822666D01*
X103224000Y-137089333D01*
X103257333Y-137156000D01*
X103290666Y-137189333D01*
X103357333Y-137222666D01*
X103490666Y-137222666D01*
X103557333Y-137189333D01*
X103590666Y-137156000D01*
X103624000Y-137089333D01*
X103624000Y-136922666D01*
X103590666Y-136856000D01*
X103557333Y-136822666D01*
X103490666Y-136789333D01*
X103357333Y-136789333D01*
X103290666Y-136822666D01*
X103257333Y-136856000D01*
X103224000Y-136922666D01*
X102840666Y-131776000D02*
X102940666Y-131809333D01*
X102974000Y-131842666D01*
X103007333Y-131909333D01*
X103007333Y-132009333D01*
X102974000Y-132076000D01*
X102940666Y-132109333D01*
X102874000Y-132142666D01*
X102607333Y-132142666D01*
X102607333Y-131442666D01*
X102840666Y-131442666D01*
X102907333Y-131476000D01*
X102940666Y-131509333D01*
X102974000Y-131576000D01*
X102974000Y-131642666D01*
X102940666Y-131709333D01*
X102907333Y-131742666D01*
X102840666Y-131776000D01*
X102607333Y-131776000D01*
X103674000Y-132142666D02*
X103274000Y-132142666D01*
X103474000Y-132142666D02*
X103474000Y-131442666D01*
X103407333Y-131542666D01*
X103340666Y-131609333D01*
X103274000Y-131642666D01*
X102840666Y-129236000D02*
X102940666Y-129269333D01*
X102974000Y-129302666D01*
X103007333Y-129369333D01*
X103007333Y-129469333D01*
X102974000Y-129536000D01*
X102940666Y-129569333D01*
X102874000Y-129602666D01*
X102607333Y-129602666D01*
X102607333Y-128902666D01*
X102840666Y-128902666D01*
X102907333Y-128936000D01*
X102940666Y-128969333D01*
X102974000Y-129036000D01*
X102974000Y-129102666D01*
X102940666Y-129169333D01*
X102907333Y-129202666D01*
X102840666Y-129236000D01*
X102607333Y-129236000D01*
X103240666Y-128902666D02*
X103674000Y-128902666D01*
X103440666Y-129169333D01*
X103540666Y-129169333D01*
X103607333Y-129202666D01*
X103640666Y-129236000D01*
X103674000Y-129302666D01*
X103674000Y-129469333D01*
X103640666Y-129536000D01*
X103607333Y-129569333D01*
X103540666Y-129602666D01*
X103340666Y-129602666D01*
X103274000Y-129569333D01*
X103240666Y-129536000D01*
X102840666Y-126696000D02*
X102940666Y-126729333D01*
X102974000Y-126762666D01*
X103007333Y-126829333D01*
X103007333Y-126929333D01*
X102974000Y-126996000D01*
X102940666Y-127029333D01*
X102874000Y-127062666D01*
X102607333Y-127062666D01*
X102607333Y-126362666D01*
X102840666Y-126362666D01*
X102907333Y-126396000D01*
X102940666Y-126429333D01*
X102974000Y-126496000D01*
X102974000Y-126562666D01*
X102940666Y-126629333D01*
X102907333Y-126662666D01*
X102840666Y-126696000D01*
X102607333Y-126696000D01*
X103274000Y-126429333D02*
X103307333Y-126396000D01*
X103374000Y-126362666D01*
X103540666Y-126362666D01*
X103607333Y-126396000D01*
X103640666Y-126429333D01*
X103674000Y-126496000D01*
X103674000Y-126562666D01*
X103640666Y-126662666D01*
X103240666Y-127062666D01*
X103674000Y-127062666D01*
X102840666Y-124156000D02*
X102940666Y-124189333D01*
X102974000Y-124222666D01*
X103007333Y-124289333D01*
X103007333Y-124389333D01*
X102974000Y-124456000D01*
X102940666Y-124489333D01*
X102874000Y-124522666D01*
X102607333Y-124522666D01*
X102607333Y-123822666D01*
X102840666Y-123822666D01*
X102907333Y-123856000D01*
X102940666Y-123889333D01*
X102974000Y-123956000D01*
X102974000Y-124022666D01*
X102940666Y-124089333D01*
X102907333Y-124122666D01*
X102840666Y-124156000D01*
X102607333Y-124156000D01*
X103607333Y-123822666D02*
X103474000Y-123822666D01*
X103407333Y-123856000D01*
X103374000Y-123889333D01*
X103307333Y-123989333D01*
X103274000Y-124122666D01*
X103274000Y-124389333D01*
X103307333Y-124456000D01*
X103340666Y-124489333D01*
X103407333Y-124522666D01*
X103540666Y-124522666D01*
X103607333Y-124489333D01*
X103640666Y-124456000D01*
X103674000Y-124389333D01*
X103674000Y-124222666D01*
X103640666Y-124156000D01*
X103607333Y-124122666D01*
X103540666Y-124089333D01*
X103407333Y-124089333D01*
X103340666Y-124122666D01*
X103307333Y-124156000D01*
X103274000Y-124222666D01*
X114799333Y-152462666D02*
X114799333Y-151762666D01*
X114966000Y-151762666D01*
X115066000Y-151796000D01*
X115132666Y-151862666D01*
X115166000Y-151929333D01*
X115199333Y-152062666D01*
X115199333Y-152162666D01*
X115166000Y-152296000D01*
X115132666Y-152362666D01*
X115066000Y-152429333D01*
X114966000Y-152462666D01*
X114799333Y-152462666D01*
X115432666Y-151762666D02*
X115866000Y-151762666D01*
X115632666Y-152029333D01*
X115732666Y-152029333D01*
X115799333Y-152062666D01*
X115832666Y-152096000D01*
X115866000Y-152162666D01*
X115866000Y-152329333D01*
X115832666Y-152396000D01*
X115799333Y-152429333D01*
X115732666Y-152462666D01*
X115532666Y-152462666D01*
X115466000Y-152429333D01*
X115432666Y-152396000D01*
X114799333Y-149922666D02*
X114799333Y-149222666D01*
X114966000Y-149222666D01*
X115066000Y-149256000D01*
X115132666Y-149322666D01*
X115166000Y-149389333D01*
X115199333Y-149522666D01*
X115199333Y-149622666D01*
X115166000Y-149756000D01*
X115132666Y-149822666D01*
X115066000Y-149889333D01*
X114966000Y-149922666D01*
X114799333Y-149922666D01*
X115466000Y-149289333D02*
X115499333Y-149256000D01*
X115566000Y-149222666D01*
X115732666Y-149222666D01*
X115799333Y-149256000D01*
X115832666Y-149289333D01*
X115866000Y-149356000D01*
X115866000Y-149422666D01*
X115832666Y-149522666D01*
X115432666Y-149922666D01*
X115866000Y-149922666D01*
X114274666Y-146716000D02*
X114208000Y-146682666D01*
X114108000Y-146682666D01*
X114008000Y-146716000D01*
X113941333Y-146782666D01*
X113908000Y-146849333D01*
X113874666Y-146982666D01*
X113874666Y-147082666D01*
X113908000Y-147216000D01*
X113941333Y-147282666D01*
X114008000Y-147349333D01*
X114108000Y-147382666D01*
X114174666Y-147382666D01*
X114274666Y-147349333D01*
X114308000Y-147316000D01*
X114308000Y-147082666D01*
X114174666Y-147082666D01*
X114608000Y-147382666D02*
X114608000Y-146682666D01*
X115008000Y-147382666D01*
X115008000Y-146682666D01*
X115341333Y-147382666D02*
X115341333Y-146682666D01*
X115508000Y-146682666D01*
X115608000Y-146716000D01*
X115674666Y-146782666D01*
X115708000Y-146849333D01*
X115741333Y-146982666D01*
X115741333Y-147082666D01*
X115708000Y-147216000D01*
X115674666Y-147282666D01*
X115608000Y-147349333D01*
X115508000Y-147382666D01*
X115341333Y-147382666D01*
X114274666Y-144176000D02*
X114208000Y-144142666D01*
X114108000Y-144142666D01*
X114008000Y-144176000D01*
X113941333Y-144242666D01*
X113908000Y-144309333D01*
X113874666Y-144442666D01*
X113874666Y-144542666D01*
X113908000Y-144676000D01*
X113941333Y-144742666D01*
X114008000Y-144809333D01*
X114108000Y-144842666D01*
X114174666Y-144842666D01*
X114274666Y-144809333D01*
X114308000Y-144776000D01*
X114308000Y-144542666D01*
X114174666Y-144542666D01*
X114608000Y-144842666D02*
X114608000Y-144142666D01*
X115008000Y-144842666D01*
X115008000Y-144142666D01*
X115341333Y-144842666D02*
X115341333Y-144142666D01*
X115508000Y-144142666D01*
X115608000Y-144176000D01*
X115674666Y-144242666D01*
X115708000Y-144309333D01*
X115741333Y-144442666D01*
X115741333Y-144542666D01*
X115708000Y-144676000D01*
X115674666Y-144742666D01*
X115608000Y-144809333D01*
X115508000Y-144842666D01*
X115341333Y-144842666D01*
X114799333Y-142302666D02*
X114799333Y-141602666D01*
X114966000Y-141602666D01*
X115066000Y-141636000D01*
X115132666Y-141702666D01*
X115166000Y-141769333D01*
X115199333Y-141902666D01*
X115199333Y-142002666D01*
X115166000Y-142136000D01*
X115132666Y-142202666D01*
X115066000Y-142269333D01*
X114966000Y-142302666D01*
X114799333Y-142302666D01*
X115866000Y-142302666D02*
X115466000Y-142302666D01*
X115666000Y-142302666D02*
X115666000Y-141602666D01*
X115599333Y-141702666D01*
X115532666Y-141769333D01*
X115466000Y-141802666D01*
X114799333Y-139762666D02*
X114799333Y-139062666D01*
X114966000Y-139062666D01*
X115066000Y-139096000D01*
X115132666Y-139162666D01*
X115166000Y-139229333D01*
X115199333Y-139362666D01*
X115199333Y-139462666D01*
X115166000Y-139596000D01*
X115132666Y-139662666D01*
X115066000Y-139729333D01*
X114966000Y-139762666D01*
X114799333Y-139762666D01*
X115632666Y-139062666D02*
X115699333Y-139062666D01*
X115766000Y-139096000D01*
X115799333Y-139129333D01*
X115832666Y-139196000D01*
X115866000Y-139329333D01*
X115866000Y-139496000D01*
X115832666Y-139629333D01*
X115799333Y-139696000D01*
X115766000Y-139729333D01*
X115699333Y-139762666D01*
X115632666Y-139762666D01*
X115566000Y-139729333D01*
X115532666Y-139696000D01*
X115499333Y-139629333D01*
X115466000Y-139496000D01*
X115466000Y-139329333D01*
X115499333Y-139196000D01*
X115532666Y-139129333D01*
X115566000Y-139096000D01*
X115632666Y-139062666D01*
X114799333Y-137222666D02*
X114799333Y-136522666D01*
X114966000Y-136522666D01*
X115066000Y-136556000D01*
X115132666Y-136622666D01*
X115166000Y-136689333D01*
X115199333Y-136822666D01*
X115199333Y-136922666D01*
X115166000Y-137056000D01*
X115132666Y-137122666D01*
X115066000Y-137189333D01*
X114966000Y-137222666D01*
X114799333Y-137222666D01*
X115799333Y-136756000D02*
X115799333Y-137222666D01*
X115632666Y-136489333D02*
X115466000Y-136989333D01*
X115899333Y-136989333D01*
X115199333Y-134616000D02*
X115166000Y-134649333D01*
X115066000Y-134682666D01*
X114999333Y-134682666D01*
X114899333Y-134649333D01*
X114832666Y-134582666D01*
X114799333Y-134516000D01*
X114766000Y-134382666D01*
X114766000Y-134282666D01*
X114799333Y-134149333D01*
X114832666Y-134082666D01*
X114899333Y-134016000D01*
X114999333Y-133982666D01*
X115066000Y-133982666D01*
X115166000Y-134016000D01*
X115199333Y-134049333D01*
X115799333Y-133982666D02*
X115666000Y-133982666D01*
X115599333Y-134016000D01*
X115566000Y-134049333D01*
X115499333Y-134149333D01*
X115466000Y-134282666D01*
X115466000Y-134549333D01*
X115499333Y-134616000D01*
X115532666Y-134649333D01*
X115599333Y-134682666D01*
X115732666Y-134682666D01*
X115799333Y-134649333D01*
X115832666Y-134616000D01*
X115866000Y-134549333D01*
X115866000Y-134382666D01*
X115832666Y-134316000D01*
X115799333Y-134282666D01*
X115732666Y-134249333D01*
X115599333Y-134249333D01*
X115532666Y-134282666D01*
X115499333Y-134316000D01*
X115466000Y-134382666D01*
X114799333Y-132142666D02*
X114799333Y-131442666D01*
X114966000Y-131442666D01*
X115066000Y-131476000D01*
X115132666Y-131542666D01*
X115166000Y-131609333D01*
X115199333Y-131742666D01*
X115199333Y-131842666D01*
X115166000Y-131976000D01*
X115132666Y-132042666D01*
X115066000Y-132109333D01*
X114966000Y-132142666D01*
X114799333Y-132142666D01*
X115432666Y-131442666D02*
X115899333Y-131442666D01*
X115599333Y-132142666D01*
X114832666Y-129236000D02*
X115066000Y-129236000D01*
X115166000Y-129602666D02*
X114832666Y-129602666D01*
X114832666Y-128902666D01*
X115166000Y-128902666D01*
X115766000Y-128902666D02*
X115632666Y-128902666D01*
X115566000Y-128936000D01*
X115532666Y-128969333D01*
X115466000Y-129069333D01*
X115432666Y-129202666D01*
X115432666Y-129469333D01*
X115466000Y-129536000D01*
X115499333Y-129569333D01*
X115566000Y-129602666D01*
X115699333Y-129602666D01*
X115766000Y-129569333D01*
X115799333Y-129536000D01*
X115832666Y-129469333D01*
X115832666Y-129302666D01*
X115799333Y-129236000D01*
X115766000Y-129202666D01*
X115699333Y-129169333D01*
X115566000Y-129169333D01*
X115499333Y-129202666D01*
X115466000Y-129236000D01*
X115432666Y-129302666D01*
X115032666Y-126696000D02*
X115132666Y-126729333D01*
X115166000Y-126762666D01*
X115199333Y-126829333D01*
X115199333Y-126929333D01*
X115166000Y-126996000D01*
X115132666Y-127029333D01*
X115066000Y-127062666D01*
X114799333Y-127062666D01*
X114799333Y-126362666D01*
X115032666Y-126362666D01*
X115099333Y-126396000D01*
X115132666Y-126429333D01*
X115166000Y-126496000D01*
X115166000Y-126562666D01*
X115132666Y-126629333D01*
X115099333Y-126662666D01*
X115032666Y-126696000D01*
X114799333Y-126696000D01*
X115799333Y-126596000D02*
X115799333Y-127062666D01*
X115632666Y-126329333D02*
X115466000Y-126829333D01*
X115899333Y-126829333D01*
X115032666Y-124156000D02*
X115132666Y-124189333D01*
X115166000Y-124222666D01*
X115199333Y-124289333D01*
X115199333Y-124389333D01*
X115166000Y-124456000D01*
X115132666Y-124489333D01*
X115066000Y-124522666D01*
X114799333Y-124522666D01*
X114799333Y-123822666D01*
X115032666Y-123822666D01*
X115099333Y-123856000D01*
X115132666Y-123889333D01*
X115166000Y-123956000D01*
X115166000Y-124022666D01*
X115132666Y-124089333D01*
X115099333Y-124122666D01*
X115032666Y-124156000D01*
X114799333Y-124156000D01*
X115832666Y-123822666D02*
X115499333Y-123822666D01*
X115466000Y-124156000D01*
X115499333Y-124122666D01*
X115566000Y-124089333D01*
X115732666Y-124089333D01*
X115799333Y-124122666D01*
X115832666Y-124156000D01*
X115866000Y-124222666D01*
X115866000Y-124389333D01*
X115832666Y-124456000D01*
X115799333Y-124489333D01*
X115732666Y-124522666D01*
X115566000Y-124522666D01*
X115499333Y-124489333D01*
X115466000Y-124456000D01*
G04 #@! TO.C,U1*
D12*
X108458095Y-101306380D02*
X108458095Y-102115904D01*
X108505714Y-102211142D01*
X108553333Y-102258761D01*
X108648571Y-102306380D01*
X108839047Y-102306380D01*
X108934285Y-102258761D01*
X108981904Y-102211142D01*
X109029523Y-102115904D01*
X109029523Y-101306380D01*
X110029523Y-102306380D02*
X109458095Y-102306380D01*
X109743809Y-102306380D02*
X109743809Y-101306380D01*
X109648571Y-101449238D01*
X109553333Y-101544476D01*
X109458095Y-101592095D01*
X103981904Y-107108571D02*
X104315238Y-107108571D01*
X104458095Y-107632380D02*
X103981904Y-107632380D01*
X103981904Y-106632380D01*
X104458095Y-106632380D01*
X104791428Y-106632380D02*
X105458095Y-106632380D01*
X105029523Y-107632380D01*
X105743809Y-106632380D02*
X106362857Y-106632380D01*
X106029523Y-107013333D01*
X106172380Y-107013333D01*
X106267619Y-107060952D01*
X106315238Y-107108571D01*
X106362857Y-107203809D01*
X106362857Y-107441904D01*
X106315238Y-107537142D01*
X106267619Y-107584761D01*
X106172380Y-107632380D01*
X105886666Y-107632380D01*
X105791428Y-107584761D01*
X105743809Y-107537142D01*
X106791428Y-107251428D02*
X107553333Y-107251428D01*
X107981904Y-106727619D02*
X108029523Y-106680000D01*
X108124761Y-106632380D01*
X108362857Y-106632380D01*
X108458095Y-106680000D01*
X108505714Y-106727619D01*
X108553333Y-106822857D01*
X108553333Y-106918095D01*
X108505714Y-107060952D01*
X107934285Y-107632380D01*
X108553333Y-107632380D01*
X109505714Y-106680000D02*
X109410476Y-106632380D01*
X109267619Y-106632380D01*
X109124761Y-106680000D01*
X109029523Y-106775238D01*
X108981904Y-106870476D01*
X108934285Y-107060952D01*
X108934285Y-107203809D01*
X108981904Y-107394285D01*
X109029523Y-107489523D01*
X109124761Y-107584761D01*
X109267619Y-107632380D01*
X109362857Y-107632380D01*
X109505714Y-107584761D01*
X109553333Y-107537142D01*
X109553333Y-107203809D01*
X109362857Y-107203809D01*
X110410476Y-106965714D02*
X110410476Y-107632380D01*
X110172380Y-106584761D02*
X109934285Y-107299047D01*
X110553333Y-107299047D01*
X110934285Y-107632380D02*
X110934285Y-106632380D01*
X111267619Y-107346666D01*
X111600952Y-106632380D01*
X111600952Y-107632380D01*
X112267619Y-106632380D02*
X112362857Y-106632380D01*
X112458095Y-106680000D01*
X112505714Y-106727619D01*
X112553333Y-106822857D01*
X112600952Y-107013333D01*
X112600952Y-107251428D01*
X112553333Y-107441904D01*
X112505714Y-107537142D01*
X112458095Y-107584761D01*
X112362857Y-107632380D01*
X112267619Y-107632380D01*
X112172380Y-107584761D01*
X112124761Y-107537142D01*
X112077142Y-107441904D01*
X112029523Y-107251428D01*
X112029523Y-107013333D01*
X112077142Y-106822857D01*
X112124761Y-106727619D01*
X112172380Y-106680000D01*
X112267619Y-106632380D01*
X113458095Y-106965714D02*
X113458095Y-107632380D01*
X113220000Y-106584761D02*
X112981904Y-107299047D01*
X113600952Y-107299047D01*
X113934285Y-107584761D02*
X114077142Y-107632380D01*
X114315238Y-107632380D01*
X114410476Y-107584761D01*
X114458095Y-107537142D01*
X114505714Y-107441904D01*
X114505714Y-107346666D01*
X114458095Y-107251428D01*
X114410476Y-107203809D01*
X114315238Y-107156190D01*
X114124761Y-107108571D01*
X114029523Y-107060952D01*
X113981904Y-107013333D01*
X113934285Y-106918095D01*
X113934285Y-106822857D01*
X113981904Y-106727619D01*
X114029523Y-106680000D01*
X114124761Y-106632380D01*
X114362857Y-106632380D01*
X114505714Y-106680000D01*
G04 #@! TO.C,U6*
D10*
X109703325Y-136857988D02*
X110310468Y-136857988D01*
X110381897Y-136822274D01*
X110417611Y-136786560D01*
X110453325Y-136715131D01*
X110453325Y-136572274D01*
X110417611Y-136500845D01*
X110381897Y-136465131D01*
X110310468Y-136429417D01*
X109703325Y-136429417D01*
X109703325Y-135750845D02*
X109703325Y-135893702D01*
X109739040Y-135965131D01*
X109774754Y-136000845D01*
X109881897Y-136072274D01*
X110024754Y-136107988D01*
X110310468Y-136107988D01*
X110381897Y-136072274D01*
X110417611Y-136036560D01*
X110453325Y-135965131D01*
X110453325Y-135822274D01*
X110417611Y-135750845D01*
X110381897Y-135715131D01*
X110310468Y-135679417D01*
X110131897Y-135679417D01*
X110060468Y-135715131D01*
X110024754Y-135750845D01*
X109989040Y-135822274D01*
X109989040Y-135965131D01*
X110024754Y-136036560D01*
X110060468Y-136072274D01*
X110131897Y-136107988D01*
X108721564Y-138415857D02*
X108721564Y-137987285D01*
X109471564Y-138201571D02*
X108721564Y-138201571D01*
X109471564Y-137737285D02*
X108721564Y-137737285D01*
X108721564Y-137451571D01*
X108757279Y-137380142D01*
X108792993Y-137344428D01*
X108864421Y-137308714D01*
X108971564Y-137308714D01*
X109042993Y-137344428D01*
X109078707Y-137380142D01*
X109114421Y-137451571D01*
X109114421Y-137737285D01*
X108971564Y-136665857D02*
X109471564Y-136665857D01*
X108685850Y-136844428D02*
X109221564Y-137023000D01*
X109221564Y-136558714D01*
X108721564Y-136130142D02*
X108721564Y-136058714D01*
X108757279Y-135987285D01*
X108792993Y-135951571D01*
X108864421Y-135915857D01*
X109007279Y-135880142D01*
X109185850Y-135880142D01*
X109328707Y-135915857D01*
X109400136Y-135951571D01*
X109435850Y-135987285D01*
X109471564Y-136058714D01*
X109471564Y-136130142D01*
X109435850Y-136201571D01*
X109400136Y-136237285D01*
X109328707Y-136273000D01*
X109185850Y-136308714D01*
X109007279Y-136308714D01*
X108864421Y-136273000D01*
X108792993Y-136237285D01*
X108757279Y-136201571D01*
X108721564Y-136130142D01*
X108721564Y-135201571D02*
X108721564Y-135558714D01*
X109078707Y-135594428D01*
X109042993Y-135558714D01*
X109007279Y-135487285D01*
X109007279Y-135308714D01*
X109042993Y-135237285D01*
X109078707Y-135201571D01*
X109150136Y-135165857D01*
X109328707Y-135165857D01*
X109400136Y-135201571D01*
X109435850Y-135237285D01*
X109471564Y-135308714D01*
X109471564Y-135487285D01*
X109435850Y-135558714D01*
X109400136Y-135594428D01*
X108721564Y-134523000D02*
X108721564Y-134665857D01*
X108757279Y-134737285D01*
X108792993Y-134773000D01*
X108900136Y-134844428D01*
X109042993Y-134880142D01*
X109328707Y-134880142D01*
X109400136Y-134844428D01*
X109435850Y-134808714D01*
X109471564Y-134737285D01*
X109471564Y-134594428D01*
X109435850Y-134523000D01*
X109400136Y-134487285D01*
X109328707Y-134451571D01*
X109150136Y-134451571D01*
X109078707Y-134487285D01*
X109042993Y-134523000D01*
X109007279Y-134594428D01*
X109007279Y-134737285D01*
X109042993Y-134808714D01*
X109078707Y-134844428D01*
X109150136Y-134880142D01*
G04 #@! TD*
M02*
