G04 #@! TF.GenerationSoftware,KiCad,Pcbnew,(5.0.0)*
G04 #@! TF.CreationDate,2019-11-08T22:07:10-06:00*
G04 #@! TF.ProjectId,EByte_E73,45427974655F4537332E6B696361645F,rev?*
G04 #@! TF.SameCoordinates,Original*
G04 #@! TF.FileFunction,Copper,L2,Bot,Signal*
G04 #@! TF.FilePolarity,Positive*
%FSLAX46Y46*%
G04 Gerber Fmt 4.6, Leading zero omitted, Abs format (unit mm)*
G04 Created by KiCad (PCBNEW (5.0.0)) date 11/08/19 22:07:10*
%MOMM*%
%LPD*%
G01*
G04 APERTURE LIST*
G04 #@! TA.AperFunction,EtchedComponent*
%ADD10C,0.010000*%
G04 #@! TD*
G04 #@! TA.AperFunction,ComponentPad*
%ADD11R,1.752600X1.752600*%
G04 #@! TD*
G04 #@! TA.AperFunction,ComponentPad*
%ADD12C,1.752600*%
G04 #@! TD*
G04 #@! TA.AperFunction,ComponentPad*
%ADD13C,0.400000*%
G04 #@! TD*
G04 #@! TA.AperFunction,ComponentPad*
%ADD14C,1.450000*%
G04 #@! TD*
G04 #@! TA.AperFunction,ComponentPad*
%ADD15O,1.200000X1.900000*%
G04 #@! TD*
G04 #@! TA.AperFunction,SMDPad,CuDef*
%ADD16R,0.900000X0.800000*%
G04 #@! TD*
G04 #@! TA.AperFunction,ComponentPad*
%ADD17R,1.700000X1.700000*%
G04 #@! TD*
G04 #@! TA.AperFunction,ComponentPad*
%ADD18O,1.700000X1.700000*%
G04 #@! TD*
G04 #@! TA.AperFunction,Conductor*
%ADD19C,0.100000*%
G04 #@! TD*
G04 #@! TA.AperFunction,SMDPad,CuDef*
%ADD20C,0.975000*%
G04 #@! TD*
G04 #@! TA.AperFunction,SMDPad,CuDef*
%ADD21R,0.900000X1.200000*%
G04 #@! TD*
G04 #@! TA.AperFunction,SMDPad,CuDef*
%ADD22R,0.650000X1.060000*%
G04 #@! TD*
G04 #@! TA.AperFunction,ViaPad*
%ADD23C,0.600000*%
G04 #@! TD*
G04 #@! TA.AperFunction,Conductor*
%ADD24C,0.250000*%
G04 #@! TD*
G04 #@! TA.AperFunction,Conductor*
%ADD25C,0.200000*%
G04 #@! TD*
G04 #@! TA.AperFunction,Conductor*
%ADD26C,0.500000*%
G04 #@! TD*
G04 #@! TA.AperFunction,Conductor*
%ADD27C,0.254000*%
G04 #@! TD*
G04 APERTURE END LIST*
D10*
G04 #@! TO.C,JP2*
G36*
X114251040Y-104288260D02*
X114296240Y-104544760D01*
X114426540Y-104770360D01*
X114626040Y-104937760D01*
X114870840Y-105026860D01*
X115131240Y-105026860D01*
X115376040Y-104937760D01*
X115575540Y-104770360D01*
X115705840Y-104544760D01*
X115751040Y-104288260D01*
X114251040Y-104288260D01*
X114251040Y-104288260D01*
G37*
X114251040Y-104288260D02*
X114296240Y-104544760D01*
X114426540Y-104770360D01*
X114626040Y-104937760D01*
X114870840Y-105026860D01*
X115131240Y-105026860D01*
X115376040Y-104937760D01*
X115575540Y-104770360D01*
X115705840Y-104544760D01*
X115751040Y-104288260D01*
X114251040Y-104288260D01*
G36*
X115751040Y-104088260D02*
X115705840Y-103831760D01*
X115575540Y-103606160D01*
X115376040Y-103438760D01*
X115131240Y-103349660D01*
X114870840Y-103349660D01*
X114626040Y-103438760D01*
X114426540Y-103606160D01*
X114296240Y-103831760D01*
X114251040Y-104088260D01*
X115751040Y-104088260D01*
X115751040Y-104088260D01*
G37*
X115751040Y-104088260D02*
X115705840Y-103831760D01*
X115575540Y-103606160D01*
X115376040Y-103438760D01*
X115131240Y-103349660D01*
X114870840Y-103349660D01*
X114626040Y-103438760D01*
X114426540Y-103606160D01*
X114296240Y-103831760D01*
X114251040Y-104088260D01*
X115751040Y-104088260D01*
G04 #@! TD*
D11*
G04 #@! TO.P,U2,1*
G04 #@! TO.N,Net-(R7-Pad2)*
X101600000Y-152146000D03*
D12*
G04 #@! TO.P,U2,2*
G04 #@! TO.N,GND*
X101600000Y-149606000D03*
G04 #@! TO.P,U2,3*
G04 #@! TO.N,RESET*
X101600000Y-147066000D03*
G04 #@! TO.P,U2,4*
G04 #@! TO.N,VCC*
X101600000Y-144526000D03*
G04 #@! TO.P,U2,5*
G04 #@! TO.N,/P0.05*
X101600000Y-141986000D03*
G04 #@! TO.P,U2,6*
G04 #@! TO.N,/P0.04*
X101600000Y-139446000D03*
G04 #@! TO.P,U2,7*
G04 #@! TO.N,/P0.03*
X101600000Y-136906000D03*
G04 #@! TO.P,U2,8*
G04 #@! TO.N,/P0.02*
X101600000Y-134366000D03*
G04 #@! TO.P,U2,9*
G04 #@! TO.N,SCK*
X101600000Y-131826000D03*
G04 #@! TO.P,U2,10*
G04 #@! TO.N,MISO*
X101600000Y-129286000D03*
G04 #@! TO.P,U2,11*
G04 #@! TO.N,MOSI*
X101600000Y-126746000D03*
G04 #@! TO.P,U2,12*
G04 #@! TO.N,/P0.11*
X101600000Y-124206000D03*
G04 #@! TO.P,U2,24*
G04 #@! TO.N,/P0.16*
X116840000Y-124206000D03*
G04 #@! TO.P,U2,23*
G04 #@! TO.N,/P0.15*
X116840000Y-126746000D03*
G04 #@! TO.P,U2,22*
G04 #@! TO.N,/P0.30*
X116840000Y-129286000D03*
G04 #@! TO.P,U2,21*
G04 #@! TO.N,/P0.29*
X116840000Y-131826000D03*
G04 #@! TO.P,U2,20*
G04 #@! TO.N,/P0.28*
X116840000Y-134366000D03*
G04 #@! TO.P,U2,19*
G04 #@! TO.N,/P0.27*
X116840000Y-136906000D03*
G04 #@! TO.P,U2,18*
G04 #@! TO.N,SCL*
X116840000Y-139446000D03*
G04 #@! TO.P,U2,17*
G04 #@! TO.N,SDA*
X116840000Y-141986000D03*
G04 #@! TO.P,U2,16*
G04 #@! TO.N,GND*
X116840000Y-144526000D03*
G04 #@! TO.P,U2,15*
X116840000Y-147066000D03*
G04 #@! TO.P,U2,14*
G04 #@! TO.N,/P0.07*
X116840000Y-149606000D03*
G04 #@! TO.P,U2,13*
G04 #@! TO.N,SWO*
X116840000Y-152146000D03*
G04 #@! TD*
D13*
G04 #@! TO.P,JP2,2*
G04 #@! TO.N,GND*
X115001040Y-103738260D03*
G04 #@! TO.P,JP2,1*
G04 #@! TO.N,Net-(JP2-Pad1)*
X115001040Y-104638260D03*
X115001040Y-104638260D03*
G04 #@! TO.P,JP2,2*
G04 #@! TO.N,GND*
X115001040Y-103738260D03*
G04 #@! TD*
D14*
G04 #@! TO.P,J1,6*
G04 #@! TO.N,Net-(J1-Pad6)*
X106669200Y-149508980D03*
X111669200Y-149508980D03*
D15*
X105669200Y-152208980D03*
X112669200Y-152208980D03*
G04 #@! TD*
D16*
G04 #@! TO.P,Q1,1*
G04 #@! TO.N,/VBus*
X105172000Y-132141000D03*
G04 #@! TO.P,Q1,2*
G04 #@! TO.N,Net-(C5-Pad1)*
X105172000Y-130241000D03*
G04 #@! TO.P,Q1,3*
G04 #@! TO.N,/VBatt*
X107172000Y-131191000D03*
G04 #@! TD*
D17*
G04 #@! TO.P,J3,1*
G04 #@! TO.N,/VBatt*
X103759000Y-149606000D03*
D18*
G04 #@! TO.P,J3,2*
G04 #@! TO.N,GND*
X103759000Y-147066000D03*
G04 #@! TD*
D17*
G04 #@! TO.P,J2,1*
G04 #@! TO.N,RXD*
X112229900Y-129715260D03*
D18*
G04 #@! TO.P,J2,2*
G04 #@! TO.N,TXD*
X109689900Y-129715260D03*
G04 #@! TO.P,J2,3*
G04 #@! TO.N,VCC*
X112229900Y-127175260D03*
G04 #@! TO.P,J2,4*
G04 #@! TO.N,GND*
X109689900Y-127175260D03*
G04 #@! TO.P,J2,5*
G04 #@! TO.N,SWDCLK*
X112229900Y-124635260D03*
G04 #@! TO.P,J2,6*
G04 #@! TO.N,SWDIO*
X109689900Y-124635260D03*
G04 #@! TD*
D19*
G04 #@! TO.N,Net-(C1-Pad1)*
G04 #@! TO.C,C1*
G36*
X104127682Y-110266154D02*
X104151343Y-110269664D01*
X104174547Y-110275476D01*
X104197069Y-110283534D01*
X104218693Y-110293762D01*
X104239210Y-110306059D01*
X104258423Y-110320309D01*
X104276147Y-110336373D01*
X104292211Y-110354097D01*
X104306461Y-110373310D01*
X104318758Y-110393827D01*
X104328986Y-110415451D01*
X104337044Y-110437973D01*
X104342856Y-110461177D01*
X104346366Y-110484838D01*
X104347540Y-110508730D01*
X104347540Y-111421230D01*
X104346366Y-111445122D01*
X104342856Y-111468783D01*
X104337044Y-111491987D01*
X104328986Y-111514509D01*
X104318758Y-111536133D01*
X104306461Y-111556650D01*
X104292211Y-111575863D01*
X104276147Y-111593587D01*
X104258423Y-111609651D01*
X104239210Y-111623901D01*
X104218693Y-111636198D01*
X104197069Y-111646426D01*
X104174547Y-111654484D01*
X104151343Y-111660296D01*
X104127682Y-111663806D01*
X104103790Y-111664980D01*
X103616290Y-111664980D01*
X103592398Y-111663806D01*
X103568737Y-111660296D01*
X103545533Y-111654484D01*
X103523011Y-111646426D01*
X103501387Y-111636198D01*
X103480870Y-111623901D01*
X103461657Y-111609651D01*
X103443933Y-111593587D01*
X103427869Y-111575863D01*
X103413619Y-111556650D01*
X103401322Y-111536133D01*
X103391094Y-111514509D01*
X103383036Y-111491987D01*
X103377224Y-111468783D01*
X103373714Y-111445122D01*
X103372540Y-111421230D01*
X103372540Y-110508730D01*
X103373714Y-110484838D01*
X103377224Y-110461177D01*
X103383036Y-110437973D01*
X103391094Y-110415451D01*
X103401322Y-110393827D01*
X103413619Y-110373310D01*
X103427869Y-110354097D01*
X103443933Y-110336373D01*
X103461657Y-110320309D01*
X103480870Y-110306059D01*
X103501387Y-110293762D01*
X103523011Y-110283534D01*
X103545533Y-110275476D01*
X103568737Y-110269664D01*
X103592398Y-110266154D01*
X103616290Y-110264980D01*
X104103790Y-110264980D01*
X104127682Y-110266154D01*
X104127682Y-110266154D01*
G37*
D20*
G04 #@! TD*
G04 #@! TO.P,C1,1*
G04 #@! TO.N,Net-(C1-Pad1)*
X103860040Y-110964980D03*
D19*
G04 #@! TO.N,GND*
G04 #@! TO.C,C1*
G36*
X106002682Y-110266154D02*
X106026343Y-110269664D01*
X106049547Y-110275476D01*
X106072069Y-110283534D01*
X106093693Y-110293762D01*
X106114210Y-110306059D01*
X106133423Y-110320309D01*
X106151147Y-110336373D01*
X106167211Y-110354097D01*
X106181461Y-110373310D01*
X106193758Y-110393827D01*
X106203986Y-110415451D01*
X106212044Y-110437973D01*
X106217856Y-110461177D01*
X106221366Y-110484838D01*
X106222540Y-110508730D01*
X106222540Y-111421230D01*
X106221366Y-111445122D01*
X106217856Y-111468783D01*
X106212044Y-111491987D01*
X106203986Y-111514509D01*
X106193758Y-111536133D01*
X106181461Y-111556650D01*
X106167211Y-111575863D01*
X106151147Y-111593587D01*
X106133423Y-111609651D01*
X106114210Y-111623901D01*
X106093693Y-111636198D01*
X106072069Y-111646426D01*
X106049547Y-111654484D01*
X106026343Y-111660296D01*
X106002682Y-111663806D01*
X105978790Y-111664980D01*
X105491290Y-111664980D01*
X105467398Y-111663806D01*
X105443737Y-111660296D01*
X105420533Y-111654484D01*
X105398011Y-111646426D01*
X105376387Y-111636198D01*
X105355870Y-111623901D01*
X105336657Y-111609651D01*
X105318933Y-111593587D01*
X105302869Y-111575863D01*
X105288619Y-111556650D01*
X105276322Y-111536133D01*
X105266094Y-111514509D01*
X105258036Y-111491987D01*
X105252224Y-111468783D01*
X105248714Y-111445122D01*
X105247540Y-111421230D01*
X105247540Y-110508730D01*
X105248714Y-110484838D01*
X105252224Y-110461177D01*
X105258036Y-110437973D01*
X105266094Y-110415451D01*
X105276322Y-110393827D01*
X105288619Y-110373310D01*
X105302869Y-110354097D01*
X105318933Y-110336373D01*
X105336657Y-110320309D01*
X105355870Y-110306059D01*
X105376387Y-110293762D01*
X105398011Y-110283534D01*
X105420533Y-110275476D01*
X105443737Y-110269664D01*
X105467398Y-110266154D01*
X105491290Y-110264980D01*
X105978790Y-110264980D01*
X106002682Y-110266154D01*
X106002682Y-110266154D01*
G37*
D20*
G04 #@! TD*
G04 #@! TO.P,C1,2*
G04 #@! TO.N,GND*
X105735040Y-110964980D03*
D19*
G04 #@! TO.N,Net-(C2-Pad1)*
G04 #@! TO.C,C2*
G36*
X104074342Y-108231614D02*
X104098003Y-108235124D01*
X104121207Y-108240936D01*
X104143729Y-108248994D01*
X104165353Y-108259222D01*
X104185870Y-108271519D01*
X104205083Y-108285769D01*
X104222807Y-108301833D01*
X104238871Y-108319557D01*
X104253121Y-108338770D01*
X104265418Y-108359287D01*
X104275646Y-108380911D01*
X104283704Y-108403433D01*
X104289516Y-108426637D01*
X104293026Y-108450298D01*
X104294200Y-108474190D01*
X104294200Y-109386690D01*
X104293026Y-109410582D01*
X104289516Y-109434243D01*
X104283704Y-109457447D01*
X104275646Y-109479969D01*
X104265418Y-109501593D01*
X104253121Y-109522110D01*
X104238871Y-109541323D01*
X104222807Y-109559047D01*
X104205083Y-109575111D01*
X104185870Y-109589361D01*
X104165353Y-109601658D01*
X104143729Y-109611886D01*
X104121207Y-109619944D01*
X104098003Y-109625756D01*
X104074342Y-109629266D01*
X104050450Y-109630440D01*
X103562950Y-109630440D01*
X103539058Y-109629266D01*
X103515397Y-109625756D01*
X103492193Y-109619944D01*
X103469671Y-109611886D01*
X103448047Y-109601658D01*
X103427530Y-109589361D01*
X103408317Y-109575111D01*
X103390593Y-109559047D01*
X103374529Y-109541323D01*
X103360279Y-109522110D01*
X103347982Y-109501593D01*
X103337754Y-109479969D01*
X103329696Y-109457447D01*
X103323884Y-109434243D01*
X103320374Y-109410582D01*
X103319200Y-109386690D01*
X103319200Y-108474190D01*
X103320374Y-108450298D01*
X103323884Y-108426637D01*
X103329696Y-108403433D01*
X103337754Y-108380911D01*
X103347982Y-108359287D01*
X103360279Y-108338770D01*
X103374529Y-108319557D01*
X103390593Y-108301833D01*
X103408317Y-108285769D01*
X103427530Y-108271519D01*
X103448047Y-108259222D01*
X103469671Y-108248994D01*
X103492193Y-108240936D01*
X103515397Y-108235124D01*
X103539058Y-108231614D01*
X103562950Y-108230440D01*
X104050450Y-108230440D01*
X104074342Y-108231614D01*
X104074342Y-108231614D01*
G37*
D20*
G04 #@! TD*
G04 #@! TO.P,C2,1*
G04 #@! TO.N,Net-(C2-Pad1)*
X103806700Y-108930440D03*
D19*
G04 #@! TO.N,GND*
G04 #@! TO.C,C2*
G36*
X105949342Y-108231614D02*
X105973003Y-108235124D01*
X105996207Y-108240936D01*
X106018729Y-108248994D01*
X106040353Y-108259222D01*
X106060870Y-108271519D01*
X106080083Y-108285769D01*
X106097807Y-108301833D01*
X106113871Y-108319557D01*
X106128121Y-108338770D01*
X106140418Y-108359287D01*
X106150646Y-108380911D01*
X106158704Y-108403433D01*
X106164516Y-108426637D01*
X106168026Y-108450298D01*
X106169200Y-108474190D01*
X106169200Y-109386690D01*
X106168026Y-109410582D01*
X106164516Y-109434243D01*
X106158704Y-109457447D01*
X106150646Y-109479969D01*
X106140418Y-109501593D01*
X106128121Y-109522110D01*
X106113871Y-109541323D01*
X106097807Y-109559047D01*
X106080083Y-109575111D01*
X106060870Y-109589361D01*
X106040353Y-109601658D01*
X106018729Y-109611886D01*
X105996207Y-109619944D01*
X105973003Y-109625756D01*
X105949342Y-109629266D01*
X105925450Y-109630440D01*
X105437950Y-109630440D01*
X105414058Y-109629266D01*
X105390397Y-109625756D01*
X105367193Y-109619944D01*
X105344671Y-109611886D01*
X105323047Y-109601658D01*
X105302530Y-109589361D01*
X105283317Y-109575111D01*
X105265593Y-109559047D01*
X105249529Y-109541323D01*
X105235279Y-109522110D01*
X105222982Y-109501593D01*
X105212754Y-109479969D01*
X105204696Y-109457447D01*
X105198884Y-109434243D01*
X105195374Y-109410582D01*
X105194200Y-109386690D01*
X105194200Y-108474190D01*
X105195374Y-108450298D01*
X105198884Y-108426637D01*
X105204696Y-108403433D01*
X105212754Y-108380911D01*
X105222982Y-108359287D01*
X105235279Y-108338770D01*
X105249529Y-108319557D01*
X105265593Y-108301833D01*
X105283317Y-108285769D01*
X105302530Y-108271519D01*
X105323047Y-108259222D01*
X105344671Y-108248994D01*
X105367193Y-108240936D01*
X105390397Y-108235124D01*
X105414058Y-108231614D01*
X105437950Y-108230440D01*
X105925450Y-108230440D01*
X105949342Y-108231614D01*
X105949342Y-108231614D01*
G37*
D20*
G04 #@! TD*
G04 #@! TO.P,C2,2*
G04 #@! TO.N,GND*
X105681700Y-108930440D03*
D19*
G04 #@! TO.N,GND*
G04 #@! TO.C,C3*
G36*
X106456562Y-113066354D02*
X106480223Y-113069864D01*
X106503427Y-113075676D01*
X106525949Y-113083734D01*
X106547573Y-113093962D01*
X106568090Y-113106259D01*
X106587303Y-113120509D01*
X106605027Y-113136573D01*
X106621091Y-113154297D01*
X106635341Y-113173510D01*
X106647638Y-113194027D01*
X106657866Y-113215651D01*
X106665924Y-113238173D01*
X106671736Y-113261377D01*
X106675246Y-113285038D01*
X106676420Y-113308930D01*
X106676420Y-113796430D01*
X106675246Y-113820322D01*
X106671736Y-113843983D01*
X106665924Y-113867187D01*
X106657866Y-113889709D01*
X106647638Y-113911333D01*
X106635341Y-113931850D01*
X106621091Y-113951063D01*
X106605027Y-113968787D01*
X106587303Y-113984851D01*
X106568090Y-113999101D01*
X106547573Y-114011398D01*
X106525949Y-114021626D01*
X106503427Y-114029684D01*
X106480223Y-114035496D01*
X106456562Y-114039006D01*
X106432670Y-114040180D01*
X105520170Y-114040180D01*
X105496278Y-114039006D01*
X105472617Y-114035496D01*
X105449413Y-114029684D01*
X105426891Y-114021626D01*
X105405267Y-114011398D01*
X105384750Y-113999101D01*
X105365537Y-113984851D01*
X105347813Y-113968787D01*
X105331749Y-113951063D01*
X105317499Y-113931850D01*
X105305202Y-113911333D01*
X105294974Y-113889709D01*
X105286916Y-113867187D01*
X105281104Y-113843983D01*
X105277594Y-113820322D01*
X105276420Y-113796430D01*
X105276420Y-113308930D01*
X105277594Y-113285038D01*
X105281104Y-113261377D01*
X105286916Y-113238173D01*
X105294974Y-113215651D01*
X105305202Y-113194027D01*
X105317499Y-113173510D01*
X105331749Y-113154297D01*
X105347813Y-113136573D01*
X105365537Y-113120509D01*
X105384750Y-113106259D01*
X105405267Y-113093962D01*
X105426891Y-113083734D01*
X105449413Y-113075676D01*
X105472617Y-113069864D01*
X105496278Y-113066354D01*
X105520170Y-113065180D01*
X106432670Y-113065180D01*
X106456562Y-113066354D01*
X106456562Y-113066354D01*
G37*
D20*
G04 #@! TD*
G04 #@! TO.P,C3,2*
G04 #@! TO.N,GND*
X105976420Y-113552680D03*
D19*
G04 #@! TO.N,VCC*
G04 #@! TO.C,C3*
G36*
X106456562Y-114941354D02*
X106480223Y-114944864D01*
X106503427Y-114950676D01*
X106525949Y-114958734D01*
X106547573Y-114968962D01*
X106568090Y-114981259D01*
X106587303Y-114995509D01*
X106605027Y-115011573D01*
X106621091Y-115029297D01*
X106635341Y-115048510D01*
X106647638Y-115069027D01*
X106657866Y-115090651D01*
X106665924Y-115113173D01*
X106671736Y-115136377D01*
X106675246Y-115160038D01*
X106676420Y-115183930D01*
X106676420Y-115671430D01*
X106675246Y-115695322D01*
X106671736Y-115718983D01*
X106665924Y-115742187D01*
X106657866Y-115764709D01*
X106647638Y-115786333D01*
X106635341Y-115806850D01*
X106621091Y-115826063D01*
X106605027Y-115843787D01*
X106587303Y-115859851D01*
X106568090Y-115874101D01*
X106547573Y-115886398D01*
X106525949Y-115896626D01*
X106503427Y-115904684D01*
X106480223Y-115910496D01*
X106456562Y-115914006D01*
X106432670Y-115915180D01*
X105520170Y-115915180D01*
X105496278Y-115914006D01*
X105472617Y-115910496D01*
X105449413Y-115904684D01*
X105426891Y-115896626D01*
X105405267Y-115886398D01*
X105384750Y-115874101D01*
X105365537Y-115859851D01*
X105347813Y-115843787D01*
X105331749Y-115826063D01*
X105317499Y-115806850D01*
X105305202Y-115786333D01*
X105294974Y-115764709D01*
X105286916Y-115742187D01*
X105281104Y-115718983D01*
X105277594Y-115695322D01*
X105276420Y-115671430D01*
X105276420Y-115183930D01*
X105277594Y-115160038D01*
X105281104Y-115136377D01*
X105286916Y-115113173D01*
X105294974Y-115090651D01*
X105305202Y-115069027D01*
X105317499Y-115048510D01*
X105331749Y-115029297D01*
X105347813Y-115011573D01*
X105365537Y-114995509D01*
X105384750Y-114981259D01*
X105405267Y-114968962D01*
X105426891Y-114958734D01*
X105449413Y-114950676D01*
X105472617Y-114944864D01*
X105496278Y-114941354D01*
X105520170Y-114940180D01*
X106432670Y-114940180D01*
X106456562Y-114941354D01*
X106456562Y-114941354D01*
G37*
D20*
G04 #@! TD*
G04 #@! TO.P,C3,1*
G04 #@! TO.N,VCC*
X105976420Y-115427680D03*
D19*
G04 #@! TO.N,Net-(C4-Pad1)*
G04 #@! TO.C,C4*
G36*
X104008302Y-106171674D02*
X104031963Y-106175184D01*
X104055167Y-106180996D01*
X104077689Y-106189054D01*
X104099313Y-106199282D01*
X104119830Y-106211579D01*
X104139043Y-106225829D01*
X104156767Y-106241893D01*
X104172831Y-106259617D01*
X104187081Y-106278830D01*
X104199378Y-106299347D01*
X104209606Y-106320971D01*
X104217664Y-106343493D01*
X104223476Y-106366697D01*
X104226986Y-106390358D01*
X104228160Y-106414250D01*
X104228160Y-107326750D01*
X104226986Y-107350642D01*
X104223476Y-107374303D01*
X104217664Y-107397507D01*
X104209606Y-107420029D01*
X104199378Y-107441653D01*
X104187081Y-107462170D01*
X104172831Y-107481383D01*
X104156767Y-107499107D01*
X104139043Y-107515171D01*
X104119830Y-107529421D01*
X104099313Y-107541718D01*
X104077689Y-107551946D01*
X104055167Y-107560004D01*
X104031963Y-107565816D01*
X104008302Y-107569326D01*
X103984410Y-107570500D01*
X103496910Y-107570500D01*
X103473018Y-107569326D01*
X103449357Y-107565816D01*
X103426153Y-107560004D01*
X103403631Y-107551946D01*
X103382007Y-107541718D01*
X103361490Y-107529421D01*
X103342277Y-107515171D01*
X103324553Y-107499107D01*
X103308489Y-107481383D01*
X103294239Y-107462170D01*
X103281942Y-107441653D01*
X103271714Y-107420029D01*
X103263656Y-107397507D01*
X103257844Y-107374303D01*
X103254334Y-107350642D01*
X103253160Y-107326750D01*
X103253160Y-106414250D01*
X103254334Y-106390358D01*
X103257844Y-106366697D01*
X103263656Y-106343493D01*
X103271714Y-106320971D01*
X103281942Y-106299347D01*
X103294239Y-106278830D01*
X103308489Y-106259617D01*
X103324553Y-106241893D01*
X103342277Y-106225829D01*
X103361490Y-106211579D01*
X103382007Y-106199282D01*
X103403631Y-106189054D01*
X103426153Y-106180996D01*
X103449357Y-106175184D01*
X103473018Y-106171674D01*
X103496910Y-106170500D01*
X103984410Y-106170500D01*
X104008302Y-106171674D01*
X104008302Y-106171674D01*
G37*
D20*
G04 #@! TD*
G04 #@! TO.P,C4,1*
G04 #@! TO.N,Net-(C4-Pad1)*
X103740660Y-106870500D03*
D19*
G04 #@! TO.N,GND*
G04 #@! TO.C,C4*
G36*
X105883302Y-106171674D02*
X105906963Y-106175184D01*
X105930167Y-106180996D01*
X105952689Y-106189054D01*
X105974313Y-106199282D01*
X105994830Y-106211579D01*
X106014043Y-106225829D01*
X106031767Y-106241893D01*
X106047831Y-106259617D01*
X106062081Y-106278830D01*
X106074378Y-106299347D01*
X106084606Y-106320971D01*
X106092664Y-106343493D01*
X106098476Y-106366697D01*
X106101986Y-106390358D01*
X106103160Y-106414250D01*
X106103160Y-107326750D01*
X106101986Y-107350642D01*
X106098476Y-107374303D01*
X106092664Y-107397507D01*
X106084606Y-107420029D01*
X106074378Y-107441653D01*
X106062081Y-107462170D01*
X106047831Y-107481383D01*
X106031767Y-107499107D01*
X106014043Y-107515171D01*
X105994830Y-107529421D01*
X105974313Y-107541718D01*
X105952689Y-107551946D01*
X105930167Y-107560004D01*
X105906963Y-107565816D01*
X105883302Y-107569326D01*
X105859410Y-107570500D01*
X105371910Y-107570500D01*
X105348018Y-107569326D01*
X105324357Y-107565816D01*
X105301153Y-107560004D01*
X105278631Y-107551946D01*
X105257007Y-107541718D01*
X105236490Y-107529421D01*
X105217277Y-107515171D01*
X105199553Y-107499107D01*
X105183489Y-107481383D01*
X105169239Y-107462170D01*
X105156942Y-107441653D01*
X105146714Y-107420029D01*
X105138656Y-107397507D01*
X105132844Y-107374303D01*
X105129334Y-107350642D01*
X105128160Y-107326750D01*
X105128160Y-106414250D01*
X105129334Y-106390358D01*
X105132844Y-106366697D01*
X105138656Y-106343493D01*
X105146714Y-106320971D01*
X105156942Y-106299347D01*
X105169239Y-106278830D01*
X105183489Y-106259617D01*
X105199553Y-106241893D01*
X105217277Y-106225829D01*
X105236490Y-106211579D01*
X105257007Y-106199282D01*
X105278631Y-106189054D01*
X105301153Y-106180996D01*
X105324357Y-106175184D01*
X105348018Y-106171674D01*
X105371910Y-106170500D01*
X105859410Y-106170500D01*
X105883302Y-106171674D01*
X105883302Y-106171674D01*
G37*
D20*
G04 #@! TD*
G04 #@! TO.P,C4,2*
G04 #@! TO.N,GND*
X105615660Y-106870500D03*
D19*
G04 #@! TO.N,GND*
G04 #@! TO.C,C5*
G36*
X113346142Y-133032174D02*
X113369803Y-133035684D01*
X113393007Y-133041496D01*
X113415529Y-133049554D01*
X113437153Y-133059782D01*
X113457670Y-133072079D01*
X113476883Y-133086329D01*
X113494607Y-133102393D01*
X113510671Y-133120117D01*
X113524921Y-133139330D01*
X113537218Y-133159847D01*
X113547446Y-133181471D01*
X113555504Y-133203993D01*
X113561316Y-133227197D01*
X113564826Y-133250858D01*
X113566000Y-133274750D01*
X113566000Y-134187250D01*
X113564826Y-134211142D01*
X113561316Y-134234803D01*
X113555504Y-134258007D01*
X113547446Y-134280529D01*
X113537218Y-134302153D01*
X113524921Y-134322670D01*
X113510671Y-134341883D01*
X113494607Y-134359607D01*
X113476883Y-134375671D01*
X113457670Y-134389921D01*
X113437153Y-134402218D01*
X113415529Y-134412446D01*
X113393007Y-134420504D01*
X113369803Y-134426316D01*
X113346142Y-134429826D01*
X113322250Y-134431000D01*
X112834750Y-134431000D01*
X112810858Y-134429826D01*
X112787197Y-134426316D01*
X112763993Y-134420504D01*
X112741471Y-134412446D01*
X112719847Y-134402218D01*
X112699330Y-134389921D01*
X112680117Y-134375671D01*
X112662393Y-134359607D01*
X112646329Y-134341883D01*
X112632079Y-134322670D01*
X112619782Y-134302153D01*
X112609554Y-134280529D01*
X112601496Y-134258007D01*
X112595684Y-134234803D01*
X112592174Y-134211142D01*
X112591000Y-134187250D01*
X112591000Y-133274750D01*
X112592174Y-133250858D01*
X112595684Y-133227197D01*
X112601496Y-133203993D01*
X112609554Y-133181471D01*
X112619782Y-133159847D01*
X112632079Y-133139330D01*
X112646329Y-133120117D01*
X112662393Y-133102393D01*
X112680117Y-133086329D01*
X112699330Y-133072079D01*
X112719847Y-133059782D01*
X112741471Y-133049554D01*
X112763993Y-133041496D01*
X112787197Y-133035684D01*
X112810858Y-133032174D01*
X112834750Y-133031000D01*
X113322250Y-133031000D01*
X113346142Y-133032174D01*
X113346142Y-133032174D01*
G37*
D20*
G04 #@! TD*
G04 #@! TO.P,C5,2*
G04 #@! TO.N,GND*
X113078500Y-133731000D03*
D19*
G04 #@! TO.N,Net-(C5-Pad1)*
G04 #@! TO.C,C5*
G36*
X111471142Y-133032174D02*
X111494803Y-133035684D01*
X111518007Y-133041496D01*
X111540529Y-133049554D01*
X111562153Y-133059782D01*
X111582670Y-133072079D01*
X111601883Y-133086329D01*
X111619607Y-133102393D01*
X111635671Y-133120117D01*
X111649921Y-133139330D01*
X111662218Y-133159847D01*
X111672446Y-133181471D01*
X111680504Y-133203993D01*
X111686316Y-133227197D01*
X111689826Y-133250858D01*
X111691000Y-133274750D01*
X111691000Y-134187250D01*
X111689826Y-134211142D01*
X111686316Y-134234803D01*
X111680504Y-134258007D01*
X111672446Y-134280529D01*
X111662218Y-134302153D01*
X111649921Y-134322670D01*
X111635671Y-134341883D01*
X111619607Y-134359607D01*
X111601883Y-134375671D01*
X111582670Y-134389921D01*
X111562153Y-134402218D01*
X111540529Y-134412446D01*
X111518007Y-134420504D01*
X111494803Y-134426316D01*
X111471142Y-134429826D01*
X111447250Y-134431000D01*
X110959750Y-134431000D01*
X110935858Y-134429826D01*
X110912197Y-134426316D01*
X110888993Y-134420504D01*
X110866471Y-134412446D01*
X110844847Y-134402218D01*
X110824330Y-134389921D01*
X110805117Y-134375671D01*
X110787393Y-134359607D01*
X110771329Y-134341883D01*
X110757079Y-134322670D01*
X110744782Y-134302153D01*
X110734554Y-134280529D01*
X110726496Y-134258007D01*
X110720684Y-134234803D01*
X110717174Y-134211142D01*
X110716000Y-134187250D01*
X110716000Y-133274750D01*
X110717174Y-133250858D01*
X110720684Y-133227197D01*
X110726496Y-133203993D01*
X110734554Y-133181471D01*
X110744782Y-133159847D01*
X110757079Y-133139330D01*
X110771329Y-133120117D01*
X110787393Y-133102393D01*
X110805117Y-133086329D01*
X110824330Y-133072079D01*
X110844847Y-133059782D01*
X110866471Y-133049554D01*
X110888993Y-133041496D01*
X110912197Y-133035684D01*
X110935858Y-133032174D01*
X110959750Y-133031000D01*
X111447250Y-133031000D01*
X111471142Y-133032174D01*
X111471142Y-133032174D01*
G37*
D20*
G04 #@! TD*
G04 #@! TO.P,C5,1*
G04 #@! TO.N,Net-(C5-Pad1)*
X111203500Y-133731000D03*
D19*
G04 #@! TO.N,GND*
G04 #@! TO.C,C6*
G36*
X109790142Y-103060174D02*
X109813803Y-103063684D01*
X109837007Y-103069496D01*
X109859529Y-103077554D01*
X109881153Y-103087782D01*
X109901670Y-103100079D01*
X109920883Y-103114329D01*
X109938607Y-103130393D01*
X109954671Y-103148117D01*
X109968921Y-103167330D01*
X109981218Y-103187847D01*
X109991446Y-103209471D01*
X109999504Y-103231993D01*
X110005316Y-103255197D01*
X110008826Y-103278858D01*
X110010000Y-103302750D01*
X110010000Y-104215250D01*
X110008826Y-104239142D01*
X110005316Y-104262803D01*
X109999504Y-104286007D01*
X109991446Y-104308529D01*
X109981218Y-104330153D01*
X109968921Y-104350670D01*
X109954671Y-104369883D01*
X109938607Y-104387607D01*
X109920883Y-104403671D01*
X109901670Y-104417921D01*
X109881153Y-104430218D01*
X109859529Y-104440446D01*
X109837007Y-104448504D01*
X109813803Y-104454316D01*
X109790142Y-104457826D01*
X109766250Y-104459000D01*
X109278750Y-104459000D01*
X109254858Y-104457826D01*
X109231197Y-104454316D01*
X109207993Y-104448504D01*
X109185471Y-104440446D01*
X109163847Y-104430218D01*
X109143330Y-104417921D01*
X109124117Y-104403671D01*
X109106393Y-104387607D01*
X109090329Y-104369883D01*
X109076079Y-104350670D01*
X109063782Y-104330153D01*
X109053554Y-104308529D01*
X109045496Y-104286007D01*
X109039684Y-104262803D01*
X109036174Y-104239142D01*
X109035000Y-104215250D01*
X109035000Y-103302750D01*
X109036174Y-103278858D01*
X109039684Y-103255197D01*
X109045496Y-103231993D01*
X109053554Y-103209471D01*
X109063782Y-103187847D01*
X109076079Y-103167330D01*
X109090329Y-103148117D01*
X109106393Y-103130393D01*
X109124117Y-103114329D01*
X109143330Y-103100079D01*
X109163847Y-103087782D01*
X109185471Y-103077554D01*
X109207993Y-103069496D01*
X109231197Y-103063684D01*
X109254858Y-103060174D01*
X109278750Y-103059000D01*
X109766250Y-103059000D01*
X109790142Y-103060174D01*
X109790142Y-103060174D01*
G37*
D20*
G04 #@! TD*
G04 #@! TO.P,C6,2*
G04 #@! TO.N,GND*
X109522500Y-103759000D03*
D19*
G04 #@! TO.N,/P0.31*
G04 #@! TO.C,C6*
G36*
X107915142Y-103060174D02*
X107938803Y-103063684D01*
X107962007Y-103069496D01*
X107984529Y-103077554D01*
X108006153Y-103087782D01*
X108026670Y-103100079D01*
X108045883Y-103114329D01*
X108063607Y-103130393D01*
X108079671Y-103148117D01*
X108093921Y-103167330D01*
X108106218Y-103187847D01*
X108116446Y-103209471D01*
X108124504Y-103231993D01*
X108130316Y-103255197D01*
X108133826Y-103278858D01*
X108135000Y-103302750D01*
X108135000Y-104215250D01*
X108133826Y-104239142D01*
X108130316Y-104262803D01*
X108124504Y-104286007D01*
X108116446Y-104308529D01*
X108106218Y-104330153D01*
X108093921Y-104350670D01*
X108079671Y-104369883D01*
X108063607Y-104387607D01*
X108045883Y-104403671D01*
X108026670Y-104417921D01*
X108006153Y-104430218D01*
X107984529Y-104440446D01*
X107962007Y-104448504D01*
X107938803Y-104454316D01*
X107915142Y-104457826D01*
X107891250Y-104459000D01*
X107403750Y-104459000D01*
X107379858Y-104457826D01*
X107356197Y-104454316D01*
X107332993Y-104448504D01*
X107310471Y-104440446D01*
X107288847Y-104430218D01*
X107268330Y-104417921D01*
X107249117Y-104403671D01*
X107231393Y-104387607D01*
X107215329Y-104369883D01*
X107201079Y-104350670D01*
X107188782Y-104330153D01*
X107178554Y-104308529D01*
X107170496Y-104286007D01*
X107164684Y-104262803D01*
X107161174Y-104239142D01*
X107160000Y-104215250D01*
X107160000Y-103302750D01*
X107161174Y-103278858D01*
X107164684Y-103255197D01*
X107170496Y-103231993D01*
X107178554Y-103209471D01*
X107188782Y-103187847D01*
X107201079Y-103167330D01*
X107215329Y-103148117D01*
X107231393Y-103130393D01*
X107249117Y-103114329D01*
X107268330Y-103100079D01*
X107288847Y-103087782D01*
X107310471Y-103077554D01*
X107332993Y-103069496D01*
X107356197Y-103063684D01*
X107379858Y-103060174D01*
X107403750Y-103059000D01*
X107891250Y-103059000D01*
X107915142Y-103060174D01*
X107915142Y-103060174D01*
G37*
D20*
G04 #@! TD*
G04 #@! TO.P,C6,1*
G04 #@! TO.N,/P0.31*
X107647500Y-103759000D03*
D19*
G04 #@! TO.N,/VBatt*
G04 #@! TO.C,C7*
G36*
X111471142Y-131254174D02*
X111494803Y-131257684D01*
X111518007Y-131263496D01*
X111540529Y-131271554D01*
X111562153Y-131281782D01*
X111582670Y-131294079D01*
X111601883Y-131308329D01*
X111619607Y-131324393D01*
X111635671Y-131342117D01*
X111649921Y-131361330D01*
X111662218Y-131381847D01*
X111672446Y-131403471D01*
X111680504Y-131425993D01*
X111686316Y-131449197D01*
X111689826Y-131472858D01*
X111691000Y-131496750D01*
X111691000Y-132409250D01*
X111689826Y-132433142D01*
X111686316Y-132456803D01*
X111680504Y-132480007D01*
X111672446Y-132502529D01*
X111662218Y-132524153D01*
X111649921Y-132544670D01*
X111635671Y-132563883D01*
X111619607Y-132581607D01*
X111601883Y-132597671D01*
X111582670Y-132611921D01*
X111562153Y-132624218D01*
X111540529Y-132634446D01*
X111518007Y-132642504D01*
X111494803Y-132648316D01*
X111471142Y-132651826D01*
X111447250Y-132653000D01*
X110959750Y-132653000D01*
X110935858Y-132651826D01*
X110912197Y-132648316D01*
X110888993Y-132642504D01*
X110866471Y-132634446D01*
X110844847Y-132624218D01*
X110824330Y-132611921D01*
X110805117Y-132597671D01*
X110787393Y-132581607D01*
X110771329Y-132563883D01*
X110757079Y-132544670D01*
X110744782Y-132524153D01*
X110734554Y-132502529D01*
X110726496Y-132480007D01*
X110720684Y-132456803D01*
X110717174Y-132433142D01*
X110716000Y-132409250D01*
X110716000Y-131496750D01*
X110717174Y-131472858D01*
X110720684Y-131449197D01*
X110726496Y-131425993D01*
X110734554Y-131403471D01*
X110744782Y-131381847D01*
X110757079Y-131361330D01*
X110771329Y-131342117D01*
X110787393Y-131324393D01*
X110805117Y-131308329D01*
X110824330Y-131294079D01*
X110844847Y-131281782D01*
X110866471Y-131271554D01*
X110888993Y-131263496D01*
X110912197Y-131257684D01*
X110935858Y-131254174D01*
X110959750Y-131253000D01*
X111447250Y-131253000D01*
X111471142Y-131254174D01*
X111471142Y-131254174D01*
G37*
D20*
G04 #@! TD*
G04 #@! TO.P,C7,1*
G04 #@! TO.N,/VBatt*
X111203500Y-131953000D03*
D19*
G04 #@! TO.N,GND*
G04 #@! TO.C,C7*
G36*
X113346142Y-131254174D02*
X113369803Y-131257684D01*
X113393007Y-131263496D01*
X113415529Y-131271554D01*
X113437153Y-131281782D01*
X113457670Y-131294079D01*
X113476883Y-131308329D01*
X113494607Y-131324393D01*
X113510671Y-131342117D01*
X113524921Y-131361330D01*
X113537218Y-131381847D01*
X113547446Y-131403471D01*
X113555504Y-131425993D01*
X113561316Y-131449197D01*
X113564826Y-131472858D01*
X113566000Y-131496750D01*
X113566000Y-132409250D01*
X113564826Y-132433142D01*
X113561316Y-132456803D01*
X113555504Y-132480007D01*
X113547446Y-132502529D01*
X113537218Y-132524153D01*
X113524921Y-132544670D01*
X113510671Y-132563883D01*
X113494607Y-132581607D01*
X113476883Y-132597671D01*
X113457670Y-132611921D01*
X113437153Y-132624218D01*
X113415529Y-132634446D01*
X113393007Y-132642504D01*
X113369803Y-132648316D01*
X113346142Y-132651826D01*
X113322250Y-132653000D01*
X112834750Y-132653000D01*
X112810858Y-132651826D01*
X112787197Y-132648316D01*
X112763993Y-132642504D01*
X112741471Y-132634446D01*
X112719847Y-132624218D01*
X112699330Y-132611921D01*
X112680117Y-132597671D01*
X112662393Y-132581607D01*
X112646329Y-132563883D01*
X112632079Y-132544670D01*
X112619782Y-132524153D01*
X112609554Y-132502529D01*
X112601496Y-132480007D01*
X112595684Y-132456803D01*
X112592174Y-132433142D01*
X112591000Y-132409250D01*
X112591000Y-131496750D01*
X112592174Y-131472858D01*
X112595684Y-131449197D01*
X112601496Y-131425993D01*
X112609554Y-131403471D01*
X112619782Y-131381847D01*
X112632079Y-131361330D01*
X112646329Y-131342117D01*
X112662393Y-131324393D01*
X112680117Y-131308329D01*
X112699330Y-131294079D01*
X112719847Y-131281782D01*
X112741471Y-131271554D01*
X112763993Y-131263496D01*
X112787197Y-131257684D01*
X112810858Y-131254174D01*
X112834750Y-131253000D01*
X113322250Y-131253000D01*
X113346142Y-131254174D01*
X113346142Y-131254174D01*
G37*
D20*
G04 #@! TD*
G04 #@! TO.P,C7,2*
G04 #@! TO.N,GND*
X113078500Y-131953000D03*
D19*
G04 #@! TO.N,GND*
G04 #@! TO.C,C8*
G36*
X113460122Y-143827174D02*
X113483783Y-143830684D01*
X113506987Y-143836496D01*
X113529509Y-143844554D01*
X113551133Y-143854782D01*
X113571650Y-143867079D01*
X113590863Y-143881329D01*
X113608587Y-143897393D01*
X113624651Y-143915117D01*
X113638901Y-143934330D01*
X113651198Y-143954847D01*
X113661426Y-143976471D01*
X113669484Y-143998993D01*
X113675296Y-144022197D01*
X113678806Y-144045858D01*
X113679980Y-144069750D01*
X113679980Y-144982250D01*
X113678806Y-145006142D01*
X113675296Y-145029803D01*
X113669484Y-145053007D01*
X113661426Y-145075529D01*
X113651198Y-145097153D01*
X113638901Y-145117670D01*
X113624651Y-145136883D01*
X113608587Y-145154607D01*
X113590863Y-145170671D01*
X113571650Y-145184921D01*
X113551133Y-145197218D01*
X113529509Y-145207446D01*
X113506987Y-145215504D01*
X113483783Y-145221316D01*
X113460122Y-145224826D01*
X113436230Y-145226000D01*
X112948730Y-145226000D01*
X112924838Y-145224826D01*
X112901177Y-145221316D01*
X112877973Y-145215504D01*
X112855451Y-145207446D01*
X112833827Y-145197218D01*
X112813310Y-145184921D01*
X112794097Y-145170671D01*
X112776373Y-145154607D01*
X112760309Y-145136883D01*
X112746059Y-145117670D01*
X112733762Y-145097153D01*
X112723534Y-145075529D01*
X112715476Y-145053007D01*
X112709664Y-145029803D01*
X112706154Y-145006142D01*
X112704980Y-144982250D01*
X112704980Y-144069750D01*
X112706154Y-144045858D01*
X112709664Y-144022197D01*
X112715476Y-143998993D01*
X112723534Y-143976471D01*
X112733762Y-143954847D01*
X112746059Y-143934330D01*
X112760309Y-143915117D01*
X112776373Y-143897393D01*
X112794097Y-143881329D01*
X112813310Y-143867079D01*
X112833827Y-143854782D01*
X112855451Y-143844554D01*
X112877973Y-143836496D01*
X112901177Y-143830684D01*
X112924838Y-143827174D01*
X112948730Y-143826000D01*
X113436230Y-143826000D01*
X113460122Y-143827174D01*
X113460122Y-143827174D01*
G37*
D20*
G04 #@! TD*
G04 #@! TO.P,C8,2*
G04 #@! TO.N,GND*
X113192480Y-144526000D03*
D19*
G04 #@! TO.N,/VBus*
G04 #@! TO.C,C8*
G36*
X111585122Y-143827174D02*
X111608783Y-143830684D01*
X111631987Y-143836496D01*
X111654509Y-143844554D01*
X111676133Y-143854782D01*
X111696650Y-143867079D01*
X111715863Y-143881329D01*
X111733587Y-143897393D01*
X111749651Y-143915117D01*
X111763901Y-143934330D01*
X111776198Y-143954847D01*
X111786426Y-143976471D01*
X111794484Y-143998993D01*
X111800296Y-144022197D01*
X111803806Y-144045858D01*
X111804980Y-144069750D01*
X111804980Y-144982250D01*
X111803806Y-145006142D01*
X111800296Y-145029803D01*
X111794484Y-145053007D01*
X111786426Y-145075529D01*
X111776198Y-145097153D01*
X111763901Y-145117670D01*
X111749651Y-145136883D01*
X111733587Y-145154607D01*
X111715863Y-145170671D01*
X111696650Y-145184921D01*
X111676133Y-145197218D01*
X111654509Y-145207446D01*
X111631987Y-145215504D01*
X111608783Y-145221316D01*
X111585122Y-145224826D01*
X111561230Y-145226000D01*
X111073730Y-145226000D01*
X111049838Y-145224826D01*
X111026177Y-145221316D01*
X111002973Y-145215504D01*
X110980451Y-145207446D01*
X110958827Y-145197218D01*
X110938310Y-145184921D01*
X110919097Y-145170671D01*
X110901373Y-145154607D01*
X110885309Y-145136883D01*
X110871059Y-145117670D01*
X110858762Y-145097153D01*
X110848534Y-145075529D01*
X110840476Y-145053007D01*
X110834664Y-145029803D01*
X110831154Y-145006142D01*
X110829980Y-144982250D01*
X110829980Y-144069750D01*
X110831154Y-144045858D01*
X110834664Y-144022197D01*
X110840476Y-143998993D01*
X110848534Y-143976471D01*
X110858762Y-143954847D01*
X110871059Y-143934330D01*
X110885309Y-143915117D01*
X110901373Y-143897393D01*
X110919097Y-143881329D01*
X110938310Y-143867079D01*
X110958827Y-143854782D01*
X110980451Y-143844554D01*
X111002973Y-143836496D01*
X111026177Y-143830684D01*
X111049838Y-143827174D01*
X111073730Y-143826000D01*
X111561230Y-143826000D01*
X111585122Y-143827174D01*
X111585122Y-143827174D01*
G37*
D20*
G04 #@! TD*
G04 #@! TO.P,C8,1*
G04 #@! TO.N,/VBus*
X111317480Y-144526000D03*
D19*
G04 #@! TO.N,/DTR*
G04 #@! TO.C,C9*
G36*
X107201642Y-142303174D02*
X107225303Y-142306684D01*
X107248507Y-142312496D01*
X107271029Y-142320554D01*
X107292653Y-142330782D01*
X107313170Y-142343079D01*
X107332383Y-142357329D01*
X107350107Y-142373393D01*
X107366171Y-142391117D01*
X107380421Y-142410330D01*
X107392718Y-142430847D01*
X107402946Y-142452471D01*
X107411004Y-142474993D01*
X107416816Y-142498197D01*
X107420326Y-142521858D01*
X107421500Y-142545750D01*
X107421500Y-143458250D01*
X107420326Y-143482142D01*
X107416816Y-143505803D01*
X107411004Y-143529007D01*
X107402946Y-143551529D01*
X107392718Y-143573153D01*
X107380421Y-143593670D01*
X107366171Y-143612883D01*
X107350107Y-143630607D01*
X107332383Y-143646671D01*
X107313170Y-143660921D01*
X107292653Y-143673218D01*
X107271029Y-143683446D01*
X107248507Y-143691504D01*
X107225303Y-143697316D01*
X107201642Y-143700826D01*
X107177750Y-143702000D01*
X106690250Y-143702000D01*
X106666358Y-143700826D01*
X106642697Y-143697316D01*
X106619493Y-143691504D01*
X106596971Y-143683446D01*
X106575347Y-143673218D01*
X106554830Y-143660921D01*
X106535617Y-143646671D01*
X106517893Y-143630607D01*
X106501829Y-143612883D01*
X106487579Y-143593670D01*
X106475282Y-143573153D01*
X106465054Y-143551529D01*
X106456996Y-143529007D01*
X106451184Y-143505803D01*
X106447674Y-143482142D01*
X106446500Y-143458250D01*
X106446500Y-142545750D01*
X106447674Y-142521858D01*
X106451184Y-142498197D01*
X106456996Y-142474993D01*
X106465054Y-142452471D01*
X106475282Y-142430847D01*
X106487579Y-142410330D01*
X106501829Y-142391117D01*
X106517893Y-142373393D01*
X106535617Y-142357329D01*
X106554830Y-142343079D01*
X106575347Y-142330782D01*
X106596971Y-142320554D01*
X106619493Y-142312496D01*
X106642697Y-142306684D01*
X106666358Y-142303174D01*
X106690250Y-142302000D01*
X107177750Y-142302000D01*
X107201642Y-142303174D01*
X107201642Y-142303174D01*
G37*
D20*
G04 #@! TD*
G04 #@! TO.P,C9,2*
G04 #@! TO.N,/DTR*
X106934000Y-143002000D03*
D19*
G04 #@! TO.N,RESET*
G04 #@! TO.C,C9*
G36*
X105326642Y-142303174D02*
X105350303Y-142306684D01*
X105373507Y-142312496D01*
X105396029Y-142320554D01*
X105417653Y-142330782D01*
X105438170Y-142343079D01*
X105457383Y-142357329D01*
X105475107Y-142373393D01*
X105491171Y-142391117D01*
X105505421Y-142410330D01*
X105517718Y-142430847D01*
X105527946Y-142452471D01*
X105536004Y-142474993D01*
X105541816Y-142498197D01*
X105545326Y-142521858D01*
X105546500Y-142545750D01*
X105546500Y-143458250D01*
X105545326Y-143482142D01*
X105541816Y-143505803D01*
X105536004Y-143529007D01*
X105527946Y-143551529D01*
X105517718Y-143573153D01*
X105505421Y-143593670D01*
X105491171Y-143612883D01*
X105475107Y-143630607D01*
X105457383Y-143646671D01*
X105438170Y-143660921D01*
X105417653Y-143673218D01*
X105396029Y-143683446D01*
X105373507Y-143691504D01*
X105350303Y-143697316D01*
X105326642Y-143700826D01*
X105302750Y-143702000D01*
X104815250Y-143702000D01*
X104791358Y-143700826D01*
X104767697Y-143697316D01*
X104744493Y-143691504D01*
X104721971Y-143683446D01*
X104700347Y-143673218D01*
X104679830Y-143660921D01*
X104660617Y-143646671D01*
X104642893Y-143630607D01*
X104626829Y-143612883D01*
X104612579Y-143593670D01*
X104600282Y-143573153D01*
X104590054Y-143551529D01*
X104581996Y-143529007D01*
X104576184Y-143505803D01*
X104572674Y-143482142D01*
X104571500Y-143458250D01*
X104571500Y-142545750D01*
X104572674Y-142521858D01*
X104576184Y-142498197D01*
X104581996Y-142474993D01*
X104590054Y-142452471D01*
X104600282Y-142430847D01*
X104612579Y-142410330D01*
X104626829Y-142391117D01*
X104642893Y-142373393D01*
X104660617Y-142357329D01*
X104679830Y-142343079D01*
X104700347Y-142330782D01*
X104721971Y-142320554D01*
X104744493Y-142312496D01*
X104767697Y-142306684D01*
X104791358Y-142303174D01*
X104815250Y-142302000D01*
X105302750Y-142302000D01*
X105326642Y-142303174D01*
X105326642Y-142303174D01*
G37*
D20*
G04 #@! TD*
G04 #@! TO.P,C9,1*
G04 #@! TO.N,RESET*
X105059000Y-143002000D03*
D19*
G04 #@! TO.N,GND*
G04 #@! TO.C,C10*
G36*
X113424642Y-145732174D02*
X113448303Y-145735684D01*
X113471507Y-145741496D01*
X113494029Y-145749554D01*
X113515653Y-145759782D01*
X113536170Y-145772079D01*
X113555383Y-145786329D01*
X113573107Y-145802393D01*
X113589171Y-145820117D01*
X113603421Y-145839330D01*
X113615718Y-145859847D01*
X113625946Y-145881471D01*
X113634004Y-145903993D01*
X113639816Y-145927197D01*
X113643326Y-145950858D01*
X113644500Y-145974750D01*
X113644500Y-146887250D01*
X113643326Y-146911142D01*
X113639816Y-146934803D01*
X113634004Y-146958007D01*
X113625946Y-146980529D01*
X113615718Y-147002153D01*
X113603421Y-147022670D01*
X113589171Y-147041883D01*
X113573107Y-147059607D01*
X113555383Y-147075671D01*
X113536170Y-147089921D01*
X113515653Y-147102218D01*
X113494029Y-147112446D01*
X113471507Y-147120504D01*
X113448303Y-147126316D01*
X113424642Y-147129826D01*
X113400750Y-147131000D01*
X112913250Y-147131000D01*
X112889358Y-147129826D01*
X112865697Y-147126316D01*
X112842493Y-147120504D01*
X112819971Y-147112446D01*
X112798347Y-147102218D01*
X112777830Y-147089921D01*
X112758617Y-147075671D01*
X112740893Y-147059607D01*
X112724829Y-147041883D01*
X112710579Y-147022670D01*
X112698282Y-147002153D01*
X112688054Y-146980529D01*
X112679996Y-146958007D01*
X112674184Y-146934803D01*
X112670674Y-146911142D01*
X112669500Y-146887250D01*
X112669500Y-145974750D01*
X112670674Y-145950858D01*
X112674184Y-145927197D01*
X112679996Y-145903993D01*
X112688054Y-145881471D01*
X112698282Y-145859847D01*
X112710579Y-145839330D01*
X112724829Y-145820117D01*
X112740893Y-145802393D01*
X112758617Y-145786329D01*
X112777830Y-145772079D01*
X112798347Y-145759782D01*
X112819971Y-145749554D01*
X112842493Y-145741496D01*
X112865697Y-145735684D01*
X112889358Y-145732174D01*
X112913250Y-145731000D01*
X113400750Y-145731000D01*
X113424642Y-145732174D01*
X113424642Y-145732174D01*
G37*
D20*
G04 #@! TD*
G04 #@! TO.P,C10,2*
G04 #@! TO.N,GND*
X113157000Y-146431000D03*
D19*
G04 #@! TO.N,Net-(C10-Pad1)*
G04 #@! TO.C,C10*
G36*
X111549642Y-145732174D02*
X111573303Y-145735684D01*
X111596507Y-145741496D01*
X111619029Y-145749554D01*
X111640653Y-145759782D01*
X111661170Y-145772079D01*
X111680383Y-145786329D01*
X111698107Y-145802393D01*
X111714171Y-145820117D01*
X111728421Y-145839330D01*
X111740718Y-145859847D01*
X111750946Y-145881471D01*
X111759004Y-145903993D01*
X111764816Y-145927197D01*
X111768326Y-145950858D01*
X111769500Y-145974750D01*
X111769500Y-146887250D01*
X111768326Y-146911142D01*
X111764816Y-146934803D01*
X111759004Y-146958007D01*
X111750946Y-146980529D01*
X111740718Y-147002153D01*
X111728421Y-147022670D01*
X111714171Y-147041883D01*
X111698107Y-147059607D01*
X111680383Y-147075671D01*
X111661170Y-147089921D01*
X111640653Y-147102218D01*
X111619029Y-147112446D01*
X111596507Y-147120504D01*
X111573303Y-147126316D01*
X111549642Y-147129826D01*
X111525750Y-147131000D01*
X111038250Y-147131000D01*
X111014358Y-147129826D01*
X110990697Y-147126316D01*
X110967493Y-147120504D01*
X110944971Y-147112446D01*
X110923347Y-147102218D01*
X110902830Y-147089921D01*
X110883617Y-147075671D01*
X110865893Y-147059607D01*
X110849829Y-147041883D01*
X110835579Y-147022670D01*
X110823282Y-147002153D01*
X110813054Y-146980529D01*
X110804996Y-146958007D01*
X110799184Y-146934803D01*
X110795674Y-146911142D01*
X110794500Y-146887250D01*
X110794500Y-145974750D01*
X110795674Y-145950858D01*
X110799184Y-145927197D01*
X110804996Y-145903993D01*
X110813054Y-145881471D01*
X110823282Y-145859847D01*
X110835579Y-145839330D01*
X110849829Y-145820117D01*
X110865893Y-145802393D01*
X110883617Y-145786329D01*
X110902830Y-145772079D01*
X110923347Y-145759782D01*
X110944971Y-145749554D01*
X110967493Y-145741496D01*
X110990697Y-145735684D01*
X111014358Y-145732174D01*
X111038250Y-145731000D01*
X111525750Y-145731000D01*
X111549642Y-145732174D01*
X111549642Y-145732174D01*
G37*
D20*
G04 #@! TD*
G04 #@! TO.P,C10,1*
G04 #@! TO.N,Net-(C10-Pad1)*
X111282000Y-146431000D03*
D19*
G04 #@! TO.N,/VBus*
G04 #@! TO.C,C11*
G36*
X111598142Y-140144174D02*
X111621803Y-140147684D01*
X111645007Y-140153496D01*
X111667529Y-140161554D01*
X111689153Y-140171782D01*
X111709670Y-140184079D01*
X111728883Y-140198329D01*
X111746607Y-140214393D01*
X111762671Y-140232117D01*
X111776921Y-140251330D01*
X111789218Y-140271847D01*
X111799446Y-140293471D01*
X111807504Y-140315993D01*
X111813316Y-140339197D01*
X111816826Y-140362858D01*
X111818000Y-140386750D01*
X111818000Y-141299250D01*
X111816826Y-141323142D01*
X111813316Y-141346803D01*
X111807504Y-141370007D01*
X111799446Y-141392529D01*
X111789218Y-141414153D01*
X111776921Y-141434670D01*
X111762671Y-141453883D01*
X111746607Y-141471607D01*
X111728883Y-141487671D01*
X111709670Y-141501921D01*
X111689153Y-141514218D01*
X111667529Y-141524446D01*
X111645007Y-141532504D01*
X111621803Y-141538316D01*
X111598142Y-141541826D01*
X111574250Y-141543000D01*
X111086750Y-141543000D01*
X111062858Y-141541826D01*
X111039197Y-141538316D01*
X111015993Y-141532504D01*
X110993471Y-141524446D01*
X110971847Y-141514218D01*
X110951330Y-141501921D01*
X110932117Y-141487671D01*
X110914393Y-141471607D01*
X110898329Y-141453883D01*
X110884079Y-141434670D01*
X110871782Y-141414153D01*
X110861554Y-141392529D01*
X110853496Y-141370007D01*
X110847684Y-141346803D01*
X110844174Y-141323142D01*
X110843000Y-141299250D01*
X110843000Y-140386750D01*
X110844174Y-140362858D01*
X110847684Y-140339197D01*
X110853496Y-140315993D01*
X110861554Y-140293471D01*
X110871782Y-140271847D01*
X110884079Y-140251330D01*
X110898329Y-140232117D01*
X110914393Y-140214393D01*
X110932117Y-140198329D01*
X110951330Y-140184079D01*
X110971847Y-140171782D01*
X110993471Y-140161554D01*
X111015993Y-140153496D01*
X111039197Y-140147684D01*
X111062858Y-140144174D01*
X111086750Y-140143000D01*
X111574250Y-140143000D01*
X111598142Y-140144174D01*
X111598142Y-140144174D01*
G37*
D20*
G04 #@! TD*
G04 #@! TO.P,C11,1*
G04 #@! TO.N,/VBus*
X111330500Y-140843000D03*
D19*
G04 #@! TO.N,GND*
G04 #@! TO.C,C11*
G36*
X113473142Y-140144174D02*
X113496803Y-140147684D01*
X113520007Y-140153496D01*
X113542529Y-140161554D01*
X113564153Y-140171782D01*
X113584670Y-140184079D01*
X113603883Y-140198329D01*
X113621607Y-140214393D01*
X113637671Y-140232117D01*
X113651921Y-140251330D01*
X113664218Y-140271847D01*
X113674446Y-140293471D01*
X113682504Y-140315993D01*
X113688316Y-140339197D01*
X113691826Y-140362858D01*
X113693000Y-140386750D01*
X113693000Y-141299250D01*
X113691826Y-141323142D01*
X113688316Y-141346803D01*
X113682504Y-141370007D01*
X113674446Y-141392529D01*
X113664218Y-141414153D01*
X113651921Y-141434670D01*
X113637671Y-141453883D01*
X113621607Y-141471607D01*
X113603883Y-141487671D01*
X113584670Y-141501921D01*
X113564153Y-141514218D01*
X113542529Y-141524446D01*
X113520007Y-141532504D01*
X113496803Y-141538316D01*
X113473142Y-141541826D01*
X113449250Y-141543000D01*
X112961750Y-141543000D01*
X112937858Y-141541826D01*
X112914197Y-141538316D01*
X112890993Y-141532504D01*
X112868471Y-141524446D01*
X112846847Y-141514218D01*
X112826330Y-141501921D01*
X112807117Y-141487671D01*
X112789393Y-141471607D01*
X112773329Y-141453883D01*
X112759079Y-141434670D01*
X112746782Y-141414153D01*
X112736554Y-141392529D01*
X112728496Y-141370007D01*
X112722684Y-141346803D01*
X112719174Y-141323142D01*
X112718000Y-141299250D01*
X112718000Y-140386750D01*
X112719174Y-140362858D01*
X112722684Y-140339197D01*
X112728496Y-140315993D01*
X112736554Y-140293471D01*
X112746782Y-140271847D01*
X112759079Y-140251330D01*
X112773329Y-140232117D01*
X112789393Y-140214393D01*
X112807117Y-140198329D01*
X112826330Y-140184079D01*
X112846847Y-140171782D01*
X112868471Y-140161554D01*
X112890993Y-140153496D01*
X112914197Y-140147684D01*
X112937858Y-140144174D01*
X112961750Y-140143000D01*
X113449250Y-140143000D01*
X113473142Y-140144174D01*
X113473142Y-140144174D01*
G37*
D20*
G04 #@! TD*
G04 #@! TO.P,C11,2*
G04 #@! TO.N,GND*
X113205500Y-140843000D03*
D19*
G04 #@! TO.N,GND*
G04 #@! TO.C,C12*
G36*
X107201642Y-140271174D02*
X107225303Y-140274684D01*
X107248507Y-140280496D01*
X107271029Y-140288554D01*
X107292653Y-140298782D01*
X107313170Y-140311079D01*
X107332383Y-140325329D01*
X107350107Y-140341393D01*
X107366171Y-140359117D01*
X107380421Y-140378330D01*
X107392718Y-140398847D01*
X107402946Y-140420471D01*
X107411004Y-140442993D01*
X107416816Y-140466197D01*
X107420326Y-140489858D01*
X107421500Y-140513750D01*
X107421500Y-141426250D01*
X107420326Y-141450142D01*
X107416816Y-141473803D01*
X107411004Y-141497007D01*
X107402946Y-141519529D01*
X107392718Y-141541153D01*
X107380421Y-141561670D01*
X107366171Y-141580883D01*
X107350107Y-141598607D01*
X107332383Y-141614671D01*
X107313170Y-141628921D01*
X107292653Y-141641218D01*
X107271029Y-141651446D01*
X107248507Y-141659504D01*
X107225303Y-141665316D01*
X107201642Y-141668826D01*
X107177750Y-141670000D01*
X106690250Y-141670000D01*
X106666358Y-141668826D01*
X106642697Y-141665316D01*
X106619493Y-141659504D01*
X106596971Y-141651446D01*
X106575347Y-141641218D01*
X106554830Y-141628921D01*
X106535617Y-141614671D01*
X106517893Y-141598607D01*
X106501829Y-141580883D01*
X106487579Y-141561670D01*
X106475282Y-141541153D01*
X106465054Y-141519529D01*
X106456996Y-141497007D01*
X106451184Y-141473803D01*
X106447674Y-141450142D01*
X106446500Y-141426250D01*
X106446500Y-140513750D01*
X106447674Y-140489858D01*
X106451184Y-140466197D01*
X106456996Y-140442993D01*
X106465054Y-140420471D01*
X106475282Y-140398847D01*
X106487579Y-140378330D01*
X106501829Y-140359117D01*
X106517893Y-140341393D01*
X106535617Y-140325329D01*
X106554830Y-140311079D01*
X106575347Y-140298782D01*
X106596971Y-140288554D01*
X106619493Y-140280496D01*
X106642697Y-140274684D01*
X106666358Y-140271174D01*
X106690250Y-140270000D01*
X107177750Y-140270000D01*
X107201642Y-140271174D01*
X107201642Y-140271174D01*
G37*
D20*
G04 #@! TD*
G04 #@! TO.P,C12,2*
G04 #@! TO.N,GND*
X106934000Y-140970000D03*
D19*
G04 #@! TO.N,Net-(C12-Pad1)*
G04 #@! TO.C,C12*
G36*
X105326642Y-140271174D02*
X105350303Y-140274684D01*
X105373507Y-140280496D01*
X105396029Y-140288554D01*
X105417653Y-140298782D01*
X105438170Y-140311079D01*
X105457383Y-140325329D01*
X105475107Y-140341393D01*
X105491171Y-140359117D01*
X105505421Y-140378330D01*
X105517718Y-140398847D01*
X105527946Y-140420471D01*
X105536004Y-140442993D01*
X105541816Y-140466197D01*
X105545326Y-140489858D01*
X105546500Y-140513750D01*
X105546500Y-141426250D01*
X105545326Y-141450142D01*
X105541816Y-141473803D01*
X105536004Y-141497007D01*
X105527946Y-141519529D01*
X105517718Y-141541153D01*
X105505421Y-141561670D01*
X105491171Y-141580883D01*
X105475107Y-141598607D01*
X105457383Y-141614671D01*
X105438170Y-141628921D01*
X105417653Y-141641218D01*
X105396029Y-141651446D01*
X105373507Y-141659504D01*
X105350303Y-141665316D01*
X105326642Y-141668826D01*
X105302750Y-141670000D01*
X104815250Y-141670000D01*
X104791358Y-141668826D01*
X104767697Y-141665316D01*
X104744493Y-141659504D01*
X104721971Y-141651446D01*
X104700347Y-141641218D01*
X104679830Y-141628921D01*
X104660617Y-141614671D01*
X104642893Y-141598607D01*
X104626829Y-141580883D01*
X104612579Y-141561670D01*
X104600282Y-141541153D01*
X104590054Y-141519529D01*
X104581996Y-141497007D01*
X104576184Y-141473803D01*
X104572674Y-141450142D01*
X104571500Y-141426250D01*
X104571500Y-140513750D01*
X104572674Y-140489858D01*
X104576184Y-140466197D01*
X104581996Y-140442993D01*
X104590054Y-140420471D01*
X104600282Y-140398847D01*
X104612579Y-140378330D01*
X104626829Y-140359117D01*
X104642893Y-140341393D01*
X104660617Y-140325329D01*
X104679830Y-140311079D01*
X104700347Y-140298782D01*
X104721971Y-140288554D01*
X104744493Y-140280496D01*
X104767697Y-140274684D01*
X104791358Y-140271174D01*
X104815250Y-140270000D01*
X105302750Y-140270000D01*
X105326642Y-140271174D01*
X105326642Y-140271174D01*
G37*
D20*
G04 #@! TD*
G04 #@! TO.P,C12,1*
G04 #@! TO.N,Net-(C12-Pad1)*
X105059000Y-140970000D03*
D21*
G04 #@! TO.P,D1,1*
G04 #@! TO.N,Net-(C5-Pad1)*
X108458000Y-134112000D03*
G04 #@! TO.P,D1,2*
G04 #@! TO.N,/VBus*
X105158000Y-134112000D03*
G04 #@! TD*
G04 #@! TO.P,D2,2*
G04 #@! TO.N,/VBus*
X105157000Y-136398000D03*
G04 #@! TO.P,D2,1*
G04 #@! TO.N,Net-(D2-Pad1)*
X108457000Y-136398000D03*
G04 #@! TD*
G04 #@! TO.P,D3,1*
G04 #@! TO.N,Net-(C12-Pad1)*
X108458000Y-138684000D03*
G04 #@! TO.P,D3,2*
G04 #@! TO.N,Net-(D2-Pad1)*
X105158000Y-138684000D03*
G04 #@! TD*
D19*
G04 #@! TO.N,Net-(C1-Pad1)*
G04 #@! TO.C,L1*
G36*
X104018162Y-113066674D02*
X104041823Y-113070184D01*
X104065027Y-113075996D01*
X104087549Y-113084054D01*
X104109173Y-113094282D01*
X104129690Y-113106579D01*
X104148903Y-113120829D01*
X104166627Y-113136893D01*
X104182691Y-113154617D01*
X104196941Y-113173830D01*
X104209238Y-113194347D01*
X104219466Y-113215971D01*
X104227524Y-113238493D01*
X104233336Y-113261697D01*
X104236846Y-113285358D01*
X104238020Y-113309250D01*
X104238020Y-113796750D01*
X104236846Y-113820642D01*
X104233336Y-113844303D01*
X104227524Y-113867507D01*
X104219466Y-113890029D01*
X104209238Y-113911653D01*
X104196941Y-113932170D01*
X104182691Y-113951383D01*
X104166627Y-113969107D01*
X104148903Y-113985171D01*
X104129690Y-113999421D01*
X104109173Y-114011718D01*
X104087549Y-114021946D01*
X104065027Y-114030004D01*
X104041823Y-114035816D01*
X104018162Y-114039326D01*
X103994270Y-114040500D01*
X103081770Y-114040500D01*
X103057878Y-114039326D01*
X103034217Y-114035816D01*
X103011013Y-114030004D01*
X102988491Y-114021946D01*
X102966867Y-114011718D01*
X102946350Y-113999421D01*
X102927137Y-113985171D01*
X102909413Y-113969107D01*
X102893349Y-113951383D01*
X102879099Y-113932170D01*
X102866802Y-113911653D01*
X102856574Y-113890029D01*
X102848516Y-113867507D01*
X102842704Y-113844303D01*
X102839194Y-113820642D01*
X102838020Y-113796750D01*
X102838020Y-113309250D01*
X102839194Y-113285358D01*
X102842704Y-113261697D01*
X102848516Y-113238493D01*
X102856574Y-113215971D01*
X102866802Y-113194347D01*
X102879099Y-113173830D01*
X102893349Y-113154617D01*
X102909413Y-113136893D01*
X102927137Y-113120829D01*
X102946350Y-113106579D01*
X102966867Y-113094282D01*
X102988491Y-113084054D01*
X103011013Y-113075996D01*
X103034217Y-113070184D01*
X103057878Y-113066674D01*
X103081770Y-113065500D01*
X103994270Y-113065500D01*
X104018162Y-113066674D01*
X104018162Y-113066674D01*
G37*
D20*
G04 #@! TD*
G04 #@! TO.P,L1,1*
G04 #@! TO.N,Net-(C1-Pad1)*
X103538020Y-113553000D03*
D19*
G04 #@! TO.N,Net-(L1-Pad2)*
G04 #@! TO.C,L1*
G36*
X104018162Y-114941674D02*
X104041823Y-114945184D01*
X104065027Y-114950996D01*
X104087549Y-114959054D01*
X104109173Y-114969282D01*
X104129690Y-114981579D01*
X104148903Y-114995829D01*
X104166627Y-115011893D01*
X104182691Y-115029617D01*
X104196941Y-115048830D01*
X104209238Y-115069347D01*
X104219466Y-115090971D01*
X104227524Y-115113493D01*
X104233336Y-115136697D01*
X104236846Y-115160358D01*
X104238020Y-115184250D01*
X104238020Y-115671750D01*
X104236846Y-115695642D01*
X104233336Y-115719303D01*
X104227524Y-115742507D01*
X104219466Y-115765029D01*
X104209238Y-115786653D01*
X104196941Y-115807170D01*
X104182691Y-115826383D01*
X104166627Y-115844107D01*
X104148903Y-115860171D01*
X104129690Y-115874421D01*
X104109173Y-115886718D01*
X104087549Y-115896946D01*
X104065027Y-115905004D01*
X104041823Y-115910816D01*
X104018162Y-115914326D01*
X103994270Y-115915500D01*
X103081770Y-115915500D01*
X103057878Y-115914326D01*
X103034217Y-115910816D01*
X103011013Y-115905004D01*
X102988491Y-115896946D01*
X102966867Y-115886718D01*
X102946350Y-115874421D01*
X102927137Y-115860171D01*
X102909413Y-115844107D01*
X102893349Y-115826383D01*
X102879099Y-115807170D01*
X102866802Y-115786653D01*
X102856574Y-115765029D01*
X102848516Y-115742507D01*
X102842704Y-115719303D01*
X102839194Y-115695642D01*
X102838020Y-115671750D01*
X102838020Y-115184250D01*
X102839194Y-115160358D01*
X102842704Y-115136697D01*
X102848516Y-115113493D01*
X102856574Y-115090971D01*
X102866802Y-115069347D01*
X102879099Y-115048830D01*
X102893349Y-115029617D01*
X102909413Y-115011893D01*
X102927137Y-114995829D01*
X102946350Y-114981579D01*
X102966867Y-114969282D01*
X102988491Y-114959054D01*
X103011013Y-114950996D01*
X103034217Y-114945184D01*
X103057878Y-114941674D01*
X103081770Y-114940500D01*
X103994270Y-114940500D01*
X104018162Y-114941674D01*
X104018162Y-114941674D01*
G37*
D20*
G04 #@! TD*
G04 #@! TO.P,L1,2*
G04 #@! TO.N,Net-(L1-Pad2)*
X103538020Y-115428000D03*
D19*
G04 #@! TO.N,VCC*
G04 #@! TO.C,R1*
G36*
X108806063Y-114881995D02*
X108829724Y-114885505D01*
X108852928Y-114891317D01*
X108875450Y-114899375D01*
X108897074Y-114909603D01*
X108917591Y-114921900D01*
X108936804Y-114936150D01*
X108954528Y-114952214D01*
X108970592Y-114969938D01*
X108984842Y-114989151D01*
X108997139Y-115009668D01*
X109007367Y-115031292D01*
X109015425Y-115053814D01*
X109021237Y-115077018D01*
X109024747Y-115100679D01*
X109025921Y-115124571D01*
X109025921Y-115612071D01*
X109024747Y-115635963D01*
X109021237Y-115659624D01*
X109015425Y-115682828D01*
X109007367Y-115705350D01*
X108997139Y-115726974D01*
X108984842Y-115747491D01*
X108970592Y-115766704D01*
X108954528Y-115784428D01*
X108936804Y-115800492D01*
X108917591Y-115814742D01*
X108897074Y-115827039D01*
X108875450Y-115837267D01*
X108852928Y-115845325D01*
X108829724Y-115851137D01*
X108806063Y-115854647D01*
X108782171Y-115855821D01*
X107869671Y-115855821D01*
X107845779Y-115854647D01*
X107822118Y-115851137D01*
X107798914Y-115845325D01*
X107776392Y-115837267D01*
X107754768Y-115827039D01*
X107734251Y-115814742D01*
X107715038Y-115800492D01*
X107697314Y-115784428D01*
X107681250Y-115766704D01*
X107667000Y-115747491D01*
X107654703Y-115726974D01*
X107644475Y-115705350D01*
X107636417Y-115682828D01*
X107630605Y-115659624D01*
X107627095Y-115635963D01*
X107625921Y-115612071D01*
X107625921Y-115124571D01*
X107627095Y-115100679D01*
X107630605Y-115077018D01*
X107636417Y-115053814D01*
X107644475Y-115031292D01*
X107654703Y-115009668D01*
X107667000Y-114989151D01*
X107681250Y-114969938D01*
X107697314Y-114952214D01*
X107715038Y-114936150D01*
X107734251Y-114921900D01*
X107754768Y-114909603D01*
X107776392Y-114899375D01*
X107798914Y-114891317D01*
X107822118Y-114885505D01*
X107845779Y-114881995D01*
X107869671Y-114880821D01*
X108782171Y-114880821D01*
X108806063Y-114881995D01*
X108806063Y-114881995D01*
G37*
D20*
G04 #@! TD*
G04 #@! TO.P,R1,2*
G04 #@! TO.N,VCC*
X108325921Y-115368321D03*
D19*
G04 #@! TO.N,RESET*
G04 #@! TO.C,R1*
G36*
X108806063Y-113006995D02*
X108829724Y-113010505D01*
X108852928Y-113016317D01*
X108875450Y-113024375D01*
X108897074Y-113034603D01*
X108917591Y-113046900D01*
X108936804Y-113061150D01*
X108954528Y-113077214D01*
X108970592Y-113094938D01*
X108984842Y-113114151D01*
X108997139Y-113134668D01*
X109007367Y-113156292D01*
X109015425Y-113178814D01*
X109021237Y-113202018D01*
X109024747Y-113225679D01*
X109025921Y-113249571D01*
X109025921Y-113737071D01*
X109024747Y-113760963D01*
X109021237Y-113784624D01*
X109015425Y-113807828D01*
X109007367Y-113830350D01*
X108997139Y-113851974D01*
X108984842Y-113872491D01*
X108970592Y-113891704D01*
X108954528Y-113909428D01*
X108936804Y-113925492D01*
X108917591Y-113939742D01*
X108897074Y-113952039D01*
X108875450Y-113962267D01*
X108852928Y-113970325D01*
X108829724Y-113976137D01*
X108806063Y-113979647D01*
X108782171Y-113980821D01*
X107869671Y-113980821D01*
X107845779Y-113979647D01*
X107822118Y-113976137D01*
X107798914Y-113970325D01*
X107776392Y-113962267D01*
X107754768Y-113952039D01*
X107734251Y-113939742D01*
X107715038Y-113925492D01*
X107697314Y-113909428D01*
X107681250Y-113891704D01*
X107667000Y-113872491D01*
X107654703Y-113851974D01*
X107644475Y-113830350D01*
X107636417Y-113807828D01*
X107630605Y-113784624D01*
X107627095Y-113760963D01*
X107625921Y-113737071D01*
X107625921Y-113249571D01*
X107627095Y-113225679D01*
X107630605Y-113202018D01*
X107636417Y-113178814D01*
X107644475Y-113156292D01*
X107654703Y-113134668D01*
X107667000Y-113114151D01*
X107681250Y-113094938D01*
X107697314Y-113077214D01*
X107715038Y-113061150D01*
X107734251Y-113046900D01*
X107754768Y-113034603D01*
X107776392Y-113024375D01*
X107798914Y-113016317D01*
X107822118Y-113010505D01*
X107845779Y-113006995D01*
X107869671Y-113005821D01*
X108782171Y-113005821D01*
X108806063Y-113006995D01*
X108806063Y-113006995D01*
G37*
D20*
G04 #@! TD*
G04 #@! TO.P,R1,1*
G04 #@! TO.N,RESET*
X108325921Y-113493321D03*
D19*
G04 #@! TO.N,/VBus*
G04 #@! TO.C,R2*
G36*
X111570202Y-141922174D02*
X111593863Y-141925684D01*
X111617067Y-141931496D01*
X111639589Y-141939554D01*
X111661213Y-141949782D01*
X111681730Y-141962079D01*
X111700943Y-141976329D01*
X111718667Y-141992393D01*
X111734731Y-142010117D01*
X111748981Y-142029330D01*
X111761278Y-142049847D01*
X111771506Y-142071471D01*
X111779564Y-142093993D01*
X111785376Y-142117197D01*
X111788886Y-142140858D01*
X111790060Y-142164750D01*
X111790060Y-143077250D01*
X111788886Y-143101142D01*
X111785376Y-143124803D01*
X111779564Y-143148007D01*
X111771506Y-143170529D01*
X111761278Y-143192153D01*
X111748981Y-143212670D01*
X111734731Y-143231883D01*
X111718667Y-143249607D01*
X111700943Y-143265671D01*
X111681730Y-143279921D01*
X111661213Y-143292218D01*
X111639589Y-143302446D01*
X111617067Y-143310504D01*
X111593863Y-143316316D01*
X111570202Y-143319826D01*
X111546310Y-143321000D01*
X111058810Y-143321000D01*
X111034918Y-143319826D01*
X111011257Y-143316316D01*
X110988053Y-143310504D01*
X110965531Y-143302446D01*
X110943907Y-143292218D01*
X110923390Y-143279921D01*
X110904177Y-143265671D01*
X110886453Y-143249607D01*
X110870389Y-143231883D01*
X110856139Y-143212670D01*
X110843842Y-143192153D01*
X110833614Y-143170529D01*
X110825556Y-143148007D01*
X110819744Y-143124803D01*
X110816234Y-143101142D01*
X110815060Y-143077250D01*
X110815060Y-142164750D01*
X110816234Y-142140858D01*
X110819744Y-142117197D01*
X110825556Y-142093993D01*
X110833614Y-142071471D01*
X110843842Y-142049847D01*
X110856139Y-142029330D01*
X110870389Y-142010117D01*
X110886453Y-141992393D01*
X110904177Y-141976329D01*
X110923390Y-141962079D01*
X110943907Y-141949782D01*
X110965531Y-141939554D01*
X110988053Y-141931496D01*
X111011257Y-141925684D01*
X111034918Y-141922174D01*
X111058810Y-141921000D01*
X111546310Y-141921000D01*
X111570202Y-141922174D01*
X111570202Y-141922174D01*
G37*
D20*
G04 #@! TD*
G04 #@! TO.P,R2,1*
G04 #@! TO.N,/VBus*
X111302560Y-142621000D03*
D19*
G04 #@! TO.N,GND*
G04 #@! TO.C,R2*
G36*
X113445202Y-141922174D02*
X113468863Y-141925684D01*
X113492067Y-141931496D01*
X113514589Y-141939554D01*
X113536213Y-141949782D01*
X113556730Y-141962079D01*
X113575943Y-141976329D01*
X113593667Y-141992393D01*
X113609731Y-142010117D01*
X113623981Y-142029330D01*
X113636278Y-142049847D01*
X113646506Y-142071471D01*
X113654564Y-142093993D01*
X113660376Y-142117197D01*
X113663886Y-142140858D01*
X113665060Y-142164750D01*
X113665060Y-143077250D01*
X113663886Y-143101142D01*
X113660376Y-143124803D01*
X113654564Y-143148007D01*
X113646506Y-143170529D01*
X113636278Y-143192153D01*
X113623981Y-143212670D01*
X113609731Y-143231883D01*
X113593667Y-143249607D01*
X113575943Y-143265671D01*
X113556730Y-143279921D01*
X113536213Y-143292218D01*
X113514589Y-143302446D01*
X113492067Y-143310504D01*
X113468863Y-143316316D01*
X113445202Y-143319826D01*
X113421310Y-143321000D01*
X112933810Y-143321000D01*
X112909918Y-143319826D01*
X112886257Y-143316316D01*
X112863053Y-143310504D01*
X112840531Y-143302446D01*
X112818907Y-143292218D01*
X112798390Y-143279921D01*
X112779177Y-143265671D01*
X112761453Y-143249607D01*
X112745389Y-143231883D01*
X112731139Y-143212670D01*
X112718842Y-143192153D01*
X112708614Y-143170529D01*
X112700556Y-143148007D01*
X112694744Y-143124803D01*
X112691234Y-143101142D01*
X112690060Y-143077250D01*
X112690060Y-142164750D01*
X112691234Y-142140858D01*
X112694744Y-142117197D01*
X112700556Y-142093993D01*
X112708614Y-142071471D01*
X112718842Y-142049847D01*
X112731139Y-142029330D01*
X112745389Y-142010117D01*
X112761453Y-141992393D01*
X112779177Y-141976329D01*
X112798390Y-141962079D01*
X112818907Y-141949782D01*
X112840531Y-141939554D01*
X112863053Y-141931496D01*
X112886257Y-141925684D01*
X112909918Y-141922174D01*
X112933810Y-141921000D01*
X113421310Y-141921000D01*
X113445202Y-141922174D01*
X113445202Y-141922174D01*
G37*
D20*
G04 #@! TD*
G04 #@! TO.P,R2,2*
G04 #@! TO.N,GND*
X113177560Y-142621000D03*
D19*
G04 #@! TO.N,GND*
G04 #@! TO.C,R3*
G36*
X113346142Y-134810174D02*
X113369803Y-134813684D01*
X113393007Y-134819496D01*
X113415529Y-134827554D01*
X113437153Y-134837782D01*
X113457670Y-134850079D01*
X113476883Y-134864329D01*
X113494607Y-134880393D01*
X113510671Y-134898117D01*
X113524921Y-134917330D01*
X113537218Y-134937847D01*
X113547446Y-134959471D01*
X113555504Y-134981993D01*
X113561316Y-135005197D01*
X113564826Y-135028858D01*
X113566000Y-135052750D01*
X113566000Y-135965250D01*
X113564826Y-135989142D01*
X113561316Y-136012803D01*
X113555504Y-136036007D01*
X113547446Y-136058529D01*
X113537218Y-136080153D01*
X113524921Y-136100670D01*
X113510671Y-136119883D01*
X113494607Y-136137607D01*
X113476883Y-136153671D01*
X113457670Y-136167921D01*
X113437153Y-136180218D01*
X113415529Y-136190446D01*
X113393007Y-136198504D01*
X113369803Y-136204316D01*
X113346142Y-136207826D01*
X113322250Y-136209000D01*
X112834750Y-136209000D01*
X112810858Y-136207826D01*
X112787197Y-136204316D01*
X112763993Y-136198504D01*
X112741471Y-136190446D01*
X112719847Y-136180218D01*
X112699330Y-136167921D01*
X112680117Y-136153671D01*
X112662393Y-136137607D01*
X112646329Y-136119883D01*
X112632079Y-136100670D01*
X112619782Y-136080153D01*
X112609554Y-136058529D01*
X112601496Y-136036007D01*
X112595684Y-136012803D01*
X112592174Y-135989142D01*
X112591000Y-135965250D01*
X112591000Y-135052750D01*
X112592174Y-135028858D01*
X112595684Y-135005197D01*
X112601496Y-134981993D01*
X112609554Y-134959471D01*
X112619782Y-134937847D01*
X112632079Y-134917330D01*
X112646329Y-134898117D01*
X112662393Y-134880393D01*
X112680117Y-134864329D01*
X112699330Y-134850079D01*
X112719847Y-134837782D01*
X112741471Y-134827554D01*
X112763993Y-134819496D01*
X112787197Y-134813684D01*
X112810858Y-134810174D01*
X112834750Y-134809000D01*
X113322250Y-134809000D01*
X113346142Y-134810174D01*
X113346142Y-134810174D01*
G37*
D20*
G04 #@! TD*
G04 #@! TO.P,R3,2*
G04 #@! TO.N,GND*
X113078500Y-135509000D03*
D19*
G04 #@! TO.N,Net-(R3-Pad1)*
G04 #@! TO.C,R3*
G36*
X111471142Y-134810174D02*
X111494803Y-134813684D01*
X111518007Y-134819496D01*
X111540529Y-134827554D01*
X111562153Y-134837782D01*
X111582670Y-134850079D01*
X111601883Y-134864329D01*
X111619607Y-134880393D01*
X111635671Y-134898117D01*
X111649921Y-134917330D01*
X111662218Y-134937847D01*
X111672446Y-134959471D01*
X111680504Y-134981993D01*
X111686316Y-135005197D01*
X111689826Y-135028858D01*
X111691000Y-135052750D01*
X111691000Y-135965250D01*
X111689826Y-135989142D01*
X111686316Y-136012803D01*
X111680504Y-136036007D01*
X111672446Y-136058529D01*
X111662218Y-136080153D01*
X111649921Y-136100670D01*
X111635671Y-136119883D01*
X111619607Y-136137607D01*
X111601883Y-136153671D01*
X111582670Y-136167921D01*
X111562153Y-136180218D01*
X111540529Y-136190446D01*
X111518007Y-136198504D01*
X111494803Y-136204316D01*
X111471142Y-136207826D01*
X111447250Y-136209000D01*
X110959750Y-136209000D01*
X110935858Y-136207826D01*
X110912197Y-136204316D01*
X110888993Y-136198504D01*
X110866471Y-136190446D01*
X110844847Y-136180218D01*
X110824330Y-136167921D01*
X110805117Y-136153671D01*
X110787393Y-136137607D01*
X110771329Y-136119883D01*
X110757079Y-136100670D01*
X110744782Y-136080153D01*
X110734554Y-136058529D01*
X110726496Y-136036007D01*
X110720684Y-136012803D01*
X110717174Y-135989142D01*
X110716000Y-135965250D01*
X110716000Y-135052750D01*
X110717174Y-135028858D01*
X110720684Y-135005197D01*
X110726496Y-134981993D01*
X110734554Y-134959471D01*
X110744782Y-134937847D01*
X110757079Y-134917330D01*
X110771329Y-134898117D01*
X110787393Y-134880393D01*
X110805117Y-134864329D01*
X110824330Y-134850079D01*
X110844847Y-134837782D01*
X110866471Y-134827554D01*
X110888993Y-134819496D01*
X110912197Y-134813684D01*
X110935858Y-134810174D01*
X110959750Y-134809000D01*
X111447250Y-134809000D01*
X111471142Y-134810174D01*
X111471142Y-134810174D01*
G37*
D20*
G04 #@! TD*
G04 #@! TO.P,R3,1*
G04 #@! TO.N,Net-(R3-Pad1)*
X111203500Y-135509000D03*
D19*
G04 #@! TO.N,/VBatt*
G04 #@! TO.C,R4*
G36*
X104110222Y-103057634D02*
X104133883Y-103061144D01*
X104157087Y-103066956D01*
X104179609Y-103075014D01*
X104201233Y-103085242D01*
X104221750Y-103097539D01*
X104240963Y-103111789D01*
X104258687Y-103127853D01*
X104274751Y-103145577D01*
X104289001Y-103164790D01*
X104301298Y-103185307D01*
X104311526Y-103206931D01*
X104319584Y-103229453D01*
X104325396Y-103252657D01*
X104328906Y-103276318D01*
X104330080Y-103300210D01*
X104330080Y-104212710D01*
X104328906Y-104236602D01*
X104325396Y-104260263D01*
X104319584Y-104283467D01*
X104311526Y-104305989D01*
X104301298Y-104327613D01*
X104289001Y-104348130D01*
X104274751Y-104367343D01*
X104258687Y-104385067D01*
X104240963Y-104401131D01*
X104221750Y-104415381D01*
X104201233Y-104427678D01*
X104179609Y-104437906D01*
X104157087Y-104445964D01*
X104133883Y-104451776D01*
X104110222Y-104455286D01*
X104086330Y-104456460D01*
X103598830Y-104456460D01*
X103574938Y-104455286D01*
X103551277Y-104451776D01*
X103528073Y-104445964D01*
X103505551Y-104437906D01*
X103483927Y-104427678D01*
X103463410Y-104415381D01*
X103444197Y-104401131D01*
X103426473Y-104385067D01*
X103410409Y-104367343D01*
X103396159Y-104348130D01*
X103383862Y-104327613D01*
X103373634Y-104305989D01*
X103365576Y-104283467D01*
X103359764Y-104260263D01*
X103356254Y-104236602D01*
X103355080Y-104212710D01*
X103355080Y-103300210D01*
X103356254Y-103276318D01*
X103359764Y-103252657D01*
X103365576Y-103229453D01*
X103373634Y-103206931D01*
X103383862Y-103185307D01*
X103396159Y-103164790D01*
X103410409Y-103145577D01*
X103426473Y-103127853D01*
X103444197Y-103111789D01*
X103463410Y-103097539D01*
X103483927Y-103085242D01*
X103505551Y-103075014D01*
X103528073Y-103066956D01*
X103551277Y-103061144D01*
X103574938Y-103057634D01*
X103598830Y-103056460D01*
X104086330Y-103056460D01*
X104110222Y-103057634D01*
X104110222Y-103057634D01*
G37*
D20*
G04 #@! TD*
G04 #@! TO.P,R4,1*
G04 #@! TO.N,/VBatt*
X103842580Y-103756460D03*
D19*
G04 #@! TO.N,/P0.31*
G04 #@! TO.C,R4*
G36*
X105985222Y-103057634D02*
X106008883Y-103061144D01*
X106032087Y-103066956D01*
X106054609Y-103075014D01*
X106076233Y-103085242D01*
X106096750Y-103097539D01*
X106115963Y-103111789D01*
X106133687Y-103127853D01*
X106149751Y-103145577D01*
X106164001Y-103164790D01*
X106176298Y-103185307D01*
X106186526Y-103206931D01*
X106194584Y-103229453D01*
X106200396Y-103252657D01*
X106203906Y-103276318D01*
X106205080Y-103300210D01*
X106205080Y-104212710D01*
X106203906Y-104236602D01*
X106200396Y-104260263D01*
X106194584Y-104283467D01*
X106186526Y-104305989D01*
X106176298Y-104327613D01*
X106164001Y-104348130D01*
X106149751Y-104367343D01*
X106133687Y-104385067D01*
X106115963Y-104401131D01*
X106096750Y-104415381D01*
X106076233Y-104427678D01*
X106054609Y-104437906D01*
X106032087Y-104445964D01*
X106008883Y-104451776D01*
X105985222Y-104455286D01*
X105961330Y-104456460D01*
X105473830Y-104456460D01*
X105449938Y-104455286D01*
X105426277Y-104451776D01*
X105403073Y-104445964D01*
X105380551Y-104437906D01*
X105358927Y-104427678D01*
X105338410Y-104415381D01*
X105319197Y-104401131D01*
X105301473Y-104385067D01*
X105285409Y-104367343D01*
X105271159Y-104348130D01*
X105258862Y-104327613D01*
X105248634Y-104305989D01*
X105240576Y-104283467D01*
X105234764Y-104260263D01*
X105231254Y-104236602D01*
X105230080Y-104212710D01*
X105230080Y-103300210D01*
X105231254Y-103276318D01*
X105234764Y-103252657D01*
X105240576Y-103229453D01*
X105248634Y-103206931D01*
X105258862Y-103185307D01*
X105271159Y-103164790D01*
X105285409Y-103145577D01*
X105301473Y-103127853D01*
X105319197Y-103111789D01*
X105338410Y-103097539D01*
X105358927Y-103085242D01*
X105380551Y-103075014D01*
X105403073Y-103066956D01*
X105426277Y-103061144D01*
X105449938Y-103057634D01*
X105473830Y-103056460D01*
X105961330Y-103056460D01*
X105985222Y-103057634D01*
X105985222Y-103057634D01*
G37*
D20*
G04 #@! TD*
G04 #@! TO.P,R4,2*
G04 #@! TO.N,/P0.31*
X105717580Y-103756460D03*
D19*
G04 #@! TO.N,/P0.31*
G04 #@! TO.C,R5*
G36*
X111295642Y-103060174D02*
X111319303Y-103063684D01*
X111342507Y-103069496D01*
X111365029Y-103077554D01*
X111386653Y-103087782D01*
X111407170Y-103100079D01*
X111426383Y-103114329D01*
X111444107Y-103130393D01*
X111460171Y-103148117D01*
X111474421Y-103167330D01*
X111486718Y-103187847D01*
X111496946Y-103209471D01*
X111505004Y-103231993D01*
X111510816Y-103255197D01*
X111514326Y-103278858D01*
X111515500Y-103302750D01*
X111515500Y-104215250D01*
X111514326Y-104239142D01*
X111510816Y-104262803D01*
X111505004Y-104286007D01*
X111496946Y-104308529D01*
X111486718Y-104330153D01*
X111474421Y-104350670D01*
X111460171Y-104369883D01*
X111444107Y-104387607D01*
X111426383Y-104403671D01*
X111407170Y-104417921D01*
X111386653Y-104430218D01*
X111365029Y-104440446D01*
X111342507Y-104448504D01*
X111319303Y-104454316D01*
X111295642Y-104457826D01*
X111271750Y-104459000D01*
X110784250Y-104459000D01*
X110760358Y-104457826D01*
X110736697Y-104454316D01*
X110713493Y-104448504D01*
X110690971Y-104440446D01*
X110669347Y-104430218D01*
X110648830Y-104417921D01*
X110629617Y-104403671D01*
X110611893Y-104387607D01*
X110595829Y-104369883D01*
X110581579Y-104350670D01*
X110569282Y-104330153D01*
X110559054Y-104308529D01*
X110550996Y-104286007D01*
X110545184Y-104262803D01*
X110541674Y-104239142D01*
X110540500Y-104215250D01*
X110540500Y-103302750D01*
X110541674Y-103278858D01*
X110545184Y-103255197D01*
X110550996Y-103231993D01*
X110559054Y-103209471D01*
X110569282Y-103187847D01*
X110581579Y-103167330D01*
X110595829Y-103148117D01*
X110611893Y-103130393D01*
X110629617Y-103114329D01*
X110648830Y-103100079D01*
X110669347Y-103087782D01*
X110690971Y-103077554D01*
X110713493Y-103069496D01*
X110736697Y-103063684D01*
X110760358Y-103060174D01*
X110784250Y-103059000D01*
X111271750Y-103059000D01*
X111295642Y-103060174D01*
X111295642Y-103060174D01*
G37*
D20*
G04 #@! TD*
G04 #@! TO.P,R5,1*
G04 #@! TO.N,/P0.31*
X111028000Y-103759000D03*
D19*
G04 #@! TO.N,GND*
G04 #@! TO.C,R5*
G36*
X113170642Y-103060174D02*
X113194303Y-103063684D01*
X113217507Y-103069496D01*
X113240029Y-103077554D01*
X113261653Y-103087782D01*
X113282170Y-103100079D01*
X113301383Y-103114329D01*
X113319107Y-103130393D01*
X113335171Y-103148117D01*
X113349421Y-103167330D01*
X113361718Y-103187847D01*
X113371946Y-103209471D01*
X113380004Y-103231993D01*
X113385816Y-103255197D01*
X113389326Y-103278858D01*
X113390500Y-103302750D01*
X113390500Y-104215250D01*
X113389326Y-104239142D01*
X113385816Y-104262803D01*
X113380004Y-104286007D01*
X113371946Y-104308529D01*
X113361718Y-104330153D01*
X113349421Y-104350670D01*
X113335171Y-104369883D01*
X113319107Y-104387607D01*
X113301383Y-104403671D01*
X113282170Y-104417921D01*
X113261653Y-104430218D01*
X113240029Y-104440446D01*
X113217507Y-104448504D01*
X113194303Y-104454316D01*
X113170642Y-104457826D01*
X113146750Y-104459000D01*
X112659250Y-104459000D01*
X112635358Y-104457826D01*
X112611697Y-104454316D01*
X112588493Y-104448504D01*
X112565971Y-104440446D01*
X112544347Y-104430218D01*
X112523830Y-104417921D01*
X112504617Y-104403671D01*
X112486893Y-104387607D01*
X112470829Y-104369883D01*
X112456579Y-104350670D01*
X112444282Y-104330153D01*
X112434054Y-104308529D01*
X112425996Y-104286007D01*
X112420184Y-104262803D01*
X112416674Y-104239142D01*
X112415500Y-104215250D01*
X112415500Y-103302750D01*
X112416674Y-103278858D01*
X112420184Y-103255197D01*
X112425996Y-103231993D01*
X112434054Y-103209471D01*
X112444282Y-103187847D01*
X112456579Y-103167330D01*
X112470829Y-103148117D01*
X112486893Y-103130393D01*
X112504617Y-103114329D01*
X112523830Y-103100079D01*
X112544347Y-103087782D01*
X112565971Y-103077554D01*
X112588493Y-103069496D01*
X112611697Y-103063684D01*
X112635358Y-103060174D01*
X112659250Y-103059000D01*
X113146750Y-103059000D01*
X113170642Y-103060174D01*
X113170642Y-103060174D01*
G37*
D20*
G04 #@! TD*
G04 #@! TO.P,R5,2*
G04 #@! TO.N,GND*
X112903000Y-103759000D03*
D19*
G04 #@! TO.N,RXD*
G04 #@! TO.C,R6*
G36*
X105326642Y-144335174D02*
X105350303Y-144338684D01*
X105373507Y-144344496D01*
X105396029Y-144352554D01*
X105417653Y-144362782D01*
X105438170Y-144375079D01*
X105457383Y-144389329D01*
X105475107Y-144405393D01*
X105491171Y-144423117D01*
X105505421Y-144442330D01*
X105517718Y-144462847D01*
X105527946Y-144484471D01*
X105536004Y-144506993D01*
X105541816Y-144530197D01*
X105545326Y-144553858D01*
X105546500Y-144577750D01*
X105546500Y-145490250D01*
X105545326Y-145514142D01*
X105541816Y-145537803D01*
X105536004Y-145561007D01*
X105527946Y-145583529D01*
X105517718Y-145605153D01*
X105505421Y-145625670D01*
X105491171Y-145644883D01*
X105475107Y-145662607D01*
X105457383Y-145678671D01*
X105438170Y-145692921D01*
X105417653Y-145705218D01*
X105396029Y-145715446D01*
X105373507Y-145723504D01*
X105350303Y-145729316D01*
X105326642Y-145732826D01*
X105302750Y-145734000D01*
X104815250Y-145734000D01*
X104791358Y-145732826D01*
X104767697Y-145729316D01*
X104744493Y-145723504D01*
X104721971Y-145715446D01*
X104700347Y-145705218D01*
X104679830Y-145692921D01*
X104660617Y-145678671D01*
X104642893Y-145662607D01*
X104626829Y-145644883D01*
X104612579Y-145625670D01*
X104600282Y-145605153D01*
X104590054Y-145583529D01*
X104581996Y-145561007D01*
X104576184Y-145537803D01*
X104572674Y-145514142D01*
X104571500Y-145490250D01*
X104571500Y-144577750D01*
X104572674Y-144553858D01*
X104576184Y-144530197D01*
X104581996Y-144506993D01*
X104590054Y-144484471D01*
X104600282Y-144462847D01*
X104612579Y-144442330D01*
X104626829Y-144423117D01*
X104642893Y-144405393D01*
X104660617Y-144389329D01*
X104679830Y-144375079D01*
X104700347Y-144362782D01*
X104721971Y-144352554D01*
X104744493Y-144344496D01*
X104767697Y-144338684D01*
X104791358Y-144335174D01*
X104815250Y-144334000D01*
X105302750Y-144334000D01*
X105326642Y-144335174D01*
X105326642Y-144335174D01*
G37*
D20*
G04 #@! TD*
G04 #@! TO.P,R6,1*
G04 #@! TO.N,RXD*
X105059000Y-145034000D03*
D19*
G04 #@! TO.N,Net-(R6-Pad2)*
G04 #@! TO.C,R6*
G36*
X107201642Y-144335174D02*
X107225303Y-144338684D01*
X107248507Y-144344496D01*
X107271029Y-144352554D01*
X107292653Y-144362782D01*
X107313170Y-144375079D01*
X107332383Y-144389329D01*
X107350107Y-144405393D01*
X107366171Y-144423117D01*
X107380421Y-144442330D01*
X107392718Y-144462847D01*
X107402946Y-144484471D01*
X107411004Y-144506993D01*
X107416816Y-144530197D01*
X107420326Y-144553858D01*
X107421500Y-144577750D01*
X107421500Y-145490250D01*
X107420326Y-145514142D01*
X107416816Y-145537803D01*
X107411004Y-145561007D01*
X107402946Y-145583529D01*
X107392718Y-145605153D01*
X107380421Y-145625670D01*
X107366171Y-145644883D01*
X107350107Y-145662607D01*
X107332383Y-145678671D01*
X107313170Y-145692921D01*
X107292653Y-145705218D01*
X107271029Y-145715446D01*
X107248507Y-145723504D01*
X107225303Y-145729316D01*
X107201642Y-145732826D01*
X107177750Y-145734000D01*
X106690250Y-145734000D01*
X106666358Y-145732826D01*
X106642697Y-145729316D01*
X106619493Y-145723504D01*
X106596971Y-145715446D01*
X106575347Y-145705218D01*
X106554830Y-145692921D01*
X106535617Y-145678671D01*
X106517893Y-145662607D01*
X106501829Y-145644883D01*
X106487579Y-145625670D01*
X106475282Y-145605153D01*
X106465054Y-145583529D01*
X106456996Y-145561007D01*
X106451184Y-145537803D01*
X106447674Y-145514142D01*
X106446500Y-145490250D01*
X106446500Y-144577750D01*
X106447674Y-144553858D01*
X106451184Y-144530197D01*
X106456996Y-144506993D01*
X106465054Y-144484471D01*
X106475282Y-144462847D01*
X106487579Y-144442330D01*
X106501829Y-144423117D01*
X106517893Y-144405393D01*
X106535617Y-144389329D01*
X106554830Y-144375079D01*
X106575347Y-144362782D01*
X106596971Y-144352554D01*
X106619493Y-144344496D01*
X106642697Y-144338684D01*
X106666358Y-144335174D01*
X106690250Y-144334000D01*
X107177750Y-144334000D01*
X107201642Y-144335174D01*
X107201642Y-144335174D01*
G37*
D20*
G04 #@! TD*
G04 #@! TO.P,R6,2*
G04 #@! TO.N,Net-(R6-Pad2)*
X106934000Y-145034000D03*
D22*
G04 #@! TO.P,U3,1*
G04 #@! TO.N,Net-(C5-Pad1)*
X106868000Y-128100000D03*
G04 #@! TO.P,U3,2*
G04 #@! TO.N,GND*
X105918000Y-128100000D03*
G04 #@! TO.P,U3,3*
G04 #@! TO.N,Net-(C5-Pad1)*
X104968000Y-128100000D03*
G04 #@! TO.P,U3,4*
G04 #@! TO.N,N/C*
X104968000Y-125900000D03*
G04 #@! TO.P,U3,5*
G04 #@! TO.N,VCC*
X106868000Y-125900000D03*
G04 #@! TD*
D19*
G04 #@! TO.N,GND*
G04 #@! TO.C,D4*
G36*
X111732142Y-105256174D02*
X111755803Y-105259684D01*
X111779007Y-105265496D01*
X111801529Y-105273554D01*
X111823153Y-105283782D01*
X111843670Y-105296079D01*
X111862883Y-105310329D01*
X111880607Y-105326393D01*
X111896671Y-105344117D01*
X111910921Y-105363330D01*
X111923218Y-105383847D01*
X111933446Y-105405471D01*
X111941504Y-105427993D01*
X111947316Y-105451197D01*
X111950826Y-105474858D01*
X111952000Y-105498750D01*
X111952000Y-105986250D01*
X111950826Y-106010142D01*
X111947316Y-106033803D01*
X111941504Y-106057007D01*
X111933446Y-106079529D01*
X111923218Y-106101153D01*
X111910921Y-106121670D01*
X111896671Y-106140883D01*
X111880607Y-106158607D01*
X111862883Y-106174671D01*
X111843670Y-106188921D01*
X111823153Y-106201218D01*
X111801529Y-106211446D01*
X111779007Y-106219504D01*
X111755803Y-106225316D01*
X111732142Y-106228826D01*
X111708250Y-106230000D01*
X110795750Y-106230000D01*
X110771858Y-106228826D01*
X110748197Y-106225316D01*
X110724993Y-106219504D01*
X110702471Y-106211446D01*
X110680847Y-106201218D01*
X110660330Y-106188921D01*
X110641117Y-106174671D01*
X110623393Y-106158607D01*
X110607329Y-106140883D01*
X110593079Y-106121670D01*
X110580782Y-106101153D01*
X110570554Y-106079529D01*
X110562496Y-106057007D01*
X110556684Y-106033803D01*
X110553174Y-106010142D01*
X110552000Y-105986250D01*
X110552000Y-105498750D01*
X110553174Y-105474858D01*
X110556684Y-105451197D01*
X110562496Y-105427993D01*
X110570554Y-105405471D01*
X110580782Y-105383847D01*
X110593079Y-105363330D01*
X110607329Y-105344117D01*
X110623393Y-105326393D01*
X110641117Y-105310329D01*
X110660330Y-105296079D01*
X110680847Y-105283782D01*
X110702471Y-105273554D01*
X110724993Y-105265496D01*
X110748197Y-105259684D01*
X110771858Y-105256174D01*
X110795750Y-105255000D01*
X111708250Y-105255000D01*
X111732142Y-105256174D01*
X111732142Y-105256174D01*
G37*
D20*
G04 #@! TD*
G04 #@! TO.P,D4,1*
G04 #@! TO.N,GND*
X111252000Y-105742500D03*
D19*
G04 #@! TO.N,Net-(D4-Pad2)*
G04 #@! TO.C,D4*
G36*
X111732142Y-107131174D02*
X111755803Y-107134684D01*
X111779007Y-107140496D01*
X111801529Y-107148554D01*
X111823153Y-107158782D01*
X111843670Y-107171079D01*
X111862883Y-107185329D01*
X111880607Y-107201393D01*
X111896671Y-107219117D01*
X111910921Y-107238330D01*
X111923218Y-107258847D01*
X111933446Y-107280471D01*
X111941504Y-107302993D01*
X111947316Y-107326197D01*
X111950826Y-107349858D01*
X111952000Y-107373750D01*
X111952000Y-107861250D01*
X111950826Y-107885142D01*
X111947316Y-107908803D01*
X111941504Y-107932007D01*
X111933446Y-107954529D01*
X111923218Y-107976153D01*
X111910921Y-107996670D01*
X111896671Y-108015883D01*
X111880607Y-108033607D01*
X111862883Y-108049671D01*
X111843670Y-108063921D01*
X111823153Y-108076218D01*
X111801529Y-108086446D01*
X111779007Y-108094504D01*
X111755803Y-108100316D01*
X111732142Y-108103826D01*
X111708250Y-108105000D01*
X110795750Y-108105000D01*
X110771858Y-108103826D01*
X110748197Y-108100316D01*
X110724993Y-108094504D01*
X110702471Y-108086446D01*
X110680847Y-108076218D01*
X110660330Y-108063921D01*
X110641117Y-108049671D01*
X110623393Y-108033607D01*
X110607329Y-108015883D01*
X110593079Y-107996670D01*
X110580782Y-107976153D01*
X110570554Y-107954529D01*
X110562496Y-107932007D01*
X110556684Y-107908803D01*
X110553174Y-107885142D01*
X110552000Y-107861250D01*
X110552000Y-107373750D01*
X110553174Y-107349858D01*
X110556684Y-107326197D01*
X110562496Y-107302993D01*
X110570554Y-107280471D01*
X110580782Y-107258847D01*
X110593079Y-107238330D01*
X110607329Y-107219117D01*
X110623393Y-107201393D01*
X110641117Y-107185329D01*
X110660330Y-107171079D01*
X110680847Y-107158782D01*
X110702471Y-107148554D01*
X110724993Y-107140496D01*
X110748197Y-107134684D01*
X110771858Y-107131174D01*
X110795750Y-107130000D01*
X111708250Y-107130000D01*
X111732142Y-107131174D01*
X111732142Y-107131174D01*
G37*
D20*
G04 #@! TD*
G04 #@! TO.P,D4,2*
G04 #@! TO.N,Net-(D4-Pad2)*
X111252000Y-107617500D03*
D19*
G04 #@! TO.N,Net-(D5-Pad2)*
G04 #@! TO.C,D5*
G36*
X114018142Y-107131174D02*
X114041803Y-107134684D01*
X114065007Y-107140496D01*
X114087529Y-107148554D01*
X114109153Y-107158782D01*
X114129670Y-107171079D01*
X114148883Y-107185329D01*
X114166607Y-107201393D01*
X114182671Y-107219117D01*
X114196921Y-107238330D01*
X114209218Y-107258847D01*
X114219446Y-107280471D01*
X114227504Y-107302993D01*
X114233316Y-107326197D01*
X114236826Y-107349858D01*
X114238000Y-107373750D01*
X114238000Y-107861250D01*
X114236826Y-107885142D01*
X114233316Y-107908803D01*
X114227504Y-107932007D01*
X114219446Y-107954529D01*
X114209218Y-107976153D01*
X114196921Y-107996670D01*
X114182671Y-108015883D01*
X114166607Y-108033607D01*
X114148883Y-108049671D01*
X114129670Y-108063921D01*
X114109153Y-108076218D01*
X114087529Y-108086446D01*
X114065007Y-108094504D01*
X114041803Y-108100316D01*
X114018142Y-108103826D01*
X113994250Y-108105000D01*
X113081750Y-108105000D01*
X113057858Y-108103826D01*
X113034197Y-108100316D01*
X113010993Y-108094504D01*
X112988471Y-108086446D01*
X112966847Y-108076218D01*
X112946330Y-108063921D01*
X112927117Y-108049671D01*
X112909393Y-108033607D01*
X112893329Y-108015883D01*
X112879079Y-107996670D01*
X112866782Y-107976153D01*
X112856554Y-107954529D01*
X112848496Y-107932007D01*
X112842684Y-107908803D01*
X112839174Y-107885142D01*
X112838000Y-107861250D01*
X112838000Y-107373750D01*
X112839174Y-107349858D01*
X112842684Y-107326197D01*
X112848496Y-107302993D01*
X112856554Y-107280471D01*
X112866782Y-107258847D01*
X112879079Y-107238330D01*
X112893329Y-107219117D01*
X112909393Y-107201393D01*
X112927117Y-107185329D01*
X112946330Y-107171079D01*
X112966847Y-107158782D01*
X112988471Y-107148554D01*
X113010993Y-107140496D01*
X113034197Y-107134684D01*
X113057858Y-107131174D01*
X113081750Y-107130000D01*
X113994250Y-107130000D01*
X114018142Y-107131174D01*
X114018142Y-107131174D01*
G37*
D20*
G04 #@! TD*
G04 #@! TO.P,D5,2*
G04 #@! TO.N,Net-(D5-Pad2)*
X113538000Y-107617500D03*
D19*
G04 #@! TO.N,GND*
G04 #@! TO.C,D5*
G36*
X114018142Y-105256174D02*
X114041803Y-105259684D01*
X114065007Y-105265496D01*
X114087529Y-105273554D01*
X114109153Y-105283782D01*
X114129670Y-105296079D01*
X114148883Y-105310329D01*
X114166607Y-105326393D01*
X114182671Y-105344117D01*
X114196921Y-105363330D01*
X114209218Y-105383847D01*
X114219446Y-105405471D01*
X114227504Y-105427993D01*
X114233316Y-105451197D01*
X114236826Y-105474858D01*
X114238000Y-105498750D01*
X114238000Y-105986250D01*
X114236826Y-106010142D01*
X114233316Y-106033803D01*
X114227504Y-106057007D01*
X114219446Y-106079529D01*
X114209218Y-106101153D01*
X114196921Y-106121670D01*
X114182671Y-106140883D01*
X114166607Y-106158607D01*
X114148883Y-106174671D01*
X114129670Y-106188921D01*
X114109153Y-106201218D01*
X114087529Y-106211446D01*
X114065007Y-106219504D01*
X114041803Y-106225316D01*
X114018142Y-106228826D01*
X113994250Y-106230000D01*
X113081750Y-106230000D01*
X113057858Y-106228826D01*
X113034197Y-106225316D01*
X113010993Y-106219504D01*
X112988471Y-106211446D01*
X112966847Y-106201218D01*
X112946330Y-106188921D01*
X112927117Y-106174671D01*
X112909393Y-106158607D01*
X112893329Y-106140883D01*
X112879079Y-106121670D01*
X112866782Y-106101153D01*
X112856554Y-106079529D01*
X112848496Y-106057007D01*
X112842684Y-106033803D01*
X112839174Y-106010142D01*
X112838000Y-105986250D01*
X112838000Y-105498750D01*
X112839174Y-105474858D01*
X112842684Y-105451197D01*
X112848496Y-105427993D01*
X112856554Y-105405471D01*
X112866782Y-105383847D01*
X112879079Y-105363330D01*
X112893329Y-105344117D01*
X112909393Y-105326393D01*
X112927117Y-105310329D01*
X112946330Y-105296079D01*
X112966847Y-105283782D01*
X112988471Y-105273554D01*
X113010993Y-105265496D01*
X113034197Y-105259684D01*
X113057858Y-105256174D01*
X113081750Y-105255000D01*
X113994250Y-105255000D01*
X114018142Y-105256174D01*
X114018142Y-105256174D01*
G37*
D20*
G04 #@! TD*
G04 #@! TO.P,D5,1*
G04 #@! TO.N,GND*
X113538000Y-105742500D03*
D19*
G04 #@! TO.N,/LED2*
G04 #@! TO.C,R8*
G36*
X113727142Y-108521174D02*
X113750803Y-108524684D01*
X113774007Y-108530496D01*
X113796529Y-108538554D01*
X113818153Y-108548782D01*
X113838670Y-108561079D01*
X113857883Y-108575329D01*
X113875607Y-108591393D01*
X113891671Y-108609117D01*
X113905921Y-108628330D01*
X113918218Y-108648847D01*
X113928446Y-108670471D01*
X113936504Y-108692993D01*
X113942316Y-108716197D01*
X113945826Y-108739858D01*
X113947000Y-108763750D01*
X113947000Y-109676250D01*
X113945826Y-109700142D01*
X113942316Y-109723803D01*
X113936504Y-109747007D01*
X113928446Y-109769529D01*
X113918218Y-109791153D01*
X113905921Y-109811670D01*
X113891671Y-109830883D01*
X113875607Y-109848607D01*
X113857883Y-109864671D01*
X113838670Y-109878921D01*
X113818153Y-109891218D01*
X113796529Y-109901446D01*
X113774007Y-109909504D01*
X113750803Y-109915316D01*
X113727142Y-109918826D01*
X113703250Y-109920000D01*
X113215750Y-109920000D01*
X113191858Y-109918826D01*
X113168197Y-109915316D01*
X113144993Y-109909504D01*
X113122471Y-109901446D01*
X113100847Y-109891218D01*
X113080330Y-109878921D01*
X113061117Y-109864671D01*
X113043393Y-109848607D01*
X113027329Y-109830883D01*
X113013079Y-109811670D01*
X113000782Y-109791153D01*
X112990554Y-109769529D01*
X112982496Y-109747007D01*
X112976684Y-109723803D01*
X112973174Y-109700142D01*
X112972000Y-109676250D01*
X112972000Y-108763750D01*
X112973174Y-108739858D01*
X112976684Y-108716197D01*
X112982496Y-108692993D01*
X112990554Y-108670471D01*
X113000782Y-108648847D01*
X113013079Y-108628330D01*
X113027329Y-108609117D01*
X113043393Y-108591393D01*
X113061117Y-108575329D01*
X113080330Y-108561079D01*
X113100847Y-108548782D01*
X113122471Y-108538554D01*
X113144993Y-108530496D01*
X113168197Y-108524684D01*
X113191858Y-108521174D01*
X113215750Y-108520000D01*
X113703250Y-108520000D01*
X113727142Y-108521174D01*
X113727142Y-108521174D01*
G37*
D20*
G04 #@! TD*
G04 #@! TO.P,R8,1*
G04 #@! TO.N,/LED2*
X113459500Y-109220000D03*
D19*
G04 #@! TO.N,Net-(D4-Pad2)*
G04 #@! TO.C,R8*
G36*
X111852142Y-108521174D02*
X111875803Y-108524684D01*
X111899007Y-108530496D01*
X111921529Y-108538554D01*
X111943153Y-108548782D01*
X111963670Y-108561079D01*
X111982883Y-108575329D01*
X112000607Y-108591393D01*
X112016671Y-108609117D01*
X112030921Y-108628330D01*
X112043218Y-108648847D01*
X112053446Y-108670471D01*
X112061504Y-108692993D01*
X112067316Y-108716197D01*
X112070826Y-108739858D01*
X112072000Y-108763750D01*
X112072000Y-109676250D01*
X112070826Y-109700142D01*
X112067316Y-109723803D01*
X112061504Y-109747007D01*
X112053446Y-109769529D01*
X112043218Y-109791153D01*
X112030921Y-109811670D01*
X112016671Y-109830883D01*
X112000607Y-109848607D01*
X111982883Y-109864671D01*
X111963670Y-109878921D01*
X111943153Y-109891218D01*
X111921529Y-109901446D01*
X111899007Y-109909504D01*
X111875803Y-109915316D01*
X111852142Y-109918826D01*
X111828250Y-109920000D01*
X111340750Y-109920000D01*
X111316858Y-109918826D01*
X111293197Y-109915316D01*
X111269993Y-109909504D01*
X111247471Y-109901446D01*
X111225847Y-109891218D01*
X111205330Y-109878921D01*
X111186117Y-109864671D01*
X111168393Y-109848607D01*
X111152329Y-109830883D01*
X111138079Y-109811670D01*
X111125782Y-109791153D01*
X111115554Y-109769529D01*
X111107496Y-109747007D01*
X111101684Y-109723803D01*
X111098174Y-109700142D01*
X111097000Y-109676250D01*
X111097000Y-108763750D01*
X111098174Y-108739858D01*
X111101684Y-108716197D01*
X111107496Y-108692993D01*
X111115554Y-108670471D01*
X111125782Y-108648847D01*
X111138079Y-108628330D01*
X111152329Y-108609117D01*
X111168393Y-108591393D01*
X111186117Y-108575329D01*
X111205330Y-108561079D01*
X111225847Y-108548782D01*
X111247471Y-108538554D01*
X111269993Y-108530496D01*
X111293197Y-108524684D01*
X111316858Y-108521174D01*
X111340750Y-108520000D01*
X111828250Y-108520000D01*
X111852142Y-108521174D01*
X111852142Y-108521174D01*
G37*
D20*
G04 #@! TD*
G04 #@! TO.P,R8,2*
G04 #@! TO.N,Net-(D4-Pad2)*
X111584500Y-109220000D03*
D19*
G04 #@! TO.N,Net-(D5-Pad2)*
G04 #@! TO.C,R9*
G36*
X115796142Y-109574174D02*
X115819803Y-109577684D01*
X115843007Y-109583496D01*
X115865529Y-109591554D01*
X115887153Y-109601782D01*
X115907670Y-109614079D01*
X115926883Y-109628329D01*
X115944607Y-109644393D01*
X115960671Y-109662117D01*
X115974921Y-109681330D01*
X115987218Y-109701847D01*
X115997446Y-109723471D01*
X116005504Y-109745993D01*
X116011316Y-109769197D01*
X116014826Y-109792858D01*
X116016000Y-109816750D01*
X116016000Y-110304250D01*
X116014826Y-110328142D01*
X116011316Y-110351803D01*
X116005504Y-110375007D01*
X115997446Y-110397529D01*
X115987218Y-110419153D01*
X115974921Y-110439670D01*
X115960671Y-110458883D01*
X115944607Y-110476607D01*
X115926883Y-110492671D01*
X115907670Y-110506921D01*
X115887153Y-110519218D01*
X115865529Y-110529446D01*
X115843007Y-110537504D01*
X115819803Y-110543316D01*
X115796142Y-110546826D01*
X115772250Y-110548000D01*
X114859750Y-110548000D01*
X114835858Y-110546826D01*
X114812197Y-110543316D01*
X114788993Y-110537504D01*
X114766471Y-110529446D01*
X114744847Y-110519218D01*
X114724330Y-110506921D01*
X114705117Y-110492671D01*
X114687393Y-110476607D01*
X114671329Y-110458883D01*
X114657079Y-110439670D01*
X114644782Y-110419153D01*
X114634554Y-110397529D01*
X114626496Y-110375007D01*
X114620684Y-110351803D01*
X114617174Y-110328142D01*
X114616000Y-110304250D01*
X114616000Y-109816750D01*
X114617174Y-109792858D01*
X114620684Y-109769197D01*
X114626496Y-109745993D01*
X114634554Y-109723471D01*
X114644782Y-109701847D01*
X114657079Y-109681330D01*
X114671329Y-109662117D01*
X114687393Y-109644393D01*
X114705117Y-109628329D01*
X114724330Y-109614079D01*
X114744847Y-109601782D01*
X114766471Y-109591554D01*
X114788993Y-109583496D01*
X114812197Y-109577684D01*
X114835858Y-109574174D01*
X114859750Y-109573000D01*
X115772250Y-109573000D01*
X115796142Y-109574174D01*
X115796142Y-109574174D01*
G37*
D20*
G04 #@! TD*
G04 #@! TO.P,R9,2*
G04 #@! TO.N,Net-(D5-Pad2)*
X115316000Y-110060500D03*
D19*
G04 #@! TO.N,/LED1*
G04 #@! TO.C,R9*
G36*
X115796142Y-111449174D02*
X115819803Y-111452684D01*
X115843007Y-111458496D01*
X115865529Y-111466554D01*
X115887153Y-111476782D01*
X115907670Y-111489079D01*
X115926883Y-111503329D01*
X115944607Y-111519393D01*
X115960671Y-111537117D01*
X115974921Y-111556330D01*
X115987218Y-111576847D01*
X115997446Y-111598471D01*
X116005504Y-111620993D01*
X116011316Y-111644197D01*
X116014826Y-111667858D01*
X116016000Y-111691750D01*
X116016000Y-112179250D01*
X116014826Y-112203142D01*
X116011316Y-112226803D01*
X116005504Y-112250007D01*
X115997446Y-112272529D01*
X115987218Y-112294153D01*
X115974921Y-112314670D01*
X115960671Y-112333883D01*
X115944607Y-112351607D01*
X115926883Y-112367671D01*
X115907670Y-112381921D01*
X115887153Y-112394218D01*
X115865529Y-112404446D01*
X115843007Y-112412504D01*
X115819803Y-112418316D01*
X115796142Y-112421826D01*
X115772250Y-112423000D01*
X114859750Y-112423000D01*
X114835858Y-112421826D01*
X114812197Y-112418316D01*
X114788993Y-112412504D01*
X114766471Y-112404446D01*
X114744847Y-112394218D01*
X114724330Y-112381921D01*
X114705117Y-112367671D01*
X114687393Y-112351607D01*
X114671329Y-112333883D01*
X114657079Y-112314670D01*
X114644782Y-112294153D01*
X114634554Y-112272529D01*
X114626496Y-112250007D01*
X114620684Y-112226803D01*
X114617174Y-112203142D01*
X114616000Y-112179250D01*
X114616000Y-111691750D01*
X114617174Y-111667858D01*
X114620684Y-111644197D01*
X114626496Y-111620993D01*
X114634554Y-111598471D01*
X114644782Y-111576847D01*
X114657079Y-111556330D01*
X114671329Y-111537117D01*
X114687393Y-111519393D01*
X114705117Y-111503329D01*
X114724330Y-111489079D01*
X114744847Y-111476782D01*
X114766471Y-111466554D01*
X114788993Y-111458496D01*
X114812197Y-111452684D01*
X114835858Y-111449174D01*
X114859750Y-111448000D01*
X115772250Y-111448000D01*
X115796142Y-111449174D01*
X115796142Y-111449174D01*
G37*
D20*
G04 #@! TD*
G04 #@! TO.P,R9,1*
G04 #@! TO.N,/LED1*
X115316000Y-111935500D03*
D19*
G04 #@! TO.N,Net-(D6-Pad1)*
G04 #@! TO.C,D6*
G36*
X111471142Y-136588174D02*
X111494803Y-136591684D01*
X111518007Y-136597496D01*
X111540529Y-136605554D01*
X111562153Y-136615782D01*
X111582670Y-136628079D01*
X111601883Y-136642329D01*
X111619607Y-136658393D01*
X111635671Y-136676117D01*
X111649921Y-136695330D01*
X111662218Y-136715847D01*
X111672446Y-136737471D01*
X111680504Y-136759993D01*
X111686316Y-136783197D01*
X111689826Y-136806858D01*
X111691000Y-136830750D01*
X111691000Y-137743250D01*
X111689826Y-137767142D01*
X111686316Y-137790803D01*
X111680504Y-137814007D01*
X111672446Y-137836529D01*
X111662218Y-137858153D01*
X111649921Y-137878670D01*
X111635671Y-137897883D01*
X111619607Y-137915607D01*
X111601883Y-137931671D01*
X111582670Y-137945921D01*
X111562153Y-137958218D01*
X111540529Y-137968446D01*
X111518007Y-137976504D01*
X111494803Y-137982316D01*
X111471142Y-137985826D01*
X111447250Y-137987000D01*
X110959750Y-137987000D01*
X110935858Y-137985826D01*
X110912197Y-137982316D01*
X110888993Y-137976504D01*
X110866471Y-137968446D01*
X110844847Y-137958218D01*
X110824330Y-137945921D01*
X110805117Y-137931671D01*
X110787393Y-137915607D01*
X110771329Y-137897883D01*
X110757079Y-137878670D01*
X110744782Y-137858153D01*
X110734554Y-137836529D01*
X110726496Y-137814007D01*
X110720684Y-137790803D01*
X110717174Y-137767142D01*
X110716000Y-137743250D01*
X110716000Y-136830750D01*
X110717174Y-136806858D01*
X110720684Y-136783197D01*
X110726496Y-136759993D01*
X110734554Y-136737471D01*
X110744782Y-136715847D01*
X110757079Y-136695330D01*
X110771329Y-136676117D01*
X110787393Y-136658393D01*
X110805117Y-136642329D01*
X110824330Y-136628079D01*
X110844847Y-136615782D01*
X110866471Y-136605554D01*
X110888993Y-136597496D01*
X110912197Y-136591684D01*
X110935858Y-136588174D01*
X110959750Y-136587000D01*
X111447250Y-136587000D01*
X111471142Y-136588174D01*
X111471142Y-136588174D01*
G37*
D20*
G04 #@! TD*
G04 #@! TO.P,D6,1*
G04 #@! TO.N,Net-(D6-Pad1)*
X111203500Y-137287000D03*
D19*
G04 #@! TO.N,Net-(D6-Pad2)*
G04 #@! TO.C,D6*
G36*
X113346142Y-136588174D02*
X113369803Y-136591684D01*
X113393007Y-136597496D01*
X113415529Y-136605554D01*
X113437153Y-136615782D01*
X113457670Y-136628079D01*
X113476883Y-136642329D01*
X113494607Y-136658393D01*
X113510671Y-136676117D01*
X113524921Y-136695330D01*
X113537218Y-136715847D01*
X113547446Y-136737471D01*
X113555504Y-136759993D01*
X113561316Y-136783197D01*
X113564826Y-136806858D01*
X113566000Y-136830750D01*
X113566000Y-137743250D01*
X113564826Y-137767142D01*
X113561316Y-137790803D01*
X113555504Y-137814007D01*
X113547446Y-137836529D01*
X113537218Y-137858153D01*
X113524921Y-137878670D01*
X113510671Y-137897883D01*
X113494607Y-137915607D01*
X113476883Y-137931671D01*
X113457670Y-137945921D01*
X113437153Y-137958218D01*
X113415529Y-137968446D01*
X113393007Y-137976504D01*
X113369803Y-137982316D01*
X113346142Y-137985826D01*
X113322250Y-137987000D01*
X112834750Y-137987000D01*
X112810858Y-137985826D01*
X112787197Y-137982316D01*
X112763993Y-137976504D01*
X112741471Y-137968446D01*
X112719847Y-137958218D01*
X112699330Y-137945921D01*
X112680117Y-137931671D01*
X112662393Y-137915607D01*
X112646329Y-137897883D01*
X112632079Y-137878670D01*
X112619782Y-137858153D01*
X112609554Y-137836529D01*
X112601496Y-137814007D01*
X112595684Y-137790803D01*
X112592174Y-137767142D01*
X112591000Y-137743250D01*
X112591000Y-136830750D01*
X112592174Y-136806858D01*
X112595684Y-136783197D01*
X112601496Y-136759993D01*
X112609554Y-136737471D01*
X112619782Y-136715847D01*
X112632079Y-136695330D01*
X112646329Y-136676117D01*
X112662393Y-136658393D01*
X112680117Y-136642329D01*
X112699330Y-136628079D01*
X112719847Y-136615782D01*
X112741471Y-136605554D01*
X112763993Y-136597496D01*
X112787197Y-136591684D01*
X112810858Y-136588174D01*
X112834750Y-136587000D01*
X113322250Y-136587000D01*
X113346142Y-136588174D01*
X113346142Y-136588174D01*
G37*
D20*
G04 #@! TD*
G04 #@! TO.P,D6,2*
G04 #@! TO.N,Net-(D6-Pad2)*
X113078500Y-137287000D03*
D19*
G04 #@! TO.N,Net-(D6-Pad2)*
G04 #@! TO.C,R10*
G36*
X111598142Y-138366174D02*
X111621803Y-138369684D01*
X111645007Y-138375496D01*
X111667529Y-138383554D01*
X111689153Y-138393782D01*
X111709670Y-138406079D01*
X111728883Y-138420329D01*
X111746607Y-138436393D01*
X111762671Y-138454117D01*
X111776921Y-138473330D01*
X111789218Y-138493847D01*
X111799446Y-138515471D01*
X111807504Y-138537993D01*
X111813316Y-138561197D01*
X111816826Y-138584858D01*
X111818000Y-138608750D01*
X111818000Y-139521250D01*
X111816826Y-139545142D01*
X111813316Y-139568803D01*
X111807504Y-139592007D01*
X111799446Y-139614529D01*
X111789218Y-139636153D01*
X111776921Y-139656670D01*
X111762671Y-139675883D01*
X111746607Y-139693607D01*
X111728883Y-139709671D01*
X111709670Y-139723921D01*
X111689153Y-139736218D01*
X111667529Y-139746446D01*
X111645007Y-139754504D01*
X111621803Y-139760316D01*
X111598142Y-139763826D01*
X111574250Y-139765000D01*
X111086750Y-139765000D01*
X111062858Y-139763826D01*
X111039197Y-139760316D01*
X111015993Y-139754504D01*
X110993471Y-139746446D01*
X110971847Y-139736218D01*
X110951330Y-139723921D01*
X110932117Y-139709671D01*
X110914393Y-139693607D01*
X110898329Y-139675883D01*
X110884079Y-139656670D01*
X110871782Y-139636153D01*
X110861554Y-139614529D01*
X110853496Y-139592007D01*
X110847684Y-139568803D01*
X110844174Y-139545142D01*
X110843000Y-139521250D01*
X110843000Y-138608750D01*
X110844174Y-138584858D01*
X110847684Y-138561197D01*
X110853496Y-138537993D01*
X110861554Y-138515471D01*
X110871782Y-138493847D01*
X110884079Y-138473330D01*
X110898329Y-138454117D01*
X110914393Y-138436393D01*
X110932117Y-138420329D01*
X110951330Y-138406079D01*
X110971847Y-138393782D01*
X110993471Y-138383554D01*
X111015993Y-138375496D01*
X111039197Y-138369684D01*
X111062858Y-138366174D01*
X111086750Y-138365000D01*
X111574250Y-138365000D01*
X111598142Y-138366174D01*
X111598142Y-138366174D01*
G37*
D20*
G04 #@! TD*
G04 #@! TO.P,R10,1*
G04 #@! TO.N,Net-(D6-Pad2)*
X111330500Y-139065000D03*
D19*
G04 #@! TO.N,/VBus*
G04 #@! TO.C,R10*
G36*
X113473142Y-138366174D02*
X113496803Y-138369684D01*
X113520007Y-138375496D01*
X113542529Y-138383554D01*
X113564153Y-138393782D01*
X113584670Y-138406079D01*
X113603883Y-138420329D01*
X113621607Y-138436393D01*
X113637671Y-138454117D01*
X113651921Y-138473330D01*
X113664218Y-138493847D01*
X113674446Y-138515471D01*
X113682504Y-138537993D01*
X113688316Y-138561197D01*
X113691826Y-138584858D01*
X113693000Y-138608750D01*
X113693000Y-139521250D01*
X113691826Y-139545142D01*
X113688316Y-139568803D01*
X113682504Y-139592007D01*
X113674446Y-139614529D01*
X113664218Y-139636153D01*
X113651921Y-139656670D01*
X113637671Y-139675883D01*
X113621607Y-139693607D01*
X113603883Y-139709671D01*
X113584670Y-139723921D01*
X113564153Y-139736218D01*
X113542529Y-139746446D01*
X113520007Y-139754504D01*
X113496803Y-139760316D01*
X113473142Y-139763826D01*
X113449250Y-139765000D01*
X112961750Y-139765000D01*
X112937858Y-139763826D01*
X112914197Y-139760316D01*
X112890993Y-139754504D01*
X112868471Y-139746446D01*
X112846847Y-139736218D01*
X112826330Y-139723921D01*
X112807117Y-139709671D01*
X112789393Y-139693607D01*
X112773329Y-139675883D01*
X112759079Y-139656670D01*
X112746782Y-139636153D01*
X112736554Y-139614529D01*
X112728496Y-139592007D01*
X112722684Y-139568803D01*
X112719174Y-139545142D01*
X112718000Y-139521250D01*
X112718000Y-138608750D01*
X112719174Y-138584858D01*
X112722684Y-138561197D01*
X112728496Y-138537993D01*
X112736554Y-138515471D01*
X112746782Y-138493847D01*
X112759079Y-138473330D01*
X112773329Y-138454117D01*
X112789393Y-138436393D01*
X112807117Y-138420329D01*
X112826330Y-138406079D01*
X112846847Y-138393782D01*
X112868471Y-138383554D01*
X112890993Y-138375496D01*
X112914197Y-138369684D01*
X112937858Y-138366174D01*
X112961750Y-138365000D01*
X113449250Y-138365000D01*
X113473142Y-138366174D01*
X113473142Y-138366174D01*
G37*
D20*
G04 #@! TD*
G04 #@! TO.P,R10,2*
G04 #@! TO.N,/VBus*
X113205500Y-139065000D03*
D23*
G04 #@! TO.N,GND*
X101036120Y-120291860D03*
X103124000Y-100076000D03*
X102362000Y-100076000D03*
X109474000Y-100076000D03*
X116078000Y-100076000D03*
X116078000Y-98806000D03*
X109474000Y-98806000D03*
X103124000Y-98806000D03*
X102362000Y-98806000D03*
X105349378Y-105990890D03*
X104775000Y-114681000D03*
X113919000Y-135509000D03*
G04 #@! TO.N,Net-(C1-Pad1)*
X102235000Y-115062000D03*
G04 #@! TO.N,Net-(C2-Pad1)*
X102144164Y-117310340D03*
G04 #@! TO.N,VCC*
X104889300Y-116235480D03*
G04 #@! TO.N,SWDIO*
X116078000Y-106680000D03*
G04 #@! TO.N,Net-(L1-Pad2)*
X102402640Y-116265960D03*
G04 #@! TO.N,SCK*
X105671708Y-118579336D03*
G04 #@! TO.N,/P0.11*
X103740379Y-119196281D03*
G04 #@! TO.N,TXD*
X108567220Y-119136330D03*
X108313220Y-123855480D03*
G04 #@! TO.N,/P0.02*
X103525320Y-123639580D03*
G04 #@! TO.N,MOSI*
X104365728Y-118588588D03*
G04 #@! TO.N,MISO*
X105008691Y-117248951D03*
G04 #@! TO.N,/P0.15*
X116682210Y-116926346D03*
G04 #@! TO.N,/P0.16*
X116220410Y-116273078D03*
G04 #@! TO.N,SCL*
X112760760Y-110881160D03*
G04 #@! TO.N,/P0.27*
X113570969Y-111272954D03*
G04 #@! TO.N,/P0.29*
X114438623Y-114513360D03*
G04 #@! TO.N,/P0.07*
X117224186Y-120241060D03*
X115008660Y-119156480D03*
G04 #@! TO.N,Net-(C4-Pad1)*
X102486460Y-105666540D03*
G04 #@! TO.N,RESET*
X106088126Y-105683856D03*
G04 #@! TO.N,SWDCLK*
X110505169Y-108801370D03*
G04 #@! TO.N,RXD*
X104246772Y-144759772D03*
G04 #@! TO.N,SDA*
X112014000Y-110490000D03*
G04 #@! TO.N,/P0.28*
X113046387Y-112501842D03*
G04 #@! TO.N,/P0.30*
X113286055Y-113772011D03*
G04 #@! TO.N,/Data-*
X110443677Y-148255323D03*
X108726711Y-148273674D03*
G04 #@! TO.N,/VBus*
X108839000Y-145034000D03*
X105626752Y-135001000D03*
G04 #@! TO.N,/VBatt*
X107823000Y-128143000D03*
X107295927Y-124880706D03*
X107358265Y-132671735D03*
X114808000Y-145288000D03*
G04 #@! TO.N,Net-(R3-Pad1)*
X110236000Y-134874000D03*
G04 #@! TO.N,/DTR*
X108331000Y-142240000D03*
G04 #@! TO.N,Net-(R6-Pad2)*
X105921123Y-147830602D03*
G04 #@! TO.N,/P0.31*
X110109000Y-114005474D03*
G04 #@! TO.N,Net-(C10-Pad1)*
X109981996Y-145796000D03*
G04 #@! TO.N,Net-(C12-Pad1)*
X106553000Y-139476000D03*
G04 #@! TO.N,/LED2*
X116286116Y-111129751D03*
G04 #@! TO.N,/LED1*
X115951000Y-113284000D03*
G04 #@! TO.N,Net-(D6-Pad1)*
X110236000Y-137668000D03*
G04 #@! TD*
D24*
G04 #@! TO.N,GND*
X103469440Y-135511540D02*
X103469440Y-130382378D01*
X103469440Y-130382378D02*
X104151798Y-129700020D01*
X109689900Y-126771300D02*
X109689900Y-127175260D01*
X102362000Y-100076000D02*
X103124000Y-100076000D01*
X116078000Y-100076000D02*
X109474000Y-100076000D01*
X109474000Y-98806000D02*
X116078000Y-98806000D01*
X102362000Y-98806000D02*
X103124000Y-98806000D01*
X105649377Y-106290889D02*
X105349378Y-105990890D01*
X105976420Y-113240180D02*
X105976420Y-106617932D01*
X105976420Y-106617932D02*
X105649377Y-106290889D01*
D25*
X111252000Y-105742500D02*
X113538000Y-105742500D01*
X112903000Y-105107500D02*
X113538000Y-105742500D01*
X112903000Y-103759000D02*
X112903000Y-105107500D01*
X114465543Y-103202763D02*
X114801041Y-103538261D01*
X112903000Y-103759000D02*
X113459237Y-103202763D01*
X113459237Y-103202763D02*
X114465543Y-103202763D01*
X114801041Y-103538261D02*
X115001040Y-103738260D01*
D24*
X109689900Y-127673100D02*
X109689900Y-127175260D01*
D26*
X105976420Y-113240180D02*
X105976420Y-113352580D01*
X104848100Y-114681000D02*
X105976420Y-113552680D01*
X104775000Y-114681000D02*
X104848100Y-114681000D01*
D25*
X113157000Y-142354540D02*
X113177560Y-142333980D01*
X113157000Y-146431000D02*
X113157000Y-142354540D01*
X113286460Y-144526000D02*
X113192480Y-144432020D01*
X116840000Y-144526000D02*
X113286460Y-144526000D01*
X113177560Y-140258559D02*
X113127001Y-140208000D01*
X105918000Y-127370000D02*
X105918000Y-128100000D01*
X106112740Y-127175260D02*
X105918000Y-127370000D01*
X104497738Y-127175260D02*
X106172000Y-127175260D01*
X104151798Y-127521200D02*
X104497738Y-127175260D01*
X104151798Y-129700020D02*
X104151798Y-127521200D01*
X109689900Y-127175260D02*
X106172000Y-127175260D01*
X106172000Y-127175260D02*
X106112740Y-127175260D01*
X104608999Y-146216001D02*
X105624999Y-146216001D01*
X103759000Y-147066000D02*
X104608999Y-146216001D01*
X106377763Y-141526237D02*
X106934000Y-140970000D01*
X105846510Y-142057490D02*
X106377763Y-141526237D01*
X105846510Y-145994490D02*
X105846510Y-142057490D01*
X105624999Y-146216001D02*
X105846510Y-145994490D01*
X103469440Y-140849434D02*
X103469440Y-135511540D01*
X104621996Y-142001990D02*
X103469440Y-140849434D01*
X105791010Y-142001990D02*
X104621996Y-142001990D01*
X105846510Y-142057490D02*
X105791010Y-142001990D01*
X113177560Y-140870940D02*
X113205500Y-140843000D01*
X113177560Y-142621000D02*
X113177560Y-140870940D01*
X113634737Y-136065237D02*
X113078500Y-135509000D01*
X114046000Y-136476500D02*
X113634737Y-136065237D01*
X114046000Y-140002500D02*
X114046000Y-136476500D01*
X113205500Y-140843000D02*
X114046000Y-140002500D01*
X113078500Y-131953000D02*
X113078500Y-135509000D01*
D24*
X113078500Y-135509000D02*
X113078500Y-133731000D01*
X113919000Y-135509000D02*
X113078500Y-135509000D01*
G04 #@! TO.N,Net-(C1-Pad1)*
X103538020Y-113140500D02*
X103538020Y-110974500D01*
X103538020Y-110974500D02*
X103547540Y-110964980D01*
X103538020Y-113040500D02*
X103538020Y-113140500D01*
X103538020Y-113758980D02*
X102534999Y-114762001D01*
X103538020Y-113140500D02*
X103538020Y-113758980D01*
X102534999Y-114762001D02*
X102235000Y-115062000D01*
G04 #@! TO.N,Net-(C2-Pad1)*
X101609998Y-114761998D02*
X101609998Y-116776174D01*
X101844165Y-117010341D02*
X102144164Y-117310340D01*
X101673660Y-110625980D02*
X101673660Y-114698336D01*
X103494200Y-108930440D02*
X103369200Y-108930440D01*
X103369200Y-108930440D02*
X101673660Y-110625980D01*
X101609998Y-116776174D02*
X101844165Y-117010341D01*
X101673660Y-114698336D02*
X101609998Y-114761998D01*
D26*
G04 #@! TO.N,VCC*
X105313564Y-116235480D02*
X106474260Y-117396176D01*
X104889300Y-116235480D02*
X105313564Y-116235480D01*
D24*
X105976420Y-115740180D02*
X108285280Y-115740180D01*
X108285280Y-115740180D02*
X108325921Y-115780821D01*
D26*
X104889300Y-116235480D02*
X105481120Y-116235480D01*
X105481120Y-116235480D02*
X105976420Y-115740180D01*
D25*
X110954640Y-125900000D02*
X106868000Y-125900000D01*
X112229900Y-127175260D02*
X110954640Y-125900000D01*
D26*
X106474260Y-125506260D02*
X106868000Y-125900000D01*
X106474260Y-117396176D02*
X106474260Y-125506260D01*
D24*
G04 #@! TO.N,SWDIO*
X110604955Y-110381215D02*
X110470706Y-110246964D01*
X110861001Y-113745999D02*
X110604954Y-113489952D01*
X110670711Y-114536291D02*
X110861001Y-114346001D01*
X110604954Y-113489952D02*
X110604955Y-110381215D01*
X110861001Y-114346001D02*
X110861001Y-113745999D01*
X109880168Y-109656426D02*
X109880168Y-107235002D01*
X110435170Y-106680000D02*
X115653736Y-106680000D01*
X115653736Y-106680000D02*
X116078000Y-106680000D01*
X110670711Y-123654449D02*
X110670711Y-114536291D01*
X109689900Y-124635260D02*
X110670711Y-123654449D01*
X109880168Y-107235002D02*
X110435170Y-106680000D01*
X110470706Y-110246964D02*
X109880168Y-109656426D01*
G04 #@! TO.N,SCK*
X101854000Y-131826000D02*
X101600000Y-131826000D01*
G04 #@! TO.N,/P0.11*
X103440380Y-119496280D02*
X103740379Y-119196281D01*
X101600000Y-124206000D02*
X101600000Y-121336660D01*
X101600000Y-121336660D02*
X103440380Y-119496280D01*
G04 #@! TO.N,TXD*
X108313220Y-123855480D02*
X108313220Y-119390330D01*
X108313220Y-119390330D02*
X108567220Y-119136330D01*
G04 #@! TO.N,/P0.15*
X116982209Y-117226345D02*
X116682210Y-116926346D01*
X116840000Y-126746000D02*
X118299207Y-125286793D01*
X118299207Y-118543343D02*
X116982209Y-117226345D01*
X118299207Y-125286793D02*
X118299207Y-118543343D01*
G04 #@! TO.N,/P0.16*
X115920411Y-117494417D02*
X115920411Y-116573077D01*
X117849196Y-123196804D02*
X117849196Y-119423202D01*
X117849196Y-119423202D02*
X115920411Y-117494417D01*
X116840000Y-124206000D02*
X117849196Y-123196804D01*
X115920411Y-116573077D02*
X116220410Y-116273078D01*
G04 #@! TO.N,/P0.07*
X116093240Y-120241060D02*
X116799922Y-120241060D01*
X115008660Y-119156480D02*
X116093240Y-120241060D01*
X116799922Y-120241060D02*
X117224186Y-120241060D01*
G04 #@! TO.N,Net-(C4-Pad1)*
X103099200Y-105666540D02*
X102910724Y-105666540D01*
X103428160Y-106870500D02*
X103428160Y-105995500D01*
X102910724Y-105666540D02*
X102486460Y-105666540D01*
X103428160Y-105995500D02*
X103099200Y-105666540D01*
G04 #@! TO.N,RESET*
X101600000Y-147066000D02*
X101838340Y-147066000D01*
X108325921Y-113080821D02*
X107382988Y-112137888D01*
X107382988Y-112137888D02*
X107382988Y-106978718D01*
X107382988Y-106978718D02*
X106388125Y-105983855D01*
X106388125Y-105983855D02*
X106088126Y-105683856D01*
D25*
X104502763Y-143558237D02*
X105059000Y-143002000D01*
X102997000Y-145064000D02*
X104502763Y-143558237D01*
X101600000Y-147066000D02*
X102997000Y-145669000D01*
X102997000Y-145669000D02*
X102997000Y-145064000D01*
D24*
X105051840Y-105231481D02*
X105635751Y-105231481D01*
X101600000Y-147066000D02*
X99319080Y-144785080D01*
X104861897Y-105041538D02*
X105051840Y-105231481D01*
X102140738Y-105041538D02*
X104861897Y-105041538D01*
X99319080Y-107863196D02*
X102140738Y-105041538D01*
X99319080Y-144785080D02*
X99319080Y-107863196D01*
X105635751Y-105231481D02*
X105788127Y-105383857D01*
X105788127Y-105383857D02*
X106088126Y-105683856D01*
G04 #@! TO.N,SWDCLK*
X111120722Y-123526082D02*
X111120722Y-114722691D01*
X111054965Y-113303552D02*
X111054966Y-110194817D01*
X110505169Y-109645016D02*
X110505169Y-109225634D01*
X111120722Y-114722691D02*
X111311012Y-114532401D01*
X111311012Y-114532401D02*
X111311012Y-113559599D01*
X111311012Y-113559599D02*
X111054965Y-113303552D01*
X110505169Y-109225634D02*
X110505169Y-108801370D01*
X112229900Y-124635260D02*
X111120722Y-123526082D01*
X111054966Y-110194817D02*
X110920715Y-110060563D01*
X110920715Y-110060563D02*
X110505169Y-109645016D01*
D25*
G04 #@! TO.N,Net-(L1-Pad2)*
X102700060Y-116265960D02*
X103538020Y-115428000D01*
X102402640Y-116265960D02*
X102700060Y-116265960D01*
D24*
G04 #@! TO.N,SCK*
X105671708Y-119003600D02*
X105671708Y-118579336D01*
X105671708Y-120131752D02*
X105671708Y-119003600D01*
X105458701Y-120344759D02*
X105671708Y-120131752D01*
X105458701Y-123545159D02*
X105458701Y-120344759D01*
X105265749Y-123738109D02*
X105458701Y-123545159D01*
X105265749Y-124223251D02*
X105265749Y-123738109D01*
X103251312Y-126237688D02*
X105265749Y-124223251D01*
X102783640Y-127976697D02*
X103251312Y-127509025D01*
X102783640Y-128691714D02*
X102783640Y-127976697D01*
X102801301Y-129862625D02*
X102801301Y-128709375D01*
X102783640Y-130619500D02*
X102783640Y-129880286D01*
X102783640Y-129880286D02*
X102801301Y-129862625D01*
X103251312Y-127509025D02*
X103251312Y-126237688D01*
X102801301Y-128709375D02*
X102783640Y-128691714D01*
X101600000Y-131826000D02*
X101600000Y-131803140D01*
X101600000Y-131803140D02*
X102783640Y-130619500D01*
D25*
G04 #@! TO.N,RXD*
X104471500Y-145034000D02*
X104246772Y-144809272D01*
X104246772Y-144809272D02*
X104246772Y-144759772D01*
X105059000Y-145034000D02*
X104471500Y-145034000D01*
D24*
G04 #@! TO.N,Net-(C10-Pad1)*
X111150400Y-146827240D02*
X111150400Y-146509740D01*
G04 #@! TO.N,/P0.02*
X100398699Y-126169375D02*
X101160773Y-125407301D01*
X103225321Y-124293444D02*
X103225321Y-123939579D01*
X103225321Y-123939579D02*
X103525320Y-123639580D01*
X102111464Y-125407301D02*
X103225321Y-124293444D01*
X101160773Y-125407301D02*
X102111464Y-125407301D01*
X101600000Y-134366000D02*
X100398699Y-133164699D01*
X100398699Y-133164699D02*
X100398699Y-126169375D01*
G04 #@! TO.N,MOSI*
X101600000Y-126746000D02*
X101600000Y-126555176D01*
X104365728Y-119012852D02*
X104365728Y-118588588D01*
X104365728Y-123789448D02*
X104365728Y-119012852D01*
X101600000Y-126555176D02*
X104365728Y-123789448D01*
G04 #@! TO.N,MISO*
X105008691Y-117673215D02*
X105008691Y-117248951D01*
X102801301Y-127322625D02*
X102801301Y-125990286D01*
X104815738Y-122733831D02*
X105008691Y-122540878D01*
X105008691Y-122540878D02*
X105008691Y-117673215D01*
X102801301Y-125990286D02*
X104815738Y-123975849D01*
X101600000Y-128523926D02*
X102801301Y-127322625D01*
X101600000Y-129286000D02*
X101600000Y-128523926D01*
X104815738Y-123975849D02*
X104815738Y-122733831D01*
G04 #@! TO.N,SDA*
X114554000Y-138920618D02*
X114554000Y-130687158D01*
X114288666Y-130421825D02*
X114288666Y-121812146D01*
X111714001Y-110789999D02*
X112014000Y-110490000D01*
X114288666Y-121812146D02*
X111570733Y-119094213D01*
X111570733Y-119094213D02*
X111570733Y-114909091D01*
X116840000Y-141986000D02*
X115963701Y-141109701D01*
X114554000Y-130687158D02*
X114288666Y-130421825D01*
X115963701Y-141109701D02*
X115963701Y-140330319D01*
X111761023Y-113373199D02*
X111504976Y-113117152D01*
X111761023Y-114718801D02*
X111761023Y-113373199D01*
X111570733Y-114909091D02*
X111761023Y-114718801D01*
X115963701Y-140330319D02*
X114554000Y-138920618D01*
X111504976Y-113117152D02*
X111504976Y-110999024D01*
X111504976Y-110999024D02*
X111714001Y-110789999D01*
G04 #@! TO.N,SCL*
X112460761Y-111181159D02*
X112760760Y-110881160D01*
X115004011Y-137610011D02*
X115004011Y-130500758D01*
X112020744Y-118907813D02*
X112020744Y-115095491D01*
X114738677Y-130235424D02*
X114738677Y-121625746D01*
X114738677Y-121625746D02*
X112020744Y-118907813D01*
X111954987Y-111686933D02*
X112460761Y-111181159D01*
X112211034Y-114905201D02*
X112211034Y-113186799D01*
X116840000Y-139446000D02*
X115004011Y-137610011D01*
X112020744Y-115095491D02*
X112211034Y-114905201D01*
X115004011Y-130500758D02*
X114738677Y-130235424D01*
X111954987Y-112930752D02*
X111954987Y-111686933D01*
X112211034Y-113186799D02*
X111954987Y-112930752D01*
G04 #@! TO.N,/P0.27*
X112800043Y-111572953D02*
X113270970Y-111572953D01*
X115188688Y-130049025D02*
X115188688Y-121439346D01*
X112470755Y-118721413D02*
X112470755Y-115281891D01*
X112470755Y-115281891D02*
X112661045Y-115091601D01*
X112661045Y-113000399D02*
X112404998Y-112744352D01*
X116840000Y-136906000D02*
X115454022Y-135520022D01*
X112404998Y-112744352D02*
X112404998Y-111967998D01*
X112661045Y-115091601D02*
X112661045Y-113000399D01*
X115454022Y-130314358D02*
X115188688Y-130049025D01*
X112404998Y-111967998D02*
X112800043Y-111572953D01*
X115454022Y-135520022D02*
X115454022Y-130314358D01*
X115188688Y-121439346D02*
X112470755Y-118721413D01*
X113270970Y-111572953D02*
X113570969Y-111272954D01*
G04 #@! TO.N,/P0.28*
X119199229Y-117504965D02*
X114196106Y-112501842D01*
X114196106Y-112501842D02*
X113470651Y-112501842D01*
X116840000Y-134366000D02*
X119199229Y-132006771D01*
X119199229Y-132006771D02*
X119199229Y-117504965D01*
X113470651Y-112501842D02*
X113046387Y-112501842D01*
G04 #@! TO.N,/P0.29*
X115638699Y-129862625D02*
X115638699Y-128709375D01*
X115963701Y-130187627D02*
X115638699Y-129862625D01*
X115638699Y-127322625D02*
X115638699Y-126169375D01*
X115963701Y-130949701D02*
X115963701Y-130187627D01*
X115638699Y-123629375D02*
X115904033Y-123364041D01*
X115904033Y-125047959D02*
X115638699Y-124782625D01*
X115904033Y-123364041D02*
X115904033Y-121518280D01*
X114138624Y-119752871D02*
X114138624Y-114813359D01*
X115638699Y-124782625D02*
X115638699Y-123629375D01*
X115904033Y-128444041D02*
X115904033Y-127587959D01*
X115904033Y-127587959D02*
X115638699Y-127322625D01*
X116840000Y-131826000D02*
X115963701Y-130949701D01*
X115638699Y-126169375D02*
X115904033Y-125904041D01*
X115904033Y-125904041D02*
X115904033Y-125047959D01*
X115638699Y-128709375D02*
X115904033Y-128444041D01*
X114138624Y-114813359D02*
X114438623Y-114513360D01*
X115904033Y-121518280D02*
X114138624Y-119752871D01*
G04 #@! TO.N,/P0.30*
X118749218Y-117816954D02*
X114704275Y-113772011D01*
X114704275Y-113772011D02*
X113710319Y-113772011D01*
X118749218Y-127376782D02*
X118749218Y-117816954D01*
X113710319Y-113772011D02*
X113286055Y-113772011D01*
X116840000Y-129286000D02*
X118749218Y-127376782D01*
G04 #@! TO.N,Net-(J1-Pad6)*
X105669200Y-150508980D02*
X105669200Y-152208980D01*
X106669200Y-149508980D02*
X105669200Y-150508980D01*
X112669200Y-150508980D02*
X112669200Y-152208980D01*
X111669200Y-149508980D02*
X112669200Y-150508980D01*
D25*
G04 #@! TO.N,/Data-*
X110443677Y-148255323D02*
X108745062Y-148255323D01*
X108745062Y-148255323D02*
X108726711Y-148273674D01*
G04 #@! TO.N,/VBus*
X111317480Y-142348900D02*
X111302560Y-142333980D01*
X111317480Y-144432020D02*
X111317480Y-142348900D01*
X105158000Y-136397000D02*
X105157000Y-136398000D01*
X105158000Y-134112000D02*
X105158000Y-136397000D01*
X109299019Y-144734001D02*
X109601000Y-144432020D01*
X109138999Y-144734001D02*
X109299019Y-144734001D01*
X108839000Y-145034000D02*
X109138999Y-144734001D01*
X111317480Y-144432020D02*
X109601000Y-144432020D01*
X109601000Y-144432020D02*
X109567980Y-144432020D01*
X111427500Y-140843000D02*
X111330500Y-140843000D01*
X113205500Y-139065000D02*
X111427500Y-140843000D01*
X105626752Y-134580752D02*
X105158000Y-134112000D01*
X105626752Y-135001000D02*
X105626752Y-134580752D01*
X105158000Y-132155000D02*
X105172000Y-132141000D01*
X105158000Y-134112000D02*
X105158000Y-132155000D01*
X111330500Y-142466060D02*
X111330500Y-140589000D01*
X109508998Y-138767498D02*
X109508998Y-135859996D01*
X106823000Y-135382000D02*
X105807000Y-136398000D01*
X109031002Y-135382000D02*
X106823000Y-135382000D01*
X111330500Y-140589000D02*
X109508998Y-138767498D01*
X105807000Y-136398000D02*
X105157000Y-136398000D01*
X109508998Y-135859996D02*
X109031002Y-135382000D01*
X111302560Y-142494000D02*
X111330500Y-142466060D01*
G04 #@! TO.N,Net-(C5-Pad1)*
X105172000Y-128304000D02*
X104968000Y-128100000D01*
X105197001Y-128930001D02*
X105172000Y-128905000D01*
X106483001Y-128930001D02*
X105197001Y-128930001D01*
X106868000Y-128545002D02*
X106483001Y-128930001D01*
X106868000Y-128100000D02*
X106868000Y-128545002D01*
X105172000Y-130241000D02*
X105172000Y-128905000D01*
X105172000Y-128905000D02*
X105172000Y-128304000D01*
X108839000Y-133731000D02*
X108458000Y-134112000D01*
X111203500Y-133731000D02*
X108839000Y-133731000D01*
X105791000Y-130860000D02*
X105172000Y-130241000D01*
X105791000Y-130937000D02*
X105791000Y-130860000D01*
X107950000Y-134112000D02*
X105922001Y-132084001D01*
X108458000Y-134112000D02*
X107950000Y-134112000D01*
X105922001Y-132084001D02*
X105922001Y-131500999D01*
X105922001Y-131500999D02*
X105918000Y-131496998D01*
X105918000Y-131496998D02*
X105918000Y-131064000D01*
X105918000Y-131064000D02*
X105791000Y-130937000D01*
X108536500Y-134112000D02*
X108458000Y-134112000D01*
D24*
G04 #@! TO.N,/VBatt*
X109356998Y-117904422D02*
X108750100Y-118511320D01*
X109347000Y-114422460D02*
X109356998Y-114432458D01*
X109356998Y-114432458D02*
X109356998Y-117904422D01*
X109347000Y-114173000D02*
X109347000Y-114422460D01*
X109350931Y-110371533D02*
X109350931Y-114169069D01*
X108155740Y-118511320D02*
X107294680Y-119372380D01*
X104213230Y-103756460D02*
X105238240Y-104781470D01*
X108750100Y-118511320D02*
X108155740Y-118511320D01*
X103430080Y-103756460D02*
X104213230Y-103756460D01*
X105238240Y-104781470D02*
X106107470Y-104781470D01*
X106107470Y-104781470D02*
X108204000Y-106878000D01*
X109350931Y-114169069D02*
X109347000Y-114173000D01*
X108204000Y-106878000D02*
X108204000Y-109224602D01*
X108204000Y-109224602D02*
X109350931Y-110371533D01*
D25*
X107520500Y-131191000D02*
X107172000Y-131191000D01*
X107823000Y-129940000D02*
X107823000Y-128143000D01*
X107172000Y-131191000D02*
X107172000Y-130591000D01*
X107172000Y-130591000D02*
X107823000Y-129940000D01*
D24*
X107294680Y-119372380D02*
X107295927Y-124880706D01*
X107295927Y-124880706D02*
X107294680Y-124886636D01*
D25*
X104809000Y-149606000D02*
X103759000Y-149606000D01*
X105033727Y-149606000D02*
X104809000Y-149606000D01*
X107065727Y-147574000D02*
X105033727Y-149606000D01*
X111607994Y-147574000D02*
X107065727Y-147574000D01*
X107172000Y-131791000D02*
X107172000Y-131191000D01*
X107334000Y-131953000D02*
X107172000Y-131791000D01*
X111203500Y-131953000D02*
X107334000Y-131953000D01*
X107358265Y-131377265D02*
X107172000Y-131191000D01*
X107358265Y-132671735D02*
X107358265Y-131377265D01*
X113482994Y-147574000D02*
X111607994Y-147574000D01*
X114508001Y-146548993D02*
X113482994Y-147574000D01*
X114508001Y-145587999D02*
X114508001Y-146548993D01*
X114808000Y-145288000D02*
X114508001Y-145587999D01*
D24*
G04 #@! TO.N,Net-(R3-Pad1)*
X110871000Y-135509000D02*
X110236000Y-134874000D01*
X111203500Y-135509000D02*
X110871000Y-135509000D01*
D25*
G04 #@! TO.N,/DTR*
X106934000Y-143002000D02*
X107569000Y-143002000D01*
X107569000Y-143002000D02*
X108331000Y-142240000D01*
G04 #@! TO.N,Net-(R6-Pad2)*
X106553000Y-145415000D02*
X106934000Y-145034000D01*
X106934000Y-146817725D02*
X106221122Y-147530603D01*
X106934000Y-145034000D02*
X106934000Y-146817725D01*
X106221122Y-147530603D02*
X105921123Y-147830602D01*
G04 #@! TO.N,/P0.31*
X107644960Y-103756460D02*
X107647500Y-103759000D01*
X105717580Y-103756460D02*
X107644960Y-103756460D01*
X110471763Y-103202763D02*
X111028000Y-103759000D01*
X110027990Y-102758990D02*
X110471763Y-103202763D01*
X108647510Y-102758990D02*
X110027990Y-102758990D01*
X107647500Y-103759000D02*
X108647510Y-102758990D01*
X108629010Y-109006324D02*
X110109000Y-110486314D01*
X110109000Y-113581210D02*
X110109000Y-114005474D01*
D24*
X110144580Y-113741050D02*
X110144580Y-113969894D01*
D25*
X110109000Y-110486314D02*
X110109000Y-113581210D01*
X107647500Y-103759000D02*
X108629010Y-104740510D01*
X108629010Y-104740510D02*
X108629010Y-109006324D01*
D24*
X110144580Y-113969894D02*
X110109000Y-114005474D01*
D25*
G04 #@! TO.N,Net-(C10-Pad1)*
X110406260Y-145796000D02*
X109981996Y-145796000D01*
X110647000Y-145796000D02*
X110406260Y-145796000D01*
X111282000Y-146431000D02*
X110647000Y-145796000D01*
G04 #@! TO.N,Net-(C12-Pad1)*
X108458000Y-138684000D02*
X107345000Y-138684000D01*
D24*
X106553000Y-139476000D02*
X105059000Y-140970000D01*
X107345000Y-138684000D02*
X106553000Y-139476000D01*
D25*
G04 #@! TO.N,Net-(D2-Pad1)*
X105158000Y-138534000D02*
X105158000Y-138684000D01*
X107294000Y-136398000D02*
X105158000Y-138534000D01*
X108457000Y-136398000D02*
X107294000Y-136398000D01*
G04 #@! TO.N,Net-(D4-Pad2)*
X111584500Y-107950000D02*
X111252000Y-107617500D01*
X111584500Y-109220000D02*
X111584500Y-107950000D01*
G04 #@! TO.N,Net-(D5-Pad2)*
X115316000Y-109395500D02*
X113538000Y-107617500D01*
X115316000Y-110060500D02*
X115316000Y-109395500D01*
G04 #@! TO.N,/LED2*
X114569251Y-111129751D02*
X116286116Y-111129751D01*
X113459500Y-109220000D02*
X113459500Y-110020000D01*
X113459500Y-110020000D02*
X114569251Y-111129751D01*
G04 #@! TO.N,/LED1*
X115951000Y-112570500D02*
X115316000Y-111935500D01*
X115951000Y-113284000D02*
X115951000Y-112570500D01*
G04 #@! TO.N,Net-(D6-Pad1)*
X110616000Y-137287000D02*
X110236000Y-137667000D01*
X110236000Y-137667000D02*
X110236000Y-137668000D01*
X111203500Y-137287000D02*
X110616000Y-137287000D01*
G04 #@! TO.N,Net-(D6-Pad2)*
X111330500Y-139035000D02*
X111330500Y-139065000D01*
X113078500Y-137287000D02*
X111330500Y-139035000D01*
G04 #@! TD*
D27*
G04 #@! TO.N,GND*
G36*
X100128499Y-146669301D02*
X100088700Y-146765384D01*
X100088700Y-147366616D01*
X100318782Y-147922083D01*
X100743917Y-148347218D01*
X100776520Y-148360722D01*
X100716604Y-148542999D01*
X101600000Y-149426395D01*
X101614143Y-149412253D01*
X101793748Y-149591858D01*
X101779605Y-149606000D01*
X101793748Y-149620143D01*
X101614143Y-149799748D01*
X101600000Y-149785605D01*
X101585858Y-149799748D01*
X101406253Y-149620143D01*
X101420395Y-149606000D01*
X100536999Y-148722604D01*
X100282973Y-148806104D01*
X100077118Y-149370997D01*
X100103109Y-149971668D01*
X100282973Y-150405896D01*
X100536997Y-150489395D01*
X100422369Y-150604023D01*
X100487574Y-150669228D01*
X100475935Y-150671543D01*
X100265891Y-150811891D01*
X100125543Y-151021935D01*
X100076260Y-151269700D01*
X100076260Y-152960000D01*
X99135000Y-152960000D01*
X99135000Y-145675801D01*
X100128499Y-146669301D01*
X100128499Y-146669301D01*
G37*
X100128499Y-146669301D02*
X100088700Y-146765384D01*
X100088700Y-147366616D01*
X100318782Y-147922083D01*
X100743917Y-148347218D01*
X100776520Y-148360722D01*
X100716604Y-148542999D01*
X101600000Y-149426395D01*
X101614143Y-149412253D01*
X101793748Y-149591858D01*
X101779605Y-149606000D01*
X101793748Y-149620143D01*
X101614143Y-149799748D01*
X101600000Y-149785605D01*
X101585858Y-149799748D01*
X101406253Y-149620143D01*
X101420395Y-149606000D01*
X100536999Y-148722604D01*
X100282973Y-148806104D01*
X100077118Y-149370997D01*
X100103109Y-149971668D01*
X100282973Y-150405896D01*
X100536997Y-150489395D01*
X100422369Y-150604023D01*
X100487574Y-150669228D01*
X100475935Y-150671543D01*
X100265891Y-150811891D01*
X100125543Y-151021935D01*
X100076260Y-151269700D01*
X100076260Y-152960000D01*
X99135000Y-152960000D01*
X99135000Y-145675801D01*
X100128499Y-146669301D01*
G36*
X119305001Y-152960000D02*
X118138649Y-152960000D01*
X118351300Y-152446616D01*
X118351300Y-151845384D01*
X118121218Y-151289917D01*
X117707301Y-150876000D01*
X118121218Y-150462083D01*
X118351300Y-149906616D01*
X118351300Y-149305384D01*
X118121218Y-148749917D01*
X117696083Y-148324782D01*
X117663480Y-148311278D01*
X117723396Y-148129001D01*
X116840000Y-147245605D01*
X115956604Y-148129001D01*
X116016520Y-148311278D01*
X115983917Y-148324782D01*
X115558782Y-148749917D01*
X115328700Y-149305384D01*
X115328700Y-149906616D01*
X115558782Y-150462083D01*
X115972699Y-150876000D01*
X115558782Y-151289917D01*
X115328700Y-151845384D01*
X115328700Y-152446616D01*
X115541351Y-152960000D01*
X113848627Y-152960000D01*
X113904200Y-152680615D01*
X113904200Y-151737344D01*
X113832544Y-151377107D01*
X113559585Y-150968595D01*
X113429200Y-150881475D01*
X113429200Y-150583828D01*
X113444088Y-150508980D01*
X113429200Y-150434132D01*
X113429200Y-150434128D01*
X113385104Y-150212443D01*
X113217129Y-149961051D01*
X113153673Y-149918651D01*
X113024901Y-149789879D01*
X113029200Y-149779501D01*
X113029200Y-149238459D01*
X112822152Y-148738602D01*
X112439578Y-148356028D01*
X112326043Y-148309000D01*
X113410610Y-148309000D01*
X113482994Y-148323398D01*
X113555378Y-148309000D01*
X113555382Y-148309000D01*
X113769777Y-148266354D01*
X114012899Y-148103905D01*
X114053905Y-148042535D01*
X114976538Y-147119903D01*
X115037906Y-147078898D01*
X115200355Y-146835776D01*
X115201305Y-146830997D01*
X115317118Y-146830997D01*
X115343109Y-147431668D01*
X115522973Y-147865896D01*
X115776999Y-147949396D01*
X116660395Y-147066000D01*
X117019605Y-147066000D01*
X117903001Y-147949396D01*
X118157027Y-147865896D01*
X118362882Y-147301003D01*
X118336891Y-146700332D01*
X118157027Y-146266104D01*
X117903001Y-146182604D01*
X117019605Y-147066000D01*
X116660395Y-147066000D01*
X115776999Y-146182604D01*
X115522973Y-146266104D01*
X115317118Y-146830997D01*
X115201305Y-146830997D01*
X115243001Y-146621381D01*
X115243001Y-146621377D01*
X115257399Y-146548993D01*
X115243001Y-146476609D01*
X115243001Y-146119854D01*
X115337635Y-146080655D01*
X115600655Y-145817635D01*
X115695358Y-145589001D01*
X115956604Y-145589001D01*
X116024646Y-145796000D01*
X115956604Y-146002999D01*
X116840000Y-146886395D01*
X117723396Y-146002999D01*
X117655354Y-145796000D01*
X117723396Y-145589001D01*
X116840000Y-144705605D01*
X115956604Y-145589001D01*
X115695358Y-145589001D01*
X115743000Y-145473983D01*
X115743000Y-145398220D01*
X115776999Y-145409396D01*
X116660395Y-144526000D01*
X117019605Y-144526000D01*
X117903001Y-145409396D01*
X118157027Y-145325896D01*
X118362882Y-144761003D01*
X118336891Y-144160332D01*
X118157027Y-143726104D01*
X117903001Y-143642604D01*
X117019605Y-144526000D01*
X116660395Y-144526000D01*
X115776999Y-143642604D01*
X115522973Y-143726104D01*
X115317118Y-144290997D01*
X115325747Y-144490421D01*
X114993983Y-144353000D01*
X114622017Y-144353000D01*
X114314980Y-144480179D01*
X114314980Y-144398998D01*
X114156232Y-144398998D01*
X114314980Y-144240250D01*
X114314980Y-143699690D01*
X114255250Y-143555490D01*
X114300060Y-143447310D01*
X114300060Y-142906750D01*
X114141310Y-142748000D01*
X113304560Y-142748000D01*
X113304560Y-143797250D01*
X113319480Y-143812170D01*
X113319480Y-144399000D01*
X113339480Y-144399000D01*
X113339480Y-144653000D01*
X113319480Y-144653000D01*
X113319480Y-145219270D01*
X113284000Y-145254750D01*
X113284000Y-146304000D01*
X113304000Y-146304000D01*
X113304000Y-146558000D01*
X113284000Y-146558000D01*
X113284000Y-146578000D01*
X113030000Y-146578000D01*
X113030000Y-146558000D01*
X113010000Y-146558000D01*
X113010000Y-146304000D01*
X113030000Y-146304000D01*
X113030000Y-145737730D01*
X113065480Y-145702250D01*
X113065480Y-144653000D01*
X113045480Y-144653000D01*
X113045480Y-144399000D01*
X113065480Y-144399000D01*
X113065480Y-143349750D01*
X113050560Y-143334830D01*
X113050560Y-142748000D01*
X113030560Y-142748000D01*
X113030560Y-142494000D01*
X113050560Y-142494000D01*
X113050560Y-142047190D01*
X113078500Y-142019250D01*
X113078500Y-141444750D01*
X113304560Y-141444750D01*
X113304560Y-142494000D01*
X114141310Y-142494000D01*
X114300060Y-142335250D01*
X114300060Y-141794690D01*
X114288063Y-141765727D01*
X114328000Y-141669310D01*
X114328000Y-141128750D01*
X114169250Y-140970000D01*
X113332500Y-140970000D01*
X113332500Y-141416810D01*
X113304560Y-141444750D01*
X113078500Y-141444750D01*
X113078500Y-140970000D01*
X113058500Y-140970000D01*
X113058500Y-140716000D01*
X113078500Y-140716000D01*
X113078500Y-140696000D01*
X113332500Y-140696000D01*
X113332500Y-140716000D01*
X114169250Y-140716000D01*
X114328000Y-140557250D01*
X114328000Y-140016690D01*
X114267321Y-139870198D01*
X114272602Y-139862294D01*
X114297202Y-139738621D01*
X115203701Y-140645121D01*
X115203701Y-141034854D01*
X115188813Y-141109701D01*
X115203701Y-141184548D01*
X115203701Y-141184552D01*
X115247797Y-141406237D01*
X115369118Y-141587807D01*
X115328700Y-141685384D01*
X115328700Y-142286616D01*
X115558782Y-142842083D01*
X115983917Y-143267218D01*
X116016520Y-143280722D01*
X115956604Y-143462999D01*
X116840000Y-144346395D01*
X117723396Y-143462999D01*
X117663480Y-143280722D01*
X117696083Y-143267218D01*
X118121218Y-142842083D01*
X118351300Y-142286616D01*
X118351300Y-141685384D01*
X118121218Y-141129917D01*
X117707301Y-140716000D01*
X118121218Y-140302083D01*
X118351300Y-139746616D01*
X118351300Y-139145384D01*
X118121218Y-138589917D01*
X117707301Y-138176000D01*
X118121218Y-137762083D01*
X118351300Y-137206616D01*
X118351300Y-136605384D01*
X118121218Y-136049917D01*
X117707301Y-135636000D01*
X118121218Y-135222083D01*
X118351300Y-134666616D01*
X118351300Y-134065384D01*
X118311501Y-133969300D01*
X119305001Y-132975801D01*
X119305001Y-152960000D01*
X119305001Y-152960000D01*
G37*
X119305001Y-152960000D02*
X118138649Y-152960000D01*
X118351300Y-152446616D01*
X118351300Y-151845384D01*
X118121218Y-151289917D01*
X117707301Y-150876000D01*
X118121218Y-150462083D01*
X118351300Y-149906616D01*
X118351300Y-149305384D01*
X118121218Y-148749917D01*
X117696083Y-148324782D01*
X117663480Y-148311278D01*
X117723396Y-148129001D01*
X116840000Y-147245605D01*
X115956604Y-148129001D01*
X116016520Y-148311278D01*
X115983917Y-148324782D01*
X115558782Y-148749917D01*
X115328700Y-149305384D01*
X115328700Y-149906616D01*
X115558782Y-150462083D01*
X115972699Y-150876000D01*
X115558782Y-151289917D01*
X115328700Y-151845384D01*
X115328700Y-152446616D01*
X115541351Y-152960000D01*
X113848627Y-152960000D01*
X113904200Y-152680615D01*
X113904200Y-151737344D01*
X113832544Y-151377107D01*
X113559585Y-150968595D01*
X113429200Y-150881475D01*
X113429200Y-150583828D01*
X113444088Y-150508980D01*
X113429200Y-150434132D01*
X113429200Y-150434128D01*
X113385104Y-150212443D01*
X113217129Y-149961051D01*
X113153673Y-149918651D01*
X113024901Y-149789879D01*
X113029200Y-149779501D01*
X113029200Y-149238459D01*
X112822152Y-148738602D01*
X112439578Y-148356028D01*
X112326043Y-148309000D01*
X113410610Y-148309000D01*
X113482994Y-148323398D01*
X113555378Y-148309000D01*
X113555382Y-148309000D01*
X113769777Y-148266354D01*
X114012899Y-148103905D01*
X114053905Y-148042535D01*
X114976538Y-147119903D01*
X115037906Y-147078898D01*
X115200355Y-146835776D01*
X115201305Y-146830997D01*
X115317118Y-146830997D01*
X115343109Y-147431668D01*
X115522973Y-147865896D01*
X115776999Y-147949396D01*
X116660395Y-147066000D01*
X117019605Y-147066000D01*
X117903001Y-147949396D01*
X118157027Y-147865896D01*
X118362882Y-147301003D01*
X118336891Y-146700332D01*
X118157027Y-146266104D01*
X117903001Y-146182604D01*
X117019605Y-147066000D01*
X116660395Y-147066000D01*
X115776999Y-146182604D01*
X115522973Y-146266104D01*
X115317118Y-146830997D01*
X115201305Y-146830997D01*
X115243001Y-146621381D01*
X115243001Y-146621377D01*
X115257399Y-146548993D01*
X115243001Y-146476609D01*
X115243001Y-146119854D01*
X115337635Y-146080655D01*
X115600655Y-145817635D01*
X115695358Y-145589001D01*
X115956604Y-145589001D01*
X116024646Y-145796000D01*
X115956604Y-146002999D01*
X116840000Y-146886395D01*
X117723396Y-146002999D01*
X117655354Y-145796000D01*
X117723396Y-145589001D01*
X116840000Y-144705605D01*
X115956604Y-145589001D01*
X115695358Y-145589001D01*
X115743000Y-145473983D01*
X115743000Y-145398220D01*
X115776999Y-145409396D01*
X116660395Y-144526000D01*
X117019605Y-144526000D01*
X117903001Y-145409396D01*
X118157027Y-145325896D01*
X118362882Y-144761003D01*
X118336891Y-144160332D01*
X118157027Y-143726104D01*
X117903001Y-143642604D01*
X117019605Y-144526000D01*
X116660395Y-144526000D01*
X115776999Y-143642604D01*
X115522973Y-143726104D01*
X115317118Y-144290997D01*
X115325747Y-144490421D01*
X114993983Y-144353000D01*
X114622017Y-144353000D01*
X114314980Y-144480179D01*
X114314980Y-144398998D01*
X114156232Y-144398998D01*
X114314980Y-144240250D01*
X114314980Y-143699690D01*
X114255250Y-143555490D01*
X114300060Y-143447310D01*
X114300060Y-142906750D01*
X114141310Y-142748000D01*
X113304560Y-142748000D01*
X113304560Y-143797250D01*
X113319480Y-143812170D01*
X113319480Y-144399000D01*
X113339480Y-144399000D01*
X113339480Y-144653000D01*
X113319480Y-144653000D01*
X113319480Y-145219270D01*
X113284000Y-145254750D01*
X113284000Y-146304000D01*
X113304000Y-146304000D01*
X113304000Y-146558000D01*
X113284000Y-146558000D01*
X113284000Y-146578000D01*
X113030000Y-146578000D01*
X113030000Y-146558000D01*
X113010000Y-146558000D01*
X113010000Y-146304000D01*
X113030000Y-146304000D01*
X113030000Y-145737730D01*
X113065480Y-145702250D01*
X113065480Y-144653000D01*
X113045480Y-144653000D01*
X113045480Y-144399000D01*
X113065480Y-144399000D01*
X113065480Y-143349750D01*
X113050560Y-143334830D01*
X113050560Y-142748000D01*
X113030560Y-142748000D01*
X113030560Y-142494000D01*
X113050560Y-142494000D01*
X113050560Y-142047190D01*
X113078500Y-142019250D01*
X113078500Y-141444750D01*
X113304560Y-141444750D01*
X113304560Y-142494000D01*
X114141310Y-142494000D01*
X114300060Y-142335250D01*
X114300060Y-141794690D01*
X114288063Y-141765727D01*
X114328000Y-141669310D01*
X114328000Y-141128750D01*
X114169250Y-140970000D01*
X113332500Y-140970000D01*
X113332500Y-141416810D01*
X113304560Y-141444750D01*
X113078500Y-141444750D01*
X113078500Y-140970000D01*
X113058500Y-140970000D01*
X113058500Y-140716000D01*
X113078500Y-140716000D01*
X113078500Y-140696000D01*
X113332500Y-140696000D01*
X113332500Y-140716000D01*
X114169250Y-140716000D01*
X114328000Y-140557250D01*
X114328000Y-140016690D01*
X114267321Y-139870198D01*
X114272602Y-139862294D01*
X114297202Y-139738621D01*
X115203701Y-140645121D01*
X115203701Y-141034854D01*
X115188813Y-141109701D01*
X115203701Y-141184548D01*
X115203701Y-141184552D01*
X115247797Y-141406237D01*
X115369118Y-141587807D01*
X115328700Y-141685384D01*
X115328700Y-142286616D01*
X115558782Y-142842083D01*
X115983917Y-143267218D01*
X116016520Y-143280722D01*
X115956604Y-143462999D01*
X116840000Y-144346395D01*
X117723396Y-143462999D01*
X117663480Y-143280722D01*
X117696083Y-143267218D01*
X118121218Y-142842083D01*
X118351300Y-142286616D01*
X118351300Y-141685384D01*
X118121218Y-141129917D01*
X117707301Y-140716000D01*
X118121218Y-140302083D01*
X118351300Y-139746616D01*
X118351300Y-139145384D01*
X118121218Y-138589917D01*
X117707301Y-138176000D01*
X118121218Y-137762083D01*
X118351300Y-137206616D01*
X118351300Y-136605384D01*
X118121218Y-136049917D01*
X117707301Y-135636000D01*
X118121218Y-135222083D01*
X118351300Y-134666616D01*
X118351300Y-134065384D01*
X118311501Y-133969300D01*
X119305001Y-132975801D01*
X119305001Y-152960000D01*
G36*
X103956118Y-145651416D02*
X103966377Y-145702992D01*
X103886000Y-145745181D01*
X103886000Y-146939000D01*
X105079155Y-146939000D01*
X105200476Y-146709110D01*
X105064759Y-146381440D01*
X105302750Y-146381440D01*
X105643794Y-146313602D01*
X105932916Y-146120416D01*
X105996500Y-146025256D01*
X106060084Y-146120416D01*
X106199001Y-146213238D01*
X106199001Y-146513278D01*
X105816677Y-146895602D01*
X105735140Y-146895602D01*
X105391488Y-147037947D01*
X105133485Y-147295950D01*
X105079155Y-147193000D01*
X103886000Y-147193000D01*
X103886000Y-147213000D01*
X103632000Y-147213000D01*
X103632000Y-147193000D01*
X103612000Y-147193000D01*
X103612000Y-146939000D01*
X103632000Y-146939000D01*
X103632000Y-146041619D01*
X103689354Y-145955783D01*
X103732000Y-145741388D01*
X103732000Y-145741385D01*
X103746398Y-145669001D01*
X103732000Y-145596617D01*
X103732000Y-145558583D01*
X103956118Y-145651416D01*
X103956118Y-145651416D01*
G37*
X103956118Y-145651416D02*
X103966377Y-145702992D01*
X103886000Y-145745181D01*
X103886000Y-146939000D01*
X105079155Y-146939000D01*
X105200476Y-146709110D01*
X105064759Y-146381440D01*
X105302750Y-146381440D01*
X105643794Y-146313602D01*
X105932916Y-146120416D01*
X105996500Y-146025256D01*
X106060084Y-146120416D01*
X106199001Y-146213238D01*
X106199001Y-146513278D01*
X105816677Y-146895602D01*
X105735140Y-146895602D01*
X105391488Y-147037947D01*
X105133485Y-147295950D01*
X105079155Y-147193000D01*
X103886000Y-147193000D01*
X103886000Y-147213000D01*
X103632000Y-147213000D01*
X103632000Y-147193000D01*
X103612000Y-147193000D01*
X103612000Y-146939000D01*
X103632000Y-146939000D01*
X103632000Y-146041619D01*
X103689354Y-145955783D01*
X103732000Y-145741388D01*
X103732000Y-145741385D01*
X103746398Y-145669001D01*
X103732000Y-145596617D01*
X103732000Y-145558583D01*
X103956118Y-145651416D01*
G36*
X110195560Y-140493507D02*
X110195560Y-141299250D01*
X110263398Y-141640294D01*
X110310704Y-141711093D01*
X110235458Y-141823706D01*
X110167620Y-142164750D01*
X110167620Y-143077250D01*
X110235458Y-143418294D01*
X110346624Y-143584665D01*
X110271550Y-143697020D01*
X109673388Y-143697020D01*
X109601000Y-143682621D01*
X109528612Y-143697020D01*
X109495592Y-143697020D01*
X109281197Y-143739666D01*
X109038075Y-143902115D01*
X108959041Y-144020398D01*
X108852216Y-144041647D01*
X108766381Y-144099000D01*
X108653017Y-144099000D01*
X108309365Y-144241345D01*
X108053016Y-144497694D01*
X108001102Y-144236706D01*
X107854967Y-144018000D01*
X108001102Y-143799294D01*
X108047450Y-143566286D01*
X108098905Y-143531905D01*
X108139911Y-143470535D01*
X108435446Y-143175000D01*
X108516983Y-143175000D01*
X108860635Y-143032655D01*
X109123655Y-142769635D01*
X109266000Y-142425983D01*
X109266000Y-142054017D01*
X109123655Y-141710365D01*
X108860635Y-141447345D01*
X108516983Y-141305000D01*
X108145017Y-141305000D01*
X108056500Y-141341665D01*
X108056500Y-141255750D01*
X107897750Y-141097000D01*
X107061000Y-141097000D01*
X107061000Y-141117000D01*
X106807000Y-141117000D01*
X106807000Y-141097000D01*
X106787000Y-141097000D01*
X106787000Y-140843000D01*
X106807000Y-140843000D01*
X106807000Y-140823000D01*
X107061000Y-140823000D01*
X107061000Y-140843000D01*
X107897750Y-140843000D01*
X108056500Y-140684250D01*
X108056500Y-140143690D01*
X107965044Y-139922896D01*
X108008000Y-139931440D01*
X108908000Y-139931440D01*
X109155765Y-139882157D01*
X109365809Y-139741809D01*
X109397073Y-139695019D01*
X110195560Y-140493507D01*
X110195560Y-140493507D01*
G37*
X110195560Y-140493507D02*
X110195560Y-141299250D01*
X110263398Y-141640294D01*
X110310704Y-141711093D01*
X110235458Y-141823706D01*
X110167620Y-142164750D01*
X110167620Y-143077250D01*
X110235458Y-143418294D01*
X110346624Y-143584665D01*
X110271550Y-143697020D01*
X109673388Y-143697020D01*
X109601000Y-143682621D01*
X109528612Y-143697020D01*
X109495592Y-143697020D01*
X109281197Y-143739666D01*
X109038075Y-143902115D01*
X108959041Y-144020398D01*
X108852216Y-144041647D01*
X108766381Y-144099000D01*
X108653017Y-144099000D01*
X108309365Y-144241345D01*
X108053016Y-144497694D01*
X108001102Y-144236706D01*
X107854967Y-144018000D01*
X108001102Y-143799294D01*
X108047450Y-143566286D01*
X108098905Y-143531905D01*
X108139911Y-143470535D01*
X108435446Y-143175000D01*
X108516983Y-143175000D01*
X108860635Y-143032655D01*
X109123655Y-142769635D01*
X109266000Y-142425983D01*
X109266000Y-142054017D01*
X109123655Y-141710365D01*
X108860635Y-141447345D01*
X108516983Y-141305000D01*
X108145017Y-141305000D01*
X108056500Y-141341665D01*
X108056500Y-141255750D01*
X107897750Y-141097000D01*
X107061000Y-141097000D01*
X107061000Y-141117000D01*
X106807000Y-141117000D01*
X106807000Y-141097000D01*
X106787000Y-141097000D01*
X106787000Y-140843000D01*
X106807000Y-140843000D01*
X106807000Y-140823000D01*
X107061000Y-140823000D01*
X107061000Y-140843000D01*
X107897750Y-140843000D01*
X108056500Y-140684250D01*
X108056500Y-140143690D01*
X107965044Y-139922896D01*
X108008000Y-139931440D01*
X108908000Y-139931440D01*
X109155765Y-139882157D01*
X109365809Y-139741809D01*
X109397073Y-139695019D01*
X110195560Y-140493507D01*
G36*
X103995560Y-128630000D02*
X104044843Y-128877765D01*
X104185191Y-129087809D01*
X104395235Y-129228157D01*
X104437001Y-129236465D01*
X104437001Y-129267722D01*
X104264191Y-129383191D01*
X104123843Y-129593235D01*
X104074560Y-129841000D01*
X104074560Y-130641000D01*
X104123843Y-130888765D01*
X104264191Y-131098809D01*
X104402164Y-131191000D01*
X104264191Y-131283191D01*
X104123843Y-131493235D01*
X104074560Y-131741000D01*
X104074560Y-132541000D01*
X104123843Y-132788765D01*
X104264191Y-132998809D01*
X104298633Y-133021823D01*
X104250191Y-133054191D01*
X104109843Y-133264235D01*
X104060560Y-133512000D01*
X104060560Y-134712000D01*
X104109843Y-134959765D01*
X104250191Y-135169809D01*
X104377187Y-135254666D01*
X104249191Y-135340191D01*
X104108843Y-135550235D01*
X104059560Y-135798000D01*
X104059560Y-136998000D01*
X104108843Y-137245765D01*
X104249191Y-137455809D01*
X104377187Y-137541334D01*
X104250191Y-137626191D01*
X104109843Y-137836235D01*
X104060560Y-138084000D01*
X104060560Y-139284000D01*
X104109843Y-139531765D01*
X104250191Y-139741809D01*
X104323728Y-139790945D01*
X104185084Y-139883584D01*
X103991898Y-140172706D01*
X103924060Y-140513750D01*
X103924060Y-141426250D01*
X103991898Y-141767294D01*
X104138033Y-141986000D01*
X103991898Y-142204706D01*
X103924060Y-142545750D01*
X103924060Y-143097493D01*
X103019000Y-144002553D01*
X102881218Y-143669917D01*
X102467301Y-143256000D01*
X102881218Y-142842083D01*
X103111300Y-142286616D01*
X103111300Y-141685384D01*
X102881218Y-141129917D01*
X102467301Y-140716000D01*
X102881218Y-140302083D01*
X103111300Y-139746616D01*
X103111300Y-139145384D01*
X102881218Y-138589917D01*
X102467301Y-138176000D01*
X102881218Y-137762083D01*
X103111300Y-137206616D01*
X103111300Y-136605384D01*
X102881218Y-136049917D01*
X102467301Y-135636000D01*
X102881218Y-135222083D01*
X103111300Y-134666616D01*
X103111300Y-134065384D01*
X102881218Y-133509917D01*
X102467301Y-133096000D01*
X102881218Y-132682083D01*
X103111300Y-132126616D01*
X103111300Y-131525384D01*
X103064805Y-131413136D01*
X103268113Y-131209829D01*
X103331569Y-131167429D01*
X103427036Y-131024553D01*
X103499544Y-130916038D01*
X103520034Y-130813025D01*
X103543640Y-130694352D01*
X103543640Y-130694348D01*
X103558528Y-130619500D01*
X103543640Y-130544652D01*
X103543640Y-130026265D01*
X103561301Y-129937477D01*
X103561301Y-129937473D01*
X103576189Y-129862626D01*
X103561301Y-129787779D01*
X103561301Y-128784221D01*
X103576189Y-128709374D01*
X103561301Y-128634527D01*
X103561301Y-128634523D01*
X103543640Y-128545735D01*
X103543640Y-128291498D01*
X103735782Y-128099356D01*
X103799241Y-128056954D01*
X103967216Y-127805562D01*
X103995560Y-127663067D01*
X103995560Y-128630000D01*
X103995560Y-128630000D01*
G37*
X103995560Y-128630000D02*
X104044843Y-128877765D01*
X104185191Y-129087809D01*
X104395235Y-129228157D01*
X104437001Y-129236465D01*
X104437001Y-129267722D01*
X104264191Y-129383191D01*
X104123843Y-129593235D01*
X104074560Y-129841000D01*
X104074560Y-130641000D01*
X104123843Y-130888765D01*
X104264191Y-131098809D01*
X104402164Y-131191000D01*
X104264191Y-131283191D01*
X104123843Y-131493235D01*
X104074560Y-131741000D01*
X104074560Y-132541000D01*
X104123843Y-132788765D01*
X104264191Y-132998809D01*
X104298633Y-133021823D01*
X104250191Y-133054191D01*
X104109843Y-133264235D01*
X104060560Y-133512000D01*
X104060560Y-134712000D01*
X104109843Y-134959765D01*
X104250191Y-135169809D01*
X104377187Y-135254666D01*
X104249191Y-135340191D01*
X104108843Y-135550235D01*
X104059560Y-135798000D01*
X104059560Y-136998000D01*
X104108843Y-137245765D01*
X104249191Y-137455809D01*
X104377187Y-137541334D01*
X104250191Y-137626191D01*
X104109843Y-137836235D01*
X104060560Y-138084000D01*
X104060560Y-139284000D01*
X104109843Y-139531765D01*
X104250191Y-139741809D01*
X104323728Y-139790945D01*
X104185084Y-139883584D01*
X103991898Y-140172706D01*
X103924060Y-140513750D01*
X103924060Y-141426250D01*
X103991898Y-141767294D01*
X104138033Y-141986000D01*
X103991898Y-142204706D01*
X103924060Y-142545750D01*
X103924060Y-143097493D01*
X103019000Y-144002553D01*
X102881218Y-143669917D01*
X102467301Y-143256000D01*
X102881218Y-142842083D01*
X103111300Y-142286616D01*
X103111300Y-141685384D01*
X102881218Y-141129917D01*
X102467301Y-140716000D01*
X102881218Y-140302083D01*
X103111300Y-139746616D01*
X103111300Y-139145384D01*
X102881218Y-138589917D01*
X102467301Y-138176000D01*
X102881218Y-137762083D01*
X103111300Y-137206616D01*
X103111300Y-136605384D01*
X102881218Y-136049917D01*
X102467301Y-135636000D01*
X102881218Y-135222083D01*
X103111300Y-134666616D01*
X103111300Y-134065384D01*
X102881218Y-133509917D01*
X102467301Y-133096000D01*
X102881218Y-132682083D01*
X103111300Y-132126616D01*
X103111300Y-131525384D01*
X103064805Y-131413136D01*
X103268113Y-131209829D01*
X103331569Y-131167429D01*
X103427036Y-131024553D01*
X103499544Y-130916038D01*
X103520034Y-130813025D01*
X103543640Y-130694352D01*
X103543640Y-130694348D01*
X103558528Y-130619500D01*
X103543640Y-130544652D01*
X103543640Y-130026265D01*
X103561301Y-129937477D01*
X103561301Y-129937473D01*
X103576189Y-129862626D01*
X103561301Y-129787779D01*
X103561301Y-128784221D01*
X103576189Y-128709374D01*
X103561301Y-128634527D01*
X103561301Y-128634523D01*
X103543640Y-128545735D01*
X103543640Y-128291498D01*
X103735782Y-128099356D01*
X103799241Y-128056954D01*
X103967216Y-127805562D01*
X103995560Y-127663067D01*
X103995560Y-128630000D01*
G36*
X113205500Y-131826000D02*
X113225500Y-131826000D01*
X113225500Y-132080000D01*
X113205500Y-132080000D01*
X113205500Y-133604000D01*
X113225500Y-133604000D01*
X113225500Y-133858000D01*
X113205500Y-133858000D01*
X113205500Y-135382000D01*
X113225500Y-135382000D01*
X113225500Y-135636000D01*
X113205500Y-135636000D01*
X113205500Y-135656000D01*
X112951500Y-135656000D01*
X112951500Y-135636000D01*
X112931500Y-135636000D01*
X112931500Y-135382000D01*
X112951500Y-135382000D01*
X112951500Y-133858000D01*
X112931500Y-133858000D01*
X112931500Y-133604000D01*
X112951500Y-133604000D01*
X112951500Y-132080000D01*
X112931500Y-132080000D01*
X112931500Y-131826000D01*
X112951500Y-131826000D01*
X112951500Y-131806000D01*
X113205500Y-131806000D01*
X113205500Y-131826000D01*
X113205500Y-131826000D01*
G37*
X113205500Y-131826000D02*
X113225500Y-131826000D01*
X113225500Y-132080000D01*
X113205500Y-132080000D01*
X113205500Y-133604000D01*
X113225500Y-133604000D01*
X113225500Y-133858000D01*
X113205500Y-133858000D01*
X113205500Y-135382000D01*
X113225500Y-135382000D01*
X113225500Y-135636000D01*
X113205500Y-135636000D01*
X113205500Y-135656000D01*
X112951500Y-135656000D01*
X112951500Y-135636000D01*
X112931500Y-135636000D01*
X112931500Y-135382000D01*
X112951500Y-135382000D01*
X112951500Y-133858000D01*
X112931500Y-133858000D01*
X112931500Y-133604000D01*
X112951500Y-133604000D01*
X112951500Y-132080000D01*
X112931500Y-132080000D01*
X112931500Y-131826000D01*
X112951500Y-131826000D01*
X112951500Y-131806000D01*
X113205500Y-131806000D01*
X113205500Y-131826000D01*
G36*
X104044843Y-126677765D02*
X104185191Y-126887809D01*
X104353095Y-127000000D01*
X104185191Y-127112191D01*
X104044843Y-127322235D01*
X104016944Y-127462494D01*
X104011312Y-127434179D01*
X104011312Y-126552489D01*
X104018495Y-126545306D01*
X104044843Y-126677765D01*
X104044843Y-126677765D01*
G37*
X104044843Y-126677765D02*
X104185191Y-126887809D01*
X104353095Y-127000000D01*
X104185191Y-127112191D01*
X104044843Y-127322235D01*
X104016944Y-127462494D01*
X104011312Y-127434179D01*
X104011312Y-126552489D01*
X104018495Y-126545306D01*
X104044843Y-126677765D01*
G36*
X105944843Y-126677765D02*
X106085191Y-126887809D01*
X106184551Y-126954199D01*
X106045000Y-127093750D01*
X106045000Y-127172341D01*
X105944843Y-127322235D01*
X105918000Y-127457185D01*
X105891157Y-127322235D01*
X105791000Y-127172341D01*
X105791000Y-127093750D01*
X105651449Y-126954199D01*
X105750809Y-126887809D01*
X105891157Y-126677765D01*
X105918000Y-126542815D01*
X105944843Y-126677765D01*
X105944843Y-126677765D01*
G37*
X105944843Y-126677765D02*
X106085191Y-126887809D01*
X106184551Y-126954199D01*
X106045000Y-127093750D01*
X106045000Y-127172341D01*
X105944843Y-127322235D01*
X105918000Y-127457185D01*
X105891157Y-127322235D01*
X105791000Y-127172341D01*
X105791000Y-127093750D01*
X105651449Y-126954199D01*
X105750809Y-126887809D01*
X105891157Y-126677765D01*
X105918000Y-126542815D01*
X105944843Y-126677765D01*
G36*
X108248424Y-126818370D02*
X108369745Y-127048260D01*
X109562900Y-127048260D01*
X109562900Y-127028260D01*
X109816900Y-127028260D01*
X109816900Y-127048260D01*
X109836900Y-127048260D01*
X109836900Y-127302260D01*
X109816900Y-127302260D01*
X109816900Y-127322260D01*
X109562900Y-127322260D01*
X109562900Y-127302260D01*
X108369745Y-127302260D01*
X108345852Y-127347535D01*
X108008983Y-127208000D01*
X107714827Y-127208000D01*
X107650809Y-127112191D01*
X107482905Y-127000000D01*
X107650809Y-126887809D01*
X107791157Y-126677765D01*
X107799663Y-126635000D01*
X108324374Y-126635000D01*
X108248424Y-126818370D01*
X108248424Y-126818370D01*
G37*
X108248424Y-126818370D02*
X108369745Y-127048260D01*
X109562900Y-127048260D01*
X109562900Y-127028260D01*
X109816900Y-127028260D01*
X109816900Y-127048260D01*
X109836900Y-127048260D01*
X109836900Y-127302260D01*
X109816900Y-127302260D01*
X109816900Y-127322260D01*
X109562900Y-127322260D01*
X109562900Y-127302260D01*
X108369745Y-127302260D01*
X108345852Y-127347535D01*
X108008983Y-127208000D01*
X107714827Y-127208000D01*
X107650809Y-127112191D01*
X107482905Y-127000000D01*
X107650809Y-126887809D01*
X107791157Y-126677765D01*
X107799663Y-126635000D01*
X108324374Y-126635000D01*
X108248424Y-126818370D01*
G36*
X101956825Y-106459195D02*
X102300477Y-106601540D01*
X102605720Y-106601540D01*
X102605720Y-107326750D01*
X102673558Y-107667794D01*
X102862048Y-107949888D01*
X102739598Y-108133146D01*
X102671760Y-108474190D01*
X102671760Y-108553078D01*
X101189190Y-110035649D01*
X101125731Y-110078051D01*
X100957756Y-110329444D01*
X100913660Y-110551129D01*
X100913660Y-110551133D01*
X100898772Y-110625980D01*
X100913660Y-110700827D01*
X100913661Y-114436178D01*
X100894094Y-114465462D01*
X100849998Y-114687147D01*
X100849998Y-114687151D01*
X100835110Y-114761998D01*
X100849998Y-114836845D01*
X100849999Y-116701322D01*
X100835110Y-116776174D01*
X100894095Y-117072711D01*
X100984778Y-117208427D01*
X101062070Y-117324103D01*
X101125526Y-117366503D01*
X101209164Y-117450141D01*
X101209164Y-117496323D01*
X101351509Y-117839975D01*
X101614529Y-118102995D01*
X101958181Y-118245340D01*
X102330147Y-118245340D01*
X102673799Y-118102995D01*
X102936819Y-117839975D01*
X103079164Y-117496323D01*
X103079164Y-117124357D01*
X103016886Y-116974004D01*
X103124667Y-116866223D01*
X103229965Y-116795865D01*
X103270971Y-116734495D01*
X103442526Y-116562940D01*
X103994270Y-116562940D01*
X104011483Y-116559516D01*
X104096645Y-116765115D01*
X104167653Y-116836123D01*
X104073691Y-117062968D01*
X104073691Y-117434934D01*
X104166528Y-117659063D01*
X103836093Y-117795933D01*
X103573073Y-118058953D01*
X103475777Y-118293846D01*
X103210744Y-118403626D01*
X102947724Y-118666646D01*
X102805379Y-119010298D01*
X102805379Y-119056478D01*
X101115528Y-120746331D01*
X101052072Y-120788731D01*
X101009672Y-120852187D01*
X101009671Y-120852188D01*
X100884097Y-121040123D01*
X100825112Y-121336660D01*
X100840001Y-121411512D01*
X100840000Y-122884983D01*
X100743917Y-122924782D01*
X100318782Y-123349917D01*
X100088700Y-123905384D01*
X100088700Y-124506616D01*
X100318782Y-125062083D01*
X100374985Y-125118286D01*
X100079080Y-125414192D01*
X100079080Y-108177997D01*
X101877354Y-106379724D01*
X101956825Y-106459195D01*
X101956825Y-106459195D01*
G37*
X101956825Y-106459195D02*
X102300477Y-106601540D01*
X102605720Y-106601540D01*
X102605720Y-107326750D01*
X102673558Y-107667794D01*
X102862048Y-107949888D01*
X102739598Y-108133146D01*
X102671760Y-108474190D01*
X102671760Y-108553078D01*
X101189190Y-110035649D01*
X101125731Y-110078051D01*
X100957756Y-110329444D01*
X100913660Y-110551129D01*
X100913660Y-110551133D01*
X100898772Y-110625980D01*
X100913660Y-110700827D01*
X100913661Y-114436178D01*
X100894094Y-114465462D01*
X100849998Y-114687147D01*
X100849998Y-114687151D01*
X100835110Y-114761998D01*
X100849998Y-114836845D01*
X100849999Y-116701322D01*
X100835110Y-116776174D01*
X100894095Y-117072711D01*
X100984778Y-117208427D01*
X101062070Y-117324103D01*
X101125526Y-117366503D01*
X101209164Y-117450141D01*
X101209164Y-117496323D01*
X101351509Y-117839975D01*
X101614529Y-118102995D01*
X101958181Y-118245340D01*
X102330147Y-118245340D01*
X102673799Y-118102995D01*
X102936819Y-117839975D01*
X103079164Y-117496323D01*
X103079164Y-117124357D01*
X103016886Y-116974004D01*
X103124667Y-116866223D01*
X103229965Y-116795865D01*
X103270971Y-116734495D01*
X103442526Y-116562940D01*
X103994270Y-116562940D01*
X104011483Y-116559516D01*
X104096645Y-116765115D01*
X104167653Y-116836123D01*
X104073691Y-117062968D01*
X104073691Y-117434934D01*
X104166528Y-117659063D01*
X103836093Y-117795933D01*
X103573073Y-118058953D01*
X103475777Y-118293846D01*
X103210744Y-118403626D01*
X102947724Y-118666646D01*
X102805379Y-119010298D01*
X102805379Y-119056478D01*
X101115528Y-120746331D01*
X101052072Y-120788731D01*
X101009672Y-120852187D01*
X101009671Y-120852188D01*
X100884097Y-121040123D01*
X100825112Y-121336660D01*
X100840001Y-121411512D01*
X100840000Y-122884983D01*
X100743917Y-122924782D01*
X100318782Y-123349917D01*
X100088700Y-123905384D01*
X100088700Y-124506616D01*
X100318782Y-125062083D01*
X100374985Y-125118286D01*
X100079080Y-125414192D01*
X100079080Y-108177997D01*
X101877354Y-106379724D01*
X101956825Y-106459195D01*
G36*
X119305000Y-116535934D02*
X116663178Y-113894112D01*
X116743655Y-113813635D01*
X116886000Y-113469983D01*
X116886000Y-113098017D01*
X116743655Y-112754365D01*
X116686000Y-112696710D01*
X116686000Y-112642888D01*
X116700399Y-112570500D01*
X116672487Y-112430180D01*
X116643354Y-112283717D01*
X116642819Y-112282917D01*
X116663440Y-112179250D01*
X116663440Y-111985495D01*
X116815751Y-111922406D01*
X117078771Y-111659386D01*
X117221116Y-111315734D01*
X117221116Y-110943768D01*
X117078771Y-110600116D01*
X116815751Y-110337096D01*
X116663440Y-110274007D01*
X116663440Y-109816750D01*
X116595602Y-109475706D01*
X116402416Y-109186584D01*
X116113294Y-108993398D01*
X115903404Y-108951648D01*
X115845905Y-108865595D01*
X115784537Y-108824590D01*
X114874781Y-107914835D01*
X114885440Y-107861250D01*
X114885440Y-107440000D01*
X115515710Y-107440000D01*
X115548365Y-107472655D01*
X115892017Y-107615000D01*
X116263983Y-107615000D01*
X116607635Y-107472655D01*
X116870655Y-107209635D01*
X117013000Y-106865983D01*
X117013000Y-106494017D01*
X116870655Y-106150365D01*
X116607635Y-105887345D01*
X116263983Y-105745000D01*
X115892017Y-105745000D01*
X115548365Y-105887345D01*
X115515710Y-105920000D01*
X114764750Y-105920000D01*
X114714250Y-105869500D01*
X113665000Y-105869500D01*
X113665000Y-105889500D01*
X113411000Y-105889500D01*
X113411000Y-105869500D01*
X111379000Y-105869500D01*
X111379000Y-105889500D01*
X111125000Y-105889500D01*
X111125000Y-105869500D01*
X110075750Y-105869500D01*
X109917000Y-106028250D01*
X109917000Y-106112187D01*
X109887241Y-106132071D01*
X109844842Y-106195525D01*
X109395695Y-106644674D01*
X109364010Y-106665845D01*
X109364010Y-104966740D01*
X109395500Y-104935250D01*
X109395500Y-103886000D01*
X109375500Y-103886000D01*
X109375500Y-103632000D01*
X109395500Y-103632000D01*
X109395500Y-103612000D01*
X109649500Y-103612000D01*
X109649500Y-103632000D01*
X109669500Y-103632000D01*
X109669500Y-103886000D01*
X109649500Y-103886000D01*
X109649500Y-104935250D01*
X109808250Y-105094000D01*
X109931369Y-105094000D01*
X109917000Y-105128691D01*
X109917000Y-105456750D01*
X110075750Y-105615500D01*
X111125000Y-105615500D01*
X111125000Y-105595500D01*
X111379000Y-105595500D01*
X111379000Y-105615500D01*
X113411000Y-105615500D01*
X113411000Y-105595500D01*
X113665000Y-105595500D01*
X113665000Y-105615500D01*
X114616881Y-105615500D01*
X114651947Y-105628263D01*
X114761813Y-105645173D01*
X114870840Y-105666860D01*
X115131240Y-105666860D01*
X115240267Y-105645173D01*
X115350133Y-105628263D01*
X115594933Y-105539163D01*
X115689966Y-105481496D01*
X115787424Y-105428029D01*
X115986924Y-105260629D01*
X116056476Y-105173969D01*
X116129743Y-105090452D01*
X116260043Y-104864852D01*
X116295819Y-104759517D01*
X116336129Y-104655828D01*
X116381329Y-104399328D01*
X116380100Y-104343261D01*
X116391040Y-104288260D01*
X116377389Y-104219631D01*
X116376701Y-104188260D01*
X116377389Y-104156889D01*
X116391040Y-104088260D01*
X116380100Y-104033259D01*
X116381329Y-103977192D01*
X116336129Y-103720692D01*
X116295819Y-103617003D01*
X116260043Y-103511668D01*
X116129743Y-103286068D01*
X116056476Y-103202551D01*
X115986924Y-103115891D01*
X115787424Y-102948491D01*
X115689966Y-102895024D01*
X115594933Y-102837357D01*
X115350133Y-102748257D01*
X115240267Y-102731347D01*
X115131240Y-102709660D01*
X114870840Y-102709660D01*
X114761813Y-102731347D01*
X114651947Y-102748257D01*
X114407147Y-102837357D01*
X114312109Y-102895027D01*
X114214657Y-102948491D01*
X114025500Y-103107211D01*
X114025500Y-102932690D01*
X113928827Y-102699301D01*
X113750198Y-102520673D01*
X113516809Y-102424000D01*
X113188750Y-102424000D01*
X113030000Y-102582750D01*
X113030000Y-103632000D01*
X113050000Y-103632000D01*
X113050000Y-103886000D01*
X113030000Y-103886000D01*
X113030000Y-103906000D01*
X112776000Y-103906000D01*
X112776000Y-103886000D01*
X112756000Y-103886000D01*
X112756000Y-103632000D01*
X112776000Y-103632000D01*
X112776000Y-102582750D01*
X112617250Y-102424000D01*
X112289191Y-102424000D01*
X112055802Y-102520673D01*
X111902707Y-102673767D01*
X111901916Y-102672584D01*
X111612794Y-102479398D01*
X111271750Y-102411560D01*
X110784250Y-102411560D01*
X110730665Y-102422219D01*
X110598901Y-102290455D01*
X110557895Y-102229085D01*
X110314773Y-102066636D01*
X110100378Y-102023990D01*
X110100374Y-102023990D01*
X110027990Y-102009592D01*
X109955606Y-102023990D01*
X108719898Y-102023990D01*
X108647510Y-102009591D01*
X108575122Y-102023990D01*
X108360727Y-102066636D01*
X108117605Y-102229085D01*
X108076600Y-102290453D01*
X107944835Y-102422219D01*
X107891250Y-102411560D01*
X107403750Y-102411560D01*
X107062706Y-102479398D01*
X106773584Y-102672584D01*
X106683389Y-102807570D01*
X106591496Y-102670044D01*
X106302374Y-102476858D01*
X105961330Y-102409020D01*
X105473830Y-102409020D01*
X105132786Y-102476858D01*
X104843664Y-102670044D01*
X104780080Y-102765204D01*
X104716496Y-102670044D01*
X104427374Y-102476858D01*
X104086330Y-102409020D01*
X103598830Y-102409020D01*
X103257786Y-102476858D01*
X102968664Y-102670044D01*
X102775478Y-102959166D01*
X102707640Y-103300210D01*
X102707640Y-103492782D01*
X102655191Y-103756460D01*
X102707640Y-104020138D01*
X102707640Y-104212710D01*
X102721331Y-104281538D01*
X102215584Y-104281538D01*
X102140737Y-104266650D01*
X102065890Y-104281538D01*
X102065886Y-104281538D01*
X101844201Y-104325634D01*
X101592809Y-104493609D01*
X101550409Y-104557065D01*
X99135000Y-106972475D01*
X99135000Y-97917000D01*
X119305000Y-97917000D01*
X119305000Y-116535934D01*
X119305000Y-116535934D01*
G37*
X119305000Y-116535934D02*
X116663178Y-113894112D01*
X116743655Y-113813635D01*
X116886000Y-113469983D01*
X116886000Y-113098017D01*
X116743655Y-112754365D01*
X116686000Y-112696710D01*
X116686000Y-112642888D01*
X116700399Y-112570500D01*
X116672487Y-112430180D01*
X116643354Y-112283717D01*
X116642819Y-112282917D01*
X116663440Y-112179250D01*
X116663440Y-111985495D01*
X116815751Y-111922406D01*
X117078771Y-111659386D01*
X117221116Y-111315734D01*
X117221116Y-110943768D01*
X117078771Y-110600116D01*
X116815751Y-110337096D01*
X116663440Y-110274007D01*
X116663440Y-109816750D01*
X116595602Y-109475706D01*
X116402416Y-109186584D01*
X116113294Y-108993398D01*
X115903404Y-108951648D01*
X115845905Y-108865595D01*
X115784537Y-108824590D01*
X114874781Y-107914835D01*
X114885440Y-107861250D01*
X114885440Y-107440000D01*
X115515710Y-107440000D01*
X115548365Y-107472655D01*
X115892017Y-107615000D01*
X116263983Y-107615000D01*
X116607635Y-107472655D01*
X116870655Y-107209635D01*
X117013000Y-106865983D01*
X117013000Y-106494017D01*
X116870655Y-106150365D01*
X116607635Y-105887345D01*
X116263983Y-105745000D01*
X115892017Y-105745000D01*
X115548365Y-105887345D01*
X115515710Y-105920000D01*
X114764750Y-105920000D01*
X114714250Y-105869500D01*
X113665000Y-105869500D01*
X113665000Y-105889500D01*
X113411000Y-105889500D01*
X113411000Y-105869500D01*
X111379000Y-105869500D01*
X111379000Y-105889500D01*
X111125000Y-105889500D01*
X111125000Y-105869500D01*
X110075750Y-105869500D01*
X109917000Y-106028250D01*
X109917000Y-106112187D01*
X109887241Y-106132071D01*
X109844842Y-106195525D01*
X109395695Y-106644674D01*
X109364010Y-106665845D01*
X109364010Y-104966740D01*
X109395500Y-104935250D01*
X109395500Y-103886000D01*
X109375500Y-103886000D01*
X109375500Y-103632000D01*
X109395500Y-103632000D01*
X109395500Y-103612000D01*
X109649500Y-103612000D01*
X109649500Y-103632000D01*
X109669500Y-103632000D01*
X109669500Y-103886000D01*
X109649500Y-103886000D01*
X109649500Y-104935250D01*
X109808250Y-105094000D01*
X109931369Y-105094000D01*
X109917000Y-105128691D01*
X109917000Y-105456750D01*
X110075750Y-105615500D01*
X111125000Y-105615500D01*
X111125000Y-105595500D01*
X111379000Y-105595500D01*
X111379000Y-105615500D01*
X113411000Y-105615500D01*
X113411000Y-105595500D01*
X113665000Y-105595500D01*
X113665000Y-105615500D01*
X114616881Y-105615500D01*
X114651947Y-105628263D01*
X114761813Y-105645173D01*
X114870840Y-105666860D01*
X115131240Y-105666860D01*
X115240267Y-105645173D01*
X115350133Y-105628263D01*
X115594933Y-105539163D01*
X115689966Y-105481496D01*
X115787424Y-105428029D01*
X115986924Y-105260629D01*
X116056476Y-105173969D01*
X116129743Y-105090452D01*
X116260043Y-104864852D01*
X116295819Y-104759517D01*
X116336129Y-104655828D01*
X116381329Y-104399328D01*
X116380100Y-104343261D01*
X116391040Y-104288260D01*
X116377389Y-104219631D01*
X116376701Y-104188260D01*
X116377389Y-104156889D01*
X116391040Y-104088260D01*
X116380100Y-104033259D01*
X116381329Y-103977192D01*
X116336129Y-103720692D01*
X116295819Y-103617003D01*
X116260043Y-103511668D01*
X116129743Y-103286068D01*
X116056476Y-103202551D01*
X115986924Y-103115891D01*
X115787424Y-102948491D01*
X115689966Y-102895024D01*
X115594933Y-102837357D01*
X115350133Y-102748257D01*
X115240267Y-102731347D01*
X115131240Y-102709660D01*
X114870840Y-102709660D01*
X114761813Y-102731347D01*
X114651947Y-102748257D01*
X114407147Y-102837357D01*
X114312109Y-102895027D01*
X114214657Y-102948491D01*
X114025500Y-103107211D01*
X114025500Y-102932690D01*
X113928827Y-102699301D01*
X113750198Y-102520673D01*
X113516809Y-102424000D01*
X113188750Y-102424000D01*
X113030000Y-102582750D01*
X113030000Y-103632000D01*
X113050000Y-103632000D01*
X113050000Y-103886000D01*
X113030000Y-103886000D01*
X113030000Y-103906000D01*
X112776000Y-103906000D01*
X112776000Y-103886000D01*
X112756000Y-103886000D01*
X112756000Y-103632000D01*
X112776000Y-103632000D01*
X112776000Y-102582750D01*
X112617250Y-102424000D01*
X112289191Y-102424000D01*
X112055802Y-102520673D01*
X111902707Y-102673767D01*
X111901916Y-102672584D01*
X111612794Y-102479398D01*
X111271750Y-102411560D01*
X110784250Y-102411560D01*
X110730665Y-102422219D01*
X110598901Y-102290455D01*
X110557895Y-102229085D01*
X110314773Y-102066636D01*
X110100378Y-102023990D01*
X110100374Y-102023990D01*
X110027990Y-102009592D01*
X109955606Y-102023990D01*
X108719898Y-102023990D01*
X108647510Y-102009591D01*
X108575122Y-102023990D01*
X108360727Y-102066636D01*
X108117605Y-102229085D01*
X108076600Y-102290453D01*
X107944835Y-102422219D01*
X107891250Y-102411560D01*
X107403750Y-102411560D01*
X107062706Y-102479398D01*
X106773584Y-102672584D01*
X106683389Y-102807570D01*
X106591496Y-102670044D01*
X106302374Y-102476858D01*
X105961330Y-102409020D01*
X105473830Y-102409020D01*
X105132786Y-102476858D01*
X104843664Y-102670044D01*
X104780080Y-102765204D01*
X104716496Y-102670044D01*
X104427374Y-102476858D01*
X104086330Y-102409020D01*
X103598830Y-102409020D01*
X103257786Y-102476858D01*
X102968664Y-102670044D01*
X102775478Y-102959166D01*
X102707640Y-103300210D01*
X102707640Y-103492782D01*
X102655191Y-103756460D01*
X102707640Y-104020138D01*
X102707640Y-104212710D01*
X102721331Y-104281538D01*
X102215584Y-104281538D01*
X102140737Y-104266650D01*
X102065890Y-104281538D01*
X102065886Y-104281538D01*
X101844201Y-104325634D01*
X101592809Y-104493609D01*
X101550409Y-104557065D01*
X99135000Y-106972475D01*
X99135000Y-97917000D01*
X119305000Y-97917000D01*
X119305000Y-116535934D01*
G36*
X104738093Y-114399878D02*
X104891187Y-114552973D01*
X104890004Y-114553764D01*
X104757113Y-114752648D01*
X104624436Y-114554084D01*
X104529276Y-114490500D01*
X104624436Y-114426916D01*
X104701512Y-114311564D01*
X104738093Y-114399878D01*
X104738093Y-114399878D01*
G37*
X104738093Y-114399878D02*
X104891187Y-114552973D01*
X104890004Y-114553764D01*
X104757113Y-114752648D01*
X104624436Y-114554084D01*
X104529276Y-114490500D01*
X104624436Y-114426916D01*
X104701512Y-114311564D01*
X104738093Y-114399878D01*
G36*
X105742660Y-106743500D02*
X105762660Y-106743500D01*
X105762660Y-106997500D01*
X105742660Y-106997500D01*
X105742660Y-108046750D01*
X105808700Y-108112790D01*
X105808700Y-108803440D01*
X105828700Y-108803440D01*
X105828700Y-109057440D01*
X105808700Y-109057440D01*
X105808700Y-110106690D01*
X105862040Y-110160030D01*
X105862040Y-110837980D01*
X105882040Y-110837980D01*
X105882040Y-111091980D01*
X105862040Y-111091980D01*
X105862040Y-112141230D01*
X106020790Y-112299980D01*
X106348849Y-112299980D01*
X106582238Y-112203307D01*
X106614663Y-112170882D01*
X106622988Y-112212735D01*
X106622988Y-112212739D01*
X106666240Y-112430180D01*
X106262170Y-112430180D01*
X106103420Y-112588930D01*
X106103420Y-113425680D01*
X106123420Y-113425680D01*
X106123420Y-113679680D01*
X106103420Y-113679680D01*
X106103420Y-113699680D01*
X105849420Y-113699680D01*
X105849420Y-113679680D01*
X105829420Y-113679680D01*
X105829420Y-113425680D01*
X105849420Y-113425680D01*
X105849420Y-112588930D01*
X105690670Y-112430180D01*
X105150110Y-112430180D01*
X104916721Y-112526853D01*
X104738093Y-112705482D01*
X104701348Y-112794191D01*
X104624436Y-112679084D01*
X104335314Y-112485898D01*
X104298020Y-112478480D01*
X104298020Y-112273785D01*
X104444834Y-112244582D01*
X104733956Y-112051396D01*
X104734747Y-112050213D01*
X104887842Y-112203307D01*
X105121231Y-112299980D01*
X105449290Y-112299980D01*
X105608040Y-112141230D01*
X105608040Y-111091980D01*
X105588040Y-111091980D01*
X105588040Y-110837980D01*
X105608040Y-110837980D01*
X105608040Y-109788730D01*
X105554700Y-109735390D01*
X105554700Y-109057440D01*
X105534700Y-109057440D01*
X105534700Y-108803440D01*
X105554700Y-108803440D01*
X105554700Y-107754190D01*
X105488660Y-107688150D01*
X105488660Y-106997500D01*
X105468660Y-106997500D01*
X105468660Y-106743500D01*
X105488660Y-106743500D01*
X105488660Y-106723500D01*
X105742660Y-106723500D01*
X105742660Y-106743500D01*
X105742660Y-106743500D01*
G37*
X105742660Y-106743500D02*
X105762660Y-106743500D01*
X105762660Y-106997500D01*
X105742660Y-106997500D01*
X105742660Y-108046750D01*
X105808700Y-108112790D01*
X105808700Y-108803440D01*
X105828700Y-108803440D01*
X105828700Y-109057440D01*
X105808700Y-109057440D01*
X105808700Y-110106690D01*
X105862040Y-110160030D01*
X105862040Y-110837980D01*
X105882040Y-110837980D01*
X105882040Y-111091980D01*
X105862040Y-111091980D01*
X105862040Y-112141230D01*
X106020790Y-112299980D01*
X106348849Y-112299980D01*
X106582238Y-112203307D01*
X106614663Y-112170882D01*
X106622988Y-112212735D01*
X106622988Y-112212739D01*
X106666240Y-112430180D01*
X106262170Y-112430180D01*
X106103420Y-112588930D01*
X106103420Y-113425680D01*
X106123420Y-113425680D01*
X106123420Y-113679680D01*
X106103420Y-113679680D01*
X106103420Y-113699680D01*
X105849420Y-113699680D01*
X105849420Y-113679680D01*
X105829420Y-113679680D01*
X105829420Y-113425680D01*
X105849420Y-113425680D01*
X105849420Y-112588930D01*
X105690670Y-112430180D01*
X105150110Y-112430180D01*
X104916721Y-112526853D01*
X104738093Y-112705482D01*
X104701348Y-112794191D01*
X104624436Y-112679084D01*
X104335314Y-112485898D01*
X104298020Y-112478480D01*
X104298020Y-112273785D01*
X104444834Y-112244582D01*
X104733956Y-112051396D01*
X104734747Y-112050213D01*
X104887842Y-112203307D01*
X105121231Y-112299980D01*
X105449290Y-112299980D01*
X105608040Y-112141230D01*
X105608040Y-111091980D01*
X105588040Y-111091980D01*
X105588040Y-110837980D01*
X105608040Y-110837980D01*
X105608040Y-109788730D01*
X105554700Y-109735390D01*
X105554700Y-109057440D01*
X105534700Y-109057440D01*
X105534700Y-108803440D01*
X105554700Y-108803440D01*
X105554700Y-107754190D01*
X105488660Y-107688150D01*
X105488660Y-106997500D01*
X105468660Y-106997500D01*
X105468660Y-106743500D01*
X105488660Y-106743500D01*
X105488660Y-106723500D01*
X105742660Y-106723500D01*
X105742660Y-106743500D01*
G04 #@! TD*
M02*
