G04 #@! TF.GenerationSoftware,KiCad,Pcbnew,(5.0.0)*
G04 #@! TF.CreationDate,2020-03-09T09:29:50-06:00*
G04 #@! TF.ProjectId,BatteryPack,426174746572795061636B2E6B696361,rev?*
G04 #@! TF.SameCoordinates,Original*
G04 #@! TF.FileFunction,Copper,L1,Top,Signal*
G04 #@! TF.FilePolarity,Positive*
%FSLAX46Y46*%
G04 Gerber Fmt 4.6, Leading zero omitted, Abs format (unit mm)*
G04 Created by KiCad (PCBNEW (5.0.0)) date 03/09/20 09:29:50*
%MOMM*%
%LPD*%
G01*
G04 APERTURE LIST*
G04 #@! TA.AperFunction,SMDPad,CuDef*
%ADD10R,1.200000X0.650000*%
G04 #@! TD*
G04 #@! TA.AperFunction,ComponentPad*
%ADD11R,1.752600X1.752600*%
G04 #@! TD*
G04 #@! TA.AperFunction,ComponentPad*
%ADD12C,1.752600*%
G04 #@! TD*
G04 #@! TA.AperFunction,SMDPad,CuDef*
%ADD13R,3.510000X2.540000*%
G04 #@! TD*
G04 #@! TA.AperFunction,WasherPad*
%ADD14C,1.000000*%
G04 #@! TD*
G04 #@! TA.AperFunction,SMDPad,CuDef*
%ADD15R,0.900000X1.250000*%
G04 #@! TD*
G04 #@! TA.AperFunction,SMDPad,CuDef*
%ADD16R,0.900000X0.900000*%
G04 #@! TD*
G04 #@! TA.AperFunction,Conductor*
%ADD17C,0.500000*%
G04 #@! TD*
G04 APERTURE END LIST*
D10*
G04 #@! TO.P,SW1,1*
G04 #@! TO.N,Net-(SW1-Pad1)*
X119144000Y-95132000D03*
X123444000Y-95132000D03*
G04 #@! TO.P,SW1,2*
G04 #@! TO.N,GND*
X119144000Y-97282000D03*
X123444000Y-97282000D03*
G04 #@! TD*
D11*
G04 #@! TO.P,U1,1*
G04 #@! TO.N,Net-(SW2-Pad1)*
X120650000Y-64060000D03*
D12*
G04 #@! TO.P,U1,2*
G04 #@! TO.N,GND*
X120650000Y-66600000D03*
G04 #@! TO.P,U1,3*
G04 #@! TO.N,Net-(SW1-Pad1)*
X120650000Y-69140000D03*
G04 #@! TO.P,U1,4*
G04 #@! TO.N,N/C*
X120650000Y-71680000D03*
G04 #@! TO.P,U1,5*
X120650000Y-74220000D03*
G04 #@! TO.P,U1,6*
X120650000Y-76760000D03*
G04 #@! TO.P,U1,7*
X120650000Y-79300000D03*
G04 #@! TO.P,U1,8*
X120650000Y-81840000D03*
G04 #@! TO.P,U1,9*
X120650000Y-84380000D03*
G04 #@! TO.P,U1,10*
X120650000Y-86920000D03*
G04 #@! TO.P,U1,11*
X120650000Y-89460000D03*
G04 #@! TO.P,U1,12*
X120650000Y-92000000D03*
G04 #@! TO.P,U1,24*
X135890000Y-92000000D03*
G04 #@! TO.P,U1,23*
X135890000Y-89460000D03*
G04 #@! TO.P,U1,22*
X135890000Y-86920000D03*
G04 #@! TO.P,U1,21*
X135890000Y-84380000D03*
G04 #@! TO.P,U1,20*
X135890000Y-81840000D03*
G04 #@! TO.P,U1,19*
X135890000Y-79300000D03*
G04 #@! TO.P,U1,18*
X135890000Y-76760000D03*
G04 #@! TO.P,U1,17*
X135890000Y-74220000D03*
G04 #@! TO.P,U1,16*
X135890000Y-71680000D03*
G04 #@! TO.P,U1,15*
X135890000Y-69140000D03*
G04 #@! TO.P,U1,14*
X135890000Y-66600000D03*
G04 #@! TO.P,U1,13*
X135890000Y-64060000D03*
G04 #@! TD*
D13*
G04 #@! TO.P,BT1,1*
G04 #@! TO.N,Net-(BT1-Pad1)*
X128270000Y-67870000D03*
G04 #@! TO.P,BT1,2*
G04 #@! TO.N,GND*
X128270000Y-97230000D03*
G04 #@! TD*
D14*
G04 #@! TO.P,SW2,*
G04 #@! TO.N,*
X129770000Y-63246000D03*
X126770000Y-63246000D03*
D15*
G04 #@! TO.P,SW2,2*
G04 #@! TO.N,Net-(BT1-Pad1)*
X127520000Y-65321000D03*
G04 #@! TO.P,SW2,3*
G04 #@! TO.N,N/C*
X126020000Y-65321000D03*
G04 #@! TO.P,SW2,1*
G04 #@! TO.N,Net-(SW2-Pad1)*
X130520000Y-65321000D03*
D16*
G04 #@! TO.P,SW2,0*
G04 #@! TO.N,N/C*
X131970000Y-62146000D03*
X131970000Y-64346000D03*
X124570000Y-64346000D03*
X124570000Y-62146000D03*
G04 #@! TD*
D17*
G04 #@! TO.N,GND*
X119144000Y-97282000D02*
X123444000Y-97282000D01*
X128218000Y-97282000D02*
X128270000Y-97230000D01*
X123444000Y-97282000D02*
X128218000Y-97282000D01*
X128270000Y-73870000D02*
X128270000Y-97230000D01*
X121000000Y-66600000D02*
X128270000Y-73870000D01*
X120650000Y-66600000D02*
X121000000Y-66600000D01*
G04 #@! TO.N,Net-(BT1-Pad1)*
X128052000Y-67652000D02*
X128270000Y-67870000D01*
X127520000Y-67120000D02*
X128270000Y-67870000D01*
X127520000Y-65321000D02*
X127520000Y-67120000D01*
G04 #@! TO.N,Net-(SW1-Pad1)*
X119144000Y-95132000D02*
X123444000Y-95132000D01*
X123444000Y-71584000D02*
X123444000Y-95132000D01*
X121000000Y-69140000D02*
X123444000Y-71584000D01*
X120650000Y-69140000D02*
X121000000Y-69140000D01*
G04 #@! TO.N,Net-(SW2-Pad1)*
X122376300Y-64060000D02*
X124102300Y-65786000D01*
X124102300Y-65786000D02*
X124102300Y-67968300D01*
X124102300Y-67968300D02*
X126492000Y-70358000D01*
X126492000Y-70358000D02*
X129794000Y-70358000D01*
X129794000Y-70358000D02*
X131052000Y-69100000D01*
X131052000Y-66978000D02*
X131052000Y-69100000D01*
X130520000Y-66446000D02*
X131052000Y-66978000D01*
X130520000Y-65321000D02*
X130520000Y-66446000D01*
X120650000Y-64060000D02*
X121920000Y-64060000D01*
X121000000Y-64060000D02*
X121920000Y-64060000D01*
X121920000Y-64060000D02*
X122376300Y-64060000D01*
G04 #@! TD*
M02*
