M48
;DRILL file {KiCad 4.0.7} date 09/17/18 10:08:37
;FORMAT={-:-/ absolute / inch / decimal}
FMAT,2
INCH,TZ
T1C0.016
T2C0.039
T3C0.043
%
G90
G05
M72
T1
X5.624Y-3.232
X5.634Y-2.812
X5.638Y-3.024
X5.642Y-3.154
X5.644Y-3.198
X5.668Y-2.994
X5.698Y-2.95
X5.716Y-2.906
X5.734Y-2.866
X5.8673Y-3.585
X5.8965Y-3.6098
X5.93Y-3.635
X5.96Y-2.806
X5.9704Y-3.062
X5.9704Y-3.126
X5.98Y-2.842
X5.986Y-2.934
X5.99Y-2.888
X6.012Y-2.998
X6.034Y-3.026
X6.042Y-3.154
X6.0575Y-3.2753
X6.058Y-3.2
X6.136Y-3.32
T2
X5.7Y-4.6
X5.79Y-3.77
X5.79Y-3.87
X5.79Y-3.97
X5.79Y-4.07
X5.79Y-4.17
X5.79Y-4.27
X5.8Y-4.6
X5.89Y-3.77
X5.89Y-3.87
X5.89Y-3.97
X5.89Y-4.07
X5.89Y-4.17
X5.89Y-4.27
X5.9Y-4.6
X6.Y-4.6
T3
X5.5465Y-3.524
X5.5465Y-3.624
X5.5465Y-3.724
X5.5465Y-3.824
X5.5465Y-3.924
X5.5465Y-4.024
X5.5465Y-4.124
X5.5465Y-4.224
X5.5465Y-4.324
X5.5465Y-4.424
X5.5465Y-4.524
X5.5465Y-4.624
X6.1465Y-3.524
X6.1465Y-3.624
X6.1465Y-3.724
X6.1465Y-3.824
X6.1465Y-3.924
X6.1465Y-4.024
X6.1465Y-4.124
X6.1465Y-4.224
X6.1465Y-4.324
X6.1465Y-4.424
X6.1465Y-4.524
X6.1465Y-4.624
T0
M30
