G04 #@! TF.FileFunction,Copper,L1,Top,Signal*
%FSLAX46Y46*%
G04 Gerber Fmt 4.6, Leading zero omitted, Abs format (unit mm)*
G04 Created by KiCad (PCBNEW 4.0.7) date 09/17/18 10:08:34*
%MOMM*%
%LPD*%
G01*
G04 APERTURE LIST*
%ADD10C,0.100000*%
%ADD11R,1.752600X1.752600*%
%ADD12C,1.752600*%
%ADD13R,1.700000X1.700000*%
%ADD14O,1.700000X1.700000*%
%ADD15R,1.500000X1.250000*%
%ADD16O,3.000000X0.700000*%
%ADD17O,0.700000X3.000000*%
%ADD18C,0.600000*%
%ADD19C,0.250000*%
%ADD20C,0.254000*%
G04 APERTURE END LIST*
D10*
D11*
X140881100Y-117449600D03*
D12*
X140881100Y-114909600D03*
X140881100Y-112369600D03*
X140881100Y-109829600D03*
X140881100Y-107289600D03*
X140881100Y-104749600D03*
X140881100Y-102209600D03*
X140881100Y-99669600D03*
X140881100Y-97129600D03*
X140881100Y-94589600D03*
X140881100Y-92049600D03*
X140881100Y-89509600D03*
X156121100Y-89509600D03*
X156121100Y-92049600D03*
X156121100Y-94589600D03*
X156121100Y-97129600D03*
X156121100Y-99669600D03*
X156121100Y-102209600D03*
X156121100Y-104749600D03*
X156121100Y-107289600D03*
X156121100Y-109829600D03*
X156121100Y-112369600D03*
X156121100Y-114909600D03*
X156121100Y-117449600D03*
D13*
X147066000Y-95758000D03*
D14*
X149606000Y-95758000D03*
X147066000Y-98298000D03*
X149606000Y-98298000D03*
X147066000Y-100838000D03*
X149606000Y-100838000D03*
X147066000Y-103378000D03*
X149606000Y-103378000D03*
X147066000Y-105918000D03*
X149606000Y-105918000D03*
X147066000Y-108458000D03*
X149606000Y-108458000D03*
D13*
X152400000Y-116840000D03*
D14*
X149860000Y-116840000D03*
X147320000Y-116840000D03*
X144780000Y-116840000D03*
D15*
X147157120Y-112623600D03*
X149657120Y-112623600D03*
D16*
X140713210Y-71198000D03*
X140713210Y-83298000D03*
D17*
X147863200Y-85598000D03*
X148963200Y-85598000D03*
X145663200Y-85598000D03*
D16*
X140713210Y-74498000D03*
X140713210Y-75598000D03*
X140713210Y-76698000D03*
X140713210Y-77798000D03*
X140713210Y-78898000D03*
X140713210Y-79998000D03*
X140713210Y-82198000D03*
D17*
X142363200Y-85598000D03*
X143463200Y-85598000D03*
X144563200Y-85598000D03*
D16*
X140713210Y-72298000D03*
X140713210Y-81098000D03*
X140713210Y-73398000D03*
D17*
X146763200Y-85598000D03*
D16*
X156113210Y-72298000D03*
D17*
X153363200Y-85598000D03*
X154463200Y-85598000D03*
D16*
X156113210Y-83298000D03*
X156113210Y-82198000D03*
X156113210Y-81098000D03*
X156113210Y-79998000D03*
X156113210Y-77798000D03*
X156113210Y-76698000D03*
X156113210Y-75598000D03*
X156113210Y-74498000D03*
X156113210Y-73398000D03*
D17*
X151163200Y-85598000D03*
D16*
X156113210Y-78898000D03*
D17*
X152263200Y-85598000D03*
D16*
X156113210Y-71198000D03*
D17*
X150063200Y-85598000D03*
D18*
X153263600Y-76860400D03*
X152704800Y-76149200D03*
X143103600Y-71424800D03*
X142849600Y-82092800D03*
X153466800Y-80111600D03*
X151649013Y-79400400D03*
X144729200Y-74930000D03*
X143967200Y-76047600D03*
X143205200Y-76809600D03*
X143306800Y-80111600D03*
X145643600Y-72796400D03*
X143357600Y-81229200D03*
X145186400Y-73812400D03*
X151892000Y-72186800D03*
X149030021Y-91059000D03*
X155854400Y-84328000D03*
X153859569Y-83193530D03*
X153873200Y-81280000D03*
X151649013Y-77774800D03*
X152044400Y-74523600D03*
X150622008Y-92329000D03*
X152146000Y-73355200D03*
X149770999Y-91689417D03*
X151384000Y-71272400D03*
D19*
X153263600Y-76860400D02*
X155950810Y-76860400D01*
X155950810Y-76860400D02*
X156113210Y-76698000D01*
X156113210Y-75598000D02*
X153256000Y-75598000D01*
X153256000Y-75598000D02*
X152704800Y-76149200D01*
X143103600Y-71424800D02*
X140940010Y-71424800D01*
X140940010Y-71424800D02*
X140713210Y-71198000D01*
X142849600Y-82092800D02*
X140818410Y-82092800D01*
X140818410Y-82092800D02*
X140713210Y-82198000D01*
X149693000Y-112649000D02*
X149568000Y-112649000D01*
X149568000Y-112649000D02*
X148241001Y-111322001D01*
X148241001Y-111322001D02*
X148241001Y-107093001D01*
X148241001Y-107093001D02*
X147915999Y-106767999D01*
X147915999Y-106767999D02*
X147066000Y-105918000D01*
X156121100Y-112369600D02*
X149972400Y-112369600D01*
X149972400Y-112369600D02*
X149693000Y-112649000D01*
X156121100Y-109829600D02*
X156121100Y-111068875D01*
X156121100Y-111068875D02*
X156121100Y-112369600D01*
X147320000Y-116840000D02*
X149693000Y-114467000D01*
X149693000Y-114467000D02*
X149693000Y-112649000D01*
X140881100Y-109829600D02*
X139319000Y-108267500D01*
X139319000Y-108267500D02*
X139319000Y-83794600D01*
X139319000Y-83794600D02*
X139815600Y-83298000D01*
X139815600Y-83298000D02*
X140713210Y-83298000D01*
X147193000Y-112649000D02*
X147193000Y-108585000D01*
X147193000Y-108585000D02*
X147066000Y-108458000D01*
X147193000Y-112649000D02*
X146193000Y-112649000D01*
X146193000Y-112649000D02*
X144780000Y-114062000D01*
X144780000Y-114062000D02*
X144780000Y-115637919D01*
X144780000Y-115637919D02*
X144780000Y-116840000D01*
X140881100Y-109829600D02*
X144780000Y-113728500D01*
X144780000Y-113728500D02*
X144780000Y-116840000D01*
X156113210Y-79998000D02*
X153580400Y-79998000D01*
X153580400Y-79998000D02*
X153466800Y-80111600D01*
X156113210Y-78898000D02*
X152151413Y-78898000D01*
X151949012Y-79100401D02*
X151649013Y-79400400D01*
X152151413Y-78898000D02*
X151949012Y-79100401D01*
X140881100Y-102209600D02*
X140995400Y-102209600D01*
X140995400Y-102209600D02*
X142817010Y-100387990D01*
X142817010Y-100387990D02*
X142817010Y-96453810D01*
X142817010Y-96453810D02*
X143648020Y-95622800D01*
X143648020Y-95622800D02*
X143648020Y-93336800D01*
X143648020Y-93336800D02*
X147942980Y-89041840D01*
X147942980Y-89041840D02*
X147942980Y-88126880D01*
X147942980Y-88126880D02*
X147942980Y-86876880D01*
X156121100Y-102209600D02*
X156121100Y-101892100D01*
X156121100Y-101892100D02*
X154432000Y-100203000D01*
X154432000Y-100203000D02*
X154432000Y-98552000D01*
X154432000Y-98552000D02*
X154108990Y-98228990D01*
X154108990Y-98228990D02*
X154108990Y-96390310D01*
X154108990Y-96390310D02*
X153335969Y-95617289D01*
X153335969Y-95617289D02*
X153335969Y-93645969D01*
X153335969Y-93645969D02*
X149042980Y-89352980D01*
X149042980Y-89352980D02*
X149042980Y-88126880D01*
X149042980Y-88126880D02*
X149042980Y-86876880D01*
X140881100Y-97129600D02*
X140881100Y-97116900D01*
X140881100Y-97116900D02*
X142748000Y-95250000D01*
X142748000Y-95250000D02*
X142748000Y-92964000D01*
X142748000Y-92964000D02*
X145742980Y-89969020D01*
X145742980Y-89969020D02*
X145742980Y-86876880D01*
X144246800Y-74498000D02*
X144678800Y-74930000D01*
X144678800Y-74930000D02*
X144729200Y-74930000D01*
X140713210Y-74498000D02*
X144246800Y-74498000D01*
X143967200Y-76047600D02*
X143517600Y-75598000D01*
X143517600Y-75598000D02*
X140713210Y-75598000D01*
X140713210Y-76698000D02*
X143093600Y-76698000D01*
X143093600Y-76698000D02*
X143205200Y-76809600D01*
X143306800Y-80111600D02*
X140826810Y-80111600D01*
X140826810Y-80111600D02*
X140713210Y-79998000D01*
X140881100Y-89509600D02*
X142442980Y-87947720D01*
X142442980Y-87947720D02*
X142442980Y-86876880D01*
X140881100Y-92049600D02*
X143542980Y-89387720D01*
X143542980Y-89387720D02*
X143542980Y-86876880D01*
X144642980Y-88126880D02*
X144642980Y-86876880D01*
X144642980Y-90432609D02*
X144642980Y-88126880D01*
X141757399Y-93318190D02*
X144642980Y-90432609D01*
X140881100Y-94589600D02*
X141757399Y-93713301D01*
X141757399Y-93713301D02*
X141757399Y-93318190D01*
X140713210Y-72298000D02*
X145145200Y-72298000D01*
X145145200Y-72298000D02*
X145643600Y-72796400D01*
X140713210Y-81098000D02*
X143226400Y-81098000D01*
X143226400Y-81098000D02*
X143357600Y-81229200D01*
X144729200Y-73355200D02*
X144686400Y-73398000D01*
X144686400Y-73398000D02*
X140713210Y-73398000D01*
X145186400Y-73812400D02*
X144729200Y-73355200D01*
X140881100Y-99669600D02*
X140881100Y-98907526D01*
X140881100Y-98907526D02*
X142367000Y-97421626D01*
X142367000Y-97421626D02*
X142367000Y-96267410D01*
X142367000Y-96267410D02*
X143198010Y-95436400D01*
X143198010Y-95436400D02*
X143198010Y-93150400D01*
X143198010Y-93150400D02*
X146842980Y-89505430D01*
X146842980Y-89505430D02*
X146842980Y-88126880D01*
X146842980Y-88126880D02*
X146842980Y-86876880D01*
X151892000Y-72186800D02*
X156002010Y-72186800D01*
X156002010Y-72186800D02*
X156113210Y-72298000D01*
X149030021Y-91483264D02*
X149030021Y-91059000D01*
X148971000Y-92499264D02*
X149030021Y-92440243D01*
X149030021Y-92440243D02*
X149030021Y-91483264D01*
X149098000Y-92583000D02*
X149054736Y-92583000D01*
X149054736Y-92583000D02*
X148971000Y-92499264D01*
X149606000Y-98298000D02*
X151130000Y-96774000D01*
X151130000Y-94912264D02*
X148971000Y-92753264D01*
X148971000Y-92753264D02*
X148971000Y-92499264D01*
X151130000Y-96774000D02*
X151130000Y-94912264D01*
X156121100Y-92049600D02*
X153442980Y-89371480D01*
X153442980Y-89371480D02*
X153442980Y-86876880D01*
X156121100Y-89509600D02*
X154542980Y-87931480D01*
X154542980Y-87931480D02*
X154542980Y-86876880D01*
X155854400Y-84328000D02*
X155854400Y-83556810D01*
X155854400Y-83556810D02*
X156113210Y-83298000D01*
X154963210Y-82198000D02*
X153967680Y-83193530D01*
X156113210Y-82198000D02*
X154963210Y-82198000D01*
X153967680Y-83193530D02*
X153859569Y-83193530D01*
X153873200Y-81280000D02*
X155931210Y-81280000D01*
X155931210Y-81280000D02*
X156113210Y-81098000D01*
X156113210Y-77798000D02*
X151672213Y-77798000D01*
X151672213Y-77798000D02*
X151649013Y-77774800D01*
X152044400Y-74523600D02*
X156087610Y-74523600D01*
X156087610Y-74523600D02*
X156113210Y-74498000D01*
X149606000Y-103378000D02*
X152654000Y-100330000D01*
X152654000Y-100330000D02*
X152654000Y-94360992D01*
X152654000Y-94360992D02*
X150622008Y-92329000D01*
X156113210Y-73398000D02*
X152188800Y-73398000D01*
X152188800Y-73398000D02*
X152146000Y-73355200D01*
X149770999Y-92113681D02*
X149770999Y-91689417D01*
X151580009Y-94303009D02*
X149770999Y-92493999D01*
X151580009Y-98863991D02*
X151580009Y-94303009D01*
X149606000Y-100838000D02*
X151580009Y-98863991D01*
X149770999Y-92493999D02*
X149770999Y-92113681D01*
X154235989Y-92259989D02*
X151242980Y-89266980D01*
X151242980Y-89266980D02*
X151242980Y-88126880D01*
X154235989Y-95244489D02*
X154235989Y-92259989D01*
X156121100Y-97129600D02*
X154235989Y-95244489D01*
X151242980Y-88126880D02*
X151242980Y-86876880D01*
X156121100Y-94589600D02*
X155930600Y-94589600D01*
X152342980Y-88126880D02*
X152342980Y-86876880D01*
X154686000Y-92073590D02*
X152342980Y-89730570D01*
X155930600Y-94589600D02*
X154686000Y-93345000D01*
X152342980Y-89730570D02*
X152342980Y-88126880D01*
X154686000Y-93345000D02*
X154686000Y-92073590D01*
X156113210Y-71198000D02*
X151458400Y-71198000D01*
X151458400Y-71198000D02*
X151384000Y-71272400D01*
X156121100Y-99669600D02*
X156121100Y-99352100D01*
X156121100Y-99352100D02*
X154559000Y-97790000D01*
X154559000Y-97790000D02*
X154559000Y-96203910D01*
X154559000Y-96203910D02*
X153785979Y-95430889D01*
X153785979Y-95430889D02*
X153785979Y-92952979D01*
X150142980Y-88126880D02*
X150142980Y-86876880D01*
X153785979Y-92952979D02*
X150142980Y-89309980D01*
X150142980Y-89309980D02*
X150142980Y-88126880D01*
D20*
G36*
X158040000Y-118289000D02*
X157408962Y-118289000D01*
X157632137Y-117751535D01*
X157632662Y-117150303D01*
X157403065Y-116594636D01*
X156988402Y-116179249D01*
X157401571Y-115766800D01*
X157632137Y-115211535D01*
X157632662Y-114610303D01*
X157403065Y-114054636D01*
X156978300Y-113629129D01*
X156944508Y-113615097D01*
X157004496Y-113432601D01*
X156121100Y-112549205D01*
X155237704Y-113432601D01*
X155297547Y-113614656D01*
X155266136Y-113627635D01*
X154840629Y-114052400D01*
X154610063Y-114607665D01*
X154609538Y-115208897D01*
X154839135Y-115764564D01*
X155253798Y-116179951D01*
X154840629Y-116592400D01*
X154610063Y-117147665D01*
X154609538Y-117748897D01*
X154832704Y-118289000D01*
X153491785Y-118289000D01*
X153701441Y-118154090D01*
X153846431Y-117941890D01*
X153897440Y-117690000D01*
X153897440Y-115990000D01*
X153853162Y-115754683D01*
X153714090Y-115538559D01*
X153501890Y-115393569D01*
X153250000Y-115342560D01*
X151550000Y-115342560D01*
X151314683Y-115386838D01*
X151098559Y-115525910D01*
X150953569Y-115738110D01*
X150939914Y-115805541D01*
X150910054Y-115760853D01*
X150428285Y-115438946D01*
X149860000Y-115325907D01*
X149291715Y-115438946D01*
X148809946Y-115760853D01*
X148582298Y-116101553D01*
X148515183Y-115958642D01*
X148086924Y-115568355D01*
X147676890Y-115398524D01*
X147447000Y-115519845D01*
X147447000Y-116713000D01*
X147467000Y-116713000D01*
X147467000Y-116967000D01*
X147447000Y-116967000D01*
X147447000Y-116987000D01*
X147193000Y-116987000D01*
X147193000Y-116967000D01*
X147173000Y-116967000D01*
X147173000Y-116713000D01*
X147193000Y-116713000D01*
X147193000Y-115519845D01*
X146963110Y-115398524D01*
X146553076Y-115568355D01*
X146124817Y-115958642D01*
X146057702Y-116101553D01*
X145830054Y-115760853D01*
X145540000Y-115567046D01*
X145540000Y-114376802D01*
X146105649Y-113811153D01*
X146155230Y-113845031D01*
X146407120Y-113896040D01*
X147907120Y-113896040D01*
X148142437Y-113851762D01*
X148358561Y-113712690D01*
X148405089Y-113644594D01*
X148547422Y-113786927D01*
X148780811Y-113883600D01*
X149371370Y-113883600D01*
X149530120Y-113724850D01*
X149530120Y-112750600D01*
X149784120Y-112750600D01*
X149784120Y-113724850D01*
X149942870Y-113883600D01*
X150533429Y-113883600D01*
X150766818Y-113786927D01*
X150945447Y-113608299D01*
X151042120Y-113374910D01*
X151042120Y-112909350D01*
X150883370Y-112750600D01*
X149784120Y-112750600D01*
X149530120Y-112750600D01*
X149510120Y-112750600D01*
X149510120Y-112496600D01*
X149530120Y-112496600D01*
X149530120Y-111522350D01*
X149784120Y-111522350D01*
X149784120Y-112496600D01*
X150883370Y-112496600D01*
X151042120Y-112337850D01*
X151042120Y-112134597D01*
X154598218Y-112134597D01*
X154624209Y-112735268D01*
X154804073Y-113169496D01*
X155058099Y-113252996D01*
X155941495Y-112369600D01*
X156300705Y-112369600D01*
X157184101Y-113252996D01*
X157438127Y-113169496D01*
X157643982Y-112604603D01*
X157617991Y-112003932D01*
X157438127Y-111569704D01*
X157184101Y-111486204D01*
X156300705Y-112369600D01*
X155941495Y-112369600D01*
X155058099Y-111486204D01*
X154804073Y-111569704D01*
X154598218Y-112134597D01*
X151042120Y-112134597D01*
X151042120Y-111872290D01*
X150945447Y-111638901D01*
X150766818Y-111460273D01*
X150533429Y-111363600D01*
X149942870Y-111363600D01*
X149784120Y-111522350D01*
X149530120Y-111522350D01*
X149371370Y-111363600D01*
X148780811Y-111363600D01*
X148547422Y-111460273D01*
X148406184Y-111601510D01*
X148371210Y-111547159D01*
X148159010Y-111402169D01*
X147953000Y-111360451D01*
X147953000Y-110892601D01*
X155237704Y-110892601D01*
X155305746Y-111099600D01*
X155237704Y-111306599D01*
X156121100Y-112189995D01*
X157004496Y-111306599D01*
X156936454Y-111099600D01*
X157004496Y-110892601D01*
X156121100Y-110009205D01*
X155237704Y-110892601D01*
X147953000Y-110892601D01*
X147953000Y-109636442D01*
X148145147Y-109508054D01*
X148336000Y-109222422D01*
X148526853Y-109508054D01*
X149008622Y-109829961D01*
X149576907Y-109943000D01*
X149635093Y-109943000D01*
X150203378Y-109829961D01*
X150555625Y-109594597D01*
X154598218Y-109594597D01*
X154624209Y-110195268D01*
X154804073Y-110629496D01*
X155058099Y-110712996D01*
X155941495Y-109829600D01*
X156300705Y-109829600D01*
X157184101Y-110712996D01*
X157438127Y-110629496D01*
X157643982Y-110064603D01*
X157617991Y-109463932D01*
X157438127Y-109029704D01*
X157184101Y-108946204D01*
X156300705Y-109829600D01*
X155941495Y-109829600D01*
X155058099Y-108946204D01*
X154804073Y-109029704D01*
X154598218Y-109594597D01*
X150555625Y-109594597D01*
X150685147Y-109508054D01*
X151007054Y-109026285D01*
X151120093Y-108458000D01*
X151007054Y-107889715D01*
X150685147Y-107407946D01*
X150355974Y-107188000D01*
X150685147Y-106968054D01*
X151007054Y-106486285D01*
X151120093Y-105918000D01*
X151007054Y-105349715D01*
X150685147Y-104867946D01*
X150355974Y-104648000D01*
X150685147Y-104428054D01*
X151007054Y-103946285D01*
X151120093Y-103378000D01*
X151047210Y-103011592D01*
X153191401Y-100867401D01*
X153356148Y-100620839D01*
X153414000Y-100330000D01*
X153414000Y-98530542D01*
X153571589Y-98766391D01*
X153672000Y-98866802D01*
X153672000Y-100203000D01*
X153729852Y-100493839D01*
X153894599Y-100740401D01*
X154742623Y-101588425D01*
X154610063Y-101907665D01*
X154609538Y-102508897D01*
X154839135Y-103064564D01*
X155253798Y-103479951D01*
X154840629Y-103892400D01*
X154610063Y-104447665D01*
X154609538Y-105048897D01*
X154839135Y-105604564D01*
X155253798Y-106019951D01*
X154840629Y-106432400D01*
X154610063Y-106987665D01*
X154609538Y-107588897D01*
X154839135Y-108144564D01*
X155263900Y-108570071D01*
X155297692Y-108584103D01*
X155237704Y-108766599D01*
X156121100Y-109649995D01*
X157004496Y-108766599D01*
X156944653Y-108584544D01*
X156976064Y-108571565D01*
X157401571Y-108146800D01*
X157632137Y-107591535D01*
X157632662Y-106990303D01*
X157403065Y-106434636D01*
X156988402Y-106019249D01*
X157401571Y-105606800D01*
X157632137Y-105051535D01*
X157632662Y-104450303D01*
X157403065Y-103894636D01*
X156988402Y-103479249D01*
X157401571Y-103066800D01*
X157632137Y-102511535D01*
X157632662Y-101910303D01*
X157403065Y-101354636D01*
X156988402Y-100939249D01*
X157401571Y-100526800D01*
X157632137Y-99971535D01*
X157632662Y-99370303D01*
X157403065Y-98814636D01*
X156988402Y-98399249D01*
X157401571Y-97986800D01*
X157632137Y-97431535D01*
X157632662Y-96830303D01*
X157403065Y-96274636D01*
X156988402Y-95859249D01*
X157401571Y-95446800D01*
X157632137Y-94891535D01*
X157632662Y-94290303D01*
X157403065Y-93734636D01*
X156988402Y-93319249D01*
X157401571Y-92906800D01*
X157632137Y-92351535D01*
X157632662Y-91750303D01*
X157403065Y-91194636D01*
X156988402Y-90779249D01*
X157401571Y-90366800D01*
X157632137Y-89811535D01*
X157632662Y-89210303D01*
X157403065Y-88654636D01*
X156978300Y-88229129D01*
X156423035Y-87998563D01*
X155821803Y-87998038D01*
X155724532Y-88038230D01*
X155302980Y-87616678D01*
X155302980Y-87271893D01*
X155373221Y-87166770D01*
X155448200Y-86789827D01*
X155448200Y-85171734D01*
X155667601Y-85262838D01*
X156039567Y-85263162D01*
X156383343Y-85121117D01*
X156646592Y-84858327D01*
X156789238Y-84514799D01*
X156789440Y-84283000D01*
X157305037Y-84283000D01*
X157681980Y-84208021D01*
X158001537Y-83994500D01*
X158040000Y-83936936D01*
X158040000Y-118289000D01*
X158040000Y-118289000D01*
G37*
X158040000Y-118289000D02*
X157408962Y-118289000D01*
X157632137Y-117751535D01*
X157632662Y-117150303D01*
X157403065Y-116594636D01*
X156988402Y-116179249D01*
X157401571Y-115766800D01*
X157632137Y-115211535D01*
X157632662Y-114610303D01*
X157403065Y-114054636D01*
X156978300Y-113629129D01*
X156944508Y-113615097D01*
X157004496Y-113432601D01*
X156121100Y-112549205D01*
X155237704Y-113432601D01*
X155297547Y-113614656D01*
X155266136Y-113627635D01*
X154840629Y-114052400D01*
X154610063Y-114607665D01*
X154609538Y-115208897D01*
X154839135Y-115764564D01*
X155253798Y-116179951D01*
X154840629Y-116592400D01*
X154610063Y-117147665D01*
X154609538Y-117748897D01*
X154832704Y-118289000D01*
X153491785Y-118289000D01*
X153701441Y-118154090D01*
X153846431Y-117941890D01*
X153897440Y-117690000D01*
X153897440Y-115990000D01*
X153853162Y-115754683D01*
X153714090Y-115538559D01*
X153501890Y-115393569D01*
X153250000Y-115342560D01*
X151550000Y-115342560D01*
X151314683Y-115386838D01*
X151098559Y-115525910D01*
X150953569Y-115738110D01*
X150939914Y-115805541D01*
X150910054Y-115760853D01*
X150428285Y-115438946D01*
X149860000Y-115325907D01*
X149291715Y-115438946D01*
X148809946Y-115760853D01*
X148582298Y-116101553D01*
X148515183Y-115958642D01*
X148086924Y-115568355D01*
X147676890Y-115398524D01*
X147447000Y-115519845D01*
X147447000Y-116713000D01*
X147467000Y-116713000D01*
X147467000Y-116967000D01*
X147447000Y-116967000D01*
X147447000Y-116987000D01*
X147193000Y-116987000D01*
X147193000Y-116967000D01*
X147173000Y-116967000D01*
X147173000Y-116713000D01*
X147193000Y-116713000D01*
X147193000Y-115519845D01*
X146963110Y-115398524D01*
X146553076Y-115568355D01*
X146124817Y-115958642D01*
X146057702Y-116101553D01*
X145830054Y-115760853D01*
X145540000Y-115567046D01*
X145540000Y-114376802D01*
X146105649Y-113811153D01*
X146155230Y-113845031D01*
X146407120Y-113896040D01*
X147907120Y-113896040D01*
X148142437Y-113851762D01*
X148358561Y-113712690D01*
X148405089Y-113644594D01*
X148547422Y-113786927D01*
X148780811Y-113883600D01*
X149371370Y-113883600D01*
X149530120Y-113724850D01*
X149530120Y-112750600D01*
X149784120Y-112750600D01*
X149784120Y-113724850D01*
X149942870Y-113883600D01*
X150533429Y-113883600D01*
X150766818Y-113786927D01*
X150945447Y-113608299D01*
X151042120Y-113374910D01*
X151042120Y-112909350D01*
X150883370Y-112750600D01*
X149784120Y-112750600D01*
X149530120Y-112750600D01*
X149510120Y-112750600D01*
X149510120Y-112496600D01*
X149530120Y-112496600D01*
X149530120Y-111522350D01*
X149784120Y-111522350D01*
X149784120Y-112496600D01*
X150883370Y-112496600D01*
X151042120Y-112337850D01*
X151042120Y-112134597D01*
X154598218Y-112134597D01*
X154624209Y-112735268D01*
X154804073Y-113169496D01*
X155058099Y-113252996D01*
X155941495Y-112369600D01*
X156300705Y-112369600D01*
X157184101Y-113252996D01*
X157438127Y-113169496D01*
X157643982Y-112604603D01*
X157617991Y-112003932D01*
X157438127Y-111569704D01*
X157184101Y-111486204D01*
X156300705Y-112369600D01*
X155941495Y-112369600D01*
X155058099Y-111486204D01*
X154804073Y-111569704D01*
X154598218Y-112134597D01*
X151042120Y-112134597D01*
X151042120Y-111872290D01*
X150945447Y-111638901D01*
X150766818Y-111460273D01*
X150533429Y-111363600D01*
X149942870Y-111363600D01*
X149784120Y-111522350D01*
X149530120Y-111522350D01*
X149371370Y-111363600D01*
X148780811Y-111363600D01*
X148547422Y-111460273D01*
X148406184Y-111601510D01*
X148371210Y-111547159D01*
X148159010Y-111402169D01*
X147953000Y-111360451D01*
X147953000Y-110892601D01*
X155237704Y-110892601D01*
X155305746Y-111099600D01*
X155237704Y-111306599D01*
X156121100Y-112189995D01*
X157004496Y-111306599D01*
X156936454Y-111099600D01*
X157004496Y-110892601D01*
X156121100Y-110009205D01*
X155237704Y-110892601D01*
X147953000Y-110892601D01*
X147953000Y-109636442D01*
X148145147Y-109508054D01*
X148336000Y-109222422D01*
X148526853Y-109508054D01*
X149008622Y-109829961D01*
X149576907Y-109943000D01*
X149635093Y-109943000D01*
X150203378Y-109829961D01*
X150555625Y-109594597D01*
X154598218Y-109594597D01*
X154624209Y-110195268D01*
X154804073Y-110629496D01*
X155058099Y-110712996D01*
X155941495Y-109829600D01*
X156300705Y-109829600D01*
X157184101Y-110712996D01*
X157438127Y-110629496D01*
X157643982Y-110064603D01*
X157617991Y-109463932D01*
X157438127Y-109029704D01*
X157184101Y-108946204D01*
X156300705Y-109829600D01*
X155941495Y-109829600D01*
X155058099Y-108946204D01*
X154804073Y-109029704D01*
X154598218Y-109594597D01*
X150555625Y-109594597D01*
X150685147Y-109508054D01*
X151007054Y-109026285D01*
X151120093Y-108458000D01*
X151007054Y-107889715D01*
X150685147Y-107407946D01*
X150355974Y-107188000D01*
X150685147Y-106968054D01*
X151007054Y-106486285D01*
X151120093Y-105918000D01*
X151007054Y-105349715D01*
X150685147Y-104867946D01*
X150355974Y-104648000D01*
X150685147Y-104428054D01*
X151007054Y-103946285D01*
X151120093Y-103378000D01*
X151047210Y-103011592D01*
X153191401Y-100867401D01*
X153356148Y-100620839D01*
X153414000Y-100330000D01*
X153414000Y-98530542D01*
X153571589Y-98766391D01*
X153672000Y-98866802D01*
X153672000Y-100203000D01*
X153729852Y-100493839D01*
X153894599Y-100740401D01*
X154742623Y-101588425D01*
X154610063Y-101907665D01*
X154609538Y-102508897D01*
X154839135Y-103064564D01*
X155253798Y-103479951D01*
X154840629Y-103892400D01*
X154610063Y-104447665D01*
X154609538Y-105048897D01*
X154839135Y-105604564D01*
X155253798Y-106019951D01*
X154840629Y-106432400D01*
X154610063Y-106987665D01*
X154609538Y-107588897D01*
X154839135Y-108144564D01*
X155263900Y-108570071D01*
X155297692Y-108584103D01*
X155237704Y-108766599D01*
X156121100Y-109649995D01*
X157004496Y-108766599D01*
X156944653Y-108584544D01*
X156976064Y-108571565D01*
X157401571Y-108146800D01*
X157632137Y-107591535D01*
X157632662Y-106990303D01*
X157403065Y-106434636D01*
X156988402Y-106019249D01*
X157401571Y-105606800D01*
X157632137Y-105051535D01*
X157632662Y-104450303D01*
X157403065Y-103894636D01*
X156988402Y-103479249D01*
X157401571Y-103066800D01*
X157632137Y-102511535D01*
X157632662Y-101910303D01*
X157403065Y-101354636D01*
X156988402Y-100939249D01*
X157401571Y-100526800D01*
X157632137Y-99971535D01*
X157632662Y-99370303D01*
X157403065Y-98814636D01*
X156988402Y-98399249D01*
X157401571Y-97986800D01*
X157632137Y-97431535D01*
X157632662Y-96830303D01*
X157403065Y-96274636D01*
X156988402Y-95859249D01*
X157401571Y-95446800D01*
X157632137Y-94891535D01*
X157632662Y-94290303D01*
X157403065Y-93734636D01*
X156988402Y-93319249D01*
X157401571Y-92906800D01*
X157632137Y-92351535D01*
X157632662Y-91750303D01*
X157403065Y-91194636D01*
X156988402Y-90779249D01*
X157401571Y-90366800D01*
X157632137Y-89811535D01*
X157632662Y-89210303D01*
X157403065Y-88654636D01*
X156978300Y-88229129D01*
X156423035Y-87998563D01*
X155821803Y-87998038D01*
X155724532Y-88038230D01*
X155302980Y-87616678D01*
X155302980Y-87271893D01*
X155373221Y-87166770D01*
X155448200Y-86789827D01*
X155448200Y-85171734D01*
X155667601Y-85262838D01*
X156039567Y-85263162D01*
X156383343Y-85121117D01*
X156646592Y-84858327D01*
X156789238Y-84514799D01*
X156789440Y-84283000D01*
X157305037Y-84283000D01*
X157681980Y-84208021D01*
X158001537Y-83994500D01*
X158040000Y-83936936D01*
X158040000Y-118289000D01*
G36*
X139409467Y-109432769D02*
X139370063Y-109527665D01*
X139369538Y-110128897D01*
X139599135Y-110684564D01*
X140013798Y-111099951D01*
X139600629Y-111512400D01*
X139370063Y-112067665D01*
X139369538Y-112668897D01*
X139599135Y-113224564D01*
X140023900Y-113650071D01*
X140057692Y-113664103D01*
X139997704Y-113846599D01*
X140881100Y-114729995D01*
X141764496Y-113846599D01*
X141704653Y-113664544D01*
X141736064Y-113651565D01*
X142161571Y-113226800D01*
X142392137Y-112671535D01*
X142392360Y-112415662D01*
X144020000Y-114043302D01*
X144020000Y-115567046D01*
X143729946Y-115760853D01*
X143408039Y-116242622D01*
X143295000Y-116810907D01*
X143295000Y-116869093D01*
X143408039Y-117437378D01*
X143729946Y-117919147D01*
X144211715Y-118241054D01*
X144452756Y-118289000D01*
X142404840Y-118289000D01*
X142404840Y-116573300D01*
X142360562Y-116337983D01*
X142221490Y-116121859D01*
X142009290Y-115976869D01*
X141992820Y-115973534D01*
X142058731Y-115907623D01*
X141944103Y-115792995D01*
X142198127Y-115709496D01*
X142403982Y-115144603D01*
X142377991Y-114543932D01*
X142198127Y-114109704D01*
X141944101Y-114026204D01*
X141060705Y-114909600D01*
X141074848Y-114923743D01*
X140895243Y-115103348D01*
X140881100Y-115089205D01*
X140866958Y-115103348D01*
X140687353Y-114923743D01*
X140701495Y-114909600D01*
X139818099Y-114026204D01*
X139564073Y-114109704D01*
X139358218Y-114674597D01*
X139384209Y-115275268D01*
X139564073Y-115709496D01*
X139818097Y-115792995D01*
X139703469Y-115907623D01*
X139767354Y-115971508D01*
X139553359Y-116109210D01*
X139408369Y-116321410D01*
X139357360Y-116573300D01*
X139357360Y-118289000D01*
X139140000Y-118289000D01*
X139140000Y-109163302D01*
X139409467Y-109432769D01*
X139409467Y-109432769D01*
G37*
X139409467Y-109432769D02*
X139370063Y-109527665D01*
X139369538Y-110128897D01*
X139599135Y-110684564D01*
X140013798Y-111099951D01*
X139600629Y-111512400D01*
X139370063Y-112067665D01*
X139369538Y-112668897D01*
X139599135Y-113224564D01*
X140023900Y-113650071D01*
X140057692Y-113664103D01*
X139997704Y-113846599D01*
X140881100Y-114729995D01*
X141764496Y-113846599D01*
X141704653Y-113664544D01*
X141736064Y-113651565D01*
X142161571Y-113226800D01*
X142392137Y-112671535D01*
X142392360Y-112415662D01*
X144020000Y-114043302D01*
X144020000Y-115567046D01*
X143729946Y-115760853D01*
X143408039Y-116242622D01*
X143295000Y-116810907D01*
X143295000Y-116869093D01*
X143408039Y-117437378D01*
X143729946Y-117919147D01*
X144211715Y-118241054D01*
X144452756Y-118289000D01*
X142404840Y-118289000D01*
X142404840Y-116573300D01*
X142360562Y-116337983D01*
X142221490Y-116121859D01*
X142009290Y-115976869D01*
X141992820Y-115973534D01*
X142058731Y-115907623D01*
X141944103Y-115792995D01*
X142198127Y-115709496D01*
X142403982Y-115144603D01*
X142377991Y-114543932D01*
X142198127Y-114109704D01*
X141944101Y-114026204D01*
X141060705Y-114909600D01*
X141074848Y-114923743D01*
X140895243Y-115103348D01*
X140881100Y-115089205D01*
X140866958Y-115103348D01*
X140687353Y-114923743D01*
X140701495Y-114909600D01*
X139818099Y-114026204D01*
X139564073Y-114109704D01*
X139358218Y-114674597D01*
X139384209Y-115275268D01*
X139564073Y-115709496D01*
X139818097Y-115792995D01*
X139703469Y-115907623D01*
X139767354Y-115971508D01*
X139553359Y-116109210D01*
X139408369Y-116321410D01*
X139357360Y-116573300D01*
X139357360Y-118289000D01*
X139140000Y-118289000D01*
X139140000Y-109163302D01*
X139409467Y-109432769D01*
G36*
X148505579Y-89890381D02*
X148769975Y-90154777D01*
X148501078Y-90265883D01*
X148237829Y-90528673D01*
X148095183Y-90872201D01*
X148094859Y-91244167D01*
X148236904Y-91587943D01*
X148270021Y-91621118D01*
X148270021Y-92206675D01*
X148268852Y-92208425D01*
X148211000Y-92499264D01*
X148211000Y-92753264D01*
X148268852Y-93044103D01*
X148433599Y-93290665D01*
X149442641Y-94299707D01*
X149008622Y-94386039D01*
X148526853Y-94707946D01*
X148526029Y-94709179D01*
X148519162Y-94672683D01*
X148380090Y-94456559D01*
X148167890Y-94311569D01*
X147916000Y-94260560D01*
X146216000Y-94260560D01*
X145980683Y-94304838D01*
X145764559Y-94443910D01*
X145619569Y-94656110D01*
X145568560Y-94908000D01*
X145568560Y-96608000D01*
X145612838Y-96843317D01*
X145751910Y-97059441D01*
X145964110Y-97204431D01*
X146031541Y-97218086D01*
X145986853Y-97247946D01*
X145664946Y-97729715D01*
X145551907Y-98298000D01*
X145664946Y-98866285D01*
X145986853Y-99348054D01*
X146316026Y-99568000D01*
X145986853Y-99787946D01*
X145664946Y-100269715D01*
X145551907Y-100838000D01*
X145664946Y-101406285D01*
X145986853Y-101888054D01*
X146316026Y-102108000D01*
X145986853Y-102327946D01*
X145664946Y-102809715D01*
X145551907Y-103378000D01*
X145664946Y-103946285D01*
X145986853Y-104428054D01*
X146327553Y-104655702D01*
X146184642Y-104722817D01*
X145794355Y-105151076D01*
X145624524Y-105561110D01*
X145745845Y-105791000D01*
X146939000Y-105791000D01*
X146939000Y-105771000D01*
X147193000Y-105771000D01*
X147193000Y-105791000D01*
X147213000Y-105791000D01*
X147213000Y-106045000D01*
X147193000Y-106045000D01*
X147193000Y-106065000D01*
X146939000Y-106065000D01*
X146939000Y-106045000D01*
X145745845Y-106045000D01*
X145624524Y-106274890D01*
X145794355Y-106684924D01*
X146184642Y-107113183D01*
X146327553Y-107180298D01*
X145986853Y-107407946D01*
X145664946Y-107889715D01*
X145551907Y-108458000D01*
X145664946Y-109026285D01*
X145986853Y-109508054D01*
X146433000Y-109806159D01*
X146433000Y-111351160D01*
X146407120Y-111351160D01*
X146171803Y-111395438D01*
X145955679Y-111534510D01*
X145810689Y-111746710D01*
X145759680Y-111998600D01*
X145759680Y-112042054D01*
X145655599Y-112111599D01*
X144946750Y-112820448D01*
X142352733Y-110226431D01*
X142392137Y-110131535D01*
X142392662Y-109530303D01*
X142163065Y-108974636D01*
X141748402Y-108559249D01*
X142161571Y-108146800D01*
X142392137Y-107591535D01*
X142392662Y-106990303D01*
X142163065Y-106434636D01*
X141748402Y-106019249D01*
X142161571Y-105606800D01*
X142392137Y-105051535D01*
X142392662Y-104450303D01*
X142163065Y-103894636D01*
X141748402Y-103479249D01*
X142161571Y-103066800D01*
X142392137Y-102511535D01*
X142392662Y-101910303D01*
X142385890Y-101893912D01*
X143354411Y-100925391D01*
X143519158Y-100678829D01*
X143577010Y-100387990D01*
X143577010Y-96768612D01*
X144185421Y-96160201D01*
X144350168Y-95913639D01*
X144408020Y-95622800D01*
X144408020Y-93651602D01*
X148370861Y-89688761D01*
X148505579Y-89890381D01*
X148505579Y-89890381D01*
G37*
X148505579Y-89890381D02*
X148769975Y-90154777D01*
X148501078Y-90265883D01*
X148237829Y-90528673D01*
X148095183Y-90872201D01*
X148094859Y-91244167D01*
X148236904Y-91587943D01*
X148270021Y-91621118D01*
X148270021Y-92206675D01*
X148268852Y-92208425D01*
X148211000Y-92499264D01*
X148211000Y-92753264D01*
X148268852Y-93044103D01*
X148433599Y-93290665D01*
X149442641Y-94299707D01*
X149008622Y-94386039D01*
X148526853Y-94707946D01*
X148526029Y-94709179D01*
X148519162Y-94672683D01*
X148380090Y-94456559D01*
X148167890Y-94311569D01*
X147916000Y-94260560D01*
X146216000Y-94260560D01*
X145980683Y-94304838D01*
X145764559Y-94443910D01*
X145619569Y-94656110D01*
X145568560Y-94908000D01*
X145568560Y-96608000D01*
X145612838Y-96843317D01*
X145751910Y-97059441D01*
X145964110Y-97204431D01*
X146031541Y-97218086D01*
X145986853Y-97247946D01*
X145664946Y-97729715D01*
X145551907Y-98298000D01*
X145664946Y-98866285D01*
X145986853Y-99348054D01*
X146316026Y-99568000D01*
X145986853Y-99787946D01*
X145664946Y-100269715D01*
X145551907Y-100838000D01*
X145664946Y-101406285D01*
X145986853Y-101888054D01*
X146316026Y-102108000D01*
X145986853Y-102327946D01*
X145664946Y-102809715D01*
X145551907Y-103378000D01*
X145664946Y-103946285D01*
X145986853Y-104428054D01*
X146327553Y-104655702D01*
X146184642Y-104722817D01*
X145794355Y-105151076D01*
X145624524Y-105561110D01*
X145745845Y-105791000D01*
X146939000Y-105791000D01*
X146939000Y-105771000D01*
X147193000Y-105771000D01*
X147193000Y-105791000D01*
X147213000Y-105791000D01*
X147213000Y-106045000D01*
X147193000Y-106045000D01*
X147193000Y-106065000D01*
X146939000Y-106065000D01*
X146939000Y-106045000D01*
X145745845Y-106045000D01*
X145624524Y-106274890D01*
X145794355Y-106684924D01*
X146184642Y-107113183D01*
X146327553Y-107180298D01*
X145986853Y-107407946D01*
X145664946Y-107889715D01*
X145551907Y-108458000D01*
X145664946Y-109026285D01*
X145986853Y-109508054D01*
X146433000Y-109806159D01*
X146433000Y-111351160D01*
X146407120Y-111351160D01*
X146171803Y-111395438D01*
X145955679Y-111534510D01*
X145810689Y-111746710D01*
X145759680Y-111998600D01*
X145759680Y-112042054D01*
X145655599Y-112111599D01*
X144946750Y-112820448D01*
X142352733Y-110226431D01*
X142392137Y-110131535D01*
X142392662Y-109530303D01*
X142163065Y-108974636D01*
X141748402Y-108559249D01*
X142161571Y-108146800D01*
X142392137Y-107591535D01*
X142392662Y-106990303D01*
X142163065Y-106434636D01*
X141748402Y-106019249D01*
X142161571Y-105606800D01*
X142392137Y-105051535D01*
X142392662Y-104450303D01*
X142163065Y-103894636D01*
X141748402Y-103479249D01*
X142161571Y-103066800D01*
X142392137Y-102511535D01*
X142392662Y-101910303D01*
X142385890Y-101893912D01*
X143354411Y-100925391D01*
X143519158Y-100678829D01*
X143577010Y-100387990D01*
X143577010Y-96768612D01*
X144185421Y-96160201D01*
X144350168Y-95913639D01*
X144408020Y-95622800D01*
X144408020Y-93651602D01*
X148370861Y-89688761D01*
X148505579Y-89890381D01*
G36*
X148526853Y-106968054D02*
X148856026Y-107188000D01*
X148526853Y-107407946D01*
X148336000Y-107693578D01*
X148145147Y-107407946D01*
X147804447Y-107180298D01*
X147947358Y-107113183D01*
X148337645Y-106684924D01*
X148337655Y-106684899D01*
X148526853Y-106968054D01*
X148526853Y-106968054D01*
G37*
X148526853Y-106968054D02*
X148856026Y-107188000D01*
X148526853Y-107407946D01*
X148336000Y-107693578D01*
X148145147Y-107407946D01*
X147804447Y-107180298D01*
X147947358Y-107113183D01*
X148337645Y-106684924D01*
X148337655Y-106684899D01*
X148526853Y-106968054D01*
G36*
X150591808Y-70742073D02*
X150449162Y-71085601D01*
X150448838Y-71457567D01*
X150590883Y-71801343D01*
X150853673Y-72064592D01*
X150957068Y-72107526D01*
X150956838Y-72371967D01*
X151098883Y-72715743D01*
X151310922Y-72928153D01*
X151211162Y-73168401D01*
X151210838Y-73540367D01*
X151352883Y-73884143D01*
X151357198Y-73888466D01*
X151252208Y-73993273D01*
X151109562Y-74336801D01*
X151109238Y-74708767D01*
X151251283Y-75052543D01*
X151514073Y-75315792D01*
X151857601Y-75458438D01*
X152073135Y-75458626D01*
X151912608Y-75618873D01*
X151769962Y-75962401D01*
X151769638Y-76334367D01*
X151911683Y-76678143D01*
X152174473Y-76941392D01*
X152328473Y-77005339D01*
X152328445Y-77038000D01*
X152234635Y-77038000D01*
X152179340Y-76982608D01*
X151835812Y-76839962D01*
X151463846Y-76839638D01*
X151120070Y-76981683D01*
X150856821Y-77244473D01*
X150714175Y-77588001D01*
X150713851Y-77959967D01*
X150855896Y-78303743D01*
X151118686Y-78566992D01*
X151168012Y-78587474D01*
X151120070Y-78607283D01*
X150856821Y-78870073D01*
X150714175Y-79213601D01*
X150713851Y-79585567D01*
X150855896Y-79929343D01*
X151118686Y-80192592D01*
X151462214Y-80335238D01*
X151834180Y-80335562D01*
X152177956Y-80193517D01*
X152441205Y-79930727D01*
X152554452Y-79658000D01*
X152642748Y-79658000D01*
X152531962Y-79924801D01*
X152531638Y-80296767D01*
X152673683Y-80640543D01*
X152936473Y-80903792D01*
X153005167Y-80932317D01*
X152938362Y-81093201D01*
X152938038Y-81465167D01*
X153080083Y-81808943D01*
X153342873Y-82072192D01*
X153686401Y-82214838D01*
X153871409Y-82214999D01*
X153827906Y-82258502D01*
X153674402Y-82258368D01*
X153330626Y-82400413D01*
X153067377Y-82663203D01*
X152924731Y-83006731D01*
X152924407Y-83378697D01*
X152975820Y-83503126D01*
X152813200Y-83611785D01*
X152640143Y-83496152D01*
X152263200Y-83421173D01*
X151886257Y-83496152D01*
X151713200Y-83611785D01*
X151540143Y-83496152D01*
X151163200Y-83421173D01*
X150786257Y-83496152D01*
X150613200Y-83611785D01*
X150440143Y-83496152D01*
X150063200Y-83421173D01*
X149686257Y-83496152D01*
X149513200Y-83611785D01*
X149340143Y-83496152D01*
X148963200Y-83421173D01*
X148586257Y-83496152D01*
X148413200Y-83611785D01*
X148240143Y-83496152D01*
X147863200Y-83421173D01*
X147486257Y-83496152D01*
X147313200Y-83611785D01*
X147140143Y-83496152D01*
X146763200Y-83421173D01*
X146386257Y-83496152D01*
X146213200Y-83611785D01*
X146040143Y-83496152D01*
X145663200Y-83421173D01*
X145286257Y-83496152D01*
X145113200Y-83611785D01*
X144940143Y-83496152D01*
X144563200Y-83421173D01*
X144186257Y-83496152D01*
X144013200Y-83611785D01*
X143840143Y-83496152D01*
X143463200Y-83421173D01*
X143086257Y-83496152D01*
X142913200Y-83611785D01*
X142837661Y-83561311D01*
X142890037Y-83298000D01*
X142815058Y-82921057D01*
X142686341Y-82728418D01*
X142808095Y-82476238D01*
X142679641Y-82325000D01*
X141965365Y-82325000D01*
X141905037Y-82313000D01*
X140566210Y-82313000D01*
X140566210Y-82083000D01*
X141905037Y-82083000D01*
X141965365Y-82071000D01*
X142679641Y-82071000D01*
X142770273Y-81964292D01*
X142827273Y-82021392D01*
X143170801Y-82164038D01*
X143542767Y-82164362D01*
X143886543Y-82022317D01*
X144149792Y-81759527D01*
X144292438Y-81415999D01*
X144292762Y-81044033D01*
X144150717Y-80700257D01*
X144095735Y-80645179D01*
X144098992Y-80641927D01*
X144241638Y-80298399D01*
X144241962Y-79926433D01*
X144099917Y-79582657D01*
X143837127Y-79319408D01*
X143493599Y-79176762D01*
X143121633Y-79176438D01*
X142789058Y-79313855D01*
X142815058Y-79274943D01*
X142890037Y-78898000D01*
X142815058Y-78521057D01*
X142699425Y-78348000D01*
X142815058Y-78174943D01*
X142890037Y-77798000D01*
X142866867Y-77681515D01*
X143018401Y-77744438D01*
X143390367Y-77744762D01*
X143734143Y-77602717D01*
X143997392Y-77339927D01*
X144140038Y-76996399D01*
X144140050Y-76982751D01*
X144152367Y-76982762D01*
X144496143Y-76840717D01*
X144759392Y-76577927D01*
X144902038Y-76234399D01*
X144902360Y-75865152D01*
X144914367Y-75865162D01*
X145258143Y-75723117D01*
X145521392Y-75460327D01*
X145664038Y-75116799D01*
X145664362Y-74744833D01*
X145622627Y-74643826D01*
X145715343Y-74605517D01*
X145978592Y-74342727D01*
X146121238Y-73999199D01*
X146121562Y-73627233D01*
X146115685Y-73613010D01*
X146172543Y-73589517D01*
X146435792Y-73326727D01*
X146578438Y-72983199D01*
X146578762Y-72611233D01*
X146436717Y-72267457D01*
X146173927Y-72004208D01*
X145830399Y-71861562D01*
X145783523Y-71861521D01*
X145682601Y-71760599D01*
X145436039Y-71595852D01*
X145145200Y-71538000D01*
X142778276Y-71538000D01*
X142808095Y-71476238D01*
X142679641Y-71325000D01*
X141965365Y-71325000D01*
X141905037Y-71313000D01*
X140566210Y-71313000D01*
X140566210Y-71071000D01*
X140586210Y-71071000D01*
X140586210Y-71051000D01*
X140840210Y-71051000D01*
X140840210Y-71071000D01*
X142679641Y-71071000D01*
X142808095Y-70919762D01*
X142720822Y-70739000D01*
X150594886Y-70739000D01*
X150591808Y-70742073D01*
X150591808Y-70742073D01*
G37*
X150591808Y-70742073D02*
X150449162Y-71085601D01*
X150448838Y-71457567D01*
X150590883Y-71801343D01*
X150853673Y-72064592D01*
X150957068Y-72107526D01*
X150956838Y-72371967D01*
X151098883Y-72715743D01*
X151310922Y-72928153D01*
X151211162Y-73168401D01*
X151210838Y-73540367D01*
X151352883Y-73884143D01*
X151357198Y-73888466D01*
X151252208Y-73993273D01*
X151109562Y-74336801D01*
X151109238Y-74708767D01*
X151251283Y-75052543D01*
X151514073Y-75315792D01*
X151857601Y-75458438D01*
X152073135Y-75458626D01*
X151912608Y-75618873D01*
X151769962Y-75962401D01*
X151769638Y-76334367D01*
X151911683Y-76678143D01*
X152174473Y-76941392D01*
X152328473Y-77005339D01*
X152328445Y-77038000D01*
X152234635Y-77038000D01*
X152179340Y-76982608D01*
X151835812Y-76839962D01*
X151463846Y-76839638D01*
X151120070Y-76981683D01*
X150856821Y-77244473D01*
X150714175Y-77588001D01*
X150713851Y-77959967D01*
X150855896Y-78303743D01*
X151118686Y-78566992D01*
X151168012Y-78587474D01*
X151120070Y-78607283D01*
X150856821Y-78870073D01*
X150714175Y-79213601D01*
X150713851Y-79585567D01*
X150855896Y-79929343D01*
X151118686Y-80192592D01*
X151462214Y-80335238D01*
X151834180Y-80335562D01*
X152177956Y-80193517D01*
X152441205Y-79930727D01*
X152554452Y-79658000D01*
X152642748Y-79658000D01*
X152531962Y-79924801D01*
X152531638Y-80296767D01*
X152673683Y-80640543D01*
X152936473Y-80903792D01*
X153005167Y-80932317D01*
X152938362Y-81093201D01*
X152938038Y-81465167D01*
X153080083Y-81808943D01*
X153342873Y-82072192D01*
X153686401Y-82214838D01*
X153871409Y-82214999D01*
X153827906Y-82258502D01*
X153674402Y-82258368D01*
X153330626Y-82400413D01*
X153067377Y-82663203D01*
X152924731Y-83006731D01*
X152924407Y-83378697D01*
X152975820Y-83503126D01*
X152813200Y-83611785D01*
X152640143Y-83496152D01*
X152263200Y-83421173D01*
X151886257Y-83496152D01*
X151713200Y-83611785D01*
X151540143Y-83496152D01*
X151163200Y-83421173D01*
X150786257Y-83496152D01*
X150613200Y-83611785D01*
X150440143Y-83496152D01*
X150063200Y-83421173D01*
X149686257Y-83496152D01*
X149513200Y-83611785D01*
X149340143Y-83496152D01*
X148963200Y-83421173D01*
X148586257Y-83496152D01*
X148413200Y-83611785D01*
X148240143Y-83496152D01*
X147863200Y-83421173D01*
X147486257Y-83496152D01*
X147313200Y-83611785D01*
X147140143Y-83496152D01*
X146763200Y-83421173D01*
X146386257Y-83496152D01*
X146213200Y-83611785D01*
X146040143Y-83496152D01*
X145663200Y-83421173D01*
X145286257Y-83496152D01*
X145113200Y-83611785D01*
X144940143Y-83496152D01*
X144563200Y-83421173D01*
X144186257Y-83496152D01*
X144013200Y-83611785D01*
X143840143Y-83496152D01*
X143463200Y-83421173D01*
X143086257Y-83496152D01*
X142913200Y-83611785D01*
X142837661Y-83561311D01*
X142890037Y-83298000D01*
X142815058Y-82921057D01*
X142686341Y-82728418D01*
X142808095Y-82476238D01*
X142679641Y-82325000D01*
X141965365Y-82325000D01*
X141905037Y-82313000D01*
X140566210Y-82313000D01*
X140566210Y-82083000D01*
X141905037Y-82083000D01*
X141965365Y-82071000D01*
X142679641Y-82071000D01*
X142770273Y-81964292D01*
X142827273Y-82021392D01*
X143170801Y-82164038D01*
X143542767Y-82164362D01*
X143886543Y-82022317D01*
X144149792Y-81759527D01*
X144292438Y-81415999D01*
X144292762Y-81044033D01*
X144150717Y-80700257D01*
X144095735Y-80645179D01*
X144098992Y-80641927D01*
X144241638Y-80298399D01*
X144241962Y-79926433D01*
X144099917Y-79582657D01*
X143837127Y-79319408D01*
X143493599Y-79176762D01*
X143121633Y-79176438D01*
X142789058Y-79313855D01*
X142815058Y-79274943D01*
X142890037Y-78898000D01*
X142815058Y-78521057D01*
X142699425Y-78348000D01*
X142815058Y-78174943D01*
X142890037Y-77798000D01*
X142866867Y-77681515D01*
X143018401Y-77744438D01*
X143390367Y-77744762D01*
X143734143Y-77602717D01*
X143997392Y-77339927D01*
X144140038Y-76996399D01*
X144140050Y-76982751D01*
X144152367Y-76982762D01*
X144496143Y-76840717D01*
X144759392Y-76577927D01*
X144902038Y-76234399D01*
X144902360Y-75865152D01*
X144914367Y-75865162D01*
X145258143Y-75723117D01*
X145521392Y-75460327D01*
X145664038Y-75116799D01*
X145664362Y-74744833D01*
X145622627Y-74643826D01*
X145715343Y-74605517D01*
X145978592Y-74342727D01*
X146121238Y-73999199D01*
X146121562Y-73627233D01*
X146115685Y-73613010D01*
X146172543Y-73589517D01*
X146435792Y-73326727D01*
X146578438Y-72983199D01*
X146578762Y-72611233D01*
X146436717Y-72267457D01*
X146173927Y-72004208D01*
X145830399Y-71861562D01*
X145783523Y-71861521D01*
X145682601Y-71760599D01*
X145436039Y-71595852D01*
X145145200Y-71538000D01*
X142778276Y-71538000D01*
X142808095Y-71476238D01*
X142679641Y-71325000D01*
X141965365Y-71325000D01*
X141905037Y-71313000D01*
X140566210Y-71313000D01*
X140566210Y-71071000D01*
X140586210Y-71071000D01*
X140586210Y-71051000D01*
X140840210Y-71051000D01*
X140840210Y-71071000D01*
X142679641Y-71071000D01*
X142808095Y-70919762D01*
X142720822Y-70739000D01*
X150594886Y-70739000D01*
X150591808Y-70742073D01*
M02*
