G04 #@! TF.GenerationSoftware,KiCad,Pcbnew,(5.0.0)*
G04 #@! TF.CreationDate,2020-11-30T22:45:23-06:00*
G04 #@! TF.ProjectId,BlueMacro,426C75654D6163726F2E6B696361645F,rev?*
G04 #@! TF.SameCoordinates,Original*
G04 #@! TF.FileFunction,Copper,L3,Inr,Signal*
G04 #@! TF.FilePolarity,Positive*
%FSLAX46Y46*%
G04 Gerber Fmt 4.6, Leading zero omitted, Abs format (unit mm)*
G04 Created by KiCad (PCBNEW (5.0.0)) date 11/30/20 22:45:23*
%MOMM*%
%LPD*%
G01*
G04 APERTURE LIST*
G04 #@! TA.AperFunction,WasherPad*
%ADD10C,1.270000*%
G04 #@! TD*
G04 #@! TA.AperFunction,ViaPad*
%ADD11C,1.270000*%
G04 #@! TD*
G04 #@! TA.AperFunction,ViaPad*
%ADD12R,1.250000X1.250000*%
G04 #@! TD*
G04 #@! TA.AperFunction,ViaPad*
%ADD13R,1.700000X1.700000*%
G04 #@! TD*
G04 #@! TA.AperFunction,ViaPad*
%ADD14O,1.700000X1.700000*%
G04 #@! TD*
G04 #@! TA.AperFunction,ViaPad*
%ADD15O,1.000000X1.600000*%
G04 #@! TD*
G04 #@! TA.AperFunction,ViaPad*
%ADD16O,1.000000X2.100000*%
G04 #@! TD*
G04 #@! TA.AperFunction,ViaPad*
%ADD17R,0.650000X1.000000*%
G04 #@! TD*
G04 #@! TA.AperFunction,ViaPad*
%ADD18R,1.000000X0.650000*%
G04 #@! TD*
G04 #@! TA.AperFunction,ViaPad*
%ADD19C,1.100000*%
G04 #@! TD*
G04 #@! TA.AperFunction,Conductor*
%ADD20C,0.100000*%
G04 #@! TD*
G04 #@! TA.AperFunction,ViaPad*
%ADD21C,0.800000*%
G04 #@! TD*
G04 #@! TA.AperFunction,Conductor*
%ADD22C,0.200000*%
G04 #@! TD*
G04 #@! TA.AperFunction,Conductor*
%ADD23C,0.250000*%
G04 #@! TD*
G04 APERTURE END LIST*
D10*
G04 #@! TO.N,*
G04 #@! TO.C,U4*
X55880000Y-27940000D03*
X40640000Y-27940000D03*
X55880000Y-73660000D03*
X40640000Y-73660000D03*
D11*
G04 #@! TO.N,/P0.10*
X40640000Y-71120000D03*
G04 #@! TO.N,/P0.09*
X40640000Y-68580000D03*
G04 #@! TO.N,VBatt*
X40640000Y-66040000D03*
G04 #@! TO.N,GND*
X40640000Y-63500000D03*
G04 #@! TO.N,Reset*
X40640000Y-60960000D03*
G04 #@! TO.N,N/C*
X40640000Y-53340000D03*
G04 #@! TO.N,/P0.20*
X40640000Y-50800000D03*
G04 #@! TO.N,/P0.17*
X40640000Y-48260000D03*
G04 #@! TO.N,N/C*
X40640000Y-55880000D03*
G04 #@! TO.N,VBus*
X40640000Y-58420000D03*
D12*
G04 #@! TO.N,/P1.11*
X55880000Y-71120000D03*
D11*
G04 #@! TO.N,/P0.03*
X55880000Y-68580000D03*
G04 #@! TO.N,/P0.28*
X55880000Y-66040000D03*
G04 #@! TO.N,/P1.13*
X55880000Y-63500000D03*
G04 #@! TO.N,Reset*
X55880000Y-60960000D03*
G04 #@! TO.N,GND*
X55880000Y-58420000D03*
G04 #@! TO.N,/P0.30*
X55880000Y-55880000D03*
G04 #@! TO.N,/P0.02*
X55880000Y-53340000D03*
G04 #@! TO.N,/P0.29*
X55880000Y-50800000D03*
G04 #@! TO.N,/P0.26*
X55880000Y-48260000D03*
G04 #@! TO.N,/P0.06*
X55880000Y-45720000D03*
G04 #@! TO.N,/P0.05*
X55880000Y-43180000D03*
G04 #@! TO.N,/P0.15*
X40640000Y-45720000D03*
G04 #@! TO.N,/P0.13*
X40640000Y-43180000D03*
G04 #@! TO.N,/P0.22*
X40640000Y-40640000D03*
G04 #@! TO.N,/P0.24*
X40640000Y-38100000D03*
G04 #@! TO.N,/P0.04*
X40640000Y-35560000D03*
G04 #@! TO.N,/3V3*
X40640000Y-33020000D03*
G04 #@! TO.N,/P0.07*
X40640000Y-30480000D03*
G04 #@! TO.N,/P1.02*
X55880000Y-30480000D03*
G04 #@! TO.N,/P0.12*
X55880000Y-33020000D03*
G04 #@! TO.N,/P1.06*
X55880000Y-35560000D03*
G04 #@! TO.N,/P1.09*
X55880000Y-38100000D03*
G04 #@! TO.N,/P0.08*
X55880000Y-40640000D03*
G04 #@! TD*
D13*
G04 #@! TO.N,VBatt*
G04 #@! TO.C,J1*
X53340000Y-44450000D03*
D14*
G04 #@! TO.N,GND*
X53340000Y-46990000D03*
G04 #@! TD*
D15*
G04 #@! TO.N,Net-(J3-PadS1)*
G04 #@! TO.C,J3*
X43940000Y-29270000D03*
X52580000Y-29270000D03*
D16*
X43940000Y-33450000D03*
X52580000Y-33450000D03*
G04 #@! TD*
D17*
G04 #@! TO.N,/P0.04*
G04 #@! TO.C,U2*
X48283000Y-58607000D03*
G04 #@! TO.N,GND*
X44473000Y-58607000D03*
G04 #@! TO.N,/P0.07*
X45743000Y-58607000D03*
G04 #@! TO.N,/P0.08*
X49553000Y-58607000D03*
G04 #@! TO.N,/P0.12*
X47013000Y-58607000D03*
G04 #@! TO.N,/P0.26*
X52093000Y-58607000D03*
G04 #@! TO.N,/P0.06*
X50823000Y-58607000D03*
D18*
G04 #@! TO.N,/P1.06*
X44219000Y-70037000D03*
G04 #@! TO.N,RED_LED*
X44219000Y-68767000D03*
G04 #@! TO.N,/P1.02*
X44219000Y-67497000D03*
G04 #@! TO.N,SWO*
X44219000Y-66227000D03*
G04 #@! TO.N,/P0.22*
X44219000Y-64957000D03*
G04 #@! TO.N,/P0.20*
X44219000Y-63687000D03*
G04 #@! TO.N,/P0.17*
X44219000Y-62417000D03*
G04 #@! TO.N,/P0.15*
X44219000Y-61147000D03*
G04 #@! TD*
D19*
G04 #@! TO.N,VCC*
G04 #@! TO.C,TP1*
X39243000Y-59690000D03*
D20*
G36*
X39243000Y-60467817D02*
X38465183Y-59690000D01*
X39243000Y-58912183D01*
X40020817Y-59690000D01*
X39243000Y-60467817D01*
X39243000Y-60467817D01*
G37*
G04 #@! TD*
D19*
G04 #@! TO.N,GND*
G04 #@! TO.C,TP2*
X39243000Y-62230000D03*
D20*
G36*
X39243000Y-63007817D02*
X38465183Y-62230000D01*
X39243000Y-61452183D01*
X40020817Y-62230000D01*
X39243000Y-63007817D01*
X39243000Y-63007817D01*
G37*
G04 #@! TD*
D19*
G04 #@! TO.N,SWDCLK*
G04 #@! TO.C,TP3*
X39243000Y-64770000D03*
D20*
G36*
X39243000Y-65547817D02*
X38465183Y-64770000D01*
X39243000Y-63992183D01*
X40020817Y-64770000D01*
X39243000Y-65547817D01*
X39243000Y-65547817D01*
G37*
G04 #@! TD*
D19*
G04 #@! TO.N,SWDIO*
G04 #@! TO.C,TP4*
X39243000Y-67310000D03*
D20*
G36*
X39243000Y-68087817D02*
X38465183Y-67310000D01*
X39243000Y-66532183D01*
X40020817Y-67310000D01*
X39243000Y-68087817D01*
X39243000Y-68087817D01*
G37*
G04 #@! TD*
D21*
G04 #@! TO.N,GND*
X53340000Y-42418000D03*
X52203831Y-35488064D03*
X44316172Y-35488067D03*
X43942000Y-50546000D03*
X47371000Y-42037000D03*
X49657000Y-63754000D03*
X48338011Y-62357000D03*
G04 #@! TO.N,Net-(C3-Pad1)*
X45575836Y-51184011D03*
X46085447Y-39315048D03*
G04 #@! TO.N,VBatt*
X50673000Y-49149000D03*
G04 #@! TO.N,VCC*
X45835649Y-52973684D03*
G04 #@! TO.N,VBatt_Monitor*
X49657000Y-45593000D03*
X49403000Y-61631990D03*
G04 #@! TO.N,VBus*
X46045497Y-47402942D03*
X48387000Y-37211000D03*
G04 #@! TO.N,RED_LED*
X42291001Y-37338001D03*
G04 #@! TO.N,BLUE_LED*
X52578008Y-68199000D03*
X54356004Y-37211000D03*
G04 #@! TO.N,SWDCLK*
X45755300Y-68160775D03*
G04 #@! TO.N,D+*
X45718490Y-62992004D03*
X48768000Y-32766000D03*
G04 #@! TO.N,D-*
X47726976Y-32628914D03*
X45720000Y-61849000D03*
G04 #@! TO.N,SWO*
X45247876Y-49774684D03*
G04 #@! TO.N,/P0.24*
X45574265Y-65386271D03*
G04 #@! TO.N,/P0.13*
X45718490Y-64135000D03*
G04 #@! TO.N,/P0.02*
X53085990Y-62357000D03*
G04 #@! TO.N,/P0.29*
X53086000Y-61341000D03*
G04 #@! TO.N,/P0.04*
X42545000Y-35560000D03*
X49403000Y-40640000D03*
G04 #@! TO.N,/P1.09*
X48768000Y-60706000D03*
G04 #@! TO.N,/P0.05*
X50747991Y-60161560D03*
G04 #@! TD*
D22*
G04 #@! TO.N,VBatt_Monitor*
X49468001Y-61001304D02*
X49403000Y-61066305D01*
X48927999Y-46322001D02*
X48927999Y-59347001D01*
X48927999Y-59347001D02*
X49468001Y-59887003D01*
X49657000Y-45593000D02*
X48927999Y-46322001D01*
X49468001Y-59887003D02*
X49468001Y-61001304D01*
X49403000Y-61066305D02*
X49403000Y-61631990D01*
G04 #@! TO.N,RED_LED*
X47638001Y-42806001D02*
X48071001Y-42373001D01*
X45019001Y-68141999D02*
X45019001Y-67274620D01*
X45019001Y-67274620D02*
X47638001Y-64655620D01*
X45105003Y-37338001D02*
X42856686Y-37338001D01*
X48071001Y-42373001D02*
X48071001Y-40303999D01*
X42856686Y-37338001D02*
X42291001Y-37338001D01*
X48071001Y-40303999D02*
X45105003Y-37338001D01*
X44394000Y-68767000D02*
X45019001Y-68141999D01*
X47638001Y-64655620D02*
X47638001Y-42806001D01*
X44219000Y-68767000D02*
X44394000Y-68767000D01*
G04 #@! TO.N,BLUE_LED*
X54756003Y-66021005D02*
X54756003Y-37610999D01*
X52578008Y-68199000D02*
X54756003Y-66021005D01*
X54756003Y-37610999D02*
X54356004Y-37211000D01*
G04 #@! TO.N,/P1.06*
X54737000Y-35560000D02*
X55880000Y-35560000D01*
X51448001Y-38848999D02*
X54737000Y-35560000D01*
X51448001Y-63507999D02*
X51448001Y-38848999D01*
X44219000Y-70037000D02*
X44919000Y-70037000D01*
X44919000Y-70037000D02*
X51448001Y-63507999D01*
G04 #@! TO.N,/P0.24*
X47117000Y-61346002D02*
X47117000Y-63843536D01*
X42841988Y-40301988D02*
X42841988Y-51535688D01*
X45974264Y-64986272D02*
X45574265Y-65386271D01*
X40640000Y-38100000D02*
X42841988Y-40301988D01*
X47117000Y-63843536D02*
X45974264Y-64986272D01*
X45098001Y-59327003D02*
X47117000Y-61346002D01*
X45098001Y-53791701D02*
X45098001Y-59327003D01*
X42841988Y-51535688D02*
X45098001Y-53791701D01*
G04 #@! TO.N,/P0.13*
X46716989Y-61809987D02*
X46716989Y-63136501D01*
X43815000Y-53074400D02*
X43815000Y-59314002D01*
X40640000Y-43180000D02*
X42441977Y-44981977D01*
X45929001Y-61021999D02*
X46716989Y-61809987D01*
X46118489Y-63735001D02*
X45718490Y-64135000D01*
X46716989Y-63136501D02*
X46118489Y-63735001D01*
X42441977Y-44981977D02*
X42441977Y-51701377D01*
X43815000Y-59314002D02*
X45522997Y-61021999D01*
X45522997Y-61021999D02*
X45929001Y-61021999D01*
X42441977Y-51701377D02*
X43815000Y-53074400D01*
D23*
G04 #@! TO.N,/P0.07*
X45743000Y-58607000D02*
X45743000Y-54230951D01*
D22*
X45743000Y-54230951D02*
X45743000Y-53871000D01*
X45743000Y-53871000D02*
X43241999Y-51369999D01*
X43241999Y-47925674D02*
X44069000Y-47098673D01*
X43241999Y-51369999D02*
X43241999Y-47925674D01*
D23*
X44069000Y-40189002D02*
X41529000Y-37649002D01*
X44069000Y-47098673D02*
X44069000Y-40189002D01*
X41529000Y-37649002D02*
X41529000Y-36449000D01*
X41274999Y-31114999D02*
X40640000Y-30480000D01*
X41529000Y-36449000D02*
X41692998Y-36285002D01*
X41692998Y-36285002D02*
X41692998Y-31532998D01*
X41692998Y-31532998D02*
X41274999Y-31114999D01*
D22*
G04 #@! TO.N,/P0.20*
X42291000Y-53349025D02*
X42291000Y-61934000D01*
X40640000Y-51698025D02*
X42291000Y-53349025D01*
X42291000Y-61934000D02*
X44044000Y-63687000D01*
X44044000Y-63687000D02*
X44219000Y-63687000D01*
X40640000Y-50800000D02*
X40640000Y-51698025D01*
G04 #@! TO.N,/P0.17*
X42691011Y-53081811D02*
X41641955Y-52032755D01*
X44219000Y-62417000D02*
X44044000Y-62417000D01*
X44044000Y-62417000D02*
X42691011Y-61064011D01*
X42691011Y-61064011D02*
X42691011Y-53081811D01*
X41274999Y-48894999D02*
X40640000Y-48260000D01*
X41641955Y-49261955D02*
X41274999Y-48894999D01*
X41641955Y-52032755D02*
X41641955Y-49261955D01*
G04 #@! TO.N,/P0.15*
X42041966Y-47121966D02*
X42041966Y-51867066D01*
X43091022Y-52916122D02*
X43091022Y-59494022D01*
X44219000Y-60622000D02*
X44219000Y-61147000D01*
X43091022Y-59494022D02*
X44219000Y-60622000D01*
X40640000Y-45720000D02*
X42041966Y-47121966D01*
X42041966Y-51867066D02*
X43091022Y-52916122D01*
G04 #@! TO.N,/P0.04*
X42545000Y-35560000D02*
X43180000Y-36195000D01*
X44958000Y-36195000D02*
X49003001Y-40240001D01*
X43180000Y-36195000D02*
X44958000Y-36195000D01*
X49003001Y-40240001D02*
X49403000Y-40640000D01*
G04 #@! TD*
M02*
