G04 #@! TF.GenerationSoftware,KiCad,Pcbnew,(5.0.0)*
G04 #@! TF.CreationDate,2020-11-30T22:45:23-06:00*
G04 #@! TF.ProjectId,BlueMacro,426C75654D6163726F2E6B696361645F,rev?*
G04 #@! TF.SameCoordinates,Original*
G04 #@! TF.FileFunction,Legend,Bot*
G04 #@! TF.FilePolarity,Positive*
%FSLAX46Y46*%
G04 Gerber Fmt 4.6, Leading zero omitted, Abs format (unit mm)*
G04 Created by KiCad (PCBNEW (5.0.0)) date 11/30/20 22:45:23*
%MOMM*%
%LPD*%
G01*
G04 APERTURE LIST*
%ADD10C,0.150000*%
%ADD11C,0.170000*%
%ADD12C,0.100000*%
%ADD13C,0.300000*%
%ADD14C,0.200000*%
G04 APERTURE END LIST*
D10*
X49498095Y-50126380D02*
X48879047Y-50126380D01*
X49212380Y-50507333D01*
X49069523Y-50507333D01*
X48974285Y-50554952D01*
X48926666Y-50602571D01*
X48879047Y-50697809D01*
X48879047Y-50935904D01*
X48926666Y-51031142D01*
X48974285Y-51078761D01*
X49069523Y-51126380D01*
X49355238Y-51126380D01*
X49450476Y-51078761D01*
X49498095Y-51031142D01*
X48593333Y-50126380D02*
X48260000Y-51126380D01*
X47926666Y-50126380D01*
X47688571Y-50126380D02*
X47069523Y-50126380D01*
X47402857Y-50507333D01*
X47260000Y-50507333D01*
X47164761Y-50554952D01*
X47117142Y-50602571D01*
X47069523Y-50697809D01*
X47069523Y-50935904D01*
X47117142Y-51031142D01*
X47164761Y-51078761D01*
X47260000Y-51126380D01*
X47545714Y-51126380D01*
X47640952Y-51078761D01*
X47688571Y-51031142D01*
X51736190Y-52728761D02*
X51593333Y-52776380D01*
X51355238Y-52776380D01*
X51260000Y-52728761D01*
X51212380Y-52681142D01*
X51164761Y-52585904D01*
X51164761Y-52490666D01*
X51212380Y-52395428D01*
X51260000Y-52347809D01*
X51355238Y-52300190D01*
X51545714Y-52252571D01*
X51640952Y-52204952D01*
X51688571Y-52157333D01*
X51736190Y-52062095D01*
X51736190Y-51966857D01*
X51688571Y-51871619D01*
X51640952Y-51824000D01*
X51545714Y-51776380D01*
X51307619Y-51776380D01*
X51164761Y-51824000D01*
X50831428Y-52109714D02*
X50640952Y-52776380D01*
X50450476Y-52300190D01*
X50260000Y-52776380D01*
X50069523Y-52109714D01*
X49688571Y-52776380D02*
X49688571Y-52109714D01*
X49688571Y-51776380D02*
X49736190Y-51824000D01*
X49688571Y-51871619D01*
X49640952Y-51824000D01*
X49688571Y-51776380D01*
X49688571Y-51871619D01*
X49355238Y-52109714D02*
X48974285Y-52109714D01*
X49212380Y-51776380D02*
X49212380Y-52633523D01*
X49164761Y-52728761D01*
X49069523Y-52776380D01*
X48974285Y-52776380D01*
X48212380Y-52728761D02*
X48307619Y-52776380D01*
X48498095Y-52776380D01*
X48593333Y-52728761D01*
X48640952Y-52681142D01*
X48688571Y-52585904D01*
X48688571Y-52300190D01*
X48640952Y-52204952D01*
X48593333Y-52157333D01*
X48498095Y-52109714D01*
X48307619Y-52109714D01*
X48212380Y-52157333D01*
X47783809Y-52776380D02*
X47783809Y-51776380D01*
X47355238Y-52776380D02*
X47355238Y-52252571D01*
X47402857Y-52157333D01*
X47498095Y-52109714D01*
X47640952Y-52109714D01*
X47736190Y-52157333D01*
X47783809Y-52204952D01*
X46498095Y-52728761D02*
X46593333Y-52776380D01*
X46783809Y-52776380D01*
X46879047Y-52728761D01*
X46926666Y-52633523D01*
X46926666Y-52252571D01*
X46879047Y-52157333D01*
X46783809Y-52109714D01*
X46593333Y-52109714D01*
X46498095Y-52157333D01*
X46450476Y-52252571D01*
X46450476Y-52347809D01*
X46926666Y-52443047D01*
X45593333Y-52776380D02*
X45593333Y-51776380D01*
X45593333Y-52728761D02*
X45688571Y-52776380D01*
X45879047Y-52776380D01*
X45974285Y-52728761D01*
X46021904Y-52681142D01*
X46069523Y-52585904D01*
X46069523Y-52300190D01*
X46021904Y-52204952D01*
X45974285Y-52157333D01*
X45879047Y-52109714D01*
X45688571Y-52109714D01*
X45593333Y-52157333D01*
X51402857Y-54426380D02*
X51402857Y-53426380D01*
X51402857Y-53807333D02*
X51307619Y-53759714D01*
X51117142Y-53759714D01*
X51021904Y-53807333D01*
X50974285Y-53854952D01*
X50926666Y-53950190D01*
X50926666Y-54235904D01*
X50974285Y-54331142D01*
X51021904Y-54378761D01*
X51117142Y-54426380D01*
X51307619Y-54426380D01*
X51402857Y-54378761D01*
X50593333Y-53759714D02*
X50355238Y-54426380D01*
X50117142Y-53759714D02*
X50355238Y-54426380D01*
X50450476Y-54664476D01*
X50498095Y-54712095D01*
X50593333Y-54759714D01*
X48974285Y-54426380D02*
X48974285Y-53426380D01*
X48593333Y-53426380D01*
X48498095Y-53474000D01*
X48450476Y-53521619D01*
X48402857Y-53616857D01*
X48402857Y-53759714D01*
X48450476Y-53854952D01*
X48498095Y-53902571D01*
X48593333Y-53950190D01*
X48974285Y-53950190D01*
X47450476Y-54426380D02*
X48021904Y-54426380D01*
X47736190Y-54426380D02*
X47736190Y-53426380D01*
X47831428Y-53569238D01*
X47926666Y-53664476D01*
X48021904Y-53712095D01*
X47021904Y-54331142D02*
X46974285Y-54378761D01*
X47021904Y-54426380D01*
X47069523Y-54378761D01*
X47021904Y-54331142D01*
X47021904Y-54426380D01*
X46355238Y-53426380D02*
X46260000Y-53426380D01*
X46164761Y-53474000D01*
X46117142Y-53521619D01*
X46069523Y-53616857D01*
X46021904Y-53807333D01*
X46021904Y-54045428D01*
X46069523Y-54235904D01*
X46117142Y-54331142D01*
X46164761Y-54378761D01*
X46260000Y-54426380D01*
X46355238Y-54426380D01*
X46450476Y-54378761D01*
X46498095Y-54331142D01*
X46545714Y-54235904D01*
X46593333Y-54045428D01*
X46593333Y-53807333D01*
X46545714Y-53616857D01*
X46498095Y-53521619D01*
X46450476Y-53474000D01*
X46355238Y-53426380D01*
X45402857Y-53426380D02*
X45307619Y-53426380D01*
X45212380Y-53474000D01*
X45164761Y-53521619D01*
X45117142Y-53616857D01*
X45069523Y-53807333D01*
X45069523Y-54045428D01*
X45117142Y-54235904D01*
X45164761Y-54331142D01*
X45212380Y-54378761D01*
X45307619Y-54426380D01*
X45402857Y-54426380D01*
X45498095Y-54378761D01*
X45545714Y-54331142D01*
X45593333Y-54235904D01*
X45640952Y-54045428D01*
X45640952Y-53807333D01*
X45593333Y-53616857D01*
X45545714Y-53521619D01*
X45498095Y-53474000D01*
X45402857Y-53426380D01*
X49466476Y-61556380D02*
X49942666Y-61556380D01*
X49990285Y-62032571D01*
X49942666Y-61984952D01*
X49847428Y-61937333D01*
X49609333Y-61937333D01*
X49514095Y-61984952D01*
X49466476Y-62032571D01*
X49418857Y-62127809D01*
X49418857Y-62365904D01*
X49466476Y-62461142D01*
X49514095Y-62508761D01*
X49609333Y-62556380D01*
X49847428Y-62556380D01*
X49942666Y-62508761D01*
X49990285Y-62461142D01*
X49133142Y-61556380D02*
X48799809Y-62556380D01*
X48466476Y-61556380D01*
X52728380Y-64111142D02*
X52776000Y-64158761D01*
X52918857Y-64206380D01*
X53014095Y-64206380D01*
X53156952Y-64158761D01*
X53252190Y-64063523D01*
X53299809Y-63968285D01*
X53347428Y-63777809D01*
X53347428Y-63634952D01*
X53299809Y-63444476D01*
X53252190Y-63349238D01*
X53156952Y-63254000D01*
X53014095Y-63206380D01*
X52918857Y-63206380D01*
X52776000Y-63254000D01*
X52728380Y-63301619D01*
X52156952Y-64206380D02*
X52252190Y-64158761D01*
X52299809Y-64111142D01*
X52347428Y-64015904D01*
X52347428Y-63730190D01*
X52299809Y-63634952D01*
X52252190Y-63587333D01*
X52156952Y-63539714D01*
X52014095Y-63539714D01*
X51918857Y-63587333D01*
X51871238Y-63634952D01*
X51823619Y-63730190D01*
X51823619Y-64015904D01*
X51871238Y-64111142D01*
X51918857Y-64158761D01*
X52014095Y-64206380D01*
X52156952Y-64206380D01*
X51395047Y-63539714D02*
X51395047Y-64206380D01*
X51395047Y-63634952D02*
X51347428Y-63587333D01*
X51252190Y-63539714D01*
X51109333Y-63539714D01*
X51014095Y-63587333D01*
X50966476Y-63682571D01*
X50966476Y-64206380D01*
X50490285Y-63539714D02*
X50490285Y-64206380D01*
X50490285Y-63634952D02*
X50442666Y-63587333D01*
X50347428Y-63539714D01*
X50204571Y-63539714D01*
X50109333Y-63587333D01*
X50061714Y-63682571D01*
X50061714Y-64206380D01*
X49204571Y-64158761D02*
X49299809Y-64206380D01*
X49490285Y-64206380D01*
X49585523Y-64158761D01*
X49633142Y-64063523D01*
X49633142Y-63682571D01*
X49585523Y-63587333D01*
X49490285Y-63539714D01*
X49299809Y-63539714D01*
X49204571Y-63587333D01*
X49156952Y-63682571D01*
X49156952Y-63777809D01*
X49633142Y-63873047D01*
X48299809Y-64158761D02*
X48395047Y-64206380D01*
X48585523Y-64206380D01*
X48680761Y-64158761D01*
X48728380Y-64111142D01*
X48776000Y-64015904D01*
X48776000Y-63730190D01*
X48728380Y-63634952D01*
X48680761Y-63587333D01*
X48585523Y-63539714D01*
X48395047Y-63539714D01*
X48299809Y-63587333D01*
X48014095Y-63539714D02*
X47633142Y-63539714D01*
X47871238Y-63206380D02*
X47871238Y-64063523D01*
X47823619Y-64158761D01*
X47728380Y-64206380D01*
X47633142Y-64206380D01*
X46918857Y-64158761D02*
X47014095Y-64206380D01*
X47204571Y-64206380D01*
X47299809Y-64158761D01*
X47347428Y-64063523D01*
X47347428Y-63682571D01*
X47299809Y-63587333D01*
X47204571Y-63539714D01*
X47014095Y-63539714D01*
X46918857Y-63587333D01*
X46871238Y-63682571D01*
X46871238Y-63777809D01*
X47347428Y-63873047D01*
X46014095Y-64206380D02*
X46014095Y-63206380D01*
X46014095Y-64158761D02*
X46109333Y-64206380D01*
X46299809Y-64206380D01*
X46395047Y-64158761D01*
X46442666Y-64111142D01*
X46490285Y-64015904D01*
X46490285Y-63730190D01*
X46442666Y-63634952D01*
X46395047Y-63587333D01*
X46299809Y-63539714D01*
X46109333Y-63539714D01*
X46014095Y-63587333D01*
X52228380Y-65189714D02*
X51847428Y-65189714D01*
X52085523Y-64856380D02*
X52085523Y-65713523D01*
X52037904Y-65808761D01*
X51942666Y-65856380D01*
X51847428Y-65856380D01*
X51371238Y-65856380D02*
X51466476Y-65808761D01*
X51514095Y-65761142D01*
X51561714Y-65665904D01*
X51561714Y-65380190D01*
X51514095Y-65284952D01*
X51466476Y-65237333D01*
X51371238Y-65189714D01*
X51228380Y-65189714D01*
X51133142Y-65237333D01*
X51085523Y-65284952D01*
X51037904Y-65380190D01*
X51037904Y-65665904D01*
X51085523Y-65761142D01*
X51133142Y-65808761D01*
X51228380Y-65856380D01*
X51371238Y-65856380D01*
X49990285Y-64856380D02*
X49656952Y-65856380D01*
X49323619Y-64856380D01*
X48990285Y-64856380D02*
X48990285Y-65665904D01*
X48942666Y-65761142D01*
X48895047Y-65808761D01*
X48799809Y-65856380D01*
X48609333Y-65856380D01*
X48514095Y-65808761D01*
X48466476Y-65761142D01*
X48418857Y-65665904D01*
X48418857Y-64856380D01*
X47990285Y-65808761D02*
X47847428Y-65856380D01*
X47609333Y-65856380D01*
X47514095Y-65808761D01*
X47466476Y-65761142D01*
X47418857Y-65665904D01*
X47418857Y-65570666D01*
X47466476Y-65475428D01*
X47514095Y-65427809D01*
X47609333Y-65380190D01*
X47799809Y-65332571D01*
X47895047Y-65284952D01*
X47942666Y-65237333D01*
X47990285Y-65142095D01*
X47990285Y-65046857D01*
X47942666Y-64951619D01*
X47895047Y-64904000D01*
X47799809Y-64856380D01*
X47561714Y-64856380D01*
X47418857Y-64904000D01*
X46656952Y-65332571D02*
X46514095Y-65380190D01*
X46466476Y-65427809D01*
X46418857Y-65523047D01*
X46418857Y-65665904D01*
X46466476Y-65761142D01*
X46514095Y-65808761D01*
X46609333Y-65856380D01*
X46990285Y-65856380D01*
X46990285Y-64856380D01*
X46656952Y-64856380D01*
X46561714Y-64904000D01*
X46514095Y-64951619D01*
X46466476Y-65046857D01*
X46466476Y-65142095D01*
X46514095Y-65237333D01*
X46561714Y-65284952D01*
X46656952Y-65332571D01*
X46990285Y-65332571D01*
X50426761Y-69176380D02*
X50093428Y-70176380D01*
X49760095Y-69176380D01*
X49426761Y-70176380D02*
X49426761Y-69509714D01*
X49426761Y-69176380D02*
X49474380Y-69224000D01*
X49426761Y-69271619D01*
X49379142Y-69224000D01*
X49426761Y-69176380D01*
X49426761Y-69271619D01*
X48950571Y-69509714D02*
X48950571Y-70176380D01*
X48950571Y-69604952D02*
X48902952Y-69557333D01*
X48807714Y-69509714D01*
X48664857Y-69509714D01*
X48569619Y-69557333D01*
X48522000Y-69652571D01*
X48522000Y-70176380D01*
X52474380Y-71731142D02*
X52522000Y-71778761D01*
X52664857Y-71826380D01*
X52760095Y-71826380D01*
X52902952Y-71778761D01*
X52998190Y-71683523D01*
X53045809Y-71588285D01*
X53093428Y-71397809D01*
X53093428Y-71254952D01*
X53045809Y-71064476D01*
X52998190Y-70969238D01*
X52902952Y-70874000D01*
X52760095Y-70826380D01*
X52664857Y-70826380D01*
X52522000Y-70874000D01*
X52474380Y-70921619D01*
X51902952Y-71826380D02*
X51998190Y-71778761D01*
X52045809Y-71731142D01*
X52093428Y-71635904D01*
X52093428Y-71350190D01*
X52045809Y-71254952D01*
X51998190Y-71207333D01*
X51902952Y-71159714D01*
X51760095Y-71159714D01*
X51664857Y-71207333D01*
X51617238Y-71254952D01*
X51569619Y-71350190D01*
X51569619Y-71635904D01*
X51617238Y-71731142D01*
X51664857Y-71778761D01*
X51760095Y-71826380D01*
X51902952Y-71826380D01*
X51141047Y-71159714D02*
X51141047Y-71826380D01*
X51141047Y-71254952D02*
X51093428Y-71207333D01*
X50998190Y-71159714D01*
X50855333Y-71159714D01*
X50760095Y-71207333D01*
X50712476Y-71302571D01*
X50712476Y-71826380D01*
X50236285Y-71159714D02*
X50236285Y-71826380D01*
X50236285Y-71254952D02*
X50188666Y-71207333D01*
X50093428Y-71159714D01*
X49950571Y-71159714D01*
X49855333Y-71207333D01*
X49807714Y-71302571D01*
X49807714Y-71826380D01*
X48950571Y-71778761D02*
X49045809Y-71826380D01*
X49236285Y-71826380D01*
X49331523Y-71778761D01*
X49379142Y-71683523D01*
X49379142Y-71302571D01*
X49331523Y-71207333D01*
X49236285Y-71159714D01*
X49045809Y-71159714D01*
X48950571Y-71207333D01*
X48902952Y-71302571D01*
X48902952Y-71397809D01*
X49379142Y-71493047D01*
X48045809Y-71778761D02*
X48141047Y-71826380D01*
X48331523Y-71826380D01*
X48426761Y-71778761D01*
X48474380Y-71731142D01*
X48522000Y-71635904D01*
X48522000Y-71350190D01*
X48474380Y-71254952D01*
X48426761Y-71207333D01*
X48331523Y-71159714D01*
X48141047Y-71159714D01*
X48045809Y-71207333D01*
X47760095Y-71159714D02*
X47379142Y-71159714D01*
X47617238Y-70826380D02*
X47617238Y-71683523D01*
X47569619Y-71778761D01*
X47474380Y-71826380D01*
X47379142Y-71826380D01*
X46664857Y-71778761D02*
X46760095Y-71826380D01*
X46950571Y-71826380D01*
X47045809Y-71778761D01*
X47093428Y-71683523D01*
X47093428Y-71302571D01*
X47045809Y-71207333D01*
X46950571Y-71159714D01*
X46760095Y-71159714D01*
X46664857Y-71207333D01*
X46617238Y-71302571D01*
X46617238Y-71397809D01*
X47093428Y-71493047D01*
X45760095Y-71826380D02*
X45760095Y-70826380D01*
X45760095Y-71778761D02*
X45855333Y-71826380D01*
X46045809Y-71826380D01*
X46141047Y-71778761D01*
X46188666Y-71731142D01*
X46236285Y-71635904D01*
X46236285Y-71350190D01*
X46188666Y-71254952D01*
X46141047Y-71207333D01*
X46045809Y-71159714D01*
X45855333Y-71159714D01*
X45760095Y-71207333D01*
X51998190Y-72809714D02*
X51617238Y-72809714D01*
X51855333Y-72476380D02*
X51855333Y-73333523D01*
X51807714Y-73428761D01*
X51712476Y-73476380D01*
X51617238Y-73476380D01*
X51141047Y-73476380D02*
X51236285Y-73428761D01*
X51283904Y-73381142D01*
X51331523Y-73285904D01*
X51331523Y-73000190D01*
X51283904Y-72904952D01*
X51236285Y-72857333D01*
X51141047Y-72809714D01*
X50998190Y-72809714D01*
X50902952Y-72857333D01*
X50855333Y-72904952D01*
X50807714Y-73000190D01*
X50807714Y-73285904D01*
X50855333Y-73381142D01*
X50902952Y-73428761D01*
X50998190Y-73476380D01*
X51141047Y-73476380D01*
X49760095Y-72476380D02*
X49426761Y-73476380D01*
X49093428Y-72476380D01*
X48426761Y-72952571D02*
X48283904Y-73000190D01*
X48236285Y-73047809D01*
X48188666Y-73143047D01*
X48188666Y-73285904D01*
X48236285Y-73381142D01*
X48283904Y-73428761D01*
X48379142Y-73476380D01*
X48760095Y-73476380D01*
X48760095Y-72476380D01*
X48426761Y-72476380D01*
X48331523Y-72524000D01*
X48283904Y-72571619D01*
X48236285Y-72666857D01*
X48236285Y-72762095D01*
X48283904Y-72857333D01*
X48331523Y-72904952D01*
X48426761Y-72952571D01*
X48760095Y-72952571D01*
X47331523Y-73476380D02*
X47331523Y-72952571D01*
X47379142Y-72857333D01*
X47474380Y-72809714D01*
X47664857Y-72809714D01*
X47760095Y-72857333D01*
X47331523Y-73428761D02*
X47426761Y-73476380D01*
X47664857Y-73476380D01*
X47760095Y-73428761D01*
X47807714Y-73333523D01*
X47807714Y-73238285D01*
X47760095Y-73143047D01*
X47664857Y-73095428D01*
X47426761Y-73095428D01*
X47331523Y-73047809D01*
X46998190Y-72809714D02*
X46617238Y-72809714D01*
X46855333Y-72476380D02*
X46855333Y-73333523D01*
X46807714Y-73428761D01*
X46712476Y-73476380D01*
X46617238Y-73476380D01*
X46426761Y-72809714D02*
X46045809Y-72809714D01*
X46283904Y-72476380D02*
X46283904Y-73333523D01*
X46236285Y-73428761D01*
X46141047Y-73476380D01*
X46045809Y-73476380D01*
D11*
X53699714Y-31015428D02*
X53542571Y-31067809D01*
X53490190Y-31120190D01*
X53437809Y-31224952D01*
X53437809Y-31382095D01*
X53490190Y-31486857D01*
X53542571Y-31539238D01*
X53647333Y-31591619D01*
X54066380Y-31591619D01*
X54066380Y-30491619D01*
X53699714Y-30491619D01*
X53594952Y-30544000D01*
X53542571Y-30596380D01*
X53490190Y-30701142D01*
X53490190Y-30805904D01*
X53542571Y-30910666D01*
X53594952Y-30963047D01*
X53699714Y-31015428D01*
X54066380Y-31015428D01*
X52809238Y-31591619D02*
X52914000Y-31539238D01*
X52966380Y-31434476D01*
X52966380Y-30491619D01*
X51918761Y-30858285D02*
X51918761Y-31591619D01*
X52390190Y-30858285D02*
X52390190Y-31434476D01*
X52337809Y-31539238D01*
X52233047Y-31591619D01*
X52075904Y-31591619D01*
X51971142Y-31539238D01*
X51918761Y-31486857D01*
X50975904Y-31539238D02*
X51080666Y-31591619D01*
X51290190Y-31591619D01*
X51394952Y-31539238D01*
X51447333Y-31434476D01*
X51447333Y-31015428D01*
X51394952Y-30910666D01*
X51290190Y-30858285D01*
X51080666Y-30858285D01*
X50975904Y-30910666D01*
X50923523Y-31015428D01*
X50923523Y-31120190D01*
X51447333Y-31224952D01*
X50452095Y-31591619D02*
X50452095Y-30491619D01*
X50085428Y-31277333D01*
X49718761Y-30491619D01*
X49718761Y-31591619D01*
X48723523Y-31591619D02*
X48723523Y-31015428D01*
X48775904Y-30910666D01*
X48880666Y-30858285D01*
X49090190Y-30858285D01*
X49194952Y-30910666D01*
X48723523Y-31539238D02*
X48828285Y-31591619D01*
X49090190Y-31591619D01*
X49194952Y-31539238D01*
X49247333Y-31434476D01*
X49247333Y-31329714D01*
X49194952Y-31224952D01*
X49090190Y-31172571D01*
X48828285Y-31172571D01*
X48723523Y-31120190D01*
X47728285Y-31539238D02*
X47833047Y-31591619D01*
X48042571Y-31591619D01*
X48147333Y-31539238D01*
X48199714Y-31486857D01*
X48252095Y-31382095D01*
X48252095Y-31067809D01*
X48199714Y-30963047D01*
X48147333Y-30910666D01*
X48042571Y-30858285D01*
X47833047Y-30858285D01*
X47728285Y-30910666D01*
X47256857Y-31591619D02*
X47256857Y-30858285D01*
X47256857Y-31067809D02*
X47204476Y-30963047D01*
X47152095Y-30910666D01*
X47047333Y-30858285D01*
X46942571Y-30858285D01*
X46418761Y-31591619D02*
X46523523Y-31539238D01*
X46575904Y-31486857D01*
X46628285Y-31382095D01*
X46628285Y-31067809D01*
X46575904Y-30963047D01*
X46523523Y-30910666D01*
X46418761Y-30858285D01*
X46261619Y-30858285D01*
X46156857Y-30910666D01*
X46104476Y-30963047D01*
X46052095Y-31067809D01*
X46052095Y-31382095D01*
X46104476Y-31486857D01*
X46156857Y-31539238D01*
X46261619Y-31591619D01*
X46418761Y-31591619D01*
X45423523Y-30963047D02*
X45528285Y-30910666D01*
X45580666Y-30858285D01*
X45633047Y-30753523D01*
X45633047Y-30701142D01*
X45580666Y-30596380D01*
X45528285Y-30544000D01*
X45423523Y-30491619D01*
X45214000Y-30491619D01*
X45109238Y-30544000D01*
X45056857Y-30596380D01*
X45004476Y-30701142D01*
X45004476Y-30753523D01*
X45056857Y-30858285D01*
X45109238Y-30910666D01*
X45214000Y-30963047D01*
X45423523Y-30963047D01*
X45528285Y-31015428D01*
X45580666Y-31067809D01*
X45633047Y-31172571D01*
X45633047Y-31382095D01*
X45580666Y-31486857D01*
X45528285Y-31539238D01*
X45423523Y-31591619D01*
X45214000Y-31591619D01*
X45109238Y-31539238D01*
X45056857Y-31486857D01*
X45004476Y-31382095D01*
X45004476Y-31172571D01*
X45056857Y-31067809D01*
X45109238Y-31015428D01*
X45214000Y-30963047D01*
X44061619Y-30858285D02*
X44061619Y-31591619D01*
X44323523Y-30439238D02*
X44585428Y-31224952D01*
X43904476Y-31224952D01*
X43275904Y-30491619D02*
X43171142Y-30491619D01*
X43066380Y-30544000D01*
X43014000Y-30596380D01*
X42961619Y-30701142D01*
X42909238Y-30910666D01*
X42909238Y-31172571D01*
X42961619Y-31382095D01*
X43014000Y-31486857D01*
X43066380Y-31539238D01*
X43171142Y-31591619D01*
X43275904Y-31591619D01*
X43380666Y-31539238D01*
X43433047Y-31486857D01*
X43485428Y-31382095D01*
X43537809Y-31172571D01*
X43537809Y-30910666D01*
X43485428Y-30701142D01*
X43433047Y-30596380D01*
X43380666Y-30544000D01*
X43275904Y-30491619D01*
X49614000Y-32416380D02*
X49561619Y-32364000D01*
X49456857Y-32311619D01*
X49194952Y-32311619D01*
X49090190Y-32364000D01*
X49037809Y-32416380D01*
X48985428Y-32521142D01*
X48985428Y-32625904D01*
X49037809Y-32783047D01*
X49666380Y-33411619D01*
X48985428Y-33411619D01*
X48514000Y-33306857D02*
X48461619Y-33359238D01*
X48514000Y-33411619D01*
X48566380Y-33359238D01*
X48514000Y-33306857D01*
X48514000Y-33411619D01*
X47780666Y-32311619D02*
X47675904Y-32311619D01*
X47571142Y-32364000D01*
X47518761Y-32416380D01*
X47466380Y-32521142D01*
X47414000Y-32730666D01*
X47414000Y-32992571D01*
X47466380Y-33202095D01*
X47518761Y-33306857D01*
X47571142Y-33359238D01*
X47675904Y-33411619D01*
X47780666Y-33411619D01*
X47885428Y-33359238D01*
X47937809Y-33306857D01*
X47990190Y-33202095D01*
X48042571Y-32992571D01*
X48042571Y-32730666D01*
X47990190Y-32521142D01*
X47937809Y-32416380D01*
X47885428Y-32364000D01*
X47780666Y-32311619D01*
D12*
X57743285Y-70441428D02*
X57743285Y-70012857D01*
X57743285Y-70227142D02*
X56993285Y-70227142D01*
X57100428Y-70155714D01*
X57171857Y-70084285D01*
X57207571Y-70012857D01*
X57671857Y-70762857D02*
X57707571Y-70798571D01*
X57743285Y-70762857D01*
X57707571Y-70727142D01*
X57671857Y-70762857D01*
X57743285Y-70762857D01*
X57743285Y-71512857D02*
X57743285Y-71084285D01*
X57743285Y-71298571D02*
X56993285Y-71298571D01*
X57100428Y-71227142D01*
X57171857Y-71155714D01*
X57207571Y-71084285D01*
X57743285Y-72227142D02*
X57743285Y-71798571D01*
X57743285Y-72012857D02*
X56993285Y-72012857D01*
X57100428Y-71941428D01*
X57171857Y-71870000D01*
X57207571Y-71798571D01*
X56993285Y-67651428D02*
X56993285Y-67722857D01*
X57029000Y-67794285D01*
X57064714Y-67830000D01*
X57136142Y-67865714D01*
X57279000Y-67901428D01*
X57457571Y-67901428D01*
X57600428Y-67865714D01*
X57671857Y-67830000D01*
X57707571Y-67794285D01*
X57743285Y-67722857D01*
X57743285Y-67651428D01*
X57707571Y-67580000D01*
X57671857Y-67544285D01*
X57600428Y-67508571D01*
X57457571Y-67472857D01*
X57279000Y-67472857D01*
X57136142Y-67508571D01*
X57064714Y-67544285D01*
X57029000Y-67580000D01*
X56993285Y-67651428D01*
X57671857Y-68222857D02*
X57707571Y-68258571D01*
X57743285Y-68222857D01*
X57707571Y-68187142D01*
X57671857Y-68222857D01*
X57743285Y-68222857D01*
X56993285Y-68722857D02*
X56993285Y-68794285D01*
X57029000Y-68865714D01*
X57064714Y-68901428D01*
X57136142Y-68937142D01*
X57279000Y-68972857D01*
X57457571Y-68972857D01*
X57600428Y-68937142D01*
X57671857Y-68901428D01*
X57707571Y-68865714D01*
X57743285Y-68794285D01*
X57743285Y-68722857D01*
X57707571Y-68651428D01*
X57671857Y-68615714D01*
X57600428Y-68580000D01*
X57457571Y-68544285D01*
X57279000Y-68544285D01*
X57136142Y-68580000D01*
X57064714Y-68615714D01*
X57029000Y-68651428D01*
X56993285Y-68722857D01*
X56993285Y-69222857D02*
X56993285Y-69687142D01*
X57279000Y-69437142D01*
X57279000Y-69544285D01*
X57314714Y-69615714D01*
X57350428Y-69651428D01*
X57421857Y-69687142D01*
X57600428Y-69687142D01*
X57671857Y-69651428D01*
X57707571Y-69615714D01*
X57743285Y-69544285D01*
X57743285Y-69330000D01*
X57707571Y-69258571D01*
X57671857Y-69222857D01*
X56993285Y-65111428D02*
X56993285Y-65182857D01*
X57029000Y-65254285D01*
X57064714Y-65290000D01*
X57136142Y-65325714D01*
X57279000Y-65361428D01*
X57457571Y-65361428D01*
X57600428Y-65325714D01*
X57671857Y-65290000D01*
X57707571Y-65254285D01*
X57743285Y-65182857D01*
X57743285Y-65111428D01*
X57707571Y-65040000D01*
X57671857Y-65004285D01*
X57600428Y-64968571D01*
X57457571Y-64932857D01*
X57279000Y-64932857D01*
X57136142Y-64968571D01*
X57064714Y-65004285D01*
X57029000Y-65040000D01*
X56993285Y-65111428D01*
X57671857Y-65682857D02*
X57707571Y-65718571D01*
X57743285Y-65682857D01*
X57707571Y-65647142D01*
X57671857Y-65682857D01*
X57743285Y-65682857D01*
X57064714Y-66004285D02*
X57029000Y-66040000D01*
X56993285Y-66111428D01*
X56993285Y-66290000D01*
X57029000Y-66361428D01*
X57064714Y-66397142D01*
X57136142Y-66432857D01*
X57207571Y-66432857D01*
X57314714Y-66397142D01*
X57743285Y-65968571D01*
X57743285Y-66432857D01*
X57314714Y-66861428D02*
X57279000Y-66790000D01*
X57243285Y-66754285D01*
X57171857Y-66718571D01*
X57136142Y-66718571D01*
X57064714Y-66754285D01*
X57029000Y-66790000D01*
X56993285Y-66861428D01*
X56993285Y-67004285D01*
X57029000Y-67075714D01*
X57064714Y-67111428D01*
X57136142Y-67147142D01*
X57171857Y-67147142D01*
X57243285Y-67111428D01*
X57279000Y-67075714D01*
X57314714Y-67004285D01*
X57314714Y-66861428D01*
X57350428Y-66790000D01*
X57386142Y-66754285D01*
X57457571Y-66718571D01*
X57600428Y-66718571D01*
X57671857Y-66754285D01*
X57707571Y-66790000D01*
X57743285Y-66861428D01*
X57743285Y-67004285D01*
X57707571Y-67075714D01*
X57671857Y-67111428D01*
X57600428Y-67147142D01*
X57457571Y-67147142D01*
X57386142Y-67111428D01*
X57350428Y-67075714D01*
X57314714Y-67004285D01*
X57743285Y-62821428D02*
X57743285Y-62392857D01*
X57743285Y-62607142D02*
X56993285Y-62607142D01*
X57100428Y-62535714D01*
X57171857Y-62464285D01*
X57207571Y-62392857D01*
X57671857Y-63142857D02*
X57707571Y-63178571D01*
X57743285Y-63142857D01*
X57707571Y-63107142D01*
X57671857Y-63142857D01*
X57743285Y-63142857D01*
X57743285Y-63892857D02*
X57743285Y-63464285D01*
X57743285Y-63678571D02*
X56993285Y-63678571D01*
X57100428Y-63607142D01*
X57171857Y-63535714D01*
X57207571Y-63464285D01*
X56993285Y-64142857D02*
X56993285Y-64607142D01*
X57279000Y-64357142D01*
X57279000Y-64464285D01*
X57314714Y-64535714D01*
X57350428Y-64571428D01*
X57421857Y-64607142D01*
X57600428Y-64607142D01*
X57671857Y-64571428D01*
X57707571Y-64535714D01*
X57743285Y-64464285D01*
X57743285Y-64250000D01*
X57707571Y-64178571D01*
X57671857Y-64142857D01*
X56993285Y-54951428D02*
X56993285Y-55022857D01*
X57029000Y-55094285D01*
X57064714Y-55130000D01*
X57136142Y-55165714D01*
X57279000Y-55201428D01*
X57457571Y-55201428D01*
X57600428Y-55165714D01*
X57671857Y-55130000D01*
X57707571Y-55094285D01*
X57743285Y-55022857D01*
X57743285Y-54951428D01*
X57707571Y-54880000D01*
X57671857Y-54844285D01*
X57600428Y-54808571D01*
X57457571Y-54772857D01*
X57279000Y-54772857D01*
X57136142Y-54808571D01*
X57064714Y-54844285D01*
X57029000Y-54880000D01*
X56993285Y-54951428D01*
X57671857Y-55522857D02*
X57707571Y-55558571D01*
X57743285Y-55522857D01*
X57707571Y-55487142D01*
X57671857Y-55522857D01*
X57743285Y-55522857D01*
X56993285Y-55808571D02*
X56993285Y-56272857D01*
X57279000Y-56022857D01*
X57279000Y-56130000D01*
X57314714Y-56201428D01*
X57350428Y-56237142D01*
X57421857Y-56272857D01*
X57600428Y-56272857D01*
X57671857Y-56237142D01*
X57707571Y-56201428D01*
X57743285Y-56130000D01*
X57743285Y-55915714D01*
X57707571Y-55844285D01*
X57671857Y-55808571D01*
X56993285Y-56737142D02*
X56993285Y-56808571D01*
X57029000Y-56880000D01*
X57064714Y-56915714D01*
X57136142Y-56951428D01*
X57279000Y-56987142D01*
X57457571Y-56987142D01*
X57600428Y-56951428D01*
X57671857Y-56915714D01*
X57707571Y-56880000D01*
X57743285Y-56808571D01*
X57743285Y-56737142D01*
X57707571Y-56665714D01*
X57671857Y-56630000D01*
X57600428Y-56594285D01*
X57457571Y-56558571D01*
X57279000Y-56558571D01*
X57136142Y-56594285D01*
X57064714Y-56630000D01*
X57029000Y-56665714D01*
X56993285Y-56737142D01*
X56993285Y-52411428D02*
X56993285Y-52482857D01*
X57029000Y-52554285D01*
X57064714Y-52590000D01*
X57136142Y-52625714D01*
X57279000Y-52661428D01*
X57457571Y-52661428D01*
X57600428Y-52625714D01*
X57671857Y-52590000D01*
X57707571Y-52554285D01*
X57743285Y-52482857D01*
X57743285Y-52411428D01*
X57707571Y-52340000D01*
X57671857Y-52304285D01*
X57600428Y-52268571D01*
X57457571Y-52232857D01*
X57279000Y-52232857D01*
X57136142Y-52268571D01*
X57064714Y-52304285D01*
X57029000Y-52340000D01*
X56993285Y-52411428D01*
X57671857Y-52982857D02*
X57707571Y-53018571D01*
X57743285Y-52982857D01*
X57707571Y-52947142D01*
X57671857Y-52982857D01*
X57743285Y-52982857D01*
X56993285Y-53482857D02*
X56993285Y-53554285D01*
X57029000Y-53625714D01*
X57064714Y-53661428D01*
X57136142Y-53697142D01*
X57279000Y-53732857D01*
X57457571Y-53732857D01*
X57600428Y-53697142D01*
X57671857Y-53661428D01*
X57707571Y-53625714D01*
X57743285Y-53554285D01*
X57743285Y-53482857D01*
X57707571Y-53411428D01*
X57671857Y-53375714D01*
X57600428Y-53340000D01*
X57457571Y-53304285D01*
X57279000Y-53304285D01*
X57136142Y-53340000D01*
X57064714Y-53375714D01*
X57029000Y-53411428D01*
X56993285Y-53482857D01*
X57064714Y-54018571D02*
X57029000Y-54054285D01*
X56993285Y-54125714D01*
X56993285Y-54304285D01*
X57029000Y-54375714D01*
X57064714Y-54411428D01*
X57136142Y-54447142D01*
X57207571Y-54447142D01*
X57314714Y-54411428D01*
X57743285Y-53982857D01*
X57743285Y-54447142D01*
X56993285Y-49871428D02*
X56993285Y-49942857D01*
X57029000Y-50014285D01*
X57064714Y-50050000D01*
X57136142Y-50085714D01*
X57279000Y-50121428D01*
X57457571Y-50121428D01*
X57600428Y-50085714D01*
X57671857Y-50050000D01*
X57707571Y-50014285D01*
X57743285Y-49942857D01*
X57743285Y-49871428D01*
X57707571Y-49800000D01*
X57671857Y-49764285D01*
X57600428Y-49728571D01*
X57457571Y-49692857D01*
X57279000Y-49692857D01*
X57136142Y-49728571D01*
X57064714Y-49764285D01*
X57029000Y-49800000D01*
X56993285Y-49871428D01*
X57671857Y-50442857D02*
X57707571Y-50478571D01*
X57743285Y-50442857D01*
X57707571Y-50407142D01*
X57671857Y-50442857D01*
X57743285Y-50442857D01*
X57064714Y-50764285D02*
X57029000Y-50800000D01*
X56993285Y-50871428D01*
X56993285Y-51050000D01*
X57029000Y-51121428D01*
X57064714Y-51157142D01*
X57136142Y-51192857D01*
X57207571Y-51192857D01*
X57314714Y-51157142D01*
X57743285Y-50728571D01*
X57743285Y-51192857D01*
X57743285Y-51550000D02*
X57743285Y-51692857D01*
X57707571Y-51764285D01*
X57671857Y-51800000D01*
X57564714Y-51871428D01*
X57421857Y-51907142D01*
X57136142Y-51907142D01*
X57064714Y-51871428D01*
X57029000Y-51835714D01*
X56993285Y-51764285D01*
X56993285Y-51621428D01*
X57029000Y-51550000D01*
X57064714Y-51514285D01*
X57136142Y-51478571D01*
X57314714Y-51478571D01*
X57386142Y-51514285D01*
X57421857Y-51550000D01*
X57457571Y-51621428D01*
X57457571Y-51764285D01*
X57421857Y-51835714D01*
X57386142Y-51871428D01*
X57314714Y-51907142D01*
X56993285Y-47331428D02*
X56993285Y-47402857D01*
X57029000Y-47474285D01*
X57064714Y-47510000D01*
X57136142Y-47545714D01*
X57279000Y-47581428D01*
X57457571Y-47581428D01*
X57600428Y-47545714D01*
X57671857Y-47510000D01*
X57707571Y-47474285D01*
X57743285Y-47402857D01*
X57743285Y-47331428D01*
X57707571Y-47260000D01*
X57671857Y-47224285D01*
X57600428Y-47188571D01*
X57457571Y-47152857D01*
X57279000Y-47152857D01*
X57136142Y-47188571D01*
X57064714Y-47224285D01*
X57029000Y-47260000D01*
X56993285Y-47331428D01*
X57671857Y-47902857D02*
X57707571Y-47938571D01*
X57743285Y-47902857D01*
X57707571Y-47867142D01*
X57671857Y-47902857D01*
X57743285Y-47902857D01*
X57064714Y-48224285D02*
X57029000Y-48260000D01*
X56993285Y-48331428D01*
X56993285Y-48510000D01*
X57029000Y-48581428D01*
X57064714Y-48617142D01*
X57136142Y-48652857D01*
X57207571Y-48652857D01*
X57314714Y-48617142D01*
X57743285Y-48188571D01*
X57743285Y-48652857D01*
X56993285Y-49295714D02*
X56993285Y-49152857D01*
X57029000Y-49081428D01*
X57064714Y-49045714D01*
X57171857Y-48974285D01*
X57314714Y-48938571D01*
X57600428Y-48938571D01*
X57671857Y-48974285D01*
X57707571Y-49010000D01*
X57743285Y-49081428D01*
X57743285Y-49224285D01*
X57707571Y-49295714D01*
X57671857Y-49331428D01*
X57600428Y-49367142D01*
X57421857Y-49367142D01*
X57350428Y-49331428D01*
X57314714Y-49295714D01*
X57279000Y-49224285D01*
X57279000Y-49081428D01*
X57314714Y-49010000D01*
X57350428Y-48974285D01*
X57421857Y-48938571D01*
X56993285Y-44791428D02*
X56993285Y-44862857D01*
X57029000Y-44934285D01*
X57064714Y-44970000D01*
X57136142Y-45005714D01*
X57279000Y-45041428D01*
X57457571Y-45041428D01*
X57600428Y-45005714D01*
X57671857Y-44970000D01*
X57707571Y-44934285D01*
X57743285Y-44862857D01*
X57743285Y-44791428D01*
X57707571Y-44720000D01*
X57671857Y-44684285D01*
X57600428Y-44648571D01*
X57457571Y-44612857D01*
X57279000Y-44612857D01*
X57136142Y-44648571D01*
X57064714Y-44684285D01*
X57029000Y-44720000D01*
X56993285Y-44791428D01*
X57671857Y-45362857D02*
X57707571Y-45398571D01*
X57743285Y-45362857D01*
X57707571Y-45327142D01*
X57671857Y-45362857D01*
X57743285Y-45362857D01*
X56993285Y-45862857D02*
X56993285Y-45934285D01*
X57029000Y-46005714D01*
X57064714Y-46041428D01*
X57136142Y-46077142D01*
X57279000Y-46112857D01*
X57457571Y-46112857D01*
X57600428Y-46077142D01*
X57671857Y-46041428D01*
X57707571Y-46005714D01*
X57743285Y-45934285D01*
X57743285Y-45862857D01*
X57707571Y-45791428D01*
X57671857Y-45755714D01*
X57600428Y-45720000D01*
X57457571Y-45684285D01*
X57279000Y-45684285D01*
X57136142Y-45720000D01*
X57064714Y-45755714D01*
X57029000Y-45791428D01*
X56993285Y-45862857D01*
X56993285Y-46755714D02*
X56993285Y-46612857D01*
X57029000Y-46541428D01*
X57064714Y-46505714D01*
X57171857Y-46434285D01*
X57314714Y-46398571D01*
X57600428Y-46398571D01*
X57671857Y-46434285D01*
X57707571Y-46470000D01*
X57743285Y-46541428D01*
X57743285Y-46684285D01*
X57707571Y-46755714D01*
X57671857Y-46791428D01*
X57600428Y-46827142D01*
X57421857Y-46827142D01*
X57350428Y-46791428D01*
X57314714Y-46755714D01*
X57279000Y-46684285D01*
X57279000Y-46541428D01*
X57314714Y-46470000D01*
X57350428Y-46434285D01*
X57421857Y-46398571D01*
X56993285Y-42251428D02*
X56993285Y-42322857D01*
X57029000Y-42394285D01*
X57064714Y-42430000D01*
X57136142Y-42465714D01*
X57279000Y-42501428D01*
X57457571Y-42501428D01*
X57600428Y-42465714D01*
X57671857Y-42430000D01*
X57707571Y-42394285D01*
X57743285Y-42322857D01*
X57743285Y-42251428D01*
X57707571Y-42180000D01*
X57671857Y-42144285D01*
X57600428Y-42108571D01*
X57457571Y-42072857D01*
X57279000Y-42072857D01*
X57136142Y-42108571D01*
X57064714Y-42144285D01*
X57029000Y-42180000D01*
X56993285Y-42251428D01*
X57671857Y-42822857D02*
X57707571Y-42858571D01*
X57743285Y-42822857D01*
X57707571Y-42787142D01*
X57671857Y-42822857D01*
X57743285Y-42822857D01*
X56993285Y-43322857D02*
X56993285Y-43394285D01*
X57029000Y-43465714D01*
X57064714Y-43501428D01*
X57136142Y-43537142D01*
X57279000Y-43572857D01*
X57457571Y-43572857D01*
X57600428Y-43537142D01*
X57671857Y-43501428D01*
X57707571Y-43465714D01*
X57743285Y-43394285D01*
X57743285Y-43322857D01*
X57707571Y-43251428D01*
X57671857Y-43215714D01*
X57600428Y-43180000D01*
X57457571Y-43144285D01*
X57279000Y-43144285D01*
X57136142Y-43180000D01*
X57064714Y-43215714D01*
X57029000Y-43251428D01*
X56993285Y-43322857D01*
X56993285Y-44251428D02*
X56993285Y-43894285D01*
X57350428Y-43858571D01*
X57314714Y-43894285D01*
X57279000Y-43965714D01*
X57279000Y-44144285D01*
X57314714Y-44215714D01*
X57350428Y-44251428D01*
X57421857Y-44287142D01*
X57600428Y-44287142D01*
X57671857Y-44251428D01*
X57707571Y-44215714D01*
X57743285Y-44144285D01*
X57743285Y-43965714D01*
X57707571Y-43894285D01*
X57671857Y-43858571D01*
X56993285Y-39711428D02*
X56993285Y-39782857D01*
X57029000Y-39854285D01*
X57064714Y-39890000D01*
X57136142Y-39925714D01*
X57279000Y-39961428D01*
X57457571Y-39961428D01*
X57600428Y-39925714D01*
X57671857Y-39890000D01*
X57707571Y-39854285D01*
X57743285Y-39782857D01*
X57743285Y-39711428D01*
X57707571Y-39640000D01*
X57671857Y-39604285D01*
X57600428Y-39568571D01*
X57457571Y-39532857D01*
X57279000Y-39532857D01*
X57136142Y-39568571D01*
X57064714Y-39604285D01*
X57029000Y-39640000D01*
X56993285Y-39711428D01*
X57671857Y-40282857D02*
X57707571Y-40318571D01*
X57743285Y-40282857D01*
X57707571Y-40247142D01*
X57671857Y-40282857D01*
X57743285Y-40282857D01*
X56993285Y-40782857D02*
X56993285Y-40854285D01*
X57029000Y-40925714D01*
X57064714Y-40961428D01*
X57136142Y-40997142D01*
X57279000Y-41032857D01*
X57457571Y-41032857D01*
X57600428Y-40997142D01*
X57671857Y-40961428D01*
X57707571Y-40925714D01*
X57743285Y-40854285D01*
X57743285Y-40782857D01*
X57707571Y-40711428D01*
X57671857Y-40675714D01*
X57600428Y-40640000D01*
X57457571Y-40604285D01*
X57279000Y-40604285D01*
X57136142Y-40640000D01*
X57064714Y-40675714D01*
X57029000Y-40711428D01*
X56993285Y-40782857D01*
X57314714Y-41461428D02*
X57279000Y-41390000D01*
X57243285Y-41354285D01*
X57171857Y-41318571D01*
X57136142Y-41318571D01*
X57064714Y-41354285D01*
X57029000Y-41390000D01*
X56993285Y-41461428D01*
X56993285Y-41604285D01*
X57029000Y-41675714D01*
X57064714Y-41711428D01*
X57136142Y-41747142D01*
X57171857Y-41747142D01*
X57243285Y-41711428D01*
X57279000Y-41675714D01*
X57314714Y-41604285D01*
X57314714Y-41461428D01*
X57350428Y-41390000D01*
X57386142Y-41354285D01*
X57457571Y-41318571D01*
X57600428Y-41318571D01*
X57671857Y-41354285D01*
X57707571Y-41390000D01*
X57743285Y-41461428D01*
X57743285Y-41604285D01*
X57707571Y-41675714D01*
X57671857Y-41711428D01*
X57600428Y-41747142D01*
X57457571Y-41747142D01*
X57386142Y-41711428D01*
X57350428Y-41675714D01*
X57314714Y-41604285D01*
X57743285Y-37421428D02*
X57743285Y-36992857D01*
X57743285Y-37207142D02*
X56993285Y-37207142D01*
X57100428Y-37135714D01*
X57171857Y-37064285D01*
X57207571Y-36992857D01*
X57671857Y-37742857D02*
X57707571Y-37778571D01*
X57743285Y-37742857D01*
X57707571Y-37707142D01*
X57671857Y-37742857D01*
X57743285Y-37742857D01*
X56993285Y-38242857D02*
X56993285Y-38314285D01*
X57029000Y-38385714D01*
X57064714Y-38421428D01*
X57136142Y-38457142D01*
X57279000Y-38492857D01*
X57457571Y-38492857D01*
X57600428Y-38457142D01*
X57671857Y-38421428D01*
X57707571Y-38385714D01*
X57743285Y-38314285D01*
X57743285Y-38242857D01*
X57707571Y-38171428D01*
X57671857Y-38135714D01*
X57600428Y-38100000D01*
X57457571Y-38064285D01*
X57279000Y-38064285D01*
X57136142Y-38100000D01*
X57064714Y-38135714D01*
X57029000Y-38171428D01*
X56993285Y-38242857D01*
X57743285Y-38850000D02*
X57743285Y-38992857D01*
X57707571Y-39064285D01*
X57671857Y-39100000D01*
X57564714Y-39171428D01*
X57421857Y-39207142D01*
X57136142Y-39207142D01*
X57064714Y-39171428D01*
X57029000Y-39135714D01*
X56993285Y-39064285D01*
X56993285Y-38921428D01*
X57029000Y-38850000D01*
X57064714Y-38814285D01*
X57136142Y-38778571D01*
X57314714Y-38778571D01*
X57386142Y-38814285D01*
X57421857Y-38850000D01*
X57457571Y-38921428D01*
X57457571Y-39064285D01*
X57421857Y-39135714D01*
X57386142Y-39171428D01*
X57314714Y-39207142D01*
X57743285Y-34881428D02*
X57743285Y-34452857D01*
X57743285Y-34667142D02*
X56993285Y-34667142D01*
X57100428Y-34595714D01*
X57171857Y-34524285D01*
X57207571Y-34452857D01*
X57671857Y-35202857D02*
X57707571Y-35238571D01*
X57743285Y-35202857D01*
X57707571Y-35167142D01*
X57671857Y-35202857D01*
X57743285Y-35202857D01*
X56993285Y-35702857D02*
X56993285Y-35774285D01*
X57029000Y-35845714D01*
X57064714Y-35881428D01*
X57136142Y-35917142D01*
X57279000Y-35952857D01*
X57457571Y-35952857D01*
X57600428Y-35917142D01*
X57671857Y-35881428D01*
X57707571Y-35845714D01*
X57743285Y-35774285D01*
X57743285Y-35702857D01*
X57707571Y-35631428D01*
X57671857Y-35595714D01*
X57600428Y-35560000D01*
X57457571Y-35524285D01*
X57279000Y-35524285D01*
X57136142Y-35560000D01*
X57064714Y-35595714D01*
X57029000Y-35631428D01*
X56993285Y-35702857D01*
X56993285Y-36595714D02*
X56993285Y-36452857D01*
X57029000Y-36381428D01*
X57064714Y-36345714D01*
X57171857Y-36274285D01*
X57314714Y-36238571D01*
X57600428Y-36238571D01*
X57671857Y-36274285D01*
X57707571Y-36310000D01*
X57743285Y-36381428D01*
X57743285Y-36524285D01*
X57707571Y-36595714D01*
X57671857Y-36631428D01*
X57600428Y-36667142D01*
X57421857Y-36667142D01*
X57350428Y-36631428D01*
X57314714Y-36595714D01*
X57279000Y-36524285D01*
X57279000Y-36381428D01*
X57314714Y-36310000D01*
X57350428Y-36274285D01*
X57421857Y-36238571D01*
X56993285Y-32091428D02*
X56993285Y-32162857D01*
X57029000Y-32234285D01*
X57064714Y-32270000D01*
X57136142Y-32305714D01*
X57279000Y-32341428D01*
X57457571Y-32341428D01*
X57600428Y-32305714D01*
X57671857Y-32270000D01*
X57707571Y-32234285D01*
X57743285Y-32162857D01*
X57743285Y-32091428D01*
X57707571Y-32020000D01*
X57671857Y-31984285D01*
X57600428Y-31948571D01*
X57457571Y-31912857D01*
X57279000Y-31912857D01*
X57136142Y-31948571D01*
X57064714Y-31984285D01*
X57029000Y-32020000D01*
X56993285Y-32091428D01*
X57671857Y-32662857D02*
X57707571Y-32698571D01*
X57743285Y-32662857D01*
X57707571Y-32627142D01*
X57671857Y-32662857D01*
X57743285Y-32662857D01*
X57743285Y-33412857D02*
X57743285Y-32984285D01*
X57743285Y-33198571D02*
X56993285Y-33198571D01*
X57100428Y-33127142D01*
X57171857Y-33055714D01*
X57207571Y-32984285D01*
X57064714Y-33698571D02*
X57029000Y-33734285D01*
X56993285Y-33805714D01*
X56993285Y-33984285D01*
X57029000Y-34055714D01*
X57064714Y-34091428D01*
X57136142Y-34127142D01*
X57207571Y-34127142D01*
X57314714Y-34091428D01*
X57743285Y-33662857D01*
X57743285Y-34127142D01*
X57743285Y-29801428D02*
X57743285Y-29372857D01*
X57743285Y-29587142D02*
X56993285Y-29587142D01*
X57100428Y-29515714D01*
X57171857Y-29444285D01*
X57207571Y-29372857D01*
X57671857Y-30122857D02*
X57707571Y-30158571D01*
X57743285Y-30122857D01*
X57707571Y-30087142D01*
X57671857Y-30122857D01*
X57743285Y-30122857D01*
X56993285Y-30622857D02*
X56993285Y-30694285D01*
X57029000Y-30765714D01*
X57064714Y-30801428D01*
X57136142Y-30837142D01*
X57279000Y-30872857D01*
X57457571Y-30872857D01*
X57600428Y-30837142D01*
X57671857Y-30801428D01*
X57707571Y-30765714D01*
X57743285Y-30694285D01*
X57743285Y-30622857D01*
X57707571Y-30551428D01*
X57671857Y-30515714D01*
X57600428Y-30480000D01*
X57457571Y-30444285D01*
X57279000Y-30444285D01*
X57136142Y-30480000D01*
X57064714Y-30515714D01*
X57029000Y-30551428D01*
X56993285Y-30622857D01*
X57064714Y-31158571D02*
X57029000Y-31194285D01*
X56993285Y-31265714D01*
X56993285Y-31444285D01*
X57029000Y-31515714D01*
X57064714Y-31551428D01*
X57136142Y-31587142D01*
X57207571Y-31587142D01*
X57314714Y-31551428D01*
X57743285Y-31122857D01*
X57743285Y-31587142D01*
X42320714Y-69508571D02*
X42320714Y-69437142D01*
X42285000Y-69365714D01*
X42249285Y-69330000D01*
X42177857Y-69294285D01*
X42035000Y-69258571D01*
X41856428Y-69258571D01*
X41713571Y-69294285D01*
X41642142Y-69330000D01*
X41606428Y-69365714D01*
X41570714Y-69437142D01*
X41570714Y-69508571D01*
X41606428Y-69580000D01*
X41642142Y-69615714D01*
X41713571Y-69651428D01*
X41856428Y-69687142D01*
X42035000Y-69687142D01*
X42177857Y-69651428D01*
X42249285Y-69615714D01*
X42285000Y-69580000D01*
X42320714Y-69508571D01*
X41642142Y-68937142D02*
X41606428Y-68901428D01*
X41570714Y-68937142D01*
X41606428Y-68972857D01*
X41642142Y-68937142D01*
X41570714Y-68937142D01*
X42320714Y-68437142D02*
X42320714Y-68365714D01*
X42285000Y-68294285D01*
X42249285Y-68258571D01*
X42177857Y-68222857D01*
X42035000Y-68187142D01*
X41856428Y-68187142D01*
X41713571Y-68222857D01*
X41642142Y-68258571D01*
X41606428Y-68294285D01*
X41570714Y-68365714D01*
X41570714Y-68437142D01*
X41606428Y-68508571D01*
X41642142Y-68544285D01*
X41713571Y-68580000D01*
X41856428Y-68615714D01*
X42035000Y-68615714D01*
X42177857Y-68580000D01*
X42249285Y-68544285D01*
X42285000Y-68508571D01*
X42320714Y-68437142D01*
X41570714Y-67830000D02*
X41570714Y-67687142D01*
X41606428Y-67615714D01*
X41642142Y-67580000D01*
X41749285Y-67508571D01*
X41892142Y-67472857D01*
X42177857Y-67472857D01*
X42249285Y-67508571D01*
X42285000Y-67544285D01*
X42320714Y-67615714D01*
X42320714Y-67758571D01*
X42285000Y-67830000D01*
X42249285Y-67865714D01*
X42177857Y-67901428D01*
X41999285Y-67901428D01*
X41927857Y-67865714D01*
X41892142Y-67830000D01*
X41856428Y-67758571D01*
X41856428Y-67615714D01*
X41892142Y-67544285D01*
X41927857Y-67508571D01*
X41999285Y-67472857D01*
X42320714Y-72048571D02*
X42320714Y-71977142D01*
X42285000Y-71905714D01*
X42249285Y-71870000D01*
X42177857Y-71834285D01*
X42035000Y-71798571D01*
X41856428Y-71798571D01*
X41713571Y-71834285D01*
X41642142Y-71870000D01*
X41606428Y-71905714D01*
X41570714Y-71977142D01*
X41570714Y-72048571D01*
X41606428Y-72120000D01*
X41642142Y-72155714D01*
X41713571Y-72191428D01*
X41856428Y-72227142D01*
X42035000Y-72227142D01*
X42177857Y-72191428D01*
X42249285Y-72155714D01*
X42285000Y-72120000D01*
X42320714Y-72048571D01*
X41642142Y-71477142D02*
X41606428Y-71441428D01*
X41570714Y-71477142D01*
X41606428Y-71512857D01*
X41642142Y-71477142D01*
X41570714Y-71477142D01*
X41570714Y-70727142D02*
X41570714Y-71155714D01*
X41570714Y-70941428D02*
X42320714Y-70941428D01*
X42213571Y-71012857D01*
X42142142Y-71084285D01*
X42106428Y-71155714D01*
X42320714Y-70262857D02*
X42320714Y-70191428D01*
X42285000Y-70120000D01*
X42249285Y-70084285D01*
X42177857Y-70048571D01*
X42035000Y-70012857D01*
X41856428Y-70012857D01*
X41713571Y-70048571D01*
X41642142Y-70084285D01*
X41606428Y-70120000D01*
X41570714Y-70191428D01*
X41570714Y-70262857D01*
X41606428Y-70334285D01*
X41642142Y-70370000D01*
X41713571Y-70405714D01*
X41856428Y-70441428D01*
X42035000Y-70441428D01*
X42177857Y-70405714D01*
X42249285Y-70370000D01*
X42285000Y-70334285D01*
X42320714Y-70262857D01*
X41570714Y-56469285D02*
X42320714Y-56469285D01*
X41570714Y-56040714D01*
X42320714Y-56040714D01*
X41642142Y-55255000D02*
X41606428Y-55290714D01*
X41570714Y-55397857D01*
X41570714Y-55469285D01*
X41606428Y-55576428D01*
X41677857Y-55647857D01*
X41749285Y-55683571D01*
X41892142Y-55719285D01*
X41999285Y-55719285D01*
X42142142Y-55683571D01*
X42213571Y-55647857D01*
X42285000Y-55576428D01*
X42320714Y-55469285D01*
X42320714Y-55397857D01*
X42285000Y-55290714D01*
X42249285Y-55255000D01*
X41570714Y-53929285D02*
X42320714Y-53929285D01*
X41570714Y-53500714D01*
X42320714Y-53500714D01*
X41642142Y-52715000D02*
X41606428Y-52750714D01*
X41570714Y-52857857D01*
X41570714Y-52929285D01*
X41606428Y-53036428D01*
X41677857Y-53107857D01*
X41749285Y-53143571D01*
X41892142Y-53179285D01*
X41999285Y-53179285D01*
X42142142Y-53143571D01*
X42213571Y-53107857D01*
X42285000Y-53036428D01*
X42320714Y-52929285D01*
X42320714Y-52857857D01*
X42285000Y-52750714D01*
X42249285Y-52715000D01*
X42320714Y-51982571D02*
X42320714Y-51911142D01*
X42285000Y-51839714D01*
X42249285Y-51804000D01*
X42177857Y-51768285D01*
X42035000Y-51732571D01*
X41856428Y-51732571D01*
X41713571Y-51768285D01*
X41642142Y-51804000D01*
X41606428Y-51839714D01*
X41570714Y-51911142D01*
X41570714Y-51982571D01*
X41606428Y-52054000D01*
X41642142Y-52089714D01*
X41713571Y-52125428D01*
X41856428Y-52161142D01*
X42035000Y-52161142D01*
X42177857Y-52125428D01*
X42249285Y-52089714D01*
X42285000Y-52054000D01*
X42320714Y-51982571D01*
X41642142Y-51411142D02*
X41606428Y-51375428D01*
X41570714Y-51411142D01*
X41606428Y-51446857D01*
X41642142Y-51411142D01*
X41570714Y-51411142D01*
X42249285Y-51089714D02*
X42285000Y-51054000D01*
X42320714Y-50982571D01*
X42320714Y-50804000D01*
X42285000Y-50732571D01*
X42249285Y-50696857D01*
X42177857Y-50661142D01*
X42106428Y-50661142D01*
X41999285Y-50696857D01*
X41570714Y-51125428D01*
X41570714Y-50661142D01*
X42320714Y-50196857D02*
X42320714Y-50125428D01*
X42285000Y-50054000D01*
X42249285Y-50018285D01*
X42177857Y-49982571D01*
X42035000Y-49946857D01*
X41856428Y-49946857D01*
X41713571Y-49982571D01*
X41642142Y-50018285D01*
X41606428Y-50054000D01*
X41570714Y-50125428D01*
X41570714Y-50196857D01*
X41606428Y-50268285D01*
X41642142Y-50304000D01*
X41713571Y-50339714D01*
X41856428Y-50375428D01*
X42035000Y-50375428D01*
X42177857Y-50339714D01*
X42249285Y-50304000D01*
X42285000Y-50268285D01*
X42320714Y-50196857D01*
X42320714Y-49188571D02*
X42320714Y-49117142D01*
X42285000Y-49045714D01*
X42249285Y-49010000D01*
X42177857Y-48974285D01*
X42035000Y-48938571D01*
X41856428Y-48938571D01*
X41713571Y-48974285D01*
X41642142Y-49010000D01*
X41606428Y-49045714D01*
X41570714Y-49117142D01*
X41570714Y-49188571D01*
X41606428Y-49260000D01*
X41642142Y-49295714D01*
X41713571Y-49331428D01*
X41856428Y-49367142D01*
X42035000Y-49367142D01*
X42177857Y-49331428D01*
X42249285Y-49295714D01*
X42285000Y-49260000D01*
X42320714Y-49188571D01*
X41642142Y-48617142D02*
X41606428Y-48581428D01*
X41570714Y-48617142D01*
X41606428Y-48652857D01*
X41642142Y-48617142D01*
X41570714Y-48617142D01*
X41570714Y-47867142D02*
X41570714Y-48295714D01*
X41570714Y-48081428D02*
X42320714Y-48081428D01*
X42213571Y-48152857D01*
X42142142Y-48224285D01*
X42106428Y-48295714D01*
X42320714Y-47617142D02*
X42320714Y-47117142D01*
X41570714Y-47438571D01*
X42320714Y-46648571D02*
X42320714Y-46577142D01*
X42285000Y-46505714D01*
X42249285Y-46470000D01*
X42177857Y-46434285D01*
X42035000Y-46398571D01*
X41856428Y-46398571D01*
X41713571Y-46434285D01*
X41642142Y-46470000D01*
X41606428Y-46505714D01*
X41570714Y-46577142D01*
X41570714Y-46648571D01*
X41606428Y-46720000D01*
X41642142Y-46755714D01*
X41713571Y-46791428D01*
X41856428Y-46827142D01*
X42035000Y-46827142D01*
X42177857Y-46791428D01*
X42249285Y-46755714D01*
X42285000Y-46720000D01*
X42320714Y-46648571D01*
X41642142Y-46077142D02*
X41606428Y-46041428D01*
X41570714Y-46077142D01*
X41606428Y-46112857D01*
X41642142Y-46077142D01*
X41570714Y-46077142D01*
X41570714Y-45327142D02*
X41570714Y-45755714D01*
X41570714Y-45541428D02*
X42320714Y-45541428D01*
X42213571Y-45612857D01*
X42142142Y-45684285D01*
X42106428Y-45755714D01*
X42320714Y-44648571D02*
X42320714Y-45005714D01*
X41963571Y-45041428D01*
X41999285Y-45005714D01*
X42035000Y-44934285D01*
X42035000Y-44755714D01*
X41999285Y-44684285D01*
X41963571Y-44648571D01*
X41892142Y-44612857D01*
X41713571Y-44612857D01*
X41642142Y-44648571D01*
X41606428Y-44684285D01*
X41570714Y-44755714D01*
X41570714Y-44934285D01*
X41606428Y-45005714D01*
X41642142Y-45041428D01*
X42320714Y-44108571D02*
X42320714Y-44037142D01*
X42285000Y-43965714D01*
X42249285Y-43930000D01*
X42177857Y-43894285D01*
X42035000Y-43858571D01*
X41856428Y-43858571D01*
X41713571Y-43894285D01*
X41642142Y-43930000D01*
X41606428Y-43965714D01*
X41570714Y-44037142D01*
X41570714Y-44108571D01*
X41606428Y-44180000D01*
X41642142Y-44215714D01*
X41713571Y-44251428D01*
X41856428Y-44287142D01*
X42035000Y-44287142D01*
X42177857Y-44251428D01*
X42249285Y-44215714D01*
X42285000Y-44180000D01*
X42320714Y-44108571D01*
X41642142Y-43537142D02*
X41606428Y-43501428D01*
X41570714Y-43537142D01*
X41606428Y-43572857D01*
X41642142Y-43537142D01*
X41570714Y-43537142D01*
X41570714Y-42787142D02*
X41570714Y-43215714D01*
X41570714Y-43001428D02*
X42320714Y-43001428D01*
X42213571Y-43072857D01*
X42142142Y-43144285D01*
X42106428Y-43215714D01*
X42320714Y-42537142D02*
X42320714Y-42072857D01*
X42035000Y-42322857D01*
X42035000Y-42215714D01*
X41999285Y-42144285D01*
X41963571Y-42108571D01*
X41892142Y-42072857D01*
X41713571Y-42072857D01*
X41642142Y-42108571D01*
X41606428Y-42144285D01*
X41570714Y-42215714D01*
X41570714Y-42430000D01*
X41606428Y-42501428D01*
X41642142Y-42537142D01*
X42320714Y-41568571D02*
X42320714Y-41497142D01*
X42285000Y-41425714D01*
X42249285Y-41390000D01*
X42177857Y-41354285D01*
X42035000Y-41318571D01*
X41856428Y-41318571D01*
X41713571Y-41354285D01*
X41642142Y-41390000D01*
X41606428Y-41425714D01*
X41570714Y-41497142D01*
X41570714Y-41568571D01*
X41606428Y-41640000D01*
X41642142Y-41675714D01*
X41713571Y-41711428D01*
X41856428Y-41747142D01*
X42035000Y-41747142D01*
X42177857Y-41711428D01*
X42249285Y-41675714D01*
X42285000Y-41640000D01*
X42320714Y-41568571D01*
X41642142Y-40997142D02*
X41606428Y-40961428D01*
X41570714Y-40997142D01*
X41606428Y-41032857D01*
X41642142Y-40997142D01*
X41570714Y-40997142D01*
X42249285Y-40675714D02*
X42285000Y-40640000D01*
X42320714Y-40568571D01*
X42320714Y-40390000D01*
X42285000Y-40318571D01*
X42249285Y-40282857D01*
X42177857Y-40247142D01*
X42106428Y-40247142D01*
X41999285Y-40282857D01*
X41570714Y-40711428D01*
X41570714Y-40247142D01*
X42249285Y-39961428D02*
X42285000Y-39925714D01*
X42320714Y-39854285D01*
X42320714Y-39675714D01*
X42285000Y-39604285D01*
X42249285Y-39568571D01*
X42177857Y-39532857D01*
X42106428Y-39532857D01*
X41999285Y-39568571D01*
X41570714Y-39997142D01*
X41570714Y-39532857D01*
X42320714Y-39028571D02*
X42320714Y-38957142D01*
X42285000Y-38885714D01*
X42249285Y-38850000D01*
X42177857Y-38814285D01*
X42035000Y-38778571D01*
X41856428Y-38778571D01*
X41713571Y-38814285D01*
X41642142Y-38850000D01*
X41606428Y-38885714D01*
X41570714Y-38957142D01*
X41570714Y-39028571D01*
X41606428Y-39100000D01*
X41642142Y-39135714D01*
X41713571Y-39171428D01*
X41856428Y-39207142D01*
X42035000Y-39207142D01*
X42177857Y-39171428D01*
X42249285Y-39135714D01*
X42285000Y-39100000D01*
X42320714Y-39028571D01*
X41642142Y-38457142D02*
X41606428Y-38421428D01*
X41570714Y-38457142D01*
X41606428Y-38492857D01*
X41642142Y-38457142D01*
X41570714Y-38457142D01*
X42249285Y-38135714D02*
X42285000Y-38100000D01*
X42320714Y-38028571D01*
X42320714Y-37850000D01*
X42285000Y-37778571D01*
X42249285Y-37742857D01*
X42177857Y-37707142D01*
X42106428Y-37707142D01*
X41999285Y-37742857D01*
X41570714Y-38171428D01*
X41570714Y-37707142D01*
X42070714Y-37064285D02*
X41570714Y-37064285D01*
X42356428Y-37242857D02*
X41820714Y-37421428D01*
X41820714Y-36957142D01*
X42320714Y-36488571D02*
X42320714Y-36417142D01*
X42285000Y-36345714D01*
X42249285Y-36310000D01*
X42177857Y-36274285D01*
X42035000Y-36238571D01*
X41856428Y-36238571D01*
X41713571Y-36274285D01*
X41642142Y-36310000D01*
X41606428Y-36345714D01*
X41570714Y-36417142D01*
X41570714Y-36488571D01*
X41606428Y-36560000D01*
X41642142Y-36595714D01*
X41713571Y-36631428D01*
X41856428Y-36667142D01*
X42035000Y-36667142D01*
X42177857Y-36631428D01*
X42249285Y-36595714D01*
X42285000Y-36560000D01*
X42320714Y-36488571D01*
X41642142Y-35917142D02*
X41606428Y-35881428D01*
X41570714Y-35917142D01*
X41606428Y-35952857D01*
X41642142Y-35917142D01*
X41570714Y-35917142D01*
X42320714Y-35417142D02*
X42320714Y-35345714D01*
X42285000Y-35274285D01*
X42249285Y-35238571D01*
X42177857Y-35202857D01*
X42035000Y-35167142D01*
X41856428Y-35167142D01*
X41713571Y-35202857D01*
X41642142Y-35238571D01*
X41606428Y-35274285D01*
X41570714Y-35345714D01*
X41570714Y-35417142D01*
X41606428Y-35488571D01*
X41642142Y-35524285D01*
X41713571Y-35560000D01*
X41856428Y-35595714D01*
X42035000Y-35595714D01*
X42177857Y-35560000D01*
X42249285Y-35524285D01*
X42285000Y-35488571D01*
X42320714Y-35417142D01*
X42070714Y-34524285D02*
X41570714Y-34524285D01*
X42356428Y-34702857D02*
X41820714Y-34881428D01*
X41820714Y-34417142D01*
X42320714Y-31408571D02*
X42320714Y-31337142D01*
X42285000Y-31265714D01*
X42249285Y-31230000D01*
X42177857Y-31194285D01*
X42035000Y-31158571D01*
X41856428Y-31158571D01*
X41713571Y-31194285D01*
X41642142Y-31230000D01*
X41606428Y-31265714D01*
X41570714Y-31337142D01*
X41570714Y-31408571D01*
X41606428Y-31480000D01*
X41642142Y-31515714D01*
X41713571Y-31551428D01*
X41856428Y-31587142D01*
X42035000Y-31587142D01*
X42177857Y-31551428D01*
X42249285Y-31515714D01*
X42285000Y-31480000D01*
X42320714Y-31408571D01*
X41642142Y-30837142D02*
X41606428Y-30801428D01*
X41570714Y-30837142D01*
X41606428Y-30872857D01*
X41642142Y-30837142D01*
X41570714Y-30837142D01*
X42320714Y-30337142D02*
X42320714Y-30265714D01*
X42285000Y-30194285D01*
X42249285Y-30158571D01*
X42177857Y-30122857D01*
X42035000Y-30087142D01*
X41856428Y-30087142D01*
X41713571Y-30122857D01*
X41642142Y-30158571D01*
X41606428Y-30194285D01*
X41570714Y-30265714D01*
X41570714Y-30337142D01*
X41606428Y-30408571D01*
X41642142Y-30444285D01*
X41713571Y-30480000D01*
X41856428Y-30515714D01*
X42035000Y-30515714D01*
X42177857Y-30480000D01*
X42249285Y-30444285D01*
X42285000Y-30408571D01*
X42320714Y-30337142D01*
X42320714Y-29837142D02*
X42320714Y-29337142D01*
X41570714Y-29658571D01*
D11*
X51743333Y-36709428D02*
X52110000Y-36709428D01*
X52110000Y-37285619D02*
X52110000Y-36185619D01*
X51586190Y-36185619D01*
X51010000Y-37285619D02*
X51114761Y-37233238D01*
X51167142Y-37180857D01*
X51219523Y-37076095D01*
X51219523Y-36761809D01*
X51167142Y-36657047D01*
X51114761Y-36604666D01*
X51010000Y-36552285D01*
X50852857Y-36552285D01*
X50748095Y-36604666D01*
X50695714Y-36657047D01*
X50643333Y-36761809D01*
X50643333Y-37076095D01*
X50695714Y-37180857D01*
X50748095Y-37233238D01*
X50852857Y-37285619D01*
X51010000Y-37285619D01*
X50014761Y-37285619D02*
X50119523Y-37233238D01*
X50171904Y-37180857D01*
X50224285Y-37076095D01*
X50224285Y-36761809D01*
X50171904Y-36657047D01*
X50119523Y-36604666D01*
X50014761Y-36552285D01*
X49857619Y-36552285D01*
X49752857Y-36604666D01*
X49700476Y-36657047D01*
X49648095Y-36761809D01*
X49648095Y-37076095D01*
X49700476Y-37180857D01*
X49752857Y-37233238D01*
X49857619Y-37285619D01*
X50014761Y-37285619D01*
X49333809Y-36552285D02*
X48914761Y-36552285D01*
X49176666Y-36185619D02*
X49176666Y-37128476D01*
X49124285Y-37233238D01*
X49019523Y-37285619D01*
X48914761Y-37285619D01*
X48548095Y-36552285D02*
X48548095Y-37652285D01*
X48548095Y-36604666D02*
X48443333Y-36552285D01*
X48233809Y-36552285D01*
X48129047Y-36604666D01*
X48076666Y-36657047D01*
X48024285Y-36761809D01*
X48024285Y-37076095D01*
X48076666Y-37180857D01*
X48129047Y-37233238D01*
X48233809Y-37285619D01*
X48443333Y-37285619D01*
X48548095Y-37233238D01*
X47552857Y-37285619D02*
X47552857Y-36552285D01*
X47552857Y-36761809D02*
X47500476Y-36657047D01*
X47448095Y-36604666D01*
X47343333Y-36552285D01*
X47238571Y-36552285D01*
X46871904Y-37285619D02*
X46871904Y-36552285D01*
X46871904Y-36185619D02*
X46924285Y-36238000D01*
X46871904Y-36290380D01*
X46819523Y-36238000D01*
X46871904Y-36185619D01*
X46871904Y-36290380D01*
X46348095Y-36552285D02*
X46348095Y-37285619D01*
X46348095Y-36657047D02*
X46295714Y-36604666D01*
X46190952Y-36552285D01*
X46033809Y-36552285D01*
X45929047Y-36604666D01*
X45876666Y-36709428D01*
X45876666Y-37285619D01*
X45510000Y-36552285D02*
X45090952Y-36552285D01*
X45352857Y-36185619D02*
X45352857Y-37128476D01*
X45300476Y-37233238D01*
X45195714Y-37285619D01*
X45090952Y-37285619D01*
X52529047Y-39053238D02*
X52424285Y-39105619D01*
X52214761Y-39105619D01*
X52110000Y-39053238D01*
X52057619Y-38948476D01*
X52057619Y-38896095D01*
X52110000Y-38791333D01*
X52214761Y-38738952D01*
X52371904Y-38738952D01*
X52476666Y-38686571D01*
X52529047Y-38581809D01*
X52529047Y-38529428D01*
X52476666Y-38424666D01*
X52371904Y-38372285D01*
X52214761Y-38372285D01*
X52110000Y-38424666D01*
X51586190Y-39105619D02*
X51586190Y-38372285D01*
X51586190Y-38005619D02*
X51638571Y-38058000D01*
X51586190Y-38110380D01*
X51533809Y-38058000D01*
X51586190Y-38005619D01*
X51586190Y-38110380D01*
X51062380Y-39105619D02*
X51062380Y-38372285D01*
X51062380Y-38477047D02*
X51010000Y-38424666D01*
X50905238Y-38372285D01*
X50748095Y-38372285D01*
X50643333Y-38424666D01*
X50590952Y-38529428D01*
X50590952Y-39105619D01*
X50590952Y-38529428D02*
X50538571Y-38424666D01*
X50433809Y-38372285D01*
X50276666Y-38372285D01*
X50171904Y-38424666D01*
X50119523Y-38529428D01*
X50119523Y-39105619D01*
X49595714Y-39105619D02*
X49595714Y-38372285D01*
X49595714Y-38005619D02*
X49648095Y-38058000D01*
X49595714Y-38110380D01*
X49543333Y-38058000D01*
X49595714Y-38005619D01*
X49595714Y-38110380D01*
X48914761Y-39105619D02*
X49019523Y-39053238D01*
X49071904Y-38948476D01*
X49071904Y-38005619D01*
X48024285Y-39105619D02*
X48024285Y-38529428D01*
X48076666Y-38424666D01*
X48181428Y-38372285D01*
X48390952Y-38372285D01*
X48495714Y-38424666D01*
X48024285Y-39053238D02*
X48129047Y-39105619D01*
X48390952Y-39105619D01*
X48495714Y-39053238D01*
X48548095Y-38948476D01*
X48548095Y-38843714D01*
X48495714Y-38738952D01*
X48390952Y-38686571D01*
X48129047Y-38686571D01*
X48024285Y-38634190D01*
X47500476Y-39105619D02*
X47500476Y-38372285D01*
X47500476Y-38581809D02*
X47448095Y-38477047D01*
X47395714Y-38424666D01*
X47290952Y-38372285D01*
X47186190Y-38372285D01*
X46138571Y-38372285D02*
X45719523Y-38372285D01*
X45981428Y-38005619D02*
X45981428Y-38948476D01*
X45929047Y-39053238D01*
X45824285Y-39105619D01*
X45719523Y-39105619D01*
X45195714Y-39105619D02*
X45300476Y-39053238D01*
X45352857Y-39000857D01*
X45405238Y-38896095D01*
X45405238Y-38581809D01*
X45352857Y-38477047D01*
X45300476Y-38424666D01*
X45195714Y-38372285D01*
X45038571Y-38372285D01*
X44933809Y-38424666D01*
X44881428Y-38477047D01*
X44829047Y-38581809D01*
X44829047Y-38896095D01*
X44881428Y-39000857D01*
X44933809Y-39053238D01*
X45038571Y-39105619D01*
X45195714Y-39105619D01*
X53733809Y-40611333D02*
X53210000Y-40611333D01*
X53838571Y-40925619D02*
X53471904Y-39825619D01*
X53105238Y-40925619D01*
X52738571Y-40925619D02*
X52738571Y-40192285D01*
X52738571Y-40401809D02*
X52686190Y-40297047D01*
X52633809Y-40244666D01*
X52529047Y-40192285D01*
X52424285Y-40192285D01*
X51586190Y-40925619D02*
X51586190Y-39825619D01*
X51586190Y-40873238D02*
X51690952Y-40925619D01*
X51900476Y-40925619D01*
X52005238Y-40873238D01*
X52057619Y-40820857D01*
X52110000Y-40716095D01*
X52110000Y-40401809D01*
X52057619Y-40297047D01*
X52005238Y-40244666D01*
X51900476Y-40192285D01*
X51690952Y-40192285D01*
X51586190Y-40244666D01*
X50590952Y-40192285D02*
X50590952Y-40925619D01*
X51062380Y-40192285D02*
X51062380Y-40768476D01*
X51010000Y-40873238D01*
X50905238Y-40925619D01*
X50748095Y-40925619D01*
X50643333Y-40873238D01*
X50590952Y-40820857D01*
X50067142Y-40925619D02*
X50067142Y-40192285D01*
X50067142Y-39825619D02*
X50119523Y-39878000D01*
X50067142Y-39930380D01*
X50014761Y-39878000D01*
X50067142Y-39825619D01*
X50067142Y-39930380D01*
X49543333Y-40192285D02*
X49543333Y-40925619D01*
X49543333Y-40297047D02*
X49490952Y-40244666D01*
X49386190Y-40192285D01*
X49229047Y-40192285D01*
X49124285Y-40244666D01*
X49071904Y-40349428D01*
X49071904Y-40925619D01*
X48390952Y-40925619D02*
X48495714Y-40873238D01*
X48548095Y-40820857D01*
X48600476Y-40716095D01*
X48600476Y-40401809D01*
X48548095Y-40297047D01*
X48495714Y-40244666D01*
X48390952Y-40192285D01*
X48233809Y-40192285D01*
X48129047Y-40244666D01*
X48076666Y-40297047D01*
X48024285Y-40401809D01*
X48024285Y-40716095D01*
X48076666Y-40820857D01*
X48129047Y-40873238D01*
X48233809Y-40925619D01*
X48390952Y-40925619D01*
X46714761Y-40925619D02*
X46714761Y-39825619D01*
X46348095Y-40611333D01*
X45981428Y-39825619D01*
X45981428Y-40925619D01*
X45457619Y-40925619D02*
X45457619Y-40192285D01*
X45457619Y-39825619D02*
X45510000Y-39878000D01*
X45457619Y-39930380D01*
X45405238Y-39878000D01*
X45457619Y-39825619D01*
X45457619Y-39930380D01*
X44462380Y-40873238D02*
X44567142Y-40925619D01*
X44776666Y-40925619D01*
X44881428Y-40873238D01*
X44933809Y-40820857D01*
X44986190Y-40716095D01*
X44986190Y-40401809D01*
X44933809Y-40297047D01*
X44881428Y-40244666D01*
X44776666Y-40192285D01*
X44567142Y-40192285D01*
X44462380Y-40244666D01*
X43990952Y-40925619D02*
X43990952Y-40192285D01*
X43990952Y-40401809D02*
X43938571Y-40297047D01*
X43886190Y-40244666D01*
X43781428Y-40192285D01*
X43676666Y-40192285D01*
X43152857Y-40925619D02*
X43257619Y-40873238D01*
X43310000Y-40820857D01*
X43362380Y-40716095D01*
X43362380Y-40401809D01*
X43310000Y-40297047D01*
X43257619Y-40244666D01*
X43152857Y-40192285D01*
X42995714Y-40192285D01*
X42890952Y-40244666D01*
X42838571Y-40297047D01*
X42786190Y-40401809D01*
X42786190Y-40716095D01*
X42838571Y-40820857D01*
X42890952Y-40873238D01*
X42995714Y-40925619D01*
X43152857Y-40925619D01*
D13*
X51053857Y-46367000D02*
X51196714Y-46295571D01*
X51411000Y-46295571D01*
X51625285Y-46367000D01*
X51768142Y-46509857D01*
X51839571Y-46652714D01*
X51911000Y-46938428D01*
X51911000Y-47152714D01*
X51839571Y-47438428D01*
X51768142Y-47581285D01*
X51625285Y-47724142D01*
X51411000Y-47795571D01*
X51268142Y-47795571D01*
X51053857Y-47724142D01*
X50982428Y-47652714D01*
X50982428Y-47152714D01*
X51268142Y-47152714D01*
X50339571Y-47795571D02*
X50339571Y-46295571D01*
X49482428Y-47795571D01*
X49482428Y-46295571D01*
X48768142Y-47795571D02*
X48768142Y-46295571D01*
X48411000Y-46295571D01*
X48196714Y-46367000D01*
X48053857Y-46509857D01*
X47982428Y-46652714D01*
X47911000Y-46938428D01*
X47911000Y-47152714D01*
X47982428Y-47438428D01*
X48053857Y-47581285D01*
X48196714Y-47724142D01*
X48411000Y-47795571D01*
X48768142Y-47795571D01*
X51934714Y-43628571D02*
X51434714Y-45128571D01*
X50934714Y-43628571D01*
X49934714Y-44342857D02*
X49720428Y-44414285D01*
X49649000Y-44485714D01*
X49577571Y-44628571D01*
X49577571Y-44842857D01*
X49649000Y-44985714D01*
X49720428Y-45057142D01*
X49863285Y-45128571D01*
X50434714Y-45128571D01*
X50434714Y-43628571D01*
X49934714Y-43628571D01*
X49791857Y-43700000D01*
X49720428Y-43771428D01*
X49649000Y-43914285D01*
X49649000Y-44057142D01*
X49720428Y-44200000D01*
X49791857Y-44271428D01*
X49934714Y-44342857D01*
X50434714Y-44342857D01*
X48291857Y-45128571D02*
X48291857Y-44342857D01*
X48363285Y-44200000D01*
X48506142Y-44128571D01*
X48791857Y-44128571D01*
X48934714Y-44200000D01*
X48291857Y-45057142D02*
X48434714Y-45128571D01*
X48791857Y-45128571D01*
X48934714Y-45057142D01*
X49006142Y-44914285D01*
X49006142Y-44771428D01*
X48934714Y-44628571D01*
X48791857Y-44557142D01*
X48434714Y-44557142D01*
X48291857Y-44485714D01*
X47791857Y-44128571D02*
X47220428Y-44128571D01*
X47577571Y-43628571D02*
X47577571Y-44914285D01*
X47506142Y-45057142D01*
X47363285Y-45128571D01*
X47220428Y-45128571D01*
X46934714Y-44128571D02*
X46363285Y-44128571D01*
X46720428Y-43628571D02*
X46720428Y-44914285D01*
X46649000Y-45057142D01*
X46506142Y-45128571D01*
X46363285Y-45128571D01*
D14*
X39624000Y-58801000D02*
X40513000Y-59690000D01*
X39243000Y-68580000D02*
X38100000Y-68580000D01*
X40513000Y-67310000D02*
X39243000Y-68580000D01*
X39243000Y-66040000D02*
X40513000Y-67310000D01*
X40513000Y-64770000D02*
X39243000Y-66040000D01*
X39243000Y-63500000D02*
X40513000Y-64770000D01*
X40513000Y-62230000D02*
X39243000Y-63500000D01*
X39243000Y-60960000D02*
X40513000Y-62230000D01*
X40513000Y-59690000D02*
X39243000Y-60960000D01*
X39624000Y-46482000D02*
X39624000Y-58801000D01*
X38227000Y-46482000D02*
X39624000Y-46482000D01*
D12*
X38441380Y-46689095D02*
X39441380Y-47022428D01*
X38441380Y-47355761D01*
X39346142Y-48260523D02*
X39393761Y-48212904D01*
X39441380Y-48070047D01*
X39441380Y-47974809D01*
X39393761Y-47831952D01*
X39298523Y-47736714D01*
X39203285Y-47689095D01*
X39012809Y-47641476D01*
X38869952Y-47641476D01*
X38679476Y-47689095D01*
X38584238Y-47736714D01*
X38489000Y-47831952D01*
X38441380Y-47974809D01*
X38441380Y-48070047D01*
X38489000Y-48212904D01*
X38536619Y-48260523D01*
X39346142Y-49260523D02*
X39393761Y-49212904D01*
X39441380Y-49070047D01*
X39441380Y-48974809D01*
X39393761Y-48831952D01*
X39298523Y-48736714D01*
X39203285Y-48689095D01*
X39012809Y-48641476D01*
X38869952Y-48641476D01*
X38679476Y-48689095D01*
X38584238Y-48736714D01*
X38489000Y-48831952D01*
X38441380Y-48974809D01*
X38441380Y-49070047D01*
X38489000Y-49212904D01*
X38536619Y-49260523D01*
X38489000Y-50974809D02*
X38441380Y-50879571D01*
X38441380Y-50736714D01*
X38489000Y-50593857D01*
X38584238Y-50498619D01*
X38679476Y-50451000D01*
X38869952Y-50403380D01*
X39012809Y-50403380D01*
X39203285Y-50451000D01*
X39298523Y-50498619D01*
X39393761Y-50593857D01*
X39441380Y-50736714D01*
X39441380Y-50831952D01*
X39393761Y-50974809D01*
X39346142Y-51022428D01*
X39012809Y-51022428D01*
X39012809Y-50831952D01*
X39441380Y-51451000D02*
X38441380Y-51451000D01*
X39441380Y-52022428D01*
X38441380Y-52022428D01*
X39441380Y-52498619D02*
X38441380Y-52498619D01*
X38441380Y-52736714D01*
X38489000Y-52879571D01*
X38584238Y-52974809D01*
X38679476Y-53022428D01*
X38869952Y-53070047D01*
X39012809Y-53070047D01*
X39203285Y-53022428D01*
X39298523Y-52974809D01*
X39393761Y-52879571D01*
X39441380Y-52736714D01*
X39441380Y-52498619D01*
X39346142Y-54831952D02*
X39393761Y-54784333D01*
X39441380Y-54641476D01*
X39441380Y-54546238D01*
X39393761Y-54403380D01*
X39298523Y-54308142D01*
X39203285Y-54260523D01*
X39012809Y-54212904D01*
X38869952Y-54212904D01*
X38679476Y-54260523D01*
X38584238Y-54308142D01*
X38489000Y-54403380D01*
X38441380Y-54546238D01*
X38441380Y-54641476D01*
X38489000Y-54784333D01*
X38536619Y-54831952D01*
X39441380Y-55260523D02*
X38441380Y-55260523D01*
X39441380Y-55831952D02*
X38869952Y-55403380D01*
X38441380Y-55831952D02*
X39012809Y-55260523D01*
X39441380Y-57022428D02*
X38441380Y-57022428D01*
X38441380Y-57689095D02*
X38441380Y-57879571D01*
X38489000Y-57974809D01*
X38584238Y-58070047D01*
X38774714Y-58117666D01*
X39108047Y-58117666D01*
X39298523Y-58070047D01*
X39393761Y-57974809D01*
X39441380Y-57879571D01*
X39441380Y-57689095D01*
X39393761Y-57593857D01*
X39298523Y-57498619D01*
X39108047Y-57451000D01*
X38774714Y-57451000D01*
X38584238Y-57498619D01*
X38489000Y-57593857D01*
X38441380Y-57689095D01*
G04 #@! TO.C,U4*
D10*
X42293333Y-33886666D02*
X42293333Y-33453333D01*
X42026666Y-33686666D01*
X42026666Y-33586666D01*
X41993333Y-33520000D01*
X41960000Y-33486666D01*
X41893333Y-33453333D01*
X41726666Y-33453333D01*
X41660000Y-33486666D01*
X41626666Y-33520000D01*
X41593333Y-33586666D01*
X41593333Y-33786666D01*
X41626666Y-33853333D01*
X41660000Y-33886666D01*
X42293333Y-33253333D02*
X41593333Y-33020000D01*
X42293333Y-32786666D01*
X42293333Y-32620000D02*
X42293333Y-32186666D01*
X42026666Y-32420000D01*
X42026666Y-32320000D01*
X41993333Y-32253333D01*
X41960000Y-32220000D01*
X41893333Y-32186666D01*
X41726666Y-32186666D01*
X41660000Y-32220000D01*
X41626666Y-32253333D01*
X41593333Y-32320000D01*
X41593333Y-32520000D01*
X41626666Y-32586666D01*
X41660000Y-32620000D01*
X41593333Y-61343333D02*
X41926666Y-61576666D01*
X41593333Y-61743333D02*
X42293333Y-61743333D01*
X42293333Y-61476666D01*
X42260000Y-61410000D01*
X42226666Y-61376666D01*
X42160000Y-61343333D01*
X42060000Y-61343333D01*
X41993333Y-61376666D01*
X41960000Y-61410000D01*
X41926666Y-61476666D01*
X41926666Y-61743333D01*
X41626666Y-61076666D02*
X41593333Y-60976666D01*
X41593333Y-60810000D01*
X41626666Y-60743333D01*
X41660000Y-60710000D01*
X41726666Y-60676666D01*
X41793333Y-60676666D01*
X41860000Y-60710000D01*
X41893333Y-60743333D01*
X41926666Y-60810000D01*
X41960000Y-60943333D01*
X41993333Y-61010000D01*
X42026666Y-61043333D01*
X42093333Y-61076666D01*
X42160000Y-61076666D01*
X42226666Y-61043333D01*
X42260000Y-61010000D01*
X42293333Y-60943333D01*
X42293333Y-60776666D01*
X42260000Y-60676666D01*
X42293333Y-60476666D02*
X42293333Y-60076666D01*
X41593333Y-60276666D02*
X42293333Y-60276666D01*
X57054000Y-57886666D02*
X57020666Y-57820000D01*
X57020666Y-57720000D01*
X57054000Y-57620000D01*
X57120666Y-57553333D01*
X57187333Y-57520000D01*
X57320666Y-57486666D01*
X57420666Y-57486666D01*
X57554000Y-57520000D01*
X57620666Y-57553333D01*
X57687333Y-57620000D01*
X57720666Y-57720000D01*
X57720666Y-57786666D01*
X57687333Y-57886666D01*
X57654000Y-57920000D01*
X57420666Y-57920000D01*
X57420666Y-57786666D01*
X57720666Y-58220000D02*
X57020666Y-58220000D01*
X57720666Y-58620000D01*
X57020666Y-58620000D01*
X57720666Y-58953333D02*
X57020666Y-58953333D01*
X57020666Y-59120000D01*
X57054000Y-59220000D01*
X57120666Y-59286666D01*
X57187333Y-59320000D01*
X57320666Y-59353333D01*
X57420666Y-59353333D01*
X57554000Y-59320000D01*
X57620666Y-59286666D01*
X57687333Y-59220000D01*
X57720666Y-59120000D01*
X57720666Y-58953333D01*
X42293333Y-58553333D02*
X42293333Y-58886666D01*
X41960000Y-58920000D01*
X41993333Y-58886666D01*
X42026666Y-58820000D01*
X42026666Y-58653333D01*
X41993333Y-58586666D01*
X41960000Y-58553333D01*
X41893333Y-58520000D01*
X41726666Y-58520000D01*
X41660000Y-58553333D01*
X41626666Y-58586666D01*
X41593333Y-58653333D01*
X41593333Y-58820000D01*
X41626666Y-58886666D01*
X41660000Y-58920000D01*
X42293333Y-58320000D02*
X41593333Y-58086666D01*
X42293333Y-57853333D01*
X57720666Y-60576666D02*
X57387333Y-60343333D01*
X57720666Y-60176666D02*
X57020666Y-60176666D01*
X57020666Y-60443333D01*
X57054000Y-60510000D01*
X57087333Y-60543333D01*
X57154000Y-60576666D01*
X57254000Y-60576666D01*
X57320666Y-60543333D01*
X57354000Y-60510000D01*
X57387333Y-60443333D01*
X57387333Y-60176666D01*
X57687333Y-60843333D02*
X57720666Y-60943333D01*
X57720666Y-61110000D01*
X57687333Y-61176666D01*
X57654000Y-61210000D01*
X57587333Y-61243333D01*
X57520666Y-61243333D01*
X57454000Y-61210000D01*
X57420666Y-61176666D01*
X57387333Y-61110000D01*
X57354000Y-60976666D01*
X57320666Y-60910000D01*
X57287333Y-60876666D01*
X57220666Y-60843333D01*
X57154000Y-60843333D01*
X57087333Y-60876666D01*
X57054000Y-60910000D01*
X57020666Y-60976666D01*
X57020666Y-61143333D01*
X57054000Y-61243333D01*
X57020666Y-61443333D02*
X57020666Y-61843333D01*
X57720666Y-61643333D02*
X57020666Y-61643333D01*
X42260000Y-64033333D02*
X42293333Y-64100000D01*
X42293333Y-64200000D01*
X42260000Y-64300000D01*
X42193333Y-64366666D01*
X42126666Y-64400000D01*
X41993333Y-64433333D01*
X41893333Y-64433333D01*
X41760000Y-64400000D01*
X41693333Y-64366666D01*
X41626666Y-64300000D01*
X41593333Y-64200000D01*
X41593333Y-64133333D01*
X41626666Y-64033333D01*
X41660000Y-64000000D01*
X41893333Y-64000000D01*
X41893333Y-64133333D01*
X41593333Y-63700000D02*
X42293333Y-63700000D01*
X41593333Y-63300000D01*
X42293333Y-63300000D01*
X41593333Y-62966666D02*
X42293333Y-62966666D01*
X42293333Y-62800000D01*
X42260000Y-62700000D01*
X42193333Y-62633333D01*
X42126666Y-62600000D01*
X41993333Y-62566666D01*
X41893333Y-62566666D01*
X41760000Y-62600000D01*
X41693333Y-62633333D01*
X41626666Y-62700000D01*
X41593333Y-62800000D01*
X41593333Y-62966666D01*
X42293333Y-66756666D02*
X41593333Y-66523333D01*
X42293333Y-66290000D01*
X41593333Y-66056666D02*
X42060000Y-66056666D01*
X42293333Y-66056666D02*
X42260000Y-66090000D01*
X42226666Y-66056666D01*
X42260000Y-66023333D01*
X42293333Y-66056666D01*
X42226666Y-66056666D01*
X42060000Y-65723333D02*
X41593333Y-65723333D01*
X41993333Y-65723333D02*
X42026666Y-65690000D01*
X42060000Y-65623333D01*
X42060000Y-65523333D01*
X42026666Y-65456666D01*
X41960000Y-65423333D01*
X41593333Y-65423333D01*
G04 #@! TD*
M02*
