G04 #@! TF.GenerationSoftware,KiCad,Pcbnew,(5.0.0)*
G04 #@! TF.CreationDate,2020-11-30T22:45:23-06:00*
G04 #@! TF.ProjectId,BlueMacro,426C75654D6163726F2E6B696361645F,rev?*
G04 #@! TF.SameCoordinates,Original*
G04 #@! TF.FileFunction,Copper,L4,Bot,Signal*
G04 #@! TF.FilePolarity,Positive*
%FSLAX46Y46*%
G04 Gerber Fmt 4.6, Leading zero omitted, Abs format (unit mm)*
G04 Created by KiCad (PCBNEW (5.0.0)) date 11/30/20 22:45:23*
%MOMM*%
%LPD*%
G01*
G04 APERTURE LIST*
G04 #@! TA.AperFunction,WasherPad*
%ADD10C,1.270000*%
G04 #@! TD*
G04 #@! TA.AperFunction,ComponentPad*
%ADD11C,1.270000*%
G04 #@! TD*
G04 #@! TA.AperFunction,ComponentPad*
%ADD12R,1.250000X1.250000*%
G04 #@! TD*
G04 #@! TA.AperFunction,ComponentPad*
%ADD13R,1.700000X1.700000*%
G04 #@! TD*
G04 #@! TA.AperFunction,ComponentPad*
%ADD14O,1.700000X1.700000*%
G04 #@! TD*
G04 #@! TA.AperFunction,ComponentPad*
%ADD15O,1.000000X1.600000*%
G04 #@! TD*
G04 #@! TA.AperFunction,ComponentPad*
%ADD16O,1.000000X2.100000*%
G04 #@! TD*
G04 #@! TA.AperFunction,ComponentPad*
%ADD17R,0.650000X1.000000*%
G04 #@! TD*
G04 #@! TA.AperFunction,ComponentPad*
%ADD18R,1.000000X0.650000*%
G04 #@! TD*
G04 #@! TA.AperFunction,ComponentPad*
%ADD19C,1.100000*%
G04 #@! TD*
G04 #@! TA.AperFunction,Conductor*
%ADD20C,0.100000*%
G04 #@! TD*
G04 #@! TA.AperFunction,ViaPad*
%ADD21C,0.800000*%
G04 #@! TD*
G04 #@! TA.AperFunction,Conductor*
%ADD22C,0.200000*%
G04 #@! TD*
G04 #@! TA.AperFunction,Conductor*
%ADD23C,0.250000*%
G04 #@! TD*
G04 #@! TA.AperFunction,Conductor*
%ADD24C,0.254000*%
G04 #@! TD*
G04 APERTURE END LIST*
D10*
G04 #@! TO.P,U4,*
G04 #@! TO.N,*
X55880000Y-27940000D03*
X40640000Y-27940000D03*
X55880000Y-73660000D03*
X40640000Y-73660000D03*
D11*
G04 #@! TO.P,U4,34*
G04 #@! TO.N,/P0.10*
X40640000Y-71120000D03*
G04 #@! TO.P,U4,33*
G04 #@! TO.N,/P0.09*
X40640000Y-68580000D03*
G04 #@! TO.P,U4,32*
G04 #@! TO.N,VBatt*
X40640000Y-66040000D03*
G04 #@! TO.P,U4,31*
G04 #@! TO.N,GND*
X40640000Y-63500000D03*
G04 #@! TO.P,U4,30*
G04 #@! TO.N,Reset*
X40640000Y-60960000D03*
G04 #@! TO.P,U4,27*
G04 #@! TO.N,N/C*
X40640000Y-53340000D03*
G04 #@! TO.P,U4,26*
G04 #@! TO.N,/P0.20*
X40640000Y-50800000D03*
G04 #@! TO.P,U4,25*
G04 #@! TO.N,/P0.17*
X40640000Y-48260000D03*
G04 #@! TO.P,U4,28*
G04 #@! TO.N,N/C*
X40640000Y-55880000D03*
G04 #@! TO.P,U4,29*
G04 #@! TO.N,VBus*
X40640000Y-58420000D03*
D12*
G04 #@! TO.P,U4,1*
G04 #@! TO.N,/P1.11*
X55880000Y-71120000D03*
D11*
G04 #@! TO.P,U4,2*
G04 #@! TO.N,/P0.03*
X55880000Y-68580000D03*
G04 #@! TO.P,U4,3*
G04 #@! TO.N,/P0.28*
X55880000Y-66040000D03*
G04 #@! TO.P,U4,4*
G04 #@! TO.N,/P1.13*
X55880000Y-63500000D03*
G04 #@! TO.P,U4,5*
G04 #@! TO.N,Reset*
X55880000Y-60960000D03*
G04 #@! TO.P,U4,6*
G04 #@! TO.N,GND*
X55880000Y-58420000D03*
G04 #@! TO.P,U4,7*
G04 #@! TO.N,/P0.30*
X55880000Y-55880000D03*
G04 #@! TO.P,U4,8*
G04 #@! TO.N,/P0.02*
X55880000Y-53340000D03*
G04 #@! TO.P,U4,9*
G04 #@! TO.N,/P0.29*
X55880000Y-50800000D03*
G04 #@! TO.P,U4,10*
G04 #@! TO.N,/P0.26*
X55880000Y-48260000D03*
G04 #@! TO.P,U4,11*
G04 #@! TO.N,/P0.06*
X55880000Y-45720000D03*
G04 #@! TO.P,U4,12*
G04 #@! TO.N,/P0.05*
X55880000Y-43180000D03*
G04 #@! TO.P,U4,24*
G04 #@! TO.N,/P0.15*
X40640000Y-45720000D03*
G04 #@! TO.P,U4,23*
G04 #@! TO.N,/P0.13*
X40640000Y-43180000D03*
G04 #@! TO.P,U4,22*
G04 #@! TO.N,/P0.22*
X40640000Y-40640000D03*
G04 #@! TO.P,U4,21*
G04 #@! TO.N,/P0.24*
X40640000Y-38100000D03*
G04 #@! TO.P,U4,20*
G04 #@! TO.N,/P0.04*
X40640000Y-35560000D03*
G04 #@! TO.P,U4,19*
G04 #@! TO.N,/3V3*
X40640000Y-33020000D03*
G04 #@! TO.P,U4,18*
G04 #@! TO.N,/P0.07*
X40640000Y-30480000D03*
G04 #@! TO.P,U4,17*
G04 #@! TO.N,/P1.02*
X55880000Y-30480000D03*
G04 #@! TO.P,U4,16*
G04 #@! TO.N,/P0.12*
X55880000Y-33020000D03*
G04 #@! TO.P,U4,15*
G04 #@! TO.N,/P1.06*
X55880000Y-35560000D03*
G04 #@! TO.P,U4,14*
G04 #@! TO.N,/P1.09*
X55880000Y-38100000D03*
G04 #@! TO.P,U4,13*
G04 #@! TO.N,/P0.08*
X55880000Y-40640000D03*
G04 #@! TD*
D13*
G04 #@! TO.P,J1,1*
G04 #@! TO.N,VBatt*
X53340000Y-44450000D03*
D14*
G04 #@! TO.P,J1,2*
G04 #@! TO.N,GND*
X53340000Y-46990000D03*
G04 #@! TD*
D15*
G04 #@! TO.P,J3,S1*
G04 #@! TO.N,Net-(J3-PadS1)*
X43940000Y-29270000D03*
X52580000Y-29270000D03*
D16*
X43940000Y-33450000D03*
X52580000Y-33450000D03*
G04 #@! TD*
D17*
G04 #@! TO.P,U2,18*
G04 #@! TO.N,/P0.04*
X48283000Y-58607000D03*
G04 #@! TO.P,U2,24*
G04 #@! TO.N,GND*
X44473000Y-58607000D03*
G04 #@! TO.P,U2,22*
G04 #@! TO.N,/P0.07*
X45743000Y-58607000D03*
G04 #@! TO.P,U2,16*
G04 #@! TO.N,/P0.08*
X49553000Y-58607000D03*
G04 #@! TO.P,U2,20*
G04 #@! TO.N,/P0.12*
X47013000Y-58607000D03*
G04 #@! TO.P,U2,12*
G04 #@! TO.N,/P0.26*
X52093000Y-58607000D03*
G04 #@! TO.P,U2,14*
G04 #@! TO.N,/P0.06*
X50823000Y-58607000D03*
D18*
G04 #@! TO.P,U2,42*
G04 #@! TO.N,/P1.06*
X44219000Y-70037000D03*
G04 #@! TO.P,U2,40*
G04 #@! TO.N,RED_LED*
X44219000Y-68767000D03*
G04 #@! TO.P,U2,38*
G04 #@! TO.N,/P1.02*
X44219000Y-67497000D03*
G04 #@! TO.P,U2,36*
G04 #@! TO.N,SWO*
X44219000Y-66227000D03*
G04 #@! TO.P,U2,34*
G04 #@! TO.N,/P0.22*
X44219000Y-64957000D03*
G04 #@! TO.P,U2,32*
G04 #@! TO.N,/P0.20*
X44219000Y-63687000D03*
G04 #@! TO.P,U2,30*
G04 #@! TO.N,/P0.17*
X44219000Y-62417000D03*
G04 #@! TO.P,U2,28*
G04 #@! TO.N,/P0.15*
X44219000Y-61147000D03*
G04 #@! TD*
D19*
G04 #@! TO.P,TP1,1*
G04 #@! TO.N,VCC*
X39243000Y-59690000D03*
D20*
G04 #@! TD*
G04 #@! TO.N,VCC*
G04 #@! TO.C,TP1*
G36*
X39243000Y-60467817D02*
X38465183Y-59690000D01*
X39243000Y-58912183D01*
X40020817Y-59690000D01*
X39243000Y-60467817D01*
X39243000Y-60467817D01*
G37*
D19*
G04 #@! TO.P,TP2,1*
G04 #@! TO.N,GND*
X39243000Y-62230000D03*
D20*
G04 #@! TD*
G04 #@! TO.N,GND*
G04 #@! TO.C,TP2*
G36*
X39243000Y-63007817D02*
X38465183Y-62230000D01*
X39243000Y-61452183D01*
X40020817Y-62230000D01*
X39243000Y-63007817D01*
X39243000Y-63007817D01*
G37*
D19*
G04 #@! TO.P,TP3,1*
G04 #@! TO.N,SWDCLK*
X39243000Y-64770000D03*
D20*
G04 #@! TD*
G04 #@! TO.N,SWDCLK*
G04 #@! TO.C,TP3*
G36*
X39243000Y-65547817D02*
X38465183Y-64770000D01*
X39243000Y-63992183D01*
X40020817Y-64770000D01*
X39243000Y-65547817D01*
X39243000Y-65547817D01*
G37*
D19*
G04 #@! TO.P,TP4,1*
G04 #@! TO.N,SWDIO*
X39243000Y-67310000D03*
D20*
G04 #@! TD*
G04 #@! TO.N,SWDIO*
G04 #@! TO.C,TP4*
G36*
X39243000Y-68087817D02*
X38465183Y-67310000D01*
X39243000Y-66532183D01*
X40020817Y-67310000D01*
X39243000Y-68087817D01*
X39243000Y-68087817D01*
G37*
D21*
G04 #@! TO.N,GND*
X53340000Y-42418000D03*
X52203831Y-35488064D03*
X44316172Y-35488067D03*
X43942000Y-50546000D03*
X47371000Y-42037000D03*
X49657000Y-63754000D03*
X48338011Y-62357000D03*
G04 #@! TO.N,Net-(C3-Pad1)*
X45575836Y-51184011D03*
X46085447Y-39315048D03*
G04 #@! TO.N,VBatt*
X50673000Y-49149000D03*
G04 #@! TO.N,VCC*
X45835649Y-52973684D03*
G04 #@! TO.N,VBatt_Monitor*
X49657000Y-45593000D03*
X49403000Y-61631990D03*
G04 #@! TO.N,VBus*
X46045497Y-47402942D03*
X48387000Y-37211000D03*
G04 #@! TO.N,RED_LED*
X42291001Y-37338001D03*
G04 #@! TO.N,BLUE_LED*
X52578008Y-68199000D03*
X54356004Y-37211000D03*
G04 #@! TO.N,SWDCLK*
X45755300Y-68160775D03*
G04 #@! TO.N,D+*
X45718490Y-62992004D03*
X48768000Y-32766000D03*
G04 #@! TO.N,D-*
X47726976Y-32628914D03*
X45720000Y-61849000D03*
G04 #@! TO.N,SWO*
X45247876Y-49774684D03*
G04 #@! TO.N,/P0.24*
X45574265Y-65386271D03*
G04 #@! TO.N,/P0.13*
X45718490Y-64135000D03*
G04 #@! TO.N,/P0.02*
X53085990Y-62357000D03*
G04 #@! TO.N,/P0.29*
X53086000Y-61341000D03*
G04 #@! TO.N,/P0.04*
X42545000Y-35560000D03*
X49403000Y-40640000D03*
G04 #@! TO.N,/P1.09*
X48768000Y-60706000D03*
G04 #@! TO.N,/P0.05*
X50747991Y-60161560D03*
G04 #@! TD*
D22*
G04 #@! TO.N,GND*
X41274999Y-62865001D02*
X40640000Y-63500000D01*
X41274999Y-61980001D02*
X41274999Y-62865001D01*
X44473000Y-58782000D02*
X41274999Y-61980001D01*
X44473000Y-58607000D02*
X44473000Y-58782000D01*
X44473000Y-58607000D02*
X44473000Y-58432000D01*
X47285002Y-55619998D02*
X47285002Y-52414000D01*
X44473000Y-58432000D02*
X47285002Y-55619998D01*
D23*
X55880000Y-58420000D02*
X54356000Y-58420000D01*
X41538025Y-63500000D02*
X40640000Y-63500000D01*
X40513000Y-63500000D02*
X39243000Y-62230000D01*
X40640000Y-63500000D02*
X40513000Y-63500000D01*
D22*
G04 #@! TO.N,Net-(C3-Pad1)*
X46745498Y-50014349D02*
X46745498Y-47066941D01*
X46085447Y-46406890D02*
X46085447Y-39880733D01*
X45575836Y-51184011D02*
X46745498Y-50014349D01*
X46085447Y-39880733D02*
X46085447Y-39315048D01*
X46745498Y-47066941D02*
X46085447Y-46406890D01*
G04 #@! TO.N,VBatt*
X40640000Y-66040000D02*
X41452001Y-66852001D01*
X41452001Y-66852001D02*
X45161999Y-66852001D01*
X50628001Y-62422001D02*
X53213000Y-59837002D01*
X49591999Y-62422001D02*
X50628001Y-62422001D01*
X45161999Y-66852001D02*
X49591999Y-62422001D01*
X53213000Y-59837002D02*
X53213000Y-48819002D01*
X52883002Y-49149000D02*
X50673000Y-49149000D01*
X53213000Y-48819002D02*
X52883002Y-49149000D01*
X53594000Y-44450000D02*
X53340000Y-44450000D01*
X53975000Y-44831000D02*
X53594000Y-44450000D01*
X53975000Y-45922998D02*
X53975000Y-44831000D01*
X54490001Y-46437999D02*
X53975000Y-45922998D01*
X53213000Y-48819002D02*
X54490001Y-47542001D01*
X54490001Y-47542001D02*
X54490001Y-46437999D01*
D23*
G04 #@! TO.N,VCC*
X45434997Y-53045677D02*
X45763656Y-53045677D01*
X45435650Y-53373683D02*
X45835649Y-52973684D01*
X45763656Y-53045677D02*
X45835649Y-52973684D01*
X40132000Y-54610000D02*
X44199333Y-54610000D01*
X39243000Y-59690000D02*
X39243000Y-55499000D01*
X39243000Y-55499000D02*
X40132000Y-54610000D01*
X44199333Y-54610000D02*
X45435650Y-53373683D01*
D22*
G04 #@! TO.N,SWDCLK*
X40553099Y-67418001D02*
X42755001Y-67418001D01*
X42755001Y-67418001D02*
X43463329Y-68126329D01*
X45189615Y-68160775D02*
X45755300Y-68160775D01*
X39243000Y-66107902D02*
X40553099Y-67418001D01*
X43463329Y-68126329D02*
X45155169Y-68126329D01*
X39243000Y-64770000D02*
X39243000Y-66107902D01*
X45155169Y-68126329D02*
X45189615Y-68160775D01*
G04 #@! TO.N,Net-(J3-PadS1)*
X52580000Y-30270000D02*
X52580000Y-33450000D01*
X52580000Y-29270000D02*
X52580000Y-30270000D01*
X43940000Y-30270000D02*
X43940000Y-33450000D01*
X43940000Y-29270000D02*
X43940000Y-30270000D01*
X43940000Y-29270000D02*
X51880000Y-29270000D01*
X51880000Y-29270000D02*
X52580000Y-29270000D01*
G04 #@! TD*
D24*
G04 #@! TO.N,GND*
G36*
X54483000Y-70993000D02*
X44801650Y-70993000D01*
X44966765Y-70960157D01*
X45176809Y-70819809D01*
X45317157Y-70609765D01*
X45366440Y-70362000D01*
X45366440Y-69712000D01*
X45317157Y-69464235D01*
X45275573Y-69402000D01*
X45317157Y-69339765D01*
X45361298Y-69117850D01*
X45549426Y-69195775D01*
X45961174Y-69195775D01*
X46341580Y-69038206D01*
X46632731Y-68747055D01*
X46790300Y-68366649D01*
X46790300Y-67993126D01*
X51543008Y-67993126D01*
X51543008Y-68404874D01*
X51700577Y-68785280D01*
X51991728Y-69076431D01*
X52372134Y-69234000D01*
X52783882Y-69234000D01*
X53164288Y-69076431D01*
X53455439Y-68785280D01*
X53613008Y-68404874D01*
X53613008Y-67993126D01*
X53455439Y-67612720D01*
X53164288Y-67321569D01*
X52783882Y-67164000D01*
X52372134Y-67164000D01*
X51991728Y-67321569D01*
X51700577Y-67612720D01*
X51543008Y-67993126D01*
X46790300Y-67993126D01*
X46790300Y-67954901D01*
X46632731Y-67574495D01*
X46341580Y-67283344D01*
X45961174Y-67125775D01*
X45927671Y-67125775D01*
X49896446Y-63157001D01*
X50555617Y-63157001D01*
X50628001Y-63171399D01*
X50700385Y-63157001D01*
X50700389Y-63157001D01*
X50914784Y-63114355D01*
X51157906Y-62951906D01*
X51198912Y-62890536D01*
X52130658Y-61958791D01*
X52050990Y-62151126D01*
X52050990Y-62562874D01*
X52208559Y-62943280D01*
X52499710Y-63234431D01*
X52880116Y-63392000D01*
X53291864Y-63392000D01*
X53672270Y-63234431D01*
X53963421Y-62943280D01*
X54120990Y-62562874D01*
X54120990Y-62151126D01*
X53995851Y-61849012D01*
X54121000Y-61546874D01*
X54121000Y-61135126D01*
X53963431Y-60754720D01*
X53672280Y-60463569D01*
X53639470Y-60449979D01*
X53681538Y-60407911D01*
X53742905Y-60366907D01*
X53905354Y-60123785D01*
X53948000Y-59909390D01*
X53948000Y-59909389D01*
X53962399Y-59837002D01*
X53948000Y-59764614D01*
X53948000Y-49123448D01*
X54483000Y-48588449D01*
X54483000Y-70993000D01*
X54483000Y-70993000D01*
G37*
X54483000Y-70993000D02*
X44801650Y-70993000D01*
X44966765Y-70960157D01*
X45176809Y-70819809D01*
X45317157Y-70609765D01*
X45366440Y-70362000D01*
X45366440Y-69712000D01*
X45317157Y-69464235D01*
X45275573Y-69402000D01*
X45317157Y-69339765D01*
X45361298Y-69117850D01*
X45549426Y-69195775D01*
X45961174Y-69195775D01*
X46341580Y-69038206D01*
X46632731Y-68747055D01*
X46790300Y-68366649D01*
X46790300Y-67993126D01*
X51543008Y-67993126D01*
X51543008Y-68404874D01*
X51700577Y-68785280D01*
X51991728Y-69076431D01*
X52372134Y-69234000D01*
X52783882Y-69234000D01*
X53164288Y-69076431D01*
X53455439Y-68785280D01*
X53613008Y-68404874D01*
X53613008Y-67993126D01*
X53455439Y-67612720D01*
X53164288Y-67321569D01*
X52783882Y-67164000D01*
X52372134Y-67164000D01*
X51991728Y-67321569D01*
X51700577Y-67612720D01*
X51543008Y-67993126D01*
X46790300Y-67993126D01*
X46790300Y-67954901D01*
X46632731Y-67574495D01*
X46341580Y-67283344D01*
X45961174Y-67125775D01*
X45927671Y-67125775D01*
X49896446Y-63157001D01*
X50555617Y-63157001D01*
X50628001Y-63171399D01*
X50700385Y-63157001D01*
X50700389Y-63157001D01*
X50914784Y-63114355D01*
X51157906Y-62951906D01*
X51198912Y-62890536D01*
X52130658Y-61958791D01*
X52050990Y-62151126D01*
X52050990Y-62562874D01*
X52208559Y-62943280D01*
X52499710Y-63234431D01*
X52880116Y-63392000D01*
X53291864Y-63392000D01*
X53672270Y-63234431D01*
X53963421Y-62943280D01*
X54120990Y-62562874D01*
X54120990Y-62151126D01*
X53995851Y-61849012D01*
X54121000Y-61546874D01*
X54121000Y-61135126D01*
X53963431Y-60754720D01*
X53672280Y-60463569D01*
X53639470Y-60449979D01*
X53681538Y-60407911D01*
X53742905Y-60366907D01*
X53905354Y-60123785D01*
X53948000Y-59909390D01*
X53948000Y-59909389D01*
X53962399Y-59837002D01*
X53948000Y-59764614D01*
X53948000Y-49123448D01*
X54483000Y-48588449D01*
X54483000Y-70993000D01*
G36*
X54483000Y-36176000D02*
X54150130Y-36176000D01*
X53769724Y-36333569D01*
X53478573Y-36624720D01*
X53321004Y-37005126D01*
X53321004Y-37416874D01*
X53478573Y-37797280D01*
X53769724Y-38088431D01*
X54150130Y-38246000D01*
X54483000Y-38246000D01*
X54483000Y-43032068D01*
X54437765Y-43001843D01*
X54190000Y-42952560D01*
X52490000Y-42952560D01*
X52242235Y-43001843D01*
X52032191Y-43142191D01*
X51891843Y-43352235D01*
X51842560Y-43600000D01*
X51842560Y-45300000D01*
X51891843Y-45547765D01*
X52032191Y-45757809D01*
X52242235Y-45898157D01*
X52345708Y-45918739D01*
X52068355Y-46223076D01*
X51898524Y-46633110D01*
X52019845Y-46863000D01*
X53213000Y-46863000D01*
X53213000Y-46843000D01*
X53467000Y-46843000D01*
X53467000Y-46863000D01*
X53487000Y-46863000D01*
X53487000Y-47117000D01*
X53467000Y-47117000D01*
X53467000Y-47137000D01*
X53213000Y-47137000D01*
X53213000Y-47117000D01*
X52019845Y-47117000D01*
X51898524Y-47346890D01*
X52068355Y-47756924D01*
X52458642Y-48185183D01*
X52682335Y-48290235D01*
X52642092Y-48350464D01*
X52578556Y-48414000D01*
X51401711Y-48414000D01*
X51259280Y-48271569D01*
X50878874Y-48114000D01*
X50467126Y-48114000D01*
X50086720Y-48271569D01*
X49795569Y-48562720D01*
X49638000Y-48943126D01*
X49638000Y-49354874D01*
X49795569Y-49735280D01*
X50086720Y-50026431D01*
X50467126Y-50184000D01*
X50878874Y-50184000D01*
X51259280Y-50026431D01*
X51401711Y-49884000D01*
X52478001Y-49884000D01*
X52478000Y-57471495D01*
X52418000Y-57459560D01*
X51768000Y-57459560D01*
X51520235Y-57508843D01*
X51458000Y-57550427D01*
X51395765Y-57508843D01*
X51148000Y-57459560D01*
X50498000Y-57459560D01*
X50250235Y-57508843D01*
X50188000Y-57550427D01*
X50125765Y-57508843D01*
X49878000Y-57459560D01*
X49228000Y-57459560D01*
X48980235Y-57508843D01*
X48918000Y-57550427D01*
X48855765Y-57508843D01*
X48608000Y-57459560D01*
X47958000Y-57459560D01*
X47710235Y-57508843D01*
X47648000Y-57550427D01*
X47585765Y-57508843D01*
X47338000Y-57459560D01*
X46688000Y-57459560D01*
X46440235Y-57508843D01*
X46378000Y-57550427D01*
X46315765Y-57508843D01*
X46068000Y-57459560D01*
X45418000Y-57459560D01*
X45170235Y-57508843D01*
X45110162Y-57548983D01*
X44924309Y-57472000D01*
X44758750Y-57472000D01*
X44600000Y-57630750D01*
X44600000Y-58480000D01*
X44620000Y-58480000D01*
X44620000Y-58734000D01*
X44600000Y-58734000D01*
X44600000Y-59583250D01*
X44758750Y-59742000D01*
X44924309Y-59742000D01*
X45110162Y-59665017D01*
X45170235Y-59705157D01*
X45418000Y-59754440D01*
X46068000Y-59754440D01*
X46315765Y-59705157D01*
X46378000Y-59663573D01*
X46440235Y-59705157D01*
X46688000Y-59754440D01*
X47338000Y-59754440D01*
X47585765Y-59705157D01*
X47648000Y-59663573D01*
X47710235Y-59705157D01*
X47958000Y-59754440D01*
X48360684Y-59754440D01*
X48181720Y-59828569D01*
X47890569Y-60119720D01*
X47733000Y-60500126D01*
X47733000Y-60911874D01*
X47890569Y-61292280D01*
X48181720Y-61583431D01*
X48368000Y-61660591D01*
X48368000Y-61837864D01*
X48525569Y-62218270D01*
X48640926Y-62333627D01*
X46753490Y-64221064D01*
X46753490Y-63929126D01*
X46602044Y-63563502D01*
X46753490Y-63197878D01*
X46753490Y-62786130D01*
X46602797Y-62422325D01*
X46755000Y-62054874D01*
X46755000Y-61643126D01*
X46597431Y-61262720D01*
X46306280Y-60971569D01*
X45925874Y-60814000D01*
X45514126Y-60814000D01*
X45366440Y-60875173D01*
X45366440Y-60822000D01*
X45317157Y-60574235D01*
X45176809Y-60364191D01*
X44966765Y-60223843D01*
X44719000Y-60174560D01*
X43719000Y-60174560D01*
X43471235Y-60223843D01*
X43261191Y-60364191D01*
X43120843Y-60574235D01*
X43071560Y-60822000D01*
X43071560Y-61472000D01*
X43120843Y-61719765D01*
X43162427Y-61782000D01*
X43120843Y-61844235D01*
X43071560Y-62092000D01*
X43071560Y-62742000D01*
X43120843Y-62989765D01*
X43162427Y-63052000D01*
X43120843Y-63114235D01*
X43071560Y-63362000D01*
X43071560Y-64012000D01*
X43120843Y-64259765D01*
X43162427Y-64322000D01*
X43120843Y-64384235D01*
X43071560Y-64632000D01*
X43071560Y-65282000D01*
X43120843Y-65529765D01*
X43162427Y-65592000D01*
X43120843Y-65654235D01*
X43071560Y-65902000D01*
X43071560Y-66117001D01*
X42037000Y-66117001D01*
X42037000Y-58892750D01*
X43513000Y-58892750D01*
X43513000Y-59233310D01*
X43609673Y-59466699D01*
X43788302Y-59645327D01*
X44021691Y-59742000D01*
X44187250Y-59742000D01*
X44346000Y-59583250D01*
X44346000Y-58734000D01*
X43671750Y-58734000D01*
X43513000Y-58892750D01*
X42037000Y-58892750D01*
X42037000Y-57980690D01*
X43513000Y-57980690D01*
X43513000Y-58321250D01*
X43671750Y-58480000D01*
X44346000Y-58480000D01*
X44346000Y-57630750D01*
X44187250Y-57472000D01*
X44021691Y-57472000D01*
X43788302Y-57568673D01*
X43609673Y-57747301D01*
X43513000Y-57980690D01*
X42037000Y-57980690D01*
X42037000Y-55370000D01*
X44124486Y-55370000D01*
X44199333Y-55384888D01*
X44274180Y-55370000D01*
X44274185Y-55370000D01*
X44495870Y-55325904D01*
X44747262Y-55157929D01*
X44789664Y-55094470D01*
X45875451Y-54008684D01*
X46041523Y-54008684D01*
X46421929Y-53851115D01*
X46713080Y-53559964D01*
X46870649Y-53179558D01*
X46870649Y-52767810D01*
X46713080Y-52387404D01*
X46421929Y-52096253D01*
X46213598Y-52009960D01*
X46453267Y-51770291D01*
X46610836Y-51389885D01*
X46610836Y-51188457D01*
X47214036Y-50585258D01*
X47275403Y-50544254D01*
X47437852Y-50301132D01*
X47480498Y-50086737D01*
X47480498Y-50086733D01*
X47494896Y-50014349D01*
X47480498Y-49941965D01*
X47480498Y-47139324D01*
X47494896Y-47066940D01*
X47480498Y-46994556D01*
X47480498Y-46994553D01*
X47437852Y-46780158D01*
X47275403Y-46537036D01*
X47214035Y-46496031D01*
X46820447Y-46102444D01*
X46820447Y-45387126D01*
X48622000Y-45387126D01*
X48622000Y-45798874D01*
X48779569Y-46179280D01*
X49070720Y-46470431D01*
X49451126Y-46628000D01*
X49862874Y-46628000D01*
X50243280Y-46470431D01*
X50534431Y-46179280D01*
X50692000Y-45798874D01*
X50692000Y-45387126D01*
X50534431Y-45006720D01*
X50243280Y-44715569D01*
X49862874Y-44558000D01*
X49451126Y-44558000D01*
X49070720Y-44715569D01*
X48779569Y-45006720D01*
X48622000Y-45387126D01*
X46820447Y-45387126D01*
X46820447Y-40434126D01*
X48368000Y-40434126D01*
X48368000Y-40845874D01*
X48525569Y-41226280D01*
X48816720Y-41517431D01*
X49197126Y-41675000D01*
X49608874Y-41675000D01*
X49989280Y-41517431D01*
X50280431Y-41226280D01*
X50438000Y-40845874D01*
X50438000Y-40434126D01*
X50280431Y-40053720D01*
X49989280Y-39762569D01*
X49608874Y-39605000D01*
X49197126Y-39605000D01*
X48816720Y-39762569D01*
X48525569Y-40053720D01*
X48368000Y-40434126D01*
X46820447Y-40434126D01*
X46820447Y-40043759D01*
X46962878Y-39901328D01*
X47120447Y-39520922D01*
X47120447Y-39109174D01*
X46962878Y-38728768D01*
X46671727Y-38437617D01*
X46291321Y-38280048D01*
X45879573Y-38280048D01*
X45499167Y-38437617D01*
X45208016Y-38728768D01*
X45050447Y-39109174D01*
X45050447Y-39520922D01*
X45208016Y-39901328D01*
X45350448Y-40043760D01*
X45350447Y-46334506D01*
X45336049Y-46406890D01*
X45350447Y-46479274D01*
X45350447Y-46479277D01*
X45376164Y-46608564D01*
X45168066Y-46816662D01*
X45010497Y-47197068D01*
X45010497Y-47608816D01*
X45168066Y-47989222D01*
X45459217Y-48280373D01*
X45839623Y-48437942D01*
X46010499Y-48437942D01*
X46010498Y-49073595D01*
X45834156Y-48897253D01*
X45453750Y-48739684D01*
X45042002Y-48739684D01*
X44661596Y-48897253D01*
X44370445Y-49188404D01*
X44212876Y-49568810D01*
X44212876Y-49980558D01*
X44370445Y-50360964D01*
X44661596Y-50652115D01*
X44673787Y-50657165D01*
X44540836Y-50978137D01*
X44540836Y-51389885D01*
X44698405Y-51770291D01*
X44989556Y-52061442D01*
X45197887Y-52147735D01*
X44958218Y-52387404D01*
X44922249Y-52474241D01*
X44887068Y-52497748D01*
X44719093Y-52749140D01*
X44660108Y-53045677D01*
X44664877Y-53069654D01*
X43884532Y-53850000D01*
X42037000Y-53850000D01*
X42037000Y-38353066D01*
X42085127Y-38373001D01*
X42496875Y-38373001D01*
X42877281Y-38215432D01*
X43168432Y-37924281D01*
X43326001Y-37543875D01*
X43326001Y-37132127D01*
X43273396Y-37005126D01*
X47352000Y-37005126D01*
X47352000Y-37416874D01*
X47509569Y-37797280D01*
X47800720Y-38088431D01*
X48181126Y-38246000D01*
X48592874Y-38246000D01*
X48973280Y-38088431D01*
X49264431Y-37797280D01*
X49422000Y-37416874D01*
X49422000Y-37005126D01*
X49264431Y-36624720D01*
X48973280Y-36333569D01*
X48592874Y-36176000D01*
X48181126Y-36176000D01*
X47800720Y-36333569D01*
X47509569Y-36624720D01*
X47352000Y-37005126D01*
X43273396Y-37005126D01*
X43168432Y-36751721D01*
X42935314Y-36518603D01*
X43131280Y-36437431D01*
X43422431Y-36146280D01*
X43580000Y-35765874D01*
X43580000Y-35354126D01*
X43448492Y-35036637D01*
X43497145Y-35069146D01*
X43940000Y-35157235D01*
X44382854Y-35069146D01*
X44758289Y-34818289D01*
X45009146Y-34442855D01*
X45075000Y-34111783D01*
X45075000Y-33836904D01*
X45179044Y-33880000D01*
X45560956Y-33880000D01*
X45913797Y-33733849D01*
X46183849Y-33463797D01*
X46330000Y-33110956D01*
X46330000Y-32729044D01*
X46203250Y-32423040D01*
X46691976Y-32423040D01*
X46691976Y-32834788D01*
X46849545Y-33215194D01*
X47140696Y-33506345D01*
X47521102Y-33663914D01*
X47932850Y-33663914D01*
X48123311Y-33585022D01*
X48181720Y-33643431D01*
X48562126Y-33801000D01*
X48973874Y-33801000D01*
X49354280Y-33643431D01*
X49645431Y-33352280D01*
X49803000Y-32971874D01*
X49803000Y-32560126D01*
X49645431Y-32179720D01*
X49354280Y-31888569D01*
X48973874Y-31731000D01*
X48562126Y-31731000D01*
X48371665Y-31809892D01*
X48313256Y-31751483D01*
X47932850Y-31593914D01*
X47521102Y-31593914D01*
X47140696Y-31751483D01*
X46849545Y-32042634D01*
X46691976Y-32423040D01*
X46203250Y-32423040D01*
X46183849Y-32376203D01*
X45913797Y-32106151D01*
X45560956Y-31960000D01*
X45179044Y-31960000D01*
X44826203Y-32106151D01*
X44795281Y-32137073D01*
X44758289Y-32081711D01*
X44675000Y-32026059D01*
X44675000Y-30443941D01*
X44758289Y-30388289D01*
X45009146Y-30012855D01*
X45010708Y-30005000D01*
X51509292Y-30005000D01*
X51510854Y-30012854D01*
X51761711Y-30388289D01*
X51845000Y-30443941D01*
X51845001Y-32026059D01*
X51761712Y-32081711D01*
X51724720Y-32137074D01*
X51693797Y-32106151D01*
X51340956Y-31960000D01*
X50959044Y-31960000D01*
X50606203Y-32106151D01*
X50336151Y-32376203D01*
X50190000Y-32729044D01*
X50190000Y-33110956D01*
X50336151Y-33463797D01*
X50606203Y-33733849D01*
X50959044Y-33880000D01*
X51340956Y-33880000D01*
X51445000Y-33836904D01*
X51445000Y-34111782D01*
X51510854Y-34442854D01*
X51761711Y-34818289D01*
X52137145Y-35069146D01*
X52580000Y-35157235D01*
X53022854Y-35069146D01*
X53398289Y-34818289D01*
X53649146Y-34442855D01*
X53715000Y-34111783D01*
X53715000Y-32788217D01*
X53649146Y-32457145D01*
X53398289Y-32081711D01*
X53315000Y-32026059D01*
X53315000Y-30443941D01*
X53398289Y-30388289D01*
X53649146Y-30012855D01*
X53715000Y-29681783D01*
X53715000Y-28858218D01*
X53649146Y-28527146D01*
X53398289Y-28151711D01*
X53022855Y-27900854D01*
X52580000Y-27812765D01*
X52137146Y-27900854D01*
X51761712Y-28151711D01*
X51510854Y-28527145D01*
X51509292Y-28535000D01*
X45010708Y-28535000D01*
X45009146Y-28527146D01*
X44758289Y-28151711D01*
X44382855Y-27900854D01*
X43940000Y-27812765D01*
X43497146Y-27900854D01*
X43121712Y-28151711D01*
X42870854Y-28527145D01*
X42805000Y-28858217D01*
X42805000Y-29681782D01*
X42870854Y-30012854D01*
X43121711Y-30388289D01*
X43205000Y-30443941D01*
X43205001Y-32026059D01*
X43121712Y-32081711D01*
X42870854Y-32457145D01*
X42805000Y-32788217D01*
X42805000Y-34111782D01*
X42870854Y-34442854D01*
X42992661Y-34625151D01*
X42750874Y-34525000D01*
X42339126Y-34525000D01*
X42037000Y-34650144D01*
X42037000Y-27380000D01*
X54483000Y-27380000D01*
X54483000Y-36176000D01*
X54483000Y-36176000D01*
G37*
X54483000Y-36176000D02*
X54150130Y-36176000D01*
X53769724Y-36333569D01*
X53478573Y-36624720D01*
X53321004Y-37005126D01*
X53321004Y-37416874D01*
X53478573Y-37797280D01*
X53769724Y-38088431D01*
X54150130Y-38246000D01*
X54483000Y-38246000D01*
X54483000Y-43032068D01*
X54437765Y-43001843D01*
X54190000Y-42952560D01*
X52490000Y-42952560D01*
X52242235Y-43001843D01*
X52032191Y-43142191D01*
X51891843Y-43352235D01*
X51842560Y-43600000D01*
X51842560Y-45300000D01*
X51891843Y-45547765D01*
X52032191Y-45757809D01*
X52242235Y-45898157D01*
X52345708Y-45918739D01*
X52068355Y-46223076D01*
X51898524Y-46633110D01*
X52019845Y-46863000D01*
X53213000Y-46863000D01*
X53213000Y-46843000D01*
X53467000Y-46843000D01*
X53467000Y-46863000D01*
X53487000Y-46863000D01*
X53487000Y-47117000D01*
X53467000Y-47117000D01*
X53467000Y-47137000D01*
X53213000Y-47137000D01*
X53213000Y-47117000D01*
X52019845Y-47117000D01*
X51898524Y-47346890D01*
X52068355Y-47756924D01*
X52458642Y-48185183D01*
X52682335Y-48290235D01*
X52642092Y-48350464D01*
X52578556Y-48414000D01*
X51401711Y-48414000D01*
X51259280Y-48271569D01*
X50878874Y-48114000D01*
X50467126Y-48114000D01*
X50086720Y-48271569D01*
X49795569Y-48562720D01*
X49638000Y-48943126D01*
X49638000Y-49354874D01*
X49795569Y-49735280D01*
X50086720Y-50026431D01*
X50467126Y-50184000D01*
X50878874Y-50184000D01*
X51259280Y-50026431D01*
X51401711Y-49884000D01*
X52478001Y-49884000D01*
X52478000Y-57471495D01*
X52418000Y-57459560D01*
X51768000Y-57459560D01*
X51520235Y-57508843D01*
X51458000Y-57550427D01*
X51395765Y-57508843D01*
X51148000Y-57459560D01*
X50498000Y-57459560D01*
X50250235Y-57508843D01*
X50188000Y-57550427D01*
X50125765Y-57508843D01*
X49878000Y-57459560D01*
X49228000Y-57459560D01*
X48980235Y-57508843D01*
X48918000Y-57550427D01*
X48855765Y-57508843D01*
X48608000Y-57459560D01*
X47958000Y-57459560D01*
X47710235Y-57508843D01*
X47648000Y-57550427D01*
X47585765Y-57508843D01*
X47338000Y-57459560D01*
X46688000Y-57459560D01*
X46440235Y-57508843D01*
X46378000Y-57550427D01*
X46315765Y-57508843D01*
X46068000Y-57459560D01*
X45418000Y-57459560D01*
X45170235Y-57508843D01*
X45110162Y-57548983D01*
X44924309Y-57472000D01*
X44758750Y-57472000D01*
X44600000Y-57630750D01*
X44600000Y-58480000D01*
X44620000Y-58480000D01*
X44620000Y-58734000D01*
X44600000Y-58734000D01*
X44600000Y-59583250D01*
X44758750Y-59742000D01*
X44924309Y-59742000D01*
X45110162Y-59665017D01*
X45170235Y-59705157D01*
X45418000Y-59754440D01*
X46068000Y-59754440D01*
X46315765Y-59705157D01*
X46378000Y-59663573D01*
X46440235Y-59705157D01*
X46688000Y-59754440D01*
X47338000Y-59754440D01*
X47585765Y-59705157D01*
X47648000Y-59663573D01*
X47710235Y-59705157D01*
X47958000Y-59754440D01*
X48360684Y-59754440D01*
X48181720Y-59828569D01*
X47890569Y-60119720D01*
X47733000Y-60500126D01*
X47733000Y-60911874D01*
X47890569Y-61292280D01*
X48181720Y-61583431D01*
X48368000Y-61660591D01*
X48368000Y-61837864D01*
X48525569Y-62218270D01*
X48640926Y-62333627D01*
X46753490Y-64221064D01*
X46753490Y-63929126D01*
X46602044Y-63563502D01*
X46753490Y-63197878D01*
X46753490Y-62786130D01*
X46602797Y-62422325D01*
X46755000Y-62054874D01*
X46755000Y-61643126D01*
X46597431Y-61262720D01*
X46306280Y-60971569D01*
X45925874Y-60814000D01*
X45514126Y-60814000D01*
X45366440Y-60875173D01*
X45366440Y-60822000D01*
X45317157Y-60574235D01*
X45176809Y-60364191D01*
X44966765Y-60223843D01*
X44719000Y-60174560D01*
X43719000Y-60174560D01*
X43471235Y-60223843D01*
X43261191Y-60364191D01*
X43120843Y-60574235D01*
X43071560Y-60822000D01*
X43071560Y-61472000D01*
X43120843Y-61719765D01*
X43162427Y-61782000D01*
X43120843Y-61844235D01*
X43071560Y-62092000D01*
X43071560Y-62742000D01*
X43120843Y-62989765D01*
X43162427Y-63052000D01*
X43120843Y-63114235D01*
X43071560Y-63362000D01*
X43071560Y-64012000D01*
X43120843Y-64259765D01*
X43162427Y-64322000D01*
X43120843Y-64384235D01*
X43071560Y-64632000D01*
X43071560Y-65282000D01*
X43120843Y-65529765D01*
X43162427Y-65592000D01*
X43120843Y-65654235D01*
X43071560Y-65902000D01*
X43071560Y-66117001D01*
X42037000Y-66117001D01*
X42037000Y-58892750D01*
X43513000Y-58892750D01*
X43513000Y-59233310D01*
X43609673Y-59466699D01*
X43788302Y-59645327D01*
X44021691Y-59742000D01*
X44187250Y-59742000D01*
X44346000Y-59583250D01*
X44346000Y-58734000D01*
X43671750Y-58734000D01*
X43513000Y-58892750D01*
X42037000Y-58892750D01*
X42037000Y-57980690D01*
X43513000Y-57980690D01*
X43513000Y-58321250D01*
X43671750Y-58480000D01*
X44346000Y-58480000D01*
X44346000Y-57630750D01*
X44187250Y-57472000D01*
X44021691Y-57472000D01*
X43788302Y-57568673D01*
X43609673Y-57747301D01*
X43513000Y-57980690D01*
X42037000Y-57980690D01*
X42037000Y-55370000D01*
X44124486Y-55370000D01*
X44199333Y-55384888D01*
X44274180Y-55370000D01*
X44274185Y-55370000D01*
X44495870Y-55325904D01*
X44747262Y-55157929D01*
X44789664Y-55094470D01*
X45875451Y-54008684D01*
X46041523Y-54008684D01*
X46421929Y-53851115D01*
X46713080Y-53559964D01*
X46870649Y-53179558D01*
X46870649Y-52767810D01*
X46713080Y-52387404D01*
X46421929Y-52096253D01*
X46213598Y-52009960D01*
X46453267Y-51770291D01*
X46610836Y-51389885D01*
X46610836Y-51188457D01*
X47214036Y-50585258D01*
X47275403Y-50544254D01*
X47437852Y-50301132D01*
X47480498Y-50086737D01*
X47480498Y-50086733D01*
X47494896Y-50014349D01*
X47480498Y-49941965D01*
X47480498Y-47139324D01*
X47494896Y-47066940D01*
X47480498Y-46994556D01*
X47480498Y-46994553D01*
X47437852Y-46780158D01*
X47275403Y-46537036D01*
X47214035Y-46496031D01*
X46820447Y-46102444D01*
X46820447Y-45387126D01*
X48622000Y-45387126D01*
X48622000Y-45798874D01*
X48779569Y-46179280D01*
X49070720Y-46470431D01*
X49451126Y-46628000D01*
X49862874Y-46628000D01*
X50243280Y-46470431D01*
X50534431Y-46179280D01*
X50692000Y-45798874D01*
X50692000Y-45387126D01*
X50534431Y-45006720D01*
X50243280Y-44715569D01*
X49862874Y-44558000D01*
X49451126Y-44558000D01*
X49070720Y-44715569D01*
X48779569Y-45006720D01*
X48622000Y-45387126D01*
X46820447Y-45387126D01*
X46820447Y-40434126D01*
X48368000Y-40434126D01*
X48368000Y-40845874D01*
X48525569Y-41226280D01*
X48816720Y-41517431D01*
X49197126Y-41675000D01*
X49608874Y-41675000D01*
X49989280Y-41517431D01*
X50280431Y-41226280D01*
X50438000Y-40845874D01*
X50438000Y-40434126D01*
X50280431Y-40053720D01*
X49989280Y-39762569D01*
X49608874Y-39605000D01*
X49197126Y-39605000D01*
X48816720Y-39762569D01*
X48525569Y-40053720D01*
X48368000Y-40434126D01*
X46820447Y-40434126D01*
X46820447Y-40043759D01*
X46962878Y-39901328D01*
X47120447Y-39520922D01*
X47120447Y-39109174D01*
X46962878Y-38728768D01*
X46671727Y-38437617D01*
X46291321Y-38280048D01*
X45879573Y-38280048D01*
X45499167Y-38437617D01*
X45208016Y-38728768D01*
X45050447Y-39109174D01*
X45050447Y-39520922D01*
X45208016Y-39901328D01*
X45350448Y-40043760D01*
X45350447Y-46334506D01*
X45336049Y-46406890D01*
X45350447Y-46479274D01*
X45350447Y-46479277D01*
X45376164Y-46608564D01*
X45168066Y-46816662D01*
X45010497Y-47197068D01*
X45010497Y-47608816D01*
X45168066Y-47989222D01*
X45459217Y-48280373D01*
X45839623Y-48437942D01*
X46010499Y-48437942D01*
X46010498Y-49073595D01*
X45834156Y-48897253D01*
X45453750Y-48739684D01*
X45042002Y-48739684D01*
X44661596Y-48897253D01*
X44370445Y-49188404D01*
X44212876Y-49568810D01*
X44212876Y-49980558D01*
X44370445Y-50360964D01*
X44661596Y-50652115D01*
X44673787Y-50657165D01*
X44540836Y-50978137D01*
X44540836Y-51389885D01*
X44698405Y-51770291D01*
X44989556Y-52061442D01*
X45197887Y-52147735D01*
X44958218Y-52387404D01*
X44922249Y-52474241D01*
X44887068Y-52497748D01*
X44719093Y-52749140D01*
X44660108Y-53045677D01*
X44664877Y-53069654D01*
X43884532Y-53850000D01*
X42037000Y-53850000D01*
X42037000Y-38353066D01*
X42085127Y-38373001D01*
X42496875Y-38373001D01*
X42877281Y-38215432D01*
X43168432Y-37924281D01*
X43326001Y-37543875D01*
X43326001Y-37132127D01*
X43273396Y-37005126D01*
X47352000Y-37005126D01*
X47352000Y-37416874D01*
X47509569Y-37797280D01*
X47800720Y-38088431D01*
X48181126Y-38246000D01*
X48592874Y-38246000D01*
X48973280Y-38088431D01*
X49264431Y-37797280D01*
X49422000Y-37416874D01*
X49422000Y-37005126D01*
X49264431Y-36624720D01*
X48973280Y-36333569D01*
X48592874Y-36176000D01*
X48181126Y-36176000D01*
X47800720Y-36333569D01*
X47509569Y-36624720D01*
X47352000Y-37005126D01*
X43273396Y-37005126D01*
X43168432Y-36751721D01*
X42935314Y-36518603D01*
X43131280Y-36437431D01*
X43422431Y-36146280D01*
X43580000Y-35765874D01*
X43580000Y-35354126D01*
X43448492Y-35036637D01*
X43497145Y-35069146D01*
X43940000Y-35157235D01*
X44382854Y-35069146D01*
X44758289Y-34818289D01*
X45009146Y-34442855D01*
X45075000Y-34111783D01*
X45075000Y-33836904D01*
X45179044Y-33880000D01*
X45560956Y-33880000D01*
X45913797Y-33733849D01*
X46183849Y-33463797D01*
X46330000Y-33110956D01*
X46330000Y-32729044D01*
X46203250Y-32423040D01*
X46691976Y-32423040D01*
X46691976Y-32834788D01*
X46849545Y-33215194D01*
X47140696Y-33506345D01*
X47521102Y-33663914D01*
X47932850Y-33663914D01*
X48123311Y-33585022D01*
X48181720Y-33643431D01*
X48562126Y-33801000D01*
X48973874Y-33801000D01*
X49354280Y-33643431D01*
X49645431Y-33352280D01*
X49803000Y-32971874D01*
X49803000Y-32560126D01*
X49645431Y-32179720D01*
X49354280Y-31888569D01*
X48973874Y-31731000D01*
X48562126Y-31731000D01*
X48371665Y-31809892D01*
X48313256Y-31751483D01*
X47932850Y-31593914D01*
X47521102Y-31593914D01*
X47140696Y-31751483D01*
X46849545Y-32042634D01*
X46691976Y-32423040D01*
X46203250Y-32423040D01*
X46183849Y-32376203D01*
X45913797Y-32106151D01*
X45560956Y-31960000D01*
X45179044Y-31960000D01*
X44826203Y-32106151D01*
X44795281Y-32137073D01*
X44758289Y-32081711D01*
X44675000Y-32026059D01*
X44675000Y-30443941D01*
X44758289Y-30388289D01*
X45009146Y-30012855D01*
X45010708Y-30005000D01*
X51509292Y-30005000D01*
X51510854Y-30012854D01*
X51761711Y-30388289D01*
X51845000Y-30443941D01*
X51845001Y-32026059D01*
X51761712Y-32081711D01*
X51724720Y-32137074D01*
X51693797Y-32106151D01*
X51340956Y-31960000D01*
X50959044Y-31960000D01*
X50606203Y-32106151D01*
X50336151Y-32376203D01*
X50190000Y-32729044D01*
X50190000Y-33110956D01*
X50336151Y-33463797D01*
X50606203Y-33733849D01*
X50959044Y-33880000D01*
X51340956Y-33880000D01*
X51445000Y-33836904D01*
X51445000Y-34111782D01*
X51510854Y-34442854D01*
X51761711Y-34818289D01*
X52137145Y-35069146D01*
X52580000Y-35157235D01*
X53022854Y-35069146D01*
X53398289Y-34818289D01*
X53649146Y-34442855D01*
X53715000Y-34111783D01*
X53715000Y-32788217D01*
X53649146Y-32457145D01*
X53398289Y-32081711D01*
X53315000Y-32026059D01*
X53315000Y-30443941D01*
X53398289Y-30388289D01*
X53649146Y-30012855D01*
X53715000Y-29681783D01*
X53715000Y-28858218D01*
X53649146Y-28527146D01*
X53398289Y-28151711D01*
X53022855Y-27900854D01*
X52580000Y-27812765D01*
X52137146Y-27900854D01*
X51761712Y-28151711D01*
X51510854Y-28527145D01*
X51509292Y-28535000D01*
X45010708Y-28535000D01*
X45009146Y-28527146D01*
X44758289Y-28151711D01*
X44382855Y-27900854D01*
X43940000Y-27812765D01*
X43497146Y-27900854D01*
X43121712Y-28151711D01*
X42870854Y-28527145D01*
X42805000Y-28858217D01*
X42805000Y-29681782D01*
X42870854Y-30012854D01*
X43121711Y-30388289D01*
X43205000Y-30443941D01*
X43205001Y-32026059D01*
X43121712Y-32081711D01*
X42870854Y-32457145D01*
X42805000Y-32788217D01*
X42805000Y-34111782D01*
X42870854Y-34442854D01*
X42992661Y-34625151D01*
X42750874Y-34525000D01*
X42339126Y-34525000D01*
X42037000Y-34650144D01*
X42037000Y-27380000D01*
X54483000Y-27380000D01*
X54483000Y-36176000D01*
G04 #@! TD*
M02*
