G04 #@! TF.GenerationSoftware,KiCad,Pcbnew,(5.0.0)*
G04 #@! TF.CreationDate,2020-11-24T21:09:57-06:00*
G04 #@! TF.ProjectId,BlueMacro,426C75654D6163726F2E6B696361645F,rev?*
G04 #@! TF.SameCoordinates,Original*
G04 #@! TF.FileFunction,Soldermask,Top*
G04 #@! TF.FilePolarity,Negative*
%FSLAX46Y46*%
G04 Gerber Fmt 4.6, Leading zero omitted, Abs format (unit mm)*
G04 Created by KiCad (PCBNEW (5.0.0)) date 11/24/20 21:09:57*
%MOMM*%
%LPD*%
G01*
G04 APERTURE LIST*
%ADD10C,1.670000*%
%ADD11R,1.650000X1.650000*%
%ADD12R,1.300000X1.600000*%
%ADD13R,2.100000X2.100000*%
%ADD14O,2.100000X2.100000*%
%ADD15O,1.400000X2.000000*%
%ADD16O,1.400000X2.500000*%
%ADD17C,1.050000*%
%ADD18R,0.700000X1.850000*%
%ADD19R,1.000000X1.850000*%
%ADD20C,0.100000*%
%ADD21C,1.375000*%
%ADD22R,1.200000X1.300000*%
%ADD23R,1.050000X1.460000*%
%ADD24R,1.400000X2.200000*%
%ADD25R,1.050000X1.400000*%
%ADD26R,1.400000X1.050000*%
%ADD27C,1.500000*%
%ADD28C,1.275000*%
G04 APERTURE END LIST*
D10*
G04 #@! TO.C,U4*
X55880000Y-27940000D03*
X40640000Y-27940000D03*
X55880000Y-73660000D03*
X40640000Y-73660000D03*
X40640000Y-71120000D03*
X40640000Y-68580000D03*
X40640000Y-66040000D03*
X40640000Y-63500000D03*
X40640000Y-60960000D03*
X40640000Y-53340000D03*
X40640000Y-50800000D03*
X40640000Y-48260000D03*
X40640000Y-55880000D03*
X40640000Y-58420000D03*
D11*
X55880000Y-71120000D03*
D10*
X55880000Y-68580000D03*
X55880000Y-66040000D03*
X55880000Y-63500000D03*
X55880000Y-60960000D03*
X55880000Y-58420000D03*
X55880000Y-55880000D03*
X55880000Y-53340000D03*
X55880000Y-50800000D03*
X55880000Y-48260000D03*
X55880000Y-45720000D03*
X55880000Y-43180000D03*
X40640000Y-45720000D03*
X40640000Y-43180000D03*
X40640000Y-40640000D03*
X40640000Y-38100000D03*
X40640000Y-35560000D03*
X40640000Y-33020000D03*
X40640000Y-30480000D03*
X55880000Y-30480000D03*
X55880000Y-33020000D03*
X55880000Y-35560000D03*
X55880000Y-38100000D03*
X55880000Y-40640000D03*
G04 #@! TD*
D12*
G04 #@! TO.C,D1*
X46610000Y-37084000D03*
X49910000Y-37084000D03*
G04 #@! TD*
D13*
G04 #@! TO.C,J1*
X53340000Y-44450000D03*
D14*
X53340000Y-46990000D03*
G04 #@! TD*
D15*
G04 #@! TO.C,J3*
X43940000Y-29270000D03*
X52580000Y-29270000D03*
D16*
X43940000Y-33450000D03*
X52580000Y-33450000D03*
D17*
X51150000Y-32920000D03*
X45370000Y-32920000D03*
D18*
X48510000Y-34365000D03*
X48010000Y-34365000D03*
X47510000Y-34365000D03*
X49010000Y-34365000D03*
X47010000Y-34365000D03*
X49510000Y-34365000D03*
X46510000Y-34365000D03*
X50010000Y-34365000D03*
D19*
X50710000Y-34365000D03*
X45810000Y-34365000D03*
X51485000Y-34365000D03*
X45035000Y-34365000D03*
G04 #@! TD*
D20*
G04 #@! TO.C,L1*
G36*
X43714443Y-53711655D02*
X43747812Y-53716605D01*
X43780535Y-53724802D01*
X43812297Y-53736166D01*
X43842793Y-53750590D01*
X43871727Y-53767932D01*
X43898823Y-53788028D01*
X43923818Y-53810682D01*
X43946472Y-53835677D01*
X43966568Y-53862773D01*
X43983910Y-53891707D01*
X43998334Y-53922203D01*
X44009698Y-53953965D01*
X44017895Y-53986688D01*
X44022845Y-54020057D01*
X44024500Y-54053750D01*
X44024500Y-55166250D01*
X44022845Y-55199943D01*
X44017895Y-55233312D01*
X44009698Y-55266035D01*
X43998334Y-55297797D01*
X43983910Y-55328293D01*
X43966568Y-55357227D01*
X43946472Y-55384323D01*
X43923818Y-55409318D01*
X43898823Y-55431972D01*
X43871727Y-55452068D01*
X43842793Y-55469410D01*
X43812297Y-55483834D01*
X43780535Y-55495198D01*
X43747812Y-55503395D01*
X43714443Y-55508345D01*
X43680750Y-55510000D01*
X42993250Y-55510000D01*
X42959557Y-55508345D01*
X42926188Y-55503395D01*
X42893465Y-55495198D01*
X42861703Y-55483834D01*
X42831207Y-55469410D01*
X42802273Y-55452068D01*
X42775177Y-55431972D01*
X42750182Y-55409318D01*
X42727528Y-55384323D01*
X42707432Y-55357227D01*
X42690090Y-55328293D01*
X42675666Y-55297797D01*
X42664302Y-55266035D01*
X42656105Y-55233312D01*
X42651155Y-55199943D01*
X42649500Y-55166250D01*
X42649500Y-54053750D01*
X42651155Y-54020057D01*
X42656105Y-53986688D01*
X42664302Y-53953965D01*
X42675666Y-53922203D01*
X42690090Y-53891707D01*
X42707432Y-53862773D01*
X42727528Y-53835677D01*
X42750182Y-53810682D01*
X42775177Y-53788028D01*
X42802273Y-53767932D01*
X42831207Y-53750590D01*
X42861703Y-53736166D01*
X42893465Y-53724802D01*
X42926188Y-53716605D01*
X42959557Y-53711655D01*
X42993250Y-53710000D01*
X43680750Y-53710000D01*
X43714443Y-53711655D01*
X43714443Y-53711655D01*
G37*
D21*
X43337000Y-54610000D03*
D20*
G36*
X45589443Y-53711655D02*
X45622812Y-53716605D01*
X45655535Y-53724802D01*
X45687297Y-53736166D01*
X45717793Y-53750590D01*
X45746727Y-53767932D01*
X45773823Y-53788028D01*
X45798818Y-53810682D01*
X45821472Y-53835677D01*
X45841568Y-53862773D01*
X45858910Y-53891707D01*
X45873334Y-53922203D01*
X45884698Y-53953965D01*
X45892895Y-53986688D01*
X45897845Y-54020057D01*
X45899500Y-54053750D01*
X45899500Y-55166250D01*
X45897845Y-55199943D01*
X45892895Y-55233312D01*
X45884698Y-55266035D01*
X45873334Y-55297797D01*
X45858910Y-55328293D01*
X45841568Y-55357227D01*
X45821472Y-55384323D01*
X45798818Y-55409318D01*
X45773823Y-55431972D01*
X45746727Y-55452068D01*
X45717793Y-55469410D01*
X45687297Y-55483834D01*
X45655535Y-55495198D01*
X45622812Y-55503395D01*
X45589443Y-55508345D01*
X45555750Y-55510000D01*
X44868250Y-55510000D01*
X44834557Y-55508345D01*
X44801188Y-55503395D01*
X44768465Y-55495198D01*
X44736703Y-55483834D01*
X44706207Y-55469410D01*
X44677273Y-55452068D01*
X44650177Y-55431972D01*
X44625182Y-55409318D01*
X44602528Y-55384323D01*
X44582432Y-55357227D01*
X44565090Y-55328293D01*
X44550666Y-55297797D01*
X44539302Y-55266035D01*
X44531105Y-55233312D01*
X44526155Y-55199943D01*
X44524500Y-55166250D01*
X44524500Y-54053750D01*
X44526155Y-54020057D01*
X44531105Y-53986688D01*
X44539302Y-53953965D01*
X44550666Y-53922203D01*
X44565090Y-53891707D01*
X44582432Y-53862773D01*
X44602528Y-53835677D01*
X44625182Y-53810682D01*
X44650177Y-53788028D01*
X44677273Y-53767932D01*
X44706207Y-53750590D01*
X44736703Y-53736166D01*
X44768465Y-53724802D01*
X44801188Y-53716605D01*
X44834557Y-53711655D01*
X44868250Y-53710000D01*
X45555750Y-53710000D01*
X45589443Y-53711655D01*
X45589443Y-53711655D01*
G37*
D21*
X45212000Y-54610000D03*
G04 #@! TD*
D22*
G04 #@! TO.C,Q1*
X49210000Y-39132000D03*
X47310000Y-39132000D03*
X48260000Y-41132000D03*
G04 #@! TD*
D23*
G04 #@! TO.C,U1*
X46802000Y-46398000D03*
X48702000Y-46398000D03*
X48702000Y-48598000D03*
X47752000Y-48598000D03*
X46802000Y-48598000D03*
G04 #@! TD*
G04 #@! TO.C,U3*
X48702000Y-50505000D03*
X47752000Y-50505000D03*
X46802000Y-50505000D03*
X46802000Y-52705000D03*
X48702000Y-52705000D03*
G04 #@! TD*
D24*
G04 #@! TO.C,Y1*
X53594000Y-54356000D03*
X51094000Y-54356000D03*
G04 #@! TD*
D25*
G04 #@! TO.C,U2*
X48283000Y-58607000D03*
X44473000Y-58607000D03*
X45743000Y-58607000D03*
X49553000Y-58607000D03*
X47013000Y-58607000D03*
X52093000Y-58607000D03*
X50823000Y-58607000D03*
D26*
X44219000Y-70037000D03*
X44219000Y-68767000D03*
X44219000Y-67497000D03*
X44219000Y-66227000D03*
X44219000Y-64957000D03*
X44219000Y-63687000D03*
X44219000Y-62417000D03*
D25*
X47650000Y-56896000D03*
X43840000Y-56896000D03*
X48920000Y-56896000D03*
X50190000Y-56896000D03*
X51460000Y-56896000D03*
X46380000Y-56896000D03*
X52730000Y-56896000D03*
X45110000Y-56896000D03*
D26*
X42141000Y-59115000D03*
X42141000Y-60385000D03*
X42141000Y-65465000D03*
X42141000Y-61655000D03*
X42141000Y-66735000D03*
X42141000Y-68005000D03*
X42141000Y-69275000D03*
X42141000Y-64195000D03*
X42141000Y-70545000D03*
X42141000Y-62925000D03*
X54379000Y-70545000D03*
X54379000Y-69275000D03*
X54379000Y-68005000D03*
X54379000Y-66735000D03*
X54379000Y-65465000D03*
X54379000Y-64195000D03*
X54379000Y-62925000D03*
X54379000Y-61655000D03*
X54379000Y-60385000D03*
X54379000Y-59115000D03*
X44219000Y-61147000D03*
G04 #@! TD*
D27*
G04 #@! TO.C,TP1*
X39243000Y-59690000D03*
D20*
G36*
X39243000Y-60750660D02*
X38182340Y-59690000D01*
X39243000Y-58629340D01*
X40303660Y-59690000D01*
X39243000Y-60750660D01*
X39243000Y-60750660D01*
G37*
G04 #@! TD*
D27*
G04 #@! TO.C,TP2*
X39243000Y-62230000D03*
D20*
G36*
X39243000Y-63290660D02*
X38182340Y-62230000D01*
X39243000Y-61169340D01*
X40303660Y-62230000D01*
X39243000Y-63290660D01*
X39243000Y-63290660D01*
G37*
G04 #@! TD*
D27*
G04 #@! TO.C,TP3*
X39243000Y-64770000D03*
D20*
G36*
X39243000Y-65830660D02*
X38182340Y-64770000D01*
X39243000Y-63709340D01*
X40303660Y-64770000D01*
X39243000Y-65830660D01*
X39243000Y-65830660D01*
G37*
G04 #@! TD*
D27*
G04 #@! TO.C,TP4*
X39243000Y-67310000D03*
D20*
G36*
X39243000Y-68370660D02*
X38182340Y-67310000D01*
X39243000Y-66249340D01*
X40303660Y-67310000D01*
X39243000Y-68370660D01*
X39243000Y-68370660D01*
G37*
G04 #@! TD*
D23*
G04 #@! TO.C,U5*
X43246000Y-48598000D03*
X44196000Y-48598000D03*
X45146000Y-48598000D03*
X45146000Y-46398000D03*
X43246000Y-46398000D03*
G04 #@! TD*
D20*
G04 #@! TO.C,C1*
G36*
X53981493Y-49859035D02*
X54012435Y-49863625D01*
X54042778Y-49871225D01*
X54072230Y-49881763D01*
X54100508Y-49895138D01*
X54127338Y-49911219D01*
X54152463Y-49929853D01*
X54175640Y-49950860D01*
X54196647Y-49974037D01*
X54215281Y-49999162D01*
X54231362Y-50025992D01*
X54244737Y-50054270D01*
X54255275Y-50083722D01*
X54262875Y-50114065D01*
X54267465Y-50145007D01*
X54269000Y-50176250D01*
X54269000Y-50813750D01*
X54267465Y-50844993D01*
X54262875Y-50875935D01*
X54255275Y-50906278D01*
X54244737Y-50935730D01*
X54231362Y-50964008D01*
X54215281Y-50990838D01*
X54196647Y-51015963D01*
X54175640Y-51039140D01*
X54152463Y-51060147D01*
X54127338Y-51078781D01*
X54100508Y-51094862D01*
X54072230Y-51108237D01*
X54042778Y-51118775D01*
X54012435Y-51126375D01*
X53981493Y-51130965D01*
X53950250Y-51132500D01*
X53237750Y-51132500D01*
X53206507Y-51130965D01*
X53175565Y-51126375D01*
X53145222Y-51118775D01*
X53115770Y-51108237D01*
X53087492Y-51094862D01*
X53060662Y-51078781D01*
X53035537Y-51060147D01*
X53012360Y-51039140D01*
X52991353Y-51015963D01*
X52972719Y-50990838D01*
X52956638Y-50964008D01*
X52943263Y-50935730D01*
X52932725Y-50906278D01*
X52925125Y-50875935D01*
X52920535Y-50844993D01*
X52919000Y-50813750D01*
X52919000Y-50176250D01*
X52920535Y-50145007D01*
X52925125Y-50114065D01*
X52932725Y-50083722D01*
X52943263Y-50054270D01*
X52956638Y-50025992D01*
X52972719Y-49999162D01*
X52991353Y-49974037D01*
X53012360Y-49950860D01*
X53035537Y-49929853D01*
X53060662Y-49911219D01*
X53087492Y-49895138D01*
X53115770Y-49881763D01*
X53145222Y-49871225D01*
X53175565Y-49863625D01*
X53206507Y-49859035D01*
X53237750Y-49857500D01*
X53950250Y-49857500D01*
X53981493Y-49859035D01*
X53981493Y-49859035D01*
G37*
D28*
X53594000Y-50495000D03*
D20*
G36*
X53981493Y-51434035D02*
X54012435Y-51438625D01*
X54042778Y-51446225D01*
X54072230Y-51456763D01*
X54100508Y-51470138D01*
X54127338Y-51486219D01*
X54152463Y-51504853D01*
X54175640Y-51525860D01*
X54196647Y-51549037D01*
X54215281Y-51574162D01*
X54231362Y-51600992D01*
X54244737Y-51629270D01*
X54255275Y-51658722D01*
X54262875Y-51689065D01*
X54267465Y-51720007D01*
X54269000Y-51751250D01*
X54269000Y-52388750D01*
X54267465Y-52419993D01*
X54262875Y-52450935D01*
X54255275Y-52481278D01*
X54244737Y-52510730D01*
X54231362Y-52539008D01*
X54215281Y-52565838D01*
X54196647Y-52590963D01*
X54175640Y-52614140D01*
X54152463Y-52635147D01*
X54127338Y-52653781D01*
X54100508Y-52669862D01*
X54072230Y-52683237D01*
X54042778Y-52693775D01*
X54012435Y-52701375D01*
X53981493Y-52705965D01*
X53950250Y-52707500D01*
X53237750Y-52707500D01*
X53206507Y-52705965D01*
X53175565Y-52701375D01*
X53145222Y-52693775D01*
X53115770Y-52683237D01*
X53087492Y-52669862D01*
X53060662Y-52653781D01*
X53035537Y-52635147D01*
X53012360Y-52614140D01*
X52991353Y-52590963D01*
X52972719Y-52565838D01*
X52956638Y-52539008D01*
X52943263Y-52510730D01*
X52932725Y-52481278D01*
X52925125Y-52450935D01*
X52920535Y-52419993D01*
X52919000Y-52388750D01*
X52919000Y-51751250D01*
X52920535Y-51720007D01*
X52925125Y-51689065D01*
X52932725Y-51658722D01*
X52943263Y-51629270D01*
X52956638Y-51600992D01*
X52972719Y-51574162D01*
X52991353Y-51549037D01*
X53012360Y-51525860D01*
X53035537Y-51504853D01*
X53060662Y-51486219D01*
X53087492Y-51470138D01*
X53115770Y-51456763D01*
X53145222Y-51446225D01*
X53175565Y-51438625D01*
X53206507Y-51434035D01*
X53237750Y-51432500D01*
X53950250Y-51432500D01*
X53981493Y-51434035D01*
X53981493Y-51434035D01*
G37*
D28*
X53594000Y-52070000D03*
G04 #@! TD*
D20*
G04 #@! TO.C,C2*
G36*
X52203493Y-51434035D02*
X52234435Y-51438625D01*
X52264778Y-51446225D01*
X52294230Y-51456763D01*
X52322508Y-51470138D01*
X52349338Y-51486219D01*
X52374463Y-51504853D01*
X52397640Y-51525860D01*
X52418647Y-51549037D01*
X52437281Y-51574162D01*
X52453362Y-51600992D01*
X52466737Y-51629270D01*
X52477275Y-51658722D01*
X52484875Y-51689065D01*
X52489465Y-51720007D01*
X52491000Y-51751250D01*
X52491000Y-52388750D01*
X52489465Y-52419993D01*
X52484875Y-52450935D01*
X52477275Y-52481278D01*
X52466737Y-52510730D01*
X52453362Y-52539008D01*
X52437281Y-52565838D01*
X52418647Y-52590963D01*
X52397640Y-52614140D01*
X52374463Y-52635147D01*
X52349338Y-52653781D01*
X52322508Y-52669862D01*
X52294230Y-52683237D01*
X52264778Y-52693775D01*
X52234435Y-52701375D01*
X52203493Y-52705965D01*
X52172250Y-52707500D01*
X51459750Y-52707500D01*
X51428507Y-52705965D01*
X51397565Y-52701375D01*
X51367222Y-52693775D01*
X51337770Y-52683237D01*
X51309492Y-52669862D01*
X51282662Y-52653781D01*
X51257537Y-52635147D01*
X51234360Y-52614140D01*
X51213353Y-52590963D01*
X51194719Y-52565838D01*
X51178638Y-52539008D01*
X51165263Y-52510730D01*
X51154725Y-52481278D01*
X51147125Y-52450935D01*
X51142535Y-52419993D01*
X51141000Y-52388750D01*
X51141000Y-51751250D01*
X51142535Y-51720007D01*
X51147125Y-51689065D01*
X51154725Y-51658722D01*
X51165263Y-51629270D01*
X51178638Y-51600992D01*
X51194719Y-51574162D01*
X51213353Y-51549037D01*
X51234360Y-51525860D01*
X51257537Y-51504853D01*
X51282662Y-51486219D01*
X51309492Y-51470138D01*
X51337770Y-51456763D01*
X51367222Y-51446225D01*
X51397565Y-51438625D01*
X51428507Y-51434035D01*
X51459750Y-51432500D01*
X52172250Y-51432500D01*
X52203493Y-51434035D01*
X52203493Y-51434035D01*
G37*
D28*
X51816000Y-52070000D03*
D20*
G36*
X52203493Y-49859035D02*
X52234435Y-49863625D01*
X52264778Y-49871225D01*
X52294230Y-49881763D01*
X52322508Y-49895138D01*
X52349338Y-49911219D01*
X52374463Y-49929853D01*
X52397640Y-49950860D01*
X52418647Y-49974037D01*
X52437281Y-49999162D01*
X52453362Y-50025992D01*
X52466737Y-50054270D01*
X52477275Y-50083722D01*
X52484875Y-50114065D01*
X52489465Y-50145007D01*
X52491000Y-50176250D01*
X52491000Y-50813750D01*
X52489465Y-50844993D01*
X52484875Y-50875935D01*
X52477275Y-50906278D01*
X52466737Y-50935730D01*
X52453362Y-50964008D01*
X52437281Y-50990838D01*
X52418647Y-51015963D01*
X52397640Y-51039140D01*
X52374463Y-51060147D01*
X52349338Y-51078781D01*
X52322508Y-51094862D01*
X52294230Y-51108237D01*
X52264778Y-51118775D01*
X52234435Y-51126375D01*
X52203493Y-51130965D01*
X52172250Y-51132500D01*
X51459750Y-51132500D01*
X51428507Y-51130965D01*
X51397565Y-51126375D01*
X51367222Y-51118775D01*
X51337770Y-51108237D01*
X51309492Y-51094862D01*
X51282662Y-51078781D01*
X51257537Y-51060147D01*
X51234360Y-51039140D01*
X51213353Y-51015963D01*
X51194719Y-50990838D01*
X51178638Y-50964008D01*
X51165263Y-50935730D01*
X51154725Y-50906278D01*
X51147125Y-50875935D01*
X51142535Y-50844993D01*
X51141000Y-50813750D01*
X51141000Y-50176250D01*
X51142535Y-50145007D01*
X51147125Y-50114065D01*
X51154725Y-50083722D01*
X51165263Y-50054270D01*
X51178638Y-50025992D01*
X51194719Y-49999162D01*
X51213353Y-49974037D01*
X51234360Y-49950860D01*
X51257537Y-49929853D01*
X51282662Y-49911219D01*
X51309492Y-49895138D01*
X51337770Y-49881763D01*
X51367222Y-49871225D01*
X51397565Y-49863625D01*
X51428507Y-49859035D01*
X51459750Y-49857500D01*
X52172250Y-49857500D01*
X52203493Y-49859035D01*
X52203493Y-49859035D01*
G37*
D28*
X51816000Y-50495000D03*
G04 #@! TD*
D20*
G04 #@! TO.C,C3*
G36*
X50679493Y-49859035D02*
X50710435Y-49863625D01*
X50740778Y-49871225D01*
X50770230Y-49881763D01*
X50798508Y-49895138D01*
X50825338Y-49911219D01*
X50850463Y-49929853D01*
X50873640Y-49950860D01*
X50894647Y-49974037D01*
X50913281Y-49999162D01*
X50929362Y-50025992D01*
X50942737Y-50054270D01*
X50953275Y-50083722D01*
X50960875Y-50114065D01*
X50965465Y-50145007D01*
X50967000Y-50176250D01*
X50967000Y-50813750D01*
X50965465Y-50844993D01*
X50960875Y-50875935D01*
X50953275Y-50906278D01*
X50942737Y-50935730D01*
X50929362Y-50964008D01*
X50913281Y-50990838D01*
X50894647Y-51015963D01*
X50873640Y-51039140D01*
X50850463Y-51060147D01*
X50825338Y-51078781D01*
X50798508Y-51094862D01*
X50770230Y-51108237D01*
X50740778Y-51118775D01*
X50710435Y-51126375D01*
X50679493Y-51130965D01*
X50648250Y-51132500D01*
X49935750Y-51132500D01*
X49904507Y-51130965D01*
X49873565Y-51126375D01*
X49843222Y-51118775D01*
X49813770Y-51108237D01*
X49785492Y-51094862D01*
X49758662Y-51078781D01*
X49733537Y-51060147D01*
X49710360Y-51039140D01*
X49689353Y-51015963D01*
X49670719Y-50990838D01*
X49654638Y-50964008D01*
X49641263Y-50935730D01*
X49630725Y-50906278D01*
X49623125Y-50875935D01*
X49618535Y-50844993D01*
X49617000Y-50813750D01*
X49617000Y-50176250D01*
X49618535Y-50145007D01*
X49623125Y-50114065D01*
X49630725Y-50083722D01*
X49641263Y-50054270D01*
X49654638Y-50025992D01*
X49670719Y-49999162D01*
X49689353Y-49974037D01*
X49710360Y-49950860D01*
X49733537Y-49929853D01*
X49758662Y-49911219D01*
X49785492Y-49895138D01*
X49813770Y-49881763D01*
X49843222Y-49871225D01*
X49873565Y-49863625D01*
X49904507Y-49859035D01*
X49935750Y-49857500D01*
X50648250Y-49857500D01*
X50679493Y-49859035D01*
X50679493Y-49859035D01*
G37*
D28*
X50292000Y-50495000D03*
D20*
G36*
X50679493Y-51434035D02*
X50710435Y-51438625D01*
X50740778Y-51446225D01*
X50770230Y-51456763D01*
X50798508Y-51470138D01*
X50825338Y-51486219D01*
X50850463Y-51504853D01*
X50873640Y-51525860D01*
X50894647Y-51549037D01*
X50913281Y-51574162D01*
X50929362Y-51600992D01*
X50942737Y-51629270D01*
X50953275Y-51658722D01*
X50960875Y-51689065D01*
X50965465Y-51720007D01*
X50967000Y-51751250D01*
X50967000Y-52388750D01*
X50965465Y-52419993D01*
X50960875Y-52450935D01*
X50953275Y-52481278D01*
X50942737Y-52510730D01*
X50929362Y-52539008D01*
X50913281Y-52565838D01*
X50894647Y-52590963D01*
X50873640Y-52614140D01*
X50850463Y-52635147D01*
X50825338Y-52653781D01*
X50798508Y-52669862D01*
X50770230Y-52683237D01*
X50740778Y-52693775D01*
X50710435Y-52701375D01*
X50679493Y-52705965D01*
X50648250Y-52707500D01*
X49935750Y-52707500D01*
X49904507Y-52705965D01*
X49873565Y-52701375D01*
X49843222Y-52693775D01*
X49813770Y-52683237D01*
X49785492Y-52669862D01*
X49758662Y-52653781D01*
X49733537Y-52635147D01*
X49710360Y-52614140D01*
X49689353Y-52590963D01*
X49670719Y-52565838D01*
X49654638Y-52539008D01*
X49641263Y-52510730D01*
X49630725Y-52481278D01*
X49623125Y-52450935D01*
X49618535Y-52419993D01*
X49617000Y-52388750D01*
X49617000Y-51751250D01*
X49618535Y-51720007D01*
X49623125Y-51689065D01*
X49630725Y-51658722D01*
X49641263Y-51629270D01*
X49654638Y-51600992D01*
X49670719Y-51574162D01*
X49689353Y-51549037D01*
X49710360Y-51525860D01*
X49733537Y-51504853D01*
X49758662Y-51486219D01*
X49785492Y-51470138D01*
X49813770Y-51456763D01*
X49843222Y-51446225D01*
X49873565Y-51438625D01*
X49904507Y-51434035D01*
X49935750Y-51432500D01*
X50648250Y-51432500D01*
X50679493Y-51434035D01*
X50679493Y-51434035D01*
G37*
D28*
X50292000Y-52070000D03*
G04 #@! TD*
D20*
G04 #@! TO.C,C4*
G36*
X50933493Y-44093535D02*
X50964435Y-44098125D01*
X50994778Y-44105725D01*
X51024230Y-44116263D01*
X51052508Y-44129638D01*
X51079338Y-44145719D01*
X51104463Y-44164353D01*
X51127640Y-44185360D01*
X51148647Y-44208537D01*
X51167281Y-44233662D01*
X51183362Y-44260492D01*
X51196737Y-44288770D01*
X51207275Y-44318222D01*
X51214875Y-44348565D01*
X51219465Y-44379507D01*
X51221000Y-44410750D01*
X51221000Y-45048250D01*
X51219465Y-45079493D01*
X51214875Y-45110435D01*
X51207275Y-45140778D01*
X51196737Y-45170230D01*
X51183362Y-45198508D01*
X51167281Y-45225338D01*
X51148647Y-45250463D01*
X51127640Y-45273640D01*
X51104463Y-45294647D01*
X51079338Y-45313281D01*
X51052508Y-45329362D01*
X51024230Y-45342737D01*
X50994778Y-45353275D01*
X50964435Y-45360875D01*
X50933493Y-45365465D01*
X50902250Y-45367000D01*
X50189750Y-45367000D01*
X50158507Y-45365465D01*
X50127565Y-45360875D01*
X50097222Y-45353275D01*
X50067770Y-45342737D01*
X50039492Y-45329362D01*
X50012662Y-45313281D01*
X49987537Y-45294647D01*
X49964360Y-45273640D01*
X49943353Y-45250463D01*
X49924719Y-45225338D01*
X49908638Y-45198508D01*
X49895263Y-45170230D01*
X49884725Y-45140778D01*
X49877125Y-45110435D01*
X49872535Y-45079493D01*
X49871000Y-45048250D01*
X49871000Y-44410750D01*
X49872535Y-44379507D01*
X49877125Y-44348565D01*
X49884725Y-44318222D01*
X49895263Y-44288770D01*
X49908638Y-44260492D01*
X49924719Y-44233662D01*
X49943353Y-44208537D01*
X49964360Y-44185360D01*
X49987537Y-44164353D01*
X50012662Y-44145719D01*
X50039492Y-44129638D01*
X50067770Y-44116263D01*
X50097222Y-44105725D01*
X50127565Y-44098125D01*
X50158507Y-44093535D01*
X50189750Y-44092000D01*
X50902250Y-44092000D01*
X50933493Y-44093535D01*
X50933493Y-44093535D01*
G37*
D28*
X50546000Y-44729500D03*
D20*
G36*
X50933493Y-42518535D02*
X50964435Y-42523125D01*
X50994778Y-42530725D01*
X51024230Y-42541263D01*
X51052508Y-42554638D01*
X51079338Y-42570719D01*
X51104463Y-42589353D01*
X51127640Y-42610360D01*
X51148647Y-42633537D01*
X51167281Y-42658662D01*
X51183362Y-42685492D01*
X51196737Y-42713770D01*
X51207275Y-42743222D01*
X51214875Y-42773565D01*
X51219465Y-42804507D01*
X51221000Y-42835750D01*
X51221000Y-43473250D01*
X51219465Y-43504493D01*
X51214875Y-43535435D01*
X51207275Y-43565778D01*
X51196737Y-43595230D01*
X51183362Y-43623508D01*
X51167281Y-43650338D01*
X51148647Y-43675463D01*
X51127640Y-43698640D01*
X51104463Y-43719647D01*
X51079338Y-43738281D01*
X51052508Y-43754362D01*
X51024230Y-43767737D01*
X50994778Y-43778275D01*
X50964435Y-43785875D01*
X50933493Y-43790465D01*
X50902250Y-43792000D01*
X50189750Y-43792000D01*
X50158507Y-43790465D01*
X50127565Y-43785875D01*
X50097222Y-43778275D01*
X50067770Y-43767737D01*
X50039492Y-43754362D01*
X50012662Y-43738281D01*
X49987537Y-43719647D01*
X49964360Y-43698640D01*
X49943353Y-43675463D01*
X49924719Y-43650338D01*
X49908638Y-43623508D01*
X49895263Y-43595230D01*
X49884725Y-43565778D01*
X49877125Y-43535435D01*
X49872535Y-43504493D01*
X49871000Y-43473250D01*
X49871000Y-42835750D01*
X49872535Y-42804507D01*
X49877125Y-42773565D01*
X49884725Y-42743222D01*
X49895263Y-42713770D01*
X49908638Y-42685492D01*
X49924719Y-42658662D01*
X49943353Y-42633537D01*
X49964360Y-42610360D01*
X49987537Y-42589353D01*
X50012662Y-42570719D01*
X50039492Y-42554638D01*
X50067770Y-42541263D01*
X50097222Y-42530725D01*
X50127565Y-42523125D01*
X50158507Y-42518535D01*
X50189750Y-42517000D01*
X50902250Y-42517000D01*
X50933493Y-42518535D01*
X50933493Y-42518535D01*
G37*
D28*
X50546000Y-43154500D03*
G04 #@! TD*
D20*
G04 #@! TO.C,C5*
G36*
X47796993Y-53936535D02*
X47827935Y-53941125D01*
X47858278Y-53948725D01*
X47887730Y-53959263D01*
X47916008Y-53972638D01*
X47942838Y-53988719D01*
X47967963Y-54007353D01*
X47991140Y-54028360D01*
X48012147Y-54051537D01*
X48030781Y-54076662D01*
X48046862Y-54103492D01*
X48060237Y-54131770D01*
X48070775Y-54161222D01*
X48078375Y-54191565D01*
X48082965Y-54222507D01*
X48084500Y-54253750D01*
X48084500Y-54966250D01*
X48082965Y-54997493D01*
X48078375Y-55028435D01*
X48070775Y-55058778D01*
X48060237Y-55088230D01*
X48046862Y-55116508D01*
X48030781Y-55143338D01*
X48012147Y-55168463D01*
X47991140Y-55191640D01*
X47967963Y-55212647D01*
X47942838Y-55231281D01*
X47916008Y-55247362D01*
X47887730Y-55260737D01*
X47858278Y-55271275D01*
X47827935Y-55278875D01*
X47796993Y-55283465D01*
X47765750Y-55285000D01*
X47128250Y-55285000D01*
X47097007Y-55283465D01*
X47066065Y-55278875D01*
X47035722Y-55271275D01*
X47006270Y-55260737D01*
X46977992Y-55247362D01*
X46951162Y-55231281D01*
X46926037Y-55212647D01*
X46902860Y-55191640D01*
X46881853Y-55168463D01*
X46863219Y-55143338D01*
X46847138Y-55116508D01*
X46833763Y-55088230D01*
X46823225Y-55058778D01*
X46815625Y-55028435D01*
X46811035Y-54997493D01*
X46809500Y-54966250D01*
X46809500Y-54253750D01*
X46811035Y-54222507D01*
X46815625Y-54191565D01*
X46823225Y-54161222D01*
X46833763Y-54131770D01*
X46847138Y-54103492D01*
X46863219Y-54076662D01*
X46881853Y-54051537D01*
X46902860Y-54028360D01*
X46926037Y-54007353D01*
X46951162Y-53988719D01*
X46977992Y-53972638D01*
X47006270Y-53959263D01*
X47035722Y-53948725D01*
X47066065Y-53941125D01*
X47097007Y-53936535D01*
X47128250Y-53935000D01*
X47765750Y-53935000D01*
X47796993Y-53936535D01*
X47796993Y-53936535D01*
G37*
D28*
X47447000Y-54610000D03*
D20*
G36*
X49371993Y-53936535D02*
X49402935Y-53941125D01*
X49433278Y-53948725D01*
X49462730Y-53959263D01*
X49491008Y-53972638D01*
X49517838Y-53988719D01*
X49542963Y-54007353D01*
X49566140Y-54028360D01*
X49587147Y-54051537D01*
X49605781Y-54076662D01*
X49621862Y-54103492D01*
X49635237Y-54131770D01*
X49645775Y-54161222D01*
X49653375Y-54191565D01*
X49657965Y-54222507D01*
X49659500Y-54253750D01*
X49659500Y-54966250D01*
X49657965Y-54997493D01*
X49653375Y-55028435D01*
X49645775Y-55058778D01*
X49635237Y-55088230D01*
X49621862Y-55116508D01*
X49605781Y-55143338D01*
X49587147Y-55168463D01*
X49566140Y-55191640D01*
X49542963Y-55212647D01*
X49517838Y-55231281D01*
X49491008Y-55247362D01*
X49462730Y-55260737D01*
X49433278Y-55271275D01*
X49402935Y-55278875D01*
X49371993Y-55283465D01*
X49340750Y-55285000D01*
X48703250Y-55285000D01*
X48672007Y-55283465D01*
X48641065Y-55278875D01*
X48610722Y-55271275D01*
X48581270Y-55260737D01*
X48552992Y-55247362D01*
X48526162Y-55231281D01*
X48501037Y-55212647D01*
X48477860Y-55191640D01*
X48456853Y-55168463D01*
X48438219Y-55143338D01*
X48422138Y-55116508D01*
X48408763Y-55088230D01*
X48398225Y-55058778D01*
X48390625Y-55028435D01*
X48386035Y-54997493D01*
X48384500Y-54966250D01*
X48384500Y-54253750D01*
X48386035Y-54222507D01*
X48390625Y-54191565D01*
X48398225Y-54161222D01*
X48408763Y-54131770D01*
X48422138Y-54103492D01*
X48438219Y-54076662D01*
X48456853Y-54051537D01*
X48477860Y-54028360D01*
X48501037Y-54007353D01*
X48526162Y-53988719D01*
X48552992Y-53972638D01*
X48581270Y-53959263D01*
X48610722Y-53948725D01*
X48641065Y-53941125D01*
X48672007Y-53936535D01*
X48703250Y-53935000D01*
X49340750Y-53935000D01*
X49371993Y-53936535D01*
X49371993Y-53936535D01*
G37*
D28*
X49022000Y-54610000D03*
G04 #@! TD*
D20*
G04 #@! TO.C,C6*
G36*
X47377493Y-42518535D02*
X47408435Y-42523125D01*
X47438778Y-42530725D01*
X47468230Y-42541263D01*
X47496508Y-42554638D01*
X47523338Y-42570719D01*
X47548463Y-42589353D01*
X47571640Y-42610360D01*
X47592647Y-42633537D01*
X47611281Y-42658662D01*
X47627362Y-42685492D01*
X47640737Y-42713770D01*
X47651275Y-42743222D01*
X47658875Y-42773565D01*
X47663465Y-42804507D01*
X47665000Y-42835750D01*
X47665000Y-43473250D01*
X47663465Y-43504493D01*
X47658875Y-43535435D01*
X47651275Y-43565778D01*
X47640737Y-43595230D01*
X47627362Y-43623508D01*
X47611281Y-43650338D01*
X47592647Y-43675463D01*
X47571640Y-43698640D01*
X47548463Y-43719647D01*
X47523338Y-43738281D01*
X47496508Y-43754362D01*
X47468230Y-43767737D01*
X47438778Y-43778275D01*
X47408435Y-43785875D01*
X47377493Y-43790465D01*
X47346250Y-43792000D01*
X46633750Y-43792000D01*
X46602507Y-43790465D01*
X46571565Y-43785875D01*
X46541222Y-43778275D01*
X46511770Y-43767737D01*
X46483492Y-43754362D01*
X46456662Y-43738281D01*
X46431537Y-43719647D01*
X46408360Y-43698640D01*
X46387353Y-43675463D01*
X46368719Y-43650338D01*
X46352638Y-43623508D01*
X46339263Y-43595230D01*
X46328725Y-43565778D01*
X46321125Y-43535435D01*
X46316535Y-43504493D01*
X46315000Y-43473250D01*
X46315000Y-42835750D01*
X46316535Y-42804507D01*
X46321125Y-42773565D01*
X46328725Y-42743222D01*
X46339263Y-42713770D01*
X46352638Y-42685492D01*
X46368719Y-42658662D01*
X46387353Y-42633537D01*
X46408360Y-42610360D01*
X46431537Y-42589353D01*
X46456662Y-42570719D01*
X46483492Y-42554638D01*
X46511770Y-42541263D01*
X46541222Y-42530725D01*
X46571565Y-42523125D01*
X46602507Y-42518535D01*
X46633750Y-42517000D01*
X47346250Y-42517000D01*
X47377493Y-42518535D01*
X47377493Y-42518535D01*
G37*
D28*
X46990000Y-43154500D03*
D20*
G36*
X47377493Y-44093535D02*
X47408435Y-44098125D01*
X47438778Y-44105725D01*
X47468230Y-44116263D01*
X47496508Y-44129638D01*
X47523338Y-44145719D01*
X47548463Y-44164353D01*
X47571640Y-44185360D01*
X47592647Y-44208537D01*
X47611281Y-44233662D01*
X47627362Y-44260492D01*
X47640737Y-44288770D01*
X47651275Y-44318222D01*
X47658875Y-44348565D01*
X47663465Y-44379507D01*
X47665000Y-44410750D01*
X47665000Y-45048250D01*
X47663465Y-45079493D01*
X47658875Y-45110435D01*
X47651275Y-45140778D01*
X47640737Y-45170230D01*
X47627362Y-45198508D01*
X47611281Y-45225338D01*
X47592647Y-45250463D01*
X47571640Y-45273640D01*
X47548463Y-45294647D01*
X47523338Y-45313281D01*
X47496508Y-45329362D01*
X47468230Y-45342737D01*
X47438778Y-45353275D01*
X47408435Y-45360875D01*
X47377493Y-45365465D01*
X47346250Y-45367000D01*
X46633750Y-45367000D01*
X46602507Y-45365465D01*
X46571565Y-45360875D01*
X46541222Y-45353275D01*
X46511770Y-45342737D01*
X46483492Y-45329362D01*
X46456662Y-45313281D01*
X46431537Y-45294647D01*
X46408360Y-45273640D01*
X46387353Y-45250463D01*
X46368719Y-45225338D01*
X46352638Y-45198508D01*
X46339263Y-45170230D01*
X46328725Y-45140778D01*
X46321125Y-45110435D01*
X46316535Y-45079493D01*
X46315000Y-45048250D01*
X46315000Y-44410750D01*
X46316535Y-44379507D01*
X46321125Y-44348565D01*
X46328725Y-44318222D01*
X46339263Y-44288770D01*
X46352638Y-44260492D01*
X46368719Y-44233662D01*
X46387353Y-44208537D01*
X46408360Y-44185360D01*
X46431537Y-44164353D01*
X46456662Y-44145719D01*
X46483492Y-44129638D01*
X46511770Y-44116263D01*
X46541222Y-44105725D01*
X46571565Y-44098125D01*
X46602507Y-44093535D01*
X46633750Y-44092000D01*
X47346250Y-44092000D01*
X47377493Y-44093535D01*
X47377493Y-44093535D01*
G37*
D28*
X46990000Y-44729500D03*
G04 #@! TD*
D20*
G04 #@! TO.C,D2*
G36*
X45345493Y-40791535D02*
X45376435Y-40796125D01*
X45406778Y-40803725D01*
X45436230Y-40814263D01*
X45464508Y-40827638D01*
X45491338Y-40843719D01*
X45516463Y-40862353D01*
X45539640Y-40883360D01*
X45560647Y-40906537D01*
X45579281Y-40931662D01*
X45595362Y-40958492D01*
X45608737Y-40986770D01*
X45619275Y-41016222D01*
X45626875Y-41046565D01*
X45631465Y-41077507D01*
X45633000Y-41108750D01*
X45633000Y-41746250D01*
X45631465Y-41777493D01*
X45626875Y-41808435D01*
X45619275Y-41838778D01*
X45608737Y-41868230D01*
X45595362Y-41896508D01*
X45579281Y-41923338D01*
X45560647Y-41948463D01*
X45539640Y-41971640D01*
X45516463Y-41992647D01*
X45491338Y-42011281D01*
X45464508Y-42027362D01*
X45436230Y-42040737D01*
X45406778Y-42051275D01*
X45376435Y-42058875D01*
X45345493Y-42063465D01*
X45314250Y-42065000D01*
X44601750Y-42065000D01*
X44570507Y-42063465D01*
X44539565Y-42058875D01*
X44509222Y-42051275D01*
X44479770Y-42040737D01*
X44451492Y-42027362D01*
X44424662Y-42011281D01*
X44399537Y-41992647D01*
X44376360Y-41971640D01*
X44355353Y-41948463D01*
X44336719Y-41923338D01*
X44320638Y-41896508D01*
X44307263Y-41868230D01*
X44296725Y-41838778D01*
X44289125Y-41808435D01*
X44284535Y-41777493D01*
X44283000Y-41746250D01*
X44283000Y-41108750D01*
X44284535Y-41077507D01*
X44289125Y-41046565D01*
X44296725Y-41016222D01*
X44307263Y-40986770D01*
X44320638Y-40958492D01*
X44336719Y-40931662D01*
X44355353Y-40906537D01*
X44376360Y-40883360D01*
X44399537Y-40862353D01*
X44424662Y-40843719D01*
X44451492Y-40827638D01*
X44479770Y-40814263D01*
X44509222Y-40803725D01*
X44539565Y-40796125D01*
X44570507Y-40791535D01*
X44601750Y-40790000D01*
X45314250Y-40790000D01*
X45345493Y-40791535D01*
X45345493Y-40791535D01*
G37*
D28*
X44958000Y-41427500D03*
D20*
G36*
X45345493Y-39216535D02*
X45376435Y-39221125D01*
X45406778Y-39228725D01*
X45436230Y-39239263D01*
X45464508Y-39252638D01*
X45491338Y-39268719D01*
X45516463Y-39287353D01*
X45539640Y-39308360D01*
X45560647Y-39331537D01*
X45579281Y-39356662D01*
X45595362Y-39383492D01*
X45608737Y-39411770D01*
X45619275Y-39441222D01*
X45626875Y-39471565D01*
X45631465Y-39502507D01*
X45633000Y-39533750D01*
X45633000Y-40171250D01*
X45631465Y-40202493D01*
X45626875Y-40233435D01*
X45619275Y-40263778D01*
X45608737Y-40293230D01*
X45595362Y-40321508D01*
X45579281Y-40348338D01*
X45560647Y-40373463D01*
X45539640Y-40396640D01*
X45516463Y-40417647D01*
X45491338Y-40436281D01*
X45464508Y-40452362D01*
X45436230Y-40465737D01*
X45406778Y-40476275D01*
X45376435Y-40483875D01*
X45345493Y-40488465D01*
X45314250Y-40490000D01*
X44601750Y-40490000D01*
X44570507Y-40488465D01*
X44539565Y-40483875D01*
X44509222Y-40476275D01*
X44479770Y-40465737D01*
X44451492Y-40452362D01*
X44424662Y-40436281D01*
X44399537Y-40417647D01*
X44376360Y-40396640D01*
X44355353Y-40373463D01*
X44336719Y-40348338D01*
X44320638Y-40321508D01*
X44307263Y-40293230D01*
X44296725Y-40263778D01*
X44289125Y-40233435D01*
X44284535Y-40202493D01*
X44283000Y-40171250D01*
X44283000Y-39533750D01*
X44284535Y-39502507D01*
X44289125Y-39471565D01*
X44296725Y-39441222D01*
X44307263Y-39411770D01*
X44320638Y-39383492D01*
X44336719Y-39356662D01*
X44355353Y-39331537D01*
X44376360Y-39308360D01*
X44399537Y-39287353D01*
X44424662Y-39268719D01*
X44451492Y-39252638D01*
X44479770Y-39239263D01*
X44509222Y-39228725D01*
X44539565Y-39221125D01*
X44570507Y-39216535D01*
X44601750Y-39215000D01*
X45314250Y-39215000D01*
X45345493Y-39216535D01*
X45345493Y-39216535D01*
G37*
D28*
X44958000Y-39852500D03*
G04 #@! TD*
D20*
G04 #@! TO.C,D3*
G36*
X43567493Y-35914535D02*
X43598435Y-35919125D01*
X43628778Y-35926725D01*
X43658230Y-35937263D01*
X43686508Y-35950638D01*
X43713338Y-35966719D01*
X43738463Y-35985353D01*
X43761640Y-36006360D01*
X43782647Y-36029537D01*
X43801281Y-36054662D01*
X43817362Y-36081492D01*
X43830737Y-36109770D01*
X43841275Y-36139222D01*
X43848875Y-36169565D01*
X43853465Y-36200507D01*
X43855000Y-36231750D01*
X43855000Y-36869250D01*
X43853465Y-36900493D01*
X43848875Y-36931435D01*
X43841275Y-36961778D01*
X43830737Y-36991230D01*
X43817362Y-37019508D01*
X43801281Y-37046338D01*
X43782647Y-37071463D01*
X43761640Y-37094640D01*
X43738463Y-37115647D01*
X43713338Y-37134281D01*
X43686508Y-37150362D01*
X43658230Y-37163737D01*
X43628778Y-37174275D01*
X43598435Y-37181875D01*
X43567493Y-37186465D01*
X43536250Y-37188000D01*
X42823750Y-37188000D01*
X42792507Y-37186465D01*
X42761565Y-37181875D01*
X42731222Y-37174275D01*
X42701770Y-37163737D01*
X42673492Y-37150362D01*
X42646662Y-37134281D01*
X42621537Y-37115647D01*
X42598360Y-37094640D01*
X42577353Y-37071463D01*
X42558719Y-37046338D01*
X42542638Y-37019508D01*
X42529263Y-36991230D01*
X42518725Y-36961778D01*
X42511125Y-36931435D01*
X42506535Y-36900493D01*
X42505000Y-36869250D01*
X42505000Y-36231750D01*
X42506535Y-36200507D01*
X42511125Y-36169565D01*
X42518725Y-36139222D01*
X42529263Y-36109770D01*
X42542638Y-36081492D01*
X42558719Y-36054662D01*
X42577353Y-36029537D01*
X42598360Y-36006360D01*
X42621537Y-35985353D01*
X42646662Y-35966719D01*
X42673492Y-35950638D01*
X42701770Y-35937263D01*
X42731222Y-35926725D01*
X42761565Y-35919125D01*
X42792507Y-35914535D01*
X42823750Y-35913000D01*
X43536250Y-35913000D01*
X43567493Y-35914535D01*
X43567493Y-35914535D01*
G37*
D28*
X43180000Y-36550500D03*
D20*
G36*
X43567493Y-37489535D02*
X43598435Y-37494125D01*
X43628778Y-37501725D01*
X43658230Y-37512263D01*
X43686508Y-37525638D01*
X43713338Y-37541719D01*
X43738463Y-37560353D01*
X43761640Y-37581360D01*
X43782647Y-37604537D01*
X43801281Y-37629662D01*
X43817362Y-37656492D01*
X43830737Y-37684770D01*
X43841275Y-37714222D01*
X43848875Y-37744565D01*
X43853465Y-37775507D01*
X43855000Y-37806750D01*
X43855000Y-38444250D01*
X43853465Y-38475493D01*
X43848875Y-38506435D01*
X43841275Y-38536778D01*
X43830737Y-38566230D01*
X43817362Y-38594508D01*
X43801281Y-38621338D01*
X43782647Y-38646463D01*
X43761640Y-38669640D01*
X43738463Y-38690647D01*
X43713338Y-38709281D01*
X43686508Y-38725362D01*
X43658230Y-38738737D01*
X43628778Y-38749275D01*
X43598435Y-38756875D01*
X43567493Y-38761465D01*
X43536250Y-38763000D01*
X42823750Y-38763000D01*
X42792507Y-38761465D01*
X42761565Y-38756875D01*
X42731222Y-38749275D01*
X42701770Y-38738737D01*
X42673492Y-38725362D01*
X42646662Y-38709281D01*
X42621537Y-38690647D01*
X42598360Y-38669640D01*
X42577353Y-38646463D01*
X42558719Y-38621338D01*
X42542638Y-38594508D01*
X42529263Y-38566230D01*
X42518725Y-38536778D01*
X42511125Y-38506435D01*
X42506535Y-38475493D01*
X42505000Y-38444250D01*
X42505000Y-37806750D01*
X42506535Y-37775507D01*
X42511125Y-37744565D01*
X42518725Y-37714222D01*
X42529263Y-37684770D01*
X42542638Y-37656492D01*
X42558719Y-37629662D01*
X42577353Y-37604537D01*
X42598360Y-37581360D01*
X42621537Y-37560353D01*
X42646662Y-37541719D01*
X42673492Y-37525638D01*
X42701770Y-37512263D01*
X42731222Y-37501725D01*
X42761565Y-37494125D01*
X42792507Y-37489535D01*
X42823750Y-37488000D01*
X43536250Y-37488000D01*
X43567493Y-37489535D01*
X43567493Y-37489535D01*
G37*
D28*
X43180000Y-38125500D03*
G04 #@! TD*
D20*
G04 #@! TO.C,D4*
G36*
X53727493Y-37489535D02*
X53758435Y-37494125D01*
X53788778Y-37501725D01*
X53818230Y-37512263D01*
X53846508Y-37525638D01*
X53873338Y-37541719D01*
X53898463Y-37560353D01*
X53921640Y-37581360D01*
X53942647Y-37604537D01*
X53961281Y-37629662D01*
X53977362Y-37656492D01*
X53990737Y-37684770D01*
X54001275Y-37714222D01*
X54008875Y-37744565D01*
X54013465Y-37775507D01*
X54015000Y-37806750D01*
X54015000Y-38444250D01*
X54013465Y-38475493D01*
X54008875Y-38506435D01*
X54001275Y-38536778D01*
X53990737Y-38566230D01*
X53977362Y-38594508D01*
X53961281Y-38621338D01*
X53942647Y-38646463D01*
X53921640Y-38669640D01*
X53898463Y-38690647D01*
X53873338Y-38709281D01*
X53846508Y-38725362D01*
X53818230Y-38738737D01*
X53788778Y-38749275D01*
X53758435Y-38756875D01*
X53727493Y-38761465D01*
X53696250Y-38763000D01*
X52983750Y-38763000D01*
X52952507Y-38761465D01*
X52921565Y-38756875D01*
X52891222Y-38749275D01*
X52861770Y-38738737D01*
X52833492Y-38725362D01*
X52806662Y-38709281D01*
X52781537Y-38690647D01*
X52758360Y-38669640D01*
X52737353Y-38646463D01*
X52718719Y-38621338D01*
X52702638Y-38594508D01*
X52689263Y-38566230D01*
X52678725Y-38536778D01*
X52671125Y-38506435D01*
X52666535Y-38475493D01*
X52665000Y-38444250D01*
X52665000Y-37806750D01*
X52666535Y-37775507D01*
X52671125Y-37744565D01*
X52678725Y-37714222D01*
X52689263Y-37684770D01*
X52702638Y-37656492D01*
X52718719Y-37629662D01*
X52737353Y-37604537D01*
X52758360Y-37581360D01*
X52781537Y-37560353D01*
X52806662Y-37541719D01*
X52833492Y-37525638D01*
X52861770Y-37512263D01*
X52891222Y-37501725D01*
X52921565Y-37494125D01*
X52952507Y-37489535D01*
X52983750Y-37488000D01*
X53696250Y-37488000D01*
X53727493Y-37489535D01*
X53727493Y-37489535D01*
G37*
D28*
X53340000Y-38125500D03*
D20*
G36*
X53727493Y-35914535D02*
X53758435Y-35919125D01*
X53788778Y-35926725D01*
X53818230Y-35937263D01*
X53846508Y-35950638D01*
X53873338Y-35966719D01*
X53898463Y-35985353D01*
X53921640Y-36006360D01*
X53942647Y-36029537D01*
X53961281Y-36054662D01*
X53977362Y-36081492D01*
X53990737Y-36109770D01*
X54001275Y-36139222D01*
X54008875Y-36169565D01*
X54013465Y-36200507D01*
X54015000Y-36231750D01*
X54015000Y-36869250D01*
X54013465Y-36900493D01*
X54008875Y-36931435D01*
X54001275Y-36961778D01*
X53990737Y-36991230D01*
X53977362Y-37019508D01*
X53961281Y-37046338D01*
X53942647Y-37071463D01*
X53921640Y-37094640D01*
X53898463Y-37115647D01*
X53873338Y-37134281D01*
X53846508Y-37150362D01*
X53818230Y-37163737D01*
X53788778Y-37174275D01*
X53758435Y-37181875D01*
X53727493Y-37186465D01*
X53696250Y-37188000D01*
X52983750Y-37188000D01*
X52952507Y-37186465D01*
X52921565Y-37181875D01*
X52891222Y-37174275D01*
X52861770Y-37163737D01*
X52833492Y-37150362D01*
X52806662Y-37134281D01*
X52781537Y-37115647D01*
X52758360Y-37094640D01*
X52737353Y-37071463D01*
X52718719Y-37046338D01*
X52702638Y-37019508D01*
X52689263Y-36991230D01*
X52678725Y-36961778D01*
X52671125Y-36931435D01*
X52666535Y-36900493D01*
X52665000Y-36869250D01*
X52665000Y-36231750D01*
X52666535Y-36200507D01*
X52671125Y-36169565D01*
X52678725Y-36139222D01*
X52689263Y-36109770D01*
X52702638Y-36081492D01*
X52718719Y-36054662D01*
X52737353Y-36029537D01*
X52758360Y-36006360D01*
X52781537Y-35985353D01*
X52806662Y-35966719D01*
X52833492Y-35950638D01*
X52861770Y-35937263D01*
X52891222Y-35926725D01*
X52921565Y-35919125D01*
X52952507Y-35914535D01*
X52983750Y-35913000D01*
X53696250Y-35913000D01*
X53727493Y-35914535D01*
X53727493Y-35914535D01*
G37*
D28*
X53340000Y-36550500D03*
G04 #@! TD*
D20*
G04 #@! TO.C,R1*
G36*
X51949493Y-39191035D02*
X51980435Y-39195625D01*
X52010778Y-39203225D01*
X52040230Y-39213763D01*
X52068508Y-39227138D01*
X52095338Y-39243219D01*
X52120463Y-39261853D01*
X52143640Y-39282860D01*
X52164647Y-39306037D01*
X52183281Y-39331162D01*
X52199362Y-39357992D01*
X52212737Y-39386270D01*
X52223275Y-39415722D01*
X52230875Y-39446065D01*
X52235465Y-39477007D01*
X52237000Y-39508250D01*
X52237000Y-40145750D01*
X52235465Y-40176993D01*
X52230875Y-40207935D01*
X52223275Y-40238278D01*
X52212737Y-40267730D01*
X52199362Y-40296008D01*
X52183281Y-40322838D01*
X52164647Y-40347963D01*
X52143640Y-40371140D01*
X52120463Y-40392147D01*
X52095338Y-40410781D01*
X52068508Y-40426862D01*
X52040230Y-40440237D01*
X52010778Y-40450775D01*
X51980435Y-40458375D01*
X51949493Y-40462965D01*
X51918250Y-40464500D01*
X51205750Y-40464500D01*
X51174507Y-40462965D01*
X51143565Y-40458375D01*
X51113222Y-40450775D01*
X51083770Y-40440237D01*
X51055492Y-40426862D01*
X51028662Y-40410781D01*
X51003537Y-40392147D01*
X50980360Y-40371140D01*
X50959353Y-40347963D01*
X50940719Y-40322838D01*
X50924638Y-40296008D01*
X50911263Y-40267730D01*
X50900725Y-40238278D01*
X50893125Y-40207935D01*
X50888535Y-40176993D01*
X50887000Y-40145750D01*
X50887000Y-39508250D01*
X50888535Y-39477007D01*
X50893125Y-39446065D01*
X50900725Y-39415722D01*
X50911263Y-39386270D01*
X50924638Y-39357992D01*
X50940719Y-39331162D01*
X50959353Y-39306037D01*
X50980360Y-39282860D01*
X51003537Y-39261853D01*
X51028662Y-39243219D01*
X51055492Y-39227138D01*
X51083770Y-39213763D01*
X51113222Y-39203225D01*
X51143565Y-39195625D01*
X51174507Y-39191035D01*
X51205750Y-39189500D01*
X51918250Y-39189500D01*
X51949493Y-39191035D01*
X51949493Y-39191035D01*
G37*
D28*
X51562000Y-39827000D03*
D20*
G36*
X51949493Y-40766035D02*
X51980435Y-40770625D01*
X52010778Y-40778225D01*
X52040230Y-40788763D01*
X52068508Y-40802138D01*
X52095338Y-40818219D01*
X52120463Y-40836853D01*
X52143640Y-40857860D01*
X52164647Y-40881037D01*
X52183281Y-40906162D01*
X52199362Y-40932992D01*
X52212737Y-40961270D01*
X52223275Y-40990722D01*
X52230875Y-41021065D01*
X52235465Y-41052007D01*
X52237000Y-41083250D01*
X52237000Y-41720750D01*
X52235465Y-41751993D01*
X52230875Y-41782935D01*
X52223275Y-41813278D01*
X52212737Y-41842730D01*
X52199362Y-41871008D01*
X52183281Y-41897838D01*
X52164647Y-41922963D01*
X52143640Y-41946140D01*
X52120463Y-41967147D01*
X52095338Y-41985781D01*
X52068508Y-42001862D01*
X52040230Y-42015237D01*
X52010778Y-42025775D01*
X51980435Y-42033375D01*
X51949493Y-42037965D01*
X51918250Y-42039500D01*
X51205750Y-42039500D01*
X51174507Y-42037965D01*
X51143565Y-42033375D01*
X51113222Y-42025775D01*
X51083770Y-42015237D01*
X51055492Y-42001862D01*
X51028662Y-41985781D01*
X51003537Y-41967147D01*
X50980360Y-41946140D01*
X50959353Y-41922963D01*
X50940719Y-41897838D01*
X50924638Y-41871008D01*
X50911263Y-41842730D01*
X50900725Y-41813278D01*
X50893125Y-41782935D01*
X50888535Y-41751993D01*
X50887000Y-41720750D01*
X50887000Y-41083250D01*
X50888535Y-41052007D01*
X50893125Y-41021065D01*
X50900725Y-40990722D01*
X50911263Y-40961270D01*
X50924638Y-40932992D01*
X50940719Y-40906162D01*
X50959353Y-40881037D01*
X50980360Y-40857860D01*
X51003537Y-40836853D01*
X51028662Y-40818219D01*
X51055492Y-40802138D01*
X51083770Y-40788763D01*
X51113222Y-40778225D01*
X51143565Y-40770625D01*
X51174507Y-40766035D01*
X51205750Y-40764500D01*
X51918250Y-40764500D01*
X51949493Y-40766035D01*
X51949493Y-40766035D01*
G37*
D28*
X51562000Y-41402000D03*
G04 #@! TD*
D20*
G04 #@! TO.C,R2*
G36*
X43567493Y-42518535D02*
X43598435Y-42523125D01*
X43628778Y-42530725D01*
X43658230Y-42541263D01*
X43686508Y-42554638D01*
X43713338Y-42570719D01*
X43738463Y-42589353D01*
X43761640Y-42610360D01*
X43782647Y-42633537D01*
X43801281Y-42658662D01*
X43817362Y-42685492D01*
X43830737Y-42713770D01*
X43841275Y-42743222D01*
X43848875Y-42773565D01*
X43853465Y-42804507D01*
X43855000Y-42835750D01*
X43855000Y-43473250D01*
X43853465Y-43504493D01*
X43848875Y-43535435D01*
X43841275Y-43565778D01*
X43830737Y-43595230D01*
X43817362Y-43623508D01*
X43801281Y-43650338D01*
X43782647Y-43675463D01*
X43761640Y-43698640D01*
X43738463Y-43719647D01*
X43713338Y-43738281D01*
X43686508Y-43754362D01*
X43658230Y-43767737D01*
X43628778Y-43778275D01*
X43598435Y-43785875D01*
X43567493Y-43790465D01*
X43536250Y-43792000D01*
X42823750Y-43792000D01*
X42792507Y-43790465D01*
X42761565Y-43785875D01*
X42731222Y-43778275D01*
X42701770Y-43767737D01*
X42673492Y-43754362D01*
X42646662Y-43738281D01*
X42621537Y-43719647D01*
X42598360Y-43698640D01*
X42577353Y-43675463D01*
X42558719Y-43650338D01*
X42542638Y-43623508D01*
X42529263Y-43595230D01*
X42518725Y-43565778D01*
X42511125Y-43535435D01*
X42506535Y-43504493D01*
X42505000Y-43473250D01*
X42505000Y-42835750D01*
X42506535Y-42804507D01*
X42511125Y-42773565D01*
X42518725Y-42743222D01*
X42529263Y-42713770D01*
X42542638Y-42685492D01*
X42558719Y-42658662D01*
X42577353Y-42633537D01*
X42598360Y-42610360D01*
X42621537Y-42589353D01*
X42646662Y-42570719D01*
X42673492Y-42554638D01*
X42701770Y-42541263D01*
X42731222Y-42530725D01*
X42761565Y-42523125D01*
X42792507Y-42518535D01*
X42823750Y-42517000D01*
X43536250Y-42517000D01*
X43567493Y-42518535D01*
X43567493Y-42518535D01*
G37*
D28*
X43180000Y-43154500D03*
D20*
G36*
X43567493Y-44093535D02*
X43598435Y-44098125D01*
X43628778Y-44105725D01*
X43658230Y-44116263D01*
X43686508Y-44129638D01*
X43713338Y-44145719D01*
X43738463Y-44164353D01*
X43761640Y-44185360D01*
X43782647Y-44208537D01*
X43801281Y-44233662D01*
X43817362Y-44260492D01*
X43830737Y-44288770D01*
X43841275Y-44318222D01*
X43848875Y-44348565D01*
X43853465Y-44379507D01*
X43855000Y-44410750D01*
X43855000Y-45048250D01*
X43853465Y-45079493D01*
X43848875Y-45110435D01*
X43841275Y-45140778D01*
X43830737Y-45170230D01*
X43817362Y-45198508D01*
X43801281Y-45225338D01*
X43782647Y-45250463D01*
X43761640Y-45273640D01*
X43738463Y-45294647D01*
X43713338Y-45313281D01*
X43686508Y-45329362D01*
X43658230Y-45342737D01*
X43628778Y-45353275D01*
X43598435Y-45360875D01*
X43567493Y-45365465D01*
X43536250Y-45367000D01*
X42823750Y-45367000D01*
X42792507Y-45365465D01*
X42761565Y-45360875D01*
X42731222Y-45353275D01*
X42701770Y-45342737D01*
X42673492Y-45329362D01*
X42646662Y-45313281D01*
X42621537Y-45294647D01*
X42598360Y-45273640D01*
X42577353Y-45250463D01*
X42558719Y-45225338D01*
X42542638Y-45198508D01*
X42529263Y-45170230D01*
X42518725Y-45140778D01*
X42511125Y-45110435D01*
X42506535Y-45079493D01*
X42505000Y-45048250D01*
X42505000Y-44410750D01*
X42506535Y-44379507D01*
X42511125Y-44348565D01*
X42518725Y-44318222D01*
X42529263Y-44288770D01*
X42542638Y-44260492D01*
X42558719Y-44233662D01*
X42577353Y-44208537D01*
X42598360Y-44185360D01*
X42621537Y-44164353D01*
X42646662Y-44145719D01*
X42673492Y-44129638D01*
X42701770Y-44116263D01*
X42731222Y-44105725D01*
X42761565Y-44098125D01*
X42792507Y-44093535D01*
X42823750Y-44092000D01*
X43536250Y-44092000D01*
X43567493Y-44093535D01*
X43567493Y-44093535D01*
G37*
D28*
X43180000Y-44729500D03*
G04 #@! TD*
D20*
G04 #@! TO.C,R3*
G36*
X45345493Y-42518535D02*
X45376435Y-42523125D01*
X45406778Y-42530725D01*
X45436230Y-42541263D01*
X45464508Y-42554638D01*
X45491338Y-42570719D01*
X45516463Y-42589353D01*
X45539640Y-42610360D01*
X45560647Y-42633537D01*
X45579281Y-42658662D01*
X45595362Y-42685492D01*
X45608737Y-42713770D01*
X45619275Y-42743222D01*
X45626875Y-42773565D01*
X45631465Y-42804507D01*
X45633000Y-42835750D01*
X45633000Y-43473250D01*
X45631465Y-43504493D01*
X45626875Y-43535435D01*
X45619275Y-43565778D01*
X45608737Y-43595230D01*
X45595362Y-43623508D01*
X45579281Y-43650338D01*
X45560647Y-43675463D01*
X45539640Y-43698640D01*
X45516463Y-43719647D01*
X45491338Y-43738281D01*
X45464508Y-43754362D01*
X45436230Y-43767737D01*
X45406778Y-43778275D01*
X45376435Y-43785875D01*
X45345493Y-43790465D01*
X45314250Y-43792000D01*
X44601750Y-43792000D01*
X44570507Y-43790465D01*
X44539565Y-43785875D01*
X44509222Y-43778275D01*
X44479770Y-43767737D01*
X44451492Y-43754362D01*
X44424662Y-43738281D01*
X44399537Y-43719647D01*
X44376360Y-43698640D01*
X44355353Y-43675463D01*
X44336719Y-43650338D01*
X44320638Y-43623508D01*
X44307263Y-43595230D01*
X44296725Y-43565778D01*
X44289125Y-43535435D01*
X44284535Y-43504493D01*
X44283000Y-43473250D01*
X44283000Y-42835750D01*
X44284535Y-42804507D01*
X44289125Y-42773565D01*
X44296725Y-42743222D01*
X44307263Y-42713770D01*
X44320638Y-42685492D01*
X44336719Y-42658662D01*
X44355353Y-42633537D01*
X44376360Y-42610360D01*
X44399537Y-42589353D01*
X44424662Y-42570719D01*
X44451492Y-42554638D01*
X44479770Y-42541263D01*
X44509222Y-42530725D01*
X44539565Y-42523125D01*
X44570507Y-42518535D01*
X44601750Y-42517000D01*
X45314250Y-42517000D01*
X45345493Y-42518535D01*
X45345493Y-42518535D01*
G37*
D28*
X44958000Y-43154500D03*
D20*
G36*
X45345493Y-44093535D02*
X45376435Y-44098125D01*
X45406778Y-44105725D01*
X45436230Y-44116263D01*
X45464508Y-44129638D01*
X45491338Y-44145719D01*
X45516463Y-44164353D01*
X45539640Y-44185360D01*
X45560647Y-44208537D01*
X45579281Y-44233662D01*
X45595362Y-44260492D01*
X45608737Y-44288770D01*
X45619275Y-44318222D01*
X45626875Y-44348565D01*
X45631465Y-44379507D01*
X45633000Y-44410750D01*
X45633000Y-45048250D01*
X45631465Y-45079493D01*
X45626875Y-45110435D01*
X45619275Y-45140778D01*
X45608737Y-45170230D01*
X45595362Y-45198508D01*
X45579281Y-45225338D01*
X45560647Y-45250463D01*
X45539640Y-45273640D01*
X45516463Y-45294647D01*
X45491338Y-45313281D01*
X45464508Y-45329362D01*
X45436230Y-45342737D01*
X45406778Y-45353275D01*
X45376435Y-45360875D01*
X45345493Y-45365465D01*
X45314250Y-45367000D01*
X44601750Y-45367000D01*
X44570507Y-45365465D01*
X44539565Y-45360875D01*
X44509222Y-45353275D01*
X44479770Y-45342737D01*
X44451492Y-45329362D01*
X44424662Y-45313281D01*
X44399537Y-45294647D01*
X44376360Y-45273640D01*
X44355353Y-45250463D01*
X44336719Y-45225338D01*
X44320638Y-45198508D01*
X44307263Y-45170230D01*
X44296725Y-45140778D01*
X44289125Y-45110435D01*
X44284535Y-45079493D01*
X44283000Y-45048250D01*
X44283000Y-44410750D01*
X44284535Y-44379507D01*
X44289125Y-44348565D01*
X44296725Y-44318222D01*
X44307263Y-44288770D01*
X44320638Y-44260492D01*
X44336719Y-44233662D01*
X44355353Y-44208537D01*
X44376360Y-44185360D01*
X44399537Y-44164353D01*
X44424662Y-44145719D01*
X44451492Y-44129638D01*
X44479770Y-44116263D01*
X44509222Y-44105725D01*
X44539565Y-44098125D01*
X44570507Y-44093535D01*
X44601750Y-44092000D01*
X45314250Y-44092000D01*
X45345493Y-44093535D01*
X45345493Y-44093535D01*
G37*
D28*
X44958000Y-44729500D03*
G04 #@! TD*
D20*
G04 #@! TO.C,R4*
G36*
X49155493Y-42518535D02*
X49186435Y-42523125D01*
X49216778Y-42530725D01*
X49246230Y-42541263D01*
X49274508Y-42554638D01*
X49301338Y-42570719D01*
X49326463Y-42589353D01*
X49349640Y-42610360D01*
X49370647Y-42633537D01*
X49389281Y-42658662D01*
X49405362Y-42685492D01*
X49418737Y-42713770D01*
X49429275Y-42743222D01*
X49436875Y-42773565D01*
X49441465Y-42804507D01*
X49443000Y-42835750D01*
X49443000Y-43473250D01*
X49441465Y-43504493D01*
X49436875Y-43535435D01*
X49429275Y-43565778D01*
X49418737Y-43595230D01*
X49405362Y-43623508D01*
X49389281Y-43650338D01*
X49370647Y-43675463D01*
X49349640Y-43698640D01*
X49326463Y-43719647D01*
X49301338Y-43738281D01*
X49274508Y-43754362D01*
X49246230Y-43767737D01*
X49216778Y-43778275D01*
X49186435Y-43785875D01*
X49155493Y-43790465D01*
X49124250Y-43792000D01*
X48411750Y-43792000D01*
X48380507Y-43790465D01*
X48349565Y-43785875D01*
X48319222Y-43778275D01*
X48289770Y-43767737D01*
X48261492Y-43754362D01*
X48234662Y-43738281D01*
X48209537Y-43719647D01*
X48186360Y-43698640D01*
X48165353Y-43675463D01*
X48146719Y-43650338D01*
X48130638Y-43623508D01*
X48117263Y-43595230D01*
X48106725Y-43565778D01*
X48099125Y-43535435D01*
X48094535Y-43504493D01*
X48093000Y-43473250D01*
X48093000Y-42835750D01*
X48094535Y-42804507D01*
X48099125Y-42773565D01*
X48106725Y-42743222D01*
X48117263Y-42713770D01*
X48130638Y-42685492D01*
X48146719Y-42658662D01*
X48165353Y-42633537D01*
X48186360Y-42610360D01*
X48209537Y-42589353D01*
X48234662Y-42570719D01*
X48261492Y-42554638D01*
X48289770Y-42541263D01*
X48319222Y-42530725D01*
X48349565Y-42523125D01*
X48380507Y-42518535D01*
X48411750Y-42517000D01*
X49124250Y-42517000D01*
X49155493Y-42518535D01*
X49155493Y-42518535D01*
G37*
D28*
X48768000Y-43154500D03*
D20*
G36*
X49155493Y-44093535D02*
X49186435Y-44098125D01*
X49216778Y-44105725D01*
X49246230Y-44116263D01*
X49274508Y-44129638D01*
X49301338Y-44145719D01*
X49326463Y-44164353D01*
X49349640Y-44185360D01*
X49370647Y-44208537D01*
X49389281Y-44233662D01*
X49405362Y-44260492D01*
X49418737Y-44288770D01*
X49429275Y-44318222D01*
X49436875Y-44348565D01*
X49441465Y-44379507D01*
X49443000Y-44410750D01*
X49443000Y-45048250D01*
X49441465Y-45079493D01*
X49436875Y-45110435D01*
X49429275Y-45140778D01*
X49418737Y-45170230D01*
X49405362Y-45198508D01*
X49389281Y-45225338D01*
X49370647Y-45250463D01*
X49349640Y-45273640D01*
X49326463Y-45294647D01*
X49301338Y-45313281D01*
X49274508Y-45329362D01*
X49246230Y-45342737D01*
X49216778Y-45353275D01*
X49186435Y-45360875D01*
X49155493Y-45365465D01*
X49124250Y-45367000D01*
X48411750Y-45367000D01*
X48380507Y-45365465D01*
X48349565Y-45360875D01*
X48319222Y-45353275D01*
X48289770Y-45342737D01*
X48261492Y-45329362D01*
X48234662Y-45313281D01*
X48209537Y-45294647D01*
X48186360Y-45273640D01*
X48165353Y-45250463D01*
X48146719Y-45225338D01*
X48130638Y-45198508D01*
X48117263Y-45170230D01*
X48106725Y-45140778D01*
X48099125Y-45110435D01*
X48094535Y-45079493D01*
X48093000Y-45048250D01*
X48093000Y-44410750D01*
X48094535Y-44379507D01*
X48099125Y-44348565D01*
X48106725Y-44318222D01*
X48117263Y-44288770D01*
X48130638Y-44260492D01*
X48146719Y-44233662D01*
X48165353Y-44208537D01*
X48186360Y-44185360D01*
X48209537Y-44164353D01*
X48234662Y-44145719D01*
X48261492Y-44129638D01*
X48289770Y-44116263D01*
X48319222Y-44105725D01*
X48349565Y-44098125D01*
X48380507Y-44093535D01*
X48411750Y-44092000D01*
X49124250Y-44092000D01*
X49155493Y-44093535D01*
X49155493Y-44093535D01*
G37*
D28*
X48768000Y-44729500D03*
G04 #@! TD*
D20*
G04 #@! TO.C,R5*
G36*
X50933493Y-47395535D02*
X50964435Y-47400125D01*
X50994778Y-47407725D01*
X51024230Y-47418263D01*
X51052508Y-47431638D01*
X51079338Y-47447719D01*
X51104463Y-47466353D01*
X51127640Y-47487360D01*
X51148647Y-47510537D01*
X51167281Y-47535662D01*
X51183362Y-47562492D01*
X51196737Y-47590770D01*
X51207275Y-47620222D01*
X51214875Y-47650565D01*
X51219465Y-47681507D01*
X51221000Y-47712750D01*
X51221000Y-48350250D01*
X51219465Y-48381493D01*
X51214875Y-48412435D01*
X51207275Y-48442778D01*
X51196737Y-48472230D01*
X51183362Y-48500508D01*
X51167281Y-48527338D01*
X51148647Y-48552463D01*
X51127640Y-48575640D01*
X51104463Y-48596647D01*
X51079338Y-48615281D01*
X51052508Y-48631362D01*
X51024230Y-48644737D01*
X50994778Y-48655275D01*
X50964435Y-48662875D01*
X50933493Y-48667465D01*
X50902250Y-48669000D01*
X50189750Y-48669000D01*
X50158507Y-48667465D01*
X50127565Y-48662875D01*
X50097222Y-48655275D01*
X50067770Y-48644737D01*
X50039492Y-48631362D01*
X50012662Y-48615281D01*
X49987537Y-48596647D01*
X49964360Y-48575640D01*
X49943353Y-48552463D01*
X49924719Y-48527338D01*
X49908638Y-48500508D01*
X49895263Y-48472230D01*
X49884725Y-48442778D01*
X49877125Y-48412435D01*
X49872535Y-48381493D01*
X49871000Y-48350250D01*
X49871000Y-47712750D01*
X49872535Y-47681507D01*
X49877125Y-47650565D01*
X49884725Y-47620222D01*
X49895263Y-47590770D01*
X49908638Y-47562492D01*
X49924719Y-47535662D01*
X49943353Y-47510537D01*
X49964360Y-47487360D01*
X49987537Y-47466353D01*
X50012662Y-47447719D01*
X50039492Y-47431638D01*
X50067770Y-47418263D01*
X50097222Y-47407725D01*
X50127565Y-47400125D01*
X50158507Y-47395535D01*
X50189750Y-47394000D01*
X50902250Y-47394000D01*
X50933493Y-47395535D01*
X50933493Y-47395535D01*
G37*
D28*
X50546000Y-48031500D03*
D20*
G36*
X50933493Y-45820535D02*
X50964435Y-45825125D01*
X50994778Y-45832725D01*
X51024230Y-45843263D01*
X51052508Y-45856638D01*
X51079338Y-45872719D01*
X51104463Y-45891353D01*
X51127640Y-45912360D01*
X51148647Y-45935537D01*
X51167281Y-45960662D01*
X51183362Y-45987492D01*
X51196737Y-46015770D01*
X51207275Y-46045222D01*
X51214875Y-46075565D01*
X51219465Y-46106507D01*
X51221000Y-46137750D01*
X51221000Y-46775250D01*
X51219465Y-46806493D01*
X51214875Y-46837435D01*
X51207275Y-46867778D01*
X51196737Y-46897230D01*
X51183362Y-46925508D01*
X51167281Y-46952338D01*
X51148647Y-46977463D01*
X51127640Y-47000640D01*
X51104463Y-47021647D01*
X51079338Y-47040281D01*
X51052508Y-47056362D01*
X51024230Y-47069737D01*
X50994778Y-47080275D01*
X50964435Y-47087875D01*
X50933493Y-47092465D01*
X50902250Y-47094000D01*
X50189750Y-47094000D01*
X50158507Y-47092465D01*
X50127565Y-47087875D01*
X50097222Y-47080275D01*
X50067770Y-47069737D01*
X50039492Y-47056362D01*
X50012662Y-47040281D01*
X49987537Y-47021647D01*
X49964360Y-47000640D01*
X49943353Y-46977463D01*
X49924719Y-46952338D01*
X49908638Y-46925508D01*
X49895263Y-46897230D01*
X49884725Y-46867778D01*
X49877125Y-46837435D01*
X49872535Y-46806493D01*
X49871000Y-46775250D01*
X49871000Y-46137750D01*
X49872535Y-46106507D01*
X49877125Y-46075565D01*
X49884725Y-46045222D01*
X49895263Y-46015770D01*
X49908638Y-45987492D01*
X49924719Y-45960662D01*
X49943353Y-45935537D01*
X49964360Y-45912360D01*
X49987537Y-45891353D01*
X50012662Y-45872719D01*
X50039492Y-45856638D01*
X50067770Y-45843263D01*
X50097222Y-45832725D01*
X50127565Y-45825125D01*
X50158507Y-45820535D01*
X50189750Y-45819000D01*
X50902250Y-45819000D01*
X50933493Y-45820535D01*
X50933493Y-45820535D01*
G37*
D28*
X50546000Y-46456500D03*
G04 #@! TD*
D20*
G04 #@! TO.C,R6*
G36*
X45345493Y-35914535D02*
X45376435Y-35919125D01*
X45406778Y-35926725D01*
X45436230Y-35937263D01*
X45464508Y-35950638D01*
X45491338Y-35966719D01*
X45516463Y-35985353D01*
X45539640Y-36006360D01*
X45560647Y-36029537D01*
X45579281Y-36054662D01*
X45595362Y-36081492D01*
X45608737Y-36109770D01*
X45619275Y-36139222D01*
X45626875Y-36169565D01*
X45631465Y-36200507D01*
X45633000Y-36231750D01*
X45633000Y-36869250D01*
X45631465Y-36900493D01*
X45626875Y-36931435D01*
X45619275Y-36961778D01*
X45608737Y-36991230D01*
X45595362Y-37019508D01*
X45579281Y-37046338D01*
X45560647Y-37071463D01*
X45539640Y-37094640D01*
X45516463Y-37115647D01*
X45491338Y-37134281D01*
X45464508Y-37150362D01*
X45436230Y-37163737D01*
X45406778Y-37174275D01*
X45376435Y-37181875D01*
X45345493Y-37186465D01*
X45314250Y-37188000D01*
X44601750Y-37188000D01*
X44570507Y-37186465D01*
X44539565Y-37181875D01*
X44509222Y-37174275D01*
X44479770Y-37163737D01*
X44451492Y-37150362D01*
X44424662Y-37134281D01*
X44399537Y-37115647D01*
X44376360Y-37094640D01*
X44355353Y-37071463D01*
X44336719Y-37046338D01*
X44320638Y-37019508D01*
X44307263Y-36991230D01*
X44296725Y-36961778D01*
X44289125Y-36931435D01*
X44284535Y-36900493D01*
X44283000Y-36869250D01*
X44283000Y-36231750D01*
X44284535Y-36200507D01*
X44289125Y-36169565D01*
X44296725Y-36139222D01*
X44307263Y-36109770D01*
X44320638Y-36081492D01*
X44336719Y-36054662D01*
X44355353Y-36029537D01*
X44376360Y-36006360D01*
X44399537Y-35985353D01*
X44424662Y-35966719D01*
X44451492Y-35950638D01*
X44479770Y-35937263D01*
X44509222Y-35926725D01*
X44539565Y-35919125D01*
X44570507Y-35914535D01*
X44601750Y-35913000D01*
X45314250Y-35913000D01*
X45345493Y-35914535D01*
X45345493Y-35914535D01*
G37*
D28*
X44958000Y-36550500D03*
D20*
G36*
X45345493Y-37489535D02*
X45376435Y-37494125D01*
X45406778Y-37501725D01*
X45436230Y-37512263D01*
X45464508Y-37525638D01*
X45491338Y-37541719D01*
X45516463Y-37560353D01*
X45539640Y-37581360D01*
X45560647Y-37604537D01*
X45579281Y-37629662D01*
X45595362Y-37656492D01*
X45608737Y-37684770D01*
X45619275Y-37714222D01*
X45626875Y-37744565D01*
X45631465Y-37775507D01*
X45633000Y-37806750D01*
X45633000Y-38444250D01*
X45631465Y-38475493D01*
X45626875Y-38506435D01*
X45619275Y-38536778D01*
X45608737Y-38566230D01*
X45595362Y-38594508D01*
X45579281Y-38621338D01*
X45560647Y-38646463D01*
X45539640Y-38669640D01*
X45516463Y-38690647D01*
X45491338Y-38709281D01*
X45464508Y-38725362D01*
X45436230Y-38738737D01*
X45406778Y-38749275D01*
X45376435Y-38756875D01*
X45345493Y-38761465D01*
X45314250Y-38763000D01*
X44601750Y-38763000D01*
X44570507Y-38761465D01*
X44539565Y-38756875D01*
X44509222Y-38749275D01*
X44479770Y-38738737D01*
X44451492Y-38725362D01*
X44424662Y-38709281D01*
X44399537Y-38690647D01*
X44376360Y-38669640D01*
X44355353Y-38646463D01*
X44336719Y-38621338D01*
X44320638Y-38594508D01*
X44307263Y-38566230D01*
X44296725Y-38536778D01*
X44289125Y-38506435D01*
X44284535Y-38475493D01*
X44283000Y-38444250D01*
X44283000Y-37806750D01*
X44284535Y-37775507D01*
X44289125Y-37744565D01*
X44296725Y-37714222D01*
X44307263Y-37684770D01*
X44320638Y-37656492D01*
X44336719Y-37629662D01*
X44355353Y-37604537D01*
X44376360Y-37581360D01*
X44399537Y-37560353D01*
X44424662Y-37541719D01*
X44451492Y-37525638D01*
X44479770Y-37512263D01*
X44509222Y-37501725D01*
X44539565Y-37494125D01*
X44570507Y-37489535D01*
X44601750Y-37488000D01*
X45314250Y-37488000D01*
X45345493Y-37489535D01*
X45345493Y-37489535D01*
G37*
D28*
X44958000Y-38125500D03*
G04 #@! TD*
D20*
G04 #@! TO.C,R7*
G36*
X43567493Y-40791535D02*
X43598435Y-40796125D01*
X43628778Y-40803725D01*
X43658230Y-40814263D01*
X43686508Y-40827638D01*
X43713338Y-40843719D01*
X43738463Y-40862353D01*
X43761640Y-40883360D01*
X43782647Y-40906537D01*
X43801281Y-40931662D01*
X43817362Y-40958492D01*
X43830737Y-40986770D01*
X43841275Y-41016222D01*
X43848875Y-41046565D01*
X43853465Y-41077507D01*
X43855000Y-41108750D01*
X43855000Y-41746250D01*
X43853465Y-41777493D01*
X43848875Y-41808435D01*
X43841275Y-41838778D01*
X43830737Y-41868230D01*
X43817362Y-41896508D01*
X43801281Y-41923338D01*
X43782647Y-41948463D01*
X43761640Y-41971640D01*
X43738463Y-41992647D01*
X43713338Y-42011281D01*
X43686508Y-42027362D01*
X43658230Y-42040737D01*
X43628778Y-42051275D01*
X43598435Y-42058875D01*
X43567493Y-42063465D01*
X43536250Y-42065000D01*
X42823750Y-42065000D01*
X42792507Y-42063465D01*
X42761565Y-42058875D01*
X42731222Y-42051275D01*
X42701770Y-42040737D01*
X42673492Y-42027362D01*
X42646662Y-42011281D01*
X42621537Y-41992647D01*
X42598360Y-41971640D01*
X42577353Y-41948463D01*
X42558719Y-41923338D01*
X42542638Y-41896508D01*
X42529263Y-41868230D01*
X42518725Y-41838778D01*
X42511125Y-41808435D01*
X42506535Y-41777493D01*
X42505000Y-41746250D01*
X42505000Y-41108750D01*
X42506535Y-41077507D01*
X42511125Y-41046565D01*
X42518725Y-41016222D01*
X42529263Y-40986770D01*
X42542638Y-40958492D01*
X42558719Y-40931662D01*
X42577353Y-40906537D01*
X42598360Y-40883360D01*
X42621537Y-40862353D01*
X42646662Y-40843719D01*
X42673492Y-40827638D01*
X42701770Y-40814263D01*
X42731222Y-40803725D01*
X42761565Y-40796125D01*
X42792507Y-40791535D01*
X42823750Y-40790000D01*
X43536250Y-40790000D01*
X43567493Y-40791535D01*
X43567493Y-40791535D01*
G37*
D28*
X43180000Y-41427500D03*
D20*
G36*
X43567493Y-39216535D02*
X43598435Y-39221125D01*
X43628778Y-39228725D01*
X43658230Y-39239263D01*
X43686508Y-39252638D01*
X43713338Y-39268719D01*
X43738463Y-39287353D01*
X43761640Y-39308360D01*
X43782647Y-39331537D01*
X43801281Y-39356662D01*
X43817362Y-39383492D01*
X43830737Y-39411770D01*
X43841275Y-39441222D01*
X43848875Y-39471565D01*
X43853465Y-39502507D01*
X43855000Y-39533750D01*
X43855000Y-40171250D01*
X43853465Y-40202493D01*
X43848875Y-40233435D01*
X43841275Y-40263778D01*
X43830737Y-40293230D01*
X43817362Y-40321508D01*
X43801281Y-40348338D01*
X43782647Y-40373463D01*
X43761640Y-40396640D01*
X43738463Y-40417647D01*
X43713338Y-40436281D01*
X43686508Y-40452362D01*
X43658230Y-40465737D01*
X43628778Y-40476275D01*
X43598435Y-40483875D01*
X43567493Y-40488465D01*
X43536250Y-40490000D01*
X42823750Y-40490000D01*
X42792507Y-40488465D01*
X42761565Y-40483875D01*
X42731222Y-40476275D01*
X42701770Y-40465737D01*
X42673492Y-40452362D01*
X42646662Y-40436281D01*
X42621537Y-40417647D01*
X42598360Y-40396640D01*
X42577353Y-40373463D01*
X42558719Y-40348338D01*
X42542638Y-40321508D01*
X42529263Y-40293230D01*
X42518725Y-40263778D01*
X42511125Y-40233435D01*
X42506535Y-40202493D01*
X42505000Y-40171250D01*
X42505000Y-39533750D01*
X42506535Y-39502507D01*
X42511125Y-39471565D01*
X42518725Y-39441222D01*
X42529263Y-39411770D01*
X42542638Y-39383492D01*
X42558719Y-39356662D01*
X42577353Y-39331537D01*
X42598360Y-39308360D01*
X42621537Y-39287353D01*
X42646662Y-39268719D01*
X42673492Y-39252638D01*
X42701770Y-39239263D01*
X42731222Y-39228725D01*
X42761565Y-39221125D01*
X42792507Y-39216535D01*
X42823750Y-39215000D01*
X43536250Y-39215000D01*
X43567493Y-39216535D01*
X43567493Y-39216535D01*
G37*
D28*
X43180000Y-39852500D03*
G04 #@! TD*
D20*
G04 #@! TO.C,R8*
G36*
X53727493Y-39216535D02*
X53758435Y-39221125D01*
X53788778Y-39228725D01*
X53818230Y-39239263D01*
X53846508Y-39252638D01*
X53873338Y-39268719D01*
X53898463Y-39287353D01*
X53921640Y-39308360D01*
X53942647Y-39331537D01*
X53961281Y-39356662D01*
X53977362Y-39383492D01*
X53990737Y-39411770D01*
X54001275Y-39441222D01*
X54008875Y-39471565D01*
X54013465Y-39502507D01*
X54015000Y-39533750D01*
X54015000Y-40171250D01*
X54013465Y-40202493D01*
X54008875Y-40233435D01*
X54001275Y-40263778D01*
X53990737Y-40293230D01*
X53977362Y-40321508D01*
X53961281Y-40348338D01*
X53942647Y-40373463D01*
X53921640Y-40396640D01*
X53898463Y-40417647D01*
X53873338Y-40436281D01*
X53846508Y-40452362D01*
X53818230Y-40465737D01*
X53788778Y-40476275D01*
X53758435Y-40483875D01*
X53727493Y-40488465D01*
X53696250Y-40490000D01*
X52983750Y-40490000D01*
X52952507Y-40488465D01*
X52921565Y-40483875D01*
X52891222Y-40476275D01*
X52861770Y-40465737D01*
X52833492Y-40452362D01*
X52806662Y-40436281D01*
X52781537Y-40417647D01*
X52758360Y-40396640D01*
X52737353Y-40373463D01*
X52718719Y-40348338D01*
X52702638Y-40321508D01*
X52689263Y-40293230D01*
X52678725Y-40263778D01*
X52671125Y-40233435D01*
X52666535Y-40202493D01*
X52665000Y-40171250D01*
X52665000Y-39533750D01*
X52666535Y-39502507D01*
X52671125Y-39471565D01*
X52678725Y-39441222D01*
X52689263Y-39411770D01*
X52702638Y-39383492D01*
X52718719Y-39356662D01*
X52737353Y-39331537D01*
X52758360Y-39308360D01*
X52781537Y-39287353D01*
X52806662Y-39268719D01*
X52833492Y-39252638D01*
X52861770Y-39239263D01*
X52891222Y-39228725D01*
X52921565Y-39221125D01*
X52952507Y-39216535D01*
X52983750Y-39215000D01*
X53696250Y-39215000D01*
X53727493Y-39216535D01*
X53727493Y-39216535D01*
G37*
D28*
X53340000Y-39852500D03*
D20*
G36*
X53727493Y-40791535D02*
X53758435Y-40796125D01*
X53788778Y-40803725D01*
X53818230Y-40814263D01*
X53846508Y-40827638D01*
X53873338Y-40843719D01*
X53898463Y-40862353D01*
X53921640Y-40883360D01*
X53942647Y-40906537D01*
X53961281Y-40931662D01*
X53977362Y-40958492D01*
X53990737Y-40986770D01*
X54001275Y-41016222D01*
X54008875Y-41046565D01*
X54013465Y-41077507D01*
X54015000Y-41108750D01*
X54015000Y-41746250D01*
X54013465Y-41777493D01*
X54008875Y-41808435D01*
X54001275Y-41838778D01*
X53990737Y-41868230D01*
X53977362Y-41896508D01*
X53961281Y-41923338D01*
X53942647Y-41948463D01*
X53921640Y-41971640D01*
X53898463Y-41992647D01*
X53873338Y-42011281D01*
X53846508Y-42027362D01*
X53818230Y-42040737D01*
X53788778Y-42051275D01*
X53758435Y-42058875D01*
X53727493Y-42063465D01*
X53696250Y-42065000D01*
X52983750Y-42065000D01*
X52952507Y-42063465D01*
X52921565Y-42058875D01*
X52891222Y-42051275D01*
X52861770Y-42040737D01*
X52833492Y-42027362D01*
X52806662Y-42011281D01*
X52781537Y-41992647D01*
X52758360Y-41971640D01*
X52737353Y-41948463D01*
X52718719Y-41923338D01*
X52702638Y-41896508D01*
X52689263Y-41868230D01*
X52678725Y-41838778D01*
X52671125Y-41808435D01*
X52666535Y-41777493D01*
X52665000Y-41746250D01*
X52665000Y-41108750D01*
X52666535Y-41077507D01*
X52671125Y-41046565D01*
X52678725Y-41016222D01*
X52689263Y-40986770D01*
X52702638Y-40958492D01*
X52718719Y-40931662D01*
X52737353Y-40906537D01*
X52758360Y-40883360D01*
X52781537Y-40862353D01*
X52806662Y-40843719D01*
X52833492Y-40827638D01*
X52861770Y-40814263D01*
X52891222Y-40803725D01*
X52921565Y-40796125D01*
X52952507Y-40791535D01*
X52983750Y-40790000D01*
X53696250Y-40790000D01*
X53727493Y-40791535D01*
X53727493Y-40791535D01*
G37*
D28*
X53340000Y-41427500D03*
G04 #@! TD*
D20*
G04 #@! TO.C,R9*
G36*
X51949493Y-37489535D02*
X51980435Y-37494125D01*
X52010778Y-37501725D01*
X52040230Y-37512263D01*
X52068508Y-37525638D01*
X52095338Y-37541719D01*
X52120463Y-37560353D01*
X52143640Y-37581360D01*
X52164647Y-37604537D01*
X52183281Y-37629662D01*
X52199362Y-37656492D01*
X52212737Y-37684770D01*
X52223275Y-37714222D01*
X52230875Y-37744565D01*
X52235465Y-37775507D01*
X52237000Y-37806750D01*
X52237000Y-38444250D01*
X52235465Y-38475493D01*
X52230875Y-38506435D01*
X52223275Y-38536778D01*
X52212737Y-38566230D01*
X52199362Y-38594508D01*
X52183281Y-38621338D01*
X52164647Y-38646463D01*
X52143640Y-38669640D01*
X52120463Y-38690647D01*
X52095338Y-38709281D01*
X52068508Y-38725362D01*
X52040230Y-38738737D01*
X52010778Y-38749275D01*
X51980435Y-38756875D01*
X51949493Y-38761465D01*
X51918250Y-38763000D01*
X51205750Y-38763000D01*
X51174507Y-38761465D01*
X51143565Y-38756875D01*
X51113222Y-38749275D01*
X51083770Y-38738737D01*
X51055492Y-38725362D01*
X51028662Y-38709281D01*
X51003537Y-38690647D01*
X50980360Y-38669640D01*
X50959353Y-38646463D01*
X50940719Y-38621338D01*
X50924638Y-38594508D01*
X50911263Y-38566230D01*
X50900725Y-38536778D01*
X50893125Y-38506435D01*
X50888535Y-38475493D01*
X50887000Y-38444250D01*
X50887000Y-37806750D01*
X50888535Y-37775507D01*
X50893125Y-37744565D01*
X50900725Y-37714222D01*
X50911263Y-37684770D01*
X50924638Y-37656492D01*
X50940719Y-37629662D01*
X50959353Y-37604537D01*
X50980360Y-37581360D01*
X51003537Y-37560353D01*
X51028662Y-37541719D01*
X51055492Y-37525638D01*
X51083770Y-37512263D01*
X51113222Y-37501725D01*
X51143565Y-37494125D01*
X51174507Y-37489535D01*
X51205750Y-37488000D01*
X51918250Y-37488000D01*
X51949493Y-37489535D01*
X51949493Y-37489535D01*
G37*
D28*
X51562000Y-38125500D03*
D20*
G36*
X51949493Y-35914535D02*
X51980435Y-35919125D01*
X52010778Y-35926725D01*
X52040230Y-35937263D01*
X52068508Y-35950638D01*
X52095338Y-35966719D01*
X52120463Y-35985353D01*
X52143640Y-36006360D01*
X52164647Y-36029537D01*
X52183281Y-36054662D01*
X52199362Y-36081492D01*
X52212737Y-36109770D01*
X52223275Y-36139222D01*
X52230875Y-36169565D01*
X52235465Y-36200507D01*
X52237000Y-36231750D01*
X52237000Y-36869250D01*
X52235465Y-36900493D01*
X52230875Y-36931435D01*
X52223275Y-36961778D01*
X52212737Y-36991230D01*
X52199362Y-37019508D01*
X52183281Y-37046338D01*
X52164647Y-37071463D01*
X52143640Y-37094640D01*
X52120463Y-37115647D01*
X52095338Y-37134281D01*
X52068508Y-37150362D01*
X52040230Y-37163737D01*
X52010778Y-37174275D01*
X51980435Y-37181875D01*
X51949493Y-37186465D01*
X51918250Y-37188000D01*
X51205750Y-37188000D01*
X51174507Y-37186465D01*
X51143565Y-37181875D01*
X51113222Y-37174275D01*
X51083770Y-37163737D01*
X51055492Y-37150362D01*
X51028662Y-37134281D01*
X51003537Y-37115647D01*
X50980360Y-37094640D01*
X50959353Y-37071463D01*
X50940719Y-37046338D01*
X50924638Y-37019508D01*
X50911263Y-36991230D01*
X50900725Y-36961778D01*
X50893125Y-36931435D01*
X50888535Y-36900493D01*
X50887000Y-36869250D01*
X50887000Y-36231750D01*
X50888535Y-36200507D01*
X50893125Y-36169565D01*
X50900725Y-36139222D01*
X50911263Y-36109770D01*
X50924638Y-36081492D01*
X50940719Y-36054662D01*
X50959353Y-36029537D01*
X50980360Y-36006360D01*
X51003537Y-35985353D01*
X51028662Y-35966719D01*
X51055492Y-35950638D01*
X51083770Y-35937263D01*
X51113222Y-35926725D01*
X51143565Y-35919125D01*
X51174507Y-35914535D01*
X51205750Y-35913000D01*
X51918250Y-35913000D01*
X51949493Y-35914535D01*
X51949493Y-35914535D01*
G37*
D28*
X51562000Y-36550500D03*
G04 #@! TD*
M02*
