G04 #@! TF.GenerationSoftware,KiCad,Pcbnew,(5.0.0)*
G04 #@! TF.CreationDate,2020-11-24T21:09:57-06:00*
G04 #@! TF.ProjectId,BlueMacro,426C75654D6163726F2E6B696361645F,rev?*
G04 #@! TF.SameCoordinates,Original*
G04 #@! TF.FileFunction,Copper,L2,Inr,Signal*
G04 #@! TF.FilePolarity,Positive*
%FSLAX46Y46*%
G04 Gerber Fmt 4.6, Leading zero omitted, Abs format (unit mm)*
G04 Created by KiCad (PCBNEW (5.0.0)) date 11/24/20 21:09:57*
%MOMM*%
%LPD*%
G01*
G04 APERTURE LIST*
G04 #@! TA.AperFunction,WasherPad*
%ADD10C,1.270000*%
G04 #@! TD*
G04 #@! TA.AperFunction,ViaPad*
%ADD11C,1.270000*%
G04 #@! TD*
G04 #@! TA.AperFunction,ViaPad*
%ADD12R,1.250000X1.250000*%
G04 #@! TD*
G04 #@! TA.AperFunction,ViaPad*
%ADD13R,1.700000X1.700000*%
G04 #@! TD*
G04 #@! TA.AperFunction,ViaPad*
%ADD14O,1.700000X1.700000*%
G04 #@! TD*
G04 #@! TA.AperFunction,ViaPad*
%ADD15O,1.000000X1.600000*%
G04 #@! TD*
G04 #@! TA.AperFunction,ViaPad*
%ADD16O,1.000000X2.100000*%
G04 #@! TD*
G04 #@! TA.AperFunction,ViaPad*
%ADD17R,0.650000X1.000000*%
G04 #@! TD*
G04 #@! TA.AperFunction,ViaPad*
%ADD18R,1.000000X0.650000*%
G04 #@! TD*
G04 #@! TA.AperFunction,ViaPad*
%ADD19C,1.100000*%
G04 #@! TD*
G04 #@! TA.AperFunction,Conductor*
%ADD20C,0.100000*%
G04 #@! TD*
G04 #@! TA.AperFunction,ViaPad*
%ADD21C,0.800000*%
G04 #@! TD*
G04 #@! TA.AperFunction,Conductor*
%ADD22C,0.250000*%
G04 #@! TD*
G04 #@! TA.AperFunction,Conductor*
%ADD23C,0.200000*%
G04 #@! TD*
G04 APERTURE END LIST*
D10*
G04 #@! TO.N,*
G04 #@! TO.C,U4*
X55880000Y-27940000D03*
X40640000Y-27940000D03*
X55880000Y-73660000D03*
X40640000Y-73660000D03*
D11*
G04 #@! TO.N,/P0.10*
X40640000Y-71120000D03*
G04 #@! TO.N,/P0.09*
X40640000Y-68580000D03*
G04 #@! TO.N,VBatt*
X40640000Y-66040000D03*
G04 #@! TO.N,GND*
X40640000Y-63500000D03*
G04 #@! TO.N,Reset*
X40640000Y-60960000D03*
G04 #@! TO.N,N/C*
X40640000Y-53340000D03*
G04 #@! TO.N,/P0.20*
X40640000Y-50800000D03*
G04 #@! TO.N,/P0.17*
X40640000Y-48260000D03*
G04 #@! TO.N,N/C*
X40640000Y-55880000D03*
G04 #@! TO.N,VBus*
X40640000Y-58420000D03*
D12*
G04 #@! TO.N,/P1.11*
X55880000Y-71120000D03*
D11*
G04 #@! TO.N,/P0.03*
X55880000Y-68580000D03*
G04 #@! TO.N,/P0.28*
X55880000Y-66040000D03*
G04 #@! TO.N,/P1.13*
X55880000Y-63500000D03*
G04 #@! TO.N,Reset*
X55880000Y-60960000D03*
G04 #@! TO.N,GND*
X55880000Y-58420000D03*
G04 #@! TO.N,/P0.30*
X55880000Y-55880000D03*
G04 #@! TO.N,/P0.02*
X55880000Y-53340000D03*
G04 #@! TO.N,/P0.29*
X55880000Y-50800000D03*
G04 #@! TO.N,/P0.26*
X55880000Y-48260000D03*
G04 #@! TO.N,/P0.06*
X55880000Y-45720000D03*
G04 #@! TO.N,/P0.05*
X55880000Y-43180000D03*
G04 #@! TO.N,/P0.15*
X40640000Y-45720000D03*
G04 #@! TO.N,/P0.13*
X40640000Y-43180000D03*
G04 #@! TO.N,/P0.22*
X40640000Y-40640000D03*
G04 #@! TO.N,/P0.24*
X40640000Y-38100000D03*
G04 #@! TO.N,N/C*
X40640000Y-35560000D03*
G04 #@! TO.N,/3V3*
X40640000Y-33020000D03*
G04 #@! TO.N,/P0.07*
X40640000Y-30480000D03*
G04 #@! TO.N,/P1.06*
X55880000Y-30480000D03*
G04 #@! TO.N,/P0.12*
X55880000Y-33020000D03*
G04 #@! TO.N,/P0.04*
X55880000Y-35560000D03*
G04 #@! TO.N,/P1.09*
X55880000Y-38100000D03*
G04 #@! TO.N,/P0.08*
X55880000Y-40640000D03*
G04 #@! TD*
D13*
G04 #@! TO.N,VBatt*
G04 #@! TO.C,J1*
X53340000Y-44450000D03*
D14*
G04 #@! TO.N,GND*
X53340000Y-46990000D03*
G04 #@! TD*
D15*
G04 #@! TO.N,Net-(J3-PadS1)*
G04 #@! TO.C,J3*
X43940000Y-29270000D03*
X52580000Y-29270000D03*
D16*
X43940000Y-33450000D03*
X52580000Y-33450000D03*
G04 #@! TD*
D17*
G04 #@! TO.N,/P0.04*
G04 #@! TO.C,U2*
X48283000Y-58607000D03*
G04 #@! TO.N,GND*
X44473000Y-58607000D03*
G04 #@! TO.N,/P0.07*
X45743000Y-58607000D03*
G04 #@! TO.N,/P0.08*
X49553000Y-58607000D03*
G04 #@! TO.N,/P0.12*
X47013000Y-58607000D03*
G04 #@! TO.N,/P0.26*
X52093000Y-58607000D03*
G04 #@! TO.N,/P0.06*
X50823000Y-58607000D03*
D18*
G04 #@! TO.N,/P1.06*
X44219000Y-70037000D03*
G04 #@! TO.N,RED_LED*
X44219000Y-68767000D03*
G04 #@! TO.N,N/C*
X44219000Y-67497000D03*
G04 #@! TO.N,SWO*
X44219000Y-66227000D03*
G04 #@! TO.N,/P0.22*
X44219000Y-64957000D03*
G04 #@! TO.N,/P0.20*
X44219000Y-63687000D03*
G04 #@! TO.N,/P0.17*
X44219000Y-62417000D03*
G04 #@! TO.N,/P0.15*
X44219000Y-61147000D03*
G04 #@! TD*
D19*
G04 #@! TO.N,VCC*
G04 #@! TO.C,TP1*
X39243000Y-59690000D03*
D20*
G36*
X39243000Y-60467817D02*
X38465183Y-59690000D01*
X39243000Y-58912183D01*
X40020817Y-59690000D01*
X39243000Y-60467817D01*
X39243000Y-60467817D01*
G37*
G04 #@! TD*
D19*
G04 #@! TO.N,GND*
G04 #@! TO.C,TP2*
X39243000Y-62230000D03*
D20*
G36*
X39243000Y-63007817D02*
X38465183Y-62230000D01*
X39243000Y-61452183D01*
X40020817Y-62230000D01*
X39243000Y-63007817D01*
X39243000Y-63007817D01*
G37*
G04 #@! TD*
D19*
G04 #@! TO.N,SWDCLK*
G04 #@! TO.C,TP3*
X39243000Y-64770000D03*
D20*
G36*
X39243000Y-65547817D02*
X38465183Y-64770000D01*
X39243000Y-63992183D01*
X40020817Y-64770000D01*
X39243000Y-65547817D01*
X39243000Y-65547817D01*
G37*
G04 #@! TD*
D19*
G04 #@! TO.N,SWDIO*
G04 #@! TO.C,TP4*
X39243000Y-67310000D03*
D20*
G36*
X39243000Y-68087817D02*
X38465183Y-67310000D01*
X39243000Y-66532183D01*
X40020817Y-67310000D01*
X39243000Y-68087817D01*
X39243000Y-68087817D01*
G37*
G04 #@! TD*
D21*
G04 #@! TO.N,GND*
X53340000Y-42418000D03*
X52203831Y-35488064D03*
X44316172Y-35488067D03*
X43942000Y-50546000D03*
X47371000Y-42037000D03*
X49657000Y-63754000D03*
X48338011Y-62357000D03*
G04 #@! TO.N,Net-(C3-Pad1)*
X45575836Y-51184011D03*
X46085447Y-39315048D03*
G04 #@! TO.N,VBatt*
X50673000Y-49149000D03*
G04 #@! TO.N,VCC*
X45835649Y-52973684D03*
G04 #@! TO.N,VBatt_Monitor*
X49657000Y-45593000D03*
X49403000Y-61631990D03*
G04 #@! TO.N,VBus*
X46045497Y-47402942D03*
X48387000Y-37211000D03*
G04 #@! TO.N,RED_LED*
X42291001Y-37338001D03*
G04 #@! TO.N,BLUE_LED*
X52578008Y-68199000D03*
X54356004Y-37211000D03*
G04 #@! TO.N,SWDCLK*
X45719015Y-68052429D03*
G04 #@! TO.N,D+*
X45718490Y-62992004D03*
X48768000Y-32766000D03*
G04 #@! TO.N,D-*
X47726976Y-32628914D03*
X45720000Y-61849000D03*
G04 #@! TO.N,SWO*
X45247876Y-49774684D03*
G04 #@! TO.N,/P0.24*
X45574265Y-65386271D03*
G04 #@! TO.N,/P0.13*
X45718490Y-64135000D03*
G04 #@! TO.N,/P0.02*
X53085990Y-62357000D03*
G04 #@! TO.N,/P0.29*
X53086000Y-61341000D03*
G04 #@! TO.N,/P1.09*
X48768000Y-60706000D03*
G04 #@! TO.N,/P0.05*
X50878011Y-60198006D03*
G04 #@! TD*
D22*
G04 #@! TO.N,VBus*
X48387000Y-37776685D02*
X48387000Y-37211000D01*
X48387000Y-38038815D02*
X48387000Y-37776685D01*
X46045497Y-40380318D02*
X48387000Y-38038815D01*
X46045497Y-47402942D02*
X46045497Y-40380318D01*
D23*
G04 #@! TO.N,D+*
X43241999Y-50209999D02*
X43389589Y-50062409D01*
X44850012Y-59836011D02*
X43776311Y-59836011D01*
X43776311Y-59836011D02*
X43241999Y-59301699D01*
X45600012Y-36095525D02*
X45600012Y-35933988D01*
X46470001Y-61456001D02*
X44850012Y-59836011D01*
X45718490Y-62992004D02*
X46118489Y-62592005D01*
X43389589Y-50062409D02*
X43389589Y-38305948D01*
X43389589Y-38305948D02*
X45600012Y-36095525D01*
X46118489Y-62592005D02*
X46118489Y-62560513D01*
X45600012Y-35933988D02*
X48368001Y-33165999D01*
X46118489Y-62560513D02*
X46470001Y-62209001D01*
X43241999Y-59301699D02*
X43241999Y-50209999D01*
X46470001Y-62209001D02*
X46470001Y-61456001D01*
X48368001Y-33165999D02*
X48768000Y-32766000D01*
G04 #@! TO.N,D-*
X42812578Y-38246548D02*
X42812578Y-50003009D01*
X44663612Y-60286022D02*
X45320001Y-60942411D01*
X42791988Y-50023599D02*
X42791988Y-59505188D01*
X45320001Y-60942411D02*
X45320001Y-61449001D01*
X43572822Y-60286022D02*
X44663612Y-60286022D01*
X45320001Y-61449001D02*
X45720000Y-61849000D01*
X45150001Y-35909125D02*
X42812578Y-38246548D01*
X42812578Y-50003009D02*
X42791988Y-50023599D01*
X42791988Y-59505188D02*
X43572822Y-60286022D01*
X45150001Y-35205889D02*
X45150001Y-35909125D01*
X47726976Y-32628914D02*
X45150001Y-35205889D01*
G04 #@! TO.N,Reset*
X55880000Y-61858025D02*
X55880000Y-60960000D01*
X55880000Y-62033700D02*
X55880000Y-61858025D01*
X54483000Y-63430700D02*
X55880000Y-62033700D01*
X54483000Y-69215000D02*
X54483000Y-63430700D01*
X52578000Y-71120000D02*
X54483000Y-69215000D01*
X41529000Y-63994802D02*
X41529000Y-65545198D01*
X41575001Y-68131199D02*
X41575001Y-69028801D01*
X41575001Y-63948801D02*
X41529000Y-63994802D01*
X40640000Y-60960000D02*
X41529000Y-61849000D01*
X41529000Y-69088000D02*
X43561000Y-71120000D01*
X41575001Y-63051199D02*
X41575001Y-63948801D01*
X41529000Y-63005198D02*
X41575001Y-63051199D01*
X41529000Y-65545198D02*
X41575001Y-65591199D01*
X41529000Y-61849000D02*
X41529000Y-63005198D01*
X41575001Y-69028801D02*
X41529000Y-69074802D01*
X41575001Y-65591199D02*
X41575001Y-66488801D01*
X41529000Y-66534802D02*
X41529000Y-68085198D01*
X41529000Y-68085198D02*
X41575001Y-68131199D01*
X41529000Y-69074802D02*
X41529000Y-69088000D01*
X41575001Y-66488801D02*
X41529000Y-66534802D01*
X43561000Y-71120000D02*
X52578000Y-71120000D01*
G04 #@! TO.N,SWO*
X44219000Y-66227000D02*
X44044000Y-66227000D01*
X45723500Y-66227000D02*
X46545500Y-65405000D01*
X43942000Y-59436000D02*
X43789600Y-59283600D01*
X45247876Y-50440809D02*
X45247876Y-50340369D01*
X46545500Y-65405000D02*
X46545500Y-62699202D01*
X46545500Y-62699202D02*
X46870012Y-62374690D01*
X45247876Y-50340369D02*
X45247876Y-49774684D01*
X46870012Y-62374690D02*
X46870012Y-61221012D01*
X44219000Y-66227000D02*
X45723500Y-66227000D01*
X43789600Y-51899085D02*
X45247876Y-50440809D01*
X46870012Y-61221012D02*
X45085000Y-59436000D01*
X45085000Y-59436000D02*
X43942000Y-59436000D01*
X43789600Y-59283600D02*
X43789600Y-51899085D01*
G04 #@! TO.N,/P1.06*
X54981975Y-30480000D02*
X55880000Y-30480000D01*
X49591999Y-33085001D02*
X52197000Y-30480000D01*
X46609000Y-41127998D02*
X49591999Y-38144999D01*
X46609000Y-46388944D02*
X46609000Y-41127998D01*
X52197000Y-30480000D02*
X54981975Y-30480000D01*
X46745498Y-46525442D02*
X46609000Y-46388944D01*
X46745498Y-55108502D02*
X46745498Y-46525442D01*
X49591999Y-38144999D02*
X49591999Y-33085001D01*
X44919000Y-70037000D02*
X47180500Y-67775500D01*
X44219000Y-70037000D02*
X44919000Y-70037000D01*
X47180500Y-62629902D02*
X47270023Y-62540379D01*
X47270023Y-62540379D02*
X47270023Y-60229025D01*
X46368001Y-55485999D02*
X46745498Y-55108502D01*
X46368001Y-59327003D02*
X46368001Y-55485999D01*
X47180500Y-67775500D02*
X47180500Y-62629902D01*
X47270023Y-60229025D02*
X46368001Y-59327003D01*
G04 #@! TO.N,/P0.22*
X42391977Y-42391977D02*
X42391977Y-59670877D01*
X42391977Y-59670877D02*
X42418000Y-59696900D01*
X42909533Y-64957000D02*
X43519000Y-64957000D01*
X43519000Y-64957000D02*
X44219000Y-64957000D01*
X40640000Y-40640000D02*
X42391977Y-42391977D01*
X42418000Y-64465467D02*
X42909533Y-64957000D01*
X42418000Y-59696900D02*
X42418000Y-64465467D01*
G04 #@! TO.N,/P0.02*
X55880000Y-53340000D02*
X54864000Y-54356000D01*
X54864000Y-60578990D02*
X53485989Y-61957001D01*
X53485989Y-61957001D02*
X53085990Y-62357000D01*
X54864000Y-54356000D02*
X54864000Y-60578990D01*
G04 #@! TO.N,/P0.29*
X55880000Y-50800000D02*
X54463990Y-52216010D01*
X53086000Y-58801000D02*
X53086000Y-60775315D01*
X53086000Y-60775315D02*
X53086000Y-61341000D01*
X54463990Y-57423010D02*
X53086000Y-58801000D01*
X54463990Y-52216010D02*
X54463990Y-57423010D01*
G04 #@! TO.N,/P0.04*
X48283000Y-58607000D02*
X48283000Y-58432000D01*
X48283000Y-58432000D02*
X47758000Y-57907000D01*
X47758000Y-57907000D02*
X47758000Y-55599998D01*
X54981975Y-35560000D02*
X55880000Y-35560000D01*
X47758000Y-55599998D02*
X48514000Y-54843998D01*
X53528999Y-37911001D02*
X53528999Y-37012976D01*
X48514000Y-42926000D02*
X53528999Y-37911001D01*
X53528999Y-37012976D02*
X54981975Y-35560000D01*
X48514000Y-54843998D02*
X48514000Y-42926000D01*
G04 #@! TO.N,/P0.08*
X49084636Y-57232638D02*
X49084636Y-55797690D01*
X49084636Y-55797690D02*
X49553000Y-55329326D01*
X49553000Y-58607000D02*
X49553000Y-57701002D01*
X54981975Y-40640000D02*
X55880000Y-40640000D01*
X50842973Y-46025291D02*
X50842973Y-43206327D01*
X49553000Y-47315264D02*
X50842973Y-46025291D01*
X50842973Y-43206327D02*
X53409300Y-40640000D01*
X53409300Y-40640000D02*
X54981975Y-40640000D01*
X49553000Y-57701002D02*
X49084636Y-57232638D01*
X49553000Y-55329326D02*
X49553000Y-47315264D01*
G04 #@! TO.N,/P0.12*
X47013000Y-57907000D02*
X47013000Y-58607000D01*
X55880000Y-33020000D02*
X48071001Y-40828999D01*
X48071001Y-42373001D02*
X47526001Y-42918001D01*
X47526001Y-42918001D02*
X47526001Y-55266297D01*
X47526001Y-55266297D02*
X47013000Y-55779298D01*
X48071001Y-40828999D02*
X48071001Y-42373001D01*
X47013000Y-55779298D02*
X47013000Y-57907000D01*
G04 #@! TO.N,/P0.26*
X53975000Y-50165000D02*
X55880000Y-48260000D01*
X53975000Y-57250000D02*
X53975000Y-50165000D01*
X52618000Y-58607000D02*
X53975000Y-57250000D01*
X52093000Y-58607000D02*
X52618000Y-58607000D01*
G04 #@! TO.N,/P0.06*
X53467000Y-55263000D02*
X50823000Y-57907000D01*
X53467000Y-50107302D02*
X53467000Y-55263000D01*
X54944999Y-48629303D02*
X53467000Y-50107302D01*
X50823000Y-57907000D02*
X50823000Y-58607000D01*
X55880000Y-45720000D02*
X54944999Y-46655001D01*
X54944999Y-46655001D02*
X54944999Y-48629303D01*
G04 #@! TO.N,/P1.09*
X55664947Y-39213078D02*
X53868897Y-39213078D01*
X48768000Y-60140315D02*
X48768000Y-60706000D01*
X48927999Y-57776620D02*
X48927999Y-59980316D01*
X55880000Y-38998025D02*
X55664947Y-39213078D01*
X50442962Y-42639013D02*
X50442962Y-45859602D01*
X55880000Y-38100000D02*
X55880000Y-38998025D01*
X50442962Y-45859602D02*
X48927999Y-47374565D01*
X48927999Y-47374565D02*
X48927999Y-55388627D01*
X48684625Y-57533246D02*
X48927999Y-57776620D01*
X53868897Y-39213078D02*
X50442962Y-42639013D01*
X48684625Y-55632001D02*
X48684625Y-57533246D01*
X48927999Y-59980316D02*
X48768000Y-60140315D01*
X48927999Y-55388627D02*
X48684625Y-55632001D01*
G04 #@! TO.N,/P0.05*
X50478012Y-59798007D02*
X50878011Y-60198006D01*
X49972999Y-49485001D02*
X50033388Y-49545390D01*
X50033388Y-57806999D02*
X50197999Y-57971610D01*
X52070000Y-43180000D02*
X52070000Y-46715998D01*
X52070000Y-46715998D02*
X49972999Y-48812999D01*
X50197999Y-57971610D02*
X50197999Y-59517994D01*
X50197999Y-59517994D02*
X50478012Y-59798007D01*
X55880000Y-43180000D02*
X52070000Y-43180000D01*
X49972999Y-48812999D02*
X49972999Y-49485001D01*
X50033388Y-49545390D02*
X50033388Y-57806999D01*
G04 #@! TD*
M02*
