M48
;DRILL file {KiCad (5.0.0)} date 11/24/20 22:03:42
;FORMAT={-:-/ absolute / inch / decimal}
FMAT,2
INCH,TZ
T1C0.0157
T2C0.0197
T3C0.0236
T4C0.0315
T5C0.0325
T6C0.0394
%
G90
G05
M72
T1
X3.74Y-4.3616
X3.8767Y-5.4633
X3.8851Y-5.0683
X3.8922Y-4.6875
X3.8922Y-5.2111
X3.9001Y-4.8135
X3.9316Y-4.8174
X3.9957Y-4.4283
X3.9989Y-4.6983
X4.0167Y-5.1983
X4.0221Y-5.0576
X4.036Y-4.4848
X4.0417Y-4.7583
X4.0418Y-5.1403
X4.0583Y-4.5513
X4.1095Y-4.554
X4.1117Y-4.8533
X4.1194Y-5.1875
X4.1217Y-5.4173
X4.1481Y-5.0025
X4.1522Y-4.484
X4.1617Y-4.8483
X4.1717Y-5.1363
X4.1917Y-5.2242
X4.1967Y-4.4283
X4.2167Y-4.8483
X4.2699Y-4.8536
X4.3206Y-4.8653
X4.3331Y-4.9355
X4.3457Y-4.3893
X4.3497Y-4.4733
T2
X3.9358Y-4.9533
X3.9858Y-4.9533
X4.0358Y-4.9533
X4.0858Y-4.9533
X4.1358Y-4.9533
X4.1858Y-4.9533
X4.2358Y-4.9533
X4.2458Y-5.0533
X4.2458Y-5.1033
X4.2458Y-5.1533
X4.2458Y-5.2033
X4.2458Y-5.2533
X4.2458Y-5.3033
X4.2458Y-5.3533
X4.2458Y-5.4033
T4
X4.4467Y-5.3733
X4.4467Y-5.1733
X4.4467Y-5.2733
X4.4467Y-5.0733
T5
X3.7867Y-4.4233
X3.7867Y-4.5233
X3.7867Y-4.6233
X3.7867Y-4.7233
X3.7867Y-4.8233
X3.7867Y-4.9233
X3.7867Y-5.0233
X3.7867Y-5.1233
X3.7867Y-5.2233
X3.7867Y-5.3233
X3.7867Y-5.4233
X3.7867Y-5.5233
X4.3867Y-4.4233
X4.3867Y-4.5233
X4.3867Y-4.6233
X4.3867Y-4.7233
X4.3867Y-4.8233
X4.3867Y-4.9233
X4.3867Y-5.0233
X4.3867Y-5.1233
X4.3867Y-5.2233
X4.3867Y-5.3233
X4.3867Y-5.4233
X4.3867Y-5.5233
T6
X3.8517Y-4.4233
X3.8517Y-4.5233
T3
X3.9166Y-4.404G85X3.9166Y-4.4277
G05
X3.9166Y-4.5588G85X3.9166Y-4.6021
G05
X4.2568Y-4.404G85X4.2568Y-4.4277
G05
X4.2568Y-4.5588G85X4.2568Y-4.6021
G05
T0
M30
