G04 #@! TF.GenerationSoftware,KiCad,Pcbnew,(5.0.0)*
G04 #@! TF.CreationDate,2020-11-29T09:19:22-06:00*
G04 #@! TF.ProjectId,BlueMicro840,426C75654D6963726F3834302E6B6963,rev?*
G04 #@! TF.SameCoordinates,Original*
G04 #@! TF.FileFunction,Copper,L2,Bot,Signal*
G04 #@! TF.FilePolarity,Positive*
%FSLAX46Y46*%
G04 Gerber Fmt 4.6, Leading zero omitted, Abs format (unit mm)*
G04 Created by KiCad (PCBNEW (5.0.0)) date 11/29/20 09:19:22*
%MOMM*%
%LPD*%
G01*
G04 APERTURE LIST*
G04 #@! TA.AperFunction,ComponentPad*
%ADD10R,1.000000X0.650000*%
G04 #@! TD*
G04 #@! TA.AperFunction,SMDPad,CuDef*
%ADD11R,1.000000X0.650000*%
G04 #@! TD*
G04 #@! TA.AperFunction,SMDPad,CuDef*
%ADD12R,0.650000X1.000000*%
G04 #@! TD*
G04 #@! TA.AperFunction,ComponentPad*
%ADD13R,0.650000X1.000000*%
G04 #@! TD*
G04 #@! TA.AperFunction,BGAPad,CuDef*
%ADD14C,1.000000*%
G04 #@! TD*
G04 #@! TA.AperFunction,ComponentPad*
%ADD15C,1.270000*%
G04 #@! TD*
G04 #@! TA.AperFunction,ComponentPad*
%ADD16R,1.250000X1.250000*%
G04 #@! TD*
G04 #@! TA.AperFunction,ComponentPad*
%ADD17C,1.100000*%
G04 #@! TD*
G04 #@! TA.AperFunction,Conductor*
%ADD18C,0.100000*%
G04 #@! TD*
G04 #@! TA.AperFunction,ComponentPad*
%ADD19O,1.000000X1.600000*%
G04 #@! TD*
G04 #@! TA.AperFunction,ComponentPad*
%ADD20O,1.000000X2.100000*%
G04 #@! TD*
G04 #@! TA.AperFunction,SMDPad,CuDef*
%ADD21R,0.300000X1.450000*%
G04 #@! TD*
G04 #@! TA.AperFunction,SMDPad,CuDef*
%ADD22R,0.600000X1.450000*%
G04 #@! TD*
G04 #@! TA.AperFunction,ComponentPad*
%ADD23R,1.700000X1.700000*%
G04 #@! TD*
G04 #@! TA.AperFunction,ComponentPad*
%ADD24O,1.700000X1.700000*%
G04 #@! TD*
G04 #@! TA.AperFunction,ViaPad*
%ADD25C,0.600000*%
G04 #@! TD*
G04 #@! TA.AperFunction,Conductor*
%ADD26C,0.200000*%
G04 #@! TD*
G04 APERTURE END LIST*
D10*
G04 #@! TO.P,U5,28*
G04 #@! TO.N,/P0.15*
X107842533Y-128354775D03*
D11*
G04 #@! TO.P,U5,10*
G04 #@! TO.N,/P0.30*
X97682533Y-126322775D03*
G04 #@! TO.P,U5,9*
G04 #@! TO.N,/P0.31*
X97682533Y-127592775D03*
G04 #@! TO.P,U5,8*
G04 #@! TO.N,/P0.29*
X97682533Y-128862775D03*
G04 #@! TO.P,U5,7*
G04 #@! TO.N,/P0.02*
X97682533Y-130132775D03*
G04 #@! TO.P,U5,6*
G04 #@! TO.N,/P1.13*
X97682533Y-131402775D03*
G04 #@! TO.P,U5,5*
G04 #@! TO.N,GND*
X97682533Y-132672775D03*
G04 #@! TO.P,U5,4*
G04 #@! TO.N,/P0.28*
X97682533Y-133942775D03*
G04 #@! TO.P,U5,3*
G04 #@! TO.N,/P0.03*
X97682533Y-135212775D03*
G04 #@! TO.P,U5,2*
G04 #@! TO.N,BLUE_LED*
X97682533Y-136482775D03*
G04 #@! TO.P,U5,1*
G04 #@! TO.N,/P1.11*
X97682533Y-137752775D03*
G04 #@! TO.P,U5,31*
G04 #@! TO.N,DATA+*
X109920533Y-130132775D03*
G04 #@! TO.P,U5,43*
G04 #@! TO.N,/P0.10*
X109920533Y-137752775D03*
G04 #@! TO.P,U5,33*
G04 #@! TO.N,/P0.13*
X109920533Y-131402775D03*
G04 #@! TO.P,U5,41*
G04 #@! TO.N,/P0.09*
X109920533Y-136482775D03*
G04 #@! TO.P,U5,39*
G04 #@! TO.N,SWCLK*
X109920533Y-135212775D03*
G04 #@! TO.P,U5,37*
G04 #@! TO.N,SWDIO*
X109920533Y-133942775D03*
G04 #@! TO.P,U5,29*
G04 #@! TO.N,DATA-*
X109920533Y-128862775D03*
G04 #@! TO.P,U5,35*
G04 #@! TO.N,/P0.24*
X109920533Y-132672775D03*
G04 #@! TO.P,U5,27*
G04 #@! TO.N,VBUS*
X109920533Y-127592775D03*
G04 #@! TO.P,U5,26*
G04 #@! TO.N,RESET*
X109920533Y-126322775D03*
D12*
G04 #@! TO.P,U5,23*
G04 #@! TO.N,VCC*
X106951533Y-124103775D03*
G04 #@! TO.P,U5,11*
G04 #@! TO.N,Net-(C1-Pad1)*
X99331533Y-124103775D03*
G04 #@! TO.P,U5,21*
G04 #@! TO.N,GND*
X105681533Y-124103775D03*
G04 #@! TO.P,U5,13*
G04 #@! TO.N,Net-(C2-Pad2)*
X100601533Y-124103775D03*
G04 #@! TO.P,U5,15*
G04 #@! TO.N,N/C*
X101871533Y-124103775D03*
G04 #@! TO.P,U5,17*
X103141533Y-124103775D03*
G04 #@! TO.P,U5,25*
G04 #@! TO.N,Net-(L1-Pad1)*
X108221533Y-124103775D03*
G04 #@! TO.P,U5,19*
G04 #@! TO.N,VCC*
X104411533Y-124103775D03*
D10*
G04 #@! TO.P,U5,30*
G04 #@! TO.N,/P0.17*
X107842533Y-129624775D03*
G04 #@! TO.P,U5,32*
G04 #@! TO.N,/P0.20*
X107842533Y-130894775D03*
G04 #@! TO.P,U5,34*
G04 #@! TO.N,N/C*
X107842533Y-132164775D03*
G04 #@! TO.P,U5,36*
X107842533Y-133434775D03*
G04 #@! TO.P,U5,38*
G04 #@! TO.N,1.02*
X107842533Y-134704775D03*
G04 #@! TO.P,U5,40*
G04 #@! TO.N,RED_LED*
X107842533Y-135974775D03*
G04 #@! TO.P,U5,42*
G04 #@! TO.N,/P1.06*
X107842533Y-137244775D03*
D13*
G04 #@! TO.P,U5,14*
G04 #@! TO.N,TXD*
X101238533Y-125814775D03*
G04 #@! TO.P,U5,12*
G04 #@! TO.N,/P0.26*
X99968533Y-125814775D03*
G04 #@! TO.P,U5,20*
G04 #@! TO.N,Venable*
X105048533Y-125814775D03*
G04 #@! TO.P,U5,16*
G04 #@! TO.N,RXD*
X102508533Y-125814775D03*
G04 #@! TO.P,U5,22*
G04 #@! TO.N,N/C*
X106318533Y-125814775D03*
G04 #@! TO.P,U5,24*
G04 #@! TO.N,GND*
X107588533Y-125814775D03*
G04 #@! TO.P,U5,18*
G04 #@! TO.N,N/C*
X103778533Y-125814775D03*
G04 #@! TD*
D14*
G04 #@! TO.P,TP8,1*
G04 #@! TO.N,GND*
X111421533Y-110574775D03*
G04 #@! TD*
D15*
G04 #@! TO.P,U2,13*
G04 #@! TO.N,TXD*
X111421533Y-112352775D03*
G04 #@! TO.P,U2,14*
G04 #@! TO.N,RXD*
X111421533Y-114892775D03*
G04 #@! TO.P,U2,15*
G04 #@! TO.N,GND*
X111421533Y-117432775D03*
G04 #@! TO.P,U2,16*
X111421533Y-119972775D03*
G04 #@! TO.P,U2,17*
G04 #@! TO.N,/P0.15*
X111421533Y-122512775D03*
G04 #@! TO.P,U2,18*
G04 #@! TO.N,/P0.17*
X111421533Y-125052775D03*
G04 #@! TO.P,U2,19*
G04 #@! TO.N,/P0.20*
X111421533Y-127592775D03*
G04 #@! TO.P,U2,20*
G04 #@! TO.N,/P0.13*
X111421533Y-130132775D03*
G04 #@! TO.P,U2,21*
G04 #@! TO.N,/P0.24*
X111421533Y-132672775D03*
G04 #@! TO.P,U2,22*
G04 #@! TO.N,/P0.09*
X111421533Y-135212775D03*
G04 #@! TO.P,U2,23*
G04 #@! TO.N,/P0.10*
X111421533Y-137752775D03*
G04 #@! TO.P,U2,24*
G04 #@! TO.N,/P1.06*
X111421533Y-140292775D03*
G04 #@! TO.P,U2,12*
G04 #@! TO.N,/P1.11*
X96181533Y-140292775D03*
G04 #@! TO.P,U2,11*
G04 #@! TO.N,/P0.28*
X96181533Y-137752775D03*
G04 #@! TO.P,U2,10*
G04 #@! TO.N,/P0.03*
X96181533Y-135212775D03*
G04 #@! TO.P,U2,9*
G04 #@! TO.N,/P1.13*
X96181533Y-132672775D03*
G04 #@! TO.P,U2,8*
G04 #@! TO.N,/P0.02*
X96181533Y-130132775D03*
G04 #@! TO.P,U2,7*
G04 #@! TO.N,/P0.29*
X96181533Y-127592775D03*
G04 #@! TO.P,U2,6*
G04 #@! TO.N,/P0.26*
X96181533Y-125052775D03*
G04 #@! TO.P,U2,5*
G04 #@! TO.N,/P0.30*
X96181533Y-122512775D03*
G04 #@! TO.P,U2,4*
G04 #@! TO.N,Vout*
X96181533Y-119972775D03*
G04 #@! TO.P,U2,3*
G04 #@! TO.N,RESET*
X96181533Y-117432775D03*
G04 #@! TO.P,U2,2*
G04 #@! TO.N,GND*
X96181533Y-114892775D03*
D16*
G04 #@! TO.P,U2,1*
G04 #@! TO.N,N/C*
X96181533Y-112352775D03*
G04 #@! TD*
D17*
G04 #@! TO.P,TP3,1*
G04 #@! TO.N,SWCLK*
X112945533Y-133942775D03*
D18*
G04 #@! TD*
G04 #@! TO.N,SWCLK*
G04 #@! TO.C,TP3*
G36*
X112945533Y-134720592D02*
X112167716Y-133942775D01*
X112945533Y-133164958D01*
X113723350Y-133942775D01*
X112945533Y-134720592D01*
X112945533Y-134720592D01*
G37*
D17*
G04 #@! TO.P,TP4,1*
G04 #@! TO.N,SWDIO*
X112945533Y-136482775D03*
D18*
G04 #@! TD*
G04 #@! TO.N,SWDIO*
G04 #@! TO.C,TP4*
G36*
X112945533Y-137260592D02*
X112167716Y-136482775D01*
X112945533Y-135704958D01*
X113723350Y-136482775D01*
X112945533Y-137260592D01*
X112945533Y-137260592D01*
G37*
D17*
G04 #@! TO.P,TP5,1*
G04 #@! TO.N,VCC*
X112945533Y-128862775D03*
D18*
G04 #@! TD*
G04 #@! TO.N,VCC*
G04 #@! TO.C,TP5*
G36*
X112945533Y-129640592D02*
X112167716Y-128862775D01*
X112945533Y-128084958D01*
X113723350Y-128862775D01*
X112945533Y-129640592D01*
X112945533Y-129640592D01*
G37*
D17*
G04 #@! TO.P,TP6,1*
G04 #@! TO.N,GND*
X112945533Y-131402775D03*
D18*
G04 #@! TD*
G04 #@! TO.N,GND*
G04 #@! TO.C,TP6*
G36*
X112945533Y-132180592D02*
X112167716Y-131402775D01*
X112945533Y-130624958D01*
X113723350Y-131402775D01*
X112945533Y-132180592D01*
X112945533Y-132180592D01*
G37*
D19*
G04 #@! TO.P,J3,S1*
G04 #@! TO.N,Net-(J3-PadS1)*
X108121533Y-112162775D03*
X99481533Y-112162775D03*
D20*
X108121533Y-116342775D03*
X99481533Y-116342775D03*
D21*
G04 #@! TO.P,J3,A6*
G04 #@! TO.N,DATA+*
X103551533Y-117257775D03*
G04 #@! TO.P,J3,A7*
G04 #@! TO.N,DATA-*
X104051533Y-117257775D03*
G04 #@! TO.P,J3,B6*
G04 #@! TO.N,DATA+*
X104551533Y-117257775D03*
G04 #@! TO.P,J3,B7*
G04 #@! TO.N,DATA-*
X103051533Y-117257775D03*
G04 #@! TO.P,J3,A8*
G04 #@! TO.N,N/C*
X105051533Y-117257775D03*
G04 #@! TO.P,J3,A5*
G04 #@! TO.N,Net-(J3-PadA5)*
X102551533Y-117257775D03*
G04 #@! TO.P,J3,B5*
G04 #@! TO.N,Net-(J3-PadB5)*
X105551533Y-117257775D03*
G04 #@! TO.P,J3,B8*
G04 #@! TO.N,N/C*
X102051533Y-117257775D03*
D22*
G04 #@! TO.P,J3,A4*
G04 #@! TO.N,VBUS*
X101351533Y-117257775D03*
X106251533Y-117257775D03*
G04 #@! TO.P,J3,A1*
G04 #@! TO.N,GND*
X100576533Y-117257775D03*
X107026533Y-117257775D03*
G04 #@! TD*
D23*
G04 #@! TO.P,J2,1*
G04 #@! TO.N,VBAT*
X97832533Y-112352775D03*
D24*
G04 #@! TO.P,J2,2*
G04 #@! TO.N,GND*
X97832533Y-114892775D03*
G04 #@! TD*
D25*
G04 #@! TO.N,GND*
X105706533Y-123147775D03*
X102023533Y-132037775D03*
X109743368Y-123578871D03*
X106595533Y-112479775D03*
X101490033Y-112479775D03*
X98861537Y-132362771D03*
X102161533Y-128462775D03*
X98861537Y-119062775D03*
G04 #@! TO.N,Net-(C1-Pad1)*
X99061533Y-122262769D03*
G04 #@! TO.N,VCC*
X107103533Y-123147775D03*
X104436533Y-123274775D03*
G04 #@! TO.N,RESET*
X94995261Y-110785503D03*
X110481733Y-113622775D03*
X110380133Y-111489175D03*
X110061533Y-125362775D03*
G04 #@! TO.N,/P0.31*
X98682535Y-128735775D03*
G04 #@! TO.N,VBUS*
X101571523Y-119337775D03*
X102661533Y-130562775D03*
X105361533Y-127062775D03*
X106469430Y-132693794D03*
G04 #@! TO.N,Net-(C2-Pad2)*
X99861533Y-122362773D03*
G04 #@! TO.N,Net-(L1-Pad1)*
X108455430Y-123280958D03*
G04 #@! TO.N,DATA-*
X103081533Y-115602775D03*
X104381545Y-115672783D03*
G04 #@! TO.N,Net-(R1-Pad2)*
X104631709Y-131761480D03*
X105961533Y-130462775D03*
G04 #@! TO.N,BLUE_LED*
X98467533Y-138768775D03*
G04 #@! TO.N,Net-(J3-PadA5)*
X102515379Y-113914609D03*
G04 #@! TO.N,Net-(J3-PadB5)*
X105466522Y-113892754D03*
G04 #@! TO.N,Vout*
X102658535Y-120861775D03*
G04 #@! TO.N,1.02*
X104690533Y-137600375D03*
G04 #@! TD*
D26*
G04 #@! TO.N,GND*
X105681533Y-124103775D02*
X105681533Y-123172775D01*
X105681533Y-123172775D02*
X105706533Y-123147775D01*
X109712835Y-119972775D02*
X110523508Y-119972775D01*
X108061835Y-121623775D02*
X109712835Y-119972775D01*
X105706533Y-123147775D02*
X107230533Y-121623775D01*
X108113533Y-125814775D02*
X109743368Y-124184940D01*
X109743368Y-124184940D02*
X109743368Y-124003135D01*
X107588533Y-125814775D02*
X108113533Y-125814775D01*
X109743368Y-124003135D02*
X109743368Y-123578871D01*
X110167632Y-123578871D02*
X109743368Y-123578871D01*
X111331431Y-123578871D02*
X110167632Y-123578871D01*
X112945533Y-130196275D02*
X111802533Y-129053275D01*
X111802533Y-129053275D02*
X111802533Y-128595577D01*
X111802533Y-128595577D02*
X112356534Y-128041576D01*
X112356534Y-128041576D02*
X112356534Y-124603974D01*
X112945533Y-131402775D02*
X112945533Y-130196275D01*
X112356534Y-124603974D02*
X111331431Y-123578871D01*
X107230533Y-121623775D02*
X107357533Y-121623775D01*
X107357533Y-121623775D02*
X108061835Y-121623775D01*
X110523508Y-119972775D02*
X111421533Y-119972775D01*
X109066533Y-119972775D02*
X110523508Y-119972775D01*
X107026533Y-117932775D02*
X109066533Y-119972775D01*
X107026533Y-117507775D02*
X107026533Y-117932775D01*
X107321523Y-117212785D02*
X107026533Y-117507775D01*
X107321523Y-114039785D02*
X107321523Y-117212785D01*
X107294033Y-114067275D02*
X107321523Y-114039785D01*
X102277533Y-112606775D02*
X105833533Y-112606775D01*
X101496523Y-113387785D02*
X102277533Y-112606775D01*
X96181533Y-110574775D02*
X96054533Y-110574775D01*
X106595533Y-112904039D02*
X106595533Y-113368775D01*
X106595533Y-112479775D02*
X106595533Y-112904039D01*
X105833533Y-112606775D02*
X106595533Y-113368775D01*
X106595533Y-113368775D02*
X107294033Y-114067275D01*
X101496523Y-112486265D02*
X101490033Y-112479775D01*
X101496523Y-113387785D02*
X101496523Y-112486265D01*
X109771529Y-115782771D02*
X109771529Y-111590775D01*
X111421533Y-117432775D02*
X109771529Y-115782771D01*
X110714427Y-110574775D02*
X111421533Y-110574775D01*
X109872133Y-110574775D02*
X110714427Y-110574775D01*
X109770533Y-110676375D02*
X109872133Y-110574775D01*
X109771529Y-111590775D02*
X109770533Y-111589779D01*
X109770533Y-111589779D02*
X109770533Y-110676375D01*
X109618133Y-110574775D02*
X96054533Y-110574775D01*
X109771529Y-111590775D02*
X109771529Y-110728171D01*
X109771529Y-110728171D02*
X109618133Y-110574775D01*
X95184544Y-113895786D02*
X95546534Y-114257776D01*
X95546534Y-114257776D02*
X96181533Y-114892775D01*
X95184544Y-111444764D02*
X95184544Y-113895786D01*
X96054533Y-110574775D02*
X95184544Y-111444764D01*
X98561538Y-132662770D02*
X98861537Y-132362771D01*
X99186533Y-132037775D02*
X99161536Y-132062772D01*
X99161536Y-132062772D02*
X98861537Y-132362771D01*
X102023533Y-132037775D02*
X99186533Y-132037775D01*
X98551533Y-132672775D02*
X98561538Y-132662770D01*
X97682533Y-132672775D02*
X98551533Y-132672775D01*
X102023533Y-132037775D02*
X102023533Y-128600775D01*
X102023533Y-128600775D02*
X102161533Y-128462775D01*
X96181533Y-114892775D02*
X98861537Y-117572779D01*
X98861537Y-118638511D02*
X98861537Y-119062775D01*
X98861537Y-117572779D02*
X98861537Y-118638511D01*
X100261533Y-117662779D02*
X99161536Y-118762776D01*
X100261533Y-114622775D02*
X100261533Y-115441391D01*
X101496523Y-113387785D02*
X100261533Y-114622775D01*
X100261533Y-115441391D02*
X100281543Y-115461401D01*
X99161536Y-118762776D02*
X98861537Y-119062775D01*
X100281543Y-115461401D02*
X100281543Y-117224149D01*
X100281543Y-117224149D02*
X100261533Y-117244159D01*
X100261533Y-117244159D02*
X100261533Y-117662779D01*
X108754533Y-132473773D02*
X109200530Y-132027776D01*
X102023533Y-132037775D02*
X103279622Y-133293864D01*
X107222144Y-132799775D02*
X108754533Y-132799775D01*
X106728055Y-133293864D02*
X107222144Y-132799775D01*
X103279622Y-133293864D02*
X106728055Y-133293864D01*
X111285535Y-131402775D02*
X112138426Y-131402775D01*
X112138426Y-131402775D02*
X112945533Y-131402775D01*
X109200530Y-132027776D02*
X110660534Y-132027776D01*
X110660534Y-132027776D02*
X111285535Y-131402775D01*
X108754533Y-132799775D02*
X108754533Y-132473773D01*
G04 #@! TO.N,Net-(C1-Pad1)*
X99061533Y-122687033D02*
X99061533Y-122262769D01*
X99331533Y-122957033D02*
X99061533Y-122687033D01*
X99331533Y-124103775D02*
X99331533Y-122957033D01*
G04 #@! TO.N,VCC*
X106951533Y-124278775D02*
X106951533Y-124103775D01*
X106326532Y-124903776D02*
X106951533Y-124278775D01*
X105036534Y-124903776D02*
X106326532Y-124903776D01*
X104411533Y-124278775D02*
X105036534Y-124903776D01*
X104411533Y-124103775D02*
X104411533Y-124278775D01*
X106951533Y-124103775D02*
X106951533Y-123299775D01*
X106951533Y-123299775D02*
X107103533Y-123147775D01*
X104411533Y-123299775D02*
X104436533Y-123274775D01*
X104411533Y-124103775D02*
X104411533Y-123299775D01*
X112945533Y-128055668D02*
X112945533Y-128862775D01*
X112843933Y-127954068D02*
X112945533Y-128055668D01*
X112843933Y-122551373D02*
X112843933Y-127954068D01*
X112597834Y-122305274D02*
X112843933Y-122551373D01*
X107103533Y-123147775D02*
X108754533Y-121496775D01*
X110696607Y-121496775D02*
X110856908Y-121336474D01*
X110856908Y-121336474D02*
X111986158Y-121336474D01*
X108754533Y-121496775D02*
X110696607Y-121496775D01*
X111986158Y-121336474D02*
X112597834Y-121948150D01*
X112597834Y-121948150D02*
X112597834Y-122305274D01*
G04 #@! TO.N,SWDIO*
X111294533Y-136482775D02*
X112945533Y-136482775D01*
X108881533Y-134281775D02*
X108881533Y-136808777D01*
X108881533Y-136808777D02*
X109180532Y-137107776D01*
X109220533Y-133942775D02*
X108881533Y-134281775D01*
X109180532Y-137107776D02*
X110669532Y-137107776D01*
X110669532Y-137107776D02*
X111294533Y-136482775D01*
X109920533Y-133942775D02*
X109220533Y-133942775D01*
G04 #@! TO.N,RESET*
X110481733Y-111590775D02*
X110380133Y-111489175D01*
X110481733Y-113622775D02*
X110481733Y-111590775D01*
X94784533Y-110996231D02*
X94995261Y-110785503D01*
X96181533Y-117432775D02*
X94784533Y-116035775D01*
X94784533Y-116035775D02*
X94784533Y-110996231D01*
X109920533Y-126322775D02*
X109920533Y-125503775D01*
X109920533Y-125503775D02*
X110061533Y-125362775D01*
G04 #@! TO.N,TXD*
X111422000Y-112353000D02*
X111422000Y-112079800D01*
G04 #@! TO.N,/P0.02*
X96181533Y-130132775D02*
X97682533Y-130132775D01*
G04 #@! TO.N,/P0.29*
X97451533Y-128862775D02*
X97682533Y-128862775D01*
X96181533Y-127592775D02*
X97451533Y-128862775D01*
G04 #@! TO.N,/P0.30*
X95013133Y-123681175D02*
X96181533Y-122512775D01*
X95013133Y-125789375D02*
X95013133Y-123681175D01*
X97682533Y-126322775D02*
X95546533Y-126322775D01*
X95546533Y-126322775D02*
X95013133Y-125789375D01*
G04 #@! TO.N,/P0.31*
X97682533Y-127592775D02*
X98682535Y-128592777D01*
X98682535Y-128592777D02*
X98682535Y-128735775D01*
G04 #@! TO.N,/P0.10*
X109920533Y-137752775D02*
X111421533Y-137752775D01*
G04 #@! TO.N,/P0.09*
X111365533Y-135212775D02*
X111421533Y-135212775D01*
X110095533Y-136482775D02*
X111365533Y-135212775D01*
X109920533Y-136482775D02*
X110095533Y-136482775D01*
G04 #@! TO.N,SWCLK*
X112138426Y-133942775D02*
X112945533Y-133942775D01*
X111365533Y-133942775D02*
X112138426Y-133942775D01*
X109920533Y-135212775D02*
X110095533Y-135212775D01*
X110095533Y-135212775D02*
X111365533Y-133942775D01*
G04 #@! TO.N,VBUS*
X101571523Y-118913511D02*
X101571523Y-119337775D01*
X101915378Y-113635332D02*
X101915378Y-116018930D01*
X101571523Y-116362785D02*
X101571523Y-118913511D01*
X102435935Y-113114775D02*
X101915378Y-113635332D01*
X106066532Y-116397774D02*
X106066532Y-113601774D01*
X106251533Y-117507775D02*
X106251533Y-116582775D01*
X105579533Y-113114775D02*
X102435935Y-113114775D01*
X106251533Y-116582775D02*
X106066532Y-116397774D01*
X106066532Y-113601774D02*
X105579533Y-113114775D01*
X101915378Y-116018930D02*
X101571523Y-116362785D01*
X101351533Y-116582775D02*
X101571523Y-116362785D01*
X101351533Y-117257775D02*
X101351533Y-116582775D01*
X105661532Y-127362774D02*
X105361533Y-127062775D01*
X105891533Y-127592775D02*
X105661532Y-127362774D01*
X109920533Y-127592775D02*
X105891533Y-127592775D01*
X104368288Y-132693794D02*
X106045166Y-132693794D01*
X102661533Y-130987039D02*
X104368288Y-132693794D01*
X102661533Y-130562775D02*
X102661533Y-130987039D01*
X106045166Y-132693794D02*
X106469430Y-132693794D01*
G04 #@! TO.N,Net-(C2-Pad2)*
X100601533Y-124103775D02*
X100601533Y-123102773D01*
X100601533Y-123102773D02*
X100161532Y-122662772D01*
X100161532Y-122662772D02*
X99861533Y-122362773D01*
G04 #@! TO.N,Net-(L1-Pad1)*
X108344350Y-123280958D02*
X108455430Y-123280958D01*
X108221533Y-124103775D02*
X108221533Y-123403775D01*
X108221533Y-123403775D02*
X108344350Y-123280958D01*
G04 #@! TO.N,DATA+*
X103551533Y-118432775D02*
X103551533Y-117507775D01*
X103551533Y-122254775D02*
X103551533Y-118432775D01*
X102516532Y-123289776D02*
X103551533Y-122254775D01*
X102747532Y-125014774D02*
X102516532Y-124783774D01*
X103073534Y-125014774D02*
X102747532Y-125014774D01*
X102516532Y-124783774D02*
X102516532Y-123289776D01*
X103133534Y-125074774D02*
X103073534Y-125014774D01*
X103133534Y-127053186D02*
X103133534Y-125074774D01*
X109220533Y-130132775D02*
X109103532Y-130249776D01*
X109920533Y-130132775D02*
X109220533Y-130132775D01*
X109103532Y-130249776D02*
X106839534Y-130249776D01*
X106839534Y-130249776D02*
X106029543Y-129439785D01*
X106029543Y-129439785D02*
X105520133Y-129439785D01*
X105520133Y-129439785D02*
X103133534Y-127053186D01*
X105041535Y-115962778D02*
X104551533Y-116452780D01*
X103731535Y-115350769D02*
X104059531Y-115022773D01*
X104059531Y-115022773D02*
X104703535Y-115022773D01*
X104703535Y-115022773D02*
X105041535Y-115360773D01*
X103731535Y-115914777D02*
X103731535Y-115350769D01*
X104551533Y-116452780D02*
X104551533Y-117257775D01*
X103551533Y-116094779D02*
X103731535Y-115914777D01*
X103551533Y-117257775D02*
X103551533Y-116094779D01*
X105041535Y-115360773D02*
X105041535Y-115962778D01*
G04 #@! TO.N,DATA-*
X109103532Y-128979776D02*
X109220533Y-128862775D01*
X109220533Y-128862775D02*
X109920533Y-128862775D01*
X105706533Y-128979776D02*
X109103532Y-128979776D01*
X105706533Y-128989775D02*
X105706533Y-128979776D01*
X104423532Y-125094772D02*
X104423532Y-127696775D01*
X104343534Y-125014774D02*
X104423532Y-125094772D01*
X103957530Y-125014774D02*
X104343534Y-125014774D01*
X103766534Y-123056772D02*
X103766534Y-124823778D01*
X103766534Y-124823778D02*
X103957530Y-125014774D01*
X104040531Y-118771773D02*
X104040531Y-122782775D01*
X104051533Y-118760771D02*
X104040531Y-118771773D01*
X104040531Y-122782775D02*
X103766534Y-123056772D01*
X104423532Y-127696775D02*
X105706533Y-128979776D01*
X104051533Y-117507775D02*
X104051533Y-118760771D01*
X103051533Y-117257775D02*
X103051533Y-116261189D01*
X103051533Y-115632775D02*
X103081533Y-115602775D01*
X103051533Y-116261189D02*
X103051533Y-115632775D01*
X104051533Y-117257775D02*
X104051533Y-116231190D01*
X104381545Y-115901178D02*
X104381545Y-115672783D01*
X104051533Y-116231190D02*
X104381545Y-115901178D01*
G04 #@! TO.N,/P1.13*
X96385600Y-132469400D02*
X96182000Y-132673000D01*
X97451533Y-131402775D02*
X97682533Y-131402775D01*
X96181533Y-132672775D02*
X97451533Y-131402775D01*
G04 #@! TO.N,/P1.11*
X97682533Y-138791775D02*
X96181533Y-140292775D01*
X97682533Y-137752775D02*
X97682533Y-138791775D01*
G04 #@! TO.N,/P1.06*
X110786534Y-139657776D02*
X111421533Y-140292775D01*
X110430534Y-139657776D02*
X110786534Y-139657776D01*
X108017533Y-137244775D02*
X110430534Y-139657776D01*
X107842533Y-137244775D02*
X108017533Y-137244775D01*
G04 #@! TO.N,/P0.26*
X97079558Y-125052775D02*
X96181533Y-125052775D01*
X98681533Y-125052775D02*
X97079558Y-125052775D01*
X99443533Y-125814775D02*
X98681533Y-125052775D01*
X99968533Y-125814775D02*
X99443533Y-125814775D01*
G04 #@! TO.N,/P0.13*
X110786534Y-130767774D02*
X111421533Y-130132775D01*
X110151533Y-131402775D02*
X110786534Y-130767774D01*
X109920533Y-131402775D02*
X110151533Y-131402775D01*
G04 #@! TO.N,Net-(R1-Pad2)*
X104631709Y-131761480D02*
X105930414Y-130462775D01*
X105930414Y-130462775D02*
X105961533Y-130462775D01*
G04 #@! TO.N,/P0.24*
X111422000Y-132075000D02*
X111422000Y-132673000D01*
X109920533Y-132672775D02*
X111421533Y-132672775D01*
G04 #@! TO.N,BLUE_LED*
X98482534Y-138753774D02*
X98467533Y-138768775D01*
X98482534Y-137107776D02*
X98482534Y-138753774D01*
X97682533Y-136482775D02*
X97857533Y-136482775D01*
X97857533Y-136482775D02*
X98482534Y-137107776D01*
G04 #@! TO.N,/P0.03*
X96182000Y-134615000D02*
X96182000Y-135213000D01*
X96181533Y-135212775D02*
X97682533Y-135212775D01*
G04 #@! TO.N,/P0.28*
X98412535Y-135847775D02*
X96952531Y-135847775D01*
X96181533Y-136854750D02*
X96181533Y-137752775D01*
X98482534Y-135777776D02*
X98412535Y-135847775D01*
X96181533Y-136618773D02*
X96181533Y-136854750D01*
X98482534Y-134742776D02*
X98482534Y-135777776D01*
X97682533Y-133942775D02*
X98482534Y-134742776D01*
X96952531Y-135847775D02*
X96181533Y-136618773D01*
G04 #@! TO.N,Net-(J3-PadS1)*
X99481533Y-115342775D02*
X99481533Y-112412775D01*
X99481533Y-116592775D02*
X99481533Y-115342775D01*
X100181533Y-112412775D02*
X99481533Y-112412775D01*
X101181533Y-111412775D02*
X100181533Y-112412775D01*
X106421533Y-111412775D02*
X101181533Y-111412775D01*
X107421533Y-112412775D02*
X106421533Y-111412775D01*
X108121533Y-112412775D02*
X107421533Y-112412775D01*
X108121533Y-113412775D02*
X108121533Y-116592775D01*
X108121533Y-112412775D02*
X108121533Y-113412775D01*
G04 #@! TO.N,Net-(J3-PadA5)*
X102515379Y-114338873D02*
X102515379Y-113914609D01*
X102551533Y-117507775D02*
X102515379Y-117471621D01*
X102551533Y-117257775D02*
X102551533Y-116062775D01*
X102515379Y-115280927D02*
X102515379Y-114338873D01*
X102481532Y-115314774D02*
X102515379Y-115280927D01*
X102481532Y-115992774D02*
X102481532Y-115314774D01*
X102551533Y-116062775D02*
X102481532Y-115992774D01*
G04 #@! TO.N,Net-(J3-PadB5)*
X105551533Y-114402029D02*
X105466522Y-114317018D01*
X105466522Y-114317018D02*
X105466522Y-113892754D01*
X105551533Y-117507775D02*
X105551533Y-114402029D01*
G04 #@! TO.N,Vout*
X96182000Y-119973000D02*
X96516000Y-119639000D01*
X97070533Y-120861775D02*
X102234271Y-120861775D01*
X96181533Y-119972775D02*
X97070533Y-120861775D01*
X102234271Y-120861775D02*
X102658535Y-120861775D01*
G04 #@! TO.N,1.02*
X104771933Y-137600375D02*
X104690533Y-137600375D01*
X107842533Y-134704775D02*
X107667533Y-134704775D01*
X107667533Y-134704775D02*
X104771933Y-137600375D01*
G04 #@! TD*
M02*
