G04 #@! TF.GenerationSoftware,KiCad,Pcbnew,(5.1.9)-1*
G04 #@! TF.CreationDate,2021-01-24T00:06:14-06:00*
G04 #@! TF.ProjectId,BlueMicro840,426c7565-4d69-4637-926f-3834302e6b69,rev?*
G04 #@! TF.SameCoordinates,Original*
G04 #@! TF.FileFunction,Legend,Top*
G04 #@! TF.FilePolarity,Positive*
%FSLAX46Y46*%
G04 Gerber Fmt 4.6, Leading zero omitted, Abs format (unit mm)*
G04 Created by KiCad (PCBNEW (5.1.9)-1) date 2021-01-24 00:06:14*
%MOMM*%
%LPD*%
G01*
G04 APERTURE LIST*
%ADD10C,0.200000*%
%ADD11C,0.100000*%
%ADD12C,0.120000*%
%ADD13C,0.150000*%
G04 APERTURE END LIST*
D10*
X102361533Y-138062775D02*
X102211533Y-139812775D01*
X98721533Y-113114775D02*
X98594533Y-113495775D01*
X98340533Y-113114775D02*
X98721533Y-113114775D01*
X98340533Y-113114775D02*
X98594533Y-113495775D01*
X98340533Y-113114775D02*
X99610533Y-113876775D01*
D11*
X105371104Y-115292989D02*
X105621104Y-115650132D01*
X105799675Y-115292989D02*
X105799675Y-116042989D01*
X105513961Y-116042989D01*
X105442532Y-116007275D01*
X105406818Y-115971560D01*
X105371104Y-115900132D01*
X105371104Y-115792989D01*
X105406818Y-115721560D01*
X105442532Y-115685846D01*
X105513961Y-115650132D01*
X105799675Y-115650132D01*
X105085390Y-115507275D02*
X104728247Y-115507275D01*
X105156818Y-115292989D02*
X104906818Y-116042989D01*
X104656818Y-115292989D01*
X104478247Y-116042989D02*
X104299675Y-115292989D01*
X104156818Y-115828703D01*
X104013961Y-115292989D01*
X103835390Y-116042989D01*
X102978247Y-115792989D02*
X102978247Y-115292989D01*
X102978247Y-115721560D02*
X102942532Y-115757275D01*
X102871104Y-115792989D01*
X102763961Y-115792989D01*
X102692532Y-115757275D01*
X102656818Y-115685846D01*
X102656818Y-115292989D01*
X102192532Y-115292989D02*
X102263961Y-115328703D01*
X102299675Y-115364417D01*
X102335390Y-115435846D01*
X102335390Y-115650132D01*
X102299675Y-115721560D01*
X102263961Y-115757275D01*
X102192532Y-115792989D01*
X102085390Y-115792989D01*
X102013961Y-115757275D01*
X101978247Y-115721560D01*
X101942532Y-115650132D01*
X101942532Y-115435846D01*
X101978247Y-115364417D01*
X102013961Y-115328703D01*
X102085390Y-115292989D01*
X102192532Y-115292989D01*
X101728247Y-115792989D02*
X101442532Y-115792989D01*
X101621104Y-116042989D02*
X101621104Y-115400132D01*
X101585390Y-115328703D01*
X101513961Y-115292989D01*
X101442532Y-115292989D01*
X109763961Y-114103703D02*
X109835390Y-114067989D01*
X109978247Y-114067989D01*
X110049675Y-114103703D01*
X110085390Y-114139417D01*
X110121104Y-114210846D01*
X110121104Y-114425132D01*
X110085390Y-114496560D01*
X110049675Y-114532275D01*
X109978247Y-114567989D01*
X109835390Y-114567989D01*
X109763961Y-114532275D01*
X109335390Y-114067989D02*
X109406818Y-114103703D01*
X109442533Y-114139417D01*
X109478247Y-114210846D01*
X109478247Y-114425132D01*
X109442533Y-114496560D01*
X109406818Y-114532275D01*
X109335390Y-114567989D01*
X109228247Y-114567989D01*
X109156818Y-114532275D01*
X109121104Y-114496560D01*
X109085390Y-114425132D01*
X109085390Y-114210846D01*
X109121104Y-114139417D01*
X109156818Y-114103703D01*
X109228247Y-114067989D01*
X109335390Y-114067989D01*
X108763961Y-114567989D02*
X108763961Y-114067989D01*
X108763961Y-114496560D02*
X108728247Y-114532275D01*
X108656818Y-114567989D01*
X108549675Y-114567989D01*
X108478247Y-114532275D01*
X108442533Y-114460846D01*
X108442533Y-114067989D01*
X108085390Y-114567989D02*
X108085390Y-114067989D01*
X108085390Y-114496560D02*
X108049675Y-114532275D01*
X107978247Y-114567989D01*
X107871104Y-114567989D01*
X107799675Y-114532275D01*
X107763961Y-114460846D01*
X107763961Y-114067989D01*
X107121104Y-114103703D02*
X107192533Y-114067989D01*
X107335390Y-114067989D01*
X107406818Y-114103703D01*
X107442533Y-114175132D01*
X107442533Y-114460846D01*
X107406818Y-114532275D01*
X107335390Y-114567989D01*
X107192533Y-114567989D01*
X107121104Y-114532275D01*
X107085390Y-114460846D01*
X107085390Y-114389417D01*
X107442533Y-114317989D01*
X106442533Y-114103703D02*
X106513961Y-114067989D01*
X106656818Y-114067989D01*
X106728247Y-114103703D01*
X106763961Y-114139417D01*
X106799675Y-114210846D01*
X106799675Y-114425132D01*
X106763961Y-114496560D01*
X106728247Y-114532275D01*
X106656818Y-114567989D01*
X106513961Y-114567989D01*
X106442533Y-114532275D01*
X106228247Y-114567989D02*
X105942533Y-114567989D01*
X106121104Y-114817989D02*
X106121104Y-114175132D01*
X106085390Y-114103703D01*
X106013961Y-114067989D01*
X105942533Y-114067989D01*
X105406818Y-114103703D02*
X105478247Y-114067989D01*
X105621104Y-114067989D01*
X105692533Y-114103703D01*
X105728247Y-114175132D01*
X105728247Y-114460846D01*
X105692533Y-114532275D01*
X105621104Y-114567989D01*
X105478247Y-114567989D01*
X105406818Y-114532275D01*
X105371104Y-114460846D01*
X105371104Y-114389417D01*
X105728247Y-114317989D01*
X104728247Y-114067989D02*
X104728247Y-114817989D01*
X104728247Y-114103703D02*
X104799675Y-114067989D01*
X104942533Y-114067989D01*
X105013961Y-114103703D01*
X105049675Y-114139417D01*
X105085390Y-114210846D01*
X105085390Y-114425132D01*
X105049675Y-114496560D01*
X105013961Y-114532275D01*
X104942533Y-114567989D01*
X104799675Y-114567989D01*
X104728247Y-114532275D01*
X103906818Y-114567989D02*
X103621104Y-114567989D01*
X103799675Y-114817989D02*
X103799675Y-114175132D01*
X103763961Y-114103703D01*
X103692533Y-114067989D01*
X103621104Y-114067989D01*
X103263961Y-114067989D02*
X103335390Y-114103703D01*
X103371104Y-114139417D01*
X103406818Y-114210846D01*
X103406818Y-114425132D01*
X103371104Y-114496560D01*
X103335390Y-114532275D01*
X103263961Y-114567989D01*
X103156818Y-114567989D01*
X103085390Y-114532275D01*
X103049675Y-114496560D01*
X103013961Y-114425132D01*
X103013961Y-114210846D01*
X103049675Y-114139417D01*
X103085390Y-114103703D01*
X103156818Y-114067989D01*
X103263961Y-114067989D01*
X102228247Y-114817989D02*
X101978247Y-114067989D01*
X101728247Y-114817989D01*
X101228247Y-114460846D02*
X101121104Y-114425132D01*
X101085390Y-114389417D01*
X101049675Y-114317989D01*
X101049675Y-114210846D01*
X101085390Y-114139417D01*
X101121104Y-114103703D01*
X101192533Y-114067989D01*
X101478247Y-114067989D01*
X101478247Y-114817989D01*
X101228247Y-114817989D01*
X101156818Y-114782275D01*
X101121104Y-114746560D01*
X101085390Y-114675132D01*
X101085390Y-114603703D01*
X101121104Y-114532275D01*
X101156818Y-114496560D01*
X101228247Y-114460846D01*
X101478247Y-114460846D01*
X100406818Y-114067989D02*
X100406818Y-114460846D01*
X100442533Y-114532275D01*
X100513961Y-114567989D01*
X100656818Y-114567989D01*
X100728247Y-114532275D01*
X100406818Y-114103703D02*
X100478247Y-114067989D01*
X100656818Y-114067989D01*
X100728247Y-114103703D01*
X100763961Y-114175132D01*
X100763961Y-114246560D01*
X100728247Y-114317989D01*
X100656818Y-114353703D01*
X100478247Y-114353703D01*
X100406818Y-114389417D01*
X100156818Y-114567989D02*
X99871104Y-114567989D01*
X100049675Y-114817989D02*
X100049675Y-114175132D01*
X100013961Y-114103703D01*
X99942533Y-114067989D01*
X99871104Y-114067989D01*
X99728247Y-114567989D02*
X99442533Y-114567989D01*
X99621104Y-114817989D02*
X99621104Y-114175132D01*
X99585390Y-114103703D01*
X99513961Y-114067989D01*
X99442533Y-114067989D01*
D10*
X97169533Y-113409775D02*
X96661533Y-113282775D01*
X96671533Y-113912775D02*
X97179533Y-113785775D01*
D11*
X101532961Y-140902060D02*
X101104390Y-140902060D01*
X101318675Y-140902060D02*
X101318675Y-140152060D01*
X101247247Y-140259203D01*
X101175818Y-140330632D01*
X101104390Y-140366346D01*
X101854390Y-140830632D02*
X101890104Y-140866346D01*
X101854390Y-140902060D01*
X101818675Y-140866346D01*
X101854390Y-140830632D01*
X101854390Y-140902060D01*
X102354390Y-140152060D02*
X102425818Y-140152060D01*
X102497247Y-140187775D01*
X102532961Y-140223489D01*
X102568675Y-140294917D01*
X102604390Y-140437775D01*
X102604390Y-140616346D01*
X102568675Y-140759203D01*
X102532961Y-140830632D01*
X102497247Y-140866346D01*
X102425818Y-140902060D01*
X102354390Y-140902060D01*
X102282961Y-140866346D01*
X102247247Y-140830632D01*
X102211533Y-140759203D01*
X102175818Y-140616346D01*
X102175818Y-140437775D01*
X102211533Y-140294917D01*
X102247247Y-140223489D01*
X102282961Y-140187775D01*
X102354390Y-140152060D01*
X102890104Y-140223489D02*
X102925818Y-140187775D01*
X102997247Y-140152060D01*
X103175818Y-140152060D01*
X103247247Y-140187775D01*
X103282961Y-140223489D01*
X103318675Y-140294917D01*
X103318675Y-140366346D01*
X103282961Y-140473489D01*
X102854390Y-140902060D01*
X103318675Y-140902060D01*
X109716818Y-110235489D02*
X109966818Y-110592632D01*
X110145390Y-110235489D02*
X110145390Y-110985489D01*
X109859675Y-110985489D01*
X109788247Y-110949775D01*
X109752533Y-110914060D01*
X109716818Y-110842632D01*
X109716818Y-110735489D01*
X109752533Y-110664060D01*
X109788247Y-110628346D01*
X109859675Y-110592632D01*
X110145390Y-110592632D01*
X109395390Y-110628346D02*
X109145390Y-110628346D01*
X109038247Y-110235489D02*
X109395390Y-110235489D01*
X109395390Y-110985489D01*
X109038247Y-110985489D01*
X108752533Y-110271203D02*
X108645390Y-110235489D01*
X108466818Y-110235489D01*
X108395390Y-110271203D01*
X108359675Y-110306917D01*
X108323961Y-110378346D01*
X108323961Y-110449775D01*
X108359675Y-110521203D01*
X108395390Y-110556917D01*
X108466818Y-110592632D01*
X108609675Y-110628346D01*
X108681104Y-110664060D01*
X108716818Y-110699775D01*
X108752533Y-110771203D01*
X108752533Y-110842632D01*
X108716818Y-110914060D01*
X108681104Y-110949775D01*
X108609675Y-110985489D01*
X108431104Y-110985489D01*
X108323961Y-110949775D01*
X108002533Y-110628346D02*
X107752533Y-110628346D01*
X107645390Y-110235489D02*
X108002533Y-110235489D01*
X108002533Y-110985489D01*
X107645390Y-110985489D01*
X107431104Y-110985489D02*
X107002533Y-110985489D01*
X107216818Y-110235489D02*
X107216818Y-110985489D01*
D12*
X99547033Y-139503775D02*
X101832033Y-139503775D01*
X101832033Y-139503775D02*
X101832033Y-138033775D01*
X101832033Y-138033775D02*
X99547033Y-138033775D01*
X105998533Y-127111775D02*
X103713533Y-127111775D01*
X103713533Y-127111775D02*
X103713533Y-128581775D01*
X103713533Y-128581775D02*
X105998533Y-128581775D01*
X100285533Y-122653775D02*
X98935533Y-122653775D01*
X100285533Y-124403775D02*
X98935533Y-124403775D01*
X107473533Y-120820775D02*
X109923533Y-120820775D01*
X109273533Y-117600775D02*
X107473533Y-117600775D01*
X103917533Y-134028775D02*
X105717533Y-134028775D01*
X105717533Y-130808775D02*
X103267533Y-130808775D01*
X107802034Y-138033775D02*
X105517034Y-138033775D01*
X105517034Y-138033775D02*
X105517034Y-139503775D01*
X105517034Y-139503775D02*
X107802034Y-139503775D01*
X97830533Y-120897554D02*
X97830533Y-120571996D01*
X98850533Y-120897554D02*
X98850533Y-120571996D01*
X100628533Y-120597497D02*
X100628533Y-120923055D01*
X99608533Y-120597497D02*
X99608533Y-120923055D01*
X98469533Y-117295496D02*
X98469533Y-117621054D01*
X97449533Y-117295496D02*
X97449533Y-117621054D01*
X100509812Y-135210775D02*
X100184254Y-135210775D01*
X100509812Y-136230775D02*
X100184254Y-136230775D01*
X104654754Y-122641775D02*
X104980312Y-122641775D01*
X104654754Y-121621775D02*
X104980312Y-121621775D01*
X98685754Y-132039775D02*
X99011312Y-132039775D01*
X98685754Y-131019775D02*
X99011312Y-131019775D01*
X105010254Y-130007775D02*
X105335812Y-130007775D01*
X105010254Y-128987775D02*
X105335812Y-128987775D01*
X103422533Y-128771554D02*
X103422533Y-128445996D01*
X102402533Y-128771554D02*
X102402533Y-128445996D01*
X100878533Y-128797060D02*
X100878533Y-128471502D01*
X101898533Y-128797060D02*
X101898533Y-128471502D01*
X99011312Y-130515775D02*
X98685754Y-130515775D01*
X99011312Y-129495775D02*
X98685754Y-129495775D01*
X100509812Y-136734775D02*
X100184254Y-136734775D01*
X100509812Y-137754775D02*
X100184254Y-137754775D01*
X98685754Y-132543775D02*
X99011312Y-132543775D01*
X98685754Y-133563775D02*
X99011312Y-133563775D01*
X104091312Y-139278775D02*
X103765754Y-139278775D01*
X104091312Y-138258775D02*
X103765754Y-138258775D01*
X100642533Y-134796775D02*
X102642533Y-134796775D01*
X102642533Y-134796775D02*
X102642533Y-130896775D01*
X100642533Y-134796775D02*
X100642533Y-130896775D01*
X104057533Y-134521775D02*
X104057533Y-135451775D01*
X104057533Y-137681775D02*
X104057533Y-136751775D01*
X104057533Y-137681775D02*
X106217533Y-137681775D01*
X104057533Y-134521775D02*
X105517533Y-134521775D01*
X103161533Y-137312775D02*
G75*
G03*
X103161533Y-137312775I-700000J0D01*
G01*
X112121533Y-110574775D02*
G75*
G03*
X112121533Y-110574775I-700000J0D01*
G01*
X108299611Y-122714775D02*
X107782455Y-122714775D01*
X108299611Y-121294775D02*
X107782455Y-121294775D01*
X112945533Y-134932724D02*
X111955584Y-133942775D01*
X113935482Y-133942775D02*
X112945533Y-134932724D01*
X112945533Y-132952826D02*
X113935482Y-133942775D01*
X111955584Y-133942775D02*
X112945533Y-132952826D01*
X111955584Y-136482775D02*
X112945533Y-135492826D01*
X112945533Y-135492826D02*
X113935482Y-136482775D01*
X113935482Y-136482775D02*
X112945533Y-137472724D01*
X112945533Y-137472724D02*
X111955584Y-136482775D01*
X111955584Y-128862775D02*
X112945533Y-127872826D01*
X112945533Y-127872826D02*
X113935482Y-128862775D01*
X113935482Y-128862775D02*
X112945533Y-129852724D01*
X112945533Y-129852724D02*
X111955584Y-128862775D01*
X112945533Y-132392724D02*
X111955584Y-131402775D01*
X113935482Y-131402775D02*
X112945533Y-132392724D01*
X112945533Y-130412826D02*
X113935482Y-131402775D01*
X111955584Y-131402775D02*
X112945533Y-130412826D01*
X105069533Y-112388554D02*
X105069533Y-112062996D01*
X106089533Y-112388554D02*
X106089533Y-112062996D01*
X103041533Y-112388554D02*
X103041533Y-112062996D01*
X102021533Y-112388554D02*
X102021533Y-112062996D01*
X105209533Y-117600775D02*
X103409533Y-117600775D01*
X103409533Y-120820775D02*
X105859533Y-120820775D01*
X96502533Y-116222775D02*
X99162533Y-116222775D01*
X96502533Y-113622775D02*
X96502533Y-116222775D01*
X99162533Y-113622775D02*
X99162533Y-116222775D01*
X96502533Y-113622775D02*
X99162533Y-113622775D01*
X96502533Y-112352775D02*
X96502533Y-111022775D01*
X96502533Y-111022775D02*
X97832533Y-111022775D01*
D11*
X98007961Y-140202060D02*
X98007961Y-139452060D01*
X98186533Y-139452060D01*
X98293675Y-139487775D01*
X98365104Y-139559203D01*
X98400818Y-139630632D01*
X98436533Y-139773489D01*
X98436533Y-139880632D01*
X98400818Y-140023489D01*
X98365104Y-140094917D01*
X98293675Y-140166346D01*
X98186533Y-140202060D01*
X98007961Y-140202060D01*
X98686533Y-139452060D02*
X99150818Y-139452060D01*
X98900818Y-139737775D01*
X99007961Y-139737775D01*
X99079390Y-139773489D01*
X99115104Y-139809203D01*
X99150818Y-139880632D01*
X99150818Y-140059203D01*
X99115104Y-140130632D01*
X99079390Y-140166346D01*
X99007961Y-140202060D01*
X98793675Y-140202060D01*
X98722247Y-140166346D01*
X98686533Y-140130632D01*
X106713866Y-127718941D02*
X106713866Y-127018941D01*
X106880533Y-127018941D01*
X106980533Y-127052275D01*
X107047199Y-127118941D01*
X107080533Y-127185608D01*
X107113866Y-127318941D01*
X107113866Y-127418941D01*
X107080533Y-127552275D01*
X107047199Y-127618941D01*
X106980533Y-127685608D01*
X106880533Y-127718941D01*
X106713866Y-127718941D01*
X107380533Y-127085608D02*
X107413866Y-127052275D01*
X107480533Y-127018941D01*
X107647199Y-127018941D01*
X107713866Y-127052275D01*
X107747199Y-127085608D01*
X107780533Y-127152275D01*
X107780533Y-127218941D01*
X107747199Y-127318941D01*
X107347199Y-127718941D01*
X107780533Y-127718941D01*
X99593866Y-123862108D02*
X99927199Y-123862108D01*
X99227199Y-124095441D02*
X99593866Y-123862108D01*
X99227199Y-123628775D01*
X99293866Y-123428775D02*
X99260533Y-123395441D01*
X99227199Y-123328775D01*
X99227199Y-123162108D01*
X99260533Y-123095441D01*
X99293866Y-123062108D01*
X99360533Y-123028775D01*
X99427199Y-123028775D01*
X99527199Y-123062108D01*
X99927199Y-123462108D01*
X99927199Y-123028775D01*
X107990199Y-119744108D02*
X108556866Y-119744108D01*
X108623533Y-119710775D01*
X108656866Y-119677441D01*
X108690199Y-119610775D01*
X108690199Y-119477441D01*
X108656866Y-119410775D01*
X108623533Y-119377441D01*
X108556866Y-119344108D01*
X107990199Y-119344108D01*
X107990199Y-119077441D02*
X107990199Y-118644108D01*
X108256866Y-118877441D01*
X108256866Y-118777441D01*
X108290199Y-118710775D01*
X108323533Y-118677441D01*
X108390199Y-118644108D01*
X108556866Y-118644108D01*
X108623533Y-118677441D01*
X108656866Y-118710775D01*
X108690199Y-118777441D01*
X108690199Y-118977441D01*
X108656866Y-119044108D01*
X108623533Y-119077441D01*
X104497699Y-133269608D02*
X105064366Y-133269608D01*
X105131033Y-133236275D01*
X105164366Y-133202941D01*
X105197699Y-133136275D01*
X105197699Y-133002941D01*
X105164366Y-132936275D01*
X105131033Y-132902941D01*
X105064366Y-132869608D01*
X104497699Y-132869608D01*
X104731033Y-132236275D02*
X105197699Y-132236275D01*
X104464366Y-132402941D02*
X104964366Y-132569608D01*
X104964366Y-132136275D01*
X106422961Y-140441560D02*
X106422961Y-139691560D01*
X106601533Y-139691560D01*
X106708675Y-139727275D01*
X106780104Y-139798703D01*
X106815818Y-139870132D01*
X106851533Y-140012989D01*
X106851533Y-140120132D01*
X106815818Y-140262989D01*
X106780104Y-140334417D01*
X106708675Y-140405846D01*
X106601533Y-140441560D01*
X106422961Y-140441560D01*
X107494390Y-139941560D02*
X107494390Y-140441560D01*
X107315818Y-139655846D02*
X107137247Y-140191560D01*
X107601533Y-140191560D01*
X97528890Y-120859775D02*
X97564604Y-120895489D01*
X97600318Y-121002632D01*
X97600318Y-121074060D01*
X97564604Y-121181203D01*
X97493175Y-121252632D01*
X97421747Y-121288346D01*
X97278890Y-121324060D01*
X97171747Y-121324060D01*
X97028890Y-121288346D01*
X96957461Y-121252632D01*
X96886033Y-121181203D01*
X96850318Y-121074060D01*
X96850318Y-121002632D01*
X96886033Y-120895489D01*
X96921747Y-120859775D01*
X97600318Y-120145489D02*
X97600318Y-120574060D01*
X97600318Y-120359775D02*
X96850318Y-120359775D01*
X96957461Y-120431203D01*
X97028890Y-120502632D01*
X97064604Y-120574060D01*
X101529390Y-120923275D02*
X101565104Y-120958989D01*
X101600818Y-121066132D01*
X101600818Y-121137560D01*
X101565104Y-121244703D01*
X101493675Y-121316132D01*
X101422247Y-121351846D01*
X101279390Y-121387560D01*
X101172247Y-121387560D01*
X101029390Y-121351846D01*
X100957961Y-121316132D01*
X100886533Y-121244703D01*
X100850818Y-121137560D01*
X100850818Y-121066132D01*
X100886533Y-120958989D01*
X100922247Y-120923275D01*
X100922247Y-120637560D02*
X100886533Y-120601846D01*
X100850818Y-120530417D01*
X100850818Y-120351846D01*
X100886533Y-120280417D01*
X100922247Y-120244703D01*
X100993675Y-120208989D01*
X101065104Y-120208989D01*
X101172247Y-120244703D01*
X101600818Y-120673275D01*
X101600818Y-120208989D01*
X99548190Y-118700775D02*
X99583904Y-118736489D01*
X99619618Y-118843632D01*
X99619618Y-118915060D01*
X99583904Y-119022203D01*
X99512475Y-119093632D01*
X99441047Y-119129346D01*
X99298190Y-119165060D01*
X99191047Y-119165060D01*
X99048190Y-119129346D01*
X98976761Y-119093632D01*
X98905333Y-119022203D01*
X98869618Y-118915060D01*
X98869618Y-118843632D01*
X98905333Y-118736489D01*
X98941047Y-118700775D01*
X98869618Y-118450775D02*
X98869618Y-117986489D01*
X99155333Y-118236489D01*
X99155333Y-118129346D01*
X99191047Y-118057917D01*
X99226761Y-118022203D01*
X99298190Y-117986489D01*
X99476761Y-117986489D01*
X99548190Y-118022203D01*
X99583904Y-118057917D01*
X99619618Y-118129346D01*
X99619618Y-118343632D01*
X99583904Y-118415060D01*
X99548190Y-118450775D01*
X98025033Y-135988632D02*
X97989318Y-136024346D01*
X97882175Y-136060060D01*
X97810747Y-136060060D01*
X97703604Y-136024346D01*
X97632175Y-135952917D01*
X97596461Y-135881489D01*
X97560747Y-135738632D01*
X97560747Y-135631489D01*
X97596461Y-135488632D01*
X97632175Y-135417203D01*
X97703604Y-135345775D01*
X97810747Y-135310060D01*
X97882175Y-135310060D01*
X97989318Y-135345775D01*
X98025033Y-135381489D01*
X98667890Y-135560060D02*
X98667890Y-136060060D01*
X98489318Y-135274346D02*
X98310747Y-135810060D01*
X98775033Y-135810060D01*
X104692533Y-123542632D02*
X104656818Y-123578346D01*
X104549675Y-123614060D01*
X104478247Y-123614060D01*
X104371104Y-123578346D01*
X104299675Y-123506917D01*
X104263961Y-123435489D01*
X104228247Y-123292632D01*
X104228247Y-123185489D01*
X104263961Y-123042632D01*
X104299675Y-122971203D01*
X104371104Y-122899775D01*
X104478247Y-122864060D01*
X104549675Y-122864060D01*
X104656818Y-122899775D01*
X104692533Y-122935489D01*
X105371104Y-122864060D02*
X105013961Y-122864060D01*
X104978247Y-123221203D01*
X105013961Y-123185489D01*
X105085390Y-123149775D01*
X105263961Y-123149775D01*
X105335390Y-123185489D01*
X105371104Y-123221203D01*
X105406818Y-123292632D01*
X105406818Y-123471203D01*
X105371104Y-123542632D01*
X105335390Y-123578346D01*
X105263961Y-123614060D01*
X105085390Y-123614060D01*
X105013961Y-123578346D01*
X104978247Y-123542632D01*
X96691533Y-131670632D02*
X96655818Y-131706346D01*
X96548675Y-131742060D01*
X96477247Y-131742060D01*
X96370104Y-131706346D01*
X96298675Y-131634917D01*
X96262961Y-131563489D01*
X96227247Y-131420632D01*
X96227247Y-131313489D01*
X96262961Y-131170632D01*
X96298675Y-131099203D01*
X96370104Y-131027775D01*
X96477247Y-130992060D01*
X96548675Y-130992060D01*
X96655818Y-131027775D01*
X96691533Y-131063489D01*
X97334390Y-130992060D02*
X97191533Y-130992060D01*
X97120104Y-131027775D01*
X97084390Y-131063489D01*
X97012961Y-131170632D01*
X96977247Y-131313489D01*
X96977247Y-131599203D01*
X97012961Y-131670632D01*
X97048675Y-131706346D01*
X97120104Y-131742060D01*
X97262961Y-131742060D01*
X97334390Y-131706346D01*
X97370104Y-131670632D01*
X97405818Y-131599203D01*
X97405818Y-131420632D01*
X97370104Y-131349203D01*
X97334390Y-131313489D01*
X97262961Y-131277775D01*
X97120104Y-131277775D01*
X97048675Y-131313489D01*
X97012961Y-131349203D01*
X96977247Y-131420632D01*
X105010033Y-130726060D02*
X104760033Y-130368917D01*
X104581461Y-130726060D02*
X104581461Y-129976060D01*
X104867175Y-129976060D01*
X104938604Y-130011775D01*
X104974318Y-130047489D01*
X105010033Y-130118917D01*
X105010033Y-130226060D01*
X104974318Y-130297489D01*
X104938604Y-130333203D01*
X104867175Y-130368917D01*
X104581461Y-130368917D01*
X105724318Y-130726060D02*
X105295747Y-130726060D01*
X105510033Y-130726060D02*
X105510033Y-129976060D01*
X105438604Y-130083203D01*
X105367175Y-130154632D01*
X105295747Y-130190346D01*
X100457818Y-128289275D02*
X100100675Y-128539275D01*
X100457818Y-128717846D02*
X99707818Y-128717846D01*
X99707818Y-128432132D01*
X99743533Y-128360703D01*
X99779247Y-128324989D01*
X99850675Y-128289275D01*
X99957818Y-128289275D01*
X100029247Y-128324989D01*
X100064961Y-128360703D01*
X100100675Y-128432132D01*
X100100675Y-128717846D01*
X99779247Y-128003560D02*
X99743533Y-127967846D01*
X99707818Y-127896417D01*
X99707818Y-127717846D01*
X99743533Y-127646417D01*
X99779247Y-127610703D01*
X99850675Y-127574989D01*
X99922104Y-127574989D01*
X100029247Y-127610703D01*
X100457818Y-128039275D01*
X100457818Y-127574989D01*
X99568818Y-128289275D02*
X99211675Y-128539275D01*
X99568818Y-128717846D02*
X98818818Y-128717846D01*
X98818818Y-128432132D01*
X98854533Y-128360703D01*
X98890247Y-128324989D01*
X98961675Y-128289275D01*
X99068818Y-128289275D01*
X99140247Y-128324989D01*
X99175961Y-128360703D01*
X99211675Y-128432132D01*
X99211675Y-128717846D01*
X98818818Y-128039275D02*
X98818818Y-127574989D01*
X99104533Y-127824989D01*
X99104533Y-127717846D01*
X99140247Y-127646417D01*
X99175961Y-127610703D01*
X99247390Y-127574989D01*
X99425961Y-127574989D01*
X99497390Y-127610703D01*
X99533104Y-127646417D01*
X99568818Y-127717846D01*
X99568818Y-127932132D01*
X99533104Y-128003560D01*
X99497390Y-128039275D01*
X97326533Y-129329060D02*
X97076533Y-128971917D01*
X96897961Y-129329060D02*
X96897961Y-128579060D01*
X97183675Y-128579060D01*
X97255104Y-128614775D01*
X97290818Y-128650489D01*
X97326533Y-128721917D01*
X97326533Y-128829060D01*
X97290818Y-128900489D01*
X97255104Y-128936203D01*
X97183675Y-128971917D01*
X96897961Y-128971917D01*
X97969390Y-128829060D02*
X97969390Y-129329060D01*
X97790818Y-128543346D02*
X97612247Y-129079060D01*
X98076533Y-129079060D01*
X98025033Y-137584060D02*
X97775033Y-137226917D01*
X97596461Y-137584060D02*
X97596461Y-136834060D01*
X97882175Y-136834060D01*
X97953604Y-136869775D01*
X97989318Y-136905489D01*
X98025033Y-136976917D01*
X98025033Y-137084060D01*
X97989318Y-137155489D01*
X97953604Y-137191203D01*
X97882175Y-137226917D01*
X97596461Y-137226917D01*
X98703604Y-136834060D02*
X98346461Y-136834060D01*
X98310747Y-137191203D01*
X98346461Y-137155489D01*
X98417890Y-137119775D01*
X98596461Y-137119775D01*
X98667890Y-137155489D01*
X98703604Y-137191203D01*
X98739318Y-137262632D01*
X98739318Y-137441203D01*
X98703604Y-137512632D01*
X98667890Y-137548346D01*
X98596461Y-137584060D01*
X98417890Y-137584060D01*
X98346461Y-137548346D01*
X98310747Y-137512632D01*
X97326533Y-134472560D02*
X97076533Y-134115417D01*
X96897961Y-134472560D02*
X96897961Y-133722560D01*
X97183675Y-133722560D01*
X97255104Y-133758275D01*
X97290818Y-133793989D01*
X97326533Y-133865417D01*
X97326533Y-133972560D01*
X97290818Y-134043989D01*
X97255104Y-134079703D01*
X97183675Y-134115417D01*
X96897961Y-134115417D01*
X97969390Y-133722560D02*
X97826533Y-133722560D01*
X97755104Y-133758275D01*
X97719390Y-133793989D01*
X97647961Y-133901132D01*
X97612247Y-134043989D01*
X97612247Y-134329703D01*
X97647961Y-134401132D01*
X97683675Y-134436846D01*
X97755104Y-134472560D01*
X97897961Y-134472560D01*
X97969390Y-134436846D01*
X98005104Y-134401132D01*
X98040818Y-134329703D01*
X98040818Y-134151132D01*
X98005104Y-134079703D01*
X97969390Y-134043989D01*
X97897961Y-134008275D01*
X97755104Y-134008275D01*
X97683675Y-134043989D01*
X97647961Y-134079703D01*
X97612247Y-134151132D01*
X103867033Y-140187560D02*
X103617033Y-139830417D01*
X103438461Y-140187560D02*
X103438461Y-139437560D01*
X103724175Y-139437560D01*
X103795604Y-139473275D01*
X103831318Y-139508989D01*
X103867033Y-139580417D01*
X103867033Y-139687560D01*
X103831318Y-139758989D01*
X103795604Y-139794703D01*
X103724175Y-139830417D01*
X103438461Y-139830417D01*
X104117033Y-139437560D02*
X104617033Y-139437560D01*
X104295604Y-140187560D01*
X101981818Y-133607346D02*
X101231818Y-133607346D01*
X101231818Y-133428775D01*
X101267533Y-133321632D01*
X101338961Y-133250203D01*
X101410390Y-133214489D01*
X101553247Y-133178775D01*
X101660390Y-133178775D01*
X101803247Y-133214489D01*
X101874675Y-133250203D01*
X101946104Y-133321632D01*
X101981818Y-133428775D01*
X101981818Y-133607346D01*
X101981818Y-132464489D02*
X101981818Y-132893060D01*
X101981818Y-132678775D02*
X101231818Y-132678775D01*
X101338961Y-132750203D01*
X101410390Y-132821632D01*
X101446104Y-132893060D01*
X105254104Y-136575989D02*
X105182675Y-136540275D01*
X105111247Y-136468846D01*
X105004104Y-136361703D01*
X104932675Y-136325989D01*
X104861247Y-136325989D01*
X104896961Y-136504560D02*
X104825533Y-136468846D01*
X104754104Y-136397417D01*
X104718390Y-136254560D01*
X104718390Y-136004560D01*
X104754104Y-135861703D01*
X104825533Y-135790275D01*
X104896961Y-135754560D01*
X105039818Y-135754560D01*
X105111247Y-135790275D01*
X105182675Y-135861703D01*
X105218390Y-136004560D01*
X105218390Y-136254560D01*
X105182675Y-136397417D01*
X105111247Y-136468846D01*
X105039818Y-136504560D01*
X104896961Y-136504560D01*
X105932675Y-136504560D02*
X105504104Y-136504560D01*
X105718390Y-136504560D02*
X105718390Y-135754560D01*
X105646961Y-135861703D01*
X105575533Y-135933132D01*
X105504104Y-135968846D01*
X107994533Y-123677560D02*
X107637390Y-123677560D01*
X107637390Y-122927560D01*
X108637390Y-123677560D02*
X108208818Y-123677560D01*
X108423104Y-123677560D02*
X108423104Y-122927560D01*
X108351675Y-123034703D01*
X108280247Y-123106132D01*
X108208818Y-123141846D01*
D13*
X94277366Y-111805941D02*
X94610699Y-111572608D01*
X94277366Y-111405941D02*
X94977366Y-111405941D01*
X94977366Y-111672608D01*
X94944033Y-111739275D01*
X94910699Y-111772608D01*
X94844033Y-111805941D01*
X94744033Y-111805941D01*
X94677366Y-111772608D01*
X94644033Y-111739275D01*
X94610699Y-111672608D01*
X94610699Y-111405941D01*
X94477366Y-112072608D02*
X94477366Y-112405941D01*
X94277366Y-112005941D02*
X94977366Y-112239275D01*
X94277366Y-112472608D01*
X94977366Y-112639275D02*
X94277366Y-112805941D01*
X94777366Y-112939275D01*
X94277366Y-113072608D01*
X94977366Y-113239275D01*
X94944033Y-114295941D02*
X94977366Y-114229275D01*
X94977366Y-114129275D01*
X94944033Y-114029275D01*
X94877366Y-113962608D01*
X94810699Y-113929275D01*
X94677366Y-113895941D01*
X94577366Y-113895941D01*
X94444033Y-113929275D01*
X94377366Y-113962608D01*
X94310699Y-114029275D01*
X94277366Y-114129275D01*
X94277366Y-114195941D01*
X94310699Y-114295941D01*
X94344033Y-114329275D01*
X94577366Y-114329275D01*
X94577366Y-114195941D01*
X94277366Y-114629275D02*
X94977366Y-114629275D01*
X94277366Y-115029275D01*
X94977366Y-115029275D01*
X94277366Y-115362608D02*
X94977366Y-115362608D01*
X94977366Y-115529275D01*
X94944033Y-115629275D01*
X94877366Y-115695941D01*
X94810699Y-115729275D01*
X94677366Y-115762608D01*
X94577366Y-115762608D01*
X94444033Y-115729275D01*
X94377366Y-115695941D01*
X94310699Y-115629275D01*
X94277366Y-115529275D01*
X94277366Y-115362608D01*
X94977366Y-116566108D02*
X94977366Y-116632775D01*
X94944033Y-116699441D01*
X94910699Y-116732775D01*
X94844033Y-116766108D01*
X94710699Y-116799441D01*
X94544033Y-116799441D01*
X94410699Y-116766108D01*
X94344033Y-116732775D01*
X94310699Y-116699441D01*
X94277366Y-116632775D01*
X94277366Y-116566108D01*
X94310699Y-116499441D01*
X94344033Y-116466108D01*
X94410699Y-116432775D01*
X94544033Y-116399441D01*
X94710699Y-116399441D01*
X94844033Y-116432775D01*
X94910699Y-116466108D01*
X94944033Y-116499441D01*
X94977366Y-116566108D01*
X94344033Y-117099441D02*
X94310699Y-117132775D01*
X94277366Y-117099441D01*
X94310699Y-117066108D01*
X94344033Y-117099441D01*
X94277366Y-117099441D01*
X94277366Y-117799441D02*
X94277366Y-117399441D01*
X94277366Y-117599441D02*
X94977366Y-117599441D01*
X94877366Y-117532775D01*
X94810699Y-117466108D01*
X94777366Y-117399441D01*
X94677366Y-118199441D02*
X94710699Y-118132775D01*
X94744033Y-118099441D01*
X94810699Y-118066108D01*
X94844033Y-118066108D01*
X94910699Y-118099441D01*
X94944033Y-118132775D01*
X94977366Y-118199441D01*
X94977366Y-118332775D01*
X94944033Y-118399441D01*
X94910699Y-118432775D01*
X94844033Y-118466108D01*
X94810699Y-118466108D01*
X94744033Y-118432775D01*
X94710699Y-118399441D01*
X94677366Y-118332775D01*
X94677366Y-118199441D01*
X94644033Y-118132775D01*
X94610699Y-118099441D01*
X94544033Y-118066108D01*
X94410699Y-118066108D01*
X94344033Y-118099441D01*
X94310699Y-118132775D01*
X94277366Y-118199441D01*
X94277366Y-118332775D01*
X94310699Y-118399441D01*
X94344033Y-118432775D01*
X94410699Y-118466108D01*
X94544033Y-118466108D01*
X94610699Y-118432775D01*
X94644033Y-118399441D01*
X94677366Y-118332775D01*
X95034866Y-118816108D02*
X94334866Y-119049441D01*
X95034866Y-119282775D01*
X94334866Y-119616108D02*
X94368199Y-119549441D01*
X94401533Y-119516108D01*
X94468199Y-119482775D01*
X94668199Y-119482775D01*
X94734866Y-119516108D01*
X94768199Y-119549441D01*
X94801533Y-119616108D01*
X94801533Y-119716108D01*
X94768199Y-119782775D01*
X94734866Y-119816108D01*
X94668199Y-119849441D01*
X94468199Y-119849441D01*
X94401533Y-119816108D01*
X94368199Y-119782775D01*
X94334866Y-119716108D01*
X94334866Y-119616108D01*
X94801533Y-120449441D02*
X94334866Y-120449441D01*
X94801533Y-120149441D02*
X94434866Y-120149441D01*
X94368199Y-120182775D01*
X94334866Y-120249441D01*
X94334866Y-120349441D01*
X94368199Y-120416108D01*
X94401533Y-120449441D01*
X94801533Y-120682775D02*
X94801533Y-120949441D01*
X95034866Y-120782775D02*
X94434866Y-120782775D01*
X94368199Y-120816108D01*
X94334866Y-120882775D01*
X94334866Y-120949441D01*
X94977366Y-121709608D02*
X94977366Y-121776275D01*
X94944033Y-121842941D01*
X94910699Y-121876275D01*
X94844033Y-121909608D01*
X94710699Y-121942941D01*
X94544033Y-121942941D01*
X94410699Y-121909608D01*
X94344033Y-121876275D01*
X94310699Y-121842941D01*
X94277366Y-121776275D01*
X94277366Y-121709608D01*
X94310699Y-121642941D01*
X94344033Y-121609608D01*
X94410699Y-121576275D01*
X94544033Y-121542941D01*
X94710699Y-121542941D01*
X94844033Y-121576275D01*
X94910699Y-121609608D01*
X94944033Y-121642941D01*
X94977366Y-121709608D01*
X94344033Y-122242941D02*
X94310699Y-122276275D01*
X94277366Y-122242941D01*
X94310699Y-122209608D01*
X94344033Y-122242941D01*
X94277366Y-122242941D01*
X94977366Y-122509608D02*
X94977366Y-122942941D01*
X94710699Y-122709608D01*
X94710699Y-122809608D01*
X94677366Y-122876275D01*
X94644033Y-122909608D01*
X94577366Y-122942941D01*
X94410699Y-122942941D01*
X94344033Y-122909608D01*
X94310699Y-122876275D01*
X94277366Y-122809608D01*
X94277366Y-122609608D01*
X94310699Y-122542941D01*
X94344033Y-122509608D01*
X94977366Y-123376275D02*
X94977366Y-123442941D01*
X94944033Y-123509608D01*
X94910699Y-123542941D01*
X94844033Y-123576275D01*
X94710699Y-123609608D01*
X94544033Y-123609608D01*
X94410699Y-123576275D01*
X94344033Y-123542941D01*
X94310699Y-123509608D01*
X94277366Y-123442941D01*
X94277366Y-123376275D01*
X94310699Y-123309608D01*
X94344033Y-123276275D01*
X94410699Y-123242941D01*
X94544033Y-123209608D01*
X94710699Y-123209608D01*
X94844033Y-123242941D01*
X94910699Y-123276275D01*
X94944033Y-123309608D01*
X94977366Y-123376275D01*
X94977366Y-124249608D02*
X94977366Y-124316275D01*
X94944033Y-124382941D01*
X94910699Y-124416275D01*
X94844033Y-124449608D01*
X94710699Y-124482941D01*
X94544033Y-124482941D01*
X94410699Y-124449608D01*
X94344033Y-124416275D01*
X94310699Y-124382941D01*
X94277366Y-124316275D01*
X94277366Y-124249608D01*
X94310699Y-124182941D01*
X94344033Y-124149608D01*
X94410699Y-124116275D01*
X94544033Y-124082941D01*
X94710699Y-124082941D01*
X94844033Y-124116275D01*
X94910699Y-124149608D01*
X94944033Y-124182941D01*
X94977366Y-124249608D01*
X94344033Y-124782941D02*
X94310699Y-124816275D01*
X94277366Y-124782941D01*
X94310699Y-124749608D01*
X94344033Y-124782941D01*
X94277366Y-124782941D01*
X94910699Y-125082941D02*
X94944033Y-125116275D01*
X94977366Y-125182941D01*
X94977366Y-125349608D01*
X94944033Y-125416275D01*
X94910699Y-125449608D01*
X94844033Y-125482941D01*
X94777366Y-125482941D01*
X94677366Y-125449608D01*
X94277366Y-125049608D01*
X94277366Y-125482941D01*
X94977366Y-126082941D02*
X94977366Y-125949608D01*
X94944033Y-125882941D01*
X94910699Y-125849608D01*
X94810699Y-125782941D01*
X94677366Y-125749608D01*
X94410699Y-125749608D01*
X94344033Y-125782941D01*
X94310699Y-125816275D01*
X94277366Y-125882941D01*
X94277366Y-126016275D01*
X94310699Y-126082941D01*
X94344033Y-126116275D01*
X94410699Y-126149608D01*
X94577366Y-126149608D01*
X94644033Y-126116275D01*
X94677366Y-126082941D01*
X94710699Y-126016275D01*
X94710699Y-125882941D01*
X94677366Y-125816275D01*
X94644033Y-125782941D01*
X94577366Y-125749608D01*
X94977366Y-129202608D02*
X94977366Y-129269275D01*
X94944033Y-129335941D01*
X94910699Y-129369275D01*
X94844033Y-129402608D01*
X94710699Y-129435941D01*
X94544033Y-129435941D01*
X94410699Y-129402608D01*
X94344033Y-129369275D01*
X94310699Y-129335941D01*
X94277366Y-129269275D01*
X94277366Y-129202608D01*
X94310699Y-129135941D01*
X94344033Y-129102608D01*
X94410699Y-129069275D01*
X94544033Y-129035941D01*
X94710699Y-129035941D01*
X94844033Y-129069275D01*
X94910699Y-129102608D01*
X94944033Y-129135941D01*
X94977366Y-129202608D01*
X94344033Y-129735941D02*
X94310699Y-129769275D01*
X94277366Y-129735941D01*
X94310699Y-129702608D01*
X94344033Y-129735941D01*
X94277366Y-129735941D01*
X94977366Y-130202608D02*
X94977366Y-130269275D01*
X94944033Y-130335941D01*
X94910699Y-130369275D01*
X94844033Y-130402608D01*
X94710699Y-130435941D01*
X94544033Y-130435941D01*
X94410699Y-130402608D01*
X94344033Y-130369275D01*
X94310699Y-130335941D01*
X94277366Y-130269275D01*
X94277366Y-130202608D01*
X94310699Y-130135941D01*
X94344033Y-130102608D01*
X94410699Y-130069275D01*
X94544033Y-130035941D01*
X94710699Y-130035941D01*
X94844033Y-130069275D01*
X94910699Y-130102608D01*
X94944033Y-130135941D01*
X94977366Y-130202608D01*
X94910699Y-130702608D02*
X94944033Y-130735941D01*
X94977366Y-130802608D01*
X94977366Y-130969275D01*
X94944033Y-131035941D01*
X94910699Y-131069275D01*
X94844033Y-131102608D01*
X94777366Y-131102608D01*
X94677366Y-131069275D01*
X94277366Y-130669275D01*
X94277366Y-131102608D01*
X94977366Y-126662608D02*
X94977366Y-126729275D01*
X94944033Y-126795941D01*
X94910699Y-126829275D01*
X94844033Y-126862608D01*
X94710699Y-126895941D01*
X94544033Y-126895941D01*
X94410699Y-126862608D01*
X94344033Y-126829275D01*
X94310699Y-126795941D01*
X94277366Y-126729275D01*
X94277366Y-126662608D01*
X94310699Y-126595941D01*
X94344033Y-126562608D01*
X94410699Y-126529275D01*
X94544033Y-126495941D01*
X94710699Y-126495941D01*
X94844033Y-126529275D01*
X94910699Y-126562608D01*
X94944033Y-126595941D01*
X94977366Y-126662608D01*
X94344033Y-127195941D02*
X94310699Y-127229275D01*
X94277366Y-127195941D01*
X94310699Y-127162608D01*
X94344033Y-127195941D01*
X94277366Y-127195941D01*
X94910699Y-127495941D02*
X94944033Y-127529275D01*
X94977366Y-127595941D01*
X94977366Y-127762608D01*
X94944033Y-127829275D01*
X94910699Y-127862608D01*
X94844033Y-127895941D01*
X94777366Y-127895941D01*
X94677366Y-127862608D01*
X94277366Y-127462608D01*
X94277366Y-127895941D01*
X94277366Y-128229275D02*
X94277366Y-128362608D01*
X94310699Y-128429275D01*
X94344033Y-128462608D01*
X94444033Y-128529275D01*
X94577366Y-128562608D01*
X94844033Y-128562608D01*
X94910699Y-128529275D01*
X94944033Y-128495941D01*
X94977366Y-128429275D01*
X94977366Y-128295941D01*
X94944033Y-128229275D01*
X94910699Y-128195941D01*
X94844033Y-128162608D01*
X94677366Y-128162608D01*
X94610699Y-128195941D01*
X94577366Y-128229275D01*
X94544033Y-128295941D01*
X94544033Y-128429275D01*
X94577366Y-128495941D01*
X94610699Y-128529275D01*
X94677366Y-128562608D01*
X94277366Y-132102941D02*
X94277366Y-131702941D01*
X94277366Y-131902941D02*
X94977366Y-131902941D01*
X94877366Y-131836275D01*
X94810699Y-131769608D01*
X94777366Y-131702941D01*
X94344033Y-132402941D02*
X94310699Y-132436275D01*
X94277366Y-132402941D01*
X94310699Y-132369608D01*
X94344033Y-132402941D01*
X94277366Y-132402941D01*
X94277366Y-133102941D02*
X94277366Y-132702941D01*
X94277366Y-132902941D02*
X94977366Y-132902941D01*
X94877366Y-132836275D01*
X94810699Y-132769608D01*
X94777366Y-132702941D01*
X94977366Y-133336275D02*
X94977366Y-133769608D01*
X94710699Y-133536275D01*
X94710699Y-133636275D01*
X94677366Y-133702941D01*
X94644033Y-133736275D01*
X94577366Y-133769608D01*
X94410699Y-133769608D01*
X94344033Y-133736275D01*
X94310699Y-133702941D01*
X94277366Y-133636275D01*
X94277366Y-133436275D01*
X94310699Y-133369608D01*
X94344033Y-133336275D01*
X94913866Y-134346108D02*
X94913866Y-134412775D01*
X94880533Y-134479441D01*
X94847199Y-134512775D01*
X94780533Y-134546108D01*
X94647199Y-134579441D01*
X94480533Y-134579441D01*
X94347199Y-134546108D01*
X94280533Y-134512775D01*
X94247199Y-134479441D01*
X94213866Y-134412775D01*
X94213866Y-134346108D01*
X94247199Y-134279441D01*
X94280533Y-134246108D01*
X94347199Y-134212775D01*
X94480533Y-134179441D01*
X94647199Y-134179441D01*
X94780533Y-134212775D01*
X94847199Y-134246108D01*
X94880533Y-134279441D01*
X94913866Y-134346108D01*
X94280533Y-134879441D02*
X94247199Y-134912775D01*
X94213866Y-134879441D01*
X94247199Y-134846108D01*
X94280533Y-134879441D01*
X94213866Y-134879441D01*
X94913866Y-135346108D02*
X94913866Y-135412775D01*
X94880533Y-135479441D01*
X94847199Y-135512775D01*
X94780533Y-135546108D01*
X94647199Y-135579441D01*
X94480533Y-135579441D01*
X94347199Y-135546108D01*
X94280533Y-135512775D01*
X94247199Y-135479441D01*
X94213866Y-135412775D01*
X94213866Y-135346108D01*
X94247199Y-135279441D01*
X94280533Y-135246108D01*
X94347199Y-135212775D01*
X94480533Y-135179441D01*
X94647199Y-135179441D01*
X94780533Y-135212775D01*
X94847199Y-135246108D01*
X94880533Y-135279441D01*
X94913866Y-135346108D01*
X94913866Y-135812775D02*
X94913866Y-136246108D01*
X94647199Y-136012775D01*
X94647199Y-136112775D01*
X94613866Y-136179441D01*
X94580533Y-136212775D01*
X94513866Y-136246108D01*
X94347199Y-136246108D01*
X94280533Y-136212775D01*
X94247199Y-136179441D01*
X94213866Y-136112775D01*
X94213866Y-135912775D01*
X94247199Y-135846108D01*
X94280533Y-135812775D01*
X94850366Y-136822608D02*
X94850366Y-136889275D01*
X94817033Y-136955941D01*
X94783699Y-136989275D01*
X94717033Y-137022608D01*
X94583699Y-137055941D01*
X94417033Y-137055941D01*
X94283699Y-137022608D01*
X94217033Y-136989275D01*
X94183699Y-136955941D01*
X94150366Y-136889275D01*
X94150366Y-136822608D01*
X94183699Y-136755941D01*
X94217033Y-136722608D01*
X94283699Y-136689275D01*
X94417033Y-136655941D01*
X94583699Y-136655941D01*
X94717033Y-136689275D01*
X94783699Y-136722608D01*
X94817033Y-136755941D01*
X94850366Y-136822608D01*
X94217033Y-137355941D02*
X94183699Y-137389275D01*
X94150366Y-137355941D01*
X94183699Y-137322608D01*
X94217033Y-137355941D01*
X94150366Y-137355941D01*
X94783699Y-137655941D02*
X94817033Y-137689275D01*
X94850366Y-137755941D01*
X94850366Y-137922608D01*
X94817033Y-137989275D01*
X94783699Y-138022608D01*
X94717033Y-138055941D01*
X94650366Y-138055941D01*
X94550366Y-138022608D01*
X94150366Y-137622608D01*
X94150366Y-138055941D01*
X94550366Y-138455941D02*
X94583699Y-138389275D01*
X94617033Y-138355941D01*
X94683699Y-138322608D01*
X94717033Y-138322608D01*
X94783699Y-138355941D01*
X94817033Y-138389275D01*
X94850366Y-138455941D01*
X94850366Y-138589275D01*
X94817033Y-138655941D01*
X94783699Y-138689275D01*
X94717033Y-138722608D01*
X94683699Y-138722608D01*
X94617033Y-138689275D01*
X94583699Y-138655941D01*
X94550366Y-138589275D01*
X94550366Y-138455941D01*
X94517033Y-138389275D01*
X94483699Y-138355941D01*
X94417033Y-138322608D01*
X94283699Y-138322608D01*
X94217033Y-138355941D01*
X94183699Y-138389275D01*
X94150366Y-138455941D01*
X94150366Y-138589275D01*
X94183699Y-138655941D01*
X94217033Y-138689275D01*
X94283699Y-138722608D01*
X94417033Y-138722608D01*
X94483699Y-138689275D01*
X94517033Y-138655941D01*
X94550366Y-138589275D01*
X94213866Y-139659441D02*
X94213866Y-139259441D01*
X94213866Y-139459441D02*
X94913866Y-139459441D01*
X94813866Y-139392775D01*
X94747199Y-139326108D01*
X94713866Y-139259441D01*
X94280533Y-139959441D02*
X94247199Y-139992775D01*
X94213866Y-139959441D01*
X94247199Y-139926108D01*
X94280533Y-139959441D01*
X94213866Y-139959441D01*
X94213866Y-140659441D02*
X94213866Y-140259441D01*
X94213866Y-140459441D02*
X94913866Y-140459441D01*
X94813866Y-140392775D01*
X94747199Y-140326108D01*
X94713866Y-140259441D01*
X94213866Y-141326108D02*
X94213866Y-140926108D01*
X94213866Y-141126108D02*
X94913866Y-141126108D01*
X94813866Y-141059441D01*
X94747199Y-140992775D01*
X94713866Y-140926108D01*
X113262199Y-140735608D02*
X113262199Y-141135608D01*
X113262199Y-140935608D02*
X112562199Y-140935608D01*
X112662199Y-141002275D01*
X112728866Y-141068941D01*
X112762199Y-141135608D01*
X113195533Y-140435608D02*
X113228866Y-140402275D01*
X113262199Y-140435608D01*
X113228866Y-140468941D01*
X113195533Y-140435608D01*
X113262199Y-140435608D01*
X112562199Y-139968941D02*
X112562199Y-139902275D01*
X112595533Y-139835608D01*
X112628866Y-139802275D01*
X112695533Y-139768941D01*
X112828866Y-139735608D01*
X112995533Y-139735608D01*
X113128866Y-139768941D01*
X113195533Y-139802275D01*
X113228866Y-139835608D01*
X113262199Y-139902275D01*
X113262199Y-139968941D01*
X113228866Y-140035608D01*
X113195533Y-140068941D01*
X113128866Y-140102275D01*
X112995533Y-140135608D01*
X112828866Y-140135608D01*
X112695533Y-140102275D01*
X112628866Y-140068941D01*
X112595533Y-140035608D01*
X112562199Y-139968941D01*
X112562199Y-139135608D02*
X112562199Y-139268941D01*
X112595533Y-139335608D01*
X112628866Y-139368941D01*
X112728866Y-139435608D01*
X112862199Y-139468941D01*
X113128866Y-139468941D01*
X113195533Y-139435608D01*
X113228866Y-139402275D01*
X113262199Y-139335608D01*
X113262199Y-139202275D01*
X113228866Y-139135608D01*
X113195533Y-139102275D01*
X113128866Y-139068941D01*
X112962199Y-139068941D01*
X112895533Y-139102275D01*
X112862199Y-139135608D01*
X112828866Y-139202275D01*
X112828866Y-139335608D01*
X112862199Y-139402275D01*
X112895533Y-139435608D01*
X112962199Y-139468941D01*
X109768199Y-138619441D02*
X109768199Y-138552775D01*
X109801533Y-138486108D01*
X109834866Y-138452775D01*
X109901533Y-138419441D01*
X110034866Y-138386108D01*
X110201533Y-138386108D01*
X110334866Y-138419441D01*
X110401533Y-138452775D01*
X110434866Y-138486108D01*
X110468199Y-138552775D01*
X110468199Y-138619441D01*
X110434866Y-138686108D01*
X110401533Y-138719441D01*
X110334866Y-138752775D01*
X110201533Y-138786108D01*
X110034866Y-138786108D01*
X109901533Y-138752775D01*
X109834866Y-138719441D01*
X109801533Y-138686108D01*
X109768199Y-138619441D01*
X110401533Y-138086108D02*
X110434866Y-138052775D01*
X110468199Y-138086108D01*
X110434866Y-138119441D01*
X110401533Y-138086108D01*
X110468199Y-138086108D01*
X110468199Y-137386108D02*
X110468199Y-137786108D01*
X110468199Y-137586108D02*
X109768199Y-137586108D01*
X109868199Y-137652775D01*
X109934866Y-137719441D01*
X109968199Y-137786108D01*
X109768199Y-136952775D02*
X109768199Y-136886108D01*
X109801533Y-136819441D01*
X109834866Y-136786108D01*
X109901533Y-136752775D01*
X110034866Y-136719441D01*
X110201533Y-136719441D01*
X110334866Y-136752775D01*
X110401533Y-136786108D01*
X110434866Y-136819441D01*
X110468199Y-136886108D01*
X110468199Y-136952775D01*
X110434866Y-137019441D01*
X110401533Y-137052775D01*
X110334866Y-137086108D01*
X110201533Y-137119441D01*
X110034866Y-137119441D01*
X109901533Y-137086108D01*
X109834866Y-137052775D01*
X109801533Y-137019441D01*
X109768199Y-136952775D01*
X109768199Y-136079441D02*
X109768199Y-136012775D01*
X109801533Y-135946108D01*
X109834866Y-135912775D01*
X109901533Y-135879441D01*
X110034866Y-135846108D01*
X110201533Y-135846108D01*
X110334866Y-135879441D01*
X110401533Y-135912775D01*
X110434866Y-135946108D01*
X110468199Y-136012775D01*
X110468199Y-136079441D01*
X110434866Y-136146108D01*
X110401533Y-136179441D01*
X110334866Y-136212775D01*
X110201533Y-136246108D01*
X110034866Y-136246108D01*
X109901533Y-136212775D01*
X109834866Y-136179441D01*
X109801533Y-136146108D01*
X109768199Y-136079441D01*
X110401533Y-135546108D02*
X110434866Y-135512775D01*
X110468199Y-135546108D01*
X110434866Y-135579441D01*
X110401533Y-135546108D01*
X110468199Y-135546108D01*
X109768199Y-135079441D02*
X109768199Y-135012775D01*
X109801533Y-134946108D01*
X109834866Y-134912775D01*
X109901533Y-134879441D01*
X110034866Y-134846108D01*
X110201533Y-134846108D01*
X110334866Y-134879441D01*
X110401533Y-134912775D01*
X110434866Y-134946108D01*
X110468199Y-135012775D01*
X110468199Y-135079441D01*
X110434866Y-135146108D01*
X110401533Y-135179441D01*
X110334866Y-135212775D01*
X110201533Y-135246108D01*
X110034866Y-135246108D01*
X109901533Y-135212775D01*
X109834866Y-135179441D01*
X109801533Y-135146108D01*
X109768199Y-135079441D01*
X110468199Y-134512775D02*
X110468199Y-134379441D01*
X110434866Y-134312775D01*
X110401533Y-134279441D01*
X110301533Y-134212775D01*
X110168199Y-134179441D01*
X109901533Y-134179441D01*
X109834866Y-134212775D01*
X109801533Y-134246108D01*
X109768199Y-134312775D01*
X109768199Y-134446108D01*
X109801533Y-134512775D01*
X109834866Y-134546108D01*
X109901533Y-134579441D01*
X110068199Y-134579441D01*
X110134866Y-134546108D01*
X110168199Y-134512775D01*
X110201533Y-134446108D01*
X110201533Y-134312775D01*
X110168199Y-134246108D01*
X110134866Y-134212775D01*
X110068199Y-134179441D01*
X109768199Y-133539441D02*
X109768199Y-133472775D01*
X109801533Y-133406108D01*
X109834866Y-133372775D01*
X109901533Y-133339441D01*
X110034866Y-133306108D01*
X110201533Y-133306108D01*
X110334866Y-133339441D01*
X110401533Y-133372775D01*
X110434866Y-133406108D01*
X110468199Y-133472775D01*
X110468199Y-133539441D01*
X110434866Y-133606108D01*
X110401533Y-133639441D01*
X110334866Y-133672775D01*
X110201533Y-133706108D01*
X110034866Y-133706108D01*
X109901533Y-133672775D01*
X109834866Y-133639441D01*
X109801533Y-133606108D01*
X109768199Y-133539441D01*
X110401533Y-133006108D02*
X110434866Y-132972775D01*
X110468199Y-133006108D01*
X110434866Y-133039441D01*
X110401533Y-133006108D01*
X110468199Y-133006108D01*
X109834866Y-132706108D02*
X109801533Y-132672775D01*
X109768199Y-132606108D01*
X109768199Y-132439441D01*
X109801533Y-132372775D01*
X109834866Y-132339441D01*
X109901533Y-132306108D01*
X109968199Y-132306108D01*
X110068199Y-132339441D01*
X110468199Y-132739441D01*
X110468199Y-132306108D01*
X110001533Y-131706108D02*
X110468199Y-131706108D01*
X109734866Y-131872775D02*
X110234866Y-132039441D01*
X110234866Y-131606108D01*
X109768199Y-130999441D02*
X109768199Y-130932775D01*
X109801533Y-130866108D01*
X109834866Y-130832775D01*
X109901533Y-130799441D01*
X110034866Y-130766108D01*
X110201533Y-130766108D01*
X110334866Y-130799441D01*
X110401533Y-130832775D01*
X110434866Y-130866108D01*
X110468199Y-130932775D01*
X110468199Y-130999441D01*
X110434866Y-131066108D01*
X110401533Y-131099441D01*
X110334866Y-131132775D01*
X110201533Y-131166108D01*
X110034866Y-131166108D01*
X109901533Y-131132775D01*
X109834866Y-131099441D01*
X109801533Y-131066108D01*
X109768199Y-130999441D01*
X110401533Y-130466108D02*
X110434866Y-130432775D01*
X110468199Y-130466108D01*
X110434866Y-130499441D01*
X110401533Y-130466108D01*
X110468199Y-130466108D01*
X110468199Y-129766108D02*
X110468199Y-130166108D01*
X110468199Y-129966108D02*
X109768199Y-129966108D01*
X109868199Y-130032775D01*
X109934866Y-130099441D01*
X109968199Y-130166108D01*
X109768199Y-129532775D02*
X109768199Y-129099441D01*
X110034866Y-129332775D01*
X110034866Y-129232775D01*
X110068199Y-129166108D01*
X110101533Y-129132775D01*
X110168199Y-129099441D01*
X110334866Y-129099441D01*
X110401533Y-129132775D01*
X110434866Y-129166108D01*
X110468199Y-129232775D01*
X110468199Y-129432775D01*
X110434866Y-129499441D01*
X110401533Y-129532775D01*
X109768199Y-128522941D02*
X109768199Y-128456275D01*
X109801533Y-128389608D01*
X109834866Y-128356275D01*
X109901533Y-128322941D01*
X110034866Y-128289608D01*
X110201533Y-128289608D01*
X110334866Y-128322941D01*
X110401533Y-128356275D01*
X110434866Y-128389608D01*
X110468199Y-128456275D01*
X110468199Y-128522941D01*
X110434866Y-128589608D01*
X110401533Y-128622941D01*
X110334866Y-128656275D01*
X110201533Y-128689608D01*
X110034866Y-128689608D01*
X109901533Y-128656275D01*
X109834866Y-128622941D01*
X109801533Y-128589608D01*
X109768199Y-128522941D01*
X110401533Y-127989608D02*
X110434866Y-127956275D01*
X110468199Y-127989608D01*
X110434866Y-128022941D01*
X110401533Y-127989608D01*
X110468199Y-127989608D01*
X109834866Y-127689608D02*
X109801533Y-127656275D01*
X109768199Y-127589608D01*
X109768199Y-127422941D01*
X109801533Y-127356275D01*
X109834866Y-127322941D01*
X109901533Y-127289608D01*
X109968199Y-127289608D01*
X110068199Y-127322941D01*
X110468199Y-127722941D01*
X110468199Y-127289608D01*
X109768199Y-126856275D02*
X109768199Y-126789608D01*
X109801533Y-126722941D01*
X109834866Y-126689608D01*
X109901533Y-126656275D01*
X110034866Y-126622941D01*
X110201533Y-126622941D01*
X110334866Y-126656275D01*
X110401533Y-126689608D01*
X110434866Y-126722941D01*
X110468199Y-126789608D01*
X110468199Y-126856275D01*
X110434866Y-126922941D01*
X110401533Y-126956275D01*
X110334866Y-126989608D01*
X110201533Y-127022941D01*
X110034866Y-127022941D01*
X109901533Y-126989608D01*
X109834866Y-126956275D01*
X109801533Y-126922941D01*
X109768199Y-126856275D01*
X112752699Y-125919441D02*
X112752699Y-125852775D01*
X112786033Y-125786108D01*
X112819366Y-125752775D01*
X112886033Y-125719441D01*
X113019366Y-125686108D01*
X113186033Y-125686108D01*
X113319366Y-125719441D01*
X113386033Y-125752775D01*
X113419366Y-125786108D01*
X113452699Y-125852775D01*
X113452699Y-125919441D01*
X113419366Y-125986108D01*
X113386033Y-126019441D01*
X113319366Y-126052775D01*
X113186033Y-126086108D01*
X113019366Y-126086108D01*
X112886033Y-126052775D01*
X112819366Y-126019441D01*
X112786033Y-125986108D01*
X112752699Y-125919441D01*
X113386033Y-125386108D02*
X113419366Y-125352775D01*
X113452699Y-125386108D01*
X113419366Y-125419441D01*
X113386033Y-125386108D01*
X113452699Y-125386108D01*
X113452699Y-124686108D02*
X113452699Y-125086108D01*
X113452699Y-124886108D02*
X112752699Y-124886108D01*
X112852699Y-124952775D01*
X112919366Y-125019441D01*
X112952699Y-125086108D01*
X112752699Y-124452775D02*
X112752699Y-123986108D01*
X113452699Y-124286108D01*
X112689199Y-123315941D02*
X112689199Y-123249275D01*
X112722533Y-123182608D01*
X112755866Y-123149275D01*
X112822533Y-123115941D01*
X112955866Y-123082608D01*
X113122533Y-123082608D01*
X113255866Y-123115941D01*
X113322533Y-123149275D01*
X113355866Y-123182608D01*
X113389199Y-123249275D01*
X113389199Y-123315941D01*
X113355866Y-123382608D01*
X113322533Y-123415941D01*
X113255866Y-123449275D01*
X113122533Y-123482608D01*
X112955866Y-123482608D01*
X112822533Y-123449275D01*
X112755866Y-123415941D01*
X112722533Y-123382608D01*
X112689199Y-123315941D01*
X113322533Y-122782608D02*
X113355866Y-122749275D01*
X113389199Y-122782608D01*
X113355866Y-122815941D01*
X113322533Y-122782608D01*
X113389199Y-122782608D01*
X113389199Y-122082608D02*
X113389199Y-122482608D01*
X113389199Y-122282608D02*
X112689199Y-122282608D01*
X112789199Y-122349275D01*
X112855866Y-122415941D01*
X112889199Y-122482608D01*
X112689199Y-121449275D02*
X112689199Y-121782608D01*
X113022533Y-121815941D01*
X112989199Y-121782608D01*
X112955866Y-121715941D01*
X112955866Y-121549275D01*
X112989199Y-121482608D01*
X113022533Y-121449275D01*
X113089199Y-121415941D01*
X113255866Y-121415941D01*
X113322533Y-121449275D01*
X113355866Y-121482608D01*
X113389199Y-121549275D01*
X113389199Y-121715941D01*
X113355866Y-121782608D01*
X113322533Y-121815941D01*
X112722533Y-120442608D02*
X112689199Y-120509275D01*
X112689199Y-120609275D01*
X112722533Y-120709275D01*
X112789199Y-120775941D01*
X112855866Y-120809275D01*
X112989199Y-120842608D01*
X113089199Y-120842608D01*
X113222533Y-120809275D01*
X113289199Y-120775941D01*
X113355866Y-120709275D01*
X113389199Y-120609275D01*
X113389199Y-120542608D01*
X113355866Y-120442608D01*
X113322533Y-120409275D01*
X113089199Y-120409275D01*
X113089199Y-120542608D01*
X113389199Y-120109275D02*
X112689199Y-120109275D01*
X113389199Y-119709275D01*
X112689199Y-119709275D01*
X113389199Y-119375941D02*
X112689199Y-119375941D01*
X112689199Y-119209275D01*
X112722533Y-119109275D01*
X112789199Y-119042608D01*
X112855866Y-119009275D01*
X112989199Y-118975941D01*
X113089199Y-118975941D01*
X113222533Y-119009275D01*
X113289199Y-119042608D01*
X113355866Y-119109275D01*
X113389199Y-119209275D01*
X113389199Y-119375941D01*
X112659033Y-117712108D02*
X112625699Y-117778775D01*
X112625699Y-117878775D01*
X112659033Y-117978775D01*
X112725699Y-118045441D01*
X112792366Y-118078775D01*
X112925699Y-118112108D01*
X113025699Y-118112108D01*
X113159033Y-118078775D01*
X113225699Y-118045441D01*
X113292366Y-117978775D01*
X113325699Y-117878775D01*
X113325699Y-117812108D01*
X113292366Y-117712108D01*
X113259033Y-117678775D01*
X113025699Y-117678775D01*
X113025699Y-117812108D01*
X113325699Y-117378775D02*
X112625699Y-117378775D01*
X113325699Y-116978775D01*
X112625699Y-116978775D01*
X113325699Y-116645441D02*
X112625699Y-116645441D01*
X112625699Y-116478775D01*
X112659033Y-116378775D01*
X112725699Y-116312108D01*
X112792366Y-116278775D01*
X112925699Y-116245441D01*
X113025699Y-116245441D01*
X113159033Y-116278775D01*
X113225699Y-116312108D01*
X113292366Y-116378775D01*
X113325699Y-116478775D01*
X113325699Y-116645441D01*
X112625699Y-115505441D02*
X112625699Y-115438775D01*
X112659033Y-115372108D01*
X112692366Y-115338775D01*
X112759033Y-115305441D01*
X112892366Y-115272108D01*
X113059033Y-115272108D01*
X113192366Y-115305441D01*
X113259033Y-115338775D01*
X113292366Y-115372108D01*
X113325699Y-115438775D01*
X113325699Y-115505441D01*
X113292366Y-115572108D01*
X113259033Y-115605441D01*
X113192366Y-115638775D01*
X113059033Y-115672108D01*
X112892366Y-115672108D01*
X112759033Y-115638775D01*
X112692366Y-115605441D01*
X112659033Y-115572108D01*
X112625699Y-115505441D01*
X113259033Y-114972108D02*
X113292366Y-114938775D01*
X113325699Y-114972108D01*
X113292366Y-115005441D01*
X113259033Y-114972108D01*
X113325699Y-114972108D01*
X112625699Y-114505441D02*
X112625699Y-114438775D01*
X112659033Y-114372108D01*
X112692366Y-114338775D01*
X112759033Y-114305441D01*
X112892366Y-114272108D01*
X113059033Y-114272108D01*
X113192366Y-114305441D01*
X113259033Y-114338775D01*
X113292366Y-114372108D01*
X113325699Y-114438775D01*
X113325699Y-114505441D01*
X113292366Y-114572108D01*
X113259033Y-114605441D01*
X113192366Y-114638775D01*
X113059033Y-114672108D01*
X112892366Y-114672108D01*
X112759033Y-114638775D01*
X112692366Y-114605441D01*
X112659033Y-114572108D01*
X112625699Y-114505441D01*
X112925699Y-113872108D02*
X112892366Y-113938775D01*
X112859033Y-113972108D01*
X112792366Y-114005441D01*
X112759033Y-114005441D01*
X112692366Y-113972108D01*
X112659033Y-113938775D01*
X112625699Y-113872108D01*
X112625699Y-113738775D01*
X112659033Y-113672108D01*
X112692366Y-113638775D01*
X112759033Y-113605441D01*
X112792366Y-113605441D01*
X112859033Y-113638775D01*
X112892366Y-113672108D01*
X112925699Y-113738775D01*
X112925699Y-113872108D01*
X112959033Y-113938775D01*
X112992366Y-113972108D01*
X113059033Y-114005441D01*
X113192366Y-114005441D01*
X113259033Y-113972108D01*
X113292366Y-113938775D01*
X113325699Y-113872108D01*
X113325699Y-113738775D01*
X113292366Y-113672108D01*
X113259033Y-113638775D01*
X113192366Y-113605441D01*
X113059033Y-113605441D01*
X112992366Y-113638775D01*
X112959033Y-113672108D01*
X112925699Y-113738775D01*
X112689199Y-113028941D02*
X112689199Y-112962275D01*
X112722533Y-112895608D01*
X112755866Y-112862275D01*
X112822533Y-112828941D01*
X112955866Y-112795608D01*
X113122533Y-112795608D01*
X113255866Y-112828941D01*
X113322533Y-112862275D01*
X113355866Y-112895608D01*
X113389199Y-112962275D01*
X113389199Y-113028941D01*
X113355866Y-113095608D01*
X113322533Y-113128941D01*
X113255866Y-113162275D01*
X113122533Y-113195608D01*
X112955866Y-113195608D01*
X112822533Y-113162275D01*
X112755866Y-113128941D01*
X112722533Y-113095608D01*
X112689199Y-113028941D01*
X113322533Y-112495608D02*
X113355866Y-112462275D01*
X113389199Y-112495608D01*
X113355866Y-112528941D01*
X113322533Y-112495608D01*
X113389199Y-112495608D01*
X112689199Y-112028941D02*
X112689199Y-111962275D01*
X112722533Y-111895608D01*
X112755866Y-111862275D01*
X112822533Y-111828941D01*
X112955866Y-111795608D01*
X113122533Y-111795608D01*
X113255866Y-111828941D01*
X113322533Y-111862275D01*
X113355866Y-111895608D01*
X113389199Y-111962275D01*
X113389199Y-112028941D01*
X113355866Y-112095608D01*
X113322533Y-112128941D01*
X113255866Y-112162275D01*
X113122533Y-112195608D01*
X112955866Y-112195608D01*
X112822533Y-112162275D01*
X112755866Y-112128941D01*
X112722533Y-112095608D01*
X112689199Y-112028941D01*
X112689199Y-111195608D02*
X112689199Y-111328941D01*
X112722533Y-111395608D01*
X112755866Y-111428941D01*
X112855866Y-111495608D01*
X112989199Y-111528941D01*
X113255866Y-111528941D01*
X113322533Y-111495608D01*
X113355866Y-111462275D01*
X113389199Y-111395608D01*
X113389199Y-111262275D01*
X113355866Y-111195608D01*
X113322533Y-111162275D01*
X113255866Y-111128941D01*
X113089199Y-111128941D01*
X113022533Y-111162275D01*
X112989199Y-111195608D01*
X112955866Y-111262275D01*
X112955866Y-111395608D01*
X112989199Y-111462275D01*
X113022533Y-111495608D01*
X113089199Y-111528941D01*
D11*
X104775818Y-112350775D02*
X104418675Y-112600775D01*
X104775818Y-112779346D02*
X104025818Y-112779346D01*
X104025818Y-112493632D01*
X104061533Y-112422203D01*
X104097247Y-112386489D01*
X104168675Y-112350775D01*
X104275818Y-112350775D01*
X104347247Y-112386489D01*
X104382961Y-112422203D01*
X104418675Y-112493632D01*
X104418675Y-112779346D01*
X104347247Y-111922203D02*
X104311533Y-111993632D01*
X104275818Y-112029346D01*
X104204390Y-112065060D01*
X104168675Y-112065060D01*
X104097247Y-112029346D01*
X104061533Y-111993632D01*
X104025818Y-111922203D01*
X104025818Y-111779346D01*
X104061533Y-111707917D01*
X104097247Y-111672203D01*
X104168675Y-111636489D01*
X104204390Y-111636489D01*
X104275818Y-111672203D01*
X104311533Y-111707917D01*
X104347247Y-111779346D01*
X104347247Y-111922203D01*
X104382961Y-111993632D01*
X104418675Y-112029346D01*
X104490104Y-112065060D01*
X104632961Y-112065060D01*
X104704390Y-112029346D01*
X104740104Y-111993632D01*
X104775818Y-111922203D01*
X104775818Y-111779346D01*
X104740104Y-111707917D01*
X104704390Y-111672203D01*
X104632961Y-111636489D01*
X104490104Y-111636489D01*
X104418675Y-111672203D01*
X104382961Y-111707917D01*
X104347247Y-111779346D01*
X101727818Y-112350775D02*
X101370675Y-112600775D01*
X101727818Y-112779346D02*
X100977818Y-112779346D01*
X100977818Y-112493632D01*
X101013533Y-112422203D01*
X101049247Y-112386489D01*
X101120675Y-112350775D01*
X101227818Y-112350775D01*
X101299247Y-112386489D01*
X101334961Y-112422203D01*
X101370675Y-112493632D01*
X101370675Y-112779346D01*
X101727818Y-111993632D02*
X101727818Y-111850775D01*
X101692104Y-111779346D01*
X101656390Y-111743632D01*
X101549247Y-111672203D01*
X101406390Y-111636489D01*
X101120675Y-111636489D01*
X101049247Y-111672203D01*
X101013533Y-111707917D01*
X100977818Y-111779346D01*
X100977818Y-111922203D01*
X101013533Y-111993632D01*
X101049247Y-112029346D01*
X101120675Y-112065060D01*
X101299247Y-112065060D01*
X101370675Y-112029346D01*
X101406390Y-111993632D01*
X101442104Y-111922203D01*
X101442104Y-111779346D01*
X101406390Y-111707917D01*
X101370675Y-111672203D01*
X101299247Y-111636489D01*
X103898818Y-119655203D02*
X104505961Y-119655203D01*
X104577390Y-119619489D01*
X104613104Y-119583775D01*
X104648818Y-119512346D01*
X104648818Y-119369489D01*
X104613104Y-119298060D01*
X104577390Y-119262346D01*
X104505961Y-119226632D01*
X103898818Y-119226632D01*
X104648818Y-118476632D02*
X104648818Y-118905203D01*
X104648818Y-118690917D02*
X103898818Y-118690917D01*
X104005961Y-118762346D01*
X104077390Y-118833775D01*
X104113104Y-118905203D01*
M02*
