G04 #@! TF.GenerationSoftware,KiCad,Pcbnew,(5.0.0)*
G04 #@! TF.CreationDate,2020-11-22T20:55:59-06:00*
G04 #@! TF.ProjectId,BlueMicro840,426C75654D6963726F3834302E6B6963,rev?*
G04 #@! TF.SameCoordinates,Original*
G04 #@! TF.FileFunction,Paste,Bot*
G04 #@! TF.FilePolarity,Positive*
%FSLAX46Y46*%
G04 Gerber Fmt 4.6, Leading zero omitted, Abs format (unit mm)*
G04 Created by KiCad (PCBNEW (5.0.0)) date 11/22/20 20:55:59*
%MOMM*%
%LPD*%
G01*
G04 APERTURE LIST*
%ADD10R,1.000000X0.650000*%
%ADD11R,0.650000X1.000000*%
%ADD12R,0.300000X1.450000*%
%ADD13R,0.600000X1.450000*%
G04 APERTURE END LIST*
D10*
G04 #@! TO.C,U5*
X97682533Y-126322775D03*
X97682533Y-127592775D03*
X97682533Y-128862775D03*
X97682533Y-130132775D03*
X97682533Y-131402775D03*
X97682533Y-132672775D03*
X97682533Y-133942775D03*
X97682533Y-135212775D03*
X97682533Y-136482775D03*
X97682533Y-137752775D03*
X109920533Y-130132775D03*
X109920533Y-137752775D03*
X109920533Y-131402775D03*
X109920533Y-136482775D03*
X109920533Y-135212775D03*
X109920533Y-133942775D03*
X109920533Y-128862775D03*
X109920533Y-132672775D03*
X109920533Y-127592775D03*
X109920533Y-126322775D03*
D11*
X106951533Y-124103775D03*
X99331533Y-124103775D03*
X105681533Y-124103775D03*
X100601533Y-124103775D03*
X101871533Y-124103775D03*
X103141533Y-124103775D03*
X108221533Y-124103775D03*
X104411533Y-124103775D03*
G04 #@! TD*
D12*
G04 #@! TO.C,J3*
X103551533Y-117257775D03*
X104051533Y-117257775D03*
X104551533Y-117257775D03*
X103051533Y-117257775D03*
X105051533Y-117257775D03*
X102551533Y-117257775D03*
X105551533Y-117257775D03*
X102051533Y-117257775D03*
D13*
X101351533Y-117257775D03*
X106251533Y-117257775D03*
X100576533Y-117257775D03*
X107026533Y-117257775D03*
G04 #@! TD*
M02*
