G04 #@! TF.GenerationSoftware,KiCad,Pcbnew,(5.0.0)*
G04 #@! TF.CreationDate,2020-05-09T15:36:12-06:00*
G04 #@! TF.ProjectId,4x4_backpack,3478345F6261636B7061636B2E6B6963,rev?*
G04 #@! TF.SameCoordinates,Original*
G04 #@! TF.FileFunction,Soldermask,Top*
G04 #@! TF.FilePolarity,Negative*
%FSLAX46Y46*%
G04 Gerber Fmt 4.6, Leading zero omitted, Abs format (unit mm)*
G04 Created by KiCad (PCBNEW (5.0.0)) date 05/09/20 15:36:12*
%MOMM*%
%LPD*%
G01*
G04 APERTURE LIST*
%ADD10R,1.900000X2.300000*%
%ADD11C,1.850000*%
%ADD12R,0.800000X1.750000*%
%ADD13O,1.600000X2.300000*%
%ADD14R,1.600000X2.300000*%
%ADD15R,2.100000X2.100000*%
%ADD16O,2.100000X2.100000*%
%ADD17C,0.100000*%
%ADD18C,1.550000*%
%ADD19R,1.200000X1.300000*%
%ADD20R,3.650000X3.650000*%
%ADD21C,2.600000*%
%ADD22C,1.400000*%
%ADD23R,1.300000X1.650000*%
%ADD24R,1.300000X1.300000*%
%ADD25R,2.200000X1.500000*%
%ADD26C,1.275000*%
%ADD27R,1.300000X1.600000*%
%ADD28C,1.390600*%
%ADD29R,1.035000X1.035000*%
%ADD30R,1.924000X1.035000*%
%ADD31R,1.035000X1.924000*%
%ADD32R,1.950000X1.000000*%
%ADD33R,1.050000X1.960000*%
%ADD34R,1.400000X2.200000*%
%ADD35C,1.350000*%
%ADD36R,1.400000X1.900000*%
G04 APERTURE END LIST*
D10*
G04 #@! TO.C,J17*
X138700000Y-77629500D03*
D11*
X142200000Y-80329500D03*
D12*
X140350000Y-80329500D03*
X141000000Y-80329500D03*
X138400000Y-80329500D03*
X139050000Y-80329500D03*
X139700000Y-80329500D03*
D11*
X137200000Y-80329500D03*
D10*
X140700000Y-77629500D03*
D13*
X143200000Y-77629500D03*
X136200000Y-77629500D03*
D14*
X136800000Y-77629500D03*
X142600000Y-77629500D03*
G04 #@! TD*
D15*
G04 #@! TO.C,J1*
X77470000Y-82232500D03*
D16*
X77470000Y-84772500D03*
X77470000Y-87312500D03*
X77470000Y-89852500D03*
G04 #@! TD*
G04 #@! TO.C,J2*
X77470000Y-108902500D03*
X77470000Y-106362500D03*
X77470000Y-103822500D03*
D15*
X77470000Y-101282500D03*
G04 #@! TD*
G04 #@! TO.C,J3*
X77470000Y-120332500D03*
D16*
X77470000Y-122872500D03*
X77470000Y-125412500D03*
X77470000Y-127952500D03*
G04 #@! TD*
G04 #@! TO.C,J4*
X77470000Y-147002500D03*
X77470000Y-144462500D03*
X77470000Y-141922500D03*
D15*
X77470000Y-139382500D03*
G04 #@! TD*
G04 #@! TO.C,J5*
X151130000Y-82232500D03*
D16*
X151130000Y-84772500D03*
X151130000Y-87312500D03*
X151130000Y-89852500D03*
G04 #@! TD*
G04 #@! TO.C,J6*
X151130000Y-108902500D03*
X151130000Y-106362500D03*
X151130000Y-103822500D03*
D15*
X151130000Y-101282500D03*
G04 #@! TD*
G04 #@! TO.C,J7*
X151130000Y-120332500D03*
D16*
X151130000Y-122872500D03*
X151130000Y-125412500D03*
X151130000Y-127952500D03*
G04 #@! TD*
G04 #@! TO.C,J8*
X151130000Y-147002500D03*
X151130000Y-144462500D03*
X151130000Y-141922500D03*
D15*
X151130000Y-139382500D03*
G04 #@! TD*
D17*
G04 #@! TO.C,C1*
G36*
X114007071Y-96381623D02*
X114039781Y-96386475D01*
X114071857Y-96394509D01*
X114102991Y-96405649D01*
X114132884Y-96419787D01*
X114161247Y-96436787D01*
X114187807Y-96456485D01*
X114212308Y-96478692D01*
X114234515Y-96503193D01*
X114254213Y-96529753D01*
X114271213Y-96558116D01*
X114285351Y-96588009D01*
X114296491Y-96619143D01*
X114304525Y-96651219D01*
X114309377Y-96683929D01*
X114311000Y-96716956D01*
X114311000Y-97593044D01*
X114309377Y-97626071D01*
X114304525Y-97658781D01*
X114296491Y-97690857D01*
X114285351Y-97721991D01*
X114271213Y-97751884D01*
X114254213Y-97780247D01*
X114234515Y-97806807D01*
X114212308Y-97831308D01*
X114187807Y-97853515D01*
X114161247Y-97873213D01*
X114132884Y-97890213D01*
X114102991Y-97904351D01*
X114071857Y-97915491D01*
X114039781Y-97923525D01*
X114007071Y-97928377D01*
X113974044Y-97930000D01*
X112847956Y-97930000D01*
X112814929Y-97928377D01*
X112782219Y-97923525D01*
X112750143Y-97915491D01*
X112719009Y-97904351D01*
X112689116Y-97890213D01*
X112660753Y-97873213D01*
X112634193Y-97853515D01*
X112609692Y-97831308D01*
X112587485Y-97806807D01*
X112567787Y-97780247D01*
X112550787Y-97751884D01*
X112536649Y-97721991D01*
X112525509Y-97690857D01*
X112517475Y-97658781D01*
X112512623Y-97626071D01*
X112511000Y-97593044D01*
X112511000Y-96716956D01*
X112512623Y-96683929D01*
X112517475Y-96651219D01*
X112525509Y-96619143D01*
X112536649Y-96588009D01*
X112550787Y-96558116D01*
X112567787Y-96529753D01*
X112587485Y-96503193D01*
X112609692Y-96478692D01*
X112634193Y-96456485D01*
X112660753Y-96436787D01*
X112689116Y-96419787D01*
X112719009Y-96405649D01*
X112750143Y-96394509D01*
X112782219Y-96386475D01*
X112814929Y-96381623D01*
X112847956Y-96380000D01*
X113974044Y-96380000D01*
X114007071Y-96381623D01*
X114007071Y-96381623D01*
G37*
D18*
X113411000Y-97155000D03*
D17*
G36*
X114007071Y-94331623D02*
X114039781Y-94336475D01*
X114071857Y-94344509D01*
X114102991Y-94355649D01*
X114132884Y-94369787D01*
X114161247Y-94386787D01*
X114187807Y-94406485D01*
X114212308Y-94428692D01*
X114234515Y-94453193D01*
X114254213Y-94479753D01*
X114271213Y-94508116D01*
X114285351Y-94538009D01*
X114296491Y-94569143D01*
X114304525Y-94601219D01*
X114309377Y-94633929D01*
X114311000Y-94666956D01*
X114311000Y-95543044D01*
X114309377Y-95576071D01*
X114304525Y-95608781D01*
X114296491Y-95640857D01*
X114285351Y-95671991D01*
X114271213Y-95701884D01*
X114254213Y-95730247D01*
X114234515Y-95756807D01*
X114212308Y-95781308D01*
X114187807Y-95803515D01*
X114161247Y-95823213D01*
X114132884Y-95840213D01*
X114102991Y-95854351D01*
X114071857Y-95865491D01*
X114039781Y-95873525D01*
X114007071Y-95878377D01*
X113974044Y-95880000D01*
X112847956Y-95880000D01*
X112814929Y-95878377D01*
X112782219Y-95873525D01*
X112750143Y-95865491D01*
X112719009Y-95854351D01*
X112689116Y-95840213D01*
X112660753Y-95823213D01*
X112634193Y-95803515D01*
X112609692Y-95781308D01*
X112587485Y-95756807D01*
X112567787Y-95730247D01*
X112550787Y-95701884D01*
X112536649Y-95671991D01*
X112525509Y-95640857D01*
X112517475Y-95608781D01*
X112512623Y-95576071D01*
X112511000Y-95543044D01*
X112511000Y-94666956D01*
X112512623Y-94633929D01*
X112517475Y-94601219D01*
X112525509Y-94569143D01*
X112536649Y-94538009D01*
X112550787Y-94508116D01*
X112567787Y-94479753D01*
X112587485Y-94453193D01*
X112609692Y-94428692D01*
X112634193Y-94406485D01*
X112660753Y-94386787D01*
X112689116Y-94369787D01*
X112719009Y-94355649D01*
X112750143Y-94344509D01*
X112782219Y-94336475D01*
X112814929Y-94331623D01*
X112847956Y-94330000D01*
X113974044Y-94330000D01*
X114007071Y-94331623D01*
X114007071Y-94331623D01*
G37*
D18*
X113411000Y-95105000D03*
G04 #@! TD*
D17*
G04 #@! TO.C,C2*
G36*
X117801071Y-117592623D02*
X117833781Y-117597475D01*
X117865857Y-117605509D01*
X117896991Y-117616649D01*
X117926884Y-117630787D01*
X117955247Y-117647787D01*
X117981807Y-117667485D01*
X118006308Y-117689692D01*
X118028515Y-117714193D01*
X118048213Y-117740753D01*
X118065213Y-117769116D01*
X118079351Y-117799009D01*
X118090491Y-117830143D01*
X118098525Y-117862219D01*
X118103377Y-117894929D01*
X118105000Y-117927956D01*
X118105000Y-119054044D01*
X118103377Y-119087071D01*
X118098525Y-119119781D01*
X118090491Y-119151857D01*
X118079351Y-119182991D01*
X118065213Y-119212884D01*
X118048213Y-119241247D01*
X118028515Y-119267807D01*
X118006308Y-119292308D01*
X117981807Y-119314515D01*
X117955247Y-119334213D01*
X117926884Y-119351213D01*
X117896991Y-119365351D01*
X117865857Y-119376491D01*
X117833781Y-119384525D01*
X117801071Y-119389377D01*
X117768044Y-119391000D01*
X116891956Y-119391000D01*
X116858929Y-119389377D01*
X116826219Y-119384525D01*
X116794143Y-119376491D01*
X116763009Y-119365351D01*
X116733116Y-119351213D01*
X116704753Y-119334213D01*
X116678193Y-119314515D01*
X116653692Y-119292308D01*
X116631485Y-119267807D01*
X116611787Y-119241247D01*
X116594787Y-119212884D01*
X116580649Y-119182991D01*
X116569509Y-119151857D01*
X116561475Y-119119781D01*
X116556623Y-119087071D01*
X116555000Y-119054044D01*
X116555000Y-117927956D01*
X116556623Y-117894929D01*
X116561475Y-117862219D01*
X116569509Y-117830143D01*
X116580649Y-117799009D01*
X116594787Y-117769116D01*
X116611787Y-117740753D01*
X116631485Y-117714193D01*
X116653692Y-117689692D01*
X116678193Y-117667485D01*
X116704753Y-117647787D01*
X116733116Y-117630787D01*
X116763009Y-117616649D01*
X116794143Y-117605509D01*
X116826219Y-117597475D01*
X116858929Y-117592623D01*
X116891956Y-117591000D01*
X117768044Y-117591000D01*
X117801071Y-117592623D01*
X117801071Y-117592623D01*
G37*
D18*
X117330000Y-118491000D03*
D17*
G36*
X119851071Y-117592623D02*
X119883781Y-117597475D01*
X119915857Y-117605509D01*
X119946991Y-117616649D01*
X119976884Y-117630787D01*
X120005247Y-117647787D01*
X120031807Y-117667485D01*
X120056308Y-117689692D01*
X120078515Y-117714193D01*
X120098213Y-117740753D01*
X120115213Y-117769116D01*
X120129351Y-117799009D01*
X120140491Y-117830143D01*
X120148525Y-117862219D01*
X120153377Y-117894929D01*
X120155000Y-117927956D01*
X120155000Y-119054044D01*
X120153377Y-119087071D01*
X120148525Y-119119781D01*
X120140491Y-119151857D01*
X120129351Y-119182991D01*
X120115213Y-119212884D01*
X120098213Y-119241247D01*
X120078515Y-119267807D01*
X120056308Y-119292308D01*
X120031807Y-119314515D01*
X120005247Y-119334213D01*
X119976884Y-119351213D01*
X119946991Y-119365351D01*
X119915857Y-119376491D01*
X119883781Y-119384525D01*
X119851071Y-119389377D01*
X119818044Y-119391000D01*
X118941956Y-119391000D01*
X118908929Y-119389377D01*
X118876219Y-119384525D01*
X118844143Y-119376491D01*
X118813009Y-119365351D01*
X118783116Y-119351213D01*
X118754753Y-119334213D01*
X118728193Y-119314515D01*
X118703692Y-119292308D01*
X118681485Y-119267807D01*
X118661787Y-119241247D01*
X118644787Y-119212884D01*
X118630649Y-119182991D01*
X118619509Y-119151857D01*
X118611475Y-119119781D01*
X118606623Y-119087071D01*
X118605000Y-119054044D01*
X118605000Y-117927956D01*
X118606623Y-117894929D01*
X118611475Y-117862219D01*
X118619509Y-117830143D01*
X118630649Y-117799009D01*
X118644787Y-117769116D01*
X118661787Y-117740753D01*
X118681485Y-117714193D01*
X118703692Y-117689692D01*
X118728193Y-117667485D01*
X118754753Y-117647787D01*
X118783116Y-117630787D01*
X118813009Y-117616649D01*
X118844143Y-117605509D01*
X118876219Y-117597475D01*
X118908929Y-117592623D01*
X118941956Y-117591000D01*
X119818044Y-117591000D01*
X119851071Y-117592623D01*
X119851071Y-117592623D01*
G37*
D18*
X119380000Y-118491000D03*
G04 #@! TD*
D17*
G04 #@! TO.C,C3*
G36*
X104865081Y-101336623D02*
X104897791Y-101341475D01*
X104929867Y-101349509D01*
X104961001Y-101360649D01*
X104990894Y-101374787D01*
X105019257Y-101391787D01*
X105045817Y-101411485D01*
X105070318Y-101433692D01*
X105092525Y-101458193D01*
X105112223Y-101484753D01*
X105129223Y-101513116D01*
X105143361Y-101543009D01*
X105154501Y-101574143D01*
X105162535Y-101606219D01*
X105167387Y-101638929D01*
X105169010Y-101671956D01*
X105169010Y-102798044D01*
X105167387Y-102831071D01*
X105162535Y-102863781D01*
X105154501Y-102895857D01*
X105143361Y-102926991D01*
X105129223Y-102956884D01*
X105112223Y-102985247D01*
X105092525Y-103011807D01*
X105070318Y-103036308D01*
X105045817Y-103058515D01*
X105019257Y-103078213D01*
X104990894Y-103095213D01*
X104961001Y-103109351D01*
X104929867Y-103120491D01*
X104897791Y-103128525D01*
X104865081Y-103133377D01*
X104832054Y-103135000D01*
X103955966Y-103135000D01*
X103922939Y-103133377D01*
X103890229Y-103128525D01*
X103858153Y-103120491D01*
X103827019Y-103109351D01*
X103797126Y-103095213D01*
X103768763Y-103078213D01*
X103742203Y-103058515D01*
X103717702Y-103036308D01*
X103695495Y-103011807D01*
X103675797Y-102985247D01*
X103658797Y-102956884D01*
X103644659Y-102926991D01*
X103633519Y-102895857D01*
X103625485Y-102863781D01*
X103620633Y-102831071D01*
X103619010Y-102798044D01*
X103619010Y-101671956D01*
X103620633Y-101638929D01*
X103625485Y-101606219D01*
X103633519Y-101574143D01*
X103644659Y-101543009D01*
X103658797Y-101513116D01*
X103675797Y-101484753D01*
X103695495Y-101458193D01*
X103717702Y-101433692D01*
X103742203Y-101411485D01*
X103768763Y-101391787D01*
X103797126Y-101374787D01*
X103827019Y-101360649D01*
X103858153Y-101349509D01*
X103890229Y-101341475D01*
X103922939Y-101336623D01*
X103955966Y-101335000D01*
X104832054Y-101335000D01*
X104865081Y-101336623D01*
X104865081Y-101336623D01*
G37*
D18*
X104394010Y-102235000D03*
D17*
G36*
X102815081Y-101336623D02*
X102847791Y-101341475D01*
X102879867Y-101349509D01*
X102911001Y-101360649D01*
X102940894Y-101374787D01*
X102969257Y-101391787D01*
X102995817Y-101411485D01*
X103020318Y-101433692D01*
X103042525Y-101458193D01*
X103062223Y-101484753D01*
X103079223Y-101513116D01*
X103093361Y-101543009D01*
X103104501Y-101574143D01*
X103112535Y-101606219D01*
X103117387Y-101638929D01*
X103119010Y-101671956D01*
X103119010Y-102798044D01*
X103117387Y-102831071D01*
X103112535Y-102863781D01*
X103104501Y-102895857D01*
X103093361Y-102926991D01*
X103079223Y-102956884D01*
X103062223Y-102985247D01*
X103042525Y-103011807D01*
X103020318Y-103036308D01*
X102995817Y-103058515D01*
X102969257Y-103078213D01*
X102940894Y-103095213D01*
X102911001Y-103109351D01*
X102879867Y-103120491D01*
X102847791Y-103128525D01*
X102815081Y-103133377D01*
X102782054Y-103135000D01*
X101905966Y-103135000D01*
X101872939Y-103133377D01*
X101840229Y-103128525D01*
X101808153Y-103120491D01*
X101777019Y-103109351D01*
X101747126Y-103095213D01*
X101718763Y-103078213D01*
X101692203Y-103058515D01*
X101667702Y-103036308D01*
X101645495Y-103011807D01*
X101625797Y-102985247D01*
X101608797Y-102956884D01*
X101594659Y-102926991D01*
X101583519Y-102895857D01*
X101575485Y-102863781D01*
X101570633Y-102831071D01*
X101569010Y-102798044D01*
X101569010Y-101671956D01*
X101570633Y-101638929D01*
X101575485Y-101606219D01*
X101583519Y-101574143D01*
X101594659Y-101543009D01*
X101608797Y-101513116D01*
X101625797Y-101484753D01*
X101645495Y-101458193D01*
X101667702Y-101433692D01*
X101692203Y-101411485D01*
X101718763Y-101391787D01*
X101747126Y-101374787D01*
X101777019Y-101360649D01*
X101808153Y-101349509D01*
X101840229Y-101341475D01*
X101872939Y-101336623D01*
X101905966Y-101335000D01*
X102782054Y-101335000D01*
X102815081Y-101336623D01*
X102815081Y-101336623D01*
G37*
D18*
X102344010Y-102235000D03*
G04 #@! TD*
D19*
G04 #@! TO.C,Q1*
X114615000Y-109998000D03*
X112715000Y-109998000D03*
X113665000Y-111998000D03*
G04 #@! TD*
D20*
G04 #@! TO.C,E1*
X143510000Y-140462000D03*
X118618000Y-140462000D03*
X131064000Y-140462000D03*
G04 #@! TD*
D15*
G04 #@! TO.C,J9*
X118110000Y-85090000D03*
D16*
X120650000Y-85090000D03*
X123190000Y-85090000D03*
X125730000Y-85090000D03*
G04 #@! TD*
D21*
G04 #@! TO.C,J11*
X81026000Y-133477000D03*
G04 #@! TD*
G04 #@! TO.C,J12*
X147701000Y-95377000D03*
G04 #@! TD*
G04 #@! TO.C,J13*
X147701000Y-133477000D03*
G04 #@! TD*
G04 #@! TO.C,J14*
X109601000Y-133477000D03*
G04 #@! TD*
G04 #@! TO.C,J15*
X119126000Y-95377000D03*
G04 #@! TD*
G04 #@! TO.C,J16*
X81026000Y-95377000D03*
G04 #@! TD*
D22*
G04 #@! TO.C,SW1*
X110260000Y-147320000D03*
X113260000Y-147320000D03*
D23*
X112510000Y-145245000D03*
X114010000Y-145245000D03*
X109510000Y-145245000D03*
D24*
X108060000Y-148420000D03*
X108060000Y-146220000D03*
X115460000Y-146220000D03*
X115460000Y-148420000D03*
G04 #@! TD*
D25*
G04 #@! TO.C,SW2*
X95810000Y-146630000D03*
X89610000Y-146630000D03*
X95810000Y-142930000D03*
X89610000Y-142930000D03*
G04 #@! TD*
D17*
G04 #@! TO.C,C5*
G36*
X109054071Y-111621623D02*
X109086781Y-111626475D01*
X109118857Y-111634509D01*
X109149991Y-111645649D01*
X109179884Y-111659787D01*
X109208247Y-111676787D01*
X109234807Y-111696485D01*
X109259308Y-111718692D01*
X109281515Y-111743193D01*
X109301213Y-111769753D01*
X109318213Y-111798116D01*
X109332351Y-111828009D01*
X109343491Y-111859143D01*
X109351525Y-111891219D01*
X109356377Y-111923929D01*
X109358000Y-111956956D01*
X109358000Y-112833044D01*
X109356377Y-112866071D01*
X109351525Y-112898781D01*
X109343491Y-112930857D01*
X109332351Y-112961991D01*
X109318213Y-112991884D01*
X109301213Y-113020247D01*
X109281515Y-113046807D01*
X109259308Y-113071308D01*
X109234807Y-113093515D01*
X109208247Y-113113213D01*
X109179884Y-113130213D01*
X109149991Y-113144351D01*
X109118857Y-113155491D01*
X109086781Y-113163525D01*
X109054071Y-113168377D01*
X109021044Y-113170000D01*
X107894956Y-113170000D01*
X107861929Y-113168377D01*
X107829219Y-113163525D01*
X107797143Y-113155491D01*
X107766009Y-113144351D01*
X107736116Y-113130213D01*
X107707753Y-113113213D01*
X107681193Y-113093515D01*
X107656692Y-113071308D01*
X107634485Y-113046807D01*
X107614787Y-113020247D01*
X107597787Y-112991884D01*
X107583649Y-112961991D01*
X107572509Y-112930857D01*
X107564475Y-112898781D01*
X107559623Y-112866071D01*
X107558000Y-112833044D01*
X107558000Y-111956956D01*
X107559623Y-111923929D01*
X107564475Y-111891219D01*
X107572509Y-111859143D01*
X107583649Y-111828009D01*
X107597787Y-111798116D01*
X107614787Y-111769753D01*
X107634485Y-111743193D01*
X107656692Y-111718692D01*
X107681193Y-111696485D01*
X107707753Y-111676787D01*
X107736116Y-111659787D01*
X107766009Y-111645649D01*
X107797143Y-111634509D01*
X107829219Y-111626475D01*
X107861929Y-111621623D01*
X107894956Y-111620000D01*
X109021044Y-111620000D01*
X109054071Y-111621623D01*
X109054071Y-111621623D01*
G37*
D18*
X108458000Y-112395000D03*
D17*
G36*
X109054071Y-109571623D02*
X109086781Y-109576475D01*
X109118857Y-109584509D01*
X109149991Y-109595649D01*
X109179884Y-109609787D01*
X109208247Y-109626787D01*
X109234807Y-109646485D01*
X109259308Y-109668692D01*
X109281515Y-109693193D01*
X109301213Y-109719753D01*
X109318213Y-109748116D01*
X109332351Y-109778009D01*
X109343491Y-109809143D01*
X109351525Y-109841219D01*
X109356377Y-109873929D01*
X109358000Y-109906956D01*
X109358000Y-110783044D01*
X109356377Y-110816071D01*
X109351525Y-110848781D01*
X109343491Y-110880857D01*
X109332351Y-110911991D01*
X109318213Y-110941884D01*
X109301213Y-110970247D01*
X109281515Y-110996807D01*
X109259308Y-111021308D01*
X109234807Y-111043515D01*
X109208247Y-111063213D01*
X109179884Y-111080213D01*
X109149991Y-111094351D01*
X109118857Y-111105491D01*
X109086781Y-111113525D01*
X109054071Y-111118377D01*
X109021044Y-111120000D01*
X107894956Y-111120000D01*
X107861929Y-111118377D01*
X107829219Y-111113525D01*
X107797143Y-111105491D01*
X107766009Y-111094351D01*
X107736116Y-111080213D01*
X107707753Y-111063213D01*
X107681193Y-111043515D01*
X107656692Y-111021308D01*
X107634485Y-110996807D01*
X107614787Y-110970247D01*
X107597787Y-110941884D01*
X107583649Y-110911991D01*
X107572509Y-110880857D01*
X107564475Y-110848781D01*
X107559623Y-110816071D01*
X107558000Y-110783044D01*
X107558000Y-109906956D01*
X107559623Y-109873929D01*
X107564475Y-109841219D01*
X107572509Y-109809143D01*
X107583649Y-109778009D01*
X107597787Y-109748116D01*
X107614787Y-109719753D01*
X107634485Y-109693193D01*
X107656692Y-109668692D01*
X107681193Y-109646485D01*
X107707753Y-109626787D01*
X107736116Y-109609787D01*
X107766009Y-109595649D01*
X107797143Y-109584509D01*
X107829219Y-109576475D01*
X107861929Y-109571623D01*
X107894956Y-109570000D01*
X109021044Y-109570000D01*
X109054071Y-109571623D01*
X109054071Y-109571623D01*
G37*
D18*
X108458000Y-110345000D03*
G04 #@! TD*
D17*
G04 #@! TO.C,C6*
G36*
X88480071Y-102105623D02*
X88512781Y-102110475D01*
X88544857Y-102118509D01*
X88575991Y-102129649D01*
X88605884Y-102143787D01*
X88634247Y-102160787D01*
X88660807Y-102180485D01*
X88685308Y-102202692D01*
X88707515Y-102227193D01*
X88727213Y-102253753D01*
X88744213Y-102282116D01*
X88758351Y-102312009D01*
X88769491Y-102343143D01*
X88777525Y-102375219D01*
X88782377Y-102407929D01*
X88784000Y-102440956D01*
X88784000Y-103317044D01*
X88782377Y-103350071D01*
X88777525Y-103382781D01*
X88769491Y-103414857D01*
X88758351Y-103445991D01*
X88744213Y-103475884D01*
X88727213Y-103504247D01*
X88707515Y-103530807D01*
X88685308Y-103555308D01*
X88660807Y-103577515D01*
X88634247Y-103597213D01*
X88605884Y-103614213D01*
X88575991Y-103628351D01*
X88544857Y-103639491D01*
X88512781Y-103647525D01*
X88480071Y-103652377D01*
X88447044Y-103654000D01*
X87320956Y-103654000D01*
X87287929Y-103652377D01*
X87255219Y-103647525D01*
X87223143Y-103639491D01*
X87192009Y-103628351D01*
X87162116Y-103614213D01*
X87133753Y-103597213D01*
X87107193Y-103577515D01*
X87082692Y-103555308D01*
X87060485Y-103530807D01*
X87040787Y-103504247D01*
X87023787Y-103475884D01*
X87009649Y-103445991D01*
X86998509Y-103414857D01*
X86990475Y-103382781D01*
X86985623Y-103350071D01*
X86984000Y-103317044D01*
X86984000Y-102440956D01*
X86985623Y-102407929D01*
X86990475Y-102375219D01*
X86998509Y-102343143D01*
X87009649Y-102312009D01*
X87023787Y-102282116D01*
X87040787Y-102253753D01*
X87060485Y-102227193D01*
X87082692Y-102202692D01*
X87107193Y-102180485D01*
X87133753Y-102160787D01*
X87162116Y-102143787D01*
X87192009Y-102129649D01*
X87223143Y-102118509D01*
X87255219Y-102110475D01*
X87287929Y-102105623D01*
X87320956Y-102104000D01*
X88447044Y-102104000D01*
X88480071Y-102105623D01*
X88480071Y-102105623D01*
G37*
D18*
X87884000Y-102879000D03*
D17*
G36*
X88480071Y-100055623D02*
X88512781Y-100060475D01*
X88544857Y-100068509D01*
X88575991Y-100079649D01*
X88605884Y-100093787D01*
X88634247Y-100110787D01*
X88660807Y-100130485D01*
X88685308Y-100152692D01*
X88707515Y-100177193D01*
X88727213Y-100203753D01*
X88744213Y-100232116D01*
X88758351Y-100262009D01*
X88769491Y-100293143D01*
X88777525Y-100325219D01*
X88782377Y-100357929D01*
X88784000Y-100390956D01*
X88784000Y-101267044D01*
X88782377Y-101300071D01*
X88777525Y-101332781D01*
X88769491Y-101364857D01*
X88758351Y-101395991D01*
X88744213Y-101425884D01*
X88727213Y-101454247D01*
X88707515Y-101480807D01*
X88685308Y-101505308D01*
X88660807Y-101527515D01*
X88634247Y-101547213D01*
X88605884Y-101564213D01*
X88575991Y-101578351D01*
X88544857Y-101589491D01*
X88512781Y-101597525D01*
X88480071Y-101602377D01*
X88447044Y-101604000D01*
X87320956Y-101604000D01*
X87287929Y-101602377D01*
X87255219Y-101597525D01*
X87223143Y-101589491D01*
X87192009Y-101578351D01*
X87162116Y-101564213D01*
X87133753Y-101547213D01*
X87107193Y-101527515D01*
X87082692Y-101505308D01*
X87060485Y-101480807D01*
X87040787Y-101454247D01*
X87023787Y-101425884D01*
X87009649Y-101395991D01*
X86998509Y-101364857D01*
X86990475Y-101332781D01*
X86985623Y-101300071D01*
X86984000Y-101267044D01*
X86984000Y-100390956D01*
X86985623Y-100357929D01*
X86990475Y-100325219D01*
X86998509Y-100293143D01*
X87009649Y-100262009D01*
X87023787Y-100232116D01*
X87040787Y-100203753D01*
X87060485Y-100177193D01*
X87082692Y-100152692D01*
X87107193Y-100130485D01*
X87133753Y-100110787D01*
X87162116Y-100093787D01*
X87192009Y-100079649D01*
X87223143Y-100068509D01*
X87255219Y-100060475D01*
X87287929Y-100055623D01*
X87320956Y-100054000D01*
X88447044Y-100054000D01*
X88480071Y-100055623D01*
X88480071Y-100055623D01*
G37*
D18*
X87884000Y-100829000D03*
G04 #@! TD*
D17*
G04 #@! TO.C,C17*
G36*
X95891493Y-106679034D02*
X95922435Y-106683624D01*
X95952778Y-106691224D01*
X95982230Y-106701762D01*
X96010508Y-106715137D01*
X96037338Y-106731218D01*
X96062463Y-106749852D01*
X96085640Y-106770859D01*
X96106647Y-106794036D01*
X96125281Y-106819161D01*
X96141362Y-106845991D01*
X96154737Y-106874269D01*
X96165275Y-106903721D01*
X96172875Y-106934064D01*
X96177465Y-106965006D01*
X96179000Y-106996249D01*
X96179000Y-107633749D01*
X96177465Y-107664992D01*
X96172875Y-107695934D01*
X96165275Y-107726277D01*
X96154737Y-107755729D01*
X96141362Y-107784007D01*
X96125281Y-107810837D01*
X96106647Y-107835962D01*
X96085640Y-107859139D01*
X96062463Y-107880146D01*
X96037338Y-107898780D01*
X96010508Y-107914861D01*
X95982230Y-107928236D01*
X95952778Y-107938774D01*
X95922435Y-107946374D01*
X95891493Y-107950964D01*
X95860250Y-107952499D01*
X95147750Y-107952499D01*
X95116507Y-107950964D01*
X95085565Y-107946374D01*
X95055222Y-107938774D01*
X95025770Y-107928236D01*
X94997492Y-107914861D01*
X94970662Y-107898780D01*
X94945537Y-107880146D01*
X94922360Y-107859139D01*
X94901353Y-107835962D01*
X94882719Y-107810837D01*
X94866638Y-107784007D01*
X94853263Y-107755729D01*
X94842725Y-107726277D01*
X94835125Y-107695934D01*
X94830535Y-107664992D01*
X94829000Y-107633749D01*
X94829000Y-106996249D01*
X94830535Y-106965006D01*
X94835125Y-106934064D01*
X94842725Y-106903721D01*
X94853263Y-106874269D01*
X94866638Y-106845991D01*
X94882719Y-106819161D01*
X94901353Y-106794036D01*
X94922360Y-106770859D01*
X94945537Y-106749852D01*
X94970662Y-106731218D01*
X94997492Y-106715137D01*
X95025770Y-106701762D01*
X95055222Y-106691224D01*
X95085565Y-106683624D01*
X95116507Y-106679034D01*
X95147750Y-106677499D01*
X95860250Y-106677499D01*
X95891493Y-106679034D01*
X95891493Y-106679034D01*
G37*
D26*
X95504000Y-107314999D03*
D17*
G36*
X95891493Y-105104034D02*
X95922435Y-105108624D01*
X95952778Y-105116224D01*
X95982230Y-105126762D01*
X96010508Y-105140137D01*
X96037338Y-105156218D01*
X96062463Y-105174852D01*
X96085640Y-105195859D01*
X96106647Y-105219036D01*
X96125281Y-105244161D01*
X96141362Y-105270991D01*
X96154737Y-105299269D01*
X96165275Y-105328721D01*
X96172875Y-105359064D01*
X96177465Y-105390006D01*
X96179000Y-105421249D01*
X96179000Y-106058749D01*
X96177465Y-106089992D01*
X96172875Y-106120934D01*
X96165275Y-106151277D01*
X96154737Y-106180729D01*
X96141362Y-106209007D01*
X96125281Y-106235837D01*
X96106647Y-106260962D01*
X96085640Y-106284139D01*
X96062463Y-106305146D01*
X96037338Y-106323780D01*
X96010508Y-106339861D01*
X95982230Y-106353236D01*
X95952778Y-106363774D01*
X95922435Y-106371374D01*
X95891493Y-106375964D01*
X95860250Y-106377499D01*
X95147750Y-106377499D01*
X95116507Y-106375964D01*
X95085565Y-106371374D01*
X95055222Y-106363774D01*
X95025770Y-106353236D01*
X94997492Y-106339861D01*
X94970662Y-106323780D01*
X94945537Y-106305146D01*
X94922360Y-106284139D01*
X94901353Y-106260962D01*
X94882719Y-106235837D01*
X94866638Y-106209007D01*
X94853263Y-106180729D01*
X94842725Y-106151277D01*
X94835125Y-106120934D01*
X94830535Y-106089992D01*
X94829000Y-106058749D01*
X94829000Y-105421249D01*
X94830535Y-105390006D01*
X94835125Y-105359064D01*
X94842725Y-105328721D01*
X94853263Y-105299269D01*
X94866638Y-105270991D01*
X94882719Y-105244161D01*
X94901353Y-105219036D01*
X94922360Y-105195859D01*
X94945537Y-105174852D01*
X94970662Y-105156218D01*
X94997492Y-105140137D01*
X95025770Y-105126762D01*
X95055222Y-105116224D01*
X95085565Y-105108624D01*
X95116507Y-105104034D01*
X95147750Y-105102499D01*
X95860250Y-105102499D01*
X95891493Y-105104034D01*
X95891493Y-105104034D01*
G37*
D26*
X95504000Y-105739999D03*
G04 #@! TD*
D17*
G04 #@! TO.C,C18*
G36*
X98431493Y-105104031D02*
X98462435Y-105108621D01*
X98492778Y-105116221D01*
X98522230Y-105126759D01*
X98550508Y-105140134D01*
X98577338Y-105156215D01*
X98602463Y-105174849D01*
X98625640Y-105195856D01*
X98646647Y-105219033D01*
X98665281Y-105244158D01*
X98681362Y-105270988D01*
X98694737Y-105299266D01*
X98705275Y-105328718D01*
X98712875Y-105359061D01*
X98717465Y-105390003D01*
X98719000Y-105421246D01*
X98719000Y-106058746D01*
X98717465Y-106089989D01*
X98712875Y-106120931D01*
X98705275Y-106151274D01*
X98694737Y-106180726D01*
X98681362Y-106209004D01*
X98665281Y-106235834D01*
X98646647Y-106260959D01*
X98625640Y-106284136D01*
X98602463Y-106305143D01*
X98577338Y-106323777D01*
X98550508Y-106339858D01*
X98522230Y-106353233D01*
X98492778Y-106363771D01*
X98462435Y-106371371D01*
X98431493Y-106375961D01*
X98400250Y-106377496D01*
X97687750Y-106377496D01*
X97656507Y-106375961D01*
X97625565Y-106371371D01*
X97595222Y-106363771D01*
X97565770Y-106353233D01*
X97537492Y-106339858D01*
X97510662Y-106323777D01*
X97485537Y-106305143D01*
X97462360Y-106284136D01*
X97441353Y-106260959D01*
X97422719Y-106235834D01*
X97406638Y-106209004D01*
X97393263Y-106180726D01*
X97382725Y-106151274D01*
X97375125Y-106120931D01*
X97370535Y-106089989D01*
X97369000Y-106058746D01*
X97369000Y-105421246D01*
X97370535Y-105390003D01*
X97375125Y-105359061D01*
X97382725Y-105328718D01*
X97393263Y-105299266D01*
X97406638Y-105270988D01*
X97422719Y-105244158D01*
X97441353Y-105219033D01*
X97462360Y-105195856D01*
X97485537Y-105174849D01*
X97510662Y-105156215D01*
X97537492Y-105140134D01*
X97565770Y-105126759D01*
X97595222Y-105116221D01*
X97625565Y-105108621D01*
X97656507Y-105104031D01*
X97687750Y-105102496D01*
X98400250Y-105102496D01*
X98431493Y-105104031D01*
X98431493Y-105104031D01*
G37*
D26*
X98044000Y-105739996D03*
D17*
G36*
X98431493Y-106679031D02*
X98462435Y-106683621D01*
X98492778Y-106691221D01*
X98522230Y-106701759D01*
X98550508Y-106715134D01*
X98577338Y-106731215D01*
X98602463Y-106749849D01*
X98625640Y-106770856D01*
X98646647Y-106794033D01*
X98665281Y-106819158D01*
X98681362Y-106845988D01*
X98694737Y-106874266D01*
X98705275Y-106903718D01*
X98712875Y-106934061D01*
X98717465Y-106965003D01*
X98719000Y-106996246D01*
X98719000Y-107633746D01*
X98717465Y-107664989D01*
X98712875Y-107695931D01*
X98705275Y-107726274D01*
X98694737Y-107755726D01*
X98681362Y-107784004D01*
X98665281Y-107810834D01*
X98646647Y-107835959D01*
X98625640Y-107859136D01*
X98602463Y-107880143D01*
X98577338Y-107898777D01*
X98550508Y-107914858D01*
X98522230Y-107928233D01*
X98492778Y-107938771D01*
X98462435Y-107946371D01*
X98431493Y-107950961D01*
X98400250Y-107952496D01*
X97687750Y-107952496D01*
X97656507Y-107950961D01*
X97625565Y-107946371D01*
X97595222Y-107938771D01*
X97565770Y-107928233D01*
X97537492Y-107914858D01*
X97510662Y-107898777D01*
X97485537Y-107880143D01*
X97462360Y-107859136D01*
X97441353Y-107835959D01*
X97422719Y-107810834D01*
X97406638Y-107784004D01*
X97393263Y-107755726D01*
X97382725Y-107726274D01*
X97375125Y-107695931D01*
X97370535Y-107664989D01*
X97369000Y-107633746D01*
X97369000Y-106996246D01*
X97370535Y-106965003D01*
X97375125Y-106934061D01*
X97382725Y-106903718D01*
X97393263Y-106874266D01*
X97406638Y-106845988D01*
X97422719Y-106819158D01*
X97441353Y-106794033D01*
X97462360Y-106770856D01*
X97485537Y-106749849D01*
X97510662Y-106731215D01*
X97537492Y-106715134D01*
X97565770Y-106701759D01*
X97595222Y-106691221D01*
X97625565Y-106683621D01*
X97656507Y-106679031D01*
X97687750Y-106677496D01*
X98400250Y-106677496D01*
X98431493Y-106679031D01*
X98431493Y-106679031D01*
G37*
D26*
X98044000Y-107314996D03*
G04 #@! TD*
D27*
G04 #@! TO.C,D1*
X111888000Y-106172000D03*
X115188000Y-106172000D03*
G04 #@! TD*
D17*
G04 #@! TO.C,D2*
G36*
X147281071Y-79381610D02*
X147313781Y-79386462D01*
X147345857Y-79394496D01*
X147376991Y-79405636D01*
X147406884Y-79419774D01*
X147435247Y-79436774D01*
X147461807Y-79456472D01*
X147486308Y-79478679D01*
X147508515Y-79503180D01*
X147528213Y-79529740D01*
X147545213Y-79558103D01*
X147559351Y-79587996D01*
X147570491Y-79619130D01*
X147578525Y-79651206D01*
X147583377Y-79683916D01*
X147585000Y-79716943D01*
X147585000Y-80593031D01*
X147583377Y-80626058D01*
X147578525Y-80658768D01*
X147570491Y-80690844D01*
X147559351Y-80721978D01*
X147545213Y-80751871D01*
X147528213Y-80780234D01*
X147508515Y-80806794D01*
X147486308Y-80831295D01*
X147461807Y-80853502D01*
X147435247Y-80873200D01*
X147406884Y-80890200D01*
X147376991Y-80904338D01*
X147345857Y-80915478D01*
X147313781Y-80923512D01*
X147281071Y-80928364D01*
X147248044Y-80929987D01*
X146121956Y-80929987D01*
X146088929Y-80928364D01*
X146056219Y-80923512D01*
X146024143Y-80915478D01*
X145993009Y-80904338D01*
X145963116Y-80890200D01*
X145934753Y-80873200D01*
X145908193Y-80853502D01*
X145883692Y-80831295D01*
X145861485Y-80806794D01*
X145841787Y-80780234D01*
X145824787Y-80751871D01*
X145810649Y-80721978D01*
X145799509Y-80690844D01*
X145791475Y-80658768D01*
X145786623Y-80626058D01*
X145785000Y-80593031D01*
X145785000Y-79716943D01*
X145786623Y-79683916D01*
X145791475Y-79651206D01*
X145799509Y-79619130D01*
X145810649Y-79587996D01*
X145824787Y-79558103D01*
X145841787Y-79529740D01*
X145861485Y-79503180D01*
X145883692Y-79478679D01*
X145908193Y-79456472D01*
X145934753Y-79436774D01*
X145963116Y-79419774D01*
X145993009Y-79405636D01*
X146024143Y-79394496D01*
X146056219Y-79386462D01*
X146088929Y-79381610D01*
X146121956Y-79379987D01*
X147248044Y-79379987D01*
X147281071Y-79381610D01*
X147281071Y-79381610D01*
G37*
D18*
X146685000Y-80154987D03*
D17*
G36*
X147281071Y-77331610D02*
X147313781Y-77336462D01*
X147345857Y-77344496D01*
X147376991Y-77355636D01*
X147406884Y-77369774D01*
X147435247Y-77386774D01*
X147461807Y-77406472D01*
X147486308Y-77428679D01*
X147508515Y-77453180D01*
X147528213Y-77479740D01*
X147545213Y-77508103D01*
X147559351Y-77537996D01*
X147570491Y-77569130D01*
X147578525Y-77601206D01*
X147583377Y-77633916D01*
X147585000Y-77666943D01*
X147585000Y-78543031D01*
X147583377Y-78576058D01*
X147578525Y-78608768D01*
X147570491Y-78640844D01*
X147559351Y-78671978D01*
X147545213Y-78701871D01*
X147528213Y-78730234D01*
X147508515Y-78756794D01*
X147486308Y-78781295D01*
X147461807Y-78803502D01*
X147435247Y-78823200D01*
X147406884Y-78840200D01*
X147376991Y-78854338D01*
X147345857Y-78865478D01*
X147313781Y-78873512D01*
X147281071Y-78878364D01*
X147248044Y-78879987D01*
X146121956Y-78879987D01*
X146088929Y-78878364D01*
X146056219Y-78873512D01*
X146024143Y-78865478D01*
X145993009Y-78854338D01*
X145963116Y-78840200D01*
X145934753Y-78823200D01*
X145908193Y-78803502D01*
X145883692Y-78781295D01*
X145861485Y-78756794D01*
X145841787Y-78730234D01*
X145824787Y-78701871D01*
X145810649Y-78671978D01*
X145799509Y-78640844D01*
X145791475Y-78608768D01*
X145786623Y-78576058D01*
X145785000Y-78543031D01*
X145785000Y-77666943D01*
X145786623Y-77633916D01*
X145791475Y-77601206D01*
X145799509Y-77569130D01*
X145810649Y-77537996D01*
X145824787Y-77508103D01*
X145841787Y-77479740D01*
X145861485Y-77453180D01*
X145883692Y-77428679D01*
X145908193Y-77406472D01*
X145934753Y-77386774D01*
X145963116Y-77369774D01*
X145993009Y-77355636D01*
X146024143Y-77344496D01*
X146056219Y-77336462D01*
X146088929Y-77331610D01*
X146121956Y-77329987D01*
X147248044Y-77329987D01*
X147281071Y-77331610D01*
X147281071Y-77331610D01*
G37*
D18*
X146685000Y-78104987D03*
G04 #@! TD*
D28*
G04 #@! TO.C,J10*
X136779000Y-96393000D03*
X136779000Y-94361000D03*
X129159000Y-95377000D03*
G04 #@! TD*
D17*
G04 #@! TO.C,R1*
G36*
X114007071Y-98413622D02*
X114039781Y-98418474D01*
X114071857Y-98426508D01*
X114102991Y-98437648D01*
X114132884Y-98451786D01*
X114161247Y-98468786D01*
X114187807Y-98488484D01*
X114212308Y-98510691D01*
X114234515Y-98535192D01*
X114254213Y-98561752D01*
X114271213Y-98590115D01*
X114285351Y-98620008D01*
X114296491Y-98651142D01*
X114304525Y-98683218D01*
X114309377Y-98715928D01*
X114311000Y-98748955D01*
X114311000Y-99625043D01*
X114309377Y-99658070D01*
X114304525Y-99690780D01*
X114296491Y-99722856D01*
X114285351Y-99753990D01*
X114271213Y-99783883D01*
X114254213Y-99812246D01*
X114234515Y-99838806D01*
X114212308Y-99863307D01*
X114187807Y-99885514D01*
X114161247Y-99905212D01*
X114132884Y-99922212D01*
X114102991Y-99936350D01*
X114071857Y-99947490D01*
X114039781Y-99955524D01*
X114007071Y-99960376D01*
X113974044Y-99961999D01*
X112847956Y-99961999D01*
X112814929Y-99960376D01*
X112782219Y-99955524D01*
X112750143Y-99947490D01*
X112719009Y-99936350D01*
X112689116Y-99922212D01*
X112660753Y-99905212D01*
X112634193Y-99885514D01*
X112609692Y-99863307D01*
X112587485Y-99838806D01*
X112567787Y-99812246D01*
X112550787Y-99783883D01*
X112536649Y-99753990D01*
X112525509Y-99722856D01*
X112517475Y-99690780D01*
X112512623Y-99658070D01*
X112511000Y-99625043D01*
X112511000Y-98748955D01*
X112512623Y-98715928D01*
X112517475Y-98683218D01*
X112525509Y-98651142D01*
X112536649Y-98620008D01*
X112550787Y-98590115D01*
X112567787Y-98561752D01*
X112587485Y-98535192D01*
X112609692Y-98510691D01*
X112634193Y-98488484D01*
X112660753Y-98468786D01*
X112689116Y-98451786D01*
X112719009Y-98437648D01*
X112750143Y-98426508D01*
X112782219Y-98418474D01*
X112814929Y-98413622D01*
X112847956Y-98411999D01*
X113974044Y-98411999D01*
X114007071Y-98413622D01*
X114007071Y-98413622D01*
G37*
D18*
X113411000Y-99186999D03*
D17*
G36*
X114007071Y-100463622D02*
X114039781Y-100468474D01*
X114071857Y-100476508D01*
X114102991Y-100487648D01*
X114132884Y-100501786D01*
X114161247Y-100518786D01*
X114187807Y-100538484D01*
X114212308Y-100560691D01*
X114234515Y-100585192D01*
X114254213Y-100611752D01*
X114271213Y-100640115D01*
X114285351Y-100670008D01*
X114296491Y-100701142D01*
X114304525Y-100733218D01*
X114309377Y-100765928D01*
X114311000Y-100798955D01*
X114311000Y-101675043D01*
X114309377Y-101708070D01*
X114304525Y-101740780D01*
X114296491Y-101772856D01*
X114285351Y-101803990D01*
X114271213Y-101833883D01*
X114254213Y-101862246D01*
X114234515Y-101888806D01*
X114212308Y-101913307D01*
X114187807Y-101935514D01*
X114161247Y-101955212D01*
X114132884Y-101972212D01*
X114102991Y-101986350D01*
X114071857Y-101997490D01*
X114039781Y-102005524D01*
X114007071Y-102010376D01*
X113974044Y-102011999D01*
X112847956Y-102011999D01*
X112814929Y-102010376D01*
X112782219Y-102005524D01*
X112750143Y-101997490D01*
X112719009Y-101986350D01*
X112689116Y-101972212D01*
X112660753Y-101955212D01*
X112634193Y-101935514D01*
X112609692Y-101913307D01*
X112587485Y-101888806D01*
X112567787Y-101862246D01*
X112550787Y-101833883D01*
X112536649Y-101803990D01*
X112525509Y-101772856D01*
X112517475Y-101740780D01*
X112512623Y-101708070D01*
X112511000Y-101675043D01*
X112511000Y-100798955D01*
X112512623Y-100765928D01*
X112517475Y-100733218D01*
X112525509Y-100701142D01*
X112536649Y-100670008D01*
X112550787Y-100640115D01*
X112567787Y-100611752D01*
X112587485Y-100585192D01*
X112609692Y-100560691D01*
X112634193Y-100538484D01*
X112660753Y-100518786D01*
X112689116Y-100501786D01*
X112719009Y-100487648D01*
X112750143Y-100476508D01*
X112782219Y-100468474D01*
X112814929Y-100463622D01*
X112847956Y-100461999D01*
X113974044Y-100461999D01*
X114007071Y-100463622D01*
X114007071Y-100463622D01*
G37*
D18*
X113411000Y-101236999D03*
G04 #@! TD*
D17*
G04 #@! TO.C,R2*
G36*
X117801071Y-112893623D02*
X117833781Y-112898475D01*
X117865857Y-112906509D01*
X117896991Y-112917649D01*
X117926884Y-112931787D01*
X117955247Y-112948787D01*
X117981807Y-112968485D01*
X118006308Y-112990692D01*
X118028515Y-113015193D01*
X118048213Y-113041753D01*
X118065213Y-113070116D01*
X118079351Y-113100009D01*
X118090491Y-113131143D01*
X118098525Y-113163219D01*
X118103377Y-113195929D01*
X118105000Y-113228956D01*
X118105000Y-114355044D01*
X118103377Y-114388071D01*
X118098525Y-114420781D01*
X118090491Y-114452857D01*
X118079351Y-114483991D01*
X118065213Y-114513884D01*
X118048213Y-114542247D01*
X118028515Y-114568807D01*
X118006308Y-114593308D01*
X117981807Y-114615515D01*
X117955247Y-114635213D01*
X117926884Y-114652213D01*
X117896991Y-114666351D01*
X117865857Y-114677491D01*
X117833781Y-114685525D01*
X117801071Y-114690377D01*
X117768044Y-114692000D01*
X116891956Y-114692000D01*
X116858929Y-114690377D01*
X116826219Y-114685525D01*
X116794143Y-114677491D01*
X116763009Y-114666351D01*
X116733116Y-114652213D01*
X116704753Y-114635213D01*
X116678193Y-114615515D01*
X116653692Y-114593308D01*
X116631485Y-114568807D01*
X116611787Y-114542247D01*
X116594787Y-114513884D01*
X116580649Y-114483991D01*
X116569509Y-114452857D01*
X116561475Y-114420781D01*
X116556623Y-114388071D01*
X116555000Y-114355044D01*
X116555000Y-113228956D01*
X116556623Y-113195929D01*
X116561475Y-113163219D01*
X116569509Y-113131143D01*
X116580649Y-113100009D01*
X116594787Y-113070116D01*
X116611787Y-113041753D01*
X116631485Y-113015193D01*
X116653692Y-112990692D01*
X116678193Y-112968485D01*
X116704753Y-112948787D01*
X116733116Y-112931787D01*
X116763009Y-112917649D01*
X116794143Y-112906509D01*
X116826219Y-112898475D01*
X116858929Y-112893623D01*
X116891956Y-112892000D01*
X117768044Y-112892000D01*
X117801071Y-112893623D01*
X117801071Y-112893623D01*
G37*
D18*
X117330000Y-113792000D03*
D17*
G36*
X119851071Y-112893623D02*
X119883781Y-112898475D01*
X119915857Y-112906509D01*
X119946991Y-112917649D01*
X119976884Y-112931787D01*
X120005247Y-112948787D01*
X120031807Y-112968485D01*
X120056308Y-112990692D01*
X120078515Y-113015193D01*
X120098213Y-113041753D01*
X120115213Y-113070116D01*
X120129351Y-113100009D01*
X120140491Y-113131143D01*
X120148525Y-113163219D01*
X120153377Y-113195929D01*
X120155000Y-113228956D01*
X120155000Y-114355044D01*
X120153377Y-114388071D01*
X120148525Y-114420781D01*
X120140491Y-114452857D01*
X120129351Y-114483991D01*
X120115213Y-114513884D01*
X120098213Y-114542247D01*
X120078515Y-114568807D01*
X120056308Y-114593308D01*
X120031807Y-114615515D01*
X120005247Y-114635213D01*
X119976884Y-114652213D01*
X119946991Y-114666351D01*
X119915857Y-114677491D01*
X119883781Y-114685525D01*
X119851071Y-114690377D01*
X119818044Y-114692000D01*
X118941956Y-114692000D01*
X118908929Y-114690377D01*
X118876219Y-114685525D01*
X118844143Y-114677491D01*
X118813009Y-114666351D01*
X118783116Y-114652213D01*
X118754753Y-114635213D01*
X118728193Y-114615515D01*
X118703692Y-114593308D01*
X118681485Y-114568807D01*
X118661787Y-114542247D01*
X118644787Y-114513884D01*
X118630649Y-114483991D01*
X118619509Y-114452857D01*
X118611475Y-114420781D01*
X118606623Y-114388071D01*
X118605000Y-114355044D01*
X118605000Y-113228956D01*
X118606623Y-113195929D01*
X118611475Y-113163219D01*
X118619509Y-113131143D01*
X118630649Y-113100009D01*
X118644787Y-113070116D01*
X118661787Y-113041753D01*
X118681485Y-113015193D01*
X118703692Y-112990692D01*
X118728193Y-112968485D01*
X118754753Y-112948787D01*
X118783116Y-112931787D01*
X118813009Y-112917649D01*
X118844143Y-112906509D01*
X118876219Y-112898475D01*
X118908929Y-112893623D01*
X118941956Y-112892000D01*
X119818044Y-112892000D01*
X119851071Y-112893623D01*
X119851071Y-112893623D01*
G37*
D18*
X119380000Y-113792000D03*
G04 #@! TD*
D17*
G04 #@! TO.C,R3*
G36*
X125056071Y-103366623D02*
X125088781Y-103371475D01*
X125120857Y-103379509D01*
X125151991Y-103390649D01*
X125181884Y-103404787D01*
X125210247Y-103421787D01*
X125236807Y-103441485D01*
X125261308Y-103463692D01*
X125283515Y-103488193D01*
X125303213Y-103514753D01*
X125320213Y-103543116D01*
X125334351Y-103573009D01*
X125345491Y-103604143D01*
X125353525Y-103636219D01*
X125358377Y-103668929D01*
X125360000Y-103701956D01*
X125360000Y-104578044D01*
X125358377Y-104611071D01*
X125353525Y-104643781D01*
X125345491Y-104675857D01*
X125334351Y-104706991D01*
X125320213Y-104736884D01*
X125303213Y-104765247D01*
X125283515Y-104791807D01*
X125261308Y-104816308D01*
X125236807Y-104838515D01*
X125210247Y-104858213D01*
X125181884Y-104875213D01*
X125151991Y-104889351D01*
X125120857Y-104900491D01*
X125088781Y-104908525D01*
X125056071Y-104913377D01*
X125023044Y-104915000D01*
X123896956Y-104915000D01*
X123863929Y-104913377D01*
X123831219Y-104908525D01*
X123799143Y-104900491D01*
X123768009Y-104889351D01*
X123738116Y-104875213D01*
X123709753Y-104858213D01*
X123683193Y-104838515D01*
X123658692Y-104816308D01*
X123636485Y-104791807D01*
X123616787Y-104765247D01*
X123599787Y-104736884D01*
X123585649Y-104706991D01*
X123574509Y-104675857D01*
X123566475Y-104643781D01*
X123561623Y-104611071D01*
X123560000Y-104578044D01*
X123560000Y-103701956D01*
X123561623Y-103668929D01*
X123566475Y-103636219D01*
X123574509Y-103604143D01*
X123585649Y-103573009D01*
X123599787Y-103543116D01*
X123616787Y-103514753D01*
X123636485Y-103488193D01*
X123658692Y-103463692D01*
X123683193Y-103441485D01*
X123709753Y-103421787D01*
X123738116Y-103404787D01*
X123768009Y-103390649D01*
X123799143Y-103379509D01*
X123831219Y-103371475D01*
X123863929Y-103366623D01*
X123896956Y-103365000D01*
X125023044Y-103365000D01*
X125056071Y-103366623D01*
X125056071Y-103366623D01*
G37*
D18*
X124460000Y-104140000D03*
D17*
G36*
X125056071Y-101316623D02*
X125088781Y-101321475D01*
X125120857Y-101329509D01*
X125151991Y-101340649D01*
X125181884Y-101354787D01*
X125210247Y-101371787D01*
X125236807Y-101391485D01*
X125261308Y-101413692D01*
X125283515Y-101438193D01*
X125303213Y-101464753D01*
X125320213Y-101493116D01*
X125334351Y-101523009D01*
X125345491Y-101554143D01*
X125353525Y-101586219D01*
X125358377Y-101618929D01*
X125360000Y-101651956D01*
X125360000Y-102528044D01*
X125358377Y-102561071D01*
X125353525Y-102593781D01*
X125345491Y-102625857D01*
X125334351Y-102656991D01*
X125320213Y-102686884D01*
X125303213Y-102715247D01*
X125283515Y-102741807D01*
X125261308Y-102766308D01*
X125236807Y-102788515D01*
X125210247Y-102808213D01*
X125181884Y-102825213D01*
X125151991Y-102839351D01*
X125120857Y-102850491D01*
X125088781Y-102858525D01*
X125056071Y-102863377D01*
X125023044Y-102865000D01*
X123896956Y-102865000D01*
X123863929Y-102863377D01*
X123831219Y-102858525D01*
X123799143Y-102850491D01*
X123768009Y-102839351D01*
X123738116Y-102825213D01*
X123709753Y-102808213D01*
X123683193Y-102788515D01*
X123658692Y-102766308D01*
X123636485Y-102741807D01*
X123616787Y-102715247D01*
X123599787Y-102686884D01*
X123585649Y-102656991D01*
X123574509Y-102625857D01*
X123566475Y-102593781D01*
X123561623Y-102561071D01*
X123560000Y-102528044D01*
X123560000Y-101651956D01*
X123561623Y-101618929D01*
X123566475Y-101586219D01*
X123574509Y-101554143D01*
X123585649Y-101523009D01*
X123599787Y-101493116D01*
X123616787Y-101464753D01*
X123636485Y-101438193D01*
X123658692Y-101413692D01*
X123683193Y-101391485D01*
X123709753Y-101371787D01*
X123738116Y-101354787D01*
X123768009Y-101340649D01*
X123799143Y-101329509D01*
X123831219Y-101321475D01*
X123863929Y-101316623D01*
X123896956Y-101315000D01*
X125023044Y-101315000D01*
X125056071Y-101316623D01*
X125056071Y-101316623D01*
G37*
D18*
X124460000Y-102090000D03*
G04 #@! TD*
D17*
G04 #@! TO.C,R4*
G36*
X88480071Y-104382622D02*
X88512781Y-104387474D01*
X88544857Y-104395508D01*
X88575991Y-104406648D01*
X88605884Y-104420786D01*
X88634247Y-104437786D01*
X88660807Y-104457484D01*
X88685308Y-104479691D01*
X88707515Y-104504192D01*
X88727213Y-104530752D01*
X88744213Y-104559115D01*
X88758351Y-104589008D01*
X88769491Y-104620142D01*
X88777525Y-104652218D01*
X88782377Y-104684928D01*
X88784000Y-104717955D01*
X88784000Y-105594043D01*
X88782377Y-105627070D01*
X88777525Y-105659780D01*
X88769491Y-105691856D01*
X88758351Y-105722990D01*
X88744213Y-105752883D01*
X88727213Y-105781246D01*
X88707515Y-105807806D01*
X88685308Y-105832307D01*
X88660807Y-105854514D01*
X88634247Y-105874212D01*
X88605884Y-105891212D01*
X88575991Y-105905350D01*
X88544857Y-105916490D01*
X88512781Y-105924524D01*
X88480071Y-105929376D01*
X88447044Y-105930999D01*
X87320956Y-105930999D01*
X87287929Y-105929376D01*
X87255219Y-105924524D01*
X87223143Y-105916490D01*
X87192009Y-105905350D01*
X87162116Y-105891212D01*
X87133753Y-105874212D01*
X87107193Y-105854514D01*
X87082692Y-105832307D01*
X87060485Y-105807806D01*
X87040787Y-105781246D01*
X87023787Y-105752883D01*
X87009649Y-105722990D01*
X86998509Y-105691856D01*
X86990475Y-105659780D01*
X86985623Y-105627070D01*
X86984000Y-105594043D01*
X86984000Y-104717955D01*
X86985623Y-104684928D01*
X86990475Y-104652218D01*
X86998509Y-104620142D01*
X87009649Y-104589008D01*
X87023787Y-104559115D01*
X87040787Y-104530752D01*
X87060485Y-104504192D01*
X87082692Y-104479691D01*
X87107193Y-104457484D01*
X87133753Y-104437786D01*
X87162116Y-104420786D01*
X87192009Y-104406648D01*
X87223143Y-104395508D01*
X87255219Y-104387474D01*
X87287929Y-104382622D01*
X87320956Y-104380999D01*
X88447044Y-104380999D01*
X88480071Y-104382622D01*
X88480071Y-104382622D01*
G37*
D18*
X87884000Y-105155999D03*
D17*
G36*
X88480071Y-106432622D02*
X88512781Y-106437474D01*
X88544857Y-106445508D01*
X88575991Y-106456648D01*
X88605884Y-106470786D01*
X88634247Y-106487786D01*
X88660807Y-106507484D01*
X88685308Y-106529691D01*
X88707515Y-106554192D01*
X88727213Y-106580752D01*
X88744213Y-106609115D01*
X88758351Y-106639008D01*
X88769491Y-106670142D01*
X88777525Y-106702218D01*
X88782377Y-106734928D01*
X88784000Y-106767955D01*
X88784000Y-107644043D01*
X88782377Y-107677070D01*
X88777525Y-107709780D01*
X88769491Y-107741856D01*
X88758351Y-107772990D01*
X88744213Y-107802883D01*
X88727213Y-107831246D01*
X88707515Y-107857806D01*
X88685308Y-107882307D01*
X88660807Y-107904514D01*
X88634247Y-107924212D01*
X88605884Y-107941212D01*
X88575991Y-107955350D01*
X88544857Y-107966490D01*
X88512781Y-107974524D01*
X88480071Y-107979376D01*
X88447044Y-107980999D01*
X87320956Y-107980999D01*
X87287929Y-107979376D01*
X87255219Y-107974524D01*
X87223143Y-107966490D01*
X87192009Y-107955350D01*
X87162116Y-107941212D01*
X87133753Y-107924212D01*
X87107193Y-107904514D01*
X87082692Y-107882307D01*
X87060485Y-107857806D01*
X87040787Y-107831246D01*
X87023787Y-107802883D01*
X87009649Y-107772990D01*
X86998509Y-107741856D01*
X86990475Y-107709780D01*
X86985623Y-107677070D01*
X86984000Y-107644043D01*
X86984000Y-106767955D01*
X86985623Y-106734928D01*
X86990475Y-106702218D01*
X86998509Y-106670142D01*
X87009649Y-106639008D01*
X87023787Y-106609115D01*
X87040787Y-106580752D01*
X87060485Y-106554192D01*
X87082692Y-106529691D01*
X87107193Y-106507484D01*
X87133753Y-106487786D01*
X87162116Y-106470786D01*
X87192009Y-106456648D01*
X87223143Y-106445508D01*
X87255219Y-106437474D01*
X87287929Y-106432622D01*
X87320956Y-106430999D01*
X88447044Y-106430999D01*
X88480071Y-106432622D01*
X88480071Y-106432622D01*
G37*
D18*
X87884000Y-107205999D03*
G04 #@! TD*
D17*
G04 #@! TO.C,R5*
G36*
X91274071Y-100046623D02*
X91306781Y-100051475D01*
X91338857Y-100059509D01*
X91369991Y-100070649D01*
X91399884Y-100084787D01*
X91428247Y-100101787D01*
X91454807Y-100121485D01*
X91479308Y-100143692D01*
X91501515Y-100168193D01*
X91521213Y-100194753D01*
X91538213Y-100223116D01*
X91552351Y-100253009D01*
X91563491Y-100284143D01*
X91571525Y-100316219D01*
X91576377Y-100348929D01*
X91578000Y-100381956D01*
X91578000Y-101258044D01*
X91576377Y-101291071D01*
X91571525Y-101323781D01*
X91563491Y-101355857D01*
X91552351Y-101386991D01*
X91538213Y-101416884D01*
X91521213Y-101445247D01*
X91501515Y-101471807D01*
X91479308Y-101496308D01*
X91454807Y-101518515D01*
X91428247Y-101538213D01*
X91399884Y-101555213D01*
X91369991Y-101569351D01*
X91338857Y-101580491D01*
X91306781Y-101588525D01*
X91274071Y-101593377D01*
X91241044Y-101595000D01*
X90114956Y-101595000D01*
X90081929Y-101593377D01*
X90049219Y-101588525D01*
X90017143Y-101580491D01*
X89986009Y-101569351D01*
X89956116Y-101555213D01*
X89927753Y-101538213D01*
X89901193Y-101518515D01*
X89876692Y-101496308D01*
X89854485Y-101471807D01*
X89834787Y-101445247D01*
X89817787Y-101416884D01*
X89803649Y-101386991D01*
X89792509Y-101355857D01*
X89784475Y-101323781D01*
X89779623Y-101291071D01*
X89778000Y-101258044D01*
X89778000Y-100381956D01*
X89779623Y-100348929D01*
X89784475Y-100316219D01*
X89792509Y-100284143D01*
X89803649Y-100253009D01*
X89817787Y-100223116D01*
X89834787Y-100194753D01*
X89854485Y-100168193D01*
X89876692Y-100143692D01*
X89901193Y-100121485D01*
X89927753Y-100101787D01*
X89956116Y-100084787D01*
X89986009Y-100070649D01*
X90017143Y-100059509D01*
X90049219Y-100051475D01*
X90081929Y-100046623D01*
X90114956Y-100045000D01*
X91241044Y-100045000D01*
X91274071Y-100046623D01*
X91274071Y-100046623D01*
G37*
D18*
X90678000Y-100820000D03*
D17*
G36*
X91274071Y-102096623D02*
X91306781Y-102101475D01*
X91338857Y-102109509D01*
X91369991Y-102120649D01*
X91399884Y-102134787D01*
X91428247Y-102151787D01*
X91454807Y-102171485D01*
X91479308Y-102193692D01*
X91501515Y-102218193D01*
X91521213Y-102244753D01*
X91538213Y-102273116D01*
X91552351Y-102303009D01*
X91563491Y-102334143D01*
X91571525Y-102366219D01*
X91576377Y-102398929D01*
X91578000Y-102431956D01*
X91578000Y-103308044D01*
X91576377Y-103341071D01*
X91571525Y-103373781D01*
X91563491Y-103405857D01*
X91552351Y-103436991D01*
X91538213Y-103466884D01*
X91521213Y-103495247D01*
X91501515Y-103521807D01*
X91479308Y-103546308D01*
X91454807Y-103568515D01*
X91428247Y-103588213D01*
X91399884Y-103605213D01*
X91369991Y-103619351D01*
X91338857Y-103630491D01*
X91306781Y-103638525D01*
X91274071Y-103643377D01*
X91241044Y-103645000D01*
X90114956Y-103645000D01*
X90081929Y-103643377D01*
X90049219Y-103638525D01*
X90017143Y-103630491D01*
X89986009Y-103619351D01*
X89956116Y-103605213D01*
X89927753Y-103588213D01*
X89901193Y-103568515D01*
X89876692Y-103546308D01*
X89854485Y-103521807D01*
X89834787Y-103495247D01*
X89817787Y-103466884D01*
X89803649Y-103436991D01*
X89792509Y-103405857D01*
X89784475Y-103373781D01*
X89779623Y-103341071D01*
X89778000Y-103308044D01*
X89778000Y-102431956D01*
X89779623Y-102398929D01*
X89784475Y-102366219D01*
X89792509Y-102334143D01*
X89803649Y-102303009D01*
X89817787Y-102273116D01*
X89834787Y-102244753D01*
X89854485Y-102218193D01*
X89876692Y-102193692D01*
X89901193Y-102171485D01*
X89927753Y-102151787D01*
X89956116Y-102134787D01*
X89986009Y-102120649D01*
X90017143Y-102109509D01*
X90049219Y-102101475D01*
X90081929Y-102096623D01*
X90114956Y-102095000D01*
X91241044Y-102095000D01*
X91274071Y-102096623D01*
X91274071Y-102096623D01*
G37*
D18*
X90678000Y-102870000D03*
G04 #@! TD*
D17*
G04 #@! TO.C,R6*
G36*
X147281071Y-82266624D02*
X147313781Y-82271476D01*
X147345857Y-82279510D01*
X147376991Y-82290650D01*
X147406884Y-82304788D01*
X147435247Y-82321788D01*
X147461807Y-82341486D01*
X147486308Y-82363693D01*
X147508515Y-82388194D01*
X147528213Y-82414754D01*
X147545213Y-82443117D01*
X147559351Y-82473010D01*
X147570491Y-82504144D01*
X147578525Y-82536220D01*
X147583377Y-82568930D01*
X147585000Y-82601957D01*
X147585000Y-83478045D01*
X147583377Y-83511072D01*
X147578525Y-83543782D01*
X147570491Y-83575858D01*
X147559351Y-83606992D01*
X147545213Y-83636885D01*
X147528213Y-83665248D01*
X147508515Y-83691808D01*
X147486308Y-83716309D01*
X147461807Y-83738516D01*
X147435247Y-83758214D01*
X147406884Y-83775214D01*
X147376991Y-83789352D01*
X147345857Y-83800492D01*
X147313781Y-83808526D01*
X147281071Y-83813378D01*
X147248044Y-83815001D01*
X146121956Y-83815001D01*
X146088929Y-83813378D01*
X146056219Y-83808526D01*
X146024143Y-83800492D01*
X145993009Y-83789352D01*
X145963116Y-83775214D01*
X145934753Y-83758214D01*
X145908193Y-83738516D01*
X145883692Y-83716309D01*
X145861485Y-83691808D01*
X145841787Y-83665248D01*
X145824787Y-83636885D01*
X145810649Y-83606992D01*
X145799509Y-83575858D01*
X145791475Y-83543782D01*
X145786623Y-83511072D01*
X145785000Y-83478045D01*
X145785000Y-82601957D01*
X145786623Y-82568930D01*
X145791475Y-82536220D01*
X145799509Y-82504144D01*
X145810649Y-82473010D01*
X145824787Y-82443117D01*
X145841787Y-82414754D01*
X145861485Y-82388194D01*
X145883692Y-82363693D01*
X145908193Y-82341486D01*
X145934753Y-82321788D01*
X145963116Y-82304788D01*
X145993009Y-82290650D01*
X146024143Y-82279510D01*
X146056219Y-82271476D01*
X146088929Y-82266624D01*
X146121956Y-82265001D01*
X147248044Y-82265001D01*
X147281071Y-82266624D01*
X147281071Y-82266624D01*
G37*
D18*
X146685000Y-83040001D03*
D17*
G36*
X147281071Y-84316624D02*
X147313781Y-84321476D01*
X147345857Y-84329510D01*
X147376991Y-84340650D01*
X147406884Y-84354788D01*
X147435247Y-84371788D01*
X147461807Y-84391486D01*
X147486308Y-84413693D01*
X147508515Y-84438194D01*
X147528213Y-84464754D01*
X147545213Y-84493117D01*
X147559351Y-84523010D01*
X147570491Y-84554144D01*
X147578525Y-84586220D01*
X147583377Y-84618930D01*
X147585000Y-84651957D01*
X147585000Y-85528045D01*
X147583377Y-85561072D01*
X147578525Y-85593782D01*
X147570491Y-85625858D01*
X147559351Y-85656992D01*
X147545213Y-85686885D01*
X147528213Y-85715248D01*
X147508515Y-85741808D01*
X147486308Y-85766309D01*
X147461807Y-85788516D01*
X147435247Y-85808214D01*
X147406884Y-85825214D01*
X147376991Y-85839352D01*
X147345857Y-85850492D01*
X147313781Y-85858526D01*
X147281071Y-85863378D01*
X147248044Y-85865001D01*
X146121956Y-85865001D01*
X146088929Y-85863378D01*
X146056219Y-85858526D01*
X146024143Y-85850492D01*
X145993009Y-85839352D01*
X145963116Y-85825214D01*
X145934753Y-85808214D01*
X145908193Y-85788516D01*
X145883692Y-85766309D01*
X145861485Y-85741808D01*
X145841787Y-85715248D01*
X145824787Y-85686885D01*
X145810649Y-85656992D01*
X145799509Y-85625858D01*
X145791475Y-85593782D01*
X145786623Y-85561072D01*
X145785000Y-85528045D01*
X145785000Y-84651957D01*
X145786623Y-84618930D01*
X145791475Y-84586220D01*
X145799509Y-84554144D01*
X145810649Y-84523010D01*
X145824787Y-84493117D01*
X145841787Y-84464754D01*
X145861485Y-84438194D01*
X145883692Y-84413693D01*
X145908193Y-84391486D01*
X145934753Y-84371788D01*
X145963116Y-84354788D01*
X145993009Y-84340650D01*
X146024143Y-84329510D01*
X146056219Y-84321476D01*
X146088929Y-84316624D01*
X146121956Y-84315001D01*
X147248044Y-84315001D01*
X147281071Y-84316624D01*
X147281071Y-84316624D01*
G37*
D18*
X146685000Y-85090001D03*
G04 #@! TD*
D29*
G04 #@! TO.C,U1*
X105339000Y-84620000D03*
X105339000Y-85890000D03*
X105339000Y-87160000D03*
X105339000Y-88430000D03*
X105339000Y-89700000D03*
X105339000Y-90970000D03*
X105339000Y-92240000D03*
X105339000Y-93510000D03*
X97084000Y-96050000D03*
X98354000Y-96050000D03*
X99624000Y-96050000D03*
X104704000Y-96050000D03*
X103434000Y-96050000D03*
X102164000Y-96050000D03*
X100894000Y-96050000D03*
D30*
X107244000Y-83985000D03*
X107244000Y-85255000D03*
X107244000Y-86525000D03*
X107244000Y-87795000D03*
X107244000Y-89065000D03*
X107244000Y-90335000D03*
X107244000Y-91605000D03*
X107244000Y-92875000D03*
X107244000Y-94145000D03*
X107244000Y-95415000D03*
D31*
X105339000Y-97955000D03*
X104069000Y-97955000D03*
X102799000Y-97955000D03*
X101529000Y-97955000D03*
X100259000Y-97955000D03*
X98989000Y-97955000D03*
X97719000Y-97955000D03*
X96449000Y-97955000D03*
D30*
X94544000Y-95415000D03*
X94544000Y-94145000D03*
X94544000Y-92875000D03*
X94544000Y-91605000D03*
X94544000Y-90335000D03*
X94544000Y-89065000D03*
X94544000Y-87795000D03*
X94544000Y-86525000D03*
X94544000Y-85255000D03*
X94544000Y-83985000D03*
G04 #@! TD*
D32*
G04 #@! TO.C,U2*
X129380000Y-101600000D03*
X129380000Y-102870000D03*
X129380000Y-104140000D03*
X129380000Y-105410000D03*
X134780000Y-105410000D03*
X134780000Y-104140000D03*
X134780000Y-102870000D03*
X134780000Y-101600000D03*
G04 #@! TD*
D33*
G04 #@! TO.C,U3*
X102240000Y-111125000D03*
X103190000Y-111125000D03*
X104140000Y-111125000D03*
X104140000Y-108425000D03*
X102240000Y-108425000D03*
G04 #@! TD*
D34*
G04 #@! TO.C,Y1*
X95564001Y-102235000D03*
X98064001Y-102235000D03*
G04 #@! TD*
D17*
G04 #@! TO.C,R7*
G36*
X113615582Y-90385625D02*
X113648344Y-90390485D01*
X113680472Y-90398533D01*
X113711657Y-90409691D01*
X113741597Y-90423852D01*
X113770006Y-90440879D01*
X113796609Y-90460609D01*
X113821150Y-90482851D01*
X113843392Y-90507392D01*
X113863122Y-90533995D01*
X113880149Y-90562404D01*
X113894310Y-90592344D01*
X113905468Y-90623529D01*
X113913516Y-90655657D01*
X113918376Y-90688419D01*
X113920001Y-90721500D01*
X113920001Y-91396500D01*
X113918376Y-91429581D01*
X113913516Y-91462343D01*
X113905468Y-91494471D01*
X113894310Y-91525656D01*
X113880149Y-91555596D01*
X113863122Y-91584005D01*
X113843392Y-91610608D01*
X113821150Y-91635149D01*
X113796609Y-91657391D01*
X113770006Y-91677121D01*
X113741597Y-91694148D01*
X113711657Y-91708309D01*
X113680472Y-91719467D01*
X113648344Y-91727515D01*
X113615582Y-91732375D01*
X113582501Y-91734000D01*
X112807501Y-91734000D01*
X112774420Y-91732375D01*
X112741658Y-91727515D01*
X112709530Y-91719467D01*
X112678345Y-91708309D01*
X112648405Y-91694148D01*
X112619996Y-91677121D01*
X112593393Y-91657391D01*
X112568852Y-91635149D01*
X112546610Y-91610608D01*
X112526880Y-91584005D01*
X112509853Y-91555596D01*
X112495692Y-91525656D01*
X112484534Y-91494471D01*
X112476486Y-91462343D01*
X112471626Y-91429581D01*
X112470001Y-91396500D01*
X112470001Y-90721500D01*
X112471626Y-90688419D01*
X112476486Y-90655657D01*
X112484534Y-90623529D01*
X112495692Y-90592344D01*
X112509853Y-90562404D01*
X112526880Y-90533995D01*
X112546610Y-90507392D01*
X112568852Y-90482851D01*
X112593393Y-90460609D01*
X112619996Y-90440879D01*
X112648405Y-90423852D01*
X112678345Y-90409691D01*
X112709530Y-90398533D01*
X112741658Y-90390485D01*
X112774420Y-90385625D01*
X112807501Y-90384000D01*
X113582501Y-90384000D01*
X113615582Y-90385625D01*
X113615582Y-90385625D01*
G37*
D35*
X113195001Y-91059000D03*
D17*
G36*
X115365582Y-90385625D02*
X115398344Y-90390485D01*
X115430472Y-90398533D01*
X115461657Y-90409691D01*
X115491597Y-90423852D01*
X115520006Y-90440879D01*
X115546609Y-90460609D01*
X115571150Y-90482851D01*
X115593392Y-90507392D01*
X115613122Y-90533995D01*
X115630149Y-90562404D01*
X115644310Y-90592344D01*
X115655468Y-90623529D01*
X115663516Y-90655657D01*
X115668376Y-90688419D01*
X115670001Y-90721500D01*
X115670001Y-91396500D01*
X115668376Y-91429581D01*
X115663516Y-91462343D01*
X115655468Y-91494471D01*
X115644310Y-91525656D01*
X115630149Y-91555596D01*
X115613122Y-91584005D01*
X115593392Y-91610608D01*
X115571150Y-91635149D01*
X115546609Y-91657391D01*
X115520006Y-91677121D01*
X115491597Y-91694148D01*
X115461657Y-91708309D01*
X115430472Y-91719467D01*
X115398344Y-91727515D01*
X115365582Y-91732375D01*
X115332501Y-91734000D01*
X114557501Y-91734000D01*
X114524420Y-91732375D01*
X114491658Y-91727515D01*
X114459530Y-91719467D01*
X114428345Y-91708309D01*
X114398405Y-91694148D01*
X114369996Y-91677121D01*
X114343393Y-91657391D01*
X114318852Y-91635149D01*
X114296610Y-91610608D01*
X114276880Y-91584005D01*
X114259853Y-91555596D01*
X114245692Y-91525656D01*
X114234534Y-91494471D01*
X114226486Y-91462343D01*
X114221626Y-91429581D01*
X114220001Y-91396500D01*
X114220001Y-90721500D01*
X114221626Y-90688419D01*
X114226486Y-90655657D01*
X114234534Y-90623529D01*
X114245692Y-90592344D01*
X114259853Y-90562404D01*
X114276880Y-90533995D01*
X114296610Y-90507392D01*
X114318852Y-90482851D01*
X114343393Y-90460609D01*
X114369996Y-90440879D01*
X114398405Y-90423852D01*
X114428345Y-90409691D01*
X114459530Y-90398533D01*
X114491658Y-90390485D01*
X114524420Y-90385625D01*
X114557501Y-90384000D01*
X115332501Y-90384000D01*
X115365582Y-90385625D01*
X115365582Y-90385625D01*
G37*
D35*
X114945001Y-91059000D03*
G04 #@! TD*
D17*
G04 #@! TO.C,R8*
G36*
X115365582Y-92163625D02*
X115398344Y-92168485D01*
X115430472Y-92176533D01*
X115461657Y-92187691D01*
X115491597Y-92201852D01*
X115520006Y-92218879D01*
X115546609Y-92238609D01*
X115571150Y-92260851D01*
X115593392Y-92285392D01*
X115613122Y-92311995D01*
X115630149Y-92340404D01*
X115644310Y-92370344D01*
X115655468Y-92401529D01*
X115663516Y-92433657D01*
X115668376Y-92466419D01*
X115670001Y-92499500D01*
X115670001Y-93174500D01*
X115668376Y-93207581D01*
X115663516Y-93240343D01*
X115655468Y-93272471D01*
X115644310Y-93303656D01*
X115630149Y-93333596D01*
X115613122Y-93362005D01*
X115593392Y-93388608D01*
X115571150Y-93413149D01*
X115546609Y-93435391D01*
X115520006Y-93455121D01*
X115491597Y-93472148D01*
X115461657Y-93486309D01*
X115430472Y-93497467D01*
X115398344Y-93505515D01*
X115365582Y-93510375D01*
X115332501Y-93512000D01*
X114557501Y-93512000D01*
X114524420Y-93510375D01*
X114491658Y-93505515D01*
X114459530Y-93497467D01*
X114428345Y-93486309D01*
X114398405Y-93472148D01*
X114369996Y-93455121D01*
X114343393Y-93435391D01*
X114318852Y-93413149D01*
X114296610Y-93388608D01*
X114276880Y-93362005D01*
X114259853Y-93333596D01*
X114245692Y-93303656D01*
X114234534Y-93272471D01*
X114226486Y-93240343D01*
X114221626Y-93207581D01*
X114220001Y-93174500D01*
X114220001Y-92499500D01*
X114221626Y-92466419D01*
X114226486Y-92433657D01*
X114234534Y-92401529D01*
X114245692Y-92370344D01*
X114259853Y-92340404D01*
X114276880Y-92311995D01*
X114296610Y-92285392D01*
X114318852Y-92260851D01*
X114343393Y-92238609D01*
X114369996Y-92218879D01*
X114398405Y-92201852D01*
X114428345Y-92187691D01*
X114459530Y-92176533D01*
X114491658Y-92168485D01*
X114524420Y-92163625D01*
X114557501Y-92162000D01*
X115332501Y-92162000D01*
X115365582Y-92163625D01*
X115365582Y-92163625D01*
G37*
D35*
X114945001Y-92837000D03*
D17*
G36*
X113615582Y-92163625D02*
X113648344Y-92168485D01*
X113680472Y-92176533D01*
X113711657Y-92187691D01*
X113741597Y-92201852D01*
X113770006Y-92218879D01*
X113796609Y-92238609D01*
X113821150Y-92260851D01*
X113843392Y-92285392D01*
X113863122Y-92311995D01*
X113880149Y-92340404D01*
X113894310Y-92370344D01*
X113905468Y-92401529D01*
X113913516Y-92433657D01*
X113918376Y-92466419D01*
X113920001Y-92499500D01*
X113920001Y-93174500D01*
X113918376Y-93207581D01*
X113913516Y-93240343D01*
X113905468Y-93272471D01*
X113894310Y-93303656D01*
X113880149Y-93333596D01*
X113863122Y-93362005D01*
X113843392Y-93388608D01*
X113821150Y-93413149D01*
X113796609Y-93435391D01*
X113770006Y-93455121D01*
X113741597Y-93472148D01*
X113711657Y-93486309D01*
X113680472Y-93497467D01*
X113648344Y-93505515D01*
X113615582Y-93510375D01*
X113582501Y-93512000D01*
X112807501Y-93512000D01*
X112774420Y-93510375D01*
X112741658Y-93505515D01*
X112709530Y-93497467D01*
X112678345Y-93486309D01*
X112648405Y-93472148D01*
X112619996Y-93455121D01*
X112593393Y-93435391D01*
X112568852Y-93413149D01*
X112546610Y-93388608D01*
X112526880Y-93362005D01*
X112509853Y-93333596D01*
X112495692Y-93303656D01*
X112484534Y-93272471D01*
X112476486Y-93240343D01*
X112471626Y-93207581D01*
X112470001Y-93174500D01*
X112470001Y-92499500D01*
X112471626Y-92466419D01*
X112476486Y-92433657D01*
X112484534Y-92401529D01*
X112495692Y-92370344D01*
X112509853Y-92340404D01*
X112526880Y-92311995D01*
X112546610Y-92285392D01*
X112568852Y-92260851D01*
X112593393Y-92238609D01*
X112619996Y-92218879D01*
X112648405Y-92201852D01*
X112678345Y-92187691D01*
X112709530Y-92176533D01*
X112741658Y-92168485D01*
X112774420Y-92163625D01*
X112807501Y-92162000D01*
X113582501Y-92162000D01*
X113615582Y-92163625D01*
X113615582Y-92163625D01*
G37*
D35*
X113195001Y-92837000D03*
G04 #@! TD*
D17*
G04 #@! TO.C,C4*
G36*
X101817069Y-137912623D02*
X101849779Y-137917475D01*
X101881855Y-137925509D01*
X101912989Y-137936649D01*
X101942882Y-137950787D01*
X101971245Y-137967787D01*
X101997805Y-137987485D01*
X102022306Y-138009692D01*
X102044513Y-138034193D01*
X102064211Y-138060753D01*
X102081211Y-138089116D01*
X102095349Y-138119009D01*
X102106489Y-138150143D01*
X102114523Y-138182219D01*
X102119375Y-138214929D01*
X102120998Y-138247956D01*
X102120998Y-139374044D01*
X102119375Y-139407071D01*
X102114523Y-139439781D01*
X102106489Y-139471857D01*
X102095349Y-139502991D01*
X102081211Y-139532884D01*
X102064211Y-139561247D01*
X102044513Y-139587807D01*
X102022306Y-139612308D01*
X101997805Y-139634515D01*
X101971245Y-139654213D01*
X101942882Y-139671213D01*
X101912989Y-139685351D01*
X101881855Y-139696491D01*
X101849779Y-139704525D01*
X101817069Y-139709377D01*
X101784042Y-139711000D01*
X100907954Y-139711000D01*
X100874927Y-139709377D01*
X100842217Y-139704525D01*
X100810141Y-139696491D01*
X100779007Y-139685351D01*
X100749114Y-139671213D01*
X100720751Y-139654213D01*
X100694191Y-139634515D01*
X100669690Y-139612308D01*
X100647483Y-139587807D01*
X100627785Y-139561247D01*
X100610785Y-139532884D01*
X100596647Y-139502991D01*
X100585507Y-139471857D01*
X100577473Y-139439781D01*
X100572621Y-139407071D01*
X100570998Y-139374044D01*
X100570998Y-138247956D01*
X100572621Y-138214929D01*
X100577473Y-138182219D01*
X100585507Y-138150143D01*
X100596647Y-138119009D01*
X100610785Y-138089116D01*
X100627785Y-138060753D01*
X100647483Y-138034193D01*
X100669690Y-138009692D01*
X100694191Y-137987485D01*
X100720751Y-137967787D01*
X100749114Y-137950787D01*
X100779007Y-137936649D01*
X100810141Y-137925509D01*
X100842217Y-137917475D01*
X100874927Y-137912623D01*
X100907954Y-137911000D01*
X101784042Y-137911000D01*
X101817069Y-137912623D01*
X101817069Y-137912623D01*
G37*
D18*
X101345998Y-138811000D03*
D17*
G36*
X103867069Y-137912623D02*
X103899779Y-137917475D01*
X103931855Y-137925509D01*
X103962989Y-137936649D01*
X103992882Y-137950787D01*
X104021245Y-137967787D01*
X104047805Y-137987485D01*
X104072306Y-138009692D01*
X104094513Y-138034193D01*
X104114211Y-138060753D01*
X104131211Y-138089116D01*
X104145349Y-138119009D01*
X104156489Y-138150143D01*
X104164523Y-138182219D01*
X104169375Y-138214929D01*
X104170998Y-138247956D01*
X104170998Y-139374044D01*
X104169375Y-139407071D01*
X104164523Y-139439781D01*
X104156489Y-139471857D01*
X104145349Y-139502991D01*
X104131211Y-139532884D01*
X104114211Y-139561247D01*
X104094513Y-139587807D01*
X104072306Y-139612308D01*
X104047805Y-139634515D01*
X104021245Y-139654213D01*
X103992882Y-139671213D01*
X103962989Y-139685351D01*
X103931855Y-139696491D01*
X103899779Y-139704525D01*
X103867069Y-139709377D01*
X103834042Y-139711000D01*
X102957954Y-139711000D01*
X102924927Y-139709377D01*
X102892217Y-139704525D01*
X102860141Y-139696491D01*
X102829007Y-139685351D01*
X102799114Y-139671213D01*
X102770751Y-139654213D01*
X102744191Y-139634515D01*
X102719690Y-139612308D01*
X102697483Y-139587807D01*
X102677785Y-139561247D01*
X102660785Y-139532884D01*
X102646647Y-139502991D01*
X102635507Y-139471857D01*
X102627473Y-139439781D01*
X102622621Y-139407071D01*
X102620998Y-139374044D01*
X102620998Y-138247956D01*
X102622621Y-138214929D01*
X102627473Y-138182219D01*
X102635507Y-138150143D01*
X102646647Y-138119009D01*
X102660785Y-138089116D01*
X102677785Y-138060753D01*
X102697483Y-138034193D01*
X102719690Y-138009692D01*
X102744191Y-137987485D01*
X102770751Y-137967787D01*
X102799114Y-137950787D01*
X102829007Y-137936649D01*
X102860141Y-137925509D01*
X102892217Y-137917475D01*
X102924927Y-137912623D01*
X102957954Y-137911000D01*
X103834042Y-137911000D01*
X103867069Y-137912623D01*
X103867069Y-137912623D01*
G37*
D18*
X103395998Y-138811000D03*
G04 #@! TD*
D36*
G04 #@! TO.C,D3*
X103978001Y-142302999D03*
X100778001Y-142302999D03*
X103978001Y-147202999D03*
X100778001Y-147202999D03*
G04 #@! TD*
D17*
G04 #@! TO.C,D4*
G36*
X93096071Y-134251623D02*
X93128781Y-134256475D01*
X93160857Y-134264509D01*
X93191991Y-134275649D01*
X93221884Y-134289787D01*
X93250247Y-134306787D01*
X93276807Y-134326485D01*
X93301308Y-134348692D01*
X93323515Y-134373193D01*
X93343213Y-134399753D01*
X93360213Y-134428116D01*
X93374351Y-134458009D01*
X93385491Y-134489143D01*
X93393525Y-134521219D01*
X93398377Y-134553929D01*
X93400000Y-134586956D01*
X93400000Y-135463044D01*
X93398377Y-135496071D01*
X93393525Y-135528781D01*
X93385491Y-135560857D01*
X93374351Y-135591991D01*
X93360213Y-135621884D01*
X93343213Y-135650247D01*
X93323515Y-135676807D01*
X93301308Y-135701308D01*
X93276807Y-135723515D01*
X93250247Y-135743213D01*
X93221884Y-135760213D01*
X93191991Y-135774351D01*
X93160857Y-135785491D01*
X93128781Y-135793525D01*
X93096071Y-135798377D01*
X93063044Y-135800000D01*
X91936956Y-135800000D01*
X91903929Y-135798377D01*
X91871219Y-135793525D01*
X91839143Y-135785491D01*
X91808009Y-135774351D01*
X91778116Y-135760213D01*
X91749753Y-135743213D01*
X91723193Y-135723515D01*
X91698692Y-135701308D01*
X91676485Y-135676807D01*
X91656787Y-135650247D01*
X91639787Y-135621884D01*
X91625649Y-135591991D01*
X91614509Y-135560857D01*
X91606475Y-135528781D01*
X91601623Y-135496071D01*
X91600000Y-135463044D01*
X91600000Y-134586956D01*
X91601623Y-134553929D01*
X91606475Y-134521219D01*
X91614509Y-134489143D01*
X91625649Y-134458009D01*
X91639787Y-134428116D01*
X91656787Y-134399753D01*
X91676485Y-134373193D01*
X91698692Y-134348692D01*
X91723193Y-134326485D01*
X91749753Y-134306787D01*
X91778116Y-134289787D01*
X91808009Y-134275649D01*
X91839143Y-134264509D01*
X91871219Y-134256475D01*
X91903929Y-134251623D01*
X91936956Y-134250000D01*
X93063044Y-134250000D01*
X93096071Y-134251623D01*
X93096071Y-134251623D01*
G37*
D18*
X92500000Y-135025000D03*
D17*
G36*
X93096071Y-132201623D02*
X93128781Y-132206475D01*
X93160857Y-132214509D01*
X93191991Y-132225649D01*
X93221884Y-132239787D01*
X93250247Y-132256787D01*
X93276807Y-132276485D01*
X93301308Y-132298692D01*
X93323515Y-132323193D01*
X93343213Y-132349753D01*
X93360213Y-132378116D01*
X93374351Y-132408009D01*
X93385491Y-132439143D01*
X93393525Y-132471219D01*
X93398377Y-132503929D01*
X93400000Y-132536956D01*
X93400000Y-133413044D01*
X93398377Y-133446071D01*
X93393525Y-133478781D01*
X93385491Y-133510857D01*
X93374351Y-133541991D01*
X93360213Y-133571884D01*
X93343213Y-133600247D01*
X93323515Y-133626807D01*
X93301308Y-133651308D01*
X93276807Y-133673515D01*
X93250247Y-133693213D01*
X93221884Y-133710213D01*
X93191991Y-133724351D01*
X93160857Y-133735491D01*
X93128781Y-133743525D01*
X93096071Y-133748377D01*
X93063044Y-133750000D01*
X91936956Y-133750000D01*
X91903929Y-133748377D01*
X91871219Y-133743525D01*
X91839143Y-133735491D01*
X91808009Y-133724351D01*
X91778116Y-133710213D01*
X91749753Y-133693213D01*
X91723193Y-133673515D01*
X91698692Y-133651308D01*
X91676485Y-133626807D01*
X91656787Y-133600247D01*
X91639787Y-133571884D01*
X91625649Y-133541991D01*
X91614509Y-133510857D01*
X91606475Y-133478781D01*
X91601623Y-133446071D01*
X91600000Y-133413044D01*
X91600000Y-132536956D01*
X91601623Y-132503929D01*
X91606475Y-132471219D01*
X91614509Y-132439143D01*
X91625649Y-132408009D01*
X91639787Y-132378116D01*
X91656787Y-132349753D01*
X91676485Y-132323193D01*
X91698692Y-132298692D01*
X91723193Y-132276485D01*
X91749753Y-132256787D01*
X91778116Y-132239787D01*
X91808009Y-132225649D01*
X91839143Y-132214509D01*
X91871219Y-132206475D01*
X91903929Y-132201623D01*
X91936956Y-132200000D01*
X93063044Y-132200000D01*
X93096071Y-132201623D01*
X93096071Y-132201623D01*
G37*
D18*
X92500000Y-132975000D03*
G04 #@! TD*
D17*
G04 #@! TO.C,D5*
G36*
X99346071Y-132176623D02*
X99378781Y-132181475D01*
X99410857Y-132189509D01*
X99441991Y-132200649D01*
X99471884Y-132214787D01*
X99500247Y-132231787D01*
X99526807Y-132251485D01*
X99551308Y-132273692D01*
X99573515Y-132298193D01*
X99593213Y-132324753D01*
X99610213Y-132353116D01*
X99624351Y-132383009D01*
X99635491Y-132414143D01*
X99643525Y-132446219D01*
X99648377Y-132478929D01*
X99650000Y-132511956D01*
X99650000Y-133388044D01*
X99648377Y-133421071D01*
X99643525Y-133453781D01*
X99635491Y-133485857D01*
X99624351Y-133516991D01*
X99610213Y-133546884D01*
X99593213Y-133575247D01*
X99573515Y-133601807D01*
X99551308Y-133626308D01*
X99526807Y-133648515D01*
X99500247Y-133668213D01*
X99471884Y-133685213D01*
X99441991Y-133699351D01*
X99410857Y-133710491D01*
X99378781Y-133718525D01*
X99346071Y-133723377D01*
X99313044Y-133725000D01*
X98186956Y-133725000D01*
X98153929Y-133723377D01*
X98121219Y-133718525D01*
X98089143Y-133710491D01*
X98058009Y-133699351D01*
X98028116Y-133685213D01*
X97999753Y-133668213D01*
X97973193Y-133648515D01*
X97948692Y-133626308D01*
X97926485Y-133601807D01*
X97906787Y-133575247D01*
X97889787Y-133546884D01*
X97875649Y-133516991D01*
X97864509Y-133485857D01*
X97856475Y-133453781D01*
X97851623Y-133421071D01*
X97850000Y-133388044D01*
X97850000Y-132511956D01*
X97851623Y-132478929D01*
X97856475Y-132446219D01*
X97864509Y-132414143D01*
X97875649Y-132383009D01*
X97889787Y-132353116D01*
X97906787Y-132324753D01*
X97926485Y-132298193D01*
X97948692Y-132273692D01*
X97973193Y-132251485D01*
X97999753Y-132231787D01*
X98028116Y-132214787D01*
X98058009Y-132200649D01*
X98089143Y-132189509D01*
X98121219Y-132181475D01*
X98153929Y-132176623D01*
X98186956Y-132175000D01*
X99313044Y-132175000D01*
X99346071Y-132176623D01*
X99346071Y-132176623D01*
G37*
D18*
X98750000Y-132950000D03*
D17*
G36*
X99346071Y-134226623D02*
X99378781Y-134231475D01*
X99410857Y-134239509D01*
X99441991Y-134250649D01*
X99471884Y-134264787D01*
X99500247Y-134281787D01*
X99526807Y-134301485D01*
X99551308Y-134323692D01*
X99573515Y-134348193D01*
X99593213Y-134374753D01*
X99610213Y-134403116D01*
X99624351Y-134433009D01*
X99635491Y-134464143D01*
X99643525Y-134496219D01*
X99648377Y-134528929D01*
X99650000Y-134561956D01*
X99650000Y-135438044D01*
X99648377Y-135471071D01*
X99643525Y-135503781D01*
X99635491Y-135535857D01*
X99624351Y-135566991D01*
X99610213Y-135596884D01*
X99593213Y-135625247D01*
X99573515Y-135651807D01*
X99551308Y-135676308D01*
X99526807Y-135698515D01*
X99500247Y-135718213D01*
X99471884Y-135735213D01*
X99441991Y-135749351D01*
X99410857Y-135760491D01*
X99378781Y-135768525D01*
X99346071Y-135773377D01*
X99313044Y-135775000D01*
X98186956Y-135775000D01*
X98153929Y-135773377D01*
X98121219Y-135768525D01*
X98089143Y-135760491D01*
X98058009Y-135749351D01*
X98028116Y-135735213D01*
X97999753Y-135718213D01*
X97973193Y-135698515D01*
X97948692Y-135676308D01*
X97926485Y-135651807D01*
X97906787Y-135625247D01*
X97889787Y-135596884D01*
X97875649Y-135566991D01*
X97864509Y-135535857D01*
X97856475Y-135503781D01*
X97851623Y-135471071D01*
X97850000Y-135438044D01*
X97850000Y-134561956D01*
X97851623Y-134528929D01*
X97856475Y-134496219D01*
X97864509Y-134464143D01*
X97875649Y-134433009D01*
X97889787Y-134403116D01*
X97906787Y-134374753D01*
X97926485Y-134348193D01*
X97948692Y-134323692D01*
X97973193Y-134301485D01*
X97999753Y-134281787D01*
X98028116Y-134264787D01*
X98058009Y-134250649D01*
X98089143Y-134239509D01*
X98121219Y-134231475D01*
X98153929Y-134226623D01*
X98186956Y-134225000D01*
X99313044Y-134225000D01*
X99346071Y-134226623D01*
X99346071Y-134226623D01*
G37*
D18*
X98750000Y-135000000D03*
G04 #@! TD*
D17*
G04 #@! TO.C,L1*
G36*
X109096071Y-99676623D02*
X109128781Y-99681475D01*
X109160857Y-99689509D01*
X109191991Y-99700649D01*
X109221884Y-99714787D01*
X109250247Y-99731787D01*
X109276807Y-99751485D01*
X109301308Y-99773692D01*
X109323515Y-99798193D01*
X109343213Y-99824753D01*
X109360213Y-99853116D01*
X109374351Y-99883009D01*
X109385491Y-99914143D01*
X109393525Y-99946219D01*
X109398377Y-99978929D01*
X109400000Y-100011956D01*
X109400000Y-100888044D01*
X109398377Y-100921071D01*
X109393525Y-100953781D01*
X109385491Y-100985857D01*
X109374351Y-101016991D01*
X109360213Y-101046884D01*
X109343213Y-101075247D01*
X109323515Y-101101807D01*
X109301308Y-101126308D01*
X109276807Y-101148515D01*
X109250247Y-101168213D01*
X109221884Y-101185213D01*
X109191991Y-101199351D01*
X109160857Y-101210491D01*
X109128781Y-101218525D01*
X109096071Y-101223377D01*
X109063044Y-101225000D01*
X107936956Y-101225000D01*
X107903929Y-101223377D01*
X107871219Y-101218525D01*
X107839143Y-101210491D01*
X107808009Y-101199351D01*
X107778116Y-101185213D01*
X107749753Y-101168213D01*
X107723193Y-101148515D01*
X107698692Y-101126308D01*
X107676485Y-101101807D01*
X107656787Y-101075247D01*
X107639787Y-101046884D01*
X107625649Y-101016991D01*
X107614509Y-100985857D01*
X107606475Y-100953781D01*
X107601623Y-100921071D01*
X107600000Y-100888044D01*
X107600000Y-100011956D01*
X107601623Y-99978929D01*
X107606475Y-99946219D01*
X107614509Y-99914143D01*
X107625649Y-99883009D01*
X107639787Y-99853116D01*
X107656787Y-99824753D01*
X107676485Y-99798193D01*
X107698692Y-99773692D01*
X107723193Y-99751485D01*
X107749753Y-99731787D01*
X107778116Y-99714787D01*
X107808009Y-99700649D01*
X107839143Y-99689509D01*
X107871219Y-99681475D01*
X107903929Y-99676623D01*
X107936956Y-99675000D01*
X109063044Y-99675000D01*
X109096071Y-99676623D01*
X109096071Y-99676623D01*
G37*
D18*
X108500000Y-100450000D03*
D17*
G36*
X109096071Y-101726623D02*
X109128781Y-101731475D01*
X109160857Y-101739509D01*
X109191991Y-101750649D01*
X109221884Y-101764787D01*
X109250247Y-101781787D01*
X109276807Y-101801485D01*
X109301308Y-101823692D01*
X109323515Y-101848193D01*
X109343213Y-101874753D01*
X109360213Y-101903116D01*
X109374351Y-101933009D01*
X109385491Y-101964143D01*
X109393525Y-101996219D01*
X109398377Y-102028929D01*
X109400000Y-102061956D01*
X109400000Y-102938044D01*
X109398377Y-102971071D01*
X109393525Y-103003781D01*
X109385491Y-103035857D01*
X109374351Y-103066991D01*
X109360213Y-103096884D01*
X109343213Y-103125247D01*
X109323515Y-103151807D01*
X109301308Y-103176308D01*
X109276807Y-103198515D01*
X109250247Y-103218213D01*
X109221884Y-103235213D01*
X109191991Y-103249351D01*
X109160857Y-103260491D01*
X109128781Y-103268525D01*
X109096071Y-103273377D01*
X109063044Y-103275000D01*
X107936956Y-103275000D01*
X107903929Y-103273377D01*
X107871219Y-103268525D01*
X107839143Y-103260491D01*
X107808009Y-103249351D01*
X107778116Y-103235213D01*
X107749753Y-103218213D01*
X107723193Y-103198515D01*
X107698692Y-103176308D01*
X107676485Y-103151807D01*
X107656787Y-103125247D01*
X107639787Y-103096884D01*
X107625649Y-103066991D01*
X107614509Y-103035857D01*
X107606475Y-103003781D01*
X107601623Y-102971071D01*
X107600000Y-102938044D01*
X107600000Y-102061956D01*
X107601623Y-102028929D01*
X107606475Y-101996219D01*
X107614509Y-101964143D01*
X107625649Y-101933009D01*
X107639787Y-101903116D01*
X107656787Y-101874753D01*
X107676485Y-101848193D01*
X107698692Y-101823692D01*
X107723193Y-101801485D01*
X107749753Y-101781787D01*
X107778116Y-101764787D01*
X107808009Y-101750649D01*
X107839143Y-101739509D01*
X107871219Y-101731475D01*
X107903929Y-101726623D01*
X107936956Y-101725000D01*
X109063044Y-101725000D01*
X109096071Y-101726623D01*
X109096071Y-101726623D01*
G37*
D18*
X108500000Y-102500000D03*
G04 #@! TD*
D17*
G04 #@! TO.C,R9*
G36*
X93096071Y-127726622D02*
X93128781Y-127731474D01*
X93160857Y-127739508D01*
X93191991Y-127750648D01*
X93221884Y-127764786D01*
X93250247Y-127781786D01*
X93276807Y-127801484D01*
X93301308Y-127823691D01*
X93323515Y-127848192D01*
X93343213Y-127874752D01*
X93360213Y-127903115D01*
X93374351Y-127933008D01*
X93385491Y-127964142D01*
X93393525Y-127996218D01*
X93398377Y-128028928D01*
X93400000Y-128061955D01*
X93400000Y-128938043D01*
X93398377Y-128971070D01*
X93393525Y-129003780D01*
X93385491Y-129035856D01*
X93374351Y-129066990D01*
X93360213Y-129096883D01*
X93343213Y-129125246D01*
X93323515Y-129151806D01*
X93301308Y-129176307D01*
X93276807Y-129198514D01*
X93250247Y-129218212D01*
X93221884Y-129235212D01*
X93191991Y-129249350D01*
X93160857Y-129260490D01*
X93128781Y-129268524D01*
X93096071Y-129273376D01*
X93063044Y-129274999D01*
X91936956Y-129274999D01*
X91903929Y-129273376D01*
X91871219Y-129268524D01*
X91839143Y-129260490D01*
X91808009Y-129249350D01*
X91778116Y-129235212D01*
X91749753Y-129218212D01*
X91723193Y-129198514D01*
X91698692Y-129176307D01*
X91676485Y-129151806D01*
X91656787Y-129125246D01*
X91639787Y-129096883D01*
X91625649Y-129066990D01*
X91614509Y-129035856D01*
X91606475Y-129003780D01*
X91601623Y-128971070D01*
X91600000Y-128938043D01*
X91600000Y-128061955D01*
X91601623Y-128028928D01*
X91606475Y-127996218D01*
X91614509Y-127964142D01*
X91625649Y-127933008D01*
X91639787Y-127903115D01*
X91656787Y-127874752D01*
X91676485Y-127848192D01*
X91698692Y-127823691D01*
X91723193Y-127801484D01*
X91749753Y-127781786D01*
X91778116Y-127764786D01*
X91808009Y-127750648D01*
X91839143Y-127739508D01*
X91871219Y-127731474D01*
X91903929Y-127726622D01*
X91936956Y-127724999D01*
X93063044Y-127724999D01*
X93096071Y-127726622D01*
X93096071Y-127726622D01*
G37*
D18*
X92500000Y-128499999D03*
D17*
G36*
X93096071Y-129776622D02*
X93128781Y-129781474D01*
X93160857Y-129789508D01*
X93191991Y-129800648D01*
X93221884Y-129814786D01*
X93250247Y-129831786D01*
X93276807Y-129851484D01*
X93301308Y-129873691D01*
X93323515Y-129898192D01*
X93343213Y-129924752D01*
X93360213Y-129953115D01*
X93374351Y-129983008D01*
X93385491Y-130014142D01*
X93393525Y-130046218D01*
X93398377Y-130078928D01*
X93400000Y-130111955D01*
X93400000Y-130988043D01*
X93398377Y-131021070D01*
X93393525Y-131053780D01*
X93385491Y-131085856D01*
X93374351Y-131116990D01*
X93360213Y-131146883D01*
X93343213Y-131175246D01*
X93323515Y-131201806D01*
X93301308Y-131226307D01*
X93276807Y-131248514D01*
X93250247Y-131268212D01*
X93221884Y-131285212D01*
X93191991Y-131299350D01*
X93160857Y-131310490D01*
X93128781Y-131318524D01*
X93096071Y-131323376D01*
X93063044Y-131324999D01*
X91936956Y-131324999D01*
X91903929Y-131323376D01*
X91871219Y-131318524D01*
X91839143Y-131310490D01*
X91808009Y-131299350D01*
X91778116Y-131285212D01*
X91749753Y-131268212D01*
X91723193Y-131248514D01*
X91698692Y-131226307D01*
X91676485Y-131201806D01*
X91656787Y-131175246D01*
X91639787Y-131146883D01*
X91625649Y-131116990D01*
X91614509Y-131085856D01*
X91606475Y-131053780D01*
X91601623Y-131021070D01*
X91600000Y-130988043D01*
X91600000Y-130111955D01*
X91601623Y-130078928D01*
X91606475Y-130046218D01*
X91614509Y-130014142D01*
X91625649Y-129983008D01*
X91639787Y-129953115D01*
X91656787Y-129924752D01*
X91676485Y-129898192D01*
X91698692Y-129873691D01*
X91723193Y-129851484D01*
X91749753Y-129831786D01*
X91778116Y-129814786D01*
X91808009Y-129800648D01*
X91839143Y-129789508D01*
X91871219Y-129781474D01*
X91903929Y-129776622D01*
X91936956Y-129774999D01*
X93063044Y-129774999D01*
X93096071Y-129776622D01*
X93096071Y-129776622D01*
G37*
D18*
X92500000Y-130549999D03*
G04 #@! TD*
D17*
G04 #@! TO.C,R10*
G36*
X99346071Y-129476623D02*
X99378781Y-129481475D01*
X99410857Y-129489509D01*
X99441991Y-129500649D01*
X99471884Y-129514787D01*
X99500247Y-129531787D01*
X99526807Y-129551485D01*
X99551308Y-129573692D01*
X99573515Y-129598193D01*
X99593213Y-129624753D01*
X99610213Y-129653116D01*
X99624351Y-129683009D01*
X99635491Y-129714143D01*
X99643525Y-129746219D01*
X99648377Y-129778929D01*
X99650000Y-129811956D01*
X99650000Y-130688044D01*
X99648377Y-130721071D01*
X99643525Y-130753781D01*
X99635491Y-130785857D01*
X99624351Y-130816991D01*
X99610213Y-130846884D01*
X99593213Y-130875247D01*
X99573515Y-130901807D01*
X99551308Y-130926308D01*
X99526807Y-130948515D01*
X99500247Y-130968213D01*
X99471884Y-130985213D01*
X99441991Y-130999351D01*
X99410857Y-131010491D01*
X99378781Y-131018525D01*
X99346071Y-131023377D01*
X99313044Y-131025000D01*
X98186956Y-131025000D01*
X98153929Y-131023377D01*
X98121219Y-131018525D01*
X98089143Y-131010491D01*
X98058009Y-130999351D01*
X98028116Y-130985213D01*
X97999753Y-130968213D01*
X97973193Y-130948515D01*
X97948692Y-130926308D01*
X97926485Y-130901807D01*
X97906787Y-130875247D01*
X97889787Y-130846884D01*
X97875649Y-130816991D01*
X97864509Y-130785857D01*
X97856475Y-130753781D01*
X97851623Y-130721071D01*
X97850000Y-130688044D01*
X97850000Y-129811956D01*
X97851623Y-129778929D01*
X97856475Y-129746219D01*
X97864509Y-129714143D01*
X97875649Y-129683009D01*
X97889787Y-129653116D01*
X97906787Y-129624753D01*
X97926485Y-129598193D01*
X97948692Y-129573692D01*
X97973193Y-129551485D01*
X97999753Y-129531787D01*
X98028116Y-129514787D01*
X98058009Y-129500649D01*
X98089143Y-129489509D01*
X98121219Y-129481475D01*
X98153929Y-129476623D01*
X98186956Y-129475000D01*
X99313044Y-129475000D01*
X99346071Y-129476623D01*
X99346071Y-129476623D01*
G37*
D18*
X98750000Y-130250000D03*
D17*
G36*
X99346071Y-127426623D02*
X99378781Y-127431475D01*
X99410857Y-127439509D01*
X99441991Y-127450649D01*
X99471884Y-127464787D01*
X99500247Y-127481787D01*
X99526807Y-127501485D01*
X99551308Y-127523692D01*
X99573515Y-127548193D01*
X99593213Y-127574753D01*
X99610213Y-127603116D01*
X99624351Y-127633009D01*
X99635491Y-127664143D01*
X99643525Y-127696219D01*
X99648377Y-127728929D01*
X99650000Y-127761956D01*
X99650000Y-128638044D01*
X99648377Y-128671071D01*
X99643525Y-128703781D01*
X99635491Y-128735857D01*
X99624351Y-128766991D01*
X99610213Y-128796884D01*
X99593213Y-128825247D01*
X99573515Y-128851807D01*
X99551308Y-128876308D01*
X99526807Y-128898515D01*
X99500247Y-128918213D01*
X99471884Y-128935213D01*
X99441991Y-128949351D01*
X99410857Y-128960491D01*
X99378781Y-128968525D01*
X99346071Y-128973377D01*
X99313044Y-128975000D01*
X98186956Y-128975000D01*
X98153929Y-128973377D01*
X98121219Y-128968525D01*
X98089143Y-128960491D01*
X98058009Y-128949351D01*
X98028116Y-128935213D01*
X97999753Y-128918213D01*
X97973193Y-128898515D01*
X97948692Y-128876308D01*
X97926485Y-128851807D01*
X97906787Y-128825247D01*
X97889787Y-128796884D01*
X97875649Y-128766991D01*
X97864509Y-128735857D01*
X97856475Y-128703781D01*
X97851623Y-128671071D01*
X97850000Y-128638044D01*
X97850000Y-127761956D01*
X97851623Y-127728929D01*
X97856475Y-127696219D01*
X97864509Y-127664143D01*
X97875649Y-127633009D01*
X97889787Y-127603116D01*
X97906787Y-127574753D01*
X97926485Y-127548193D01*
X97948692Y-127523692D01*
X97973193Y-127501485D01*
X97999753Y-127481787D01*
X98028116Y-127464787D01*
X98058009Y-127450649D01*
X98089143Y-127439509D01*
X98121219Y-127431475D01*
X98153929Y-127426623D01*
X98186956Y-127425000D01*
X99313044Y-127425000D01*
X99346071Y-127426623D01*
X99346071Y-127426623D01*
G37*
D18*
X98750000Y-128200000D03*
G04 #@! TD*
D15*
G04 #@! TO.C,J18*
X118745000Y-130937000D03*
D16*
X118745000Y-133477000D03*
G04 #@! TD*
M02*
