G04 #@! TF.GenerationSoftware,KiCad,Pcbnew,(5.0.0)*
G04 #@! TF.CreationDate,2019-11-08T13:29:36-06:00*
G04 #@! TF.ProjectId,4x4_backpack,3478345F6261636B7061636B2E6B6963,rev?*
G04 #@! TF.SameCoordinates,Original*
G04 #@! TF.FileFunction,Legend,Bot*
G04 #@! TF.FilePolarity,Positive*
%FSLAX46Y46*%
G04 Gerber Fmt 4.6, Leading zero omitted, Abs format (unit mm)*
G04 Created by KiCad (PCBNEW (5.0.0)) date 11/08/19 13:29:36*
%MOMM*%
%LPD*%
G01*
G04 APERTURE LIST*
%ADD10C,0.120000*%
%ADD11C,0.150000*%
G04 APERTURE END LIST*
D10*
G04 #@! TO.C,J10*
X129794000Y-94107000D02*
X129794000Y-94742000D01*
X130429000Y-94107000D02*
X129794000Y-94107000D01*
D11*
X135659476Y-97229380D02*
X135088047Y-97229380D01*
X135373761Y-98229380D02*
X135373761Y-97229380D01*
X134183285Y-98134142D02*
X134230904Y-98181761D01*
X134373761Y-98229380D01*
X134469000Y-98229380D01*
X134611857Y-98181761D01*
X134707095Y-98086523D01*
X134754714Y-97991285D01*
X134802333Y-97800809D01*
X134802333Y-97657952D01*
X134754714Y-97467476D01*
X134707095Y-97372238D01*
X134611857Y-97277000D01*
X134469000Y-97229380D01*
X134373761Y-97229380D01*
X134230904Y-97277000D01*
X134183285Y-97324619D01*
X133802333Y-97324619D02*
X133754714Y-97277000D01*
X133659476Y-97229380D01*
X133421380Y-97229380D01*
X133326142Y-97277000D01*
X133278523Y-97324619D01*
X133230904Y-97419857D01*
X133230904Y-97515095D01*
X133278523Y-97657952D01*
X133849952Y-98229380D01*
X133230904Y-98229380D01*
X132611857Y-97229380D02*
X132516619Y-97229380D01*
X132421380Y-97277000D01*
X132373761Y-97324619D01*
X132326142Y-97419857D01*
X132278523Y-97610333D01*
X132278523Y-97848428D01*
X132326142Y-98038904D01*
X132373761Y-98134142D01*
X132421380Y-98181761D01*
X132516619Y-98229380D01*
X132611857Y-98229380D01*
X132707095Y-98181761D01*
X132754714Y-98134142D01*
X132802333Y-98038904D01*
X132849952Y-97848428D01*
X132849952Y-97610333D01*
X132802333Y-97419857D01*
X132754714Y-97324619D01*
X132707095Y-97277000D01*
X132611857Y-97229380D01*
X131373761Y-97229380D02*
X131849952Y-97229380D01*
X131897571Y-97705571D01*
X131849952Y-97657952D01*
X131754714Y-97610333D01*
X131516619Y-97610333D01*
X131421380Y-97657952D01*
X131373761Y-97705571D01*
X131326142Y-97800809D01*
X131326142Y-98038904D01*
X131373761Y-98134142D01*
X131421380Y-98181761D01*
X131516619Y-98229380D01*
X131754714Y-98229380D01*
X131849952Y-98181761D01*
X131897571Y-98134142D01*
X130707095Y-97229380D02*
X130611857Y-97229380D01*
X130516619Y-97277000D01*
X130469000Y-97324619D01*
X130421380Y-97419857D01*
X130373761Y-97610333D01*
X130373761Y-97848428D01*
X130421380Y-98038904D01*
X130469000Y-98134142D01*
X130516619Y-98181761D01*
X130611857Y-98229380D01*
X130707095Y-98229380D01*
X130802333Y-98181761D01*
X130849952Y-98134142D01*
X130897571Y-98038904D01*
X130945190Y-97848428D01*
X130945190Y-97610333D01*
X130897571Y-97419857D01*
X130849952Y-97324619D01*
X130802333Y-97277000D01*
X130707095Y-97229380D01*
G04 #@! TD*
M02*
