G04 #@! TF.FileFunction,Legend,Top*
%FSLAX46Y46*%
G04 Gerber Fmt 4.6, Leading zero omitted, Abs format (unit mm)*
G04 Created by KiCad (PCBNEW 4.0.7) date 07/20/18 22:40:28*
%MOMM*%
%LPD*%
G01*
G04 APERTURE LIST*
%ADD10C,0.100000*%
%ADD11C,0.125000*%
%ADD12C,0.200000*%
%ADD13C,0.381000*%
%ADD14C,0.120000*%
%ADD15C,0.150000*%
G04 APERTURE END LIST*
D10*
D11*
X103273572Y-108685000D02*
X103630715Y-108685000D01*
X103202144Y-108899286D02*
X103452144Y-108149286D01*
X103702144Y-108899286D01*
X103916429Y-108863571D02*
X103987858Y-108899286D01*
X104130715Y-108899286D01*
X104202143Y-108863571D01*
X104237858Y-108792143D01*
X104237858Y-108756429D01*
X104202143Y-108685000D01*
X104130715Y-108649286D01*
X104023572Y-108649286D01*
X103952143Y-108613571D01*
X103916429Y-108542143D01*
X103916429Y-108506429D01*
X103952143Y-108435000D01*
X104023572Y-108399286D01*
X104130715Y-108399286D01*
X104202143Y-108435000D01*
X104523572Y-108863571D02*
X104595001Y-108899286D01*
X104737858Y-108899286D01*
X104809286Y-108863571D01*
X104845001Y-108792143D01*
X104845001Y-108756429D01*
X104809286Y-108685000D01*
X104737858Y-108649286D01*
X104630715Y-108649286D01*
X104559286Y-108613571D01*
X104523572Y-108542143D01*
X104523572Y-108506429D01*
X104559286Y-108435000D01*
X104630715Y-108399286D01*
X104737858Y-108399286D01*
X104809286Y-108435000D01*
X105452144Y-108863571D02*
X105380715Y-108899286D01*
X105237858Y-108899286D01*
X105166429Y-108863571D01*
X105130715Y-108792143D01*
X105130715Y-108506429D01*
X105166429Y-108435000D01*
X105237858Y-108399286D01*
X105380715Y-108399286D01*
X105452144Y-108435000D01*
X105487858Y-108506429D01*
X105487858Y-108577857D01*
X105130715Y-108649286D01*
X105809286Y-108899286D02*
X105809286Y-108399286D01*
X105809286Y-108470714D02*
X105845001Y-108435000D01*
X105916429Y-108399286D01*
X106023572Y-108399286D01*
X106095001Y-108435000D01*
X106130715Y-108506429D01*
X106130715Y-108899286D01*
X106130715Y-108506429D02*
X106166429Y-108435000D01*
X106237858Y-108399286D01*
X106345001Y-108399286D01*
X106416429Y-108435000D01*
X106452144Y-108506429D01*
X106452144Y-108899286D01*
X106809286Y-108899286D02*
X106809286Y-108149286D01*
X106809286Y-108435000D02*
X106880715Y-108399286D01*
X107023572Y-108399286D01*
X107095001Y-108435000D01*
X107130715Y-108470714D01*
X107166429Y-108542143D01*
X107166429Y-108756429D01*
X107130715Y-108827857D01*
X107095001Y-108863571D01*
X107023572Y-108899286D01*
X106880715Y-108899286D01*
X106809286Y-108863571D01*
X107595000Y-108899286D02*
X107523572Y-108863571D01*
X107487857Y-108792143D01*
X107487857Y-108149286D01*
X107809286Y-108399286D02*
X107987857Y-108899286D01*
X108166429Y-108399286D02*
X107987857Y-108899286D01*
X107916429Y-109077857D01*
X107880714Y-109113571D01*
X107809286Y-109149286D01*
X109023572Y-108899286D02*
X109023572Y-108149286D01*
X109380715Y-108399286D02*
X109380715Y-108899286D01*
X109380715Y-108470714D02*
X109416430Y-108435000D01*
X109487858Y-108399286D01*
X109595001Y-108399286D01*
X109666430Y-108435000D01*
X109702144Y-108506429D01*
X109702144Y-108899286D01*
X110023572Y-108863571D02*
X110095001Y-108899286D01*
X110237858Y-108899286D01*
X110309286Y-108863571D01*
X110345001Y-108792143D01*
X110345001Y-108756429D01*
X110309286Y-108685000D01*
X110237858Y-108649286D01*
X110130715Y-108649286D01*
X110059286Y-108613571D01*
X110023572Y-108542143D01*
X110023572Y-108506429D01*
X110059286Y-108435000D01*
X110130715Y-108399286D01*
X110237858Y-108399286D01*
X110309286Y-108435000D01*
X110559287Y-108399286D02*
X110845001Y-108399286D01*
X110666429Y-108149286D02*
X110666429Y-108792143D01*
X110702144Y-108863571D01*
X110773572Y-108899286D01*
X110845001Y-108899286D01*
X111095000Y-108899286D02*
X111095000Y-108399286D01*
X111095000Y-108542143D02*
X111130715Y-108470714D01*
X111166429Y-108435000D01*
X111237858Y-108399286D01*
X111309286Y-108399286D01*
X111880715Y-108399286D02*
X111880715Y-108899286D01*
X111559286Y-108399286D02*
X111559286Y-108792143D01*
X111595001Y-108863571D01*
X111666429Y-108899286D01*
X111773572Y-108899286D01*
X111845001Y-108863571D01*
X111880715Y-108827857D01*
X112559286Y-108863571D02*
X112487857Y-108899286D01*
X112345000Y-108899286D01*
X112273572Y-108863571D01*
X112237857Y-108827857D01*
X112202143Y-108756429D01*
X112202143Y-108542143D01*
X112237857Y-108470714D01*
X112273572Y-108435000D01*
X112345000Y-108399286D01*
X112487857Y-108399286D01*
X112559286Y-108435000D01*
X112773572Y-108399286D02*
X113059286Y-108399286D01*
X112880714Y-108149286D02*
X112880714Y-108792143D01*
X112916429Y-108863571D01*
X112987857Y-108899286D01*
X113059286Y-108899286D01*
X113309285Y-108899286D02*
X113309285Y-108399286D01*
X113309285Y-108149286D02*
X113273571Y-108185000D01*
X113309285Y-108220714D01*
X113345000Y-108185000D01*
X113309285Y-108149286D01*
X113309285Y-108220714D01*
X113773571Y-108899286D02*
X113702143Y-108863571D01*
X113666428Y-108827857D01*
X113630714Y-108756429D01*
X113630714Y-108542143D01*
X113666428Y-108470714D01*
X113702143Y-108435000D01*
X113773571Y-108399286D01*
X113880714Y-108399286D01*
X113952143Y-108435000D01*
X113987857Y-108470714D01*
X114023571Y-108542143D01*
X114023571Y-108756429D01*
X113987857Y-108827857D01*
X113952143Y-108863571D01*
X113880714Y-108899286D01*
X113773571Y-108899286D01*
X114344999Y-108399286D02*
X114344999Y-108899286D01*
X114344999Y-108470714D02*
X114380714Y-108435000D01*
X114452142Y-108399286D01*
X114559285Y-108399286D01*
X114630714Y-108435000D01*
X114666428Y-108506429D01*
X114666428Y-108899286D01*
X114987856Y-108863571D02*
X115059285Y-108899286D01*
X115202142Y-108899286D01*
X115273570Y-108863571D01*
X115309285Y-108792143D01*
X115309285Y-108756429D01*
X115273570Y-108685000D01*
X115202142Y-108649286D01*
X115094999Y-108649286D01*
X115023570Y-108613571D01*
X114987856Y-108542143D01*
X114987856Y-108506429D01*
X115023570Y-108435000D01*
X115094999Y-108399286D01*
X115202142Y-108399286D01*
X115273570Y-108435000D01*
X115630713Y-108827857D02*
X115666428Y-108863571D01*
X115630713Y-108899286D01*
X115594999Y-108863571D01*
X115630713Y-108827857D01*
X115630713Y-108899286D01*
X115630713Y-108435000D02*
X115666428Y-108470714D01*
X115630713Y-108506429D01*
X115594999Y-108470714D01*
X115630713Y-108435000D01*
X115630713Y-108506429D01*
X104184288Y-110149286D02*
X104184288Y-109399286D01*
X104505717Y-110149286D02*
X104505717Y-109756429D01*
X104470003Y-109685000D01*
X104398574Y-109649286D01*
X104291431Y-109649286D01*
X104220003Y-109685000D01*
X104184288Y-109720714D01*
X104755717Y-109649286D02*
X105041431Y-109649286D01*
X104862859Y-109399286D02*
X104862859Y-110042143D01*
X104898574Y-110113571D01*
X104970002Y-110149286D01*
X105041431Y-110149286D01*
X105184288Y-109649286D02*
X105470002Y-109649286D01*
X105291430Y-109399286D02*
X105291430Y-110042143D01*
X105327145Y-110113571D01*
X105398573Y-110149286D01*
X105470002Y-110149286D01*
X105720001Y-109649286D02*
X105720001Y-110399286D01*
X105720001Y-109685000D02*
X105791430Y-109649286D01*
X105934287Y-109649286D01*
X106005716Y-109685000D01*
X106041430Y-109720714D01*
X106077144Y-109792143D01*
X106077144Y-110006429D01*
X106041430Y-110077857D01*
X106005716Y-110113571D01*
X105934287Y-110149286D01*
X105791430Y-110149286D01*
X105720001Y-110113571D01*
X106362858Y-110113571D02*
X106434287Y-110149286D01*
X106577144Y-110149286D01*
X106648572Y-110113571D01*
X106684287Y-110042143D01*
X106684287Y-110006429D01*
X106648572Y-109935000D01*
X106577144Y-109899286D01*
X106470001Y-109899286D01*
X106398572Y-109863571D01*
X106362858Y-109792143D01*
X106362858Y-109756429D01*
X106398572Y-109685000D01*
X106470001Y-109649286D01*
X106577144Y-109649286D01*
X106648572Y-109685000D01*
X107005715Y-110077857D02*
X107041430Y-110113571D01*
X107005715Y-110149286D01*
X106970001Y-110113571D01*
X107005715Y-110077857D01*
X107005715Y-110149286D01*
X107005715Y-109685000D02*
X107041430Y-109720714D01*
X107005715Y-109756429D01*
X106970001Y-109720714D01*
X107005715Y-109685000D01*
X107005715Y-109756429D01*
X107898573Y-109363571D02*
X107255716Y-110327857D01*
X108684287Y-109363571D02*
X108041430Y-110327857D01*
X109255715Y-109649286D02*
X109255715Y-110256429D01*
X109220001Y-110327857D01*
X109184286Y-110363571D01*
X109112858Y-110399286D01*
X109005715Y-110399286D01*
X108934286Y-110363571D01*
X109255715Y-110113571D02*
X109184286Y-110149286D01*
X109041429Y-110149286D01*
X108970001Y-110113571D01*
X108934286Y-110077857D01*
X108898572Y-110006429D01*
X108898572Y-109792143D01*
X108934286Y-109720714D01*
X108970001Y-109685000D01*
X109041429Y-109649286D01*
X109184286Y-109649286D01*
X109255715Y-109685000D01*
X109612857Y-110149286D02*
X109612857Y-109649286D01*
X109612857Y-109399286D02*
X109577143Y-109435000D01*
X109612857Y-109470714D01*
X109648572Y-109435000D01*
X109612857Y-109399286D01*
X109612857Y-109470714D01*
X109862858Y-109649286D02*
X110148572Y-109649286D01*
X109970000Y-109399286D02*
X109970000Y-110042143D01*
X110005715Y-110113571D01*
X110077143Y-110149286D01*
X110148572Y-110149286D01*
X110398571Y-110149286D02*
X110398571Y-109399286D01*
X110720000Y-110149286D02*
X110720000Y-109756429D01*
X110684286Y-109685000D01*
X110612857Y-109649286D01*
X110505714Y-109649286D01*
X110434286Y-109685000D01*
X110398571Y-109720714D01*
X111398571Y-109649286D02*
X111398571Y-110149286D01*
X111077142Y-109649286D02*
X111077142Y-110042143D01*
X111112857Y-110113571D01*
X111184285Y-110149286D01*
X111291428Y-110149286D01*
X111362857Y-110113571D01*
X111398571Y-110077857D01*
X111755713Y-110149286D02*
X111755713Y-109399286D01*
X111755713Y-109685000D02*
X111827142Y-109649286D01*
X111969999Y-109649286D01*
X112041428Y-109685000D01*
X112077142Y-109720714D01*
X112112856Y-109792143D01*
X112112856Y-110006429D01*
X112077142Y-110077857D01*
X112041428Y-110113571D01*
X111969999Y-110149286D01*
X111827142Y-110149286D01*
X111755713Y-110113571D01*
X112434284Y-110077857D02*
X112469999Y-110113571D01*
X112434284Y-110149286D01*
X112398570Y-110113571D01*
X112434284Y-110077857D01*
X112434284Y-110149286D01*
X113112856Y-110113571D02*
X113041427Y-110149286D01*
X112898570Y-110149286D01*
X112827142Y-110113571D01*
X112791427Y-110077857D01*
X112755713Y-110006429D01*
X112755713Y-109792143D01*
X112791427Y-109720714D01*
X112827142Y-109685000D01*
X112898570Y-109649286D01*
X113041427Y-109649286D01*
X113112856Y-109685000D01*
X113541427Y-110149286D02*
X113469999Y-110113571D01*
X113434284Y-110077857D01*
X113398570Y-110006429D01*
X113398570Y-109792143D01*
X113434284Y-109720714D01*
X113469999Y-109685000D01*
X113541427Y-109649286D01*
X113648570Y-109649286D01*
X113719999Y-109685000D01*
X113755713Y-109720714D01*
X113791427Y-109792143D01*
X113791427Y-110006429D01*
X113755713Y-110077857D01*
X113719999Y-110113571D01*
X113648570Y-110149286D01*
X113541427Y-110149286D01*
X114112855Y-110149286D02*
X114112855Y-109649286D01*
X114112855Y-109720714D02*
X114148570Y-109685000D01*
X114219998Y-109649286D01*
X114327141Y-109649286D01*
X114398570Y-109685000D01*
X114434284Y-109756429D01*
X114434284Y-110149286D01*
X114434284Y-109756429D02*
X114469998Y-109685000D01*
X114541427Y-109649286D01*
X114648570Y-109649286D01*
X114719998Y-109685000D01*
X114755713Y-109756429D01*
X114755713Y-110149286D01*
X105345003Y-110613571D02*
X104702146Y-111577857D01*
X105595002Y-110899286D02*
X105595002Y-111542143D01*
X105559288Y-111613571D01*
X105487860Y-111649286D01*
X105452145Y-111649286D01*
X105595002Y-110649286D02*
X105559288Y-110685000D01*
X105595002Y-110720714D01*
X105630717Y-110685000D01*
X105595002Y-110649286D01*
X105595002Y-110720714D01*
X105952145Y-110899286D02*
X105952145Y-111649286D01*
X105952145Y-110935000D02*
X106023574Y-110899286D01*
X106166431Y-110899286D01*
X106237860Y-110935000D01*
X106273574Y-110970714D01*
X106309288Y-111042143D01*
X106309288Y-111256429D01*
X106273574Y-111327857D01*
X106237860Y-111363571D01*
X106166431Y-111399286D01*
X106023574Y-111399286D01*
X105952145Y-111363571D01*
X106952145Y-111363571D02*
X106880716Y-111399286D01*
X106737859Y-111399286D01*
X106666431Y-111363571D01*
X106630716Y-111327857D01*
X106595002Y-111256429D01*
X106595002Y-111042143D01*
X106630716Y-110970714D01*
X106666431Y-110935000D01*
X106737859Y-110899286D01*
X106880716Y-110899286D01*
X106952145Y-110935000D01*
X107380716Y-111399286D02*
X107309288Y-111363571D01*
X107273573Y-111327857D01*
X107237859Y-111256429D01*
X107237859Y-111042143D01*
X107273573Y-110970714D01*
X107309288Y-110935000D01*
X107380716Y-110899286D01*
X107487859Y-110899286D01*
X107559288Y-110935000D01*
X107595002Y-110970714D01*
X107630716Y-111042143D01*
X107630716Y-111256429D01*
X107595002Y-111327857D01*
X107559288Y-111363571D01*
X107487859Y-111399286D01*
X107380716Y-111399286D01*
X107952144Y-110899286D02*
X107952144Y-111399286D01*
X107952144Y-110970714D02*
X107987859Y-110935000D01*
X108059287Y-110899286D01*
X108166430Y-110899286D01*
X108237859Y-110935000D01*
X108273573Y-111006429D01*
X108273573Y-111399286D01*
X108595001Y-111363571D02*
X108666430Y-111399286D01*
X108809287Y-111399286D01*
X108880715Y-111363571D01*
X108916430Y-111292143D01*
X108916430Y-111256429D01*
X108880715Y-111185000D01*
X108809287Y-111149286D01*
X108702144Y-111149286D01*
X108630715Y-111113571D01*
X108595001Y-111042143D01*
X108595001Y-111006429D01*
X108630715Y-110935000D01*
X108702144Y-110899286D01*
X108809287Y-110899286D01*
X108880715Y-110935000D01*
X109130716Y-110899286D02*
X109416430Y-110899286D01*
X109237858Y-110649286D02*
X109237858Y-111292143D01*
X109273573Y-111363571D01*
X109345001Y-111399286D01*
X109416430Y-111399286D01*
X109987858Y-111399286D02*
X109987858Y-111006429D01*
X109952144Y-110935000D01*
X109880715Y-110899286D01*
X109737858Y-110899286D01*
X109666429Y-110935000D01*
X109987858Y-111363571D02*
X109916429Y-111399286D01*
X109737858Y-111399286D01*
X109666429Y-111363571D01*
X109630715Y-111292143D01*
X109630715Y-111220714D01*
X109666429Y-111149286D01*
X109737858Y-111113571D01*
X109916429Y-111113571D01*
X109987858Y-111077857D01*
X110345000Y-110899286D02*
X110345000Y-111399286D01*
X110345000Y-110970714D02*
X110380715Y-110935000D01*
X110452143Y-110899286D01*
X110559286Y-110899286D01*
X110630715Y-110935000D01*
X110666429Y-111006429D01*
X110666429Y-111399286D01*
X110916429Y-110899286D02*
X111202143Y-110899286D01*
X111023571Y-110649286D02*
X111023571Y-111292143D01*
X111059286Y-111363571D01*
X111130714Y-111399286D01*
X111202143Y-111399286D01*
X111452142Y-111399286D02*
X111452142Y-110899286D01*
X111452142Y-110649286D02*
X111416428Y-110685000D01*
X111452142Y-110720714D01*
X111487857Y-110685000D01*
X111452142Y-110649286D01*
X111452142Y-110720714D01*
X111809285Y-110899286D02*
X111809285Y-111399286D01*
X111809285Y-110970714D02*
X111845000Y-110935000D01*
X111916428Y-110899286D01*
X112023571Y-110899286D01*
X112095000Y-110935000D01*
X112130714Y-111006429D01*
X112130714Y-111399286D01*
X112773571Y-111363571D02*
X112702142Y-111399286D01*
X112559285Y-111399286D01*
X112487856Y-111363571D01*
X112452142Y-111292143D01*
X112452142Y-111006429D01*
X112487856Y-110935000D01*
X112559285Y-110899286D01*
X112702142Y-110899286D01*
X112773571Y-110935000D01*
X112809285Y-111006429D01*
X112809285Y-111077857D01*
X112452142Y-111149286D01*
X113452142Y-111399286D02*
X113452142Y-111006429D01*
X113416428Y-110935000D01*
X113344999Y-110899286D01*
X113202142Y-110899286D01*
X113130713Y-110935000D01*
X113452142Y-111363571D02*
X113380713Y-111399286D01*
X113202142Y-111399286D01*
X113130713Y-111363571D01*
X113094999Y-111292143D01*
X113094999Y-111220714D01*
X113130713Y-111149286D01*
X113202142Y-111113571D01*
X113380713Y-111113571D01*
X113452142Y-111077857D01*
X114130713Y-110899286D02*
X114130713Y-111399286D01*
X113809284Y-110899286D02*
X113809284Y-111292143D01*
X113844999Y-111363571D01*
X113916427Y-111399286D01*
X114023570Y-111399286D01*
X114094999Y-111363571D01*
X114130713Y-111327857D01*
X105898573Y-111863571D02*
X105255716Y-112827857D01*
X106148572Y-112649286D02*
X106148572Y-111899286D01*
X106577144Y-112649286D01*
X106577144Y-111899286D01*
X107362858Y-112649286D02*
X107112858Y-112292143D01*
X106934286Y-112649286D02*
X106934286Y-111899286D01*
X107220001Y-111899286D01*
X107291429Y-111935000D01*
X107327144Y-111970714D01*
X107362858Y-112042143D01*
X107362858Y-112149286D01*
X107327144Y-112220714D01*
X107291429Y-112256429D01*
X107220001Y-112292143D01*
X106934286Y-112292143D01*
X107934286Y-112256429D02*
X107684286Y-112256429D01*
X107684286Y-112649286D02*
X107684286Y-111899286D01*
X108041429Y-111899286D01*
X108684286Y-111899286D02*
X108327143Y-111899286D01*
X108291429Y-112256429D01*
X108327143Y-112220714D01*
X108398572Y-112185000D01*
X108577143Y-112185000D01*
X108648572Y-112220714D01*
X108684286Y-112256429D01*
X108720001Y-112327857D01*
X108720001Y-112506429D01*
X108684286Y-112577857D01*
X108648572Y-112613571D01*
X108577143Y-112649286D01*
X108398572Y-112649286D01*
X108327143Y-112613571D01*
X108291429Y-112577857D01*
X109005715Y-111970714D02*
X109041429Y-111935000D01*
X109112858Y-111899286D01*
X109291429Y-111899286D01*
X109362858Y-111935000D01*
X109398572Y-111970714D01*
X109434287Y-112042143D01*
X109434287Y-112113571D01*
X109398572Y-112220714D01*
X108970001Y-112649286D01*
X109434287Y-112649286D01*
X109755715Y-112363571D02*
X110327144Y-112363571D01*
X110934286Y-112256429D02*
X111041429Y-112292143D01*
X111077144Y-112327857D01*
X111112858Y-112399286D01*
X111112858Y-112506429D01*
X111077144Y-112577857D01*
X111041429Y-112613571D01*
X110970001Y-112649286D01*
X110684286Y-112649286D01*
X110684286Y-111899286D01*
X110934286Y-111899286D01*
X111005715Y-111935000D01*
X111041429Y-111970714D01*
X111077144Y-112042143D01*
X111077144Y-112113571D01*
X111041429Y-112185000D01*
X111005715Y-112220714D01*
X110934286Y-112256429D01*
X110684286Y-112256429D01*
X111541429Y-112649286D02*
X111470001Y-112613571D01*
X111434286Y-112577857D01*
X111398572Y-112506429D01*
X111398572Y-112292143D01*
X111434286Y-112220714D01*
X111470001Y-112185000D01*
X111541429Y-112149286D01*
X111648572Y-112149286D01*
X111720001Y-112185000D01*
X111755715Y-112220714D01*
X111791429Y-112292143D01*
X111791429Y-112506429D01*
X111755715Y-112577857D01*
X111720001Y-112613571D01*
X111648572Y-112649286D01*
X111541429Y-112649286D01*
X112434286Y-112649286D02*
X112434286Y-112256429D01*
X112398572Y-112185000D01*
X112327143Y-112149286D01*
X112184286Y-112149286D01*
X112112857Y-112185000D01*
X112434286Y-112613571D02*
X112362857Y-112649286D01*
X112184286Y-112649286D01*
X112112857Y-112613571D01*
X112077143Y-112542143D01*
X112077143Y-112470714D01*
X112112857Y-112399286D01*
X112184286Y-112363571D01*
X112362857Y-112363571D01*
X112434286Y-112327857D01*
X112791428Y-112649286D02*
X112791428Y-112149286D01*
X112791428Y-112292143D02*
X112827143Y-112220714D01*
X112862857Y-112185000D01*
X112934286Y-112149286D01*
X113005714Y-112149286D01*
X113577143Y-112649286D02*
X113577143Y-111899286D01*
X113577143Y-112613571D02*
X113505714Y-112649286D01*
X113362857Y-112649286D01*
X113291429Y-112613571D01*
X113255714Y-112577857D01*
X113220000Y-112506429D01*
X113220000Y-112292143D01*
X113255714Y-112220714D01*
X113291429Y-112185000D01*
X113362857Y-112149286D01*
X113505714Y-112149286D01*
X113577143Y-112185000D01*
X107202143Y-114756429D02*
X106952143Y-114756429D01*
X106952143Y-115149286D02*
X106952143Y-114399286D01*
X107309286Y-114399286D01*
X107595000Y-115149286D02*
X107595000Y-114649286D01*
X107595000Y-114399286D02*
X107559286Y-114435000D01*
X107595000Y-114470714D01*
X107630715Y-114435000D01*
X107595000Y-114399286D01*
X107595000Y-114470714D01*
X107952143Y-115149286D02*
X107952143Y-114649286D01*
X107952143Y-114792143D02*
X107987858Y-114720714D01*
X108023572Y-114685000D01*
X108095001Y-114649286D01*
X108166429Y-114649286D01*
X108416429Y-115149286D02*
X108416429Y-114649286D01*
X108416429Y-114720714D02*
X108452144Y-114685000D01*
X108523572Y-114649286D01*
X108630715Y-114649286D01*
X108702144Y-114685000D01*
X108737858Y-114756429D01*
X108737858Y-115149286D01*
X108737858Y-114756429D02*
X108773572Y-114685000D01*
X108845001Y-114649286D01*
X108952144Y-114649286D01*
X109023572Y-114685000D01*
X109059287Y-114756429D01*
X109059287Y-115149286D01*
X109345001Y-114649286D02*
X109487858Y-115149286D01*
X109630715Y-114792143D01*
X109773572Y-115149286D01*
X109916429Y-114649286D01*
X110523572Y-115149286D02*
X110523572Y-114756429D01*
X110487858Y-114685000D01*
X110416429Y-114649286D01*
X110273572Y-114649286D01*
X110202143Y-114685000D01*
X110523572Y-115113571D02*
X110452143Y-115149286D01*
X110273572Y-115149286D01*
X110202143Y-115113571D01*
X110166429Y-115042143D01*
X110166429Y-114970714D01*
X110202143Y-114899286D01*
X110273572Y-114863571D01*
X110452143Y-114863571D01*
X110523572Y-114827857D01*
X110880714Y-115149286D02*
X110880714Y-114649286D01*
X110880714Y-114792143D02*
X110916429Y-114720714D01*
X110952143Y-114685000D01*
X111023572Y-114649286D01*
X111095000Y-114649286D01*
X111630715Y-115113571D02*
X111559286Y-115149286D01*
X111416429Y-115149286D01*
X111345000Y-115113571D01*
X111309286Y-115042143D01*
X111309286Y-114756429D01*
X111345000Y-114685000D01*
X111416429Y-114649286D01*
X111559286Y-114649286D01*
X111630715Y-114685000D01*
X111666429Y-114756429D01*
X111666429Y-114827857D01*
X111309286Y-114899286D01*
X111987857Y-115077857D02*
X112023572Y-115113571D01*
X111987857Y-115149286D01*
X111952143Y-115113571D01*
X111987857Y-115077857D01*
X111987857Y-115149286D01*
X111987857Y-114685000D02*
X112023572Y-114720714D01*
X111987857Y-114756429D01*
X111952143Y-114720714D01*
X111987857Y-114685000D01*
X111987857Y-114756429D01*
X104184288Y-116399286D02*
X104184288Y-115649286D01*
X104505717Y-116399286D02*
X104505717Y-116006429D01*
X104470003Y-115935000D01*
X104398574Y-115899286D01*
X104291431Y-115899286D01*
X104220003Y-115935000D01*
X104184288Y-115970714D01*
X104755717Y-115899286D02*
X105041431Y-115899286D01*
X104862859Y-115649286D02*
X104862859Y-116292143D01*
X104898574Y-116363571D01*
X104970002Y-116399286D01*
X105041431Y-116399286D01*
X105184288Y-115899286D02*
X105470002Y-115899286D01*
X105291430Y-115649286D02*
X105291430Y-116292143D01*
X105327145Y-116363571D01*
X105398573Y-116399286D01*
X105470002Y-116399286D01*
X105720001Y-115899286D02*
X105720001Y-116649286D01*
X105720001Y-115935000D02*
X105791430Y-115899286D01*
X105934287Y-115899286D01*
X106005716Y-115935000D01*
X106041430Y-115970714D01*
X106077144Y-116042143D01*
X106077144Y-116256429D01*
X106041430Y-116327857D01*
X106005716Y-116363571D01*
X105934287Y-116399286D01*
X105791430Y-116399286D01*
X105720001Y-116363571D01*
X106362858Y-116363571D02*
X106434287Y-116399286D01*
X106577144Y-116399286D01*
X106648572Y-116363571D01*
X106684287Y-116292143D01*
X106684287Y-116256429D01*
X106648572Y-116185000D01*
X106577144Y-116149286D01*
X106470001Y-116149286D01*
X106398572Y-116113571D01*
X106362858Y-116042143D01*
X106362858Y-116006429D01*
X106398572Y-115935000D01*
X106470001Y-115899286D01*
X106577144Y-115899286D01*
X106648572Y-115935000D01*
X107005715Y-116327857D02*
X107041430Y-116363571D01*
X107005715Y-116399286D01*
X106970001Y-116363571D01*
X107005715Y-116327857D01*
X107005715Y-116399286D01*
X107005715Y-115935000D02*
X107041430Y-115970714D01*
X107005715Y-116006429D01*
X106970001Y-115970714D01*
X107005715Y-115935000D01*
X107005715Y-116006429D01*
X107898573Y-115613571D02*
X107255716Y-116577857D01*
X108684287Y-115613571D02*
X108041430Y-116577857D01*
X109255715Y-115899286D02*
X109255715Y-116506429D01*
X109220001Y-116577857D01*
X109184286Y-116613571D01*
X109112858Y-116649286D01*
X109005715Y-116649286D01*
X108934286Y-116613571D01*
X109255715Y-116363571D02*
X109184286Y-116399286D01*
X109041429Y-116399286D01*
X108970001Y-116363571D01*
X108934286Y-116327857D01*
X108898572Y-116256429D01*
X108898572Y-116042143D01*
X108934286Y-115970714D01*
X108970001Y-115935000D01*
X109041429Y-115899286D01*
X109184286Y-115899286D01*
X109255715Y-115935000D01*
X109612857Y-116399286D02*
X109612857Y-115899286D01*
X109612857Y-115649286D02*
X109577143Y-115685000D01*
X109612857Y-115720714D01*
X109648572Y-115685000D01*
X109612857Y-115649286D01*
X109612857Y-115720714D01*
X109862858Y-115899286D02*
X110148572Y-115899286D01*
X109970000Y-115649286D02*
X109970000Y-116292143D01*
X110005715Y-116363571D01*
X110077143Y-116399286D01*
X110148572Y-116399286D01*
X110398571Y-116399286D02*
X110398571Y-115649286D01*
X110720000Y-116399286D02*
X110720000Y-116006429D01*
X110684286Y-115935000D01*
X110612857Y-115899286D01*
X110505714Y-115899286D01*
X110434286Y-115935000D01*
X110398571Y-115970714D01*
X111398571Y-115899286D02*
X111398571Y-116399286D01*
X111077142Y-115899286D02*
X111077142Y-116292143D01*
X111112857Y-116363571D01*
X111184285Y-116399286D01*
X111291428Y-116399286D01*
X111362857Y-116363571D01*
X111398571Y-116327857D01*
X111755713Y-116399286D02*
X111755713Y-115649286D01*
X111755713Y-115935000D02*
X111827142Y-115899286D01*
X111969999Y-115899286D01*
X112041428Y-115935000D01*
X112077142Y-115970714D01*
X112112856Y-116042143D01*
X112112856Y-116256429D01*
X112077142Y-116327857D01*
X112041428Y-116363571D01*
X111969999Y-116399286D01*
X111827142Y-116399286D01*
X111755713Y-116363571D01*
X112434284Y-116327857D02*
X112469999Y-116363571D01*
X112434284Y-116399286D01*
X112398570Y-116363571D01*
X112434284Y-116327857D01*
X112434284Y-116399286D01*
X113112856Y-116363571D02*
X113041427Y-116399286D01*
X112898570Y-116399286D01*
X112827142Y-116363571D01*
X112791427Y-116327857D01*
X112755713Y-116256429D01*
X112755713Y-116042143D01*
X112791427Y-115970714D01*
X112827142Y-115935000D01*
X112898570Y-115899286D01*
X113041427Y-115899286D01*
X113112856Y-115935000D01*
X113541427Y-116399286D02*
X113469999Y-116363571D01*
X113434284Y-116327857D01*
X113398570Y-116256429D01*
X113398570Y-116042143D01*
X113434284Y-115970714D01*
X113469999Y-115935000D01*
X113541427Y-115899286D01*
X113648570Y-115899286D01*
X113719999Y-115935000D01*
X113755713Y-115970714D01*
X113791427Y-116042143D01*
X113791427Y-116256429D01*
X113755713Y-116327857D01*
X113719999Y-116363571D01*
X113648570Y-116399286D01*
X113541427Y-116399286D01*
X114112855Y-116399286D02*
X114112855Y-115899286D01*
X114112855Y-115970714D02*
X114148570Y-115935000D01*
X114219998Y-115899286D01*
X114327141Y-115899286D01*
X114398570Y-115935000D01*
X114434284Y-116006429D01*
X114434284Y-116399286D01*
X114434284Y-116006429D02*
X114469998Y-115935000D01*
X114541427Y-115899286D01*
X114648570Y-115899286D01*
X114719998Y-115935000D01*
X114755713Y-116006429D01*
X114755713Y-116399286D01*
X105345003Y-116863571D02*
X104702146Y-117827857D01*
X105595002Y-117149286D02*
X105595002Y-117792143D01*
X105559288Y-117863571D01*
X105487860Y-117899286D01*
X105452145Y-117899286D01*
X105595002Y-116899286D02*
X105559288Y-116935000D01*
X105595002Y-116970714D01*
X105630717Y-116935000D01*
X105595002Y-116899286D01*
X105595002Y-116970714D01*
X105952145Y-117149286D02*
X105952145Y-117899286D01*
X105952145Y-117185000D02*
X106023574Y-117149286D01*
X106166431Y-117149286D01*
X106237860Y-117185000D01*
X106273574Y-117220714D01*
X106309288Y-117292143D01*
X106309288Y-117506429D01*
X106273574Y-117577857D01*
X106237860Y-117613571D01*
X106166431Y-117649286D01*
X106023574Y-117649286D01*
X105952145Y-117613571D01*
X106952145Y-117613571D02*
X106880716Y-117649286D01*
X106737859Y-117649286D01*
X106666431Y-117613571D01*
X106630716Y-117577857D01*
X106595002Y-117506429D01*
X106595002Y-117292143D01*
X106630716Y-117220714D01*
X106666431Y-117185000D01*
X106737859Y-117149286D01*
X106880716Y-117149286D01*
X106952145Y-117185000D01*
X107380716Y-117649286D02*
X107309288Y-117613571D01*
X107273573Y-117577857D01*
X107237859Y-117506429D01*
X107237859Y-117292143D01*
X107273573Y-117220714D01*
X107309288Y-117185000D01*
X107380716Y-117149286D01*
X107487859Y-117149286D01*
X107559288Y-117185000D01*
X107595002Y-117220714D01*
X107630716Y-117292143D01*
X107630716Y-117506429D01*
X107595002Y-117577857D01*
X107559288Y-117613571D01*
X107487859Y-117649286D01*
X107380716Y-117649286D01*
X107952144Y-117149286D02*
X107952144Y-117649286D01*
X107952144Y-117220714D02*
X107987859Y-117185000D01*
X108059287Y-117149286D01*
X108166430Y-117149286D01*
X108237859Y-117185000D01*
X108273573Y-117256429D01*
X108273573Y-117649286D01*
X108595001Y-117613571D02*
X108666430Y-117649286D01*
X108809287Y-117649286D01*
X108880715Y-117613571D01*
X108916430Y-117542143D01*
X108916430Y-117506429D01*
X108880715Y-117435000D01*
X108809287Y-117399286D01*
X108702144Y-117399286D01*
X108630715Y-117363571D01*
X108595001Y-117292143D01*
X108595001Y-117256429D01*
X108630715Y-117185000D01*
X108702144Y-117149286D01*
X108809287Y-117149286D01*
X108880715Y-117185000D01*
X109130716Y-117149286D02*
X109416430Y-117149286D01*
X109237858Y-116899286D02*
X109237858Y-117542143D01*
X109273573Y-117613571D01*
X109345001Y-117649286D01*
X109416430Y-117649286D01*
X109987858Y-117649286D02*
X109987858Y-117256429D01*
X109952144Y-117185000D01*
X109880715Y-117149286D01*
X109737858Y-117149286D01*
X109666429Y-117185000D01*
X109987858Y-117613571D02*
X109916429Y-117649286D01*
X109737858Y-117649286D01*
X109666429Y-117613571D01*
X109630715Y-117542143D01*
X109630715Y-117470714D01*
X109666429Y-117399286D01*
X109737858Y-117363571D01*
X109916429Y-117363571D01*
X109987858Y-117327857D01*
X110345000Y-117149286D02*
X110345000Y-117649286D01*
X110345000Y-117220714D02*
X110380715Y-117185000D01*
X110452143Y-117149286D01*
X110559286Y-117149286D01*
X110630715Y-117185000D01*
X110666429Y-117256429D01*
X110666429Y-117649286D01*
X110916429Y-117149286D02*
X111202143Y-117149286D01*
X111023571Y-116899286D02*
X111023571Y-117542143D01*
X111059286Y-117613571D01*
X111130714Y-117649286D01*
X111202143Y-117649286D01*
X111452142Y-117649286D02*
X111452142Y-117149286D01*
X111452142Y-116899286D02*
X111416428Y-116935000D01*
X111452142Y-116970714D01*
X111487857Y-116935000D01*
X111452142Y-116899286D01*
X111452142Y-116970714D01*
X111809285Y-117149286D02*
X111809285Y-117649286D01*
X111809285Y-117220714D02*
X111845000Y-117185000D01*
X111916428Y-117149286D01*
X112023571Y-117149286D01*
X112095000Y-117185000D01*
X112130714Y-117256429D01*
X112130714Y-117649286D01*
X112773571Y-117613571D02*
X112702142Y-117649286D01*
X112559285Y-117649286D01*
X112487856Y-117613571D01*
X112452142Y-117542143D01*
X112452142Y-117256429D01*
X112487856Y-117185000D01*
X112559285Y-117149286D01*
X112702142Y-117149286D01*
X112773571Y-117185000D01*
X112809285Y-117256429D01*
X112809285Y-117327857D01*
X112452142Y-117399286D01*
X113452142Y-117649286D02*
X113452142Y-117256429D01*
X113416428Y-117185000D01*
X113344999Y-117149286D01*
X113202142Y-117149286D01*
X113130713Y-117185000D01*
X113452142Y-117613571D02*
X113380713Y-117649286D01*
X113202142Y-117649286D01*
X113130713Y-117613571D01*
X113094999Y-117542143D01*
X113094999Y-117470714D01*
X113130713Y-117399286D01*
X113202142Y-117363571D01*
X113380713Y-117363571D01*
X113452142Y-117327857D01*
X114130713Y-117149286D02*
X114130713Y-117649286D01*
X113809284Y-117149286D02*
X113809284Y-117542143D01*
X113844999Y-117613571D01*
X113916427Y-117649286D01*
X114023570Y-117649286D01*
X114094999Y-117613571D01*
X114130713Y-117577857D01*
X105755715Y-118113571D02*
X105112858Y-119077857D01*
X106255714Y-118506429D02*
X106362857Y-118542143D01*
X106398572Y-118577857D01*
X106434286Y-118649286D01*
X106434286Y-118756429D01*
X106398572Y-118827857D01*
X106362857Y-118863571D01*
X106291429Y-118899286D01*
X106005714Y-118899286D01*
X106005714Y-118149286D01*
X106255714Y-118149286D01*
X106327143Y-118185000D01*
X106362857Y-118220714D01*
X106398572Y-118292143D01*
X106398572Y-118363571D01*
X106362857Y-118435000D01*
X106327143Y-118470714D01*
X106255714Y-118506429D01*
X106005714Y-118506429D01*
X106862857Y-118899286D02*
X106791429Y-118863571D01*
X106755714Y-118792143D01*
X106755714Y-118149286D01*
X107470000Y-118399286D02*
X107470000Y-118899286D01*
X107148571Y-118399286D02*
X107148571Y-118792143D01*
X107184286Y-118863571D01*
X107255714Y-118899286D01*
X107362857Y-118899286D01*
X107434286Y-118863571D01*
X107470000Y-118827857D01*
X108112857Y-118863571D02*
X108041428Y-118899286D01*
X107898571Y-118899286D01*
X107827142Y-118863571D01*
X107791428Y-118792143D01*
X107791428Y-118506429D01*
X107827142Y-118435000D01*
X107898571Y-118399286D01*
X108041428Y-118399286D01*
X108112857Y-118435000D01*
X108148571Y-118506429D01*
X108148571Y-118577857D01*
X107791428Y-118649286D01*
X108469999Y-118899286D02*
X108469999Y-118149286D01*
X108719999Y-118685000D01*
X108969999Y-118149286D01*
X108969999Y-118899286D01*
X109327142Y-118899286D02*
X109327142Y-118399286D01*
X109327142Y-118149286D02*
X109291428Y-118185000D01*
X109327142Y-118220714D01*
X109362857Y-118185000D01*
X109327142Y-118149286D01*
X109327142Y-118220714D01*
X110005714Y-118863571D02*
X109934285Y-118899286D01*
X109791428Y-118899286D01*
X109720000Y-118863571D01*
X109684285Y-118827857D01*
X109648571Y-118756429D01*
X109648571Y-118542143D01*
X109684285Y-118470714D01*
X109720000Y-118435000D01*
X109791428Y-118399286D01*
X109934285Y-118399286D01*
X110005714Y-118435000D01*
X110327142Y-118899286D02*
X110327142Y-118399286D01*
X110327142Y-118542143D02*
X110362857Y-118470714D01*
X110398571Y-118435000D01*
X110470000Y-118399286D01*
X110541428Y-118399286D01*
X110898571Y-118899286D02*
X110827143Y-118863571D01*
X110791428Y-118827857D01*
X110755714Y-118756429D01*
X110755714Y-118542143D01*
X110791428Y-118470714D01*
X110827143Y-118435000D01*
X110898571Y-118399286D01*
X111005714Y-118399286D01*
X111077143Y-118435000D01*
X111112857Y-118470714D01*
X111148571Y-118542143D01*
X111148571Y-118756429D01*
X111112857Y-118827857D01*
X111077143Y-118863571D01*
X111005714Y-118899286D01*
X110898571Y-118899286D01*
X111291428Y-118970714D02*
X111862857Y-118970714D01*
X112291428Y-118506429D02*
X112398571Y-118542143D01*
X112434286Y-118577857D01*
X112470000Y-118649286D01*
X112470000Y-118756429D01*
X112434286Y-118827857D01*
X112398571Y-118863571D01*
X112327143Y-118899286D01*
X112041428Y-118899286D01*
X112041428Y-118149286D01*
X112291428Y-118149286D01*
X112362857Y-118185000D01*
X112398571Y-118220714D01*
X112434286Y-118292143D01*
X112434286Y-118363571D01*
X112398571Y-118435000D01*
X112362857Y-118470714D01*
X112291428Y-118506429D01*
X112041428Y-118506429D01*
X113148571Y-118899286D02*
X112791428Y-118899286D01*
X112791428Y-118149286D01*
X113398571Y-118506429D02*
X113648571Y-118506429D01*
X113755714Y-118899286D02*
X113398571Y-118899286D01*
X113398571Y-118149286D01*
X113755714Y-118149286D01*
D10*
X105759286Y-104423929D02*
X105509286Y-104423929D01*
X105509286Y-104816786D02*
X105509286Y-104066786D01*
X105866429Y-104066786D01*
X106259286Y-104816786D02*
X106187858Y-104781071D01*
X106152143Y-104745357D01*
X106116429Y-104673929D01*
X106116429Y-104459643D01*
X106152143Y-104388214D01*
X106187858Y-104352500D01*
X106259286Y-104316786D01*
X106366429Y-104316786D01*
X106437858Y-104352500D01*
X106473572Y-104388214D01*
X106509286Y-104459643D01*
X106509286Y-104673929D01*
X106473572Y-104745357D01*
X106437858Y-104781071D01*
X106366429Y-104816786D01*
X106259286Y-104816786D01*
X106830714Y-104816786D02*
X106830714Y-104316786D01*
X106830714Y-104459643D02*
X106866429Y-104388214D01*
X106902143Y-104352500D01*
X106973572Y-104316786D01*
X107045000Y-104316786D01*
X108187858Y-104316786D02*
X108187858Y-104816786D01*
X107866429Y-104316786D02*
X107866429Y-104709643D01*
X107902144Y-104781071D01*
X107973572Y-104816786D01*
X108080715Y-104816786D01*
X108152144Y-104781071D01*
X108187858Y-104745357D01*
X108509286Y-104781071D02*
X108580715Y-104816786D01*
X108723572Y-104816786D01*
X108795000Y-104781071D01*
X108830715Y-104709643D01*
X108830715Y-104673929D01*
X108795000Y-104602500D01*
X108723572Y-104566786D01*
X108616429Y-104566786D01*
X108545000Y-104531071D01*
X108509286Y-104459643D01*
X108509286Y-104423929D01*
X108545000Y-104352500D01*
X108616429Y-104316786D01*
X108723572Y-104316786D01*
X108795000Y-104352500D01*
X109437858Y-104781071D02*
X109366429Y-104816786D01*
X109223572Y-104816786D01*
X109152143Y-104781071D01*
X109116429Y-104709643D01*
X109116429Y-104423929D01*
X109152143Y-104352500D01*
X109223572Y-104316786D01*
X109366429Y-104316786D01*
X109437858Y-104352500D01*
X109473572Y-104423929D01*
X109473572Y-104495357D01*
X109116429Y-104566786D01*
X110295001Y-104316786D02*
X110437858Y-104816786D01*
X110580715Y-104459643D01*
X110723572Y-104816786D01*
X110866429Y-104316786D01*
X111152143Y-104816786D02*
X111152143Y-104316786D01*
X111152143Y-104066786D02*
X111116429Y-104102500D01*
X111152143Y-104138214D01*
X111187858Y-104102500D01*
X111152143Y-104066786D01*
X111152143Y-104138214D01*
X111402144Y-104316786D02*
X111687858Y-104316786D01*
X111509286Y-104066786D02*
X111509286Y-104709643D01*
X111545001Y-104781071D01*
X111616429Y-104816786D01*
X111687858Y-104816786D01*
X111937857Y-104816786D02*
X111937857Y-104066786D01*
X112259286Y-104816786D02*
X112259286Y-104423929D01*
X112223572Y-104352500D01*
X112152143Y-104316786D01*
X112045000Y-104316786D01*
X111973572Y-104352500D01*
X111937857Y-104388214D01*
X104223571Y-106041786D02*
X104223571Y-105291786D01*
X104652143Y-106041786D01*
X104652143Y-105291786D01*
X105437857Y-106041786D02*
X105187857Y-105684643D01*
X105009285Y-106041786D02*
X105009285Y-105291786D01*
X105295000Y-105291786D01*
X105366428Y-105327500D01*
X105402143Y-105363214D01*
X105437857Y-105434643D01*
X105437857Y-105541786D01*
X105402143Y-105613214D01*
X105366428Y-105648929D01*
X105295000Y-105684643D01*
X105009285Y-105684643D01*
X106009285Y-105648929D02*
X105759285Y-105648929D01*
X105759285Y-106041786D02*
X105759285Y-105291786D01*
X106116428Y-105291786D01*
X106759285Y-105291786D02*
X106402142Y-105291786D01*
X106366428Y-105648929D01*
X106402142Y-105613214D01*
X106473571Y-105577500D01*
X106652142Y-105577500D01*
X106723571Y-105613214D01*
X106759285Y-105648929D01*
X106795000Y-105720357D01*
X106795000Y-105898929D01*
X106759285Y-105970357D01*
X106723571Y-106006071D01*
X106652142Y-106041786D01*
X106473571Y-106041786D01*
X106402142Y-106006071D01*
X106366428Y-105970357D01*
X107080714Y-105363214D02*
X107116428Y-105327500D01*
X107187857Y-105291786D01*
X107366428Y-105291786D01*
X107437857Y-105327500D01*
X107473571Y-105363214D01*
X107509286Y-105434643D01*
X107509286Y-105506071D01*
X107473571Y-105613214D01*
X107045000Y-106041786D01*
X107509286Y-106041786D01*
X107937857Y-105613214D02*
X107866429Y-105577500D01*
X107830714Y-105541786D01*
X107795000Y-105470357D01*
X107795000Y-105434643D01*
X107830714Y-105363214D01*
X107866429Y-105327500D01*
X107937857Y-105291786D01*
X108080714Y-105291786D01*
X108152143Y-105327500D01*
X108187857Y-105363214D01*
X108223572Y-105434643D01*
X108223572Y-105470357D01*
X108187857Y-105541786D01*
X108152143Y-105577500D01*
X108080714Y-105613214D01*
X107937857Y-105613214D01*
X107866429Y-105648929D01*
X107830714Y-105684643D01*
X107795000Y-105756071D01*
X107795000Y-105898929D01*
X107830714Y-105970357D01*
X107866429Y-106006071D01*
X107937857Y-106041786D01*
X108080714Y-106041786D01*
X108152143Y-106006071D01*
X108187857Y-105970357D01*
X108223572Y-105898929D01*
X108223572Y-105756071D01*
X108187857Y-105684643D01*
X108152143Y-105648929D01*
X108080714Y-105613214D01*
X108473572Y-105291786D02*
X108937858Y-105291786D01*
X108687858Y-105577500D01*
X108795000Y-105577500D01*
X108866429Y-105613214D01*
X108902143Y-105648929D01*
X108937858Y-105720357D01*
X108937858Y-105898929D01*
X108902143Y-105970357D01*
X108866429Y-106006071D01*
X108795000Y-106041786D01*
X108580715Y-106041786D01*
X108509286Y-106006071D01*
X108473572Y-105970357D01*
X109223572Y-105363214D02*
X109259286Y-105327500D01*
X109330715Y-105291786D01*
X109509286Y-105291786D01*
X109580715Y-105327500D01*
X109616429Y-105363214D01*
X109652144Y-105434643D01*
X109652144Y-105506071D01*
X109616429Y-105613214D01*
X109187858Y-106041786D01*
X109652144Y-106041786D01*
X110545001Y-106041786D02*
X110545001Y-105291786D01*
X110795001Y-105827500D01*
X111045001Y-105291786D01*
X111045001Y-106041786D01*
X111509287Y-106041786D02*
X111437859Y-106006071D01*
X111402144Y-105970357D01*
X111366430Y-105898929D01*
X111366430Y-105684643D01*
X111402144Y-105613214D01*
X111437859Y-105577500D01*
X111509287Y-105541786D01*
X111616430Y-105541786D01*
X111687859Y-105577500D01*
X111723573Y-105613214D01*
X111759287Y-105684643D01*
X111759287Y-105898929D01*
X111723573Y-105970357D01*
X111687859Y-106006071D01*
X111616430Y-106041786D01*
X111509287Y-106041786D01*
X112402144Y-106041786D02*
X112402144Y-105291786D01*
X112402144Y-106006071D02*
X112330715Y-106041786D01*
X112187858Y-106041786D01*
X112116430Y-106006071D01*
X112080715Y-105970357D01*
X112045001Y-105898929D01*
X112045001Y-105684643D01*
X112080715Y-105613214D01*
X112116430Y-105577500D01*
X112187858Y-105541786D01*
X112330715Y-105541786D01*
X112402144Y-105577500D01*
X113080715Y-105541786D02*
X113080715Y-106041786D01*
X112759286Y-105541786D02*
X112759286Y-105934643D01*
X112795001Y-106006071D01*
X112866429Y-106041786D01*
X112973572Y-106041786D01*
X113045001Y-106006071D01*
X113080715Y-105970357D01*
X113545000Y-106041786D02*
X113473572Y-106006071D01*
X113437857Y-105934643D01*
X113437857Y-105291786D01*
X114116429Y-106006071D02*
X114045000Y-106041786D01*
X113902143Y-106041786D01*
X113830714Y-106006071D01*
X113795000Y-105934643D01*
X113795000Y-105648929D01*
X113830714Y-105577500D01*
X113902143Y-105541786D01*
X114045000Y-105541786D01*
X114116429Y-105577500D01*
X114152143Y-105648929D01*
X114152143Y-105720357D01*
X113795000Y-105791786D01*
X99776190Y-132924284D02*
X99276190Y-132924284D01*
X99276190Y-132733808D01*
X99300000Y-132686189D01*
X99323810Y-132662380D01*
X99371429Y-132638570D01*
X99442857Y-132638570D01*
X99490476Y-132662380D01*
X99514286Y-132686189D01*
X99538095Y-132733808D01*
X99538095Y-132924284D01*
X99276190Y-132329046D02*
X99276190Y-132281427D01*
X99300000Y-132233808D01*
X99323810Y-132209999D01*
X99371429Y-132186189D01*
X99466667Y-132162380D01*
X99585714Y-132162380D01*
X99680952Y-132186189D01*
X99728571Y-132209999D01*
X99752381Y-132233808D01*
X99776190Y-132281427D01*
X99776190Y-132329046D01*
X99752381Y-132376665D01*
X99728571Y-132400475D01*
X99680952Y-132424284D01*
X99585714Y-132448094D01*
X99466667Y-132448094D01*
X99371429Y-132424284D01*
X99323810Y-132400475D01*
X99300000Y-132376665D01*
X99276190Y-132329046D01*
X99728571Y-131948094D02*
X99752381Y-131924285D01*
X99776190Y-131948094D01*
X99752381Y-131971904D01*
X99728571Y-131948094D01*
X99776190Y-131948094D01*
X99776190Y-131448095D02*
X99776190Y-131733809D01*
X99776190Y-131590952D02*
X99276190Y-131590952D01*
X99347619Y-131638571D01*
X99395238Y-131686190D01*
X99419048Y-131733809D01*
X99323810Y-131257619D02*
X99300000Y-131233809D01*
X99276190Y-131186190D01*
X99276190Y-131067143D01*
X99300000Y-131019524D01*
X99323810Y-130995714D01*
X99371429Y-130971905D01*
X99419048Y-130971905D01*
X99490476Y-130995714D01*
X99776190Y-131281428D01*
X99776190Y-130971905D01*
X99786190Y-130384284D02*
X99286190Y-130384284D01*
X99286190Y-130193808D01*
X99310000Y-130146189D01*
X99333810Y-130122380D01*
X99381429Y-130098570D01*
X99452857Y-130098570D01*
X99500476Y-130122380D01*
X99524286Y-130146189D01*
X99548095Y-130193808D01*
X99548095Y-130384284D01*
X99286190Y-129789046D02*
X99286190Y-129741427D01*
X99310000Y-129693808D01*
X99333810Y-129669999D01*
X99381429Y-129646189D01*
X99476667Y-129622380D01*
X99595714Y-129622380D01*
X99690952Y-129646189D01*
X99738571Y-129669999D01*
X99762381Y-129693808D01*
X99786190Y-129741427D01*
X99786190Y-129789046D01*
X99762381Y-129836665D01*
X99738571Y-129860475D01*
X99690952Y-129884284D01*
X99595714Y-129908094D01*
X99476667Y-129908094D01*
X99381429Y-129884284D01*
X99333810Y-129860475D01*
X99310000Y-129836665D01*
X99286190Y-129789046D01*
X99738571Y-129408094D02*
X99762381Y-129384285D01*
X99786190Y-129408094D01*
X99762381Y-129431904D01*
X99738571Y-129408094D01*
X99786190Y-129408094D01*
X99786190Y-128908095D02*
X99786190Y-129193809D01*
X99786190Y-129050952D02*
X99286190Y-129050952D01*
X99357619Y-129098571D01*
X99405238Y-129146190D01*
X99429048Y-129193809D01*
X99452857Y-128479524D02*
X99786190Y-128479524D01*
X99262381Y-128598571D02*
X99619524Y-128717619D01*
X99619524Y-128408095D01*
X99846190Y-127784284D02*
X99346190Y-127784284D01*
X99346190Y-127593808D01*
X99370000Y-127546189D01*
X99393810Y-127522380D01*
X99441429Y-127498570D01*
X99512857Y-127498570D01*
X99560476Y-127522380D01*
X99584286Y-127546189D01*
X99608095Y-127593808D01*
X99608095Y-127784284D01*
X99346190Y-127189046D02*
X99346190Y-127141427D01*
X99370000Y-127093808D01*
X99393810Y-127069999D01*
X99441429Y-127046189D01*
X99536667Y-127022380D01*
X99655714Y-127022380D01*
X99750952Y-127046189D01*
X99798571Y-127069999D01*
X99822381Y-127093808D01*
X99846190Y-127141427D01*
X99846190Y-127189046D01*
X99822381Y-127236665D01*
X99798571Y-127260475D01*
X99750952Y-127284284D01*
X99655714Y-127308094D01*
X99536667Y-127308094D01*
X99441429Y-127284284D01*
X99393810Y-127260475D01*
X99370000Y-127236665D01*
X99346190Y-127189046D01*
X99798571Y-126808094D02*
X99822381Y-126784285D01*
X99846190Y-126808094D01*
X99822381Y-126831904D01*
X99798571Y-126808094D01*
X99846190Y-126808094D01*
X99846190Y-126308095D02*
X99846190Y-126593809D01*
X99846190Y-126450952D02*
X99346190Y-126450952D01*
X99417619Y-126498571D01*
X99465238Y-126546190D01*
X99489048Y-126593809D01*
X99346190Y-126141428D02*
X99346190Y-125831905D01*
X99536667Y-125998571D01*
X99536667Y-125927143D01*
X99560476Y-125879524D01*
X99584286Y-125855714D01*
X99631905Y-125831905D01*
X99750952Y-125831905D01*
X99798571Y-125855714D01*
X99822381Y-125879524D01*
X99846190Y-125927143D01*
X99846190Y-126070000D01*
X99822381Y-126117619D01*
X99798571Y-126141428D01*
X119096190Y-140554284D02*
X118596190Y-140554284D01*
X118596190Y-140363808D01*
X118620000Y-140316189D01*
X118643810Y-140292380D01*
X118691429Y-140268570D01*
X118762857Y-140268570D01*
X118810476Y-140292380D01*
X118834286Y-140316189D01*
X118858095Y-140363808D01*
X118858095Y-140554284D01*
X118596190Y-139959046D02*
X118596190Y-139911427D01*
X118620000Y-139863808D01*
X118643810Y-139839999D01*
X118691429Y-139816189D01*
X118786667Y-139792380D01*
X118905714Y-139792380D01*
X119000952Y-139816189D01*
X119048571Y-139839999D01*
X119072381Y-139863808D01*
X119096190Y-139911427D01*
X119096190Y-139959046D01*
X119072381Y-140006665D01*
X119048571Y-140030475D01*
X119000952Y-140054284D01*
X118905714Y-140078094D01*
X118786667Y-140078094D01*
X118691429Y-140054284D01*
X118643810Y-140030475D01*
X118620000Y-140006665D01*
X118596190Y-139959046D01*
X119048571Y-139578094D02*
X119072381Y-139554285D01*
X119096190Y-139578094D01*
X119072381Y-139601904D01*
X119048571Y-139578094D01*
X119096190Y-139578094D01*
X118643810Y-139363809D02*
X118620000Y-139339999D01*
X118596190Y-139292380D01*
X118596190Y-139173333D01*
X118620000Y-139125714D01*
X118643810Y-139101904D01*
X118691429Y-139078095D01*
X118739048Y-139078095D01*
X118810476Y-139101904D01*
X119096190Y-139387618D01*
X119096190Y-139078095D01*
X118596190Y-138649524D02*
X118596190Y-138744762D01*
X118620000Y-138792381D01*
X118643810Y-138816190D01*
X118715238Y-138863809D01*
X118810476Y-138887619D01*
X119000952Y-138887619D01*
X119048571Y-138863809D01*
X119072381Y-138840000D01*
X119096190Y-138792381D01*
X119096190Y-138697143D01*
X119072381Y-138649524D01*
X119048571Y-138625714D01*
X119000952Y-138601905D01*
X118881905Y-138601905D01*
X118834286Y-138625714D01*
X118810476Y-138649524D01*
X118786667Y-138697143D01*
X118786667Y-138792381D01*
X118810476Y-138840000D01*
X118834286Y-138863809D01*
X118881905Y-138887619D01*
X119046190Y-143044284D02*
X118546190Y-143044284D01*
X118546190Y-142853808D01*
X118570000Y-142806189D01*
X118593810Y-142782380D01*
X118641429Y-142758570D01*
X118712857Y-142758570D01*
X118760476Y-142782380D01*
X118784286Y-142806189D01*
X118808095Y-142853808D01*
X118808095Y-143044284D01*
X118546190Y-142449046D02*
X118546190Y-142401427D01*
X118570000Y-142353808D01*
X118593810Y-142329999D01*
X118641429Y-142306189D01*
X118736667Y-142282380D01*
X118855714Y-142282380D01*
X118950952Y-142306189D01*
X118998571Y-142329999D01*
X119022381Y-142353808D01*
X119046190Y-142401427D01*
X119046190Y-142449046D01*
X119022381Y-142496665D01*
X118998571Y-142520475D01*
X118950952Y-142544284D01*
X118855714Y-142568094D01*
X118736667Y-142568094D01*
X118641429Y-142544284D01*
X118593810Y-142520475D01*
X118570000Y-142496665D01*
X118546190Y-142449046D01*
X118998571Y-142068094D02*
X119022381Y-142044285D01*
X119046190Y-142068094D01*
X119022381Y-142091904D01*
X118998571Y-142068094D01*
X119046190Y-142068094D01*
X118593810Y-141853809D02*
X118570000Y-141829999D01*
X118546190Y-141782380D01*
X118546190Y-141663333D01*
X118570000Y-141615714D01*
X118593810Y-141591904D01*
X118641429Y-141568095D01*
X118689048Y-141568095D01*
X118760476Y-141591904D01*
X119046190Y-141877618D01*
X119046190Y-141568095D01*
X118546190Y-141115714D02*
X118546190Y-141353809D01*
X118784286Y-141377619D01*
X118760476Y-141353809D01*
X118736667Y-141306190D01*
X118736667Y-141187143D01*
X118760476Y-141139524D01*
X118784286Y-141115714D01*
X118831905Y-141091905D01*
X118950952Y-141091905D01*
X118998571Y-141115714D01*
X119022381Y-141139524D01*
X119046190Y-141187143D01*
X119046190Y-141306190D01*
X119022381Y-141353809D01*
X118998571Y-141377619D01*
X99806190Y-142944284D02*
X99306190Y-142944284D01*
X99306190Y-142753808D01*
X99330000Y-142706189D01*
X99353810Y-142682380D01*
X99401429Y-142658570D01*
X99472857Y-142658570D01*
X99520476Y-142682380D01*
X99544286Y-142706189D01*
X99568095Y-142753808D01*
X99568095Y-142944284D01*
X99306190Y-142349046D02*
X99306190Y-142301427D01*
X99330000Y-142253808D01*
X99353810Y-142229999D01*
X99401429Y-142206189D01*
X99496667Y-142182380D01*
X99615714Y-142182380D01*
X99710952Y-142206189D01*
X99758571Y-142229999D01*
X99782381Y-142253808D01*
X99806190Y-142301427D01*
X99806190Y-142349046D01*
X99782381Y-142396665D01*
X99758571Y-142420475D01*
X99710952Y-142444284D01*
X99615714Y-142468094D01*
X99496667Y-142468094D01*
X99401429Y-142444284D01*
X99353810Y-142420475D01*
X99330000Y-142396665D01*
X99306190Y-142349046D01*
X99758571Y-141968094D02*
X99782381Y-141944285D01*
X99806190Y-141968094D01*
X99782381Y-141991904D01*
X99758571Y-141968094D01*
X99806190Y-141968094D01*
X99306190Y-141634761D02*
X99306190Y-141587142D01*
X99330000Y-141539523D01*
X99353810Y-141515714D01*
X99401429Y-141491904D01*
X99496667Y-141468095D01*
X99615714Y-141468095D01*
X99710952Y-141491904D01*
X99758571Y-141515714D01*
X99782381Y-141539523D01*
X99806190Y-141587142D01*
X99806190Y-141634761D01*
X99782381Y-141682380D01*
X99758571Y-141706190D01*
X99710952Y-141729999D01*
X99615714Y-141753809D01*
X99496667Y-141753809D01*
X99401429Y-141729999D01*
X99353810Y-141706190D01*
X99330000Y-141682380D01*
X99306190Y-141634761D01*
X99306190Y-141015714D02*
X99306190Y-141253809D01*
X99544286Y-141277619D01*
X99520476Y-141253809D01*
X99496667Y-141206190D01*
X99496667Y-141087143D01*
X99520476Y-141039524D01*
X99544286Y-141015714D01*
X99591905Y-140991905D01*
X99710952Y-140991905D01*
X99758571Y-141015714D01*
X99782381Y-141039524D01*
X99806190Y-141087143D01*
X99806190Y-141206190D01*
X99782381Y-141253809D01*
X99758571Y-141277619D01*
X99846190Y-140374284D02*
X99346190Y-140374284D01*
X99346190Y-140183808D01*
X99370000Y-140136189D01*
X99393810Y-140112380D01*
X99441429Y-140088570D01*
X99512857Y-140088570D01*
X99560476Y-140112380D01*
X99584286Y-140136189D01*
X99608095Y-140183808D01*
X99608095Y-140374284D01*
X99346190Y-139779046D02*
X99346190Y-139731427D01*
X99370000Y-139683808D01*
X99393810Y-139659999D01*
X99441429Y-139636189D01*
X99536667Y-139612380D01*
X99655714Y-139612380D01*
X99750952Y-139636189D01*
X99798571Y-139659999D01*
X99822381Y-139683808D01*
X99846190Y-139731427D01*
X99846190Y-139779046D01*
X99822381Y-139826665D01*
X99798571Y-139850475D01*
X99750952Y-139874284D01*
X99655714Y-139898094D01*
X99536667Y-139898094D01*
X99441429Y-139874284D01*
X99393810Y-139850475D01*
X99370000Y-139826665D01*
X99346190Y-139779046D01*
X99798571Y-139398094D02*
X99822381Y-139374285D01*
X99846190Y-139398094D01*
X99822381Y-139421904D01*
X99798571Y-139398094D01*
X99846190Y-139398094D01*
X99346190Y-139064761D02*
X99346190Y-139017142D01*
X99370000Y-138969523D01*
X99393810Y-138945714D01*
X99441429Y-138921904D01*
X99536667Y-138898095D01*
X99655714Y-138898095D01*
X99750952Y-138921904D01*
X99798571Y-138945714D01*
X99822381Y-138969523D01*
X99846190Y-139017142D01*
X99846190Y-139064761D01*
X99822381Y-139112380D01*
X99798571Y-139136190D01*
X99750952Y-139159999D01*
X99655714Y-139183809D01*
X99536667Y-139183809D01*
X99441429Y-139159999D01*
X99393810Y-139136190D01*
X99370000Y-139112380D01*
X99346190Y-139064761D01*
X99512857Y-138469524D02*
X99846190Y-138469524D01*
X99322381Y-138588571D02*
X99679524Y-138707619D01*
X99679524Y-138398095D01*
X99846190Y-137824284D02*
X99346190Y-137824284D01*
X99346190Y-137633808D01*
X99370000Y-137586189D01*
X99393810Y-137562380D01*
X99441429Y-137538570D01*
X99512857Y-137538570D01*
X99560476Y-137562380D01*
X99584286Y-137586189D01*
X99608095Y-137633808D01*
X99608095Y-137824284D01*
X99346190Y-137229046D02*
X99346190Y-137181427D01*
X99370000Y-137133808D01*
X99393810Y-137109999D01*
X99441429Y-137086189D01*
X99536667Y-137062380D01*
X99655714Y-137062380D01*
X99750952Y-137086189D01*
X99798571Y-137109999D01*
X99822381Y-137133808D01*
X99846190Y-137181427D01*
X99846190Y-137229046D01*
X99822381Y-137276665D01*
X99798571Y-137300475D01*
X99750952Y-137324284D01*
X99655714Y-137348094D01*
X99536667Y-137348094D01*
X99441429Y-137324284D01*
X99393810Y-137300475D01*
X99370000Y-137276665D01*
X99346190Y-137229046D01*
X99798571Y-136848094D02*
X99822381Y-136824285D01*
X99846190Y-136848094D01*
X99822381Y-136871904D01*
X99798571Y-136848094D01*
X99846190Y-136848094D01*
X99346190Y-136514761D02*
X99346190Y-136467142D01*
X99370000Y-136419523D01*
X99393810Y-136395714D01*
X99441429Y-136371904D01*
X99536667Y-136348095D01*
X99655714Y-136348095D01*
X99750952Y-136371904D01*
X99798571Y-136395714D01*
X99822381Y-136419523D01*
X99846190Y-136467142D01*
X99846190Y-136514761D01*
X99822381Y-136562380D01*
X99798571Y-136586190D01*
X99750952Y-136609999D01*
X99655714Y-136633809D01*
X99536667Y-136633809D01*
X99441429Y-136609999D01*
X99393810Y-136586190D01*
X99370000Y-136562380D01*
X99346190Y-136514761D01*
X99346190Y-136181428D02*
X99346190Y-135871905D01*
X99536667Y-136038571D01*
X99536667Y-135967143D01*
X99560476Y-135919524D01*
X99584286Y-135895714D01*
X99631905Y-135871905D01*
X99750952Y-135871905D01*
X99798571Y-135895714D01*
X99822381Y-135919524D01*
X99846190Y-135967143D01*
X99846190Y-136110000D01*
X99822381Y-136157619D01*
X99798571Y-136181428D01*
X99846190Y-135324284D02*
X99346190Y-135324284D01*
X99346190Y-135133808D01*
X99370000Y-135086189D01*
X99393810Y-135062380D01*
X99441429Y-135038570D01*
X99512857Y-135038570D01*
X99560476Y-135062380D01*
X99584286Y-135086189D01*
X99608095Y-135133808D01*
X99608095Y-135324284D01*
X99346190Y-134729046D02*
X99346190Y-134681427D01*
X99370000Y-134633808D01*
X99393810Y-134609999D01*
X99441429Y-134586189D01*
X99536667Y-134562380D01*
X99655714Y-134562380D01*
X99750952Y-134586189D01*
X99798571Y-134609999D01*
X99822381Y-134633808D01*
X99846190Y-134681427D01*
X99846190Y-134729046D01*
X99822381Y-134776665D01*
X99798571Y-134800475D01*
X99750952Y-134824284D01*
X99655714Y-134848094D01*
X99536667Y-134848094D01*
X99441429Y-134824284D01*
X99393810Y-134800475D01*
X99370000Y-134776665D01*
X99346190Y-134729046D01*
X99798571Y-134348094D02*
X99822381Y-134324285D01*
X99846190Y-134348094D01*
X99822381Y-134371904D01*
X99798571Y-134348094D01*
X99846190Y-134348094D01*
X99346190Y-134014761D02*
X99346190Y-133967142D01*
X99370000Y-133919523D01*
X99393810Y-133895714D01*
X99441429Y-133871904D01*
X99536667Y-133848095D01*
X99655714Y-133848095D01*
X99750952Y-133871904D01*
X99798571Y-133895714D01*
X99822381Y-133919523D01*
X99846190Y-133967142D01*
X99846190Y-134014761D01*
X99822381Y-134062380D01*
X99798571Y-134086190D01*
X99750952Y-134109999D01*
X99655714Y-134133809D01*
X99536667Y-134133809D01*
X99441429Y-134109999D01*
X99393810Y-134086190D01*
X99370000Y-134062380D01*
X99346190Y-134014761D01*
X99393810Y-133657619D02*
X99370000Y-133633809D01*
X99346190Y-133586190D01*
X99346190Y-133467143D01*
X99370000Y-133419524D01*
X99393810Y-133395714D01*
X99441429Y-133371905D01*
X99489048Y-133371905D01*
X99560476Y-133395714D01*
X99846190Y-133681428D01*
X99846190Y-133371905D01*
X99866190Y-125214284D02*
X99366190Y-125214284D01*
X99366190Y-125023808D01*
X99390000Y-124976189D01*
X99413810Y-124952380D01*
X99461429Y-124928570D01*
X99532857Y-124928570D01*
X99580476Y-124952380D01*
X99604286Y-124976189D01*
X99628095Y-125023808D01*
X99628095Y-125214284D01*
X99366190Y-124619046D02*
X99366190Y-124571427D01*
X99390000Y-124523808D01*
X99413810Y-124499999D01*
X99461429Y-124476189D01*
X99556667Y-124452380D01*
X99675714Y-124452380D01*
X99770952Y-124476189D01*
X99818571Y-124499999D01*
X99842381Y-124523808D01*
X99866190Y-124571427D01*
X99866190Y-124619046D01*
X99842381Y-124666665D01*
X99818571Y-124690475D01*
X99770952Y-124714284D01*
X99675714Y-124738094D01*
X99556667Y-124738094D01*
X99461429Y-124714284D01*
X99413810Y-124690475D01*
X99390000Y-124666665D01*
X99366190Y-124619046D01*
X99818571Y-124238094D02*
X99842381Y-124214285D01*
X99866190Y-124238094D01*
X99842381Y-124261904D01*
X99818571Y-124238094D01*
X99866190Y-124238094D01*
X99866190Y-123738095D02*
X99866190Y-124023809D01*
X99866190Y-123880952D02*
X99366190Y-123880952D01*
X99437619Y-123928571D01*
X99485238Y-123976190D01*
X99509048Y-124023809D01*
X99866190Y-123261905D02*
X99866190Y-123547619D01*
X99866190Y-123404762D02*
X99366190Y-123404762D01*
X99437619Y-123452381D01*
X99485238Y-123500000D01*
X99509048Y-123547619D01*
X119106190Y-125164284D02*
X118606190Y-125164284D01*
X118606190Y-124973808D01*
X118630000Y-124926189D01*
X118653810Y-124902380D01*
X118701429Y-124878570D01*
X118772857Y-124878570D01*
X118820476Y-124902380D01*
X118844286Y-124926189D01*
X118868095Y-124973808D01*
X118868095Y-125164284D01*
X118606190Y-124569046D02*
X118606190Y-124521427D01*
X118630000Y-124473808D01*
X118653810Y-124449999D01*
X118701429Y-124426189D01*
X118796667Y-124402380D01*
X118915714Y-124402380D01*
X119010952Y-124426189D01*
X119058571Y-124449999D01*
X119082381Y-124473808D01*
X119106190Y-124521427D01*
X119106190Y-124569046D01*
X119082381Y-124616665D01*
X119058571Y-124640475D01*
X119010952Y-124664284D01*
X118915714Y-124688094D01*
X118796667Y-124688094D01*
X118701429Y-124664284D01*
X118653810Y-124640475D01*
X118630000Y-124616665D01*
X118606190Y-124569046D01*
X119058571Y-124188094D02*
X119082381Y-124164285D01*
X119106190Y-124188094D01*
X119082381Y-124211904D01*
X119058571Y-124188094D01*
X119106190Y-124188094D01*
X119106190Y-123688095D02*
X119106190Y-123973809D01*
X119106190Y-123830952D02*
X118606190Y-123830952D01*
X118677619Y-123878571D01*
X118725238Y-123926190D01*
X118749048Y-123973809D01*
X118606190Y-123259524D02*
X118606190Y-123354762D01*
X118630000Y-123402381D01*
X118653810Y-123426190D01*
X118725238Y-123473809D01*
X118820476Y-123497619D01*
X119010952Y-123497619D01*
X119058571Y-123473809D01*
X119082381Y-123450000D01*
X119106190Y-123402381D01*
X119106190Y-123307143D01*
X119082381Y-123259524D01*
X119058571Y-123235714D01*
X119010952Y-123211905D01*
X118891905Y-123211905D01*
X118844286Y-123235714D01*
X118820476Y-123259524D01*
X118796667Y-123307143D01*
X118796667Y-123402381D01*
X118820476Y-123450000D01*
X118844286Y-123473809D01*
X118891905Y-123497619D01*
X119106190Y-127764284D02*
X118606190Y-127764284D01*
X118606190Y-127573808D01*
X118630000Y-127526189D01*
X118653810Y-127502380D01*
X118701429Y-127478570D01*
X118772857Y-127478570D01*
X118820476Y-127502380D01*
X118844286Y-127526189D01*
X118868095Y-127573808D01*
X118868095Y-127764284D01*
X118606190Y-127169046D02*
X118606190Y-127121427D01*
X118630000Y-127073808D01*
X118653810Y-127049999D01*
X118701429Y-127026189D01*
X118796667Y-127002380D01*
X118915714Y-127002380D01*
X119010952Y-127026189D01*
X119058571Y-127049999D01*
X119082381Y-127073808D01*
X119106190Y-127121427D01*
X119106190Y-127169046D01*
X119082381Y-127216665D01*
X119058571Y-127240475D01*
X119010952Y-127264284D01*
X118915714Y-127288094D01*
X118796667Y-127288094D01*
X118701429Y-127264284D01*
X118653810Y-127240475D01*
X118630000Y-127216665D01*
X118606190Y-127169046D01*
X119058571Y-126788094D02*
X119082381Y-126764285D01*
X119106190Y-126788094D01*
X119082381Y-126811904D01*
X119058571Y-126788094D01*
X119106190Y-126788094D01*
X119106190Y-126288095D02*
X119106190Y-126573809D01*
X119106190Y-126430952D02*
X118606190Y-126430952D01*
X118677619Y-126478571D01*
X118725238Y-126526190D01*
X118749048Y-126573809D01*
X118606190Y-125835714D02*
X118606190Y-126073809D01*
X118844286Y-126097619D01*
X118820476Y-126073809D01*
X118796667Y-126026190D01*
X118796667Y-125907143D01*
X118820476Y-125859524D01*
X118844286Y-125835714D01*
X118891905Y-125811905D01*
X119010952Y-125811905D01*
X119058571Y-125835714D01*
X119082381Y-125859524D01*
X119106190Y-125907143D01*
X119106190Y-126026190D01*
X119082381Y-126073809D01*
X119058571Y-126097619D01*
X119116190Y-130324284D02*
X118616190Y-130324284D01*
X118616190Y-130133808D01*
X118640000Y-130086189D01*
X118663810Y-130062380D01*
X118711429Y-130038570D01*
X118782857Y-130038570D01*
X118830476Y-130062380D01*
X118854286Y-130086189D01*
X118878095Y-130133808D01*
X118878095Y-130324284D01*
X118616190Y-129729046D02*
X118616190Y-129681427D01*
X118640000Y-129633808D01*
X118663810Y-129609999D01*
X118711429Y-129586189D01*
X118806667Y-129562380D01*
X118925714Y-129562380D01*
X119020952Y-129586189D01*
X119068571Y-129609999D01*
X119092381Y-129633808D01*
X119116190Y-129681427D01*
X119116190Y-129729046D01*
X119092381Y-129776665D01*
X119068571Y-129800475D01*
X119020952Y-129824284D01*
X118925714Y-129848094D01*
X118806667Y-129848094D01*
X118711429Y-129824284D01*
X118663810Y-129800475D01*
X118640000Y-129776665D01*
X118616190Y-129729046D01*
X119068571Y-129348094D02*
X119092381Y-129324285D01*
X119116190Y-129348094D01*
X119092381Y-129371904D01*
X119068571Y-129348094D01*
X119116190Y-129348094D01*
X118616190Y-129157618D02*
X118616190Y-128848095D01*
X118806667Y-129014761D01*
X118806667Y-128943333D01*
X118830476Y-128895714D01*
X118854286Y-128871904D01*
X118901905Y-128848095D01*
X119020952Y-128848095D01*
X119068571Y-128871904D01*
X119092381Y-128895714D01*
X119116190Y-128943333D01*
X119116190Y-129086190D01*
X119092381Y-129133809D01*
X119068571Y-129157618D01*
X118616190Y-128538571D02*
X118616190Y-128490952D01*
X118640000Y-128443333D01*
X118663810Y-128419524D01*
X118711429Y-128395714D01*
X118806667Y-128371905D01*
X118925714Y-128371905D01*
X119020952Y-128395714D01*
X119068571Y-128419524D01*
X119092381Y-128443333D01*
X119116190Y-128490952D01*
X119116190Y-128538571D01*
X119092381Y-128586190D01*
X119068571Y-128610000D01*
X119020952Y-128633809D01*
X118925714Y-128657619D01*
X118806667Y-128657619D01*
X118711429Y-128633809D01*
X118663810Y-128610000D01*
X118640000Y-128586190D01*
X118616190Y-128538571D01*
X119136190Y-132814284D02*
X118636190Y-132814284D01*
X118636190Y-132623808D01*
X118660000Y-132576189D01*
X118683810Y-132552380D01*
X118731429Y-132528570D01*
X118802857Y-132528570D01*
X118850476Y-132552380D01*
X118874286Y-132576189D01*
X118898095Y-132623808D01*
X118898095Y-132814284D01*
X118636190Y-132219046D02*
X118636190Y-132171427D01*
X118660000Y-132123808D01*
X118683810Y-132099999D01*
X118731429Y-132076189D01*
X118826667Y-132052380D01*
X118945714Y-132052380D01*
X119040952Y-132076189D01*
X119088571Y-132099999D01*
X119112381Y-132123808D01*
X119136190Y-132171427D01*
X119136190Y-132219046D01*
X119112381Y-132266665D01*
X119088571Y-132290475D01*
X119040952Y-132314284D01*
X118945714Y-132338094D01*
X118826667Y-132338094D01*
X118731429Y-132314284D01*
X118683810Y-132290475D01*
X118660000Y-132266665D01*
X118636190Y-132219046D01*
X119088571Y-131838094D02*
X119112381Y-131814285D01*
X119136190Y-131838094D01*
X119112381Y-131861904D01*
X119088571Y-131838094D01*
X119136190Y-131838094D01*
X118683810Y-131623809D02*
X118660000Y-131599999D01*
X118636190Y-131552380D01*
X118636190Y-131433333D01*
X118660000Y-131385714D01*
X118683810Y-131361904D01*
X118731429Y-131338095D01*
X118779048Y-131338095D01*
X118850476Y-131361904D01*
X119136190Y-131647618D01*
X119136190Y-131338095D01*
X119136190Y-131100000D02*
X119136190Y-131004762D01*
X119112381Y-130957143D01*
X119088571Y-130933333D01*
X119017143Y-130885714D01*
X118921905Y-130861905D01*
X118731429Y-130861905D01*
X118683810Y-130885714D01*
X118660000Y-130909524D01*
X118636190Y-130957143D01*
X118636190Y-131052381D01*
X118660000Y-131100000D01*
X118683810Y-131123809D01*
X118731429Y-131147619D01*
X118850476Y-131147619D01*
X118898095Y-131123809D01*
X118921905Y-131100000D01*
X118945714Y-131052381D01*
X118945714Y-130957143D01*
X118921905Y-130909524D01*
X118898095Y-130885714D01*
X118850476Y-130861905D01*
X119076190Y-135404284D02*
X118576190Y-135404284D01*
X118576190Y-135213808D01*
X118600000Y-135166189D01*
X118623810Y-135142380D01*
X118671429Y-135118570D01*
X118742857Y-135118570D01*
X118790476Y-135142380D01*
X118814286Y-135166189D01*
X118838095Y-135213808D01*
X118838095Y-135404284D01*
X118576190Y-134809046D02*
X118576190Y-134761427D01*
X118600000Y-134713808D01*
X118623810Y-134689999D01*
X118671429Y-134666189D01*
X118766667Y-134642380D01*
X118885714Y-134642380D01*
X118980952Y-134666189D01*
X119028571Y-134689999D01*
X119052381Y-134713808D01*
X119076190Y-134761427D01*
X119076190Y-134809046D01*
X119052381Y-134856665D01*
X119028571Y-134880475D01*
X118980952Y-134904284D01*
X118885714Y-134928094D01*
X118766667Y-134928094D01*
X118671429Y-134904284D01*
X118623810Y-134880475D01*
X118600000Y-134856665D01*
X118576190Y-134809046D01*
X119028571Y-134428094D02*
X119052381Y-134404285D01*
X119076190Y-134428094D01*
X119052381Y-134451904D01*
X119028571Y-134428094D01*
X119076190Y-134428094D01*
X118623810Y-134213809D02*
X118600000Y-134189999D01*
X118576190Y-134142380D01*
X118576190Y-134023333D01*
X118600000Y-133975714D01*
X118623810Y-133951904D01*
X118671429Y-133928095D01*
X118719048Y-133928095D01*
X118790476Y-133951904D01*
X119076190Y-134237618D01*
X119076190Y-133928095D01*
X118790476Y-133642381D02*
X118766667Y-133690000D01*
X118742857Y-133713809D01*
X118695238Y-133737619D01*
X118671429Y-133737619D01*
X118623810Y-133713809D01*
X118600000Y-133690000D01*
X118576190Y-133642381D01*
X118576190Y-133547143D01*
X118600000Y-133499524D01*
X118623810Y-133475714D01*
X118671429Y-133451905D01*
X118695238Y-133451905D01*
X118742857Y-133475714D01*
X118766667Y-133499524D01*
X118790476Y-133547143D01*
X118790476Y-133642381D01*
X118814286Y-133690000D01*
X118838095Y-133713809D01*
X118885714Y-133737619D01*
X118980952Y-133737619D01*
X119028571Y-133713809D01*
X119052381Y-133690000D01*
X119076190Y-133642381D01*
X119076190Y-133547143D01*
X119052381Y-133499524D01*
X119028571Y-133475714D01*
X118980952Y-133451905D01*
X118885714Y-133451905D01*
X118838095Y-133475714D01*
X118814286Y-133499524D01*
X118790476Y-133547143D01*
X119086190Y-137924284D02*
X118586190Y-137924284D01*
X118586190Y-137733808D01*
X118610000Y-137686189D01*
X118633810Y-137662380D01*
X118681429Y-137638570D01*
X118752857Y-137638570D01*
X118800476Y-137662380D01*
X118824286Y-137686189D01*
X118848095Y-137733808D01*
X118848095Y-137924284D01*
X118586190Y-137329046D02*
X118586190Y-137281427D01*
X118610000Y-137233808D01*
X118633810Y-137209999D01*
X118681429Y-137186189D01*
X118776667Y-137162380D01*
X118895714Y-137162380D01*
X118990952Y-137186189D01*
X119038571Y-137209999D01*
X119062381Y-137233808D01*
X119086190Y-137281427D01*
X119086190Y-137329046D01*
X119062381Y-137376665D01*
X119038571Y-137400475D01*
X118990952Y-137424284D01*
X118895714Y-137448094D01*
X118776667Y-137448094D01*
X118681429Y-137424284D01*
X118633810Y-137400475D01*
X118610000Y-137376665D01*
X118586190Y-137329046D01*
X119038571Y-136948094D02*
X119062381Y-136924285D01*
X119086190Y-136948094D01*
X119062381Y-136971904D01*
X119038571Y-136948094D01*
X119086190Y-136948094D01*
X118633810Y-136733809D02*
X118610000Y-136709999D01*
X118586190Y-136662380D01*
X118586190Y-136543333D01*
X118610000Y-136495714D01*
X118633810Y-136471904D01*
X118681429Y-136448095D01*
X118729048Y-136448095D01*
X118800476Y-136471904D01*
X119086190Y-136757618D01*
X119086190Y-136448095D01*
X118586190Y-136281428D02*
X118586190Y-135948095D01*
X119086190Y-136162381D01*
X119116190Y-150564284D02*
X118616190Y-150564284D01*
X118616190Y-150373808D01*
X118640000Y-150326189D01*
X118663810Y-150302380D01*
X118711429Y-150278570D01*
X118782857Y-150278570D01*
X118830476Y-150302380D01*
X118854286Y-150326189D01*
X118878095Y-150373808D01*
X118878095Y-150564284D01*
X118616190Y-149969046D02*
X118616190Y-149921427D01*
X118640000Y-149873808D01*
X118663810Y-149849999D01*
X118711429Y-149826189D01*
X118806667Y-149802380D01*
X118925714Y-149802380D01*
X119020952Y-149826189D01*
X119068571Y-149849999D01*
X119092381Y-149873808D01*
X119116190Y-149921427D01*
X119116190Y-149969046D01*
X119092381Y-150016665D01*
X119068571Y-150040475D01*
X119020952Y-150064284D01*
X118925714Y-150088094D01*
X118806667Y-150088094D01*
X118711429Y-150064284D01*
X118663810Y-150040475D01*
X118640000Y-150016665D01*
X118616190Y-149969046D01*
X119068571Y-149588094D02*
X119092381Y-149564285D01*
X119116190Y-149588094D01*
X119092381Y-149611904D01*
X119068571Y-149588094D01*
X119116190Y-149588094D01*
X118616190Y-149254761D02*
X118616190Y-149207142D01*
X118640000Y-149159523D01*
X118663810Y-149135714D01*
X118711429Y-149111904D01*
X118806667Y-149088095D01*
X118925714Y-149088095D01*
X119020952Y-149111904D01*
X119068571Y-149135714D01*
X119092381Y-149159523D01*
X119116190Y-149207142D01*
X119116190Y-149254761D01*
X119092381Y-149302380D01*
X119068571Y-149326190D01*
X119020952Y-149349999D01*
X118925714Y-149373809D01*
X118806667Y-149373809D01*
X118711429Y-149349999D01*
X118663810Y-149326190D01*
X118640000Y-149302380D01*
X118616190Y-149254761D01*
X118616190Y-148921428D02*
X118616190Y-148588095D01*
X119116190Y-148802381D01*
X119056190Y-153084284D02*
X118556190Y-153084284D01*
X118556190Y-152893808D01*
X118580000Y-152846189D01*
X118603810Y-152822380D01*
X118651429Y-152798570D01*
X118722857Y-152798570D01*
X118770476Y-152822380D01*
X118794286Y-152846189D01*
X118818095Y-152893808D01*
X118818095Y-153084284D01*
X118556190Y-152489046D02*
X118556190Y-152441427D01*
X118580000Y-152393808D01*
X118603810Y-152369999D01*
X118651429Y-152346189D01*
X118746667Y-152322380D01*
X118865714Y-152322380D01*
X118960952Y-152346189D01*
X119008571Y-152369999D01*
X119032381Y-152393808D01*
X119056190Y-152441427D01*
X119056190Y-152489046D01*
X119032381Y-152536665D01*
X119008571Y-152560475D01*
X118960952Y-152584284D01*
X118865714Y-152608094D01*
X118746667Y-152608094D01*
X118651429Y-152584284D01*
X118603810Y-152560475D01*
X118580000Y-152536665D01*
X118556190Y-152489046D01*
X119008571Y-152108094D02*
X119032381Y-152084285D01*
X119056190Y-152108094D01*
X119032381Y-152131904D01*
X119008571Y-152108094D01*
X119056190Y-152108094D01*
X119056190Y-151608095D02*
X119056190Y-151893809D01*
X119056190Y-151750952D02*
X118556190Y-151750952D01*
X118627619Y-151798571D01*
X118675238Y-151846190D01*
X118699048Y-151893809D01*
X118556190Y-151441428D02*
X118556190Y-151108095D01*
X119056190Y-151322381D01*
X107124572Y-126498000D02*
X107053143Y-126462286D01*
X106946000Y-126462286D01*
X106838857Y-126498000D01*
X106767429Y-126569429D01*
X106731714Y-126640857D01*
X106696000Y-126783714D01*
X106696000Y-126890857D01*
X106731714Y-127033714D01*
X106767429Y-127105143D01*
X106838857Y-127176571D01*
X106946000Y-127212286D01*
X107017429Y-127212286D01*
X107124572Y-127176571D01*
X107160286Y-127140857D01*
X107160286Y-126890857D01*
X107017429Y-126890857D01*
X107481714Y-127212286D02*
X107481714Y-126462286D01*
X107910286Y-127212286D01*
X107910286Y-126462286D01*
X108267428Y-127212286D02*
X108267428Y-126462286D01*
X108446000Y-126462286D01*
X108553143Y-126498000D01*
X108624571Y-126569429D01*
X108660286Y-126640857D01*
X108696000Y-126783714D01*
X108696000Y-126890857D01*
X108660286Y-127033714D01*
X108624571Y-127105143D01*
X108553143Y-127176571D01*
X108446000Y-127212286D01*
X108267428Y-127212286D01*
X107173572Y-130259286D02*
X107602143Y-130259286D01*
X107387857Y-131009286D02*
X107387857Y-130259286D01*
X107780715Y-130259286D02*
X108280715Y-131009286D01*
X108280715Y-130259286D02*
X107780715Y-131009286D01*
X108566429Y-131009286D02*
X108566429Y-130259286D01*
X108745001Y-130259286D01*
X108852144Y-130295000D01*
X108923572Y-130366429D01*
X108959287Y-130437857D01*
X108995001Y-130580714D01*
X108995001Y-130687857D01*
X108959287Y-130830714D01*
X108923572Y-130902143D01*
X108852144Y-130973571D01*
X108745001Y-131009286D01*
X108566429Y-131009286D01*
X113490000Y-131229286D02*
X113240000Y-130872143D01*
X113061428Y-131229286D02*
X113061428Y-130479286D01*
X113347143Y-130479286D01*
X113418571Y-130515000D01*
X113454286Y-130550714D01*
X113490000Y-130622143D01*
X113490000Y-130729286D01*
X113454286Y-130800714D01*
X113418571Y-130836429D01*
X113347143Y-130872143D01*
X113061428Y-130872143D01*
X113740000Y-130479286D02*
X114240000Y-131229286D01*
X114240000Y-130479286D02*
X113740000Y-131229286D01*
X114525714Y-131229286D02*
X114525714Y-130479286D01*
X114704286Y-130479286D01*
X114811429Y-130515000D01*
X114882857Y-130586429D01*
X114918572Y-130657857D01*
X114954286Y-130800714D01*
X114954286Y-130907857D01*
X114918572Y-131050714D01*
X114882857Y-131122143D01*
X114811429Y-131193571D01*
X114704286Y-131229286D01*
X114525714Y-131229286D01*
X113040001Y-127449286D02*
X113290001Y-128199286D01*
X113540001Y-127449286D01*
X114218572Y-128127857D02*
X114182858Y-128163571D01*
X114075715Y-128199286D01*
X114004286Y-128199286D01*
X113897143Y-128163571D01*
X113825715Y-128092143D01*
X113790000Y-128020714D01*
X113754286Y-127877857D01*
X113754286Y-127770714D01*
X113790000Y-127627857D01*
X113825715Y-127556429D01*
X113897143Y-127485000D01*
X114004286Y-127449286D01*
X114075715Y-127449286D01*
X114182858Y-127485000D01*
X114218572Y-127520714D01*
X114968572Y-128127857D02*
X114932858Y-128163571D01*
X114825715Y-128199286D01*
X114754286Y-128199286D01*
X114647143Y-128163571D01*
X114575715Y-128092143D01*
X114540000Y-128020714D01*
X114504286Y-127877857D01*
X114504286Y-127770714D01*
X114540000Y-127627857D01*
X114575715Y-127556429D01*
X114647143Y-127485000D01*
X114754286Y-127449286D01*
X114825715Y-127449286D01*
X114932858Y-127485000D01*
X114968572Y-127520714D01*
X112972143Y-125773571D02*
X113079286Y-125809286D01*
X113257857Y-125809286D01*
X113329286Y-125773571D01*
X113365000Y-125737857D01*
X113400715Y-125666429D01*
X113400715Y-125595000D01*
X113365000Y-125523571D01*
X113329286Y-125487857D01*
X113257857Y-125452143D01*
X113115000Y-125416429D01*
X113043572Y-125380714D01*
X113007857Y-125345000D01*
X112972143Y-125273571D01*
X112972143Y-125202143D01*
X113007857Y-125130714D01*
X113043572Y-125095000D01*
X113115000Y-125059286D01*
X113293572Y-125059286D01*
X113400715Y-125095000D01*
X113650715Y-125059286D02*
X113829286Y-125809286D01*
X113972143Y-125273571D01*
X114115001Y-125809286D01*
X114293572Y-125059286D01*
X114579286Y-125809286D02*
X114579286Y-125059286D01*
X114757858Y-125059286D01*
X114865001Y-125095000D01*
X114936429Y-125166429D01*
X114972144Y-125237857D01*
X115007858Y-125380714D01*
X115007858Y-125487857D01*
X114972144Y-125630714D01*
X114936429Y-125702143D01*
X114865001Y-125773571D01*
X114757858Y-125809286D01*
X114579286Y-125809286D01*
X115757858Y-125737857D02*
X115722144Y-125773571D01*
X115615001Y-125809286D01*
X115543572Y-125809286D01*
X115436429Y-125773571D01*
X115365001Y-125702143D01*
X115329286Y-125630714D01*
X115293572Y-125487857D01*
X115293572Y-125380714D01*
X115329286Y-125237857D01*
X115365001Y-125166429D01*
X115436429Y-125095000D01*
X115543572Y-125059286D01*
X115615001Y-125059286D01*
X115722144Y-125095000D01*
X115757858Y-125130714D01*
X116079286Y-125809286D02*
X116079286Y-125059286D01*
X116507858Y-125809286D02*
X116186429Y-125380714D01*
X116507858Y-125059286D02*
X116079286Y-125487857D01*
X105598714Y-124636571D02*
X105705857Y-124672286D01*
X105884428Y-124672286D01*
X105955857Y-124636571D01*
X105991571Y-124600857D01*
X106027286Y-124529429D01*
X106027286Y-124458000D01*
X105991571Y-124386571D01*
X105955857Y-124350857D01*
X105884428Y-124315143D01*
X105741571Y-124279429D01*
X105670143Y-124243714D01*
X105634428Y-124208000D01*
X105598714Y-124136571D01*
X105598714Y-124065143D01*
X105634428Y-123993714D01*
X105670143Y-123958000D01*
X105741571Y-123922286D01*
X105920143Y-123922286D01*
X106027286Y-123958000D01*
X106277286Y-123922286D02*
X106455857Y-124672286D01*
X106598714Y-124136571D01*
X106741572Y-124672286D01*
X106920143Y-123922286D01*
X107205857Y-124672286D02*
X107205857Y-123922286D01*
X107384429Y-123922286D01*
X107491572Y-123958000D01*
X107563000Y-124029429D01*
X107598715Y-124100857D01*
X107634429Y-124243714D01*
X107634429Y-124350857D01*
X107598715Y-124493714D01*
X107563000Y-124565143D01*
X107491572Y-124636571D01*
X107384429Y-124672286D01*
X107205857Y-124672286D01*
X107955857Y-124672286D02*
X107955857Y-123922286D01*
X108455858Y-123922286D02*
X108598715Y-123922286D01*
X108670143Y-123958000D01*
X108741572Y-124029429D01*
X108777286Y-124172286D01*
X108777286Y-124422286D01*
X108741572Y-124565143D01*
X108670143Y-124636571D01*
X108598715Y-124672286D01*
X108455858Y-124672286D01*
X108384429Y-124636571D01*
X108313000Y-124565143D01*
X108277286Y-124422286D01*
X108277286Y-124172286D01*
X108313000Y-124029429D01*
X108384429Y-123958000D01*
X108455858Y-123922286D01*
X104433571Y-135578571D02*
X104433571Y-135007142D01*
X104719286Y-135292856D02*
X104147857Y-135292856D01*
X104326429Y-134400000D02*
X104362143Y-134292857D01*
X104397857Y-134257142D01*
X104469286Y-134221428D01*
X104576429Y-134221428D01*
X104647857Y-134257142D01*
X104683571Y-134292857D01*
X104719286Y-134364285D01*
X104719286Y-134650000D01*
X103969286Y-134650000D01*
X103969286Y-134400000D01*
X104005000Y-134328571D01*
X104040714Y-134292857D01*
X104112143Y-134257142D01*
X104183571Y-134257142D01*
X104255000Y-134292857D01*
X104290714Y-134328571D01*
X104326429Y-134400000D01*
X104326429Y-134650000D01*
X104719286Y-133578571D02*
X104326429Y-133578571D01*
X104255000Y-133614285D01*
X104219286Y-133685714D01*
X104219286Y-133828571D01*
X104255000Y-133900000D01*
X104683571Y-133578571D02*
X104719286Y-133650000D01*
X104719286Y-133828571D01*
X104683571Y-133900000D01*
X104612143Y-133935714D01*
X104540714Y-133935714D01*
X104469286Y-133900000D01*
X104433571Y-133828571D01*
X104433571Y-133650000D01*
X104397857Y-133578571D01*
X104219286Y-133328571D02*
X104219286Y-133042857D01*
X103969286Y-133221429D02*
X104612143Y-133221429D01*
X104683571Y-133185714D01*
X104719286Y-133114286D01*
X104719286Y-133042857D01*
X104219286Y-132900000D02*
X104219286Y-132614286D01*
X103969286Y-132792858D02*
X104612143Y-132792858D01*
X104683571Y-132757143D01*
X104719286Y-132685715D01*
X104719286Y-132614286D01*
X104245000Y-137481428D02*
X104209286Y-137552857D01*
X104209286Y-137660000D01*
X104245000Y-137767143D01*
X104316429Y-137838571D01*
X104387857Y-137874286D01*
X104530714Y-137910000D01*
X104637857Y-137910000D01*
X104780714Y-137874286D01*
X104852143Y-137838571D01*
X104923571Y-137767143D01*
X104959286Y-137660000D01*
X104959286Y-137588571D01*
X104923571Y-137481428D01*
X104887857Y-137445714D01*
X104637857Y-137445714D01*
X104637857Y-137588571D01*
X104959286Y-137124286D02*
X104209286Y-137124286D01*
X104959286Y-136695714D01*
X104209286Y-136695714D01*
X104959286Y-136338572D02*
X104209286Y-136338572D01*
X104209286Y-136160000D01*
X104245000Y-136052857D01*
X104316429Y-135981429D01*
X104387857Y-135945714D01*
X104530714Y-135910000D01*
X104637857Y-135910000D01*
X104780714Y-135945714D01*
X104852143Y-135981429D01*
X104923571Y-136052857D01*
X104959286Y-136160000D01*
X104959286Y-136338572D01*
D12*
X104600952Y-99147381D02*
X104600952Y-99861667D01*
X104553332Y-100004524D01*
X104458094Y-100099762D01*
X104315237Y-100147381D01*
X104219999Y-100147381D01*
X105553333Y-100147381D02*
X105077142Y-100147381D01*
X105077142Y-99147381D01*
X106458095Y-100052143D02*
X106410476Y-100099762D01*
X106267619Y-100147381D01*
X106172381Y-100147381D01*
X106029523Y-100099762D01*
X105934285Y-100004524D01*
X105886666Y-99909286D01*
X105839047Y-99718810D01*
X105839047Y-99575952D01*
X105886666Y-99385476D01*
X105934285Y-99290238D01*
X106029523Y-99195000D01*
X106172381Y-99147381D01*
X106267619Y-99147381D01*
X106410476Y-99195000D01*
X106458095Y-99242619D01*
X107172381Y-99147381D02*
X107172381Y-99861667D01*
X107124761Y-100004524D01*
X107029523Y-100099762D01*
X106886666Y-100147381D01*
X106791428Y-100147381D01*
X108124762Y-100147381D02*
X107648571Y-100147381D01*
X107648571Y-99147381D01*
X109029524Y-100052143D02*
X108981905Y-100099762D01*
X108839048Y-100147381D01*
X108743810Y-100147381D01*
X108600952Y-100099762D01*
X108505714Y-100004524D01*
X108458095Y-99909286D01*
X108410476Y-99718810D01*
X108410476Y-99575952D01*
X108458095Y-99385476D01*
X108505714Y-99290238D01*
X108600952Y-99195000D01*
X108743810Y-99147381D01*
X108839048Y-99147381D01*
X108981905Y-99195000D01*
X109029524Y-99242619D01*
X109743810Y-99147381D02*
X109743810Y-99861667D01*
X109696190Y-100004524D01*
X109600952Y-100099762D01*
X109458095Y-100147381D01*
X109362857Y-100147381D01*
X110696191Y-100147381D02*
X110220000Y-100147381D01*
X110220000Y-99147381D01*
X111600953Y-100052143D02*
X111553334Y-100099762D01*
X111410477Y-100147381D01*
X111315239Y-100147381D01*
X111172381Y-100099762D01*
X111077143Y-100004524D01*
X111029524Y-99909286D01*
X110981905Y-99718810D01*
X110981905Y-99575952D01*
X111029524Y-99385476D01*
X111077143Y-99290238D01*
X111172381Y-99195000D01*
X111315239Y-99147381D01*
X111410477Y-99147381D01*
X111553334Y-99195000D01*
X111600953Y-99242619D01*
X112315239Y-99147381D02*
X112315239Y-99861667D01*
X112267619Y-100004524D01*
X112172381Y-100099762D01*
X112029524Y-100147381D01*
X111934286Y-100147381D01*
X113267620Y-100147381D02*
X112791429Y-100147381D01*
X112791429Y-99147381D01*
X114172382Y-100052143D02*
X114124763Y-100099762D01*
X113981906Y-100147381D01*
X113886668Y-100147381D01*
X113743810Y-100099762D01*
X113648572Y-100004524D01*
X113600953Y-99909286D01*
X113553334Y-99718810D01*
X113553334Y-99575952D01*
X113600953Y-99385476D01*
X113648572Y-99290238D01*
X113743810Y-99195000D01*
X113886668Y-99147381D01*
X113981906Y-99147381D01*
X114124763Y-99195000D01*
X114172382Y-99242619D01*
D13*
X102870000Y-150876000D02*
X100330000Y-150876000D01*
X102870000Y-153416000D02*
X102870000Y-150876000D01*
X118110000Y-122936000D02*
X118110000Y-153416000D01*
X100330000Y-122936000D02*
X118110000Y-122936000D01*
X100330000Y-153416000D02*
X100330000Y-122936000D01*
X118110000Y-153416000D02*
X100330000Y-153416000D01*
D14*
X105269200Y-149208980D02*
X105719200Y-149208980D01*
X105269200Y-151058980D02*
X105269200Y-149208980D01*
X113069200Y-153608980D02*
X113069200Y-153358980D01*
X105269200Y-153608980D02*
X105269200Y-153358980D01*
X113069200Y-151058980D02*
X113069200Y-149208980D01*
X113069200Y-149208980D02*
X112619200Y-149208980D01*
X107469200Y-148658980D02*
X107919200Y-148658980D01*
X107469200Y-148658980D02*
X107469200Y-149108980D01*
X107081000Y-130614000D02*
X107081000Y-128814000D01*
X103861000Y-128814000D02*
X103861000Y-131264000D01*
X113213000Y-144147000D02*
X112283000Y-144147000D01*
X110053000Y-144147000D02*
X110983000Y-144147000D01*
X110053000Y-144147000D02*
X110053000Y-146307000D01*
X113213000Y-144147000D02*
X113213000Y-145607000D01*
X115023000Y-146042000D02*
X115023000Y-145042000D01*
X113323000Y-145042000D02*
X113323000Y-146042000D01*
X105926000Y-141693000D02*
X106926000Y-141693000D01*
X106926000Y-139993000D02*
X105926000Y-139993000D01*
X104742940Y-138037880D02*
X107402940Y-138037880D01*
X104742940Y-135437880D02*
X104742940Y-138037880D01*
X107402940Y-135437880D02*
X107402940Y-138037880D01*
X104742940Y-135437880D02*
X107402940Y-135437880D01*
X104742940Y-134167880D02*
X104742940Y-132837880D01*
X104742940Y-132837880D02*
X106072940Y-132837880D01*
X105953000Y-144154000D02*
X107153000Y-144154000D01*
X107153000Y-145914000D02*
X105953000Y-145914000D01*
X110144000Y-131835000D02*
X111344000Y-131835000D01*
X111344000Y-133595000D02*
X110144000Y-133595000D01*
X106053000Y-147789000D02*
X107053000Y-147789000D01*
X107053000Y-146089000D02*
X106053000Y-146089000D01*
X113559900Y-123305260D02*
X108359900Y-123305260D01*
X113559900Y-128445260D02*
X113559900Y-123305260D01*
X108359900Y-131045260D02*
X108359900Y-123305260D01*
X113559900Y-128445260D02*
X110959900Y-128445260D01*
X110959900Y-128445260D02*
X110959900Y-131045260D01*
X110959900Y-131045260D02*
X108359900Y-131045260D01*
X113559900Y-129715260D02*
X113559900Y-131045260D01*
X113559900Y-131045260D02*
X112229900Y-131045260D01*
D15*
X113030000Y-136652000D02*
G75*
G03X113030000Y-136652000I-127000J0D01*
G01*
X113538000Y-136017000D02*
X108458000Y-136017000D01*
X113538000Y-139319000D02*
X108458000Y-139319000D01*
X113538000Y-135509000D02*
X108458000Y-135509000D01*
X113538000Y-135509000D02*
X113538000Y-139319000D01*
X108458000Y-135509000D02*
X108458000Y-139319000D01*
D14*
X108549000Y-144002000D02*
X108549000Y-142002000D01*
X108549000Y-142002000D02*
X104649000Y-142002000D01*
X108549000Y-144002000D02*
X104649000Y-144002000D01*
D10*
X103656667Y-152208667D02*
X103423333Y-151875333D01*
X103256667Y-152208667D02*
X103256667Y-151508667D01*
X103523333Y-151508667D01*
X103590000Y-151542000D01*
X103623333Y-151575333D01*
X103656667Y-151642000D01*
X103656667Y-151742000D01*
X103623333Y-151808667D01*
X103590000Y-151842000D01*
X103523333Y-151875333D01*
X103256667Y-151875333D01*
X103923333Y-152008667D02*
X104256667Y-152008667D01*
X103856667Y-152208667D02*
X104090000Y-151508667D01*
X104323333Y-152208667D01*
X104490000Y-151508667D02*
X104656667Y-152208667D01*
X104790000Y-151708667D01*
X104923333Y-152208667D01*
X105090000Y-151508667D01*
X103098667Y-149256000D02*
X103032001Y-149222667D01*
X102932001Y-149222667D01*
X102832001Y-149256000D01*
X102765334Y-149322667D01*
X102732001Y-149389333D01*
X102698667Y-149522667D01*
X102698667Y-149622667D01*
X102732001Y-149756000D01*
X102765334Y-149822667D01*
X102832001Y-149889333D01*
X102932001Y-149922667D01*
X102998667Y-149922667D01*
X103098667Y-149889333D01*
X103132001Y-149856000D01*
X103132001Y-149622667D01*
X102998667Y-149622667D01*
X103432001Y-149922667D02*
X103432001Y-149222667D01*
X103832001Y-149922667D01*
X103832001Y-149222667D01*
X104165334Y-149922667D02*
X104165334Y-149222667D01*
X104332000Y-149222667D01*
X104432000Y-149256000D01*
X104498667Y-149322667D01*
X104532000Y-149389333D01*
X104565334Y-149522667D01*
X104565334Y-149622667D01*
X104532000Y-149756000D01*
X104498667Y-149822667D01*
X104432000Y-149889333D01*
X104332000Y-149922667D01*
X104165334Y-149922667D01*
X103248667Y-147382667D02*
X103015333Y-147049333D01*
X102848667Y-147382667D02*
X102848667Y-146682667D01*
X103115333Y-146682667D01*
X103182000Y-146716000D01*
X103215333Y-146749333D01*
X103248667Y-146816000D01*
X103248667Y-146916000D01*
X103215333Y-146982667D01*
X103182000Y-147016000D01*
X103115333Y-147049333D01*
X102848667Y-147049333D01*
X103515333Y-147349333D02*
X103615333Y-147382667D01*
X103782000Y-147382667D01*
X103848667Y-147349333D01*
X103882000Y-147316000D01*
X103915333Y-147249333D01*
X103915333Y-147182667D01*
X103882000Y-147116000D01*
X103848667Y-147082667D01*
X103782000Y-147049333D01*
X103648667Y-147016000D01*
X103582000Y-146982667D01*
X103548667Y-146949333D01*
X103515333Y-146882667D01*
X103515333Y-146816000D01*
X103548667Y-146749333D01*
X103582000Y-146716000D01*
X103648667Y-146682667D01*
X103815333Y-146682667D01*
X103915333Y-146716000D01*
X104115334Y-146682667D02*
X104515334Y-146682667D01*
X104315334Y-147382667D02*
X104315334Y-146682667D01*
X102698667Y-144142667D02*
X102932000Y-144842667D01*
X103165333Y-144142667D01*
X103798667Y-144776000D02*
X103765333Y-144809333D01*
X103665333Y-144842667D01*
X103598667Y-144842667D01*
X103498667Y-144809333D01*
X103432000Y-144742667D01*
X103398667Y-144676000D01*
X103365333Y-144542667D01*
X103365333Y-144442667D01*
X103398667Y-144309333D01*
X103432000Y-144242667D01*
X103498667Y-144176000D01*
X103598667Y-144142667D01*
X103665333Y-144142667D01*
X103765333Y-144176000D01*
X103798667Y-144209333D01*
X104498667Y-144776000D02*
X104465333Y-144809333D01*
X104365333Y-144842667D01*
X104298667Y-144842667D01*
X104198667Y-144809333D01*
X104132000Y-144742667D01*
X104098667Y-144676000D01*
X104065333Y-144542667D01*
X104065333Y-144442667D01*
X104098667Y-144309333D01*
X104132000Y-144242667D01*
X104198667Y-144176000D01*
X104298667Y-144142667D01*
X104365333Y-144142667D01*
X104465333Y-144176000D01*
X104498667Y-144209333D01*
X102890667Y-141936000D02*
X102657334Y-141936000D01*
X102657334Y-142302667D02*
X102657334Y-141602667D01*
X102990667Y-141602667D01*
X103557334Y-141836000D02*
X103557334Y-142302667D01*
X103390667Y-141569333D02*
X103224000Y-142069333D01*
X103657334Y-142069333D01*
X102890667Y-139396000D02*
X102657334Y-139396000D01*
X102657334Y-139762667D02*
X102657334Y-139062667D01*
X102990667Y-139062667D01*
X103590667Y-139062667D02*
X103257334Y-139062667D01*
X103224000Y-139396000D01*
X103257334Y-139362667D01*
X103324000Y-139329333D01*
X103490667Y-139329333D01*
X103557334Y-139362667D01*
X103590667Y-139396000D01*
X103624000Y-139462667D01*
X103624000Y-139629333D01*
X103590667Y-139696000D01*
X103557334Y-139729333D01*
X103490667Y-139762667D01*
X103324000Y-139762667D01*
X103257334Y-139729333D01*
X103224000Y-139696000D01*
X102890667Y-134316000D02*
X102657334Y-134316000D01*
X102657334Y-134682667D02*
X102657334Y-133982667D01*
X102990667Y-133982667D01*
X103190667Y-133982667D02*
X103657334Y-133982667D01*
X103357334Y-134682667D01*
X102890667Y-136856000D02*
X102657334Y-136856000D01*
X102657334Y-137222667D02*
X102657334Y-136522667D01*
X102990667Y-136522667D01*
X103557334Y-136522667D02*
X103424000Y-136522667D01*
X103357334Y-136556000D01*
X103324000Y-136589333D01*
X103257334Y-136689333D01*
X103224000Y-136822667D01*
X103224000Y-137089333D01*
X103257334Y-137156000D01*
X103290667Y-137189333D01*
X103357334Y-137222667D01*
X103490667Y-137222667D01*
X103557334Y-137189333D01*
X103590667Y-137156000D01*
X103624000Y-137089333D01*
X103624000Y-136922667D01*
X103590667Y-136856000D01*
X103557334Y-136822667D01*
X103490667Y-136789333D01*
X103357334Y-136789333D01*
X103290667Y-136822667D01*
X103257334Y-136856000D01*
X103224000Y-136922667D01*
X102840667Y-131776000D02*
X102940667Y-131809333D01*
X102974000Y-131842667D01*
X103007334Y-131909333D01*
X103007334Y-132009333D01*
X102974000Y-132076000D01*
X102940667Y-132109333D01*
X102874000Y-132142667D01*
X102607334Y-132142667D01*
X102607334Y-131442667D01*
X102840667Y-131442667D01*
X102907334Y-131476000D01*
X102940667Y-131509333D01*
X102974000Y-131576000D01*
X102974000Y-131642667D01*
X102940667Y-131709333D01*
X102907334Y-131742667D01*
X102840667Y-131776000D01*
X102607334Y-131776000D01*
X103674000Y-132142667D02*
X103274000Y-132142667D01*
X103474000Y-132142667D02*
X103474000Y-131442667D01*
X103407334Y-131542667D01*
X103340667Y-131609333D01*
X103274000Y-131642667D01*
X102840667Y-129236000D02*
X102940667Y-129269333D01*
X102974000Y-129302667D01*
X103007334Y-129369333D01*
X103007334Y-129469333D01*
X102974000Y-129536000D01*
X102940667Y-129569333D01*
X102874000Y-129602667D01*
X102607334Y-129602667D01*
X102607334Y-128902667D01*
X102840667Y-128902667D01*
X102907334Y-128936000D01*
X102940667Y-128969333D01*
X102974000Y-129036000D01*
X102974000Y-129102667D01*
X102940667Y-129169333D01*
X102907334Y-129202667D01*
X102840667Y-129236000D01*
X102607334Y-129236000D01*
X103240667Y-128902667D02*
X103674000Y-128902667D01*
X103440667Y-129169333D01*
X103540667Y-129169333D01*
X103607334Y-129202667D01*
X103640667Y-129236000D01*
X103674000Y-129302667D01*
X103674000Y-129469333D01*
X103640667Y-129536000D01*
X103607334Y-129569333D01*
X103540667Y-129602667D01*
X103340667Y-129602667D01*
X103274000Y-129569333D01*
X103240667Y-129536000D01*
X102840667Y-126696000D02*
X102940667Y-126729333D01*
X102974000Y-126762667D01*
X103007334Y-126829333D01*
X103007334Y-126929333D01*
X102974000Y-126996000D01*
X102940667Y-127029333D01*
X102874000Y-127062667D01*
X102607334Y-127062667D01*
X102607334Y-126362667D01*
X102840667Y-126362667D01*
X102907334Y-126396000D01*
X102940667Y-126429333D01*
X102974000Y-126496000D01*
X102974000Y-126562667D01*
X102940667Y-126629333D01*
X102907334Y-126662667D01*
X102840667Y-126696000D01*
X102607334Y-126696000D01*
X103274000Y-126429333D02*
X103307334Y-126396000D01*
X103374000Y-126362667D01*
X103540667Y-126362667D01*
X103607334Y-126396000D01*
X103640667Y-126429333D01*
X103674000Y-126496000D01*
X103674000Y-126562667D01*
X103640667Y-126662667D01*
X103240667Y-127062667D01*
X103674000Y-127062667D01*
X102840667Y-124156000D02*
X102940667Y-124189333D01*
X102974000Y-124222667D01*
X103007334Y-124289333D01*
X103007334Y-124389333D01*
X102974000Y-124456000D01*
X102940667Y-124489333D01*
X102874000Y-124522667D01*
X102607334Y-124522667D01*
X102607334Y-123822667D01*
X102840667Y-123822667D01*
X102907334Y-123856000D01*
X102940667Y-123889333D01*
X102974000Y-123956000D01*
X102974000Y-124022667D01*
X102940667Y-124089333D01*
X102907334Y-124122667D01*
X102840667Y-124156000D01*
X102607334Y-124156000D01*
X103607334Y-123822667D02*
X103474000Y-123822667D01*
X103407334Y-123856000D01*
X103374000Y-123889333D01*
X103307334Y-123989333D01*
X103274000Y-124122667D01*
X103274000Y-124389333D01*
X103307334Y-124456000D01*
X103340667Y-124489333D01*
X103407334Y-124522667D01*
X103540667Y-124522667D01*
X103607334Y-124489333D01*
X103640667Y-124456000D01*
X103674000Y-124389333D01*
X103674000Y-124222667D01*
X103640667Y-124156000D01*
X103607334Y-124122667D01*
X103540667Y-124089333D01*
X103407334Y-124089333D01*
X103340667Y-124122667D01*
X103307334Y-124156000D01*
X103274000Y-124222667D01*
X114799334Y-152462667D02*
X114799334Y-151762667D01*
X114966000Y-151762667D01*
X115066000Y-151796000D01*
X115132667Y-151862667D01*
X115166000Y-151929333D01*
X115199334Y-152062667D01*
X115199334Y-152162667D01*
X115166000Y-152296000D01*
X115132667Y-152362667D01*
X115066000Y-152429333D01*
X114966000Y-152462667D01*
X114799334Y-152462667D01*
X115432667Y-151762667D02*
X115866000Y-151762667D01*
X115632667Y-152029333D01*
X115732667Y-152029333D01*
X115799334Y-152062667D01*
X115832667Y-152096000D01*
X115866000Y-152162667D01*
X115866000Y-152329333D01*
X115832667Y-152396000D01*
X115799334Y-152429333D01*
X115732667Y-152462667D01*
X115532667Y-152462667D01*
X115466000Y-152429333D01*
X115432667Y-152396000D01*
X114799334Y-149922667D02*
X114799334Y-149222667D01*
X114966000Y-149222667D01*
X115066000Y-149256000D01*
X115132667Y-149322667D01*
X115166000Y-149389333D01*
X115199334Y-149522667D01*
X115199334Y-149622667D01*
X115166000Y-149756000D01*
X115132667Y-149822667D01*
X115066000Y-149889333D01*
X114966000Y-149922667D01*
X114799334Y-149922667D01*
X115466000Y-149289333D02*
X115499334Y-149256000D01*
X115566000Y-149222667D01*
X115732667Y-149222667D01*
X115799334Y-149256000D01*
X115832667Y-149289333D01*
X115866000Y-149356000D01*
X115866000Y-149422667D01*
X115832667Y-149522667D01*
X115432667Y-149922667D01*
X115866000Y-149922667D01*
X114274667Y-146716000D02*
X114208001Y-146682667D01*
X114108001Y-146682667D01*
X114008001Y-146716000D01*
X113941334Y-146782667D01*
X113908001Y-146849333D01*
X113874667Y-146982667D01*
X113874667Y-147082667D01*
X113908001Y-147216000D01*
X113941334Y-147282667D01*
X114008001Y-147349333D01*
X114108001Y-147382667D01*
X114174667Y-147382667D01*
X114274667Y-147349333D01*
X114308001Y-147316000D01*
X114308001Y-147082667D01*
X114174667Y-147082667D01*
X114608001Y-147382667D02*
X114608001Y-146682667D01*
X115008001Y-147382667D01*
X115008001Y-146682667D01*
X115341334Y-147382667D02*
X115341334Y-146682667D01*
X115508000Y-146682667D01*
X115608000Y-146716000D01*
X115674667Y-146782667D01*
X115708000Y-146849333D01*
X115741334Y-146982667D01*
X115741334Y-147082667D01*
X115708000Y-147216000D01*
X115674667Y-147282667D01*
X115608000Y-147349333D01*
X115508000Y-147382667D01*
X115341334Y-147382667D01*
X114274667Y-144176000D02*
X114208001Y-144142667D01*
X114108001Y-144142667D01*
X114008001Y-144176000D01*
X113941334Y-144242667D01*
X113908001Y-144309333D01*
X113874667Y-144442667D01*
X113874667Y-144542667D01*
X113908001Y-144676000D01*
X113941334Y-144742667D01*
X114008001Y-144809333D01*
X114108001Y-144842667D01*
X114174667Y-144842667D01*
X114274667Y-144809333D01*
X114308001Y-144776000D01*
X114308001Y-144542667D01*
X114174667Y-144542667D01*
X114608001Y-144842667D02*
X114608001Y-144142667D01*
X115008001Y-144842667D01*
X115008001Y-144142667D01*
X115341334Y-144842667D02*
X115341334Y-144142667D01*
X115508000Y-144142667D01*
X115608000Y-144176000D01*
X115674667Y-144242667D01*
X115708000Y-144309333D01*
X115741334Y-144442667D01*
X115741334Y-144542667D01*
X115708000Y-144676000D01*
X115674667Y-144742667D01*
X115608000Y-144809333D01*
X115508000Y-144842667D01*
X115341334Y-144842667D01*
X114799334Y-142302667D02*
X114799334Y-141602667D01*
X114966000Y-141602667D01*
X115066000Y-141636000D01*
X115132667Y-141702667D01*
X115166000Y-141769333D01*
X115199334Y-141902667D01*
X115199334Y-142002667D01*
X115166000Y-142136000D01*
X115132667Y-142202667D01*
X115066000Y-142269333D01*
X114966000Y-142302667D01*
X114799334Y-142302667D01*
X115866000Y-142302667D02*
X115466000Y-142302667D01*
X115666000Y-142302667D02*
X115666000Y-141602667D01*
X115599334Y-141702667D01*
X115532667Y-141769333D01*
X115466000Y-141802667D01*
X114799334Y-139762667D02*
X114799334Y-139062667D01*
X114966000Y-139062667D01*
X115066000Y-139096000D01*
X115132667Y-139162667D01*
X115166000Y-139229333D01*
X115199334Y-139362667D01*
X115199334Y-139462667D01*
X115166000Y-139596000D01*
X115132667Y-139662667D01*
X115066000Y-139729333D01*
X114966000Y-139762667D01*
X114799334Y-139762667D01*
X115632667Y-139062667D02*
X115699334Y-139062667D01*
X115766000Y-139096000D01*
X115799334Y-139129333D01*
X115832667Y-139196000D01*
X115866000Y-139329333D01*
X115866000Y-139496000D01*
X115832667Y-139629333D01*
X115799334Y-139696000D01*
X115766000Y-139729333D01*
X115699334Y-139762667D01*
X115632667Y-139762667D01*
X115566000Y-139729333D01*
X115532667Y-139696000D01*
X115499334Y-139629333D01*
X115466000Y-139496000D01*
X115466000Y-139329333D01*
X115499334Y-139196000D01*
X115532667Y-139129333D01*
X115566000Y-139096000D01*
X115632667Y-139062667D01*
X114799334Y-137222667D02*
X114799334Y-136522667D01*
X114966000Y-136522667D01*
X115066000Y-136556000D01*
X115132667Y-136622667D01*
X115166000Y-136689333D01*
X115199334Y-136822667D01*
X115199334Y-136922667D01*
X115166000Y-137056000D01*
X115132667Y-137122667D01*
X115066000Y-137189333D01*
X114966000Y-137222667D01*
X114799334Y-137222667D01*
X115799334Y-136756000D02*
X115799334Y-137222667D01*
X115632667Y-136489333D02*
X115466000Y-136989333D01*
X115899334Y-136989333D01*
X115199334Y-134616000D02*
X115166000Y-134649333D01*
X115066000Y-134682667D01*
X114999334Y-134682667D01*
X114899334Y-134649333D01*
X114832667Y-134582667D01*
X114799334Y-134516000D01*
X114766000Y-134382667D01*
X114766000Y-134282667D01*
X114799334Y-134149333D01*
X114832667Y-134082667D01*
X114899334Y-134016000D01*
X114999334Y-133982667D01*
X115066000Y-133982667D01*
X115166000Y-134016000D01*
X115199334Y-134049333D01*
X115799334Y-133982667D02*
X115666000Y-133982667D01*
X115599334Y-134016000D01*
X115566000Y-134049333D01*
X115499334Y-134149333D01*
X115466000Y-134282667D01*
X115466000Y-134549333D01*
X115499334Y-134616000D01*
X115532667Y-134649333D01*
X115599334Y-134682667D01*
X115732667Y-134682667D01*
X115799334Y-134649333D01*
X115832667Y-134616000D01*
X115866000Y-134549333D01*
X115866000Y-134382667D01*
X115832667Y-134316000D01*
X115799334Y-134282667D01*
X115732667Y-134249333D01*
X115599334Y-134249333D01*
X115532667Y-134282667D01*
X115499334Y-134316000D01*
X115466000Y-134382667D01*
X114799334Y-132142667D02*
X114799334Y-131442667D01*
X114966000Y-131442667D01*
X115066000Y-131476000D01*
X115132667Y-131542667D01*
X115166000Y-131609333D01*
X115199334Y-131742667D01*
X115199334Y-131842667D01*
X115166000Y-131976000D01*
X115132667Y-132042667D01*
X115066000Y-132109333D01*
X114966000Y-132142667D01*
X114799334Y-132142667D01*
X115432667Y-131442667D02*
X115899334Y-131442667D01*
X115599334Y-132142667D01*
X114832667Y-129236000D02*
X115066000Y-129236000D01*
X115166000Y-129602667D02*
X114832667Y-129602667D01*
X114832667Y-128902667D01*
X115166000Y-128902667D01*
X115766000Y-128902667D02*
X115632666Y-128902667D01*
X115566000Y-128936000D01*
X115532666Y-128969333D01*
X115466000Y-129069333D01*
X115432666Y-129202667D01*
X115432666Y-129469333D01*
X115466000Y-129536000D01*
X115499333Y-129569333D01*
X115566000Y-129602667D01*
X115699333Y-129602667D01*
X115766000Y-129569333D01*
X115799333Y-129536000D01*
X115832666Y-129469333D01*
X115832666Y-129302667D01*
X115799333Y-129236000D01*
X115766000Y-129202667D01*
X115699333Y-129169333D01*
X115566000Y-129169333D01*
X115499333Y-129202667D01*
X115466000Y-129236000D01*
X115432666Y-129302667D01*
X115032667Y-126696000D02*
X115132667Y-126729333D01*
X115166000Y-126762667D01*
X115199334Y-126829333D01*
X115199334Y-126929333D01*
X115166000Y-126996000D01*
X115132667Y-127029333D01*
X115066000Y-127062667D01*
X114799334Y-127062667D01*
X114799334Y-126362667D01*
X115032667Y-126362667D01*
X115099334Y-126396000D01*
X115132667Y-126429333D01*
X115166000Y-126496000D01*
X115166000Y-126562667D01*
X115132667Y-126629333D01*
X115099334Y-126662667D01*
X115032667Y-126696000D01*
X114799334Y-126696000D01*
X115799334Y-126596000D02*
X115799334Y-127062667D01*
X115632667Y-126329333D02*
X115466000Y-126829333D01*
X115899334Y-126829333D01*
X115032667Y-124156000D02*
X115132667Y-124189333D01*
X115166000Y-124222667D01*
X115199334Y-124289333D01*
X115199334Y-124389333D01*
X115166000Y-124456000D01*
X115132667Y-124489333D01*
X115066000Y-124522667D01*
X114799334Y-124522667D01*
X114799334Y-123822667D01*
X115032667Y-123822667D01*
X115099334Y-123856000D01*
X115132667Y-123889333D01*
X115166000Y-123956000D01*
X115166000Y-124022667D01*
X115132667Y-124089333D01*
X115099334Y-124122667D01*
X115032667Y-124156000D01*
X114799334Y-124156000D01*
X115832667Y-123822667D02*
X115499334Y-123822667D01*
X115466000Y-124156000D01*
X115499334Y-124122667D01*
X115566000Y-124089333D01*
X115732667Y-124089333D01*
X115799334Y-124122667D01*
X115832667Y-124156000D01*
X115866000Y-124222667D01*
X115866000Y-124389333D01*
X115832667Y-124456000D01*
X115799334Y-124489333D01*
X115732667Y-124522667D01*
X115566000Y-124522667D01*
X115499334Y-124489333D01*
X115466000Y-124456000D01*
D15*
X108458095Y-101306381D02*
X108458095Y-102115905D01*
X108505714Y-102211143D01*
X108553333Y-102258762D01*
X108648571Y-102306381D01*
X108839048Y-102306381D01*
X108934286Y-102258762D01*
X108981905Y-102211143D01*
X109029524Y-102115905D01*
X109029524Y-101306381D01*
X110029524Y-102306381D02*
X109458095Y-102306381D01*
X109743809Y-102306381D02*
X109743809Y-101306381D01*
X109648571Y-101449238D01*
X109553333Y-101544476D01*
X109458095Y-101592095D01*
X103981905Y-107108571D02*
X104315239Y-107108571D01*
X104458096Y-107632381D02*
X103981905Y-107632381D01*
X103981905Y-106632381D01*
X104458096Y-106632381D01*
X104791429Y-106632381D02*
X105458096Y-106632381D01*
X105029524Y-107632381D01*
X105743810Y-106632381D02*
X106362858Y-106632381D01*
X106029524Y-107013333D01*
X106172382Y-107013333D01*
X106267620Y-107060952D01*
X106315239Y-107108571D01*
X106362858Y-107203810D01*
X106362858Y-107441905D01*
X106315239Y-107537143D01*
X106267620Y-107584762D01*
X106172382Y-107632381D01*
X105886667Y-107632381D01*
X105791429Y-107584762D01*
X105743810Y-107537143D01*
X106791429Y-107251429D02*
X107553334Y-107251429D01*
X107981905Y-106727619D02*
X108029524Y-106680000D01*
X108124762Y-106632381D01*
X108362858Y-106632381D01*
X108458096Y-106680000D01*
X108505715Y-106727619D01*
X108553334Y-106822857D01*
X108553334Y-106918095D01*
X108505715Y-107060952D01*
X107934286Y-107632381D01*
X108553334Y-107632381D01*
X109505715Y-106680000D02*
X109410477Y-106632381D01*
X109267620Y-106632381D01*
X109124762Y-106680000D01*
X109029524Y-106775238D01*
X108981905Y-106870476D01*
X108934286Y-107060952D01*
X108934286Y-107203810D01*
X108981905Y-107394286D01*
X109029524Y-107489524D01*
X109124762Y-107584762D01*
X109267620Y-107632381D01*
X109362858Y-107632381D01*
X109505715Y-107584762D01*
X109553334Y-107537143D01*
X109553334Y-107203810D01*
X109362858Y-107203810D01*
X110410477Y-106965714D02*
X110410477Y-107632381D01*
X110172381Y-106584762D02*
X109934286Y-107299048D01*
X110553334Y-107299048D01*
X110934286Y-107632381D02*
X110934286Y-106632381D01*
X111267620Y-107346667D01*
X111600953Y-106632381D01*
X111600953Y-107632381D01*
X112267619Y-106632381D02*
X112362858Y-106632381D01*
X112458096Y-106680000D01*
X112505715Y-106727619D01*
X112553334Y-106822857D01*
X112600953Y-107013333D01*
X112600953Y-107251429D01*
X112553334Y-107441905D01*
X112505715Y-107537143D01*
X112458096Y-107584762D01*
X112362858Y-107632381D01*
X112267619Y-107632381D01*
X112172381Y-107584762D01*
X112124762Y-107537143D01*
X112077143Y-107441905D01*
X112029524Y-107251429D01*
X112029524Y-107013333D01*
X112077143Y-106822857D01*
X112124762Y-106727619D01*
X112172381Y-106680000D01*
X112267619Y-106632381D01*
X113458096Y-106965714D02*
X113458096Y-107632381D01*
X113220000Y-106584762D02*
X112981905Y-107299048D01*
X113600953Y-107299048D01*
X113934286Y-107584762D02*
X114077143Y-107632381D01*
X114315239Y-107632381D01*
X114410477Y-107584762D01*
X114458096Y-107537143D01*
X114505715Y-107441905D01*
X114505715Y-107346667D01*
X114458096Y-107251429D01*
X114410477Y-107203810D01*
X114315239Y-107156190D01*
X114124762Y-107108571D01*
X114029524Y-107060952D01*
X113981905Y-107013333D01*
X113934286Y-106918095D01*
X113934286Y-106822857D01*
X113981905Y-106727619D01*
X114029524Y-106680000D01*
X114124762Y-106632381D01*
X114362858Y-106632381D01*
X114505715Y-106680000D01*
D10*
X105366333Y-130111189D02*
X105366333Y-129873094D01*
X105509190Y-130158808D02*
X105009190Y-129992141D01*
X105509190Y-129825475D01*
X105509190Y-129658808D02*
X105009190Y-129658808D01*
X105009190Y-129468332D01*
X105033000Y-129420713D01*
X105056810Y-129396904D01*
X105104429Y-129373094D01*
X105175857Y-129373094D01*
X105223476Y-129396904D01*
X105247286Y-129420713D01*
X105271095Y-129468332D01*
X105271095Y-129658808D01*
X105056810Y-129182618D02*
X105033000Y-129158808D01*
X105009190Y-129111189D01*
X105009190Y-128992142D01*
X105033000Y-128944523D01*
X105056810Y-128920713D01*
X105104429Y-128896904D01*
X105152048Y-128896904D01*
X105223476Y-128920713D01*
X105509190Y-129206427D01*
X105509190Y-128896904D01*
X105509190Y-128420714D02*
X105509190Y-128706428D01*
X105509190Y-128563571D02*
X105009190Y-128563571D01*
X105080619Y-128611190D01*
X105128238Y-128658809D01*
X105152048Y-128706428D01*
X105509190Y-127944524D02*
X105509190Y-128230238D01*
X105509190Y-128087381D02*
X105009190Y-128087381D01*
X105080619Y-128135000D01*
X105128238Y-128182619D01*
X105152048Y-128230238D01*
X105056810Y-127754048D02*
X105033000Y-127730238D01*
X105009190Y-127682619D01*
X105009190Y-127563572D01*
X105033000Y-127515953D01*
X105056810Y-127492143D01*
X105104429Y-127468334D01*
X105152048Y-127468334D01*
X105223476Y-127492143D01*
X105509190Y-127777857D01*
X105509190Y-127468334D01*
X105509190Y-127254048D02*
X105009190Y-127254048D01*
X105509190Y-126968334D02*
X105223476Y-127182620D01*
X105009190Y-126968334D02*
X105294905Y-127254048D01*
X105318714Y-126754048D02*
X105318714Y-126373096D01*
X105009190Y-126182619D02*
X105009190Y-125873096D01*
X105199667Y-126039762D01*
X105199667Y-125968334D01*
X105223476Y-125920715D01*
X105247286Y-125896905D01*
X105294905Y-125873096D01*
X105413952Y-125873096D01*
X105461571Y-125896905D01*
X105485381Y-125920715D01*
X105509190Y-125968334D01*
X105509190Y-126111191D01*
X105485381Y-126158810D01*
X105461571Y-126182619D01*
X105461571Y-125658810D02*
X105485381Y-125635001D01*
X105509190Y-125658810D01*
X105485381Y-125682620D01*
X105461571Y-125658810D01*
X105509190Y-125658810D01*
X105009190Y-125468334D02*
X105009190Y-125158811D01*
X105199667Y-125325477D01*
X105199667Y-125254049D01*
X105223476Y-125206430D01*
X105247286Y-125182620D01*
X105294905Y-125158811D01*
X105413952Y-125158811D01*
X105461571Y-125182620D01*
X105485381Y-125206430D01*
X105509190Y-125254049D01*
X105509190Y-125396906D01*
X105485381Y-125444525D01*
X105461571Y-125468334D01*
D15*
X113323619Y-143097238D02*
X113276000Y-143192476D01*
X113180762Y-143287714D01*
X113037905Y-143430571D01*
X112990286Y-143525810D01*
X112990286Y-143621048D01*
X113228381Y-143573429D02*
X113180762Y-143668667D01*
X113085524Y-143763905D01*
X112895048Y-143811524D01*
X112561714Y-143811524D01*
X112371238Y-143763905D01*
X112276000Y-143668667D01*
X112228381Y-143573429D01*
X112228381Y-143382952D01*
X112276000Y-143287714D01*
X112371238Y-143192476D01*
X112561714Y-143144857D01*
X112895048Y-143144857D01*
X113085524Y-143192476D01*
X113180762Y-143287714D01*
X113228381Y-143382952D01*
X113228381Y-143573429D01*
X113228381Y-142192476D02*
X113228381Y-142763905D01*
X113228381Y-142478191D02*
X112228381Y-142478191D01*
X112371238Y-142573429D01*
X112466476Y-142668667D01*
X112514095Y-142763905D01*
D10*
X114258286Y-142916571D02*
X114258286Y-143345143D01*
X114258286Y-143130857D02*
X113508286Y-143130857D01*
X113615429Y-143202286D01*
X113686857Y-143273714D01*
X113722571Y-143345143D01*
X113508286Y-142452285D02*
X113508286Y-142380857D01*
X113544000Y-142309428D01*
X113579714Y-142273714D01*
X113651143Y-142238000D01*
X113794000Y-142202285D01*
X113972571Y-142202285D01*
X114115429Y-142238000D01*
X114186857Y-142273714D01*
X114222571Y-142309428D01*
X114258286Y-142380857D01*
X114258286Y-142452285D01*
X114222571Y-142523714D01*
X114186857Y-142559428D01*
X114115429Y-142595143D01*
X113972571Y-142630857D01*
X113794000Y-142630857D01*
X113651143Y-142595143D01*
X113579714Y-142559428D01*
X113544000Y-142523714D01*
X113508286Y-142452285D01*
X113758286Y-141559428D02*
X114258286Y-141559428D01*
X113758286Y-141880857D02*
X114151143Y-141880857D01*
X114222571Y-141845142D01*
X114258286Y-141773714D01*
X114258286Y-141666571D01*
X114222571Y-141595142D01*
X114186857Y-141559428D01*
X113865429Y-140952286D02*
X113865429Y-141202286D01*
X114258286Y-141202286D02*
X113508286Y-141202286D01*
X113508286Y-140845143D01*
X105622429Y-139785286D02*
X105193857Y-139785286D01*
X105408143Y-139785286D02*
X105408143Y-139035286D01*
X105336714Y-139142429D01*
X105265286Y-139213857D01*
X105193857Y-139249571D01*
X106086715Y-139035286D02*
X106158143Y-139035286D01*
X106229572Y-139071000D01*
X106265286Y-139106714D01*
X106301000Y-139178143D01*
X106336715Y-139321000D01*
X106336715Y-139499571D01*
X106301000Y-139642429D01*
X106265286Y-139713857D01*
X106229572Y-139749571D01*
X106158143Y-139785286D01*
X106086715Y-139785286D01*
X106015286Y-139749571D01*
X105979572Y-139713857D01*
X105943857Y-139642429D01*
X105908143Y-139499571D01*
X105908143Y-139321000D01*
X105943857Y-139178143D01*
X105979572Y-139106714D01*
X106015286Y-139071000D01*
X106086715Y-139035286D01*
X106979572Y-139285286D02*
X106979572Y-139785286D01*
X106658143Y-139285286D02*
X106658143Y-139678143D01*
X106693858Y-139749571D01*
X106765286Y-139785286D01*
X106872429Y-139785286D01*
X106943858Y-139749571D01*
X106979572Y-139713857D01*
X107586714Y-139392429D02*
X107336714Y-139392429D01*
X107336714Y-139785286D02*
X107336714Y-139035286D01*
X107693857Y-139035286D01*
X109234000Y-145500286D02*
X108805428Y-145500286D01*
X109019714Y-145500286D02*
X109019714Y-144750286D01*
X108948285Y-144857429D01*
X108876857Y-144928857D01*
X108805428Y-144964571D01*
X109698286Y-144750286D02*
X109769714Y-144750286D01*
X109841143Y-144786000D01*
X109876857Y-144821714D01*
X109912571Y-144893143D01*
X109948286Y-145036000D01*
X109948286Y-145214571D01*
X109912571Y-145357429D01*
X109876857Y-145428857D01*
X109841143Y-145464571D01*
X109769714Y-145500286D01*
X109698286Y-145500286D01*
X109626857Y-145464571D01*
X109591143Y-145428857D01*
X109555428Y-145357429D01*
X109519714Y-145214571D01*
X109519714Y-145036000D01*
X109555428Y-144893143D01*
X109591143Y-144821714D01*
X109626857Y-144786000D01*
X109698286Y-144750286D01*
X110412572Y-144750286D02*
X110484000Y-144750286D01*
X110555429Y-144786000D01*
X110591143Y-144821714D01*
X110626857Y-144893143D01*
X110662572Y-145036000D01*
X110662572Y-145214571D01*
X110626857Y-145357429D01*
X110591143Y-145428857D01*
X110555429Y-145464571D01*
X110484000Y-145500286D01*
X110412572Y-145500286D01*
X110341143Y-145464571D01*
X110305429Y-145428857D01*
X110269714Y-145357429D01*
X110234000Y-145214571D01*
X110234000Y-145036000D01*
X110269714Y-144893143D01*
X110305429Y-144821714D01*
X110341143Y-144786000D01*
X110412572Y-144750286D01*
X110984000Y-145500286D02*
X110984000Y-144750286D01*
X111412572Y-145500286D02*
X111091143Y-145071714D01*
X111412572Y-144750286D02*
X110984000Y-145178857D01*
X110353143Y-131911286D02*
X109924571Y-131911286D01*
X110138857Y-131911286D02*
X110138857Y-131161286D01*
X110067428Y-131268429D01*
X109996000Y-131339857D01*
X109924571Y-131375571D01*
X110817429Y-131161286D02*
X110888857Y-131161286D01*
X110960286Y-131197000D01*
X110996000Y-131232714D01*
X111031714Y-131304143D01*
X111067429Y-131447000D01*
X111067429Y-131625571D01*
X111031714Y-131768429D01*
X110996000Y-131839857D01*
X110960286Y-131875571D01*
X110888857Y-131911286D01*
X110817429Y-131911286D01*
X110746000Y-131875571D01*
X110710286Y-131839857D01*
X110674571Y-131768429D01*
X110638857Y-131625571D01*
X110638857Y-131447000D01*
X110674571Y-131304143D01*
X110710286Y-131232714D01*
X110746000Y-131197000D01*
X110817429Y-131161286D01*
X111388857Y-131911286D02*
X111388857Y-131161286D01*
X111817429Y-131911286D02*
X111496000Y-131482714D01*
X111817429Y-131161286D02*
X111388857Y-131589857D01*
X109178429Y-147278286D02*
X108749857Y-147278286D01*
X108964143Y-147278286D02*
X108964143Y-146528286D01*
X108892714Y-146635429D01*
X108821286Y-146706857D01*
X108749857Y-146742571D01*
X109642715Y-146528286D02*
X109714143Y-146528286D01*
X109785572Y-146564000D01*
X109821286Y-146599714D01*
X109857000Y-146671143D01*
X109892715Y-146814000D01*
X109892715Y-146992571D01*
X109857000Y-147135429D01*
X109821286Y-147206857D01*
X109785572Y-147242571D01*
X109714143Y-147278286D01*
X109642715Y-147278286D01*
X109571286Y-147242571D01*
X109535572Y-147206857D01*
X109499857Y-147135429D01*
X109464143Y-146992571D01*
X109464143Y-146814000D01*
X109499857Y-146671143D01*
X109535572Y-146599714D01*
X109571286Y-146564000D01*
X109642715Y-146528286D01*
X110535572Y-146778286D02*
X110535572Y-147278286D01*
X110214143Y-146778286D02*
X110214143Y-147171143D01*
X110249858Y-147242571D01*
X110321286Y-147278286D01*
X110428429Y-147278286D01*
X110499858Y-147242571D01*
X110535572Y-147206857D01*
X111142714Y-146885429D02*
X110892714Y-146885429D01*
X110892714Y-147278286D02*
X110892714Y-146528286D01*
X111249857Y-146528286D01*
X110442131Y-136236246D02*
X110442131Y-136843389D01*
X110477846Y-136914817D01*
X110513560Y-136950531D01*
X110584989Y-136986246D01*
X110727846Y-136986246D01*
X110799274Y-136950531D01*
X110834989Y-136914817D01*
X110870703Y-136843389D01*
X110870703Y-136236246D01*
X111549274Y-136236246D02*
X111406417Y-136236246D01*
X111334988Y-136271960D01*
X111299274Y-136307674D01*
X111227845Y-136414817D01*
X111192131Y-136557674D01*
X111192131Y-136843389D01*
X111227845Y-136914817D01*
X111263560Y-136950531D01*
X111334988Y-136986246D01*
X111477845Y-136986246D01*
X111549274Y-136950531D01*
X111584988Y-136914817D01*
X111620703Y-136843389D01*
X111620703Y-136664817D01*
X111584988Y-136593389D01*
X111549274Y-136557674D01*
X111477845Y-136521960D01*
X111334988Y-136521960D01*
X111263560Y-136557674D01*
X111227845Y-136593389D01*
X111192131Y-136664817D01*
X108982683Y-137218007D02*
X109411254Y-137218007D01*
X109196968Y-137968007D02*
X109196968Y-137218007D01*
X109661254Y-137968007D02*
X109661254Y-137218007D01*
X109946969Y-137218007D01*
X110018397Y-137253721D01*
X110054112Y-137289435D01*
X110089826Y-137360864D01*
X110089826Y-137468007D01*
X110054112Y-137539435D01*
X110018397Y-137575150D01*
X109946969Y-137610864D01*
X109661254Y-137610864D01*
X110732683Y-137468007D02*
X110732683Y-137968007D01*
X110554112Y-137182292D02*
X110375540Y-137718007D01*
X110839826Y-137718007D01*
X111268398Y-137218007D02*
X111339826Y-137218007D01*
X111411255Y-137253721D01*
X111446969Y-137289435D01*
X111482683Y-137360864D01*
X111518398Y-137503721D01*
X111518398Y-137682292D01*
X111482683Y-137825150D01*
X111446969Y-137896578D01*
X111411255Y-137932292D01*
X111339826Y-137968007D01*
X111268398Y-137968007D01*
X111196969Y-137932292D01*
X111161255Y-137896578D01*
X111125540Y-137825150D01*
X111089826Y-137682292D01*
X111089826Y-137503721D01*
X111125540Y-137360864D01*
X111161255Y-137289435D01*
X111196969Y-137253721D01*
X111268398Y-137218007D01*
X112196969Y-137218007D02*
X111839826Y-137218007D01*
X111804112Y-137575150D01*
X111839826Y-137539435D01*
X111911255Y-137503721D01*
X112089826Y-137503721D01*
X112161255Y-137539435D01*
X112196969Y-137575150D01*
X112232684Y-137646578D01*
X112232684Y-137825150D01*
X112196969Y-137896578D01*
X112161255Y-137932292D01*
X112089826Y-137968007D01*
X111911255Y-137968007D01*
X111839826Y-137932292D01*
X111804112Y-137896578D01*
X112875541Y-137218007D02*
X112732684Y-137218007D01*
X112661255Y-137253721D01*
X112625541Y-137289435D01*
X112554112Y-137396578D01*
X112518398Y-137539435D01*
X112518398Y-137825150D01*
X112554112Y-137896578D01*
X112589827Y-137932292D01*
X112661255Y-137968007D01*
X112804112Y-137968007D01*
X112875541Y-137932292D01*
X112911255Y-137896578D01*
X112946970Y-137825150D01*
X112946970Y-137646578D01*
X112911255Y-137575150D01*
X112875541Y-137539435D01*
X112804112Y-137503721D01*
X112661255Y-137503721D01*
X112589827Y-137539435D01*
X112554112Y-137575150D01*
X112518398Y-137646578D01*
X105745428Y-143300286D02*
X105745428Y-142550286D01*
X105924000Y-142550286D01*
X106031143Y-142586000D01*
X106102571Y-142657429D01*
X106138286Y-142728857D01*
X106174000Y-142871714D01*
X106174000Y-142978857D01*
X106138286Y-143121714D01*
X106102571Y-143193143D01*
X106031143Y-143264571D01*
X105924000Y-143300286D01*
X105745428Y-143300286D01*
X106888286Y-143300286D02*
X106459714Y-143300286D01*
X106674000Y-143300286D02*
X106674000Y-142550286D01*
X106602571Y-142657429D01*
X106531143Y-142728857D01*
X106459714Y-142764571D01*
M02*
