M48
;DRILL file {KiCad (5.0.0)} date 11/08/19 17:11:38
;FORMAT={-:-/ absolute / inch / decimal}
FMAT,2
INCH,TZ
T1C0.0256
T2C0.0276
T3C0.0394
%
G90
G05
M72
T1
X1.375Y-1.2
X1.375Y-1.25
X1.375Y-1.3
X1.375Y-1.35
X1.375Y-1.4
X1.425Y-1.2
X1.425Y-1.25
X1.425Y-1.3
X1.425Y-1.35
X1.425Y-1.4
X3.6Y-1.2
X3.6Y-1.25
X3.6Y-1.3
X3.6Y-1.35
X3.6Y-1.4
X3.65Y-1.2
X3.65Y-1.25
X3.65Y-1.3
X3.65Y-1.35
X3.65Y-1.4
T2
X2.65Y-1.2
X2.65Y-1.25
X2.65Y-1.3
X2.65Y-1.35
X2.65Y-1.4
X2.7Y-1.2
X2.7Y-1.25
X2.7Y-1.3
X2.7Y-1.35
X2.7Y-1.4
X1.975Y-1.2
X1.975Y-1.25
X1.975Y-1.3
X1.975Y-1.35
X1.975Y-1.4
X2.025Y-1.2
X2.025Y-1.25
X2.025Y-1.3
X2.025Y-1.35
X2.025Y-1.4
X2.325Y-1.2
X2.325Y-1.25
X2.325Y-1.3
X2.325Y-1.35
X2.325Y-1.4
X2.375Y-1.2
X2.375Y-1.25
X2.375Y-1.3
X2.375Y-1.35
X2.375Y-1.4
X3.Y-1.2
X3.Y-1.25
X3.Y-1.3
X3.Y-1.35
X3.Y-1.4
X3.05Y-1.2
X3.05Y-1.25
X3.05Y-1.3
X3.05Y-1.35
X3.05Y-1.4
T3
X1.7Y-1.1
X1.7Y-1.2
X1.7Y-1.3
X1.7Y-1.4
X1.7Y-1.5
X1.1Y-1.1
X1.1Y-1.2
X1.1Y-1.3
X1.1Y-1.4
X1.1Y-1.5
X3.3194Y-1.1008
X3.3194Y-1.2008
X3.3194Y-1.3008
X3.3194Y-1.4008
X3.3194Y-1.5008
X3.9194Y-1.1008
X3.9194Y-1.2008
X3.9194Y-1.3008
X3.9194Y-1.4008
X3.9194Y-1.5008
T0
M30
