G04 #@! TF.FileFunction,Copper,L1,Top,Signal*
%FSLAX46Y46*%
G04 Gerber Fmt 4.6, Leading zero omitted, Abs format (unit mm)*
G04 Created by KiCad (PCBNEW 4.0.7) date 05/29/18 11:00:58*
%MOMM*%
%LPD*%
G01*
G04 APERTURE LIST*
%ADD10C,0.100000*%
%ADD11C,0.010000*%
%ADD12R,1.752600X1.752600*%
%ADD13C,1.752600*%
%ADD14R,1.500000X1.250000*%
%ADD15C,0.400000*%
%ADD16R,1.500000X1.300000*%
%ADD17R,1.800000X1.100000*%
%ADD18R,0.720000X2.200000*%
%ADD19R,2.200000X0.720000*%
%ADD20R,1.700000X1.700000*%
%ADD21O,1.700000X1.700000*%
%ADD22C,0.600000*%
%ADD23C,0.250000*%
%ADD24C,0.200000*%
%ADD25C,0.254000*%
G04 APERTURE END LIST*
D10*
D11*
G36*
X113550000Y-104806000D02*
X113595200Y-105062500D01*
X113725500Y-105288100D01*
X113925000Y-105455500D01*
X114169800Y-105544600D01*
X114430200Y-105544600D01*
X114675000Y-105455500D01*
X114874500Y-105288100D01*
X115004800Y-105062500D01*
X115050000Y-104806000D01*
X113550000Y-104806000D01*
X113550000Y-104806000D01*
G37*
X113550000Y-104806000D02*
X113595200Y-105062500D01*
X113725500Y-105288100D01*
X113925000Y-105455500D01*
X114169800Y-105544600D01*
X114430200Y-105544600D01*
X114675000Y-105455500D01*
X114874500Y-105288100D01*
X115004800Y-105062500D01*
X115050000Y-104806000D01*
X113550000Y-104806000D01*
G36*
X115050000Y-104606000D02*
X115004800Y-104349500D01*
X114874500Y-104123900D01*
X114675000Y-103956500D01*
X114430200Y-103867400D01*
X114169800Y-103867400D01*
X113925000Y-103956500D01*
X113725500Y-104123900D01*
X113595200Y-104349500D01*
X113550000Y-104606000D01*
X115050000Y-104606000D01*
X115050000Y-104606000D01*
G37*
X115050000Y-104606000D02*
X115004800Y-104349500D01*
X114874500Y-104123900D01*
X114675000Y-103956500D01*
X114430200Y-103867400D01*
X114169800Y-103867400D01*
X113925000Y-103956500D01*
X113725500Y-104123900D01*
X113595200Y-104349500D01*
X113550000Y-104606000D01*
X115050000Y-104606000D01*
D12*
X101600000Y-152146000D03*
D13*
X101600000Y-149606000D03*
X101600000Y-147066000D03*
X101600000Y-144526000D03*
X101600000Y-141986000D03*
X101600000Y-139446000D03*
X101600000Y-136906000D03*
X101600000Y-134366000D03*
X101600000Y-131826000D03*
X101600000Y-129286000D03*
X101600000Y-126746000D03*
X101600000Y-124206000D03*
X116840000Y-124206000D03*
X116840000Y-126746000D03*
X116840000Y-129286000D03*
X116840000Y-131826000D03*
X116840000Y-134366000D03*
X116840000Y-136906000D03*
X116840000Y-139446000D03*
X116840000Y-141986000D03*
X116840000Y-144526000D03*
X116840000Y-147066000D03*
X116840000Y-149606000D03*
X116840000Y-152146000D03*
D14*
X107275000Y-125857000D03*
X104775000Y-125857000D03*
D15*
X114300000Y-104256000D03*
X114300000Y-105156000D03*
X114300000Y-105156000D03*
X114300000Y-104256000D03*
D16*
X112555000Y-125857000D03*
X109855000Y-125857000D03*
D17*
X112308500Y-144153500D03*
X106108500Y-144153500D03*
X112308500Y-140453500D03*
X106108500Y-140453500D03*
X106120000Y-146740000D03*
X112320000Y-146740000D03*
X106120000Y-150440000D03*
X112320000Y-150440000D03*
D18*
X116332000Y-120904000D03*
X115062000Y-120904000D03*
X113792000Y-120904000D03*
X112522000Y-120904000D03*
X111252000Y-120904000D03*
X109982000Y-120904000D03*
X108712000Y-120904000D03*
X107442000Y-120904000D03*
X106172000Y-120904000D03*
X104902000Y-120904000D03*
X103632000Y-120904000D03*
X102362000Y-120904000D03*
D19*
X118110000Y-119126000D03*
X118110000Y-117856000D03*
X118110000Y-116586000D03*
X118110000Y-115316000D03*
X118110000Y-114046000D03*
X118110000Y-112776000D03*
X118110000Y-111506000D03*
X118110000Y-110236000D03*
X118110000Y-108966000D03*
X118110000Y-107696000D03*
X118110000Y-106426000D03*
X118110000Y-105156000D03*
X118110000Y-103886000D03*
X118110000Y-102616000D03*
X118110000Y-100076000D03*
X118110000Y-98806000D03*
X100584000Y-98806000D03*
X100584000Y-100076000D03*
X100584000Y-102616000D03*
X100584000Y-103886000D03*
X100584000Y-105156000D03*
X100584000Y-106426000D03*
X100584000Y-107696000D03*
X100584000Y-108966000D03*
X100584000Y-110236000D03*
X100584000Y-111506000D03*
X100584000Y-112776000D03*
X100584000Y-114046000D03*
X100584000Y-115316000D03*
X100584000Y-116586000D03*
X100584000Y-117856000D03*
X100584000Y-119126000D03*
D20*
X110490000Y-137160000D03*
D21*
X107950000Y-137160000D03*
X110490000Y-134620000D03*
X107950000Y-134620000D03*
X110490000Y-132080000D03*
X107950000Y-132080000D03*
D22*
X111125000Y-144153500D03*
X102616000Y-118618000D03*
X100076000Y-121412000D03*
X103251000Y-125095000D03*
X107442000Y-144018000D03*
X113538000Y-150368000D03*
X103124000Y-100076000D03*
X102362000Y-100076000D03*
X109474000Y-100076000D03*
X116078000Y-100076000D03*
X116078000Y-98806000D03*
X109474000Y-98806000D03*
X103124000Y-98806000D03*
X102362000Y-98806000D03*
X104774982Y-150558500D03*
X104140000Y-115570000D03*
X107188000Y-113411008D03*
X109982000Y-106426000D03*
X114333020Y-123842782D03*
X110012480Y-127692819D03*
X114670840Y-116471700D03*
X111115010Y-146740000D03*
X104775000Y-146740000D03*
X111760000Y-107315000D03*
X104775000Y-116840000D03*
X114935000Y-142875000D03*
X111115010Y-140453500D03*
X107442000Y-140453500D03*
X115570000Y-113538002D03*
X104775000Y-129029460D03*
X109867915Y-124106021D03*
X107981389Y-123087320D03*
X106917880Y-124206004D03*
X106160576Y-123948109D03*
X104976278Y-123603443D03*
X104239847Y-123961990D03*
X115176300Y-127944880D03*
X115062000Y-118364000D03*
X116332000Y-116840000D03*
X115869720Y-115742720D03*
X110041021Y-108204000D03*
X110236000Y-109982000D03*
X110744000Y-111252000D03*
X111506000Y-112522000D03*
X112356900Y-117088920D03*
X112717580Y-115392200D03*
X108617903Y-124289363D03*
X109296200Y-139291060D03*
X115854480Y-112435640D03*
X115211860Y-129821940D03*
X103505000Y-104775000D03*
D23*
X107442000Y-144018000D02*
X110989500Y-144018000D01*
X110989500Y-144018000D02*
X111125000Y-144153500D01*
X112308500Y-144153500D02*
X111125000Y-144153500D01*
X106108500Y-144153500D02*
X104958500Y-144153500D01*
X104958500Y-144153500D02*
X104267000Y-143462000D01*
X104267000Y-143462000D02*
X104267000Y-136779000D01*
X104267000Y-136779000D02*
X106426000Y-134620000D01*
X106426000Y-134620000D02*
X107950000Y-134620000D01*
X100584000Y-119126000D02*
X102108000Y-119126000D01*
X102108000Y-119126000D02*
X102616000Y-118618000D01*
X104775000Y-125857000D02*
X104013000Y-125857000D01*
X104013000Y-125857000D02*
X103251000Y-125095000D01*
X112308500Y-144153500D02*
X116467500Y-144153500D01*
X116467500Y-144153500D02*
X116840000Y-144526000D01*
X112320000Y-150440000D02*
X106120000Y-150440000D01*
X112320000Y-150440000D02*
X113466000Y-150440000D01*
X113466000Y-150440000D02*
X113538000Y-150368000D01*
X106120000Y-150440000D02*
X104893482Y-150440000D01*
X104893482Y-150440000D02*
X104774982Y-150558500D01*
D24*
X112331500Y-144081500D02*
X112879226Y-144153500D01*
D23*
X112308500Y-144153500D02*
X112879226Y-144153500D01*
X106108500Y-144153500D02*
X107306500Y-144153500D01*
X107306500Y-144153500D02*
X107442000Y-144018000D01*
X114300000Y-103146000D02*
X114300000Y-104256000D01*
X100584000Y-100076000D02*
X102362000Y-100076000D01*
X109474000Y-100076000D02*
X103124000Y-100076000D01*
X118110000Y-100076000D02*
X116078000Y-100076000D01*
X116078000Y-98806000D02*
X118110000Y-98806000D01*
X103124000Y-98806000D02*
X109474000Y-98806000D01*
X100584000Y-98806000D02*
X102362000Y-98806000D01*
X100584000Y-119126000D02*
X100076000Y-119634000D01*
X100076000Y-119634000D02*
X100076000Y-121412000D01*
X99314000Y-147320000D02*
X101600000Y-149606000D01*
X100076000Y-121412000D02*
X99314000Y-122174000D01*
X99314000Y-122174000D02*
X99314000Y-147320000D01*
X100584000Y-100076000D02*
X100584000Y-102616000D01*
X100584000Y-98806000D02*
X100584000Y-100076000D01*
X118110000Y-100076000D02*
X118110000Y-98806000D01*
X114300000Y-103146000D02*
X117370000Y-100076000D01*
X117370000Y-100076000D02*
X118110000Y-100076000D01*
D24*
X104350718Y-150558500D02*
X104774982Y-150558500D01*
X102552500Y-150558500D02*
X104350718Y-150558500D01*
X101600000Y-149606000D02*
X102552500Y-150558500D01*
X116395500Y-144081500D02*
X116840000Y-144526000D01*
X116840000Y-147066000D02*
X116840000Y-145826725D01*
X116840000Y-145826725D02*
X116840000Y-144526000D01*
X113466000Y-150440000D02*
X116840000Y-147066000D01*
D23*
X100584000Y-115316000D02*
X103886000Y-115316000D01*
X103886000Y-115316000D02*
X104140000Y-115570000D01*
X100584000Y-115316000D02*
X101324000Y-115316000D01*
X107188000Y-113835272D02*
X107188000Y-113411008D01*
X105029000Y-117856000D02*
X107188000Y-115697000D01*
X107188000Y-115697000D02*
X107188000Y-113835272D01*
X100584000Y-117856000D02*
X105029000Y-117856000D01*
X107275000Y-125857000D02*
X109755000Y-125857000D01*
X109755000Y-125857000D02*
X109855000Y-125857000D01*
X105664000Y-133350000D02*
X109220000Y-133350000D01*
X109220000Y-133350000D02*
X110490000Y-134620000D01*
X103632000Y-135382000D02*
X105664000Y-133350000D01*
X103632000Y-142494000D02*
X103632000Y-135382000D01*
X101600000Y-144526000D02*
X103632000Y-142494000D01*
X103886000Y-124587000D02*
X102362000Y-123063000D01*
X102362000Y-123063000D02*
X102362000Y-120904000D01*
X105880000Y-124587000D02*
X103886000Y-124587000D01*
X107275000Y-125857000D02*
X107150000Y-125857000D01*
X107150000Y-125857000D02*
X105880000Y-124587000D01*
X101600000Y-144526000D02*
X99822000Y-142748000D01*
X99822000Y-142748000D02*
X99822000Y-122682000D01*
X99822000Y-122682000D02*
X101600000Y-120904000D01*
X101600000Y-120904000D02*
X101854000Y-120904000D01*
X101854000Y-120904000D02*
X102362000Y-120904000D01*
X102362000Y-120904000D02*
X102362000Y-120164000D01*
X118110000Y-106426000D02*
X109982000Y-106426000D01*
X114033021Y-124142781D02*
X114333020Y-123842782D01*
X112455000Y-125857000D02*
X112455000Y-125720802D01*
X112455000Y-125720802D02*
X114033021Y-124142781D01*
X110312479Y-127392820D02*
X110012480Y-127692819D01*
X112455000Y-125857000D02*
X111848299Y-125857000D01*
X111848299Y-125857000D02*
X110312479Y-127392820D01*
X118110000Y-108966000D02*
X117370000Y-108966000D01*
X117370000Y-108966000D02*
X114724180Y-111611820D01*
X114724180Y-111611820D02*
X114724180Y-116293900D01*
X114724180Y-116293900D02*
X114608610Y-116409470D01*
X114608610Y-116409470D02*
X114670840Y-116471700D01*
X112555000Y-125857000D02*
X112455000Y-125857000D01*
X112320000Y-146740000D02*
X111115010Y-146740000D01*
X106120000Y-146740000D02*
X104775000Y-146740000D01*
X106120000Y-146740000D02*
X112320000Y-146740000D01*
D24*
X104775000Y-146740000D02*
X101926000Y-146740000D01*
X101926000Y-146740000D02*
X101600000Y-147066000D01*
D23*
X112059999Y-107614999D02*
X111760000Y-107315000D01*
X112141000Y-107696000D02*
X112059999Y-107614999D01*
X118110000Y-107696000D02*
X112141000Y-107696000D01*
X104521000Y-116586000D02*
X104775000Y-116840000D01*
X100584000Y-116586000D02*
X104521000Y-116586000D01*
X100584000Y-116586000D02*
X101324000Y-116586000D01*
X110815011Y-140753499D02*
X111115010Y-140453500D01*
X107839282Y-140850782D02*
X110717728Y-140850782D01*
X110717728Y-140850782D02*
X110815011Y-140753499D01*
X107442000Y-140453500D02*
X107839282Y-140850782D01*
X115229478Y-111766522D02*
X115229478Y-113197480D01*
X116760000Y-110236000D02*
X115229478Y-111766522D01*
X115270001Y-113238003D02*
X115570000Y-113538002D01*
X115229478Y-113197480D02*
X115270001Y-113238003D01*
X118110000Y-110236000D02*
X116760000Y-110236000D01*
X114935000Y-142875000D02*
X112513500Y-140453500D01*
X112513500Y-140453500D02*
X111115010Y-140453500D01*
X112308500Y-140453500D02*
X111115010Y-140453500D01*
X107258500Y-140453500D02*
X107442000Y-140453500D01*
X106108500Y-140453500D02*
X107258500Y-140453500D01*
X115638699Y-123629375D02*
X115638699Y-125532965D01*
X105199264Y-129029460D02*
X104775000Y-129029460D01*
X112142204Y-129029460D02*
X105199264Y-129029460D01*
X115638699Y-125532965D02*
X112142204Y-129029460D01*
X116332000Y-122936074D02*
X115638699Y-123629375D01*
X116332000Y-120904000D02*
X116332000Y-122936074D01*
X115188688Y-123442975D02*
X115188688Y-125346566D01*
X115188688Y-125346566D02*
X112217425Y-128317829D01*
X115062000Y-121644000D02*
X115672000Y-122254000D01*
X112217425Y-128317829D02*
X105112832Y-128317829D01*
X115062000Y-120904000D02*
X115062000Y-121644000D01*
X105112832Y-128317829D02*
X102476299Y-125681296D01*
X102476299Y-125082299D02*
X101600000Y-124206000D01*
X102476299Y-125681296D02*
X102476299Y-125082299D01*
X115672000Y-122959663D02*
X115188688Y-123442975D01*
X115672000Y-122254000D02*
X115672000Y-122959663D01*
X111252000Y-122721936D02*
X110167914Y-123806022D01*
X111252000Y-120904000D02*
X111252000Y-122721936D01*
X110167914Y-123806022D02*
X109867915Y-124106021D01*
X108281388Y-122787321D02*
X107981389Y-123087320D01*
X108712000Y-122356709D02*
X108281388Y-122787321D01*
X108712000Y-120904000D02*
X108712000Y-122356709D01*
X108712000Y-120904000D02*
X108712000Y-120164000D01*
X106917880Y-122778120D02*
X106917880Y-124206004D01*
X107442000Y-120904000D02*
X107442000Y-122254000D01*
X107442000Y-122254000D02*
X106917880Y-122778120D01*
X106172000Y-120904000D02*
X106172000Y-123936685D01*
X106172000Y-123936685D02*
X106160576Y-123948109D01*
X104902000Y-123529165D02*
X104976278Y-123603443D01*
X104902000Y-120904000D02*
X104902000Y-123529165D01*
X103632000Y-120904000D02*
X103632000Y-123354143D01*
X103632000Y-123354143D02*
X103939848Y-123661991D01*
X103939848Y-123661991D02*
X104239847Y-123961990D01*
X103632000Y-120904000D02*
X103632000Y-121644000D01*
X117416625Y-125407301D02*
X118110000Y-124713926D01*
X118110000Y-124713926D02*
X118110000Y-119736000D01*
X101600000Y-126746000D02*
X104648000Y-129794000D01*
X118110000Y-119736000D02*
X118110000Y-119126000D01*
X112014074Y-129794000D02*
X116400773Y-125407301D01*
X104648000Y-129794000D02*
X112014074Y-129794000D01*
X116400773Y-125407301D02*
X117416625Y-125407301D01*
X102616000Y-130302000D02*
X112819180Y-130302000D01*
X101600000Y-129286000D02*
X102616000Y-130302000D01*
X112819180Y-130302000D02*
X114876301Y-128244879D01*
X114876301Y-128244879D02*
X115176300Y-127944880D01*
X115062000Y-118364000D02*
X115570000Y-117856000D01*
X115570000Y-117856000D02*
X118110000Y-117856000D01*
X118110000Y-116586000D02*
X116586000Y-116586000D01*
X116586000Y-116586000D02*
X116332000Y-116840000D01*
X116169719Y-115442721D02*
X115869720Y-115742720D01*
X116296440Y-115316000D02*
X116169719Y-115442721D01*
X118110000Y-115316000D02*
X116296440Y-115316000D01*
X108263021Y-106426000D02*
X109741022Y-107904001D01*
X109741022Y-107904001D02*
X110041021Y-108204000D01*
X100584000Y-106426000D02*
X108263021Y-106426000D01*
X100584000Y-107696000D02*
X107950000Y-107696000D01*
X109936001Y-109682001D02*
X110236000Y-109982000D01*
X107950000Y-107696000D02*
X109936001Y-109682001D01*
X100584000Y-108966000D02*
X108294996Y-108966000D01*
X110280997Y-110952001D02*
X110444001Y-110952001D01*
X108294996Y-108966000D02*
X110280997Y-110952001D01*
X110444001Y-110952001D02*
X110744000Y-111252000D01*
X108802996Y-110236000D02*
X110788997Y-112222001D01*
X100584000Y-110236000D02*
X108802996Y-110236000D01*
X110788997Y-112222001D02*
X111206001Y-112222001D01*
X111206001Y-112222001D02*
X111506000Y-112522000D01*
X113489740Y-113568036D02*
X113489740Y-115956080D01*
X109417465Y-111506000D02*
X111109987Y-113198522D01*
X111109987Y-113198522D02*
X113120226Y-113198522D01*
X113489740Y-115956080D02*
X112656899Y-116788921D01*
X113120226Y-113198522D02*
X113489740Y-113568036D01*
X100584000Y-111506000D02*
X109417465Y-111506000D01*
X112656899Y-116788921D02*
X112356900Y-117088920D01*
X108685996Y-112658998D02*
X111419198Y-115392200D01*
X111419198Y-115392200D02*
X112293316Y-115392200D01*
X100584000Y-112776000D02*
X106770996Y-112776000D01*
X106887998Y-112658998D02*
X108685996Y-112658998D01*
X112293316Y-115392200D02*
X112717580Y-115392200D01*
X106770996Y-112776000D02*
X106887998Y-112658998D01*
X114300000Y-105156000D02*
X118110000Y-105156000D01*
X108917902Y-123989364D02*
X108617903Y-124289363D01*
X109982000Y-122925266D02*
X108917902Y-123989364D01*
X109982000Y-120904000D02*
X109982000Y-122925266D01*
X109720464Y-139291060D02*
X109296200Y-139291060D01*
X115211860Y-129821940D02*
X115211860Y-135963660D01*
X115211860Y-135963660D02*
X111884460Y-139291060D01*
X111884460Y-139291060D02*
X109720464Y-139291060D01*
X115854480Y-112530480D02*
X115854480Y-112435640D01*
X118110000Y-114046000D02*
X117370000Y-114046000D01*
X117370000Y-114046000D02*
X115854480Y-112530480D01*
X100584000Y-105156000D02*
X103124000Y-105156000D01*
X103124000Y-105156000D02*
X103505000Y-104775000D01*
D25*
G36*
X119305000Y-152960000D02*
X118138409Y-152960000D01*
X118351037Y-152447935D01*
X118351562Y-151846703D01*
X118121965Y-151291036D01*
X117707302Y-150875649D01*
X118120471Y-150463200D01*
X118351037Y-149907935D01*
X118351562Y-149306703D01*
X118121965Y-148751036D01*
X117697200Y-148325529D01*
X117663408Y-148311497D01*
X117723396Y-148129001D01*
X116840000Y-147245605D01*
X115956604Y-148129001D01*
X116016447Y-148311056D01*
X115985036Y-148324035D01*
X115559529Y-148748800D01*
X115328963Y-149304065D01*
X115328438Y-149905297D01*
X115558035Y-150460964D01*
X115972698Y-150876351D01*
X115559529Y-151288800D01*
X115328963Y-151844065D01*
X115328438Y-152445297D01*
X115541109Y-152960000D01*
X103123740Y-152960000D01*
X103123740Y-151269700D01*
X103079462Y-151034383D01*
X102940390Y-150818259D01*
X102804999Y-150725750D01*
X104585000Y-150725750D01*
X104585000Y-151116310D01*
X104681673Y-151349699D01*
X104860302Y-151528327D01*
X105093691Y-151625000D01*
X105834250Y-151625000D01*
X105993000Y-151466250D01*
X105993000Y-150567000D01*
X106247000Y-150567000D01*
X106247000Y-151466250D01*
X106405750Y-151625000D01*
X107146309Y-151625000D01*
X107379698Y-151528327D01*
X107558327Y-151349699D01*
X107655000Y-151116310D01*
X107655000Y-150725750D01*
X110785000Y-150725750D01*
X110785000Y-151116310D01*
X110881673Y-151349699D01*
X111060302Y-151528327D01*
X111293691Y-151625000D01*
X112034250Y-151625000D01*
X112193000Y-151466250D01*
X112193000Y-150567000D01*
X112447000Y-150567000D01*
X112447000Y-151466250D01*
X112605750Y-151625000D01*
X113346309Y-151625000D01*
X113579698Y-151528327D01*
X113758327Y-151349699D01*
X113855000Y-151116310D01*
X113855000Y-150725750D01*
X113696250Y-150567000D01*
X112447000Y-150567000D01*
X112193000Y-150567000D01*
X110943750Y-150567000D01*
X110785000Y-150725750D01*
X107655000Y-150725750D01*
X107496250Y-150567000D01*
X106247000Y-150567000D01*
X105993000Y-150567000D01*
X104743750Y-150567000D01*
X104585000Y-150725750D01*
X102804999Y-150725750D01*
X102728190Y-150673269D01*
X102711720Y-150669934D01*
X102777631Y-150604023D01*
X102663003Y-150489395D01*
X102917027Y-150405896D01*
X103122882Y-149841003D01*
X103119537Y-149763690D01*
X104585000Y-149763690D01*
X104585000Y-150154250D01*
X104743750Y-150313000D01*
X105993000Y-150313000D01*
X105993000Y-149413750D01*
X106247000Y-149413750D01*
X106247000Y-150313000D01*
X107496250Y-150313000D01*
X107655000Y-150154250D01*
X107655000Y-149763690D01*
X110785000Y-149763690D01*
X110785000Y-150154250D01*
X110943750Y-150313000D01*
X112193000Y-150313000D01*
X112193000Y-149413750D01*
X112447000Y-149413750D01*
X112447000Y-150313000D01*
X113696250Y-150313000D01*
X113855000Y-150154250D01*
X113855000Y-149763690D01*
X113758327Y-149530301D01*
X113579698Y-149351673D01*
X113346309Y-149255000D01*
X112605750Y-149255000D01*
X112447000Y-149413750D01*
X112193000Y-149413750D01*
X112034250Y-149255000D01*
X111293691Y-149255000D01*
X111060302Y-149351673D01*
X110881673Y-149530301D01*
X110785000Y-149763690D01*
X107655000Y-149763690D01*
X107558327Y-149530301D01*
X107379698Y-149351673D01*
X107146309Y-149255000D01*
X106405750Y-149255000D01*
X106247000Y-149413750D01*
X105993000Y-149413750D01*
X105834250Y-149255000D01*
X105093691Y-149255000D01*
X104860302Y-149351673D01*
X104681673Y-149530301D01*
X104585000Y-149763690D01*
X103119537Y-149763690D01*
X103096891Y-149240332D01*
X102917027Y-148806104D01*
X102663001Y-148722604D01*
X101779605Y-149606000D01*
X101793748Y-149620143D01*
X101614143Y-149799748D01*
X101600000Y-149785605D01*
X101585858Y-149799748D01*
X101406253Y-149620143D01*
X101420395Y-149606000D01*
X100536999Y-148722604D01*
X100282973Y-148806104D01*
X100077118Y-149370997D01*
X100103109Y-149971668D01*
X100282973Y-150405896D01*
X100536997Y-150489395D01*
X100422369Y-150604023D01*
X100486254Y-150667908D01*
X100272259Y-150805610D01*
X100127269Y-151017810D01*
X100076260Y-151269700D01*
X100076260Y-152960000D01*
X99135000Y-152960000D01*
X99135000Y-143061510D01*
X99284599Y-143285401D01*
X100128367Y-144129169D01*
X100088963Y-144224065D01*
X100088438Y-144825297D01*
X100318035Y-145380964D01*
X100732698Y-145796351D01*
X100319529Y-146208800D01*
X100088963Y-146764065D01*
X100088438Y-147365297D01*
X100318035Y-147920964D01*
X100742800Y-148346471D01*
X100776592Y-148360503D01*
X100716604Y-148542999D01*
X101600000Y-149426395D01*
X102483396Y-148542999D01*
X102423553Y-148360944D01*
X102454964Y-148347965D01*
X102880471Y-147923200D01*
X103066580Y-147475000D01*
X104187581Y-147475000D01*
X104244673Y-147532192D01*
X104588201Y-147674838D01*
X104713122Y-147674947D01*
X104755910Y-147741441D01*
X104968110Y-147886431D01*
X105220000Y-147937440D01*
X107020000Y-147937440D01*
X107255317Y-147893162D01*
X107471441Y-147754090D01*
X107616431Y-147541890D01*
X107624914Y-147500000D01*
X110552547Y-147500000D01*
X110584683Y-147532192D01*
X110907525Y-147666248D01*
X110955910Y-147741441D01*
X111168110Y-147886431D01*
X111420000Y-147937440D01*
X113220000Y-147937440D01*
X113455317Y-147893162D01*
X113671441Y-147754090D01*
X113816431Y-147541890D01*
X113867440Y-147290000D01*
X113867440Y-146830997D01*
X115317118Y-146830997D01*
X115343109Y-147431668D01*
X115522973Y-147865896D01*
X115776999Y-147949396D01*
X116660395Y-147066000D01*
X117019605Y-147066000D01*
X117903001Y-147949396D01*
X118157027Y-147865896D01*
X118362882Y-147301003D01*
X118336891Y-146700332D01*
X118157027Y-146266104D01*
X117903001Y-146182604D01*
X117019605Y-147066000D01*
X116660395Y-147066000D01*
X115776999Y-146182604D01*
X115522973Y-146266104D01*
X115317118Y-146830997D01*
X113867440Y-146830997D01*
X113867440Y-146190000D01*
X113823162Y-145954683D01*
X113684090Y-145738559D01*
X113471890Y-145593569D01*
X113449333Y-145589001D01*
X115956604Y-145589001D01*
X116024646Y-145796000D01*
X115956604Y-146002999D01*
X116840000Y-146886395D01*
X117723396Y-146002999D01*
X117655354Y-145796000D01*
X117723396Y-145589001D01*
X116840000Y-144705605D01*
X115956604Y-145589001D01*
X113449333Y-145589001D01*
X113220000Y-145542560D01*
X111420000Y-145542560D01*
X111184683Y-145586838D01*
X110968559Y-145725910D01*
X110908645Y-145813597D01*
X110586067Y-145946883D01*
X110552892Y-145980000D01*
X107627926Y-145980000D01*
X107623162Y-145954683D01*
X107484090Y-145738559D01*
X107271890Y-145593569D01*
X107020000Y-145542560D01*
X105220000Y-145542560D01*
X104984683Y-145586838D01*
X104768559Y-145725910D01*
X104714556Y-145804947D01*
X104589833Y-145804838D01*
X104246057Y-145946883D01*
X104187838Y-146005000D01*
X102676288Y-146005000D01*
X102467302Y-145795649D01*
X102880471Y-145383200D01*
X103111037Y-144827935D01*
X103111376Y-144439250D01*
X104573500Y-144439250D01*
X104573500Y-144829810D01*
X104670173Y-145063199D01*
X104848802Y-145241827D01*
X105082191Y-145338500D01*
X105822750Y-145338500D01*
X105981500Y-145179750D01*
X105981500Y-144280500D01*
X106235500Y-144280500D01*
X106235500Y-145179750D01*
X106394250Y-145338500D01*
X107134809Y-145338500D01*
X107368198Y-145241827D01*
X107546827Y-145063199D01*
X107643500Y-144829810D01*
X107643500Y-144439250D01*
X110773500Y-144439250D01*
X110773500Y-144829810D01*
X110870173Y-145063199D01*
X111048802Y-145241827D01*
X111282191Y-145338500D01*
X112022750Y-145338500D01*
X112181500Y-145179750D01*
X112181500Y-144280500D01*
X112435500Y-144280500D01*
X112435500Y-145179750D01*
X112594250Y-145338500D01*
X113334809Y-145338500D01*
X113568198Y-145241827D01*
X113746827Y-145063199D01*
X113843500Y-144829810D01*
X113843500Y-144439250D01*
X113695247Y-144290997D01*
X115317118Y-144290997D01*
X115343109Y-144891668D01*
X115522973Y-145325896D01*
X115776999Y-145409396D01*
X116660395Y-144526000D01*
X117019605Y-144526000D01*
X117903001Y-145409396D01*
X118157027Y-145325896D01*
X118362882Y-144761003D01*
X118336891Y-144160332D01*
X118157027Y-143726104D01*
X117903001Y-143642604D01*
X117019605Y-144526000D01*
X116660395Y-144526000D01*
X115776999Y-143642604D01*
X115522973Y-143726104D01*
X115317118Y-144290997D01*
X113695247Y-144290997D01*
X113684750Y-144280500D01*
X112435500Y-144280500D01*
X112181500Y-144280500D01*
X110932250Y-144280500D01*
X110773500Y-144439250D01*
X107643500Y-144439250D01*
X107484750Y-144280500D01*
X106235500Y-144280500D01*
X105981500Y-144280500D01*
X104732250Y-144280500D01*
X104573500Y-144439250D01*
X103111376Y-144439250D01*
X103111562Y-144226703D01*
X103071370Y-144129432D01*
X103723612Y-143477190D01*
X104573500Y-143477190D01*
X104573500Y-143867750D01*
X104732250Y-144026500D01*
X105981500Y-144026500D01*
X105981500Y-143127250D01*
X106235500Y-143127250D01*
X106235500Y-144026500D01*
X107484750Y-144026500D01*
X107643500Y-143867750D01*
X107643500Y-143477190D01*
X110773500Y-143477190D01*
X110773500Y-143867750D01*
X110932250Y-144026500D01*
X112181500Y-144026500D01*
X112181500Y-143127250D01*
X112435500Y-143127250D01*
X112435500Y-144026500D01*
X113684750Y-144026500D01*
X113843500Y-143867750D01*
X113843500Y-143477190D01*
X113746827Y-143243801D01*
X113568198Y-143065173D01*
X113334809Y-142968500D01*
X112594250Y-142968500D01*
X112435500Y-143127250D01*
X112181500Y-143127250D01*
X112022750Y-142968500D01*
X111282191Y-142968500D01*
X111048802Y-143065173D01*
X110870173Y-143243801D01*
X110773500Y-143477190D01*
X107643500Y-143477190D01*
X107546827Y-143243801D01*
X107368198Y-143065173D01*
X107134809Y-142968500D01*
X106394250Y-142968500D01*
X106235500Y-143127250D01*
X105981500Y-143127250D01*
X105822750Y-142968500D01*
X105082191Y-142968500D01*
X104848802Y-143065173D01*
X104670173Y-143243801D01*
X104573500Y-143477190D01*
X103723612Y-143477190D01*
X104169401Y-143031401D01*
X104334148Y-142784839D01*
X104392000Y-142494000D01*
X104392000Y-135696802D01*
X105978802Y-134110000D01*
X106571940Y-134110000D01*
X106508524Y-134263110D01*
X106629845Y-134493000D01*
X107823000Y-134493000D01*
X107823000Y-134473000D01*
X108077000Y-134473000D01*
X108077000Y-134493000D01*
X108097000Y-134493000D01*
X108097000Y-134747000D01*
X108077000Y-134747000D01*
X108077000Y-134767000D01*
X107823000Y-134767000D01*
X107823000Y-134747000D01*
X106629845Y-134747000D01*
X106508524Y-134976890D01*
X106678355Y-135386924D01*
X107068642Y-135815183D01*
X107211553Y-135882298D01*
X106870853Y-136109946D01*
X106548946Y-136591715D01*
X106435907Y-137160000D01*
X106548946Y-137728285D01*
X106870853Y-138210054D01*
X107352622Y-138531961D01*
X107920907Y-138645000D01*
X107979093Y-138645000D01*
X108547378Y-138531961D01*
X109029147Y-138210054D01*
X109029971Y-138208821D01*
X109036838Y-138245317D01*
X109108633Y-138356890D01*
X108767257Y-138497943D01*
X108504008Y-138760733D01*
X108361362Y-139104261D01*
X108361038Y-139476227D01*
X108503083Y-139820003D01*
X108765873Y-140083252D01*
X108784007Y-140090782D01*
X108303800Y-140090782D01*
X108235117Y-139924557D01*
X107972327Y-139661308D01*
X107628799Y-139518662D01*
X107515384Y-139518563D01*
X107472590Y-139452059D01*
X107260390Y-139307069D01*
X107008500Y-139256060D01*
X105208500Y-139256060D01*
X104973183Y-139300338D01*
X104757059Y-139439410D01*
X104612069Y-139651610D01*
X104561060Y-139903500D01*
X104561060Y-141003500D01*
X104605338Y-141238817D01*
X104744410Y-141454941D01*
X104956610Y-141599931D01*
X105208500Y-141650940D01*
X107008500Y-141650940D01*
X107243817Y-141606662D01*
X107439962Y-141480446D01*
X107548443Y-141552930D01*
X107839282Y-141610782D01*
X110717728Y-141610782D01*
X111008567Y-141552930D01*
X111048637Y-141526156D01*
X111156610Y-141599931D01*
X111408500Y-141650940D01*
X112636138Y-141650940D01*
X113999878Y-143014680D01*
X113999838Y-143060167D01*
X114141883Y-143403943D01*
X114404673Y-143667192D01*
X114748201Y-143809838D01*
X115120167Y-143810162D01*
X115463943Y-143668117D01*
X115727192Y-143405327D01*
X115843001Y-143126428D01*
X115982800Y-143266471D01*
X116016592Y-143280503D01*
X115956604Y-143462999D01*
X116840000Y-144346395D01*
X117723396Y-143462999D01*
X117663553Y-143280944D01*
X117694964Y-143267965D01*
X118120471Y-142843200D01*
X118351037Y-142287935D01*
X118351562Y-141686703D01*
X118121965Y-141131036D01*
X117707302Y-140715649D01*
X118120471Y-140303200D01*
X118351037Y-139747935D01*
X118351562Y-139146703D01*
X118121965Y-138591036D01*
X117707302Y-138175649D01*
X118120471Y-137763200D01*
X118351037Y-137207935D01*
X118351562Y-136606703D01*
X118121965Y-136051036D01*
X117707302Y-135635649D01*
X118120471Y-135223200D01*
X118351037Y-134667935D01*
X118351562Y-134066703D01*
X118121965Y-133511036D01*
X117707302Y-133095649D01*
X118120471Y-132683200D01*
X118351037Y-132127935D01*
X118351562Y-131526703D01*
X118121965Y-130971036D01*
X117707302Y-130555649D01*
X118120471Y-130143200D01*
X118351037Y-129587935D01*
X118351562Y-128986703D01*
X118121965Y-128431036D01*
X117707302Y-128015649D01*
X118120471Y-127603200D01*
X118351037Y-127047935D01*
X118351562Y-126446703D01*
X118121965Y-125891036D01*
X118064878Y-125833850D01*
X118647401Y-125251327D01*
X118812148Y-125004766D01*
X118870000Y-124713926D01*
X118870000Y-120133440D01*
X119210000Y-120133440D01*
X119305000Y-120115564D01*
X119305000Y-152960000D01*
X119305000Y-152960000D01*
G37*
X119305000Y-152960000D02*
X118138409Y-152960000D01*
X118351037Y-152447935D01*
X118351562Y-151846703D01*
X118121965Y-151291036D01*
X117707302Y-150875649D01*
X118120471Y-150463200D01*
X118351037Y-149907935D01*
X118351562Y-149306703D01*
X118121965Y-148751036D01*
X117697200Y-148325529D01*
X117663408Y-148311497D01*
X117723396Y-148129001D01*
X116840000Y-147245605D01*
X115956604Y-148129001D01*
X116016447Y-148311056D01*
X115985036Y-148324035D01*
X115559529Y-148748800D01*
X115328963Y-149304065D01*
X115328438Y-149905297D01*
X115558035Y-150460964D01*
X115972698Y-150876351D01*
X115559529Y-151288800D01*
X115328963Y-151844065D01*
X115328438Y-152445297D01*
X115541109Y-152960000D01*
X103123740Y-152960000D01*
X103123740Y-151269700D01*
X103079462Y-151034383D01*
X102940390Y-150818259D01*
X102804999Y-150725750D01*
X104585000Y-150725750D01*
X104585000Y-151116310D01*
X104681673Y-151349699D01*
X104860302Y-151528327D01*
X105093691Y-151625000D01*
X105834250Y-151625000D01*
X105993000Y-151466250D01*
X105993000Y-150567000D01*
X106247000Y-150567000D01*
X106247000Y-151466250D01*
X106405750Y-151625000D01*
X107146309Y-151625000D01*
X107379698Y-151528327D01*
X107558327Y-151349699D01*
X107655000Y-151116310D01*
X107655000Y-150725750D01*
X110785000Y-150725750D01*
X110785000Y-151116310D01*
X110881673Y-151349699D01*
X111060302Y-151528327D01*
X111293691Y-151625000D01*
X112034250Y-151625000D01*
X112193000Y-151466250D01*
X112193000Y-150567000D01*
X112447000Y-150567000D01*
X112447000Y-151466250D01*
X112605750Y-151625000D01*
X113346309Y-151625000D01*
X113579698Y-151528327D01*
X113758327Y-151349699D01*
X113855000Y-151116310D01*
X113855000Y-150725750D01*
X113696250Y-150567000D01*
X112447000Y-150567000D01*
X112193000Y-150567000D01*
X110943750Y-150567000D01*
X110785000Y-150725750D01*
X107655000Y-150725750D01*
X107496250Y-150567000D01*
X106247000Y-150567000D01*
X105993000Y-150567000D01*
X104743750Y-150567000D01*
X104585000Y-150725750D01*
X102804999Y-150725750D01*
X102728190Y-150673269D01*
X102711720Y-150669934D01*
X102777631Y-150604023D01*
X102663003Y-150489395D01*
X102917027Y-150405896D01*
X103122882Y-149841003D01*
X103119537Y-149763690D01*
X104585000Y-149763690D01*
X104585000Y-150154250D01*
X104743750Y-150313000D01*
X105993000Y-150313000D01*
X105993000Y-149413750D01*
X106247000Y-149413750D01*
X106247000Y-150313000D01*
X107496250Y-150313000D01*
X107655000Y-150154250D01*
X107655000Y-149763690D01*
X110785000Y-149763690D01*
X110785000Y-150154250D01*
X110943750Y-150313000D01*
X112193000Y-150313000D01*
X112193000Y-149413750D01*
X112447000Y-149413750D01*
X112447000Y-150313000D01*
X113696250Y-150313000D01*
X113855000Y-150154250D01*
X113855000Y-149763690D01*
X113758327Y-149530301D01*
X113579698Y-149351673D01*
X113346309Y-149255000D01*
X112605750Y-149255000D01*
X112447000Y-149413750D01*
X112193000Y-149413750D01*
X112034250Y-149255000D01*
X111293691Y-149255000D01*
X111060302Y-149351673D01*
X110881673Y-149530301D01*
X110785000Y-149763690D01*
X107655000Y-149763690D01*
X107558327Y-149530301D01*
X107379698Y-149351673D01*
X107146309Y-149255000D01*
X106405750Y-149255000D01*
X106247000Y-149413750D01*
X105993000Y-149413750D01*
X105834250Y-149255000D01*
X105093691Y-149255000D01*
X104860302Y-149351673D01*
X104681673Y-149530301D01*
X104585000Y-149763690D01*
X103119537Y-149763690D01*
X103096891Y-149240332D01*
X102917027Y-148806104D01*
X102663001Y-148722604D01*
X101779605Y-149606000D01*
X101793748Y-149620143D01*
X101614143Y-149799748D01*
X101600000Y-149785605D01*
X101585858Y-149799748D01*
X101406253Y-149620143D01*
X101420395Y-149606000D01*
X100536999Y-148722604D01*
X100282973Y-148806104D01*
X100077118Y-149370997D01*
X100103109Y-149971668D01*
X100282973Y-150405896D01*
X100536997Y-150489395D01*
X100422369Y-150604023D01*
X100486254Y-150667908D01*
X100272259Y-150805610D01*
X100127269Y-151017810D01*
X100076260Y-151269700D01*
X100076260Y-152960000D01*
X99135000Y-152960000D01*
X99135000Y-143061510D01*
X99284599Y-143285401D01*
X100128367Y-144129169D01*
X100088963Y-144224065D01*
X100088438Y-144825297D01*
X100318035Y-145380964D01*
X100732698Y-145796351D01*
X100319529Y-146208800D01*
X100088963Y-146764065D01*
X100088438Y-147365297D01*
X100318035Y-147920964D01*
X100742800Y-148346471D01*
X100776592Y-148360503D01*
X100716604Y-148542999D01*
X101600000Y-149426395D01*
X102483396Y-148542999D01*
X102423553Y-148360944D01*
X102454964Y-148347965D01*
X102880471Y-147923200D01*
X103066580Y-147475000D01*
X104187581Y-147475000D01*
X104244673Y-147532192D01*
X104588201Y-147674838D01*
X104713122Y-147674947D01*
X104755910Y-147741441D01*
X104968110Y-147886431D01*
X105220000Y-147937440D01*
X107020000Y-147937440D01*
X107255317Y-147893162D01*
X107471441Y-147754090D01*
X107616431Y-147541890D01*
X107624914Y-147500000D01*
X110552547Y-147500000D01*
X110584683Y-147532192D01*
X110907525Y-147666248D01*
X110955910Y-147741441D01*
X111168110Y-147886431D01*
X111420000Y-147937440D01*
X113220000Y-147937440D01*
X113455317Y-147893162D01*
X113671441Y-147754090D01*
X113816431Y-147541890D01*
X113867440Y-147290000D01*
X113867440Y-146830997D01*
X115317118Y-146830997D01*
X115343109Y-147431668D01*
X115522973Y-147865896D01*
X115776999Y-147949396D01*
X116660395Y-147066000D01*
X117019605Y-147066000D01*
X117903001Y-147949396D01*
X118157027Y-147865896D01*
X118362882Y-147301003D01*
X118336891Y-146700332D01*
X118157027Y-146266104D01*
X117903001Y-146182604D01*
X117019605Y-147066000D01*
X116660395Y-147066000D01*
X115776999Y-146182604D01*
X115522973Y-146266104D01*
X115317118Y-146830997D01*
X113867440Y-146830997D01*
X113867440Y-146190000D01*
X113823162Y-145954683D01*
X113684090Y-145738559D01*
X113471890Y-145593569D01*
X113449333Y-145589001D01*
X115956604Y-145589001D01*
X116024646Y-145796000D01*
X115956604Y-146002999D01*
X116840000Y-146886395D01*
X117723396Y-146002999D01*
X117655354Y-145796000D01*
X117723396Y-145589001D01*
X116840000Y-144705605D01*
X115956604Y-145589001D01*
X113449333Y-145589001D01*
X113220000Y-145542560D01*
X111420000Y-145542560D01*
X111184683Y-145586838D01*
X110968559Y-145725910D01*
X110908645Y-145813597D01*
X110586067Y-145946883D01*
X110552892Y-145980000D01*
X107627926Y-145980000D01*
X107623162Y-145954683D01*
X107484090Y-145738559D01*
X107271890Y-145593569D01*
X107020000Y-145542560D01*
X105220000Y-145542560D01*
X104984683Y-145586838D01*
X104768559Y-145725910D01*
X104714556Y-145804947D01*
X104589833Y-145804838D01*
X104246057Y-145946883D01*
X104187838Y-146005000D01*
X102676288Y-146005000D01*
X102467302Y-145795649D01*
X102880471Y-145383200D01*
X103111037Y-144827935D01*
X103111376Y-144439250D01*
X104573500Y-144439250D01*
X104573500Y-144829810D01*
X104670173Y-145063199D01*
X104848802Y-145241827D01*
X105082191Y-145338500D01*
X105822750Y-145338500D01*
X105981500Y-145179750D01*
X105981500Y-144280500D01*
X106235500Y-144280500D01*
X106235500Y-145179750D01*
X106394250Y-145338500D01*
X107134809Y-145338500D01*
X107368198Y-145241827D01*
X107546827Y-145063199D01*
X107643500Y-144829810D01*
X107643500Y-144439250D01*
X110773500Y-144439250D01*
X110773500Y-144829810D01*
X110870173Y-145063199D01*
X111048802Y-145241827D01*
X111282191Y-145338500D01*
X112022750Y-145338500D01*
X112181500Y-145179750D01*
X112181500Y-144280500D01*
X112435500Y-144280500D01*
X112435500Y-145179750D01*
X112594250Y-145338500D01*
X113334809Y-145338500D01*
X113568198Y-145241827D01*
X113746827Y-145063199D01*
X113843500Y-144829810D01*
X113843500Y-144439250D01*
X113695247Y-144290997D01*
X115317118Y-144290997D01*
X115343109Y-144891668D01*
X115522973Y-145325896D01*
X115776999Y-145409396D01*
X116660395Y-144526000D01*
X117019605Y-144526000D01*
X117903001Y-145409396D01*
X118157027Y-145325896D01*
X118362882Y-144761003D01*
X118336891Y-144160332D01*
X118157027Y-143726104D01*
X117903001Y-143642604D01*
X117019605Y-144526000D01*
X116660395Y-144526000D01*
X115776999Y-143642604D01*
X115522973Y-143726104D01*
X115317118Y-144290997D01*
X113695247Y-144290997D01*
X113684750Y-144280500D01*
X112435500Y-144280500D01*
X112181500Y-144280500D01*
X110932250Y-144280500D01*
X110773500Y-144439250D01*
X107643500Y-144439250D01*
X107484750Y-144280500D01*
X106235500Y-144280500D01*
X105981500Y-144280500D01*
X104732250Y-144280500D01*
X104573500Y-144439250D01*
X103111376Y-144439250D01*
X103111562Y-144226703D01*
X103071370Y-144129432D01*
X103723612Y-143477190D01*
X104573500Y-143477190D01*
X104573500Y-143867750D01*
X104732250Y-144026500D01*
X105981500Y-144026500D01*
X105981500Y-143127250D01*
X106235500Y-143127250D01*
X106235500Y-144026500D01*
X107484750Y-144026500D01*
X107643500Y-143867750D01*
X107643500Y-143477190D01*
X110773500Y-143477190D01*
X110773500Y-143867750D01*
X110932250Y-144026500D01*
X112181500Y-144026500D01*
X112181500Y-143127250D01*
X112435500Y-143127250D01*
X112435500Y-144026500D01*
X113684750Y-144026500D01*
X113843500Y-143867750D01*
X113843500Y-143477190D01*
X113746827Y-143243801D01*
X113568198Y-143065173D01*
X113334809Y-142968500D01*
X112594250Y-142968500D01*
X112435500Y-143127250D01*
X112181500Y-143127250D01*
X112022750Y-142968500D01*
X111282191Y-142968500D01*
X111048802Y-143065173D01*
X110870173Y-143243801D01*
X110773500Y-143477190D01*
X107643500Y-143477190D01*
X107546827Y-143243801D01*
X107368198Y-143065173D01*
X107134809Y-142968500D01*
X106394250Y-142968500D01*
X106235500Y-143127250D01*
X105981500Y-143127250D01*
X105822750Y-142968500D01*
X105082191Y-142968500D01*
X104848802Y-143065173D01*
X104670173Y-143243801D01*
X104573500Y-143477190D01*
X103723612Y-143477190D01*
X104169401Y-143031401D01*
X104334148Y-142784839D01*
X104392000Y-142494000D01*
X104392000Y-135696802D01*
X105978802Y-134110000D01*
X106571940Y-134110000D01*
X106508524Y-134263110D01*
X106629845Y-134493000D01*
X107823000Y-134493000D01*
X107823000Y-134473000D01*
X108077000Y-134473000D01*
X108077000Y-134493000D01*
X108097000Y-134493000D01*
X108097000Y-134747000D01*
X108077000Y-134747000D01*
X108077000Y-134767000D01*
X107823000Y-134767000D01*
X107823000Y-134747000D01*
X106629845Y-134747000D01*
X106508524Y-134976890D01*
X106678355Y-135386924D01*
X107068642Y-135815183D01*
X107211553Y-135882298D01*
X106870853Y-136109946D01*
X106548946Y-136591715D01*
X106435907Y-137160000D01*
X106548946Y-137728285D01*
X106870853Y-138210054D01*
X107352622Y-138531961D01*
X107920907Y-138645000D01*
X107979093Y-138645000D01*
X108547378Y-138531961D01*
X109029147Y-138210054D01*
X109029971Y-138208821D01*
X109036838Y-138245317D01*
X109108633Y-138356890D01*
X108767257Y-138497943D01*
X108504008Y-138760733D01*
X108361362Y-139104261D01*
X108361038Y-139476227D01*
X108503083Y-139820003D01*
X108765873Y-140083252D01*
X108784007Y-140090782D01*
X108303800Y-140090782D01*
X108235117Y-139924557D01*
X107972327Y-139661308D01*
X107628799Y-139518662D01*
X107515384Y-139518563D01*
X107472590Y-139452059D01*
X107260390Y-139307069D01*
X107008500Y-139256060D01*
X105208500Y-139256060D01*
X104973183Y-139300338D01*
X104757059Y-139439410D01*
X104612069Y-139651610D01*
X104561060Y-139903500D01*
X104561060Y-141003500D01*
X104605338Y-141238817D01*
X104744410Y-141454941D01*
X104956610Y-141599931D01*
X105208500Y-141650940D01*
X107008500Y-141650940D01*
X107243817Y-141606662D01*
X107439962Y-141480446D01*
X107548443Y-141552930D01*
X107839282Y-141610782D01*
X110717728Y-141610782D01*
X111008567Y-141552930D01*
X111048637Y-141526156D01*
X111156610Y-141599931D01*
X111408500Y-141650940D01*
X112636138Y-141650940D01*
X113999878Y-143014680D01*
X113999838Y-143060167D01*
X114141883Y-143403943D01*
X114404673Y-143667192D01*
X114748201Y-143809838D01*
X115120167Y-143810162D01*
X115463943Y-143668117D01*
X115727192Y-143405327D01*
X115843001Y-143126428D01*
X115982800Y-143266471D01*
X116016592Y-143280503D01*
X115956604Y-143462999D01*
X116840000Y-144346395D01*
X117723396Y-143462999D01*
X117663553Y-143280944D01*
X117694964Y-143267965D01*
X118120471Y-142843200D01*
X118351037Y-142287935D01*
X118351562Y-141686703D01*
X118121965Y-141131036D01*
X117707302Y-140715649D01*
X118120471Y-140303200D01*
X118351037Y-139747935D01*
X118351562Y-139146703D01*
X118121965Y-138591036D01*
X117707302Y-138175649D01*
X118120471Y-137763200D01*
X118351037Y-137207935D01*
X118351562Y-136606703D01*
X118121965Y-136051036D01*
X117707302Y-135635649D01*
X118120471Y-135223200D01*
X118351037Y-134667935D01*
X118351562Y-134066703D01*
X118121965Y-133511036D01*
X117707302Y-133095649D01*
X118120471Y-132683200D01*
X118351037Y-132127935D01*
X118351562Y-131526703D01*
X118121965Y-130971036D01*
X117707302Y-130555649D01*
X118120471Y-130143200D01*
X118351037Y-129587935D01*
X118351562Y-128986703D01*
X118121965Y-128431036D01*
X117707302Y-128015649D01*
X118120471Y-127603200D01*
X118351037Y-127047935D01*
X118351562Y-126446703D01*
X118121965Y-125891036D01*
X118064878Y-125833850D01*
X118647401Y-125251327D01*
X118812148Y-125004766D01*
X118870000Y-124713926D01*
X118870000Y-120133440D01*
X119210000Y-120133440D01*
X119305000Y-120115564D01*
X119305000Y-152960000D01*
G36*
X104902000Y-125730000D02*
X104922000Y-125730000D01*
X104922000Y-125984000D01*
X104902000Y-125984000D01*
X104902000Y-126004000D01*
X104648000Y-126004000D01*
X104648000Y-125984000D01*
X104628000Y-125984000D01*
X104628000Y-125730000D01*
X104648000Y-125730000D01*
X104648000Y-125710000D01*
X104902000Y-125710000D01*
X104902000Y-125730000D01*
X104902000Y-125730000D01*
G37*
X104902000Y-125730000D02*
X104922000Y-125730000D01*
X104922000Y-125984000D01*
X104902000Y-125984000D01*
X104902000Y-126004000D01*
X104648000Y-126004000D01*
X104648000Y-125984000D01*
X104628000Y-125984000D01*
X104628000Y-125730000D01*
X104648000Y-125730000D01*
X104648000Y-125710000D01*
X104902000Y-125710000D01*
X104902000Y-125730000D01*
G36*
X103348599Y-125124401D02*
X103390000Y-125152064D01*
X103390000Y-125520195D01*
X103236299Y-125366494D01*
X103236299Y-125082299D01*
X103218868Y-124994670D01*
X103348599Y-125124401D01*
X103348599Y-125124401D01*
G37*
X103348599Y-125124401D02*
X103390000Y-125152064D01*
X103390000Y-125520195D01*
X103236299Y-125366494D01*
X103236299Y-125082299D01*
X103218868Y-124994670D01*
X103348599Y-125124401D01*
G36*
X110881797Y-115929601D02*
X111128358Y-116094348D01*
X111419198Y-116152200D01*
X112155117Y-116152200D01*
X112161070Y-116158164D01*
X111827957Y-116295803D01*
X111564708Y-116558593D01*
X111422062Y-116902121D01*
X111421738Y-117274087D01*
X111563783Y-117617863D01*
X111826573Y-117881112D01*
X112170101Y-118023758D01*
X112542067Y-118024082D01*
X112885843Y-117882037D01*
X113149092Y-117619247D01*
X113291738Y-117275719D01*
X113291779Y-117228843D01*
X113773125Y-116747497D01*
X113877723Y-117000643D01*
X114140513Y-117263892D01*
X114484041Y-117406538D01*
X114856007Y-117406862D01*
X115006531Y-117344667D01*
X114922320Y-117428878D01*
X114876833Y-117428838D01*
X114533057Y-117570883D01*
X114269808Y-117833673D01*
X114127162Y-118177201D01*
X114126838Y-118549167D01*
X114268883Y-118892943D01*
X114531673Y-119156192D01*
X114585397Y-119178500D01*
X114466683Y-119200838D01*
X114429272Y-119224912D01*
X114403890Y-119207569D01*
X114152000Y-119156560D01*
X113432000Y-119156560D01*
X113196683Y-119200838D01*
X113159272Y-119224912D01*
X113133890Y-119207569D01*
X112882000Y-119156560D01*
X112162000Y-119156560D01*
X111926683Y-119200838D01*
X111889272Y-119224912D01*
X111863890Y-119207569D01*
X111612000Y-119156560D01*
X110892000Y-119156560D01*
X110656683Y-119200838D01*
X110619272Y-119224912D01*
X110593890Y-119207569D01*
X110342000Y-119156560D01*
X109622000Y-119156560D01*
X109386683Y-119200838D01*
X109349272Y-119224912D01*
X109323890Y-119207569D01*
X109072000Y-119156560D01*
X108352000Y-119156560D01*
X108116683Y-119200838D01*
X108079272Y-119224912D01*
X108053890Y-119207569D01*
X107802000Y-119156560D01*
X107082000Y-119156560D01*
X106846683Y-119200838D01*
X106809272Y-119224912D01*
X106783890Y-119207569D01*
X106532000Y-119156560D01*
X105812000Y-119156560D01*
X105576683Y-119200838D01*
X105539272Y-119224912D01*
X105513890Y-119207569D01*
X105262000Y-119156560D01*
X104542000Y-119156560D01*
X104306683Y-119200838D01*
X104269272Y-119224912D01*
X104243890Y-119207569D01*
X103992000Y-119156560D01*
X103272000Y-119156560D01*
X103036683Y-119200838D01*
X102999272Y-119224912D01*
X102973890Y-119207569D01*
X102722000Y-119156560D01*
X102002000Y-119156560D01*
X101766683Y-119200838D01*
X101685621Y-119253000D01*
X100711000Y-119253000D01*
X100711000Y-119962250D01*
X100869750Y-120121000D01*
X101354560Y-120121000D01*
X101354560Y-120192821D01*
X101309161Y-120201852D01*
X101062599Y-120366599D01*
X99284599Y-122144599D01*
X99135000Y-122368490D01*
X99135000Y-120028758D01*
X99357691Y-120121000D01*
X100298250Y-120121000D01*
X100457000Y-119962250D01*
X100457000Y-119253000D01*
X100437000Y-119253000D01*
X100437000Y-118999000D01*
X100457000Y-118999000D01*
X100457000Y-118979000D01*
X100711000Y-118979000D01*
X100711000Y-118999000D01*
X102160250Y-118999000D01*
X102319000Y-118840250D01*
X102319000Y-118639690D01*
X102309187Y-118616000D01*
X105029000Y-118616000D01*
X105319839Y-118558148D01*
X105566401Y-118393401D01*
X107725401Y-116234401D01*
X107890148Y-115987839D01*
X107948000Y-115697000D01*
X107948000Y-113973471D01*
X107980192Y-113941335D01*
X108122838Y-113597807D01*
X108122994Y-113418998D01*
X108371194Y-113418998D01*
X110881797Y-115929601D01*
X110881797Y-115929601D01*
G37*
X110881797Y-115929601D02*
X111128358Y-116094348D01*
X111419198Y-116152200D01*
X112155117Y-116152200D01*
X112161070Y-116158164D01*
X111827957Y-116295803D01*
X111564708Y-116558593D01*
X111422062Y-116902121D01*
X111421738Y-117274087D01*
X111563783Y-117617863D01*
X111826573Y-117881112D01*
X112170101Y-118023758D01*
X112542067Y-118024082D01*
X112885843Y-117882037D01*
X113149092Y-117619247D01*
X113291738Y-117275719D01*
X113291779Y-117228843D01*
X113773125Y-116747497D01*
X113877723Y-117000643D01*
X114140513Y-117263892D01*
X114484041Y-117406538D01*
X114856007Y-117406862D01*
X115006531Y-117344667D01*
X114922320Y-117428878D01*
X114876833Y-117428838D01*
X114533057Y-117570883D01*
X114269808Y-117833673D01*
X114127162Y-118177201D01*
X114126838Y-118549167D01*
X114268883Y-118892943D01*
X114531673Y-119156192D01*
X114585397Y-119178500D01*
X114466683Y-119200838D01*
X114429272Y-119224912D01*
X114403890Y-119207569D01*
X114152000Y-119156560D01*
X113432000Y-119156560D01*
X113196683Y-119200838D01*
X113159272Y-119224912D01*
X113133890Y-119207569D01*
X112882000Y-119156560D01*
X112162000Y-119156560D01*
X111926683Y-119200838D01*
X111889272Y-119224912D01*
X111863890Y-119207569D01*
X111612000Y-119156560D01*
X110892000Y-119156560D01*
X110656683Y-119200838D01*
X110619272Y-119224912D01*
X110593890Y-119207569D01*
X110342000Y-119156560D01*
X109622000Y-119156560D01*
X109386683Y-119200838D01*
X109349272Y-119224912D01*
X109323890Y-119207569D01*
X109072000Y-119156560D01*
X108352000Y-119156560D01*
X108116683Y-119200838D01*
X108079272Y-119224912D01*
X108053890Y-119207569D01*
X107802000Y-119156560D01*
X107082000Y-119156560D01*
X106846683Y-119200838D01*
X106809272Y-119224912D01*
X106783890Y-119207569D01*
X106532000Y-119156560D01*
X105812000Y-119156560D01*
X105576683Y-119200838D01*
X105539272Y-119224912D01*
X105513890Y-119207569D01*
X105262000Y-119156560D01*
X104542000Y-119156560D01*
X104306683Y-119200838D01*
X104269272Y-119224912D01*
X104243890Y-119207569D01*
X103992000Y-119156560D01*
X103272000Y-119156560D01*
X103036683Y-119200838D01*
X102999272Y-119224912D01*
X102973890Y-119207569D01*
X102722000Y-119156560D01*
X102002000Y-119156560D01*
X101766683Y-119200838D01*
X101685621Y-119253000D01*
X100711000Y-119253000D01*
X100711000Y-119962250D01*
X100869750Y-120121000D01*
X101354560Y-120121000D01*
X101354560Y-120192821D01*
X101309161Y-120201852D01*
X101062599Y-120366599D01*
X99284599Y-122144599D01*
X99135000Y-122368490D01*
X99135000Y-120028758D01*
X99357691Y-120121000D01*
X100298250Y-120121000D01*
X100457000Y-119962250D01*
X100457000Y-119253000D01*
X100437000Y-119253000D01*
X100437000Y-118999000D01*
X100457000Y-118999000D01*
X100457000Y-118979000D01*
X100711000Y-118979000D01*
X100711000Y-118999000D01*
X102160250Y-118999000D01*
X102319000Y-118840250D01*
X102319000Y-118639690D01*
X102309187Y-118616000D01*
X105029000Y-118616000D01*
X105319839Y-118558148D01*
X105566401Y-118393401D01*
X107725401Y-116234401D01*
X107890148Y-115987839D01*
X107948000Y-115697000D01*
X107948000Y-113973471D01*
X107980192Y-113941335D01*
X108122838Y-113597807D01*
X108122994Y-113418998D01*
X108371194Y-113418998D01*
X110881797Y-115929601D01*
G36*
X116471673Y-98086301D02*
X116375000Y-98319690D01*
X116375000Y-98520250D01*
X116533750Y-98679000D01*
X117983000Y-98679000D01*
X117983000Y-98659000D01*
X118237000Y-98659000D01*
X118237000Y-98679000D01*
X118257000Y-98679000D01*
X118257000Y-98933000D01*
X118237000Y-98933000D01*
X118237000Y-99949000D01*
X118257000Y-99949000D01*
X118257000Y-100203000D01*
X118237000Y-100203000D01*
X118237000Y-100912250D01*
X118395750Y-101071000D01*
X119305000Y-101071000D01*
X119305000Y-101627798D01*
X119210000Y-101608560D01*
X117010000Y-101608560D01*
X116774683Y-101652838D01*
X116558559Y-101791910D01*
X116413569Y-102004110D01*
X116362560Y-102256000D01*
X116362560Y-102976000D01*
X116406838Y-103211317D01*
X116430912Y-103248728D01*
X116413569Y-103274110D01*
X116362560Y-103526000D01*
X116362560Y-104246000D01*
X116390784Y-104396000D01*
X115662855Y-104396000D01*
X115635089Y-104238432D01*
X115594779Y-104134743D01*
X115559003Y-104029408D01*
X115428703Y-103803808D01*
X115355436Y-103720291D01*
X115285884Y-103633631D01*
X115086384Y-103466231D01*
X114988926Y-103412764D01*
X114893893Y-103355097D01*
X114649093Y-103265997D01*
X114539227Y-103249087D01*
X114430200Y-103227400D01*
X114169800Y-103227400D01*
X114060773Y-103249087D01*
X113950907Y-103265997D01*
X113706107Y-103355097D01*
X113611069Y-103412767D01*
X113513617Y-103466231D01*
X113314116Y-103633631D01*
X113244564Y-103720291D01*
X113171297Y-103803809D01*
X113040997Y-104029408D01*
X113005221Y-104134743D01*
X112964911Y-104238432D01*
X112919711Y-104494932D01*
X112920940Y-104550999D01*
X112910000Y-104606000D01*
X112923651Y-104674629D01*
X112924339Y-104706000D01*
X112923651Y-104737371D01*
X112910000Y-104806000D01*
X112920940Y-104861001D01*
X112919711Y-104917068D01*
X112964911Y-105173568D01*
X113005221Y-105277257D01*
X113040997Y-105382592D01*
X113171297Y-105608191D01*
X113222011Y-105666000D01*
X110544463Y-105666000D01*
X110512327Y-105633808D01*
X110168799Y-105491162D01*
X109796833Y-105490838D01*
X109453057Y-105632883D01*
X109189808Y-105895673D01*
X109077636Y-106165813D01*
X108800422Y-105888599D01*
X108553860Y-105723852D01*
X108263021Y-105666000D01*
X103797047Y-105666000D01*
X104033943Y-105568117D01*
X104297192Y-105305327D01*
X104439838Y-104961799D01*
X104440162Y-104589833D01*
X104298117Y-104246057D01*
X104035327Y-103982808D01*
X103691799Y-103840162D01*
X103319833Y-103839838D01*
X102976057Y-103981883D01*
X102712808Y-104244673D01*
X102649971Y-104396000D01*
X102301064Y-104396000D01*
X102331440Y-104246000D01*
X102331440Y-103526000D01*
X102287162Y-103290683D01*
X102259062Y-103247014D01*
X102319000Y-103102310D01*
X102319000Y-102901750D01*
X102160250Y-102743000D01*
X100711000Y-102743000D01*
X100711000Y-102763000D01*
X100457000Y-102763000D01*
X100457000Y-102743000D01*
X100437000Y-102743000D01*
X100437000Y-102489000D01*
X100457000Y-102489000D01*
X100457000Y-101779750D01*
X100711000Y-101779750D01*
X100711000Y-102489000D01*
X102160250Y-102489000D01*
X102319000Y-102330250D01*
X102319000Y-102129690D01*
X102222327Y-101896301D01*
X102043698Y-101717673D01*
X101810309Y-101621000D01*
X100869750Y-101621000D01*
X100711000Y-101779750D01*
X100457000Y-101779750D01*
X100298250Y-101621000D01*
X99357691Y-101621000D01*
X99135000Y-101713242D01*
X99135000Y-100978758D01*
X99357691Y-101071000D01*
X100298250Y-101071000D01*
X100457000Y-100912250D01*
X100457000Y-100203000D01*
X100711000Y-100203000D01*
X100711000Y-100912250D01*
X100869750Y-101071000D01*
X101810309Y-101071000D01*
X102043698Y-100974327D01*
X102222327Y-100795699D01*
X102319000Y-100562310D01*
X102319000Y-100361750D01*
X116375000Y-100361750D01*
X116375000Y-100562310D01*
X116471673Y-100795699D01*
X116650302Y-100974327D01*
X116883691Y-101071000D01*
X117824250Y-101071000D01*
X117983000Y-100912250D01*
X117983000Y-100203000D01*
X116533750Y-100203000D01*
X116375000Y-100361750D01*
X102319000Y-100361750D01*
X102160250Y-100203000D01*
X100711000Y-100203000D01*
X100457000Y-100203000D01*
X100437000Y-100203000D01*
X100437000Y-99949000D01*
X100457000Y-99949000D01*
X100457000Y-98933000D01*
X100711000Y-98933000D01*
X100711000Y-99949000D01*
X102160250Y-99949000D01*
X102319000Y-99790250D01*
X102319000Y-99589690D01*
X102257411Y-99441000D01*
X102319000Y-99292310D01*
X102319000Y-99091750D01*
X116375000Y-99091750D01*
X116375000Y-99292310D01*
X116436589Y-99441000D01*
X116375000Y-99589690D01*
X116375000Y-99790250D01*
X116533750Y-99949000D01*
X117983000Y-99949000D01*
X117983000Y-98933000D01*
X116533750Y-98933000D01*
X116375000Y-99091750D01*
X102319000Y-99091750D01*
X102160250Y-98933000D01*
X100711000Y-98933000D01*
X100457000Y-98933000D01*
X100437000Y-98933000D01*
X100437000Y-98679000D01*
X100457000Y-98679000D01*
X100457000Y-98659000D01*
X100711000Y-98659000D01*
X100711000Y-98679000D01*
X102160250Y-98679000D01*
X102319000Y-98520250D01*
X102319000Y-98319690D01*
X102222327Y-98086301D01*
X102053025Y-97917000D01*
X116640975Y-97917000D01*
X116471673Y-98086301D01*
X116471673Y-98086301D01*
G37*
X116471673Y-98086301D02*
X116375000Y-98319690D01*
X116375000Y-98520250D01*
X116533750Y-98679000D01*
X117983000Y-98679000D01*
X117983000Y-98659000D01*
X118237000Y-98659000D01*
X118237000Y-98679000D01*
X118257000Y-98679000D01*
X118257000Y-98933000D01*
X118237000Y-98933000D01*
X118237000Y-99949000D01*
X118257000Y-99949000D01*
X118257000Y-100203000D01*
X118237000Y-100203000D01*
X118237000Y-100912250D01*
X118395750Y-101071000D01*
X119305000Y-101071000D01*
X119305000Y-101627798D01*
X119210000Y-101608560D01*
X117010000Y-101608560D01*
X116774683Y-101652838D01*
X116558559Y-101791910D01*
X116413569Y-102004110D01*
X116362560Y-102256000D01*
X116362560Y-102976000D01*
X116406838Y-103211317D01*
X116430912Y-103248728D01*
X116413569Y-103274110D01*
X116362560Y-103526000D01*
X116362560Y-104246000D01*
X116390784Y-104396000D01*
X115662855Y-104396000D01*
X115635089Y-104238432D01*
X115594779Y-104134743D01*
X115559003Y-104029408D01*
X115428703Y-103803808D01*
X115355436Y-103720291D01*
X115285884Y-103633631D01*
X115086384Y-103466231D01*
X114988926Y-103412764D01*
X114893893Y-103355097D01*
X114649093Y-103265997D01*
X114539227Y-103249087D01*
X114430200Y-103227400D01*
X114169800Y-103227400D01*
X114060773Y-103249087D01*
X113950907Y-103265997D01*
X113706107Y-103355097D01*
X113611069Y-103412767D01*
X113513617Y-103466231D01*
X113314116Y-103633631D01*
X113244564Y-103720291D01*
X113171297Y-103803809D01*
X113040997Y-104029408D01*
X113005221Y-104134743D01*
X112964911Y-104238432D01*
X112919711Y-104494932D01*
X112920940Y-104550999D01*
X112910000Y-104606000D01*
X112923651Y-104674629D01*
X112924339Y-104706000D01*
X112923651Y-104737371D01*
X112910000Y-104806000D01*
X112920940Y-104861001D01*
X112919711Y-104917068D01*
X112964911Y-105173568D01*
X113005221Y-105277257D01*
X113040997Y-105382592D01*
X113171297Y-105608191D01*
X113222011Y-105666000D01*
X110544463Y-105666000D01*
X110512327Y-105633808D01*
X110168799Y-105491162D01*
X109796833Y-105490838D01*
X109453057Y-105632883D01*
X109189808Y-105895673D01*
X109077636Y-106165813D01*
X108800422Y-105888599D01*
X108553860Y-105723852D01*
X108263021Y-105666000D01*
X103797047Y-105666000D01*
X104033943Y-105568117D01*
X104297192Y-105305327D01*
X104439838Y-104961799D01*
X104440162Y-104589833D01*
X104298117Y-104246057D01*
X104035327Y-103982808D01*
X103691799Y-103840162D01*
X103319833Y-103839838D01*
X102976057Y-103981883D01*
X102712808Y-104244673D01*
X102649971Y-104396000D01*
X102301064Y-104396000D01*
X102331440Y-104246000D01*
X102331440Y-103526000D01*
X102287162Y-103290683D01*
X102259062Y-103247014D01*
X102319000Y-103102310D01*
X102319000Y-102901750D01*
X102160250Y-102743000D01*
X100711000Y-102743000D01*
X100711000Y-102763000D01*
X100457000Y-102763000D01*
X100457000Y-102743000D01*
X100437000Y-102743000D01*
X100437000Y-102489000D01*
X100457000Y-102489000D01*
X100457000Y-101779750D01*
X100711000Y-101779750D01*
X100711000Y-102489000D01*
X102160250Y-102489000D01*
X102319000Y-102330250D01*
X102319000Y-102129690D01*
X102222327Y-101896301D01*
X102043698Y-101717673D01*
X101810309Y-101621000D01*
X100869750Y-101621000D01*
X100711000Y-101779750D01*
X100457000Y-101779750D01*
X100298250Y-101621000D01*
X99357691Y-101621000D01*
X99135000Y-101713242D01*
X99135000Y-100978758D01*
X99357691Y-101071000D01*
X100298250Y-101071000D01*
X100457000Y-100912250D01*
X100457000Y-100203000D01*
X100711000Y-100203000D01*
X100711000Y-100912250D01*
X100869750Y-101071000D01*
X101810309Y-101071000D01*
X102043698Y-100974327D01*
X102222327Y-100795699D01*
X102319000Y-100562310D01*
X102319000Y-100361750D01*
X116375000Y-100361750D01*
X116375000Y-100562310D01*
X116471673Y-100795699D01*
X116650302Y-100974327D01*
X116883691Y-101071000D01*
X117824250Y-101071000D01*
X117983000Y-100912250D01*
X117983000Y-100203000D01*
X116533750Y-100203000D01*
X116375000Y-100361750D01*
X102319000Y-100361750D01*
X102160250Y-100203000D01*
X100711000Y-100203000D01*
X100457000Y-100203000D01*
X100437000Y-100203000D01*
X100437000Y-99949000D01*
X100457000Y-99949000D01*
X100457000Y-98933000D01*
X100711000Y-98933000D01*
X100711000Y-99949000D01*
X102160250Y-99949000D01*
X102319000Y-99790250D01*
X102319000Y-99589690D01*
X102257411Y-99441000D01*
X102319000Y-99292310D01*
X102319000Y-99091750D01*
X116375000Y-99091750D01*
X116375000Y-99292310D01*
X116436589Y-99441000D01*
X116375000Y-99589690D01*
X116375000Y-99790250D01*
X116533750Y-99949000D01*
X117983000Y-99949000D01*
X117983000Y-98933000D01*
X116533750Y-98933000D01*
X116375000Y-99091750D01*
X102319000Y-99091750D01*
X102160250Y-98933000D01*
X100711000Y-98933000D01*
X100457000Y-98933000D01*
X100437000Y-98933000D01*
X100437000Y-98679000D01*
X100457000Y-98679000D01*
X100457000Y-98659000D01*
X100711000Y-98659000D01*
X100711000Y-98679000D01*
X102160250Y-98679000D01*
X102319000Y-98520250D01*
X102319000Y-98319690D01*
X102222327Y-98086301D01*
X102053025Y-97917000D01*
X116640975Y-97917000D01*
X116471673Y-98086301D01*
M02*
