G04 #@! TF.GenerationSoftware,KiCad,Pcbnew,(5.0.0)*
G04 #@! TF.CreationDate,2019-06-08T15:20:39-06:00*
G04 #@! TF.ProjectId,4x4_platform,3478345F706C6174666F726D2E6B6963,rev?*
G04 #@! TF.SameCoordinates,Original*
G04 #@! TF.FileFunction,Copper,L2,Bot,Signal*
G04 #@! TF.FilePolarity,Positive*
%FSLAX46Y46*%
G04 Gerber Fmt 4.6, Leading zero omitted, Abs format (unit mm)*
G04 Created by KiCad (PCBNEW (5.0.0)) date 06/08/19 15:20:39*
%MOMM*%
%LPD*%
G01*
G04 APERTURE LIST*
G04 #@! TA.AperFunction,ComponentPad*
%ADD10R,1.700000X1.700000*%
G04 #@! TD*
G04 #@! TA.AperFunction,ComponentPad*
%ADD11O,1.700000X1.700000*%
G04 #@! TD*
G04 #@! TA.AperFunction,WasherPad*
%ADD12C,1.000000*%
G04 #@! TD*
G04 #@! TA.AperFunction,ComponentPad*
%ADD13C,1.450000*%
G04 #@! TD*
G04 #@! TA.AperFunction,ComponentPad*
%ADD14O,1.200000X1.900000*%
G04 #@! TD*
G04 #@! TA.AperFunction,ViaPad*
%ADD15C,0.800000*%
G04 #@! TD*
G04 #@! TA.AperFunction,Conductor*
%ADD16C,0.250000*%
G04 #@! TD*
G04 #@! TA.AperFunction,Conductor*
%ADD17C,0.254000*%
G04 #@! TD*
G04 APERTURE END LIST*
D10*
G04 #@! TO.P,J1,1*
G04 #@! TO.N,ROW1*
X77470000Y-82232500D03*
D11*
G04 #@! TO.P,J1,2*
G04 #@! TO.N,ROW2*
X77470000Y-84772500D03*
G04 #@! TO.P,J1,3*
G04 #@! TO.N,ROW3*
X77470000Y-87312500D03*
G04 #@! TO.P,J1,4*
G04 #@! TO.N,ROW4*
X77470000Y-89852500D03*
G04 #@! TD*
G04 #@! TO.P,J2,4*
G04 #@! TO.N,COL4*
X77470000Y-108902500D03*
G04 #@! TO.P,J2,3*
G04 #@! TO.N,COL3*
X77470000Y-106362500D03*
G04 #@! TO.P,J2,2*
G04 #@! TO.N,COL2*
X77470000Y-103822500D03*
D10*
G04 #@! TO.P,J2,1*
G04 #@! TO.N,COL1*
X77470000Y-101282500D03*
G04 #@! TD*
G04 #@! TO.P,J3,1*
G04 #@! TO.N,COL5*
X77470000Y-120332500D03*
D11*
G04 #@! TO.P,J3,2*
G04 #@! TO.N,COL6*
X77470000Y-122872500D03*
G04 #@! TO.P,J3,3*
G04 #@! TO.N,COL7*
X77470000Y-125412500D03*
G04 #@! TO.P,J3,4*
G04 #@! TO.N,COL8*
X77470000Y-127952500D03*
G04 #@! TD*
G04 #@! TO.P,J4,4*
G04 #@! TO.N,COL12*
X77470000Y-147002500D03*
G04 #@! TO.P,J4,3*
G04 #@! TO.N,COL11*
X77470000Y-144462500D03*
G04 #@! TO.P,J4,2*
G04 #@! TO.N,COL10*
X77470000Y-141922500D03*
D10*
G04 #@! TO.P,J4,1*
G04 #@! TO.N,COL9*
X77470000Y-139382500D03*
G04 #@! TD*
G04 #@! TO.P,J5,1*
G04 #@! TO.N,ROW1*
X151130000Y-82232500D03*
D11*
G04 #@! TO.P,J5,2*
G04 #@! TO.N,ROW2*
X151130000Y-84772500D03*
G04 #@! TO.P,J5,3*
G04 #@! TO.N,ROW3*
X151130000Y-87312500D03*
G04 #@! TO.P,J5,4*
G04 #@! TO.N,ROW4*
X151130000Y-89852500D03*
G04 #@! TD*
G04 #@! TO.P,J6,4*
G04 #@! TO.N,COL8*
X151130000Y-108902500D03*
G04 #@! TO.P,J6,3*
G04 #@! TO.N,COL7*
X151130000Y-106362500D03*
G04 #@! TO.P,J6,2*
G04 #@! TO.N,COL6*
X151130000Y-103822500D03*
D10*
G04 #@! TO.P,J6,1*
G04 #@! TO.N,COL5*
X151130000Y-101282500D03*
G04 #@! TD*
G04 #@! TO.P,J7,1*
G04 #@! TO.N,COL9*
X151130000Y-120332500D03*
D11*
G04 #@! TO.P,J7,2*
G04 #@! TO.N,COL10*
X151130000Y-122872500D03*
G04 #@! TO.P,J7,3*
G04 #@! TO.N,COL11*
X151130000Y-125412500D03*
G04 #@! TO.P,J7,4*
G04 #@! TO.N,COL12*
X151130000Y-127952500D03*
G04 #@! TD*
G04 #@! TO.P,J8,4*
G04 #@! TO.N,COL16*
X151130000Y-147002500D03*
G04 #@! TO.P,J8,3*
G04 #@! TO.N,COL15*
X151130000Y-144462500D03*
G04 #@! TO.P,J8,2*
G04 #@! TO.N,COL14*
X151130000Y-141922500D03*
D10*
G04 #@! TO.P,J8,1*
G04 #@! TO.N,COL13*
X151130000Y-139382500D03*
G04 #@! TD*
G04 #@! TO.P,J9,1*
G04 #@! TO.N,VCC*
X118110000Y-85090000D03*
D11*
G04 #@! TO.P,J9,2*
G04 #@! TO.N,GND*
X120650000Y-85090000D03*
G04 #@! TO.P,J9,3*
G04 #@! TO.N,SWDCLK*
X123190000Y-85090000D03*
G04 #@! TO.P,J9,4*
G04 #@! TO.N,SWDIO*
X125730000Y-85090000D03*
G04 #@! TD*
D12*
G04 #@! TO.P,SW1,*
G04 #@! TO.N,*
X110260000Y-147320000D03*
X113260000Y-147320000D03*
G04 #@! TD*
D13*
G04 #@! TO.P,J17,6*
G04 #@! TO.N,Net-(J17-Pad6)*
X144206600Y-80354900D03*
X139206600Y-80354900D03*
D14*
X145206600Y-77654900D03*
X138206600Y-77654900D03*
G04 #@! TD*
D10*
G04 #@! TO.P,J10,1*
G04 #@! TO.N,GND*
X115316000Y-136652000D03*
D11*
G04 #@! TO.P,J10,2*
G04 #@! TO.N,Net-(J10-Pad2)*
X115316000Y-139192000D03*
G04 #@! TD*
D15*
G04 #@! TO.N,ROW1*
X96774000Y-90170000D03*
G04 #@! TO.N,ROW2*
X97663000Y-90932000D03*
G04 #@! TO.N,ROW3*
X98425000Y-91947994D03*
G04 #@! TO.N,ROW4*
X99568000Y-92710000D03*
G04 #@! TO.N,COL4*
X97155000Y-103124000D03*
G04 #@! TO.N,COL3*
X95810480Y-101763990D03*
G04 #@! TO.N,COL2*
X96139000Y-98298000D03*
G04 #@! TO.N,COL1*
X95377000Y-96266000D03*
G04 #@! TO.N,COL5*
X98806000Y-118745000D03*
G04 #@! TO.N,COL6*
X99060000Y-120142002D03*
G04 #@! TO.N,COL7*
X98933000Y-121539000D03*
G04 #@! TO.N,COL8*
X98747307Y-122621133D03*
G04 #@! TO.N,COL12*
X104140000Y-124206000D03*
G04 #@! TO.N,COL11*
X102179221Y-123880989D03*
G04 #@! TO.N,COL10*
X101225018Y-123430978D03*
G04 #@! TO.N,COL9*
X99656670Y-123107026D03*
G04 #@! TO.N,GND*
X99517200Y-99745800D03*
X102387400Y-97993200D03*
X104698800Y-96189800D03*
X107721400Y-102362000D03*
X97713800Y-85623400D03*
X87172800Y-85369400D03*
X146227800Y-117627400D03*
X141655800Y-111404400D03*
X101193600Y-112649000D03*
X103657400Y-112623600D03*
X97942400Y-96189800D03*
X114503200Y-84995001D03*
X82270600Y-87401400D03*
X81686400Y-90347800D03*
X80060800Y-91135200D03*
X80492600Y-102387400D03*
X79502000Y-104927400D03*
X80289400Y-140563600D03*
X143738600Y-121564400D03*
X138938000Y-88138000D03*
X139628990Y-82113010D03*
X79234105Y-144784575D03*
X87376000Y-118618000D03*
X84074000Y-117348000D03*
X108712000Y-138176000D03*
X97790000Y-147066000D03*
X106680000Y-143256000D03*
X104902000Y-137668000D03*
X98552000Y-137160000D03*
X101854000Y-137668000D03*
X144018000Y-112268000D03*
X145796000Y-113030000D03*
X133858000Y-98552000D03*
X119126000Y-148590000D03*
X144018000Y-136144000D03*
X147066000Y-141478000D03*
X150622000Y-116586000D03*
X150622000Y-97028000D03*
X146558000Y-82550000D03*
X124968000Y-115316000D03*
X137414000Y-127508000D03*
G04 #@! TO.N,VCC*
X102997000Y-86868000D03*
G04 #@! TO.N,RESET*
X125730000Y-96012000D03*
X106680000Y-97536000D03*
X96520000Y-114808000D03*
X85344000Y-117602000D03*
G04 #@! TO.N,SWDCLK*
X105537000Y-87031990D03*
G04 #@! TO.N,SWDIO*
X106807000Y-87085010D03*
G04 #@! TO.N,TXD*
X103632000Y-88646000D03*
X130556000Y-87630000D03*
G04 #@! TO.N,RXD*
X104902000Y-89408000D03*
X132334000Y-88138004D03*
G04 #@! TO.N,BLUELED*
X139446000Y-145796000D03*
X139954000Y-129286000D03*
G04 #@! TO.N,REDLED*
X139954000Y-147320000D03*
X140462000Y-132587998D03*
G04 #@! TO.N,Net-(C9-Pad1)*
X143256000Y-93980000D03*
X130556000Y-95758000D03*
X140905400Y-93726000D03*
G04 #@! TO.N,VBUS*
X146812000Y-125476000D03*
X116332000Y-125984000D03*
G04 #@! TO.N,VBATT*
X93218000Y-136906000D03*
X95758000Y-135382000D03*
G04 #@! TO.N,Net-(C14-Pad1)*
X90170000Y-99060000D03*
X82550000Y-100330000D03*
G04 #@! TO.N,Net-(D9-Pad1)*
X102870000Y-143510000D03*
X102362000Y-132842000D03*
G04 #@! TO.N,Net-(D10-Pad1)*
X101854000Y-142240000D03*
X100076000Y-131318000D03*
G04 #@! TO.N,Net-(Q2-Pad3)*
X105156000Y-149098000D03*
X141478000Y-147066000D03*
X140970000Y-128524000D03*
G04 #@! TO.N,WS2812B*
X125476000Y-100330000D03*
X125730000Y-102870000D03*
X140208002Y-126492000D03*
X138684000Y-140716000D03*
G04 #@! TD*
D16*
G04 #@! TO.N,ROW1*
X78570000Y-82232500D02*
X86507500Y-90170000D01*
X86507500Y-90170000D02*
X96774000Y-90170000D01*
X151130000Y-82232500D02*
X150030000Y-82232500D01*
X77470000Y-82232500D02*
X78570000Y-82232500D01*
X150030000Y-82232500D02*
X142092500Y-90170000D01*
X142092500Y-90170000D02*
X96774000Y-90170000D01*
G04 #@! TO.N,ROW2*
X144970500Y-90932000D02*
X98228685Y-90932000D01*
X151130000Y-84772500D02*
X144970500Y-90932000D01*
X98228685Y-90932000D02*
X97663000Y-90932000D01*
X97097315Y-90932000D02*
X97663000Y-90932000D01*
X83629500Y-90932000D02*
X97097315Y-90932000D01*
X77470000Y-84772500D02*
X83629500Y-90932000D01*
G04 #@! TO.N,ROW3*
X77470000Y-87312500D02*
X82105494Y-91947994D01*
X151130000Y-87312500D02*
X146494506Y-91947994D01*
X82105494Y-91947994D02*
X97859315Y-91947994D01*
X98990685Y-91947994D02*
X98425000Y-91947994D01*
X146494506Y-91947994D02*
X98990685Y-91947994D01*
X97859315Y-91947994D02*
X98425000Y-91947994D01*
G04 #@! TO.N,ROW4*
X148272500Y-92710000D02*
X100133685Y-92710000D01*
X151130000Y-89852500D02*
X148272500Y-92710000D01*
X100133685Y-92710000D02*
X99568000Y-92710000D01*
X99168001Y-93109999D02*
X99568000Y-92710000D01*
X77470000Y-89852500D02*
X80727499Y-93109999D01*
X80727499Y-93109999D02*
X99168001Y-93109999D01*
G04 #@! TO.N,COL4*
X96393000Y-102489000D02*
X97028000Y-103124000D01*
X83883500Y-102489000D02*
X96393000Y-102489000D01*
X97028000Y-103124000D02*
X97155000Y-103124000D01*
X77470000Y-108902500D02*
X83883500Y-102489000D01*
G04 #@! TO.N,COL3*
X77470000Y-106362500D02*
X79373589Y-106362500D01*
X83972099Y-101763990D02*
X95244795Y-101763990D01*
X79373589Y-106362500D02*
X83972099Y-101763990D01*
X95244795Y-101763990D02*
X95810480Y-101763990D01*
G04 #@! TO.N,COL2*
X78672081Y-103822500D02*
X77470000Y-103822500D01*
X81277178Y-103822500D02*
X78672081Y-103822500D01*
X84192667Y-100907011D02*
X81277178Y-103822500D01*
X94164989Y-100907011D02*
X84192667Y-100907011D01*
X96139000Y-98298000D02*
X96139000Y-98933000D01*
X96139000Y-98933000D02*
X94164989Y-100907011D01*
G04 #@! TO.N,COL1*
X95377000Y-97790000D02*
X95377000Y-96266000D01*
X92710000Y-100457000D02*
X95377000Y-97790000D01*
X84006267Y-100457000D02*
X92710000Y-100457000D01*
X77470000Y-101282500D02*
X83180768Y-101282499D01*
X83180768Y-101282499D02*
X84006267Y-100457000D01*
G04 #@! TO.N,COL5*
X150030000Y-101282500D02*
X151130000Y-101282500D01*
X132440500Y-118872000D02*
X150030000Y-101282500D01*
X98806000Y-118872000D02*
X132440500Y-118872000D01*
X99060000Y-118745000D02*
X98806000Y-118745000D01*
X98806000Y-118872000D02*
X99187000Y-118872000D01*
X99187000Y-118872000D02*
X99060000Y-118745000D01*
X97409000Y-120269000D02*
X98806000Y-118872000D01*
X96520000Y-121158000D02*
X97409000Y-120269000D01*
X77470000Y-120332500D02*
X78295500Y-121158000D01*
X78295500Y-121158000D02*
X96520000Y-121158000D01*
G04 #@! TO.N,COL6*
X134810498Y-120142002D02*
X99625685Y-120142002D01*
X151130000Y-103822500D02*
X134810498Y-120142002D01*
X99625685Y-120142002D02*
X99060000Y-120142002D01*
X78319999Y-122022501D02*
X97179501Y-122022501D01*
X97179501Y-122022501D02*
X98660001Y-120542001D01*
X77470000Y-122872500D02*
X78319999Y-122022501D01*
X98660001Y-120542001D02*
X99060000Y-120142002D01*
G04 #@! TO.N,COL7*
X136874515Y-120617985D02*
X99854015Y-120617985D01*
X99854015Y-120617985D02*
X99332999Y-121139001D01*
X151130000Y-106362500D02*
X136874515Y-120617985D01*
X99332999Y-121139001D02*
X98933000Y-121539000D01*
X98756436Y-121539000D02*
X98933000Y-121539000D01*
X97359436Y-122936000D02*
X98756436Y-121539000D01*
X77470000Y-125412500D02*
X79946500Y-122936000D01*
X79946500Y-122936000D02*
X97359436Y-122936000D01*
G04 #@! TO.N,COL8*
X98347308Y-123021132D02*
X98747307Y-122621133D01*
X97670440Y-123698000D02*
X98347308Y-123021132D01*
X77470000Y-127952500D02*
X81724500Y-123698000D01*
X81724500Y-123698000D02*
X97670440Y-123698000D01*
X99069561Y-122621133D02*
X98747307Y-122621133D01*
X100622698Y-121067996D02*
X99069561Y-122621133D01*
X138964504Y-121067996D02*
X100622698Y-121067996D01*
X151130000Y-108902500D02*
X138964504Y-121067996D01*
G04 #@! TO.N,COL12*
X104394000Y-124460000D02*
X104140000Y-124206000D01*
X151130000Y-127952500D02*
X147637500Y-124460000D01*
X147637500Y-124460000D02*
X104394000Y-124460000D01*
X103740001Y-124605999D02*
X104140000Y-124206000D01*
X78041500Y-147002500D02*
X100438001Y-124605999D01*
X77470000Y-147002500D02*
X78041500Y-147002500D01*
X100438001Y-124605999D02*
X103740001Y-124605999D01*
G04 #@! TO.N,COL11*
X78319999Y-143612501D02*
X80795089Y-143612501D01*
X101904222Y-124155988D02*
X102179221Y-123880989D01*
X77470000Y-144462500D02*
X78319999Y-143612501D01*
X151130000Y-125412500D02*
X149198490Y-123480990D01*
X149198490Y-123480990D02*
X102579220Y-123480990D01*
X102579220Y-123480990D02*
X102179221Y-123880989D01*
X80795089Y-143612501D02*
X100251601Y-124155988D01*
X100251601Y-124155988D02*
X101904222Y-124155988D01*
G04 #@! TO.N,COL10*
X101783496Y-122872500D02*
X101625017Y-123030979D01*
X151130000Y-122872500D02*
X101783496Y-122872500D01*
X77470000Y-141922500D02*
X81848678Y-141922500D01*
X100659333Y-123430978D02*
X101225018Y-123430978D01*
X100065201Y-123705977D02*
X100384334Y-123705977D01*
X81848678Y-141922500D02*
X100065201Y-123705977D01*
X100384334Y-123705977D02*
X100659333Y-123430978D01*
X101625017Y-123030979D02*
X101225018Y-123430978D01*
G04 #@! TO.N,COL9*
X83180767Y-139382500D02*
X96616265Y-125947002D01*
X77470000Y-139382500D02*
X83180767Y-139382500D01*
X96816694Y-125947002D02*
X99656670Y-123107026D01*
X96616265Y-125947002D02*
X96816694Y-125947002D01*
X100901685Y-121862011D02*
X99656670Y-123107026D01*
X138806900Y-121862011D02*
X100901685Y-121862011D01*
X151130000Y-120332500D02*
X140336411Y-120332500D01*
X140336411Y-120332500D02*
X138806900Y-121862011D01*
G04 #@! TO.N,GND*
X84074000Y-117405002D02*
X84074000Y-117348000D01*
X87376000Y-118618000D02*
X85286998Y-118618000D01*
X85286998Y-118618000D02*
X84074000Y-117405002D01*
X108712000Y-138176000D02*
X108712000Y-141224000D01*
X108712000Y-141224000D02*
X106680000Y-143256000D01*
X102870000Y-147066000D02*
X97790000Y-147066000D01*
X106680000Y-143256000D02*
X102870000Y-147066000D01*
G04 #@! TO.N,VCC*
X116840000Y-85090000D02*
X118110000Y-85090000D01*
X115570000Y-83820000D02*
X116840000Y-85090000D01*
X102997000Y-86868000D02*
X106045000Y-83820000D01*
X106045000Y-83820000D02*
X115570000Y-83820000D01*
G04 #@! TO.N,RESET*
X107245685Y-97536000D02*
X106680000Y-97536000D01*
X125730000Y-96012000D02*
X124206000Y-97536000D01*
X124206000Y-97536000D02*
X107245685Y-97536000D01*
X106680000Y-98101685D02*
X106680000Y-97536000D01*
X106680000Y-98298000D02*
X106680000Y-98101685D01*
X96520000Y-108458000D02*
X106680000Y-98298000D01*
X96520000Y-114808000D02*
X96520000Y-108458000D01*
X96520000Y-114808000D02*
X93726000Y-117602000D01*
X93726000Y-117602000D02*
X85909685Y-117602000D01*
X85909685Y-117602000D02*
X85344000Y-117602000D01*
G04 #@! TO.N,SWDCLK*
X105936999Y-86631991D02*
X105537000Y-87031990D01*
X106208990Y-86360000D02*
X105936999Y-86631991D01*
X122555000Y-86360000D02*
X106208990Y-86360000D01*
X123190000Y-85090000D02*
X123190000Y-85725000D01*
X123190000Y-85725000D02*
X122555000Y-86360000D01*
G04 #@! TO.N,SWDIO*
X107372685Y-87085010D02*
X106807000Y-87085010D01*
X124369990Y-87085010D02*
X107372685Y-87085010D01*
X125730000Y-85090000D02*
X125730000Y-85725000D01*
X125730000Y-85725000D02*
X124369990Y-87085010D01*
G04 #@! TO.N,TXD*
X104467988Y-87810012D02*
X104031999Y-88246001D01*
X104031999Y-88246001D02*
X103632000Y-88646000D01*
X104467988Y-87810012D02*
X130375988Y-87810012D01*
X130375988Y-87810012D02*
X130556000Y-87630000D01*
G04 #@! TO.N,RXD*
X104902000Y-89408000D02*
X105029000Y-89535000D01*
X131064004Y-89408000D02*
X131934001Y-88538003D01*
X104902000Y-89408000D02*
X131064004Y-89408000D01*
X131934001Y-88538003D02*
X132334000Y-88138004D01*
G04 #@! TO.N,BLUELED*
X139446000Y-145796000D02*
X139446000Y-129794000D01*
X139446000Y-129794000D02*
X139954000Y-129286000D01*
G04 #@! TO.N,REDLED*
X139954000Y-147320000D02*
X140462000Y-146812000D01*
X140462000Y-133153683D02*
X140462000Y-132587998D01*
X140462000Y-146812000D02*
X140462000Y-133153683D01*
G04 #@! TO.N,Net-(C9-Pad1)*
X143256000Y-93980000D02*
X140716000Y-96520000D01*
X140716000Y-96520000D02*
X131318000Y-96520000D01*
X131318000Y-96520000D02*
X130556000Y-95758000D01*
X143002000Y-93726000D02*
X143256000Y-93980000D01*
X140905400Y-93726000D02*
X143002000Y-93726000D01*
G04 #@! TO.N,VBUS*
X116731999Y-125584001D02*
X116332000Y-125984000D01*
X146812000Y-125476000D02*
X116840000Y-125476000D01*
X116840000Y-125476000D02*
X116731999Y-125584001D01*
G04 #@! TO.N,VBATT*
X93218000Y-136906000D02*
X94742000Y-135382000D01*
X94742000Y-135382000D02*
X95758000Y-135382000D01*
G04 #@! TO.N,Net-(C14-Pad1)*
X90170000Y-99060000D02*
X83820000Y-99060000D01*
X83820000Y-99060000D02*
X82550000Y-100330000D01*
G04 #@! TO.N,Net-(D9-Pad1)*
X102870000Y-143510000D02*
X102870000Y-133350000D01*
X102870000Y-133350000D02*
X102362000Y-132842000D01*
G04 #@! TO.N,Net-(D10-Pad1)*
X100076000Y-131883685D02*
X100076000Y-131318000D01*
X101092000Y-132899685D02*
X100076000Y-131883685D01*
X101854000Y-142240000D02*
X101092000Y-141478000D01*
X101092000Y-141478000D02*
X101092000Y-132899685D01*
G04 #@! TO.N,Net-(Q2-Pad3)*
X138176000Y-150368000D02*
X141478000Y-147066000D01*
X105156000Y-149098000D02*
X106426000Y-150368000D01*
X106426000Y-150368000D02*
X138176000Y-150368000D01*
X141478000Y-147066000D02*
X141478000Y-129032000D01*
X141478000Y-129032000D02*
X141369999Y-128923999D01*
X141369999Y-128923999D02*
X140970000Y-128524000D01*
G04 #@! TO.N,WS2812B*
X125476000Y-100330000D02*
X125476000Y-102616000D01*
X125476000Y-102616000D02*
X125730000Y-102870000D01*
X138684000Y-140150315D02*
X138684000Y-140716000D01*
X138684000Y-129286000D02*
X138684000Y-140150315D01*
X140208002Y-126492000D02*
X140208002Y-127761998D01*
X140208002Y-127761998D02*
X138684000Y-129286000D01*
G04 #@! TD*
D17*
G04 #@! TO.N,GND*
G36*
X115454569Y-125397720D02*
X115297000Y-125778126D01*
X115297000Y-126189874D01*
X115454569Y-126570280D01*
X115745720Y-126861431D01*
X116126126Y-127019000D01*
X116537874Y-127019000D01*
X116918280Y-126861431D01*
X117209431Y-126570280D01*
X117347894Y-126236000D01*
X139193765Y-126236000D01*
X139173002Y-126286126D01*
X139173002Y-126697874D01*
X139330571Y-127078280D01*
X139448003Y-127195712D01*
X139448003Y-127447195D01*
X138199530Y-128695669D01*
X138136071Y-128738071D01*
X137968096Y-128989464D01*
X137924000Y-129211149D01*
X137924000Y-129211153D01*
X137909112Y-129286000D01*
X137924000Y-129360847D01*
X137924001Y-140012288D01*
X137806569Y-140129720D01*
X137649000Y-140510126D01*
X137649000Y-140921874D01*
X137806569Y-141302280D01*
X138097720Y-141593431D01*
X138478126Y-141751000D01*
X138686000Y-141751000D01*
X138686000Y-145092289D01*
X138568569Y-145209720D01*
X138411000Y-145590126D01*
X138411000Y-146001874D01*
X138568569Y-146382280D01*
X138859720Y-146673431D01*
X139066128Y-146758928D01*
X138919000Y-147114126D01*
X138919000Y-147525874D01*
X139076569Y-147906280D01*
X139319744Y-148149455D01*
X137861199Y-149608000D01*
X106740802Y-149608000D01*
X106191000Y-149058199D01*
X106191000Y-148892126D01*
X106033431Y-148511720D01*
X105742280Y-148220569D01*
X105361874Y-148063000D01*
X104950126Y-148063000D01*
X104569720Y-148220569D01*
X104278569Y-148511720D01*
X104121000Y-148892126D01*
X104121000Y-149303874D01*
X104278569Y-149684280D01*
X104569720Y-149975431D01*
X104950126Y-150133000D01*
X105116199Y-150133000D01*
X105835671Y-150852473D01*
X105878071Y-150915929D01*
X106129463Y-151083904D01*
X106351148Y-151128000D01*
X106351152Y-151128000D01*
X106425999Y-151142888D01*
X106500846Y-151128000D01*
X138101153Y-151128000D01*
X138176000Y-151142888D01*
X138250847Y-151128000D01*
X138250852Y-151128000D01*
X138472537Y-151083904D01*
X138723929Y-150915929D01*
X138766331Y-150852470D01*
X141517802Y-148101000D01*
X141683874Y-148101000D01*
X142064280Y-147943431D01*
X142355431Y-147652280D01*
X142513000Y-147271874D01*
X142513000Y-146860126D01*
X142355431Y-146479720D01*
X142238000Y-146362289D01*
X142238000Y-134701868D01*
X146655737Y-134701868D01*
X146766641Y-134979099D01*
X147412593Y-135222323D01*
X148102453Y-135199836D01*
X148635359Y-134979099D01*
X148746263Y-134701868D01*
X147701000Y-133656605D01*
X146655737Y-134701868D01*
X142238000Y-134701868D01*
X142238000Y-133188593D01*
X145955677Y-133188593D01*
X145978164Y-133878453D01*
X146198901Y-134411359D01*
X146476132Y-134522263D01*
X147521395Y-133477000D01*
X147880605Y-133477000D01*
X148925868Y-134522263D01*
X149203099Y-134411359D01*
X149446323Y-133765407D01*
X149423836Y-133075547D01*
X149203099Y-132542641D01*
X148925868Y-132431737D01*
X147880605Y-133477000D01*
X147521395Y-133477000D01*
X146476132Y-132431737D01*
X146198901Y-132542641D01*
X145955677Y-133188593D01*
X142238000Y-133188593D01*
X142238000Y-132252132D01*
X146655737Y-132252132D01*
X147701000Y-133297395D01*
X148746263Y-132252132D01*
X148635359Y-131974901D01*
X147989407Y-131731677D01*
X147299547Y-131754164D01*
X146766641Y-131974901D01*
X146655737Y-132252132D01*
X142238000Y-132252132D01*
X142238000Y-129106846D01*
X142252888Y-129031999D01*
X142238000Y-128957152D01*
X142238000Y-128957148D01*
X142193904Y-128735463D01*
X142025929Y-128484071D01*
X142005000Y-128470087D01*
X142005000Y-128318126D01*
X141847431Y-127937720D01*
X141556280Y-127646569D01*
X141175874Y-127489000D01*
X140968002Y-127489000D01*
X140968002Y-127195711D01*
X141085433Y-127078280D01*
X141243002Y-126697874D01*
X141243002Y-126286126D01*
X141222239Y-126236000D01*
X146108289Y-126236000D01*
X146225720Y-126353431D01*
X146606126Y-126511000D01*
X147017874Y-126511000D01*
X147398280Y-126353431D01*
X147689431Y-126062280D01*
X147828716Y-125726017D01*
X149688791Y-127586092D01*
X149615908Y-127952500D01*
X149731161Y-128531918D01*
X150059375Y-129023125D01*
X150550582Y-129351339D01*
X150983744Y-129437500D01*
X151276256Y-129437500D01*
X151690000Y-129355201D01*
X151690000Y-137885060D01*
X150280000Y-137885060D01*
X150032235Y-137934343D01*
X149822191Y-138074691D01*
X149681843Y-138284735D01*
X149632560Y-138532500D01*
X149632560Y-140232500D01*
X149681843Y-140480265D01*
X149822191Y-140690309D01*
X150032235Y-140830657D01*
X150077619Y-140839684D01*
X150059375Y-140851875D01*
X149731161Y-141343082D01*
X149615908Y-141922500D01*
X149731161Y-142501918D01*
X150059375Y-142993125D01*
X150357761Y-143192500D01*
X150059375Y-143391875D01*
X149731161Y-143883082D01*
X149615908Y-144462500D01*
X149731161Y-145041918D01*
X150059375Y-145533125D01*
X150357761Y-145732500D01*
X150059375Y-145931875D01*
X149731161Y-146423082D01*
X149615908Y-147002500D01*
X149731161Y-147581918D01*
X150059375Y-148073125D01*
X150550582Y-148401339D01*
X150983744Y-148487500D01*
X151276256Y-148487500D01*
X151690000Y-148405201D01*
X151690000Y-150328773D01*
X151673751Y-150381922D01*
X151672423Y-150390803D01*
X151610774Y-150821276D01*
X151474352Y-151121322D01*
X151259200Y-151371018D01*
X150982614Y-151550292D01*
X150642479Y-151652013D01*
X150440530Y-151667021D01*
X150336016Y-151690000D01*
X78271227Y-151690000D01*
X78218078Y-151673751D01*
X78209197Y-151672423D01*
X77778724Y-151610774D01*
X77478678Y-151474352D01*
X77228982Y-151259200D01*
X77049708Y-150982614D01*
X76947987Y-150642479D01*
X76932979Y-150440530D01*
X76910000Y-150336016D01*
X76910000Y-148405201D01*
X77323744Y-148487500D01*
X77616256Y-148487500D01*
X78049418Y-148401339D01*
X78540625Y-148073125D01*
X78868839Y-147581918D01*
X78951264Y-147167537D01*
X79024567Y-147094234D01*
X109125000Y-147094234D01*
X109125000Y-147545766D01*
X109297793Y-147962926D01*
X109617074Y-148282207D01*
X110034234Y-148455000D01*
X110485766Y-148455000D01*
X110902926Y-148282207D01*
X111222207Y-147962926D01*
X111395000Y-147545766D01*
X111395000Y-147094234D01*
X112125000Y-147094234D01*
X112125000Y-147545766D01*
X112297793Y-147962926D01*
X112617074Y-148282207D01*
X113034234Y-148455000D01*
X113485766Y-148455000D01*
X113902926Y-148282207D01*
X114222207Y-147962926D01*
X114395000Y-147545766D01*
X114395000Y-147094234D01*
X114222207Y-146677074D01*
X113902926Y-146357793D01*
X113485766Y-146185000D01*
X113034234Y-146185000D01*
X112617074Y-146357793D01*
X112297793Y-146677074D01*
X112125000Y-147094234D01*
X111395000Y-147094234D01*
X111222207Y-146677074D01*
X110902926Y-146357793D01*
X110485766Y-146185000D01*
X110034234Y-146185000D01*
X109617074Y-146357793D01*
X109297793Y-146677074D01*
X109125000Y-147094234D01*
X79024567Y-147094234D01*
X89418675Y-136700126D01*
X92183000Y-136700126D01*
X92183000Y-137111874D01*
X92340569Y-137492280D01*
X92631720Y-137783431D01*
X93012126Y-137941000D01*
X93423874Y-137941000D01*
X93804280Y-137783431D01*
X94095431Y-137492280D01*
X94253000Y-137111874D01*
X94253000Y-136945802D01*
X95055546Y-136143257D01*
X95171720Y-136259431D01*
X95552126Y-136417000D01*
X95963874Y-136417000D01*
X96344280Y-136259431D01*
X96635431Y-135968280D01*
X96793000Y-135587874D01*
X96793000Y-135176126D01*
X96635431Y-134795720D01*
X96344280Y-134504569D01*
X95963874Y-134347000D01*
X95552126Y-134347000D01*
X95171720Y-134504569D01*
X95054289Y-134622000D01*
X94816846Y-134622000D01*
X94741999Y-134607112D01*
X94667152Y-134622000D01*
X94667148Y-134622000D01*
X94445463Y-134666096D01*
X94382902Y-134707898D01*
X94257526Y-134791671D01*
X94257524Y-134791673D01*
X94194071Y-134834071D01*
X94151673Y-134897524D01*
X93178198Y-135871000D01*
X93012126Y-135871000D01*
X92631720Y-136028569D01*
X92340569Y-136319720D01*
X92183000Y-136700126D01*
X89418675Y-136700126D01*
X95006675Y-131112126D01*
X99041000Y-131112126D01*
X99041000Y-131523874D01*
X99198569Y-131904280D01*
X99331687Y-132037398D01*
X99360096Y-132180221D01*
X99528071Y-132431614D01*
X99591530Y-132474016D01*
X100332001Y-133214488D01*
X100332000Y-141403153D01*
X100317112Y-141478000D01*
X100332000Y-141552847D01*
X100332000Y-141552851D01*
X100376096Y-141774536D01*
X100544071Y-142025929D01*
X100607530Y-142068331D01*
X100819000Y-142279801D01*
X100819000Y-142445874D01*
X100976569Y-142826280D01*
X101267720Y-143117431D01*
X101648126Y-143275000D01*
X101847064Y-143275000D01*
X101835000Y-143304126D01*
X101835000Y-143715874D01*
X101992569Y-144096280D01*
X102283720Y-144387431D01*
X102664126Y-144545000D01*
X103075874Y-144545000D01*
X103456280Y-144387431D01*
X103747431Y-144096280D01*
X103905000Y-143715874D01*
X103905000Y-143304126D01*
X103747431Y-142923720D01*
X103630000Y-142806289D01*
X103630000Y-139192000D01*
X113801908Y-139192000D01*
X113917161Y-139771418D01*
X114245375Y-140262625D01*
X114736582Y-140590839D01*
X115169744Y-140677000D01*
X115462256Y-140677000D01*
X115895418Y-140590839D01*
X116386625Y-140262625D01*
X116714839Y-139771418D01*
X116830092Y-139192000D01*
X116714839Y-138612582D01*
X116386625Y-138121375D01*
X116364967Y-138106904D01*
X116525698Y-138040327D01*
X116704327Y-137861699D01*
X116801000Y-137628310D01*
X116801000Y-136937750D01*
X116642250Y-136779000D01*
X115443000Y-136779000D01*
X115443000Y-136799000D01*
X115189000Y-136799000D01*
X115189000Y-136779000D01*
X113989750Y-136779000D01*
X113831000Y-136937750D01*
X113831000Y-137628310D01*
X113927673Y-137861699D01*
X114106302Y-138040327D01*
X114267033Y-138106904D01*
X114245375Y-138121375D01*
X113917161Y-138612582D01*
X113801908Y-139192000D01*
X103630000Y-139192000D01*
X103630000Y-135675690D01*
X113831000Y-135675690D01*
X113831000Y-136366250D01*
X113989750Y-136525000D01*
X115189000Y-136525000D01*
X115189000Y-135325750D01*
X115443000Y-135325750D01*
X115443000Y-136525000D01*
X116642250Y-136525000D01*
X116801000Y-136366250D01*
X116801000Y-135675690D01*
X116704327Y-135442301D01*
X116525698Y-135263673D01*
X116292309Y-135167000D01*
X115601750Y-135167000D01*
X115443000Y-135325750D01*
X115189000Y-135325750D01*
X115030250Y-135167000D01*
X114339691Y-135167000D01*
X114106302Y-135263673D01*
X113927673Y-135442301D01*
X113831000Y-135675690D01*
X103630000Y-135675690D01*
X103630000Y-134701868D01*
X108555737Y-134701868D01*
X108666641Y-134979099D01*
X109312593Y-135222323D01*
X110002453Y-135199836D01*
X110535359Y-134979099D01*
X110646263Y-134701868D01*
X109601000Y-133656605D01*
X108555737Y-134701868D01*
X103630000Y-134701868D01*
X103630000Y-133424846D01*
X103644888Y-133349999D01*
X103630000Y-133275152D01*
X103630000Y-133275148D01*
X103612784Y-133188593D01*
X107855677Y-133188593D01*
X107878164Y-133878453D01*
X108098901Y-134411359D01*
X108376132Y-134522263D01*
X109421395Y-133477000D01*
X109780605Y-133477000D01*
X110825868Y-134522263D01*
X111103099Y-134411359D01*
X111346323Y-133765407D01*
X111323836Y-133075547D01*
X111103099Y-132542641D01*
X110825868Y-132431737D01*
X109780605Y-133477000D01*
X109421395Y-133477000D01*
X108376132Y-132431737D01*
X108098901Y-132542641D01*
X107855677Y-133188593D01*
X103612784Y-133188593D01*
X103585904Y-133053463D01*
X103483153Y-132899685D01*
X103460329Y-132865526D01*
X103460327Y-132865524D01*
X103417929Y-132802071D01*
X103397000Y-132788087D01*
X103397000Y-132636126D01*
X103239431Y-132255720D01*
X103235843Y-132252132D01*
X108555737Y-132252132D01*
X109601000Y-133297395D01*
X110646263Y-132252132D01*
X110535359Y-131974901D01*
X109889407Y-131731677D01*
X109199547Y-131754164D01*
X108666641Y-131974901D01*
X108555737Y-132252132D01*
X103235843Y-132252132D01*
X102948280Y-131964569D01*
X102567874Y-131807000D01*
X102156126Y-131807000D01*
X101775720Y-131964569D01*
X101503703Y-132236586D01*
X101017271Y-131750155D01*
X101111000Y-131523874D01*
X101111000Y-131112126D01*
X100953431Y-130731720D01*
X100662280Y-130440569D01*
X100281874Y-130283000D01*
X99870126Y-130283000D01*
X99489720Y-130440569D01*
X99198569Y-130731720D01*
X99041000Y-131112126D01*
X95006675Y-131112126D01*
X100752804Y-125365999D01*
X103665154Y-125365999D01*
X103740001Y-125380887D01*
X103814848Y-125365999D01*
X103814853Y-125365999D01*
X104036538Y-125321903D01*
X104157618Y-125241000D01*
X104345874Y-125241000D01*
X104371456Y-125230404D01*
X104393999Y-125234888D01*
X104468846Y-125220000D01*
X115632289Y-125220000D01*
X115454569Y-125397720D01*
X115454569Y-125397720D01*
G37*
X115454569Y-125397720D02*
X115297000Y-125778126D01*
X115297000Y-126189874D01*
X115454569Y-126570280D01*
X115745720Y-126861431D01*
X116126126Y-127019000D01*
X116537874Y-127019000D01*
X116918280Y-126861431D01*
X117209431Y-126570280D01*
X117347894Y-126236000D01*
X139193765Y-126236000D01*
X139173002Y-126286126D01*
X139173002Y-126697874D01*
X139330571Y-127078280D01*
X139448003Y-127195712D01*
X139448003Y-127447195D01*
X138199530Y-128695669D01*
X138136071Y-128738071D01*
X137968096Y-128989464D01*
X137924000Y-129211149D01*
X137924000Y-129211153D01*
X137909112Y-129286000D01*
X137924000Y-129360847D01*
X137924001Y-140012288D01*
X137806569Y-140129720D01*
X137649000Y-140510126D01*
X137649000Y-140921874D01*
X137806569Y-141302280D01*
X138097720Y-141593431D01*
X138478126Y-141751000D01*
X138686000Y-141751000D01*
X138686000Y-145092289D01*
X138568569Y-145209720D01*
X138411000Y-145590126D01*
X138411000Y-146001874D01*
X138568569Y-146382280D01*
X138859720Y-146673431D01*
X139066128Y-146758928D01*
X138919000Y-147114126D01*
X138919000Y-147525874D01*
X139076569Y-147906280D01*
X139319744Y-148149455D01*
X137861199Y-149608000D01*
X106740802Y-149608000D01*
X106191000Y-149058199D01*
X106191000Y-148892126D01*
X106033431Y-148511720D01*
X105742280Y-148220569D01*
X105361874Y-148063000D01*
X104950126Y-148063000D01*
X104569720Y-148220569D01*
X104278569Y-148511720D01*
X104121000Y-148892126D01*
X104121000Y-149303874D01*
X104278569Y-149684280D01*
X104569720Y-149975431D01*
X104950126Y-150133000D01*
X105116199Y-150133000D01*
X105835671Y-150852473D01*
X105878071Y-150915929D01*
X106129463Y-151083904D01*
X106351148Y-151128000D01*
X106351152Y-151128000D01*
X106425999Y-151142888D01*
X106500846Y-151128000D01*
X138101153Y-151128000D01*
X138176000Y-151142888D01*
X138250847Y-151128000D01*
X138250852Y-151128000D01*
X138472537Y-151083904D01*
X138723929Y-150915929D01*
X138766331Y-150852470D01*
X141517802Y-148101000D01*
X141683874Y-148101000D01*
X142064280Y-147943431D01*
X142355431Y-147652280D01*
X142513000Y-147271874D01*
X142513000Y-146860126D01*
X142355431Y-146479720D01*
X142238000Y-146362289D01*
X142238000Y-134701868D01*
X146655737Y-134701868D01*
X146766641Y-134979099D01*
X147412593Y-135222323D01*
X148102453Y-135199836D01*
X148635359Y-134979099D01*
X148746263Y-134701868D01*
X147701000Y-133656605D01*
X146655737Y-134701868D01*
X142238000Y-134701868D01*
X142238000Y-133188593D01*
X145955677Y-133188593D01*
X145978164Y-133878453D01*
X146198901Y-134411359D01*
X146476132Y-134522263D01*
X147521395Y-133477000D01*
X147880605Y-133477000D01*
X148925868Y-134522263D01*
X149203099Y-134411359D01*
X149446323Y-133765407D01*
X149423836Y-133075547D01*
X149203099Y-132542641D01*
X148925868Y-132431737D01*
X147880605Y-133477000D01*
X147521395Y-133477000D01*
X146476132Y-132431737D01*
X146198901Y-132542641D01*
X145955677Y-133188593D01*
X142238000Y-133188593D01*
X142238000Y-132252132D01*
X146655737Y-132252132D01*
X147701000Y-133297395D01*
X148746263Y-132252132D01*
X148635359Y-131974901D01*
X147989407Y-131731677D01*
X147299547Y-131754164D01*
X146766641Y-131974901D01*
X146655737Y-132252132D01*
X142238000Y-132252132D01*
X142238000Y-129106846D01*
X142252888Y-129031999D01*
X142238000Y-128957152D01*
X142238000Y-128957148D01*
X142193904Y-128735463D01*
X142025929Y-128484071D01*
X142005000Y-128470087D01*
X142005000Y-128318126D01*
X141847431Y-127937720D01*
X141556280Y-127646569D01*
X141175874Y-127489000D01*
X140968002Y-127489000D01*
X140968002Y-127195711D01*
X141085433Y-127078280D01*
X141243002Y-126697874D01*
X141243002Y-126286126D01*
X141222239Y-126236000D01*
X146108289Y-126236000D01*
X146225720Y-126353431D01*
X146606126Y-126511000D01*
X147017874Y-126511000D01*
X147398280Y-126353431D01*
X147689431Y-126062280D01*
X147828716Y-125726017D01*
X149688791Y-127586092D01*
X149615908Y-127952500D01*
X149731161Y-128531918D01*
X150059375Y-129023125D01*
X150550582Y-129351339D01*
X150983744Y-129437500D01*
X151276256Y-129437500D01*
X151690000Y-129355201D01*
X151690000Y-137885060D01*
X150280000Y-137885060D01*
X150032235Y-137934343D01*
X149822191Y-138074691D01*
X149681843Y-138284735D01*
X149632560Y-138532500D01*
X149632560Y-140232500D01*
X149681843Y-140480265D01*
X149822191Y-140690309D01*
X150032235Y-140830657D01*
X150077619Y-140839684D01*
X150059375Y-140851875D01*
X149731161Y-141343082D01*
X149615908Y-141922500D01*
X149731161Y-142501918D01*
X150059375Y-142993125D01*
X150357761Y-143192500D01*
X150059375Y-143391875D01*
X149731161Y-143883082D01*
X149615908Y-144462500D01*
X149731161Y-145041918D01*
X150059375Y-145533125D01*
X150357761Y-145732500D01*
X150059375Y-145931875D01*
X149731161Y-146423082D01*
X149615908Y-147002500D01*
X149731161Y-147581918D01*
X150059375Y-148073125D01*
X150550582Y-148401339D01*
X150983744Y-148487500D01*
X151276256Y-148487500D01*
X151690000Y-148405201D01*
X151690000Y-150328773D01*
X151673751Y-150381922D01*
X151672423Y-150390803D01*
X151610774Y-150821276D01*
X151474352Y-151121322D01*
X151259200Y-151371018D01*
X150982614Y-151550292D01*
X150642479Y-151652013D01*
X150440530Y-151667021D01*
X150336016Y-151690000D01*
X78271227Y-151690000D01*
X78218078Y-151673751D01*
X78209197Y-151672423D01*
X77778724Y-151610774D01*
X77478678Y-151474352D01*
X77228982Y-151259200D01*
X77049708Y-150982614D01*
X76947987Y-150642479D01*
X76932979Y-150440530D01*
X76910000Y-150336016D01*
X76910000Y-148405201D01*
X77323744Y-148487500D01*
X77616256Y-148487500D01*
X78049418Y-148401339D01*
X78540625Y-148073125D01*
X78868839Y-147581918D01*
X78951264Y-147167537D01*
X79024567Y-147094234D01*
X109125000Y-147094234D01*
X109125000Y-147545766D01*
X109297793Y-147962926D01*
X109617074Y-148282207D01*
X110034234Y-148455000D01*
X110485766Y-148455000D01*
X110902926Y-148282207D01*
X111222207Y-147962926D01*
X111395000Y-147545766D01*
X111395000Y-147094234D01*
X112125000Y-147094234D01*
X112125000Y-147545766D01*
X112297793Y-147962926D01*
X112617074Y-148282207D01*
X113034234Y-148455000D01*
X113485766Y-148455000D01*
X113902926Y-148282207D01*
X114222207Y-147962926D01*
X114395000Y-147545766D01*
X114395000Y-147094234D01*
X114222207Y-146677074D01*
X113902926Y-146357793D01*
X113485766Y-146185000D01*
X113034234Y-146185000D01*
X112617074Y-146357793D01*
X112297793Y-146677074D01*
X112125000Y-147094234D01*
X111395000Y-147094234D01*
X111222207Y-146677074D01*
X110902926Y-146357793D01*
X110485766Y-146185000D01*
X110034234Y-146185000D01*
X109617074Y-146357793D01*
X109297793Y-146677074D01*
X109125000Y-147094234D01*
X79024567Y-147094234D01*
X89418675Y-136700126D01*
X92183000Y-136700126D01*
X92183000Y-137111874D01*
X92340569Y-137492280D01*
X92631720Y-137783431D01*
X93012126Y-137941000D01*
X93423874Y-137941000D01*
X93804280Y-137783431D01*
X94095431Y-137492280D01*
X94253000Y-137111874D01*
X94253000Y-136945802D01*
X95055546Y-136143257D01*
X95171720Y-136259431D01*
X95552126Y-136417000D01*
X95963874Y-136417000D01*
X96344280Y-136259431D01*
X96635431Y-135968280D01*
X96793000Y-135587874D01*
X96793000Y-135176126D01*
X96635431Y-134795720D01*
X96344280Y-134504569D01*
X95963874Y-134347000D01*
X95552126Y-134347000D01*
X95171720Y-134504569D01*
X95054289Y-134622000D01*
X94816846Y-134622000D01*
X94741999Y-134607112D01*
X94667152Y-134622000D01*
X94667148Y-134622000D01*
X94445463Y-134666096D01*
X94382902Y-134707898D01*
X94257526Y-134791671D01*
X94257524Y-134791673D01*
X94194071Y-134834071D01*
X94151673Y-134897524D01*
X93178198Y-135871000D01*
X93012126Y-135871000D01*
X92631720Y-136028569D01*
X92340569Y-136319720D01*
X92183000Y-136700126D01*
X89418675Y-136700126D01*
X95006675Y-131112126D01*
X99041000Y-131112126D01*
X99041000Y-131523874D01*
X99198569Y-131904280D01*
X99331687Y-132037398D01*
X99360096Y-132180221D01*
X99528071Y-132431614D01*
X99591530Y-132474016D01*
X100332001Y-133214488D01*
X100332000Y-141403153D01*
X100317112Y-141478000D01*
X100332000Y-141552847D01*
X100332000Y-141552851D01*
X100376096Y-141774536D01*
X100544071Y-142025929D01*
X100607530Y-142068331D01*
X100819000Y-142279801D01*
X100819000Y-142445874D01*
X100976569Y-142826280D01*
X101267720Y-143117431D01*
X101648126Y-143275000D01*
X101847064Y-143275000D01*
X101835000Y-143304126D01*
X101835000Y-143715874D01*
X101992569Y-144096280D01*
X102283720Y-144387431D01*
X102664126Y-144545000D01*
X103075874Y-144545000D01*
X103456280Y-144387431D01*
X103747431Y-144096280D01*
X103905000Y-143715874D01*
X103905000Y-143304126D01*
X103747431Y-142923720D01*
X103630000Y-142806289D01*
X103630000Y-139192000D01*
X113801908Y-139192000D01*
X113917161Y-139771418D01*
X114245375Y-140262625D01*
X114736582Y-140590839D01*
X115169744Y-140677000D01*
X115462256Y-140677000D01*
X115895418Y-140590839D01*
X116386625Y-140262625D01*
X116714839Y-139771418D01*
X116830092Y-139192000D01*
X116714839Y-138612582D01*
X116386625Y-138121375D01*
X116364967Y-138106904D01*
X116525698Y-138040327D01*
X116704327Y-137861699D01*
X116801000Y-137628310D01*
X116801000Y-136937750D01*
X116642250Y-136779000D01*
X115443000Y-136779000D01*
X115443000Y-136799000D01*
X115189000Y-136799000D01*
X115189000Y-136779000D01*
X113989750Y-136779000D01*
X113831000Y-136937750D01*
X113831000Y-137628310D01*
X113927673Y-137861699D01*
X114106302Y-138040327D01*
X114267033Y-138106904D01*
X114245375Y-138121375D01*
X113917161Y-138612582D01*
X113801908Y-139192000D01*
X103630000Y-139192000D01*
X103630000Y-135675690D01*
X113831000Y-135675690D01*
X113831000Y-136366250D01*
X113989750Y-136525000D01*
X115189000Y-136525000D01*
X115189000Y-135325750D01*
X115443000Y-135325750D01*
X115443000Y-136525000D01*
X116642250Y-136525000D01*
X116801000Y-136366250D01*
X116801000Y-135675690D01*
X116704327Y-135442301D01*
X116525698Y-135263673D01*
X116292309Y-135167000D01*
X115601750Y-135167000D01*
X115443000Y-135325750D01*
X115189000Y-135325750D01*
X115030250Y-135167000D01*
X114339691Y-135167000D01*
X114106302Y-135263673D01*
X113927673Y-135442301D01*
X113831000Y-135675690D01*
X103630000Y-135675690D01*
X103630000Y-134701868D01*
X108555737Y-134701868D01*
X108666641Y-134979099D01*
X109312593Y-135222323D01*
X110002453Y-135199836D01*
X110535359Y-134979099D01*
X110646263Y-134701868D01*
X109601000Y-133656605D01*
X108555737Y-134701868D01*
X103630000Y-134701868D01*
X103630000Y-133424846D01*
X103644888Y-133349999D01*
X103630000Y-133275152D01*
X103630000Y-133275148D01*
X103612784Y-133188593D01*
X107855677Y-133188593D01*
X107878164Y-133878453D01*
X108098901Y-134411359D01*
X108376132Y-134522263D01*
X109421395Y-133477000D01*
X109780605Y-133477000D01*
X110825868Y-134522263D01*
X111103099Y-134411359D01*
X111346323Y-133765407D01*
X111323836Y-133075547D01*
X111103099Y-132542641D01*
X110825868Y-132431737D01*
X109780605Y-133477000D01*
X109421395Y-133477000D01*
X108376132Y-132431737D01*
X108098901Y-132542641D01*
X107855677Y-133188593D01*
X103612784Y-133188593D01*
X103585904Y-133053463D01*
X103483153Y-132899685D01*
X103460329Y-132865526D01*
X103460327Y-132865524D01*
X103417929Y-132802071D01*
X103397000Y-132788087D01*
X103397000Y-132636126D01*
X103239431Y-132255720D01*
X103235843Y-132252132D01*
X108555737Y-132252132D01*
X109601000Y-133297395D01*
X110646263Y-132252132D01*
X110535359Y-131974901D01*
X109889407Y-131731677D01*
X109199547Y-131754164D01*
X108666641Y-131974901D01*
X108555737Y-132252132D01*
X103235843Y-132252132D01*
X102948280Y-131964569D01*
X102567874Y-131807000D01*
X102156126Y-131807000D01*
X101775720Y-131964569D01*
X101503703Y-132236586D01*
X101017271Y-131750155D01*
X101111000Y-131523874D01*
X101111000Y-131112126D01*
X100953431Y-130731720D01*
X100662280Y-130440569D01*
X100281874Y-130283000D01*
X99870126Y-130283000D01*
X99489720Y-130440569D01*
X99198569Y-130731720D01*
X99041000Y-131112126D01*
X95006675Y-131112126D01*
X100752804Y-125365999D01*
X103665154Y-125365999D01*
X103740001Y-125380887D01*
X103814848Y-125365999D01*
X103814853Y-125365999D01*
X104036538Y-125321903D01*
X104157618Y-125241000D01*
X104345874Y-125241000D01*
X104371456Y-125230404D01*
X104393999Y-125234888D01*
X104468846Y-125220000D01*
X115632289Y-125220000D01*
X115454569Y-125397720D01*
G36*
X102110001Y-133857894D02*
X102110000Y-141225763D01*
X102059874Y-141205000D01*
X101893801Y-141205000D01*
X101852000Y-141163199D01*
X101852000Y-133751027D01*
X102110001Y-133857894D01*
X102110001Y-133857894D01*
G37*
X102110001Y-133857894D02*
X102110000Y-141225763D01*
X102059874Y-141205000D01*
X101893801Y-141205000D01*
X101852000Y-141163199D01*
X101852000Y-133751027D01*
X102110001Y-133857894D01*
G36*
X78751156Y-145218043D02*
X78868839Y-145041918D01*
X78984092Y-144462500D01*
X78966190Y-144372501D01*
X79596698Y-144372501D01*
X78751156Y-145218043D01*
X78751156Y-145218043D01*
G37*
X78751156Y-145218043D02*
X78868839Y-145041918D01*
X78984092Y-144462500D01*
X78966190Y-144372501D01*
X79596698Y-144372501D01*
X78751156Y-145218043D01*
G36*
X81533877Y-141162500D02*
X78748178Y-141162500D01*
X78540625Y-140851875D01*
X78522381Y-140839684D01*
X78567765Y-140830657D01*
X78777809Y-140690309D01*
X78918157Y-140480265D01*
X78967440Y-140232500D01*
X78967440Y-140142500D01*
X82553877Y-140142500D01*
X81533877Y-141162500D01*
X81533877Y-141162500D01*
G37*
X81533877Y-141162500D02*
X78748178Y-141162500D01*
X78540625Y-140851875D01*
X78522381Y-140839684D01*
X78567765Y-140830657D01*
X78777809Y-140690309D01*
X78918157Y-140480265D01*
X78967440Y-140232500D01*
X78967440Y-140142500D01*
X82553877Y-140142500D01*
X81533877Y-141162500D01*
G36*
X96492080Y-125196815D02*
X96319728Y-125231098D01*
X96319726Y-125231099D01*
X96319727Y-125231099D01*
X96131791Y-125356673D01*
X96131789Y-125356675D01*
X96068336Y-125399073D01*
X96025938Y-125462526D01*
X82865966Y-138622500D01*
X78967440Y-138622500D01*
X78967440Y-138532500D01*
X78918157Y-138284735D01*
X78777809Y-138074691D01*
X78567765Y-137934343D01*
X78320000Y-137885060D01*
X76910000Y-137885060D01*
X76910000Y-134701868D01*
X79980737Y-134701868D01*
X80091641Y-134979099D01*
X80737593Y-135222323D01*
X81427453Y-135199836D01*
X81960359Y-134979099D01*
X82071263Y-134701868D01*
X81026000Y-133656605D01*
X79980737Y-134701868D01*
X76910000Y-134701868D01*
X76910000Y-133188593D01*
X79280677Y-133188593D01*
X79303164Y-133878453D01*
X79523901Y-134411359D01*
X79801132Y-134522263D01*
X80846395Y-133477000D01*
X81205605Y-133477000D01*
X82250868Y-134522263D01*
X82528099Y-134411359D01*
X82771323Y-133765407D01*
X82748836Y-133075547D01*
X82528099Y-132542641D01*
X82250868Y-132431737D01*
X81205605Y-133477000D01*
X80846395Y-133477000D01*
X79801132Y-132431737D01*
X79523901Y-132542641D01*
X79280677Y-133188593D01*
X76910000Y-133188593D01*
X76910000Y-132252132D01*
X79980737Y-132252132D01*
X81026000Y-133297395D01*
X82071263Y-132252132D01*
X81960359Y-131974901D01*
X81314407Y-131731677D01*
X80624547Y-131754164D01*
X80091641Y-131974901D01*
X79980737Y-132252132D01*
X76910000Y-132252132D01*
X76910000Y-129355201D01*
X77323744Y-129437500D01*
X77616256Y-129437500D01*
X78049418Y-129351339D01*
X78540625Y-129023125D01*
X78868839Y-128531918D01*
X78984092Y-127952500D01*
X78911209Y-127586092D01*
X82039302Y-124458000D01*
X97230895Y-124458000D01*
X96492080Y-125196815D01*
X96492080Y-125196815D01*
G37*
X96492080Y-125196815D02*
X96319728Y-125231098D01*
X96319726Y-125231099D01*
X96319727Y-125231099D01*
X96131791Y-125356673D01*
X96131789Y-125356675D01*
X96068336Y-125399073D01*
X96025938Y-125462526D01*
X82865966Y-138622500D01*
X78967440Y-138622500D01*
X78967440Y-138532500D01*
X78918157Y-138284735D01*
X78777809Y-138074691D01*
X78567765Y-137934343D01*
X78320000Y-137885060D01*
X76910000Y-137885060D01*
X76910000Y-134701868D01*
X79980737Y-134701868D01*
X80091641Y-134979099D01*
X80737593Y-135222323D01*
X81427453Y-135199836D01*
X81960359Y-134979099D01*
X82071263Y-134701868D01*
X81026000Y-133656605D01*
X79980737Y-134701868D01*
X76910000Y-134701868D01*
X76910000Y-133188593D01*
X79280677Y-133188593D01*
X79303164Y-133878453D01*
X79523901Y-134411359D01*
X79801132Y-134522263D01*
X80846395Y-133477000D01*
X81205605Y-133477000D01*
X82250868Y-134522263D01*
X82528099Y-134411359D01*
X82771323Y-133765407D01*
X82748836Y-133075547D01*
X82528099Y-132542641D01*
X82250868Y-132431737D01*
X81205605Y-133477000D01*
X80846395Y-133477000D01*
X79801132Y-132431737D01*
X79523901Y-132542641D01*
X79280677Y-133188593D01*
X76910000Y-133188593D01*
X76910000Y-132252132D01*
X79980737Y-132252132D01*
X81026000Y-133297395D01*
X82071263Y-132252132D01*
X81960359Y-131974901D01*
X81314407Y-131731677D01*
X80624547Y-131754164D01*
X80091641Y-131974901D01*
X79980737Y-132252132D01*
X76910000Y-132252132D01*
X76910000Y-129355201D01*
X77323744Y-129437500D01*
X77616256Y-129437500D01*
X78049418Y-129351339D01*
X78540625Y-129023125D01*
X78868839Y-128531918D01*
X78984092Y-127952500D01*
X78911209Y-127586092D01*
X82039302Y-124458000D01*
X97230895Y-124458000D01*
X96492080Y-125196815D01*
G36*
X149632560Y-121182500D02*
X149681843Y-121430265D01*
X149822191Y-121640309D01*
X150032235Y-121780657D01*
X150077619Y-121789684D01*
X150059375Y-121801875D01*
X149851822Y-122112500D01*
X139631212Y-122112500D01*
X140651213Y-121092500D01*
X149632560Y-121092500D01*
X149632560Y-121182500D01*
X149632560Y-121182500D01*
G37*
X149632560Y-121182500D02*
X149681843Y-121430265D01*
X149822191Y-121640309D01*
X150032235Y-121780657D01*
X150077619Y-121789684D01*
X150059375Y-121801875D01*
X149851822Y-122112500D01*
X139631212Y-122112500D01*
X140651213Y-121092500D01*
X149632560Y-121092500D01*
X149632560Y-121182500D01*
G36*
X151690001Y-99785060D02*
X150280000Y-99785060D01*
X150032235Y-99834343D01*
X149822191Y-99974691D01*
X149681843Y-100184735D01*
X149632560Y-100432500D01*
X149632560Y-100634017D01*
X149545526Y-100692171D01*
X149545524Y-100692173D01*
X149482071Y-100734571D01*
X149439673Y-100798024D01*
X132125699Y-118112000D01*
X99636711Y-118112000D01*
X99392280Y-117867569D01*
X99011874Y-117710000D01*
X98600126Y-117710000D01*
X98219720Y-117867569D01*
X97928569Y-118158720D01*
X97771000Y-118539126D01*
X97771000Y-118832198D01*
X96924530Y-119678669D01*
X96924527Y-119678671D01*
X96205199Y-120398000D01*
X78967440Y-120398000D01*
X78967440Y-119482500D01*
X78918157Y-119234735D01*
X78777809Y-119024691D01*
X78567765Y-118884343D01*
X78320000Y-118835060D01*
X76910000Y-118835060D01*
X76910000Y-117396126D01*
X84309000Y-117396126D01*
X84309000Y-117807874D01*
X84466569Y-118188280D01*
X84757720Y-118479431D01*
X85138126Y-118637000D01*
X85549874Y-118637000D01*
X85930280Y-118479431D01*
X86047711Y-118362000D01*
X93651153Y-118362000D01*
X93726000Y-118376888D01*
X93800847Y-118362000D01*
X93800852Y-118362000D01*
X94022537Y-118317904D01*
X94273929Y-118149929D01*
X94316331Y-118086470D01*
X96559802Y-115843000D01*
X96725874Y-115843000D01*
X97106280Y-115685431D01*
X97397431Y-115394280D01*
X97555000Y-115013874D01*
X97555000Y-114602126D01*
X97397431Y-114221720D01*
X97280000Y-114104289D01*
X97280000Y-108772801D01*
X105928675Y-100124126D01*
X124441000Y-100124126D01*
X124441000Y-100535874D01*
X124598569Y-100916280D01*
X124716000Y-101033711D01*
X124716001Y-102541148D01*
X124701112Y-102616000D01*
X124705596Y-102638544D01*
X124695000Y-102664126D01*
X124695000Y-103075874D01*
X124852569Y-103456280D01*
X125143720Y-103747431D01*
X125524126Y-103905000D01*
X125935874Y-103905000D01*
X126316280Y-103747431D01*
X126607431Y-103456280D01*
X126765000Y-103075874D01*
X126765000Y-102664126D01*
X126607431Y-102283720D01*
X126316280Y-101992569D01*
X126236000Y-101959316D01*
X126236000Y-101033711D01*
X126353431Y-100916280D01*
X126511000Y-100535874D01*
X126511000Y-100124126D01*
X126353431Y-99743720D01*
X126062280Y-99452569D01*
X125681874Y-99295000D01*
X125270126Y-99295000D01*
X124889720Y-99452569D01*
X124598569Y-99743720D01*
X124441000Y-100124126D01*
X105928675Y-100124126D01*
X107164473Y-98888329D01*
X107227929Y-98845929D01*
X107367890Y-98636463D01*
X107395904Y-98594538D01*
X107405480Y-98546395D01*
X107440000Y-98372852D01*
X107440000Y-98372848D01*
X107454888Y-98298000D01*
X107454490Y-98296000D01*
X124131153Y-98296000D01*
X124206000Y-98310888D01*
X124280847Y-98296000D01*
X124280852Y-98296000D01*
X124502537Y-98251904D01*
X124753929Y-98083929D01*
X124796331Y-98020470D01*
X125769802Y-97047000D01*
X125935874Y-97047000D01*
X126316280Y-96889431D01*
X126607431Y-96598280D01*
X126765000Y-96217874D01*
X126765000Y-95806126D01*
X126607431Y-95425720D01*
X126316280Y-95134569D01*
X125935874Y-94977000D01*
X125524126Y-94977000D01*
X125143720Y-95134569D01*
X124852569Y-95425720D01*
X124695000Y-95806126D01*
X124695000Y-95972198D01*
X123891199Y-96776000D01*
X120101603Y-96776000D01*
X120171263Y-96601868D01*
X119126000Y-95556605D01*
X118080737Y-96601868D01*
X118150397Y-96776000D01*
X107383711Y-96776000D01*
X107266280Y-96658569D01*
X106885874Y-96501000D01*
X106474126Y-96501000D01*
X106093720Y-96658569D01*
X105802569Y-96949720D01*
X105645000Y-97330126D01*
X105645000Y-97741874D01*
X105796228Y-98106970D01*
X96035528Y-107867671D01*
X95972072Y-107910071D01*
X95929672Y-107973527D01*
X95929671Y-107973528D01*
X95804097Y-108161463D01*
X95745112Y-108458000D01*
X95760001Y-108532852D01*
X95760000Y-114104289D01*
X95642569Y-114221720D01*
X95485000Y-114602126D01*
X95485000Y-114768198D01*
X93411199Y-116842000D01*
X86047711Y-116842000D01*
X85930280Y-116724569D01*
X85549874Y-116567000D01*
X85138126Y-116567000D01*
X84757720Y-116724569D01*
X84466569Y-117015720D01*
X84309000Y-117396126D01*
X76910000Y-117396126D01*
X76910000Y-110305201D01*
X77323744Y-110387500D01*
X77616256Y-110387500D01*
X78049418Y-110301339D01*
X78540625Y-109973125D01*
X78868839Y-109481918D01*
X78984092Y-108902500D01*
X78911209Y-108536092D01*
X84198302Y-103249000D01*
X96078199Y-103249000D01*
X96120000Y-103290801D01*
X96120000Y-103329874D01*
X96277569Y-103710280D01*
X96568720Y-104001431D01*
X96949126Y-104159000D01*
X97360874Y-104159000D01*
X97741280Y-104001431D01*
X98032431Y-103710280D01*
X98190000Y-103329874D01*
X98190000Y-102918126D01*
X98032431Y-102537720D01*
X97741280Y-102246569D01*
X97360874Y-102089000D01*
X97067801Y-102089000D01*
X96983331Y-102004530D01*
X96940929Y-101941071D01*
X96845480Y-101877294D01*
X96845480Y-101558116D01*
X96687911Y-101177710D01*
X96396760Y-100886559D01*
X96016354Y-100728990D01*
X95604606Y-100728990D01*
X95285728Y-100861073D01*
X96623473Y-99523329D01*
X96686929Y-99480929D01*
X96854904Y-99229537D01*
X96899000Y-99007852D01*
X96899000Y-99007848D01*
X96900524Y-99000187D01*
X97016431Y-98884280D01*
X97174000Y-98503874D01*
X97174000Y-98092126D01*
X97016431Y-97711720D01*
X96725280Y-97420569D01*
X96344874Y-97263000D01*
X96137000Y-97263000D01*
X96137000Y-96969711D01*
X96254431Y-96852280D01*
X96412000Y-96471874D01*
X96412000Y-96060126D01*
X96254431Y-95679720D01*
X95963280Y-95388569D01*
X95582874Y-95231000D01*
X95171126Y-95231000D01*
X94790720Y-95388569D01*
X94499569Y-95679720D01*
X94342000Y-96060126D01*
X94342000Y-96471874D01*
X94499569Y-96852280D01*
X94617001Y-96969712D01*
X94617000Y-97475198D01*
X92395199Y-99697000D01*
X90996711Y-99697000D01*
X91047431Y-99646280D01*
X91205000Y-99265874D01*
X91205000Y-98854126D01*
X91047431Y-98473720D01*
X90756280Y-98182569D01*
X90375874Y-98025000D01*
X89964126Y-98025000D01*
X89583720Y-98182569D01*
X89466289Y-98300000D01*
X83894846Y-98300000D01*
X83819999Y-98285112D01*
X83745152Y-98300000D01*
X83745148Y-98300000D01*
X83523463Y-98344096D01*
X83272071Y-98512071D01*
X83229671Y-98575527D01*
X82510199Y-99295000D01*
X82344126Y-99295000D01*
X81963720Y-99452569D01*
X81672569Y-99743720D01*
X81515000Y-100124126D01*
X81515000Y-100522500D01*
X78967440Y-100522500D01*
X78967440Y-100432500D01*
X78918157Y-100184735D01*
X78777809Y-99974691D01*
X78567765Y-99834343D01*
X78320000Y-99785060D01*
X76910000Y-99785060D01*
X76910000Y-96601868D01*
X79980737Y-96601868D01*
X80091641Y-96879099D01*
X80737593Y-97122323D01*
X81427453Y-97099836D01*
X81960359Y-96879099D01*
X82071263Y-96601868D01*
X81026000Y-95556605D01*
X79980737Y-96601868D01*
X76910000Y-96601868D01*
X76910000Y-95088593D01*
X79280677Y-95088593D01*
X79303164Y-95778453D01*
X79523901Y-96311359D01*
X79801132Y-96422263D01*
X80846395Y-95377000D01*
X81205605Y-95377000D01*
X82250868Y-96422263D01*
X82528099Y-96311359D01*
X82771323Y-95665407D01*
X82752521Y-95088593D01*
X117380677Y-95088593D01*
X117403164Y-95778453D01*
X117623901Y-96311359D01*
X117901132Y-96422263D01*
X118946395Y-95377000D01*
X119305605Y-95377000D01*
X120350868Y-96422263D01*
X120628099Y-96311359D01*
X120871323Y-95665407D01*
X120848836Y-94975547D01*
X120628099Y-94442641D01*
X120350868Y-94331737D01*
X119305605Y-95377000D01*
X118946395Y-95377000D01*
X117901132Y-94331737D01*
X117623901Y-94442641D01*
X117380677Y-95088593D01*
X82752521Y-95088593D01*
X82748836Y-94975547D01*
X82528099Y-94442641D01*
X82250868Y-94331737D01*
X81205605Y-95377000D01*
X80846395Y-95377000D01*
X79801132Y-94331737D01*
X79523901Y-94442641D01*
X79280677Y-95088593D01*
X76910000Y-95088593D01*
X76910000Y-91255201D01*
X77323744Y-91337500D01*
X77616256Y-91337500D01*
X77836408Y-91293709D01*
X80137170Y-93594472D01*
X80179570Y-93657928D01*
X80346378Y-93769386D01*
X80091641Y-93874901D01*
X79980737Y-94152132D01*
X81026000Y-95197395D01*
X82071263Y-94152132D01*
X118080737Y-94152132D01*
X119126000Y-95197395D01*
X120171263Y-94152132D01*
X120060359Y-93874901D01*
X119414407Y-93631677D01*
X118724547Y-93654164D01*
X118191641Y-93874901D01*
X118080737Y-94152132D01*
X82071263Y-94152132D01*
X81960359Y-93874901D01*
X81947340Y-93869999D01*
X99093154Y-93869999D01*
X99168001Y-93884887D01*
X99242848Y-93869999D01*
X99242853Y-93869999D01*
X99464538Y-93825903D01*
X99585618Y-93745000D01*
X99773874Y-93745000D01*
X100154280Y-93587431D01*
X100271711Y-93470000D01*
X139891163Y-93470000D01*
X139870400Y-93520126D01*
X139870400Y-93931874D01*
X140027969Y-94312280D01*
X140319120Y-94603431D01*
X140699526Y-94761000D01*
X141111274Y-94761000D01*
X141491680Y-94603431D01*
X141609111Y-94486000D01*
X141675198Y-94486000D01*
X140401199Y-95760000D01*
X131632802Y-95760000D01*
X131591000Y-95718198D01*
X131591000Y-95552126D01*
X131433431Y-95171720D01*
X131142280Y-94880569D01*
X130761874Y-94723000D01*
X130350126Y-94723000D01*
X129969720Y-94880569D01*
X129678569Y-95171720D01*
X129521000Y-95552126D01*
X129521000Y-95963874D01*
X129678569Y-96344280D01*
X129969720Y-96635431D01*
X130350126Y-96793000D01*
X130516198Y-96793000D01*
X130727671Y-97004473D01*
X130770071Y-97067929D01*
X130833527Y-97110329D01*
X131021462Y-97235904D01*
X131069605Y-97245480D01*
X131243148Y-97280000D01*
X131243152Y-97280000D01*
X131318000Y-97294888D01*
X131392848Y-97280000D01*
X140641153Y-97280000D01*
X140716000Y-97294888D01*
X140790847Y-97280000D01*
X140790852Y-97280000D01*
X141012537Y-97235904D01*
X141263929Y-97067929D01*
X141306331Y-97004470D01*
X141708933Y-96601868D01*
X146655737Y-96601868D01*
X146766641Y-96879099D01*
X147412593Y-97122323D01*
X148102453Y-97099836D01*
X148635359Y-96879099D01*
X148746263Y-96601868D01*
X147701000Y-95556605D01*
X146655737Y-96601868D01*
X141708933Y-96601868D01*
X143222209Y-95088593D01*
X145955677Y-95088593D01*
X145978164Y-95778453D01*
X146198901Y-96311359D01*
X146476132Y-96422263D01*
X147521395Y-95377000D01*
X147880605Y-95377000D01*
X148925868Y-96422263D01*
X149203099Y-96311359D01*
X149446323Y-95665407D01*
X149423836Y-94975547D01*
X149203099Y-94442641D01*
X148925868Y-94331737D01*
X147880605Y-95377000D01*
X147521395Y-95377000D01*
X146476132Y-94331737D01*
X146198901Y-94442641D01*
X145955677Y-95088593D01*
X143222209Y-95088593D01*
X143295803Y-95015000D01*
X143461874Y-95015000D01*
X143842280Y-94857431D01*
X144133431Y-94566280D01*
X144291000Y-94185874D01*
X144291000Y-94152132D01*
X146655737Y-94152132D01*
X147701000Y-95197395D01*
X148746263Y-94152132D01*
X148635359Y-93874901D01*
X147989407Y-93631677D01*
X147299547Y-93654164D01*
X146766641Y-93874901D01*
X146655737Y-94152132D01*
X144291000Y-94152132D01*
X144291000Y-93774126D01*
X144165027Y-93470000D01*
X148197653Y-93470000D01*
X148272500Y-93484888D01*
X148347347Y-93470000D01*
X148347352Y-93470000D01*
X148569037Y-93425904D01*
X148820429Y-93257929D01*
X148862831Y-93194470D01*
X150763592Y-91293709D01*
X150983744Y-91337500D01*
X151276256Y-91337500D01*
X151690001Y-91255201D01*
X151690001Y-99785060D01*
X151690001Y-99785060D01*
G37*
X151690001Y-99785060D02*
X150280000Y-99785060D01*
X150032235Y-99834343D01*
X149822191Y-99974691D01*
X149681843Y-100184735D01*
X149632560Y-100432500D01*
X149632560Y-100634017D01*
X149545526Y-100692171D01*
X149545524Y-100692173D01*
X149482071Y-100734571D01*
X149439673Y-100798024D01*
X132125699Y-118112000D01*
X99636711Y-118112000D01*
X99392280Y-117867569D01*
X99011874Y-117710000D01*
X98600126Y-117710000D01*
X98219720Y-117867569D01*
X97928569Y-118158720D01*
X97771000Y-118539126D01*
X97771000Y-118832198D01*
X96924530Y-119678669D01*
X96924527Y-119678671D01*
X96205199Y-120398000D01*
X78967440Y-120398000D01*
X78967440Y-119482500D01*
X78918157Y-119234735D01*
X78777809Y-119024691D01*
X78567765Y-118884343D01*
X78320000Y-118835060D01*
X76910000Y-118835060D01*
X76910000Y-117396126D01*
X84309000Y-117396126D01*
X84309000Y-117807874D01*
X84466569Y-118188280D01*
X84757720Y-118479431D01*
X85138126Y-118637000D01*
X85549874Y-118637000D01*
X85930280Y-118479431D01*
X86047711Y-118362000D01*
X93651153Y-118362000D01*
X93726000Y-118376888D01*
X93800847Y-118362000D01*
X93800852Y-118362000D01*
X94022537Y-118317904D01*
X94273929Y-118149929D01*
X94316331Y-118086470D01*
X96559802Y-115843000D01*
X96725874Y-115843000D01*
X97106280Y-115685431D01*
X97397431Y-115394280D01*
X97555000Y-115013874D01*
X97555000Y-114602126D01*
X97397431Y-114221720D01*
X97280000Y-114104289D01*
X97280000Y-108772801D01*
X105928675Y-100124126D01*
X124441000Y-100124126D01*
X124441000Y-100535874D01*
X124598569Y-100916280D01*
X124716000Y-101033711D01*
X124716001Y-102541148D01*
X124701112Y-102616000D01*
X124705596Y-102638544D01*
X124695000Y-102664126D01*
X124695000Y-103075874D01*
X124852569Y-103456280D01*
X125143720Y-103747431D01*
X125524126Y-103905000D01*
X125935874Y-103905000D01*
X126316280Y-103747431D01*
X126607431Y-103456280D01*
X126765000Y-103075874D01*
X126765000Y-102664126D01*
X126607431Y-102283720D01*
X126316280Y-101992569D01*
X126236000Y-101959316D01*
X126236000Y-101033711D01*
X126353431Y-100916280D01*
X126511000Y-100535874D01*
X126511000Y-100124126D01*
X126353431Y-99743720D01*
X126062280Y-99452569D01*
X125681874Y-99295000D01*
X125270126Y-99295000D01*
X124889720Y-99452569D01*
X124598569Y-99743720D01*
X124441000Y-100124126D01*
X105928675Y-100124126D01*
X107164473Y-98888329D01*
X107227929Y-98845929D01*
X107367890Y-98636463D01*
X107395904Y-98594538D01*
X107405480Y-98546395D01*
X107440000Y-98372852D01*
X107440000Y-98372848D01*
X107454888Y-98298000D01*
X107454490Y-98296000D01*
X124131153Y-98296000D01*
X124206000Y-98310888D01*
X124280847Y-98296000D01*
X124280852Y-98296000D01*
X124502537Y-98251904D01*
X124753929Y-98083929D01*
X124796331Y-98020470D01*
X125769802Y-97047000D01*
X125935874Y-97047000D01*
X126316280Y-96889431D01*
X126607431Y-96598280D01*
X126765000Y-96217874D01*
X126765000Y-95806126D01*
X126607431Y-95425720D01*
X126316280Y-95134569D01*
X125935874Y-94977000D01*
X125524126Y-94977000D01*
X125143720Y-95134569D01*
X124852569Y-95425720D01*
X124695000Y-95806126D01*
X124695000Y-95972198D01*
X123891199Y-96776000D01*
X120101603Y-96776000D01*
X120171263Y-96601868D01*
X119126000Y-95556605D01*
X118080737Y-96601868D01*
X118150397Y-96776000D01*
X107383711Y-96776000D01*
X107266280Y-96658569D01*
X106885874Y-96501000D01*
X106474126Y-96501000D01*
X106093720Y-96658569D01*
X105802569Y-96949720D01*
X105645000Y-97330126D01*
X105645000Y-97741874D01*
X105796228Y-98106970D01*
X96035528Y-107867671D01*
X95972072Y-107910071D01*
X95929672Y-107973527D01*
X95929671Y-107973528D01*
X95804097Y-108161463D01*
X95745112Y-108458000D01*
X95760001Y-108532852D01*
X95760000Y-114104289D01*
X95642569Y-114221720D01*
X95485000Y-114602126D01*
X95485000Y-114768198D01*
X93411199Y-116842000D01*
X86047711Y-116842000D01*
X85930280Y-116724569D01*
X85549874Y-116567000D01*
X85138126Y-116567000D01*
X84757720Y-116724569D01*
X84466569Y-117015720D01*
X84309000Y-117396126D01*
X76910000Y-117396126D01*
X76910000Y-110305201D01*
X77323744Y-110387500D01*
X77616256Y-110387500D01*
X78049418Y-110301339D01*
X78540625Y-109973125D01*
X78868839Y-109481918D01*
X78984092Y-108902500D01*
X78911209Y-108536092D01*
X84198302Y-103249000D01*
X96078199Y-103249000D01*
X96120000Y-103290801D01*
X96120000Y-103329874D01*
X96277569Y-103710280D01*
X96568720Y-104001431D01*
X96949126Y-104159000D01*
X97360874Y-104159000D01*
X97741280Y-104001431D01*
X98032431Y-103710280D01*
X98190000Y-103329874D01*
X98190000Y-102918126D01*
X98032431Y-102537720D01*
X97741280Y-102246569D01*
X97360874Y-102089000D01*
X97067801Y-102089000D01*
X96983331Y-102004530D01*
X96940929Y-101941071D01*
X96845480Y-101877294D01*
X96845480Y-101558116D01*
X96687911Y-101177710D01*
X96396760Y-100886559D01*
X96016354Y-100728990D01*
X95604606Y-100728990D01*
X95285728Y-100861073D01*
X96623473Y-99523329D01*
X96686929Y-99480929D01*
X96854904Y-99229537D01*
X96899000Y-99007852D01*
X96899000Y-99007848D01*
X96900524Y-99000187D01*
X97016431Y-98884280D01*
X97174000Y-98503874D01*
X97174000Y-98092126D01*
X97016431Y-97711720D01*
X96725280Y-97420569D01*
X96344874Y-97263000D01*
X96137000Y-97263000D01*
X96137000Y-96969711D01*
X96254431Y-96852280D01*
X96412000Y-96471874D01*
X96412000Y-96060126D01*
X96254431Y-95679720D01*
X95963280Y-95388569D01*
X95582874Y-95231000D01*
X95171126Y-95231000D01*
X94790720Y-95388569D01*
X94499569Y-95679720D01*
X94342000Y-96060126D01*
X94342000Y-96471874D01*
X94499569Y-96852280D01*
X94617001Y-96969712D01*
X94617000Y-97475198D01*
X92395199Y-99697000D01*
X90996711Y-99697000D01*
X91047431Y-99646280D01*
X91205000Y-99265874D01*
X91205000Y-98854126D01*
X91047431Y-98473720D01*
X90756280Y-98182569D01*
X90375874Y-98025000D01*
X89964126Y-98025000D01*
X89583720Y-98182569D01*
X89466289Y-98300000D01*
X83894846Y-98300000D01*
X83819999Y-98285112D01*
X83745152Y-98300000D01*
X83745148Y-98300000D01*
X83523463Y-98344096D01*
X83272071Y-98512071D01*
X83229671Y-98575527D01*
X82510199Y-99295000D01*
X82344126Y-99295000D01*
X81963720Y-99452569D01*
X81672569Y-99743720D01*
X81515000Y-100124126D01*
X81515000Y-100522500D01*
X78967440Y-100522500D01*
X78967440Y-100432500D01*
X78918157Y-100184735D01*
X78777809Y-99974691D01*
X78567765Y-99834343D01*
X78320000Y-99785060D01*
X76910000Y-99785060D01*
X76910000Y-96601868D01*
X79980737Y-96601868D01*
X80091641Y-96879099D01*
X80737593Y-97122323D01*
X81427453Y-97099836D01*
X81960359Y-96879099D01*
X82071263Y-96601868D01*
X81026000Y-95556605D01*
X79980737Y-96601868D01*
X76910000Y-96601868D01*
X76910000Y-95088593D01*
X79280677Y-95088593D01*
X79303164Y-95778453D01*
X79523901Y-96311359D01*
X79801132Y-96422263D01*
X80846395Y-95377000D01*
X81205605Y-95377000D01*
X82250868Y-96422263D01*
X82528099Y-96311359D01*
X82771323Y-95665407D01*
X82752521Y-95088593D01*
X117380677Y-95088593D01*
X117403164Y-95778453D01*
X117623901Y-96311359D01*
X117901132Y-96422263D01*
X118946395Y-95377000D01*
X119305605Y-95377000D01*
X120350868Y-96422263D01*
X120628099Y-96311359D01*
X120871323Y-95665407D01*
X120848836Y-94975547D01*
X120628099Y-94442641D01*
X120350868Y-94331737D01*
X119305605Y-95377000D01*
X118946395Y-95377000D01*
X117901132Y-94331737D01*
X117623901Y-94442641D01*
X117380677Y-95088593D01*
X82752521Y-95088593D01*
X82748836Y-94975547D01*
X82528099Y-94442641D01*
X82250868Y-94331737D01*
X81205605Y-95377000D01*
X80846395Y-95377000D01*
X79801132Y-94331737D01*
X79523901Y-94442641D01*
X79280677Y-95088593D01*
X76910000Y-95088593D01*
X76910000Y-91255201D01*
X77323744Y-91337500D01*
X77616256Y-91337500D01*
X77836408Y-91293709D01*
X80137170Y-93594472D01*
X80179570Y-93657928D01*
X80346378Y-93769386D01*
X80091641Y-93874901D01*
X79980737Y-94152132D01*
X81026000Y-95197395D01*
X82071263Y-94152132D01*
X118080737Y-94152132D01*
X119126000Y-95197395D01*
X120171263Y-94152132D01*
X120060359Y-93874901D01*
X119414407Y-93631677D01*
X118724547Y-93654164D01*
X118191641Y-93874901D01*
X118080737Y-94152132D01*
X82071263Y-94152132D01*
X81960359Y-93874901D01*
X81947340Y-93869999D01*
X99093154Y-93869999D01*
X99168001Y-93884887D01*
X99242848Y-93869999D01*
X99242853Y-93869999D01*
X99464538Y-93825903D01*
X99585618Y-93745000D01*
X99773874Y-93745000D01*
X100154280Y-93587431D01*
X100271711Y-93470000D01*
X139891163Y-93470000D01*
X139870400Y-93520126D01*
X139870400Y-93931874D01*
X140027969Y-94312280D01*
X140319120Y-94603431D01*
X140699526Y-94761000D01*
X141111274Y-94761000D01*
X141491680Y-94603431D01*
X141609111Y-94486000D01*
X141675198Y-94486000D01*
X140401199Y-95760000D01*
X131632802Y-95760000D01*
X131591000Y-95718198D01*
X131591000Y-95552126D01*
X131433431Y-95171720D01*
X131142280Y-94880569D01*
X130761874Y-94723000D01*
X130350126Y-94723000D01*
X129969720Y-94880569D01*
X129678569Y-95171720D01*
X129521000Y-95552126D01*
X129521000Y-95963874D01*
X129678569Y-96344280D01*
X129969720Y-96635431D01*
X130350126Y-96793000D01*
X130516198Y-96793000D01*
X130727671Y-97004473D01*
X130770071Y-97067929D01*
X130833527Y-97110329D01*
X131021462Y-97235904D01*
X131069605Y-97245480D01*
X131243148Y-97280000D01*
X131243152Y-97280000D01*
X131318000Y-97294888D01*
X131392848Y-97280000D01*
X140641153Y-97280000D01*
X140716000Y-97294888D01*
X140790847Y-97280000D01*
X140790852Y-97280000D01*
X141012537Y-97235904D01*
X141263929Y-97067929D01*
X141306331Y-97004470D01*
X141708933Y-96601868D01*
X146655737Y-96601868D01*
X146766641Y-96879099D01*
X147412593Y-97122323D01*
X148102453Y-97099836D01*
X148635359Y-96879099D01*
X148746263Y-96601868D01*
X147701000Y-95556605D01*
X146655737Y-96601868D01*
X141708933Y-96601868D01*
X143222209Y-95088593D01*
X145955677Y-95088593D01*
X145978164Y-95778453D01*
X146198901Y-96311359D01*
X146476132Y-96422263D01*
X147521395Y-95377000D01*
X147880605Y-95377000D01*
X148925868Y-96422263D01*
X149203099Y-96311359D01*
X149446323Y-95665407D01*
X149423836Y-94975547D01*
X149203099Y-94442641D01*
X148925868Y-94331737D01*
X147880605Y-95377000D01*
X147521395Y-95377000D01*
X146476132Y-94331737D01*
X146198901Y-94442641D01*
X145955677Y-95088593D01*
X143222209Y-95088593D01*
X143295803Y-95015000D01*
X143461874Y-95015000D01*
X143842280Y-94857431D01*
X144133431Y-94566280D01*
X144291000Y-94185874D01*
X144291000Y-94152132D01*
X146655737Y-94152132D01*
X147701000Y-95197395D01*
X148746263Y-94152132D01*
X148635359Y-93874901D01*
X147989407Y-93631677D01*
X147299547Y-93654164D01*
X146766641Y-93874901D01*
X146655737Y-94152132D01*
X144291000Y-94152132D01*
X144291000Y-93774126D01*
X144165027Y-93470000D01*
X148197653Y-93470000D01*
X148272500Y-93484888D01*
X148347347Y-93470000D01*
X148347352Y-93470000D01*
X148569037Y-93425904D01*
X148820429Y-93257929D01*
X148862831Y-93194470D01*
X150763592Y-91293709D01*
X150983744Y-91337500D01*
X151276256Y-91337500D01*
X151690001Y-91255201D01*
X151690001Y-99785060D01*
G36*
X149688791Y-109268907D02*
X138649703Y-120307996D01*
X138259305Y-120307996D01*
X149624020Y-108943282D01*
X149688791Y-109268907D01*
X149688791Y-109268907D01*
G37*
X149688791Y-109268907D02*
X138649703Y-120307996D01*
X138259305Y-120307996D01*
X149624020Y-108943282D01*
X149688791Y-109268907D01*
G36*
X149688791Y-106728907D02*
X136559714Y-119857985D01*
X136169316Y-119857985D01*
X149624020Y-106403282D01*
X149688791Y-106728907D01*
X149688791Y-106728907D01*
G37*
X149688791Y-106728907D02*
X136559714Y-119857985D01*
X136169316Y-119857985D01*
X149624020Y-106403282D01*
X149688791Y-106728907D01*
G36*
X151690000Y-118835060D02*
X150280000Y-118835060D01*
X150032235Y-118884343D01*
X149822191Y-119024691D01*
X149681843Y-119234735D01*
X149632560Y-119482500D01*
X149632560Y-119572500D01*
X141534801Y-119572500D01*
X150763593Y-110343709D01*
X150983744Y-110387500D01*
X151276256Y-110387500D01*
X151690001Y-110305201D01*
X151690000Y-118835060D01*
X151690000Y-118835060D01*
G37*
X151690000Y-118835060D02*
X150280000Y-118835060D01*
X150032235Y-118884343D01*
X149822191Y-119024691D01*
X149681843Y-119234735D01*
X149632560Y-119482500D01*
X149632560Y-119572500D01*
X141534801Y-119572500D01*
X150763593Y-110343709D01*
X150983744Y-110387500D01*
X151276256Y-110387500D01*
X151690001Y-110305201D01*
X151690000Y-118835060D01*
G36*
X149822191Y-102590309D02*
X150032235Y-102730657D01*
X150077619Y-102739684D01*
X150059375Y-102751875D01*
X149731161Y-103243082D01*
X149615908Y-103822500D01*
X149688791Y-104188907D01*
X134495697Y-119382002D01*
X133013771Y-119382002D01*
X133030831Y-119356470D01*
X149812098Y-102575204D01*
X149822191Y-102590309D01*
X149822191Y-102590309D01*
G37*
X149822191Y-102590309D02*
X150032235Y-102730657D01*
X150077619Y-102739684D01*
X150059375Y-102751875D01*
X149731161Y-103243082D01*
X149615908Y-103822500D01*
X149688791Y-104188907D01*
X134495697Y-119382002D01*
X133013771Y-119382002D01*
X133030831Y-119356470D01*
X149812098Y-102575204D01*
X149822191Y-102590309D01*
G36*
X79058788Y-105602500D02*
X78748178Y-105602500D01*
X78540625Y-105291875D01*
X78242239Y-105092500D01*
X78540625Y-104893125D01*
X78748178Y-104582500D01*
X80078788Y-104582500D01*
X79058788Y-105602500D01*
X79058788Y-105602500D01*
G37*
X79058788Y-105602500D02*
X78748178Y-105602500D01*
X78540625Y-105291875D01*
X78242239Y-105092500D01*
X78540625Y-104893125D01*
X78748178Y-104582500D01*
X80078788Y-104582500D01*
X79058788Y-105602500D01*
G36*
X80962377Y-103062500D02*
X78748178Y-103062500D01*
X78540625Y-102751875D01*
X78522381Y-102739684D01*
X78567765Y-102730657D01*
X78777809Y-102590309D01*
X78918157Y-102380265D01*
X78967440Y-102132500D01*
X78967440Y-102042499D01*
X81982378Y-102042498D01*
X80962377Y-103062500D01*
X80962377Y-103062500D01*
G37*
X80962377Y-103062500D02*
X78748178Y-103062500D01*
X78540625Y-102751875D01*
X78522381Y-102739684D01*
X78567765Y-102730657D01*
X78777809Y-102590309D01*
X78918157Y-102380265D01*
X78967440Y-102132500D01*
X78967440Y-102042499D01*
X81982378Y-102042498D01*
X80962377Y-103062500D01*
G36*
X81432696Y-92349999D02*
X81042301Y-92349999D01*
X78911209Y-90218908D01*
X78975980Y-89893282D01*
X81432696Y-92349999D01*
X81432696Y-92349999D01*
G37*
X81432696Y-92349999D02*
X81042301Y-92349999D01*
X78911209Y-90218908D01*
X78975980Y-89893282D01*
X81432696Y-92349999D01*
G36*
X82810691Y-91187994D02*
X82420297Y-91187994D01*
X78911209Y-87678908D01*
X78975980Y-87353282D01*
X82810691Y-91187994D01*
X82810691Y-91187994D01*
G37*
X82810691Y-91187994D02*
X82420297Y-91187994D01*
X78911209Y-87678908D01*
X78975980Y-87353282D01*
X82810691Y-91187994D01*
G36*
X85434698Y-90172000D02*
X83944303Y-90172000D01*
X78911209Y-85138908D01*
X78984092Y-84772500D01*
X78868839Y-84193082D01*
X78540625Y-83701875D01*
X78522381Y-83689684D01*
X78567765Y-83680657D01*
X78777809Y-83540309D01*
X78787902Y-83525203D01*
X85434698Y-90172000D01*
X85434698Y-90172000D01*
G37*
X85434698Y-90172000D02*
X83944303Y-90172000D01*
X78911209Y-85138908D01*
X78984092Y-84772500D01*
X78868839Y-84193082D01*
X78540625Y-83701875D01*
X78522381Y-83689684D01*
X78567765Y-83680657D01*
X78777809Y-83540309D01*
X78787902Y-83525203D01*
X85434698Y-90172000D01*
G36*
X81153000Y-82550000D02*
X81162667Y-82598601D01*
X81190197Y-82639803D01*
X81231399Y-82667333D01*
X81280000Y-82677000D01*
X129032000Y-82677000D01*
X129080601Y-82667333D01*
X129121803Y-82639803D01*
X130354606Y-81407000D01*
X138335370Y-81407000D01*
X138436222Y-81507852D01*
X138936079Y-81714900D01*
X139477121Y-81714900D01*
X139976978Y-81507852D01*
X140077830Y-81407000D01*
X143335370Y-81407000D01*
X143436222Y-81507852D01*
X143936079Y-81714900D01*
X144477121Y-81714900D01*
X144976978Y-81507852D01*
X145077830Y-81407000D01*
X149632560Y-81407000D01*
X149632560Y-81584017D01*
X149482071Y-81684571D01*
X149439671Y-81748027D01*
X141777699Y-89410000D01*
X132136806Y-89410000D01*
X132373802Y-89173004D01*
X132539874Y-89173004D01*
X132920280Y-89015435D01*
X133211431Y-88724284D01*
X133369000Y-88343878D01*
X133369000Y-87932130D01*
X133211431Y-87551724D01*
X132920280Y-87260573D01*
X132539874Y-87103004D01*
X132128126Y-87103004D01*
X131747720Y-87260573D01*
X131588999Y-87419294D01*
X131433431Y-87043720D01*
X131142280Y-86752569D01*
X130761874Y-86595000D01*
X130350126Y-86595000D01*
X129969720Y-86752569D01*
X129678569Y-87043720D01*
X129675963Y-87050012D01*
X125479789Y-87050012D01*
X125974305Y-86555497D01*
X126309418Y-86488839D01*
X126800625Y-86160625D01*
X127128839Y-85669418D01*
X127244092Y-85090000D01*
X127128839Y-84510582D01*
X126800625Y-84019375D01*
X126309418Y-83691161D01*
X125876256Y-83605000D01*
X125583744Y-83605000D01*
X125150582Y-83691161D01*
X124659375Y-84019375D01*
X124460000Y-84317761D01*
X124260625Y-84019375D01*
X123769418Y-83691161D01*
X123336256Y-83605000D01*
X123043744Y-83605000D01*
X122610582Y-83691161D01*
X122119375Y-84019375D01*
X121906157Y-84338478D01*
X121845183Y-84208642D01*
X121416924Y-83818355D01*
X121006890Y-83648524D01*
X120777000Y-83769845D01*
X120777000Y-84963000D01*
X120797000Y-84963000D01*
X120797000Y-85217000D01*
X120777000Y-85217000D01*
X120777000Y-85237000D01*
X120523000Y-85237000D01*
X120523000Y-85217000D01*
X120503000Y-85217000D01*
X120503000Y-84963000D01*
X120523000Y-84963000D01*
X120523000Y-83769845D01*
X120293110Y-83648524D01*
X119883076Y-83818355D01*
X119578739Y-84095708D01*
X119558157Y-83992235D01*
X119417809Y-83782191D01*
X119207765Y-83641843D01*
X118960000Y-83592560D01*
X117260000Y-83592560D01*
X117012235Y-83641843D01*
X116802191Y-83782191D01*
X116724005Y-83899204D01*
X116160331Y-83335530D01*
X116117929Y-83272071D01*
X115866537Y-83104096D01*
X115644852Y-83060000D01*
X115644847Y-83060000D01*
X115570000Y-83045112D01*
X115495153Y-83060000D01*
X106119847Y-83060000D01*
X106045000Y-83045112D01*
X105970153Y-83060000D01*
X105970148Y-83060000D01*
X105748463Y-83104096D01*
X105497071Y-83272071D01*
X105454671Y-83335527D01*
X102957199Y-85833000D01*
X102791126Y-85833000D01*
X102410720Y-85990569D01*
X102119569Y-86281720D01*
X101962000Y-86662126D01*
X101962000Y-87073874D01*
X102119569Y-87454280D01*
X102410720Y-87745431D01*
X102791126Y-87903000D01*
X102911289Y-87903000D01*
X102754569Y-88059720D01*
X102597000Y-88440126D01*
X102597000Y-88851874D01*
X102754569Y-89232280D01*
X102932289Y-89410000D01*
X97477711Y-89410000D01*
X97360280Y-89292569D01*
X96979874Y-89135000D01*
X96568126Y-89135000D01*
X96187720Y-89292569D01*
X96070289Y-89410000D01*
X86822302Y-89410000D01*
X79160331Y-81748030D01*
X79117929Y-81684571D01*
X78967440Y-81584017D01*
X78967440Y-81407000D01*
X81153000Y-81407000D01*
X81153000Y-82550000D01*
X81153000Y-82550000D01*
G37*
X81153000Y-82550000D02*
X81162667Y-82598601D01*
X81190197Y-82639803D01*
X81231399Y-82667333D01*
X81280000Y-82677000D01*
X129032000Y-82677000D01*
X129080601Y-82667333D01*
X129121803Y-82639803D01*
X130354606Y-81407000D01*
X138335370Y-81407000D01*
X138436222Y-81507852D01*
X138936079Y-81714900D01*
X139477121Y-81714900D01*
X139976978Y-81507852D01*
X140077830Y-81407000D01*
X143335370Y-81407000D01*
X143436222Y-81507852D01*
X143936079Y-81714900D01*
X144477121Y-81714900D01*
X144976978Y-81507852D01*
X145077830Y-81407000D01*
X149632560Y-81407000D01*
X149632560Y-81584017D01*
X149482071Y-81684571D01*
X149439671Y-81748027D01*
X141777699Y-89410000D01*
X132136806Y-89410000D01*
X132373802Y-89173004D01*
X132539874Y-89173004D01*
X132920280Y-89015435D01*
X133211431Y-88724284D01*
X133369000Y-88343878D01*
X133369000Y-87932130D01*
X133211431Y-87551724D01*
X132920280Y-87260573D01*
X132539874Y-87103004D01*
X132128126Y-87103004D01*
X131747720Y-87260573D01*
X131588999Y-87419294D01*
X131433431Y-87043720D01*
X131142280Y-86752569D01*
X130761874Y-86595000D01*
X130350126Y-86595000D01*
X129969720Y-86752569D01*
X129678569Y-87043720D01*
X129675963Y-87050012D01*
X125479789Y-87050012D01*
X125974305Y-86555497D01*
X126309418Y-86488839D01*
X126800625Y-86160625D01*
X127128839Y-85669418D01*
X127244092Y-85090000D01*
X127128839Y-84510582D01*
X126800625Y-84019375D01*
X126309418Y-83691161D01*
X125876256Y-83605000D01*
X125583744Y-83605000D01*
X125150582Y-83691161D01*
X124659375Y-84019375D01*
X124460000Y-84317761D01*
X124260625Y-84019375D01*
X123769418Y-83691161D01*
X123336256Y-83605000D01*
X123043744Y-83605000D01*
X122610582Y-83691161D01*
X122119375Y-84019375D01*
X121906157Y-84338478D01*
X121845183Y-84208642D01*
X121416924Y-83818355D01*
X121006890Y-83648524D01*
X120777000Y-83769845D01*
X120777000Y-84963000D01*
X120797000Y-84963000D01*
X120797000Y-85217000D01*
X120777000Y-85217000D01*
X120777000Y-85237000D01*
X120523000Y-85237000D01*
X120523000Y-85217000D01*
X120503000Y-85217000D01*
X120503000Y-84963000D01*
X120523000Y-84963000D01*
X120523000Y-83769845D01*
X120293110Y-83648524D01*
X119883076Y-83818355D01*
X119578739Y-84095708D01*
X119558157Y-83992235D01*
X119417809Y-83782191D01*
X119207765Y-83641843D01*
X118960000Y-83592560D01*
X117260000Y-83592560D01*
X117012235Y-83641843D01*
X116802191Y-83782191D01*
X116724005Y-83899204D01*
X116160331Y-83335530D01*
X116117929Y-83272071D01*
X115866537Y-83104096D01*
X115644852Y-83060000D01*
X115644847Y-83060000D01*
X115570000Y-83045112D01*
X115495153Y-83060000D01*
X106119847Y-83060000D01*
X106045000Y-83045112D01*
X105970153Y-83060000D01*
X105970148Y-83060000D01*
X105748463Y-83104096D01*
X105497071Y-83272071D01*
X105454671Y-83335527D01*
X102957199Y-85833000D01*
X102791126Y-85833000D01*
X102410720Y-85990569D01*
X102119569Y-86281720D01*
X101962000Y-86662126D01*
X101962000Y-87073874D01*
X102119569Y-87454280D01*
X102410720Y-87745431D01*
X102791126Y-87903000D01*
X102911289Y-87903000D01*
X102754569Y-88059720D01*
X102597000Y-88440126D01*
X102597000Y-88851874D01*
X102754569Y-89232280D01*
X102932289Y-89410000D01*
X97477711Y-89410000D01*
X97360280Y-89292569D01*
X96979874Y-89135000D01*
X96568126Y-89135000D01*
X96187720Y-89292569D01*
X96070289Y-89410000D01*
X86822302Y-89410000D01*
X79160331Y-81748030D01*
X79117929Y-81684571D01*
X78967440Y-81584017D01*
X78967440Y-81407000D01*
X81153000Y-81407000D01*
X81153000Y-82550000D01*
G36*
X116249671Y-85574473D02*
X116266728Y-85600000D01*
X106283836Y-85600000D01*
X106208989Y-85585112D01*
X106134142Y-85600000D01*
X106134138Y-85600000D01*
X105912453Y-85644096D01*
X105661061Y-85812071D01*
X105618660Y-85875528D01*
X105497199Y-85996990D01*
X105331126Y-85996990D01*
X104950720Y-86154559D01*
X104659569Y-86445710D01*
X104502000Y-86826116D01*
X104502000Y-87041889D01*
X104467988Y-87035124D01*
X104393140Y-87050012D01*
X104393136Y-87050012D01*
X104171451Y-87094108D01*
X103967046Y-87230687D01*
X104032000Y-87073874D01*
X104032000Y-86907801D01*
X106359802Y-84580000D01*
X115255199Y-84580000D01*
X116249671Y-85574473D01*
X116249671Y-85574473D01*
G37*
X116249671Y-85574473D02*
X116266728Y-85600000D01*
X106283836Y-85600000D01*
X106208989Y-85585112D01*
X106134142Y-85600000D01*
X106134138Y-85600000D01*
X105912453Y-85644096D01*
X105661061Y-85812071D01*
X105618660Y-85875528D01*
X105497199Y-85996990D01*
X105331126Y-85996990D01*
X104950720Y-86154559D01*
X104659569Y-86445710D01*
X104502000Y-86826116D01*
X104502000Y-87041889D01*
X104467988Y-87035124D01*
X104393140Y-87050012D01*
X104393136Y-87050012D01*
X104171451Y-87094108D01*
X103967046Y-87230687D01*
X104032000Y-87073874D01*
X104032000Y-86907801D01*
X106359802Y-84580000D01*
X115255199Y-84580000D01*
X116249671Y-85574473D01*
G04 #@! TD*
M02*
