M48
;DRILL file {KiCad (5.0.0)} date 06/08/19 15:20:41
;FORMAT={-:-/ absolute / inch / decimal}
FMAT,2
INCH,TZ
T1C0.0157
T2C0.0236
T3C0.0335
T4C0.0394
%
G90
G05
M72
T1
X3.1195Y-5.7002
X3.13Y-4.131
X3.152Y-3.588
X3.161Y-5.534
X3.169Y-4.031
X3.216Y-3.557
X3.239Y-3.441
X3.25Y-3.95
X3.31Y-4.62
X3.36Y-4.63
X3.432Y-3.361
X3.44Y-4.67
X3.55Y-3.9
X3.67Y-5.39
X3.755Y-3.79
X3.77Y-5.33
X3.7721Y-4.0065
X3.785Y-3.87
X3.8Y-4.52
X3.81Y-3.55
X3.825Y-4.06
X3.845Y-3.58
X3.847Y-3.371
X3.85Y-5.79
X3.856Y-3.787
X3.875Y-3.62
X3.88Y-5.4
X3.8877Y-4.8276
X3.89Y-4.675
X3.895Y-4.785
X3.9Y-4.73
X3.918Y-3.927
X3.92Y-3.65
X3.9235Y-4.8467
X3.94Y-5.17
X3.984Y-4.435
X3.9852Y-4.8595
X4.01Y-5.42
X4.01Y-5.6
X4.0228Y-4.8772
X4.03Y-5.23
X4.031Y-3.858
X4.05Y-5.65
X4.055Y-3.42
X4.08Y-3.49
X4.081Y-4.434
X4.1Y-4.89
X4.122Y-3.787
X4.13Y-3.52
X4.13Y-5.42
X4.14Y-5.87
X4.155Y-3.4265
X4.2Y-3.84
X4.2Y-5.64
X4.205Y-3.4285
X4.241Y-4.03
X4.28Y-5.44
X4.508Y-3.3463
X4.58Y-4.96
X4.69Y-5.85
X4.92Y-4.54
X4.94Y-3.95
X4.95Y-3.78
X4.95Y-4.05
X5.14Y-3.45
X5.14Y-3.77
X5.21Y-3.47
X5.27Y-3.88
X5.41Y-5.02
X5.46Y-5.54
X5.47Y-3.47
X5.49Y-5.74
X5.4972Y-3.2328
X5.51Y-5.09
X5.51Y-5.8
X5.52Y-4.98
X5.53Y-5.22
X5.5475Y-3.69
X5.55Y-5.06
X5.57Y-5.79
X5.577Y-4.386
X5.64Y-3.7
X5.659Y-4.786
X5.67Y-4.42
X5.67Y-5.36
X5.74Y-4.45
X5.757Y-4.631
X5.77Y-3.25
X5.78Y-4.94
X5.79Y-5.57
X5.93Y-3.82
X5.93Y-4.59
T3
X5.4806Y-3.1636
X5.6774Y-3.1636
T4
X5.95Y-4.7375
X5.95Y-4.8375
X5.95Y-4.9375
X5.95Y-5.0375
X5.95Y-3.9875
X5.95Y-4.0875
X5.95Y-4.1875
X5.95Y-4.2875
X5.95Y-5.4875
X5.95Y-5.5875
X5.95Y-5.6875
X5.95Y-5.7875
X4.65Y-3.35
X4.75Y-3.35
X4.85Y-3.35
X4.95Y-3.35
X5.95Y-3.2375
X5.95Y-3.3375
X5.95Y-3.4375
X5.95Y-3.5375
X4.54Y-5.38
X4.54Y-5.48
X3.05Y-5.4875
X3.05Y-5.5875
X3.05Y-5.6875
X3.05Y-5.7875
X3.05Y-3.2375
X3.05Y-3.3375
X3.05Y-3.4375
X3.05Y-3.5375
X3.05Y-3.9875
X3.05Y-4.0875
X3.05Y-4.1875
X3.05Y-4.2875
X3.05Y-4.7375
X3.05Y-4.8375
X3.05Y-4.9375
X3.05Y-5.0375
T2
X5.4412Y-3.0711G85X5.4412Y-3.0435
G05
X5.7168Y-3.0435G85X5.7168Y-3.0711
G05
T0
M30
