G04 #@! TF.GenerationSoftware,KiCad,Pcbnew,(5.0.0)*
G04 #@! TF.CreationDate,2019-04-09T17:12:50-06:00*
G04 #@! TF.ProjectId,NRF52832 Base,4E5246353238333220426173652E6B69,rev?*
G04 #@! TF.SameCoordinates,Original*
G04 #@! TF.FileFunction,Legend,Top*
G04 #@! TF.FilePolarity,Positive*
%FSLAX46Y46*%
G04 Gerber Fmt 4.6, Leading zero omitted, Abs format (unit mm)*
G04 Created by KiCad (PCBNEW (5.0.0)) date 04/09/19 17:12:50*
%MOMM*%
%LPD*%
G01*
G04 APERTURE LIST*
%ADD10C,0.300000*%
%ADD11C,0.381000*%
%ADD12C,0.120000*%
%ADD13C,0.100000*%
%ADD14C,0.150000*%
G04 APERTURE END LIST*
D10*
X146614342Y-80857200D02*
X146542914Y-81071485D01*
X146471485Y-81142914D01*
X146328628Y-81214342D01*
X146114342Y-81214342D01*
X145971485Y-81142914D01*
X145900057Y-81071485D01*
X145828628Y-80928628D01*
X145828628Y-80357200D01*
X147328628Y-80357200D01*
X147328628Y-80857200D01*
X147257200Y-81000057D01*
X147185771Y-81071485D01*
X147042914Y-81142914D01*
X146900057Y-81142914D01*
X146757200Y-81071485D01*
X146685771Y-81000057D01*
X146614342Y-80857200D01*
X146614342Y-80357200D01*
X145828628Y-82071485D02*
X145900057Y-81928628D01*
X146042914Y-81857200D01*
X147328628Y-81857200D01*
X146828628Y-83285771D02*
X145828628Y-83285771D01*
X146828628Y-82642914D02*
X146042914Y-82642914D01*
X145900057Y-82714342D01*
X145828628Y-82857200D01*
X145828628Y-83071485D01*
X145900057Y-83214342D01*
X145971485Y-83285771D01*
X145900057Y-84571485D02*
X145828628Y-84428628D01*
X145828628Y-84142914D01*
X145900057Y-84000057D01*
X146042914Y-83928628D01*
X146614342Y-83928628D01*
X146757200Y-84000057D01*
X146828628Y-84142914D01*
X146828628Y-84428628D01*
X146757200Y-84571485D01*
X146614342Y-84642914D01*
X146471485Y-84642914D01*
X146328628Y-83928628D01*
X145828628Y-85285771D02*
X147328628Y-85285771D01*
X145828628Y-86142914D01*
X147328628Y-86142914D01*
X145828628Y-87500057D02*
X146614342Y-87500057D01*
X146757200Y-87428628D01*
X146828628Y-87285771D01*
X146828628Y-87000057D01*
X146757200Y-86857200D01*
X145900057Y-87500057D02*
X145828628Y-87357200D01*
X145828628Y-87000057D01*
X145900057Y-86857200D01*
X146042914Y-86785771D01*
X146185771Y-86785771D01*
X146328628Y-86857200D01*
X146400057Y-87000057D01*
X146400057Y-87357200D01*
X146471485Y-87500057D01*
X146828628Y-88214342D02*
X145828628Y-88214342D01*
X146685771Y-88214342D02*
X146757200Y-88285771D01*
X146828628Y-88428628D01*
X146828628Y-88642914D01*
X146757200Y-88785771D01*
X146614342Y-88857200D01*
X145828628Y-88857200D01*
X145828628Y-89785771D02*
X145900057Y-89642914D01*
X145971485Y-89571485D01*
X146114342Y-89500057D01*
X146542914Y-89500057D01*
X146685771Y-89571485D01*
X146757200Y-89642914D01*
X146828628Y-89785771D01*
X146828628Y-90000057D01*
X146757200Y-90142914D01*
X146685771Y-90214342D01*
X146542914Y-90285771D01*
X146114342Y-90285771D01*
X145971485Y-90214342D01*
X145900057Y-90142914D01*
X145828628Y-90000057D01*
X145828628Y-89785771D01*
X147328628Y-91857200D02*
X145828628Y-92357200D01*
X147328628Y-92857200D01*
X147185771Y-93285771D02*
X147257200Y-93357200D01*
X147328628Y-93500057D01*
X147328628Y-93857200D01*
X147257200Y-94000057D01*
X147185771Y-94071485D01*
X147042914Y-94142914D01*
X146900057Y-94142914D01*
X146685771Y-94071485D01*
X145828628Y-93214342D01*
X145828628Y-94142914D01*
X145971485Y-94785771D02*
X145900057Y-94857200D01*
X145828628Y-94785771D01*
X145900057Y-94714342D01*
X145971485Y-94785771D01*
X145828628Y-94785771D01*
X147328628Y-95785771D02*
X147328628Y-95928628D01*
X147257200Y-96071485D01*
X147185771Y-96142914D01*
X147042914Y-96214342D01*
X146757200Y-96285771D01*
X146400057Y-96285771D01*
X146114342Y-96214342D01*
X145971485Y-96142914D01*
X145900057Y-96071485D01*
X145828628Y-95928628D01*
X145828628Y-95785771D01*
X145900057Y-95642914D01*
X145971485Y-95571485D01*
X146114342Y-95500057D01*
X146400057Y-95428628D01*
X146757200Y-95428628D01*
X147042914Y-95500057D01*
X147185771Y-95571485D01*
X147257200Y-95642914D01*
X147328628Y-95785771D01*
X145971485Y-96928628D02*
X145900057Y-97000057D01*
X145828628Y-96928628D01*
X145900057Y-96857200D01*
X145971485Y-96928628D01*
X145828628Y-96928628D01*
X145828628Y-98428628D02*
X145828628Y-97571485D01*
X145828628Y-98000057D02*
X147328628Y-98000057D01*
X147114342Y-97857200D01*
X146971485Y-97714342D01*
X146900057Y-97571485D01*
D11*
G04 #@! TO.C,U2*
X111760000Y-80645000D02*
X111760000Y-98425000D01*
X111760000Y-98425000D02*
X142240000Y-98425000D01*
X142240000Y-98425000D02*
X142240000Y-80645000D01*
X142240000Y-80645000D02*
X111760000Y-80645000D01*
X111760000Y-95885000D02*
X114300000Y-95885000D01*
X114300000Y-95885000D02*
X114300000Y-98425000D01*
D12*
G04 #@! TO.C,Y1*
X142840000Y-87804000D02*
X140540000Y-87804000D01*
X140540000Y-87804000D02*
X140540000Y-90504000D01*
G04 #@! TO.C,Y2*
X127875000Y-86400000D02*
X127875000Y-85050000D01*
X126125000Y-86400000D02*
X126125000Y-85050000D01*
G04 #@! TO.C,U1*
X138004902Y-89135485D02*
X138404417Y-89535000D01*
X138404417Y-89535000D02*
X138004902Y-89934515D01*
X129965098Y-89934515D02*
X129565583Y-89535000D01*
X129565583Y-89535000D02*
X129965098Y-89135485D01*
X133585485Y-93554902D02*
X133985000Y-93954417D01*
X133985000Y-93954417D02*
X134384515Y-93554902D01*
X133985000Y-85115583D02*
X134384515Y-85515098D01*
G04 #@! TO.C,U3*
X129245000Y-94669000D02*
X129245000Y-92869000D01*
X126025000Y-92869000D02*
X126025000Y-95319000D01*
G04 #@! TO.C,D1*
X114312500Y-83339000D02*
X112027500Y-83339000D01*
X112027500Y-83339000D02*
X112027500Y-84809000D01*
X112027500Y-84809000D02*
X114312500Y-84809000D01*
G04 #@! TO.C,J2*
X115616000Y-85675000D02*
X115616000Y-86125000D01*
X113766000Y-85675000D02*
X115616000Y-85675000D01*
X111216000Y-93475000D02*
X111466000Y-93475000D01*
X111216000Y-85675000D02*
X111466000Y-85675000D01*
X113766000Y-93475000D02*
X115616000Y-93475000D01*
X115616000Y-93475000D02*
X115616000Y-93025000D01*
X116166000Y-87875000D02*
X116166000Y-88325000D01*
X116166000Y-87875000D02*
X115716000Y-87875000D01*
G04 #@! TO.C,U4*
X118861000Y-95717000D02*
X120661000Y-95717000D01*
X120661000Y-92497000D02*
X118211000Y-92497000D01*
G04 #@! TO.C,D2*
X125310000Y-90321000D02*
X123610000Y-90321000D01*
X123610000Y-90321000D02*
X123610000Y-92871000D01*
X125310000Y-90321000D02*
X125310000Y-92871000D01*
G04 #@! TO.C,U5*
X122031000Y-87425000D02*
X122506000Y-87425000D01*
X122506000Y-87425000D02*
X122506000Y-87900000D01*
X118761000Y-91645000D02*
X118286000Y-91645000D01*
X118286000Y-91645000D02*
X118286000Y-91170000D01*
X122031000Y-91645000D02*
X122506000Y-91645000D01*
X122506000Y-91645000D02*
X122506000Y-91170000D01*
X118761000Y-87425000D02*
X118286000Y-87425000D01*
G04 #@! TO.C,Q1*
X124960000Y-94415000D02*
X124960000Y-93915000D01*
X124960000Y-93915000D02*
X124460000Y-93915000D01*
G04 #@! TO.C,U2*
D13*
X140920000Y-83722333D02*
X140953333Y-83622333D01*
X140986666Y-83589000D01*
X141053333Y-83555666D01*
X141153333Y-83555666D01*
X141220000Y-83589000D01*
X141253333Y-83622333D01*
X141286666Y-83689000D01*
X141286666Y-83955666D01*
X140586666Y-83955666D01*
X140586666Y-83722333D01*
X140620000Y-83655666D01*
X140653333Y-83622333D01*
X140720000Y-83589000D01*
X140786666Y-83589000D01*
X140853333Y-83622333D01*
X140886666Y-83655666D01*
X140920000Y-83722333D01*
X140920000Y-83955666D01*
X140586666Y-82922333D02*
X140586666Y-83255666D01*
X140920000Y-83289000D01*
X140886666Y-83255666D01*
X140853333Y-83189000D01*
X140853333Y-83022333D01*
X140886666Y-82955666D01*
X140920000Y-82922333D01*
X140986666Y-82889000D01*
X141153333Y-82889000D01*
X141220000Y-82922333D01*
X141253333Y-82955666D01*
X141286666Y-83022333D01*
X141286666Y-83189000D01*
X141253333Y-83255666D01*
X141220000Y-83289000D01*
X138380000Y-83722333D02*
X138413333Y-83622333D01*
X138446666Y-83589000D01*
X138513333Y-83555666D01*
X138613333Y-83555666D01*
X138680000Y-83589000D01*
X138713333Y-83622333D01*
X138746666Y-83689000D01*
X138746666Y-83955666D01*
X138046666Y-83955666D01*
X138046666Y-83722333D01*
X138080000Y-83655666D01*
X138113333Y-83622333D01*
X138180000Y-83589000D01*
X138246666Y-83589000D01*
X138313333Y-83622333D01*
X138346666Y-83655666D01*
X138380000Y-83722333D01*
X138380000Y-83955666D01*
X138280000Y-82955666D02*
X138746666Y-82955666D01*
X138013333Y-83122333D02*
X138513333Y-83289000D01*
X138513333Y-82855666D01*
X135840000Y-83922333D02*
X135840000Y-83689000D01*
X136206666Y-83589000D02*
X136206666Y-83922333D01*
X135506666Y-83922333D01*
X135506666Y-83589000D01*
X135506666Y-82989000D02*
X135506666Y-83122333D01*
X135540000Y-83189000D01*
X135573333Y-83222333D01*
X135673333Y-83289000D01*
X135806666Y-83322333D01*
X136073333Y-83322333D01*
X136140000Y-83289000D01*
X136173333Y-83255666D01*
X136206666Y-83189000D01*
X136206666Y-83055666D01*
X136173333Y-82989000D01*
X136140000Y-82955666D01*
X136073333Y-82922333D01*
X135906666Y-82922333D01*
X135840000Y-82955666D01*
X135806666Y-82989000D01*
X135773333Y-83055666D01*
X135773333Y-83189000D01*
X135806666Y-83255666D01*
X135840000Y-83289000D01*
X135906666Y-83322333D01*
X133666666Y-83955666D02*
X132966666Y-83955666D01*
X132966666Y-83789000D01*
X133000000Y-83689000D01*
X133066666Y-83622333D01*
X133133333Y-83589000D01*
X133266666Y-83555666D01*
X133366666Y-83555666D01*
X133500000Y-83589000D01*
X133566666Y-83622333D01*
X133633333Y-83689000D01*
X133666666Y-83789000D01*
X133666666Y-83955666D01*
X132966666Y-83322333D02*
X132966666Y-82855666D01*
X133666666Y-83155666D01*
X131060000Y-83555666D02*
X131093333Y-83589000D01*
X131126666Y-83689000D01*
X131126666Y-83755666D01*
X131093333Y-83855666D01*
X131026666Y-83922333D01*
X130960000Y-83955666D01*
X130826666Y-83989000D01*
X130726666Y-83989000D01*
X130593333Y-83955666D01*
X130526666Y-83922333D01*
X130460000Y-83855666D01*
X130426666Y-83755666D01*
X130426666Y-83689000D01*
X130460000Y-83589000D01*
X130493333Y-83555666D01*
X130426666Y-82955666D02*
X130426666Y-83089000D01*
X130460000Y-83155666D01*
X130493333Y-83189000D01*
X130593333Y-83255666D01*
X130726666Y-83289000D01*
X130993333Y-83289000D01*
X131060000Y-83255666D01*
X131093333Y-83222333D01*
X131126666Y-83155666D01*
X131126666Y-83022333D01*
X131093333Y-82955666D01*
X131060000Y-82922333D01*
X130993333Y-82889000D01*
X130826666Y-82889000D01*
X130760000Y-82922333D01*
X130726666Y-82955666D01*
X130693333Y-83022333D01*
X130693333Y-83155666D01*
X130726666Y-83222333D01*
X130760000Y-83255666D01*
X130826666Y-83289000D01*
X128586666Y-83955666D02*
X127886666Y-83955666D01*
X127886666Y-83789000D01*
X127920000Y-83689000D01*
X127986666Y-83622333D01*
X128053333Y-83589000D01*
X128186666Y-83555666D01*
X128286666Y-83555666D01*
X128420000Y-83589000D01*
X128486666Y-83622333D01*
X128553333Y-83689000D01*
X128586666Y-83789000D01*
X128586666Y-83955666D01*
X128120000Y-82955666D02*
X128586666Y-82955666D01*
X127853333Y-83122333D02*
X128353333Y-83289000D01*
X128353333Y-82855666D01*
X126046666Y-83955666D02*
X125346666Y-83955666D01*
X125346666Y-83789000D01*
X125380000Y-83689000D01*
X125446666Y-83622333D01*
X125513333Y-83589000D01*
X125646666Y-83555666D01*
X125746666Y-83555666D01*
X125880000Y-83589000D01*
X125946666Y-83622333D01*
X126013333Y-83689000D01*
X126046666Y-83789000D01*
X126046666Y-83955666D01*
X125346666Y-83122333D02*
X125346666Y-83055666D01*
X125380000Y-82989000D01*
X125413333Y-82955666D01*
X125480000Y-82922333D01*
X125613333Y-82889000D01*
X125780000Y-82889000D01*
X125913333Y-82922333D01*
X125980000Y-82955666D01*
X126013333Y-82989000D01*
X126046666Y-83055666D01*
X126046666Y-83122333D01*
X126013333Y-83189000D01*
X125980000Y-83222333D01*
X125913333Y-83255666D01*
X125780000Y-83289000D01*
X125613333Y-83289000D01*
X125480000Y-83255666D01*
X125413333Y-83222333D01*
X125380000Y-83189000D01*
X125346666Y-83122333D01*
X123506666Y-83955666D02*
X122806666Y-83955666D01*
X122806666Y-83789000D01*
X122840000Y-83689000D01*
X122906666Y-83622333D01*
X122973333Y-83589000D01*
X123106666Y-83555666D01*
X123206666Y-83555666D01*
X123340000Y-83589000D01*
X123406666Y-83622333D01*
X123473333Y-83689000D01*
X123506666Y-83789000D01*
X123506666Y-83955666D01*
X123506666Y-82889000D02*
X123506666Y-83289000D01*
X123506666Y-83089000D02*
X122806666Y-83089000D01*
X122906666Y-83155666D01*
X122973333Y-83222333D01*
X123006666Y-83289000D01*
X120300000Y-84480333D02*
X120266666Y-84547000D01*
X120266666Y-84647000D01*
X120300000Y-84747000D01*
X120366666Y-84813666D01*
X120433333Y-84847000D01*
X120566666Y-84880333D01*
X120666666Y-84880333D01*
X120800000Y-84847000D01*
X120866666Y-84813666D01*
X120933333Y-84747000D01*
X120966666Y-84647000D01*
X120966666Y-84580333D01*
X120933333Y-84480333D01*
X120900000Y-84447000D01*
X120666666Y-84447000D01*
X120666666Y-84580333D01*
X120966666Y-84147000D02*
X120266666Y-84147000D01*
X120966666Y-83747000D01*
X120266666Y-83747000D01*
X120966666Y-83413666D02*
X120266666Y-83413666D01*
X120266666Y-83247000D01*
X120300000Y-83147000D01*
X120366666Y-83080333D01*
X120433333Y-83047000D01*
X120566666Y-83013666D01*
X120666666Y-83013666D01*
X120800000Y-83047000D01*
X120866666Y-83080333D01*
X120933333Y-83147000D01*
X120966666Y-83247000D01*
X120966666Y-83413666D01*
X117760000Y-84480333D02*
X117726666Y-84547000D01*
X117726666Y-84647000D01*
X117760000Y-84747000D01*
X117826666Y-84813666D01*
X117893333Y-84847000D01*
X118026666Y-84880333D01*
X118126666Y-84880333D01*
X118260000Y-84847000D01*
X118326666Y-84813666D01*
X118393333Y-84747000D01*
X118426666Y-84647000D01*
X118426666Y-84580333D01*
X118393333Y-84480333D01*
X118360000Y-84447000D01*
X118126666Y-84447000D01*
X118126666Y-84580333D01*
X118426666Y-84147000D02*
X117726666Y-84147000D01*
X118426666Y-83747000D01*
X117726666Y-83747000D01*
X118426666Y-83413666D02*
X117726666Y-83413666D01*
X117726666Y-83247000D01*
X117760000Y-83147000D01*
X117826666Y-83080333D01*
X117893333Y-83047000D01*
X118026666Y-83013666D01*
X118126666Y-83013666D01*
X118260000Y-83047000D01*
X118326666Y-83080333D01*
X118393333Y-83147000D01*
X118426666Y-83247000D01*
X118426666Y-83413666D01*
X115886666Y-83955666D02*
X115186666Y-83955666D01*
X115186666Y-83789000D01*
X115220000Y-83689000D01*
X115286666Y-83622333D01*
X115353333Y-83589000D01*
X115486666Y-83555666D01*
X115586666Y-83555666D01*
X115720000Y-83589000D01*
X115786666Y-83622333D01*
X115853333Y-83689000D01*
X115886666Y-83789000D01*
X115886666Y-83955666D01*
X115253333Y-83289000D02*
X115220000Y-83255666D01*
X115186666Y-83189000D01*
X115186666Y-83022333D01*
X115220000Y-82955666D01*
X115253333Y-82922333D01*
X115320000Y-82889000D01*
X115386666Y-82889000D01*
X115486666Y-82922333D01*
X115886666Y-83322333D01*
X115886666Y-82889000D01*
X113346666Y-83955666D02*
X112646666Y-83955666D01*
X112646666Y-83789000D01*
X112680000Y-83689000D01*
X112746666Y-83622333D01*
X112813333Y-83589000D01*
X112946666Y-83555666D01*
X113046666Y-83555666D01*
X113180000Y-83589000D01*
X113246666Y-83622333D01*
X113313333Y-83689000D01*
X113346666Y-83789000D01*
X113346666Y-83955666D01*
X112646666Y-83322333D02*
X112646666Y-82889000D01*
X112913333Y-83122333D01*
X112913333Y-83022333D01*
X112946666Y-82955666D01*
X112980000Y-82922333D01*
X113046666Y-82889000D01*
X113213333Y-82889000D01*
X113280000Y-82922333D01*
X113313333Y-82955666D01*
X113346666Y-83022333D01*
X113346666Y-83222333D01*
X113313333Y-83289000D01*
X113280000Y-83322333D01*
X140920000Y-95914333D02*
X140953333Y-95814333D01*
X140986666Y-95781000D01*
X141053333Y-95747666D01*
X141153333Y-95747666D01*
X141220000Y-95781000D01*
X141253333Y-95814333D01*
X141286666Y-95881000D01*
X141286666Y-96147666D01*
X140586666Y-96147666D01*
X140586666Y-95914333D01*
X140620000Y-95847666D01*
X140653333Y-95814333D01*
X140720000Y-95781000D01*
X140786666Y-95781000D01*
X140853333Y-95814333D01*
X140886666Y-95847666D01*
X140920000Y-95914333D01*
X140920000Y-96147666D01*
X140586666Y-95147666D02*
X140586666Y-95281000D01*
X140620000Y-95347666D01*
X140653333Y-95381000D01*
X140753333Y-95447666D01*
X140886666Y-95481000D01*
X141153333Y-95481000D01*
X141220000Y-95447666D01*
X141253333Y-95414333D01*
X141286666Y-95347666D01*
X141286666Y-95214333D01*
X141253333Y-95147666D01*
X141220000Y-95114333D01*
X141153333Y-95081000D01*
X140986666Y-95081000D01*
X140920000Y-95114333D01*
X140886666Y-95147666D01*
X140853333Y-95214333D01*
X140853333Y-95347666D01*
X140886666Y-95414333D01*
X140920000Y-95447666D01*
X140986666Y-95481000D01*
X138380000Y-95914333D02*
X138413333Y-95814333D01*
X138446666Y-95781000D01*
X138513333Y-95747666D01*
X138613333Y-95747666D01*
X138680000Y-95781000D01*
X138713333Y-95814333D01*
X138746666Y-95881000D01*
X138746666Y-96147666D01*
X138046666Y-96147666D01*
X138046666Y-95914333D01*
X138080000Y-95847666D01*
X138113333Y-95814333D01*
X138180000Y-95781000D01*
X138246666Y-95781000D01*
X138313333Y-95814333D01*
X138346666Y-95847666D01*
X138380000Y-95914333D01*
X138380000Y-96147666D01*
X138113333Y-95481000D02*
X138080000Y-95447666D01*
X138046666Y-95381000D01*
X138046666Y-95214333D01*
X138080000Y-95147666D01*
X138113333Y-95114333D01*
X138180000Y-95081000D01*
X138246666Y-95081000D01*
X138346666Y-95114333D01*
X138746666Y-95514333D01*
X138746666Y-95081000D01*
X135840000Y-95914333D02*
X135873333Y-95814333D01*
X135906666Y-95781000D01*
X135973333Y-95747666D01*
X136073333Y-95747666D01*
X136140000Y-95781000D01*
X136173333Y-95814333D01*
X136206666Y-95881000D01*
X136206666Y-96147666D01*
X135506666Y-96147666D01*
X135506666Y-95914333D01*
X135540000Y-95847666D01*
X135573333Y-95814333D01*
X135640000Y-95781000D01*
X135706666Y-95781000D01*
X135773333Y-95814333D01*
X135806666Y-95847666D01*
X135840000Y-95914333D01*
X135840000Y-96147666D01*
X135506666Y-95514333D02*
X135506666Y-95081000D01*
X135773333Y-95314333D01*
X135773333Y-95214333D01*
X135806666Y-95147666D01*
X135840000Y-95114333D01*
X135906666Y-95081000D01*
X136073333Y-95081000D01*
X136140000Y-95114333D01*
X136173333Y-95147666D01*
X136206666Y-95214333D01*
X136206666Y-95414333D01*
X136173333Y-95481000D01*
X136140000Y-95514333D01*
X133300000Y-95914333D02*
X133333333Y-95814333D01*
X133366666Y-95781000D01*
X133433333Y-95747666D01*
X133533333Y-95747666D01*
X133600000Y-95781000D01*
X133633333Y-95814333D01*
X133666666Y-95881000D01*
X133666666Y-96147666D01*
X132966666Y-96147666D01*
X132966666Y-95914333D01*
X133000000Y-95847666D01*
X133033333Y-95814333D01*
X133100000Y-95781000D01*
X133166666Y-95781000D01*
X133233333Y-95814333D01*
X133266666Y-95847666D01*
X133300000Y-95914333D01*
X133300000Y-96147666D01*
X133666666Y-95081000D02*
X133666666Y-95481000D01*
X133666666Y-95281000D02*
X132966666Y-95281000D01*
X133066666Y-95347666D01*
X133133333Y-95414333D01*
X133166666Y-95481000D01*
X128220000Y-95864333D02*
X128220000Y-96097666D01*
X128586666Y-96097666D02*
X127886666Y-96097666D01*
X127886666Y-95764333D01*
X127886666Y-95197666D02*
X127886666Y-95331000D01*
X127920000Y-95397666D01*
X127953333Y-95431000D01*
X128053333Y-95497666D01*
X128186666Y-95531000D01*
X128453333Y-95531000D01*
X128520000Y-95497666D01*
X128553333Y-95464333D01*
X128586666Y-95397666D01*
X128586666Y-95264333D01*
X128553333Y-95197666D01*
X128520000Y-95164333D01*
X128453333Y-95131000D01*
X128286666Y-95131000D01*
X128220000Y-95164333D01*
X128186666Y-95197666D01*
X128153333Y-95264333D01*
X128153333Y-95397666D01*
X128186666Y-95464333D01*
X128220000Y-95497666D01*
X128286666Y-95531000D01*
X130760000Y-95864333D02*
X130760000Y-96097666D01*
X131126666Y-96097666D02*
X130426666Y-96097666D01*
X130426666Y-95764333D01*
X130426666Y-95564333D02*
X130426666Y-95097666D01*
X131126666Y-95397666D01*
X125680000Y-95864333D02*
X125680000Y-96097666D01*
X126046666Y-96097666D02*
X125346666Y-96097666D01*
X125346666Y-95764333D01*
X125346666Y-95164333D02*
X125346666Y-95497666D01*
X125680000Y-95531000D01*
X125646666Y-95497666D01*
X125613333Y-95431000D01*
X125613333Y-95264333D01*
X125646666Y-95197666D01*
X125680000Y-95164333D01*
X125746666Y-95131000D01*
X125913333Y-95131000D01*
X125980000Y-95164333D01*
X126013333Y-95197666D01*
X126046666Y-95264333D01*
X126046666Y-95431000D01*
X126013333Y-95497666D01*
X125980000Y-95531000D01*
X123140000Y-95864333D02*
X123140000Y-96097666D01*
X123506666Y-96097666D02*
X122806666Y-96097666D01*
X122806666Y-95764333D01*
X123040000Y-95197666D02*
X123506666Y-95197666D01*
X122773333Y-95364333D02*
X123273333Y-95531000D01*
X123273333Y-95097666D01*
X120266666Y-96056333D02*
X120966666Y-95823000D01*
X120266666Y-95589666D01*
X120900000Y-94956333D02*
X120933333Y-94989666D01*
X120966666Y-95089666D01*
X120966666Y-95156333D01*
X120933333Y-95256333D01*
X120866666Y-95323000D01*
X120800000Y-95356333D01*
X120666666Y-95389666D01*
X120566666Y-95389666D01*
X120433333Y-95356333D01*
X120366666Y-95323000D01*
X120300000Y-95256333D01*
X120266666Y-95156333D01*
X120266666Y-95089666D01*
X120300000Y-94989666D01*
X120333333Y-94956333D01*
X120900000Y-94256333D02*
X120933333Y-94289666D01*
X120966666Y-94389666D01*
X120966666Y-94456333D01*
X120933333Y-94556333D01*
X120866666Y-94623000D01*
X120800000Y-94656333D01*
X120666666Y-94689666D01*
X120566666Y-94689666D01*
X120433333Y-94656333D01*
X120366666Y-94623000D01*
X120300000Y-94556333D01*
X120266666Y-94456333D01*
X120266666Y-94389666D01*
X120300000Y-94289666D01*
X120333333Y-94256333D01*
X118426666Y-95506333D02*
X118093333Y-95739666D01*
X118426666Y-95906333D02*
X117726666Y-95906333D01*
X117726666Y-95639666D01*
X117760000Y-95573000D01*
X117793333Y-95539666D01*
X117860000Y-95506333D01*
X117960000Y-95506333D01*
X118026666Y-95539666D01*
X118060000Y-95573000D01*
X118093333Y-95639666D01*
X118093333Y-95906333D01*
X118393333Y-95239666D02*
X118426666Y-95139666D01*
X118426666Y-94973000D01*
X118393333Y-94906333D01*
X118360000Y-94873000D01*
X118293333Y-94839666D01*
X118226666Y-94839666D01*
X118160000Y-94873000D01*
X118126666Y-94906333D01*
X118093333Y-94973000D01*
X118060000Y-95106333D01*
X118026666Y-95173000D01*
X117993333Y-95206333D01*
X117926666Y-95239666D01*
X117860000Y-95239666D01*
X117793333Y-95206333D01*
X117760000Y-95173000D01*
X117726666Y-95106333D01*
X117726666Y-94939666D01*
X117760000Y-94839666D01*
X117726666Y-94639666D02*
X117726666Y-94239666D01*
X118426666Y-94439666D02*
X117726666Y-94439666D01*
X115220000Y-95656333D02*
X115186666Y-95723000D01*
X115186666Y-95823000D01*
X115220000Y-95923000D01*
X115286666Y-95989666D01*
X115353333Y-96023000D01*
X115486666Y-96056333D01*
X115586666Y-96056333D01*
X115720000Y-96023000D01*
X115786666Y-95989666D01*
X115853333Y-95923000D01*
X115886666Y-95823000D01*
X115886666Y-95756333D01*
X115853333Y-95656333D01*
X115820000Y-95623000D01*
X115586666Y-95623000D01*
X115586666Y-95756333D01*
X115886666Y-95323000D02*
X115186666Y-95323000D01*
X115886666Y-94923000D01*
X115186666Y-94923000D01*
X115886666Y-94589666D02*
X115186666Y-94589666D01*
X115186666Y-94423000D01*
X115220000Y-94323000D01*
X115286666Y-94256333D01*
X115353333Y-94223000D01*
X115486666Y-94189666D01*
X115586666Y-94189666D01*
X115720000Y-94223000D01*
X115786666Y-94256333D01*
X115853333Y-94323000D01*
X115886666Y-94423000D01*
X115886666Y-94589666D01*
X113600666Y-95098333D02*
X113267333Y-95331666D01*
X113600666Y-95498333D02*
X112900666Y-95498333D01*
X112900666Y-95231666D01*
X112934000Y-95165000D01*
X112967333Y-95131666D01*
X113034000Y-95098333D01*
X113134000Y-95098333D01*
X113200666Y-95131666D01*
X113234000Y-95165000D01*
X113267333Y-95231666D01*
X113267333Y-95498333D01*
X113400666Y-94831666D02*
X113400666Y-94498333D01*
X113600666Y-94898333D02*
X112900666Y-94665000D01*
X113600666Y-94431666D01*
X112900666Y-94265000D02*
X113600666Y-94098333D01*
X113100666Y-93965000D01*
X113600666Y-93831666D01*
X112900666Y-93665000D01*
G04 #@! TO.C,C1*
X143311480Y-91710397D02*
X143275765Y-91746111D01*
X143168622Y-91781825D01*
X143097194Y-91781825D01*
X142990051Y-91746111D01*
X142918622Y-91674682D01*
X142882908Y-91603254D01*
X142847194Y-91460397D01*
X142847194Y-91353254D01*
X142882908Y-91210397D01*
X142918622Y-91138968D01*
X142990051Y-91067540D01*
X143097194Y-91031825D01*
X143168622Y-91031825D01*
X143275765Y-91067540D01*
X143311480Y-91103254D01*
X144025765Y-91781825D02*
X143597194Y-91781825D01*
X143811480Y-91781825D02*
X143811480Y-91031825D01*
X143740051Y-91138968D01*
X143668622Y-91210397D01*
X143597194Y-91246111D01*
G04 #@! TO.C,C2*
X143385000Y-87199357D02*
X143349285Y-87235071D01*
X143242142Y-87270785D01*
X143170714Y-87270785D01*
X143063571Y-87235071D01*
X142992142Y-87163642D01*
X142956428Y-87092214D01*
X142920714Y-86949357D01*
X142920714Y-86842214D01*
X142956428Y-86699357D01*
X142992142Y-86627928D01*
X143063571Y-86556500D01*
X143170714Y-86520785D01*
X143242142Y-86520785D01*
X143349285Y-86556500D01*
X143385000Y-86592214D01*
X143670714Y-86592214D02*
X143706428Y-86556500D01*
X143777857Y-86520785D01*
X143956428Y-86520785D01*
X144027857Y-86556500D01*
X144063571Y-86592214D01*
X144099285Y-86663642D01*
X144099285Y-86735071D01*
X144063571Y-86842214D01*
X143635000Y-87270785D01*
X144099285Y-87270785D01*
G04 #@! TO.C,C3*
X139589397Y-93434440D02*
X139625111Y-93470154D01*
X139660825Y-93577297D01*
X139660825Y-93648725D01*
X139625111Y-93755868D01*
X139553682Y-93827297D01*
X139482254Y-93863011D01*
X139339397Y-93898725D01*
X139232254Y-93898725D01*
X139089397Y-93863011D01*
X139017968Y-93827297D01*
X138946540Y-93755868D01*
X138910825Y-93648725D01*
X138910825Y-93577297D01*
X138946540Y-93470154D01*
X138982254Y-93434440D01*
X138910825Y-93184440D02*
X138910825Y-92720154D01*
X139196540Y-92970154D01*
X139196540Y-92863011D01*
X139232254Y-92791582D01*
X139267968Y-92755868D01*
X139339397Y-92720154D01*
X139517968Y-92720154D01*
X139589397Y-92755868D01*
X139625111Y-92791582D01*
X139660825Y-92863011D01*
X139660825Y-93077297D01*
X139625111Y-93148725D01*
X139589397Y-93184440D01*
G04 #@! TO.C,C4*
X129514200Y-85535657D02*
X129478485Y-85571371D01*
X129371342Y-85607085D01*
X129299914Y-85607085D01*
X129192771Y-85571371D01*
X129121342Y-85499942D01*
X129085628Y-85428514D01*
X129049914Y-85285657D01*
X129049914Y-85178514D01*
X129085628Y-85035657D01*
X129121342Y-84964228D01*
X129192771Y-84892800D01*
X129299914Y-84857085D01*
X129371342Y-84857085D01*
X129478485Y-84892800D01*
X129514200Y-84928514D01*
X130157057Y-85107085D02*
X130157057Y-85607085D01*
X129978485Y-84821371D02*
X129799914Y-85357085D01*
X130264200Y-85357085D01*
G04 #@! TO.C,C5*
X127902857Y-89152000D02*
X127938571Y-89187714D01*
X127974285Y-89294857D01*
X127974285Y-89366285D01*
X127938571Y-89473428D01*
X127867142Y-89544857D01*
X127795714Y-89580571D01*
X127652857Y-89616285D01*
X127545714Y-89616285D01*
X127402857Y-89580571D01*
X127331428Y-89544857D01*
X127260000Y-89473428D01*
X127224285Y-89366285D01*
X127224285Y-89294857D01*
X127260000Y-89187714D01*
X127295714Y-89152000D01*
X127224285Y-88473428D02*
X127224285Y-88830571D01*
X127581428Y-88866285D01*
X127545714Y-88830571D01*
X127510000Y-88759142D01*
X127510000Y-88580571D01*
X127545714Y-88509142D01*
X127581428Y-88473428D01*
X127652857Y-88437714D01*
X127831428Y-88437714D01*
X127902857Y-88473428D01*
X127938571Y-88509142D01*
X127974285Y-88580571D01*
X127974285Y-88759142D01*
X127938571Y-88830571D01*
X127902857Y-88866285D01*
G04 #@! TO.C,C7*
X143359600Y-93003257D02*
X143323885Y-93038971D01*
X143216742Y-93074685D01*
X143145314Y-93074685D01*
X143038171Y-93038971D01*
X142966742Y-92967542D01*
X142931028Y-92896114D01*
X142895314Y-92753257D01*
X142895314Y-92646114D01*
X142931028Y-92503257D01*
X142966742Y-92431828D01*
X143038171Y-92360400D01*
X143145314Y-92324685D01*
X143216742Y-92324685D01*
X143323885Y-92360400D01*
X143359600Y-92396114D01*
X143609600Y-92324685D02*
X144109600Y-92324685D01*
X143788171Y-93074685D01*
G04 #@! TO.C,C8*
X140069457Y-89581400D02*
X140105171Y-89617114D01*
X140140885Y-89724257D01*
X140140885Y-89795685D01*
X140105171Y-89902828D01*
X140033742Y-89974257D01*
X139962314Y-90009971D01*
X139819457Y-90045685D01*
X139712314Y-90045685D01*
X139569457Y-90009971D01*
X139498028Y-89974257D01*
X139426600Y-89902828D01*
X139390885Y-89795685D01*
X139390885Y-89724257D01*
X139426600Y-89617114D01*
X139462314Y-89581400D01*
X139712314Y-89152828D02*
X139676600Y-89224257D01*
X139640885Y-89259971D01*
X139569457Y-89295685D01*
X139533742Y-89295685D01*
X139462314Y-89259971D01*
X139426600Y-89224257D01*
X139390885Y-89152828D01*
X139390885Y-89009971D01*
X139426600Y-88938542D01*
X139462314Y-88902828D01*
X139533742Y-88867114D01*
X139569457Y-88867114D01*
X139640885Y-88902828D01*
X139676600Y-88938542D01*
X139712314Y-89009971D01*
X139712314Y-89152828D01*
X139748028Y-89224257D01*
X139783742Y-89259971D01*
X139855171Y-89295685D01*
X139998028Y-89295685D01*
X140069457Y-89259971D01*
X140105171Y-89224257D01*
X140140885Y-89152828D01*
X140140885Y-89009971D01*
X140105171Y-88938542D01*
X140069457Y-88902828D01*
X139998028Y-88867114D01*
X139855171Y-88867114D01*
X139783742Y-88902828D01*
X139748028Y-88938542D01*
X139712314Y-89009971D01*
G04 #@! TO.C,C11*
X124341777Y-85087142D02*
X124377491Y-85122857D01*
X124413205Y-85230000D01*
X124413205Y-85301428D01*
X124377491Y-85408571D01*
X124306062Y-85480000D01*
X124234634Y-85515714D01*
X124091777Y-85551428D01*
X123984634Y-85551428D01*
X123841777Y-85515714D01*
X123770348Y-85480000D01*
X123698920Y-85408571D01*
X123663205Y-85301428D01*
X123663205Y-85230000D01*
X123698920Y-85122857D01*
X123734634Y-85087142D01*
X124413205Y-84372857D02*
X124413205Y-84801428D01*
X124413205Y-84587142D02*
X123663205Y-84587142D01*
X123770348Y-84658571D01*
X123841777Y-84730000D01*
X123877491Y-84801428D01*
X124413205Y-83658571D02*
X124413205Y-84087142D01*
X124413205Y-83872857D02*
X123663205Y-83872857D01*
X123770348Y-83944285D01*
X123841777Y-84015714D01*
X123877491Y-84087142D01*
G04 #@! TO.C,C12*
X125421277Y-89496442D02*
X125456991Y-89532157D01*
X125492705Y-89639300D01*
X125492705Y-89710728D01*
X125456991Y-89817871D01*
X125385562Y-89889300D01*
X125314134Y-89925014D01*
X125171277Y-89960728D01*
X125064134Y-89960728D01*
X124921277Y-89925014D01*
X124849848Y-89889300D01*
X124778420Y-89817871D01*
X124742705Y-89710728D01*
X124742705Y-89639300D01*
X124778420Y-89532157D01*
X124814134Y-89496442D01*
X125492705Y-88782157D02*
X125492705Y-89210728D01*
X125492705Y-88996442D02*
X124742705Y-88996442D01*
X124849848Y-89067871D01*
X124921277Y-89139300D01*
X124956991Y-89210728D01*
X124814134Y-88496442D02*
X124778420Y-88460728D01*
X124742705Y-88389300D01*
X124742705Y-88210728D01*
X124778420Y-88139300D01*
X124814134Y-88103585D01*
X124885562Y-88067871D01*
X124956991Y-88067871D01*
X125064134Y-88103585D01*
X125492705Y-88532157D01*
X125492705Y-88067871D01*
G04 #@! TO.C,L1*
X143385000Y-94954285D02*
X143027857Y-94954285D01*
X143027857Y-94204285D01*
X144027857Y-94954285D02*
X143599285Y-94954285D01*
X143813571Y-94954285D02*
X143813571Y-94204285D01*
X143742142Y-94311428D01*
X143670714Y-94382857D01*
X143599285Y-94418571D01*
G04 #@! TO.C,Y1*
X143493322Y-89467962D02*
X143850465Y-89467962D01*
X143100465Y-89717962D02*
X143493322Y-89467962D01*
X143100465Y-89217962D01*
X143850465Y-88575105D02*
X143850465Y-89003677D01*
X143850465Y-88789391D02*
X143100465Y-88789391D01*
X143207608Y-88860820D01*
X143279037Y-88932248D01*
X143314751Y-89003677D01*
G04 #@! TO.C,Y2*
X128696642Y-86661595D02*
X129053785Y-86661595D01*
X128303785Y-86828261D02*
X128696642Y-86661595D01*
X128303785Y-86494928D01*
X128375214Y-86352071D02*
X128339500Y-86328261D01*
X128303785Y-86280642D01*
X128303785Y-86161595D01*
X128339500Y-86113976D01*
X128375214Y-86090166D01*
X128446642Y-86066357D01*
X128518071Y-86066357D01*
X128625214Y-86090166D01*
X129053785Y-86375880D01*
X129053785Y-86066357D01*
G04 #@! TO.C,U3*
X127287785Y-93979928D02*
X127894928Y-93979928D01*
X127966357Y-93944214D01*
X128002071Y-93908500D01*
X128037785Y-93837071D01*
X128037785Y-93694214D01*
X128002071Y-93622785D01*
X127966357Y-93587071D01*
X127894928Y-93551357D01*
X127287785Y-93551357D01*
X127287785Y-93265642D02*
X127287785Y-92801357D01*
X127573500Y-93051357D01*
X127573500Y-92944214D01*
X127609214Y-92872785D01*
X127644928Y-92837071D01*
X127716357Y-92801357D01*
X127894928Y-92801357D01*
X127966357Y-92837071D01*
X128002071Y-92872785D01*
X128037785Y-92944214D01*
X128037785Y-93158500D01*
X128002071Y-93229928D01*
X127966357Y-93265642D01*
G04 #@! TO.C,C13*
X143345357Y-84595857D02*
X143309642Y-84631571D01*
X143202500Y-84667285D01*
X143131071Y-84667285D01*
X143023928Y-84631571D01*
X142952500Y-84560142D01*
X142916785Y-84488714D01*
X142881071Y-84345857D01*
X142881071Y-84238714D01*
X142916785Y-84095857D01*
X142952500Y-84024428D01*
X143023928Y-83953000D01*
X143131071Y-83917285D01*
X143202500Y-83917285D01*
X143309642Y-83953000D01*
X143345357Y-83988714D01*
X144059642Y-84667285D02*
X143631071Y-84667285D01*
X143845357Y-84667285D02*
X143845357Y-83917285D01*
X143773928Y-84024428D01*
X143702500Y-84095857D01*
X143631071Y-84131571D01*
X144309642Y-83917285D02*
X144773928Y-83917285D01*
X144523928Y-84203000D01*
X144631071Y-84203000D01*
X144702500Y-84238714D01*
X144738214Y-84274428D01*
X144773928Y-84345857D01*
X144773928Y-84524428D01*
X144738214Y-84595857D01*
X144702500Y-84631571D01*
X144631071Y-84667285D01*
X144416785Y-84667285D01*
X144345357Y-84631571D01*
X144309642Y-84595857D01*
G04 #@! TO.C,R1*
X139130500Y-85683285D02*
X138880500Y-85326142D01*
X138701928Y-85683285D02*
X138701928Y-84933285D01*
X138987642Y-84933285D01*
X139059071Y-84969000D01*
X139094785Y-85004714D01*
X139130500Y-85076142D01*
X139130500Y-85183285D01*
X139094785Y-85254714D01*
X139059071Y-85290428D01*
X138987642Y-85326142D01*
X138701928Y-85326142D01*
X139844785Y-85683285D02*
X139416214Y-85683285D01*
X139630500Y-85683285D02*
X139630500Y-84933285D01*
X139559071Y-85040428D01*
X139487642Y-85111857D01*
X139416214Y-85147571D01*
G04 #@! TO.C,R2*
X143448500Y-85937285D02*
X143198500Y-85580142D01*
X143019928Y-85937285D02*
X143019928Y-85187285D01*
X143305642Y-85187285D01*
X143377071Y-85223000D01*
X143412785Y-85258714D01*
X143448500Y-85330142D01*
X143448500Y-85437285D01*
X143412785Y-85508714D01*
X143377071Y-85544428D01*
X143305642Y-85580142D01*
X143019928Y-85580142D01*
X143734214Y-85258714D02*
X143769928Y-85223000D01*
X143841357Y-85187285D01*
X144019928Y-85187285D01*
X144091357Y-85223000D01*
X144127071Y-85258714D01*
X144162785Y-85330142D01*
X144162785Y-85401571D01*
X144127071Y-85508714D01*
X143698500Y-85937285D01*
X144162785Y-85937285D01*
G04 #@! TO.C,R3*
X130621500Y-94573285D02*
X130371500Y-94216142D01*
X130192928Y-94573285D02*
X130192928Y-93823285D01*
X130478642Y-93823285D01*
X130550071Y-93859000D01*
X130585785Y-93894714D01*
X130621500Y-93966142D01*
X130621500Y-94073285D01*
X130585785Y-94144714D01*
X130550071Y-94180428D01*
X130478642Y-94216142D01*
X130192928Y-94216142D01*
X130871500Y-93823285D02*
X131335785Y-93823285D01*
X131085785Y-94109000D01*
X131192928Y-94109000D01*
X131264357Y-94144714D01*
X131300071Y-94180428D01*
X131335785Y-94251857D01*
X131335785Y-94430428D01*
X131300071Y-94501857D01*
X131264357Y-94537571D01*
X131192928Y-94573285D01*
X130978642Y-94573285D01*
X130907214Y-94537571D01*
X130871500Y-94501857D01*
G04 #@! TO.C,C14*
X116103857Y-95136857D02*
X116068142Y-95172571D01*
X115961000Y-95208285D01*
X115889571Y-95208285D01*
X115782428Y-95172571D01*
X115711000Y-95101142D01*
X115675285Y-95029714D01*
X115639571Y-94886857D01*
X115639571Y-94779714D01*
X115675285Y-94636857D01*
X115711000Y-94565428D01*
X115782428Y-94494000D01*
X115889571Y-94458285D01*
X115961000Y-94458285D01*
X116068142Y-94494000D01*
X116103857Y-94529714D01*
X116818142Y-95208285D02*
X116389571Y-95208285D01*
X116603857Y-95208285D02*
X116603857Y-94458285D01*
X116532428Y-94565428D01*
X116461000Y-94636857D01*
X116389571Y-94672571D01*
X117461000Y-94708285D02*
X117461000Y-95208285D01*
X117282428Y-94422571D02*
X117103857Y-94958285D01*
X117568142Y-94958285D01*
G04 #@! TO.C,C15*
X121691857Y-85230857D02*
X121656142Y-85266571D01*
X121549000Y-85302285D01*
X121477571Y-85302285D01*
X121370428Y-85266571D01*
X121299000Y-85195142D01*
X121263285Y-85123714D01*
X121227571Y-84980857D01*
X121227571Y-84873714D01*
X121263285Y-84730857D01*
X121299000Y-84659428D01*
X121370428Y-84588000D01*
X121477571Y-84552285D01*
X121549000Y-84552285D01*
X121656142Y-84588000D01*
X121691857Y-84623714D01*
X122406142Y-85302285D02*
X121977571Y-85302285D01*
X122191857Y-85302285D02*
X122191857Y-84552285D01*
X122120428Y-84659428D01*
X122049000Y-84730857D01*
X121977571Y-84766571D01*
X123084714Y-84552285D02*
X122727571Y-84552285D01*
X122691857Y-84909428D01*
X122727571Y-84873714D01*
X122799000Y-84838000D01*
X122977571Y-84838000D01*
X123049000Y-84873714D01*
X123084714Y-84909428D01*
X123120428Y-84980857D01*
X123120428Y-85159428D01*
X123084714Y-85230857D01*
X123049000Y-85266571D01*
X122977571Y-85302285D01*
X122799000Y-85302285D01*
X122727571Y-85266571D01*
X122691857Y-85230857D01*
G04 #@! TO.C,D1*
X112984428Y-85683285D02*
X112984428Y-84933285D01*
X113163000Y-84933285D01*
X113270142Y-84969000D01*
X113341571Y-85040428D01*
X113377285Y-85111857D01*
X113413000Y-85254714D01*
X113413000Y-85361857D01*
X113377285Y-85504714D01*
X113341571Y-85576142D01*
X113270142Y-85647571D01*
X113163000Y-85683285D01*
X112984428Y-85683285D01*
X114127285Y-85683285D02*
X113698714Y-85683285D01*
X113913000Y-85683285D02*
X113913000Y-84933285D01*
X113841571Y-85040428D01*
X113770142Y-85111857D01*
X113698714Y-85147571D01*
G04 #@! TO.C,R4*
X116143500Y-85429285D02*
X115893500Y-85072142D01*
X115714928Y-85429285D02*
X115714928Y-84679285D01*
X116000642Y-84679285D01*
X116072071Y-84715000D01*
X116107785Y-84750714D01*
X116143500Y-84822142D01*
X116143500Y-84929285D01*
X116107785Y-85000714D01*
X116072071Y-85036428D01*
X116000642Y-85072142D01*
X115714928Y-85072142D01*
X116786357Y-84929285D02*
X116786357Y-85429285D01*
X116607785Y-84643571D02*
X116429214Y-85179285D01*
X116893500Y-85179285D01*
G04 #@! TO.C,R5*
X117985000Y-85302285D02*
X117735000Y-84945142D01*
X117556428Y-85302285D02*
X117556428Y-84552285D01*
X117842142Y-84552285D01*
X117913571Y-84588000D01*
X117949285Y-84623714D01*
X117985000Y-84695142D01*
X117985000Y-84802285D01*
X117949285Y-84873714D01*
X117913571Y-84909428D01*
X117842142Y-84945142D01*
X117556428Y-84945142D01*
X118663571Y-84552285D02*
X118306428Y-84552285D01*
X118270714Y-84909428D01*
X118306428Y-84873714D01*
X118377857Y-84838000D01*
X118556428Y-84838000D01*
X118627857Y-84873714D01*
X118663571Y-84909428D01*
X118699285Y-84980857D01*
X118699285Y-85159428D01*
X118663571Y-85230857D01*
X118627857Y-85266571D01*
X118556428Y-85302285D01*
X118377857Y-85302285D01*
X118306428Y-85266571D01*
X118270714Y-85230857D01*
G04 #@! TO.C,R6*
X122894285Y-93025500D02*
X122537142Y-93275500D01*
X122894285Y-93454071D02*
X122144285Y-93454071D01*
X122144285Y-93168357D01*
X122180000Y-93096928D01*
X122215714Y-93061214D01*
X122287142Y-93025500D01*
X122394285Y-93025500D01*
X122465714Y-93061214D01*
X122501428Y-93096928D01*
X122537142Y-93168357D01*
X122537142Y-93454071D01*
X122144285Y-92382642D02*
X122144285Y-92525500D01*
X122180000Y-92596928D01*
X122215714Y-92632642D01*
X122322857Y-92704071D01*
X122465714Y-92739785D01*
X122751428Y-92739785D01*
X122822857Y-92704071D01*
X122858571Y-92668357D01*
X122894285Y-92596928D01*
X122894285Y-92454071D01*
X122858571Y-92382642D01*
X122822857Y-92346928D01*
X122751428Y-92311214D01*
X122572857Y-92311214D01*
X122501428Y-92346928D01*
X122465714Y-92382642D01*
X122430000Y-92454071D01*
X122430000Y-92596928D01*
X122465714Y-92668357D01*
X122501428Y-92704071D01*
X122572857Y-92739785D01*
G04 #@! TO.C,U4*
X119570571Y-93632785D02*
X119570571Y-94239928D01*
X119606285Y-94311357D01*
X119642000Y-94347071D01*
X119713428Y-94382785D01*
X119856285Y-94382785D01*
X119927714Y-94347071D01*
X119963428Y-94311357D01*
X119999142Y-94239928D01*
X119999142Y-93632785D01*
X120677714Y-93882785D02*
X120677714Y-94382785D01*
X120499142Y-93597071D02*
X120320571Y-94132785D01*
X120784857Y-94132785D01*
G04 #@! TO.C,C6*
X126632857Y-89152000D02*
X126668571Y-89187714D01*
X126704285Y-89294857D01*
X126704285Y-89366285D01*
X126668571Y-89473428D01*
X126597142Y-89544857D01*
X126525714Y-89580571D01*
X126382857Y-89616285D01*
X126275714Y-89616285D01*
X126132857Y-89580571D01*
X126061428Y-89544857D01*
X125990000Y-89473428D01*
X125954285Y-89366285D01*
X125954285Y-89294857D01*
X125990000Y-89187714D01*
X126025714Y-89152000D01*
X125954285Y-88509142D02*
X125954285Y-88652000D01*
X125990000Y-88723428D01*
X126025714Y-88759142D01*
X126132857Y-88830571D01*
X126275714Y-88866285D01*
X126561428Y-88866285D01*
X126632857Y-88830571D01*
X126668571Y-88794857D01*
X126704285Y-88723428D01*
X126704285Y-88580571D01*
X126668571Y-88509142D01*
X126632857Y-88473428D01*
X126561428Y-88437714D01*
X126382857Y-88437714D01*
X126311428Y-88473428D01*
X126275714Y-88509142D01*
X126240000Y-88580571D01*
X126240000Y-88723428D01*
X126275714Y-88794857D01*
X126311428Y-88830571D01*
X126382857Y-88866285D01*
G04 #@! TO.C,C9*
X132018500Y-85611857D02*
X131982785Y-85647571D01*
X131875642Y-85683285D01*
X131804214Y-85683285D01*
X131697071Y-85647571D01*
X131625642Y-85576142D01*
X131589928Y-85504714D01*
X131554214Y-85361857D01*
X131554214Y-85254714D01*
X131589928Y-85111857D01*
X131625642Y-85040428D01*
X131697071Y-84969000D01*
X131804214Y-84933285D01*
X131875642Y-84933285D01*
X131982785Y-84969000D01*
X132018500Y-85004714D01*
X132375642Y-85683285D02*
X132518500Y-85683285D01*
X132589928Y-85647571D01*
X132625642Y-85611857D01*
X132697071Y-85504714D01*
X132732785Y-85361857D01*
X132732785Y-85076142D01*
X132697071Y-85004714D01*
X132661357Y-84969000D01*
X132589928Y-84933285D01*
X132447071Y-84933285D01*
X132375642Y-84969000D01*
X132339928Y-85004714D01*
X132304214Y-85076142D01*
X132304214Y-85254714D01*
X132339928Y-85326142D01*
X132375642Y-85361857D01*
X132447071Y-85397571D01*
X132589928Y-85397571D01*
X132661357Y-85361857D01*
X132697071Y-85326142D01*
X132732785Y-85254714D01*
G04 #@! TO.C,C10*
X136233357Y-85611857D02*
X136197642Y-85647571D01*
X136090500Y-85683285D01*
X136019071Y-85683285D01*
X135911928Y-85647571D01*
X135840500Y-85576142D01*
X135804785Y-85504714D01*
X135769071Y-85361857D01*
X135769071Y-85254714D01*
X135804785Y-85111857D01*
X135840500Y-85040428D01*
X135911928Y-84969000D01*
X136019071Y-84933285D01*
X136090500Y-84933285D01*
X136197642Y-84969000D01*
X136233357Y-85004714D01*
X136947642Y-85683285D02*
X136519071Y-85683285D01*
X136733357Y-85683285D02*
X136733357Y-84933285D01*
X136661928Y-85040428D01*
X136590500Y-85111857D01*
X136519071Y-85147571D01*
X137411928Y-84933285D02*
X137483357Y-84933285D01*
X137554785Y-84969000D01*
X137590500Y-85004714D01*
X137626214Y-85076142D01*
X137661928Y-85219000D01*
X137661928Y-85397571D01*
X137626214Y-85540428D01*
X137590500Y-85611857D01*
X137554785Y-85647571D01*
X137483357Y-85683285D01*
X137411928Y-85683285D01*
X137340500Y-85647571D01*
X137304785Y-85611857D01*
X137269071Y-85540428D01*
X137233357Y-85397571D01*
X137233357Y-85219000D01*
X137269071Y-85076142D01*
X137304785Y-85004714D01*
X137340500Y-84969000D01*
X137411928Y-84933285D01*
G04 #@! TO.C,D2*
X124799285Y-92374571D02*
X124049285Y-92374571D01*
X124049285Y-92196000D01*
X124085000Y-92088857D01*
X124156428Y-92017428D01*
X124227857Y-91981714D01*
X124370714Y-91946000D01*
X124477857Y-91946000D01*
X124620714Y-91981714D01*
X124692142Y-92017428D01*
X124763571Y-92088857D01*
X124799285Y-92196000D01*
X124799285Y-92374571D01*
X124120714Y-91660285D02*
X124085000Y-91624571D01*
X124049285Y-91553142D01*
X124049285Y-91374571D01*
X124085000Y-91303142D01*
X124120714Y-91267428D01*
X124192142Y-91231714D01*
X124263571Y-91231714D01*
X124370714Y-91267428D01*
X124799285Y-91696000D01*
X124799285Y-91231714D01*
G04 #@! TO.C,C16*
X117361857Y-89509142D02*
X117397571Y-89544857D01*
X117433285Y-89652000D01*
X117433285Y-89723428D01*
X117397571Y-89830571D01*
X117326142Y-89902000D01*
X117254714Y-89937714D01*
X117111857Y-89973428D01*
X117004714Y-89973428D01*
X116861857Y-89937714D01*
X116790428Y-89902000D01*
X116719000Y-89830571D01*
X116683285Y-89723428D01*
X116683285Y-89652000D01*
X116719000Y-89544857D01*
X116754714Y-89509142D01*
X117433285Y-88794857D02*
X117433285Y-89223428D01*
X117433285Y-89009142D02*
X116683285Y-89009142D01*
X116790428Y-89080571D01*
X116861857Y-89152000D01*
X116897571Y-89223428D01*
X116683285Y-88152000D02*
X116683285Y-88294857D01*
X116719000Y-88366285D01*
X116754714Y-88402000D01*
X116861857Y-88473428D01*
X117004714Y-88509142D01*
X117290428Y-88509142D01*
X117361857Y-88473428D01*
X117397571Y-88437714D01*
X117433285Y-88366285D01*
X117433285Y-88223428D01*
X117397571Y-88152000D01*
X117361857Y-88116285D01*
X117290428Y-88080571D01*
X117111857Y-88080571D01*
X117040428Y-88116285D01*
X117004714Y-88152000D01*
X116969000Y-88223428D01*
X116969000Y-88366285D01*
X117004714Y-88437714D01*
X117040428Y-88473428D01*
X117111857Y-88509142D01*
G04 #@! TO.C,C17*
X124219857Y-89445642D02*
X124255571Y-89481357D01*
X124291285Y-89588500D01*
X124291285Y-89659928D01*
X124255571Y-89767071D01*
X124184142Y-89838500D01*
X124112714Y-89874214D01*
X123969857Y-89909928D01*
X123862714Y-89909928D01*
X123719857Y-89874214D01*
X123648428Y-89838500D01*
X123577000Y-89767071D01*
X123541285Y-89659928D01*
X123541285Y-89588500D01*
X123577000Y-89481357D01*
X123612714Y-89445642D01*
X124291285Y-88731357D02*
X124291285Y-89159928D01*
X124291285Y-88945642D02*
X123541285Y-88945642D01*
X123648428Y-89017071D01*
X123719857Y-89088500D01*
X123755571Y-89159928D01*
X123541285Y-88481357D02*
X123541285Y-87981357D01*
X124291285Y-88302785D01*
G04 #@! TO.C,C18*
X116929357Y-86754857D02*
X116893642Y-86790571D01*
X116786500Y-86826285D01*
X116715071Y-86826285D01*
X116607928Y-86790571D01*
X116536500Y-86719142D01*
X116500785Y-86647714D01*
X116465071Y-86504857D01*
X116465071Y-86397714D01*
X116500785Y-86254857D01*
X116536500Y-86183428D01*
X116607928Y-86112000D01*
X116715071Y-86076285D01*
X116786500Y-86076285D01*
X116893642Y-86112000D01*
X116929357Y-86147714D01*
X117643642Y-86826285D02*
X117215071Y-86826285D01*
X117429357Y-86826285D02*
X117429357Y-86076285D01*
X117357928Y-86183428D01*
X117286500Y-86254857D01*
X117215071Y-86290571D01*
X118072214Y-86397714D02*
X118000785Y-86362000D01*
X117965071Y-86326285D01*
X117929357Y-86254857D01*
X117929357Y-86219142D01*
X117965071Y-86147714D01*
X118000785Y-86112000D01*
X118072214Y-86076285D01*
X118215071Y-86076285D01*
X118286500Y-86112000D01*
X118322214Y-86147714D01*
X118357928Y-86219142D01*
X118357928Y-86254857D01*
X118322214Y-86326285D01*
X118286500Y-86362000D01*
X118215071Y-86397714D01*
X118072214Y-86397714D01*
X118000785Y-86433428D01*
X117965071Y-86469142D01*
X117929357Y-86540571D01*
X117929357Y-86683428D01*
X117965071Y-86754857D01*
X118000785Y-86790571D01*
X118072214Y-86826285D01*
X118215071Y-86826285D01*
X118286500Y-86790571D01*
X118322214Y-86754857D01*
X118357928Y-86683428D01*
X118357928Y-86540571D01*
X118322214Y-86469142D01*
X118286500Y-86433428D01*
X118215071Y-86397714D01*
G04 #@! TO.C,R7*
X122430000Y-86826285D02*
X122180000Y-86469142D01*
X122001428Y-86826285D02*
X122001428Y-86076285D01*
X122287142Y-86076285D01*
X122358571Y-86112000D01*
X122394285Y-86147714D01*
X122430000Y-86219142D01*
X122430000Y-86326285D01*
X122394285Y-86397714D01*
X122358571Y-86433428D01*
X122287142Y-86469142D01*
X122001428Y-86469142D01*
X122680000Y-86076285D02*
X123180000Y-86076285D01*
X122858571Y-86826285D01*
G04 #@! TO.C,Q1*
D14*
X126607619Y-94710238D02*
X126560000Y-94805476D01*
X126464761Y-94900714D01*
X126321904Y-95043571D01*
X126274285Y-95138809D01*
X126274285Y-95234047D01*
X126512380Y-95186428D02*
X126464761Y-95281666D01*
X126369523Y-95376904D01*
X126179047Y-95424523D01*
X125845714Y-95424523D01*
X125655238Y-95376904D01*
X125560000Y-95281666D01*
X125512380Y-95186428D01*
X125512380Y-94995952D01*
X125560000Y-94900714D01*
X125655238Y-94805476D01*
X125845714Y-94757857D01*
X126179047Y-94757857D01*
X126369523Y-94805476D01*
X126464761Y-94900714D01*
X126512380Y-94995952D01*
X126512380Y-95186428D01*
X126512380Y-93805476D02*
X126512380Y-94376904D01*
X126512380Y-94091190D02*
X125512380Y-94091190D01*
X125655238Y-94186428D01*
X125750476Y-94281666D01*
X125798095Y-94376904D01*
G04 #@! TD*
M02*
