G04 #@! TF.GenerationSoftware,KiCad,Pcbnew,(5.0.0)*
G04 #@! TF.CreationDate,2018-11-30T17:01:22-06:00*
G04 #@! TF.ProjectId,NRF52832 Base,4E5246353238333220426173652E6B69,rev?*
G04 #@! TF.SameCoordinates,Original*
G04 #@! TF.FileFunction,Paste,Top*
G04 #@! TF.FilePolarity,Positive*
%FSLAX46Y46*%
G04 Gerber Fmt 4.6, Leading zero omitted, Abs format (unit mm)*
G04 Created by KiCad (PCBNEW (5.0.0)) date 11/30/18 17:01:22*
%MOMM*%
%LPD*%
G01*
G04 APERTURE LIST*
%ADD10R,0.500000X0.900000*%
%ADD11R,0.500000X0.500000*%
%ADD12C,0.100000*%
%ADD13C,0.590000*%
%ADD14R,0.800000X0.900000*%
%ADD15R,1.800000X1.000000*%
%ADD16C,0.200000*%
%ADD17C,1.080000*%
%ADD18R,0.650000X1.060000*%
%ADD19C,0.875000*%
%ADD20R,1.900000X1.500000*%
%ADD21R,1.350000X0.400000*%
%ADD22R,1.060000X0.650000*%
%ADD23R,0.450000X0.600000*%
%ADD24C,1.050000*%
%ADD25C,0.250000*%
%ADD26R,0.700000X0.400000*%
%ADD27R,0.250000X0.400000*%
G04 APERTURE END LIST*
D10*
G04 #@! TO.C,AE1*
X144500000Y-96715000D03*
D11*
X144500000Y-94615000D03*
G04 #@! TD*
D12*
G04 #@! TO.C,C1*
G36*
X141431958Y-91120710D02*
X141446276Y-91122834D01*
X141460317Y-91126351D01*
X141473946Y-91131228D01*
X141487031Y-91137417D01*
X141499447Y-91144858D01*
X141511073Y-91153481D01*
X141521798Y-91163202D01*
X141531519Y-91173927D01*
X141540142Y-91185553D01*
X141547583Y-91197969D01*
X141553772Y-91211054D01*
X141558649Y-91224683D01*
X141562166Y-91238724D01*
X141564290Y-91253042D01*
X141565000Y-91267500D01*
X141565000Y-91612500D01*
X141564290Y-91626958D01*
X141562166Y-91641276D01*
X141558649Y-91655317D01*
X141553772Y-91668946D01*
X141547583Y-91682031D01*
X141540142Y-91694447D01*
X141531519Y-91706073D01*
X141521798Y-91716798D01*
X141511073Y-91726519D01*
X141499447Y-91735142D01*
X141487031Y-91742583D01*
X141473946Y-91748772D01*
X141460317Y-91753649D01*
X141446276Y-91757166D01*
X141431958Y-91759290D01*
X141417500Y-91760000D01*
X141122500Y-91760000D01*
X141108042Y-91759290D01*
X141093724Y-91757166D01*
X141079683Y-91753649D01*
X141066054Y-91748772D01*
X141052969Y-91742583D01*
X141040553Y-91735142D01*
X141028927Y-91726519D01*
X141018202Y-91716798D01*
X141008481Y-91706073D01*
X140999858Y-91694447D01*
X140992417Y-91682031D01*
X140986228Y-91668946D01*
X140981351Y-91655317D01*
X140977834Y-91641276D01*
X140975710Y-91626958D01*
X140975000Y-91612500D01*
X140975000Y-91267500D01*
X140975710Y-91253042D01*
X140977834Y-91238724D01*
X140981351Y-91224683D01*
X140986228Y-91211054D01*
X140992417Y-91197969D01*
X140999858Y-91185553D01*
X141008481Y-91173927D01*
X141018202Y-91163202D01*
X141028927Y-91153481D01*
X141040553Y-91144858D01*
X141052969Y-91137417D01*
X141066054Y-91131228D01*
X141079683Y-91126351D01*
X141093724Y-91122834D01*
X141108042Y-91120710D01*
X141122500Y-91120000D01*
X141417500Y-91120000D01*
X141431958Y-91120710D01*
X141431958Y-91120710D01*
G37*
D13*
X141270000Y-91440000D03*
D12*
G36*
X142401958Y-91120710D02*
X142416276Y-91122834D01*
X142430317Y-91126351D01*
X142443946Y-91131228D01*
X142457031Y-91137417D01*
X142469447Y-91144858D01*
X142481073Y-91153481D01*
X142491798Y-91163202D01*
X142501519Y-91173927D01*
X142510142Y-91185553D01*
X142517583Y-91197969D01*
X142523772Y-91211054D01*
X142528649Y-91224683D01*
X142532166Y-91238724D01*
X142534290Y-91253042D01*
X142535000Y-91267500D01*
X142535000Y-91612500D01*
X142534290Y-91626958D01*
X142532166Y-91641276D01*
X142528649Y-91655317D01*
X142523772Y-91668946D01*
X142517583Y-91682031D01*
X142510142Y-91694447D01*
X142501519Y-91706073D01*
X142491798Y-91716798D01*
X142481073Y-91726519D01*
X142469447Y-91735142D01*
X142457031Y-91742583D01*
X142443946Y-91748772D01*
X142430317Y-91753649D01*
X142416276Y-91757166D01*
X142401958Y-91759290D01*
X142387500Y-91760000D01*
X142092500Y-91760000D01*
X142078042Y-91759290D01*
X142063724Y-91757166D01*
X142049683Y-91753649D01*
X142036054Y-91748772D01*
X142022969Y-91742583D01*
X142010553Y-91735142D01*
X141998927Y-91726519D01*
X141988202Y-91716798D01*
X141978481Y-91706073D01*
X141969858Y-91694447D01*
X141962417Y-91682031D01*
X141956228Y-91668946D01*
X141951351Y-91655317D01*
X141947834Y-91641276D01*
X141945710Y-91626958D01*
X141945000Y-91612500D01*
X141945000Y-91267500D01*
X141945710Y-91253042D01*
X141947834Y-91238724D01*
X141951351Y-91224683D01*
X141956228Y-91211054D01*
X141962417Y-91197969D01*
X141969858Y-91185553D01*
X141978481Y-91173927D01*
X141988202Y-91163202D01*
X141998927Y-91153481D01*
X142010553Y-91144858D01*
X142022969Y-91137417D01*
X142036054Y-91131228D01*
X142049683Y-91126351D01*
X142063724Y-91122834D01*
X142078042Y-91120710D01*
X142092500Y-91120000D01*
X142387500Y-91120000D01*
X142401958Y-91120710D01*
X142401958Y-91120710D01*
G37*
D13*
X142240000Y-91440000D03*
G04 #@! TD*
D12*
G04 #@! TO.C,C2*
G36*
X142401958Y-86548710D02*
X142416276Y-86550834D01*
X142430317Y-86554351D01*
X142443946Y-86559228D01*
X142457031Y-86565417D01*
X142469447Y-86572858D01*
X142481073Y-86581481D01*
X142491798Y-86591202D01*
X142501519Y-86601927D01*
X142510142Y-86613553D01*
X142517583Y-86625969D01*
X142523772Y-86639054D01*
X142528649Y-86652683D01*
X142532166Y-86666724D01*
X142534290Y-86681042D01*
X142535000Y-86695500D01*
X142535000Y-87040500D01*
X142534290Y-87054958D01*
X142532166Y-87069276D01*
X142528649Y-87083317D01*
X142523772Y-87096946D01*
X142517583Y-87110031D01*
X142510142Y-87122447D01*
X142501519Y-87134073D01*
X142491798Y-87144798D01*
X142481073Y-87154519D01*
X142469447Y-87163142D01*
X142457031Y-87170583D01*
X142443946Y-87176772D01*
X142430317Y-87181649D01*
X142416276Y-87185166D01*
X142401958Y-87187290D01*
X142387500Y-87188000D01*
X142092500Y-87188000D01*
X142078042Y-87187290D01*
X142063724Y-87185166D01*
X142049683Y-87181649D01*
X142036054Y-87176772D01*
X142022969Y-87170583D01*
X142010553Y-87163142D01*
X141998927Y-87154519D01*
X141988202Y-87144798D01*
X141978481Y-87134073D01*
X141969858Y-87122447D01*
X141962417Y-87110031D01*
X141956228Y-87096946D01*
X141951351Y-87083317D01*
X141947834Y-87069276D01*
X141945710Y-87054958D01*
X141945000Y-87040500D01*
X141945000Y-86695500D01*
X141945710Y-86681042D01*
X141947834Y-86666724D01*
X141951351Y-86652683D01*
X141956228Y-86639054D01*
X141962417Y-86625969D01*
X141969858Y-86613553D01*
X141978481Y-86601927D01*
X141988202Y-86591202D01*
X141998927Y-86581481D01*
X142010553Y-86572858D01*
X142022969Y-86565417D01*
X142036054Y-86559228D01*
X142049683Y-86554351D01*
X142063724Y-86550834D01*
X142078042Y-86548710D01*
X142092500Y-86548000D01*
X142387500Y-86548000D01*
X142401958Y-86548710D01*
X142401958Y-86548710D01*
G37*
D13*
X142240000Y-86868000D03*
D12*
G36*
X141431958Y-86548710D02*
X141446276Y-86550834D01*
X141460317Y-86554351D01*
X141473946Y-86559228D01*
X141487031Y-86565417D01*
X141499447Y-86572858D01*
X141511073Y-86581481D01*
X141521798Y-86591202D01*
X141531519Y-86601927D01*
X141540142Y-86613553D01*
X141547583Y-86625969D01*
X141553772Y-86639054D01*
X141558649Y-86652683D01*
X141562166Y-86666724D01*
X141564290Y-86681042D01*
X141565000Y-86695500D01*
X141565000Y-87040500D01*
X141564290Y-87054958D01*
X141562166Y-87069276D01*
X141558649Y-87083317D01*
X141553772Y-87096946D01*
X141547583Y-87110031D01*
X141540142Y-87122447D01*
X141531519Y-87134073D01*
X141521798Y-87144798D01*
X141511073Y-87154519D01*
X141499447Y-87163142D01*
X141487031Y-87170583D01*
X141473946Y-87176772D01*
X141460317Y-87181649D01*
X141446276Y-87185166D01*
X141431958Y-87187290D01*
X141417500Y-87188000D01*
X141122500Y-87188000D01*
X141108042Y-87187290D01*
X141093724Y-87185166D01*
X141079683Y-87181649D01*
X141066054Y-87176772D01*
X141052969Y-87170583D01*
X141040553Y-87163142D01*
X141028927Y-87154519D01*
X141018202Y-87144798D01*
X141008481Y-87134073D01*
X140999858Y-87122447D01*
X140992417Y-87110031D01*
X140986228Y-87096946D01*
X140981351Y-87083317D01*
X140977834Y-87069276D01*
X140975710Y-87054958D01*
X140975000Y-87040500D01*
X140975000Y-86695500D01*
X140975710Y-86681042D01*
X140977834Y-86666724D01*
X140981351Y-86652683D01*
X140986228Y-86639054D01*
X140992417Y-86625969D01*
X140999858Y-86613553D01*
X141008481Y-86601927D01*
X141018202Y-86591202D01*
X141028927Y-86581481D01*
X141040553Y-86572858D01*
X141052969Y-86565417D01*
X141066054Y-86559228D01*
X141079683Y-86554351D01*
X141093724Y-86550834D01*
X141108042Y-86548710D01*
X141122500Y-86548000D01*
X141417500Y-86548000D01*
X141431958Y-86548710D01*
X141431958Y-86548710D01*
G37*
D13*
X141270000Y-86868000D03*
G04 #@! TD*
D12*
G04 #@! TO.C,C3*
G36*
X138489958Y-92565710D02*
X138504276Y-92567834D01*
X138518317Y-92571351D01*
X138531946Y-92576228D01*
X138545031Y-92582417D01*
X138557447Y-92589858D01*
X138569073Y-92598481D01*
X138579798Y-92608202D01*
X138589519Y-92618927D01*
X138598142Y-92630553D01*
X138605583Y-92642969D01*
X138611772Y-92656054D01*
X138616649Y-92669683D01*
X138620166Y-92683724D01*
X138622290Y-92698042D01*
X138623000Y-92712500D01*
X138623000Y-93007500D01*
X138622290Y-93021958D01*
X138620166Y-93036276D01*
X138616649Y-93050317D01*
X138611772Y-93063946D01*
X138605583Y-93077031D01*
X138598142Y-93089447D01*
X138589519Y-93101073D01*
X138579798Y-93111798D01*
X138569073Y-93121519D01*
X138557447Y-93130142D01*
X138545031Y-93137583D01*
X138531946Y-93143772D01*
X138518317Y-93148649D01*
X138504276Y-93152166D01*
X138489958Y-93154290D01*
X138475500Y-93155000D01*
X138130500Y-93155000D01*
X138116042Y-93154290D01*
X138101724Y-93152166D01*
X138087683Y-93148649D01*
X138074054Y-93143772D01*
X138060969Y-93137583D01*
X138048553Y-93130142D01*
X138036927Y-93121519D01*
X138026202Y-93111798D01*
X138016481Y-93101073D01*
X138007858Y-93089447D01*
X138000417Y-93077031D01*
X137994228Y-93063946D01*
X137989351Y-93050317D01*
X137985834Y-93036276D01*
X137983710Y-93021958D01*
X137983000Y-93007500D01*
X137983000Y-92712500D01*
X137983710Y-92698042D01*
X137985834Y-92683724D01*
X137989351Y-92669683D01*
X137994228Y-92656054D01*
X138000417Y-92642969D01*
X138007858Y-92630553D01*
X138016481Y-92618927D01*
X138026202Y-92608202D01*
X138036927Y-92598481D01*
X138048553Y-92589858D01*
X138060969Y-92582417D01*
X138074054Y-92576228D01*
X138087683Y-92571351D01*
X138101724Y-92567834D01*
X138116042Y-92565710D01*
X138130500Y-92565000D01*
X138475500Y-92565000D01*
X138489958Y-92565710D01*
X138489958Y-92565710D01*
G37*
D13*
X138303000Y-92860000D03*
D12*
G36*
X138489958Y-93535710D02*
X138504276Y-93537834D01*
X138518317Y-93541351D01*
X138531946Y-93546228D01*
X138545031Y-93552417D01*
X138557447Y-93559858D01*
X138569073Y-93568481D01*
X138579798Y-93578202D01*
X138589519Y-93588927D01*
X138598142Y-93600553D01*
X138605583Y-93612969D01*
X138611772Y-93626054D01*
X138616649Y-93639683D01*
X138620166Y-93653724D01*
X138622290Y-93668042D01*
X138623000Y-93682500D01*
X138623000Y-93977500D01*
X138622290Y-93991958D01*
X138620166Y-94006276D01*
X138616649Y-94020317D01*
X138611772Y-94033946D01*
X138605583Y-94047031D01*
X138598142Y-94059447D01*
X138589519Y-94071073D01*
X138579798Y-94081798D01*
X138569073Y-94091519D01*
X138557447Y-94100142D01*
X138545031Y-94107583D01*
X138531946Y-94113772D01*
X138518317Y-94118649D01*
X138504276Y-94122166D01*
X138489958Y-94124290D01*
X138475500Y-94125000D01*
X138130500Y-94125000D01*
X138116042Y-94124290D01*
X138101724Y-94122166D01*
X138087683Y-94118649D01*
X138074054Y-94113772D01*
X138060969Y-94107583D01*
X138048553Y-94100142D01*
X138036927Y-94091519D01*
X138026202Y-94081798D01*
X138016481Y-94071073D01*
X138007858Y-94059447D01*
X138000417Y-94047031D01*
X137994228Y-94033946D01*
X137989351Y-94020317D01*
X137985834Y-94006276D01*
X137983710Y-93991958D01*
X137983000Y-93977500D01*
X137983000Y-93682500D01*
X137983710Y-93668042D01*
X137985834Y-93653724D01*
X137989351Y-93639683D01*
X137994228Y-93626054D01*
X138000417Y-93612969D01*
X138007858Y-93600553D01*
X138016481Y-93588927D01*
X138026202Y-93578202D01*
X138036927Y-93568481D01*
X138048553Y-93559858D01*
X138060969Y-93552417D01*
X138074054Y-93546228D01*
X138087683Y-93541351D01*
X138101724Y-93537834D01*
X138116042Y-93535710D01*
X138130500Y-93535000D01*
X138475500Y-93535000D01*
X138489958Y-93535710D01*
X138489958Y-93535710D01*
G37*
D13*
X138303000Y-93830000D03*
G04 #@! TD*
D12*
G04 #@! TO.C,C4*
G36*
X129366958Y-83957910D02*
X129381276Y-83960034D01*
X129395317Y-83963551D01*
X129408946Y-83968428D01*
X129422031Y-83974617D01*
X129434447Y-83982058D01*
X129446073Y-83990681D01*
X129456798Y-84000402D01*
X129466519Y-84011127D01*
X129475142Y-84022753D01*
X129482583Y-84035169D01*
X129488772Y-84048254D01*
X129493649Y-84061883D01*
X129497166Y-84075924D01*
X129499290Y-84090242D01*
X129500000Y-84104700D01*
X129500000Y-84449700D01*
X129499290Y-84464158D01*
X129497166Y-84478476D01*
X129493649Y-84492517D01*
X129488772Y-84506146D01*
X129482583Y-84519231D01*
X129475142Y-84531647D01*
X129466519Y-84543273D01*
X129456798Y-84553998D01*
X129446073Y-84563719D01*
X129434447Y-84572342D01*
X129422031Y-84579783D01*
X129408946Y-84585972D01*
X129395317Y-84590849D01*
X129381276Y-84594366D01*
X129366958Y-84596490D01*
X129352500Y-84597200D01*
X129057500Y-84597200D01*
X129043042Y-84596490D01*
X129028724Y-84594366D01*
X129014683Y-84590849D01*
X129001054Y-84585972D01*
X128987969Y-84579783D01*
X128975553Y-84572342D01*
X128963927Y-84563719D01*
X128953202Y-84553998D01*
X128943481Y-84543273D01*
X128934858Y-84531647D01*
X128927417Y-84519231D01*
X128921228Y-84506146D01*
X128916351Y-84492517D01*
X128912834Y-84478476D01*
X128910710Y-84464158D01*
X128910000Y-84449700D01*
X128910000Y-84104700D01*
X128910710Y-84090242D01*
X128912834Y-84075924D01*
X128916351Y-84061883D01*
X128921228Y-84048254D01*
X128927417Y-84035169D01*
X128934858Y-84022753D01*
X128943481Y-84011127D01*
X128953202Y-84000402D01*
X128963927Y-83990681D01*
X128975553Y-83982058D01*
X128987969Y-83974617D01*
X129001054Y-83968428D01*
X129014683Y-83963551D01*
X129028724Y-83960034D01*
X129043042Y-83957910D01*
X129057500Y-83957200D01*
X129352500Y-83957200D01*
X129366958Y-83957910D01*
X129366958Y-83957910D01*
G37*
D13*
X129205000Y-84277200D03*
D12*
G36*
X130336958Y-83957910D02*
X130351276Y-83960034D01*
X130365317Y-83963551D01*
X130378946Y-83968428D01*
X130392031Y-83974617D01*
X130404447Y-83982058D01*
X130416073Y-83990681D01*
X130426798Y-84000402D01*
X130436519Y-84011127D01*
X130445142Y-84022753D01*
X130452583Y-84035169D01*
X130458772Y-84048254D01*
X130463649Y-84061883D01*
X130467166Y-84075924D01*
X130469290Y-84090242D01*
X130470000Y-84104700D01*
X130470000Y-84449700D01*
X130469290Y-84464158D01*
X130467166Y-84478476D01*
X130463649Y-84492517D01*
X130458772Y-84506146D01*
X130452583Y-84519231D01*
X130445142Y-84531647D01*
X130436519Y-84543273D01*
X130426798Y-84553998D01*
X130416073Y-84563719D01*
X130404447Y-84572342D01*
X130392031Y-84579783D01*
X130378946Y-84585972D01*
X130365317Y-84590849D01*
X130351276Y-84594366D01*
X130336958Y-84596490D01*
X130322500Y-84597200D01*
X130027500Y-84597200D01*
X130013042Y-84596490D01*
X129998724Y-84594366D01*
X129984683Y-84590849D01*
X129971054Y-84585972D01*
X129957969Y-84579783D01*
X129945553Y-84572342D01*
X129933927Y-84563719D01*
X129923202Y-84553998D01*
X129913481Y-84543273D01*
X129904858Y-84531647D01*
X129897417Y-84519231D01*
X129891228Y-84506146D01*
X129886351Y-84492517D01*
X129882834Y-84478476D01*
X129880710Y-84464158D01*
X129880000Y-84449700D01*
X129880000Y-84104700D01*
X129880710Y-84090242D01*
X129882834Y-84075924D01*
X129886351Y-84061883D01*
X129891228Y-84048254D01*
X129897417Y-84035169D01*
X129904858Y-84022753D01*
X129913481Y-84011127D01*
X129923202Y-84000402D01*
X129933927Y-83990681D01*
X129945553Y-83982058D01*
X129957969Y-83974617D01*
X129971054Y-83968428D01*
X129984683Y-83963551D01*
X129998724Y-83960034D01*
X130013042Y-83957910D01*
X130027500Y-83957200D01*
X130322500Y-83957200D01*
X130336958Y-83957910D01*
X130336958Y-83957910D01*
G37*
D13*
X130175000Y-84277200D03*
G04 #@! TD*
D12*
G04 #@! TO.C,C5*
G36*
X127821958Y-90972710D02*
X127836276Y-90974834D01*
X127850317Y-90978351D01*
X127863946Y-90983228D01*
X127877031Y-90989417D01*
X127889447Y-90996858D01*
X127901073Y-91005481D01*
X127911798Y-91015202D01*
X127921519Y-91025927D01*
X127930142Y-91037553D01*
X127937583Y-91049969D01*
X127943772Y-91063054D01*
X127948649Y-91076683D01*
X127952166Y-91090724D01*
X127954290Y-91105042D01*
X127955000Y-91119500D01*
X127955000Y-91414500D01*
X127954290Y-91428958D01*
X127952166Y-91443276D01*
X127948649Y-91457317D01*
X127943772Y-91470946D01*
X127937583Y-91484031D01*
X127930142Y-91496447D01*
X127921519Y-91508073D01*
X127911798Y-91518798D01*
X127901073Y-91528519D01*
X127889447Y-91537142D01*
X127877031Y-91544583D01*
X127863946Y-91550772D01*
X127850317Y-91555649D01*
X127836276Y-91559166D01*
X127821958Y-91561290D01*
X127807500Y-91562000D01*
X127462500Y-91562000D01*
X127448042Y-91561290D01*
X127433724Y-91559166D01*
X127419683Y-91555649D01*
X127406054Y-91550772D01*
X127392969Y-91544583D01*
X127380553Y-91537142D01*
X127368927Y-91528519D01*
X127358202Y-91518798D01*
X127348481Y-91508073D01*
X127339858Y-91496447D01*
X127332417Y-91484031D01*
X127326228Y-91470946D01*
X127321351Y-91457317D01*
X127317834Y-91443276D01*
X127315710Y-91428958D01*
X127315000Y-91414500D01*
X127315000Y-91119500D01*
X127315710Y-91105042D01*
X127317834Y-91090724D01*
X127321351Y-91076683D01*
X127326228Y-91063054D01*
X127332417Y-91049969D01*
X127339858Y-91037553D01*
X127348481Y-91025927D01*
X127358202Y-91015202D01*
X127368927Y-91005481D01*
X127380553Y-90996858D01*
X127392969Y-90989417D01*
X127406054Y-90983228D01*
X127419683Y-90978351D01*
X127433724Y-90974834D01*
X127448042Y-90972710D01*
X127462500Y-90972000D01*
X127807500Y-90972000D01*
X127821958Y-90972710D01*
X127821958Y-90972710D01*
G37*
D13*
X127635000Y-91267000D03*
D12*
G36*
X127821958Y-90002710D02*
X127836276Y-90004834D01*
X127850317Y-90008351D01*
X127863946Y-90013228D01*
X127877031Y-90019417D01*
X127889447Y-90026858D01*
X127901073Y-90035481D01*
X127911798Y-90045202D01*
X127921519Y-90055927D01*
X127930142Y-90067553D01*
X127937583Y-90079969D01*
X127943772Y-90093054D01*
X127948649Y-90106683D01*
X127952166Y-90120724D01*
X127954290Y-90135042D01*
X127955000Y-90149500D01*
X127955000Y-90444500D01*
X127954290Y-90458958D01*
X127952166Y-90473276D01*
X127948649Y-90487317D01*
X127943772Y-90500946D01*
X127937583Y-90514031D01*
X127930142Y-90526447D01*
X127921519Y-90538073D01*
X127911798Y-90548798D01*
X127901073Y-90558519D01*
X127889447Y-90567142D01*
X127877031Y-90574583D01*
X127863946Y-90580772D01*
X127850317Y-90585649D01*
X127836276Y-90589166D01*
X127821958Y-90591290D01*
X127807500Y-90592000D01*
X127462500Y-90592000D01*
X127448042Y-90591290D01*
X127433724Y-90589166D01*
X127419683Y-90585649D01*
X127406054Y-90580772D01*
X127392969Y-90574583D01*
X127380553Y-90567142D01*
X127368927Y-90558519D01*
X127358202Y-90548798D01*
X127348481Y-90538073D01*
X127339858Y-90526447D01*
X127332417Y-90514031D01*
X127326228Y-90500946D01*
X127321351Y-90487317D01*
X127317834Y-90473276D01*
X127315710Y-90458958D01*
X127315000Y-90444500D01*
X127315000Y-90149500D01*
X127315710Y-90135042D01*
X127317834Y-90120724D01*
X127321351Y-90106683D01*
X127326228Y-90093054D01*
X127332417Y-90079969D01*
X127339858Y-90067553D01*
X127348481Y-90055927D01*
X127358202Y-90045202D01*
X127368927Y-90035481D01*
X127380553Y-90026858D01*
X127392969Y-90019417D01*
X127406054Y-90013228D01*
X127419683Y-90008351D01*
X127433724Y-90004834D01*
X127448042Y-90002710D01*
X127462500Y-90002000D01*
X127807500Y-90002000D01*
X127821958Y-90002710D01*
X127821958Y-90002710D01*
G37*
D13*
X127635000Y-90297000D03*
G04 #@! TD*
D12*
G04 #@! TO.C,C7*
G36*
X142401958Y-92390710D02*
X142416276Y-92392834D01*
X142430317Y-92396351D01*
X142443946Y-92401228D01*
X142457031Y-92407417D01*
X142469447Y-92414858D01*
X142481073Y-92423481D01*
X142491798Y-92433202D01*
X142501519Y-92443927D01*
X142510142Y-92455553D01*
X142517583Y-92467969D01*
X142523772Y-92481054D01*
X142528649Y-92494683D01*
X142532166Y-92508724D01*
X142534290Y-92523042D01*
X142535000Y-92537500D01*
X142535000Y-92882500D01*
X142534290Y-92896958D01*
X142532166Y-92911276D01*
X142528649Y-92925317D01*
X142523772Y-92938946D01*
X142517583Y-92952031D01*
X142510142Y-92964447D01*
X142501519Y-92976073D01*
X142491798Y-92986798D01*
X142481073Y-92996519D01*
X142469447Y-93005142D01*
X142457031Y-93012583D01*
X142443946Y-93018772D01*
X142430317Y-93023649D01*
X142416276Y-93027166D01*
X142401958Y-93029290D01*
X142387500Y-93030000D01*
X142092500Y-93030000D01*
X142078042Y-93029290D01*
X142063724Y-93027166D01*
X142049683Y-93023649D01*
X142036054Y-93018772D01*
X142022969Y-93012583D01*
X142010553Y-93005142D01*
X141998927Y-92996519D01*
X141988202Y-92986798D01*
X141978481Y-92976073D01*
X141969858Y-92964447D01*
X141962417Y-92952031D01*
X141956228Y-92938946D01*
X141951351Y-92925317D01*
X141947834Y-92911276D01*
X141945710Y-92896958D01*
X141945000Y-92882500D01*
X141945000Y-92537500D01*
X141945710Y-92523042D01*
X141947834Y-92508724D01*
X141951351Y-92494683D01*
X141956228Y-92481054D01*
X141962417Y-92467969D01*
X141969858Y-92455553D01*
X141978481Y-92443927D01*
X141988202Y-92433202D01*
X141998927Y-92423481D01*
X142010553Y-92414858D01*
X142022969Y-92407417D01*
X142036054Y-92401228D01*
X142049683Y-92396351D01*
X142063724Y-92392834D01*
X142078042Y-92390710D01*
X142092500Y-92390000D01*
X142387500Y-92390000D01*
X142401958Y-92390710D01*
X142401958Y-92390710D01*
G37*
D13*
X142240000Y-92710000D03*
D12*
G36*
X141431958Y-92390710D02*
X141446276Y-92392834D01*
X141460317Y-92396351D01*
X141473946Y-92401228D01*
X141487031Y-92407417D01*
X141499447Y-92414858D01*
X141511073Y-92423481D01*
X141521798Y-92433202D01*
X141531519Y-92443927D01*
X141540142Y-92455553D01*
X141547583Y-92467969D01*
X141553772Y-92481054D01*
X141558649Y-92494683D01*
X141562166Y-92508724D01*
X141564290Y-92523042D01*
X141565000Y-92537500D01*
X141565000Y-92882500D01*
X141564290Y-92896958D01*
X141562166Y-92911276D01*
X141558649Y-92925317D01*
X141553772Y-92938946D01*
X141547583Y-92952031D01*
X141540142Y-92964447D01*
X141531519Y-92976073D01*
X141521798Y-92986798D01*
X141511073Y-92996519D01*
X141499447Y-93005142D01*
X141487031Y-93012583D01*
X141473946Y-93018772D01*
X141460317Y-93023649D01*
X141446276Y-93027166D01*
X141431958Y-93029290D01*
X141417500Y-93030000D01*
X141122500Y-93030000D01*
X141108042Y-93029290D01*
X141093724Y-93027166D01*
X141079683Y-93023649D01*
X141066054Y-93018772D01*
X141052969Y-93012583D01*
X141040553Y-93005142D01*
X141028927Y-92996519D01*
X141018202Y-92986798D01*
X141008481Y-92976073D01*
X140999858Y-92964447D01*
X140992417Y-92952031D01*
X140986228Y-92938946D01*
X140981351Y-92925317D01*
X140977834Y-92911276D01*
X140975710Y-92896958D01*
X140975000Y-92882500D01*
X140975000Y-92537500D01*
X140975710Y-92523042D01*
X140977834Y-92508724D01*
X140981351Y-92494683D01*
X140986228Y-92481054D01*
X140992417Y-92467969D01*
X140999858Y-92455553D01*
X141008481Y-92443927D01*
X141018202Y-92433202D01*
X141028927Y-92423481D01*
X141040553Y-92414858D01*
X141052969Y-92407417D01*
X141066054Y-92401228D01*
X141079683Y-92396351D01*
X141093724Y-92392834D01*
X141108042Y-92390710D01*
X141122500Y-92390000D01*
X141417500Y-92390000D01*
X141431958Y-92390710D01*
X141431958Y-92390710D01*
G37*
D13*
X141270000Y-92710000D03*
G04 #@! TD*
D12*
G04 #@! TO.C,C8*
G36*
X139886958Y-87970710D02*
X139901276Y-87972834D01*
X139915317Y-87976351D01*
X139928946Y-87981228D01*
X139942031Y-87987417D01*
X139954447Y-87994858D01*
X139966073Y-88003481D01*
X139976798Y-88013202D01*
X139986519Y-88023927D01*
X139995142Y-88035553D01*
X140002583Y-88047969D01*
X140008772Y-88061054D01*
X140013649Y-88074683D01*
X140017166Y-88088724D01*
X140019290Y-88103042D01*
X140020000Y-88117500D01*
X140020000Y-88412500D01*
X140019290Y-88426958D01*
X140017166Y-88441276D01*
X140013649Y-88455317D01*
X140008772Y-88468946D01*
X140002583Y-88482031D01*
X139995142Y-88494447D01*
X139986519Y-88506073D01*
X139976798Y-88516798D01*
X139966073Y-88526519D01*
X139954447Y-88535142D01*
X139942031Y-88542583D01*
X139928946Y-88548772D01*
X139915317Y-88553649D01*
X139901276Y-88557166D01*
X139886958Y-88559290D01*
X139872500Y-88560000D01*
X139527500Y-88560000D01*
X139513042Y-88559290D01*
X139498724Y-88557166D01*
X139484683Y-88553649D01*
X139471054Y-88548772D01*
X139457969Y-88542583D01*
X139445553Y-88535142D01*
X139433927Y-88526519D01*
X139423202Y-88516798D01*
X139413481Y-88506073D01*
X139404858Y-88494447D01*
X139397417Y-88482031D01*
X139391228Y-88468946D01*
X139386351Y-88455317D01*
X139382834Y-88441276D01*
X139380710Y-88426958D01*
X139380000Y-88412500D01*
X139380000Y-88117500D01*
X139380710Y-88103042D01*
X139382834Y-88088724D01*
X139386351Y-88074683D01*
X139391228Y-88061054D01*
X139397417Y-88047969D01*
X139404858Y-88035553D01*
X139413481Y-88023927D01*
X139423202Y-88013202D01*
X139433927Y-88003481D01*
X139445553Y-87994858D01*
X139457969Y-87987417D01*
X139471054Y-87981228D01*
X139484683Y-87976351D01*
X139498724Y-87972834D01*
X139513042Y-87970710D01*
X139527500Y-87970000D01*
X139872500Y-87970000D01*
X139886958Y-87970710D01*
X139886958Y-87970710D01*
G37*
D13*
X139700000Y-88265000D03*
D12*
G36*
X139886958Y-87000710D02*
X139901276Y-87002834D01*
X139915317Y-87006351D01*
X139928946Y-87011228D01*
X139942031Y-87017417D01*
X139954447Y-87024858D01*
X139966073Y-87033481D01*
X139976798Y-87043202D01*
X139986519Y-87053927D01*
X139995142Y-87065553D01*
X140002583Y-87077969D01*
X140008772Y-87091054D01*
X140013649Y-87104683D01*
X140017166Y-87118724D01*
X140019290Y-87133042D01*
X140020000Y-87147500D01*
X140020000Y-87442500D01*
X140019290Y-87456958D01*
X140017166Y-87471276D01*
X140013649Y-87485317D01*
X140008772Y-87498946D01*
X140002583Y-87512031D01*
X139995142Y-87524447D01*
X139986519Y-87536073D01*
X139976798Y-87546798D01*
X139966073Y-87556519D01*
X139954447Y-87565142D01*
X139942031Y-87572583D01*
X139928946Y-87578772D01*
X139915317Y-87583649D01*
X139901276Y-87587166D01*
X139886958Y-87589290D01*
X139872500Y-87590000D01*
X139527500Y-87590000D01*
X139513042Y-87589290D01*
X139498724Y-87587166D01*
X139484683Y-87583649D01*
X139471054Y-87578772D01*
X139457969Y-87572583D01*
X139445553Y-87565142D01*
X139433927Y-87556519D01*
X139423202Y-87546798D01*
X139413481Y-87536073D01*
X139404858Y-87524447D01*
X139397417Y-87512031D01*
X139391228Y-87498946D01*
X139386351Y-87485317D01*
X139382834Y-87471276D01*
X139380710Y-87456958D01*
X139380000Y-87442500D01*
X139380000Y-87147500D01*
X139380710Y-87133042D01*
X139382834Y-87118724D01*
X139386351Y-87104683D01*
X139391228Y-87091054D01*
X139397417Y-87077969D01*
X139404858Y-87065553D01*
X139413481Y-87053927D01*
X139423202Y-87043202D01*
X139433927Y-87033481D01*
X139445553Y-87024858D01*
X139457969Y-87017417D01*
X139471054Y-87011228D01*
X139484683Y-87006351D01*
X139498724Y-87002834D01*
X139513042Y-87000710D01*
X139527500Y-87000000D01*
X139872500Y-87000000D01*
X139886958Y-87000710D01*
X139886958Y-87000710D01*
G37*
D13*
X139700000Y-87295000D03*
G04 #@! TD*
D12*
G04 #@! TO.C,C11*
G36*
X125281958Y-83825710D02*
X125296276Y-83827834D01*
X125310317Y-83831351D01*
X125323946Y-83836228D01*
X125337031Y-83842417D01*
X125349447Y-83849858D01*
X125361073Y-83858481D01*
X125371798Y-83868202D01*
X125381519Y-83878927D01*
X125390142Y-83890553D01*
X125397583Y-83902969D01*
X125403772Y-83916054D01*
X125408649Y-83929683D01*
X125412166Y-83943724D01*
X125414290Y-83958042D01*
X125415000Y-83972500D01*
X125415000Y-84267500D01*
X125414290Y-84281958D01*
X125412166Y-84296276D01*
X125408649Y-84310317D01*
X125403772Y-84323946D01*
X125397583Y-84337031D01*
X125390142Y-84349447D01*
X125381519Y-84361073D01*
X125371798Y-84371798D01*
X125361073Y-84381519D01*
X125349447Y-84390142D01*
X125337031Y-84397583D01*
X125323946Y-84403772D01*
X125310317Y-84408649D01*
X125296276Y-84412166D01*
X125281958Y-84414290D01*
X125267500Y-84415000D01*
X124922500Y-84415000D01*
X124908042Y-84414290D01*
X124893724Y-84412166D01*
X124879683Y-84408649D01*
X124866054Y-84403772D01*
X124852969Y-84397583D01*
X124840553Y-84390142D01*
X124828927Y-84381519D01*
X124818202Y-84371798D01*
X124808481Y-84361073D01*
X124799858Y-84349447D01*
X124792417Y-84337031D01*
X124786228Y-84323946D01*
X124781351Y-84310317D01*
X124777834Y-84296276D01*
X124775710Y-84281958D01*
X124775000Y-84267500D01*
X124775000Y-83972500D01*
X124775710Y-83958042D01*
X124777834Y-83943724D01*
X124781351Y-83929683D01*
X124786228Y-83916054D01*
X124792417Y-83902969D01*
X124799858Y-83890553D01*
X124808481Y-83878927D01*
X124818202Y-83868202D01*
X124828927Y-83858481D01*
X124840553Y-83849858D01*
X124852969Y-83842417D01*
X124866054Y-83836228D01*
X124879683Y-83831351D01*
X124893724Y-83827834D01*
X124908042Y-83825710D01*
X124922500Y-83825000D01*
X125267500Y-83825000D01*
X125281958Y-83825710D01*
X125281958Y-83825710D01*
G37*
D13*
X125095000Y-84120000D03*
D12*
G36*
X125281958Y-84795710D02*
X125296276Y-84797834D01*
X125310317Y-84801351D01*
X125323946Y-84806228D01*
X125337031Y-84812417D01*
X125349447Y-84819858D01*
X125361073Y-84828481D01*
X125371798Y-84838202D01*
X125381519Y-84848927D01*
X125390142Y-84860553D01*
X125397583Y-84872969D01*
X125403772Y-84886054D01*
X125408649Y-84899683D01*
X125412166Y-84913724D01*
X125414290Y-84928042D01*
X125415000Y-84942500D01*
X125415000Y-85237500D01*
X125414290Y-85251958D01*
X125412166Y-85266276D01*
X125408649Y-85280317D01*
X125403772Y-85293946D01*
X125397583Y-85307031D01*
X125390142Y-85319447D01*
X125381519Y-85331073D01*
X125371798Y-85341798D01*
X125361073Y-85351519D01*
X125349447Y-85360142D01*
X125337031Y-85367583D01*
X125323946Y-85373772D01*
X125310317Y-85378649D01*
X125296276Y-85382166D01*
X125281958Y-85384290D01*
X125267500Y-85385000D01*
X124922500Y-85385000D01*
X124908042Y-85384290D01*
X124893724Y-85382166D01*
X124879683Y-85378649D01*
X124866054Y-85373772D01*
X124852969Y-85367583D01*
X124840553Y-85360142D01*
X124828927Y-85351519D01*
X124818202Y-85341798D01*
X124808481Y-85331073D01*
X124799858Y-85319447D01*
X124792417Y-85307031D01*
X124786228Y-85293946D01*
X124781351Y-85280317D01*
X124777834Y-85266276D01*
X124775710Y-85251958D01*
X124775000Y-85237500D01*
X124775000Y-84942500D01*
X124775710Y-84928042D01*
X124777834Y-84913724D01*
X124781351Y-84899683D01*
X124786228Y-84886054D01*
X124792417Y-84872969D01*
X124799858Y-84860553D01*
X124808481Y-84848927D01*
X124818202Y-84838202D01*
X124828927Y-84828481D01*
X124840553Y-84819858D01*
X124852969Y-84812417D01*
X124866054Y-84806228D01*
X124879683Y-84801351D01*
X124893724Y-84797834D01*
X124908042Y-84795710D01*
X124922500Y-84795000D01*
X125267500Y-84795000D01*
X125281958Y-84795710D01*
X125281958Y-84795710D01*
G37*
D13*
X125095000Y-85090000D03*
G04 #@! TD*
D12*
G04 #@! TO.C,C12*
G36*
X125281958Y-86215710D02*
X125296276Y-86217834D01*
X125310317Y-86221351D01*
X125323946Y-86226228D01*
X125337031Y-86232417D01*
X125349447Y-86239858D01*
X125361073Y-86248481D01*
X125371798Y-86258202D01*
X125381519Y-86268927D01*
X125390142Y-86280553D01*
X125397583Y-86292969D01*
X125403772Y-86306054D01*
X125408649Y-86319683D01*
X125412166Y-86333724D01*
X125414290Y-86348042D01*
X125415000Y-86362500D01*
X125415000Y-86657500D01*
X125414290Y-86671958D01*
X125412166Y-86686276D01*
X125408649Y-86700317D01*
X125403772Y-86713946D01*
X125397583Y-86727031D01*
X125390142Y-86739447D01*
X125381519Y-86751073D01*
X125371798Y-86761798D01*
X125361073Y-86771519D01*
X125349447Y-86780142D01*
X125337031Y-86787583D01*
X125323946Y-86793772D01*
X125310317Y-86798649D01*
X125296276Y-86802166D01*
X125281958Y-86804290D01*
X125267500Y-86805000D01*
X124922500Y-86805000D01*
X124908042Y-86804290D01*
X124893724Y-86802166D01*
X124879683Y-86798649D01*
X124866054Y-86793772D01*
X124852969Y-86787583D01*
X124840553Y-86780142D01*
X124828927Y-86771519D01*
X124818202Y-86761798D01*
X124808481Y-86751073D01*
X124799858Y-86739447D01*
X124792417Y-86727031D01*
X124786228Y-86713946D01*
X124781351Y-86700317D01*
X124777834Y-86686276D01*
X124775710Y-86671958D01*
X124775000Y-86657500D01*
X124775000Y-86362500D01*
X124775710Y-86348042D01*
X124777834Y-86333724D01*
X124781351Y-86319683D01*
X124786228Y-86306054D01*
X124792417Y-86292969D01*
X124799858Y-86280553D01*
X124808481Y-86268927D01*
X124818202Y-86258202D01*
X124828927Y-86248481D01*
X124840553Y-86239858D01*
X124852969Y-86232417D01*
X124866054Y-86226228D01*
X124879683Y-86221351D01*
X124893724Y-86217834D01*
X124908042Y-86215710D01*
X124922500Y-86215000D01*
X125267500Y-86215000D01*
X125281958Y-86215710D01*
X125281958Y-86215710D01*
G37*
D13*
X125095000Y-86510000D03*
D12*
G36*
X125281958Y-87185710D02*
X125296276Y-87187834D01*
X125310317Y-87191351D01*
X125323946Y-87196228D01*
X125337031Y-87202417D01*
X125349447Y-87209858D01*
X125361073Y-87218481D01*
X125371798Y-87228202D01*
X125381519Y-87238927D01*
X125390142Y-87250553D01*
X125397583Y-87262969D01*
X125403772Y-87276054D01*
X125408649Y-87289683D01*
X125412166Y-87303724D01*
X125414290Y-87318042D01*
X125415000Y-87332500D01*
X125415000Y-87627500D01*
X125414290Y-87641958D01*
X125412166Y-87656276D01*
X125408649Y-87670317D01*
X125403772Y-87683946D01*
X125397583Y-87697031D01*
X125390142Y-87709447D01*
X125381519Y-87721073D01*
X125371798Y-87731798D01*
X125361073Y-87741519D01*
X125349447Y-87750142D01*
X125337031Y-87757583D01*
X125323946Y-87763772D01*
X125310317Y-87768649D01*
X125296276Y-87772166D01*
X125281958Y-87774290D01*
X125267500Y-87775000D01*
X124922500Y-87775000D01*
X124908042Y-87774290D01*
X124893724Y-87772166D01*
X124879683Y-87768649D01*
X124866054Y-87763772D01*
X124852969Y-87757583D01*
X124840553Y-87750142D01*
X124828927Y-87741519D01*
X124818202Y-87731798D01*
X124808481Y-87721073D01*
X124799858Y-87709447D01*
X124792417Y-87697031D01*
X124786228Y-87683946D01*
X124781351Y-87670317D01*
X124777834Y-87656276D01*
X124775710Y-87641958D01*
X124775000Y-87627500D01*
X124775000Y-87332500D01*
X124775710Y-87318042D01*
X124777834Y-87303724D01*
X124781351Y-87289683D01*
X124786228Y-87276054D01*
X124792417Y-87262969D01*
X124799858Y-87250553D01*
X124808481Y-87238927D01*
X124818202Y-87228202D01*
X124828927Y-87218481D01*
X124840553Y-87209858D01*
X124852969Y-87202417D01*
X124866054Y-87196228D01*
X124879683Y-87191351D01*
X124893724Y-87187834D01*
X124908042Y-87185710D01*
X124922500Y-87185000D01*
X125267500Y-87185000D01*
X125281958Y-87185710D01*
X125281958Y-87185710D01*
G37*
D13*
X125095000Y-87480000D03*
G04 #@! TD*
D12*
G04 #@! TO.C,L1*
G36*
X141431958Y-94295710D02*
X141446276Y-94297834D01*
X141460317Y-94301351D01*
X141473946Y-94306228D01*
X141487031Y-94312417D01*
X141499447Y-94319858D01*
X141511073Y-94328481D01*
X141521798Y-94338202D01*
X141531519Y-94348927D01*
X141540142Y-94360553D01*
X141547583Y-94372969D01*
X141553772Y-94386054D01*
X141558649Y-94399683D01*
X141562166Y-94413724D01*
X141564290Y-94428042D01*
X141565000Y-94442500D01*
X141565000Y-94787500D01*
X141564290Y-94801958D01*
X141562166Y-94816276D01*
X141558649Y-94830317D01*
X141553772Y-94843946D01*
X141547583Y-94857031D01*
X141540142Y-94869447D01*
X141531519Y-94881073D01*
X141521798Y-94891798D01*
X141511073Y-94901519D01*
X141499447Y-94910142D01*
X141487031Y-94917583D01*
X141473946Y-94923772D01*
X141460317Y-94928649D01*
X141446276Y-94932166D01*
X141431958Y-94934290D01*
X141417500Y-94935000D01*
X141122500Y-94935000D01*
X141108042Y-94934290D01*
X141093724Y-94932166D01*
X141079683Y-94928649D01*
X141066054Y-94923772D01*
X141052969Y-94917583D01*
X141040553Y-94910142D01*
X141028927Y-94901519D01*
X141018202Y-94891798D01*
X141008481Y-94881073D01*
X140999858Y-94869447D01*
X140992417Y-94857031D01*
X140986228Y-94843946D01*
X140981351Y-94830317D01*
X140977834Y-94816276D01*
X140975710Y-94801958D01*
X140975000Y-94787500D01*
X140975000Y-94442500D01*
X140975710Y-94428042D01*
X140977834Y-94413724D01*
X140981351Y-94399683D01*
X140986228Y-94386054D01*
X140992417Y-94372969D01*
X140999858Y-94360553D01*
X141008481Y-94348927D01*
X141018202Y-94338202D01*
X141028927Y-94328481D01*
X141040553Y-94319858D01*
X141052969Y-94312417D01*
X141066054Y-94306228D01*
X141079683Y-94301351D01*
X141093724Y-94297834D01*
X141108042Y-94295710D01*
X141122500Y-94295000D01*
X141417500Y-94295000D01*
X141431958Y-94295710D01*
X141431958Y-94295710D01*
G37*
D13*
X141270000Y-94615000D03*
D12*
G36*
X142401958Y-94295710D02*
X142416276Y-94297834D01*
X142430317Y-94301351D01*
X142443946Y-94306228D01*
X142457031Y-94312417D01*
X142469447Y-94319858D01*
X142481073Y-94328481D01*
X142491798Y-94338202D01*
X142501519Y-94348927D01*
X142510142Y-94360553D01*
X142517583Y-94372969D01*
X142523772Y-94386054D01*
X142528649Y-94399683D01*
X142532166Y-94413724D01*
X142534290Y-94428042D01*
X142535000Y-94442500D01*
X142535000Y-94787500D01*
X142534290Y-94801958D01*
X142532166Y-94816276D01*
X142528649Y-94830317D01*
X142523772Y-94843946D01*
X142517583Y-94857031D01*
X142510142Y-94869447D01*
X142501519Y-94881073D01*
X142491798Y-94891798D01*
X142481073Y-94901519D01*
X142469447Y-94910142D01*
X142457031Y-94917583D01*
X142443946Y-94923772D01*
X142430317Y-94928649D01*
X142416276Y-94932166D01*
X142401958Y-94934290D01*
X142387500Y-94935000D01*
X142092500Y-94935000D01*
X142078042Y-94934290D01*
X142063724Y-94932166D01*
X142049683Y-94928649D01*
X142036054Y-94923772D01*
X142022969Y-94917583D01*
X142010553Y-94910142D01*
X141998927Y-94901519D01*
X141988202Y-94891798D01*
X141978481Y-94881073D01*
X141969858Y-94869447D01*
X141962417Y-94857031D01*
X141956228Y-94843946D01*
X141951351Y-94830317D01*
X141947834Y-94816276D01*
X141945710Y-94801958D01*
X141945000Y-94787500D01*
X141945000Y-94442500D01*
X141945710Y-94428042D01*
X141947834Y-94413724D01*
X141951351Y-94399683D01*
X141956228Y-94386054D01*
X141962417Y-94372969D01*
X141969858Y-94360553D01*
X141978481Y-94348927D01*
X141988202Y-94338202D01*
X141998927Y-94328481D01*
X142010553Y-94319858D01*
X142022969Y-94312417D01*
X142036054Y-94306228D01*
X142049683Y-94301351D01*
X142063724Y-94297834D01*
X142078042Y-94295710D01*
X142092500Y-94295000D01*
X142387500Y-94295000D01*
X142401958Y-94295710D01*
X142401958Y-94295710D01*
G37*
D13*
X142240000Y-94615000D03*
G04 #@! TD*
D14*
G04 #@! TO.C,Y1*
X141140000Y-88454000D03*
X141140000Y-89854000D03*
X142240000Y-89854000D03*
X142240000Y-88454000D03*
G04 #@! TD*
D15*
G04 #@! TO.C,Y2*
X127000000Y-84475000D03*
X127000000Y-86975000D03*
G04 #@! TD*
D16*
G04 #@! TO.C,U1*
X133472348Y-85911078D03*
D12*
G36*
X133171828Y-85751979D02*
X133313249Y-85610558D01*
X133772868Y-86070177D01*
X133631447Y-86211598D01*
X133171828Y-85751979D01*
X133171828Y-85751979D01*
G37*
D16*
X133189505Y-86193920D03*
D12*
G36*
X132888985Y-86034821D02*
X133030406Y-85893400D01*
X133490025Y-86353019D01*
X133348604Y-86494440D01*
X132888985Y-86034821D01*
X132888985Y-86034821D01*
G37*
D16*
X132906662Y-86476763D03*
D12*
G36*
X132606142Y-86317664D02*
X132747563Y-86176243D01*
X133207182Y-86635862D01*
X133065761Y-86777283D01*
X132606142Y-86317664D01*
X132606142Y-86317664D01*
G37*
D16*
X132623819Y-86759606D03*
D12*
G36*
X132323299Y-86600507D02*
X132464720Y-86459086D01*
X132924339Y-86918705D01*
X132782918Y-87060126D01*
X132323299Y-86600507D01*
X132323299Y-86600507D01*
G37*
D16*
X132340977Y-87042449D03*
D12*
G36*
X132040457Y-86883350D02*
X132181878Y-86741929D01*
X132641497Y-87201548D01*
X132500076Y-87342969D01*
X132040457Y-86883350D01*
X132040457Y-86883350D01*
G37*
D16*
X132058134Y-87325291D03*
D12*
G36*
X131757614Y-87166192D02*
X131899035Y-87024771D01*
X132358654Y-87484390D01*
X132217233Y-87625811D01*
X131757614Y-87166192D01*
X131757614Y-87166192D01*
G37*
D16*
X131775291Y-87608134D03*
D12*
G36*
X131474771Y-87449035D02*
X131616192Y-87307614D01*
X132075811Y-87767233D01*
X131934390Y-87908654D01*
X131474771Y-87449035D01*
X131474771Y-87449035D01*
G37*
D16*
X131492449Y-87890977D03*
D12*
G36*
X131191929Y-87731878D02*
X131333350Y-87590457D01*
X131792969Y-88050076D01*
X131651548Y-88191497D01*
X131191929Y-87731878D01*
X131191929Y-87731878D01*
G37*
D16*
X131209606Y-88173819D03*
D12*
G36*
X130909086Y-88014720D02*
X131050507Y-87873299D01*
X131510126Y-88332918D01*
X131368705Y-88474339D01*
X130909086Y-88014720D01*
X130909086Y-88014720D01*
G37*
D16*
X130926763Y-88456662D03*
D12*
G36*
X130626243Y-88297563D02*
X130767664Y-88156142D01*
X131227283Y-88615761D01*
X131085862Y-88757182D01*
X130626243Y-88297563D01*
X130626243Y-88297563D01*
G37*
D16*
X130643920Y-88739505D03*
D12*
G36*
X130343400Y-88580406D02*
X130484821Y-88438985D01*
X130944440Y-88898604D01*
X130803019Y-89040025D01*
X130343400Y-88580406D01*
X130343400Y-88580406D01*
G37*
D16*
X130361078Y-89022348D03*
D12*
G36*
X130060558Y-88863249D02*
X130201979Y-88721828D01*
X130661598Y-89181447D01*
X130520177Y-89322868D01*
X130060558Y-88863249D01*
X130060558Y-88863249D01*
G37*
D16*
X130361078Y-90047652D03*
D12*
G36*
X130201979Y-90348172D02*
X130060558Y-90206751D01*
X130520177Y-89747132D01*
X130661598Y-89888553D01*
X130201979Y-90348172D01*
X130201979Y-90348172D01*
G37*
D16*
X130643920Y-90330495D03*
D12*
G36*
X130484821Y-90631015D02*
X130343400Y-90489594D01*
X130803019Y-90029975D01*
X130944440Y-90171396D01*
X130484821Y-90631015D01*
X130484821Y-90631015D01*
G37*
D16*
X130926763Y-90613338D03*
D12*
G36*
X130767664Y-90913858D02*
X130626243Y-90772437D01*
X131085862Y-90312818D01*
X131227283Y-90454239D01*
X130767664Y-90913858D01*
X130767664Y-90913858D01*
G37*
D16*
X131209606Y-90896181D03*
D12*
G36*
X131050507Y-91196701D02*
X130909086Y-91055280D01*
X131368705Y-90595661D01*
X131510126Y-90737082D01*
X131050507Y-91196701D01*
X131050507Y-91196701D01*
G37*
D16*
X131492449Y-91179023D03*
D12*
G36*
X131333350Y-91479543D02*
X131191929Y-91338122D01*
X131651548Y-90878503D01*
X131792969Y-91019924D01*
X131333350Y-91479543D01*
X131333350Y-91479543D01*
G37*
D16*
X131775291Y-91461866D03*
D12*
G36*
X131616192Y-91762386D02*
X131474771Y-91620965D01*
X131934390Y-91161346D01*
X132075811Y-91302767D01*
X131616192Y-91762386D01*
X131616192Y-91762386D01*
G37*
D16*
X132058134Y-91744709D03*
D12*
G36*
X131899035Y-92045229D02*
X131757614Y-91903808D01*
X132217233Y-91444189D01*
X132358654Y-91585610D01*
X131899035Y-92045229D01*
X131899035Y-92045229D01*
G37*
D16*
X132340977Y-92027551D03*
D12*
G36*
X132181878Y-92328071D02*
X132040457Y-92186650D01*
X132500076Y-91727031D01*
X132641497Y-91868452D01*
X132181878Y-92328071D01*
X132181878Y-92328071D01*
G37*
D16*
X132623819Y-92310394D03*
D12*
G36*
X132464720Y-92610914D02*
X132323299Y-92469493D01*
X132782918Y-92009874D01*
X132924339Y-92151295D01*
X132464720Y-92610914D01*
X132464720Y-92610914D01*
G37*
D16*
X132906662Y-92593237D03*
D12*
G36*
X132747563Y-92893757D02*
X132606142Y-92752336D01*
X133065761Y-92292717D01*
X133207182Y-92434138D01*
X132747563Y-92893757D01*
X132747563Y-92893757D01*
G37*
D16*
X133189505Y-92876080D03*
D12*
G36*
X133030406Y-93176600D02*
X132888985Y-93035179D01*
X133348604Y-92575560D01*
X133490025Y-92716981D01*
X133030406Y-93176600D01*
X133030406Y-93176600D01*
G37*
D16*
X133472348Y-93158922D03*
D12*
G36*
X133313249Y-93459442D02*
X133171828Y-93318021D01*
X133631447Y-92858402D01*
X133772868Y-92999823D01*
X133313249Y-93459442D01*
X133313249Y-93459442D01*
G37*
D16*
X134497652Y-93158922D03*
D12*
G36*
X134197132Y-92999823D02*
X134338553Y-92858402D01*
X134798172Y-93318021D01*
X134656751Y-93459442D01*
X134197132Y-92999823D01*
X134197132Y-92999823D01*
G37*
D16*
X134780495Y-92876080D03*
D12*
G36*
X134479975Y-92716981D02*
X134621396Y-92575560D01*
X135081015Y-93035179D01*
X134939594Y-93176600D01*
X134479975Y-92716981D01*
X134479975Y-92716981D01*
G37*
D16*
X135063338Y-92593237D03*
D12*
G36*
X134762818Y-92434138D02*
X134904239Y-92292717D01*
X135363858Y-92752336D01*
X135222437Y-92893757D01*
X134762818Y-92434138D01*
X134762818Y-92434138D01*
G37*
D16*
X135346181Y-92310394D03*
D12*
G36*
X135045661Y-92151295D02*
X135187082Y-92009874D01*
X135646701Y-92469493D01*
X135505280Y-92610914D01*
X135045661Y-92151295D01*
X135045661Y-92151295D01*
G37*
D16*
X135629023Y-92027551D03*
D12*
G36*
X135328503Y-91868452D02*
X135469924Y-91727031D01*
X135929543Y-92186650D01*
X135788122Y-92328071D01*
X135328503Y-91868452D01*
X135328503Y-91868452D01*
G37*
D16*
X135911866Y-91744709D03*
D12*
G36*
X135611346Y-91585610D02*
X135752767Y-91444189D01*
X136212386Y-91903808D01*
X136070965Y-92045229D01*
X135611346Y-91585610D01*
X135611346Y-91585610D01*
G37*
D16*
X136194709Y-91461866D03*
D12*
G36*
X135894189Y-91302767D02*
X136035610Y-91161346D01*
X136495229Y-91620965D01*
X136353808Y-91762386D01*
X135894189Y-91302767D01*
X135894189Y-91302767D01*
G37*
D16*
X136477551Y-91179023D03*
D12*
G36*
X136177031Y-91019924D02*
X136318452Y-90878503D01*
X136778071Y-91338122D01*
X136636650Y-91479543D01*
X136177031Y-91019924D01*
X136177031Y-91019924D01*
G37*
D16*
X136760394Y-90896181D03*
D12*
G36*
X136459874Y-90737082D02*
X136601295Y-90595661D01*
X137060914Y-91055280D01*
X136919493Y-91196701D01*
X136459874Y-90737082D01*
X136459874Y-90737082D01*
G37*
D16*
X137043237Y-90613338D03*
D12*
G36*
X136742717Y-90454239D02*
X136884138Y-90312818D01*
X137343757Y-90772437D01*
X137202336Y-90913858D01*
X136742717Y-90454239D01*
X136742717Y-90454239D01*
G37*
D16*
X137326080Y-90330495D03*
D12*
G36*
X137025560Y-90171396D02*
X137166981Y-90029975D01*
X137626600Y-90489594D01*
X137485179Y-90631015D01*
X137025560Y-90171396D01*
X137025560Y-90171396D01*
G37*
D16*
X137608922Y-90047652D03*
D12*
G36*
X137308402Y-89888553D02*
X137449823Y-89747132D01*
X137909442Y-90206751D01*
X137768021Y-90348172D01*
X137308402Y-89888553D01*
X137308402Y-89888553D01*
G37*
D16*
X137608922Y-89022348D03*
D12*
G36*
X137449823Y-89322868D02*
X137308402Y-89181447D01*
X137768021Y-88721828D01*
X137909442Y-88863249D01*
X137449823Y-89322868D01*
X137449823Y-89322868D01*
G37*
D16*
X137326080Y-88739505D03*
D12*
G36*
X137166981Y-89040025D02*
X137025560Y-88898604D01*
X137485179Y-88438985D01*
X137626600Y-88580406D01*
X137166981Y-89040025D01*
X137166981Y-89040025D01*
G37*
D16*
X137043237Y-88456662D03*
D12*
G36*
X136884138Y-88757182D02*
X136742717Y-88615761D01*
X137202336Y-88156142D01*
X137343757Y-88297563D01*
X136884138Y-88757182D01*
X136884138Y-88757182D01*
G37*
D16*
X136760394Y-88173819D03*
D12*
G36*
X136601295Y-88474339D02*
X136459874Y-88332918D01*
X136919493Y-87873299D01*
X137060914Y-88014720D01*
X136601295Y-88474339D01*
X136601295Y-88474339D01*
G37*
D16*
X136477551Y-87890977D03*
D12*
G36*
X136318452Y-88191497D02*
X136177031Y-88050076D01*
X136636650Y-87590457D01*
X136778071Y-87731878D01*
X136318452Y-88191497D01*
X136318452Y-88191497D01*
G37*
D16*
X136194709Y-87608134D03*
D12*
G36*
X136035610Y-87908654D02*
X135894189Y-87767233D01*
X136353808Y-87307614D01*
X136495229Y-87449035D01*
X136035610Y-87908654D01*
X136035610Y-87908654D01*
G37*
D16*
X135911866Y-87325291D03*
D12*
G36*
X135752767Y-87625811D02*
X135611346Y-87484390D01*
X136070965Y-87024771D01*
X136212386Y-87166192D01*
X135752767Y-87625811D01*
X135752767Y-87625811D01*
G37*
D16*
X135629023Y-87042449D03*
D12*
G36*
X135469924Y-87342969D02*
X135328503Y-87201548D01*
X135788122Y-86741929D01*
X135929543Y-86883350D01*
X135469924Y-87342969D01*
X135469924Y-87342969D01*
G37*
D16*
X135346181Y-86759606D03*
D12*
G36*
X135187082Y-87060126D02*
X135045661Y-86918705D01*
X135505280Y-86459086D01*
X135646701Y-86600507D01*
X135187082Y-87060126D01*
X135187082Y-87060126D01*
G37*
D16*
X135063338Y-86476763D03*
D12*
G36*
X134904239Y-86777283D02*
X134762818Y-86635862D01*
X135222437Y-86176243D01*
X135363858Y-86317664D01*
X134904239Y-86777283D01*
X134904239Y-86777283D01*
G37*
D16*
X134780495Y-86193920D03*
D12*
G36*
X134621396Y-86494440D02*
X134479975Y-86353019D01*
X134939594Y-85893400D01*
X135081015Y-86034821D01*
X134621396Y-86494440D01*
X134621396Y-86494440D01*
G37*
D16*
X134497652Y-85911078D03*
D12*
G36*
X134338553Y-86211598D02*
X134197132Y-86070177D01*
X134656751Y-85610558D01*
X134798172Y-85751979D01*
X134338553Y-86211598D01*
X134338553Y-86211598D01*
G37*
D17*
X133985000Y-87460820D03*
D12*
G36*
X133221325Y-87460820D02*
X133985000Y-86697145D01*
X134748675Y-87460820D01*
X133985000Y-88224495D01*
X133221325Y-87460820D01*
X133221325Y-87460820D01*
G37*
D17*
X132947910Y-88497910D03*
D12*
G36*
X132184235Y-88497910D02*
X132947910Y-87734235D01*
X133711585Y-88497910D01*
X132947910Y-89261585D01*
X132184235Y-88497910D01*
X132184235Y-88497910D01*
G37*
D17*
X131910820Y-89535000D03*
D12*
G36*
X131147145Y-89535000D02*
X131910820Y-88771325D01*
X132674495Y-89535000D01*
X131910820Y-90298675D01*
X131147145Y-89535000D01*
X131147145Y-89535000D01*
G37*
D17*
X135022090Y-88497910D03*
D12*
G36*
X134258415Y-88497910D02*
X135022090Y-87734235D01*
X135785765Y-88497910D01*
X135022090Y-89261585D01*
X134258415Y-88497910D01*
X134258415Y-88497910D01*
G37*
D17*
X133985000Y-89535000D03*
D12*
G36*
X133221325Y-89535000D02*
X133985000Y-88771325D01*
X134748675Y-89535000D01*
X133985000Y-90298675D01*
X133221325Y-89535000D01*
X133221325Y-89535000D01*
G37*
D17*
X132947910Y-90572090D03*
D12*
G36*
X132184235Y-90572090D02*
X132947910Y-89808415D01*
X133711585Y-90572090D01*
X132947910Y-91335765D01*
X132184235Y-90572090D01*
X132184235Y-90572090D01*
G37*
D17*
X136059180Y-89535000D03*
D12*
G36*
X135295505Y-89535000D02*
X136059180Y-88771325D01*
X136822855Y-89535000D01*
X136059180Y-90298675D01*
X135295505Y-89535000D01*
X135295505Y-89535000D01*
G37*
D17*
X135022090Y-90572090D03*
D12*
G36*
X134258415Y-90572090D02*
X135022090Y-89808415D01*
X135785765Y-90572090D01*
X135022090Y-91335765D01*
X134258415Y-90572090D01*
X134258415Y-90572090D01*
G37*
D17*
X133985000Y-91609180D03*
D12*
G36*
X133221325Y-91609180D02*
X133985000Y-90845505D01*
X134748675Y-91609180D01*
X133985000Y-92372855D01*
X133221325Y-91609180D01*
X133221325Y-91609180D01*
G37*
G04 #@! TD*
D18*
G04 #@! TO.C,U3*
X126685000Y-94869000D03*
X127635000Y-94869000D03*
X128585000Y-94869000D03*
X128585000Y-92669000D03*
X126685000Y-92669000D03*
G04 #@! TD*
D12*
G04 #@! TO.C,C13*
G36*
X141431958Y-84008710D02*
X141446276Y-84010834D01*
X141460317Y-84014351D01*
X141473946Y-84019228D01*
X141487031Y-84025417D01*
X141499447Y-84032858D01*
X141511073Y-84041481D01*
X141521798Y-84051202D01*
X141531519Y-84061927D01*
X141540142Y-84073553D01*
X141547583Y-84085969D01*
X141553772Y-84099054D01*
X141558649Y-84112683D01*
X141562166Y-84126724D01*
X141564290Y-84141042D01*
X141565000Y-84155500D01*
X141565000Y-84500500D01*
X141564290Y-84514958D01*
X141562166Y-84529276D01*
X141558649Y-84543317D01*
X141553772Y-84556946D01*
X141547583Y-84570031D01*
X141540142Y-84582447D01*
X141531519Y-84594073D01*
X141521798Y-84604798D01*
X141511073Y-84614519D01*
X141499447Y-84623142D01*
X141487031Y-84630583D01*
X141473946Y-84636772D01*
X141460317Y-84641649D01*
X141446276Y-84645166D01*
X141431958Y-84647290D01*
X141417500Y-84648000D01*
X141122500Y-84648000D01*
X141108042Y-84647290D01*
X141093724Y-84645166D01*
X141079683Y-84641649D01*
X141066054Y-84636772D01*
X141052969Y-84630583D01*
X141040553Y-84623142D01*
X141028927Y-84614519D01*
X141018202Y-84604798D01*
X141008481Y-84594073D01*
X140999858Y-84582447D01*
X140992417Y-84570031D01*
X140986228Y-84556946D01*
X140981351Y-84543317D01*
X140977834Y-84529276D01*
X140975710Y-84514958D01*
X140975000Y-84500500D01*
X140975000Y-84155500D01*
X140975710Y-84141042D01*
X140977834Y-84126724D01*
X140981351Y-84112683D01*
X140986228Y-84099054D01*
X140992417Y-84085969D01*
X140999858Y-84073553D01*
X141008481Y-84061927D01*
X141018202Y-84051202D01*
X141028927Y-84041481D01*
X141040553Y-84032858D01*
X141052969Y-84025417D01*
X141066054Y-84019228D01*
X141079683Y-84014351D01*
X141093724Y-84010834D01*
X141108042Y-84008710D01*
X141122500Y-84008000D01*
X141417500Y-84008000D01*
X141431958Y-84008710D01*
X141431958Y-84008710D01*
G37*
D13*
X141270000Y-84328000D03*
D12*
G36*
X142401958Y-84008710D02*
X142416276Y-84010834D01*
X142430317Y-84014351D01*
X142443946Y-84019228D01*
X142457031Y-84025417D01*
X142469447Y-84032858D01*
X142481073Y-84041481D01*
X142491798Y-84051202D01*
X142501519Y-84061927D01*
X142510142Y-84073553D01*
X142517583Y-84085969D01*
X142523772Y-84099054D01*
X142528649Y-84112683D01*
X142532166Y-84126724D01*
X142534290Y-84141042D01*
X142535000Y-84155500D01*
X142535000Y-84500500D01*
X142534290Y-84514958D01*
X142532166Y-84529276D01*
X142528649Y-84543317D01*
X142523772Y-84556946D01*
X142517583Y-84570031D01*
X142510142Y-84582447D01*
X142501519Y-84594073D01*
X142491798Y-84604798D01*
X142481073Y-84614519D01*
X142469447Y-84623142D01*
X142457031Y-84630583D01*
X142443946Y-84636772D01*
X142430317Y-84641649D01*
X142416276Y-84645166D01*
X142401958Y-84647290D01*
X142387500Y-84648000D01*
X142092500Y-84648000D01*
X142078042Y-84647290D01*
X142063724Y-84645166D01*
X142049683Y-84641649D01*
X142036054Y-84636772D01*
X142022969Y-84630583D01*
X142010553Y-84623142D01*
X141998927Y-84614519D01*
X141988202Y-84604798D01*
X141978481Y-84594073D01*
X141969858Y-84582447D01*
X141962417Y-84570031D01*
X141956228Y-84556946D01*
X141951351Y-84543317D01*
X141947834Y-84529276D01*
X141945710Y-84514958D01*
X141945000Y-84500500D01*
X141945000Y-84155500D01*
X141945710Y-84141042D01*
X141947834Y-84126724D01*
X141951351Y-84112683D01*
X141956228Y-84099054D01*
X141962417Y-84085969D01*
X141969858Y-84073553D01*
X141978481Y-84061927D01*
X141988202Y-84051202D01*
X141998927Y-84041481D01*
X142010553Y-84032858D01*
X142022969Y-84025417D01*
X142036054Y-84019228D01*
X142049683Y-84014351D01*
X142063724Y-84010834D01*
X142078042Y-84008710D01*
X142092500Y-84008000D01*
X142387500Y-84008000D01*
X142401958Y-84008710D01*
X142401958Y-84008710D01*
G37*
D13*
X142240000Y-84328000D03*
G04 #@! TD*
D12*
G04 #@! TO.C,R1*
G36*
X139861958Y-84008710D02*
X139876276Y-84010834D01*
X139890317Y-84014351D01*
X139903946Y-84019228D01*
X139917031Y-84025417D01*
X139929447Y-84032858D01*
X139941073Y-84041481D01*
X139951798Y-84051202D01*
X139961519Y-84061927D01*
X139970142Y-84073553D01*
X139977583Y-84085969D01*
X139983772Y-84099054D01*
X139988649Y-84112683D01*
X139992166Y-84126724D01*
X139994290Y-84141042D01*
X139995000Y-84155500D01*
X139995000Y-84500500D01*
X139994290Y-84514958D01*
X139992166Y-84529276D01*
X139988649Y-84543317D01*
X139983772Y-84556946D01*
X139977583Y-84570031D01*
X139970142Y-84582447D01*
X139961519Y-84594073D01*
X139951798Y-84604798D01*
X139941073Y-84614519D01*
X139929447Y-84623142D01*
X139917031Y-84630583D01*
X139903946Y-84636772D01*
X139890317Y-84641649D01*
X139876276Y-84645166D01*
X139861958Y-84647290D01*
X139847500Y-84648000D01*
X139552500Y-84648000D01*
X139538042Y-84647290D01*
X139523724Y-84645166D01*
X139509683Y-84641649D01*
X139496054Y-84636772D01*
X139482969Y-84630583D01*
X139470553Y-84623142D01*
X139458927Y-84614519D01*
X139448202Y-84604798D01*
X139438481Y-84594073D01*
X139429858Y-84582447D01*
X139422417Y-84570031D01*
X139416228Y-84556946D01*
X139411351Y-84543317D01*
X139407834Y-84529276D01*
X139405710Y-84514958D01*
X139405000Y-84500500D01*
X139405000Y-84155500D01*
X139405710Y-84141042D01*
X139407834Y-84126724D01*
X139411351Y-84112683D01*
X139416228Y-84099054D01*
X139422417Y-84085969D01*
X139429858Y-84073553D01*
X139438481Y-84061927D01*
X139448202Y-84051202D01*
X139458927Y-84041481D01*
X139470553Y-84032858D01*
X139482969Y-84025417D01*
X139496054Y-84019228D01*
X139509683Y-84014351D01*
X139523724Y-84010834D01*
X139538042Y-84008710D01*
X139552500Y-84008000D01*
X139847500Y-84008000D01*
X139861958Y-84008710D01*
X139861958Y-84008710D01*
G37*
D13*
X139700000Y-84328000D03*
D12*
G36*
X138891958Y-84008710D02*
X138906276Y-84010834D01*
X138920317Y-84014351D01*
X138933946Y-84019228D01*
X138947031Y-84025417D01*
X138959447Y-84032858D01*
X138971073Y-84041481D01*
X138981798Y-84051202D01*
X138991519Y-84061927D01*
X139000142Y-84073553D01*
X139007583Y-84085969D01*
X139013772Y-84099054D01*
X139018649Y-84112683D01*
X139022166Y-84126724D01*
X139024290Y-84141042D01*
X139025000Y-84155500D01*
X139025000Y-84500500D01*
X139024290Y-84514958D01*
X139022166Y-84529276D01*
X139018649Y-84543317D01*
X139013772Y-84556946D01*
X139007583Y-84570031D01*
X139000142Y-84582447D01*
X138991519Y-84594073D01*
X138981798Y-84604798D01*
X138971073Y-84614519D01*
X138959447Y-84623142D01*
X138947031Y-84630583D01*
X138933946Y-84636772D01*
X138920317Y-84641649D01*
X138906276Y-84645166D01*
X138891958Y-84647290D01*
X138877500Y-84648000D01*
X138582500Y-84648000D01*
X138568042Y-84647290D01*
X138553724Y-84645166D01*
X138539683Y-84641649D01*
X138526054Y-84636772D01*
X138512969Y-84630583D01*
X138500553Y-84623142D01*
X138488927Y-84614519D01*
X138478202Y-84604798D01*
X138468481Y-84594073D01*
X138459858Y-84582447D01*
X138452417Y-84570031D01*
X138446228Y-84556946D01*
X138441351Y-84543317D01*
X138437834Y-84529276D01*
X138435710Y-84514958D01*
X138435000Y-84500500D01*
X138435000Y-84155500D01*
X138435710Y-84141042D01*
X138437834Y-84126724D01*
X138441351Y-84112683D01*
X138446228Y-84099054D01*
X138452417Y-84085969D01*
X138459858Y-84073553D01*
X138468481Y-84061927D01*
X138478202Y-84051202D01*
X138488927Y-84041481D01*
X138500553Y-84032858D01*
X138512969Y-84025417D01*
X138526054Y-84019228D01*
X138539683Y-84014351D01*
X138553724Y-84010834D01*
X138568042Y-84008710D01*
X138582500Y-84008000D01*
X138877500Y-84008000D01*
X138891958Y-84008710D01*
X138891958Y-84008710D01*
G37*
D13*
X138730000Y-84328000D03*
G04 #@! TD*
D12*
G04 #@! TO.C,R2*
G36*
X141431958Y-85278710D02*
X141446276Y-85280834D01*
X141460317Y-85284351D01*
X141473946Y-85289228D01*
X141487031Y-85295417D01*
X141499447Y-85302858D01*
X141511073Y-85311481D01*
X141521798Y-85321202D01*
X141531519Y-85331927D01*
X141540142Y-85343553D01*
X141547583Y-85355969D01*
X141553772Y-85369054D01*
X141558649Y-85382683D01*
X141562166Y-85396724D01*
X141564290Y-85411042D01*
X141565000Y-85425500D01*
X141565000Y-85770500D01*
X141564290Y-85784958D01*
X141562166Y-85799276D01*
X141558649Y-85813317D01*
X141553772Y-85826946D01*
X141547583Y-85840031D01*
X141540142Y-85852447D01*
X141531519Y-85864073D01*
X141521798Y-85874798D01*
X141511073Y-85884519D01*
X141499447Y-85893142D01*
X141487031Y-85900583D01*
X141473946Y-85906772D01*
X141460317Y-85911649D01*
X141446276Y-85915166D01*
X141431958Y-85917290D01*
X141417500Y-85918000D01*
X141122500Y-85918000D01*
X141108042Y-85917290D01*
X141093724Y-85915166D01*
X141079683Y-85911649D01*
X141066054Y-85906772D01*
X141052969Y-85900583D01*
X141040553Y-85893142D01*
X141028927Y-85884519D01*
X141018202Y-85874798D01*
X141008481Y-85864073D01*
X140999858Y-85852447D01*
X140992417Y-85840031D01*
X140986228Y-85826946D01*
X140981351Y-85813317D01*
X140977834Y-85799276D01*
X140975710Y-85784958D01*
X140975000Y-85770500D01*
X140975000Y-85425500D01*
X140975710Y-85411042D01*
X140977834Y-85396724D01*
X140981351Y-85382683D01*
X140986228Y-85369054D01*
X140992417Y-85355969D01*
X140999858Y-85343553D01*
X141008481Y-85331927D01*
X141018202Y-85321202D01*
X141028927Y-85311481D01*
X141040553Y-85302858D01*
X141052969Y-85295417D01*
X141066054Y-85289228D01*
X141079683Y-85284351D01*
X141093724Y-85280834D01*
X141108042Y-85278710D01*
X141122500Y-85278000D01*
X141417500Y-85278000D01*
X141431958Y-85278710D01*
X141431958Y-85278710D01*
G37*
D13*
X141270000Y-85598000D03*
D12*
G36*
X142401958Y-85278710D02*
X142416276Y-85280834D01*
X142430317Y-85284351D01*
X142443946Y-85289228D01*
X142457031Y-85295417D01*
X142469447Y-85302858D01*
X142481073Y-85311481D01*
X142491798Y-85321202D01*
X142501519Y-85331927D01*
X142510142Y-85343553D01*
X142517583Y-85355969D01*
X142523772Y-85369054D01*
X142528649Y-85382683D01*
X142532166Y-85396724D01*
X142534290Y-85411042D01*
X142535000Y-85425500D01*
X142535000Y-85770500D01*
X142534290Y-85784958D01*
X142532166Y-85799276D01*
X142528649Y-85813317D01*
X142523772Y-85826946D01*
X142517583Y-85840031D01*
X142510142Y-85852447D01*
X142501519Y-85864073D01*
X142491798Y-85874798D01*
X142481073Y-85884519D01*
X142469447Y-85893142D01*
X142457031Y-85900583D01*
X142443946Y-85906772D01*
X142430317Y-85911649D01*
X142416276Y-85915166D01*
X142401958Y-85917290D01*
X142387500Y-85918000D01*
X142092500Y-85918000D01*
X142078042Y-85917290D01*
X142063724Y-85915166D01*
X142049683Y-85911649D01*
X142036054Y-85906772D01*
X142022969Y-85900583D01*
X142010553Y-85893142D01*
X141998927Y-85884519D01*
X141988202Y-85874798D01*
X141978481Y-85864073D01*
X141969858Y-85852447D01*
X141962417Y-85840031D01*
X141956228Y-85826946D01*
X141951351Y-85813317D01*
X141947834Y-85799276D01*
X141945710Y-85784958D01*
X141945000Y-85770500D01*
X141945000Y-85425500D01*
X141945710Y-85411042D01*
X141947834Y-85396724D01*
X141951351Y-85382683D01*
X141956228Y-85369054D01*
X141962417Y-85355969D01*
X141969858Y-85343553D01*
X141978481Y-85331927D01*
X141988202Y-85321202D01*
X141998927Y-85311481D01*
X142010553Y-85302858D01*
X142022969Y-85295417D01*
X142036054Y-85289228D01*
X142049683Y-85284351D01*
X142063724Y-85280834D01*
X142078042Y-85278710D01*
X142092500Y-85278000D01*
X142387500Y-85278000D01*
X142401958Y-85278710D01*
X142401958Y-85278710D01*
G37*
D13*
X142240000Y-85598000D03*
G04 #@! TD*
D12*
G04 #@! TO.C,R3*
G36*
X130486958Y-94930710D02*
X130501276Y-94932834D01*
X130515317Y-94936351D01*
X130528946Y-94941228D01*
X130542031Y-94947417D01*
X130554447Y-94954858D01*
X130566073Y-94963481D01*
X130576798Y-94973202D01*
X130586519Y-94983927D01*
X130595142Y-94995553D01*
X130602583Y-95007969D01*
X130608772Y-95021054D01*
X130613649Y-95034683D01*
X130617166Y-95048724D01*
X130619290Y-95063042D01*
X130620000Y-95077500D01*
X130620000Y-95422500D01*
X130619290Y-95436958D01*
X130617166Y-95451276D01*
X130613649Y-95465317D01*
X130608772Y-95478946D01*
X130602583Y-95492031D01*
X130595142Y-95504447D01*
X130586519Y-95516073D01*
X130576798Y-95526798D01*
X130566073Y-95536519D01*
X130554447Y-95545142D01*
X130542031Y-95552583D01*
X130528946Y-95558772D01*
X130515317Y-95563649D01*
X130501276Y-95567166D01*
X130486958Y-95569290D01*
X130472500Y-95570000D01*
X130177500Y-95570000D01*
X130163042Y-95569290D01*
X130148724Y-95567166D01*
X130134683Y-95563649D01*
X130121054Y-95558772D01*
X130107969Y-95552583D01*
X130095553Y-95545142D01*
X130083927Y-95536519D01*
X130073202Y-95526798D01*
X130063481Y-95516073D01*
X130054858Y-95504447D01*
X130047417Y-95492031D01*
X130041228Y-95478946D01*
X130036351Y-95465317D01*
X130032834Y-95451276D01*
X130030710Y-95436958D01*
X130030000Y-95422500D01*
X130030000Y-95077500D01*
X130030710Y-95063042D01*
X130032834Y-95048724D01*
X130036351Y-95034683D01*
X130041228Y-95021054D01*
X130047417Y-95007969D01*
X130054858Y-94995553D01*
X130063481Y-94983927D01*
X130073202Y-94973202D01*
X130083927Y-94963481D01*
X130095553Y-94954858D01*
X130107969Y-94947417D01*
X130121054Y-94941228D01*
X130134683Y-94936351D01*
X130148724Y-94932834D01*
X130163042Y-94930710D01*
X130177500Y-94930000D01*
X130472500Y-94930000D01*
X130486958Y-94930710D01*
X130486958Y-94930710D01*
G37*
D13*
X130325000Y-95250000D03*
D12*
G36*
X131456958Y-94930710D02*
X131471276Y-94932834D01*
X131485317Y-94936351D01*
X131498946Y-94941228D01*
X131512031Y-94947417D01*
X131524447Y-94954858D01*
X131536073Y-94963481D01*
X131546798Y-94973202D01*
X131556519Y-94983927D01*
X131565142Y-94995553D01*
X131572583Y-95007969D01*
X131578772Y-95021054D01*
X131583649Y-95034683D01*
X131587166Y-95048724D01*
X131589290Y-95063042D01*
X131590000Y-95077500D01*
X131590000Y-95422500D01*
X131589290Y-95436958D01*
X131587166Y-95451276D01*
X131583649Y-95465317D01*
X131578772Y-95478946D01*
X131572583Y-95492031D01*
X131565142Y-95504447D01*
X131556519Y-95516073D01*
X131546798Y-95526798D01*
X131536073Y-95536519D01*
X131524447Y-95545142D01*
X131512031Y-95552583D01*
X131498946Y-95558772D01*
X131485317Y-95563649D01*
X131471276Y-95567166D01*
X131456958Y-95569290D01*
X131442500Y-95570000D01*
X131147500Y-95570000D01*
X131133042Y-95569290D01*
X131118724Y-95567166D01*
X131104683Y-95563649D01*
X131091054Y-95558772D01*
X131077969Y-95552583D01*
X131065553Y-95545142D01*
X131053927Y-95536519D01*
X131043202Y-95526798D01*
X131033481Y-95516073D01*
X131024858Y-95504447D01*
X131017417Y-95492031D01*
X131011228Y-95478946D01*
X131006351Y-95465317D01*
X131002834Y-95451276D01*
X131000710Y-95436958D01*
X131000000Y-95422500D01*
X131000000Y-95077500D01*
X131000710Y-95063042D01*
X131002834Y-95048724D01*
X131006351Y-95034683D01*
X131011228Y-95021054D01*
X131017417Y-95007969D01*
X131024858Y-94995553D01*
X131033481Y-94983927D01*
X131043202Y-94973202D01*
X131053927Y-94963481D01*
X131065553Y-94954858D01*
X131077969Y-94947417D01*
X131091054Y-94941228D01*
X131104683Y-94936351D01*
X131118724Y-94932834D01*
X131133042Y-94930710D01*
X131147500Y-94930000D01*
X131442500Y-94930000D01*
X131456958Y-94930710D01*
X131456958Y-94930710D01*
G37*
D13*
X131295000Y-95250000D03*
G04 #@! TD*
D12*
G04 #@! TO.C,C14*
G36*
X113999958Y-94549710D02*
X114014276Y-94551834D01*
X114028317Y-94555351D01*
X114041946Y-94560228D01*
X114055031Y-94566417D01*
X114067447Y-94573858D01*
X114079073Y-94582481D01*
X114089798Y-94592202D01*
X114099519Y-94602927D01*
X114108142Y-94614553D01*
X114115583Y-94626969D01*
X114121772Y-94640054D01*
X114126649Y-94653683D01*
X114130166Y-94667724D01*
X114132290Y-94682042D01*
X114133000Y-94696500D01*
X114133000Y-95041500D01*
X114132290Y-95055958D01*
X114130166Y-95070276D01*
X114126649Y-95084317D01*
X114121772Y-95097946D01*
X114115583Y-95111031D01*
X114108142Y-95123447D01*
X114099519Y-95135073D01*
X114089798Y-95145798D01*
X114079073Y-95155519D01*
X114067447Y-95164142D01*
X114055031Y-95171583D01*
X114041946Y-95177772D01*
X114028317Y-95182649D01*
X114014276Y-95186166D01*
X113999958Y-95188290D01*
X113985500Y-95189000D01*
X113690500Y-95189000D01*
X113676042Y-95188290D01*
X113661724Y-95186166D01*
X113647683Y-95182649D01*
X113634054Y-95177772D01*
X113620969Y-95171583D01*
X113608553Y-95164142D01*
X113596927Y-95155519D01*
X113586202Y-95145798D01*
X113576481Y-95135073D01*
X113567858Y-95123447D01*
X113560417Y-95111031D01*
X113554228Y-95097946D01*
X113549351Y-95084317D01*
X113545834Y-95070276D01*
X113543710Y-95055958D01*
X113543000Y-95041500D01*
X113543000Y-94696500D01*
X113543710Y-94682042D01*
X113545834Y-94667724D01*
X113549351Y-94653683D01*
X113554228Y-94640054D01*
X113560417Y-94626969D01*
X113567858Y-94614553D01*
X113576481Y-94602927D01*
X113586202Y-94592202D01*
X113596927Y-94582481D01*
X113608553Y-94573858D01*
X113620969Y-94566417D01*
X113634054Y-94560228D01*
X113647683Y-94555351D01*
X113661724Y-94551834D01*
X113676042Y-94549710D01*
X113690500Y-94549000D01*
X113985500Y-94549000D01*
X113999958Y-94549710D01*
X113999958Y-94549710D01*
G37*
D13*
X113838000Y-94869000D03*
D12*
G36*
X114969958Y-94549710D02*
X114984276Y-94551834D01*
X114998317Y-94555351D01*
X115011946Y-94560228D01*
X115025031Y-94566417D01*
X115037447Y-94573858D01*
X115049073Y-94582481D01*
X115059798Y-94592202D01*
X115069519Y-94602927D01*
X115078142Y-94614553D01*
X115085583Y-94626969D01*
X115091772Y-94640054D01*
X115096649Y-94653683D01*
X115100166Y-94667724D01*
X115102290Y-94682042D01*
X115103000Y-94696500D01*
X115103000Y-95041500D01*
X115102290Y-95055958D01*
X115100166Y-95070276D01*
X115096649Y-95084317D01*
X115091772Y-95097946D01*
X115085583Y-95111031D01*
X115078142Y-95123447D01*
X115069519Y-95135073D01*
X115059798Y-95145798D01*
X115049073Y-95155519D01*
X115037447Y-95164142D01*
X115025031Y-95171583D01*
X115011946Y-95177772D01*
X114998317Y-95182649D01*
X114984276Y-95186166D01*
X114969958Y-95188290D01*
X114955500Y-95189000D01*
X114660500Y-95189000D01*
X114646042Y-95188290D01*
X114631724Y-95186166D01*
X114617683Y-95182649D01*
X114604054Y-95177772D01*
X114590969Y-95171583D01*
X114578553Y-95164142D01*
X114566927Y-95155519D01*
X114556202Y-95145798D01*
X114546481Y-95135073D01*
X114537858Y-95123447D01*
X114530417Y-95111031D01*
X114524228Y-95097946D01*
X114519351Y-95084317D01*
X114515834Y-95070276D01*
X114513710Y-95055958D01*
X114513000Y-95041500D01*
X114513000Y-94696500D01*
X114513710Y-94682042D01*
X114515834Y-94667724D01*
X114519351Y-94653683D01*
X114524228Y-94640054D01*
X114530417Y-94626969D01*
X114537858Y-94614553D01*
X114546481Y-94602927D01*
X114556202Y-94592202D01*
X114566927Y-94582481D01*
X114578553Y-94573858D01*
X114590969Y-94566417D01*
X114604054Y-94560228D01*
X114617683Y-94555351D01*
X114631724Y-94551834D01*
X114646042Y-94549710D01*
X114660500Y-94549000D01*
X114955500Y-94549000D01*
X114969958Y-94549710D01*
X114969958Y-94549710D01*
G37*
D13*
X114808000Y-94869000D03*
G04 #@! TD*
D12*
G04 #@! TO.C,C15*
G36*
X121931958Y-83754710D02*
X121946276Y-83756834D01*
X121960317Y-83760351D01*
X121973946Y-83765228D01*
X121987031Y-83771417D01*
X121999447Y-83778858D01*
X122011073Y-83787481D01*
X122021798Y-83797202D01*
X122031519Y-83807927D01*
X122040142Y-83819553D01*
X122047583Y-83831969D01*
X122053772Y-83845054D01*
X122058649Y-83858683D01*
X122062166Y-83872724D01*
X122064290Y-83887042D01*
X122065000Y-83901500D01*
X122065000Y-84246500D01*
X122064290Y-84260958D01*
X122062166Y-84275276D01*
X122058649Y-84289317D01*
X122053772Y-84302946D01*
X122047583Y-84316031D01*
X122040142Y-84328447D01*
X122031519Y-84340073D01*
X122021798Y-84350798D01*
X122011073Y-84360519D01*
X121999447Y-84369142D01*
X121987031Y-84376583D01*
X121973946Y-84382772D01*
X121960317Y-84387649D01*
X121946276Y-84391166D01*
X121931958Y-84393290D01*
X121917500Y-84394000D01*
X121622500Y-84394000D01*
X121608042Y-84393290D01*
X121593724Y-84391166D01*
X121579683Y-84387649D01*
X121566054Y-84382772D01*
X121552969Y-84376583D01*
X121540553Y-84369142D01*
X121528927Y-84360519D01*
X121518202Y-84350798D01*
X121508481Y-84340073D01*
X121499858Y-84328447D01*
X121492417Y-84316031D01*
X121486228Y-84302946D01*
X121481351Y-84289317D01*
X121477834Y-84275276D01*
X121475710Y-84260958D01*
X121475000Y-84246500D01*
X121475000Y-83901500D01*
X121475710Y-83887042D01*
X121477834Y-83872724D01*
X121481351Y-83858683D01*
X121486228Y-83845054D01*
X121492417Y-83831969D01*
X121499858Y-83819553D01*
X121508481Y-83807927D01*
X121518202Y-83797202D01*
X121528927Y-83787481D01*
X121540553Y-83778858D01*
X121552969Y-83771417D01*
X121566054Y-83765228D01*
X121579683Y-83760351D01*
X121593724Y-83756834D01*
X121608042Y-83754710D01*
X121622500Y-83754000D01*
X121917500Y-83754000D01*
X121931958Y-83754710D01*
X121931958Y-83754710D01*
G37*
D13*
X121770000Y-84074000D03*
D12*
G36*
X120961958Y-83754710D02*
X120976276Y-83756834D01*
X120990317Y-83760351D01*
X121003946Y-83765228D01*
X121017031Y-83771417D01*
X121029447Y-83778858D01*
X121041073Y-83787481D01*
X121051798Y-83797202D01*
X121061519Y-83807927D01*
X121070142Y-83819553D01*
X121077583Y-83831969D01*
X121083772Y-83845054D01*
X121088649Y-83858683D01*
X121092166Y-83872724D01*
X121094290Y-83887042D01*
X121095000Y-83901500D01*
X121095000Y-84246500D01*
X121094290Y-84260958D01*
X121092166Y-84275276D01*
X121088649Y-84289317D01*
X121083772Y-84302946D01*
X121077583Y-84316031D01*
X121070142Y-84328447D01*
X121061519Y-84340073D01*
X121051798Y-84350798D01*
X121041073Y-84360519D01*
X121029447Y-84369142D01*
X121017031Y-84376583D01*
X121003946Y-84382772D01*
X120990317Y-84387649D01*
X120976276Y-84391166D01*
X120961958Y-84393290D01*
X120947500Y-84394000D01*
X120652500Y-84394000D01*
X120638042Y-84393290D01*
X120623724Y-84391166D01*
X120609683Y-84387649D01*
X120596054Y-84382772D01*
X120582969Y-84376583D01*
X120570553Y-84369142D01*
X120558927Y-84360519D01*
X120548202Y-84350798D01*
X120538481Y-84340073D01*
X120529858Y-84328447D01*
X120522417Y-84316031D01*
X120516228Y-84302946D01*
X120511351Y-84289317D01*
X120507834Y-84275276D01*
X120505710Y-84260958D01*
X120505000Y-84246500D01*
X120505000Y-83901500D01*
X120505710Y-83887042D01*
X120507834Y-83872724D01*
X120511351Y-83858683D01*
X120516228Y-83845054D01*
X120522417Y-83831969D01*
X120529858Y-83819553D01*
X120538481Y-83807927D01*
X120548202Y-83797202D01*
X120558927Y-83787481D01*
X120570553Y-83778858D01*
X120582969Y-83771417D01*
X120596054Y-83765228D01*
X120609683Y-83760351D01*
X120623724Y-83756834D01*
X120638042Y-83754710D01*
X120652500Y-83754000D01*
X120947500Y-83754000D01*
X120961958Y-83754710D01*
X120961958Y-83754710D01*
G37*
D13*
X120800000Y-84074000D03*
G04 #@! TD*
D12*
G04 #@! TO.C,D1*
G36*
X112965191Y-83600053D02*
X112986426Y-83603203D01*
X113007250Y-83608419D01*
X113027462Y-83615651D01*
X113046868Y-83624830D01*
X113065281Y-83635866D01*
X113082524Y-83648654D01*
X113098430Y-83663070D01*
X113112846Y-83678976D01*
X113125634Y-83696219D01*
X113136670Y-83714632D01*
X113145849Y-83734038D01*
X113153081Y-83754250D01*
X113158297Y-83775074D01*
X113161447Y-83796309D01*
X113162500Y-83817750D01*
X113162500Y-84330250D01*
X113161447Y-84351691D01*
X113158297Y-84372926D01*
X113153081Y-84393750D01*
X113145849Y-84413962D01*
X113136670Y-84433368D01*
X113125634Y-84451781D01*
X113112846Y-84469024D01*
X113098430Y-84484930D01*
X113082524Y-84499346D01*
X113065281Y-84512134D01*
X113046868Y-84523170D01*
X113027462Y-84532349D01*
X113007250Y-84539581D01*
X112986426Y-84544797D01*
X112965191Y-84547947D01*
X112943750Y-84549000D01*
X112506250Y-84549000D01*
X112484809Y-84547947D01*
X112463574Y-84544797D01*
X112442750Y-84539581D01*
X112422538Y-84532349D01*
X112403132Y-84523170D01*
X112384719Y-84512134D01*
X112367476Y-84499346D01*
X112351570Y-84484930D01*
X112337154Y-84469024D01*
X112324366Y-84451781D01*
X112313330Y-84433368D01*
X112304151Y-84413962D01*
X112296919Y-84393750D01*
X112291703Y-84372926D01*
X112288553Y-84351691D01*
X112287500Y-84330250D01*
X112287500Y-83817750D01*
X112288553Y-83796309D01*
X112291703Y-83775074D01*
X112296919Y-83754250D01*
X112304151Y-83734038D01*
X112313330Y-83714632D01*
X112324366Y-83696219D01*
X112337154Y-83678976D01*
X112351570Y-83663070D01*
X112367476Y-83648654D01*
X112384719Y-83635866D01*
X112403132Y-83624830D01*
X112422538Y-83615651D01*
X112442750Y-83608419D01*
X112463574Y-83603203D01*
X112484809Y-83600053D01*
X112506250Y-83599000D01*
X112943750Y-83599000D01*
X112965191Y-83600053D01*
X112965191Y-83600053D01*
G37*
D19*
X112725000Y-84074000D03*
D12*
G36*
X114540191Y-83600053D02*
X114561426Y-83603203D01*
X114582250Y-83608419D01*
X114602462Y-83615651D01*
X114621868Y-83624830D01*
X114640281Y-83635866D01*
X114657524Y-83648654D01*
X114673430Y-83663070D01*
X114687846Y-83678976D01*
X114700634Y-83696219D01*
X114711670Y-83714632D01*
X114720849Y-83734038D01*
X114728081Y-83754250D01*
X114733297Y-83775074D01*
X114736447Y-83796309D01*
X114737500Y-83817750D01*
X114737500Y-84330250D01*
X114736447Y-84351691D01*
X114733297Y-84372926D01*
X114728081Y-84393750D01*
X114720849Y-84413962D01*
X114711670Y-84433368D01*
X114700634Y-84451781D01*
X114687846Y-84469024D01*
X114673430Y-84484930D01*
X114657524Y-84499346D01*
X114640281Y-84512134D01*
X114621868Y-84523170D01*
X114602462Y-84532349D01*
X114582250Y-84539581D01*
X114561426Y-84544797D01*
X114540191Y-84547947D01*
X114518750Y-84549000D01*
X114081250Y-84549000D01*
X114059809Y-84547947D01*
X114038574Y-84544797D01*
X114017750Y-84539581D01*
X113997538Y-84532349D01*
X113978132Y-84523170D01*
X113959719Y-84512134D01*
X113942476Y-84499346D01*
X113926570Y-84484930D01*
X113912154Y-84469024D01*
X113899366Y-84451781D01*
X113888330Y-84433368D01*
X113879151Y-84413962D01*
X113871919Y-84393750D01*
X113866703Y-84372926D01*
X113863553Y-84351691D01*
X113862500Y-84330250D01*
X113862500Y-83817750D01*
X113863553Y-83796309D01*
X113866703Y-83775074D01*
X113871919Y-83754250D01*
X113879151Y-83734038D01*
X113888330Y-83714632D01*
X113899366Y-83696219D01*
X113912154Y-83678976D01*
X113926570Y-83663070D01*
X113942476Y-83648654D01*
X113959719Y-83635866D01*
X113978132Y-83624830D01*
X113997538Y-83615651D01*
X114017750Y-83608419D01*
X114038574Y-83603203D01*
X114059809Y-83600053D01*
X114081250Y-83599000D01*
X114518750Y-83599000D01*
X114540191Y-83600053D01*
X114540191Y-83600053D01*
G37*
D19*
X114300000Y-84074000D03*
G04 #@! TD*
D20*
G04 #@! TO.C,J2*
X112616000Y-90575000D03*
D21*
X115316000Y-88925000D03*
X115316000Y-88275000D03*
X115316000Y-90875000D03*
X115316000Y-90225000D03*
X115316000Y-89575000D03*
D20*
X112616000Y-88575000D03*
G04 #@! TD*
D12*
G04 #@! TO.C,R4*
G36*
X116874958Y-83754710D02*
X116889276Y-83756834D01*
X116903317Y-83760351D01*
X116916946Y-83765228D01*
X116930031Y-83771417D01*
X116942447Y-83778858D01*
X116954073Y-83787481D01*
X116964798Y-83797202D01*
X116974519Y-83807927D01*
X116983142Y-83819553D01*
X116990583Y-83831969D01*
X116996772Y-83845054D01*
X117001649Y-83858683D01*
X117005166Y-83872724D01*
X117007290Y-83887042D01*
X117008000Y-83901500D01*
X117008000Y-84246500D01*
X117007290Y-84260958D01*
X117005166Y-84275276D01*
X117001649Y-84289317D01*
X116996772Y-84302946D01*
X116990583Y-84316031D01*
X116983142Y-84328447D01*
X116974519Y-84340073D01*
X116964798Y-84350798D01*
X116954073Y-84360519D01*
X116942447Y-84369142D01*
X116930031Y-84376583D01*
X116916946Y-84382772D01*
X116903317Y-84387649D01*
X116889276Y-84391166D01*
X116874958Y-84393290D01*
X116860500Y-84394000D01*
X116565500Y-84394000D01*
X116551042Y-84393290D01*
X116536724Y-84391166D01*
X116522683Y-84387649D01*
X116509054Y-84382772D01*
X116495969Y-84376583D01*
X116483553Y-84369142D01*
X116471927Y-84360519D01*
X116461202Y-84350798D01*
X116451481Y-84340073D01*
X116442858Y-84328447D01*
X116435417Y-84316031D01*
X116429228Y-84302946D01*
X116424351Y-84289317D01*
X116420834Y-84275276D01*
X116418710Y-84260958D01*
X116418000Y-84246500D01*
X116418000Y-83901500D01*
X116418710Y-83887042D01*
X116420834Y-83872724D01*
X116424351Y-83858683D01*
X116429228Y-83845054D01*
X116435417Y-83831969D01*
X116442858Y-83819553D01*
X116451481Y-83807927D01*
X116461202Y-83797202D01*
X116471927Y-83787481D01*
X116483553Y-83778858D01*
X116495969Y-83771417D01*
X116509054Y-83765228D01*
X116522683Y-83760351D01*
X116536724Y-83756834D01*
X116551042Y-83754710D01*
X116565500Y-83754000D01*
X116860500Y-83754000D01*
X116874958Y-83754710D01*
X116874958Y-83754710D01*
G37*
D13*
X116713000Y-84074000D03*
D12*
G36*
X115904958Y-83754710D02*
X115919276Y-83756834D01*
X115933317Y-83760351D01*
X115946946Y-83765228D01*
X115960031Y-83771417D01*
X115972447Y-83778858D01*
X115984073Y-83787481D01*
X115994798Y-83797202D01*
X116004519Y-83807927D01*
X116013142Y-83819553D01*
X116020583Y-83831969D01*
X116026772Y-83845054D01*
X116031649Y-83858683D01*
X116035166Y-83872724D01*
X116037290Y-83887042D01*
X116038000Y-83901500D01*
X116038000Y-84246500D01*
X116037290Y-84260958D01*
X116035166Y-84275276D01*
X116031649Y-84289317D01*
X116026772Y-84302946D01*
X116020583Y-84316031D01*
X116013142Y-84328447D01*
X116004519Y-84340073D01*
X115994798Y-84350798D01*
X115984073Y-84360519D01*
X115972447Y-84369142D01*
X115960031Y-84376583D01*
X115946946Y-84382772D01*
X115933317Y-84387649D01*
X115919276Y-84391166D01*
X115904958Y-84393290D01*
X115890500Y-84394000D01*
X115595500Y-84394000D01*
X115581042Y-84393290D01*
X115566724Y-84391166D01*
X115552683Y-84387649D01*
X115539054Y-84382772D01*
X115525969Y-84376583D01*
X115513553Y-84369142D01*
X115501927Y-84360519D01*
X115491202Y-84350798D01*
X115481481Y-84340073D01*
X115472858Y-84328447D01*
X115465417Y-84316031D01*
X115459228Y-84302946D01*
X115454351Y-84289317D01*
X115450834Y-84275276D01*
X115448710Y-84260958D01*
X115448000Y-84246500D01*
X115448000Y-83901500D01*
X115448710Y-83887042D01*
X115450834Y-83872724D01*
X115454351Y-83858683D01*
X115459228Y-83845054D01*
X115465417Y-83831969D01*
X115472858Y-83819553D01*
X115481481Y-83807927D01*
X115491202Y-83797202D01*
X115501927Y-83787481D01*
X115513553Y-83778858D01*
X115525969Y-83771417D01*
X115539054Y-83765228D01*
X115552683Y-83760351D01*
X115566724Y-83756834D01*
X115581042Y-83754710D01*
X115595500Y-83754000D01*
X115890500Y-83754000D01*
X115904958Y-83754710D01*
X115904958Y-83754710D01*
G37*
D13*
X115743000Y-84074000D03*
G04 #@! TD*
D12*
G04 #@! TO.C,R5*
G36*
X118675958Y-83754710D02*
X118690276Y-83756834D01*
X118704317Y-83760351D01*
X118717946Y-83765228D01*
X118731031Y-83771417D01*
X118743447Y-83778858D01*
X118755073Y-83787481D01*
X118765798Y-83797202D01*
X118775519Y-83807927D01*
X118784142Y-83819553D01*
X118791583Y-83831969D01*
X118797772Y-83845054D01*
X118802649Y-83858683D01*
X118806166Y-83872724D01*
X118808290Y-83887042D01*
X118809000Y-83901500D01*
X118809000Y-84246500D01*
X118808290Y-84260958D01*
X118806166Y-84275276D01*
X118802649Y-84289317D01*
X118797772Y-84302946D01*
X118791583Y-84316031D01*
X118784142Y-84328447D01*
X118775519Y-84340073D01*
X118765798Y-84350798D01*
X118755073Y-84360519D01*
X118743447Y-84369142D01*
X118731031Y-84376583D01*
X118717946Y-84382772D01*
X118704317Y-84387649D01*
X118690276Y-84391166D01*
X118675958Y-84393290D01*
X118661500Y-84394000D01*
X118366500Y-84394000D01*
X118352042Y-84393290D01*
X118337724Y-84391166D01*
X118323683Y-84387649D01*
X118310054Y-84382772D01*
X118296969Y-84376583D01*
X118284553Y-84369142D01*
X118272927Y-84360519D01*
X118262202Y-84350798D01*
X118252481Y-84340073D01*
X118243858Y-84328447D01*
X118236417Y-84316031D01*
X118230228Y-84302946D01*
X118225351Y-84289317D01*
X118221834Y-84275276D01*
X118219710Y-84260958D01*
X118219000Y-84246500D01*
X118219000Y-83901500D01*
X118219710Y-83887042D01*
X118221834Y-83872724D01*
X118225351Y-83858683D01*
X118230228Y-83845054D01*
X118236417Y-83831969D01*
X118243858Y-83819553D01*
X118252481Y-83807927D01*
X118262202Y-83797202D01*
X118272927Y-83787481D01*
X118284553Y-83778858D01*
X118296969Y-83771417D01*
X118310054Y-83765228D01*
X118323683Y-83760351D01*
X118337724Y-83756834D01*
X118352042Y-83754710D01*
X118366500Y-83754000D01*
X118661500Y-83754000D01*
X118675958Y-83754710D01*
X118675958Y-83754710D01*
G37*
D13*
X118514000Y-84074000D03*
D12*
G36*
X119645958Y-83754710D02*
X119660276Y-83756834D01*
X119674317Y-83760351D01*
X119687946Y-83765228D01*
X119701031Y-83771417D01*
X119713447Y-83778858D01*
X119725073Y-83787481D01*
X119735798Y-83797202D01*
X119745519Y-83807927D01*
X119754142Y-83819553D01*
X119761583Y-83831969D01*
X119767772Y-83845054D01*
X119772649Y-83858683D01*
X119776166Y-83872724D01*
X119778290Y-83887042D01*
X119779000Y-83901500D01*
X119779000Y-84246500D01*
X119778290Y-84260958D01*
X119776166Y-84275276D01*
X119772649Y-84289317D01*
X119767772Y-84302946D01*
X119761583Y-84316031D01*
X119754142Y-84328447D01*
X119745519Y-84340073D01*
X119735798Y-84350798D01*
X119725073Y-84360519D01*
X119713447Y-84369142D01*
X119701031Y-84376583D01*
X119687946Y-84382772D01*
X119674317Y-84387649D01*
X119660276Y-84391166D01*
X119645958Y-84393290D01*
X119631500Y-84394000D01*
X119336500Y-84394000D01*
X119322042Y-84393290D01*
X119307724Y-84391166D01*
X119293683Y-84387649D01*
X119280054Y-84382772D01*
X119266969Y-84376583D01*
X119254553Y-84369142D01*
X119242927Y-84360519D01*
X119232202Y-84350798D01*
X119222481Y-84340073D01*
X119213858Y-84328447D01*
X119206417Y-84316031D01*
X119200228Y-84302946D01*
X119195351Y-84289317D01*
X119191834Y-84275276D01*
X119189710Y-84260958D01*
X119189000Y-84246500D01*
X119189000Y-83901500D01*
X119189710Y-83887042D01*
X119191834Y-83872724D01*
X119195351Y-83858683D01*
X119200228Y-83845054D01*
X119206417Y-83831969D01*
X119213858Y-83819553D01*
X119222481Y-83807927D01*
X119232202Y-83797202D01*
X119242927Y-83787481D01*
X119254553Y-83778858D01*
X119266969Y-83771417D01*
X119280054Y-83765228D01*
X119293683Y-83760351D01*
X119307724Y-83756834D01*
X119322042Y-83754710D01*
X119336500Y-83754000D01*
X119631500Y-83754000D01*
X119645958Y-83754710D01*
X119645958Y-83754710D01*
G37*
D13*
X119484000Y-84074000D03*
G04 #@! TD*
D12*
G04 #@! TO.C,R6*
G36*
X122741958Y-94805710D02*
X122756276Y-94807834D01*
X122770317Y-94811351D01*
X122783946Y-94816228D01*
X122797031Y-94822417D01*
X122809447Y-94829858D01*
X122821073Y-94838481D01*
X122831798Y-94848202D01*
X122841519Y-94858927D01*
X122850142Y-94870553D01*
X122857583Y-94882969D01*
X122863772Y-94896054D01*
X122868649Y-94909683D01*
X122872166Y-94923724D01*
X122874290Y-94938042D01*
X122875000Y-94952500D01*
X122875000Y-95247500D01*
X122874290Y-95261958D01*
X122872166Y-95276276D01*
X122868649Y-95290317D01*
X122863772Y-95303946D01*
X122857583Y-95317031D01*
X122850142Y-95329447D01*
X122841519Y-95341073D01*
X122831798Y-95351798D01*
X122821073Y-95361519D01*
X122809447Y-95370142D01*
X122797031Y-95377583D01*
X122783946Y-95383772D01*
X122770317Y-95388649D01*
X122756276Y-95392166D01*
X122741958Y-95394290D01*
X122727500Y-95395000D01*
X122382500Y-95395000D01*
X122368042Y-95394290D01*
X122353724Y-95392166D01*
X122339683Y-95388649D01*
X122326054Y-95383772D01*
X122312969Y-95377583D01*
X122300553Y-95370142D01*
X122288927Y-95361519D01*
X122278202Y-95351798D01*
X122268481Y-95341073D01*
X122259858Y-95329447D01*
X122252417Y-95317031D01*
X122246228Y-95303946D01*
X122241351Y-95290317D01*
X122237834Y-95276276D01*
X122235710Y-95261958D01*
X122235000Y-95247500D01*
X122235000Y-94952500D01*
X122235710Y-94938042D01*
X122237834Y-94923724D01*
X122241351Y-94909683D01*
X122246228Y-94896054D01*
X122252417Y-94882969D01*
X122259858Y-94870553D01*
X122268481Y-94858927D01*
X122278202Y-94848202D01*
X122288927Y-94838481D01*
X122300553Y-94829858D01*
X122312969Y-94822417D01*
X122326054Y-94816228D01*
X122339683Y-94811351D01*
X122353724Y-94807834D01*
X122368042Y-94805710D01*
X122382500Y-94805000D01*
X122727500Y-94805000D01*
X122741958Y-94805710D01*
X122741958Y-94805710D01*
G37*
D13*
X122555000Y-95100000D03*
D12*
G36*
X122741958Y-93835710D02*
X122756276Y-93837834D01*
X122770317Y-93841351D01*
X122783946Y-93846228D01*
X122797031Y-93852417D01*
X122809447Y-93859858D01*
X122821073Y-93868481D01*
X122831798Y-93878202D01*
X122841519Y-93888927D01*
X122850142Y-93900553D01*
X122857583Y-93912969D01*
X122863772Y-93926054D01*
X122868649Y-93939683D01*
X122872166Y-93953724D01*
X122874290Y-93968042D01*
X122875000Y-93982500D01*
X122875000Y-94277500D01*
X122874290Y-94291958D01*
X122872166Y-94306276D01*
X122868649Y-94320317D01*
X122863772Y-94333946D01*
X122857583Y-94347031D01*
X122850142Y-94359447D01*
X122841519Y-94371073D01*
X122831798Y-94381798D01*
X122821073Y-94391519D01*
X122809447Y-94400142D01*
X122797031Y-94407583D01*
X122783946Y-94413772D01*
X122770317Y-94418649D01*
X122756276Y-94422166D01*
X122741958Y-94424290D01*
X122727500Y-94425000D01*
X122382500Y-94425000D01*
X122368042Y-94424290D01*
X122353724Y-94422166D01*
X122339683Y-94418649D01*
X122326054Y-94413772D01*
X122312969Y-94407583D01*
X122300553Y-94400142D01*
X122288927Y-94391519D01*
X122278202Y-94381798D01*
X122268481Y-94371073D01*
X122259858Y-94359447D01*
X122252417Y-94347031D01*
X122246228Y-94333946D01*
X122241351Y-94320317D01*
X122237834Y-94306276D01*
X122235710Y-94291958D01*
X122235000Y-94277500D01*
X122235000Y-93982500D01*
X122235710Y-93968042D01*
X122237834Y-93953724D01*
X122241351Y-93939683D01*
X122246228Y-93926054D01*
X122252417Y-93912969D01*
X122259858Y-93900553D01*
X122268481Y-93888927D01*
X122278202Y-93878202D01*
X122288927Y-93868481D01*
X122300553Y-93859858D01*
X122312969Y-93852417D01*
X122326054Y-93846228D01*
X122339683Y-93841351D01*
X122353724Y-93837834D01*
X122368042Y-93835710D01*
X122382500Y-93835000D01*
X122727500Y-93835000D01*
X122741958Y-93835710D01*
X122741958Y-93835710D01*
G37*
D13*
X122555000Y-94130000D03*
G04 #@! TD*
D22*
G04 #@! TO.C,U4*
X118661000Y-93157000D03*
X118661000Y-94107000D03*
X118661000Y-95057000D03*
X120861000Y-95057000D03*
X120861000Y-93157000D03*
G04 #@! TD*
D12*
G04 #@! TO.C,C6*
G36*
X126551958Y-90995710D02*
X126566276Y-90997834D01*
X126580317Y-91001351D01*
X126593946Y-91006228D01*
X126607031Y-91012417D01*
X126619447Y-91019858D01*
X126631073Y-91028481D01*
X126641798Y-91038202D01*
X126651519Y-91048927D01*
X126660142Y-91060553D01*
X126667583Y-91072969D01*
X126673772Y-91086054D01*
X126678649Y-91099683D01*
X126682166Y-91113724D01*
X126684290Y-91128042D01*
X126685000Y-91142500D01*
X126685000Y-91437500D01*
X126684290Y-91451958D01*
X126682166Y-91466276D01*
X126678649Y-91480317D01*
X126673772Y-91493946D01*
X126667583Y-91507031D01*
X126660142Y-91519447D01*
X126651519Y-91531073D01*
X126641798Y-91541798D01*
X126631073Y-91551519D01*
X126619447Y-91560142D01*
X126607031Y-91567583D01*
X126593946Y-91573772D01*
X126580317Y-91578649D01*
X126566276Y-91582166D01*
X126551958Y-91584290D01*
X126537500Y-91585000D01*
X126192500Y-91585000D01*
X126178042Y-91584290D01*
X126163724Y-91582166D01*
X126149683Y-91578649D01*
X126136054Y-91573772D01*
X126122969Y-91567583D01*
X126110553Y-91560142D01*
X126098927Y-91551519D01*
X126088202Y-91541798D01*
X126078481Y-91531073D01*
X126069858Y-91519447D01*
X126062417Y-91507031D01*
X126056228Y-91493946D01*
X126051351Y-91480317D01*
X126047834Y-91466276D01*
X126045710Y-91451958D01*
X126045000Y-91437500D01*
X126045000Y-91142500D01*
X126045710Y-91128042D01*
X126047834Y-91113724D01*
X126051351Y-91099683D01*
X126056228Y-91086054D01*
X126062417Y-91072969D01*
X126069858Y-91060553D01*
X126078481Y-91048927D01*
X126088202Y-91038202D01*
X126098927Y-91028481D01*
X126110553Y-91019858D01*
X126122969Y-91012417D01*
X126136054Y-91006228D01*
X126149683Y-91001351D01*
X126163724Y-90997834D01*
X126178042Y-90995710D01*
X126192500Y-90995000D01*
X126537500Y-90995000D01*
X126551958Y-90995710D01*
X126551958Y-90995710D01*
G37*
D13*
X126365000Y-91290000D03*
D12*
G36*
X126551958Y-90025710D02*
X126566276Y-90027834D01*
X126580317Y-90031351D01*
X126593946Y-90036228D01*
X126607031Y-90042417D01*
X126619447Y-90049858D01*
X126631073Y-90058481D01*
X126641798Y-90068202D01*
X126651519Y-90078927D01*
X126660142Y-90090553D01*
X126667583Y-90102969D01*
X126673772Y-90116054D01*
X126678649Y-90129683D01*
X126682166Y-90143724D01*
X126684290Y-90158042D01*
X126685000Y-90172500D01*
X126685000Y-90467500D01*
X126684290Y-90481958D01*
X126682166Y-90496276D01*
X126678649Y-90510317D01*
X126673772Y-90523946D01*
X126667583Y-90537031D01*
X126660142Y-90549447D01*
X126651519Y-90561073D01*
X126641798Y-90571798D01*
X126631073Y-90581519D01*
X126619447Y-90590142D01*
X126607031Y-90597583D01*
X126593946Y-90603772D01*
X126580317Y-90608649D01*
X126566276Y-90612166D01*
X126551958Y-90614290D01*
X126537500Y-90615000D01*
X126192500Y-90615000D01*
X126178042Y-90614290D01*
X126163724Y-90612166D01*
X126149683Y-90608649D01*
X126136054Y-90603772D01*
X126122969Y-90597583D01*
X126110553Y-90590142D01*
X126098927Y-90581519D01*
X126088202Y-90571798D01*
X126078481Y-90561073D01*
X126069858Y-90549447D01*
X126062417Y-90537031D01*
X126056228Y-90523946D01*
X126051351Y-90510317D01*
X126047834Y-90496276D01*
X126045710Y-90481958D01*
X126045000Y-90467500D01*
X126045000Y-90172500D01*
X126045710Y-90158042D01*
X126047834Y-90143724D01*
X126051351Y-90129683D01*
X126056228Y-90116054D01*
X126062417Y-90102969D01*
X126069858Y-90090553D01*
X126078481Y-90078927D01*
X126088202Y-90068202D01*
X126098927Y-90058481D01*
X126110553Y-90049858D01*
X126122969Y-90042417D01*
X126136054Y-90036228D01*
X126149683Y-90031351D01*
X126163724Y-90027834D01*
X126178042Y-90025710D01*
X126192500Y-90025000D01*
X126537500Y-90025000D01*
X126551958Y-90025710D01*
X126551958Y-90025710D01*
G37*
D13*
X126365000Y-90320000D03*
G04 #@! TD*
D12*
G04 #@! TO.C,C9*
G36*
X131906958Y-84008710D02*
X131921276Y-84010834D01*
X131935317Y-84014351D01*
X131948946Y-84019228D01*
X131962031Y-84025417D01*
X131974447Y-84032858D01*
X131986073Y-84041481D01*
X131996798Y-84051202D01*
X132006519Y-84061927D01*
X132015142Y-84073553D01*
X132022583Y-84085969D01*
X132028772Y-84099054D01*
X132033649Y-84112683D01*
X132037166Y-84126724D01*
X132039290Y-84141042D01*
X132040000Y-84155500D01*
X132040000Y-84500500D01*
X132039290Y-84514958D01*
X132037166Y-84529276D01*
X132033649Y-84543317D01*
X132028772Y-84556946D01*
X132022583Y-84570031D01*
X132015142Y-84582447D01*
X132006519Y-84594073D01*
X131996798Y-84604798D01*
X131986073Y-84614519D01*
X131974447Y-84623142D01*
X131962031Y-84630583D01*
X131948946Y-84636772D01*
X131935317Y-84641649D01*
X131921276Y-84645166D01*
X131906958Y-84647290D01*
X131892500Y-84648000D01*
X131597500Y-84648000D01*
X131583042Y-84647290D01*
X131568724Y-84645166D01*
X131554683Y-84641649D01*
X131541054Y-84636772D01*
X131527969Y-84630583D01*
X131515553Y-84623142D01*
X131503927Y-84614519D01*
X131493202Y-84604798D01*
X131483481Y-84594073D01*
X131474858Y-84582447D01*
X131467417Y-84570031D01*
X131461228Y-84556946D01*
X131456351Y-84543317D01*
X131452834Y-84529276D01*
X131450710Y-84514958D01*
X131450000Y-84500500D01*
X131450000Y-84155500D01*
X131450710Y-84141042D01*
X131452834Y-84126724D01*
X131456351Y-84112683D01*
X131461228Y-84099054D01*
X131467417Y-84085969D01*
X131474858Y-84073553D01*
X131483481Y-84061927D01*
X131493202Y-84051202D01*
X131503927Y-84041481D01*
X131515553Y-84032858D01*
X131527969Y-84025417D01*
X131541054Y-84019228D01*
X131554683Y-84014351D01*
X131568724Y-84010834D01*
X131583042Y-84008710D01*
X131597500Y-84008000D01*
X131892500Y-84008000D01*
X131906958Y-84008710D01*
X131906958Y-84008710D01*
G37*
D13*
X131745000Y-84328000D03*
D12*
G36*
X132876958Y-84008710D02*
X132891276Y-84010834D01*
X132905317Y-84014351D01*
X132918946Y-84019228D01*
X132932031Y-84025417D01*
X132944447Y-84032858D01*
X132956073Y-84041481D01*
X132966798Y-84051202D01*
X132976519Y-84061927D01*
X132985142Y-84073553D01*
X132992583Y-84085969D01*
X132998772Y-84099054D01*
X133003649Y-84112683D01*
X133007166Y-84126724D01*
X133009290Y-84141042D01*
X133010000Y-84155500D01*
X133010000Y-84500500D01*
X133009290Y-84514958D01*
X133007166Y-84529276D01*
X133003649Y-84543317D01*
X132998772Y-84556946D01*
X132992583Y-84570031D01*
X132985142Y-84582447D01*
X132976519Y-84594073D01*
X132966798Y-84604798D01*
X132956073Y-84614519D01*
X132944447Y-84623142D01*
X132932031Y-84630583D01*
X132918946Y-84636772D01*
X132905317Y-84641649D01*
X132891276Y-84645166D01*
X132876958Y-84647290D01*
X132862500Y-84648000D01*
X132567500Y-84648000D01*
X132553042Y-84647290D01*
X132538724Y-84645166D01*
X132524683Y-84641649D01*
X132511054Y-84636772D01*
X132497969Y-84630583D01*
X132485553Y-84623142D01*
X132473927Y-84614519D01*
X132463202Y-84604798D01*
X132453481Y-84594073D01*
X132444858Y-84582447D01*
X132437417Y-84570031D01*
X132431228Y-84556946D01*
X132426351Y-84543317D01*
X132422834Y-84529276D01*
X132420710Y-84514958D01*
X132420000Y-84500500D01*
X132420000Y-84155500D01*
X132420710Y-84141042D01*
X132422834Y-84126724D01*
X132426351Y-84112683D01*
X132431228Y-84099054D01*
X132437417Y-84085969D01*
X132444858Y-84073553D01*
X132453481Y-84061927D01*
X132463202Y-84051202D01*
X132473927Y-84041481D01*
X132485553Y-84032858D01*
X132497969Y-84025417D01*
X132511054Y-84019228D01*
X132524683Y-84014351D01*
X132538724Y-84010834D01*
X132553042Y-84008710D01*
X132567500Y-84008000D01*
X132862500Y-84008000D01*
X132876958Y-84008710D01*
X132876958Y-84008710D01*
G37*
D13*
X132715000Y-84328000D03*
G04 #@! TD*
D12*
G04 #@! TO.C,C10*
G36*
X135693958Y-84008710D02*
X135708276Y-84010834D01*
X135722317Y-84014351D01*
X135735946Y-84019228D01*
X135749031Y-84025417D01*
X135761447Y-84032858D01*
X135773073Y-84041481D01*
X135783798Y-84051202D01*
X135793519Y-84061927D01*
X135802142Y-84073553D01*
X135809583Y-84085969D01*
X135815772Y-84099054D01*
X135820649Y-84112683D01*
X135824166Y-84126724D01*
X135826290Y-84141042D01*
X135827000Y-84155500D01*
X135827000Y-84500500D01*
X135826290Y-84514958D01*
X135824166Y-84529276D01*
X135820649Y-84543317D01*
X135815772Y-84556946D01*
X135809583Y-84570031D01*
X135802142Y-84582447D01*
X135793519Y-84594073D01*
X135783798Y-84604798D01*
X135773073Y-84614519D01*
X135761447Y-84623142D01*
X135749031Y-84630583D01*
X135735946Y-84636772D01*
X135722317Y-84641649D01*
X135708276Y-84645166D01*
X135693958Y-84647290D01*
X135679500Y-84648000D01*
X135384500Y-84648000D01*
X135370042Y-84647290D01*
X135355724Y-84645166D01*
X135341683Y-84641649D01*
X135328054Y-84636772D01*
X135314969Y-84630583D01*
X135302553Y-84623142D01*
X135290927Y-84614519D01*
X135280202Y-84604798D01*
X135270481Y-84594073D01*
X135261858Y-84582447D01*
X135254417Y-84570031D01*
X135248228Y-84556946D01*
X135243351Y-84543317D01*
X135239834Y-84529276D01*
X135237710Y-84514958D01*
X135237000Y-84500500D01*
X135237000Y-84155500D01*
X135237710Y-84141042D01*
X135239834Y-84126724D01*
X135243351Y-84112683D01*
X135248228Y-84099054D01*
X135254417Y-84085969D01*
X135261858Y-84073553D01*
X135270481Y-84061927D01*
X135280202Y-84051202D01*
X135290927Y-84041481D01*
X135302553Y-84032858D01*
X135314969Y-84025417D01*
X135328054Y-84019228D01*
X135341683Y-84014351D01*
X135355724Y-84010834D01*
X135370042Y-84008710D01*
X135384500Y-84008000D01*
X135679500Y-84008000D01*
X135693958Y-84008710D01*
X135693958Y-84008710D01*
G37*
D13*
X135532000Y-84328000D03*
D12*
G36*
X136663958Y-84008710D02*
X136678276Y-84010834D01*
X136692317Y-84014351D01*
X136705946Y-84019228D01*
X136719031Y-84025417D01*
X136731447Y-84032858D01*
X136743073Y-84041481D01*
X136753798Y-84051202D01*
X136763519Y-84061927D01*
X136772142Y-84073553D01*
X136779583Y-84085969D01*
X136785772Y-84099054D01*
X136790649Y-84112683D01*
X136794166Y-84126724D01*
X136796290Y-84141042D01*
X136797000Y-84155500D01*
X136797000Y-84500500D01*
X136796290Y-84514958D01*
X136794166Y-84529276D01*
X136790649Y-84543317D01*
X136785772Y-84556946D01*
X136779583Y-84570031D01*
X136772142Y-84582447D01*
X136763519Y-84594073D01*
X136753798Y-84604798D01*
X136743073Y-84614519D01*
X136731447Y-84623142D01*
X136719031Y-84630583D01*
X136705946Y-84636772D01*
X136692317Y-84641649D01*
X136678276Y-84645166D01*
X136663958Y-84647290D01*
X136649500Y-84648000D01*
X136354500Y-84648000D01*
X136340042Y-84647290D01*
X136325724Y-84645166D01*
X136311683Y-84641649D01*
X136298054Y-84636772D01*
X136284969Y-84630583D01*
X136272553Y-84623142D01*
X136260927Y-84614519D01*
X136250202Y-84604798D01*
X136240481Y-84594073D01*
X136231858Y-84582447D01*
X136224417Y-84570031D01*
X136218228Y-84556946D01*
X136213351Y-84543317D01*
X136209834Y-84529276D01*
X136207710Y-84514958D01*
X136207000Y-84500500D01*
X136207000Y-84155500D01*
X136207710Y-84141042D01*
X136209834Y-84126724D01*
X136213351Y-84112683D01*
X136218228Y-84099054D01*
X136224417Y-84085969D01*
X136231858Y-84073553D01*
X136240481Y-84061927D01*
X136250202Y-84051202D01*
X136260927Y-84041481D01*
X136272553Y-84032858D01*
X136284969Y-84025417D01*
X136298054Y-84019228D01*
X136311683Y-84014351D01*
X136325724Y-84010834D01*
X136340042Y-84008710D01*
X136354500Y-84008000D01*
X136649500Y-84008000D01*
X136663958Y-84008710D01*
X136663958Y-84008710D01*
G37*
D13*
X136502000Y-84328000D03*
G04 #@! TD*
D23*
G04 #@! TO.C,D2*
X124460000Y-90771000D03*
X124460000Y-92871000D03*
G04 #@! TD*
D12*
G04 #@! TO.C,U5*
G36*
X120045505Y-88361204D02*
X120069773Y-88364804D01*
X120093572Y-88370765D01*
X120116671Y-88379030D01*
X120138850Y-88389520D01*
X120159893Y-88402132D01*
X120179599Y-88416747D01*
X120197777Y-88433223D01*
X120214253Y-88451401D01*
X120228868Y-88471107D01*
X120241480Y-88492150D01*
X120251970Y-88514329D01*
X120260235Y-88537428D01*
X120266196Y-88561227D01*
X120269796Y-88585495D01*
X120271000Y-88609999D01*
X120271000Y-89160001D01*
X120269796Y-89184505D01*
X120266196Y-89208773D01*
X120260235Y-89232572D01*
X120251970Y-89255671D01*
X120241480Y-89277850D01*
X120228868Y-89298893D01*
X120214253Y-89318599D01*
X120197777Y-89336777D01*
X120179599Y-89353253D01*
X120159893Y-89367868D01*
X120138850Y-89380480D01*
X120116671Y-89390970D01*
X120093572Y-89399235D01*
X120069773Y-89405196D01*
X120045505Y-89408796D01*
X120021001Y-89410000D01*
X119470999Y-89410000D01*
X119446495Y-89408796D01*
X119422227Y-89405196D01*
X119398428Y-89399235D01*
X119375329Y-89390970D01*
X119353150Y-89380480D01*
X119332107Y-89367868D01*
X119312401Y-89353253D01*
X119294223Y-89336777D01*
X119277747Y-89318599D01*
X119263132Y-89298893D01*
X119250520Y-89277850D01*
X119240030Y-89255671D01*
X119231765Y-89232572D01*
X119225804Y-89208773D01*
X119222204Y-89184505D01*
X119221000Y-89160001D01*
X119221000Y-88609999D01*
X119222204Y-88585495D01*
X119225804Y-88561227D01*
X119231765Y-88537428D01*
X119240030Y-88514329D01*
X119250520Y-88492150D01*
X119263132Y-88471107D01*
X119277747Y-88451401D01*
X119294223Y-88433223D01*
X119312401Y-88416747D01*
X119332107Y-88402132D01*
X119353150Y-88389520D01*
X119375329Y-88379030D01*
X119398428Y-88370765D01*
X119422227Y-88364804D01*
X119446495Y-88361204D01*
X119470999Y-88360000D01*
X120021001Y-88360000D01*
X120045505Y-88361204D01*
X120045505Y-88361204D01*
G37*
D24*
X119746000Y-88885000D03*
D12*
G36*
X120045505Y-89661204D02*
X120069773Y-89664804D01*
X120093572Y-89670765D01*
X120116671Y-89679030D01*
X120138850Y-89689520D01*
X120159893Y-89702132D01*
X120179599Y-89716747D01*
X120197777Y-89733223D01*
X120214253Y-89751401D01*
X120228868Y-89771107D01*
X120241480Y-89792150D01*
X120251970Y-89814329D01*
X120260235Y-89837428D01*
X120266196Y-89861227D01*
X120269796Y-89885495D01*
X120271000Y-89909999D01*
X120271000Y-90460001D01*
X120269796Y-90484505D01*
X120266196Y-90508773D01*
X120260235Y-90532572D01*
X120251970Y-90555671D01*
X120241480Y-90577850D01*
X120228868Y-90598893D01*
X120214253Y-90618599D01*
X120197777Y-90636777D01*
X120179599Y-90653253D01*
X120159893Y-90667868D01*
X120138850Y-90680480D01*
X120116671Y-90690970D01*
X120093572Y-90699235D01*
X120069773Y-90705196D01*
X120045505Y-90708796D01*
X120021001Y-90710000D01*
X119470999Y-90710000D01*
X119446495Y-90708796D01*
X119422227Y-90705196D01*
X119398428Y-90699235D01*
X119375329Y-90690970D01*
X119353150Y-90680480D01*
X119332107Y-90667868D01*
X119312401Y-90653253D01*
X119294223Y-90636777D01*
X119277747Y-90618599D01*
X119263132Y-90598893D01*
X119250520Y-90577850D01*
X119240030Y-90555671D01*
X119231765Y-90532572D01*
X119225804Y-90508773D01*
X119222204Y-90484505D01*
X119221000Y-90460001D01*
X119221000Y-89909999D01*
X119222204Y-89885495D01*
X119225804Y-89861227D01*
X119231765Y-89837428D01*
X119240030Y-89814329D01*
X119250520Y-89792150D01*
X119263132Y-89771107D01*
X119277747Y-89751401D01*
X119294223Y-89733223D01*
X119312401Y-89716747D01*
X119332107Y-89702132D01*
X119353150Y-89689520D01*
X119375329Y-89679030D01*
X119398428Y-89670765D01*
X119422227Y-89664804D01*
X119446495Y-89661204D01*
X119470999Y-89660000D01*
X120021001Y-89660000D01*
X120045505Y-89661204D01*
X120045505Y-89661204D01*
G37*
D24*
X119746000Y-90185000D03*
D12*
G36*
X121345505Y-88361204D02*
X121369773Y-88364804D01*
X121393572Y-88370765D01*
X121416671Y-88379030D01*
X121438850Y-88389520D01*
X121459893Y-88402132D01*
X121479599Y-88416747D01*
X121497777Y-88433223D01*
X121514253Y-88451401D01*
X121528868Y-88471107D01*
X121541480Y-88492150D01*
X121551970Y-88514329D01*
X121560235Y-88537428D01*
X121566196Y-88561227D01*
X121569796Y-88585495D01*
X121571000Y-88609999D01*
X121571000Y-89160001D01*
X121569796Y-89184505D01*
X121566196Y-89208773D01*
X121560235Y-89232572D01*
X121551970Y-89255671D01*
X121541480Y-89277850D01*
X121528868Y-89298893D01*
X121514253Y-89318599D01*
X121497777Y-89336777D01*
X121479599Y-89353253D01*
X121459893Y-89367868D01*
X121438850Y-89380480D01*
X121416671Y-89390970D01*
X121393572Y-89399235D01*
X121369773Y-89405196D01*
X121345505Y-89408796D01*
X121321001Y-89410000D01*
X120770999Y-89410000D01*
X120746495Y-89408796D01*
X120722227Y-89405196D01*
X120698428Y-89399235D01*
X120675329Y-89390970D01*
X120653150Y-89380480D01*
X120632107Y-89367868D01*
X120612401Y-89353253D01*
X120594223Y-89336777D01*
X120577747Y-89318599D01*
X120563132Y-89298893D01*
X120550520Y-89277850D01*
X120540030Y-89255671D01*
X120531765Y-89232572D01*
X120525804Y-89208773D01*
X120522204Y-89184505D01*
X120521000Y-89160001D01*
X120521000Y-88609999D01*
X120522204Y-88585495D01*
X120525804Y-88561227D01*
X120531765Y-88537428D01*
X120540030Y-88514329D01*
X120550520Y-88492150D01*
X120563132Y-88471107D01*
X120577747Y-88451401D01*
X120594223Y-88433223D01*
X120612401Y-88416747D01*
X120632107Y-88402132D01*
X120653150Y-88389520D01*
X120675329Y-88379030D01*
X120698428Y-88370765D01*
X120722227Y-88364804D01*
X120746495Y-88361204D01*
X120770999Y-88360000D01*
X121321001Y-88360000D01*
X121345505Y-88361204D01*
X121345505Y-88361204D01*
G37*
D24*
X121046000Y-88885000D03*
D12*
G36*
X121345505Y-89661204D02*
X121369773Y-89664804D01*
X121393572Y-89670765D01*
X121416671Y-89679030D01*
X121438850Y-89689520D01*
X121459893Y-89702132D01*
X121479599Y-89716747D01*
X121497777Y-89733223D01*
X121514253Y-89751401D01*
X121528868Y-89771107D01*
X121541480Y-89792150D01*
X121551970Y-89814329D01*
X121560235Y-89837428D01*
X121566196Y-89861227D01*
X121569796Y-89885495D01*
X121571000Y-89909999D01*
X121571000Y-90460001D01*
X121569796Y-90484505D01*
X121566196Y-90508773D01*
X121560235Y-90532572D01*
X121551970Y-90555671D01*
X121541480Y-90577850D01*
X121528868Y-90598893D01*
X121514253Y-90618599D01*
X121497777Y-90636777D01*
X121479599Y-90653253D01*
X121459893Y-90667868D01*
X121438850Y-90680480D01*
X121416671Y-90690970D01*
X121393572Y-90699235D01*
X121369773Y-90705196D01*
X121345505Y-90708796D01*
X121321001Y-90710000D01*
X120770999Y-90710000D01*
X120746495Y-90708796D01*
X120722227Y-90705196D01*
X120698428Y-90699235D01*
X120675329Y-90690970D01*
X120653150Y-90680480D01*
X120632107Y-90667868D01*
X120612401Y-90653253D01*
X120594223Y-90636777D01*
X120577747Y-90618599D01*
X120563132Y-90598893D01*
X120550520Y-90577850D01*
X120540030Y-90555671D01*
X120531765Y-90532572D01*
X120525804Y-90508773D01*
X120522204Y-90484505D01*
X120521000Y-90460001D01*
X120521000Y-89909999D01*
X120522204Y-89885495D01*
X120525804Y-89861227D01*
X120531765Y-89837428D01*
X120540030Y-89814329D01*
X120550520Y-89792150D01*
X120563132Y-89771107D01*
X120577747Y-89751401D01*
X120594223Y-89733223D01*
X120612401Y-89716747D01*
X120632107Y-89702132D01*
X120653150Y-89689520D01*
X120675329Y-89679030D01*
X120698428Y-89670765D01*
X120722227Y-89664804D01*
X120746495Y-89661204D01*
X120770999Y-89660000D01*
X121321001Y-89660000D01*
X121345505Y-89661204D01*
X121345505Y-89661204D01*
G37*
D24*
X121046000Y-90185000D03*
D12*
G36*
X118814626Y-88160301D02*
X118820693Y-88161201D01*
X118826643Y-88162691D01*
X118832418Y-88164758D01*
X118837962Y-88167380D01*
X118843223Y-88170533D01*
X118848150Y-88174187D01*
X118852694Y-88178306D01*
X118856813Y-88182850D01*
X118860467Y-88187777D01*
X118863620Y-88193038D01*
X118866242Y-88198582D01*
X118868309Y-88204357D01*
X118869799Y-88210307D01*
X118870699Y-88216374D01*
X118871000Y-88222500D01*
X118871000Y-88347500D01*
X118870699Y-88353626D01*
X118869799Y-88359693D01*
X118868309Y-88365643D01*
X118866242Y-88371418D01*
X118863620Y-88376962D01*
X118860467Y-88382223D01*
X118856813Y-88387150D01*
X118852694Y-88391694D01*
X118848150Y-88395813D01*
X118843223Y-88399467D01*
X118837962Y-88402620D01*
X118832418Y-88405242D01*
X118826643Y-88407309D01*
X118820693Y-88408799D01*
X118814626Y-88409699D01*
X118808500Y-88410000D01*
X118108500Y-88410000D01*
X118102374Y-88409699D01*
X118096307Y-88408799D01*
X118090357Y-88407309D01*
X118084582Y-88405242D01*
X118079038Y-88402620D01*
X118073777Y-88399467D01*
X118068850Y-88395813D01*
X118064306Y-88391694D01*
X118060187Y-88387150D01*
X118056533Y-88382223D01*
X118053380Y-88376962D01*
X118050758Y-88371418D01*
X118048691Y-88365643D01*
X118047201Y-88359693D01*
X118046301Y-88353626D01*
X118046000Y-88347500D01*
X118046000Y-88222500D01*
X118046301Y-88216374D01*
X118047201Y-88210307D01*
X118048691Y-88204357D01*
X118050758Y-88198582D01*
X118053380Y-88193038D01*
X118056533Y-88187777D01*
X118060187Y-88182850D01*
X118064306Y-88178306D01*
X118068850Y-88174187D01*
X118073777Y-88170533D01*
X118079038Y-88167380D01*
X118084582Y-88164758D01*
X118090357Y-88162691D01*
X118096307Y-88161201D01*
X118102374Y-88160301D01*
X118108500Y-88160000D01*
X118808500Y-88160000D01*
X118814626Y-88160301D01*
X118814626Y-88160301D01*
G37*
D25*
X118458500Y-88285000D03*
D12*
G36*
X118814626Y-88660301D02*
X118820693Y-88661201D01*
X118826643Y-88662691D01*
X118832418Y-88664758D01*
X118837962Y-88667380D01*
X118843223Y-88670533D01*
X118848150Y-88674187D01*
X118852694Y-88678306D01*
X118856813Y-88682850D01*
X118860467Y-88687777D01*
X118863620Y-88693038D01*
X118866242Y-88698582D01*
X118868309Y-88704357D01*
X118869799Y-88710307D01*
X118870699Y-88716374D01*
X118871000Y-88722500D01*
X118871000Y-88847500D01*
X118870699Y-88853626D01*
X118869799Y-88859693D01*
X118868309Y-88865643D01*
X118866242Y-88871418D01*
X118863620Y-88876962D01*
X118860467Y-88882223D01*
X118856813Y-88887150D01*
X118852694Y-88891694D01*
X118848150Y-88895813D01*
X118843223Y-88899467D01*
X118837962Y-88902620D01*
X118832418Y-88905242D01*
X118826643Y-88907309D01*
X118820693Y-88908799D01*
X118814626Y-88909699D01*
X118808500Y-88910000D01*
X118108500Y-88910000D01*
X118102374Y-88909699D01*
X118096307Y-88908799D01*
X118090357Y-88907309D01*
X118084582Y-88905242D01*
X118079038Y-88902620D01*
X118073777Y-88899467D01*
X118068850Y-88895813D01*
X118064306Y-88891694D01*
X118060187Y-88887150D01*
X118056533Y-88882223D01*
X118053380Y-88876962D01*
X118050758Y-88871418D01*
X118048691Y-88865643D01*
X118047201Y-88859693D01*
X118046301Y-88853626D01*
X118046000Y-88847500D01*
X118046000Y-88722500D01*
X118046301Y-88716374D01*
X118047201Y-88710307D01*
X118048691Y-88704357D01*
X118050758Y-88698582D01*
X118053380Y-88693038D01*
X118056533Y-88687777D01*
X118060187Y-88682850D01*
X118064306Y-88678306D01*
X118068850Y-88674187D01*
X118073777Y-88670533D01*
X118079038Y-88667380D01*
X118084582Y-88664758D01*
X118090357Y-88662691D01*
X118096307Y-88661201D01*
X118102374Y-88660301D01*
X118108500Y-88660000D01*
X118808500Y-88660000D01*
X118814626Y-88660301D01*
X118814626Y-88660301D01*
G37*
D25*
X118458500Y-88785000D03*
D12*
G36*
X118814626Y-89160301D02*
X118820693Y-89161201D01*
X118826643Y-89162691D01*
X118832418Y-89164758D01*
X118837962Y-89167380D01*
X118843223Y-89170533D01*
X118848150Y-89174187D01*
X118852694Y-89178306D01*
X118856813Y-89182850D01*
X118860467Y-89187777D01*
X118863620Y-89193038D01*
X118866242Y-89198582D01*
X118868309Y-89204357D01*
X118869799Y-89210307D01*
X118870699Y-89216374D01*
X118871000Y-89222500D01*
X118871000Y-89347500D01*
X118870699Y-89353626D01*
X118869799Y-89359693D01*
X118868309Y-89365643D01*
X118866242Y-89371418D01*
X118863620Y-89376962D01*
X118860467Y-89382223D01*
X118856813Y-89387150D01*
X118852694Y-89391694D01*
X118848150Y-89395813D01*
X118843223Y-89399467D01*
X118837962Y-89402620D01*
X118832418Y-89405242D01*
X118826643Y-89407309D01*
X118820693Y-89408799D01*
X118814626Y-89409699D01*
X118808500Y-89410000D01*
X118108500Y-89410000D01*
X118102374Y-89409699D01*
X118096307Y-89408799D01*
X118090357Y-89407309D01*
X118084582Y-89405242D01*
X118079038Y-89402620D01*
X118073777Y-89399467D01*
X118068850Y-89395813D01*
X118064306Y-89391694D01*
X118060187Y-89387150D01*
X118056533Y-89382223D01*
X118053380Y-89376962D01*
X118050758Y-89371418D01*
X118048691Y-89365643D01*
X118047201Y-89359693D01*
X118046301Y-89353626D01*
X118046000Y-89347500D01*
X118046000Y-89222500D01*
X118046301Y-89216374D01*
X118047201Y-89210307D01*
X118048691Y-89204357D01*
X118050758Y-89198582D01*
X118053380Y-89193038D01*
X118056533Y-89187777D01*
X118060187Y-89182850D01*
X118064306Y-89178306D01*
X118068850Y-89174187D01*
X118073777Y-89170533D01*
X118079038Y-89167380D01*
X118084582Y-89164758D01*
X118090357Y-89162691D01*
X118096307Y-89161201D01*
X118102374Y-89160301D01*
X118108500Y-89160000D01*
X118808500Y-89160000D01*
X118814626Y-89160301D01*
X118814626Y-89160301D01*
G37*
D25*
X118458500Y-89285000D03*
D12*
G36*
X118814626Y-89660301D02*
X118820693Y-89661201D01*
X118826643Y-89662691D01*
X118832418Y-89664758D01*
X118837962Y-89667380D01*
X118843223Y-89670533D01*
X118848150Y-89674187D01*
X118852694Y-89678306D01*
X118856813Y-89682850D01*
X118860467Y-89687777D01*
X118863620Y-89693038D01*
X118866242Y-89698582D01*
X118868309Y-89704357D01*
X118869799Y-89710307D01*
X118870699Y-89716374D01*
X118871000Y-89722500D01*
X118871000Y-89847500D01*
X118870699Y-89853626D01*
X118869799Y-89859693D01*
X118868309Y-89865643D01*
X118866242Y-89871418D01*
X118863620Y-89876962D01*
X118860467Y-89882223D01*
X118856813Y-89887150D01*
X118852694Y-89891694D01*
X118848150Y-89895813D01*
X118843223Y-89899467D01*
X118837962Y-89902620D01*
X118832418Y-89905242D01*
X118826643Y-89907309D01*
X118820693Y-89908799D01*
X118814626Y-89909699D01*
X118808500Y-89910000D01*
X118108500Y-89910000D01*
X118102374Y-89909699D01*
X118096307Y-89908799D01*
X118090357Y-89907309D01*
X118084582Y-89905242D01*
X118079038Y-89902620D01*
X118073777Y-89899467D01*
X118068850Y-89895813D01*
X118064306Y-89891694D01*
X118060187Y-89887150D01*
X118056533Y-89882223D01*
X118053380Y-89876962D01*
X118050758Y-89871418D01*
X118048691Y-89865643D01*
X118047201Y-89859693D01*
X118046301Y-89853626D01*
X118046000Y-89847500D01*
X118046000Y-89722500D01*
X118046301Y-89716374D01*
X118047201Y-89710307D01*
X118048691Y-89704357D01*
X118050758Y-89698582D01*
X118053380Y-89693038D01*
X118056533Y-89687777D01*
X118060187Y-89682850D01*
X118064306Y-89678306D01*
X118068850Y-89674187D01*
X118073777Y-89670533D01*
X118079038Y-89667380D01*
X118084582Y-89664758D01*
X118090357Y-89662691D01*
X118096307Y-89661201D01*
X118102374Y-89660301D01*
X118108500Y-89660000D01*
X118808500Y-89660000D01*
X118814626Y-89660301D01*
X118814626Y-89660301D01*
G37*
D25*
X118458500Y-89785000D03*
D12*
G36*
X118814626Y-90160301D02*
X118820693Y-90161201D01*
X118826643Y-90162691D01*
X118832418Y-90164758D01*
X118837962Y-90167380D01*
X118843223Y-90170533D01*
X118848150Y-90174187D01*
X118852694Y-90178306D01*
X118856813Y-90182850D01*
X118860467Y-90187777D01*
X118863620Y-90193038D01*
X118866242Y-90198582D01*
X118868309Y-90204357D01*
X118869799Y-90210307D01*
X118870699Y-90216374D01*
X118871000Y-90222500D01*
X118871000Y-90347500D01*
X118870699Y-90353626D01*
X118869799Y-90359693D01*
X118868309Y-90365643D01*
X118866242Y-90371418D01*
X118863620Y-90376962D01*
X118860467Y-90382223D01*
X118856813Y-90387150D01*
X118852694Y-90391694D01*
X118848150Y-90395813D01*
X118843223Y-90399467D01*
X118837962Y-90402620D01*
X118832418Y-90405242D01*
X118826643Y-90407309D01*
X118820693Y-90408799D01*
X118814626Y-90409699D01*
X118808500Y-90410000D01*
X118108500Y-90410000D01*
X118102374Y-90409699D01*
X118096307Y-90408799D01*
X118090357Y-90407309D01*
X118084582Y-90405242D01*
X118079038Y-90402620D01*
X118073777Y-90399467D01*
X118068850Y-90395813D01*
X118064306Y-90391694D01*
X118060187Y-90387150D01*
X118056533Y-90382223D01*
X118053380Y-90376962D01*
X118050758Y-90371418D01*
X118048691Y-90365643D01*
X118047201Y-90359693D01*
X118046301Y-90353626D01*
X118046000Y-90347500D01*
X118046000Y-90222500D01*
X118046301Y-90216374D01*
X118047201Y-90210307D01*
X118048691Y-90204357D01*
X118050758Y-90198582D01*
X118053380Y-90193038D01*
X118056533Y-90187777D01*
X118060187Y-90182850D01*
X118064306Y-90178306D01*
X118068850Y-90174187D01*
X118073777Y-90170533D01*
X118079038Y-90167380D01*
X118084582Y-90164758D01*
X118090357Y-90162691D01*
X118096307Y-90161201D01*
X118102374Y-90160301D01*
X118108500Y-90160000D01*
X118808500Y-90160000D01*
X118814626Y-90160301D01*
X118814626Y-90160301D01*
G37*
D25*
X118458500Y-90285000D03*
D12*
G36*
X118814626Y-90660301D02*
X118820693Y-90661201D01*
X118826643Y-90662691D01*
X118832418Y-90664758D01*
X118837962Y-90667380D01*
X118843223Y-90670533D01*
X118848150Y-90674187D01*
X118852694Y-90678306D01*
X118856813Y-90682850D01*
X118860467Y-90687777D01*
X118863620Y-90693038D01*
X118866242Y-90698582D01*
X118868309Y-90704357D01*
X118869799Y-90710307D01*
X118870699Y-90716374D01*
X118871000Y-90722500D01*
X118871000Y-90847500D01*
X118870699Y-90853626D01*
X118869799Y-90859693D01*
X118868309Y-90865643D01*
X118866242Y-90871418D01*
X118863620Y-90876962D01*
X118860467Y-90882223D01*
X118856813Y-90887150D01*
X118852694Y-90891694D01*
X118848150Y-90895813D01*
X118843223Y-90899467D01*
X118837962Y-90902620D01*
X118832418Y-90905242D01*
X118826643Y-90907309D01*
X118820693Y-90908799D01*
X118814626Y-90909699D01*
X118808500Y-90910000D01*
X118108500Y-90910000D01*
X118102374Y-90909699D01*
X118096307Y-90908799D01*
X118090357Y-90907309D01*
X118084582Y-90905242D01*
X118079038Y-90902620D01*
X118073777Y-90899467D01*
X118068850Y-90895813D01*
X118064306Y-90891694D01*
X118060187Y-90887150D01*
X118056533Y-90882223D01*
X118053380Y-90876962D01*
X118050758Y-90871418D01*
X118048691Y-90865643D01*
X118047201Y-90859693D01*
X118046301Y-90853626D01*
X118046000Y-90847500D01*
X118046000Y-90722500D01*
X118046301Y-90716374D01*
X118047201Y-90710307D01*
X118048691Y-90704357D01*
X118050758Y-90698582D01*
X118053380Y-90693038D01*
X118056533Y-90687777D01*
X118060187Y-90682850D01*
X118064306Y-90678306D01*
X118068850Y-90674187D01*
X118073777Y-90670533D01*
X118079038Y-90667380D01*
X118084582Y-90664758D01*
X118090357Y-90662691D01*
X118096307Y-90661201D01*
X118102374Y-90660301D01*
X118108500Y-90660000D01*
X118808500Y-90660000D01*
X118814626Y-90660301D01*
X118814626Y-90660301D01*
G37*
D25*
X118458500Y-90785000D03*
D12*
G36*
X119214626Y-91060301D02*
X119220693Y-91061201D01*
X119226643Y-91062691D01*
X119232418Y-91064758D01*
X119237962Y-91067380D01*
X119243223Y-91070533D01*
X119248150Y-91074187D01*
X119252694Y-91078306D01*
X119256813Y-91082850D01*
X119260467Y-91087777D01*
X119263620Y-91093038D01*
X119266242Y-91098582D01*
X119268309Y-91104357D01*
X119269799Y-91110307D01*
X119270699Y-91116374D01*
X119271000Y-91122500D01*
X119271000Y-91822500D01*
X119270699Y-91828626D01*
X119269799Y-91834693D01*
X119268309Y-91840643D01*
X119266242Y-91846418D01*
X119263620Y-91851962D01*
X119260467Y-91857223D01*
X119256813Y-91862150D01*
X119252694Y-91866694D01*
X119248150Y-91870813D01*
X119243223Y-91874467D01*
X119237962Y-91877620D01*
X119232418Y-91880242D01*
X119226643Y-91882309D01*
X119220693Y-91883799D01*
X119214626Y-91884699D01*
X119208500Y-91885000D01*
X119083500Y-91885000D01*
X119077374Y-91884699D01*
X119071307Y-91883799D01*
X119065357Y-91882309D01*
X119059582Y-91880242D01*
X119054038Y-91877620D01*
X119048777Y-91874467D01*
X119043850Y-91870813D01*
X119039306Y-91866694D01*
X119035187Y-91862150D01*
X119031533Y-91857223D01*
X119028380Y-91851962D01*
X119025758Y-91846418D01*
X119023691Y-91840643D01*
X119022201Y-91834693D01*
X119021301Y-91828626D01*
X119021000Y-91822500D01*
X119021000Y-91122500D01*
X119021301Y-91116374D01*
X119022201Y-91110307D01*
X119023691Y-91104357D01*
X119025758Y-91098582D01*
X119028380Y-91093038D01*
X119031533Y-91087777D01*
X119035187Y-91082850D01*
X119039306Y-91078306D01*
X119043850Y-91074187D01*
X119048777Y-91070533D01*
X119054038Y-91067380D01*
X119059582Y-91064758D01*
X119065357Y-91062691D01*
X119071307Y-91061201D01*
X119077374Y-91060301D01*
X119083500Y-91060000D01*
X119208500Y-91060000D01*
X119214626Y-91060301D01*
X119214626Y-91060301D01*
G37*
D25*
X119146000Y-91472500D03*
D12*
G36*
X119714626Y-91060301D02*
X119720693Y-91061201D01*
X119726643Y-91062691D01*
X119732418Y-91064758D01*
X119737962Y-91067380D01*
X119743223Y-91070533D01*
X119748150Y-91074187D01*
X119752694Y-91078306D01*
X119756813Y-91082850D01*
X119760467Y-91087777D01*
X119763620Y-91093038D01*
X119766242Y-91098582D01*
X119768309Y-91104357D01*
X119769799Y-91110307D01*
X119770699Y-91116374D01*
X119771000Y-91122500D01*
X119771000Y-91822500D01*
X119770699Y-91828626D01*
X119769799Y-91834693D01*
X119768309Y-91840643D01*
X119766242Y-91846418D01*
X119763620Y-91851962D01*
X119760467Y-91857223D01*
X119756813Y-91862150D01*
X119752694Y-91866694D01*
X119748150Y-91870813D01*
X119743223Y-91874467D01*
X119737962Y-91877620D01*
X119732418Y-91880242D01*
X119726643Y-91882309D01*
X119720693Y-91883799D01*
X119714626Y-91884699D01*
X119708500Y-91885000D01*
X119583500Y-91885000D01*
X119577374Y-91884699D01*
X119571307Y-91883799D01*
X119565357Y-91882309D01*
X119559582Y-91880242D01*
X119554038Y-91877620D01*
X119548777Y-91874467D01*
X119543850Y-91870813D01*
X119539306Y-91866694D01*
X119535187Y-91862150D01*
X119531533Y-91857223D01*
X119528380Y-91851962D01*
X119525758Y-91846418D01*
X119523691Y-91840643D01*
X119522201Y-91834693D01*
X119521301Y-91828626D01*
X119521000Y-91822500D01*
X119521000Y-91122500D01*
X119521301Y-91116374D01*
X119522201Y-91110307D01*
X119523691Y-91104357D01*
X119525758Y-91098582D01*
X119528380Y-91093038D01*
X119531533Y-91087777D01*
X119535187Y-91082850D01*
X119539306Y-91078306D01*
X119543850Y-91074187D01*
X119548777Y-91070533D01*
X119554038Y-91067380D01*
X119559582Y-91064758D01*
X119565357Y-91062691D01*
X119571307Y-91061201D01*
X119577374Y-91060301D01*
X119583500Y-91060000D01*
X119708500Y-91060000D01*
X119714626Y-91060301D01*
X119714626Y-91060301D01*
G37*
D25*
X119646000Y-91472500D03*
D12*
G36*
X120214626Y-91060301D02*
X120220693Y-91061201D01*
X120226643Y-91062691D01*
X120232418Y-91064758D01*
X120237962Y-91067380D01*
X120243223Y-91070533D01*
X120248150Y-91074187D01*
X120252694Y-91078306D01*
X120256813Y-91082850D01*
X120260467Y-91087777D01*
X120263620Y-91093038D01*
X120266242Y-91098582D01*
X120268309Y-91104357D01*
X120269799Y-91110307D01*
X120270699Y-91116374D01*
X120271000Y-91122500D01*
X120271000Y-91822500D01*
X120270699Y-91828626D01*
X120269799Y-91834693D01*
X120268309Y-91840643D01*
X120266242Y-91846418D01*
X120263620Y-91851962D01*
X120260467Y-91857223D01*
X120256813Y-91862150D01*
X120252694Y-91866694D01*
X120248150Y-91870813D01*
X120243223Y-91874467D01*
X120237962Y-91877620D01*
X120232418Y-91880242D01*
X120226643Y-91882309D01*
X120220693Y-91883799D01*
X120214626Y-91884699D01*
X120208500Y-91885000D01*
X120083500Y-91885000D01*
X120077374Y-91884699D01*
X120071307Y-91883799D01*
X120065357Y-91882309D01*
X120059582Y-91880242D01*
X120054038Y-91877620D01*
X120048777Y-91874467D01*
X120043850Y-91870813D01*
X120039306Y-91866694D01*
X120035187Y-91862150D01*
X120031533Y-91857223D01*
X120028380Y-91851962D01*
X120025758Y-91846418D01*
X120023691Y-91840643D01*
X120022201Y-91834693D01*
X120021301Y-91828626D01*
X120021000Y-91822500D01*
X120021000Y-91122500D01*
X120021301Y-91116374D01*
X120022201Y-91110307D01*
X120023691Y-91104357D01*
X120025758Y-91098582D01*
X120028380Y-91093038D01*
X120031533Y-91087777D01*
X120035187Y-91082850D01*
X120039306Y-91078306D01*
X120043850Y-91074187D01*
X120048777Y-91070533D01*
X120054038Y-91067380D01*
X120059582Y-91064758D01*
X120065357Y-91062691D01*
X120071307Y-91061201D01*
X120077374Y-91060301D01*
X120083500Y-91060000D01*
X120208500Y-91060000D01*
X120214626Y-91060301D01*
X120214626Y-91060301D01*
G37*
D25*
X120146000Y-91472500D03*
D12*
G36*
X120714626Y-91060301D02*
X120720693Y-91061201D01*
X120726643Y-91062691D01*
X120732418Y-91064758D01*
X120737962Y-91067380D01*
X120743223Y-91070533D01*
X120748150Y-91074187D01*
X120752694Y-91078306D01*
X120756813Y-91082850D01*
X120760467Y-91087777D01*
X120763620Y-91093038D01*
X120766242Y-91098582D01*
X120768309Y-91104357D01*
X120769799Y-91110307D01*
X120770699Y-91116374D01*
X120771000Y-91122500D01*
X120771000Y-91822500D01*
X120770699Y-91828626D01*
X120769799Y-91834693D01*
X120768309Y-91840643D01*
X120766242Y-91846418D01*
X120763620Y-91851962D01*
X120760467Y-91857223D01*
X120756813Y-91862150D01*
X120752694Y-91866694D01*
X120748150Y-91870813D01*
X120743223Y-91874467D01*
X120737962Y-91877620D01*
X120732418Y-91880242D01*
X120726643Y-91882309D01*
X120720693Y-91883799D01*
X120714626Y-91884699D01*
X120708500Y-91885000D01*
X120583500Y-91885000D01*
X120577374Y-91884699D01*
X120571307Y-91883799D01*
X120565357Y-91882309D01*
X120559582Y-91880242D01*
X120554038Y-91877620D01*
X120548777Y-91874467D01*
X120543850Y-91870813D01*
X120539306Y-91866694D01*
X120535187Y-91862150D01*
X120531533Y-91857223D01*
X120528380Y-91851962D01*
X120525758Y-91846418D01*
X120523691Y-91840643D01*
X120522201Y-91834693D01*
X120521301Y-91828626D01*
X120521000Y-91822500D01*
X120521000Y-91122500D01*
X120521301Y-91116374D01*
X120522201Y-91110307D01*
X120523691Y-91104357D01*
X120525758Y-91098582D01*
X120528380Y-91093038D01*
X120531533Y-91087777D01*
X120535187Y-91082850D01*
X120539306Y-91078306D01*
X120543850Y-91074187D01*
X120548777Y-91070533D01*
X120554038Y-91067380D01*
X120559582Y-91064758D01*
X120565357Y-91062691D01*
X120571307Y-91061201D01*
X120577374Y-91060301D01*
X120583500Y-91060000D01*
X120708500Y-91060000D01*
X120714626Y-91060301D01*
X120714626Y-91060301D01*
G37*
D25*
X120646000Y-91472500D03*
D12*
G36*
X121214626Y-91060301D02*
X121220693Y-91061201D01*
X121226643Y-91062691D01*
X121232418Y-91064758D01*
X121237962Y-91067380D01*
X121243223Y-91070533D01*
X121248150Y-91074187D01*
X121252694Y-91078306D01*
X121256813Y-91082850D01*
X121260467Y-91087777D01*
X121263620Y-91093038D01*
X121266242Y-91098582D01*
X121268309Y-91104357D01*
X121269799Y-91110307D01*
X121270699Y-91116374D01*
X121271000Y-91122500D01*
X121271000Y-91822500D01*
X121270699Y-91828626D01*
X121269799Y-91834693D01*
X121268309Y-91840643D01*
X121266242Y-91846418D01*
X121263620Y-91851962D01*
X121260467Y-91857223D01*
X121256813Y-91862150D01*
X121252694Y-91866694D01*
X121248150Y-91870813D01*
X121243223Y-91874467D01*
X121237962Y-91877620D01*
X121232418Y-91880242D01*
X121226643Y-91882309D01*
X121220693Y-91883799D01*
X121214626Y-91884699D01*
X121208500Y-91885000D01*
X121083500Y-91885000D01*
X121077374Y-91884699D01*
X121071307Y-91883799D01*
X121065357Y-91882309D01*
X121059582Y-91880242D01*
X121054038Y-91877620D01*
X121048777Y-91874467D01*
X121043850Y-91870813D01*
X121039306Y-91866694D01*
X121035187Y-91862150D01*
X121031533Y-91857223D01*
X121028380Y-91851962D01*
X121025758Y-91846418D01*
X121023691Y-91840643D01*
X121022201Y-91834693D01*
X121021301Y-91828626D01*
X121021000Y-91822500D01*
X121021000Y-91122500D01*
X121021301Y-91116374D01*
X121022201Y-91110307D01*
X121023691Y-91104357D01*
X121025758Y-91098582D01*
X121028380Y-91093038D01*
X121031533Y-91087777D01*
X121035187Y-91082850D01*
X121039306Y-91078306D01*
X121043850Y-91074187D01*
X121048777Y-91070533D01*
X121054038Y-91067380D01*
X121059582Y-91064758D01*
X121065357Y-91062691D01*
X121071307Y-91061201D01*
X121077374Y-91060301D01*
X121083500Y-91060000D01*
X121208500Y-91060000D01*
X121214626Y-91060301D01*
X121214626Y-91060301D01*
G37*
D25*
X121146000Y-91472500D03*
D12*
G36*
X121714626Y-91060301D02*
X121720693Y-91061201D01*
X121726643Y-91062691D01*
X121732418Y-91064758D01*
X121737962Y-91067380D01*
X121743223Y-91070533D01*
X121748150Y-91074187D01*
X121752694Y-91078306D01*
X121756813Y-91082850D01*
X121760467Y-91087777D01*
X121763620Y-91093038D01*
X121766242Y-91098582D01*
X121768309Y-91104357D01*
X121769799Y-91110307D01*
X121770699Y-91116374D01*
X121771000Y-91122500D01*
X121771000Y-91822500D01*
X121770699Y-91828626D01*
X121769799Y-91834693D01*
X121768309Y-91840643D01*
X121766242Y-91846418D01*
X121763620Y-91851962D01*
X121760467Y-91857223D01*
X121756813Y-91862150D01*
X121752694Y-91866694D01*
X121748150Y-91870813D01*
X121743223Y-91874467D01*
X121737962Y-91877620D01*
X121732418Y-91880242D01*
X121726643Y-91882309D01*
X121720693Y-91883799D01*
X121714626Y-91884699D01*
X121708500Y-91885000D01*
X121583500Y-91885000D01*
X121577374Y-91884699D01*
X121571307Y-91883799D01*
X121565357Y-91882309D01*
X121559582Y-91880242D01*
X121554038Y-91877620D01*
X121548777Y-91874467D01*
X121543850Y-91870813D01*
X121539306Y-91866694D01*
X121535187Y-91862150D01*
X121531533Y-91857223D01*
X121528380Y-91851962D01*
X121525758Y-91846418D01*
X121523691Y-91840643D01*
X121522201Y-91834693D01*
X121521301Y-91828626D01*
X121521000Y-91822500D01*
X121521000Y-91122500D01*
X121521301Y-91116374D01*
X121522201Y-91110307D01*
X121523691Y-91104357D01*
X121525758Y-91098582D01*
X121528380Y-91093038D01*
X121531533Y-91087777D01*
X121535187Y-91082850D01*
X121539306Y-91078306D01*
X121543850Y-91074187D01*
X121548777Y-91070533D01*
X121554038Y-91067380D01*
X121559582Y-91064758D01*
X121565357Y-91062691D01*
X121571307Y-91061201D01*
X121577374Y-91060301D01*
X121583500Y-91060000D01*
X121708500Y-91060000D01*
X121714626Y-91060301D01*
X121714626Y-91060301D01*
G37*
D25*
X121646000Y-91472500D03*
D12*
G36*
X122689626Y-90660301D02*
X122695693Y-90661201D01*
X122701643Y-90662691D01*
X122707418Y-90664758D01*
X122712962Y-90667380D01*
X122718223Y-90670533D01*
X122723150Y-90674187D01*
X122727694Y-90678306D01*
X122731813Y-90682850D01*
X122735467Y-90687777D01*
X122738620Y-90693038D01*
X122741242Y-90698582D01*
X122743309Y-90704357D01*
X122744799Y-90710307D01*
X122745699Y-90716374D01*
X122746000Y-90722500D01*
X122746000Y-90847500D01*
X122745699Y-90853626D01*
X122744799Y-90859693D01*
X122743309Y-90865643D01*
X122741242Y-90871418D01*
X122738620Y-90876962D01*
X122735467Y-90882223D01*
X122731813Y-90887150D01*
X122727694Y-90891694D01*
X122723150Y-90895813D01*
X122718223Y-90899467D01*
X122712962Y-90902620D01*
X122707418Y-90905242D01*
X122701643Y-90907309D01*
X122695693Y-90908799D01*
X122689626Y-90909699D01*
X122683500Y-90910000D01*
X121983500Y-90910000D01*
X121977374Y-90909699D01*
X121971307Y-90908799D01*
X121965357Y-90907309D01*
X121959582Y-90905242D01*
X121954038Y-90902620D01*
X121948777Y-90899467D01*
X121943850Y-90895813D01*
X121939306Y-90891694D01*
X121935187Y-90887150D01*
X121931533Y-90882223D01*
X121928380Y-90876962D01*
X121925758Y-90871418D01*
X121923691Y-90865643D01*
X121922201Y-90859693D01*
X121921301Y-90853626D01*
X121921000Y-90847500D01*
X121921000Y-90722500D01*
X121921301Y-90716374D01*
X121922201Y-90710307D01*
X121923691Y-90704357D01*
X121925758Y-90698582D01*
X121928380Y-90693038D01*
X121931533Y-90687777D01*
X121935187Y-90682850D01*
X121939306Y-90678306D01*
X121943850Y-90674187D01*
X121948777Y-90670533D01*
X121954038Y-90667380D01*
X121959582Y-90664758D01*
X121965357Y-90662691D01*
X121971307Y-90661201D01*
X121977374Y-90660301D01*
X121983500Y-90660000D01*
X122683500Y-90660000D01*
X122689626Y-90660301D01*
X122689626Y-90660301D01*
G37*
D25*
X122333500Y-90785000D03*
D12*
G36*
X122689626Y-90160301D02*
X122695693Y-90161201D01*
X122701643Y-90162691D01*
X122707418Y-90164758D01*
X122712962Y-90167380D01*
X122718223Y-90170533D01*
X122723150Y-90174187D01*
X122727694Y-90178306D01*
X122731813Y-90182850D01*
X122735467Y-90187777D01*
X122738620Y-90193038D01*
X122741242Y-90198582D01*
X122743309Y-90204357D01*
X122744799Y-90210307D01*
X122745699Y-90216374D01*
X122746000Y-90222500D01*
X122746000Y-90347500D01*
X122745699Y-90353626D01*
X122744799Y-90359693D01*
X122743309Y-90365643D01*
X122741242Y-90371418D01*
X122738620Y-90376962D01*
X122735467Y-90382223D01*
X122731813Y-90387150D01*
X122727694Y-90391694D01*
X122723150Y-90395813D01*
X122718223Y-90399467D01*
X122712962Y-90402620D01*
X122707418Y-90405242D01*
X122701643Y-90407309D01*
X122695693Y-90408799D01*
X122689626Y-90409699D01*
X122683500Y-90410000D01*
X121983500Y-90410000D01*
X121977374Y-90409699D01*
X121971307Y-90408799D01*
X121965357Y-90407309D01*
X121959582Y-90405242D01*
X121954038Y-90402620D01*
X121948777Y-90399467D01*
X121943850Y-90395813D01*
X121939306Y-90391694D01*
X121935187Y-90387150D01*
X121931533Y-90382223D01*
X121928380Y-90376962D01*
X121925758Y-90371418D01*
X121923691Y-90365643D01*
X121922201Y-90359693D01*
X121921301Y-90353626D01*
X121921000Y-90347500D01*
X121921000Y-90222500D01*
X121921301Y-90216374D01*
X121922201Y-90210307D01*
X121923691Y-90204357D01*
X121925758Y-90198582D01*
X121928380Y-90193038D01*
X121931533Y-90187777D01*
X121935187Y-90182850D01*
X121939306Y-90178306D01*
X121943850Y-90174187D01*
X121948777Y-90170533D01*
X121954038Y-90167380D01*
X121959582Y-90164758D01*
X121965357Y-90162691D01*
X121971307Y-90161201D01*
X121977374Y-90160301D01*
X121983500Y-90160000D01*
X122683500Y-90160000D01*
X122689626Y-90160301D01*
X122689626Y-90160301D01*
G37*
D25*
X122333500Y-90285000D03*
D12*
G36*
X122689626Y-89660301D02*
X122695693Y-89661201D01*
X122701643Y-89662691D01*
X122707418Y-89664758D01*
X122712962Y-89667380D01*
X122718223Y-89670533D01*
X122723150Y-89674187D01*
X122727694Y-89678306D01*
X122731813Y-89682850D01*
X122735467Y-89687777D01*
X122738620Y-89693038D01*
X122741242Y-89698582D01*
X122743309Y-89704357D01*
X122744799Y-89710307D01*
X122745699Y-89716374D01*
X122746000Y-89722500D01*
X122746000Y-89847500D01*
X122745699Y-89853626D01*
X122744799Y-89859693D01*
X122743309Y-89865643D01*
X122741242Y-89871418D01*
X122738620Y-89876962D01*
X122735467Y-89882223D01*
X122731813Y-89887150D01*
X122727694Y-89891694D01*
X122723150Y-89895813D01*
X122718223Y-89899467D01*
X122712962Y-89902620D01*
X122707418Y-89905242D01*
X122701643Y-89907309D01*
X122695693Y-89908799D01*
X122689626Y-89909699D01*
X122683500Y-89910000D01*
X121983500Y-89910000D01*
X121977374Y-89909699D01*
X121971307Y-89908799D01*
X121965357Y-89907309D01*
X121959582Y-89905242D01*
X121954038Y-89902620D01*
X121948777Y-89899467D01*
X121943850Y-89895813D01*
X121939306Y-89891694D01*
X121935187Y-89887150D01*
X121931533Y-89882223D01*
X121928380Y-89876962D01*
X121925758Y-89871418D01*
X121923691Y-89865643D01*
X121922201Y-89859693D01*
X121921301Y-89853626D01*
X121921000Y-89847500D01*
X121921000Y-89722500D01*
X121921301Y-89716374D01*
X121922201Y-89710307D01*
X121923691Y-89704357D01*
X121925758Y-89698582D01*
X121928380Y-89693038D01*
X121931533Y-89687777D01*
X121935187Y-89682850D01*
X121939306Y-89678306D01*
X121943850Y-89674187D01*
X121948777Y-89670533D01*
X121954038Y-89667380D01*
X121959582Y-89664758D01*
X121965357Y-89662691D01*
X121971307Y-89661201D01*
X121977374Y-89660301D01*
X121983500Y-89660000D01*
X122683500Y-89660000D01*
X122689626Y-89660301D01*
X122689626Y-89660301D01*
G37*
D25*
X122333500Y-89785000D03*
D12*
G36*
X122689626Y-89160301D02*
X122695693Y-89161201D01*
X122701643Y-89162691D01*
X122707418Y-89164758D01*
X122712962Y-89167380D01*
X122718223Y-89170533D01*
X122723150Y-89174187D01*
X122727694Y-89178306D01*
X122731813Y-89182850D01*
X122735467Y-89187777D01*
X122738620Y-89193038D01*
X122741242Y-89198582D01*
X122743309Y-89204357D01*
X122744799Y-89210307D01*
X122745699Y-89216374D01*
X122746000Y-89222500D01*
X122746000Y-89347500D01*
X122745699Y-89353626D01*
X122744799Y-89359693D01*
X122743309Y-89365643D01*
X122741242Y-89371418D01*
X122738620Y-89376962D01*
X122735467Y-89382223D01*
X122731813Y-89387150D01*
X122727694Y-89391694D01*
X122723150Y-89395813D01*
X122718223Y-89399467D01*
X122712962Y-89402620D01*
X122707418Y-89405242D01*
X122701643Y-89407309D01*
X122695693Y-89408799D01*
X122689626Y-89409699D01*
X122683500Y-89410000D01*
X121983500Y-89410000D01*
X121977374Y-89409699D01*
X121971307Y-89408799D01*
X121965357Y-89407309D01*
X121959582Y-89405242D01*
X121954038Y-89402620D01*
X121948777Y-89399467D01*
X121943850Y-89395813D01*
X121939306Y-89391694D01*
X121935187Y-89387150D01*
X121931533Y-89382223D01*
X121928380Y-89376962D01*
X121925758Y-89371418D01*
X121923691Y-89365643D01*
X121922201Y-89359693D01*
X121921301Y-89353626D01*
X121921000Y-89347500D01*
X121921000Y-89222500D01*
X121921301Y-89216374D01*
X121922201Y-89210307D01*
X121923691Y-89204357D01*
X121925758Y-89198582D01*
X121928380Y-89193038D01*
X121931533Y-89187777D01*
X121935187Y-89182850D01*
X121939306Y-89178306D01*
X121943850Y-89174187D01*
X121948777Y-89170533D01*
X121954038Y-89167380D01*
X121959582Y-89164758D01*
X121965357Y-89162691D01*
X121971307Y-89161201D01*
X121977374Y-89160301D01*
X121983500Y-89160000D01*
X122683500Y-89160000D01*
X122689626Y-89160301D01*
X122689626Y-89160301D01*
G37*
D25*
X122333500Y-89285000D03*
D12*
G36*
X122689626Y-88660301D02*
X122695693Y-88661201D01*
X122701643Y-88662691D01*
X122707418Y-88664758D01*
X122712962Y-88667380D01*
X122718223Y-88670533D01*
X122723150Y-88674187D01*
X122727694Y-88678306D01*
X122731813Y-88682850D01*
X122735467Y-88687777D01*
X122738620Y-88693038D01*
X122741242Y-88698582D01*
X122743309Y-88704357D01*
X122744799Y-88710307D01*
X122745699Y-88716374D01*
X122746000Y-88722500D01*
X122746000Y-88847500D01*
X122745699Y-88853626D01*
X122744799Y-88859693D01*
X122743309Y-88865643D01*
X122741242Y-88871418D01*
X122738620Y-88876962D01*
X122735467Y-88882223D01*
X122731813Y-88887150D01*
X122727694Y-88891694D01*
X122723150Y-88895813D01*
X122718223Y-88899467D01*
X122712962Y-88902620D01*
X122707418Y-88905242D01*
X122701643Y-88907309D01*
X122695693Y-88908799D01*
X122689626Y-88909699D01*
X122683500Y-88910000D01*
X121983500Y-88910000D01*
X121977374Y-88909699D01*
X121971307Y-88908799D01*
X121965357Y-88907309D01*
X121959582Y-88905242D01*
X121954038Y-88902620D01*
X121948777Y-88899467D01*
X121943850Y-88895813D01*
X121939306Y-88891694D01*
X121935187Y-88887150D01*
X121931533Y-88882223D01*
X121928380Y-88876962D01*
X121925758Y-88871418D01*
X121923691Y-88865643D01*
X121922201Y-88859693D01*
X121921301Y-88853626D01*
X121921000Y-88847500D01*
X121921000Y-88722500D01*
X121921301Y-88716374D01*
X121922201Y-88710307D01*
X121923691Y-88704357D01*
X121925758Y-88698582D01*
X121928380Y-88693038D01*
X121931533Y-88687777D01*
X121935187Y-88682850D01*
X121939306Y-88678306D01*
X121943850Y-88674187D01*
X121948777Y-88670533D01*
X121954038Y-88667380D01*
X121959582Y-88664758D01*
X121965357Y-88662691D01*
X121971307Y-88661201D01*
X121977374Y-88660301D01*
X121983500Y-88660000D01*
X122683500Y-88660000D01*
X122689626Y-88660301D01*
X122689626Y-88660301D01*
G37*
D25*
X122333500Y-88785000D03*
D12*
G36*
X122689626Y-88160301D02*
X122695693Y-88161201D01*
X122701643Y-88162691D01*
X122707418Y-88164758D01*
X122712962Y-88167380D01*
X122718223Y-88170533D01*
X122723150Y-88174187D01*
X122727694Y-88178306D01*
X122731813Y-88182850D01*
X122735467Y-88187777D01*
X122738620Y-88193038D01*
X122741242Y-88198582D01*
X122743309Y-88204357D01*
X122744799Y-88210307D01*
X122745699Y-88216374D01*
X122746000Y-88222500D01*
X122746000Y-88347500D01*
X122745699Y-88353626D01*
X122744799Y-88359693D01*
X122743309Y-88365643D01*
X122741242Y-88371418D01*
X122738620Y-88376962D01*
X122735467Y-88382223D01*
X122731813Y-88387150D01*
X122727694Y-88391694D01*
X122723150Y-88395813D01*
X122718223Y-88399467D01*
X122712962Y-88402620D01*
X122707418Y-88405242D01*
X122701643Y-88407309D01*
X122695693Y-88408799D01*
X122689626Y-88409699D01*
X122683500Y-88410000D01*
X121983500Y-88410000D01*
X121977374Y-88409699D01*
X121971307Y-88408799D01*
X121965357Y-88407309D01*
X121959582Y-88405242D01*
X121954038Y-88402620D01*
X121948777Y-88399467D01*
X121943850Y-88395813D01*
X121939306Y-88391694D01*
X121935187Y-88387150D01*
X121931533Y-88382223D01*
X121928380Y-88376962D01*
X121925758Y-88371418D01*
X121923691Y-88365643D01*
X121922201Y-88359693D01*
X121921301Y-88353626D01*
X121921000Y-88347500D01*
X121921000Y-88222500D01*
X121921301Y-88216374D01*
X121922201Y-88210307D01*
X121923691Y-88204357D01*
X121925758Y-88198582D01*
X121928380Y-88193038D01*
X121931533Y-88187777D01*
X121935187Y-88182850D01*
X121939306Y-88178306D01*
X121943850Y-88174187D01*
X121948777Y-88170533D01*
X121954038Y-88167380D01*
X121959582Y-88164758D01*
X121965357Y-88162691D01*
X121971307Y-88161201D01*
X121977374Y-88160301D01*
X121983500Y-88160000D01*
X122683500Y-88160000D01*
X122689626Y-88160301D01*
X122689626Y-88160301D01*
G37*
D25*
X122333500Y-88285000D03*
D12*
G36*
X121714626Y-87185301D02*
X121720693Y-87186201D01*
X121726643Y-87187691D01*
X121732418Y-87189758D01*
X121737962Y-87192380D01*
X121743223Y-87195533D01*
X121748150Y-87199187D01*
X121752694Y-87203306D01*
X121756813Y-87207850D01*
X121760467Y-87212777D01*
X121763620Y-87218038D01*
X121766242Y-87223582D01*
X121768309Y-87229357D01*
X121769799Y-87235307D01*
X121770699Y-87241374D01*
X121771000Y-87247500D01*
X121771000Y-87947500D01*
X121770699Y-87953626D01*
X121769799Y-87959693D01*
X121768309Y-87965643D01*
X121766242Y-87971418D01*
X121763620Y-87976962D01*
X121760467Y-87982223D01*
X121756813Y-87987150D01*
X121752694Y-87991694D01*
X121748150Y-87995813D01*
X121743223Y-87999467D01*
X121737962Y-88002620D01*
X121732418Y-88005242D01*
X121726643Y-88007309D01*
X121720693Y-88008799D01*
X121714626Y-88009699D01*
X121708500Y-88010000D01*
X121583500Y-88010000D01*
X121577374Y-88009699D01*
X121571307Y-88008799D01*
X121565357Y-88007309D01*
X121559582Y-88005242D01*
X121554038Y-88002620D01*
X121548777Y-87999467D01*
X121543850Y-87995813D01*
X121539306Y-87991694D01*
X121535187Y-87987150D01*
X121531533Y-87982223D01*
X121528380Y-87976962D01*
X121525758Y-87971418D01*
X121523691Y-87965643D01*
X121522201Y-87959693D01*
X121521301Y-87953626D01*
X121521000Y-87947500D01*
X121521000Y-87247500D01*
X121521301Y-87241374D01*
X121522201Y-87235307D01*
X121523691Y-87229357D01*
X121525758Y-87223582D01*
X121528380Y-87218038D01*
X121531533Y-87212777D01*
X121535187Y-87207850D01*
X121539306Y-87203306D01*
X121543850Y-87199187D01*
X121548777Y-87195533D01*
X121554038Y-87192380D01*
X121559582Y-87189758D01*
X121565357Y-87187691D01*
X121571307Y-87186201D01*
X121577374Y-87185301D01*
X121583500Y-87185000D01*
X121708500Y-87185000D01*
X121714626Y-87185301D01*
X121714626Y-87185301D01*
G37*
D25*
X121646000Y-87597500D03*
D12*
G36*
X121214626Y-87185301D02*
X121220693Y-87186201D01*
X121226643Y-87187691D01*
X121232418Y-87189758D01*
X121237962Y-87192380D01*
X121243223Y-87195533D01*
X121248150Y-87199187D01*
X121252694Y-87203306D01*
X121256813Y-87207850D01*
X121260467Y-87212777D01*
X121263620Y-87218038D01*
X121266242Y-87223582D01*
X121268309Y-87229357D01*
X121269799Y-87235307D01*
X121270699Y-87241374D01*
X121271000Y-87247500D01*
X121271000Y-87947500D01*
X121270699Y-87953626D01*
X121269799Y-87959693D01*
X121268309Y-87965643D01*
X121266242Y-87971418D01*
X121263620Y-87976962D01*
X121260467Y-87982223D01*
X121256813Y-87987150D01*
X121252694Y-87991694D01*
X121248150Y-87995813D01*
X121243223Y-87999467D01*
X121237962Y-88002620D01*
X121232418Y-88005242D01*
X121226643Y-88007309D01*
X121220693Y-88008799D01*
X121214626Y-88009699D01*
X121208500Y-88010000D01*
X121083500Y-88010000D01*
X121077374Y-88009699D01*
X121071307Y-88008799D01*
X121065357Y-88007309D01*
X121059582Y-88005242D01*
X121054038Y-88002620D01*
X121048777Y-87999467D01*
X121043850Y-87995813D01*
X121039306Y-87991694D01*
X121035187Y-87987150D01*
X121031533Y-87982223D01*
X121028380Y-87976962D01*
X121025758Y-87971418D01*
X121023691Y-87965643D01*
X121022201Y-87959693D01*
X121021301Y-87953626D01*
X121021000Y-87947500D01*
X121021000Y-87247500D01*
X121021301Y-87241374D01*
X121022201Y-87235307D01*
X121023691Y-87229357D01*
X121025758Y-87223582D01*
X121028380Y-87218038D01*
X121031533Y-87212777D01*
X121035187Y-87207850D01*
X121039306Y-87203306D01*
X121043850Y-87199187D01*
X121048777Y-87195533D01*
X121054038Y-87192380D01*
X121059582Y-87189758D01*
X121065357Y-87187691D01*
X121071307Y-87186201D01*
X121077374Y-87185301D01*
X121083500Y-87185000D01*
X121208500Y-87185000D01*
X121214626Y-87185301D01*
X121214626Y-87185301D01*
G37*
D25*
X121146000Y-87597500D03*
D12*
G36*
X120714626Y-87185301D02*
X120720693Y-87186201D01*
X120726643Y-87187691D01*
X120732418Y-87189758D01*
X120737962Y-87192380D01*
X120743223Y-87195533D01*
X120748150Y-87199187D01*
X120752694Y-87203306D01*
X120756813Y-87207850D01*
X120760467Y-87212777D01*
X120763620Y-87218038D01*
X120766242Y-87223582D01*
X120768309Y-87229357D01*
X120769799Y-87235307D01*
X120770699Y-87241374D01*
X120771000Y-87247500D01*
X120771000Y-87947500D01*
X120770699Y-87953626D01*
X120769799Y-87959693D01*
X120768309Y-87965643D01*
X120766242Y-87971418D01*
X120763620Y-87976962D01*
X120760467Y-87982223D01*
X120756813Y-87987150D01*
X120752694Y-87991694D01*
X120748150Y-87995813D01*
X120743223Y-87999467D01*
X120737962Y-88002620D01*
X120732418Y-88005242D01*
X120726643Y-88007309D01*
X120720693Y-88008799D01*
X120714626Y-88009699D01*
X120708500Y-88010000D01*
X120583500Y-88010000D01*
X120577374Y-88009699D01*
X120571307Y-88008799D01*
X120565357Y-88007309D01*
X120559582Y-88005242D01*
X120554038Y-88002620D01*
X120548777Y-87999467D01*
X120543850Y-87995813D01*
X120539306Y-87991694D01*
X120535187Y-87987150D01*
X120531533Y-87982223D01*
X120528380Y-87976962D01*
X120525758Y-87971418D01*
X120523691Y-87965643D01*
X120522201Y-87959693D01*
X120521301Y-87953626D01*
X120521000Y-87947500D01*
X120521000Y-87247500D01*
X120521301Y-87241374D01*
X120522201Y-87235307D01*
X120523691Y-87229357D01*
X120525758Y-87223582D01*
X120528380Y-87218038D01*
X120531533Y-87212777D01*
X120535187Y-87207850D01*
X120539306Y-87203306D01*
X120543850Y-87199187D01*
X120548777Y-87195533D01*
X120554038Y-87192380D01*
X120559582Y-87189758D01*
X120565357Y-87187691D01*
X120571307Y-87186201D01*
X120577374Y-87185301D01*
X120583500Y-87185000D01*
X120708500Y-87185000D01*
X120714626Y-87185301D01*
X120714626Y-87185301D01*
G37*
D25*
X120646000Y-87597500D03*
D12*
G36*
X120214626Y-87185301D02*
X120220693Y-87186201D01*
X120226643Y-87187691D01*
X120232418Y-87189758D01*
X120237962Y-87192380D01*
X120243223Y-87195533D01*
X120248150Y-87199187D01*
X120252694Y-87203306D01*
X120256813Y-87207850D01*
X120260467Y-87212777D01*
X120263620Y-87218038D01*
X120266242Y-87223582D01*
X120268309Y-87229357D01*
X120269799Y-87235307D01*
X120270699Y-87241374D01*
X120271000Y-87247500D01*
X120271000Y-87947500D01*
X120270699Y-87953626D01*
X120269799Y-87959693D01*
X120268309Y-87965643D01*
X120266242Y-87971418D01*
X120263620Y-87976962D01*
X120260467Y-87982223D01*
X120256813Y-87987150D01*
X120252694Y-87991694D01*
X120248150Y-87995813D01*
X120243223Y-87999467D01*
X120237962Y-88002620D01*
X120232418Y-88005242D01*
X120226643Y-88007309D01*
X120220693Y-88008799D01*
X120214626Y-88009699D01*
X120208500Y-88010000D01*
X120083500Y-88010000D01*
X120077374Y-88009699D01*
X120071307Y-88008799D01*
X120065357Y-88007309D01*
X120059582Y-88005242D01*
X120054038Y-88002620D01*
X120048777Y-87999467D01*
X120043850Y-87995813D01*
X120039306Y-87991694D01*
X120035187Y-87987150D01*
X120031533Y-87982223D01*
X120028380Y-87976962D01*
X120025758Y-87971418D01*
X120023691Y-87965643D01*
X120022201Y-87959693D01*
X120021301Y-87953626D01*
X120021000Y-87947500D01*
X120021000Y-87247500D01*
X120021301Y-87241374D01*
X120022201Y-87235307D01*
X120023691Y-87229357D01*
X120025758Y-87223582D01*
X120028380Y-87218038D01*
X120031533Y-87212777D01*
X120035187Y-87207850D01*
X120039306Y-87203306D01*
X120043850Y-87199187D01*
X120048777Y-87195533D01*
X120054038Y-87192380D01*
X120059582Y-87189758D01*
X120065357Y-87187691D01*
X120071307Y-87186201D01*
X120077374Y-87185301D01*
X120083500Y-87185000D01*
X120208500Y-87185000D01*
X120214626Y-87185301D01*
X120214626Y-87185301D01*
G37*
D25*
X120146000Y-87597500D03*
D12*
G36*
X119714626Y-87185301D02*
X119720693Y-87186201D01*
X119726643Y-87187691D01*
X119732418Y-87189758D01*
X119737962Y-87192380D01*
X119743223Y-87195533D01*
X119748150Y-87199187D01*
X119752694Y-87203306D01*
X119756813Y-87207850D01*
X119760467Y-87212777D01*
X119763620Y-87218038D01*
X119766242Y-87223582D01*
X119768309Y-87229357D01*
X119769799Y-87235307D01*
X119770699Y-87241374D01*
X119771000Y-87247500D01*
X119771000Y-87947500D01*
X119770699Y-87953626D01*
X119769799Y-87959693D01*
X119768309Y-87965643D01*
X119766242Y-87971418D01*
X119763620Y-87976962D01*
X119760467Y-87982223D01*
X119756813Y-87987150D01*
X119752694Y-87991694D01*
X119748150Y-87995813D01*
X119743223Y-87999467D01*
X119737962Y-88002620D01*
X119732418Y-88005242D01*
X119726643Y-88007309D01*
X119720693Y-88008799D01*
X119714626Y-88009699D01*
X119708500Y-88010000D01*
X119583500Y-88010000D01*
X119577374Y-88009699D01*
X119571307Y-88008799D01*
X119565357Y-88007309D01*
X119559582Y-88005242D01*
X119554038Y-88002620D01*
X119548777Y-87999467D01*
X119543850Y-87995813D01*
X119539306Y-87991694D01*
X119535187Y-87987150D01*
X119531533Y-87982223D01*
X119528380Y-87976962D01*
X119525758Y-87971418D01*
X119523691Y-87965643D01*
X119522201Y-87959693D01*
X119521301Y-87953626D01*
X119521000Y-87947500D01*
X119521000Y-87247500D01*
X119521301Y-87241374D01*
X119522201Y-87235307D01*
X119523691Y-87229357D01*
X119525758Y-87223582D01*
X119528380Y-87218038D01*
X119531533Y-87212777D01*
X119535187Y-87207850D01*
X119539306Y-87203306D01*
X119543850Y-87199187D01*
X119548777Y-87195533D01*
X119554038Y-87192380D01*
X119559582Y-87189758D01*
X119565357Y-87187691D01*
X119571307Y-87186201D01*
X119577374Y-87185301D01*
X119583500Y-87185000D01*
X119708500Y-87185000D01*
X119714626Y-87185301D01*
X119714626Y-87185301D01*
G37*
D25*
X119646000Y-87597500D03*
D12*
G36*
X119214626Y-87185301D02*
X119220693Y-87186201D01*
X119226643Y-87187691D01*
X119232418Y-87189758D01*
X119237962Y-87192380D01*
X119243223Y-87195533D01*
X119248150Y-87199187D01*
X119252694Y-87203306D01*
X119256813Y-87207850D01*
X119260467Y-87212777D01*
X119263620Y-87218038D01*
X119266242Y-87223582D01*
X119268309Y-87229357D01*
X119269799Y-87235307D01*
X119270699Y-87241374D01*
X119271000Y-87247500D01*
X119271000Y-87947500D01*
X119270699Y-87953626D01*
X119269799Y-87959693D01*
X119268309Y-87965643D01*
X119266242Y-87971418D01*
X119263620Y-87976962D01*
X119260467Y-87982223D01*
X119256813Y-87987150D01*
X119252694Y-87991694D01*
X119248150Y-87995813D01*
X119243223Y-87999467D01*
X119237962Y-88002620D01*
X119232418Y-88005242D01*
X119226643Y-88007309D01*
X119220693Y-88008799D01*
X119214626Y-88009699D01*
X119208500Y-88010000D01*
X119083500Y-88010000D01*
X119077374Y-88009699D01*
X119071307Y-88008799D01*
X119065357Y-88007309D01*
X119059582Y-88005242D01*
X119054038Y-88002620D01*
X119048777Y-87999467D01*
X119043850Y-87995813D01*
X119039306Y-87991694D01*
X119035187Y-87987150D01*
X119031533Y-87982223D01*
X119028380Y-87976962D01*
X119025758Y-87971418D01*
X119023691Y-87965643D01*
X119022201Y-87959693D01*
X119021301Y-87953626D01*
X119021000Y-87947500D01*
X119021000Y-87247500D01*
X119021301Y-87241374D01*
X119022201Y-87235307D01*
X119023691Y-87229357D01*
X119025758Y-87223582D01*
X119028380Y-87218038D01*
X119031533Y-87212777D01*
X119035187Y-87207850D01*
X119039306Y-87203306D01*
X119043850Y-87199187D01*
X119048777Y-87195533D01*
X119054038Y-87192380D01*
X119059582Y-87189758D01*
X119065357Y-87187691D01*
X119071307Y-87186201D01*
X119077374Y-87185301D01*
X119083500Y-87185000D01*
X119208500Y-87185000D01*
X119214626Y-87185301D01*
X119214626Y-87185301D01*
G37*
D25*
X119146000Y-87597500D03*
G04 #@! TD*
D12*
G04 #@! TO.C,C16*
G36*
X117217458Y-91780710D02*
X117231776Y-91782834D01*
X117245817Y-91786351D01*
X117259446Y-91791228D01*
X117272531Y-91797417D01*
X117284947Y-91804858D01*
X117296573Y-91813481D01*
X117307298Y-91823202D01*
X117317019Y-91833927D01*
X117325642Y-91845553D01*
X117333083Y-91857969D01*
X117339272Y-91871054D01*
X117344149Y-91884683D01*
X117347666Y-91898724D01*
X117349790Y-91913042D01*
X117350500Y-91927500D01*
X117350500Y-92222500D01*
X117349790Y-92236958D01*
X117347666Y-92251276D01*
X117344149Y-92265317D01*
X117339272Y-92278946D01*
X117333083Y-92292031D01*
X117325642Y-92304447D01*
X117317019Y-92316073D01*
X117307298Y-92326798D01*
X117296573Y-92336519D01*
X117284947Y-92345142D01*
X117272531Y-92352583D01*
X117259446Y-92358772D01*
X117245817Y-92363649D01*
X117231776Y-92367166D01*
X117217458Y-92369290D01*
X117203000Y-92370000D01*
X116858000Y-92370000D01*
X116843542Y-92369290D01*
X116829224Y-92367166D01*
X116815183Y-92363649D01*
X116801554Y-92358772D01*
X116788469Y-92352583D01*
X116776053Y-92345142D01*
X116764427Y-92336519D01*
X116753702Y-92326798D01*
X116743981Y-92316073D01*
X116735358Y-92304447D01*
X116727917Y-92292031D01*
X116721728Y-92278946D01*
X116716851Y-92265317D01*
X116713334Y-92251276D01*
X116711210Y-92236958D01*
X116710500Y-92222500D01*
X116710500Y-91927500D01*
X116711210Y-91913042D01*
X116713334Y-91898724D01*
X116716851Y-91884683D01*
X116721728Y-91871054D01*
X116727917Y-91857969D01*
X116735358Y-91845553D01*
X116743981Y-91833927D01*
X116753702Y-91823202D01*
X116764427Y-91813481D01*
X116776053Y-91804858D01*
X116788469Y-91797417D01*
X116801554Y-91791228D01*
X116815183Y-91786351D01*
X116829224Y-91782834D01*
X116843542Y-91780710D01*
X116858000Y-91780000D01*
X117203000Y-91780000D01*
X117217458Y-91780710D01*
X117217458Y-91780710D01*
G37*
D13*
X117030500Y-92075000D03*
D12*
G36*
X117217458Y-90810710D02*
X117231776Y-90812834D01*
X117245817Y-90816351D01*
X117259446Y-90821228D01*
X117272531Y-90827417D01*
X117284947Y-90834858D01*
X117296573Y-90843481D01*
X117307298Y-90853202D01*
X117317019Y-90863927D01*
X117325642Y-90875553D01*
X117333083Y-90887969D01*
X117339272Y-90901054D01*
X117344149Y-90914683D01*
X117347666Y-90928724D01*
X117349790Y-90943042D01*
X117350500Y-90957500D01*
X117350500Y-91252500D01*
X117349790Y-91266958D01*
X117347666Y-91281276D01*
X117344149Y-91295317D01*
X117339272Y-91308946D01*
X117333083Y-91322031D01*
X117325642Y-91334447D01*
X117317019Y-91346073D01*
X117307298Y-91356798D01*
X117296573Y-91366519D01*
X117284947Y-91375142D01*
X117272531Y-91382583D01*
X117259446Y-91388772D01*
X117245817Y-91393649D01*
X117231776Y-91397166D01*
X117217458Y-91399290D01*
X117203000Y-91400000D01*
X116858000Y-91400000D01*
X116843542Y-91399290D01*
X116829224Y-91397166D01*
X116815183Y-91393649D01*
X116801554Y-91388772D01*
X116788469Y-91382583D01*
X116776053Y-91375142D01*
X116764427Y-91366519D01*
X116753702Y-91356798D01*
X116743981Y-91346073D01*
X116735358Y-91334447D01*
X116727917Y-91322031D01*
X116721728Y-91308946D01*
X116716851Y-91295317D01*
X116713334Y-91281276D01*
X116711210Y-91266958D01*
X116710500Y-91252500D01*
X116710500Y-90957500D01*
X116711210Y-90943042D01*
X116713334Y-90928724D01*
X116716851Y-90914683D01*
X116721728Y-90901054D01*
X116727917Y-90887969D01*
X116735358Y-90875553D01*
X116743981Y-90863927D01*
X116753702Y-90853202D01*
X116764427Y-90843481D01*
X116776053Y-90834858D01*
X116788469Y-90827417D01*
X116801554Y-90821228D01*
X116815183Y-90816351D01*
X116829224Y-90812834D01*
X116843542Y-90810710D01*
X116858000Y-90810000D01*
X117203000Y-90810000D01*
X117217458Y-90810710D01*
X117217458Y-90810710D01*
G37*
D13*
X117030500Y-91105000D03*
G04 #@! TD*
D12*
G04 #@! TO.C,C17*
G36*
X124138958Y-87162710D02*
X124153276Y-87164834D01*
X124167317Y-87168351D01*
X124180946Y-87173228D01*
X124194031Y-87179417D01*
X124206447Y-87186858D01*
X124218073Y-87195481D01*
X124228798Y-87205202D01*
X124238519Y-87215927D01*
X124247142Y-87227553D01*
X124254583Y-87239969D01*
X124260772Y-87253054D01*
X124265649Y-87266683D01*
X124269166Y-87280724D01*
X124271290Y-87295042D01*
X124272000Y-87309500D01*
X124272000Y-87604500D01*
X124271290Y-87618958D01*
X124269166Y-87633276D01*
X124265649Y-87647317D01*
X124260772Y-87660946D01*
X124254583Y-87674031D01*
X124247142Y-87686447D01*
X124238519Y-87698073D01*
X124228798Y-87708798D01*
X124218073Y-87718519D01*
X124206447Y-87727142D01*
X124194031Y-87734583D01*
X124180946Y-87740772D01*
X124167317Y-87745649D01*
X124153276Y-87749166D01*
X124138958Y-87751290D01*
X124124500Y-87752000D01*
X123779500Y-87752000D01*
X123765042Y-87751290D01*
X123750724Y-87749166D01*
X123736683Y-87745649D01*
X123723054Y-87740772D01*
X123709969Y-87734583D01*
X123697553Y-87727142D01*
X123685927Y-87718519D01*
X123675202Y-87708798D01*
X123665481Y-87698073D01*
X123656858Y-87686447D01*
X123649417Y-87674031D01*
X123643228Y-87660946D01*
X123638351Y-87647317D01*
X123634834Y-87633276D01*
X123632710Y-87618958D01*
X123632000Y-87604500D01*
X123632000Y-87309500D01*
X123632710Y-87295042D01*
X123634834Y-87280724D01*
X123638351Y-87266683D01*
X123643228Y-87253054D01*
X123649417Y-87239969D01*
X123656858Y-87227553D01*
X123665481Y-87215927D01*
X123675202Y-87205202D01*
X123685927Y-87195481D01*
X123697553Y-87186858D01*
X123709969Y-87179417D01*
X123723054Y-87173228D01*
X123736683Y-87168351D01*
X123750724Y-87164834D01*
X123765042Y-87162710D01*
X123779500Y-87162000D01*
X124124500Y-87162000D01*
X124138958Y-87162710D01*
X124138958Y-87162710D01*
G37*
D13*
X123952000Y-87457000D03*
D12*
G36*
X124138958Y-86192710D02*
X124153276Y-86194834D01*
X124167317Y-86198351D01*
X124180946Y-86203228D01*
X124194031Y-86209417D01*
X124206447Y-86216858D01*
X124218073Y-86225481D01*
X124228798Y-86235202D01*
X124238519Y-86245927D01*
X124247142Y-86257553D01*
X124254583Y-86269969D01*
X124260772Y-86283054D01*
X124265649Y-86296683D01*
X124269166Y-86310724D01*
X124271290Y-86325042D01*
X124272000Y-86339500D01*
X124272000Y-86634500D01*
X124271290Y-86648958D01*
X124269166Y-86663276D01*
X124265649Y-86677317D01*
X124260772Y-86690946D01*
X124254583Y-86704031D01*
X124247142Y-86716447D01*
X124238519Y-86728073D01*
X124228798Y-86738798D01*
X124218073Y-86748519D01*
X124206447Y-86757142D01*
X124194031Y-86764583D01*
X124180946Y-86770772D01*
X124167317Y-86775649D01*
X124153276Y-86779166D01*
X124138958Y-86781290D01*
X124124500Y-86782000D01*
X123779500Y-86782000D01*
X123765042Y-86781290D01*
X123750724Y-86779166D01*
X123736683Y-86775649D01*
X123723054Y-86770772D01*
X123709969Y-86764583D01*
X123697553Y-86757142D01*
X123685927Y-86748519D01*
X123675202Y-86738798D01*
X123665481Y-86728073D01*
X123656858Y-86716447D01*
X123649417Y-86704031D01*
X123643228Y-86690946D01*
X123638351Y-86677317D01*
X123634834Y-86663276D01*
X123632710Y-86648958D01*
X123632000Y-86634500D01*
X123632000Y-86339500D01*
X123632710Y-86325042D01*
X123634834Y-86310724D01*
X123638351Y-86296683D01*
X123643228Y-86283054D01*
X123649417Y-86269969D01*
X123656858Y-86257553D01*
X123665481Y-86245927D01*
X123675202Y-86235202D01*
X123685927Y-86225481D01*
X123697553Y-86216858D01*
X123709969Y-86209417D01*
X123723054Y-86203228D01*
X123736683Y-86198351D01*
X123750724Y-86194834D01*
X123765042Y-86192710D01*
X123779500Y-86192000D01*
X124124500Y-86192000D01*
X124138958Y-86192710D01*
X124138958Y-86192710D01*
G37*
D13*
X123952000Y-86487000D03*
G04 #@! TD*
D12*
G04 #@! TO.C,C18*
G36*
X118652958Y-85469210D02*
X118667276Y-85471334D01*
X118681317Y-85474851D01*
X118694946Y-85479728D01*
X118708031Y-85485917D01*
X118720447Y-85493358D01*
X118732073Y-85501981D01*
X118742798Y-85511702D01*
X118752519Y-85522427D01*
X118761142Y-85534053D01*
X118768583Y-85546469D01*
X118774772Y-85559554D01*
X118779649Y-85573183D01*
X118783166Y-85587224D01*
X118785290Y-85601542D01*
X118786000Y-85616000D01*
X118786000Y-85961000D01*
X118785290Y-85975458D01*
X118783166Y-85989776D01*
X118779649Y-86003817D01*
X118774772Y-86017446D01*
X118768583Y-86030531D01*
X118761142Y-86042947D01*
X118752519Y-86054573D01*
X118742798Y-86065298D01*
X118732073Y-86075019D01*
X118720447Y-86083642D01*
X118708031Y-86091083D01*
X118694946Y-86097272D01*
X118681317Y-86102149D01*
X118667276Y-86105666D01*
X118652958Y-86107790D01*
X118638500Y-86108500D01*
X118343500Y-86108500D01*
X118329042Y-86107790D01*
X118314724Y-86105666D01*
X118300683Y-86102149D01*
X118287054Y-86097272D01*
X118273969Y-86091083D01*
X118261553Y-86083642D01*
X118249927Y-86075019D01*
X118239202Y-86065298D01*
X118229481Y-86054573D01*
X118220858Y-86042947D01*
X118213417Y-86030531D01*
X118207228Y-86017446D01*
X118202351Y-86003817D01*
X118198834Y-85989776D01*
X118196710Y-85975458D01*
X118196000Y-85961000D01*
X118196000Y-85616000D01*
X118196710Y-85601542D01*
X118198834Y-85587224D01*
X118202351Y-85573183D01*
X118207228Y-85559554D01*
X118213417Y-85546469D01*
X118220858Y-85534053D01*
X118229481Y-85522427D01*
X118239202Y-85511702D01*
X118249927Y-85501981D01*
X118261553Y-85493358D01*
X118273969Y-85485917D01*
X118287054Y-85479728D01*
X118300683Y-85474851D01*
X118314724Y-85471334D01*
X118329042Y-85469210D01*
X118343500Y-85468500D01*
X118638500Y-85468500D01*
X118652958Y-85469210D01*
X118652958Y-85469210D01*
G37*
D13*
X118491000Y-85788500D03*
D12*
G36*
X119622958Y-85469210D02*
X119637276Y-85471334D01*
X119651317Y-85474851D01*
X119664946Y-85479728D01*
X119678031Y-85485917D01*
X119690447Y-85493358D01*
X119702073Y-85501981D01*
X119712798Y-85511702D01*
X119722519Y-85522427D01*
X119731142Y-85534053D01*
X119738583Y-85546469D01*
X119744772Y-85559554D01*
X119749649Y-85573183D01*
X119753166Y-85587224D01*
X119755290Y-85601542D01*
X119756000Y-85616000D01*
X119756000Y-85961000D01*
X119755290Y-85975458D01*
X119753166Y-85989776D01*
X119749649Y-86003817D01*
X119744772Y-86017446D01*
X119738583Y-86030531D01*
X119731142Y-86042947D01*
X119722519Y-86054573D01*
X119712798Y-86065298D01*
X119702073Y-86075019D01*
X119690447Y-86083642D01*
X119678031Y-86091083D01*
X119664946Y-86097272D01*
X119651317Y-86102149D01*
X119637276Y-86105666D01*
X119622958Y-86107790D01*
X119608500Y-86108500D01*
X119313500Y-86108500D01*
X119299042Y-86107790D01*
X119284724Y-86105666D01*
X119270683Y-86102149D01*
X119257054Y-86097272D01*
X119243969Y-86091083D01*
X119231553Y-86083642D01*
X119219927Y-86075019D01*
X119209202Y-86065298D01*
X119199481Y-86054573D01*
X119190858Y-86042947D01*
X119183417Y-86030531D01*
X119177228Y-86017446D01*
X119172351Y-86003817D01*
X119168834Y-85989776D01*
X119166710Y-85975458D01*
X119166000Y-85961000D01*
X119166000Y-85616000D01*
X119166710Y-85601542D01*
X119168834Y-85587224D01*
X119172351Y-85573183D01*
X119177228Y-85559554D01*
X119183417Y-85546469D01*
X119190858Y-85534053D01*
X119199481Y-85522427D01*
X119209202Y-85511702D01*
X119219927Y-85501981D01*
X119231553Y-85493358D01*
X119243969Y-85485917D01*
X119257054Y-85479728D01*
X119270683Y-85474851D01*
X119284724Y-85471334D01*
X119299042Y-85469210D01*
X119313500Y-85468500D01*
X119608500Y-85468500D01*
X119622958Y-85469210D01*
X119622958Y-85469210D01*
G37*
D13*
X119461000Y-85788500D03*
G04 #@! TD*
D12*
G04 #@! TO.C,R7*
G36*
X121845458Y-85469210D02*
X121859776Y-85471334D01*
X121873817Y-85474851D01*
X121887446Y-85479728D01*
X121900531Y-85485917D01*
X121912947Y-85493358D01*
X121924573Y-85501981D01*
X121935298Y-85511702D01*
X121945019Y-85522427D01*
X121953642Y-85534053D01*
X121961083Y-85546469D01*
X121967272Y-85559554D01*
X121972149Y-85573183D01*
X121975666Y-85587224D01*
X121977790Y-85601542D01*
X121978500Y-85616000D01*
X121978500Y-85961000D01*
X121977790Y-85975458D01*
X121975666Y-85989776D01*
X121972149Y-86003817D01*
X121967272Y-86017446D01*
X121961083Y-86030531D01*
X121953642Y-86042947D01*
X121945019Y-86054573D01*
X121935298Y-86065298D01*
X121924573Y-86075019D01*
X121912947Y-86083642D01*
X121900531Y-86091083D01*
X121887446Y-86097272D01*
X121873817Y-86102149D01*
X121859776Y-86105666D01*
X121845458Y-86107790D01*
X121831000Y-86108500D01*
X121536000Y-86108500D01*
X121521542Y-86107790D01*
X121507224Y-86105666D01*
X121493183Y-86102149D01*
X121479554Y-86097272D01*
X121466469Y-86091083D01*
X121454053Y-86083642D01*
X121442427Y-86075019D01*
X121431702Y-86065298D01*
X121421981Y-86054573D01*
X121413358Y-86042947D01*
X121405917Y-86030531D01*
X121399728Y-86017446D01*
X121394851Y-86003817D01*
X121391334Y-85989776D01*
X121389210Y-85975458D01*
X121388500Y-85961000D01*
X121388500Y-85616000D01*
X121389210Y-85601542D01*
X121391334Y-85587224D01*
X121394851Y-85573183D01*
X121399728Y-85559554D01*
X121405917Y-85546469D01*
X121413358Y-85534053D01*
X121421981Y-85522427D01*
X121431702Y-85511702D01*
X121442427Y-85501981D01*
X121454053Y-85493358D01*
X121466469Y-85485917D01*
X121479554Y-85479728D01*
X121493183Y-85474851D01*
X121507224Y-85471334D01*
X121521542Y-85469210D01*
X121536000Y-85468500D01*
X121831000Y-85468500D01*
X121845458Y-85469210D01*
X121845458Y-85469210D01*
G37*
D13*
X121683500Y-85788500D03*
D12*
G36*
X120875458Y-85469210D02*
X120889776Y-85471334D01*
X120903817Y-85474851D01*
X120917446Y-85479728D01*
X120930531Y-85485917D01*
X120942947Y-85493358D01*
X120954573Y-85501981D01*
X120965298Y-85511702D01*
X120975019Y-85522427D01*
X120983642Y-85534053D01*
X120991083Y-85546469D01*
X120997272Y-85559554D01*
X121002149Y-85573183D01*
X121005666Y-85587224D01*
X121007790Y-85601542D01*
X121008500Y-85616000D01*
X121008500Y-85961000D01*
X121007790Y-85975458D01*
X121005666Y-85989776D01*
X121002149Y-86003817D01*
X120997272Y-86017446D01*
X120991083Y-86030531D01*
X120983642Y-86042947D01*
X120975019Y-86054573D01*
X120965298Y-86065298D01*
X120954573Y-86075019D01*
X120942947Y-86083642D01*
X120930531Y-86091083D01*
X120917446Y-86097272D01*
X120903817Y-86102149D01*
X120889776Y-86105666D01*
X120875458Y-86107790D01*
X120861000Y-86108500D01*
X120566000Y-86108500D01*
X120551542Y-86107790D01*
X120537224Y-86105666D01*
X120523183Y-86102149D01*
X120509554Y-86097272D01*
X120496469Y-86091083D01*
X120484053Y-86083642D01*
X120472427Y-86075019D01*
X120461702Y-86065298D01*
X120451981Y-86054573D01*
X120443358Y-86042947D01*
X120435917Y-86030531D01*
X120429728Y-86017446D01*
X120424851Y-86003817D01*
X120421334Y-85989776D01*
X120419210Y-85975458D01*
X120418500Y-85961000D01*
X120418500Y-85616000D01*
X120419210Y-85601542D01*
X120421334Y-85587224D01*
X120424851Y-85573183D01*
X120429728Y-85559554D01*
X120435917Y-85546469D01*
X120443358Y-85534053D01*
X120451981Y-85522427D01*
X120461702Y-85511702D01*
X120472427Y-85501981D01*
X120484053Y-85493358D01*
X120496469Y-85485917D01*
X120509554Y-85479728D01*
X120523183Y-85474851D01*
X120537224Y-85471334D01*
X120551542Y-85469210D01*
X120566000Y-85468500D01*
X120861000Y-85468500D01*
X120875458Y-85469210D01*
X120875458Y-85469210D01*
G37*
D13*
X120713500Y-85788500D03*
G04 #@! TD*
D26*
G04 #@! TO.C,Q1*
X124460000Y-94965000D03*
D27*
X124235000Y-94265000D03*
X124685000Y-94265000D03*
G04 #@! TD*
M02*
