G04 #@! TF.GenerationSoftware,KiCad,Pcbnew,(5.0.0)*
G04 #@! TF.CreationDate,2018-11-03T02:03:20-06:00*
G04 #@! TF.ProjectId,NRF52832 Base,4E5246353238333220426173652E6B69,rev?*
G04 #@! TF.SameCoordinates,Original*
G04 #@! TF.FileFunction,Soldermask,Top*
G04 #@! TF.FilePolarity,Negative*
%FSLAX46Y46*%
G04 Gerber Fmt 4.6, Leading zero omitted, Abs format (unit mm)*
G04 Created by KiCad (PCBNEW (5.0.0)) date 11/03/18 02:03:20*
%MOMM*%
%LPD*%
G01*
G04 APERTURE LIST*
%ADD10R,2.152600X2.152600*%
%ADD11C,2.152600*%
%ADD12R,0.900000X1.300000*%
%ADD13R,0.900000X0.900000*%
%ADD14C,0.100000*%
%ADD15C,0.990000*%
%ADD16R,1.200000X1.300000*%
%ADD17R,2.200000X1.400000*%
%ADD18C,0.600000*%
%ADD19C,4.800000*%
%ADD20R,1.050000X1.460000*%
%ADD21C,1.275000*%
%ADD22R,2.300000X1.900000*%
%ADD23C,1.850000*%
%ADD24R,1.750000X0.800000*%
%ADD25O,2.300000X1.600000*%
%ADD26R,2.300000X1.600000*%
%ADD27R,1.460000X1.050000*%
%ADD28R,0.850000X1.000000*%
%ADD29R,0.800000X0.850000*%
%ADD30R,0.900000X0.850000*%
%ADD31C,3.000000*%
%ADD32C,0.650000*%
G04 APERTURE END LIST*
D10*
G04 #@! TO.C,U2*
X113030000Y-97155000D03*
D11*
X115570000Y-97155000D03*
X118110000Y-97155000D03*
X120650000Y-97155000D03*
X123190000Y-97155000D03*
X125730000Y-97155000D03*
X128270000Y-97155000D03*
X130810000Y-97155000D03*
X133350000Y-97155000D03*
X135890000Y-97155000D03*
X138430000Y-97155000D03*
X140970000Y-97155000D03*
X140970000Y-81915000D03*
X138430000Y-81915000D03*
X135890000Y-81915000D03*
X133350000Y-81915000D03*
X130810000Y-81915000D03*
X128270000Y-81915000D03*
X125730000Y-81915000D03*
X123190000Y-81915000D03*
X120650000Y-81915000D03*
X118110000Y-81915000D03*
X115570000Y-81915000D03*
X113030000Y-81915000D03*
G04 #@! TD*
D12*
G04 #@! TO.C,AE1*
X144500000Y-96715000D03*
D13*
X144500000Y-94615000D03*
G04 #@! TD*
D14*
G04 #@! TO.C,C1*
G36*
X141541759Y-90921192D02*
X141565785Y-90924756D01*
X141589345Y-90930657D01*
X141612214Y-90938840D01*
X141634171Y-90949224D01*
X141655004Y-90961711D01*
X141674512Y-90976180D01*
X141692509Y-90992491D01*
X141708820Y-91010488D01*
X141723289Y-91029996D01*
X141735776Y-91050829D01*
X141746160Y-91072786D01*
X141754343Y-91095655D01*
X141760244Y-91119215D01*
X141763808Y-91143241D01*
X141765000Y-91167500D01*
X141765000Y-91712500D01*
X141763808Y-91736759D01*
X141760244Y-91760785D01*
X141754343Y-91784345D01*
X141746160Y-91807214D01*
X141735776Y-91829171D01*
X141723289Y-91850004D01*
X141708820Y-91869512D01*
X141692509Y-91887509D01*
X141674512Y-91903820D01*
X141655004Y-91918289D01*
X141634171Y-91930776D01*
X141612214Y-91941160D01*
X141589345Y-91949343D01*
X141565785Y-91955244D01*
X141541759Y-91958808D01*
X141517500Y-91960000D01*
X141022500Y-91960000D01*
X140998241Y-91958808D01*
X140974215Y-91955244D01*
X140950655Y-91949343D01*
X140927786Y-91941160D01*
X140905829Y-91930776D01*
X140884996Y-91918289D01*
X140865488Y-91903820D01*
X140847491Y-91887509D01*
X140831180Y-91869512D01*
X140816711Y-91850004D01*
X140804224Y-91829171D01*
X140793840Y-91807214D01*
X140785657Y-91784345D01*
X140779756Y-91760785D01*
X140776192Y-91736759D01*
X140775000Y-91712500D01*
X140775000Y-91167500D01*
X140776192Y-91143241D01*
X140779756Y-91119215D01*
X140785657Y-91095655D01*
X140793840Y-91072786D01*
X140804224Y-91050829D01*
X140816711Y-91029996D01*
X140831180Y-91010488D01*
X140847491Y-90992491D01*
X140865488Y-90976180D01*
X140884996Y-90961711D01*
X140905829Y-90949224D01*
X140927786Y-90938840D01*
X140950655Y-90930657D01*
X140974215Y-90924756D01*
X140998241Y-90921192D01*
X141022500Y-90920000D01*
X141517500Y-90920000D01*
X141541759Y-90921192D01*
X141541759Y-90921192D01*
G37*
D15*
X141270000Y-91440000D03*
D14*
G36*
X142511759Y-90921192D02*
X142535785Y-90924756D01*
X142559345Y-90930657D01*
X142582214Y-90938840D01*
X142604171Y-90949224D01*
X142625004Y-90961711D01*
X142644512Y-90976180D01*
X142662509Y-90992491D01*
X142678820Y-91010488D01*
X142693289Y-91029996D01*
X142705776Y-91050829D01*
X142716160Y-91072786D01*
X142724343Y-91095655D01*
X142730244Y-91119215D01*
X142733808Y-91143241D01*
X142735000Y-91167500D01*
X142735000Y-91712500D01*
X142733808Y-91736759D01*
X142730244Y-91760785D01*
X142724343Y-91784345D01*
X142716160Y-91807214D01*
X142705776Y-91829171D01*
X142693289Y-91850004D01*
X142678820Y-91869512D01*
X142662509Y-91887509D01*
X142644512Y-91903820D01*
X142625004Y-91918289D01*
X142604171Y-91930776D01*
X142582214Y-91941160D01*
X142559345Y-91949343D01*
X142535785Y-91955244D01*
X142511759Y-91958808D01*
X142487500Y-91960000D01*
X141992500Y-91960000D01*
X141968241Y-91958808D01*
X141944215Y-91955244D01*
X141920655Y-91949343D01*
X141897786Y-91941160D01*
X141875829Y-91930776D01*
X141854996Y-91918289D01*
X141835488Y-91903820D01*
X141817491Y-91887509D01*
X141801180Y-91869512D01*
X141786711Y-91850004D01*
X141774224Y-91829171D01*
X141763840Y-91807214D01*
X141755657Y-91784345D01*
X141749756Y-91760785D01*
X141746192Y-91736759D01*
X141745000Y-91712500D01*
X141745000Y-91167500D01*
X141746192Y-91143241D01*
X141749756Y-91119215D01*
X141755657Y-91095655D01*
X141763840Y-91072786D01*
X141774224Y-91050829D01*
X141786711Y-91029996D01*
X141801180Y-91010488D01*
X141817491Y-90992491D01*
X141835488Y-90976180D01*
X141854996Y-90961711D01*
X141875829Y-90949224D01*
X141897786Y-90938840D01*
X141920655Y-90930657D01*
X141944215Y-90924756D01*
X141968241Y-90921192D01*
X141992500Y-90920000D01*
X142487500Y-90920000D01*
X142511759Y-90921192D01*
X142511759Y-90921192D01*
G37*
D15*
X142240000Y-91440000D03*
G04 #@! TD*
D14*
G04 #@! TO.C,C2*
G36*
X142511759Y-86349192D02*
X142535785Y-86352756D01*
X142559345Y-86358657D01*
X142582214Y-86366840D01*
X142604171Y-86377224D01*
X142625004Y-86389711D01*
X142644512Y-86404180D01*
X142662509Y-86420491D01*
X142678820Y-86438488D01*
X142693289Y-86457996D01*
X142705776Y-86478829D01*
X142716160Y-86500786D01*
X142724343Y-86523655D01*
X142730244Y-86547215D01*
X142733808Y-86571241D01*
X142735000Y-86595500D01*
X142735000Y-87140500D01*
X142733808Y-87164759D01*
X142730244Y-87188785D01*
X142724343Y-87212345D01*
X142716160Y-87235214D01*
X142705776Y-87257171D01*
X142693289Y-87278004D01*
X142678820Y-87297512D01*
X142662509Y-87315509D01*
X142644512Y-87331820D01*
X142625004Y-87346289D01*
X142604171Y-87358776D01*
X142582214Y-87369160D01*
X142559345Y-87377343D01*
X142535785Y-87383244D01*
X142511759Y-87386808D01*
X142487500Y-87388000D01*
X141992500Y-87388000D01*
X141968241Y-87386808D01*
X141944215Y-87383244D01*
X141920655Y-87377343D01*
X141897786Y-87369160D01*
X141875829Y-87358776D01*
X141854996Y-87346289D01*
X141835488Y-87331820D01*
X141817491Y-87315509D01*
X141801180Y-87297512D01*
X141786711Y-87278004D01*
X141774224Y-87257171D01*
X141763840Y-87235214D01*
X141755657Y-87212345D01*
X141749756Y-87188785D01*
X141746192Y-87164759D01*
X141745000Y-87140500D01*
X141745000Y-86595500D01*
X141746192Y-86571241D01*
X141749756Y-86547215D01*
X141755657Y-86523655D01*
X141763840Y-86500786D01*
X141774224Y-86478829D01*
X141786711Y-86457996D01*
X141801180Y-86438488D01*
X141817491Y-86420491D01*
X141835488Y-86404180D01*
X141854996Y-86389711D01*
X141875829Y-86377224D01*
X141897786Y-86366840D01*
X141920655Y-86358657D01*
X141944215Y-86352756D01*
X141968241Y-86349192D01*
X141992500Y-86348000D01*
X142487500Y-86348000D01*
X142511759Y-86349192D01*
X142511759Y-86349192D01*
G37*
D15*
X142240000Y-86868000D03*
D14*
G36*
X141541759Y-86349192D02*
X141565785Y-86352756D01*
X141589345Y-86358657D01*
X141612214Y-86366840D01*
X141634171Y-86377224D01*
X141655004Y-86389711D01*
X141674512Y-86404180D01*
X141692509Y-86420491D01*
X141708820Y-86438488D01*
X141723289Y-86457996D01*
X141735776Y-86478829D01*
X141746160Y-86500786D01*
X141754343Y-86523655D01*
X141760244Y-86547215D01*
X141763808Y-86571241D01*
X141765000Y-86595500D01*
X141765000Y-87140500D01*
X141763808Y-87164759D01*
X141760244Y-87188785D01*
X141754343Y-87212345D01*
X141746160Y-87235214D01*
X141735776Y-87257171D01*
X141723289Y-87278004D01*
X141708820Y-87297512D01*
X141692509Y-87315509D01*
X141674512Y-87331820D01*
X141655004Y-87346289D01*
X141634171Y-87358776D01*
X141612214Y-87369160D01*
X141589345Y-87377343D01*
X141565785Y-87383244D01*
X141541759Y-87386808D01*
X141517500Y-87388000D01*
X141022500Y-87388000D01*
X140998241Y-87386808D01*
X140974215Y-87383244D01*
X140950655Y-87377343D01*
X140927786Y-87369160D01*
X140905829Y-87358776D01*
X140884996Y-87346289D01*
X140865488Y-87331820D01*
X140847491Y-87315509D01*
X140831180Y-87297512D01*
X140816711Y-87278004D01*
X140804224Y-87257171D01*
X140793840Y-87235214D01*
X140785657Y-87212345D01*
X140779756Y-87188785D01*
X140776192Y-87164759D01*
X140775000Y-87140500D01*
X140775000Y-86595500D01*
X140776192Y-86571241D01*
X140779756Y-86547215D01*
X140785657Y-86523655D01*
X140793840Y-86500786D01*
X140804224Y-86478829D01*
X140816711Y-86457996D01*
X140831180Y-86438488D01*
X140847491Y-86420491D01*
X140865488Y-86404180D01*
X140884996Y-86389711D01*
X140905829Y-86377224D01*
X140927786Y-86366840D01*
X140950655Y-86358657D01*
X140974215Y-86352756D01*
X140998241Y-86349192D01*
X141022500Y-86348000D01*
X141517500Y-86348000D01*
X141541759Y-86349192D01*
X141541759Y-86349192D01*
G37*
D15*
X141270000Y-86868000D03*
G04 #@! TD*
D14*
G04 #@! TO.C,C3*
G36*
X138599759Y-92366192D02*
X138623785Y-92369756D01*
X138647345Y-92375657D01*
X138670214Y-92383840D01*
X138692171Y-92394224D01*
X138713004Y-92406711D01*
X138732512Y-92421180D01*
X138750509Y-92437491D01*
X138766820Y-92455488D01*
X138781289Y-92474996D01*
X138793776Y-92495829D01*
X138804160Y-92517786D01*
X138812343Y-92540655D01*
X138818244Y-92564215D01*
X138821808Y-92588241D01*
X138823000Y-92612500D01*
X138823000Y-93107500D01*
X138821808Y-93131759D01*
X138818244Y-93155785D01*
X138812343Y-93179345D01*
X138804160Y-93202214D01*
X138793776Y-93224171D01*
X138781289Y-93245004D01*
X138766820Y-93264512D01*
X138750509Y-93282509D01*
X138732512Y-93298820D01*
X138713004Y-93313289D01*
X138692171Y-93325776D01*
X138670214Y-93336160D01*
X138647345Y-93344343D01*
X138623785Y-93350244D01*
X138599759Y-93353808D01*
X138575500Y-93355000D01*
X138030500Y-93355000D01*
X138006241Y-93353808D01*
X137982215Y-93350244D01*
X137958655Y-93344343D01*
X137935786Y-93336160D01*
X137913829Y-93325776D01*
X137892996Y-93313289D01*
X137873488Y-93298820D01*
X137855491Y-93282509D01*
X137839180Y-93264512D01*
X137824711Y-93245004D01*
X137812224Y-93224171D01*
X137801840Y-93202214D01*
X137793657Y-93179345D01*
X137787756Y-93155785D01*
X137784192Y-93131759D01*
X137783000Y-93107500D01*
X137783000Y-92612500D01*
X137784192Y-92588241D01*
X137787756Y-92564215D01*
X137793657Y-92540655D01*
X137801840Y-92517786D01*
X137812224Y-92495829D01*
X137824711Y-92474996D01*
X137839180Y-92455488D01*
X137855491Y-92437491D01*
X137873488Y-92421180D01*
X137892996Y-92406711D01*
X137913829Y-92394224D01*
X137935786Y-92383840D01*
X137958655Y-92375657D01*
X137982215Y-92369756D01*
X138006241Y-92366192D01*
X138030500Y-92365000D01*
X138575500Y-92365000D01*
X138599759Y-92366192D01*
X138599759Y-92366192D01*
G37*
D15*
X138303000Y-92860000D03*
D14*
G36*
X138599759Y-93336192D02*
X138623785Y-93339756D01*
X138647345Y-93345657D01*
X138670214Y-93353840D01*
X138692171Y-93364224D01*
X138713004Y-93376711D01*
X138732512Y-93391180D01*
X138750509Y-93407491D01*
X138766820Y-93425488D01*
X138781289Y-93444996D01*
X138793776Y-93465829D01*
X138804160Y-93487786D01*
X138812343Y-93510655D01*
X138818244Y-93534215D01*
X138821808Y-93558241D01*
X138823000Y-93582500D01*
X138823000Y-94077500D01*
X138821808Y-94101759D01*
X138818244Y-94125785D01*
X138812343Y-94149345D01*
X138804160Y-94172214D01*
X138793776Y-94194171D01*
X138781289Y-94215004D01*
X138766820Y-94234512D01*
X138750509Y-94252509D01*
X138732512Y-94268820D01*
X138713004Y-94283289D01*
X138692171Y-94295776D01*
X138670214Y-94306160D01*
X138647345Y-94314343D01*
X138623785Y-94320244D01*
X138599759Y-94323808D01*
X138575500Y-94325000D01*
X138030500Y-94325000D01*
X138006241Y-94323808D01*
X137982215Y-94320244D01*
X137958655Y-94314343D01*
X137935786Y-94306160D01*
X137913829Y-94295776D01*
X137892996Y-94283289D01*
X137873488Y-94268820D01*
X137855491Y-94252509D01*
X137839180Y-94234512D01*
X137824711Y-94215004D01*
X137812224Y-94194171D01*
X137801840Y-94172214D01*
X137793657Y-94149345D01*
X137787756Y-94125785D01*
X137784192Y-94101759D01*
X137783000Y-94077500D01*
X137783000Y-93582500D01*
X137784192Y-93558241D01*
X137787756Y-93534215D01*
X137793657Y-93510655D01*
X137801840Y-93487786D01*
X137812224Y-93465829D01*
X137824711Y-93444996D01*
X137839180Y-93425488D01*
X137855491Y-93407491D01*
X137873488Y-93391180D01*
X137892996Y-93376711D01*
X137913829Y-93364224D01*
X137935786Y-93353840D01*
X137958655Y-93345657D01*
X137982215Y-93339756D01*
X138006241Y-93336192D01*
X138030500Y-93335000D01*
X138575500Y-93335000D01*
X138599759Y-93336192D01*
X138599759Y-93336192D01*
G37*
D15*
X138303000Y-93830000D03*
G04 #@! TD*
D14*
G04 #@! TO.C,C4*
G36*
X129476759Y-83758392D02*
X129500785Y-83761956D01*
X129524345Y-83767857D01*
X129547214Y-83776040D01*
X129569171Y-83786424D01*
X129590004Y-83798911D01*
X129609512Y-83813380D01*
X129627509Y-83829691D01*
X129643820Y-83847688D01*
X129658289Y-83867196D01*
X129670776Y-83888029D01*
X129681160Y-83909986D01*
X129689343Y-83932855D01*
X129695244Y-83956415D01*
X129698808Y-83980441D01*
X129700000Y-84004700D01*
X129700000Y-84549700D01*
X129698808Y-84573959D01*
X129695244Y-84597985D01*
X129689343Y-84621545D01*
X129681160Y-84644414D01*
X129670776Y-84666371D01*
X129658289Y-84687204D01*
X129643820Y-84706712D01*
X129627509Y-84724709D01*
X129609512Y-84741020D01*
X129590004Y-84755489D01*
X129569171Y-84767976D01*
X129547214Y-84778360D01*
X129524345Y-84786543D01*
X129500785Y-84792444D01*
X129476759Y-84796008D01*
X129452500Y-84797200D01*
X128957500Y-84797200D01*
X128933241Y-84796008D01*
X128909215Y-84792444D01*
X128885655Y-84786543D01*
X128862786Y-84778360D01*
X128840829Y-84767976D01*
X128819996Y-84755489D01*
X128800488Y-84741020D01*
X128782491Y-84724709D01*
X128766180Y-84706712D01*
X128751711Y-84687204D01*
X128739224Y-84666371D01*
X128728840Y-84644414D01*
X128720657Y-84621545D01*
X128714756Y-84597985D01*
X128711192Y-84573959D01*
X128710000Y-84549700D01*
X128710000Y-84004700D01*
X128711192Y-83980441D01*
X128714756Y-83956415D01*
X128720657Y-83932855D01*
X128728840Y-83909986D01*
X128739224Y-83888029D01*
X128751711Y-83867196D01*
X128766180Y-83847688D01*
X128782491Y-83829691D01*
X128800488Y-83813380D01*
X128819996Y-83798911D01*
X128840829Y-83786424D01*
X128862786Y-83776040D01*
X128885655Y-83767857D01*
X128909215Y-83761956D01*
X128933241Y-83758392D01*
X128957500Y-83757200D01*
X129452500Y-83757200D01*
X129476759Y-83758392D01*
X129476759Y-83758392D01*
G37*
D15*
X129205000Y-84277200D03*
D14*
G36*
X130446759Y-83758392D02*
X130470785Y-83761956D01*
X130494345Y-83767857D01*
X130517214Y-83776040D01*
X130539171Y-83786424D01*
X130560004Y-83798911D01*
X130579512Y-83813380D01*
X130597509Y-83829691D01*
X130613820Y-83847688D01*
X130628289Y-83867196D01*
X130640776Y-83888029D01*
X130651160Y-83909986D01*
X130659343Y-83932855D01*
X130665244Y-83956415D01*
X130668808Y-83980441D01*
X130670000Y-84004700D01*
X130670000Y-84549700D01*
X130668808Y-84573959D01*
X130665244Y-84597985D01*
X130659343Y-84621545D01*
X130651160Y-84644414D01*
X130640776Y-84666371D01*
X130628289Y-84687204D01*
X130613820Y-84706712D01*
X130597509Y-84724709D01*
X130579512Y-84741020D01*
X130560004Y-84755489D01*
X130539171Y-84767976D01*
X130517214Y-84778360D01*
X130494345Y-84786543D01*
X130470785Y-84792444D01*
X130446759Y-84796008D01*
X130422500Y-84797200D01*
X129927500Y-84797200D01*
X129903241Y-84796008D01*
X129879215Y-84792444D01*
X129855655Y-84786543D01*
X129832786Y-84778360D01*
X129810829Y-84767976D01*
X129789996Y-84755489D01*
X129770488Y-84741020D01*
X129752491Y-84724709D01*
X129736180Y-84706712D01*
X129721711Y-84687204D01*
X129709224Y-84666371D01*
X129698840Y-84644414D01*
X129690657Y-84621545D01*
X129684756Y-84597985D01*
X129681192Y-84573959D01*
X129680000Y-84549700D01*
X129680000Y-84004700D01*
X129681192Y-83980441D01*
X129684756Y-83956415D01*
X129690657Y-83932855D01*
X129698840Y-83909986D01*
X129709224Y-83888029D01*
X129721711Y-83867196D01*
X129736180Y-83847688D01*
X129752491Y-83829691D01*
X129770488Y-83813380D01*
X129789996Y-83798911D01*
X129810829Y-83786424D01*
X129832786Y-83776040D01*
X129855655Y-83767857D01*
X129879215Y-83761956D01*
X129903241Y-83758392D01*
X129927500Y-83757200D01*
X130422500Y-83757200D01*
X130446759Y-83758392D01*
X130446759Y-83758392D01*
G37*
D15*
X130175000Y-84277200D03*
G04 #@! TD*
D14*
G04 #@! TO.C,C5*
G36*
X127931759Y-90773192D02*
X127955785Y-90776756D01*
X127979345Y-90782657D01*
X128002214Y-90790840D01*
X128024171Y-90801224D01*
X128045004Y-90813711D01*
X128064512Y-90828180D01*
X128082509Y-90844491D01*
X128098820Y-90862488D01*
X128113289Y-90881996D01*
X128125776Y-90902829D01*
X128136160Y-90924786D01*
X128144343Y-90947655D01*
X128150244Y-90971215D01*
X128153808Y-90995241D01*
X128155000Y-91019500D01*
X128155000Y-91514500D01*
X128153808Y-91538759D01*
X128150244Y-91562785D01*
X128144343Y-91586345D01*
X128136160Y-91609214D01*
X128125776Y-91631171D01*
X128113289Y-91652004D01*
X128098820Y-91671512D01*
X128082509Y-91689509D01*
X128064512Y-91705820D01*
X128045004Y-91720289D01*
X128024171Y-91732776D01*
X128002214Y-91743160D01*
X127979345Y-91751343D01*
X127955785Y-91757244D01*
X127931759Y-91760808D01*
X127907500Y-91762000D01*
X127362500Y-91762000D01*
X127338241Y-91760808D01*
X127314215Y-91757244D01*
X127290655Y-91751343D01*
X127267786Y-91743160D01*
X127245829Y-91732776D01*
X127224996Y-91720289D01*
X127205488Y-91705820D01*
X127187491Y-91689509D01*
X127171180Y-91671512D01*
X127156711Y-91652004D01*
X127144224Y-91631171D01*
X127133840Y-91609214D01*
X127125657Y-91586345D01*
X127119756Y-91562785D01*
X127116192Y-91538759D01*
X127115000Y-91514500D01*
X127115000Y-91019500D01*
X127116192Y-90995241D01*
X127119756Y-90971215D01*
X127125657Y-90947655D01*
X127133840Y-90924786D01*
X127144224Y-90902829D01*
X127156711Y-90881996D01*
X127171180Y-90862488D01*
X127187491Y-90844491D01*
X127205488Y-90828180D01*
X127224996Y-90813711D01*
X127245829Y-90801224D01*
X127267786Y-90790840D01*
X127290655Y-90782657D01*
X127314215Y-90776756D01*
X127338241Y-90773192D01*
X127362500Y-90772000D01*
X127907500Y-90772000D01*
X127931759Y-90773192D01*
X127931759Y-90773192D01*
G37*
D15*
X127635000Y-91267000D03*
D14*
G36*
X127931759Y-89803192D02*
X127955785Y-89806756D01*
X127979345Y-89812657D01*
X128002214Y-89820840D01*
X128024171Y-89831224D01*
X128045004Y-89843711D01*
X128064512Y-89858180D01*
X128082509Y-89874491D01*
X128098820Y-89892488D01*
X128113289Y-89911996D01*
X128125776Y-89932829D01*
X128136160Y-89954786D01*
X128144343Y-89977655D01*
X128150244Y-90001215D01*
X128153808Y-90025241D01*
X128155000Y-90049500D01*
X128155000Y-90544500D01*
X128153808Y-90568759D01*
X128150244Y-90592785D01*
X128144343Y-90616345D01*
X128136160Y-90639214D01*
X128125776Y-90661171D01*
X128113289Y-90682004D01*
X128098820Y-90701512D01*
X128082509Y-90719509D01*
X128064512Y-90735820D01*
X128045004Y-90750289D01*
X128024171Y-90762776D01*
X128002214Y-90773160D01*
X127979345Y-90781343D01*
X127955785Y-90787244D01*
X127931759Y-90790808D01*
X127907500Y-90792000D01*
X127362500Y-90792000D01*
X127338241Y-90790808D01*
X127314215Y-90787244D01*
X127290655Y-90781343D01*
X127267786Y-90773160D01*
X127245829Y-90762776D01*
X127224996Y-90750289D01*
X127205488Y-90735820D01*
X127187491Y-90719509D01*
X127171180Y-90701512D01*
X127156711Y-90682004D01*
X127144224Y-90661171D01*
X127133840Y-90639214D01*
X127125657Y-90616345D01*
X127119756Y-90592785D01*
X127116192Y-90568759D01*
X127115000Y-90544500D01*
X127115000Y-90049500D01*
X127116192Y-90025241D01*
X127119756Y-90001215D01*
X127125657Y-89977655D01*
X127133840Y-89954786D01*
X127144224Y-89932829D01*
X127156711Y-89911996D01*
X127171180Y-89892488D01*
X127187491Y-89874491D01*
X127205488Y-89858180D01*
X127224996Y-89843711D01*
X127245829Y-89831224D01*
X127267786Y-89820840D01*
X127290655Y-89812657D01*
X127314215Y-89806756D01*
X127338241Y-89803192D01*
X127362500Y-89802000D01*
X127907500Y-89802000D01*
X127931759Y-89803192D01*
X127931759Y-89803192D01*
G37*
D15*
X127635000Y-90297000D03*
G04 #@! TD*
D14*
G04 #@! TO.C,C7*
G36*
X142511759Y-92191192D02*
X142535785Y-92194756D01*
X142559345Y-92200657D01*
X142582214Y-92208840D01*
X142604171Y-92219224D01*
X142625004Y-92231711D01*
X142644512Y-92246180D01*
X142662509Y-92262491D01*
X142678820Y-92280488D01*
X142693289Y-92299996D01*
X142705776Y-92320829D01*
X142716160Y-92342786D01*
X142724343Y-92365655D01*
X142730244Y-92389215D01*
X142733808Y-92413241D01*
X142735000Y-92437500D01*
X142735000Y-92982500D01*
X142733808Y-93006759D01*
X142730244Y-93030785D01*
X142724343Y-93054345D01*
X142716160Y-93077214D01*
X142705776Y-93099171D01*
X142693289Y-93120004D01*
X142678820Y-93139512D01*
X142662509Y-93157509D01*
X142644512Y-93173820D01*
X142625004Y-93188289D01*
X142604171Y-93200776D01*
X142582214Y-93211160D01*
X142559345Y-93219343D01*
X142535785Y-93225244D01*
X142511759Y-93228808D01*
X142487500Y-93230000D01*
X141992500Y-93230000D01*
X141968241Y-93228808D01*
X141944215Y-93225244D01*
X141920655Y-93219343D01*
X141897786Y-93211160D01*
X141875829Y-93200776D01*
X141854996Y-93188289D01*
X141835488Y-93173820D01*
X141817491Y-93157509D01*
X141801180Y-93139512D01*
X141786711Y-93120004D01*
X141774224Y-93099171D01*
X141763840Y-93077214D01*
X141755657Y-93054345D01*
X141749756Y-93030785D01*
X141746192Y-93006759D01*
X141745000Y-92982500D01*
X141745000Y-92437500D01*
X141746192Y-92413241D01*
X141749756Y-92389215D01*
X141755657Y-92365655D01*
X141763840Y-92342786D01*
X141774224Y-92320829D01*
X141786711Y-92299996D01*
X141801180Y-92280488D01*
X141817491Y-92262491D01*
X141835488Y-92246180D01*
X141854996Y-92231711D01*
X141875829Y-92219224D01*
X141897786Y-92208840D01*
X141920655Y-92200657D01*
X141944215Y-92194756D01*
X141968241Y-92191192D01*
X141992500Y-92190000D01*
X142487500Y-92190000D01*
X142511759Y-92191192D01*
X142511759Y-92191192D01*
G37*
D15*
X142240000Y-92710000D03*
D14*
G36*
X141541759Y-92191192D02*
X141565785Y-92194756D01*
X141589345Y-92200657D01*
X141612214Y-92208840D01*
X141634171Y-92219224D01*
X141655004Y-92231711D01*
X141674512Y-92246180D01*
X141692509Y-92262491D01*
X141708820Y-92280488D01*
X141723289Y-92299996D01*
X141735776Y-92320829D01*
X141746160Y-92342786D01*
X141754343Y-92365655D01*
X141760244Y-92389215D01*
X141763808Y-92413241D01*
X141765000Y-92437500D01*
X141765000Y-92982500D01*
X141763808Y-93006759D01*
X141760244Y-93030785D01*
X141754343Y-93054345D01*
X141746160Y-93077214D01*
X141735776Y-93099171D01*
X141723289Y-93120004D01*
X141708820Y-93139512D01*
X141692509Y-93157509D01*
X141674512Y-93173820D01*
X141655004Y-93188289D01*
X141634171Y-93200776D01*
X141612214Y-93211160D01*
X141589345Y-93219343D01*
X141565785Y-93225244D01*
X141541759Y-93228808D01*
X141517500Y-93230000D01*
X141022500Y-93230000D01*
X140998241Y-93228808D01*
X140974215Y-93225244D01*
X140950655Y-93219343D01*
X140927786Y-93211160D01*
X140905829Y-93200776D01*
X140884996Y-93188289D01*
X140865488Y-93173820D01*
X140847491Y-93157509D01*
X140831180Y-93139512D01*
X140816711Y-93120004D01*
X140804224Y-93099171D01*
X140793840Y-93077214D01*
X140785657Y-93054345D01*
X140779756Y-93030785D01*
X140776192Y-93006759D01*
X140775000Y-92982500D01*
X140775000Y-92437500D01*
X140776192Y-92413241D01*
X140779756Y-92389215D01*
X140785657Y-92365655D01*
X140793840Y-92342786D01*
X140804224Y-92320829D01*
X140816711Y-92299996D01*
X140831180Y-92280488D01*
X140847491Y-92262491D01*
X140865488Y-92246180D01*
X140884996Y-92231711D01*
X140905829Y-92219224D01*
X140927786Y-92208840D01*
X140950655Y-92200657D01*
X140974215Y-92194756D01*
X140998241Y-92191192D01*
X141022500Y-92190000D01*
X141517500Y-92190000D01*
X141541759Y-92191192D01*
X141541759Y-92191192D01*
G37*
D15*
X141270000Y-92710000D03*
G04 #@! TD*
D14*
G04 #@! TO.C,C8*
G36*
X139996759Y-87771192D02*
X140020785Y-87774756D01*
X140044345Y-87780657D01*
X140067214Y-87788840D01*
X140089171Y-87799224D01*
X140110004Y-87811711D01*
X140129512Y-87826180D01*
X140147509Y-87842491D01*
X140163820Y-87860488D01*
X140178289Y-87879996D01*
X140190776Y-87900829D01*
X140201160Y-87922786D01*
X140209343Y-87945655D01*
X140215244Y-87969215D01*
X140218808Y-87993241D01*
X140220000Y-88017500D01*
X140220000Y-88512500D01*
X140218808Y-88536759D01*
X140215244Y-88560785D01*
X140209343Y-88584345D01*
X140201160Y-88607214D01*
X140190776Y-88629171D01*
X140178289Y-88650004D01*
X140163820Y-88669512D01*
X140147509Y-88687509D01*
X140129512Y-88703820D01*
X140110004Y-88718289D01*
X140089171Y-88730776D01*
X140067214Y-88741160D01*
X140044345Y-88749343D01*
X140020785Y-88755244D01*
X139996759Y-88758808D01*
X139972500Y-88760000D01*
X139427500Y-88760000D01*
X139403241Y-88758808D01*
X139379215Y-88755244D01*
X139355655Y-88749343D01*
X139332786Y-88741160D01*
X139310829Y-88730776D01*
X139289996Y-88718289D01*
X139270488Y-88703820D01*
X139252491Y-88687509D01*
X139236180Y-88669512D01*
X139221711Y-88650004D01*
X139209224Y-88629171D01*
X139198840Y-88607214D01*
X139190657Y-88584345D01*
X139184756Y-88560785D01*
X139181192Y-88536759D01*
X139180000Y-88512500D01*
X139180000Y-88017500D01*
X139181192Y-87993241D01*
X139184756Y-87969215D01*
X139190657Y-87945655D01*
X139198840Y-87922786D01*
X139209224Y-87900829D01*
X139221711Y-87879996D01*
X139236180Y-87860488D01*
X139252491Y-87842491D01*
X139270488Y-87826180D01*
X139289996Y-87811711D01*
X139310829Y-87799224D01*
X139332786Y-87788840D01*
X139355655Y-87780657D01*
X139379215Y-87774756D01*
X139403241Y-87771192D01*
X139427500Y-87770000D01*
X139972500Y-87770000D01*
X139996759Y-87771192D01*
X139996759Y-87771192D01*
G37*
D15*
X139700000Y-88265000D03*
D14*
G36*
X139996759Y-86801192D02*
X140020785Y-86804756D01*
X140044345Y-86810657D01*
X140067214Y-86818840D01*
X140089171Y-86829224D01*
X140110004Y-86841711D01*
X140129512Y-86856180D01*
X140147509Y-86872491D01*
X140163820Y-86890488D01*
X140178289Y-86909996D01*
X140190776Y-86930829D01*
X140201160Y-86952786D01*
X140209343Y-86975655D01*
X140215244Y-86999215D01*
X140218808Y-87023241D01*
X140220000Y-87047500D01*
X140220000Y-87542500D01*
X140218808Y-87566759D01*
X140215244Y-87590785D01*
X140209343Y-87614345D01*
X140201160Y-87637214D01*
X140190776Y-87659171D01*
X140178289Y-87680004D01*
X140163820Y-87699512D01*
X140147509Y-87717509D01*
X140129512Y-87733820D01*
X140110004Y-87748289D01*
X140089171Y-87760776D01*
X140067214Y-87771160D01*
X140044345Y-87779343D01*
X140020785Y-87785244D01*
X139996759Y-87788808D01*
X139972500Y-87790000D01*
X139427500Y-87790000D01*
X139403241Y-87788808D01*
X139379215Y-87785244D01*
X139355655Y-87779343D01*
X139332786Y-87771160D01*
X139310829Y-87760776D01*
X139289996Y-87748289D01*
X139270488Y-87733820D01*
X139252491Y-87717509D01*
X139236180Y-87699512D01*
X139221711Y-87680004D01*
X139209224Y-87659171D01*
X139198840Y-87637214D01*
X139190657Y-87614345D01*
X139184756Y-87590785D01*
X139181192Y-87566759D01*
X139180000Y-87542500D01*
X139180000Y-87047500D01*
X139181192Y-87023241D01*
X139184756Y-86999215D01*
X139190657Y-86975655D01*
X139198840Y-86952786D01*
X139209224Y-86930829D01*
X139221711Y-86909996D01*
X139236180Y-86890488D01*
X139252491Y-86872491D01*
X139270488Y-86856180D01*
X139289996Y-86841711D01*
X139310829Y-86829224D01*
X139332786Y-86818840D01*
X139355655Y-86810657D01*
X139379215Y-86804756D01*
X139403241Y-86801192D01*
X139427500Y-86800000D01*
X139972500Y-86800000D01*
X139996759Y-86801192D01*
X139996759Y-86801192D01*
G37*
D15*
X139700000Y-87295000D03*
G04 #@! TD*
D14*
G04 #@! TO.C,C11*
G36*
X125391759Y-83626192D02*
X125415785Y-83629756D01*
X125439345Y-83635657D01*
X125462214Y-83643840D01*
X125484171Y-83654224D01*
X125505004Y-83666711D01*
X125524512Y-83681180D01*
X125542509Y-83697491D01*
X125558820Y-83715488D01*
X125573289Y-83734996D01*
X125585776Y-83755829D01*
X125596160Y-83777786D01*
X125604343Y-83800655D01*
X125610244Y-83824215D01*
X125613808Y-83848241D01*
X125615000Y-83872500D01*
X125615000Y-84367500D01*
X125613808Y-84391759D01*
X125610244Y-84415785D01*
X125604343Y-84439345D01*
X125596160Y-84462214D01*
X125585776Y-84484171D01*
X125573289Y-84505004D01*
X125558820Y-84524512D01*
X125542509Y-84542509D01*
X125524512Y-84558820D01*
X125505004Y-84573289D01*
X125484171Y-84585776D01*
X125462214Y-84596160D01*
X125439345Y-84604343D01*
X125415785Y-84610244D01*
X125391759Y-84613808D01*
X125367500Y-84615000D01*
X124822500Y-84615000D01*
X124798241Y-84613808D01*
X124774215Y-84610244D01*
X124750655Y-84604343D01*
X124727786Y-84596160D01*
X124705829Y-84585776D01*
X124684996Y-84573289D01*
X124665488Y-84558820D01*
X124647491Y-84542509D01*
X124631180Y-84524512D01*
X124616711Y-84505004D01*
X124604224Y-84484171D01*
X124593840Y-84462214D01*
X124585657Y-84439345D01*
X124579756Y-84415785D01*
X124576192Y-84391759D01*
X124575000Y-84367500D01*
X124575000Y-83872500D01*
X124576192Y-83848241D01*
X124579756Y-83824215D01*
X124585657Y-83800655D01*
X124593840Y-83777786D01*
X124604224Y-83755829D01*
X124616711Y-83734996D01*
X124631180Y-83715488D01*
X124647491Y-83697491D01*
X124665488Y-83681180D01*
X124684996Y-83666711D01*
X124705829Y-83654224D01*
X124727786Y-83643840D01*
X124750655Y-83635657D01*
X124774215Y-83629756D01*
X124798241Y-83626192D01*
X124822500Y-83625000D01*
X125367500Y-83625000D01*
X125391759Y-83626192D01*
X125391759Y-83626192D01*
G37*
D15*
X125095000Y-84120000D03*
D14*
G36*
X125391759Y-84596192D02*
X125415785Y-84599756D01*
X125439345Y-84605657D01*
X125462214Y-84613840D01*
X125484171Y-84624224D01*
X125505004Y-84636711D01*
X125524512Y-84651180D01*
X125542509Y-84667491D01*
X125558820Y-84685488D01*
X125573289Y-84704996D01*
X125585776Y-84725829D01*
X125596160Y-84747786D01*
X125604343Y-84770655D01*
X125610244Y-84794215D01*
X125613808Y-84818241D01*
X125615000Y-84842500D01*
X125615000Y-85337500D01*
X125613808Y-85361759D01*
X125610244Y-85385785D01*
X125604343Y-85409345D01*
X125596160Y-85432214D01*
X125585776Y-85454171D01*
X125573289Y-85475004D01*
X125558820Y-85494512D01*
X125542509Y-85512509D01*
X125524512Y-85528820D01*
X125505004Y-85543289D01*
X125484171Y-85555776D01*
X125462214Y-85566160D01*
X125439345Y-85574343D01*
X125415785Y-85580244D01*
X125391759Y-85583808D01*
X125367500Y-85585000D01*
X124822500Y-85585000D01*
X124798241Y-85583808D01*
X124774215Y-85580244D01*
X124750655Y-85574343D01*
X124727786Y-85566160D01*
X124705829Y-85555776D01*
X124684996Y-85543289D01*
X124665488Y-85528820D01*
X124647491Y-85512509D01*
X124631180Y-85494512D01*
X124616711Y-85475004D01*
X124604224Y-85454171D01*
X124593840Y-85432214D01*
X124585657Y-85409345D01*
X124579756Y-85385785D01*
X124576192Y-85361759D01*
X124575000Y-85337500D01*
X124575000Y-84842500D01*
X124576192Y-84818241D01*
X124579756Y-84794215D01*
X124585657Y-84770655D01*
X124593840Y-84747786D01*
X124604224Y-84725829D01*
X124616711Y-84704996D01*
X124631180Y-84685488D01*
X124647491Y-84667491D01*
X124665488Y-84651180D01*
X124684996Y-84636711D01*
X124705829Y-84624224D01*
X124727786Y-84613840D01*
X124750655Y-84605657D01*
X124774215Y-84599756D01*
X124798241Y-84596192D01*
X124822500Y-84595000D01*
X125367500Y-84595000D01*
X125391759Y-84596192D01*
X125391759Y-84596192D01*
G37*
D15*
X125095000Y-85090000D03*
G04 #@! TD*
D14*
G04 #@! TO.C,C12*
G36*
X125391759Y-86016192D02*
X125415785Y-86019756D01*
X125439345Y-86025657D01*
X125462214Y-86033840D01*
X125484171Y-86044224D01*
X125505004Y-86056711D01*
X125524512Y-86071180D01*
X125542509Y-86087491D01*
X125558820Y-86105488D01*
X125573289Y-86124996D01*
X125585776Y-86145829D01*
X125596160Y-86167786D01*
X125604343Y-86190655D01*
X125610244Y-86214215D01*
X125613808Y-86238241D01*
X125615000Y-86262500D01*
X125615000Y-86757500D01*
X125613808Y-86781759D01*
X125610244Y-86805785D01*
X125604343Y-86829345D01*
X125596160Y-86852214D01*
X125585776Y-86874171D01*
X125573289Y-86895004D01*
X125558820Y-86914512D01*
X125542509Y-86932509D01*
X125524512Y-86948820D01*
X125505004Y-86963289D01*
X125484171Y-86975776D01*
X125462214Y-86986160D01*
X125439345Y-86994343D01*
X125415785Y-87000244D01*
X125391759Y-87003808D01*
X125367500Y-87005000D01*
X124822500Y-87005000D01*
X124798241Y-87003808D01*
X124774215Y-87000244D01*
X124750655Y-86994343D01*
X124727786Y-86986160D01*
X124705829Y-86975776D01*
X124684996Y-86963289D01*
X124665488Y-86948820D01*
X124647491Y-86932509D01*
X124631180Y-86914512D01*
X124616711Y-86895004D01*
X124604224Y-86874171D01*
X124593840Y-86852214D01*
X124585657Y-86829345D01*
X124579756Y-86805785D01*
X124576192Y-86781759D01*
X124575000Y-86757500D01*
X124575000Y-86262500D01*
X124576192Y-86238241D01*
X124579756Y-86214215D01*
X124585657Y-86190655D01*
X124593840Y-86167786D01*
X124604224Y-86145829D01*
X124616711Y-86124996D01*
X124631180Y-86105488D01*
X124647491Y-86087491D01*
X124665488Y-86071180D01*
X124684996Y-86056711D01*
X124705829Y-86044224D01*
X124727786Y-86033840D01*
X124750655Y-86025657D01*
X124774215Y-86019756D01*
X124798241Y-86016192D01*
X124822500Y-86015000D01*
X125367500Y-86015000D01*
X125391759Y-86016192D01*
X125391759Y-86016192D01*
G37*
D15*
X125095000Y-86510000D03*
D14*
G36*
X125391759Y-86986192D02*
X125415785Y-86989756D01*
X125439345Y-86995657D01*
X125462214Y-87003840D01*
X125484171Y-87014224D01*
X125505004Y-87026711D01*
X125524512Y-87041180D01*
X125542509Y-87057491D01*
X125558820Y-87075488D01*
X125573289Y-87094996D01*
X125585776Y-87115829D01*
X125596160Y-87137786D01*
X125604343Y-87160655D01*
X125610244Y-87184215D01*
X125613808Y-87208241D01*
X125615000Y-87232500D01*
X125615000Y-87727500D01*
X125613808Y-87751759D01*
X125610244Y-87775785D01*
X125604343Y-87799345D01*
X125596160Y-87822214D01*
X125585776Y-87844171D01*
X125573289Y-87865004D01*
X125558820Y-87884512D01*
X125542509Y-87902509D01*
X125524512Y-87918820D01*
X125505004Y-87933289D01*
X125484171Y-87945776D01*
X125462214Y-87956160D01*
X125439345Y-87964343D01*
X125415785Y-87970244D01*
X125391759Y-87973808D01*
X125367500Y-87975000D01*
X124822500Y-87975000D01*
X124798241Y-87973808D01*
X124774215Y-87970244D01*
X124750655Y-87964343D01*
X124727786Y-87956160D01*
X124705829Y-87945776D01*
X124684996Y-87933289D01*
X124665488Y-87918820D01*
X124647491Y-87902509D01*
X124631180Y-87884512D01*
X124616711Y-87865004D01*
X124604224Y-87844171D01*
X124593840Y-87822214D01*
X124585657Y-87799345D01*
X124579756Y-87775785D01*
X124576192Y-87751759D01*
X124575000Y-87727500D01*
X124575000Y-87232500D01*
X124576192Y-87208241D01*
X124579756Y-87184215D01*
X124585657Y-87160655D01*
X124593840Y-87137786D01*
X124604224Y-87115829D01*
X124616711Y-87094996D01*
X124631180Y-87075488D01*
X124647491Y-87057491D01*
X124665488Y-87041180D01*
X124684996Y-87026711D01*
X124705829Y-87014224D01*
X124727786Y-87003840D01*
X124750655Y-86995657D01*
X124774215Y-86989756D01*
X124798241Y-86986192D01*
X124822500Y-86985000D01*
X125367500Y-86985000D01*
X125391759Y-86986192D01*
X125391759Y-86986192D01*
G37*
D15*
X125095000Y-87480000D03*
G04 #@! TD*
D14*
G04 #@! TO.C,L1*
G36*
X141541759Y-94096192D02*
X141565785Y-94099756D01*
X141589345Y-94105657D01*
X141612214Y-94113840D01*
X141634171Y-94124224D01*
X141655004Y-94136711D01*
X141674512Y-94151180D01*
X141692509Y-94167491D01*
X141708820Y-94185488D01*
X141723289Y-94204996D01*
X141735776Y-94225829D01*
X141746160Y-94247786D01*
X141754343Y-94270655D01*
X141760244Y-94294215D01*
X141763808Y-94318241D01*
X141765000Y-94342500D01*
X141765000Y-94887500D01*
X141763808Y-94911759D01*
X141760244Y-94935785D01*
X141754343Y-94959345D01*
X141746160Y-94982214D01*
X141735776Y-95004171D01*
X141723289Y-95025004D01*
X141708820Y-95044512D01*
X141692509Y-95062509D01*
X141674512Y-95078820D01*
X141655004Y-95093289D01*
X141634171Y-95105776D01*
X141612214Y-95116160D01*
X141589345Y-95124343D01*
X141565785Y-95130244D01*
X141541759Y-95133808D01*
X141517500Y-95135000D01*
X141022500Y-95135000D01*
X140998241Y-95133808D01*
X140974215Y-95130244D01*
X140950655Y-95124343D01*
X140927786Y-95116160D01*
X140905829Y-95105776D01*
X140884996Y-95093289D01*
X140865488Y-95078820D01*
X140847491Y-95062509D01*
X140831180Y-95044512D01*
X140816711Y-95025004D01*
X140804224Y-95004171D01*
X140793840Y-94982214D01*
X140785657Y-94959345D01*
X140779756Y-94935785D01*
X140776192Y-94911759D01*
X140775000Y-94887500D01*
X140775000Y-94342500D01*
X140776192Y-94318241D01*
X140779756Y-94294215D01*
X140785657Y-94270655D01*
X140793840Y-94247786D01*
X140804224Y-94225829D01*
X140816711Y-94204996D01*
X140831180Y-94185488D01*
X140847491Y-94167491D01*
X140865488Y-94151180D01*
X140884996Y-94136711D01*
X140905829Y-94124224D01*
X140927786Y-94113840D01*
X140950655Y-94105657D01*
X140974215Y-94099756D01*
X140998241Y-94096192D01*
X141022500Y-94095000D01*
X141517500Y-94095000D01*
X141541759Y-94096192D01*
X141541759Y-94096192D01*
G37*
D15*
X141270000Y-94615000D03*
D14*
G36*
X142511759Y-94096192D02*
X142535785Y-94099756D01*
X142559345Y-94105657D01*
X142582214Y-94113840D01*
X142604171Y-94124224D01*
X142625004Y-94136711D01*
X142644512Y-94151180D01*
X142662509Y-94167491D01*
X142678820Y-94185488D01*
X142693289Y-94204996D01*
X142705776Y-94225829D01*
X142716160Y-94247786D01*
X142724343Y-94270655D01*
X142730244Y-94294215D01*
X142733808Y-94318241D01*
X142735000Y-94342500D01*
X142735000Y-94887500D01*
X142733808Y-94911759D01*
X142730244Y-94935785D01*
X142724343Y-94959345D01*
X142716160Y-94982214D01*
X142705776Y-95004171D01*
X142693289Y-95025004D01*
X142678820Y-95044512D01*
X142662509Y-95062509D01*
X142644512Y-95078820D01*
X142625004Y-95093289D01*
X142604171Y-95105776D01*
X142582214Y-95116160D01*
X142559345Y-95124343D01*
X142535785Y-95130244D01*
X142511759Y-95133808D01*
X142487500Y-95135000D01*
X141992500Y-95135000D01*
X141968241Y-95133808D01*
X141944215Y-95130244D01*
X141920655Y-95124343D01*
X141897786Y-95116160D01*
X141875829Y-95105776D01*
X141854996Y-95093289D01*
X141835488Y-95078820D01*
X141817491Y-95062509D01*
X141801180Y-95044512D01*
X141786711Y-95025004D01*
X141774224Y-95004171D01*
X141763840Y-94982214D01*
X141755657Y-94959345D01*
X141749756Y-94935785D01*
X141746192Y-94911759D01*
X141745000Y-94887500D01*
X141745000Y-94342500D01*
X141746192Y-94318241D01*
X141749756Y-94294215D01*
X141755657Y-94270655D01*
X141763840Y-94247786D01*
X141774224Y-94225829D01*
X141786711Y-94204996D01*
X141801180Y-94185488D01*
X141817491Y-94167491D01*
X141835488Y-94151180D01*
X141854996Y-94136711D01*
X141875829Y-94124224D01*
X141897786Y-94113840D01*
X141920655Y-94105657D01*
X141944215Y-94099756D01*
X141968241Y-94096192D01*
X141992500Y-94095000D01*
X142487500Y-94095000D01*
X142511759Y-94096192D01*
X142511759Y-94096192D01*
G37*
D15*
X142240000Y-94615000D03*
G04 #@! TD*
D16*
G04 #@! TO.C,Y1*
X141140000Y-88454000D03*
X141140000Y-89854000D03*
X142240000Y-89854000D03*
X142240000Y-88454000D03*
G04 #@! TD*
D17*
G04 #@! TO.C,Y2*
X127000000Y-84475000D03*
X127000000Y-86975000D03*
G04 #@! TD*
D18*
G04 #@! TO.C,U1*
X133472348Y-85911078D03*
D14*
G36*
X132888985Y-85751979D02*
X133313249Y-85327715D01*
X134055711Y-86070177D01*
X133631447Y-86494441D01*
X132888985Y-85751979D01*
X132888985Y-85751979D01*
G37*
D18*
X133189505Y-86193920D03*
D14*
G36*
X132606142Y-86034821D02*
X133030406Y-85610557D01*
X133772868Y-86353019D01*
X133348604Y-86777283D01*
X132606142Y-86034821D01*
X132606142Y-86034821D01*
G37*
D18*
X132906662Y-86476763D03*
D14*
G36*
X132323299Y-86317664D02*
X132747563Y-85893400D01*
X133490025Y-86635862D01*
X133065761Y-87060126D01*
X132323299Y-86317664D01*
X132323299Y-86317664D01*
G37*
D18*
X132623819Y-86759606D03*
D14*
G36*
X132040456Y-86600507D02*
X132464720Y-86176243D01*
X133207182Y-86918705D01*
X132782918Y-87342969D01*
X132040456Y-86600507D01*
X132040456Y-86600507D01*
G37*
D18*
X132340977Y-87042449D03*
D14*
G36*
X131757614Y-86883350D02*
X132181878Y-86459086D01*
X132924340Y-87201548D01*
X132500076Y-87625812D01*
X131757614Y-86883350D01*
X131757614Y-86883350D01*
G37*
D18*
X132058134Y-87325291D03*
D14*
G36*
X131474771Y-87166192D02*
X131899035Y-86741928D01*
X132641497Y-87484390D01*
X132217233Y-87908654D01*
X131474771Y-87166192D01*
X131474771Y-87166192D01*
G37*
D18*
X131775291Y-87608134D03*
D14*
G36*
X131191928Y-87449035D02*
X131616192Y-87024771D01*
X132358654Y-87767233D01*
X131934390Y-88191497D01*
X131191928Y-87449035D01*
X131191928Y-87449035D01*
G37*
D18*
X131492449Y-87890977D03*
D14*
G36*
X130909086Y-87731878D02*
X131333350Y-87307614D01*
X132075812Y-88050076D01*
X131651548Y-88474340D01*
X130909086Y-87731878D01*
X130909086Y-87731878D01*
G37*
D18*
X131209606Y-88173819D03*
D14*
G36*
X130626243Y-88014720D02*
X131050507Y-87590456D01*
X131792969Y-88332918D01*
X131368705Y-88757182D01*
X130626243Y-88014720D01*
X130626243Y-88014720D01*
G37*
D18*
X130926763Y-88456662D03*
D14*
G36*
X130343400Y-88297563D02*
X130767664Y-87873299D01*
X131510126Y-88615761D01*
X131085862Y-89040025D01*
X130343400Y-88297563D01*
X130343400Y-88297563D01*
G37*
D18*
X130643920Y-88739505D03*
D14*
G36*
X130060557Y-88580406D02*
X130484821Y-88156142D01*
X131227283Y-88898604D01*
X130803019Y-89322868D01*
X130060557Y-88580406D01*
X130060557Y-88580406D01*
G37*
D18*
X130361078Y-89022348D03*
D14*
G36*
X129777715Y-88863249D02*
X130201979Y-88438985D01*
X130944441Y-89181447D01*
X130520177Y-89605711D01*
X129777715Y-88863249D01*
X129777715Y-88863249D01*
G37*
D18*
X130361078Y-90047652D03*
D14*
G36*
X130201979Y-90631015D02*
X129777715Y-90206751D01*
X130520177Y-89464289D01*
X130944441Y-89888553D01*
X130201979Y-90631015D01*
X130201979Y-90631015D01*
G37*
D18*
X130643920Y-90330495D03*
D14*
G36*
X130484821Y-90913858D02*
X130060557Y-90489594D01*
X130803019Y-89747132D01*
X131227283Y-90171396D01*
X130484821Y-90913858D01*
X130484821Y-90913858D01*
G37*
D18*
X130926763Y-90613338D03*
D14*
G36*
X130767664Y-91196701D02*
X130343400Y-90772437D01*
X131085862Y-90029975D01*
X131510126Y-90454239D01*
X130767664Y-91196701D01*
X130767664Y-91196701D01*
G37*
D18*
X131209606Y-90896181D03*
D14*
G36*
X131050507Y-91479544D02*
X130626243Y-91055280D01*
X131368705Y-90312818D01*
X131792969Y-90737082D01*
X131050507Y-91479544D01*
X131050507Y-91479544D01*
G37*
D18*
X131492449Y-91179023D03*
D14*
G36*
X131333350Y-91762386D02*
X130909086Y-91338122D01*
X131651548Y-90595660D01*
X132075812Y-91019924D01*
X131333350Y-91762386D01*
X131333350Y-91762386D01*
G37*
D18*
X131775291Y-91461866D03*
D14*
G36*
X131616192Y-92045229D02*
X131191928Y-91620965D01*
X131934390Y-90878503D01*
X132358654Y-91302767D01*
X131616192Y-92045229D01*
X131616192Y-92045229D01*
G37*
D18*
X132058134Y-91744709D03*
D14*
G36*
X131899035Y-92328072D02*
X131474771Y-91903808D01*
X132217233Y-91161346D01*
X132641497Y-91585610D01*
X131899035Y-92328072D01*
X131899035Y-92328072D01*
G37*
D18*
X132340977Y-92027551D03*
D14*
G36*
X132181878Y-92610914D02*
X131757614Y-92186650D01*
X132500076Y-91444188D01*
X132924340Y-91868452D01*
X132181878Y-92610914D01*
X132181878Y-92610914D01*
G37*
D18*
X132623819Y-92310394D03*
D14*
G36*
X132464720Y-92893757D02*
X132040456Y-92469493D01*
X132782918Y-91727031D01*
X133207182Y-92151295D01*
X132464720Y-92893757D01*
X132464720Y-92893757D01*
G37*
D18*
X132906662Y-92593237D03*
D14*
G36*
X132747563Y-93176600D02*
X132323299Y-92752336D01*
X133065761Y-92009874D01*
X133490025Y-92434138D01*
X132747563Y-93176600D01*
X132747563Y-93176600D01*
G37*
D18*
X133189505Y-92876080D03*
D14*
G36*
X133030406Y-93459443D02*
X132606142Y-93035179D01*
X133348604Y-92292717D01*
X133772868Y-92716981D01*
X133030406Y-93459443D01*
X133030406Y-93459443D01*
G37*
D18*
X133472348Y-93158922D03*
D14*
G36*
X133313249Y-93742285D02*
X132888985Y-93318021D01*
X133631447Y-92575559D01*
X134055711Y-92999823D01*
X133313249Y-93742285D01*
X133313249Y-93742285D01*
G37*
D18*
X134497652Y-93158922D03*
D14*
G36*
X133914289Y-92999823D02*
X134338553Y-92575559D01*
X135081015Y-93318021D01*
X134656751Y-93742285D01*
X133914289Y-92999823D01*
X133914289Y-92999823D01*
G37*
D18*
X134780495Y-92876080D03*
D14*
G36*
X134197132Y-92716981D02*
X134621396Y-92292717D01*
X135363858Y-93035179D01*
X134939594Y-93459443D01*
X134197132Y-92716981D01*
X134197132Y-92716981D01*
G37*
D18*
X135063338Y-92593237D03*
D14*
G36*
X134479975Y-92434138D02*
X134904239Y-92009874D01*
X135646701Y-92752336D01*
X135222437Y-93176600D01*
X134479975Y-92434138D01*
X134479975Y-92434138D01*
G37*
D18*
X135346181Y-92310394D03*
D14*
G36*
X134762818Y-92151295D02*
X135187082Y-91727031D01*
X135929544Y-92469493D01*
X135505280Y-92893757D01*
X134762818Y-92151295D01*
X134762818Y-92151295D01*
G37*
D18*
X135629023Y-92027551D03*
D14*
G36*
X135045660Y-91868452D02*
X135469924Y-91444188D01*
X136212386Y-92186650D01*
X135788122Y-92610914D01*
X135045660Y-91868452D01*
X135045660Y-91868452D01*
G37*
D18*
X135911866Y-91744709D03*
D14*
G36*
X135328503Y-91585610D02*
X135752767Y-91161346D01*
X136495229Y-91903808D01*
X136070965Y-92328072D01*
X135328503Y-91585610D01*
X135328503Y-91585610D01*
G37*
D18*
X136194709Y-91461866D03*
D14*
G36*
X135611346Y-91302767D02*
X136035610Y-90878503D01*
X136778072Y-91620965D01*
X136353808Y-92045229D01*
X135611346Y-91302767D01*
X135611346Y-91302767D01*
G37*
D18*
X136477551Y-91179023D03*
D14*
G36*
X135894188Y-91019924D02*
X136318452Y-90595660D01*
X137060914Y-91338122D01*
X136636650Y-91762386D01*
X135894188Y-91019924D01*
X135894188Y-91019924D01*
G37*
D18*
X136760394Y-90896181D03*
D14*
G36*
X136177031Y-90737082D02*
X136601295Y-90312818D01*
X137343757Y-91055280D01*
X136919493Y-91479544D01*
X136177031Y-90737082D01*
X136177031Y-90737082D01*
G37*
D18*
X137043237Y-90613338D03*
D14*
G36*
X136459874Y-90454239D02*
X136884138Y-90029975D01*
X137626600Y-90772437D01*
X137202336Y-91196701D01*
X136459874Y-90454239D01*
X136459874Y-90454239D01*
G37*
D18*
X137326080Y-90330495D03*
D14*
G36*
X136742717Y-90171396D02*
X137166981Y-89747132D01*
X137909443Y-90489594D01*
X137485179Y-90913858D01*
X136742717Y-90171396D01*
X136742717Y-90171396D01*
G37*
D18*
X137608922Y-90047652D03*
D14*
G36*
X137025559Y-89888553D02*
X137449823Y-89464289D01*
X138192285Y-90206751D01*
X137768021Y-90631015D01*
X137025559Y-89888553D01*
X137025559Y-89888553D01*
G37*
D18*
X137608922Y-89022348D03*
D14*
G36*
X137449823Y-89605711D02*
X137025559Y-89181447D01*
X137768021Y-88438985D01*
X138192285Y-88863249D01*
X137449823Y-89605711D01*
X137449823Y-89605711D01*
G37*
D18*
X137326080Y-88739505D03*
D14*
G36*
X137166981Y-89322868D02*
X136742717Y-88898604D01*
X137485179Y-88156142D01*
X137909443Y-88580406D01*
X137166981Y-89322868D01*
X137166981Y-89322868D01*
G37*
D18*
X137043237Y-88456662D03*
D14*
G36*
X136884138Y-89040025D02*
X136459874Y-88615761D01*
X137202336Y-87873299D01*
X137626600Y-88297563D01*
X136884138Y-89040025D01*
X136884138Y-89040025D01*
G37*
D18*
X136760394Y-88173819D03*
D14*
G36*
X136601295Y-88757182D02*
X136177031Y-88332918D01*
X136919493Y-87590456D01*
X137343757Y-88014720D01*
X136601295Y-88757182D01*
X136601295Y-88757182D01*
G37*
D18*
X136477551Y-87890977D03*
D14*
G36*
X136318452Y-88474340D02*
X135894188Y-88050076D01*
X136636650Y-87307614D01*
X137060914Y-87731878D01*
X136318452Y-88474340D01*
X136318452Y-88474340D01*
G37*
D18*
X136194709Y-87608134D03*
D14*
G36*
X136035610Y-88191497D02*
X135611346Y-87767233D01*
X136353808Y-87024771D01*
X136778072Y-87449035D01*
X136035610Y-88191497D01*
X136035610Y-88191497D01*
G37*
D18*
X135911866Y-87325291D03*
D14*
G36*
X135752767Y-87908654D02*
X135328503Y-87484390D01*
X136070965Y-86741928D01*
X136495229Y-87166192D01*
X135752767Y-87908654D01*
X135752767Y-87908654D01*
G37*
D18*
X135629023Y-87042449D03*
D14*
G36*
X135469924Y-87625812D02*
X135045660Y-87201548D01*
X135788122Y-86459086D01*
X136212386Y-86883350D01*
X135469924Y-87625812D01*
X135469924Y-87625812D01*
G37*
D18*
X135346181Y-86759606D03*
D14*
G36*
X135187082Y-87342969D02*
X134762818Y-86918705D01*
X135505280Y-86176243D01*
X135929544Y-86600507D01*
X135187082Y-87342969D01*
X135187082Y-87342969D01*
G37*
D18*
X135063338Y-86476763D03*
D14*
G36*
X134904239Y-87060126D02*
X134479975Y-86635862D01*
X135222437Y-85893400D01*
X135646701Y-86317664D01*
X134904239Y-87060126D01*
X134904239Y-87060126D01*
G37*
D18*
X134780495Y-86193920D03*
D14*
G36*
X134621396Y-86777283D02*
X134197132Y-86353019D01*
X134939594Y-85610557D01*
X135363858Y-86034821D01*
X134621396Y-86777283D01*
X134621396Y-86777283D01*
G37*
D18*
X134497652Y-85911078D03*
D14*
G36*
X134338553Y-86494441D02*
X133914289Y-86070177D01*
X134656751Y-85327715D01*
X135081015Y-85751979D01*
X134338553Y-86494441D01*
X134338553Y-86494441D01*
G37*
D19*
X133985000Y-89535000D03*
D14*
G36*
X130590887Y-89535000D02*
X133985000Y-86140887D01*
X137379113Y-89535000D01*
X133985000Y-92929113D01*
X130590887Y-89535000D01*
X130590887Y-89535000D01*
G37*
G04 #@! TD*
D20*
G04 #@! TO.C,U3*
X126685000Y-94869000D03*
X127635000Y-94869000D03*
X128585000Y-94869000D03*
X128585000Y-92669000D03*
X126685000Y-92669000D03*
G04 #@! TD*
D14*
G04 #@! TO.C,C13*
G36*
X141541759Y-83809192D02*
X141565785Y-83812756D01*
X141589345Y-83818657D01*
X141612214Y-83826840D01*
X141634171Y-83837224D01*
X141655004Y-83849711D01*
X141674512Y-83864180D01*
X141692509Y-83880491D01*
X141708820Y-83898488D01*
X141723289Y-83917996D01*
X141735776Y-83938829D01*
X141746160Y-83960786D01*
X141754343Y-83983655D01*
X141760244Y-84007215D01*
X141763808Y-84031241D01*
X141765000Y-84055500D01*
X141765000Y-84600500D01*
X141763808Y-84624759D01*
X141760244Y-84648785D01*
X141754343Y-84672345D01*
X141746160Y-84695214D01*
X141735776Y-84717171D01*
X141723289Y-84738004D01*
X141708820Y-84757512D01*
X141692509Y-84775509D01*
X141674512Y-84791820D01*
X141655004Y-84806289D01*
X141634171Y-84818776D01*
X141612214Y-84829160D01*
X141589345Y-84837343D01*
X141565785Y-84843244D01*
X141541759Y-84846808D01*
X141517500Y-84848000D01*
X141022500Y-84848000D01*
X140998241Y-84846808D01*
X140974215Y-84843244D01*
X140950655Y-84837343D01*
X140927786Y-84829160D01*
X140905829Y-84818776D01*
X140884996Y-84806289D01*
X140865488Y-84791820D01*
X140847491Y-84775509D01*
X140831180Y-84757512D01*
X140816711Y-84738004D01*
X140804224Y-84717171D01*
X140793840Y-84695214D01*
X140785657Y-84672345D01*
X140779756Y-84648785D01*
X140776192Y-84624759D01*
X140775000Y-84600500D01*
X140775000Y-84055500D01*
X140776192Y-84031241D01*
X140779756Y-84007215D01*
X140785657Y-83983655D01*
X140793840Y-83960786D01*
X140804224Y-83938829D01*
X140816711Y-83917996D01*
X140831180Y-83898488D01*
X140847491Y-83880491D01*
X140865488Y-83864180D01*
X140884996Y-83849711D01*
X140905829Y-83837224D01*
X140927786Y-83826840D01*
X140950655Y-83818657D01*
X140974215Y-83812756D01*
X140998241Y-83809192D01*
X141022500Y-83808000D01*
X141517500Y-83808000D01*
X141541759Y-83809192D01*
X141541759Y-83809192D01*
G37*
D15*
X141270000Y-84328000D03*
D14*
G36*
X142511759Y-83809192D02*
X142535785Y-83812756D01*
X142559345Y-83818657D01*
X142582214Y-83826840D01*
X142604171Y-83837224D01*
X142625004Y-83849711D01*
X142644512Y-83864180D01*
X142662509Y-83880491D01*
X142678820Y-83898488D01*
X142693289Y-83917996D01*
X142705776Y-83938829D01*
X142716160Y-83960786D01*
X142724343Y-83983655D01*
X142730244Y-84007215D01*
X142733808Y-84031241D01*
X142735000Y-84055500D01*
X142735000Y-84600500D01*
X142733808Y-84624759D01*
X142730244Y-84648785D01*
X142724343Y-84672345D01*
X142716160Y-84695214D01*
X142705776Y-84717171D01*
X142693289Y-84738004D01*
X142678820Y-84757512D01*
X142662509Y-84775509D01*
X142644512Y-84791820D01*
X142625004Y-84806289D01*
X142604171Y-84818776D01*
X142582214Y-84829160D01*
X142559345Y-84837343D01*
X142535785Y-84843244D01*
X142511759Y-84846808D01*
X142487500Y-84848000D01*
X141992500Y-84848000D01*
X141968241Y-84846808D01*
X141944215Y-84843244D01*
X141920655Y-84837343D01*
X141897786Y-84829160D01*
X141875829Y-84818776D01*
X141854996Y-84806289D01*
X141835488Y-84791820D01*
X141817491Y-84775509D01*
X141801180Y-84757512D01*
X141786711Y-84738004D01*
X141774224Y-84717171D01*
X141763840Y-84695214D01*
X141755657Y-84672345D01*
X141749756Y-84648785D01*
X141746192Y-84624759D01*
X141745000Y-84600500D01*
X141745000Y-84055500D01*
X141746192Y-84031241D01*
X141749756Y-84007215D01*
X141755657Y-83983655D01*
X141763840Y-83960786D01*
X141774224Y-83938829D01*
X141786711Y-83917996D01*
X141801180Y-83898488D01*
X141817491Y-83880491D01*
X141835488Y-83864180D01*
X141854996Y-83849711D01*
X141875829Y-83837224D01*
X141897786Y-83826840D01*
X141920655Y-83818657D01*
X141944215Y-83812756D01*
X141968241Y-83809192D01*
X141992500Y-83808000D01*
X142487500Y-83808000D01*
X142511759Y-83809192D01*
X142511759Y-83809192D01*
G37*
D15*
X142240000Y-84328000D03*
G04 #@! TD*
D14*
G04 #@! TO.C,R1*
G36*
X139971759Y-83809192D02*
X139995785Y-83812756D01*
X140019345Y-83818657D01*
X140042214Y-83826840D01*
X140064171Y-83837224D01*
X140085004Y-83849711D01*
X140104512Y-83864180D01*
X140122509Y-83880491D01*
X140138820Y-83898488D01*
X140153289Y-83917996D01*
X140165776Y-83938829D01*
X140176160Y-83960786D01*
X140184343Y-83983655D01*
X140190244Y-84007215D01*
X140193808Y-84031241D01*
X140195000Y-84055500D01*
X140195000Y-84600500D01*
X140193808Y-84624759D01*
X140190244Y-84648785D01*
X140184343Y-84672345D01*
X140176160Y-84695214D01*
X140165776Y-84717171D01*
X140153289Y-84738004D01*
X140138820Y-84757512D01*
X140122509Y-84775509D01*
X140104512Y-84791820D01*
X140085004Y-84806289D01*
X140064171Y-84818776D01*
X140042214Y-84829160D01*
X140019345Y-84837343D01*
X139995785Y-84843244D01*
X139971759Y-84846808D01*
X139947500Y-84848000D01*
X139452500Y-84848000D01*
X139428241Y-84846808D01*
X139404215Y-84843244D01*
X139380655Y-84837343D01*
X139357786Y-84829160D01*
X139335829Y-84818776D01*
X139314996Y-84806289D01*
X139295488Y-84791820D01*
X139277491Y-84775509D01*
X139261180Y-84757512D01*
X139246711Y-84738004D01*
X139234224Y-84717171D01*
X139223840Y-84695214D01*
X139215657Y-84672345D01*
X139209756Y-84648785D01*
X139206192Y-84624759D01*
X139205000Y-84600500D01*
X139205000Y-84055500D01*
X139206192Y-84031241D01*
X139209756Y-84007215D01*
X139215657Y-83983655D01*
X139223840Y-83960786D01*
X139234224Y-83938829D01*
X139246711Y-83917996D01*
X139261180Y-83898488D01*
X139277491Y-83880491D01*
X139295488Y-83864180D01*
X139314996Y-83849711D01*
X139335829Y-83837224D01*
X139357786Y-83826840D01*
X139380655Y-83818657D01*
X139404215Y-83812756D01*
X139428241Y-83809192D01*
X139452500Y-83808000D01*
X139947500Y-83808000D01*
X139971759Y-83809192D01*
X139971759Y-83809192D01*
G37*
D15*
X139700000Y-84328000D03*
D14*
G36*
X139001759Y-83809192D02*
X139025785Y-83812756D01*
X139049345Y-83818657D01*
X139072214Y-83826840D01*
X139094171Y-83837224D01*
X139115004Y-83849711D01*
X139134512Y-83864180D01*
X139152509Y-83880491D01*
X139168820Y-83898488D01*
X139183289Y-83917996D01*
X139195776Y-83938829D01*
X139206160Y-83960786D01*
X139214343Y-83983655D01*
X139220244Y-84007215D01*
X139223808Y-84031241D01*
X139225000Y-84055500D01*
X139225000Y-84600500D01*
X139223808Y-84624759D01*
X139220244Y-84648785D01*
X139214343Y-84672345D01*
X139206160Y-84695214D01*
X139195776Y-84717171D01*
X139183289Y-84738004D01*
X139168820Y-84757512D01*
X139152509Y-84775509D01*
X139134512Y-84791820D01*
X139115004Y-84806289D01*
X139094171Y-84818776D01*
X139072214Y-84829160D01*
X139049345Y-84837343D01*
X139025785Y-84843244D01*
X139001759Y-84846808D01*
X138977500Y-84848000D01*
X138482500Y-84848000D01*
X138458241Y-84846808D01*
X138434215Y-84843244D01*
X138410655Y-84837343D01*
X138387786Y-84829160D01*
X138365829Y-84818776D01*
X138344996Y-84806289D01*
X138325488Y-84791820D01*
X138307491Y-84775509D01*
X138291180Y-84757512D01*
X138276711Y-84738004D01*
X138264224Y-84717171D01*
X138253840Y-84695214D01*
X138245657Y-84672345D01*
X138239756Y-84648785D01*
X138236192Y-84624759D01*
X138235000Y-84600500D01*
X138235000Y-84055500D01*
X138236192Y-84031241D01*
X138239756Y-84007215D01*
X138245657Y-83983655D01*
X138253840Y-83960786D01*
X138264224Y-83938829D01*
X138276711Y-83917996D01*
X138291180Y-83898488D01*
X138307491Y-83880491D01*
X138325488Y-83864180D01*
X138344996Y-83849711D01*
X138365829Y-83837224D01*
X138387786Y-83826840D01*
X138410655Y-83818657D01*
X138434215Y-83812756D01*
X138458241Y-83809192D01*
X138482500Y-83808000D01*
X138977500Y-83808000D01*
X139001759Y-83809192D01*
X139001759Y-83809192D01*
G37*
D15*
X138730000Y-84328000D03*
G04 #@! TD*
D14*
G04 #@! TO.C,R2*
G36*
X141541759Y-85079192D02*
X141565785Y-85082756D01*
X141589345Y-85088657D01*
X141612214Y-85096840D01*
X141634171Y-85107224D01*
X141655004Y-85119711D01*
X141674512Y-85134180D01*
X141692509Y-85150491D01*
X141708820Y-85168488D01*
X141723289Y-85187996D01*
X141735776Y-85208829D01*
X141746160Y-85230786D01*
X141754343Y-85253655D01*
X141760244Y-85277215D01*
X141763808Y-85301241D01*
X141765000Y-85325500D01*
X141765000Y-85870500D01*
X141763808Y-85894759D01*
X141760244Y-85918785D01*
X141754343Y-85942345D01*
X141746160Y-85965214D01*
X141735776Y-85987171D01*
X141723289Y-86008004D01*
X141708820Y-86027512D01*
X141692509Y-86045509D01*
X141674512Y-86061820D01*
X141655004Y-86076289D01*
X141634171Y-86088776D01*
X141612214Y-86099160D01*
X141589345Y-86107343D01*
X141565785Y-86113244D01*
X141541759Y-86116808D01*
X141517500Y-86118000D01*
X141022500Y-86118000D01*
X140998241Y-86116808D01*
X140974215Y-86113244D01*
X140950655Y-86107343D01*
X140927786Y-86099160D01*
X140905829Y-86088776D01*
X140884996Y-86076289D01*
X140865488Y-86061820D01*
X140847491Y-86045509D01*
X140831180Y-86027512D01*
X140816711Y-86008004D01*
X140804224Y-85987171D01*
X140793840Y-85965214D01*
X140785657Y-85942345D01*
X140779756Y-85918785D01*
X140776192Y-85894759D01*
X140775000Y-85870500D01*
X140775000Y-85325500D01*
X140776192Y-85301241D01*
X140779756Y-85277215D01*
X140785657Y-85253655D01*
X140793840Y-85230786D01*
X140804224Y-85208829D01*
X140816711Y-85187996D01*
X140831180Y-85168488D01*
X140847491Y-85150491D01*
X140865488Y-85134180D01*
X140884996Y-85119711D01*
X140905829Y-85107224D01*
X140927786Y-85096840D01*
X140950655Y-85088657D01*
X140974215Y-85082756D01*
X140998241Y-85079192D01*
X141022500Y-85078000D01*
X141517500Y-85078000D01*
X141541759Y-85079192D01*
X141541759Y-85079192D01*
G37*
D15*
X141270000Y-85598000D03*
D14*
G36*
X142511759Y-85079192D02*
X142535785Y-85082756D01*
X142559345Y-85088657D01*
X142582214Y-85096840D01*
X142604171Y-85107224D01*
X142625004Y-85119711D01*
X142644512Y-85134180D01*
X142662509Y-85150491D01*
X142678820Y-85168488D01*
X142693289Y-85187996D01*
X142705776Y-85208829D01*
X142716160Y-85230786D01*
X142724343Y-85253655D01*
X142730244Y-85277215D01*
X142733808Y-85301241D01*
X142735000Y-85325500D01*
X142735000Y-85870500D01*
X142733808Y-85894759D01*
X142730244Y-85918785D01*
X142724343Y-85942345D01*
X142716160Y-85965214D01*
X142705776Y-85987171D01*
X142693289Y-86008004D01*
X142678820Y-86027512D01*
X142662509Y-86045509D01*
X142644512Y-86061820D01*
X142625004Y-86076289D01*
X142604171Y-86088776D01*
X142582214Y-86099160D01*
X142559345Y-86107343D01*
X142535785Y-86113244D01*
X142511759Y-86116808D01*
X142487500Y-86118000D01*
X141992500Y-86118000D01*
X141968241Y-86116808D01*
X141944215Y-86113244D01*
X141920655Y-86107343D01*
X141897786Y-86099160D01*
X141875829Y-86088776D01*
X141854996Y-86076289D01*
X141835488Y-86061820D01*
X141817491Y-86045509D01*
X141801180Y-86027512D01*
X141786711Y-86008004D01*
X141774224Y-85987171D01*
X141763840Y-85965214D01*
X141755657Y-85942345D01*
X141749756Y-85918785D01*
X141746192Y-85894759D01*
X141745000Y-85870500D01*
X141745000Y-85325500D01*
X141746192Y-85301241D01*
X141749756Y-85277215D01*
X141755657Y-85253655D01*
X141763840Y-85230786D01*
X141774224Y-85208829D01*
X141786711Y-85187996D01*
X141801180Y-85168488D01*
X141817491Y-85150491D01*
X141835488Y-85134180D01*
X141854996Y-85119711D01*
X141875829Y-85107224D01*
X141897786Y-85096840D01*
X141920655Y-85088657D01*
X141944215Y-85082756D01*
X141968241Y-85079192D01*
X141992500Y-85078000D01*
X142487500Y-85078000D01*
X142511759Y-85079192D01*
X142511759Y-85079192D01*
G37*
D15*
X142240000Y-85598000D03*
G04 #@! TD*
D14*
G04 #@! TO.C,R3*
G36*
X130596759Y-94731192D02*
X130620785Y-94734756D01*
X130644345Y-94740657D01*
X130667214Y-94748840D01*
X130689171Y-94759224D01*
X130710004Y-94771711D01*
X130729512Y-94786180D01*
X130747509Y-94802491D01*
X130763820Y-94820488D01*
X130778289Y-94839996D01*
X130790776Y-94860829D01*
X130801160Y-94882786D01*
X130809343Y-94905655D01*
X130815244Y-94929215D01*
X130818808Y-94953241D01*
X130820000Y-94977500D01*
X130820000Y-95522500D01*
X130818808Y-95546759D01*
X130815244Y-95570785D01*
X130809343Y-95594345D01*
X130801160Y-95617214D01*
X130790776Y-95639171D01*
X130778289Y-95660004D01*
X130763820Y-95679512D01*
X130747509Y-95697509D01*
X130729512Y-95713820D01*
X130710004Y-95728289D01*
X130689171Y-95740776D01*
X130667214Y-95751160D01*
X130644345Y-95759343D01*
X130620785Y-95765244D01*
X130596759Y-95768808D01*
X130572500Y-95770000D01*
X130077500Y-95770000D01*
X130053241Y-95768808D01*
X130029215Y-95765244D01*
X130005655Y-95759343D01*
X129982786Y-95751160D01*
X129960829Y-95740776D01*
X129939996Y-95728289D01*
X129920488Y-95713820D01*
X129902491Y-95697509D01*
X129886180Y-95679512D01*
X129871711Y-95660004D01*
X129859224Y-95639171D01*
X129848840Y-95617214D01*
X129840657Y-95594345D01*
X129834756Y-95570785D01*
X129831192Y-95546759D01*
X129830000Y-95522500D01*
X129830000Y-94977500D01*
X129831192Y-94953241D01*
X129834756Y-94929215D01*
X129840657Y-94905655D01*
X129848840Y-94882786D01*
X129859224Y-94860829D01*
X129871711Y-94839996D01*
X129886180Y-94820488D01*
X129902491Y-94802491D01*
X129920488Y-94786180D01*
X129939996Y-94771711D01*
X129960829Y-94759224D01*
X129982786Y-94748840D01*
X130005655Y-94740657D01*
X130029215Y-94734756D01*
X130053241Y-94731192D01*
X130077500Y-94730000D01*
X130572500Y-94730000D01*
X130596759Y-94731192D01*
X130596759Y-94731192D01*
G37*
D15*
X130325000Y-95250000D03*
D14*
G36*
X131566759Y-94731192D02*
X131590785Y-94734756D01*
X131614345Y-94740657D01*
X131637214Y-94748840D01*
X131659171Y-94759224D01*
X131680004Y-94771711D01*
X131699512Y-94786180D01*
X131717509Y-94802491D01*
X131733820Y-94820488D01*
X131748289Y-94839996D01*
X131760776Y-94860829D01*
X131771160Y-94882786D01*
X131779343Y-94905655D01*
X131785244Y-94929215D01*
X131788808Y-94953241D01*
X131790000Y-94977500D01*
X131790000Y-95522500D01*
X131788808Y-95546759D01*
X131785244Y-95570785D01*
X131779343Y-95594345D01*
X131771160Y-95617214D01*
X131760776Y-95639171D01*
X131748289Y-95660004D01*
X131733820Y-95679512D01*
X131717509Y-95697509D01*
X131699512Y-95713820D01*
X131680004Y-95728289D01*
X131659171Y-95740776D01*
X131637214Y-95751160D01*
X131614345Y-95759343D01*
X131590785Y-95765244D01*
X131566759Y-95768808D01*
X131542500Y-95770000D01*
X131047500Y-95770000D01*
X131023241Y-95768808D01*
X130999215Y-95765244D01*
X130975655Y-95759343D01*
X130952786Y-95751160D01*
X130930829Y-95740776D01*
X130909996Y-95728289D01*
X130890488Y-95713820D01*
X130872491Y-95697509D01*
X130856180Y-95679512D01*
X130841711Y-95660004D01*
X130829224Y-95639171D01*
X130818840Y-95617214D01*
X130810657Y-95594345D01*
X130804756Y-95570785D01*
X130801192Y-95546759D01*
X130800000Y-95522500D01*
X130800000Y-94977500D01*
X130801192Y-94953241D01*
X130804756Y-94929215D01*
X130810657Y-94905655D01*
X130818840Y-94882786D01*
X130829224Y-94860829D01*
X130841711Y-94839996D01*
X130856180Y-94820488D01*
X130872491Y-94802491D01*
X130890488Y-94786180D01*
X130909996Y-94771711D01*
X130930829Y-94759224D01*
X130952786Y-94748840D01*
X130975655Y-94740657D01*
X130999215Y-94734756D01*
X131023241Y-94731192D01*
X131047500Y-94730000D01*
X131542500Y-94730000D01*
X131566759Y-94731192D01*
X131566759Y-94731192D01*
G37*
D15*
X131295000Y-95250000D03*
G04 #@! TD*
D14*
G04 #@! TO.C,C14*
G36*
X114109759Y-94350192D02*
X114133785Y-94353756D01*
X114157345Y-94359657D01*
X114180214Y-94367840D01*
X114202171Y-94378224D01*
X114223004Y-94390711D01*
X114242512Y-94405180D01*
X114260509Y-94421491D01*
X114276820Y-94439488D01*
X114291289Y-94458996D01*
X114303776Y-94479829D01*
X114314160Y-94501786D01*
X114322343Y-94524655D01*
X114328244Y-94548215D01*
X114331808Y-94572241D01*
X114333000Y-94596500D01*
X114333000Y-95141500D01*
X114331808Y-95165759D01*
X114328244Y-95189785D01*
X114322343Y-95213345D01*
X114314160Y-95236214D01*
X114303776Y-95258171D01*
X114291289Y-95279004D01*
X114276820Y-95298512D01*
X114260509Y-95316509D01*
X114242512Y-95332820D01*
X114223004Y-95347289D01*
X114202171Y-95359776D01*
X114180214Y-95370160D01*
X114157345Y-95378343D01*
X114133785Y-95384244D01*
X114109759Y-95387808D01*
X114085500Y-95389000D01*
X113590500Y-95389000D01*
X113566241Y-95387808D01*
X113542215Y-95384244D01*
X113518655Y-95378343D01*
X113495786Y-95370160D01*
X113473829Y-95359776D01*
X113452996Y-95347289D01*
X113433488Y-95332820D01*
X113415491Y-95316509D01*
X113399180Y-95298512D01*
X113384711Y-95279004D01*
X113372224Y-95258171D01*
X113361840Y-95236214D01*
X113353657Y-95213345D01*
X113347756Y-95189785D01*
X113344192Y-95165759D01*
X113343000Y-95141500D01*
X113343000Y-94596500D01*
X113344192Y-94572241D01*
X113347756Y-94548215D01*
X113353657Y-94524655D01*
X113361840Y-94501786D01*
X113372224Y-94479829D01*
X113384711Y-94458996D01*
X113399180Y-94439488D01*
X113415491Y-94421491D01*
X113433488Y-94405180D01*
X113452996Y-94390711D01*
X113473829Y-94378224D01*
X113495786Y-94367840D01*
X113518655Y-94359657D01*
X113542215Y-94353756D01*
X113566241Y-94350192D01*
X113590500Y-94349000D01*
X114085500Y-94349000D01*
X114109759Y-94350192D01*
X114109759Y-94350192D01*
G37*
D15*
X113838000Y-94869000D03*
D14*
G36*
X115079759Y-94350192D02*
X115103785Y-94353756D01*
X115127345Y-94359657D01*
X115150214Y-94367840D01*
X115172171Y-94378224D01*
X115193004Y-94390711D01*
X115212512Y-94405180D01*
X115230509Y-94421491D01*
X115246820Y-94439488D01*
X115261289Y-94458996D01*
X115273776Y-94479829D01*
X115284160Y-94501786D01*
X115292343Y-94524655D01*
X115298244Y-94548215D01*
X115301808Y-94572241D01*
X115303000Y-94596500D01*
X115303000Y-95141500D01*
X115301808Y-95165759D01*
X115298244Y-95189785D01*
X115292343Y-95213345D01*
X115284160Y-95236214D01*
X115273776Y-95258171D01*
X115261289Y-95279004D01*
X115246820Y-95298512D01*
X115230509Y-95316509D01*
X115212512Y-95332820D01*
X115193004Y-95347289D01*
X115172171Y-95359776D01*
X115150214Y-95370160D01*
X115127345Y-95378343D01*
X115103785Y-95384244D01*
X115079759Y-95387808D01*
X115055500Y-95389000D01*
X114560500Y-95389000D01*
X114536241Y-95387808D01*
X114512215Y-95384244D01*
X114488655Y-95378343D01*
X114465786Y-95370160D01*
X114443829Y-95359776D01*
X114422996Y-95347289D01*
X114403488Y-95332820D01*
X114385491Y-95316509D01*
X114369180Y-95298512D01*
X114354711Y-95279004D01*
X114342224Y-95258171D01*
X114331840Y-95236214D01*
X114323657Y-95213345D01*
X114317756Y-95189785D01*
X114314192Y-95165759D01*
X114313000Y-95141500D01*
X114313000Y-94596500D01*
X114314192Y-94572241D01*
X114317756Y-94548215D01*
X114323657Y-94524655D01*
X114331840Y-94501786D01*
X114342224Y-94479829D01*
X114354711Y-94458996D01*
X114369180Y-94439488D01*
X114385491Y-94421491D01*
X114403488Y-94405180D01*
X114422996Y-94390711D01*
X114443829Y-94378224D01*
X114465786Y-94367840D01*
X114488655Y-94359657D01*
X114512215Y-94353756D01*
X114536241Y-94350192D01*
X114560500Y-94349000D01*
X115055500Y-94349000D01*
X115079759Y-94350192D01*
X115079759Y-94350192D01*
G37*
D15*
X114808000Y-94869000D03*
G04 #@! TD*
D14*
G04 #@! TO.C,C15*
G36*
X122041759Y-83555192D02*
X122065785Y-83558756D01*
X122089345Y-83564657D01*
X122112214Y-83572840D01*
X122134171Y-83583224D01*
X122155004Y-83595711D01*
X122174512Y-83610180D01*
X122192509Y-83626491D01*
X122208820Y-83644488D01*
X122223289Y-83663996D01*
X122235776Y-83684829D01*
X122246160Y-83706786D01*
X122254343Y-83729655D01*
X122260244Y-83753215D01*
X122263808Y-83777241D01*
X122265000Y-83801500D01*
X122265000Y-84346500D01*
X122263808Y-84370759D01*
X122260244Y-84394785D01*
X122254343Y-84418345D01*
X122246160Y-84441214D01*
X122235776Y-84463171D01*
X122223289Y-84484004D01*
X122208820Y-84503512D01*
X122192509Y-84521509D01*
X122174512Y-84537820D01*
X122155004Y-84552289D01*
X122134171Y-84564776D01*
X122112214Y-84575160D01*
X122089345Y-84583343D01*
X122065785Y-84589244D01*
X122041759Y-84592808D01*
X122017500Y-84594000D01*
X121522500Y-84594000D01*
X121498241Y-84592808D01*
X121474215Y-84589244D01*
X121450655Y-84583343D01*
X121427786Y-84575160D01*
X121405829Y-84564776D01*
X121384996Y-84552289D01*
X121365488Y-84537820D01*
X121347491Y-84521509D01*
X121331180Y-84503512D01*
X121316711Y-84484004D01*
X121304224Y-84463171D01*
X121293840Y-84441214D01*
X121285657Y-84418345D01*
X121279756Y-84394785D01*
X121276192Y-84370759D01*
X121275000Y-84346500D01*
X121275000Y-83801500D01*
X121276192Y-83777241D01*
X121279756Y-83753215D01*
X121285657Y-83729655D01*
X121293840Y-83706786D01*
X121304224Y-83684829D01*
X121316711Y-83663996D01*
X121331180Y-83644488D01*
X121347491Y-83626491D01*
X121365488Y-83610180D01*
X121384996Y-83595711D01*
X121405829Y-83583224D01*
X121427786Y-83572840D01*
X121450655Y-83564657D01*
X121474215Y-83558756D01*
X121498241Y-83555192D01*
X121522500Y-83554000D01*
X122017500Y-83554000D01*
X122041759Y-83555192D01*
X122041759Y-83555192D01*
G37*
D15*
X121770000Y-84074000D03*
D14*
G36*
X121071759Y-83555192D02*
X121095785Y-83558756D01*
X121119345Y-83564657D01*
X121142214Y-83572840D01*
X121164171Y-83583224D01*
X121185004Y-83595711D01*
X121204512Y-83610180D01*
X121222509Y-83626491D01*
X121238820Y-83644488D01*
X121253289Y-83663996D01*
X121265776Y-83684829D01*
X121276160Y-83706786D01*
X121284343Y-83729655D01*
X121290244Y-83753215D01*
X121293808Y-83777241D01*
X121295000Y-83801500D01*
X121295000Y-84346500D01*
X121293808Y-84370759D01*
X121290244Y-84394785D01*
X121284343Y-84418345D01*
X121276160Y-84441214D01*
X121265776Y-84463171D01*
X121253289Y-84484004D01*
X121238820Y-84503512D01*
X121222509Y-84521509D01*
X121204512Y-84537820D01*
X121185004Y-84552289D01*
X121164171Y-84564776D01*
X121142214Y-84575160D01*
X121119345Y-84583343D01*
X121095785Y-84589244D01*
X121071759Y-84592808D01*
X121047500Y-84594000D01*
X120552500Y-84594000D01*
X120528241Y-84592808D01*
X120504215Y-84589244D01*
X120480655Y-84583343D01*
X120457786Y-84575160D01*
X120435829Y-84564776D01*
X120414996Y-84552289D01*
X120395488Y-84537820D01*
X120377491Y-84521509D01*
X120361180Y-84503512D01*
X120346711Y-84484004D01*
X120334224Y-84463171D01*
X120323840Y-84441214D01*
X120315657Y-84418345D01*
X120309756Y-84394785D01*
X120306192Y-84370759D01*
X120305000Y-84346500D01*
X120305000Y-83801500D01*
X120306192Y-83777241D01*
X120309756Y-83753215D01*
X120315657Y-83729655D01*
X120323840Y-83706786D01*
X120334224Y-83684829D01*
X120346711Y-83663996D01*
X120361180Y-83644488D01*
X120377491Y-83626491D01*
X120395488Y-83610180D01*
X120414996Y-83595711D01*
X120435829Y-83583224D01*
X120457786Y-83572840D01*
X120480655Y-83564657D01*
X120504215Y-83558756D01*
X120528241Y-83555192D01*
X120552500Y-83554000D01*
X121047500Y-83554000D01*
X121071759Y-83555192D01*
X121071759Y-83555192D01*
G37*
D15*
X120800000Y-84074000D03*
G04 #@! TD*
D14*
G04 #@! TO.C,D1*
G36*
X113074993Y-83400535D02*
X113105935Y-83405125D01*
X113136278Y-83412725D01*
X113165730Y-83423263D01*
X113194008Y-83436638D01*
X113220838Y-83452719D01*
X113245963Y-83471353D01*
X113269140Y-83492360D01*
X113290147Y-83515537D01*
X113308781Y-83540662D01*
X113324862Y-83567492D01*
X113338237Y-83595770D01*
X113348775Y-83625222D01*
X113356375Y-83655565D01*
X113360965Y-83686507D01*
X113362500Y-83717750D01*
X113362500Y-84430250D01*
X113360965Y-84461493D01*
X113356375Y-84492435D01*
X113348775Y-84522778D01*
X113338237Y-84552230D01*
X113324862Y-84580508D01*
X113308781Y-84607338D01*
X113290147Y-84632463D01*
X113269140Y-84655640D01*
X113245963Y-84676647D01*
X113220838Y-84695281D01*
X113194008Y-84711362D01*
X113165730Y-84724737D01*
X113136278Y-84735275D01*
X113105935Y-84742875D01*
X113074993Y-84747465D01*
X113043750Y-84749000D01*
X112406250Y-84749000D01*
X112375007Y-84747465D01*
X112344065Y-84742875D01*
X112313722Y-84735275D01*
X112284270Y-84724737D01*
X112255992Y-84711362D01*
X112229162Y-84695281D01*
X112204037Y-84676647D01*
X112180860Y-84655640D01*
X112159853Y-84632463D01*
X112141219Y-84607338D01*
X112125138Y-84580508D01*
X112111763Y-84552230D01*
X112101225Y-84522778D01*
X112093625Y-84492435D01*
X112089035Y-84461493D01*
X112087500Y-84430250D01*
X112087500Y-83717750D01*
X112089035Y-83686507D01*
X112093625Y-83655565D01*
X112101225Y-83625222D01*
X112111763Y-83595770D01*
X112125138Y-83567492D01*
X112141219Y-83540662D01*
X112159853Y-83515537D01*
X112180860Y-83492360D01*
X112204037Y-83471353D01*
X112229162Y-83452719D01*
X112255992Y-83436638D01*
X112284270Y-83423263D01*
X112313722Y-83412725D01*
X112344065Y-83405125D01*
X112375007Y-83400535D01*
X112406250Y-83399000D01*
X113043750Y-83399000D01*
X113074993Y-83400535D01*
X113074993Y-83400535D01*
G37*
D21*
X112725000Y-84074000D03*
D14*
G36*
X114649993Y-83400535D02*
X114680935Y-83405125D01*
X114711278Y-83412725D01*
X114740730Y-83423263D01*
X114769008Y-83436638D01*
X114795838Y-83452719D01*
X114820963Y-83471353D01*
X114844140Y-83492360D01*
X114865147Y-83515537D01*
X114883781Y-83540662D01*
X114899862Y-83567492D01*
X114913237Y-83595770D01*
X114923775Y-83625222D01*
X114931375Y-83655565D01*
X114935965Y-83686507D01*
X114937500Y-83717750D01*
X114937500Y-84430250D01*
X114935965Y-84461493D01*
X114931375Y-84492435D01*
X114923775Y-84522778D01*
X114913237Y-84552230D01*
X114899862Y-84580508D01*
X114883781Y-84607338D01*
X114865147Y-84632463D01*
X114844140Y-84655640D01*
X114820963Y-84676647D01*
X114795838Y-84695281D01*
X114769008Y-84711362D01*
X114740730Y-84724737D01*
X114711278Y-84735275D01*
X114680935Y-84742875D01*
X114649993Y-84747465D01*
X114618750Y-84749000D01*
X113981250Y-84749000D01*
X113950007Y-84747465D01*
X113919065Y-84742875D01*
X113888722Y-84735275D01*
X113859270Y-84724737D01*
X113830992Y-84711362D01*
X113804162Y-84695281D01*
X113779037Y-84676647D01*
X113755860Y-84655640D01*
X113734853Y-84632463D01*
X113716219Y-84607338D01*
X113700138Y-84580508D01*
X113686763Y-84552230D01*
X113676225Y-84522778D01*
X113668625Y-84492435D01*
X113664035Y-84461493D01*
X113662500Y-84430250D01*
X113662500Y-83717750D01*
X113664035Y-83686507D01*
X113668625Y-83655565D01*
X113676225Y-83625222D01*
X113686763Y-83595770D01*
X113700138Y-83567492D01*
X113716219Y-83540662D01*
X113734853Y-83515537D01*
X113755860Y-83492360D01*
X113779037Y-83471353D01*
X113804162Y-83452719D01*
X113830992Y-83436638D01*
X113859270Y-83423263D01*
X113888722Y-83412725D01*
X113919065Y-83405125D01*
X113950007Y-83400535D01*
X113981250Y-83399000D01*
X114618750Y-83399000D01*
X114649993Y-83400535D01*
X114649993Y-83400535D01*
G37*
D21*
X114300000Y-84074000D03*
G04 #@! TD*
D22*
G04 #@! TO.C,J2*
X112616000Y-90575000D03*
D23*
X115316000Y-87075000D03*
D24*
X115316000Y-88925000D03*
X115316000Y-88275000D03*
X115316000Y-90875000D03*
X115316000Y-90225000D03*
X115316000Y-89575000D03*
D23*
X115316000Y-92075000D03*
D22*
X112616000Y-88575000D03*
D25*
X112616000Y-86075000D03*
X112616000Y-93075000D03*
D26*
X112616000Y-92475000D03*
X112616000Y-86675000D03*
G04 #@! TD*
D14*
G04 #@! TO.C,R4*
G36*
X116984759Y-83555192D02*
X117008785Y-83558756D01*
X117032345Y-83564657D01*
X117055214Y-83572840D01*
X117077171Y-83583224D01*
X117098004Y-83595711D01*
X117117512Y-83610180D01*
X117135509Y-83626491D01*
X117151820Y-83644488D01*
X117166289Y-83663996D01*
X117178776Y-83684829D01*
X117189160Y-83706786D01*
X117197343Y-83729655D01*
X117203244Y-83753215D01*
X117206808Y-83777241D01*
X117208000Y-83801500D01*
X117208000Y-84346500D01*
X117206808Y-84370759D01*
X117203244Y-84394785D01*
X117197343Y-84418345D01*
X117189160Y-84441214D01*
X117178776Y-84463171D01*
X117166289Y-84484004D01*
X117151820Y-84503512D01*
X117135509Y-84521509D01*
X117117512Y-84537820D01*
X117098004Y-84552289D01*
X117077171Y-84564776D01*
X117055214Y-84575160D01*
X117032345Y-84583343D01*
X117008785Y-84589244D01*
X116984759Y-84592808D01*
X116960500Y-84594000D01*
X116465500Y-84594000D01*
X116441241Y-84592808D01*
X116417215Y-84589244D01*
X116393655Y-84583343D01*
X116370786Y-84575160D01*
X116348829Y-84564776D01*
X116327996Y-84552289D01*
X116308488Y-84537820D01*
X116290491Y-84521509D01*
X116274180Y-84503512D01*
X116259711Y-84484004D01*
X116247224Y-84463171D01*
X116236840Y-84441214D01*
X116228657Y-84418345D01*
X116222756Y-84394785D01*
X116219192Y-84370759D01*
X116218000Y-84346500D01*
X116218000Y-83801500D01*
X116219192Y-83777241D01*
X116222756Y-83753215D01*
X116228657Y-83729655D01*
X116236840Y-83706786D01*
X116247224Y-83684829D01*
X116259711Y-83663996D01*
X116274180Y-83644488D01*
X116290491Y-83626491D01*
X116308488Y-83610180D01*
X116327996Y-83595711D01*
X116348829Y-83583224D01*
X116370786Y-83572840D01*
X116393655Y-83564657D01*
X116417215Y-83558756D01*
X116441241Y-83555192D01*
X116465500Y-83554000D01*
X116960500Y-83554000D01*
X116984759Y-83555192D01*
X116984759Y-83555192D01*
G37*
D15*
X116713000Y-84074000D03*
D14*
G36*
X116014759Y-83555192D02*
X116038785Y-83558756D01*
X116062345Y-83564657D01*
X116085214Y-83572840D01*
X116107171Y-83583224D01*
X116128004Y-83595711D01*
X116147512Y-83610180D01*
X116165509Y-83626491D01*
X116181820Y-83644488D01*
X116196289Y-83663996D01*
X116208776Y-83684829D01*
X116219160Y-83706786D01*
X116227343Y-83729655D01*
X116233244Y-83753215D01*
X116236808Y-83777241D01*
X116238000Y-83801500D01*
X116238000Y-84346500D01*
X116236808Y-84370759D01*
X116233244Y-84394785D01*
X116227343Y-84418345D01*
X116219160Y-84441214D01*
X116208776Y-84463171D01*
X116196289Y-84484004D01*
X116181820Y-84503512D01*
X116165509Y-84521509D01*
X116147512Y-84537820D01*
X116128004Y-84552289D01*
X116107171Y-84564776D01*
X116085214Y-84575160D01*
X116062345Y-84583343D01*
X116038785Y-84589244D01*
X116014759Y-84592808D01*
X115990500Y-84594000D01*
X115495500Y-84594000D01*
X115471241Y-84592808D01*
X115447215Y-84589244D01*
X115423655Y-84583343D01*
X115400786Y-84575160D01*
X115378829Y-84564776D01*
X115357996Y-84552289D01*
X115338488Y-84537820D01*
X115320491Y-84521509D01*
X115304180Y-84503512D01*
X115289711Y-84484004D01*
X115277224Y-84463171D01*
X115266840Y-84441214D01*
X115258657Y-84418345D01*
X115252756Y-84394785D01*
X115249192Y-84370759D01*
X115248000Y-84346500D01*
X115248000Y-83801500D01*
X115249192Y-83777241D01*
X115252756Y-83753215D01*
X115258657Y-83729655D01*
X115266840Y-83706786D01*
X115277224Y-83684829D01*
X115289711Y-83663996D01*
X115304180Y-83644488D01*
X115320491Y-83626491D01*
X115338488Y-83610180D01*
X115357996Y-83595711D01*
X115378829Y-83583224D01*
X115400786Y-83572840D01*
X115423655Y-83564657D01*
X115447215Y-83558756D01*
X115471241Y-83555192D01*
X115495500Y-83554000D01*
X115990500Y-83554000D01*
X116014759Y-83555192D01*
X116014759Y-83555192D01*
G37*
D15*
X115743000Y-84074000D03*
G04 #@! TD*
D14*
G04 #@! TO.C,R5*
G36*
X118785759Y-83555192D02*
X118809785Y-83558756D01*
X118833345Y-83564657D01*
X118856214Y-83572840D01*
X118878171Y-83583224D01*
X118899004Y-83595711D01*
X118918512Y-83610180D01*
X118936509Y-83626491D01*
X118952820Y-83644488D01*
X118967289Y-83663996D01*
X118979776Y-83684829D01*
X118990160Y-83706786D01*
X118998343Y-83729655D01*
X119004244Y-83753215D01*
X119007808Y-83777241D01*
X119009000Y-83801500D01*
X119009000Y-84346500D01*
X119007808Y-84370759D01*
X119004244Y-84394785D01*
X118998343Y-84418345D01*
X118990160Y-84441214D01*
X118979776Y-84463171D01*
X118967289Y-84484004D01*
X118952820Y-84503512D01*
X118936509Y-84521509D01*
X118918512Y-84537820D01*
X118899004Y-84552289D01*
X118878171Y-84564776D01*
X118856214Y-84575160D01*
X118833345Y-84583343D01*
X118809785Y-84589244D01*
X118785759Y-84592808D01*
X118761500Y-84594000D01*
X118266500Y-84594000D01*
X118242241Y-84592808D01*
X118218215Y-84589244D01*
X118194655Y-84583343D01*
X118171786Y-84575160D01*
X118149829Y-84564776D01*
X118128996Y-84552289D01*
X118109488Y-84537820D01*
X118091491Y-84521509D01*
X118075180Y-84503512D01*
X118060711Y-84484004D01*
X118048224Y-84463171D01*
X118037840Y-84441214D01*
X118029657Y-84418345D01*
X118023756Y-84394785D01*
X118020192Y-84370759D01*
X118019000Y-84346500D01*
X118019000Y-83801500D01*
X118020192Y-83777241D01*
X118023756Y-83753215D01*
X118029657Y-83729655D01*
X118037840Y-83706786D01*
X118048224Y-83684829D01*
X118060711Y-83663996D01*
X118075180Y-83644488D01*
X118091491Y-83626491D01*
X118109488Y-83610180D01*
X118128996Y-83595711D01*
X118149829Y-83583224D01*
X118171786Y-83572840D01*
X118194655Y-83564657D01*
X118218215Y-83558756D01*
X118242241Y-83555192D01*
X118266500Y-83554000D01*
X118761500Y-83554000D01*
X118785759Y-83555192D01*
X118785759Y-83555192D01*
G37*
D15*
X118514000Y-84074000D03*
D14*
G36*
X119755759Y-83555192D02*
X119779785Y-83558756D01*
X119803345Y-83564657D01*
X119826214Y-83572840D01*
X119848171Y-83583224D01*
X119869004Y-83595711D01*
X119888512Y-83610180D01*
X119906509Y-83626491D01*
X119922820Y-83644488D01*
X119937289Y-83663996D01*
X119949776Y-83684829D01*
X119960160Y-83706786D01*
X119968343Y-83729655D01*
X119974244Y-83753215D01*
X119977808Y-83777241D01*
X119979000Y-83801500D01*
X119979000Y-84346500D01*
X119977808Y-84370759D01*
X119974244Y-84394785D01*
X119968343Y-84418345D01*
X119960160Y-84441214D01*
X119949776Y-84463171D01*
X119937289Y-84484004D01*
X119922820Y-84503512D01*
X119906509Y-84521509D01*
X119888512Y-84537820D01*
X119869004Y-84552289D01*
X119848171Y-84564776D01*
X119826214Y-84575160D01*
X119803345Y-84583343D01*
X119779785Y-84589244D01*
X119755759Y-84592808D01*
X119731500Y-84594000D01*
X119236500Y-84594000D01*
X119212241Y-84592808D01*
X119188215Y-84589244D01*
X119164655Y-84583343D01*
X119141786Y-84575160D01*
X119119829Y-84564776D01*
X119098996Y-84552289D01*
X119079488Y-84537820D01*
X119061491Y-84521509D01*
X119045180Y-84503512D01*
X119030711Y-84484004D01*
X119018224Y-84463171D01*
X119007840Y-84441214D01*
X118999657Y-84418345D01*
X118993756Y-84394785D01*
X118990192Y-84370759D01*
X118989000Y-84346500D01*
X118989000Y-83801500D01*
X118990192Y-83777241D01*
X118993756Y-83753215D01*
X118999657Y-83729655D01*
X119007840Y-83706786D01*
X119018224Y-83684829D01*
X119030711Y-83663996D01*
X119045180Y-83644488D01*
X119061491Y-83626491D01*
X119079488Y-83610180D01*
X119098996Y-83595711D01*
X119119829Y-83583224D01*
X119141786Y-83572840D01*
X119164655Y-83564657D01*
X119188215Y-83558756D01*
X119212241Y-83555192D01*
X119236500Y-83554000D01*
X119731500Y-83554000D01*
X119755759Y-83555192D01*
X119755759Y-83555192D01*
G37*
D15*
X119484000Y-84074000D03*
G04 #@! TD*
D14*
G04 #@! TO.C,R6*
G36*
X122851759Y-94606192D02*
X122875785Y-94609756D01*
X122899345Y-94615657D01*
X122922214Y-94623840D01*
X122944171Y-94634224D01*
X122965004Y-94646711D01*
X122984512Y-94661180D01*
X123002509Y-94677491D01*
X123018820Y-94695488D01*
X123033289Y-94714996D01*
X123045776Y-94735829D01*
X123056160Y-94757786D01*
X123064343Y-94780655D01*
X123070244Y-94804215D01*
X123073808Y-94828241D01*
X123075000Y-94852500D01*
X123075000Y-95347500D01*
X123073808Y-95371759D01*
X123070244Y-95395785D01*
X123064343Y-95419345D01*
X123056160Y-95442214D01*
X123045776Y-95464171D01*
X123033289Y-95485004D01*
X123018820Y-95504512D01*
X123002509Y-95522509D01*
X122984512Y-95538820D01*
X122965004Y-95553289D01*
X122944171Y-95565776D01*
X122922214Y-95576160D01*
X122899345Y-95584343D01*
X122875785Y-95590244D01*
X122851759Y-95593808D01*
X122827500Y-95595000D01*
X122282500Y-95595000D01*
X122258241Y-95593808D01*
X122234215Y-95590244D01*
X122210655Y-95584343D01*
X122187786Y-95576160D01*
X122165829Y-95565776D01*
X122144996Y-95553289D01*
X122125488Y-95538820D01*
X122107491Y-95522509D01*
X122091180Y-95504512D01*
X122076711Y-95485004D01*
X122064224Y-95464171D01*
X122053840Y-95442214D01*
X122045657Y-95419345D01*
X122039756Y-95395785D01*
X122036192Y-95371759D01*
X122035000Y-95347500D01*
X122035000Y-94852500D01*
X122036192Y-94828241D01*
X122039756Y-94804215D01*
X122045657Y-94780655D01*
X122053840Y-94757786D01*
X122064224Y-94735829D01*
X122076711Y-94714996D01*
X122091180Y-94695488D01*
X122107491Y-94677491D01*
X122125488Y-94661180D01*
X122144996Y-94646711D01*
X122165829Y-94634224D01*
X122187786Y-94623840D01*
X122210655Y-94615657D01*
X122234215Y-94609756D01*
X122258241Y-94606192D01*
X122282500Y-94605000D01*
X122827500Y-94605000D01*
X122851759Y-94606192D01*
X122851759Y-94606192D01*
G37*
D15*
X122555000Y-95100000D03*
D14*
G36*
X122851759Y-93636192D02*
X122875785Y-93639756D01*
X122899345Y-93645657D01*
X122922214Y-93653840D01*
X122944171Y-93664224D01*
X122965004Y-93676711D01*
X122984512Y-93691180D01*
X123002509Y-93707491D01*
X123018820Y-93725488D01*
X123033289Y-93744996D01*
X123045776Y-93765829D01*
X123056160Y-93787786D01*
X123064343Y-93810655D01*
X123070244Y-93834215D01*
X123073808Y-93858241D01*
X123075000Y-93882500D01*
X123075000Y-94377500D01*
X123073808Y-94401759D01*
X123070244Y-94425785D01*
X123064343Y-94449345D01*
X123056160Y-94472214D01*
X123045776Y-94494171D01*
X123033289Y-94515004D01*
X123018820Y-94534512D01*
X123002509Y-94552509D01*
X122984512Y-94568820D01*
X122965004Y-94583289D01*
X122944171Y-94595776D01*
X122922214Y-94606160D01*
X122899345Y-94614343D01*
X122875785Y-94620244D01*
X122851759Y-94623808D01*
X122827500Y-94625000D01*
X122282500Y-94625000D01*
X122258241Y-94623808D01*
X122234215Y-94620244D01*
X122210655Y-94614343D01*
X122187786Y-94606160D01*
X122165829Y-94595776D01*
X122144996Y-94583289D01*
X122125488Y-94568820D01*
X122107491Y-94552509D01*
X122091180Y-94534512D01*
X122076711Y-94515004D01*
X122064224Y-94494171D01*
X122053840Y-94472214D01*
X122045657Y-94449345D01*
X122039756Y-94425785D01*
X122036192Y-94401759D01*
X122035000Y-94377500D01*
X122035000Y-93882500D01*
X122036192Y-93858241D01*
X122039756Y-93834215D01*
X122045657Y-93810655D01*
X122053840Y-93787786D01*
X122064224Y-93765829D01*
X122076711Y-93744996D01*
X122091180Y-93725488D01*
X122107491Y-93707491D01*
X122125488Y-93691180D01*
X122144996Y-93676711D01*
X122165829Y-93664224D01*
X122187786Y-93653840D01*
X122210655Y-93645657D01*
X122234215Y-93639756D01*
X122258241Y-93636192D01*
X122282500Y-93635000D01*
X122827500Y-93635000D01*
X122851759Y-93636192D01*
X122851759Y-93636192D01*
G37*
D15*
X122555000Y-94130000D03*
G04 #@! TD*
D27*
G04 #@! TO.C,U4*
X118661000Y-93157000D03*
X118661000Y-94107000D03*
X118661000Y-95057000D03*
X120861000Y-95057000D03*
X120861000Y-93157000D03*
G04 #@! TD*
D14*
G04 #@! TO.C,C6*
G36*
X126661759Y-90796192D02*
X126685785Y-90799756D01*
X126709345Y-90805657D01*
X126732214Y-90813840D01*
X126754171Y-90824224D01*
X126775004Y-90836711D01*
X126794512Y-90851180D01*
X126812509Y-90867491D01*
X126828820Y-90885488D01*
X126843289Y-90904996D01*
X126855776Y-90925829D01*
X126866160Y-90947786D01*
X126874343Y-90970655D01*
X126880244Y-90994215D01*
X126883808Y-91018241D01*
X126885000Y-91042500D01*
X126885000Y-91537500D01*
X126883808Y-91561759D01*
X126880244Y-91585785D01*
X126874343Y-91609345D01*
X126866160Y-91632214D01*
X126855776Y-91654171D01*
X126843289Y-91675004D01*
X126828820Y-91694512D01*
X126812509Y-91712509D01*
X126794512Y-91728820D01*
X126775004Y-91743289D01*
X126754171Y-91755776D01*
X126732214Y-91766160D01*
X126709345Y-91774343D01*
X126685785Y-91780244D01*
X126661759Y-91783808D01*
X126637500Y-91785000D01*
X126092500Y-91785000D01*
X126068241Y-91783808D01*
X126044215Y-91780244D01*
X126020655Y-91774343D01*
X125997786Y-91766160D01*
X125975829Y-91755776D01*
X125954996Y-91743289D01*
X125935488Y-91728820D01*
X125917491Y-91712509D01*
X125901180Y-91694512D01*
X125886711Y-91675004D01*
X125874224Y-91654171D01*
X125863840Y-91632214D01*
X125855657Y-91609345D01*
X125849756Y-91585785D01*
X125846192Y-91561759D01*
X125845000Y-91537500D01*
X125845000Y-91042500D01*
X125846192Y-91018241D01*
X125849756Y-90994215D01*
X125855657Y-90970655D01*
X125863840Y-90947786D01*
X125874224Y-90925829D01*
X125886711Y-90904996D01*
X125901180Y-90885488D01*
X125917491Y-90867491D01*
X125935488Y-90851180D01*
X125954996Y-90836711D01*
X125975829Y-90824224D01*
X125997786Y-90813840D01*
X126020655Y-90805657D01*
X126044215Y-90799756D01*
X126068241Y-90796192D01*
X126092500Y-90795000D01*
X126637500Y-90795000D01*
X126661759Y-90796192D01*
X126661759Y-90796192D01*
G37*
D15*
X126365000Y-91290000D03*
D14*
G36*
X126661759Y-89826192D02*
X126685785Y-89829756D01*
X126709345Y-89835657D01*
X126732214Y-89843840D01*
X126754171Y-89854224D01*
X126775004Y-89866711D01*
X126794512Y-89881180D01*
X126812509Y-89897491D01*
X126828820Y-89915488D01*
X126843289Y-89934996D01*
X126855776Y-89955829D01*
X126866160Y-89977786D01*
X126874343Y-90000655D01*
X126880244Y-90024215D01*
X126883808Y-90048241D01*
X126885000Y-90072500D01*
X126885000Y-90567500D01*
X126883808Y-90591759D01*
X126880244Y-90615785D01*
X126874343Y-90639345D01*
X126866160Y-90662214D01*
X126855776Y-90684171D01*
X126843289Y-90705004D01*
X126828820Y-90724512D01*
X126812509Y-90742509D01*
X126794512Y-90758820D01*
X126775004Y-90773289D01*
X126754171Y-90785776D01*
X126732214Y-90796160D01*
X126709345Y-90804343D01*
X126685785Y-90810244D01*
X126661759Y-90813808D01*
X126637500Y-90815000D01*
X126092500Y-90815000D01*
X126068241Y-90813808D01*
X126044215Y-90810244D01*
X126020655Y-90804343D01*
X125997786Y-90796160D01*
X125975829Y-90785776D01*
X125954996Y-90773289D01*
X125935488Y-90758820D01*
X125917491Y-90742509D01*
X125901180Y-90724512D01*
X125886711Y-90705004D01*
X125874224Y-90684171D01*
X125863840Y-90662214D01*
X125855657Y-90639345D01*
X125849756Y-90615785D01*
X125846192Y-90591759D01*
X125845000Y-90567500D01*
X125845000Y-90072500D01*
X125846192Y-90048241D01*
X125849756Y-90024215D01*
X125855657Y-90000655D01*
X125863840Y-89977786D01*
X125874224Y-89955829D01*
X125886711Y-89934996D01*
X125901180Y-89915488D01*
X125917491Y-89897491D01*
X125935488Y-89881180D01*
X125954996Y-89866711D01*
X125975829Y-89854224D01*
X125997786Y-89843840D01*
X126020655Y-89835657D01*
X126044215Y-89829756D01*
X126068241Y-89826192D01*
X126092500Y-89825000D01*
X126637500Y-89825000D01*
X126661759Y-89826192D01*
X126661759Y-89826192D01*
G37*
D15*
X126365000Y-90320000D03*
G04 #@! TD*
D14*
G04 #@! TO.C,C9*
G36*
X132016759Y-83809192D02*
X132040785Y-83812756D01*
X132064345Y-83818657D01*
X132087214Y-83826840D01*
X132109171Y-83837224D01*
X132130004Y-83849711D01*
X132149512Y-83864180D01*
X132167509Y-83880491D01*
X132183820Y-83898488D01*
X132198289Y-83917996D01*
X132210776Y-83938829D01*
X132221160Y-83960786D01*
X132229343Y-83983655D01*
X132235244Y-84007215D01*
X132238808Y-84031241D01*
X132240000Y-84055500D01*
X132240000Y-84600500D01*
X132238808Y-84624759D01*
X132235244Y-84648785D01*
X132229343Y-84672345D01*
X132221160Y-84695214D01*
X132210776Y-84717171D01*
X132198289Y-84738004D01*
X132183820Y-84757512D01*
X132167509Y-84775509D01*
X132149512Y-84791820D01*
X132130004Y-84806289D01*
X132109171Y-84818776D01*
X132087214Y-84829160D01*
X132064345Y-84837343D01*
X132040785Y-84843244D01*
X132016759Y-84846808D01*
X131992500Y-84848000D01*
X131497500Y-84848000D01*
X131473241Y-84846808D01*
X131449215Y-84843244D01*
X131425655Y-84837343D01*
X131402786Y-84829160D01*
X131380829Y-84818776D01*
X131359996Y-84806289D01*
X131340488Y-84791820D01*
X131322491Y-84775509D01*
X131306180Y-84757512D01*
X131291711Y-84738004D01*
X131279224Y-84717171D01*
X131268840Y-84695214D01*
X131260657Y-84672345D01*
X131254756Y-84648785D01*
X131251192Y-84624759D01*
X131250000Y-84600500D01*
X131250000Y-84055500D01*
X131251192Y-84031241D01*
X131254756Y-84007215D01*
X131260657Y-83983655D01*
X131268840Y-83960786D01*
X131279224Y-83938829D01*
X131291711Y-83917996D01*
X131306180Y-83898488D01*
X131322491Y-83880491D01*
X131340488Y-83864180D01*
X131359996Y-83849711D01*
X131380829Y-83837224D01*
X131402786Y-83826840D01*
X131425655Y-83818657D01*
X131449215Y-83812756D01*
X131473241Y-83809192D01*
X131497500Y-83808000D01*
X131992500Y-83808000D01*
X132016759Y-83809192D01*
X132016759Y-83809192D01*
G37*
D15*
X131745000Y-84328000D03*
D14*
G36*
X132986759Y-83809192D02*
X133010785Y-83812756D01*
X133034345Y-83818657D01*
X133057214Y-83826840D01*
X133079171Y-83837224D01*
X133100004Y-83849711D01*
X133119512Y-83864180D01*
X133137509Y-83880491D01*
X133153820Y-83898488D01*
X133168289Y-83917996D01*
X133180776Y-83938829D01*
X133191160Y-83960786D01*
X133199343Y-83983655D01*
X133205244Y-84007215D01*
X133208808Y-84031241D01*
X133210000Y-84055500D01*
X133210000Y-84600500D01*
X133208808Y-84624759D01*
X133205244Y-84648785D01*
X133199343Y-84672345D01*
X133191160Y-84695214D01*
X133180776Y-84717171D01*
X133168289Y-84738004D01*
X133153820Y-84757512D01*
X133137509Y-84775509D01*
X133119512Y-84791820D01*
X133100004Y-84806289D01*
X133079171Y-84818776D01*
X133057214Y-84829160D01*
X133034345Y-84837343D01*
X133010785Y-84843244D01*
X132986759Y-84846808D01*
X132962500Y-84848000D01*
X132467500Y-84848000D01*
X132443241Y-84846808D01*
X132419215Y-84843244D01*
X132395655Y-84837343D01*
X132372786Y-84829160D01*
X132350829Y-84818776D01*
X132329996Y-84806289D01*
X132310488Y-84791820D01*
X132292491Y-84775509D01*
X132276180Y-84757512D01*
X132261711Y-84738004D01*
X132249224Y-84717171D01*
X132238840Y-84695214D01*
X132230657Y-84672345D01*
X132224756Y-84648785D01*
X132221192Y-84624759D01*
X132220000Y-84600500D01*
X132220000Y-84055500D01*
X132221192Y-84031241D01*
X132224756Y-84007215D01*
X132230657Y-83983655D01*
X132238840Y-83960786D01*
X132249224Y-83938829D01*
X132261711Y-83917996D01*
X132276180Y-83898488D01*
X132292491Y-83880491D01*
X132310488Y-83864180D01*
X132329996Y-83849711D01*
X132350829Y-83837224D01*
X132372786Y-83826840D01*
X132395655Y-83818657D01*
X132419215Y-83812756D01*
X132443241Y-83809192D01*
X132467500Y-83808000D01*
X132962500Y-83808000D01*
X132986759Y-83809192D01*
X132986759Y-83809192D01*
G37*
D15*
X132715000Y-84328000D03*
G04 #@! TD*
D14*
G04 #@! TO.C,C10*
G36*
X135803759Y-83809192D02*
X135827785Y-83812756D01*
X135851345Y-83818657D01*
X135874214Y-83826840D01*
X135896171Y-83837224D01*
X135917004Y-83849711D01*
X135936512Y-83864180D01*
X135954509Y-83880491D01*
X135970820Y-83898488D01*
X135985289Y-83917996D01*
X135997776Y-83938829D01*
X136008160Y-83960786D01*
X136016343Y-83983655D01*
X136022244Y-84007215D01*
X136025808Y-84031241D01*
X136027000Y-84055500D01*
X136027000Y-84600500D01*
X136025808Y-84624759D01*
X136022244Y-84648785D01*
X136016343Y-84672345D01*
X136008160Y-84695214D01*
X135997776Y-84717171D01*
X135985289Y-84738004D01*
X135970820Y-84757512D01*
X135954509Y-84775509D01*
X135936512Y-84791820D01*
X135917004Y-84806289D01*
X135896171Y-84818776D01*
X135874214Y-84829160D01*
X135851345Y-84837343D01*
X135827785Y-84843244D01*
X135803759Y-84846808D01*
X135779500Y-84848000D01*
X135284500Y-84848000D01*
X135260241Y-84846808D01*
X135236215Y-84843244D01*
X135212655Y-84837343D01*
X135189786Y-84829160D01*
X135167829Y-84818776D01*
X135146996Y-84806289D01*
X135127488Y-84791820D01*
X135109491Y-84775509D01*
X135093180Y-84757512D01*
X135078711Y-84738004D01*
X135066224Y-84717171D01*
X135055840Y-84695214D01*
X135047657Y-84672345D01*
X135041756Y-84648785D01*
X135038192Y-84624759D01*
X135037000Y-84600500D01*
X135037000Y-84055500D01*
X135038192Y-84031241D01*
X135041756Y-84007215D01*
X135047657Y-83983655D01*
X135055840Y-83960786D01*
X135066224Y-83938829D01*
X135078711Y-83917996D01*
X135093180Y-83898488D01*
X135109491Y-83880491D01*
X135127488Y-83864180D01*
X135146996Y-83849711D01*
X135167829Y-83837224D01*
X135189786Y-83826840D01*
X135212655Y-83818657D01*
X135236215Y-83812756D01*
X135260241Y-83809192D01*
X135284500Y-83808000D01*
X135779500Y-83808000D01*
X135803759Y-83809192D01*
X135803759Y-83809192D01*
G37*
D15*
X135532000Y-84328000D03*
D14*
G36*
X136773759Y-83809192D02*
X136797785Y-83812756D01*
X136821345Y-83818657D01*
X136844214Y-83826840D01*
X136866171Y-83837224D01*
X136887004Y-83849711D01*
X136906512Y-83864180D01*
X136924509Y-83880491D01*
X136940820Y-83898488D01*
X136955289Y-83917996D01*
X136967776Y-83938829D01*
X136978160Y-83960786D01*
X136986343Y-83983655D01*
X136992244Y-84007215D01*
X136995808Y-84031241D01*
X136997000Y-84055500D01*
X136997000Y-84600500D01*
X136995808Y-84624759D01*
X136992244Y-84648785D01*
X136986343Y-84672345D01*
X136978160Y-84695214D01*
X136967776Y-84717171D01*
X136955289Y-84738004D01*
X136940820Y-84757512D01*
X136924509Y-84775509D01*
X136906512Y-84791820D01*
X136887004Y-84806289D01*
X136866171Y-84818776D01*
X136844214Y-84829160D01*
X136821345Y-84837343D01*
X136797785Y-84843244D01*
X136773759Y-84846808D01*
X136749500Y-84848000D01*
X136254500Y-84848000D01*
X136230241Y-84846808D01*
X136206215Y-84843244D01*
X136182655Y-84837343D01*
X136159786Y-84829160D01*
X136137829Y-84818776D01*
X136116996Y-84806289D01*
X136097488Y-84791820D01*
X136079491Y-84775509D01*
X136063180Y-84757512D01*
X136048711Y-84738004D01*
X136036224Y-84717171D01*
X136025840Y-84695214D01*
X136017657Y-84672345D01*
X136011756Y-84648785D01*
X136008192Y-84624759D01*
X136007000Y-84600500D01*
X136007000Y-84055500D01*
X136008192Y-84031241D01*
X136011756Y-84007215D01*
X136017657Y-83983655D01*
X136025840Y-83960786D01*
X136036224Y-83938829D01*
X136048711Y-83917996D01*
X136063180Y-83898488D01*
X136079491Y-83880491D01*
X136097488Y-83864180D01*
X136116996Y-83849711D01*
X136137829Y-83837224D01*
X136159786Y-83826840D01*
X136182655Y-83818657D01*
X136206215Y-83812756D01*
X136230241Y-83809192D01*
X136254500Y-83808000D01*
X136749500Y-83808000D01*
X136773759Y-83809192D01*
X136773759Y-83809192D01*
G37*
D15*
X136502000Y-84328000D03*
G04 #@! TD*
D28*
G04 #@! TO.C,D2*
X124460000Y-90771000D03*
X124460000Y-92871000D03*
G04 #@! TD*
D29*
G04 #@! TO.C,Q1*
X124860000Y-94040000D03*
X124060000Y-94040000D03*
D30*
X124460000Y-95190000D03*
G04 #@! TD*
D14*
G04 #@! TO.C,U5*
G36*
X121635812Y-88036389D02*
X121663814Y-88040543D01*
X121691274Y-88047421D01*
X121717928Y-88056958D01*
X121743518Y-88069061D01*
X121767799Y-88083615D01*
X121790536Y-88100478D01*
X121811511Y-88119489D01*
X121830522Y-88140464D01*
X121847385Y-88163201D01*
X121861939Y-88187482D01*
X121874042Y-88213072D01*
X121883579Y-88239726D01*
X121890457Y-88267186D01*
X121894611Y-88295188D01*
X121896000Y-88323462D01*
X121896000Y-90746538D01*
X121894611Y-90774812D01*
X121890457Y-90802814D01*
X121883579Y-90830274D01*
X121874042Y-90856928D01*
X121861939Y-90882518D01*
X121847385Y-90906799D01*
X121830522Y-90929536D01*
X121811511Y-90950511D01*
X121790536Y-90969522D01*
X121767799Y-90986385D01*
X121743518Y-91000939D01*
X121717928Y-91013042D01*
X121691274Y-91022579D01*
X121663814Y-91029457D01*
X121635812Y-91033611D01*
X121607538Y-91035000D01*
X119184462Y-91035000D01*
X119156188Y-91033611D01*
X119128186Y-91029457D01*
X119100726Y-91022579D01*
X119074072Y-91013042D01*
X119048482Y-91000939D01*
X119024201Y-90986385D01*
X119001464Y-90969522D01*
X118980489Y-90950511D01*
X118961478Y-90929536D01*
X118944615Y-90906799D01*
X118930061Y-90882518D01*
X118917958Y-90856928D01*
X118908421Y-90830274D01*
X118901543Y-90802814D01*
X118897389Y-90774812D01*
X118896000Y-90746538D01*
X118896000Y-88323462D01*
X118897389Y-88295188D01*
X118901543Y-88267186D01*
X118908421Y-88239726D01*
X118917958Y-88213072D01*
X118930061Y-88187482D01*
X118944615Y-88163201D01*
X118961478Y-88140464D01*
X118980489Y-88119489D01*
X119001464Y-88100478D01*
X119024201Y-88083615D01*
X119048482Y-88069061D01*
X119074072Y-88056958D01*
X119100726Y-88047421D01*
X119128186Y-88040543D01*
X119156188Y-88036389D01*
X119184462Y-88035000D01*
X121607538Y-88035000D01*
X121635812Y-88036389D01*
X121635812Y-88036389D01*
G37*
D31*
X120396000Y-89535000D03*
D14*
G36*
X118924428Y-87960782D02*
X118940202Y-87963122D01*
X118955671Y-87966997D01*
X118970686Y-87972370D01*
X118985102Y-87979188D01*
X118998780Y-87987386D01*
X119011589Y-87996886D01*
X119023405Y-88007595D01*
X119034114Y-88019411D01*
X119043614Y-88032220D01*
X119051812Y-88045898D01*
X119058630Y-88060314D01*
X119064003Y-88075329D01*
X119067878Y-88090798D01*
X119070218Y-88106572D01*
X119071000Y-88122500D01*
X119071000Y-88447500D01*
X119070218Y-88463428D01*
X119067878Y-88479202D01*
X119064003Y-88494671D01*
X119058630Y-88509686D01*
X119051812Y-88524102D01*
X119043614Y-88537780D01*
X119034114Y-88550589D01*
X119023405Y-88562405D01*
X119011589Y-88573114D01*
X118998780Y-88582614D01*
X118985102Y-88590812D01*
X118970686Y-88597630D01*
X118955671Y-88603003D01*
X118940202Y-88606878D01*
X118924428Y-88609218D01*
X118908500Y-88610000D01*
X118008500Y-88610000D01*
X117992572Y-88609218D01*
X117976798Y-88606878D01*
X117961329Y-88603003D01*
X117946314Y-88597630D01*
X117931898Y-88590812D01*
X117918220Y-88582614D01*
X117905411Y-88573114D01*
X117893595Y-88562405D01*
X117882886Y-88550589D01*
X117873386Y-88537780D01*
X117865188Y-88524102D01*
X117858370Y-88509686D01*
X117852997Y-88494671D01*
X117849122Y-88479202D01*
X117846782Y-88463428D01*
X117846000Y-88447500D01*
X117846000Y-88122500D01*
X117846782Y-88106572D01*
X117849122Y-88090798D01*
X117852997Y-88075329D01*
X117858370Y-88060314D01*
X117865188Y-88045898D01*
X117873386Y-88032220D01*
X117882886Y-88019411D01*
X117893595Y-88007595D01*
X117905411Y-87996886D01*
X117918220Y-87987386D01*
X117931898Y-87979188D01*
X117946314Y-87972370D01*
X117961329Y-87966997D01*
X117976798Y-87963122D01*
X117992572Y-87960782D01*
X118008500Y-87960000D01*
X118908500Y-87960000D01*
X118924428Y-87960782D01*
X118924428Y-87960782D01*
G37*
D32*
X118458500Y-88285000D03*
D14*
G36*
X118924428Y-88460782D02*
X118940202Y-88463122D01*
X118955671Y-88466997D01*
X118970686Y-88472370D01*
X118985102Y-88479188D01*
X118998780Y-88487386D01*
X119011589Y-88496886D01*
X119023405Y-88507595D01*
X119034114Y-88519411D01*
X119043614Y-88532220D01*
X119051812Y-88545898D01*
X119058630Y-88560314D01*
X119064003Y-88575329D01*
X119067878Y-88590798D01*
X119070218Y-88606572D01*
X119071000Y-88622500D01*
X119071000Y-88947500D01*
X119070218Y-88963428D01*
X119067878Y-88979202D01*
X119064003Y-88994671D01*
X119058630Y-89009686D01*
X119051812Y-89024102D01*
X119043614Y-89037780D01*
X119034114Y-89050589D01*
X119023405Y-89062405D01*
X119011589Y-89073114D01*
X118998780Y-89082614D01*
X118985102Y-89090812D01*
X118970686Y-89097630D01*
X118955671Y-89103003D01*
X118940202Y-89106878D01*
X118924428Y-89109218D01*
X118908500Y-89110000D01*
X118008500Y-89110000D01*
X117992572Y-89109218D01*
X117976798Y-89106878D01*
X117961329Y-89103003D01*
X117946314Y-89097630D01*
X117931898Y-89090812D01*
X117918220Y-89082614D01*
X117905411Y-89073114D01*
X117893595Y-89062405D01*
X117882886Y-89050589D01*
X117873386Y-89037780D01*
X117865188Y-89024102D01*
X117858370Y-89009686D01*
X117852997Y-88994671D01*
X117849122Y-88979202D01*
X117846782Y-88963428D01*
X117846000Y-88947500D01*
X117846000Y-88622500D01*
X117846782Y-88606572D01*
X117849122Y-88590798D01*
X117852997Y-88575329D01*
X117858370Y-88560314D01*
X117865188Y-88545898D01*
X117873386Y-88532220D01*
X117882886Y-88519411D01*
X117893595Y-88507595D01*
X117905411Y-88496886D01*
X117918220Y-88487386D01*
X117931898Y-88479188D01*
X117946314Y-88472370D01*
X117961329Y-88466997D01*
X117976798Y-88463122D01*
X117992572Y-88460782D01*
X118008500Y-88460000D01*
X118908500Y-88460000D01*
X118924428Y-88460782D01*
X118924428Y-88460782D01*
G37*
D32*
X118458500Y-88785000D03*
D14*
G36*
X118924428Y-88960782D02*
X118940202Y-88963122D01*
X118955671Y-88966997D01*
X118970686Y-88972370D01*
X118985102Y-88979188D01*
X118998780Y-88987386D01*
X119011589Y-88996886D01*
X119023405Y-89007595D01*
X119034114Y-89019411D01*
X119043614Y-89032220D01*
X119051812Y-89045898D01*
X119058630Y-89060314D01*
X119064003Y-89075329D01*
X119067878Y-89090798D01*
X119070218Y-89106572D01*
X119071000Y-89122500D01*
X119071000Y-89447500D01*
X119070218Y-89463428D01*
X119067878Y-89479202D01*
X119064003Y-89494671D01*
X119058630Y-89509686D01*
X119051812Y-89524102D01*
X119043614Y-89537780D01*
X119034114Y-89550589D01*
X119023405Y-89562405D01*
X119011589Y-89573114D01*
X118998780Y-89582614D01*
X118985102Y-89590812D01*
X118970686Y-89597630D01*
X118955671Y-89603003D01*
X118940202Y-89606878D01*
X118924428Y-89609218D01*
X118908500Y-89610000D01*
X118008500Y-89610000D01*
X117992572Y-89609218D01*
X117976798Y-89606878D01*
X117961329Y-89603003D01*
X117946314Y-89597630D01*
X117931898Y-89590812D01*
X117918220Y-89582614D01*
X117905411Y-89573114D01*
X117893595Y-89562405D01*
X117882886Y-89550589D01*
X117873386Y-89537780D01*
X117865188Y-89524102D01*
X117858370Y-89509686D01*
X117852997Y-89494671D01*
X117849122Y-89479202D01*
X117846782Y-89463428D01*
X117846000Y-89447500D01*
X117846000Y-89122500D01*
X117846782Y-89106572D01*
X117849122Y-89090798D01*
X117852997Y-89075329D01*
X117858370Y-89060314D01*
X117865188Y-89045898D01*
X117873386Y-89032220D01*
X117882886Y-89019411D01*
X117893595Y-89007595D01*
X117905411Y-88996886D01*
X117918220Y-88987386D01*
X117931898Y-88979188D01*
X117946314Y-88972370D01*
X117961329Y-88966997D01*
X117976798Y-88963122D01*
X117992572Y-88960782D01*
X118008500Y-88960000D01*
X118908500Y-88960000D01*
X118924428Y-88960782D01*
X118924428Y-88960782D01*
G37*
D32*
X118458500Y-89285000D03*
D14*
G36*
X118924428Y-89460782D02*
X118940202Y-89463122D01*
X118955671Y-89466997D01*
X118970686Y-89472370D01*
X118985102Y-89479188D01*
X118998780Y-89487386D01*
X119011589Y-89496886D01*
X119023405Y-89507595D01*
X119034114Y-89519411D01*
X119043614Y-89532220D01*
X119051812Y-89545898D01*
X119058630Y-89560314D01*
X119064003Y-89575329D01*
X119067878Y-89590798D01*
X119070218Y-89606572D01*
X119071000Y-89622500D01*
X119071000Y-89947500D01*
X119070218Y-89963428D01*
X119067878Y-89979202D01*
X119064003Y-89994671D01*
X119058630Y-90009686D01*
X119051812Y-90024102D01*
X119043614Y-90037780D01*
X119034114Y-90050589D01*
X119023405Y-90062405D01*
X119011589Y-90073114D01*
X118998780Y-90082614D01*
X118985102Y-90090812D01*
X118970686Y-90097630D01*
X118955671Y-90103003D01*
X118940202Y-90106878D01*
X118924428Y-90109218D01*
X118908500Y-90110000D01*
X118008500Y-90110000D01*
X117992572Y-90109218D01*
X117976798Y-90106878D01*
X117961329Y-90103003D01*
X117946314Y-90097630D01*
X117931898Y-90090812D01*
X117918220Y-90082614D01*
X117905411Y-90073114D01*
X117893595Y-90062405D01*
X117882886Y-90050589D01*
X117873386Y-90037780D01*
X117865188Y-90024102D01*
X117858370Y-90009686D01*
X117852997Y-89994671D01*
X117849122Y-89979202D01*
X117846782Y-89963428D01*
X117846000Y-89947500D01*
X117846000Y-89622500D01*
X117846782Y-89606572D01*
X117849122Y-89590798D01*
X117852997Y-89575329D01*
X117858370Y-89560314D01*
X117865188Y-89545898D01*
X117873386Y-89532220D01*
X117882886Y-89519411D01*
X117893595Y-89507595D01*
X117905411Y-89496886D01*
X117918220Y-89487386D01*
X117931898Y-89479188D01*
X117946314Y-89472370D01*
X117961329Y-89466997D01*
X117976798Y-89463122D01*
X117992572Y-89460782D01*
X118008500Y-89460000D01*
X118908500Y-89460000D01*
X118924428Y-89460782D01*
X118924428Y-89460782D01*
G37*
D32*
X118458500Y-89785000D03*
D14*
G36*
X118924428Y-89960782D02*
X118940202Y-89963122D01*
X118955671Y-89966997D01*
X118970686Y-89972370D01*
X118985102Y-89979188D01*
X118998780Y-89987386D01*
X119011589Y-89996886D01*
X119023405Y-90007595D01*
X119034114Y-90019411D01*
X119043614Y-90032220D01*
X119051812Y-90045898D01*
X119058630Y-90060314D01*
X119064003Y-90075329D01*
X119067878Y-90090798D01*
X119070218Y-90106572D01*
X119071000Y-90122500D01*
X119071000Y-90447500D01*
X119070218Y-90463428D01*
X119067878Y-90479202D01*
X119064003Y-90494671D01*
X119058630Y-90509686D01*
X119051812Y-90524102D01*
X119043614Y-90537780D01*
X119034114Y-90550589D01*
X119023405Y-90562405D01*
X119011589Y-90573114D01*
X118998780Y-90582614D01*
X118985102Y-90590812D01*
X118970686Y-90597630D01*
X118955671Y-90603003D01*
X118940202Y-90606878D01*
X118924428Y-90609218D01*
X118908500Y-90610000D01*
X118008500Y-90610000D01*
X117992572Y-90609218D01*
X117976798Y-90606878D01*
X117961329Y-90603003D01*
X117946314Y-90597630D01*
X117931898Y-90590812D01*
X117918220Y-90582614D01*
X117905411Y-90573114D01*
X117893595Y-90562405D01*
X117882886Y-90550589D01*
X117873386Y-90537780D01*
X117865188Y-90524102D01*
X117858370Y-90509686D01*
X117852997Y-90494671D01*
X117849122Y-90479202D01*
X117846782Y-90463428D01*
X117846000Y-90447500D01*
X117846000Y-90122500D01*
X117846782Y-90106572D01*
X117849122Y-90090798D01*
X117852997Y-90075329D01*
X117858370Y-90060314D01*
X117865188Y-90045898D01*
X117873386Y-90032220D01*
X117882886Y-90019411D01*
X117893595Y-90007595D01*
X117905411Y-89996886D01*
X117918220Y-89987386D01*
X117931898Y-89979188D01*
X117946314Y-89972370D01*
X117961329Y-89966997D01*
X117976798Y-89963122D01*
X117992572Y-89960782D01*
X118008500Y-89960000D01*
X118908500Y-89960000D01*
X118924428Y-89960782D01*
X118924428Y-89960782D01*
G37*
D32*
X118458500Y-90285000D03*
D14*
G36*
X118924428Y-90460782D02*
X118940202Y-90463122D01*
X118955671Y-90466997D01*
X118970686Y-90472370D01*
X118985102Y-90479188D01*
X118998780Y-90487386D01*
X119011589Y-90496886D01*
X119023405Y-90507595D01*
X119034114Y-90519411D01*
X119043614Y-90532220D01*
X119051812Y-90545898D01*
X119058630Y-90560314D01*
X119064003Y-90575329D01*
X119067878Y-90590798D01*
X119070218Y-90606572D01*
X119071000Y-90622500D01*
X119071000Y-90947500D01*
X119070218Y-90963428D01*
X119067878Y-90979202D01*
X119064003Y-90994671D01*
X119058630Y-91009686D01*
X119051812Y-91024102D01*
X119043614Y-91037780D01*
X119034114Y-91050589D01*
X119023405Y-91062405D01*
X119011589Y-91073114D01*
X118998780Y-91082614D01*
X118985102Y-91090812D01*
X118970686Y-91097630D01*
X118955671Y-91103003D01*
X118940202Y-91106878D01*
X118924428Y-91109218D01*
X118908500Y-91110000D01*
X118008500Y-91110000D01*
X117992572Y-91109218D01*
X117976798Y-91106878D01*
X117961329Y-91103003D01*
X117946314Y-91097630D01*
X117931898Y-91090812D01*
X117918220Y-91082614D01*
X117905411Y-91073114D01*
X117893595Y-91062405D01*
X117882886Y-91050589D01*
X117873386Y-91037780D01*
X117865188Y-91024102D01*
X117858370Y-91009686D01*
X117852997Y-90994671D01*
X117849122Y-90979202D01*
X117846782Y-90963428D01*
X117846000Y-90947500D01*
X117846000Y-90622500D01*
X117846782Y-90606572D01*
X117849122Y-90590798D01*
X117852997Y-90575329D01*
X117858370Y-90560314D01*
X117865188Y-90545898D01*
X117873386Y-90532220D01*
X117882886Y-90519411D01*
X117893595Y-90507595D01*
X117905411Y-90496886D01*
X117918220Y-90487386D01*
X117931898Y-90479188D01*
X117946314Y-90472370D01*
X117961329Y-90466997D01*
X117976798Y-90463122D01*
X117992572Y-90460782D01*
X118008500Y-90460000D01*
X118908500Y-90460000D01*
X118924428Y-90460782D01*
X118924428Y-90460782D01*
G37*
D32*
X118458500Y-90785000D03*
D14*
G36*
X119324428Y-90860782D02*
X119340202Y-90863122D01*
X119355671Y-90866997D01*
X119370686Y-90872370D01*
X119385102Y-90879188D01*
X119398780Y-90887386D01*
X119411589Y-90896886D01*
X119423405Y-90907595D01*
X119434114Y-90919411D01*
X119443614Y-90932220D01*
X119451812Y-90945898D01*
X119458630Y-90960314D01*
X119464003Y-90975329D01*
X119467878Y-90990798D01*
X119470218Y-91006572D01*
X119471000Y-91022500D01*
X119471000Y-91922500D01*
X119470218Y-91938428D01*
X119467878Y-91954202D01*
X119464003Y-91969671D01*
X119458630Y-91984686D01*
X119451812Y-91999102D01*
X119443614Y-92012780D01*
X119434114Y-92025589D01*
X119423405Y-92037405D01*
X119411589Y-92048114D01*
X119398780Y-92057614D01*
X119385102Y-92065812D01*
X119370686Y-92072630D01*
X119355671Y-92078003D01*
X119340202Y-92081878D01*
X119324428Y-92084218D01*
X119308500Y-92085000D01*
X118983500Y-92085000D01*
X118967572Y-92084218D01*
X118951798Y-92081878D01*
X118936329Y-92078003D01*
X118921314Y-92072630D01*
X118906898Y-92065812D01*
X118893220Y-92057614D01*
X118880411Y-92048114D01*
X118868595Y-92037405D01*
X118857886Y-92025589D01*
X118848386Y-92012780D01*
X118840188Y-91999102D01*
X118833370Y-91984686D01*
X118827997Y-91969671D01*
X118824122Y-91954202D01*
X118821782Y-91938428D01*
X118821000Y-91922500D01*
X118821000Y-91022500D01*
X118821782Y-91006572D01*
X118824122Y-90990798D01*
X118827997Y-90975329D01*
X118833370Y-90960314D01*
X118840188Y-90945898D01*
X118848386Y-90932220D01*
X118857886Y-90919411D01*
X118868595Y-90907595D01*
X118880411Y-90896886D01*
X118893220Y-90887386D01*
X118906898Y-90879188D01*
X118921314Y-90872370D01*
X118936329Y-90866997D01*
X118951798Y-90863122D01*
X118967572Y-90860782D01*
X118983500Y-90860000D01*
X119308500Y-90860000D01*
X119324428Y-90860782D01*
X119324428Y-90860782D01*
G37*
D32*
X119146000Y-91472500D03*
D14*
G36*
X119824428Y-90860782D02*
X119840202Y-90863122D01*
X119855671Y-90866997D01*
X119870686Y-90872370D01*
X119885102Y-90879188D01*
X119898780Y-90887386D01*
X119911589Y-90896886D01*
X119923405Y-90907595D01*
X119934114Y-90919411D01*
X119943614Y-90932220D01*
X119951812Y-90945898D01*
X119958630Y-90960314D01*
X119964003Y-90975329D01*
X119967878Y-90990798D01*
X119970218Y-91006572D01*
X119971000Y-91022500D01*
X119971000Y-91922500D01*
X119970218Y-91938428D01*
X119967878Y-91954202D01*
X119964003Y-91969671D01*
X119958630Y-91984686D01*
X119951812Y-91999102D01*
X119943614Y-92012780D01*
X119934114Y-92025589D01*
X119923405Y-92037405D01*
X119911589Y-92048114D01*
X119898780Y-92057614D01*
X119885102Y-92065812D01*
X119870686Y-92072630D01*
X119855671Y-92078003D01*
X119840202Y-92081878D01*
X119824428Y-92084218D01*
X119808500Y-92085000D01*
X119483500Y-92085000D01*
X119467572Y-92084218D01*
X119451798Y-92081878D01*
X119436329Y-92078003D01*
X119421314Y-92072630D01*
X119406898Y-92065812D01*
X119393220Y-92057614D01*
X119380411Y-92048114D01*
X119368595Y-92037405D01*
X119357886Y-92025589D01*
X119348386Y-92012780D01*
X119340188Y-91999102D01*
X119333370Y-91984686D01*
X119327997Y-91969671D01*
X119324122Y-91954202D01*
X119321782Y-91938428D01*
X119321000Y-91922500D01*
X119321000Y-91022500D01*
X119321782Y-91006572D01*
X119324122Y-90990798D01*
X119327997Y-90975329D01*
X119333370Y-90960314D01*
X119340188Y-90945898D01*
X119348386Y-90932220D01*
X119357886Y-90919411D01*
X119368595Y-90907595D01*
X119380411Y-90896886D01*
X119393220Y-90887386D01*
X119406898Y-90879188D01*
X119421314Y-90872370D01*
X119436329Y-90866997D01*
X119451798Y-90863122D01*
X119467572Y-90860782D01*
X119483500Y-90860000D01*
X119808500Y-90860000D01*
X119824428Y-90860782D01*
X119824428Y-90860782D01*
G37*
D32*
X119646000Y-91472500D03*
D14*
G36*
X120324428Y-90860782D02*
X120340202Y-90863122D01*
X120355671Y-90866997D01*
X120370686Y-90872370D01*
X120385102Y-90879188D01*
X120398780Y-90887386D01*
X120411589Y-90896886D01*
X120423405Y-90907595D01*
X120434114Y-90919411D01*
X120443614Y-90932220D01*
X120451812Y-90945898D01*
X120458630Y-90960314D01*
X120464003Y-90975329D01*
X120467878Y-90990798D01*
X120470218Y-91006572D01*
X120471000Y-91022500D01*
X120471000Y-91922500D01*
X120470218Y-91938428D01*
X120467878Y-91954202D01*
X120464003Y-91969671D01*
X120458630Y-91984686D01*
X120451812Y-91999102D01*
X120443614Y-92012780D01*
X120434114Y-92025589D01*
X120423405Y-92037405D01*
X120411589Y-92048114D01*
X120398780Y-92057614D01*
X120385102Y-92065812D01*
X120370686Y-92072630D01*
X120355671Y-92078003D01*
X120340202Y-92081878D01*
X120324428Y-92084218D01*
X120308500Y-92085000D01*
X119983500Y-92085000D01*
X119967572Y-92084218D01*
X119951798Y-92081878D01*
X119936329Y-92078003D01*
X119921314Y-92072630D01*
X119906898Y-92065812D01*
X119893220Y-92057614D01*
X119880411Y-92048114D01*
X119868595Y-92037405D01*
X119857886Y-92025589D01*
X119848386Y-92012780D01*
X119840188Y-91999102D01*
X119833370Y-91984686D01*
X119827997Y-91969671D01*
X119824122Y-91954202D01*
X119821782Y-91938428D01*
X119821000Y-91922500D01*
X119821000Y-91022500D01*
X119821782Y-91006572D01*
X119824122Y-90990798D01*
X119827997Y-90975329D01*
X119833370Y-90960314D01*
X119840188Y-90945898D01*
X119848386Y-90932220D01*
X119857886Y-90919411D01*
X119868595Y-90907595D01*
X119880411Y-90896886D01*
X119893220Y-90887386D01*
X119906898Y-90879188D01*
X119921314Y-90872370D01*
X119936329Y-90866997D01*
X119951798Y-90863122D01*
X119967572Y-90860782D01*
X119983500Y-90860000D01*
X120308500Y-90860000D01*
X120324428Y-90860782D01*
X120324428Y-90860782D01*
G37*
D32*
X120146000Y-91472500D03*
D14*
G36*
X120824428Y-90860782D02*
X120840202Y-90863122D01*
X120855671Y-90866997D01*
X120870686Y-90872370D01*
X120885102Y-90879188D01*
X120898780Y-90887386D01*
X120911589Y-90896886D01*
X120923405Y-90907595D01*
X120934114Y-90919411D01*
X120943614Y-90932220D01*
X120951812Y-90945898D01*
X120958630Y-90960314D01*
X120964003Y-90975329D01*
X120967878Y-90990798D01*
X120970218Y-91006572D01*
X120971000Y-91022500D01*
X120971000Y-91922500D01*
X120970218Y-91938428D01*
X120967878Y-91954202D01*
X120964003Y-91969671D01*
X120958630Y-91984686D01*
X120951812Y-91999102D01*
X120943614Y-92012780D01*
X120934114Y-92025589D01*
X120923405Y-92037405D01*
X120911589Y-92048114D01*
X120898780Y-92057614D01*
X120885102Y-92065812D01*
X120870686Y-92072630D01*
X120855671Y-92078003D01*
X120840202Y-92081878D01*
X120824428Y-92084218D01*
X120808500Y-92085000D01*
X120483500Y-92085000D01*
X120467572Y-92084218D01*
X120451798Y-92081878D01*
X120436329Y-92078003D01*
X120421314Y-92072630D01*
X120406898Y-92065812D01*
X120393220Y-92057614D01*
X120380411Y-92048114D01*
X120368595Y-92037405D01*
X120357886Y-92025589D01*
X120348386Y-92012780D01*
X120340188Y-91999102D01*
X120333370Y-91984686D01*
X120327997Y-91969671D01*
X120324122Y-91954202D01*
X120321782Y-91938428D01*
X120321000Y-91922500D01*
X120321000Y-91022500D01*
X120321782Y-91006572D01*
X120324122Y-90990798D01*
X120327997Y-90975329D01*
X120333370Y-90960314D01*
X120340188Y-90945898D01*
X120348386Y-90932220D01*
X120357886Y-90919411D01*
X120368595Y-90907595D01*
X120380411Y-90896886D01*
X120393220Y-90887386D01*
X120406898Y-90879188D01*
X120421314Y-90872370D01*
X120436329Y-90866997D01*
X120451798Y-90863122D01*
X120467572Y-90860782D01*
X120483500Y-90860000D01*
X120808500Y-90860000D01*
X120824428Y-90860782D01*
X120824428Y-90860782D01*
G37*
D32*
X120646000Y-91472500D03*
D14*
G36*
X121324428Y-90860782D02*
X121340202Y-90863122D01*
X121355671Y-90866997D01*
X121370686Y-90872370D01*
X121385102Y-90879188D01*
X121398780Y-90887386D01*
X121411589Y-90896886D01*
X121423405Y-90907595D01*
X121434114Y-90919411D01*
X121443614Y-90932220D01*
X121451812Y-90945898D01*
X121458630Y-90960314D01*
X121464003Y-90975329D01*
X121467878Y-90990798D01*
X121470218Y-91006572D01*
X121471000Y-91022500D01*
X121471000Y-91922500D01*
X121470218Y-91938428D01*
X121467878Y-91954202D01*
X121464003Y-91969671D01*
X121458630Y-91984686D01*
X121451812Y-91999102D01*
X121443614Y-92012780D01*
X121434114Y-92025589D01*
X121423405Y-92037405D01*
X121411589Y-92048114D01*
X121398780Y-92057614D01*
X121385102Y-92065812D01*
X121370686Y-92072630D01*
X121355671Y-92078003D01*
X121340202Y-92081878D01*
X121324428Y-92084218D01*
X121308500Y-92085000D01*
X120983500Y-92085000D01*
X120967572Y-92084218D01*
X120951798Y-92081878D01*
X120936329Y-92078003D01*
X120921314Y-92072630D01*
X120906898Y-92065812D01*
X120893220Y-92057614D01*
X120880411Y-92048114D01*
X120868595Y-92037405D01*
X120857886Y-92025589D01*
X120848386Y-92012780D01*
X120840188Y-91999102D01*
X120833370Y-91984686D01*
X120827997Y-91969671D01*
X120824122Y-91954202D01*
X120821782Y-91938428D01*
X120821000Y-91922500D01*
X120821000Y-91022500D01*
X120821782Y-91006572D01*
X120824122Y-90990798D01*
X120827997Y-90975329D01*
X120833370Y-90960314D01*
X120840188Y-90945898D01*
X120848386Y-90932220D01*
X120857886Y-90919411D01*
X120868595Y-90907595D01*
X120880411Y-90896886D01*
X120893220Y-90887386D01*
X120906898Y-90879188D01*
X120921314Y-90872370D01*
X120936329Y-90866997D01*
X120951798Y-90863122D01*
X120967572Y-90860782D01*
X120983500Y-90860000D01*
X121308500Y-90860000D01*
X121324428Y-90860782D01*
X121324428Y-90860782D01*
G37*
D32*
X121146000Y-91472500D03*
D14*
G36*
X121824428Y-90860782D02*
X121840202Y-90863122D01*
X121855671Y-90866997D01*
X121870686Y-90872370D01*
X121885102Y-90879188D01*
X121898780Y-90887386D01*
X121911589Y-90896886D01*
X121923405Y-90907595D01*
X121934114Y-90919411D01*
X121943614Y-90932220D01*
X121951812Y-90945898D01*
X121958630Y-90960314D01*
X121964003Y-90975329D01*
X121967878Y-90990798D01*
X121970218Y-91006572D01*
X121971000Y-91022500D01*
X121971000Y-91922500D01*
X121970218Y-91938428D01*
X121967878Y-91954202D01*
X121964003Y-91969671D01*
X121958630Y-91984686D01*
X121951812Y-91999102D01*
X121943614Y-92012780D01*
X121934114Y-92025589D01*
X121923405Y-92037405D01*
X121911589Y-92048114D01*
X121898780Y-92057614D01*
X121885102Y-92065812D01*
X121870686Y-92072630D01*
X121855671Y-92078003D01*
X121840202Y-92081878D01*
X121824428Y-92084218D01*
X121808500Y-92085000D01*
X121483500Y-92085000D01*
X121467572Y-92084218D01*
X121451798Y-92081878D01*
X121436329Y-92078003D01*
X121421314Y-92072630D01*
X121406898Y-92065812D01*
X121393220Y-92057614D01*
X121380411Y-92048114D01*
X121368595Y-92037405D01*
X121357886Y-92025589D01*
X121348386Y-92012780D01*
X121340188Y-91999102D01*
X121333370Y-91984686D01*
X121327997Y-91969671D01*
X121324122Y-91954202D01*
X121321782Y-91938428D01*
X121321000Y-91922500D01*
X121321000Y-91022500D01*
X121321782Y-91006572D01*
X121324122Y-90990798D01*
X121327997Y-90975329D01*
X121333370Y-90960314D01*
X121340188Y-90945898D01*
X121348386Y-90932220D01*
X121357886Y-90919411D01*
X121368595Y-90907595D01*
X121380411Y-90896886D01*
X121393220Y-90887386D01*
X121406898Y-90879188D01*
X121421314Y-90872370D01*
X121436329Y-90866997D01*
X121451798Y-90863122D01*
X121467572Y-90860782D01*
X121483500Y-90860000D01*
X121808500Y-90860000D01*
X121824428Y-90860782D01*
X121824428Y-90860782D01*
G37*
D32*
X121646000Y-91472500D03*
D14*
G36*
X122799428Y-90460782D02*
X122815202Y-90463122D01*
X122830671Y-90466997D01*
X122845686Y-90472370D01*
X122860102Y-90479188D01*
X122873780Y-90487386D01*
X122886589Y-90496886D01*
X122898405Y-90507595D01*
X122909114Y-90519411D01*
X122918614Y-90532220D01*
X122926812Y-90545898D01*
X122933630Y-90560314D01*
X122939003Y-90575329D01*
X122942878Y-90590798D01*
X122945218Y-90606572D01*
X122946000Y-90622500D01*
X122946000Y-90947500D01*
X122945218Y-90963428D01*
X122942878Y-90979202D01*
X122939003Y-90994671D01*
X122933630Y-91009686D01*
X122926812Y-91024102D01*
X122918614Y-91037780D01*
X122909114Y-91050589D01*
X122898405Y-91062405D01*
X122886589Y-91073114D01*
X122873780Y-91082614D01*
X122860102Y-91090812D01*
X122845686Y-91097630D01*
X122830671Y-91103003D01*
X122815202Y-91106878D01*
X122799428Y-91109218D01*
X122783500Y-91110000D01*
X121883500Y-91110000D01*
X121867572Y-91109218D01*
X121851798Y-91106878D01*
X121836329Y-91103003D01*
X121821314Y-91097630D01*
X121806898Y-91090812D01*
X121793220Y-91082614D01*
X121780411Y-91073114D01*
X121768595Y-91062405D01*
X121757886Y-91050589D01*
X121748386Y-91037780D01*
X121740188Y-91024102D01*
X121733370Y-91009686D01*
X121727997Y-90994671D01*
X121724122Y-90979202D01*
X121721782Y-90963428D01*
X121721000Y-90947500D01*
X121721000Y-90622500D01*
X121721782Y-90606572D01*
X121724122Y-90590798D01*
X121727997Y-90575329D01*
X121733370Y-90560314D01*
X121740188Y-90545898D01*
X121748386Y-90532220D01*
X121757886Y-90519411D01*
X121768595Y-90507595D01*
X121780411Y-90496886D01*
X121793220Y-90487386D01*
X121806898Y-90479188D01*
X121821314Y-90472370D01*
X121836329Y-90466997D01*
X121851798Y-90463122D01*
X121867572Y-90460782D01*
X121883500Y-90460000D01*
X122783500Y-90460000D01*
X122799428Y-90460782D01*
X122799428Y-90460782D01*
G37*
D32*
X122333500Y-90785000D03*
D14*
G36*
X122799428Y-89960782D02*
X122815202Y-89963122D01*
X122830671Y-89966997D01*
X122845686Y-89972370D01*
X122860102Y-89979188D01*
X122873780Y-89987386D01*
X122886589Y-89996886D01*
X122898405Y-90007595D01*
X122909114Y-90019411D01*
X122918614Y-90032220D01*
X122926812Y-90045898D01*
X122933630Y-90060314D01*
X122939003Y-90075329D01*
X122942878Y-90090798D01*
X122945218Y-90106572D01*
X122946000Y-90122500D01*
X122946000Y-90447500D01*
X122945218Y-90463428D01*
X122942878Y-90479202D01*
X122939003Y-90494671D01*
X122933630Y-90509686D01*
X122926812Y-90524102D01*
X122918614Y-90537780D01*
X122909114Y-90550589D01*
X122898405Y-90562405D01*
X122886589Y-90573114D01*
X122873780Y-90582614D01*
X122860102Y-90590812D01*
X122845686Y-90597630D01*
X122830671Y-90603003D01*
X122815202Y-90606878D01*
X122799428Y-90609218D01*
X122783500Y-90610000D01*
X121883500Y-90610000D01*
X121867572Y-90609218D01*
X121851798Y-90606878D01*
X121836329Y-90603003D01*
X121821314Y-90597630D01*
X121806898Y-90590812D01*
X121793220Y-90582614D01*
X121780411Y-90573114D01*
X121768595Y-90562405D01*
X121757886Y-90550589D01*
X121748386Y-90537780D01*
X121740188Y-90524102D01*
X121733370Y-90509686D01*
X121727997Y-90494671D01*
X121724122Y-90479202D01*
X121721782Y-90463428D01*
X121721000Y-90447500D01*
X121721000Y-90122500D01*
X121721782Y-90106572D01*
X121724122Y-90090798D01*
X121727997Y-90075329D01*
X121733370Y-90060314D01*
X121740188Y-90045898D01*
X121748386Y-90032220D01*
X121757886Y-90019411D01*
X121768595Y-90007595D01*
X121780411Y-89996886D01*
X121793220Y-89987386D01*
X121806898Y-89979188D01*
X121821314Y-89972370D01*
X121836329Y-89966997D01*
X121851798Y-89963122D01*
X121867572Y-89960782D01*
X121883500Y-89960000D01*
X122783500Y-89960000D01*
X122799428Y-89960782D01*
X122799428Y-89960782D01*
G37*
D32*
X122333500Y-90285000D03*
D14*
G36*
X122799428Y-89460782D02*
X122815202Y-89463122D01*
X122830671Y-89466997D01*
X122845686Y-89472370D01*
X122860102Y-89479188D01*
X122873780Y-89487386D01*
X122886589Y-89496886D01*
X122898405Y-89507595D01*
X122909114Y-89519411D01*
X122918614Y-89532220D01*
X122926812Y-89545898D01*
X122933630Y-89560314D01*
X122939003Y-89575329D01*
X122942878Y-89590798D01*
X122945218Y-89606572D01*
X122946000Y-89622500D01*
X122946000Y-89947500D01*
X122945218Y-89963428D01*
X122942878Y-89979202D01*
X122939003Y-89994671D01*
X122933630Y-90009686D01*
X122926812Y-90024102D01*
X122918614Y-90037780D01*
X122909114Y-90050589D01*
X122898405Y-90062405D01*
X122886589Y-90073114D01*
X122873780Y-90082614D01*
X122860102Y-90090812D01*
X122845686Y-90097630D01*
X122830671Y-90103003D01*
X122815202Y-90106878D01*
X122799428Y-90109218D01*
X122783500Y-90110000D01*
X121883500Y-90110000D01*
X121867572Y-90109218D01*
X121851798Y-90106878D01*
X121836329Y-90103003D01*
X121821314Y-90097630D01*
X121806898Y-90090812D01*
X121793220Y-90082614D01*
X121780411Y-90073114D01*
X121768595Y-90062405D01*
X121757886Y-90050589D01*
X121748386Y-90037780D01*
X121740188Y-90024102D01*
X121733370Y-90009686D01*
X121727997Y-89994671D01*
X121724122Y-89979202D01*
X121721782Y-89963428D01*
X121721000Y-89947500D01*
X121721000Y-89622500D01*
X121721782Y-89606572D01*
X121724122Y-89590798D01*
X121727997Y-89575329D01*
X121733370Y-89560314D01*
X121740188Y-89545898D01*
X121748386Y-89532220D01*
X121757886Y-89519411D01*
X121768595Y-89507595D01*
X121780411Y-89496886D01*
X121793220Y-89487386D01*
X121806898Y-89479188D01*
X121821314Y-89472370D01*
X121836329Y-89466997D01*
X121851798Y-89463122D01*
X121867572Y-89460782D01*
X121883500Y-89460000D01*
X122783500Y-89460000D01*
X122799428Y-89460782D01*
X122799428Y-89460782D01*
G37*
D32*
X122333500Y-89785000D03*
D14*
G36*
X122799428Y-88960782D02*
X122815202Y-88963122D01*
X122830671Y-88966997D01*
X122845686Y-88972370D01*
X122860102Y-88979188D01*
X122873780Y-88987386D01*
X122886589Y-88996886D01*
X122898405Y-89007595D01*
X122909114Y-89019411D01*
X122918614Y-89032220D01*
X122926812Y-89045898D01*
X122933630Y-89060314D01*
X122939003Y-89075329D01*
X122942878Y-89090798D01*
X122945218Y-89106572D01*
X122946000Y-89122500D01*
X122946000Y-89447500D01*
X122945218Y-89463428D01*
X122942878Y-89479202D01*
X122939003Y-89494671D01*
X122933630Y-89509686D01*
X122926812Y-89524102D01*
X122918614Y-89537780D01*
X122909114Y-89550589D01*
X122898405Y-89562405D01*
X122886589Y-89573114D01*
X122873780Y-89582614D01*
X122860102Y-89590812D01*
X122845686Y-89597630D01*
X122830671Y-89603003D01*
X122815202Y-89606878D01*
X122799428Y-89609218D01*
X122783500Y-89610000D01*
X121883500Y-89610000D01*
X121867572Y-89609218D01*
X121851798Y-89606878D01*
X121836329Y-89603003D01*
X121821314Y-89597630D01*
X121806898Y-89590812D01*
X121793220Y-89582614D01*
X121780411Y-89573114D01*
X121768595Y-89562405D01*
X121757886Y-89550589D01*
X121748386Y-89537780D01*
X121740188Y-89524102D01*
X121733370Y-89509686D01*
X121727997Y-89494671D01*
X121724122Y-89479202D01*
X121721782Y-89463428D01*
X121721000Y-89447500D01*
X121721000Y-89122500D01*
X121721782Y-89106572D01*
X121724122Y-89090798D01*
X121727997Y-89075329D01*
X121733370Y-89060314D01*
X121740188Y-89045898D01*
X121748386Y-89032220D01*
X121757886Y-89019411D01*
X121768595Y-89007595D01*
X121780411Y-88996886D01*
X121793220Y-88987386D01*
X121806898Y-88979188D01*
X121821314Y-88972370D01*
X121836329Y-88966997D01*
X121851798Y-88963122D01*
X121867572Y-88960782D01*
X121883500Y-88960000D01*
X122783500Y-88960000D01*
X122799428Y-88960782D01*
X122799428Y-88960782D01*
G37*
D32*
X122333500Y-89285000D03*
D14*
G36*
X122799428Y-88460782D02*
X122815202Y-88463122D01*
X122830671Y-88466997D01*
X122845686Y-88472370D01*
X122860102Y-88479188D01*
X122873780Y-88487386D01*
X122886589Y-88496886D01*
X122898405Y-88507595D01*
X122909114Y-88519411D01*
X122918614Y-88532220D01*
X122926812Y-88545898D01*
X122933630Y-88560314D01*
X122939003Y-88575329D01*
X122942878Y-88590798D01*
X122945218Y-88606572D01*
X122946000Y-88622500D01*
X122946000Y-88947500D01*
X122945218Y-88963428D01*
X122942878Y-88979202D01*
X122939003Y-88994671D01*
X122933630Y-89009686D01*
X122926812Y-89024102D01*
X122918614Y-89037780D01*
X122909114Y-89050589D01*
X122898405Y-89062405D01*
X122886589Y-89073114D01*
X122873780Y-89082614D01*
X122860102Y-89090812D01*
X122845686Y-89097630D01*
X122830671Y-89103003D01*
X122815202Y-89106878D01*
X122799428Y-89109218D01*
X122783500Y-89110000D01*
X121883500Y-89110000D01*
X121867572Y-89109218D01*
X121851798Y-89106878D01*
X121836329Y-89103003D01*
X121821314Y-89097630D01*
X121806898Y-89090812D01*
X121793220Y-89082614D01*
X121780411Y-89073114D01*
X121768595Y-89062405D01*
X121757886Y-89050589D01*
X121748386Y-89037780D01*
X121740188Y-89024102D01*
X121733370Y-89009686D01*
X121727997Y-88994671D01*
X121724122Y-88979202D01*
X121721782Y-88963428D01*
X121721000Y-88947500D01*
X121721000Y-88622500D01*
X121721782Y-88606572D01*
X121724122Y-88590798D01*
X121727997Y-88575329D01*
X121733370Y-88560314D01*
X121740188Y-88545898D01*
X121748386Y-88532220D01*
X121757886Y-88519411D01*
X121768595Y-88507595D01*
X121780411Y-88496886D01*
X121793220Y-88487386D01*
X121806898Y-88479188D01*
X121821314Y-88472370D01*
X121836329Y-88466997D01*
X121851798Y-88463122D01*
X121867572Y-88460782D01*
X121883500Y-88460000D01*
X122783500Y-88460000D01*
X122799428Y-88460782D01*
X122799428Y-88460782D01*
G37*
D32*
X122333500Y-88785000D03*
D14*
G36*
X122799428Y-87960782D02*
X122815202Y-87963122D01*
X122830671Y-87966997D01*
X122845686Y-87972370D01*
X122860102Y-87979188D01*
X122873780Y-87987386D01*
X122886589Y-87996886D01*
X122898405Y-88007595D01*
X122909114Y-88019411D01*
X122918614Y-88032220D01*
X122926812Y-88045898D01*
X122933630Y-88060314D01*
X122939003Y-88075329D01*
X122942878Y-88090798D01*
X122945218Y-88106572D01*
X122946000Y-88122500D01*
X122946000Y-88447500D01*
X122945218Y-88463428D01*
X122942878Y-88479202D01*
X122939003Y-88494671D01*
X122933630Y-88509686D01*
X122926812Y-88524102D01*
X122918614Y-88537780D01*
X122909114Y-88550589D01*
X122898405Y-88562405D01*
X122886589Y-88573114D01*
X122873780Y-88582614D01*
X122860102Y-88590812D01*
X122845686Y-88597630D01*
X122830671Y-88603003D01*
X122815202Y-88606878D01*
X122799428Y-88609218D01*
X122783500Y-88610000D01*
X121883500Y-88610000D01*
X121867572Y-88609218D01*
X121851798Y-88606878D01*
X121836329Y-88603003D01*
X121821314Y-88597630D01*
X121806898Y-88590812D01*
X121793220Y-88582614D01*
X121780411Y-88573114D01*
X121768595Y-88562405D01*
X121757886Y-88550589D01*
X121748386Y-88537780D01*
X121740188Y-88524102D01*
X121733370Y-88509686D01*
X121727997Y-88494671D01*
X121724122Y-88479202D01*
X121721782Y-88463428D01*
X121721000Y-88447500D01*
X121721000Y-88122500D01*
X121721782Y-88106572D01*
X121724122Y-88090798D01*
X121727997Y-88075329D01*
X121733370Y-88060314D01*
X121740188Y-88045898D01*
X121748386Y-88032220D01*
X121757886Y-88019411D01*
X121768595Y-88007595D01*
X121780411Y-87996886D01*
X121793220Y-87987386D01*
X121806898Y-87979188D01*
X121821314Y-87972370D01*
X121836329Y-87966997D01*
X121851798Y-87963122D01*
X121867572Y-87960782D01*
X121883500Y-87960000D01*
X122783500Y-87960000D01*
X122799428Y-87960782D01*
X122799428Y-87960782D01*
G37*
D32*
X122333500Y-88285000D03*
D14*
G36*
X121824428Y-86985782D02*
X121840202Y-86988122D01*
X121855671Y-86991997D01*
X121870686Y-86997370D01*
X121885102Y-87004188D01*
X121898780Y-87012386D01*
X121911589Y-87021886D01*
X121923405Y-87032595D01*
X121934114Y-87044411D01*
X121943614Y-87057220D01*
X121951812Y-87070898D01*
X121958630Y-87085314D01*
X121964003Y-87100329D01*
X121967878Y-87115798D01*
X121970218Y-87131572D01*
X121971000Y-87147500D01*
X121971000Y-88047500D01*
X121970218Y-88063428D01*
X121967878Y-88079202D01*
X121964003Y-88094671D01*
X121958630Y-88109686D01*
X121951812Y-88124102D01*
X121943614Y-88137780D01*
X121934114Y-88150589D01*
X121923405Y-88162405D01*
X121911589Y-88173114D01*
X121898780Y-88182614D01*
X121885102Y-88190812D01*
X121870686Y-88197630D01*
X121855671Y-88203003D01*
X121840202Y-88206878D01*
X121824428Y-88209218D01*
X121808500Y-88210000D01*
X121483500Y-88210000D01*
X121467572Y-88209218D01*
X121451798Y-88206878D01*
X121436329Y-88203003D01*
X121421314Y-88197630D01*
X121406898Y-88190812D01*
X121393220Y-88182614D01*
X121380411Y-88173114D01*
X121368595Y-88162405D01*
X121357886Y-88150589D01*
X121348386Y-88137780D01*
X121340188Y-88124102D01*
X121333370Y-88109686D01*
X121327997Y-88094671D01*
X121324122Y-88079202D01*
X121321782Y-88063428D01*
X121321000Y-88047500D01*
X121321000Y-87147500D01*
X121321782Y-87131572D01*
X121324122Y-87115798D01*
X121327997Y-87100329D01*
X121333370Y-87085314D01*
X121340188Y-87070898D01*
X121348386Y-87057220D01*
X121357886Y-87044411D01*
X121368595Y-87032595D01*
X121380411Y-87021886D01*
X121393220Y-87012386D01*
X121406898Y-87004188D01*
X121421314Y-86997370D01*
X121436329Y-86991997D01*
X121451798Y-86988122D01*
X121467572Y-86985782D01*
X121483500Y-86985000D01*
X121808500Y-86985000D01*
X121824428Y-86985782D01*
X121824428Y-86985782D01*
G37*
D32*
X121646000Y-87597500D03*
D14*
G36*
X121324428Y-86985782D02*
X121340202Y-86988122D01*
X121355671Y-86991997D01*
X121370686Y-86997370D01*
X121385102Y-87004188D01*
X121398780Y-87012386D01*
X121411589Y-87021886D01*
X121423405Y-87032595D01*
X121434114Y-87044411D01*
X121443614Y-87057220D01*
X121451812Y-87070898D01*
X121458630Y-87085314D01*
X121464003Y-87100329D01*
X121467878Y-87115798D01*
X121470218Y-87131572D01*
X121471000Y-87147500D01*
X121471000Y-88047500D01*
X121470218Y-88063428D01*
X121467878Y-88079202D01*
X121464003Y-88094671D01*
X121458630Y-88109686D01*
X121451812Y-88124102D01*
X121443614Y-88137780D01*
X121434114Y-88150589D01*
X121423405Y-88162405D01*
X121411589Y-88173114D01*
X121398780Y-88182614D01*
X121385102Y-88190812D01*
X121370686Y-88197630D01*
X121355671Y-88203003D01*
X121340202Y-88206878D01*
X121324428Y-88209218D01*
X121308500Y-88210000D01*
X120983500Y-88210000D01*
X120967572Y-88209218D01*
X120951798Y-88206878D01*
X120936329Y-88203003D01*
X120921314Y-88197630D01*
X120906898Y-88190812D01*
X120893220Y-88182614D01*
X120880411Y-88173114D01*
X120868595Y-88162405D01*
X120857886Y-88150589D01*
X120848386Y-88137780D01*
X120840188Y-88124102D01*
X120833370Y-88109686D01*
X120827997Y-88094671D01*
X120824122Y-88079202D01*
X120821782Y-88063428D01*
X120821000Y-88047500D01*
X120821000Y-87147500D01*
X120821782Y-87131572D01*
X120824122Y-87115798D01*
X120827997Y-87100329D01*
X120833370Y-87085314D01*
X120840188Y-87070898D01*
X120848386Y-87057220D01*
X120857886Y-87044411D01*
X120868595Y-87032595D01*
X120880411Y-87021886D01*
X120893220Y-87012386D01*
X120906898Y-87004188D01*
X120921314Y-86997370D01*
X120936329Y-86991997D01*
X120951798Y-86988122D01*
X120967572Y-86985782D01*
X120983500Y-86985000D01*
X121308500Y-86985000D01*
X121324428Y-86985782D01*
X121324428Y-86985782D01*
G37*
D32*
X121146000Y-87597500D03*
D14*
G36*
X120824428Y-86985782D02*
X120840202Y-86988122D01*
X120855671Y-86991997D01*
X120870686Y-86997370D01*
X120885102Y-87004188D01*
X120898780Y-87012386D01*
X120911589Y-87021886D01*
X120923405Y-87032595D01*
X120934114Y-87044411D01*
X120943614Y-87057220D01*
X120951812Y-87070898D01*
X120958630Y-87085314D01*
X120964003Y-87100329D01*
X120967878Y-87115798D01*
X120970218Y-87131572D01*
X120971000Y-87147500D01*
X120971000Y-88047500D01*
X120970218Y-88063428D01*
X120967878Y-88079202D01*
X120964003Y-88094671D01*
X120958630Y-88109686D01*
X120951812Y-88124102D01*
X120943614Y-88137780D01*
X120934114Y-88150589D01*
X120923405Y-88162405D01*
X120911589Y-88173114D01*
X120898780Y-88182614D01*
X120885102Y-88190812D01*
X120870686Y-88197630D01*
X120855671Y-88203003D01*
X120840202Y-88206878D01*
X120824428Y-88209218D01*
X120808500Y-88210000D01*
X120483500Y-88210000D01*
X120467572Y-88209218D01*
X120451798Y-88206878D01*
X120436329Y-88203003D01*
X120421314Y-88197630D01*
X120406898Y-88190812D01*
X120393220Y-88182614D01*
X120380411Y-88173114D01*
X120368595Y-88162405D01*
X120357886Y-88150589D01*
X120348386Y-88137780D01*
X120340188Y-88124102D01*
X120333370Y-88109686D01*
X120327997Y-88094671D01*
X120324122Y-88079202D01*
X120321782Y-88063428D01*
X120321000Y-88047500D01*
X120321000Y-87147500D01*
X120321782Y-87131572D01*
X120324122Y-87115798D01*
X120327997Y-87100329D01*
X120333370Y-87085314D01*
X120340188Y-87070898D01*
X120348386Y-87057220D01*
X120357886Y-87044411D01*
X120368595Y-87032595D01*
X120380411Y-87021886D01*
X120393220Y-87012386D01*
X120406898Y-87004188D01*
X120421314Y-86997370D01*
X120436329Y-86991997D01*
X120451798Y-86988122D01*
X120467572Y-86985782D01*
X120483500Y-86985000D01*
X120808500Y-86985000D01*
X120824428Y-86985782D01*
X120824428Y-86985782D01*
G37*
D32*
X120646000Y-87597500D03*
D14*
G36*
X120324428Y-86985782D02*
X120340202Y-86988122D01*
X120355671Y-86991997D01*
X120370686Y-86997370D01*
X120385102Y-87004188D01*
X120398780Y-87012386D01*
X120411589Y-87021886D01*
X120423405Y-87032595D01*
X120434114Y-87044411D01*
X120443614Y-87057220D01*
X120451812Y-87070898D01*
X120458630Y-87085314D01*
X120464003Y-87100329D01*
X120467878Y-87115798D01*
X120470218Y-87131572D01*
X120471000Y-87147500D01*
X120471000Y-88047500D01*
X120470218Y-88063428D01*
X120467878Y-88079202D01*
X120464003Y-88094671D01*
X120458630Y-88109686D01*
X120451812Y-88124102D01*
X120443614Y-88137780D01*
X120434114Y-88150589D01*
X120423405Y-88162405D01*
X120411589Y-88173114D01*
X120398780Y-88182614D01*
X120385102Y-88190812D01*
X120370686Y-88197630D01*
X120355671Y-88203003D01*
X120340202Y-88206878D01*
X120324428Y-88209218D01*
X120308500Y-88210000D01*
X119983500Y-88210000D01*
X119967572Y-88209218D01*
X119951798Y-88206878D01*
X119936329Y-88203003D01*
X119921314Y-88197630D01*
X119906898Y-88190812D01*
X119893220Y-88182614D01*
X119880411Y-88173114D01*
X119868595Y-88162405D01*
X119857886Y-88150589D01*
X119848386Y-88137780D01*
X119840188Y-88124102D01*
X119833370Y-88109686D01*
X119827997Y-88094671D01*
X119824122Y-88079202D01*
X119821782Y-88063428D01*
X119821000Y-88047500D01*
X119821000Y-87147500D01*
X119821782Y-87131572D01*
X119824122Y-87115798D01*
X119827997Y-87100329D01*
X119833370Y-87085314D01*
X119840188Y-87070898D01*
X119848386Y-87057220D01*
X119857886Y-87044411D01*
X119868595Y-87032595D01*
X119880411Y-87021886D01*
X119893220Y-87012386D01*
X119906898Y-87004188D01*
X119921314Y-86997370D01*
X119936329Y-86991997D01*
X119951798Y-86988122D01*
X119967572Y-86985782D01*
X119983500Y-86985000D01*
X120308500Y-86985000D01*
X120324428Y-86985782D01*
X120324428Y-86985782D01*
G37*
D32*
X120146000Y-87597500D03*
D14*
G36*
X119824428Y-86985782D02*
X119840202Y-86988122D01*
X119855671Y-86991997D01*
X119870686Y-86997370D01*
X119885102Y-87004188D01*
X119898780Y-87012386D01*
X119911589Y-87021886D01*
X119923405Y-87032595D01*
X119934114Y-87044411D01*
X119943614Y-87057220D01*
X119951812Y-87070898D01*
X119958630Y-87085314D01*
X119964003Y-87100329D01*
X119967878Y-87115798D01*
X119970218Y-87131572D01*
X119971000Y-87147500D01*
X119971000Y-88047500D01*
X119970218Y-88063428D01*
X119967878Y-88079202D01*
X119964003Y-88094671D01*
X119958630Y-88109686D01*
X119951812Y-88124102D01*
X119943614Y-88137780D01*
X119934114Y-88150589D01*
X119923405Y-88162405D01*
X119911589Y-88173114D01*
X119898780Y-88182614D01*
X119885102Y-88190812D01*
X119870686Y-88197630D01*
X119855671Y-88203003D01*
X119840202Y-88206878D01*
X119824428Y-88209218D01*
X119808500Y-88210000D01*
X119483500Y-88210000D01*
X119467572Y-88209218D01*
X119451798Y-88206878D01*
X119436329Y-88203003D01*
X119421314Y-88197630D01*
X119406898Y-88190812D01*
X119393220Y-88182614D01*
X119380411Y-88173114D01*
X119368595Y-88162405D01*
X119357886Y-88150589D01*
X119348386Y-88137780D01*
X119340188Y-88124102D01*
X119333370Y-88109686D01*
X119327997Y-88094671D01*
X119324122Y-88079202D01*
X119321782Y-88063428D01*
X119321000Y-88047500D01*
X119321000Y-87147500D01*
X119321782Y-87131572D01*
X119324122Y-87115798D01*
X119327997Y-87100329D01*
X119333370Y-87085314D01*
X119340188Y-87070898D01*
X119348386Y-87057220D01*
X119357886Y-87044411D01*
X119368595Y-87032595D01*
X119380411Y-87021886D01*
X119393220Y-87012386D01*
X119406898Y-87004188D01*
X119421314Y-86997370D01*
X119436329Y-86991997D01*
X119451798Y-86988122D01*
X119467572Y-86985782D01*
X119483500Y-86985000D01*
X119808500Y-86985000D01*
X119824428Y-86985782D01*
X119824428Y-86985782D01*
G37*
D32*
X119646000Y-87597500D03*
D14*
G36*
X119324428Y-86985782D02*
X119340202Y-86988122D01*
X119355671Y-86991997D01*
X119370686Y-86997370D01*
X119385102Y-87004188D01*
X119398780Y-87012386D01*
X119411589Y-87021886D01*
X119423405Y-87032595D01*
X119434114Y-87044411D01*
X119443614Y-87057220D01*
X119451812Y-87070898D01*
X119458630Y-87085314D01*
X119464003Y-87100329D01*
X119467878Y-87115798D01*
X119470218Y-87131572D01*
X119471000Y-87147500D01*
X119471000Y-88047500D01*
X119470218Y-88063428D01*
X119467878Y-88079202D01*
X119464003Y-88094671D01*
X119458630Y-88109686D01*
X119451812Y-88124102D01*
X119443614Y-88137780D01*
X119434114Y-88150589D01*
X119423405Y-88162405D01*
X119411589Y-88173114D01*
X119398780Y-88182614D01*
X119385102Y-88190812D01*
X119370686Y-88197630D01*
X119355671Y-88203003D01*
X119340202Y-88206878D01*
X119324428Y-88209218D01*
X119308500Y-88210000D01*
X118983500Y-88210000D01*
X118967572Y-88209218D01*
X118951798Y-88206878D01*
X118936329Y-88203003D01*
X118921314Y-88197630D01*
X118906898Y-88190812D01*
X118893220Y-88182614D01*
X118880411Y-88173114D01*
X118868595Y-88162405D01*
X118857886Y-88150589D01*
X118848386Y-88137780D01*
X118840188Y-88124102D01*
X118833370Y-88109686D01*
X118827997Y-88094671D01*
X118824122Y-88079202D01*
X118821782Y-88063428D01*
X118821000Y-88047500D01*
X118821000Y-87147500D01*
X118821782Y-87131572D01*
X118824122Y-87115798D01*
X118827997Y-87100329D01*
X118833370Y-87085314D01*
X118840188Y-87070898D01*
X118848386Y-87057220D01*
X118857886Y-87044411D01*
X118868595Y-87032595D01*
X118880411Y-87021886D01*
X118893220Y-87012386D01*
X118906898Y-87004188D01*
X118921314Y-86997370D01*
X118936329Y-86991997D01*
X118951798Y-86988122D01*
X118967572Y-86985782D01*
X118983500Y-86985000D01*
X119308500Y-86985000D01*
X119324428Y-86985782D01*
X119324428Y-86985782D01*
G37*
D32*
X119146000Y-87597500D03*
G04 #@! TD*
D14*
G04 #@! TO.C,C16*
G36*
X117327259Y-91581192D02*
X117351285Y-91584756D01*
X117374845Y-91590657D01*
X117397714Y-91598840D01*
X117419671Y-91609224D01*
X117440504Y-91621711D01*
X117460012Y-91636180D01*
X117478009Y-91652491D01*
X117494320Y-91670488D01*
X117508789Y-91689996D01*
X117521276Y-91710829D01*
X117531660Y-91732786D01*
X117539843Y-91755655D01*
X117545744Y-91779215D01*
X117549308Y-91803241D01*
X117550500Y-91827500D01*
X117550500Y-92322500D01*
X117549308Y-92346759D01*
X117545744Y-92370785D01*
X117539843Y-92394345D01*
X117531660Y-92417214D01*
X117521276Y-92439171D01*
X117508789Y-92460004D01*
X117494320Y-92479512D01*
X117478009Y-92497509D01*
X117460012Y-92513820D01*
X117440504Y-92528289D01*
X117419671Y-92540776D01*
X117397714Y-92551160D01*
X117374845Y-92559343D01*
X117351285Y-92565244D01*
X117327259Y-92568808D01*
X117303000Y-92570000D01*
X116758000Y-92570000D01*
X116733741Y-92568808D01*
X116709715Y-92565244D01*
X116686155Y-92559343D01*
X116663286Y-92551160D01*
X116641329Y-92540776D01*
X116620496Y-92528289D01*
X116600988Y-92513820D01*
X116582991Y-92497509D01*
X116566680Y-92479512D01*
X116552211Y-92460004D01*
X116539724Y-92439171D01*
X116529340Y-92417214D01*
X116521157Y-92394345D01*
X116515256Y-92370785D01*
X116511692Y-92346759D01*
X116510500Y-92322500D01*
X116510500Y-91827500D01*
X116511692Y-91803241D01*
X116515256Y-91779215D01*
X116521157Y-91755655D01*
X116529340Y-91732786D01*
X116539724Y-91710829D01*
X116552211Y-91689996D01*
X116566680Y-91670488D01*
X116582991Y-91652491D01*
X116600988Y-91636180D01*
X116620496Y-91621711D01*
X116641329Y-91609224D01*
X116663286Y-91598840D01*
X116686155Y-91590657D01*
X116709715Y-91584756D01*
X116733741Y-91581192D01*
X116758000Y-91580000D01*
X117303000Y-91580000D01*
X117327259Y-91581192D01*
X117327259Y-91581192D01*
G37*
D15*
X117030500Y-92075000D03*
D14*
G36*
X117327259Y-90611192D02*
X117351285Y-90614756D01*
X117374845Y-90620657D01*
X117397714Y-90628840D01*
X117419671Y-90639224D01*
X117440504Y-90651711D01*
X117460012Y-90666180D01*
X117478009Y-90682491D01*
X117494320Y-90700488D01*
X117508789Y-90719996D01*
X117521276Y-90740829D01*
X117531660Y-90762786D01*
X117539843Y-90785655D01*
X117545744Y-90809215D01*
X117549308Y-90833241D01*
X117550500Y-90857500D01*
X117550500Y-91352500D01*
X117549308Y-91376759D01*
X117545744Y-91400785D01*
X117539843Y-91424345D01*
X117531660Y-91447214D01*
X117521276Y-91469171D01*
X117508789Y-91490004D01*
X117494320Y-91509512D01*
X117478009Y-91527509D01*
X117460012Y-91543820D01*
X117440504Y-91558289D01*
X117419671Y-91570776D01*
X117397714Y-91581160D01*
X117374845Y-91589343D01*
X117351285Y-91595244D01*
X117327259Y-91598808D01*
X117303000Y-91600000D01*
X116758000Y-91600000D01*
X116733741Y-91598808D01*
X116709715Y-91595244D01*
X116686155Y-91589343D01*
X116663286Y-91581160D01*
X116641329Y-91570776D01*
X116620496Y-91558289D01*
X116600988Y-91543820D01*
X116582991Y-91527509D01*
X116566680Y-91509512D01*
X116552211Y-91490004D01*
X116539724Y-91469171D01*
X116529340Y-91447214D01*
X116521157Y-91424345D01*
X116515256Y-91400785D01*
X116511692Y-91376759D01*
X116510500Y-91352500D01*
X116510500Y-90857500D01*
X116511692Y-90833241D01*
X116515256Y-90809215D01*
X116521157Y-90785655D01*
X116529340Y-90762786D01*
X116539724Y-90740829D01*
X116552211Y-90719996D01*
X116566680Y-90700488D01*
X116582991Y-90682491D01*
X116600988Y-90666180D01*
X116620496Y-90651711D01*
X116641329Y-90639224D01*
X116663286Y-90628840D01*
X116686155Y-90620657D01*
X116709715Y-90614756D01*
X116733741Y-90611192D01*
X116758000Y-90610000D01*
X117303000Y-90610000D01*
X117327259Y-90611192D01*
X117327259Y-90611192D01*
G37*
D15*
X117030500Y-91105000D03*
G04 #@! TD*
D14*
G04 #@! TO.C,C17*
G36*
X124248759Y-86963192D02*
X124272785Y-86966756D01*
X124296345Y-86972657D01*
X124319214Y-86980840D01*
X124341171Y-86991224D01*
X124362004Y-87003711D01*
X124381512Y-87018180D01*
X124399509Y-87034491D01*
X124415820Y-87052488D01*
X124430289Y-87071996D01*
X124442776Y-87092829D01*
X124453160Y-87114786D01*
X124461343Y-87137655D01*
X124467244Y-87161215D01*
X124470808Y-87185241D01*
X124472000Y-87209500D01*
X124472000Y-87704500D01*
X124470808Y-87728759D01*
X124467244Y-87752785D01*
X124461343Y-87776345D01*
X124453160Y-87799214D01*
X124442776Y-87821171D01*
X124430289Y-87842004D01*
X124415820Y-87861512D01*
X124399509Y-87879509D01*
X124381512Y-87895820D01*
X124362004Y-87910289D01*
X124341171Y-87922776D01*
X124319214Y-87933160D01*
X124296345Y-87941343D01*
X124272785Y-87947244D01*
X124248759Y-87950808D01*
X124224500Y-87952000D01*
X123679500Y-87952000D01*
X123655241Y-87950808D01*
X123631215Y-87947244D01*
X123607655Y-87941343D01*
X123584786Y-87933160D01*
X123562829Y-87922776D01*
X123541996Y-87910289D01*
X123522488Y-87895820D01*
X123504491Y-87879509D01*
X123488180Y-87861512D01*
X123473711Y-87842004D01*
X123461224Y-87821171D01*
X123450840Y-87799214D01*
X123442657Y-87776345D01*
X123436756Y-87752785D01*
X123433192Y-87728759D01*
X123432000Y-87704500D01*
X123432000Y-87209500D01*
X123433192Y-87185241D01*
X123436756Y-87161215D01*
X123442657Y-87137655D01*
X123450840Y-87114786D01*
X123461224Y-87092829D01*
X123473711Y-87071996D01*
X123488180Y-87052488D01*
X123504491Y-87034491D01*
X123522488Y-87018180D01*
X123541996Y-87003711D01*
X123562829Y-86991224D01*
X123584786Y-86980840D01*
X123607655Y-86972657D01*
X123631215Y-86966756D01*
X123655241Y-86963192D01*
X123679500Y-86962000D01*
X124224500Y-86962000D01*
X124248759Y-86963192D01*
X124248759Y-86963192D01*
G37*
D15*
X123952000Y-87457000D03*
D14*
G36*
X124248759Y-85993192D02*
X124272785Y-85996756D01*
X124296345Y-86002657D01*
X124319214Y-86010840D01*
X124341171Y-86021224D01*
X124362004Y-86033711D01*
X124381512Y-86048180D01*
X124399509Y-86064491D01*
X124415820Y-86082488D01*
X124430289Y-86101996D01*
X124442776Y-86122829D01*
X124453160Y-86144786D01*
X124461343Y-86167655D01*
X124467244Y-86191215D01*
X124470808Y-86215241D01*
X124472000Y-86239500D01*
X124472000Y-86734500D01*
X124470808Y-86758759D01*
X124467244Y-86782785D01*
X124461343Y-86806345D01*
X124453160Y-86829214D01*
X124442776Y-86851171D01*
X124430289Y-86872004D01*
X124415820Y-86891512D01*
X124399509Y-86909509D01*
X124381512Y-86925820D01*
X124362004Y-86940289D01*
X124341171Y-86952776D01*
X124319214Y-86963160D01*
X124296345Y-86971343D01*
X124272785Y-86977244D01*
X124248759Y-86980808D01*
X124224500Y-86982000D01*
X123679500Y-86982000D01*
X123655241Y-86980808D01*
X123631215Y-86977244D01*
X123607655Y-86971343D01*
X123584786Y-86963160D01*
X123562829Y-86952776D01*
X123541996Y-86940289D01*
X123522488Y-86925820D01*
X123504491Y-86909509D01*
X123488180Y-86891512D01*
X123473711Y-86872004D01*
X123461224Y-86851171D01*
X123450840Y-86829214D01*
X123442657Y-86806345D01*
X123436756Y-86782785D01*
X123433192Y-86758759D01*
X123432000Y-86734500D01*
X123432000Y-86239500D01*
X123433192Y-86215241D01*
X123436756Y-86191215D01*
X123442657Y-86167655D01*
X123450840Y-86144786D01*
X123461224Y-86122829D01*
X123473711Y-86101996D01*
X123488180Y-86082488D01*
X123504491Y-86064491D01*
X123522488Y-86048180D01*
X123541996Y-86033711D01*
X123562829Y-86021224D01*
X123584786Y-86010840D01*
X123607655Y-86002657D01*
X123631215Y-85996756D01*
X123655241Y-85993192D01*
X123679500Y-85992000D01*
X124224500Y-85992000D01*
X124248759Y-85993192D01*
X124248759Y-85993192D01*
G37*
D15*
X123952000Y-86487000D03*
G04 #@! TD*
D14*
G04 #@! TO.C,C18*
G36*
X118762759Y-85269692D02*
X118786785Y-85273256D01*
X118810345Y-85279157D01*
X118833214Y-85287340D01*
X118855171Y-85297724D01*
X118876004Y-85310211D01*
X118895512Y-85324680D01*
X118913509Y-85340991D01*
X118929820Y-85358988D01*
X118944289Y-85378496D01*
X118956776Y-85399329D01*
X118967160Y-85421286D01*
X118975343Y-85444155D01*
X118981244Y-85467715D01*
X118984808Y-85491741D01*
X118986000Y-85516000D01*
X118986000Y-86061000D01*
X118984808Y-86085259D01*
X118981244Y-86109285D01*
X118975343Y-86132845D01*
X118967160Y-86155714D01*
X118956776Y-86177671D01*
X118944289Y-86198504D01*
X118929820Y-86218012D01*
X118913509Y-86236009D01*
X118895512Y-86252320D01*
X118876004Y-86266789D01*
X118855171Y-86279276D01*
X118833214Y-86289660D01*
X118810345Y-86297843D01*
X118786785Y-86303744D01*
X118762759Y-86307308D01*
X118738500Y-86308500D01*
X118243500Y-86308500D01*
X118219241Y-86307308D01*
X118195215Y-86303744D01*
X118171655Y-86297843D01*
X118148786Y-86289660D01*
X118126829Y-86279276D01*
X118105996Y-86266789D01*
X118086488Y-86252320D01*
X118068491Y-86236009D01*
X118052180Y-86218012D01*
X118037711Y-86198504D01*
X118025224Y-86177671D01*
X118014840Y-86155714D01*
X118006657Y-86132845D01*
X118000756Y-86109285D01*
X117997192Y-86085259D01*
X117996000Y-86061000D01*
X117996000Y-85516000D01*
X117997192Y-85491741D01*
X118000756Y-85467715D01*
X118006657Y-85444155D01*
X118014840Y-85421286D01*
X118025224Y-85399329D01*
X118037711Y-85378496D01*
X118052180Y-85358988D01*
X118068491Y-85340991D01*
X118086488Y-85324680D01*
X118105996Y-85310211D01*
X118126829Y-85297724D01*
X118148786Y-85287340D01*
X118171655Y-85279157D01*
X118195215Y-85273256D01*
X118219241Y-85269692D01*
X118243500Y-85268500D01*
X118738500Y-85268500D01*
X118762759Y-85269692D01*
X118762759Y-85269692D01*
G37*
D15*
X118491000Y-85788500D03*
D14*
G36*
X119732759Y-85269692D02*
X119756785Y-85273256D01*
X119780345Y-85279157D01*
X119803214Y-85287340D01*
X119825171Y-85297724D01*
X119846004Y-85310211D01*
X119865512Y-85324680D01*
X119883509Y-85340991D01*
X119899820Y-85358988D01*
X119914289Y-85378496D01*
X119926776Y-85399329D01*
X119937160Y-85421286D01*
X119945343Y-85444155D01*
X119951244Y-85467715D01*
X119954808Y-85491741D01*
X119956000Y-85516000D01*
X119956000Y-86061000D01*
X119954808Y-86085259D01*
X119951244Y-86109285D01*
X119945343Y-86132845D01*
X119937160Y-86155714D01*
X119926776Y-86177671D01*
X119914289Y-86198504D01*
X119899820Y-86218012D01*
X119883509Y-86236009D01*
X119865512Y-86252320D01*
X119846004Y-86266789D01*
X119825171Y-86279276D01*
X119803214Y-86289660D01*
X119780345Y-86297843D01*
X119756785Y-86303744D01*
X119732759Y-86307308D01*
X119708500Y-86308500D01*
X119213500Y-86308500D01*
X119189241Y-86307308D01*
X119165215Y-86303744D01*
X119141655Y-86297843D01*
X119118786Y-86289660D01*
X119096829Y-86279276D01*
X119075996Y-86266789D01*
X119056488Y-86252320D01*
X119038491Y-86236009D01*
X119022180Y-86218012D01*
X119007711Y-86198504D01*
X118995224Y-86177671D01*
X118984840Y-86155714D01*
X118976657Y-86132845D01*
X118970756Y-86109285D01*
X118967192Y-86085259D01*
X118966000Y-86061000D01*
X118966000Y-85516000D01*
X118967192Y-85491741D01*
X118970756Y-85467715D01*
X118976657Y-85444155D01*
X118984840Y-85421286D01*
X118995224Y-85399329D01*
X119007711Y-85378496D01*
X119022180Y-85358988D01*
X119038491Y-85340991D01*
X119056488Y-85324680D01*
X119075996Y-85310211D01*
X119096829Y-85297724D01*
X119118786Y-85287340D01*
X119141655Y-85279157D01*
X119165215Y-85273256D01*
X119189241Y-85269692D01*
X119213500Y-85268500D01*
X119708500Y-85268500D01*
X119732759Y-85269692D01*
X119732759Y-85269692D01*
G37*
D15*
X119461000Y-85788500D03*
G04 #@! TD*
D14*
G04 #@! TO.C,R7*
G36*
X121955259Y-85269692D02*
X121979285Y-85273256D01*
X122002845Y-85279157D01*
X122025714Y-85287340D01*
X122047671Y-85297724D01*
X122068504Y-85310211D01*
X122088012Y-85324680D01*
X122106009Y-85340991D01*
X122122320Y-85358988D01*
X122136789Y-85378496D01*
X122149276Y-85399329D01*
X122159660Y-85421286D01*
X122167843Y-85444155D01*
X122173744Y-85467715D01*
X122177308Y-85491741D01*
X122178500Y-85516000D01*
X122178500Y-86061000D01*
X122177308Y-86085259D01*
X122173744Y-86109285D01*
X122167843Y-86132845D01*
X122159660Y-86155714D01*
X122149276Y-86177671D01*
X122136789Y-86198504D01*
X122122320Y-86218012D01*
X122106009Y-86236009D01*
X122088012Y-86252320D01*
X122068504Y-86266789D01*
X122047671Y-86279276D01*
X122025714Y-86289660D01*
X122002845Y-86297843D01*
X121979285Y-86303744D01*
X121955259Y-86307308D01*
X121931000Y-86308500D01*
X121436000Y-86308500D01*
X121411741Y-86307308D01*
X121387715Y-86303744D01*
X121364155Y-86297843D01*
X121341286Y-86289660D01*
X121319329Y-86279276D01*
X121298496Y-86266789D01*
X121278988Y-86252320D01*
X121260991Y-86236009D01*
X121244680Y-86218012D01*
X121230211Y-86198504D01*
X121217724Y-86177671D01*
X121207340Y-86155714D01*
X121199157Y-86132845D01*
X121193256Y-86109285D01*
X121189692Y-86085259D01*
X121188500Y-86061000D01*
X121188500Y-85516000D01*
X121189692Y-85491741D01*
X121193256Y-85467715D01*
X121199157Y-85444155D01*
X121207340Y-85421286D01*
X121217724Y-85399329D01*
X121230211Y-85378496D01*
X121244680Y-85358988D01*
X121260991Y-85340991D01*
X121278988Y-85324680D01*
X121298496Y-85310211D01*
X121319329Y-85297724D01*
X121341286Y-85287340D01*
X121364155Y-85279157D01*
X121387715Y-85273256D01*
X121411741Y-85269692D01*
X121436000Y-85268500D01*
X121931000Y-85268500D01*
X121955259Y-85269692D01*
X121955259Y-85269692D01*
G37*
D15*
X121683500Y-85788500D03*
D14*
G36*
X120985259Y-85269692D02*
X121009285Y-85273256D01*
X121032845Y-85279157D01*
X121055714Y-85287340D01*
X121077671Y-85297724D01*
X121098504Y-85310211D01*
X121118012Y-85324680D01*
X121136009Y-85340991D01*
X121152320Y-85358988D01*
X121166789Y-85378496D01*
X121179276Y-85399329D01*
X121189660Y-85421286D01*
X121197843Y-85444155D01*
X121203744Y-85467715D01*
X121207308Y-85491741D01*
X121208500Y-85516000D01*
X121208500Y-86061000D01*
X121207308Y-86085259D01*
X121203744Y-86109285D01*
X121197843Y-86132845D01*
X121189660Y-86155714D01*
X121179276Y-86177671D01*
X121166789Y-86198504D01*
X121152320Y-86218012D01*
X121136009Y-86236009D01*
X121118012Y-86252320D01*
X121098504Y-86266789D01*
X121077671Y-86279276D01*
X121055714Y-86289660D01*
X121032845Y-86297843D01*
X121009285Y-86303744D01*
X120985259Y-86307308D01*
X120961000Y-86308500D01*
X120466000Y-86308500D01*
X120441741Y-86307308D01*
X120417715Y-86303744D01*
X120394155Y-86297843D01*
X120371286Y-86289660D01*
X120349329Y-86279276D01*
X120328496Y-86266789D01*
X120308988Y-86252320D01*
X120290991Y-86236009D01*
X120274680Y-86218012D01*
X120260211Y-86198504D01*
X120247724Y-86177671D01*
X120237340Y-86155714D01*
X120229157Y-86132845D01*
X120223256Y-86109285D01*
X120219692Y-86085259D01*
X120218500Y-86061000D01*
X120218500Y-85516000D01*
X120219692Y-85491741D01*
X120223256Y-85467715D01*
X120229157Y-85444155D01*
X120237340Y-85421286D01*
X120247724Y-85399329D01*
X120260211Y-85378496D01*
X120274680Y-85358988D01*
X120290991Y-85340991D01*
X120308988Y-85324680D01*
X120328496Y-85310211D01*
X120349329Y-85297724D01*
X120371286Y-85287340D01*
X120394155Y-85279157D01*
X120417715Y-85273256D01*
X120441741Y-85269692D01*
X120466000Y-85268500D01*
X120961000Y-85268500D01*
X120985259Y-85269692D01*
X120985259Y-85269692D01*
G37*
D15*
X120713500Y-85788500D03*
G04 #@! TD*
M02*
