G04 #@! TF.GenerationSoftware,KiCad,Pcbnew,(5.0.0)*
G04 #@! TF.CreationDate,2018-11-30T17:01:22-06:00*
G04 #@! TF.ProjectId,NRF52832 Base,4E5246353238333220426173652E6B69,rev?*
G04 #@! TF.SameCoordinates,Original*
G04 #@! TF.FileFunction,Copper,L2,Bot,Signal*
G04 #@! TF.FilePolarity,Positive*
%FSLAX46Y46*%
G04 Gerber Fmt 4.6, Leading zero omitted, Abs format (unit mm)*
G04 Created by KiCad (PCBNEW (5.0.0)) date 11/30/18 17:01:22*
%MOMM*%
%LPD*%
G01*
G04 APERTURE LIST*
G04 #@! TA.AperFunction,ComponentPad*
%ADD10R,1.752600X1.752600*%
G04 #@! TD*
G04 #@! TA.AperFunction,ComponentPad*
%ADD11C,1.752600*%
G04 #@! TD*
G04 #@! TA.AperFunction,Conductor*
%ADD12C,5.400000*%
G04 #@! TD*
G04 #@! TA.AperFunction,Conductor*
%ADD13C,0.100000*%
G04 #@! TD*
G04 #@! TA.AperFunction,ViaPad*
%ADD14C,0.600000*%
G04 #@! TD*
G04 #@! TA.AperFunction,ComponentPad*
%ADD15C,1.450000*%
G04 #@! TD*
G04 #@! TA.AperFunction,ComponentPad*
%ADD16O,1.900000X1.200000*%
G04 #@! TD*
G04 #@! TA.AperFunction,SMDPad,CuDef*
%ADD17R,2.400000X0.740000*%
G04 #@! TD*
G04 #@! TA.AperFunction,Conductor*
%ADD18C,0.250000*%
G04 #@! TD*
G04 #@! TA.AperFunction,Conductor*
%ADD19C,0.508000*%
G04 #@! TD*
G04 #@! TA.AperFunction,Conductor*
%ADD20C,0.254000*%
G04 #@! TD*
G04 #@! TA.AperFunction,Conductor*
%ADD21C,0.152400*%
G04 #@! TD*
G04 APERTURE END LIST*
D10*
G04 #@! TO.P,U2,1*
G04 #@! TO.N,RAW*
X113030000Y-97155000D03*
D11*
G04 #@! TO.P,U2,2*
G04 #@! TO.N,GND*
X115570000Y-97155000D03*
G04 #@! TO.P,U2,3*
G04 #@! TO.N,RESET*
X118110000Y-97155000D03*
G04 #@! TO.P,U2,4*
G04 #@! TO.N,VCC*
X120650000Y-97155000D03*
G04 #@! TO.P,U2,5*
G04 #@! TO.N,/P0.07*
X123190000Y-97155000D03*
G04 #@! TO.P,U2,6*
G04 #@! TO.N,/P0.09*
X125730000Y-97155000D03*
G04 #@! TO.P,U2,7*
G04 #@! TO.N,/P0.10*
X128270000Y-97155000D03*
G04 #@! TO.P,U2,8*
G04 #@! TO.N,/P0.11*
X130810000Y-97155000D03*
G04 #@! TO.P,U2,9*
G04 #@! TO.N,SCK*
X133350000Y-97155000D03*
G04 #@! TO.P,U2,10*
G04 #@! TO.N,MOSI*
X135890000Y-97155000D03*
G04 #@! TO.P,U2,11*
G04 #@! TO.N,MISO*
X138430000Y-97155000D03*
G04 #@! TO.P,U2,12*
G04 #@! TO.N,/P0.18*
X140970000Y-97155000D03*
G04 #@! TO.P,U2,24*
G04 #@! TO.N,SDA*
X140970000Y-81915000D03*
G04 #@! TO.P,U2,23*
G04 #@! TO.N,SCL*
X138430000Y-81915000D03*
G04 #@! TO.P,U2,22*
G04 #@! TO.N,/P0.27*
X135890000Y-81915000D03*
G04 #@! TO.P,U2,21*
G04 #@! TO.N,/P0.28*
X133350000Y-81915000D03*
G04 #@! TO.P,U2,20*
G04 #@! TO.N,/P0.29*
X130810000Y-81915000D03*
G04 #@! TO.P,U2,19*
G04 #@! TO.N,/P0.30*
X128270000Y-81915000D03*
G04 #@! TO.P,U2,18*
G04 #@! TO.N,/P0.02*
X125730000Y-81915000D03*
G04 #@! TO.P,U2,17*
G04 #@! TO.N,/P0.03*
X123190000Y-81915000D03*
G04 #@! TO.P,U2,16*
G04 #@! TO.N,GND*
X120650000Y-81915000D03*
G04 #@! TO.P,U2,15*
X118110000Y-81915000D03*
G04 #@! TO.P,U2,14*
G04 #@! TO.N,/P0.04*
X115570000Y-81915000D03*
G04 #@! TO.P,U2,13*
G04 #@! TO.N,/P0.05*
X113030000Y-81915000D03*
G04 #@! TD*
D12*
G04 #@! TO.N,GND*
G04 #@! TO.C,U1*
X133985000Y-89535000D03*
D13*
G36*
X130166623Y-89535000D02*
X133985000Y-85716623D01*
X137803377Y-89535000D01*
X133985000Y-93353377D01*
X130166623Y-89535000D01*
X130166623Y-89535000D01*
G37*
D14*
X133466455Y-87979365D03*
X132429365Y-89016455D03*
X134503545Y-87979365D03*
X133985000Y-88497911D03*
X133466455Y-89016455D03*
X132947911Y-89535000D03*
X132429365Y-90053545D03*
X134503545Y-89016455D03*
X133466455Y-90053545D03*
X135540635Y-89016455D03*
X135022089Y-89535000D03*
X134503545Y-90053545D03*
X133985000Y-90572089D03*
X133466455Y-91090635D03*
X135540635Y-90053545D03*
X134503545Y-91090635D03*
G04 #@! TD*
D15*
G04 #@! TO.P,J2,6*
G04 #@! TO.N,GND*
X115316000Y-87075000D03*
X115316000Y-92075000D03*
D16*
X112616000Y-86075000D03*
X112616000Y-93075000D03*
G04 #@! TD*
D17*
G04 #@! TO.P,J1,1*
G04 #@! TO.N,SWDIO*
X141586500Y-93472000D03*
G04 #@! TO.P,J1,2*
G04 #@! TO.N,SWDCLK*
X137686500Y-93472000D03*
G04 #@! TO.P,J1,3*
G04 #@! TO.N,VCC*
X141586500Y-94742000D03*
G04 #@! TO.P,J1,4*
G04 #@! TO.N,GND*
X137686500Y-94742000D03*
G04 #@! TD*
D14*
G04 #@! TO.N,GND*
X143129000Y-91440000D03*
X143129000Y-92710000D03*
X143129000Y-86868000D03*
X143129000Y-85598000D03*
X143129000Y-84328000D03*
X144500000Y-96700000D03*
X127580852Y-93889889D03*
X127000000Y-89535000D03*
X122936000Y-86868000D03*
X123698000Y-84455000D03*
X122809000Y-83820000D03*
X138849570Y-88430570D03*
X134620000Y-84455000D03*
X139827000Y-90678000D03*
X121031000Y-94107000D03*
X127508000Y-92329000D03*
X125730000Y-85852000D03*
G04 #@! TO.N,VCC*
X134493000Y-94869000D03*
G04 #@! TO.N,GND*
X143002000Y-98298000D03*
X143002000Y-97409000D03*
X143002000Y-96520000D03*
X143002000Y-95758000D03*
X143002000Y-80772000D03*
X143002000Y-81534000D03*
X143002000Y-82296000D03*
X143002000Y-83058000D03*
X139509500Y-93916500D03*
G04 #@! TO.N,VCC*
X133731000Y-84582000D03*
X129408232Y-90770832D03*
X126873000Y-93599000D03*
X138938000Y-89535000D03*
G04 #@! TO.N,SCK*
X129805607Y-92217632D03*
G04 #@! TO.N,MOSI*
X130328002Y-92808599D03*
G04 #@! TO.N,MISO*
X130683000Y-93853000D03*
G04 #@! TO.N,SDA*
X140081000Y-85598000D03*
G04 #@! TO.N,SCL*
X139196858Y-85595422D03*
G04 #@! TO.N,RESET*
X117856000Y-85217000D03*
G04 #@! TO.N,SWDCLK*
X135631533Y-93992213D03*
G04 #@! TO.N,SWDIO*
X135953500Y-93285584D03*
G04 #@! TO.N,/P0.02*
X131820473Y-86014842D03*
G04 #@! TO.N,/P0.03*
X130435320Y-86034579D03*
G04 #@! TO.N,/P0.04*
X129682947Y-86164756D03*
G04 #@! TO.N,/P0.05*
X129073215Y-86605608D03*
G04 #@! TO.N,TXD*
X128651000Y-87228390D03*
X123133716Y-85781284D03*
G04 #@! TO.N,/P0.07*
X127762000Y-89027000D03*
G04 #@! TO.N,RXD*
X128524000Y-88285600D03*
X122409208Y-85578278D03*
G04 #@! TO.N,/P0.09*
X128690938Y-89215250D03*
G04 #@! TO.N,/P0.10*
X129103421Y-90043000D03*
G04 #@! TO.N,/P0.11*
X129408232Y-91567000D03*
G04 #@! TO.N,/P0.18*
X131572000Y-93853000D03*
G04 #@! TO.N,/P0.27*
X138442781Y-85549065D03*
G04 #@! TO.N,/P0.28*
X138255576Y-86277822D03*
G04 #@! TO.N,/P0.29*
X137686662Y-86770210D03*
G04 #@! TO.N,/P0.30*
X137159928Y-86232926D03*
G04 #@! TO.N,RAW*
X119761000Y-94996000D03*
X123444000Y-94996000D03*
X121285000Y-84836000D03*
G04 #@! TO.N,Net-(C6-Pad1)*
X124079000Y-93599000D03*
X125907598Y-92964000D03*
G04 #@! TO.N,/VBus*
X116713000Y-88265000D03*
X119833000Y-94234000D03*
X117284500Y-87058500D03*
G04 #@! TO.N,Net-(D1-Pad1)*
X118110000Y-91821000D03*
X115824000Y-84963000D03*
G04 #@! TO.N,/D+*
X117411500Y-89090500D03*
X116537062Y-90028438D03*
G04 #@! TD*
D18*
G04 #@! TO.N,GND*
X115570000Y-97155000D02*
X115984802Y-97155000D01*
D19*
X112616000Y-94201000D02*
X112616000Y-93075000D01*
X115570000Y-97155000D02*
X112616000Y-94201000D01*
D20*
X123235999Y-87167999D02*
X122936000Y-86868000D01*
X125603000Y-89535000D02*
X123235999Y-87167999D01*
X127000000Y-89535000D02*
X125603000Y-89535000D01*
X127508000Y-90043000D02*
X127000000Y-89535000D01*
X127580852Y-93889889D02*
X127508000Y-93817037D01*
X127508000Y-93817037D02*
X127508000Y-92329000D01*
D21*
X123698000Y-84455000D02*
X123398001Y-84155001D01*
X123063000Y-83820000D02*
X123698000Y-84455000D01*
X122809000Y-83820000D02*
X123063000Y-83820000D01*
D20*
X138531604Y-88112604D02*
X138549571Y-88130571D01*
X137836354Y-88112604D02*
X138531604Y-88112604D01*
X138549571Y-88130571D02*
X138849570Y-88430570D01*
X137836354Y-88112604D02*
X134620000Y-84896250D01*
X134620000Y-84896250D02*
X134620000Y-84455000D01*
X134620000Y-84455000D02*
X134620000Y-84455000D01*
X138849570Y-88430570D02*
X139827000Y-89408000D01*
X139827000Y-89408000D02*
X139827000Y-90678000D01*
X127508000Y-92329000D02*
X127508000Y-90043000D01*
D21*
X139342000Y-93916500D02*
X139509500Y-93916500D01*
X137686500Y-94742000D02*
X138516500Y-94742000D01*
X138516500Y-94742000D02*
X139342000Y-93916500D01*
D20*
G04 #@! TO.N,VCC*
X133858000Y-85090000D02*
X133858000Y-84709000D01*
X133858000Y-84709000D02*
X133731000Y-84582000D01*
X129708231Y-89239769D02*
X129708231Y-90470833D01*
X129708231Y-90470833D02*
X129408232Y-90770832D01*
X133858000Y-85090000D02*
X129708231Y-89239769D01*
D21*
X125984000Y-93599000D02*
X126873000Y-93599000D01*
X123952000Y-95631000D02*
X125984000Y-93599000D01*
X120650000Y-97155000D02*
X122174000Y-95631000D01*
X122174000Y-95631000D02*
X123952000Y-95631000D01*
D20*
X138638001Y-89235001D02*
X138938000Y-89535000D01*
X138384001Y-89235001D02*
X138638001Y-89235001D01*
X133858000Y-85090000D02*
X134239000Y-85090000D01*
X134239000Y-85090000D02*
X138384001Y-89235001D01*
D21*
X134493000Y-94444736D02*
X134493000Y-94869000D01*
X134493000Y-93963754D02*
X134493000Y-94444736D01*
X138032754Y-90424000D02*
X134493000Y-93963754D01*
X138430000Y-90424000D02*
X138032754Y-90424000D01*
X138938000Y-89535000D02*
X138938000Y-89916000D01*
X138938000Y-89916000D02*
X138430000Y-90424000D01*
X134683500Y-95059500D02*
X134493000Y-94869000D01*
X136022518Y-95059500D02*
X134683500Y-95059500D01*
X136303619Y-95340601D02*
X136022518Y-95059500D01*
X139635499Y-95340601D02*
X136303619Y-95340601D01*
X141586500Y-94742000D02*
X140234100Y-94742000D01*
X140234100Y-94742000D02*
X139635499Y-95340601D01*
G04 #@! TO.N,SCK*
X129505608Y-92517631D02*
X129805607Y-92217632D01*
X132080000Y-95885000D02*
X130810000Y-95885000D01*
X133350000Y-97155000D02*
X132080000Y-95885000D01*
X130810000Y-95885000D02*
X129505608Y-94580608D01*
X129505608Y-94580608D02*
X129505608Y-92517631D01*
G04 #@! TO.N,MOSI*
X131627859Y-95580189D02*
X130027399Y-93979729D01*
X134108955Y-96278701D02*
X133880353Y-96050099D01*
X135013701Y-96278701D02*
X134108955Y-96278701D01*
X135890000Y-97155000D02*
X135013701Y-96278701D01*
X133880353Y-96050099D02*
X132906965Y-96050099D01*
X132437056Y-95580189D02*
X131627859Y-95580189D01*
X130027399Y-93979729D02*
X130027399Y-93109202D01*
X132906965Y-96050099D02*
X132437056Y-95580189D01*
X130027399Y-93109202D02*
X130028003Y-93108598D01*
X130028003Y-93108598D02*
X130328002Y-92808599D01*
G04 #@! TO.N,MISO*
X135139957Y-95973891D02*
X134235211Y-95973891D01*
X134006609Y-95745289D02*
X133033222Y-95745289D01*
X133033222Y-95745289D02*
X132537934Y-95250000D01*
X136420353Y-96050099D02*
X135216165Y-96050099D01*
X132537934Y-95250000D02*
X132080000Y-95250000D01*
X130982999Y-94152999D02*
X130683000Y-93853000D01*
X132080000Y-95250000D02*
X130982999Y-94152999D01*
X134235211Y-95973891D02*
X134006609Y-95745289D01*
X135216165Y-96050099D02*
X135139957Y-95973891D01*
X137553701Y-96278701D02*
X136648955Y-96278701D01*
X138430000Y-97155000D02*
X137553701Y-96278701D01*
X136648955Y-96278701D02*
X136420353Y-96050099D01*
G04 #@! TO.N,SDA*
X140970000Y-84709000D02*
X140380999Y-85298001D01*
X140380999Y-85298001D02*
X140081000Y-85598000D01*
X140970000Y-81915000D02*
X140970000Y-84709000D01*
G04 #@! TO.N,SCL*
X138430000Y-81915000D02*
X138430000Y-84761029D01*
X138430000Y-84761029D02*
X139196858Y-85527887D01*
X139196858Y-85527887D02*
X139196858Y-85595422D01*
G04 #@! TO.N,RESET*
X117497663Y-84434399D02*
X114701601Y-84434399D01*
X117856000Y-85217000D02*
X117856000Y-84792736D01*
X117856000Y-84792736D02*
X117497663Y-84434399D01*
X113794610Y-86561324D02*
X113538000Y-86817934D01*
X114701601Y-84434399D02*
X113794610Y-85341390D01*
X113794610Y-85341390D02*
X113794610Y-86561324D01*
X113538000Y-92475169D02*
X115042831Y-93980000D01*
X113538000Y-86817934D02*
X113538000Y-92475169D01*
X115042831Y-94087831D02*
X118110000Y-97155000D01*
X115042831Y-93980000D02*
X115042831Y-94087831D01*
G04 #@! TO.N,SWDCLK*
X137166287Y-93992213D02*
X137686500Y-93472000D01*
X135631533Y-93992213D02*
X137166287Y-93992213D01*
G04 #@! TO.N,SWDIO*
X140234100Y-93472000D02*
X141586500Y-93472000D01*
X139635499Y-92873399D02*
X140234100Y-93472000D01*
X136365685Y-92873399D02*
X139635499Y-92873399D01*
X135953500Y-93285584D02*
X136365685Y-92873399D01*
G04 #@! TO.N,/P0.02*
X129146344Y-85331344D02*
X131136975Y-85331344D01*
X131136975Y-85331344D02*
X131520474Y-85714843D01*
X131520474Y-85714843D02*
X131820473Y-86014842D01*
X125730000Y-81915000D02*
X129146344Y-85331344D01*
G04 #@! TO.N,/P0.03*
X126911155Y-85636155D02*
X130036896Y-85636155D01*
X123190000Y-81915000D02*
X126911155Y-85636155D01*
X130036896Y-85636155D02*
X130135321Y-85734580D01*
X130135321Y-85734580D02*
X130435320Y-86034579D01*
G04 #@! TO.N,/P0.04*
X124002752Y-83235752D02*
X126844007Y-86077007D01*
X126844007Y-86077007D02*
X129595198Y-86077007D01*
X129595198Y-86077007D02*
X129682947Y-86164756D01*
X116890752Y-83235752D02*
X124002752Y-83235752D01*
X115570000Y-81915000D02*
X116890752Y-83235752D01*
G04 #@! TO.N,/P0.05*
X128648951Y-86605608D02*
X129073215Y-86605608D01*
X124705608Y-86605608D02*
X128648951Y-86605608D01*
X121731261Y-83631261D02*
X124705608Y-86605608D01*
X114746261Y-83631261D02*
X121731261Y-83631261D01*
X113030000Y-81915000D02*
X114746261Y-83631261D01*
G04 #@! TO.N,TXD*
X123433715Y-86081283D02*
X123133716Y-85781284D01*
X128651000Y-87228390D02*
X124580822Y-87228390D01*
X124580822Y-87228390D02*
X123433715Y-86081283D01*
G04 #@! TO.N,/P0.07*
X126746000Y-95885000D02*
X124460000Y-95885000D01*
X128270000Y-94361000D02*
X126746000Y-95885000D01*
X127762000Y-89027000D02*
X128270000Y-89535000D01*
X128270000Y-89535000D02*
X128270000Y-94361000D01*
X124460000Y-95885000D02*
X123190000Y-97155000D01*
G04 #@! TO.N,RXD*
X125135930Y-88285600D02*
X123189729Y-86339399D01*
X123189729Y-86339399D02*
X122746065Y-86339399D01*
X122409208Y-86002542D02*
X122409208Y-85578278D01*
X122746065Y-86339399D02*
X122409208Y-86002542D01*
X128524000Y-88285600D02*
X125135930Y-88285600D01*
G04 #@! TO.N,/P0.09*
X125730000Y-97155000D02*
X126606299Y-96278701D01*
X128574811Y-89755641D02*
X128690938Y-89639514D01*
X128574811Y-94487256D02*
X128574811Y-89755641D01*
X126606299Y-96278701D02*
X126783366Y-96278701D01*
X126783366Y-96278701D02*
X128574811Y-94487256D01*
X128690938Y-89639514D02*
X128690938Y-89215250D01*
G04 #@! TO.N,/P0.10*
X128270000Y-97155000D02*
X128270000Y-95915725D01*
X128879622Y-90266799D02*
X129103421Y-90043000D01*
X128879622Y-95306103D02*
X128879622Y-90266799D01*
X128270000Y-95915725D02*
X128879622Y-95306103D01*
G04 #@! TO.N,/P0.11*
X129184433Y-95529433D02*
X129184433Y-91790799D01*
X130810000Y-97155000D02*
X129184433Y-95529433D01*
X129184433Y-91790799D02*
X129408232Y-91567000D01*
G04 #@! TO.N,/P0.18*
X140093701Y-96278701D02*
X140970000Y-97155000D01*
X136559321Y-95758000D02*
X139573000Y-95758000D01*
X134132865Y-95440478D02*
X134361466Y-95669080D01*
X133159478Y-95440478D02*
X134132865Y-95440478D01*
X135266213Y-95669080D02*
X135342421Y-95745288D01*
X131572000Y-93853000D02*
X133159478Y-95440478D01*
X136546609Y-95745288D02*
X136559321Y-95758000D01*
X135342421Y-95745288D02*
X136546609Y-95745288D01*
X134361466Y-95669080D02*
X135266213Y-95669080D01*
X139573000Y-95758000D02*
X140093701Y-96278701D01*
G04 #@! TO.N,/P0.27*
X136766299Y-83872583D02*
X138142782Y-85249066D01*
X135890000Y-81915000D02*
X136766299Y-82791299D01*
X136766299Y-82791299D02*
X136766299Y-83872583D01*
X138142782Y-85249066D02*
X138442781Y-85549065D01*
G04 #@! TO.N,/P0.28*
X133436605Y-81915000D02*
X133350000Y-81915000D01*
X133350000Y-81915000D02*
X134226299Y-82791299D01*
X134226299Y-82791299D02*
X134931698Y-82791299D01*
X138255576Y-86115177D02*
X138255576Y-86277822D01*
X134931698Y-82791299D02*
X138255576Y-86115177D01*
G04 #@! TO.N,/P0.29*
X137688602Y-85979270D02*
X137688602Y-86344006D01*
X137688602Y-86344006D02*
X137686662Y-86345946D01*
X135021332Y-83312000D02*
X137688602Y-85979270D01*
X132207000Y-83312000D02*
X135021332Y-83312000D01*
X137686662Y-86345946D02*
X137686662Y-86770210D01*
X130810000Y-81915000D02*
X132207000Y-83312000D01*
G04 #@! TO.N,/P0.30*
X128270000Y-81915000D02*
X130048000Y-83693000D01*
X136859929Y-85932927D02*
X137159928Y-86232926D01*
X134620002Y-83693000D02*
X136859929Y-85932927D01*
X130048000Y-83693000D02*
X134620002Y-83693000D01*
D20*
G04 #@! TO.N,RAW*
X119761000Y-94996000D02*
X123444000Y-94996000D01*
D21*
X121285000Y-85260264D02*
X121285000Y-84836000D01*
X123444000Y-94996000D02*
X121285000Y-92837000D01*
X121285000Y-92837000D02*
X121285000Y-85260264D01*
G04 #@! TO.N,Net-(C6-Pad1)*
X124079000Y-93599000D02*
X124714000Y-92964000D01*
X124714000Y-92964000D02*
X125907598Y-92964000D01*
D19*
G04 #@! TO.N,/VBus*
X119833000Y-94234000D02*
X119833000Y-89607000D01*
X117584499Y-87358499D02*
X117284500Y-87058500D01*
X119833000Y-89607000D02*
X117584499Y-87358499D01*
X116713000Y-88265000D02*
X116713000Y-87630000D01*
X116984501Y-87358499D02*
X117284500Y-87058500D01*
X116713000Y-87630000D02*
X116984501Y-87358499D01*
D21*
G04 #@! TO.N,Net-(D1-Pad1)*
X115524001Y-85262999D02*
X115824000Y-84963000D01*
X113982500Y-86804500D02*
X115524001Y-85262999D01*
X113982500Y-88256206D02*
X113982500Y-86804500D01*
X118110000Y-91821000D02*
X117547294Y-91821000D01*
X117547294Y-91821000D02*
X113982500Y-88256206D01*
G04 #@! TO.N,/D+*
X117411500Y-89090500D02*
X116537062Y-89964938D01*
X116537062Y-89964938D02*
X116537062Y-90028438D01*
G04 #@! TD*
D20*
G04 #@! TO.N,GND*
G36*
X117310104Y-80597973D02*
X117226604Y-80851999D01*
X118110000Y-81735395D01*
X118993396Y-80851999D01*
X118909896Y-80597973D01*
X118547745Y-80466000D01*
X120168713Y-80466000D01*
X119850104Y-80597973D01*
X119766604Y-80851999D01*
X120650000Y-81735395D01*
X121533396Y-80851999D01*
X121449896Y-80597973D01*
X121087745Y-80466000D01*
X144653000Y-80466000D01*
X144653000Y-98604000D01*
X116051287Y-98604000D01*
X116369896Y-98472027D01*
X116453396Y-98218001D01*
X115570000Y-97334605D01*
X114686604Y-98218001D01*
X114770104Y-98472027D01*
X115132255Y-98604000D01*
X111581000Y-98604000D01*
X111581000Y-96278700D01*
X111765236Y-96278700D01*
X111765236Y-98031300D01*
X111794806Y-98179959D01*
X111879014Y-98305986D01*
X112005041Y-98390194D01*
X112153700Y-98419764D01*
X113906300Y-98419764D01*
X114054959Y-98390194D01*
X114180986Y-98305986D01*
X114265194Y-98179959D01*
X114294764Y-98031300D01*
X114294764Y-97968633D01*
X114506999Y-98038396D01*
X115390395Y-97155000D01*
X114506999Y-96271604D01*
X114294764Y-96341367D01*
X114294764Y-96278700D01*
X114265194Y-96130041D01*
X114180986Y-96004014D01*
X114054959Y-95919806D01*
X113906300Y-95890236D01*
X112153700Y-95890236D01*
X112005041Y-95919806D01*
X111879014Y-96004014D01*
X111794806Y-96130041D01*
X111765236Y-96278700D01*
X111581000Y-96278700D01*
X111581000Y-94088696D01*
X111676053Y-94167390D01*
X112139000Y-94310000D01*
X112489000Y-94310000D01*
X112489000Y-93202000D01*
X112469000Y-93202000D01*
X112469000Y-92948000D01*
X112489000Y-92948000D01*
X112489000Y-91840000D01*
X112139000Y-91840000D01*
X111676053Y-91982610D01*
X111581000Y-92061304D01*
X111581000Y-87088696D01*
X111676053Y-87167390D01*
X112139000Y-87310000D01*
X112489000Y-87310000D01*
X112489000Y-86202000D01*
X112469000Y-86202000D01*
X112469000Y-85948000D01*
X112489000Y-85948000D01*
X112489000Y-84840000D01*
X112139000Y-84840000D01*
X111676053Y-84982610D01*
X111581000Y-85061304D01*
X111581000Y-81664907D01*
X111772700Y-81664907D01*
X111772700Y-82165093D01*
X111964112Y-82627203D01*
X112317797Y-82980888D01*
X112779907Y-83172300D01*
X113280093Y-83172300D01*
X113535096Y-83066674D01*
X114391129Y-83922707D01*
X114416638Y-83960884D01*
X114501983Y-84017910D01*
X114371978Y-84104776D01*
X114346471Y-84142950D01*
X113518383Y-84971039D01*
X113093000Y-84840000D01*
X112743000Y-84840000D01*
X112743000Y-85948000D01*
X112763000Y-85948000D01*
X112763000Y-86202000D01*
X112743000Y-86202000D01*
X112743000Y-87310000D01*
X113080800Y-87310000D01*
X113080801Y-91840000D01*
X112743000Y-91840000D01*
X112743000Y-92948000D01*
X112763000Y-92948000D01*
X112763000Y-93202000D01*
X112743000Y-93202000D01*
X112743000Y-94310000D01*
X113093000Y-94310000D01*
X113555947Y-94167390D01*
X113929080Y-93858474D01*
X114048665Y-93632412D01*
X114594698Y-94178445D01*
X114612158Y-94266222D01*
X114713208Y-94417454D01*
X114751385Y-94442963D01*
X116018250Y-95709828D01*
X115805003Y-95632118D01*
X115204332Y-95658109D01*
X114770104Y-95837973D01*
X114686604Y-96091999D01*
X115570000Y-96975395D01*
X115584143Y-96961253D01*
X115763748Y-97140858D01*
X115749605Y-97155000D01*
X116633001Y-98038396D01*
X116887027Y-97954896D01*
X116977546Y-97706499D01*
X117044112Y-97867203D01*
X117397797Y-98220888D01*
X117859907Y-98412300D01*
X118360093Y-98412300D01*
X118822203Y-98220888D01*
X119175888Y-97867203D01*
X119367300Y-97405093D01*
X119367300Y-96904907D01*
X119175888Y-96442797D01*
X118822203Y-96089112D01*
X118360093Y-95897700D01*
X117859907Y-95897700D01*
X117604904Y-96003325D01*
X115490964Y-93889386D01*
X115473504Y-93801609D01*
X115372454Y-93650377D01*
X115334277Y-93624868D01*
X115154747Y-93445338D01*
X115657444Y-93418949D01*
X116024878Y-93266753D01*
X116089793Y-93028398D01*
X115316000Y-92254605D01*
X115301858Y-92268748D01*
X115122253Y-92089143D01*
X115136395Y-92075000D01*
X114362602Y-91301207D01*
X114124247Y-91366122D01*
X113995200Y-91730640D01*
X113995200Y-88915484D01*
X115929030Y-90849315D01*
X115514854Y-90702688D01*
X114974556Y-90731051D01*
X114607122Y-90883247D01*
X114542207Y-91121602D01*
X115316000Y-91895395D01*
X115330143Y-91881253D01*
X115509748Y-92060858D01*
X115495605Y-92075000D01*
X116269398Y-92848793D01*
X116507753Y-92783878D01*
X116688312Y-92273854D01*
X116659949Y-91733556D01*
X116551534Y-91471819D01*
X117192164Y-92112449D01*
X117217671Y-92150623D01*
X117255845Y-92176130D01*
X117368903Y-92251673D01*
X117547293Y-92287157D01*
X117592323Y-92278200D01*
X117604120Y-92278200D01*
X117724244Y-92398324D01*
X117974541Y-92502000D01*
X118245459Y-92502000D01*
X118495756Y-92398324D01*
X118687324Y-92206756D01*
X118791000Y-91956459D01*
X118791000Y-91685541D01*
X118687324Y-91435244D01*
X118495756Y-91243676D01*
X118245459Y-91140000D01*
X117974541Y-91140000D01*
X117724244Y-91243676D01*
X117670396Y-91297524D01*
X116950726Y-90577854D01*
X117114386Y-90414194D01*
X117218062Y-90163897D01*
X117218062Y-89930516D01*
X117377079Y-89771500D01*
X117546959Y-89771500D01*
X117797256Y-89667824D01*
X117988824Y-89476256D01*
X118092500Y-89225959D01*
X118092500Y-88955041D01*
X117988824Y-88704744D01*
X117797256Y-88513176D01*
X117546959Y-88409500D01*
X117390255Y-88409500D01*
X117394000Y-88400459D01*
X117394000Y-88129541D01*
X117349087Y-88021111D01*
X119198001Y-89870027D01*
X119198000Y-93987487D01*
X119152000Y-94098541D01*
X119152000Y-94369459D01*
X119231802Y-94562118D01*
X119183676Y-94610244D01*
X119080000Y-94860541D01*
X119080000Y-95131459D01*
X119183676Y-95381756D01*
X119375244Y-95573324D01*
X119625541Y-95677000D01*
X119896459Y-95677000D01*
X120146756Y-95573324D01*
X120216080Y-95504000D01*
X121654422Y-95504000D01*
X121155096Y-96003326D01*
X120900093Y-95897700D01*
X120399907Y-95897700D01*
X119937797Y-96089112D01*
X119584112Y-96442797D01*
X119392700Y-96904907D01*
X119392700Y-97405093D01*
X119584112Y-97867203D01*
X119937797Y-98220888D01*
X120399907Y-98412300D01*
X120900093Y-98412300D01*
X121362203Y-98220888D01*
X121715888Y-97867203D01*
X121907300Y-97405093D01*
X121907300Y-96904907D01*
X121801674Y-96649904D01*
X122363378Y-96088200D01*
X122479999Y-96088200D01*
X122477797Y-96089112D01*
X122124112Y-96442797D01*
X121932700Y-96904907D01*
X121932700Y-97405093D01*
X122124112Y-97867203D01*
X122477797Y-98220888D01*
X122939907Y-98412300D01*
X123440093Y-98412300D01*
X123902203Y-98220888D01*
X124255888Y-97867203D01*
X124447300Y-97405093D01*
X124447300Y-96904907D01*
X124341674Y-96649904D01*
X124649379Y-96342200D01*
X124764709Y-96342200D01*
X124664112Y-96442797D01*
X124472700Y-96904907D01*
X124472700Y-97405093D01*
X124664112Y-97867203D01*
X125017797Y-98220888D01*
X125479907Y-98412300D01*
X125980093Y-98412300D01*
X126442203Y-98220888D01*
X126795888Y-97867203D01*
X126987300Y-97405093D01*
X126987300Y-96904907D01*
X126910528Y-96719564D01*
X126961757Y-96709374D01*
X127112989Y-96608324D01*
X127138498Y-96570147D01*
X127160458Y-96548187D01*
X127012700Y-96904907D01*
X127012700Y-97405093D01*
X127204112Y-97867203D01*
X127557797Y-98220888D01*
X128019907Y-98412300D01*
X128520093Y-98412300D01*
X128982203Y-98220888D01*
X129335888Y-97867203D01*
X129527300Y-97405093D01*
X129527300Y-96904907D01*
X129335888Y-96442797D01*
X128982203Y-96089112D01*
X128813196Y-96019107D01*
X128920362Y-95911941D01*
X129658326Y-96649904D01*
X129552700Y-96904907D01*
X129552700Y-97405093D01*
X129744112Y-97867203D01*
X130097797Y-98220888D01*
X130559907Y-98412300D01*
X131060093Y-98412300D01*
X131522203Y-98220888D01*
X131875888Y-97867203D01*
X132067300Y-97405093D01*
X132067300Y-96904907D01*
X131875888Y-96442797D01*
X131775291Y-96342200D01*
X131890622Y-96342200D01*
X132198326Y-96649904D01*
X132092700Y-96904907D01*
X132092700Y-97405093D01*
X132284112Y-97867203D01*
X132637797Y-98220888D01*
X133099907Y-98412300D01*
X133600093Y-98412300D01*
X134062203Y-98220888D01*
X134415888Y-97867203D01*
X134607300Y-97405093D01*
X134607300Y-96904907D01*
X134537296Y-96735901D01*
X134702704Y-96735901D01*
X134632700Y-96904907D01*
X134632700Y-97405093D01*
X134824112Y-97867203D01*
X135177797Y-98220888D01*
X135639907Y-98412300D01*
X136140093Y-98412300D01*
X136602203Y-98220888D01*
X136955888Y-97867203D01*
X137147300Y-97405093D01*
X137147300Y-96904907D01*
X137077296Y-96735901D01*
X137242704Y-96735901D01*
X137172700Y-96904907D01*
X137172700Y-97405093D01*
X137364112Y-97867203D01*
X137717797Y-98220888D01*
X138179907Y-98412300D01*
X138680093Y-98412300D01*
X139142203Y-98220888D01*
X139495888Y-97867203D01*
X139687300Y-97405093D01*
X139687300Y-96904907D01*
X139495888Y-96442797D01*
X139268291Y-96215200D01*
X139383622Y-96215200D01*
X139818326Y-96649904D01*
X139712700Y-96904907D01*
X139712700Y-97405093D01*
X139904112Y-97867203D01*
X140257797Y-98220888D01*
X140719907Y-98412300D01*
X141220093Y-98412300D01*
X141682203Y-98220888D01*
X142035888Y-97867203D01*
X142227300Y-97405093D01*
X142227300Y-96904907D01*
X142035888Y-96442797D01*
X141682203Y-96089112D01*
X141220093Y-95897700D01*
X140719907Y-95897700D01*
X140464904Y-96003326D01*
X140042128Y-95580550D01*
X140186253Y-95436425D01*
X140237841Y-95470894D01*
X140386500Y-95500464D01*
X142786500Y-95500464D01*
X142935159Y-95470894D01*
X143061186Y-95386686D01*
X143145394Y-95260659D01*
X143174964Y-95112000D01*
X143174964Y-94372000D01*
X143145394Y-94223341D01*
X143067658Y-94107000D01*
X143145394Y-93990659D01*
X143174964Y-93842000D01*
X143174964Y-93102000D01*
X143145394Y-92953341D01*
X143061186Y-92827314D01*
X142935159Y-92743106D01*
X142786500Y-92713536D01*
X140386500Y-92713536D01*
X140237841Y-92743106D01*
X140186253Y-92777575D01*
X139990631Y-92581953D01*
X139965122Y-92543776D01*
X139813890Y-92442726D01*
X139680529Y-92416199D01*
X139635499Y-92407242D01*
X139590469Y-92416199D01*
X136687134Y-92416199D01*
X138222133Y-90881200D01*
X138384970Y-90881200D01*
X138430000Y-90890157D01*
X138475030Y-90881200D01*
X138608391Y-90854673D01*
X138759623Y-90753623D01*
X138785132Y-90715446D01*
X139229446Y-90271132D01*
X139267623Y-90245623D01*
X139368673Y-90094391D01*
X139375373Y-90060707D01*
X139515324Y-89920756D01*
X139619000Y-89670459D01*
X139619000Y-89399541D01*
X139515324Y-89149244D01*
X139323756Y-88957676D01*
X139073459Y-88854000D01*
X138982167Y-88854000D01*
X138836213Y-88756476D01*
X138688033Y-88727001D01*
X138688029Y-88727001D01*
X138638001Y-88717050D01*
X138593352Y-88725931D01*
X134633588Y-84766168D01*
X134605247Y-84723753D01*
X134437212Y-84611475D01*
X134412000Y-84606460D01*
X134412000Y-84446541D01*
X134308324Y-84196244D01*
X134262280Y-84150200D01*
X134430624Y-84150200D01*
X136478928Y-86198505D01*
X136478928Y-86368385D01*
X136582604Y-86618682D01*
X136774172Y-86810250D01*
X137005895Y-86906233D01*
X137109338Y-87155966D01*
X137300906Y-87347534D01*
X137551203Y-87451210D01*
X137822121Y-87451210D01*
X138072418Y-87347534D01*
X138263986Y-87155966D01*
X138345645Y-86958822D01*
X138391035Y-86958822D01*
X138641332Y-86855146D01*
X138832900Y-86663578D01*
X138936576Y-86413281D01*
X138936576Y-86224719D01*
X139061399Y-86276422D01*
X139332317Y-86276422D01*
X139582614Y-86172746D01*
X139637640Y-86117720D01*
X139695244Y-86175324D01*
X139945541Y-86279000D01*
X140216459Y-86279000D01*
X140466756Y-86175324D01*
X140658324Y-85983756D01*
X140762000Y-85733459D01*
X140762000Y-85563578D01*
X141261449Y-85064130D01*
X141299623Y-85038623D01*
X141400673Y-84887391D01*
X141405090Y-84865187D01*
X141436157Y-84709001D01*
X141427200Y-84663971D01*
X141427200Y-83086514D01*
X141682203Y-82980888D01*
X142035888Y-82627203D01*
X142227300Y-82165093D01*
X142227300Y-81664907D01*
X142035888Y-81202797D01*
X141682203Y-80849112D01*
X141220093Y-80657700D01*
X140719907Y-80657700D01*
X140257797Y-80849112D01*
X139904112Y-81202797D01*
X139712700Y-81664907D01*
X139712700Y-82165093D01*
X139904112Y-82627203D01*
X140257797Y-82980888D01*
X140512800Y-83086514D01*
X140512801Y-84519620D01*
X140115422Y-84917000D01*
X139945541Y-84917000D01*
X139695244Y-85020676D01*
X139640218Y-85075702D01*
X139582614Y-85018098D01*
X139332317Y-84914422D01*
X139229972Y-84914422D01*
X138887200Y-84571651D01*
X138887200Y-83086514D01*
X139142203Y-82980888D01*
X139495888Y-82627203D01*
X139687300Y-82165093D01*
X139687300Y-81664907D01*
X139495888Y-81202797D01*
X139142203Y-80849112D01*
X138680093Y-80657700D01*
X138179907Y-80657700D01*
X137717797Y-80849112D01*
X137364112Y-81202797D01*
X137172700Y-81664907D01*
X137172700Y-82165093D01*
X137364112Y-82627203D01*
X137717797Y-82980888D01*
X137972800Y-83086514D01*
X137972801Y-84432506D01*
X137223499Y-83683205D01*
X137223499Y-82836329D01*
X137232456Y-82791299D01*
X137196972Y-82612908D01*
X137121429Y-82499850D01*
X137095922Y-82461676D01*
X137057748Y-82436169D01*
X137041675Y-82420096D01*
X137147300Y-82165093D01*
X137147300Y-81664907D01*
X136955888Y-81202797D01*
X136602203Y-80849112D01*
X136140093Y-80657700D01*
X135639907Y-80657700D01*
X135177797Y-80849112D01*
X134824112Y-81202797D01*
X134632700Y-81664907D01*
X134632700Y-82165093D01*
X134702704Y-82334099D01*
X134537296Y-82334099D01*
X134607300Y-82165093D01*
X134607300Y-81664907D01*
X134415888Y-81202797D01*
X134062203Y-80849112D01*
X133600093Y-80657700D01*
X133099907Y-80657700D01*
X132637797Y-80849112D01*
X132284112Y-81202797D01*
X132092700Y-81664907D01*
X132092700Y-82165093D01*
X132284112Y-82627203D01*
X132511709Y-82854800D01*
X132396378Y-82854800D01*
X131961674Y-82420096D01*
X132067300Y-82165093D01*
X132067300Y-81664907D01*
X131875888Y-81202797D01*
X131522203Y-80849112D01*
X131060093Y-80657700D01*
X130559907Y-80657700D01*
X130097797Y-80849112D01*
X129744112Y-81202797D01*
X129552700Y-81664907D01*
X129552700Y-82165093D01*
X129744112Y-82627203D01*
X130097797Y-82980888D01*
X130559907Y-83172300D01*
X131060093Y-83172300D01*
X131315096Y-83066674D01*
X131484222Y-83235800D01*
X130237378Y-83235800D01*
X129421674Y-82420096D01*
X129527300Y-82165093D01*
X129527300Y-81664907D01*
X129335888Y-81202797D01*
X128982203Y-80849112D01*
X128520093Y-80657700D01*
X128019907Y-80657700D01*
X127557797Y-80849112D01*
X127204112Y-81202797D01*
X127012700Y-81664907D01*
X127012700Y-82165093D01*
X127204112Y-82627203D01*
X127557797Y-82980888D01*
X128019907Y-83172300D01*
X128520093Y-83172300D01*
X128775096Y-83066674D01*
X129692868Y-83984446D01*
X129718377Y-84022623D01*
X129803154Y-84079269D01*
X129869609Y-84123673D01*
X130048000Y-84159157D01*
X130093030Y-84150200D01*
X133199720Y-84150200D01*
X133153676Y-84196244D01*
X133050000Y-84446541D01*
X133050000Y-84717459D01*
X133153676Y-84967756D01*
X133207750Y-85021830D01*
X132457165Y-85772415D01*
X132397797Y-85629086D01*
X132206229Y-85437518D01*
X131955932Y-85333842D01*
X131786051Y-85333842D01*
X131492107Y-85039898D01*
X131466598Y-85001721D01*
X131315366Y-84900671D01*
X131182005Y-84874144D01*
X131136975Y-84865187D01*
X131091945Y-84874144D01*
X129335723Y-84874144D01*
X126881674Y-82420096D01*
X126987300Y-82165093D01*
X126987300Y-81664907D01*
X126795888Y-81202797D01*
X126442203Y-80849112D01*
X125980093Y-80657700D01*
X125479907Y-80657700D01*
X125017797Y-80849112D01*
X124664112Y-81202797D01*
X124472700Y-81664907D01*
X124472700Y-82165093D01*
X124664112Y-82627203D01*
X125017797Y-82980888D01*
X125479907Y-83172300D01*
X125980093Y-83172300D01*
X126235096Y-83066674D01*
X128347376Y-85178955D01*
X127100534Y-85178955D01*
X124341674Y-82420096D01*
X124447300Y-82165093D01*
X124447300Y-81664907D01*
X124255888Y-81202797D01*
X123902203Y-80849112D01*
X123440093Y-80657700D01*
X122939907Y-80657700D01*
X122477797Y-80849112D01*
X122124112Y-81202797D01*
X122063732Y-81348568D01*
X121967027Y-81115104D01*
X121713001Y-81031604D01*
X120829605Y-81915000D01*
X120843748Y-81929143D01*
X120664143Y-82108748D01*
X120650000Y-82094605D01*
X120635858Y-82108748D01*
X120456253Y-81929143D01*
X120470395Y-81915000D01*
X119586999Y-81031604D01*
X119380000Y-81099646D01*
X119173001Y-81031604D01*
X118289605Y-81915000D01*
X118303748Y-81929143D01*
X118124143Y-82108748D01*
X118110000Y-82094605D01*
X118095858Y-82108748D01*
X117916253Y-81929143D01*
X117930395Y-81915000D01*
X117046999Y-81031604D01*
X116792973Y-81115104D01*
X116702454Y-81363501D01*
X116635888Y-81202797D01*
X116282203Y-80849112D01*
X115820093Y-80657700D01*
X115319907Y-80657700D01*
X114857797Y-80849112D01*
X114504112Y-81202797D01*
X114312700Y-81664907D01*
X114312700Y-82165093D01*
X114504112Y-82627203D01*
X114857797Y-82980888D01*
X115319907Y-83172300D01*
X115820093Y-83172300D01*
X116075096Y-83066674D01*
X116182483Y-83174061D01*
X114935639Y-83174061D01*
X114181674Y-82420096D01*
X114287300Y-82165093D01*
X114287300Y-81664907D01*
X114095888Y-81202797D01*
X113742203Y-80849112D01*
X113280093Y-80657700D01*
X112779907Y-80657700D01*
X112317797Y-80849112D01*
X111964112Y-81202797D01*
X111772700Y-81664907D01*
X111581000Y-81664907D01*
X111581000Y-80466000D01*
X117628713Y-80466000D01*
X117310104Y-80597973D01*
X117310104Y-80597973D01*
G37*
X117310104Y-80597973D02*
X117226604Y-80851999D01*
X118110000Y-81735395D01*
X118993396Y-80851999D01*
X118909896Y-80597973D01*
X118547745Y-80466000D01*
X120168713Y-80466000D01*
X119850104Y-80597973D01*
X119766604Y-80851999D01*
X120650000Y-81735395D01*
X121533396Y-80851999D01*
X121449896Y-80597973D01*
X121087745Y-80466000D01*
X144653000Y-80466000D01*
X144653000Y-98604000D01*
X116051287Y-98604000D01*
X116369896Y-98472027D01*
X116453396Y-98218001D01*
X115570000Y-97334605D01*
X114686604Y-98218001D01*
X114770104Y-98472027D01*
X115132255Y-98604000D01*
X111581000Y-98604000D01*
X111581000Y-96278700D01*
X111765236Y-96278700D01*
X111765236Y-98031300D01*
X111794806Y-98179959D01*
X111879014Y-98305986D01*
X112005041Y-98390194D01*
X112153700Y-98419764D01*
X113906300Y-98419764D01*
X114054959Y-98390194D01*
X114180986Y-98305986D01*
X114265194Y-98179959D01*
X114294764Y-98031300D01*
X114294764Y-97968633D01*
X114506999Y-98038396D01*
X115390395Y-97155000D01*
X114506999Y-96271604D01*
X114294764Y-96341367D01*
X114294764Y-96278700D01*
X114265194Y-96130041D01*
X114180986Y-96004014D01*
X114054959Y-95919806D01*
X113906300Y-95890236D01*
X112153700Y-95890236D01*
X112005041Y-95919806D01*
X111879014Y-96004014D01*
X111794806Y-96130041D01*
X111765236Y-96278700D01*
X111581000Y-96278700D01*
X111581000Y-94088696D01*
X111676053Y-94167390D01*
X112139000Y-94310000D01*
X112489000Y-94310000D01*
X112489000Y-93202000D01*
X112469000Y-93202000D01*
X112469000Y-92948000D01*
X112489000Y-92948000D01*
X112489000Y-91840000D01*
X112139000Y-91840000D01*
X111676053Y-91982610D01*
X111581000Y-92061304D01*
X111581000Y-87088696D01*
X111676053Y-87167390D01*
X112139000Y-87310000D01*
X112489000Y-87310000D01*
X112489000Y-86202000D01*
X112469000Y-86202000D01*
X112469000Y-85948000D01*
X112489000Y-85948000D01*
X112489000Y-84840000D01*
X112139000Y-84840000D01*
X111676053Y-84982610D01*
X111581000Y-85061304D01*
X111581000Y-81664907D01*
X111772700Y-81664907D01*
X111772700Y-82165093D01*
X111964112Y-82627203D01*
X112317797Y-82980888D01*
X112779907Y-83172300D01*
X113280093Y-83172300D01*
X113535096Y-83066674D01*
X114391129Y-83922707D01*
X114416638Y-83960884D01*
X114501983Y-84017910D01*
X114371978Y-84104776D01*
X114346471Y-84142950D01*
X113518383Y-84971039D01*
X113093000Y-84840000D01*
X112743000Y-84840000D01*
X112743000Y-85948000D01*
X112763000Y-85948000D01*
X112763000Y-86202000D01*
X112743000Y-86202000D01*
X112743000Y-87310000D01*
X113080800Y-87310000D01*
X113080801Y-91840000D01*
X112743000Y-91840000D01*
X112743000Y-92948000D01*
X112763000Y-92948000D01*
X112763000Y-93202000D01*
X112743000Y-93202000D01*
X112743000Y-94310000D01*
X113093000Y-94310000D01*
X113555947Y-94167390D01*
X113929080Y-93858474D01*
X114048665Y-93632412D01*
X114594698Y-94178445D01*
X114612158Y-94266222D01*
X114713208Y-94417454D01*
X114751385Y-94442963D01*
X116018250Y-95709828D01*
X115805003Y-95632118D01*
X115204332Y-95658109D01*
X114770104Y-95837973D01*
X114686604Y-96091999D01*
X115570000Y-96975395D01*
X115584143Y-96961253D01*
X115763748Y-97140858D01*
X115749605Y-97155000D01*
X116633001Y-98038396D01*
X116887027Y-97954896D01*
X116977546Y-97706499D01*
X117044112Y-97867203D01*
X117397797Y-98220888D01*
X117859907Y-98412300D01*
X118360093Y-98412300D01*
X118822203Y-98220888D01*
X119175888Y-97867203D01*
X119367300Y-97405093D01*
X119367300Y-96904907D01*
X119175888Y-96442797D01*
X118822203Y-96089112D01*
X118360093Y-95897700D01*
X117859907Y-95897700D01*
X117604904Y-96003325D01*
X115490964Y-93889386D01*
X115473504Y-93801609D01*
X115372454Y-93650377D01*
X115334277Y-93624868D01*
X115154747Y-93445338D01*
X115657444Y-93418949D01*
X116024878Y-93266753D01*
X116089793Y-93028398D01*
X115316000Y-92254605D01*
X115301858Y-92268748D01*
X115122253Y-92089143D01*
X115136395Y-92075000D01*
X114362602Y-91301207D01*
X114124247Y-91366122D01*
X113995200Y-91730640D01*
X113995200Y-88915484D01*
X115929030Y-90849315D01*
X115514854Y-90702688D01*
X114974556Y-90731051D01*
X114607122Y-90883247D01*
X114542207Y-91121602D01*
X115316000Y-91895395D01*
X115330143Y-91881253D01*
X115509748Y-92060858D01*
X115495605Y-92075000D01*
X116269398Y-92848793D01*
X116507753Y-92783878D01*
X116688312Y-92273854D01*
X116659949Y-91733556D01*
X116551534Y-91471819D01*
X117192164Y-92112449D01*
X117217671Y-92150623D01*
X117255845Y-92176130D01*
X117368903Y-92251673D01*
X117547293Y-92287157D01*
X117592323Y-92278200D01*
X117604120Y-92278200D01*
X117724244Y-92398324D01*
X117974541Y-92502000D01*
X118245459Y-92502000D01*
X118495756Y-92398324D01*
X118687324Y-92206756D01*
X118791000Y-91956459D01*
X118791000Y-91685541D01*
X118687324Y-91435244D01*
X118495756Y-91243676D01*
X118245459Y-91140000D01*
X117974541Y-91140000D01*
X117724244Y-91243676D01*
X117670396Y-91297524D01*
X116950726Y-90577854D01*
X117114386Y-90414194D01*
X117218062Y-90163897D01*
X117218062Y-89930516D01*
X117377079Y-89771500D01*
X117546959Y-89771500D01*
X117797256Y-89667824D01*
X117988824Y-89476256D01*
X118092500Y-89225959D01*
X118092500Y-88955041D01*
X117988824Y-88704744D01*
X117797256Y-88513176D01*
X117546959Y-88409500D01*
X117390255Y-88409500D01*
X117394000Y-88400459D01*
X117394000Y-88129541D01*
X117349087Y-88021111D01*
X119198001Y-89870027D01*
X119198000Y-93987487D01*
X119152000Y-94098541D01*
X119152000Y-94369459D01*
X119231802Y-94562118D01*
X119183676Y-94610244D01*
X119080000Y-94860541D01*
X119080000Y-95131459D01*
X119183676Y-95381756D01*
X119375244Y-95573324D01*
X119625541Y-95677000D01*
X119896459Y-95677000D01*
X120146756Y-95573324D01*
X120216080Y-95504000D01*
X121654422Y-95504000D01*
X121155096Y-96003326D01*
X120900093Y-95897700D01*
X120399907Y-95897700D01*
X119937797Y-96089112D01*
X119584112Y-96442797D01*
X119392700Y-96904907D01*
X119392700Y-97405093D01*
X119584112Y-97867203D01*
X119937797Y-98220888D01*
X120399907Y-98412300D01*
X120900093Y-98412300D01*
X121362203Y-98220888D01*
X121715888Y-97867203D01*
X121907300Y-97405093D01*
X121907300Y-96904907D01*
X121801674Y-96649904D01*
X122363378Y-96088200D01*
X122479999Y-96088200D01*
X122477797Y-96089112D01*
X122124112Y-96442797D01*
X121932700Y-96904907D01*
X121932700Y-97405093D01*
X122124112Y-97867203D01*
X122477797Y-98220888D01*
X122939907Y-98412300D01*
X123440093Y-98412300D01*
X123902203Y-98220888D01*
X124255888Y-97867203D01*
X124447300Y-97405093D01*
X124447300Y-96904907D01*
X124341674Y-96649904D01*
X124649379Y-96342200D01*
X124764709Y-96342200D01*
X124664112Y-96442797D01*
X124472700Y-96904907D01*
X124472700Y-97405093D01*
X124664112Y-97867203D01*
X125017797Y-98220888D01*
X125479907Y-98412300D01*
X125980093Y-98412300D01*
X126442203Y-98220888D01*
X126795888Y-97867203D01*
X126987300Y-97405093D01*
X126987300Y-96904907D01*
X126910528Y-96719564D01*
X126961757Y-96709374D01*
X127112989Y-96608324D01*
X127138498Y-96570147D01*
X127160458Y-96548187D01*
X127012700Y-96904907D01*
X127012700Y-97405093D01*
X127204112Y-97867203D01*
X127557797Y-98220888D01*
X128019907Y-98412300D01*
X128520093Y-98412300D01*
X128982203Y-98220888D01*
X129335888Y-97867203D01*
X129527300Y-97405093D01*
X129527300Y-96904907D01*
X129335888Y-96442797D01*
X128982203Y-96089112D01*
X128813196Y-96019107D01*
X128920362Y-95911941D01*
X129658326Y-96649904D01*
X129552700Y-96904907D01*
X129552700Y-97405093D01*
X129744112Y-97867203D01*
X130097797Y-98220888D01*
X130559907Y-98412300D01*
X131060093Y-98412300D01*
X131522203Y-98220888D01*
X131875888Y-97867203D01*
X132067300Y-97405093D01*
X132067300Y-96904907D01*
X131875888Y-96442797D01*
X131775291Y-96342200D01*
X131890622Y-96342200D01*
X132198326Y-96649904D01*
X132092700Y-96904907D01*
X132092700Y-97405093D01*
X132284112Y-97867203D01*
X132637797Y-98220888D01*
X133099907Y-98412300D01*
X133600093Y-98412300D01*
X134062203Y-98220888D01*
X134415888Y-97867203D01*
X134607300Y-97405093D01*
X134607300Y-96904907D01*
X134537296Y-96735901D01*
X134702704Y-96735901D01*
X134632700Y-96904907D01*
X134632700Y-97405093D01*
X134824112Y-97867203D01*
X135177797Y-98220888D01*
X135639907Y-98412300D01*
X136140093Y-98412300D01*
X136602203Y-98220888D01*
X136955888Y-97867203D01*
X137147300Y-97405093D01*
X137147300Y-96904907D01*
X137077296Y-96735901D01*
X137242704Y-96735901D01*
X137172700Y-96904907D01*
X137172700Y-97405093D01*
X137364112Y-97867203D01*
X137717797Y-98220888D01*
X138179907Y-98412300D01*
X138680093Y-98412300D01*
X139142203Y-98220888D01*
X139495888Y-97867203D01*
X139687300Y-97405093D01*
X139687300Y-96904907D01*
X139495888Y-96442797D01*
X139268291Y-96215200D01*
X139383622Y-96215200D01*
X139818326Y-96649904D01*
X139712700Y-96904907D01*
X139712700Y-97405093D01*
X139904112Y-97867203D01*
X140257797Y-98220888D01*
X140719907Y-98412300D01*
X141220093Y-98412300D01*
X141682203Y-98220888D01*
X142035888Y-97867203D01*
X142227300Y-97405093D01*
X142227300Y-96904907D01*
X142035888Y-96442797D01*
X141682203Y-96089112D01*
X141220093Y-95897700D01*
X140719907Y-95897700D01*
X140464904Y-96003326D01*
X140042128Y-95580550D01*
X140186253Y-95436425D01*
X140237841Y-95470894D01*
X140386500Y-95500464D01*
X142786500Y-95500464D01*
X142935159Y-95470894D01*
X143061186Y-95386686D01*
X143145394Y-95260659D01*
X143174964Y-95112000D01*
X143174964Y-94372000D01*
X143145394Y-94223341D01*
X143067658Y-94107000D01*
X143145394Y-93990659D01*
X143174964Y-93842000D01*
X143174964Y-93102000D01*
X143145394Y-92953341D01*
X143061186Y-92827314D01*
X142935159Y-92743106D01*
X142786500Y-92713536D01*
X140386500Y-92713536D01*
X140237841Y-92743106D01*
X140186253Y-92777575D01*
X139990631Y-92581953D01*
X139965122Y-92543776D01*
X139813890Y-92442726D01*
X139680529Y-92416199D01*
X139635499Y-92407242D01*
X139590469Y-92416199D01*
X136687134Y-92416199D01*
X138222133Y-90881200D01*
X138384970Y-90881200D01*
X138430000Y-90890157D01*
X138475030Y-90881200D01*
X138608391Y-90854673D01*
X138759623Y-90753623D01*
X138785132Y-90715446D01*
X139229446Y-90271132D01*
X139267623Y-90245623D01*
X139368673Y-90094391D01*
X139375373Y-90060707D01*
X139515324Y-89920756D01*
X139619000Y-89670459D01*
X139619000Y-89399541D01*
X139515324Y-89149244D01*
X139323756Y-88957676D01*
X139073459Y-88854000D01*
X138982167Y-88854000D01*
X138836213Y-88756476D01*
X138688033Y-88727001D01*
X138688029Y-88727001D01*
X138638001Y-88717050D01*
X138593352Y-88725931D01*
X134633588Y-84766168D01*
X134605247Y-84723753D01*
X134437212Y-84611475D01*
X134412000Y-84606460D01*
X134412000Y-84446541D01*
X134308324Y-84196244D01*
X134262280Y-84150200D01*
X134430624Y-84150200D01*
X136478928Y-86198505D01*
X136478928Y-86368385D01*
X136582604Y-86618682D01*
X136774172Y-86810250D01*
X137005895Y-86906233D01*
X137109338Y-87155966D01*
X137300906Y-87347534D01*
X137551203Y-87451210D01*
X137822121Y-87451210D01*
X138072418Y-87347534D01*
X138263986Y-87155966D01*
X138345645Y-86958822D01*
X138391035Y-86958822D01*
X138641332Y-86855146D01*
X138832900Y-86663578D01*
X138936576Y-86413281D01*
X138936576Y-86224719D01*
X139061399Y-86276422D01*
X139332317Y-86276422D01*
X139582614Y-86172746D01*
X139637640Y-86117720D01*
X139695244Y-86175324D01*
X139945541Y-86279000D01*
X140216459Y-86279000D01*
X140466756Y-86175324D01*
X140658324Y-85983756D01*
X140762000Y-85733459D01*
X140762000Y-85563578D01*
X141261449Y-85064130D01*
X141299623Y-85038623D01*
X141400673Y-84887391D01*
X141405090Y-84865187D01*
X141436157Y-84709001D01*
X141427200Y-84663971D01*
X141427200Y-83086514D01*
X141682203Y-82980888D01*
X142035888Y-82627203D01*
X142227300Y-82165093D01*
X142227300Y-81664907D01*
X142035888Y-81202797D01*
X141682203Y-80849112D01*
X141220093Y-80657700D01*
X140719907Y-80657700D01*
X140257797Y-80849112D01*
X139904112Y-81202797D01*
X139712700Y-81664907D01*
X139712700Y-82165093D01*
X139904112Y-82627203D01*
X140257797Y-82980888D01*
X140512800Y-83086514D01*
X140512801Y-84519620D01*
X140115422Y-84917000D01*
X139945541Y-84917000D01*
X139695244Y-85020676D01*
X139640218Y-85075702D01*
X139582614Y-85018098D01*
X139332317Y-84914422D01*
X139229972Y-84914422D01*
X138887200Y-84571651D01*
X138887200Y-83086514D01*
X139142203Y-82980888D01*
X139495888Y-82627203D01*
X139687300Y-82165093D01*
X139687300Y-81664907D01*
X139495888Y-81202797D01*
X139142203Y-80849112D01*
X138680093Y-80657700D01*
X138179907Y-80657700D01*
X137717797Y-80849112D01*
X137364112Y-81202797D01*
X137172700Y-81664907D01*
X137172700Y-82165093D01*
X137364112Y-82627203D01*
X137717797Y-82980888D01*
X137972800Y-83086514D01*
X137972801Y-84432506D01*
X137223499Y-83683205D01*
X137223499Y-82836329D01*
X137232456Y-82791299D01*
X137196972Y-82612908D01*
X137121429Y-82499850D01*
X137095922Y-82461676D01*
X137057748Y-82436169D01*
X137041675Y-82420096D01*
X137147300Y-82165093D01*
X137147300Y-81664907D01*
X136955888Y-81202797D01*
X136602203Y-80849112D01*
X136140093Y-80657700D01*
X135639907Y-80657700D01*
X135177797Y-80849112D01*
X134824112Y-81202797D01*
X134632700Y-81664907D01*
X134632700Y-82165093D01*
X134702704Y-82334099D01*
X134537296Y-82334099D01*
X134607300Y-82165093D01*
X134607300Y-81664907D01*
X134415888Y-81202797D01*
X134062203Y-80849112D01*
X133600093Y-80657700D01*
X133099907Y-80657700D01*
X132637797Y-80849112D01*
X132284112Y-81202797D01*
X132092700Y-81664907D01*
X132092700Y-82165093D01*
X132284112Y-82627203D01*
X132511709Y-82854800D01*
X132396378Y-82854800D01*
X131961674Y-82420096D01*
X132067300Y-82165093D01*
X132067300Y-81664907D01*
X131875888Y-81202797D01*
X131522203Y-80849112D01*
X131060093Y-80657700D01*
X130559907Y-80657700D01*
X130097797Y-80849112D01*
X129744112Y-81202797D01*
X129552700Y-81664907D01*
X129552700Y-82165093D01*
X129744112Y-82627203D01*
X130097797Y-82980888D01*
X130559907Y-83172300D01*
X131060093Y-83172300D01*
X131315096Y-83066674D01*
X131484222Y-83235800D01*
X130237378Y-83235800D01*
X129421674Y-82420096D01*
X129527300Y-82165093D01*
X129527300Y-81664907D01*
X129335888Y-81202797D01*
X128982203Y-80849112D01*
X128520093Y-80657700D01*
X128019907Y-80657700D01*
X127557797Y-80849112D01*
X127204112Y-81202797D01*
X127012700Y-81664907D01*
X127012700Y-82165093D01*
X127204112Y-82627203D01*
X127557797Y-82980888D01*
X128019907Y-83172300D01*
X128520093Y-83172300D01*
X128775096Y-83066674D01*
X129692868Y-83984446D01*
X129718377Y-84022623D01*
X129803154Y-84079269D01*
X129869609Y-84123673D01*
X130048000Y-84159157D01*
X130093030Y-84150200D01*
X133199720Y-84150200D01*
X133153676Y-84196244D01*
X133050000Y-84446541D01*
X133050000Y-84717459D01*
X133153676Y-84967756D01*
X133207750Y-85021830D01*
X132457165Y-85772415D01*
X132397797Y-85629086D01*
X132206229Y-85437518D01*
X131955932Y-85333842D01*
X131786051Y-85333842D01*
X131492107Y-85039898D01*
X131466598Y-85001721D01*
X131315366Y-84900671D01*
X131182005Y-84874144D01*
X131136975Y-84865187D01*
X131091945Y-84874144D01*
X129335723Y-84874144D01*
X126881674Y-82420096D01*
X126987300Y-82165093D01*
X126987300Y-81664907D01*
X126795888Y-81202797D01*
X126442203Y-80849112D01*
X125980093Y-80657700D01*
X125479907Y-80657700D01*
X125017797Y-80849112D01*
X124664112Y-81202797D01*
X124472700Y-81664907D01*
X124472700Y-82165093D01*
X124664112Y-82627203D01*
X125017797Y-82980888D01*
X125479907Y-83172300D01*
X125980093Y-83172300D01*
X126235096Y-83066674D01*
X128347376Y-85178955D01*
X127100534Y-85178955D01*
X124341674Y-82420096D01*
X124447300Y-82165093D01*
X124447300Y-81664907D01*
X124255888Y-81202797D01*
X123902203Y-80849112D01*
X123440093Y-80657700D01*
X122939907Y-80657700D01*
X122477797Y-80849112D01*
X122124112Y-81202797D01*
X122063732Y-81348568D01*
X121967027Y-81115104D01*
X121713001Y-81031604D01*
X120829605Y-81915000D01*
X120843748Y-81929143D01*
X120664143Y-82108748D01*
X120650000Y-82094605D01*
X120635858Y-82108748D01*
X120456253Y-81929143D01*
X120470395Y-81915000D01*
X119586999Y-81031604D01*
X119380000Y-81099646D01*
X119173001Y-81031604D01*
X118289605Y-81915000D01*
X118303748Y-81929143D01*
X118124143Y-82108748D01*
X118110000Y-82094605D01*
X118095858Y-82108748D01*
X117916253Y-81929143D01*
X117930395Y-81915000D01*
X117046999Y-81031604D01*
X116792973Y-81115104D01*
X116702454Y-81363501D01*
X116635888Y-81202797D01*
X116282203Y-80849112D01*
X115820093Y-80657700D01*
X115319907Y-80657700D01*
X114857797Y-80849112D01*
X114504112Y-81202797D01*
X114312700Y-81664907D01*
X114312700Y-82165093D01*
X114504112Y-82627203D01*
X114857797Y-82980888D01*
X115319907Y-83172300D01*
X115820093Y-83172300D01*
X116075096Y-83066674D01*
X116182483Y-83174061D01*
X114935639Y-83174061D01*
X114181674Y-82420096D01*
X114287300Y-82165093D01*
X114287300Y-81664907D01*
X114095888Y-81202797D01*
X113742203Y-80849112D01*
X113280093Y-80657700D01*
X112779907Y-80657700D01*
X112317797Y-80849112D01*
X111964112Y-81202797D01*
X111772700Y-81664907D01*
X111581000Y-81664907D01*
X111581000Y-80466000D01*
X117628713Y-80466000D01*
X117310104Y-80597973D01*
G36*
X121831884Y-85964034D02*
X121961092Y-86093242D01*
X121978535Y-86180932D01*
X122079585Y-86332165D01*
X122117762Y-86357674D01*
X122390935Y-86630847D01*
X122416442Y-86669022D01*
X122513024Y-86733556D01*
X122567674Y-86770072D01*
X122746065Y-86805556D01*
X122791095Y-86796599D01*
X123000351Y-86796599D01*
X124780800Y-88577049D01*
X124806307Y-88615223D01*
X124844481Y-88640730D01*
X124957539Y-88716273D01*
X125135930Y-88751757D01*
X125180960Y-88742800D01*
X127142610Y-88742800D01*
X127081000Y-88891541D01*
X127081000Y-89162459D01*
X127184676Y-89412756D01*
X127376244Y-89604324D01*
X127626541Y-89708000D01*
X127796422Y-89708000D01*
X127812800Y-89724378D01*
X127812801Y-94171621D01*
X126556622Y-95427800D01*
X124801778Y-95427800D01*
X126173379Y-94056200D01*
X126367120Y-94056200D01*
X126487244Y-94176324D01*
X126737541Y-94280000D01*
X127008459Y-94280000D01*
X127258756Y-94176324D01*
X127450324Y-93984756D01*
X127554000Y-93734459D01*
X127554000Y-93463541D01*
X127450324Y-93213244D01*
X127258756Y-93021676D01*
X127008459Y-92918000D01*
X126737541Y-92918000D01*
X126588598Y-92979694D01*
X126588598Y-92828541D01*
X126484922Y-92578244D01*
X126293354Y-92386676D01*
X126043057Y-92283000D01*
X125772139Y-92283000D01*
X125521842Y-92386676D01*
X125401718Y-92506800D01*
X124759030Y-92506800D01*
X124714000Y-92497843D01*
X124668970Y-92506800D01*
X124535609Y-92533327D01*
X124384377Y-92634377D01*
X124358868Y-92672554D01*
X124113422Y-92918000D01*
X123943541Y-92918000D01*
X123693244Y-93021676D01*
X123501676Y-93213244D01*
X123398000Y-93463541D01*
X123398000Y-93734459D01*
X123501676Y-93984756D01*
X123693244Y-94176324D01*
X123943541Y-94280000D01*
X124214459Y-94280000D01*
X124464756Y-94176324D01*
X124656324Y-93984756D01*
X124760000Y-93734459D01*
X124760000Y-93564578D01*
X124903378Y-93421200D01*
X125401718Y-93421200D01*
X125458470Y-93477952D01*
X124110613Y-94825808D01*
X124021324Y-94610244D01*
X123829756Y-94418676D01*
X123579459Y-94315000D01*
X123409579Y-94315000D01*
X121742200Y-92647622D01*
X121742200Y-85747517D01*
X121831884Y-85964034D01*
X121831884Y-85964034D01*
G37*
X121831884Y-85964034D02*
X121961092Y-86093242D01*
X121978535Y-86180932D01*
X122079585Y-86332165D01*
X122117762Y-86357674D01*
X122390935Y-86630847D01*
X122416442Y-86669022D01*
X122513024Y-86733556D01*
X122567674Y-86770072D01*
X122746065Y-86805556D01*
X122791095Y-86796599D01*
X123000351Y-86796599D01*
X124780800Y-88577049D01*
X124806307Y-88615223D01*
X124844481Y-88640730D01*
X124957539Y-88716273D01*
X125135930Y-88751757D01*
X125180960Y-88742800D01*
X127142610Y-88742800D01*
X127081000Y-88891541D01*
X127081000Y-89162459D01*
X127184676Y-89412756D01*
X127376244Y-89604324D01*
X127626541Y-89708000D01*
X127796422Y-89708000D01*
X127812800Y-89724378D01*
X127812801Y-94171621D01*
X126556622Y-95427800D01*
X124801778Y-95427800D01*
X126173379Y-94056200D01*
X126367120Y-94056200D01*
X126487244Y-94176324D01*
X126737541Y-94280000D01*
X127008459Y-94280000D01*
X127258756Y-94176324D01*
X127450324Y-93984756D01*
X127554000Y-93734459D01*
X127554000Y-93463541D01*
X127450324Y-93213244D01*
X127258756Y-93021676D01*
X127008459Y-92918000D01*
X126737541Y-92918000D01*
X126588598Y-92979694D01*
X126588598Y-92828541D01*
X126484922Y-92578244D01*
X126293354Y-92386676D01*
X126043057Y-92283000D01*
X125772139Y-92283000D01*
X125521842Y-92386676D01*
X125401718Y-92506800D01*
X124759030Y-92506800D01*
X124714000Y-92497843D01*
X124668970Y-92506800D01*
X124535609Y-92533327D01*
X124384377Y-92634377D01*
X124358868Y-92672554D01*
X124113422Y-92918000D01*
X123943541Y-92918000D01*
X123693244Y-93021676D01*
X123501676Y-93213244D01*
X123398000Y-93463541D01*
X123398000Y-93734459D01*
X123501676Y-93984756D01*
X123693244Y-94176324D01*
X123943541Y-94280000D01*
X124214459Y-94280000D01*
X124464756Y-94176324D01*
X124656324Y-93984756D01*
X124760000Y-93734459D01*
X124760000Y-93564578D01*
X124903378Y-93421200D01*
X125401718Y-93421200D01*
X125458470Y-93477952D01*
X124110613Y-94825808D01*
X124021324Y-94610244D01*
X123829756Y-94418676D01*
X123579459Y-94315000D01*
X123409579Y-94315000D01*
X121742200Y-92647622D01*
X121742200Y-85747517D01*
X121831884Y-85964034D01*
G36*
X139878968Y-93763446D02*
X139904477Y-93801623D01*
X140003114Y-93867530D01*
X140027606Y-93990659D01*
X140105342Y-94107000D01*
X140027606Y-94223341D01*
X140003114Y-94346470D01*
X139904477Y-94412377D01*
X139878968Y-94450554D01*
X139446121Y-94883401D01*
X139377151Y-94883401D01*
X139362750Y-94869000D01*
X137813500Y-94869000D01*
X137813500Y-94883401D01*
X137559500Y-94883401D01*
X137559500Y-94869000D01*
X137539500Y-94869000D01*
X137539500Y-94615000D01*
X137559500Y-94615000D01*
X137559500Y-94595000D01*
X137813500Y-94595000D01*
X137813500Y-94615000D01*
X139362750Y-94615000D01*
X139521500Y-94456250D01*
X139521500Y-94245690D01*
X139424827Y-94012301D01*
X139271573Y-93859048D01*
X139274964Y-93842000D01*
X139274964Y-93330599D01*
X139446121Y-93330599D01*
X139878968Y-93763446D01*
X139878968Y-93763446D01*
G37*
X139878968Y-93763446D02*
X139904477Y-93801623D01*
X140003114Y-93867530D01*
X140027606Y-93990659D01*
X140105342Y-94107000D01*
X140027606Y-94223341D01*
X140003114Y-94346470D01*
X139904477Y-94412377D01*
X139878968Y-94450554D01*
X139446121Y-94883401D01*
X139377151Y-94883401D01*
X139362750Y-94869000D01*
X137813500Y-94869000D01*
X137813500Y-94883401D01*
X137559500Y-94883401D01*
X137559500Y-94869000D01*
X137539500Y-94869000D01*
X137539500Y-94615000D01*
X137559500Y-94615000D01*
X137559500Y-94595000D01*
X137813500Y-94595000D01*
X137813500Y-94615000D01*
X139362750Y-94615000D01*
X139521500Y-94456250D01*
X139521500Y-94245690D01*
X139424827Y-94012301D01*
X139271573Y-93859048D01*
X139274964Y-93842000D01*
X139274964Y-93330599D01*
X139446121Y-93330599D01*
X139878968Y-93763446D01*
G36*
X122350700Y-84897278D02*
X122273749Y-84897278D01*
X122023452Y-85000954D01*
X121904520Y-85119886D01*
X121966000Y-84971459D01*
X121966000Y-84700541D01*
X121862324Y-84450244D01*
X121670756Y-84258676D01*
X121420459Y-84155000D01*
X121149541Y-84155000D01*
X120899244Y-84258676D01*
X120707676Y-84450244D01*
X120604000Y-84700541D01*
X120604000Y-84971459D01*
X120707676Y-85221756D01*
X120827801Y-85341881D01*
X120827800Y-92791970D01*
X120818843Y-92837000D01*
X120831340Y-92899828D01*
X120854327Y-93015390D01*
X120955377Y-93166623D01*
X120993554Y-93192132D01*
X122289421Y-94488000D01*
X120464899Y-94488000D01*
X120514000Y-94369459D01*
X120514000Y-94098541D01*
X120468000Y-93987487D01*
X120468000Y-89669537D01*
X120480439Y-89607000D01*
X120468000Y-89544463D01*
X120468000Y-89544459D01*
X120431157Y-89359235D01*
X120384551Y-89289484D01*
X120326236Y-89202210D01*
X120326234Y-89202208D01*
X120290809Y-89149191D01*
X120237791Y-89113766D01*
X118077737Y-86953713D01*
X118077735Y-86953710D01*
X117907825Y-86783800D01*
X117861824Y-86672744D01*
X117670256Y-86481176D01*
X117419959Y-86377500D01*
X117149041Y-86377500D01*
X116898744Y-86481176D01*
X116707176Y-86672744D01*
X116662428Y-86780776D01*
X116659949Y-86733556D01*
X116507753Y-86366122D01*
X116269398Y-86301207D01*
X115495605Y-87075000D01*
X115509748Y-87089143D01*
X115330143Y-87268748D01*
X115316000Y-87254605D01*
X115301858Y-87268748D01*
X115122253Y-87089143D01*
X115136395Y-87075000D01*
X115122253Y-87060858D01*
X115301858Y-86881253D01*
X115316000Y-86895395D01*
X116089793Y-86121602D01*
X116024878Y-85883247D01*
X115674405Y-85759173D01*
X115789578Y-85644000D01*
X115959459Y-85644000D01*
X116209756Y-85540324D01*
X116401324Y-85348756D01*
X116505000Y-85098459D01*
X116505000Y-84891599D01*
X117253676Y-84891599D01*
X117175000Y-85081541D01*
X117175000Y-85352459D01*
X117278676Y-85602756D01*
X117470244Y-85794324D01*
X117720541Y-85898000D01*
X117991459Y-85898000D01*
X118241756Y-85794324D01*
X118433324Y-85602756D01*
X118537000Y-85352459D01*
X118537000Y-85081541D01*
X118433324Y-84831244D01*
X118304116Y-84702036D01*
X118286673Y-84614345D01*
X118211130Y-84501287D01*
X118185623Y-84463113D01*
X118147448Y-84437606D01*
X117852795Y-84142953D01*
X117827286Y-84104776D01*
X117802869Y-84088461D01*
X121541883Y-84088461D01*
X122350700Y-84897278D01*
X122350700Y-84897278D01*
G37*
X122350700Y-84897278D02*
X122273749Y-84897278D01*
X122023452Y-85000954D01*
X121904520Y-85119886D01*
X121966000Y-84971459D01*
X121966000Y-84700541D01*
X121862324Y-84450244D01*
X121670756Y-84258676D01*
X121420459Y-84155000D01*
X121149541Y-84155000D01*
X120899244Y-84258676D01*
X120707676Y-84450244D01*
X120604000Y-84700541D01*
X120604000Y-84971459D01*
X120707676Y-85221756D01*
X120827801Y-85341881D01*
X120827800Y-92791970D01*
X120818843Y-92837000D01*
X120831340Y-92899828D01*
X120854327Y-93015390D01*
X120955377Y-93166623D01*
X120993554Y-93192132D01*
X122289421Y-94488000D01*
X120464899Y-94488000D01*
X120514000Y-94369459D01*
X120514000Y-94098541D01*
X120468000Y-93987487D01*
X120468000Y-89669537D01*
X120480439Y-89607000D01*
X120468000Y-89544463D01*
X120468000Y-89544459D01*
X120431157Y-89359235D01*
X120384551Y-89289484D01*
X120326236Y-89202210D01*
X120326234Y-89202208D01*
X120290809Y-89149191D01*
X120237791Y-89113766D01*
X118077737Y-86953713D01*
X118077735Y-86953710D01*
X117907825Y-86783800D01*
X117861824Y-86672744D01*
X117670256Y-86481176D01*
X117419959Y-86377500D01*
X117149041Y-86377500D01*
X116898744Y-86481176D01*
X116707176Y-86672744D01*
X116662428Y-86780776D01*
X116659949Y-86733556D01*
X116507753Y-86366122D01*
X116269398Y-86301207D01*
X115495605Y-87075000D01*
X115509748Y-87089143D01*
X115330143Y-87268748D01*
X115316000Y-87254605D01*
X115301858Y-87268748D01*
X115122253Y-87089143D01*
X115136395Y-87075000D01*
X115122253Y-87060858D01*
X115301858Y-86881253D01*
X115316000Y-86895395D01*
X116089793Y-86121602D01*
X116024878Y-85883247D01*
X115674405Y-85759173D01*
X115789578Y-85644000D01*
X115959459Y-85644000D01*
X116209756Y-85540324D01*
X116401324Y-85348756D01*
X116505000Y-85098459D01*
X116505000Y-84891599D01*
X117253676Y-84891599D01*
X117175000Y-85081541D01*
X117175000Y-85352459D01*
X117278676Y-85602756D01*
X117470244Y-85794324D01*
X117720541Y-85898000D01*
X117991459Y-85898000D01*
X118241756Y-85794324D01*
X118433324Y-85602756D01*
X118537000Y-85352459D01*
X118537000Y-85081541D01*
X118433324Y-84831244D01*
X118304116Y-84702036D01*
X118286673Y-84614345D01*
X118211130Y-84501287D01*
X118185623Y-84463113D01*
X118147448Y-84437606D01*
X117852795Y-84142953D01*
X117827286Y-84104776D01*
X117802869Y-84088461D01*
X121541883Y-84088461D01*
X122350700Y-84897278D01*
G36*
X126268830Y-86148408D02*
X124894987Y-86148408D01*
X122439530Y-83692952D01*
X123813374Y-83692952D01*
X126268830Y-86148408D01*
X126268830Y-86148408D01*
G37*
X126268830Y-86148408D02*
X124894987Y-86148408D01*
X122439530Y-83692952D01*
X123813374Y-83692952D01*
X126268830Y-86148408D01*
G04 #@! TD*
M02*
