G04 #@! TF.GenerationSoftware,KiCad,Pcbnew,(5.0.0)*
G04 #@! TF.CreationDate,2020-05-30T16:15:12-06:00*
G04 #@! TF.ProjectId,4x4_platform,3478345F706C6174666F726D2E6B6963,rev?*
G04 #@! TF.SameCoordinates,Original*
G04 #@! TF.FileFunction,Soldermask,Top*
G04 #@! TF.FilePolarity,Negative*
%FSLAX46Y46*%
G04 Gerber Fmt 4.6, Leading zero omitted, Abs format (unit mm)*
G04 Created by KiCad (PCBNEW (5.0.0)) date 05/30/20 16:15:12*
%MOMM*%
%LPD*%
G01*
G04 APERTURE LIST*
%ADD10R,2.100000X2.100000*%
%ADD11O,2.100000X2.100000*%
%ADD12C,0.100000*%
%ADD13C,1.550000*%
%ADD14R,1.200000X1.300000*%
%ADD15C,2.600000*%
%ADD16C,1.400000*%
%ADD17R,1.300000X1.650000*%
%ADD18R,1.300000X1.300000*%
%ADD19R,2.200000X1.500000*%
%ADD20R,1.120000X2.600000*%
%ADD21R,2.600000X1.120000*%
%ADD22R,1.600000X1.300000*%
%ADD23R,1.200000X1.700000*%
%ADD24R,1.900000X2.300000*%
%ADD25C,1.850000*%
%ADD26R,0.800000X1.750000*%
%ADD27O,1.600000X2.300000*%
%ADD28R,1.600000X2.300000*%
%ADD29R,1.300000X1.600000*%
%ADD30R,1.850000X1.200000*%
%ADD31R,1.050000X1.460000*%
%ADD32C,1.390600*%
%ADD33C,1.187400*%
%ADD34R,2.940000X3.910000*%
G04 APERTURE END LIST*
D10*
G04 #@! TO.C,J1*
X77470000Y-82232500D03*
D11*
X77470000Y-84772500D03*
X77470000Y-87312500D03*
X77470000Y-89852500D03*
G04 #@! TD*
G04 #@! TO.C,J2*
X77470000Y-108902500D03*
X77470000Y-106362500D03*
X77470000Y-103822500D03*
D10*
X77470000Y-101282500D03*
G04 #@! TD*
G04 #@! TO.C,J3*
X77470000Y-120332500D03*
D11*
X77470000Y-122872500D03*
X77470000Y-125412500D03*
X77470000Y-127952500D03*
G04 #@! TD*
G04 #@! TO.C,J4*
X77470000Y-147002500D03*
X77470000Y-144462500D03*
X77470000Y-141922500D03*
D10*
X77470000Y-139382500D03*
G04 #@! TD*
G04 #@! TO.C,J5*
X151130000Y-82232500D03*
D11*
X151130000Y-84772500D03*
X151130000Y-87312500D03*
X151130000Y-89852500D03*
G04 #@! TD*
G04 #@! TO.C,J6*
X151130000Y-108902500D03*
X151130000Y-106362500D03*
X151130000Y-103822500D03*
D10*
X151130000Y-101282500D03*
G04 #@! TD*
G04 #@! TO.C,J7*
X151130000Y-120332500D03*
D11*
X151130000Y-122872500D03*
X151130000Y-125412500D03*
X151130000Y-127952500D03*
G04 #@! TD*
G04 #@! TO.C,J8*
X151130000Y-147002500D03*
X151130000Y-144462500D03*
X151130000Y-141922500D03*
D10*
X151130000Y-139382500D03*
G04 #@! TD*
D12*
G04 #@! TO.C,C1*
G36*
X88226071Y-93451623D02*
X88258781Y-93456475D01*
X88290857Y-93464509D01*
X88321991Y-93475649D01*
X88351884Y-93489787D01*
X88380247Y-93506787D01*
X88406807Y-93526485D01*
X88431308Y-93548692D01*
X88453515Y-93573193D01*
X88473213Y-93599753D01*
X88490213Y-93628116D01*
X88504351Y-93658009D01*
X88515491Y-93689143D01*
X88523525Y-93721219D01*
X88528377Y-93753929D01*
X88530000Y-93786956D01*
X88530000Y-94663044D01*
X88528377Y-94696071D01*
X88523525Y-94728781D01*
X88515491Y-94760857D01*
X88504351Y-94791991D01*
X88490213Y-94821884D01*
X88473213Y-94850247D01*
X88453515Y-94876807D01*
X88431308Y-94901308D01*
X88406807Y-94923515D01*
X88380247Y-94943213D01*
X88351884Y-94960213D01*
X88321991Y-94974351D01*
X88290857Y-94985491D01*
X88258781Y-94993525D01*
X88226071Y-94998377D01*
X88193044Y-95000000D01*
X87066956Y-95000000D01*
X87033929Y-94998377D01*
X87001219Y-94993525D01*
X86969143Y-94985491D01*
X86938009Y-94974351D01*
X86908116Y-94960213D01*
X86879753Y-94943213D01*
X86853193Y-94923515D01*
X86828692Y-94901308D01*
X86806485Y-94876807D01*
X86786787Y-94850247D01*
X86769787Y-94821884D01*
X86755649Y-94791991D01*
X86744509Y-94760857D01*
X86736475Y-94728781D01*
X86731623Y-94696071D01*
X86730000Y-94663044D01*
X86730000Y-93786956D01*
X86731623Y-93753929D01*
X86736475Y-93721219D01*
X86744509Y-93689143D01*
X86755649Y-93658009D01*
X86769787Y-93628116D01*
X86786787Y-93599753D01*
X86806485Y-93573193D01*
X86828692Y-93548692D01*
X86853193Y-93526485D01*
X86879753Y-93506787D01*
X86908116Y-93489787D01*
X86938009Y-93475649D01*
X86969143Y-93464509D01*
X87001219Y-93456475D01*
X87033929Y-93451623D01*
X87066956Y-93450000D01*
X88193044Y-93450000D01*
X88226071Y-93451623D01*
X88226071Y-93451623D01*
G37*
D13*
X87630000Y-94225000D03*
D12*
G36*
X88226071Y-95501623D02*
X88258781Y-95506475D01*
X88290857Y-95514509D01*
X88321991Y-95525649D01*
X88351884Y-95539787D01*
X88380247Y-95556787D01*
X88406807Y-95576485D01*
X88431308Y-95598692D01*
X88453515Y-95623193D01*
X88473213Y-95649753D01*
X88490213Y-95678116D01*
X88504351Y-95708009D01*
X88515491Y-95739143D01*
X88523525Y-95771219D01*
X88528377Y-95803929D01*
X88530000Y-95836956D01*
X88530000Y-96713044D01*
X88528377Y-96746071D01*
X88523525Y-96778781D01*
X88515491Y-96810857D01*
X88504351Y-96841991D01*
X88490213Y-96871884D01*
X88473213Y-96900247D01*
X88453515Y-96926807D01*
X88431308Y-96951308D01*
X88406807Y-96973515D01*
X88380247Y-96993213D01*
X88351884Y-97010213D01*
X88321991Y-97024351D01*
X88290857Y-97035491D01*
X88258781Y-97043525D01*
X88226071Y-97048377D01*
X88193044Y-97050000D01*
X87066956Y-97050000D01*
X87033929Y-97048377D01*
X87001219Y-97043525D01*
X86969143Y-97035491D01*
X86938009Y-97024351D01*
X86908116Y-97010213D01*
X86879753Y-96993213D01*
X86853193Y-96973515D01*
X86828692Y-96951308D01*
X86806485Y-96926807D01*
X86786787Y-96900247D01*
X86769787Y-96871884D01*
X86755649Y-96841991D01*
X86744509Y-96810857D01*
X86736475Y-96778781D01*
X86731623Y-96746071D01*
X86730000Y-96713044D01*
X86730000Y-95836956D01*
X86731623Y-95803929D01*
X86736475Y-95771219D01*
X86744509Y-95739143D01*
X86755649Y-95708009D01*
X86769787Y-95678116D01*
X86786787Y-95649753D01*
X86806485Y-95623193D01*
X86828692Y-95598692D01*
X86853193Y-95576485D01*
X86879753Y-95556787D01*
X86908116Y-95539787D01*
X86938009Y-95525649D01*
X86969143Y-95514509D01*
X87001219Y-95506475D01*
X87033929Y-95501623D01*
X87066956Y-95500000D01*
X88193044Y-95500000D01*
X88226071Y-95501623D01*
X88226071Y-95501623D01*
G37*
D13*
X87630000Y-96275000D03*
G04 #@! TD*
D12*
G04 #@! TO.C,C2*
G36*
X88226071Y-103611623D02*
X88258781Y-103616475D01*
X88290857Y-103624509D01*
X88321991Y-103635649D01*
X88351884Y-103649787D01*
X88380247Y-103666787D01*
X88406807Y-103686485D01*
X88431308Y-103708692D01*
X88453515Y-103733193D01*
X88473213Y-103759753D01*
X88490213Y-103788116D01*
X88504351Y-103818009D01*
X88515491Y-103849143D01*
X88523525Y-103881219D01*
X88528377Y-103913929D01*
X88530000Y-103946956D01*
X88530000Y-104823044D01*
X88528377Y-104856071D01*
X88523525Y-104888781D01*
X88515491Y-104920857D01*
X88504351Y-104951991D01*
X88490213Y-104981884D01*
X88473213Y-105010247D01*
X88453515Y-105036807D01*
X88431308Y-105061308D01*
X88406807Y-105083515D01*
X88380247Y-105103213D01*
X88351884Y-105120213D01*
X88321991Y-105134351D01*
X88290857Y-105145491D01*
X88258781Y-105153525D01*
X88226071Y-105158377D01*
X88193044Y-105160000D01*
X87066956Y-105160000D01*
X87033929Y-105158377D01*
X87001219Y-105153525D01*
X86969143Y-105145491D01*
X86938009Y-105134351D01*
X86908116Y-105120213D01*
X86879753Y-105103213D01*
X86853193Y-105083515D01*
X86828692Y-105061308D01*
X86806485Y-105036807D01*
X86786787Y-105010247D01*
X86769787Y-104981884D01*
X86755649Y-104951991D01*
X86744509Y-104920857D01*
X86736475Y-104888781D01*
X86731623Y-104856071D01*
X86730000Y-104823044D01*
X86730000Y-103946956D01*
X86731623Y-103913929D01*
X86736475Y-103881219D01*
X86744509Y-103849143D01*
X86755649Y-103818009D01*
X86769787Y-103788116D01*
X86786787Y-103759753D01*
X86806485Y-103733193D01*
X86828692Y-103708692D01*
X86853193Y-103686485D01*
X86879753Y-103666787D01*
X86908116Y-103649787D01*
X86938009Y-103635649D01*
X86969143Y-103624509D01*
X87001219Y-103616475D01*
X87033929Y-103611623D01*
X87066956Y-103610000D01*
X88193044Y-103610000D01*
X88226071Y-103611623D01*
X88226071Y-103611623D01*
G37*
D13*
X87630000Y-104385000D03*
D12*
G36*
X88226071Y-105661623D02*
X88258781Y-105666475D01*
X88290857Y-105674509D01*
X88321991Y-105685649D01*
X88351884Y-105699787D01*
X88380247Y-105716787D01*
X88406807Y-105736485D01*
X88431308Y-105758692D01*
X88453515Y-105783193D01*
X88473213Y-105809753D01*
X88490213Y-105838116D01*
X88504351Y-105868009D01*
X88515491Y-105899143D01*
X88523525Y-105931219D01*
X88528377Y-105963929D01*
X88530000Y-105996956D01*
X88530000Y-106873044D01*
X88528377Y-106906071D01*
X88523525Y-106938781D01*
X88515491Y-106970857D01*
X88504351Y-107001991D01*
X88490213Y-107031884D01*
X88473213Y-107060247D01*
X88453515Y-107086807D01*
X88431308Y-107111308D01*
X88406807Y-107133515D01*
X88380247Y-107153213D01*
X88351884Y-107170213D01*
X88321991Y-107184351D01*
X88290857Y-107195491D01*
X88258781Y-107203525D01*
X88226071Y-107208377D01*
X88193044Y-107210000D01*
X87066956Y-107210000D01*
X87033929Y-107208377D01*
X87001219Y-107203525D01*
X86969143Y-107195491D01*
X86938009Y-107184351D01*
X86908116Y-107170213D01*
X86879753Y-107153213D01*
X86853193Y-107133515D01*
X86828692Y-107111308D01*
X86806485Y-107086807D01*
X86786787Y-107060247D01*
X86769787Y-107031884D01*
X86755649Y-107001991D01*
X86744509Y-106970857D01*
X86736475Y-106938781D01*
X86731623Y-106906071D01*
X86730000Y-106873044D01*
X86730000Y-105996956D01*
X86731623Y-105963929D01*
X86736475Y-105931219D01*
X86744509Y-105899143D01*
X86755649Y-105868009D01*
X86769787Y-105838116D01*
X86786787Y-105809753D01*
X86806485Y-105783193D01*
X86828692Y-105758692D01*
X86853193Y-105736485D01*
X86879753Y-105716787D01*
X86908116Y-105699787D01*
X86938009Y-105685649D01*
X86969143Y-105674509D01*
X87001219Y-105666475D01*
X87033929Y-105661623D01*
X87066956Y-105660000D01*
X88193044Y-105660000D01*
X88226071Y-105661623D01*
X88226071Y-105661623D01*
G37*
D13*
X87630000Y-106435000D03*
G04 #@! TD*
D12*
G04 #@! TO.C,C3*
G36*
X92036071Y-109471623D02*
X92068781Y-109476475D01*
X92100857Y-109484509D01*
X92131991Y-109495649D01*
X92161884Y-109509787D01*
X92190247Y-109526787D01*
X92216807Y-109546485D01*
X92241308Y-109568692D01*
X92263515Y-109593193D01*
X92283213Y-109619753D01*
X92300213Y-109648116D01*
X92314351Y-109678009D01*
X92325491Y-109709143D01*
X92333525Y-109741219D01*
X92338377Y-109773929D01*
X92340000Y-109806956D01*
X92340000Y-110683044D01*
X92338377Y-110716071D01*
X92333525Y-110748781D01*
X92325491Y-110780857D01*
X92314351Y-110811991D01*
X92300213Y-110841884D01*
X92283213Y-110870247D01*
X92263515Y-110896807D01*
X92241308Y-110921308D01*
X92216807Y-110943515D01*
X92190247Y-110963213D01*
X92161884Y-110980213D01*
X92131991Y-110994351D01*
X92100857Y-111005491D01*
X92068781Y-111013525D01*
X92036071Y-111018377D01*
X92003044Y-111020000D01*
X90876956Y-111020000D01*
X90843929Y-111018377D01*
X90811219Y-111013525D01*
X90779143Y-111005491D01*
X90748009Y-110994351D01*
X90718116Y-110980213D01*
X90689753Y-110963213D01*
X90663193Y-110943515D01*
X90638692Y-110921308D01*
X90616485Y-110896807D01*
X90596787Y-110870247D01*
X90579787Y-110841884D01*
X90565649Y-110811991D01*
X90554509Y-110780857D01*
X90546475Y-110748781D01*
X90541623Y-110716071D01*
X90540000Y-110683044D01*
X90540000Y-109806956D01*
X90541623Y-109773929D01*
X90546475Y-109741219D01*
X90554509Y-109709143D01*
X90565649Y-109678009D01*
X90579787Y-109648116D01*
X90596787Y-109619753D01*
X90616485Y-109593193D01*
X90638692Y-109568692D01*
X90663193Y-109546485D01*
X90689753Y-109526787D01*
X90718116Y-109509787D01*
X90748009Y-109495649D01*
X90779143Y-109484509D01*
X90811219Y-109476475D01*
X90843929Y-109471623D01*
X90876956Y-109470000D01*
X92003044Y-109470000D01*
X92036071Y-109471623D01*
X92036071Y-109471623D01*
G37*
D13*
X91440000Y-110245000D03*
D12*
G36*
X92036071Y-107421623D02*
X92068781Y-107426475D01*
X92100857Y-107434509D01*
X92131991Y-107445649D01*
X92161884Y-107459787D01*
X92190247Y-107476787D01*
X92216807Y-107496485D01*
X92241308Y-107518692D01*
X92263515Y-107543193D01*
X92283213Y-107569753D01*
X92300213Y-107598116D01*
X92314351Y-107628009D01*
X92325491Y-107659143D01*
X92333525Y-107691219D01*
X92338377Y-107723929D01*
X92340000Y-107756956D01*
X92340000Y-108633044D01*
X92338377Y-108666071D01*
X92333525Y-108698781D01*
X92325491Y-108730857D01*
X92314351Y-108761991D01*
X92300213Y-108791884D01*
X92283213Y-108820247D01*
X92263515Y-108846807D01*
X92241308Y-108871308D01*
X92216807Y-108893515D01*
X92190247Y-108913213D01*
X92161884Y-108930213D01*
X92131991Y-108944351D01*
X92100857Y-108955491D01*
X92068781Y-108963525D01*
X92036071Y-108968377D01*
X92003044Y-108970000D01*
X90876956Y-108970000D01*
X90843929Y-108968377D01*
X90811219Y-108963525D01*
X90779143Y-108955491D01*
X90748009Y-108944351D01*
X90718116Y-108930213D01*
X90689753Y-108913213D01*
X90663193Y-108893515D01*
X90638692Y-108871308D01*
X90616485Y-108846807D01*
X90596787Y-108820247D01*
X90579787Y-108791884D01*
X90565649Y-108761991D01*
X90554509Y-108730857D01*
X90546475Y-108698781D01*
X90541623Y-108666071D01*
X90540000Y-108633044D01*
X90540000Y-107756956D01*
X90541623Y-107723929D01*
X90546475Y-107691219D01*
X90554509Y-107659143D01*
X90565649Y-107628009D01*
X90579787Y-107598116D01*
X90596787Y-107569753D01*
X90616485Y-107543193D01*
X90638692Y-107518692D01*
X90663193Y-107496485D01*
X90689753Y-107476787D01*
X90718116Y-107459787D01*
X90748009Y-107445649D01*
X90779143Y-107434509D01*
X90811219Y-107426475D01*
X90843929Y-107421623D01*
X90876956Y-107420000D01*
X92003044Y-107420000D01*
X92036071Y-107421623D01*
X92036071Y-107421623D01*
G37*
D13*
X91440000Y-108195000D03*
G04 #@! TD*
D12*
G04 #@! TO.C,C4*
G36*
X88226071Y-87101623D02*
X88258781Y-87106475D01*
X88290857Y-87114509D01*
X88321991Y-87125649D01*
X88351884Y-87139787D01*
X88380247Y-87156787D01*
X88406807Y-87176485D01*
X88431308Y-87198692D01*
X88453515Y-87223193D01*
X88473213Y-87249753D01*
X88490213Y-87278116D01*
X88504351Y-87308009D01*
X88515491Y-87339143D01*
X88523525Y-87371219D01*
X88528377Y-87403929D01*
X88530000Y-87436956D01*
X88530000Y-88313044D01*
X88528377Y-88346071D01*
X88523525Y-88378781D01*
X88515491Y-88410857D01*
X88504351Y-88441991D01*
X88490213Y-88471884D01*
X88473213Y-88500247D01*
X88453515Y-88526807D01*
X88431308Y-88551308D01*
X88406807Y-88573515D01*
X88380247Y-88593213D01*
X88351884Y-88610213D01*
X88321991Y-88624351D01*
X88290857Y-88635491D01*
X88258781Y-88643525D01*
X88226071Y-88648377D01*
X88193044Y-88650000D01*
X87066956Y-88650000D01*
X87033929Y-88648377D01*
X87001219Y-88643525D01*
X86969143Y-88635491D01*
X86938009Y-88624351D01*
X86908116Y-88610213D01*
X86879753Y-88593213D01*
X86853193Y-88573515D01*
X86828692Y-88551308D01*
X86806485Y-88526807D01*
X86786787Y-88500247D01*
X86769787Y-88471884D01*
X86755649Y-88441991D01*
X86744509Y-88410857D01*
X86736475Y-88378781D01*
X86731623Y-88346071D01*
X86730000Y-88313044D01*
X86730000Y-87436956D01*
X86731623Y-87403929D01*
X86736475Y-87371219D01*
X86744509Y-87339143D01*
X86755649Y-87308009D01*
X86769787Y-87278116D01*
X86786787Y-87249753D01*
X86806485Y-87223193D01*
X86828692Y-87198692D01*
X86853193Y-87176485D01*
X86879753Y-87156787D01*
X86908116Y-87139787D01*
X86938009Y-87125649D01*
X86969143Y-87114509D01*
X87001219Y-87106475D01*
X87033929Y-87101623D01*
X87066956Y-87100000D01*
X88193044Y-87100000D01*
X88226071Y-87101623D01*
X88226071Y-87101623D01*
G37*
D13*
X87630000Y-87875000D03*
D12*
G36*
X88226071Y-89151623D02*
X88258781Y-89156475D01*
X88290857Y-89164509D01*
X88321991Y-89175649D01*
X88351884Y-89189787D01*
X88380247Y-89206787D01*
X88406807Y-89226485D01*
X88431308Y-89248692D01*
X88453515Y-89273193D01*
X88473213Y-89299753D01*
X88490213Y-89328116D01*
X88504351Y-89358009D01*
X88515491Y-89389143D01*
X88523525Y-89421219D01*
X88528377Y-89453929D01*
X88530000Y-89486956D01*
X88530000Y-90363044D01*
X88528377Y-90396071D01*
X88523525Y-90428781D01*
X88515491Y-90460857D01*
X88504351Y-90491991D01*
X88490213Y-90521884D01*
X88473213Y-90550247D01*
X88453515Y-90576807D01*
X88431308Y-90601308D01*
X88406807Y-90623515D01*
X88380247Y-90643213D01*
X88351884Y-90660213D01*
X88321991Y-90674351D01*
X88290857Y-90685491D01*
X88258781Y-90693525D01*
X88226071Y-90698377D01*
X88193044Y-90700000D01*
X87066956Y-90700000D01*
X87033929Y-90698377D01*
X87001219Y-90693525D01*
X86969143Y-90685491D01*
X86938009Y-90674351D01*
X86908116Y-90660213D01*
X86879753Y-90643213D01*
X86853193Y-90623515D01*
X86828692Y-90601308D01*
X86806485Y-90576807D01*
X86786787Y-90550247D01*
X86769787Y-90521884D01*
X86755649Y-90491991D01*
X86744509Y-90460857D01*
X86736475Y-90428781D01*
X86731623Y-90396071D01*
X86730000Y-90363044D01*
X86730000Y-89486956D01*
X86731623Y-89453929D01*
X86736475Y-89421219D01*
X86744509Y-89389143D01*
X86755649Y-89358009D01*
X86769787Y-89328116D01*
X86786787Y-89299753D01*
X86806485Y-89273193D01*
X86828692Y-89248692D01*
X86853193Y-89226485D01*
X86879753Y-89206787D01*
X86908116Y-89189787D01*
X86938009Y-89175649D01*
X86969143Y-89164509D01*
X87001219Y-89156475D01*
X87033929Y-89151623D01*
X87066956Y-89150000D01*
X88193044Y-89150000D01*
X88226071Y-89151623D01*
X88226071Y-89151623D01*
G37*
D13*
X87630000Y-89925000D03*
G04 #@! TD*
D12*
G04 #@! TO.C,L1*
G36*
X88226071Y-98531623D02*
X88258781Y-98536475D01*
X88290857Y-98544509D01*
X88321991Y-98555649D01*
X88351884Y-98569787D01*
X88380247Y-98586787D01*
X88406807Y-98606485D01*
X88431308Y-98628692D01*
X88453515Y-98653193D01*
X88473213Y-98679753D01*
X88490213Y-98708116D01*
X88504351Y-98738009D01*
X88515491Y-98769143D01*
X88523525Y-98801219D01*
X88528377Y-98833929D01*
X88530000Y-98866956D01*
X88530000Y-99743044D01*
X88528377Y-99776071D01*
X88523525Y-99808781D01*
X88515491Y-99840857D01*
X88504351Y-99871991D01*
X88490213Y-99901884D01*
X88473213Y-99930247D01*
X88453515Y-99956807D01*
X88431308Y-99981308D01*
X88406807Y-100003515D01*
X88380247Y-100023213D01*
X88351884Y-100040213D01*
X88321991Y-100054351D01*
X88290857Y-100065491D01*
X88258781Y-100073525D01*
X88226071Y-100078377D01*
X88193044Y-100080000D01*
X87066956Y-100080000D01*
X87033929Y-100078377D01*
X87001219Y-100073525D01*
X86969143Y-100065491D01*
X86938009Y-100054351D01*
X86908116Y-100040213D01*
X86879753Y-100023213D01*
X86853193Y-100003515D01*
X86828692Y-99981308D01*
X86806485Y-99956807D01*
X86786787Y-99930247D01*
X86769787Y-99901884D01*
X86755649Y-99871991D01*
X86744509Y-99840857D01*
X86736475Y-99808781D01*
X86731623Y-99776071D01*
X86730000Y-99743044D01*
X86730000Y-98866956D01*
X86731623Y-98833929D01*
X86736475Y-98801219D01*
X86744509Y-98769143D01*
X86755649Y-98738009D01*
X86769787Y-98708116D01*
X86786787Y-98679753D01*
X86806485Y-98653193D01*
X86828692Y-98628692D01*
X86853193Y-98606485D01*
X86879753Y-98586787D01*
X86908116Y-98569787D01*
X86938009Y-98555649D01*
X86969143Y-98544509D01*
X87001219Y-98536475D01*
X87033929Y-98531623D01*
X87066956Y-98530000D01*
X88193044Y-98530000D01*
X88226071Y-98531623D01*
X88226071Y-98531623D01*
G37*
D13*
X87630000Y-99305000D03*
D12*
G36*
X88226071Y-100581623D02*
X88258781Y-100586475D01*
X88290857Y-100594509D01*
X88321991Y-100605649D01*
X88351884Y-100619787D01*
X88380247Y-100636787D01*
X88406807Y-100656485D01*
X88431308Y-100678692D01*
X88453515Y-100703193D01*
X88473213Y-100729753D01*
X88490213Y-100758116D01*
X88504351Y-100788009D01*
X88515491Y-100819143D01*
X88523525Y-100851219D01*
X88528377Y-100883929D01*
X88530000Y-100916956D01*
X88530000Y-101793044D01*
X88528377Y-101826071D01*
X88523525Y-101858781D01*
X88515491Y-101890857D01*
X88504351Y-101921991D01*
X88490213Y-101951884D01*
X88473213Y-101980247D01*
X88453515Y-102006807D01*
X88431308Y-102031308D01*
X88406807Y-102053515D01*
X88380247Y-102073213D01*
X88351884Y-102090213D01*
X88321991Y-102104351D01*
X88290857Y-102115491D01*
X88258781Y-102123525D01*
X88226071Y-102128377D01*
X88193044Y-102130000D01*
X87066956Y-102130000D01*
X87033929Y-102128377D01*
X87001219Y-102123525D01*
X86969143Y-102115491D01*
X86938009Y-102104351D01*
X86908116Y-102090213D01*
X86879753Y-102073213D01*
X86853193Y-102053515D01*
X86828692Y-102031308D01*
X86806485Y-102006807D01*
X86786787Y-101980247D01*
X86769787Y-101951884D01*
X86755649Y-101921991D01*
X86744509Y-101890857D01*
X86736475Y-101858781D01*
X86731623Y-101826071D01*
X86730000Y-101793044D01*
X86730000Y-100916956D01*
X86731623Y-100883929D01*
X86736475Y-100851219D01*
X86744509Y-100819143D01*
X86755649Y-100788009D01*
X86769787Y-100758116D01*
X86786787Y-100729753D01*
X86806485Y-100703193D01*
X86828692Y-100678692D01*
X86853193Y-100656485D01*
X86879753Y-100636787D01*
X86908116Y-100619787D01*
X86938009Y-100605649D01*
X86969143Y-100594509D01*
X87001219Y-100586475D01*
X87033929Y-100581623D01*
X87066956Y-100580000D01*
X88193044Y-100580000D01*
X88226071Y-100581623D01*
X88226071Y-100581623D01*
G37*
D13*
X87630000Y-101355000D03*
G04 #@! TD*
D14*
G04 #@! TO.C,Q1*
X105074000Y-128606000D03*
X103174000Y-128606000D03*
X104124000Y-130606000D03*
G04 #@! TD*
D12*
G04 #@! TO.C,R1*
G36*
X92036071Y-114542623D02*
X92068781Y-114547475D01*
X92100857Y-114555509D01*
X92131991Y-114566649D01*
X92161884Y-114580787D01*
X92190247Y-114597787D01*
X92216807Y-114617485D01*
X92241308Y-114639692D01*
X92263515Y-114664193D01*
X92283213Y-114690753D01*
X92300213Y-114719116D01*
X92314351Y-114749009D01*
X92325491Y-114780143D01*
X92333525Y-114812219D01*
X92338377Y-114844929D01*
X92340000Y-114877956D01*
X92340000Y-115754044D01*
X92338377Y-115787071D01*
X92333525Y-115819781D01*
X92325491Y-115851857D01*
X92314351Y-115882991D01*
X92300213Y-115912884D01*
X92283213Y-115941247D01*
X92263515Y-115967807D01*
X92241308Y-115992308D01*
X92216807Y-116014515D01*
X92190247Y-116034213D01*
X92161884Y-116051213D01*
X92131991Y-116065351D01*
X92100857Y-116076491D01*
X92068781Y-116084525D01*
X92036071Y-116089377D01*
X92003044Y-116091000D01*
X90876956Y-116091000D01*
X90843929Y-116089377D01*
X90811219Y-116084525D01*
X90779143Y-116076491D01*
X90748009Y-116065351D01*
X90718116Y-116051213D01*
X90689753Y-116034213D01*
X90663193Y-116014515D01*
X90638692Y-115992308D01*
X90616485Y-115967807D01*
X90596787Y-115941247D01*
X90579787Y-115912884D01*
X90565649Y-115882991D01*
X90554509Y-115851857D01*
X90546475Y-115819781D01*
X90541623Y-115787071D01*
X90540000Y-115754044D01*
X90540000Y-114877956D01*
X90541623Y-114844929D01*
X90546475Y-114812219D01*
X90554509Y-114780143D01*
X90565649Y-114749009D01*
X90579787Y-114719116D01*
X90596787Y-114690753D01*
X90616485Y-114664193D01*
X90638692Y-114639692D01*
X90663193Y-114617485D01*
X90689753Y-114597787D01*
X90718116Y-114580787D01*
X90748009Y-114566649D01*
X90779143Y-114555509D01*
X90811219Y-114547475D01*
X90843929Y-114542623D01*
X90876956Y-114541000D01*
X92003044Y-114541000D01*
X92036071Y-114542623D01*
X92036071Y-114542623D01*
G37*
D13*
X91440000Y-115316000D03*
D12*
G36*
X92036071Y-112492623D02*
X92068781Y-112497475D01*
X92100857Y-112505509D01*
X92131991Y-112516649D01*
X92161884Y-112530787D01*
X92190247Y-112547787D01*
X92216807Y-112567485D01*
X92241308Y-112589692D01*
X92263515Y-112614193D01*
X92283213Y-112640753D01*
X92300213Y-112669116D01*
X92314351Y-112699009D01*
X92325491Y-112730143D01*
X92333525Y-112762219D01*
X92338377Y-112794929D01*
X92340000Y-112827956D01*
X92340000Y-113704044D01*
X92338377Y-113737071D01*
X92333525Y-113769781D01*
X92325491Y-113801857D01*
X92314351Y-113832991D01*
X92300213Y-113862884D01*
X92283213Y-113891247D01*
X92263515Y-113917807D01*
X92241308Y-113942308D01*
X92216807Y-113964515D01*
X92190247Y-113984213D01*
X92161884Y-114001213D01*
X92131991Y-114015351D01*
X92100857Y-114026491D01*
X92068781Y-114034525D01*
X92036071Y-114039377D01*
X92003044Y-114041000D01*
X90876956Y-114041000D01*
X90843929Y-114039377D01*
X90811219Y-114034525D01*
X90779143Y-114026491D01*
X90748009Y-114015351D01*
X90718116Y-114001213D01*
X90689753Y-113984213D01*
X90663193Y-113964515D01*
X90638692Y-113942308D01*
X90616485Y-113917807D01*
X90596787Y-113891247D01*
X90579787Y-113862884D01*
X90565649Y-113832991D01*
X90554509Y-113801857D01*
X90546475Y-113769781D01*
X90541623Y-113737071D01*
X90540000Y-113704044D01*
X90540000Y-112827956D01*
X90541623Y-112794929D01*
X90546475Y-112762219D01*
X90554509Y-112730143D01*
X90565649Y-112699009D01*
X90579787Y-112669116D01*
X90596787Y-112640753D01*
X90616485Y-112614193D01*
X90638692Y-112589692D01*
X90663193Y-112567485D01*
X90689753Y-112547787D01*
X90718116Y-112530787D01*
X90748009Y-112516649D01*
X90779143Y-112505509D01*
X90811219Y-112497475D01*
X90843929Y-112492623D01*
X90876956Y-112491000D01*
X92003044Y-112491000D01*
X92036071Y-112492623D01*
X92036071Y-112492623D01*
G37*
D13*
X91440000Y-113266000D03*
G04 #@! TD*
D15*
G04 #@! TO.C,J11*
X81026000Y-133477000D03*
G04 #@! TD*
G04 #@! TO.C,J12*
X147701000Y-95377000D03*
G04 #@! TD*
G04 #@! TO.C,J13*
X147701000Y-133477000D03*
G04 #@! TD*
G04 #@! TO.C,J14*
X109601000Y-133477000D03*
G04 #@! TD*
G04 #@! TO.C,J15*
X119126000Y-95377000D03*
G04 #@! TD*
G04 #@! TO.C,J16*
X81026000Y-95377000D03*
G04 #@! TD*
D16*
G04 #@! TO.C,SW1*
X110260000Y-147320000D03*
X113260000Y-147320000D03*
D17*
X112510000Y-145245000D03*
X114010000Y-145245000D03*
X109510000Y-145245000D03*
D18*
X108060000Y-148420000D03*
X108060000Y-146220000D03*
X115460000Y-146220000D03*
X115460000Y-148420000D03*
G04 #@! TD*
D19*
G04 #@! TO.C,SW2*
X95810000Y-146630000D03*
X89610000Y-146630000D03*
X95810000Y-142930000D03*
X89610000Y-142930000D03*
G04 #@! TD*
D20*
G04 #@! TO.C,U1*
X108712000Y-105664000D03*
X107442000Y-105664000D03*
X106172000Y-105664000D03*
X104902000Y-105664000D03*
X103632000Y-105664000D03*
X102362000Y-105664000D03*
X101092000Y-105664000D03*
X99822000Y-105664000D03*
X98552000Y-105664000D03*
X97282000Y-105664000D03*
X96012000Y-105664000D03*
X94742000Y-105664000D03*
D21*
X110490000Y-103886000D03*
X110490000Y-102616000D03*
X110490000Y-101346000D03*
X110490000Y-100076000D03*
X110490000Y-98806000D03*
X110490000Y-97536000D03*
X110490000Y-96266000D03*
X110490000Y-94996000D03*
X110490000Y-93726000D03*
X110490000Y-92456000D03*
X110490000Y-91186000D03*
X110490000Y-89916000D03*
X110490000Y-88646000D03*
X110490000Y-87376000D03*
X110490000Y-84836000D03*
X110490000Y-83566000D03*
X92964000Y-83566000D03*
X92964000Y-84836000D03*
X92964000Y-87376000D03*
X92964000Y-88646000D03*
X92964000Y-89916000D03*
X92964000Y-91186000D03*
X92964000Y-92456000D03*
X92964000Y-93726000D03*
X92964000Y-94996000D03*
X92964000Y-96266000D03*
X92964000Y-97536000D03*
X92964000Y-98806000D03*
X92964000Y-100076000D03*
X92964000Y-101346000D03*
X92964000Y-102616000D03*
X92964000Y-103886000D03*
G04 #@! TD*
D12*
G04 #@! TO.C,D1*
G36*
X125056071Y-146301623D02*
X125088781Y-146306475D01*
X125120857Y-146314509D01*
X125151991Y-146325649D01*
X125181884Y-146339787D01*
X125210247Y-146356787D01*
X125236807Y-146376485D01*
X125261308Y-146398692D01*
X125283515Y-146423193D01*
X125303213Y-146449753D01*
X125320213Y-146478116D01*
X125334351Y-146508009D01*
X125345491Y-146539143D01*
X125353525Y-146571219D01*
X125358377Y-146603929D01*
X125360000Y-146636956D01*
X125360000Y-147513044D01*
X125358377Y-147546071D01*
X125353525Y-147578781D01*
X125345491Y-147610857D01*
X125334351Y-147641991D01*
X125320213Y-147671884D01*
X125303213Y-147700247D01*
X125283515Y-147726807D01*
X125261308Y-147751308D01*
X125236807Y-147773515D01*
X125210247Y-147793213D01*
X125181884Y-147810213D01*
X125151991Y-147824351D01*
X125120857Y-147835491D01*
X125088781Y-147843525D01*
X125056071Y-147848377D01*
X125023044Y-147850000D01*
X123896956Y-147850000D01*
X123863929Y-147848377D01*
X123831219Y-147843525D01*
X123799143Y-147835491D01*
X123768009Y-147824351D01*
X123738116Y-147810213D01*
X123709753Y-147793213D01*
X123683193Y-147773515D01*
X123658692Y-147751308D01*
X123636485Y-147726807D01*
X123616787Y-147700247D01*
X123599787Y-147671884D01*
X123585649Y-147641991D01*
X123574509Y-147610857D01*
X123566475Y-147578781D01*
X123561623Y-147546071D01*
X123560000Y-147513044D01*
X123560000Y-146636956D01*
X123561623Y-146603929D01*
X123566475Y-146571219D01*
X123574509Y-146539143D01*
X123585649Y-146508009D01*
X123599787Y-146478116D01*
X123616787Y-146449753D01*
X123636485Y-146423193D01*
X123658692Y-146398692D01*
X123683193Y-146376485D01*
X123709753Y-146356787D01*
X123738116Y-146339787D01*
X123768009Y-146325649D01*
X123799143Y-146314509D01*
X123831219Y-146306475D01*
X123863929Y-146301623D01*
X123896956Y-146300000D01*
X125023044Y-146300000D01*
X125056071Y-146301623D01*
X125056071Y-146301623D01*
G37*
D13*
X124460000Y-147075000D03*
D12*
G36*
X125056071Y-144251623D02*
X125088781Y-144256475D01*
X125120857Y-144264509D01*
X125151991Y-144275649D01*
X125181884Y-144289787D01*
X125210247Y-144306787D01*
X125236807Y-144326485D01*
X125261308Y-144348692D01*
X125283515Y-144373193D01*
X125303213Y-144399753D01*
X125320213Y-144428116D01*
X125334351Y-144458009D01*
X125345491Y-144489143D01*
X125353525Y-144521219D01*
X125358377Y-144553929D01*
X125360000Y-144586956D01*
X125360000Y-145463044D01*
X125358377Y-145496071D01*
X125353525Y-145528781D01*
X125345491Y-145560857D01*
X125334351Y-145591991D01*
X125320213Y-145621884D01*
X125303213Y-145650247D01*
X125283515Y-145676807D01*
X125261308Y-145701308D01*
X125236807Y-145723515D01*
X125210247Y-145743213D01*
X125181884Y-145760213D01*
X125151991Y-145774351D01*
X125120857Y-145785491D01*
X125088781Y-145793525D01*
X125056071Y-145798377D01*
X125023044Y-145800000D01*
X123896956Y-145800000D01*
X123863929Y-145798377D01*
X123831219Y-145793525D01*
X123799143Y-145785491D01*
X123768009Y-145774351D01*
X123738116Y-145760213D01*
X123709753Y-145743213D01*
X123683193Y-145723515D01*
X123658692Y-145701308D01*
X123636485Y-145676807D01*
X123616787Y-145650247D01*
X123599787Y-145621884D01*
X123585649Y-145591991D01*
X123574509Y-145560857D01*
X123566475Y-145528781D01*
X123561623Y-145496071D01*
X123560000Y-145463044D01*
X123560000Y-144586956D01*
X123561623Y-144553929D01*
X123566475Y-144521219D01*
X123574509Y-144489143D01*
X123585649Y-144458009D01*
X123599787Y-144428116D01*
X123616787Y-144399753D01*
X123636485Y-144373193D01*
X123658692Y-144348692D01*
X123683193Y-144326485D01*
X123709753Y-144306787D01*
X123738116Y-144289787D01*
X123768009Y-144275649D01*
X123799143Y-144264509D01*
X123831219Y-144256475D01*
X123863929Y-144251623D01*
X123896956Y-144250000D01*
X125023044Y-144250000D01*
X125056071Y-144251623D01*
X125056071Y-144251623D01*
G37*
D13*
X124460000Y-145025000D03*
G04 #@! TD*
D12*
G04 #@! TO.C,D2*
G36*
X121754071Y-144251623D02*
X121786781Y-144256475D01*
X121818857Y-144264509D01*
X121849991Y-144275649D01*
X121879884Y-144289787D01*
X121908247Y-144306787D01*
X121934807Y-144326485D01*
X121959308Y-144348692D01*
X121981515Y-144373193D01*
X122001213Y-144399753D01*
X122018213Y-144428116D01*
X122032351Y-144458009D01*
X122043491Y-144489143D01*
X122051525Y-144521219D01*
X122056377Y-144553929D01*
X122058000Y-144586956D01*
X122058000Y-145463044D01*
X122056377Y-145496071D01*
X122051525Y-145528781D01*
X122043491Y-145560857D01*
X122032351Y-145591991D01*
X122018213Y-145621884D01*
X122001213Y-145650247D01*
X121981515Y-145676807D01*
X121959308Y-145701308D01*
X121934807Y-145723515D01*
X121908247Y-145743213D01*
X121879884Y-145760213D01*
X121849991Y-145774351D01*
X121818857Y-145785491D01*
X121786781Y-145793525D01*
X121754071Y-145798377D01*
X121721044Y-145800000D01*
X120594956Y-145800000D01*
X120561929Y-145798377D01*
X120529219Y-145793525D01*
X120497143Y-145785491D01*
X120466009Y-145774351D01*
X120436116Y-145760213D01*
X120407753Y-145743213D01*
X120381193Y-145723515D01*
X120356692Y-145701308D01*
X120334485Y-145676807D01*
X120314787Y-145650247D01*
X120297787Y-145621884D01*
X120283649Y-145591991D01*
X120272509Y-145560857D01*
X120264475Y-145528781D01*
X120259623Y-145496071D01*
X120258000Y-145463044D01*
X120258000Y-144586956D01*
X120259623Y-144553929D01*
X120264475Y-144521219D01*
X120272509Y-144489143D01*
X120283649Y-144458009D01*
X120297787Y-144428116D01*
X120314787Y-144399753D01*
X120334485Y-144373193D01*
X120356692Y-144348692D01*
X120381193Y-144326485D01*
X120407753Y-144306787D01*
X120436116Y-144289787D01*
X120466009Y-144275649D01*
X120497143Y-144264509D01*
X120529219Y-144256475D01*
X120561929Y-144251623D01*
X120594956Y-144250000D01*
X121721044Y-144250000D01*
X121754071Y-144251623D01*
X121754071Y-144251623D01*
G37*
D13*
X121158000Y-145025000D03*
D12*
G36*
X121754071Y-146301623D02*
X121786781Y-146306475D01*
X121818857Y-146314509D01*
X121849991Y-146325649D01*
X121879884Y-146339787D01*
X121908247Y-146356787D01*
X121934807Y-146376485D01*
X121959308Y-146398692D01*
X121981515Y-146423193D01*
X122001213Y-146449753D01*
X122018213Y-146478116D01*
X122032351Y-146508009D01*
X122043491Y-146539143D01*
X122051525Y-146571219D01*
X122056377Y-146603929D01*
X122058000Y-146636956D01*
X122058000Y-147513044D01*
X122056377Y-147546071D01*
X122051525Y-147578781D01*
X122043491Y-147610857D01*
X122032351Y-147641991D01*
X122018213Y-147671884D01*
X122001213Y-147700247D01*
X121981515Y-147726807D01*
X121959308Y-147751308D01*
X121934807Y-147773515D01*
X121908247Y-147793213D01*
X121879884Y-147810213D01*
X121849991Y-147824351D01*
X121818857Y-147835491D01*
X121786781Y-147843525D01*
X121754071Y-147848377D01*
X121721044Y-147850000D01*
X120594956Y-147850000D01*
X120561929Y-147848377D01*
X120529219Y-147843525D01*
X120497143Y-147835491D01*
X120466009Y-147824351D01*
X120436116Y-147810213D01*
X120407753Y-147793213D01*
X120381193Y-147773515D01*
X120356692Y-147751308D01*
X120334485Y-147726807D01*
X120314787Y-147700247D01*
X120297787Y-147671884D01*
X120283649Y-147641991D01*
X120272509Y-147610857D01*
X120264475Y-147578781D01*
X120259623Y-147546071D01*
X120258000Y-147513044D01*
X120258000Y-146636956D01*
X120259623Y-146603929D01*
X120264475Y-146571219D01*
X120272509Y-146539143D01*
X120283649Y-146508009D01*
X120297787Y-146478116D01*
X120314787Y-146449753D01*
X120334485Y-146423193D01*
X120356692Y-146398692D01*
X120381193Y-146376485D01*
X120407753Y-146356787D01*
X120436116Y-146339787D01*
X120466009Y-146325649D01*
X120497143Y-146314509D01*
X120529219Y-146306475D01*
X120561929Y-146301623D01*
X120594956Y-146300000D01*
X121721044Y-146300000D01*
X121754071Y-146301623D01*
X121754071Y-146301623D01*
G37*
D13*
X121158000Y-147075000D03*
G04 #@! TD*
D12*
G04 #@! TO.C,R2*
G36*
X125056071Y-139434622D02*
X125088781Y-139439474D01*
X125120857Y-139447508D01*
X125151991Y-139458648D01*
X125181884Y-139472786D01*
X125210247Y-139489786D01*
X125236807Y-139509484D01*
X125261308Y-139531691D01*
X125283515Y-139556192D01*
X125303213Y-139582752D01*
X125320213Y-139611115D01*
X125334351Y-139641008D01*
X125345491Y-139672142D01*
X125353525Y-139704218D01*
X125358377Y-139736928D01*
X125360000Y-139769955D01*
X125360000Y-140646043D01*
X125358377Y-140679070D01*
X125353525Y-140711780D01*
X125345491Y-140743856D01*
X125334351Y-140774990D01*
X125320213Y-140804883D01*
X125303213Y-140833246D01*
X125283515Y-140859806D01*
X125261308Y-140884307D01*
X125236807Y-140906514D01*
X125210247Y-140926212D01*
X125181884Y-140943212D01*
X125151991Y-140957350D01*
X125120857Y-140968490D01*
X125088781Y-140976524D01*
X125056071Y-140981376D01*
X125023044Y-140982999D01*
X123896956Y-140982999D01*
X123863929Y-140981376D01*
X123831219Y-140976524D01*
X123799143Y-140968490D01*
X123768009Y-140957350D01*
X123738116Y-140943212D01*
X123709753Y-140926212D01*
X123683193Y-140906514D01*
X123658692Y-140884307D01*
X123636485Y-140859806D01*
X123616787Y-140833246D01*
X123599787Y-140804883D01*
X123585649Y-140774990D01*
X123574509Y-140743856D01*
X123566475Y-140711780D01*
X123561623Y-140679070D01*
X123560000Y-140646043D01*
X123560000Y-139769955D01*
X123561623Y-139736928D01*
X123566475Y-139704218D01*
X123574509Y-139672142D01*
X123585649Y-139641008D01*
X123599787Y-139611115D01*
X123616787Y-139582752D01*
X123636485Y-139556192D01*
X123658692Y-139531691D01*
X123683193Y-139509484D01*
X123709753Y-139489786D01*
X123738116Y-139472786D01*
X123768009Y-139458648D01*
X123799143Y-139447508D01*
X123831219Y-139439474D01*
X123863929Y-139434622D01*
X123896956Y-139432999D01*
X125023044Y-139432999D01*
X125056071Y-139434622D01*
X125056071Y-139434622D01*
G37*
D13*
X124460000Y-140207999D03*
D12*
G36*
X125056071Y-141484622D02*
X125088781Y-141489474D01*
X125120857Y-141497508D01*
X125151991Y-141508648D01*
X125181884Y-141522786D01*
X125210247Y-141539786D01*
X125236807Y-141559484D01*
X125261308Y-141581691D01*
X125283515Y-141606192D01*
X125303213Y-141632752D01*
X125320213Y-141661115D01*
X125334351Y-141691008D01*
X125345491Y-141722142D01*
X125353525Y-141754218D01*
X125358377Y-141786928D01*
X125360000Y-141819955D01*
X125360000Y-142696043D01*
X125358377Y-142729070D01*
X125353525Y-142761780D01*
X125345491Y-142793856D01*
X125334351Y-142824990D01*
X125320213Y-142854883D01*
X125303213Y-142883246D01*
X125283515Y-142909806D01*
X125261308Y-142934307D01*
X125236807Y-142956514D01*
X125210247Y-142976212D01*
X125181884Y-142993212D01*
X125151991Y-143007350D01*
X125120857Y-143018490D01*
X125088781Y-143026524D01*
X125056071Y-143031376D01*
X125023044Y-143032999D01*
X123896956Y-143032999D01*
X123863929Y-143031376D01*
X123831219Y-143026524D01*
X123799143Y-143018490D01*
X123768009Y-143007350D01*
X123738116Y-142993212D01*
X123709753Y-142976212D01*
X123683193Y-142956514D01*
X123658692Y-142934307D01*
X123636485Y-142909806D01*
X123616787Y-142883246D01*
X123599787Y-142854883D01*
X123585649Y-142824990D01*
X123574509Y-142793856D01*
X123566475Y-142761780D01*
X123561623Y-142729070D01*
X123560000Y-142696043D01*
X123560000Y-141819955D01*
X123561623Y-141786928D01*
X123566475Y-141754218D01*
X123574509Y-141722142D01*
X123585649Y-141691008D01*
X123599787Y-141661115D01*
X123616787Y-141632752D01*
X123636485Y-141606192D01*
X123658692Y-141581691D01*
X123683193Y-141559484D01*
X123709753Y-141539786D01*
X123738116Y-141522786D01*
X123768009Y-141508648D01*
X123799143Y-141497508D01*
X123831219Y-141489474D01*
X123863929Y-141484622D01*
X123896956Y-141482999D01*
X125023044Y-141482999D01*
X125056071Y-141484622D01*
X125056071Y-141484622D01*
G37*
D13*
X124460000Y-142257999D03*
G04 #@! TD*
D12*
G04 #@! TO.C,R3*
G36*
X121754071Y-141466624D02*
X121786781Y-141471476D01*
X121818857Y-141479510D01*
X121849991Y-141490650D01*
X121879884Y-141504788D01*
X121908247Y-141521788D01*
X121934807Y-141541486D01*
X121959308Y-141563693D01*
X121981515Y-141588194D01*
X122001213Y-141614754D01*
X122018213Y-141643117D01*
X122032351Y-141673010D01*
X122043491Y-141704144D01*
X122051525Y-141736220D01*
X122056377Y-141768930D01*
X122058000Y-141801957D01*
X122058000Y-142678045D01*
X122056377Y-142711072D01*
X122051525Y-142743782D01*
X122043491Y-142775858D01*
X122032351Y-142806992D01*
X122018213Y-142836885D01*
X122001213Y-142865248D01*
X121981515Y-142891808D01*
X121959308Y-142916309D01*
X121934807Y-142938516D01*
X121908247Y-142958214D01*
X121879884Y-142975214D01*
X121849991Y-142989352D01*
X121818857Y-143000492D01*
X121786781Y-143008526D01*
X121754071Y-143013378D01*
X121721044Y-143015001D01*
X120594956Y-143015001D01*
X120561929Y-143013378D01*
X120529219Y-143008526D01*
X120497143Y-143000492D01*
X120466009Y-142989352D01*
X120436116Y-142975214D01*
X120407753Y-142958214D01*
X120381193Y-142938516D01*
X120356692Y-142916309D01*
X120334485Y-142891808D01*
X120314787Y-142865248D01*
X120297787Y-142836885D01*
X120283649Y-142806992D01*
X120272509Y-142775858D01*
X120264475Y-142743782D01*
X120259623Y-142711072D01*
X120258000Y-142678045D01*
X120258000Y-141801957D01*
X120259623Y-141768930D01*
X120264475Y-141736220D01*
X120272509Y-141704144D01*
X120283649Y-141673010D01*
X120297787Y-141643117D01*
X120314787Y-141614754D01*
X120334485Y-141588194D01*
X120356692Y-141563693D01*
X120381193Y-141541486D01*
X120407753Y-141521788D01*
X120436116Y-141504788D01*
X120466009Y-141490650D01*
X120497143Y-141479510D01*
X120529219Y-141471476D01*
X120561929Y-141466624D01*
X120594956Y-141465001D01*
X121721044Y-141465001D01*
X121754071Y-141466624D01*
X121754071Y-141466624D01*
G37*
D13*
X121158000Y-142240001D03*
D12*
G36*
X121754071Y-139416624D02*
X121786781Y-139421476D01*
X121818857Y-139429510D01*
X121849991Y-139440650D01*
X121879884Y-139454788D01*
X121908247Y-139471788D01*
X121934807Y-139491486D01*
X121959308Y-139513693D01*
X121981515Y-139538194D01*
X122001213Y-139564754D01*
X122018213Y-139593117D01*
X122032351Y-139623010D01*
X122043491Y-139654144D01*
X122051525Y-139686220D01*
X122056377Y-139718930D01*
X122058000Y-139751957D01*
X122058000Y-140628045D01*
X122056377Y-140661072D01*
X122051525Y-140693782D01*
X122043491Y-140725858D01*
X122032351Y-140756992D01*
X122018213Y-140786885D01*
X122001213Y-140815248D01*
X121981515Y-140841808D01*
X121959308Y-140866309D01*
X121934807Y-140888516D01*
X121908247Y-140908214D01*
X121879884Y-140925214D01*
X121849991Y-140939352D01*
X121818857Y-140950492D01*
X121786781Y-140958526D01*
X121754071Y-140963378D01*
X121721044Y-140965001D01*
X120594956Y-140965001D01*
X120561929Y-140963378D01*
X120529219Y-140958526D01*
X120497143Y-140950492D01*
X120466009Y-140939352D01*
X120436116Y-140925214D01*
X120407753Y-140908214D01*
X120381193Y-140888516D01*
X120356692Y-140866309D01*
X120334485Y-140841808D01*
X120314787Y-140815248D01*
X120297787Y-140786885D01*
X120283649Y-140756992D01*
X120272509Y-140725858D01*
X120264475Y-140693782D01*
X120259623Y-140661072D01*
X120258000Y-140628045D01*
X120258000Y-139751957D01*
X120259623Y-139718930D01*
X120264475Y-139686220D01*
X120272509Y-139654144D01*
X120283649Y-139623010D01*
X120297787Y-139593117D01*
X120314787Y-139564754D01*
X120334485Y-139538194D01*
X120356692Y-139513693D01*
X120381193Y-139491486D01*
X120407753Y-139471788D01*
X120436116Y-139454788D01*
X120466009Y-139440650D01*
X120497143Y-139429510D01*
X120529219Y-139421476D01*
X120561929Y-139416624D01*
X120594956Y-139415001D01*
X121721044Y-139415001D01*
X121754071Y-139416624D01*
X121754071Y-139416624D01*
G37*
D13*
X121158000Y-140190001D03*
G04 #@! TD*
D12*
G04 #@! TO.C,C6*
G36*
X147154071Y-85595623D02*
X147186781Y-85600475D01*
X147218857Y-85608509D01*
X147249991Y-85619649D01*
X147279884Y-85633787D01*
X147308247Y-85650787D01*
X147334807Y-85670485D01*
X147359308Y-85692692D01*
X147381515Y-85717193D01*
X147401213Y-85743753D01*
X147418213Y-85772116D01*
X147432351Y-85802009D01*
X147443491Y-85833143D01*
X147451525Y-85865219D01*
X147456377Y-85897929D01*
X147458000Y-85930956D01*
X147458000Y-86807044D01*
X147456377Y-86840071D01*
X147451525Y-86872781D01*
X147443491Y-86904857D01*
X147432351Y-86935991D01*
X147418213Y-86965884D01*
X147401213Y-86994247D01*
X147381515Y-87020807D01*
X147359308Y-87045308D01*
X147334807Y-87067515D01*
X147308247Y-87087213D01*
X147279884Y-87104213D01*
X147249991Y-87118351D01*
X147218857Y-87129491D01*
X147186781Y-87137525D01*
X147154071Y-87142377D01*
X147121044Y-87144000D01*
X145994956Y-87144000D01*
X145961929Y-87142377D01*
X145929219Y-87137525D01*
X145897143Y-87129491D01*
X145866009Y-87118351D01*
X145836116Y-87104213D01*
X145807753Y-87087213D01*
X145781193Y-87067515D01*
X145756692Y-87045308D01*
X145734485Y-87020807D01*
X145714787Y-86994247D01*
X145697787Y-86965884D01*
X145683649Y-86935991D01*
X145672509Y-86904857D01*
X145664475Y-86872781D01*
X145659623Y-86840071D01*
X145658000Y-86807044D01*
X145658000Y-85930956D01*
X145659623Y-85897929D01*
X145664475Y-85865219D01*
X145672509Y-85833143D01*
X145683649Y-85802009D01*
X145697787Y-85772116D01*
X145714787Y-85743753D01*
X145734485Y-85717193D01*
X145756692Y-85692692D01*
X145781193Y-85670485D01*
X145807753Y-85650787D01*
X145836116Y-85633787D01*
X145866009Y-85619649D01*
X145897143Y-85608509D01*
X145929219Y-85600475D01*
X145961929Y-85595623D01*
X145994956Y-85594000D01*
X147121044Y-85594000D01*
X147154071Y-85595623D01*
X147154071Y-85595623D01*
G37*
D13*
X146558000Y-86369000D03*
D12*
G36*
X147154071Y-83545623D02*
X147186781Y-83550475D01*
X147218857Y-83558509D01*
X147249991Y-83569649D01*
X147279884Y-83583787D01*
X147308247Y-83600787D01*
X147334807Y-83620485D01*
X147359308Y-83642692D01*
X147381515Y-83667193D01*
X147401213Y-83693753D01*
X147418213Y-83722116D01*
X147432351Y-83752009D01*
X147443491Y-83783143D01*
X147451525Y-83815219D01*
X147456377Y-83847929D01*
X147458000Y-83880956D01*
X147458000Y-84757044D01*
X147456377Y-84790071D01*
X147451525Y-84822781D01*
X147443491Y-84854857D01*
X147432351Y-84885991D01*
X147418213Y-84915884D01*
X147401213Y-84944247D01*
X147381515Y-84970807D01*
X147359308Y-84995308D01*
X147334807Y-85017515D01*
X147308247Y-85037213D01*
X147279884Y-85054213D01*
X147249991Y-85068351D01*
X147218857Y-85079491D01*
X147186781Y-85087525D01*
X147154071Y-85092377D01*
X147121044Y-85094000D01*
X145994956Y-85094000D01*
X145961929Y-85092377D01*
X145929219Y-85087525D01*
X145897143Y-85079491D01*
X145866009Y-85068351D01*
X145836116Y-85054213D01*
X145807753Y-85037213D01*
X145781193Y-85017515D01*
X145756692Y-84995308D01*
X145734485Y-84970807D01*
X145714787Y-84944247D01*
X145697787Y-84915884D01*
X145683649Y-84885991D01*
X145672509Y-84854857D01*
X145664475Y-84822781D01*
X145659623Y-84790071D01*
X145658000Y-84757044D01*
X145658000Y-83880956D01*
X145659623Y-83847929D01*
X145664475Y-83815219D01*
X145672509Y-83783143D01*
X145683649Y-83752009D01*
X145697787Y-83722116D01*
X145714787Y-83693753D01*
X145734485Y-83667193D01*
X145756692Y-83642692D01*
X145781193Y-83620485D01*
X145807753Y-83600787D01*
X145836116Y-83583787D01*
X145866009Y-83569649D01*
X145897143Y-83558509D01*
X145929219Y-83550475D01*
X145961929Y-83545623D01*
X145994956Y-83544000D01*
X147121044Y-83544000D01*
X147154071Y-83545623D01*
X147154071Y-83545623D01*
G37*
D13*
X146558000Y-84319000D03*
G04 #@! TD*
D12*
G04 #@! TO.C,C7*
G36*
X131263071Y-94351623D02*
X131295781Y-94356475D01*
X131327857Y-94364509D01*
X131358991Y-94375649D01*
X131388884Y-94389787D01*
X131417247Y-94406787D01*
X131443807Y-94426485D01*
X131468308Y-94448692D01*
X131490515Y-94473193D01*
X131510213Y-94499753D01*
X131527213Y-94528116D01*
X131541351Y-94558009D01*
X131552491Y-94589143D01*
X131560525Y-94621219D01*
X131565377Y-94653929D01*
X131567000Y-94686956D01*
X131567000Y-95813044D01*
X131565377Y-95846071D01*
X131560525Y-95878781D01*
X131552491Y-95910857D01*
X131541351Y-95941991D01*
X131527213Y-95971884D01*
X131510213Y-96000247D01*
X131490515Y-96026807D01*
X131468308Y-96051308D01*
X131443807Y-96073515D01*
X131417247Y-96093213D01*
X131388884Y-96110213D01*
X131358991Y-96124351D01*
X131327857Y-96135491D01*
X131295781Y-96143525D01*
X131263071Y-96148377D01*
X131230044Y-96150000D01*
X130353956Y-96150000D01*
X130320929Y-96148377D01*
X130288219Y-96143525D01*
X130256143Y-96135491D01*
X130225009Y-96124351D01*
X130195116Y-96110213D01*
X130166753Y-96093213D01*
X130140193Y-96073515D01*
X130115692Y-96051308D01*
X130093485Y-96026807D01*
X130073787Y-96000247D01*
X130056787Y-95971884D01*
X130042649Y-95941991D01*
X130031509Y-95910857D01*
X130023475Y-95878781D01*
X130018623Y-95846071D01*
X130017000Y-95813044D01*
X130017000Y-94686956D01*
X130018623Y-94653929D01*
X130023475Y-94621219D01*
X130031509Y-94589143D01*
X130042649Y-94558009D01*
X130056787Y-94528116D01*
X130073787Y-94499753D01*
X130093485Y-94473193D01*
X130115692Y-94448692D01*
X130140193Y-94426485D01*
X130166753Y-94406787D01*
X130195116Y-94389787D01*
X130225009Y-94375649D01*
X130256143Y-94364509D01*
X130288219Y-94356475D01*
X130320929Y-94351623D01*
X130353956Y-94350000D01*
X131230044Y-94350000D01*
X131263071Y-94351623D01*
X131263071Y-94351623D01*
G37*
D13*
X130792000Y-95250000D03*
D12*
G36*
X133313071Y-94351623D02*
X133345781Y-94356475D01*
X133377857Y-94364509D01*
X133408991Y-94375649D01*
X133438884Y-94389787D01*
X133467247Y-94406787D01*
X133493807Y-94426485D01*
X133518308Y-94448692D01*
X133540515Y-94473193D01*
X133560213Y-94499753D01*
X133577213Y-94528116D01*
X133591351Y-94558009D01*
X133602491Y-94589143D01*
X133610525Y-94621219D01*
X133615377Y-94653929D01*
X133617000Y-94686956D01*
X133617000Y-95813044D01*
X133615377Y-95846071D01*
X133610525Y-95878781D01*
X133602491Y-95910857D01*
X133591351Y-95941991D01*
X133577213Y-95971884D01*
X133560213Y-96000247D01*
X133540515Y-96026807D01*
X133518308Y-96051308D01*
X133493807Y-96073515D01*
X133467247Y-96093213D01*
X133438884Y-96110213D01*
X133408991Y-96124351D01*
X133377857Y-96135491D01*
X133345781Y-96143525D01*
X133313071Y-96148377D01*
X133280044Y-96150000D01*
X132403956Y-96150000D01*
X132370929Y-96148377D01*
X132338219Y-96143525D01*
X132306143Y-96135491D01*
X132275009Y-96124351D01*
X132245116Y-96110213D01*
X132216753Y-96093213D01*
X132190193Y-96073515D01*
X132165692Y-96051308D01*
X132143485Y-96026807D01*
X132123787Y-96000247D01*
X132106787Y-95971884D01*
X132092649Y-95941991D01*
X132081509Y-95910857D01*
X132073475Y-95878781D01*
X132068623Y-95846071D01*
X132067000Y-95813044D01*
X132067000Y-94686956D01*
X132068623Y-94653929D01*
X132073475Y-94621219D01*
X132081509Y-94589143D01*
X132092649Y-94558009D01*
X132106787Y-94528116D01*
X132123787Y-94499753D01*
X132143485Y-94473193D01*
X132165692Y-94448692D01*
X132190193Y-94426485D01*
X132216753Y-94406787D01*
X132245116Y-94389787D01*
X132275009Y-94375649D01*
X132306143Y-94364509D01*
X132338219Y-94356475D01*
X132370929Y-94351623D01*
X132403956Y-94350000D01*
X133280044Y-94350000D01*
X133313071Y-94351623D01*
X133313071Y-94351623D01*
G37*
D13*
X132842000Y-95250000D03*
G04 #@! TD*
D12*
G04 #@! TO.C,C9*
G36*
X144614071Y-94984622D02*
X144646781Y-94989474D01*
X144678857Y-94997508D01*
X144709991Y-95008648D01*
X144739884Y-95022786D01*
X144768247Y-95039786D01*
X144794807Y-95059484D01*
X144819308Y-95081691D01*
X144841515Y-95106192D01*
X144861213Y-95132752D01*
X144878213Y-95161115D01*
X144892351Y-95191008D01*
X144903491Y-95222142D01*
X144911525Y-95254218D01*
X144916377Y-95286928D01*
X144918000Y-95319955D01*
X144918000Y-96196043D01*
X144916377Y-96229070D01*
X144911525Y-96261780D01*
X144903491Y-96293856D01*
X144892351Y-96324990D01*
X144878213Y-96354883D01*
X144861213Y-96383246D01*
X144841515Y-96409806D01*
X144819308Y-96434307D01*
X144794807Y-96456514D01*
X144768247Y-96476212D01*
X144739884Y-96493212D01*
X144709991Y-96507350D01*
X144678857Y-96518490D01*
X144646781Y-96526524D01*
X144614071Y-96531376D01*
X144581044Y-96532999D01*
X143454956Y-96532999D01*
X143421929Y-96531376D01*
X143389219Y-96526524D01*
X143357143Y-96518490D01*
X143326009Y-96507350D01*
X143296116Y-96493212D01*
X143267753Y-96476212D01*
X143241193Y-96456514D01*
X143216692Y-96434307D01*
X143194485Y-96409806D01*
X143174787Y-96383246D01*
X143157787Y-96354883D01*
X143143649Y-96324990D01*
X143132509Y-96293856D01*
X143124475Y-96261780D01*
X143119623Y-96229070D01*
X143118000Y-96196043D01*
X143118000Y-95319955D01*
X143119623Y-95286928D01*
X143124475Y-95254218D01*
X143132509Y-95222142D01*
X143143649Y-95191008D01*
X143157787Y-95161115D01*
X143174787Y-95132752D01*
X143194485Y-95106192D01*
X143216692Y-95081691D01*
X143241193Y-95059484D01*
X143267753Y-95039786D01*
X143296116Y-95022786D01*
X143326009Y-95008648D01*
X143357143Y-94997508D01*
X143389219Y-94989474D01*
X143421929Y-94984622D01*
X143454956Y-94982999D01*
X144581044Y-94982999D01*
X144614071Y-94984622D01*
X144614071Y-94984622D01*
G37*
D13*
X144018000Y-95757999D03*
D12*
G36*
X144614071Y-97034622D02*
X144646781Y-97039474D01*
X144678857Y-97047508D01*
X144709991Y-97058648D01*
X144739884Y-97072786D01*
X144768247Y-97089786D01*
X144794807Y-97109484D01*
X144819308Y-97131691D01*
X144841515Y-97156192D01*
X144861213Y-97182752D01*
X144878213Y-97211115D01*
X144892351Y-97241008D01*
X144903491Y-97272142D01*
X144911525Y-97304218D01*
X144916377Y-97336928D01*
X144918000Y-97369955D01*
X144918000Y-98246043D01*
X144916377Y-98279070D01*
X144911525Y-98311780D01*
X144903491Y-98343856D01*
X144892351Y-98374990D01*
X144878213Y-98404883D01*
X144861213Y-98433246D01*
X144841515Y-98459806D01*
X144819308Y-98484307D01*
X144794807Y-98506514D01*
X144768247Y-98526212D01*
X144739884Y-98543212D01*
X144709991Y-98557350D01*
X144678857Y-98568490D01*
X144646781Y-98576524D01*
X144614071Y-98581376D01*
X144581044Y-98582999D01*
X143454956Y-98582999D01*
X143421929Y-98581376D01*
X143389219Y-98576524D01*
X143357143Y-98568490D01*
X143326009Y-98557350D01*
X143296116Y-98543212D01*
X143267753Y-98526212D01*
X143241193Y-98506514D01*
X143216692Y-98484307D01*
X143194485Y-98459806D01*
X143174787Y-98433246D01*
X143157787Y-98404883D01*
X143143649Y-98374990D01*
X143132509Y-98343856D01*
X143124475Y-98311780D01*
X143119623Y-98279070D01*
X143118000Y-98246043D01*
X143118000Y-97369955D01*
X143119623Y-97336928D01*
X143124475Y-97304218D01*
X143132509Y-97272142D01*
X143143649Y-97241008D01*
X143157787Y-97211115D01*
X143174787Y-97182752D01*
X143194485Y-97156192D01*
X143216692Y-97131691D01*
X143241193Y-97109484D01*
X143267753Y-97089786D01*
X143296116Y-97072786D01*
X143326009Y-97058648D01*
X143357143Y-97047508D01*
X143389219Y-97039474D01*
X143421929Y-97034622D01*
X143454956Y-97032999D01*
X144581044Y-97032999D01*
X144614071Y-97034622D01*
X144614071Y-97034622D01*
G37*
D13*
X144018000Y-97807999D03*
G04 #@! TD*
D12*
G04 #@! TO.C,C10*
G36*
X125437071Y-88779623D02*
X125469781Y-88784475D01*
X125501857Y-88792509D01*
X125532991Y-88803649D01*
X125562884Y-88817787D01*
X125591247Y-88834787D01*
X125617807Y-88854485D01*
X125642308Y-88876692D01*
X125664515Y-88901193D01*
X125684213Y-88927753D01*
X125701213Y-88956116D01*
X125715351Y-88986009D01*
X125726491Y-89017143D01*
X125734525Y-89049219D01*
X125739377Y-89081929D01*
X125741000Y-89114956D01*
X125741000Y-89991044D01*
X125739377Y-90024071D01*
X125734525Y-90056781D01*
X125726491Y-90088857D01*
X125715351Y-90119991D01*
X125701213Y-90149884D01*
X125684213Y-90178247D01*
X125664515Y-90204807D01*
X125642308Y-90229308D01*
X125617807Y-90251515D01*
X125591247Y-90271213D01*
X125562884Y-90288213D01*
X125532991Y-90302351D01*
X125501857Y-90313491D01*
X125469781Y-90321525D01*
X125437071Y-90326377D01*
X125404044Y-90328000D01*
X124277956Y-90328000D01*
X124244929Y-90326377D01*
X124212219Y-90321525D01*
X124180143Y-90313491D01*
X124149009Y-90302351D01*
X124119116Y-90288213D01*
X124090753Y-90271213D01*
X124064193Y-90251515D01*
X124039692Y-90229308D01*
X124017485Y-90204807D01*
X123997787Y-90178247D01*
X123980787Y-90149884D01*
X123966649Y-90119991D01*
X123955509Y-90088857D01*
X123947475Y-90056781D01*
X123942623Y-90024071D01*
X123941000Y-89991044D01*
X123941000Y-89114956D01*
X123942623Y-89081929D01*
X123947475Y-89049219D01*
X123955509Y-89017143D01*
X123966649Y-88986009D01*
X123980787Y-88956116D01*
X123997787Y-88927753D01*
X124017485Y-88901193D01*
X124039692Y-88876692D01*
X124064193Y-88854485D01*
X124090753Y-88834787D01*
X124119116Y-88817787D01*
X124149009Y-88803649D01*
X124180143Y-88792509D01*
X124212219Y-88784475D01*
X124244929Y-88779623D01*
X124277956Y-88778000D01*
X125404044Y-88778000D01*
X125437071Y-88779623D01*
X125437071Y-88779623D01*
G37*
D13*
X124841000Y-89553000D03*
D12*
G36*
X125437071Y-86729623D02*
X125469781Y-86734475D01*
X125501857Y-86742509D01*
X125532991Y-86753649D01*
X125562884Y-86767787D01*
X125591247Y-86784787D01*
X125617807Y-86804485D01*
X125642308Y-86826692D01*
X125664515Y-86851193D01*
X125684213Y-86877753D01*
X125701213Y-86906116D01*
X125715351Y-86936009D01*
X125726491Y-86967143D01*
X125734525Y-86999219D01*
X125739377Y-87031929D01*
X125741000Y-87064956D01*
X125741000Y-87941044D01*
X125739377Y-87974071D01*
X125734525Y-88006781D01*
X125726491Y-88038857D01*
X125715351Y-88069991D01*
X125701213Y-88099884D01*
X125684213Y-88128247D01*
X125664515Y-88154807D01*
X125642308Y-88179308D01*
X125617807Y-88201515D01*
X125591247Y-88221213D01*
X125562884Y-88238213D01*
X125532991Y-88252351D01*
X125501857Y-88263491D01*
X125469781Y-88271525D01*
X125437071Y-88276377D01*
X125404044Y-88278000D01*
X124277956Y-88278000D01*
X124244929Y-88276377D01*
X124212219Y-88271525D01*
X124180143Y-88263491D01*
X124149009Y-88252351D01*
X124119116Y-88238213D01*
X124090753Y-88221213D01*
X124064193Y-88201515D01*
X124039692Y-88179308D01*
X124017485Y-88154807D01*
X123997787Y-88128247D01*
X123980787Y-88099884D01*
X123966649Y-88069991D01*
X123955509Y-88038857D01*
X123947475Y-88006781D01*
X123942623Y-87974071D01*
X123941000Y-87941044D01*
X123941000Y-87064956D01*
X123942623Y-87031929D01*
X123947475Y-86999219D01*
X123955509Y-86967143D01*
X123966649Y-86936009D01*
X123980787Y-86906116D01*
X123997787Y-86877753D01*
X124017485Y-86851193D01*
X124039692Y-86826692D01*
X124064193Y-86804485D01*
X124090753Y-86784787D01*
X124119116Y-86767787D01*
X124149009Y-86753649D01*
X124180143Y-86742509D01*
X124212219Y-86734475D01*
X124244929Y-86729623D01*
X124277956Y-86728000D01*
X125404044Y-86728000D01*
X125437071Y-86729623D01*
X125437071Y-86729623D01*
G37*
D13*
X124841000Y-87503000D03*
G04 #@! TD*
D22*
G04 #@! TO.C,D3*
X144119600Y-83567000D03*
X144119600Y-86867000D03*
G04 #@! TD*
G04 #@! TO.C,D4*
X144119600Y-92657200D03*
X144119600Y-89357200D03*
G04 #@! TD*
G04 #@! TO.C,D7*
X96520000Y-112778000D03*
X96520000Y-116078000D03*
G04 #@! TD*
D12*
G04 #@! TO.C,R4*
G36*
X125437074Y-93206617D02*
X125469784Y-93211469D01*
X125501860Y-93219503D01*
X125532994Y-93230643D01*
X125562887Y-93244781D01*
X125591250Y-93261781D01*
X125617810Y-93281479D01*
X125642311Y-93303686D01*
X125664518Y-93328187D01*
X125684216Y-93354747D01*
X125701216Y-93383110D01*
X125715354Y-93413003D01*
X125726494Y-93444137D01*
X125734528Y-93476213D01*
X125739380Y-93508923D01*
X125741003Y-93541950D01*
X125741003Y-94418038D01*
X125739380Y-94451065D01*
X125734528Y-94483775D01*
X125726494Y-94515851D01*
X125715354Y-94546985D01*
X125701216Y-94576878D01*
X125684216Y-94605241D01*
X125664518Y-94631801D01*
X125642311Y-94656302D01*
X125617810Y-94678509D01*
X125591250Y-94698207D01*
X125562887Y-94715207D01*
X125532994Y-94729345D01*
X125501860Y-94740485D01*
X125469784Y-94748519D01*
X125437074Y-94753371D01*
X125404047Y-94754994D01*
X124277959Y-94754994D01*
X124244932Y-94753371D01*
X124212222Y-94748519D01*
X124180146Y-94740485D01*
X124149012Y-94729345D01*
X124119119Y-94715207D01*
X124090756Y-94698207D01*
X124064196Y-94678509D01*
X124039695Y-94656302D01*
X124017488Y-94631801D01*
X123997790Y-94605241D01*
X123980790Y-94576878D01*
X123966652Y-94546985D01*
X123955512Y-94515851D01*
X123947478Y-94483775D01*
X123942626Y-94451065D01*
X123941003Y-94418038D01*
X123941003Y-93541950D01*
X123942626Y-93508923D01*
X123947478Y-93476213D01*
X123955512Y-93444137D01*
X123966652Y-93413003D01*
X123980790Y-93383110D01*
X123997790Y-93354747D01*
X124017488Y-93328187D01*
X124039695Y-93303686D01*
X124064196Y-93281479D01*
X124090756Y-93261781D01*
X124119119Y-93244781D01*
X124149012Y-93230643D01*
X124180146Y-93219503D01*
X124212222Y-93211469D01*
X124244932Y-93206617D01*
X124277959Y-93204994D01*
X125404047Y-93204994D01*
X125437074Y-93206617D01*
X125437074Y-93206617D01*
G37*
D13*
X124841003Y-93979994D03*
D12*
G36*
X125437074Y-91156617D02*
X125469784Y-91161469D01*
X125501860Y-91169503D01*
X125532994Y-91180643D01*
X125562887Y-91194781D01*
X125591250Y-91211781D01*
X125617810Y-91231479D01*
X125642311Y-91253686D01*
X125664518Y-91278187D01*
X125684216Y-91304747D01*
X125701216Y-91333110D01*
X125715354Y-91363003D01*
X125726494Y-91394137D01*
X125734528Y-91426213D01*
X125739380Y-91458923D01*
X125741003Y-91491950D01*
X125741003Y-92368038D01*
X125739380Y-92401065D01*
X125734528Y-92433775D01*
X125726494Y-92465851D01*
X125715354Y-92496985D01*
X125701216Y-92526878D01*
X125684216Y-92555241D01*
X125664518Y-92581801D01*
X125642311Y-92606302D01*
X125617810Y-92628509D01*
X125591250Y-92648207D01*
X125562887Y-92665207D01*
X125532994Y-92679345D01*
X125501860Y-92690485D01*
X125469784Y-92698519D01*
X125437074Y-92703371D01*
X125404047Y-92704994D01*
X124277959Y-92704994D01*
X124244932Y-92703371D01*
X124212222Y-92698519D01*
X124180146Y-92690485D01*
X124149012Y-92679345D01*
X124119119Y-92665207D01*
X124090756Y-92648207D01*
X124064196Y-92628509D01*
X124039695Y-92606302D01*
X124017488Y-92581801D01*
X123997790Y-92555241D01*
X123980790Y-92526878D01*
X123966652Y-92496985D01*
X123955512Y-92465851D01*
X123947478Y-92433775D01*
X123942626Y-92401065D01*
X123941003Y-92368038D01*
X123941003Y-91491950D01*
X123942626Y-91458923D01*
X123947478Y-91426213D01*
X123955512Y-91394137D01*
X123966652Y-91363003D01*
X123980790Y-91333110D01*
X123997790Y-91304747D01*
X124017488Y-91278187D01*
X124039695Y-91253686D01*
X124064196Y-91231479D01*
X124090756Y-91211781D01*
X124119119Y-91194781D01*
X124149012Y-91180643D01*
X124180146Y-91169503D01*
X124212222Y-91161469D01*
X124244932Y-91156617D01*
X124277959Y-91154994D01*
X125404047Y-91154994D01*
X125437074Y-91156617D01*
X125437074Y-91156617D01*
G37*
D13*
X124841003Y-91929994D03*
G04 #@! TD*
D23*
G04 #@! TO.C,U2*
X130551000Y-91542000D03*
X131831000Y-91542000D03*
X133091000Y-91542000D03*
X134361000Y-91542000D03*
X135641000Y-91542000D03*
X136911000Y-91542000D03*
X138171000Y-91542000D03*
X139451000Y-91542000D03*
X139451000Y-85242000D03*
X138171000Y-85242000D03*
X136911000Y-85242000D03*
X135641000Y-85242000D03*
X134361000Y-85242000D03*
X133091000Y-85242000D03*
X131831000Y-85242000D03*
X130551000Y-85242000D03*
G04 #@! TD*
D24*
G04 #@! TO.C,J17*
X140706600Y-77654900D03*
D25*
X144206600Y-80354900D03*
D26*
X142356600Y-80354900D03*
X143006600Y-80354900D03*
X140406600Y-80354900D03*
X141056600Y-80354900D03*
X141706600Y-80354900D03*
D25*
X139206600Y-80354900D03*
D24*
X142706600Y-77654900D03*
D27*
X145206600Y-77654900D03*
X138206600Y-77654900D03*
D28*
X138806600Y-77654900D03*
X144606600Y-77654900D03*
G04 #@! TD*
D12*
G04 #@! TO.C,C11*
G36*
X113880071Y-125210622D02*
X113912781Y-125215474D01*
X113944857Y-125223508D01*
X113975991Y-125234648D01*
X114005884Y-125248786D01*
X114034247Y-125265786D01*
X114060807Y-125285484D01*
X114085308Y-125307691D01*
X114107515Y-125332192D01*
X114127213Y-125358752D01*
X114144213Y-125387115D01*
X114158351Y-125417008D01*
X114169491Y-125448142D01*
X114177525Y-125480218D01*
X114182377Y-125512928D01*
X114184000Y-125545955D01*
X114184000Y-126422043D01*
X114182377Y-126455070D01*
X114177525Y-126487780D01*
X114169491Y-126519856D01*
X114158351Y-126550990D01*
X114144213Y-126580883D01*
X114127213Y-126609246D01*
X114107515Y-126635806D01*
X114085308Y-126660307D01*
X114060807Y-126682514D01*
X114034247Y-126702212D01*
X114005884Y-126719212D01*
X113975991Y-126733350D01*
X113944857Y-126744490D01*
X113912781Y-126752524D01*
X113880071Y-126757376D01*
X113847044Y-126758999D01*
X112720956Y-126758999D01*
X112687929Y-126757376D01*
X112655219Y-126752524D01*
X112623143Y-126744490D01*
X112592009Y-126733350D01*
X112562116Y-126719212D01*
X112533753Y-126702212D01*
X112507193Y-126682514D01*
X112482692Y-126660307D01*
X112460485Y-126635806D01*
X112440787Y-126609246D01*
X112423787Y-126580883D01*
X112409649Y-126550990D01*
X112398509Y-126519856D01*
X112390475Y-126487780D01*
X112385623Y-126455070D01*
X112384000Y-126422043D01*
X112384000Y-125545955D01*
X112385623Y-125512928D01*
X112390475Y-125480218D01*
X112398509Y-125448142D01*
X112409649Y-125417008D01*
X112423787Y-125387115D01*
X112440787Y-125358752D01*
X112460485Y-125332192D01*
X112482692Y-125307691D01*
X112507193Y-125285484D01*
X112533753Y-125265786D01*
X112562116Y-125248786D01*
X112592009Y-125234648D01*
X112623143Y-125223508D01*
X112655219Y-125215474D01*
X112687929Y-125210622D01*
X112720956Y-125208999D01*
X113847044Y-125208999D01*
X113880071Y-125210622D01*
X113880071Y-125210622D01*
G37*
D13*
X113284000Y-125983999D03*
D12*
G36*
X113880071Y-127260622D02*
X113912781Y-127265474D01*
X113944857Y-127273508D01*
X113975991Y-127284648D01*
X114005884Y-127298786D01*
X114034247Y-127315786D01*
X114060807Y-127335484D01*
X114085308Y-127357691D01*
X114107515Y-127382192D01*
X114127213Y-127408752D01*
X114144213Y-127437115D01*
X114158351Y-127467008D01*
X114169491Y-127498142D01*
X114177525Y-127530218D01*
X114182377Y-127562928D01*
X114184000Y-127595955D01*
X114184000Y-128472043D01*
X114182377Y-128505070D01*
X114177525Y-128537780D01*
X114169491Y-128569856D01*
X114158351Y-128600990D01*
X114144213Y-128630883D01*
X114127213Y-128659246D01*
X114107515Y-128685806D01*
X114085308Y-128710307D01*
X114060807Y-128732514D01*
X114034247Y-128752212D01*
X114005884Y-128769212D01*
X113975991Y-128783350D01*
X113944857Y-128794490D01*
X113912781Y-128802524D01*
X113880071Y-128807376D01*
X113847044Y-128808999D01*
X112720956Y-128808999D01*
X112687929Y-128807376D01*
X112655219Y-128802524D01*
X112623143Y-128794490D01*
X112592009Y-128783350D01*
X112562116Y-128769212D01*
X112533753Y-128752212D01*
X112507193Y-128732514D01*
X112482692Y-128710307D01*
X112460485Y-128685806D01*
X112440787Y-128659246D01*
X112423787Y-128630883D01*
X112409649Y-128600990D01*
X112398509Y-128569856D01*
X112390475Y-128537780D01*
X112385623Y-128505070D01*
X112384000Y-128472043D01*
X112384000Y-127595955D01*
X112385623Y-127562928D01*
X112390475Y-127530218D01*
X112398509Y-127498142D01*
X112409649Y-127467008D01*
X112423787Y-127437115D01*
X112440787Y-127408752D01*
X112460485Y-127382192D01*
X112482692Y-127357691D01*
X112507193Y-127335484D01*
X112533753Y-127315786D01*
X112562116Y-127298786D01*
X112592009Y-127284648D01*
X112623143Y-127273508D01*
X112655219Y-127265474D01*
X112687929Y-127260622D01*
X112720956Y-127258999D01*
X113847044Y-127258999D01*
X113880071Y-127260622D01*
X113880071Y-127260622D01*
G37*
D13*
X113284000Y-128033999D03*
G04 #@! TD*
D12*
G04 #@! TO.C,C12*
G36*
X88734071Y-119368622D02*
X88766781Y-119373474D01*
X88798857Y-119381508D01*
X88829991Y-119392648D01*
X88859884Y-119406786D01*
X88888247Y-119423786D01*
X88914807Y-119443484D01*
X88939308Y-119465691D01*
X88961515Y-119490192D01*
X88981213Y-119516752D01*
X88998213Y-119545115D01*
X89012351Y-119575008D01*
X89023491Y-119606142D01*
X89031525Y-119638218D01*
X89036377Y-119670928D01*
X89038000Y-119703955D01*
X89038000Y-120580043D01*
X89036377Y-120613070D01*
X89031525Y-120645780D01*
X89023491Y-120677856D01*
X89012351Y-120708990D01*
X88998213Y-120738883D01*
X88981213Y-120767246D01*
X88961515Y-120793806D01*
X88939308Y-120818307D01*
X88914807Y-120840514D01*
X88888247Y-120860212D01*
X88859884Y-120877212D01*
X88829991Y-120891350D01*
X88798857Y-120902490D01*
X88766781Y-120910524D01*
X88734071Y-120915376D01*
X88701044Y-120916999D01*
X87574956Y-120916999D01*
X87541929Y-120915376D01*
X87509219Y-120910524D01*
X87477143Y-120902490D01*
X87446009Y-120891350D01*
X87416116Y-120877212D01*
X87387753Y-120860212D01*
X87361193Y-120840514D01*
X87336692Y-120818307D01*
X87314485Y-120793806D01*
X87294787Y-120767246D01*
X87277787Y-120738883D01*
X87263649Y-120708990D01*
X87252509Y-120677856D01*
X87244475Y-120645780D01*
X87239623Y-120613070D01*
X87238000Y-120580043D01*
X87238000Y-119703955D01*
X87239623Y-119670928D01*
X87244475Y-119638218D01*
X87252509Y-119606142D01*
X87263649Y-119575008D01*
X87277787Y-119545115D01*
X87294787Y-119516752D01*
X87314485Y-119490192D01*
X87336692Y-119465691D01*
X87361193Y-119443484D01*
X87387753Y-119423786D01*
X87416116Y-119406786D01*
X87446009Y-119392648D01*
X87477143Y-119381508D01*
X87509219Y-119373474D01*
X87541929Y-119368622D01*
X87574956Y-119366999D01*
X88701044Y-119366999D01*
X88734071Y-119368622D01*
X88734071Y-119368622D01*
G37*
D13*
X88138000Y-120141999D03*
D12*
G36*
X88734071Y-121418622D02*
X88766781Y-121423474D01*
X88798857Y-121431508D01*
X88829991Y-121442648D01*
X88859884Y-121456786D01*
X88888247Y-121473786D01*
X88914807Y-121493484D01*
X88939308Y-121515691D01*
X88961515Y-121540192D01*
X88981213Y-121566752D01*
X88998213Y-121595115D01*
X89012351Y-121625008D01*
X89023491Y-121656142D01*
X89031525Y-121688218D01*
X89036377Y-121720928D01*
X89038000Y-121753955D01*
X89038000Y-122630043D01*
X89036377Y-122663070D01*
X89031525Y-122695780D01*
X89023491Y-122727856D01*
X89012351Y-122758990D01*
X88998213Y-122788883D01*
X88981213Y-122817246D01*
X88961515Y-122843806D01*
X88939308Y-122868307D01*
X88914807Y-122890514D01*
X88888247Y-122910212D01*
X88859884Y-122927212D01*
X88829991Y-122941350D01*
X88798857Y-122952490D01*
X88766781Y-122960524D01*
X88734071Y-122965376D01*
X88701044Y-122966999D01*
X87574956Y-122966999D01*
X87541929Y-122965376D01*
X87509219Y-122960524D01*
X87477143Y-122952490D01*
X87446009Y-122941350D01*
X87416116Y-122927212D01*
X87387753Y-122910212D01*
X87361193Y-122890514D01*
X87336692Y-122868307D01*
X87314485Y-122843806D01*
X87294787Y-122817246D01*
X87277787Y-122788883D01*
X87263649Y-122758990D01*
X87252509Y-122727856D01*
X87244475Y-122695780D01*
X87239623Y-122663070D01*
X87238000Y-122630043D01*
X87238000Y-121753955D01*
X87239623Y-121720928D01*
X87244475Y-121688218D01*
X87252509Y-121656142D01*
X87263649Y-121625008D01*
X87277787Y-121595115D01*
X87294787Y-121566752D01*
X87314485Y-121540192D01*
X87336692Y-121515691D01*
X87361193Y-121493484D01*
X87387753Y-121473786D01*
X87416116Y-121456786D01*
X87446009Y-121442648D01*
X87477143Y-121431508D01*
X87509219Y-121423474D01*
X87541929Y-121418622D01*
X87574956Y-121416999D01*
X88701044Y-121416999D01*
X88734071Y-121418622D01*
X88734071Y-121418622D01*
G37*
D13*
X88138000Y-122191999D03*
G04 #@! TD*
D12*
G04 #@! TO.C,C13*
G36*
X110070071Y-140967623D02*
X110102781Y-140972475D01*
X110134857Y-140980509D01*
X110165991Y-140991649D01*
X110195884Y-141005787D01*
X110224247Y-141022787D01*
X110250807Y-141042485D01*
X110275308Y-141064692D01*
X110297515Y-141089193D01*
X110317213Y-141115753D01*
X110334213Y-141144116D01*
X110348351Y-141174009D01*
X110359491Y-141205143D01*
X110367525Y-141237219D01*
X110372377Y-141269929D01*
X110374000Y-141302956D01*
X110374000Y-142179044D01*
X110372377Y-142212071D01*
X110367525Y-142244781D01*
X110359491Y-142276857D01*
X110348351Y-142307991D01*
X110334213Y-142337884D01*
X110317213Y-142366247D01*
X110297515Y-142392807D01*
X110275308Y-142417308D01*
X110250807Y-142439515D01*
X110224247Y-142459213D01*
X110195884Y-142476213D01*
X110165991Y-142490351D01*
X110134857Y-142501491D01*
X110102781Y-142509525D01*
X110070071Y-142514377D01*
X110037044Y-142516000D01*
X108910956Y-142516000D01*
X108877929Y-142514377D01*
X108845219Y-142509525D01*
X108813143Y-142501491D01*
X108782009Y-142490351D01*
X108752116Y-142476213D01*
X108723753Y-142459213D01*
X108697193Y-142439515D01*
X108672692Y-142417308D01*
X108650485Y-142392807D01*
X108630787Y-142366247D01*
X108613787Y-142337884D01*
X108599649Y-142307991D01*
X108588509Y-142276857D01*
X108580475Y-142244781D01*
X108575623Y-142212071D01*
X108574000Y-142179044D01*
X108574000Y-141302956D01*
X108575623Y-141269929D01*
X108580475Y-141237219D01*
X108588509Y-141205143D01*
X108599649Y-141174009D01*
X108613787Y-141144116D01*
X108630787Y-141115753D01*
X108650485Y-141089193D01*
X108672692Y-141064692D01*
X108697193Y-141042485D01*
X108723753Y-141022787D01*
X108752116Y-141005787D01*
X108782009Y-140991649D01*
X108813143Y-140980509D01*
X108845219Y-140972475D01*
X108877929Y-140967623D01*
X108910956Y-140966000D01*
X110037044Y-140966000D01*
X110070071Y-140967623D01*
X110070071Y-140967623D01*
G37*
D13*
X109474000Y-141741000D03*
D12*
G36*
X110070071Y-138917623D02*
X110102781Y-138922475D01*
X110134857Y-138930509D01*
X110165991Y-138941649D01*
X110195884Y-138955787D01*
X110224247Y-138972787D01*
X110250807Y-138992485D01*
X110275308Y-139014692D01*
X110297515Y-139039193D01*
X110317213Y-139065753D01*
X110334213Y-139094116D01*
X110348351Y-139124009D01*
X110359491Y-139155143D01*
X110367525Y-139187219D01*
X110372377Y-139219929D01*
X110374000Y-139252956D01*
X110374000Y-140129044D01*
X110372377Y-140162071D01*
X110367525Y-140194781D01*
X110359491Y-140226857D01*
X110348351Y-140257991D01*
X110334213Y-140287884D01*
X110317213Y-140316247D01*
X110297515Y-140342807D01*
X110275308Y-140367308D01*
X110250807Y-140389515D01*
X110224247Y-140409213D01*
X110195884Y-140426213D01*
X110165991Y-140440351D01*
X110134857Y-140451491D01*
X110102781Y-140459525D01*
X110070071Y-140464377D01*
X110037044Y-140466000D01*
X108910956Y-140466000D01*
X108877929Y-140464377D01*
X108845219Y-140459525D01*
X108813143Y-140451491D01*
X108782009Y-140440351D01*
X108752116Y-140426213D01*
X108723753Y-140409213D01*
X108697193Y-140389515D01*
X108672692Y-140367308D01*
X108650485Y-140342807D01*
X108630787Y-140316247D01*
X108613787Y-140287884D01*
X108599649Y-140257991D01*
X108588509Y-140226857D01*
X108580475Y-140194781D01*
X108575623Y-140162071D01*
X108574000Y-140129044D01*
X108574000Y-139252956D01*
X108575623Y-139219929D01*
X108580475Y-139187219D01*
X108588509Y-139155143D01*
X108599649Y-139124009D01*
X108613787Y-139094116D01*
X108630787Y-139065753D01*
X108650485Y-139039193D01*
X108672692Y-139014692D01*
X108697193Y-138992485D01*
X108723753Y-138972787D01*
X108752116Y-138955787D01*
X108782009Y-138941649D01*
X108813143Y-138930509D01*
X108845219Y-138922475D01*
X108877929Y-138917623D01*
X108910956Y-138916000D01*
X110037044Y-138916000D01*
X110070071Y-138917623D01*
X110070071Y-138917623D01*
G37*
D13*
X109474000Y-139691000D03*
G04 #@! TD*
D12*
G04 #@! TO.C,C14*
G36*
X81622071Y-114551623D02*
X81654781Y-114556475D01*
X81686857Y-114564509D01*
X81717991Y-114575649D01*
X81747884Y-114589787D01*
X81776247Y-114606787D01*
X81802807Y-114626485D01*
X81827308Y-114648692D01*
X81849515Y-114673193D01*
X81869213Y-114699753D01*
X81886213Y-114728116D01*
X81900351Y-114758009D01*
X81911491Y-114789143D01*
X81919525Y-114821219D01*
X81924377Y-114853929D01*
X81926000Y-114886956D01*
X81926000Y-115763044D01*
X81924377Y-115796071D01*
X81919525Y-115828781D01*
X81911491Y-115860857D01*
X81900351Y-115891991D01*
X81886213Y-115921884D01*
X81869213Y-115950247D01*
X81849515Y-115976807D01*
X81827308Y-116001308D01*
X81802807Y-116023515D01*
X81776247Y-116043213D01*
X81747884Y-116060213D01*
X81717991Y-116074351D01*
X81686857Y-116085491D01*
X81654781Y-116093525D01*
X81622071Y-116098377D01*
X81589044Y-116100000D01*
X80462956Y-116100000D01*
X80429929Y-116098377D01*
X80397219Y-116093525D01*
X80365143Y-116085491D01*
X80334009Y-116074351D01*
X80304116Y-116060213D01*
X80275753Y-116043213D01*
X80249193Y-116023515D01*
X80224692Y-116001308D01*
X80202485Y-115976807D01*
X80182787Y-115950247D01*
X80165787Y-115921884D01*
X80151649Y-115891991D01*
X80140509Y-115860857D01*
X80132475Y-115828781D01*
X80127623Y-115796071D01*
X80126000Y-115763044D01*
X80126000Y-114886956D01*
X80127623Y-114853929D01*
X80132475Y-114821219D01*
X80140509Y-114789143D01*
X80151649Y-114758009D01*
X80165787Y-114728116D01*
X80182787Y-114699753D01*
X80202485Y-114673193D01*
X80224692Y-114648692D01*
X80249193Y-114626485D01*
X80275753Y-114606787D01*
X80304116Y-114589787D01*
X80334009Y-114575649D01*
X80365143Y-114564509D01*
X80397219Y-114556475D01*
X80429929Y-114551623D01*
X80462956Y-114550000D01*
X81589044Y-114550000D01*
X81622071Y-114551623D01*
X81622071Y-114551623D01*
G37*
D13*
X81026000Y-115325000D03*
D12*
G36*
X81622071Y-112501623D02*
X81654781Y-112506475D01*
X81686857Y-112514509D01*
X81717991Y-112525649D01*
X81747884Y-112539787D01*
X81776247Y-112556787D01*
X81802807Y-112576485D01*
X81827308Y-112598692D01*
X81849515Y-112623193D01*
X81869213Y-112649753D01*
X81886213Y-112678116D01*
X81900351Y-112708009D01*
X81911491Y-112739143D01*
X81919525Y-112771219D01*
X81924377Y-112803929D01*
X81926000Y-112836956D01*
X81926000Y-113713044D01*
X81924377Y-113746071D01*
X81919525Y-113778781D01*
X81911491Y-113810857D01*
X81900351Y-113841991D01*
X81886213Y-113871884D01*
X81869213Y-113900247D01*
X81849515Y-113926807D01*
X81827308Y-113951308D01*
X81802807Y-113973515D01*
X81776247Y-113993213D01*
X81747884Y-114010213D01*
X81717991Y-114024351D01*
X81686857Y-114035491D01*
X81654781Y-114043525D01*
X81622071Y-114048377D01*
X81589044Y-114050000D01*
X80462956Y-114050000D01*
X80429929Y-114048377D01*
X80397219Y-114043525D01*
X80365143Y-114035491D01*
X80334009Y-114024351D01*
X80304116Y-114010213D01*
X80275753Y-113993213D01*
X80249193Y-113973515D01*
X80224692Y-113951308D01*
X80202485Y-113926807D01*
X80182787Y-113900247D01*
X80165787Y-113871884D01*
X80151649Y-113841991D01*
X80140509Y-113810857D01*
X80132475Y-113778781D01*
X80127623Y-113746071D01*
X80126000Y-113713044D01*
X80126000Y-112836956D01*
X80127623Y-112803929D01*
X80132475Y-112771219D01*
X80140509Y-112739143D01*
X80151649Y-112708009D01*
X80165787Y-112678116D01*
X80182787Y-112649753D01*
X80202485Y-112623193D01*
X80224692Y-112598692D01*
X80249193Y-112576485D01*
X80275753Y-112556787D01*
X80304116Y-112539787D01*
X80334009Y-112525649D01*
X80365143Y-112514509D01*
X80397219Y-112506475D01*
X80429929Y-112501623D01*
X80462956Y-112500000D01*
X81589044Y-112500000D01*
X81622071Y-112501623D01*
X81622071Y-112501623D01*
G37*
D13*
X81026000Y-113275000D03*
G04 #@! TD*
D29*
G04 #@! TO.C,D8*
X102490000Y-126238000D03*
X105790000Y-126238000D03*
G04 #@! TD*
D12*
G04 #@! TO.C,D10*
G36*
X100926071Y-144251623D02*
X100958781Y-144256475D01*
X100990857Y-144264509D01*
X101021991Y-144275649D01*
X101051884Y-144289787D01*
X101080247Y-144306787D01*
X101106807Y-144326485D01*
X101131308Y-144348692D01*
X101153515Y-144373193D01*
X101173213Y-144399753D01*
X101190213Y-144428116D01*
X101204351Y-144458009D01*
X101215491Y-144489143D01*
X101223525Y-144521219D01*
X101228377Y-144553929D01*
X101230000Y-144586956D01*
X101230000Y-145463044D01*
X101228377Y-145496071D01*
X101223525Y-145528781D01*
X101215491Y-145560857D01*
X101204351Y-145591991D01*
X101190213Y-145621884D01*
X101173213Y-145650247D01*
X101153515Y-145676807D01*
X101131308Y-145701308D01*
X101106807Y-145723515D01*
X101080247Y-145743213D01*
X101051884Y-145760213D01*
X101021991Y-145774351D01*
X100990857Y-145785491D01*
X100958781Y-145793525D01*
X100926071Y-145798377D01*
X100893044Y-145800000D01*
X99766956Y-145800000D01*
X99733929Y-145798377D01*
X99701219Y-145793525D01*
X99669143Y-145785491D01*
X99638009Y-145774351D01*
X99608116Y-145760213D01*
X99579753Y-145743213D01*
X99553193Y-145723515D01*
X99528692Y-145701308D01*
X99506485Y-145676807D01*
X99486787Y-145650247D01*
X99469787Y-145621884D01*
X99455649Y-145591991D01*
X99444509Y-145560857D01*
X99436475Y-145528781D01*
X99431623Y-145496071D01*
X99430000Y-145463044D01*
X99430000Y-144586956D01*
X99431623Y-144553929D01*
X99436475Y-144521219D01*
X99444509Y-144489143D01*
X99455649Y-144458009D01*
X99469787Y-144428116D01*
X99486787Y-144399753D01*
X99506485Y-144373193D01*
X99528692Y-144348692D01*
X99553193Y-144326485D01*
X99579753Y-144306787D01*
X99608116Y-144289787D01*
X99638009Y-144275649D01*
X99669143Y-144264509D01*
X99701219Y-144256475D01*
X99733929Y-144251623D01*
X99766956Y-144250000D01*
X100893044Y-144250000D01*
X100926071Y-144251623D01*
X100926071Y-144251623D01*
G37*
D13*
X100330000Y-145025000D03*
D12*
G36*
X100926071Y-146301623D02*
X100958781Y-146306475D01*
X100990857Y-146314509D01*
X101021991Y-146325649D01*
X101051884Y-146339787D01*
X101080247Y-146356787D01*
X101106807Y-146376485D01*
X101131308Y-146398692D01*
X101153515Y-146423193D01*
X101173213Y-146449753D01*
X101190213Y-146478116D01*
X101204351Y-146508009D01*
X101215491Y-146539143D01*
X101223525Y-146571219D01*
X101228377Y-146603929D01*
X101230000Y-146636956D01*
X101230000Y-147513044D01*
X101228377Y-147546071D01*
X101223525Y-147578781D01*
X101215491Y-147610857D01*
X101204351Y-147641991D01*
X101190213Y-147671884D01*
X101173213Y-147700247D01*
X101153515Y-147726807D01*
X101131308Y-147751308D01*
X101106807Y-147773515D01*
X101080247Y-147793213D01*
X101051884Y-147810213D01*
X101021991Y-147824351D01*
X100990857Y-147835491D01*
X100958781Y-147843525D01*
X100926071Y-147848377D01*
X100893044Y-147850000D01*
X99766956Y-147850000D01*
X99733929Y-147848377D01*
X99701219Y-147843525D01*
X99669143Y-147835491D01*
X99638009Y-147824351D01*
X99608116Y-147810213D01*
X99579753Y-147793213D01*
X99553193Y-147773515D01*
X99528692Y-147751308D01*
X99506485Y-147726807D01*
X99486787Y-147700247D01*
X99469787Y-147671884D01*
X99455649Y-147641991D01*
X99444509Y-147610857D01*
X99436475Y-147578781D01*
X99431623Y-147546071D01*
X99430000Y-147513044D01*
X99430000Y-146636956D01*
X99431623Y-146603929D01*
X99436475Y-146571219D01*
X99444509Y-146539143D01*
X99455649Y-146508009D01*
X99469787Y-146478116D01*
X99486787Y-146449753D01*
X99506485Y-146423193D01*
X99528692Y-146398692D01*
X99553193Y-146376485D01*
X99579753Y-146356787D01*
X99608116Y-146339787D01*
X99638009Y-146325649D01*
X99669143Y-146314509D01*
X99701219Y-146306475D01*
X99733929Y-146301623D01*
X99766956Y-146300000D01*
X100893044Y-146300000D01*
X100926071Y-146301623D01*
X100926071Y-146301623D01*
G37*
D13*
X100330000Y-147075000D03*
G04 #@! TD*
D10*
G04 #@! TO.C,J10*
X115316000Y-136652000D03*
D11*
X115316000Y-139192000D03*
G04 #@! TD*
D12*
G04 #@! TO.C,R7*
G36*
X88734071Y-130798623D02*
X88766781Y-130803475D01*
X88798857Y-130811509D01*
X88829991Y-130822649D01*
X88859884Y-130836787D01*
X88888247Y-130853787D01*
X88914807Y-130873485D01*
X88939308Y-130895692D01*
X88961515Y-130920193D01*
X88981213Y-130946753D01*
X88998213Y-130975116D01*
X89012351Y-131005009D01*
X89023491Y-131036143D01*
X89031525Y-131068219D01*
X89036377Y-131100929D01*
X89038000Y-131133956D01*
X89038000Y-132010044D01*
X89036377Y-132043071D01*
X89031525Y-132075781D01*
X89023491Y-132107857D01*
X89012351Y-132138991D01*
X88998213Y-132168884D01*
X88981213Y-132197247D01*
X88961515Y-132223807D01*
X88939308Y-132248308D01*
X88914807Y-132270515D01*
X88888247Y-132290213D01*
X88859884Y-132307213D01*
X88829991Y-132321351D01*
X88798857Y-132332491D01*
X88766781Y-132340525D01*
X88734071Y-132345377D01*
X88701044Y-132347000D01*
X87574956Y-132347000D01*
X87541929Y-132345377D01*
X87509219Y-132340525D01*
X87477143Y-132332491D01*
X87446009Y-132321351D01*
X87416116Y-132307213D01*
X87387753Y-132290213D01*
X87361193Y-132270515D01*
X87336692Y-132248308D01*
X87314485Y-132223807D01*
X87294787Y-132197247D01*
X87277787Y-132168884D01*
X87263649Y-132138991D01*
X87252509Y-132107857D01*
X87244475Y-132075781D01*
X87239623Y-132043071D01*
X87238000Y-132010044D01*
X87238000Y-131133956D01*
X87239623Y-131100929D01*
X87244475Y-131068219D01*
X87252509Y-131036143D01*
X87263649Y-131005009D01*
X87277787Y-130975116D01*
X87294787Y-130946753D01*
X87314485Y-130920193D01*
X87336692Y-130895692D01*
X87361193Y-130873485D01*
X87387753Y-130853787D01*
X87416116Y-130836787D01*
X87446009Y-130822649D01*
X87477143Y-130811509D01*
X87509219Y-130803475D01*
X87541929Y-130798623D01*
X87574956Y-130797000D01*
X88701044Y-130797000D01*
X88734071Y-130798623D01*
X88734071Y-130798623D01*
G37*
D13*
X88138000Y-131572000D03*
D12*
G36*
X88734071Y-128748623D02*
X88766781Y-128753475D01*
X88798857Y-128761509D01*
X88829991Y-128772649D01*
X88859884Y-128786787D01*
X88888247Y-128803787D01*
X88914807Y-128823485D01*
X88939308Y-128845692D01*
X88961515Y-128870193D01*
X88981213Y-128896753D01*
X88998213Y-128925116D01*
X89012351Y-128955009D01*
X89023491Y-128986143D01*
X89031525Y-129018219D01*
X89036377Y-129050929D01*
X89038000Y-129083956D01*
X89038000Y-129960044D01*
X89036377Y-129993071D01*
X89031525Y-130025781D01*
X89023491Y-130057857D01*
X89012351Y-130088991D01*
X88998213Y-130118884D01*
X88981213Y-130147247D01*
X88961515Y-130173807D01*
X88939308Y-130198308D01*
X88914807Y-130220515D01*
X88888247Y-130240213D01*
X88859884Y-130257213D01*
X88829991Y-130271351D01*
X88798857Y-130282491D01*
X88766781Y-130290525D01*
X88734071Y-130295377D01*
X88701044Y-130297000D01*
X87574956Y-130297000D01*
X87541929Y-130295377D01*
X87509219Y-130290525D01*
X87477143Y-130282491D01*
X87446009Y-130271351D01*
X87416116Y-130257213D01*
X87387753Y-130240213D01*
X87361193Y-130220515D01*
X87336692Y-130198308D01*
X87314485Y-130173807D01*
X87294787Y-130147247D01*
X87277787Y-130118884D01*
X87263649Y-130088991D01*
X87252509Y-130057857D01*
X87244475Y-130025781D01*
X87239623Y-129993071D01*
X87238000Y-129960044D01*
X87238000Y-129083956D01*
X87239623Y-129050929D01*
X87244475Y-129018219D01*
X87252509Y-128986143D01*
X87263649Y-128955009D01*
X87277787Y-128925116D01*
X87294787Y-128896753D01*
X87314485Y-128870193D01*
X87336692Y-128845692D01*
X87361193Y-128823485D01*
X87387753Y-128803787D01*
X87416116Y-128786787D01*
X87446009Y-128772649D01*
X87477143Y-128761509D01*
X87509219Y-128753475D01*
X87541929Y-128748623D01*
X87574956Y-128747000D01*
X88701044Y-128747000D01*
X88734071Y-128748623D01*
X88734071Y-128748623D01*
G37*
D13*
X88138000Y-129522000D03*
G04 #@! TD*
D12*
G04 #@! TO.C,R8*
G36*
X110578071Y-125201623D02*
X110610781Y-125206475D01*
X110642857Y-125214509D01*
X110673991Y-125225649D01*
X110703884Y-125239787D01*
X110732247Y-125256787D01*
X110758807Y-125276485D01*
X110783308Y-125298692D01*
X110805515Y-125323193D01*
X110825213Y-125349753D01*
X110842213Y-125378116D01*
X110856351Y-125408009D01*
X110867491Y-125439143D01*
X110875525Y-125471219D01*
X110880377Y-125503929D01*
X110882000Y-125536956D01*
X110882000Y-126413044D01*
X110880377Y-126446071D01*
X110875525Y-126478781D01*
X110867491Y-126510857D01*
X110856351Y-126541991D01*
X110842213Y-126571884D01*
X110825213Y-126600247D01*
X110805515Y-126626807D01*
X110783308Y-126651308D01*
X110758807Y-126673515D01*
X110732247Y-126693213D01*
X110703884Y-126710213D01*
X110673991Y-126724351D01*
X110642857Y-126735491D01*
X110610781Y-126743525D01*
X110578071Y-126748377D01*
X110545044Y-126750000D01*
X109418956Y-126750000D01*
X109385929Y-126748377D01*
X109353219Y-126743525D01*
X109321143Y-126735491D01*
X109290009Y-126724351D01*
X109260116Y-126710213D01*
X109231753Y-126693213D01*
X109205193Y-126673515D01*
X109180692Y-126651308D01*
X109158485Y-126626807D01*
X109138787Y-126600247D01*
X109121787Y-126571884D01*
X109107649Y-126541991D01*
X109096509Y-126510857D01*
X109088475Y-126478781D01*
X109083623Y-126446071D01*
X109082000Y-126413044D01*
X109082000Y-125536956D01*
X109083623Y-125503929D01*
X109088475Y-125471219D01*
X109096509Y-125439143D01*
X109107649Y-125408009D01*
X109121787Y-125378116D01*
X109138787Y-125349753D01*
X109158485Y-125323193D01*
X109180692Y-125298692D01*
X109205193Y-125276485D01*
X109231753Y-125256787D01*
X109260116Y-125239787D01*
X109290009Y-125225649D01*
X109321143Y-125214509D01*
X109353219Y-125206475D01*
X109385929Y-125201623D01*
X109418956Y-125200000D01*
X110545044Y-125200000D01*
X110578071Y-125201623D01*
X110578071Y-125201623D01*
G37*
D13*
X109982000Y-125975000D03*
D12*
G36*
X110578071Y-127251623D02*
X110610781Y-127256475D01*
X110642857Y-127264509D01*
X110673991Y-127275649D01*
X110703884Y-127289787D01*
X110732247Y-127306787D01*
X110758807Y-127326485D01*
X110783308Y-127348692D01*
X110805515Y-127373193D01*
X110825213Y-127399753D01*
X110842213Y-127428116D01*
X110856351Y-127458009D01*
X110867491Y-127489143D01*
X110875525Y-127521219D01*
X110880377Y-127553929D01*
X110882000Y-127586956D01*
X110882000Y-128463044D01*
X110880377Y-128496071D01*
X110875525Y-128528781D01*
X110867491Y-128560857D01*
X110856351Y-128591991D01*
X110842213Y-128621884D01*
X110825213Y-128650247D01*
X110805515Y-128676807D01*
X110783308Y-128701308D01*
X110758807Y-128723515D01*
X110732247Y-128743213D01*
X110703884Y-128760213D01*
X110673991Y-128774351D01*
X110642857Y-128785491D01*
X110610781Y-128793525D01*
X110578071Y-128798377D01*
X110545044Y-128800000D01*
X109418956Y-128800000D01*
X109385929Y-128798377D01*
X109353219Y-128793525D01*
X109321143Y-128785491D01*
X109290009Y-128774351D01*
X109260116Y-128760213D01*
X109231753Y-128743213D01*
X109205193Y-128723515D01*
X109180692Y-128701308D01*
X109158485Y-128676807D01*
X109138787Y-128650247D01*
X109121787Y-128621884D01*
X109107649Y-128591991D01*
X109096509Y-128560857D01*
X109088475Y-128528781D01*
X109083623Y-128496071D01*
X109082000Y-128463044D01*
X109082000Y-127586956D01*
X109083623Y-127553929D01*
X109088475Y-127521219D01*
X109096509Y-127489143D01*
X109107649Y-127458009D01*
X109121787Y-127428116D01*
X109138787Y-127399753D01*
X109158485Y-127373193D01*
X109180692Y-127348692D01*
X109205193Y-127326485D01*
X109231753Y-127306787D01*
X109260116Y-127289787D01*
X109290009Y-127275649D01*
X109321143Y-127264509D01*
X109353219Y-127256475D01*
X109385929Y-127251623D01*
X109418956Y-127250000D01*
X110545044Y-127250000D01*
X110578071Y-127251623D01*
X110578071Y-127251623D01*
G37*
D13*
X109982000Y-128025000D03*
G04 #@! TD*
D12*
G04 #@! TO.C,R10*
G36*
X100926071Y-138908624D02*
X100958781Y-138913476D01*
X100990857Y-138921510D01*
X101021991Y-138932650D01*
X101051884Y-138946788D01*
X101080247Y-138963788D01*
X101106807Y-138983486D01*
X101131308Y-139005693D01*
X101153515Y-139030194D01*
X101173213Y-139056754D01*
X101190213Y-139085117D01*
X101204351Y-139115010D01*
X101215491Y-139146144D01*
X101223525Y-139178220D01*
X101228377Y-139210930D01*
X101230000Y-139243957D01*
X101230000Y-140120045D01*
X101228377Y-140153072D01*
X101223525Y-140185782D01*
X101215491Y-140217858D01*
X101204351Y-140248992D01*
X101190213Y-140278885D01*
X101173213Y-140307248D01*
X101153515Y-140333808D01*
X101131308Y-140358309D01*
X101106807Y-140380516D01*
X101080247Y-140400214D01*
X101051884Y-140417214D01*
X101021991Y-140431352D01*
X100990857Y-140442492D01*
X100958781Y-140450526D01*
X100926071Y-140455378D01*
X100893044Y-140457001D01*
X99766956Y-140457001D01*
X99733929Y-140455378D01*
X99701219Y-140450526D01*
X99669143Y-140442492D01*
X99638009Y-140431352D01*
X99608116Y-140417214D01*
X99579753Y-140400214D01*
X99553193Y-140380516D01*
X99528692Y-140358309D01*
X99506485Y-140333808D01*
X99486787Y-140307248D01*
X99469787Y-140278885D01*
X99455649Y-140248992D01*
X99444509Y-140217858D01*
X99436475Y-140185782D01*
X99431623Y-140153072D01*
X99430000Y-140120045D01*
X99430000Y-139243957D01*
X99431623Y-139210930D01*
X99436475Y-139178220D01*
X99444509Y-139146144D01*
X99455649Y-139115010D01*
X99469787Y-139085117D01*
X99486787Y-139056754D01*
X99506485Y-139030194D01*
X99528692Y-139005693D01*
X99553193Y-138983486D01*
X99579753Y-138963788D01*
X99608116Y-138946788D01*
X99638009Y-138932650D01*
X99669143Y-138921510D01*
X99701219Y-138913476D01*
X99733929Y-138908624D01*
X99766956Y-138907001D01*
X100893044Y-138907001D01*
X100926071Y-138908624D01*
X100926071Y-138908624D01*
G37*
D13*
X100330000Y-139682001D03*
D12*
G36*
X100926071Y-140958624D02*
X100958781Y-140963476D01*
X100990857Y-140971510D01*
X101021991Y-140982650D01*
X101051884Y-140996788D01*
X101080247Y-141013788D01*
X101106807Y-141033486D01*
X101131308Y-141055693D01*
X101153515Y-141080194D01*
X101173213Y-141106754D01*
X101190213Y-141135117D01*
X101204351Y-141165010D01*
X101215491Y-141196144D01*
X101223525Y-141228220D01*
X101228377Y-141260930D01*
X101230000Y-141293957D01*
X101230000Y-142170045D01*
X101228377Y-142203072D01*
X101223525Y-142235782D01*
X101215491Y-142267858D01*
X101204351Y-142298992D01*
X101190213Y-142328885D01*
X101173213Y-142357248D01*
X101153515Y-142383808D01*
X101131308Y-142408309D01*
X101106807Y-142430516D01*
X101080247Y-142450214D01*
X101051884Y-142467214D01*
X101021991Y-142481352D01*
X100990857Y-142492492D01*
X100958781Y-142500526D01*
X100926071Y-142505378D01*
X100893044Y-142507001D01*
X99766956Y-142507001D01*
X99733929Y-142505378D01*
X99701219Y-142500526D01*
X99669143Y-142492492D01*
X99638009Y-142481352D01*
X99608116Y-142467214D01*
X99579753Y-142450214D01*
X99553193Y-142430516D01*
X99528692Y-142408309D01*
X99506485Y-142383808D01*
X99486787Y-142357248D01*
X99469787Y-142328885D01*
X99455649Y-142298992D01*
X99444509Y-142267858D01*
X99436475Y-142235782D01*
X99431623Y-142203072D01*
X99430000Y-142170045D01*
X99430000Y-141293957D01*
X99431623Y-141260930D01*
X99436475Y-141228220D01*
X99444509Y-141196144D01*
X99455649Y-141165010D01*
X99469787Y-141135117D01*
X99486787Y-141106754D01*
X99506485Y-141080194D01*
X99528692Y-141055693D01*
X99553193Y-141033486D01*
X99579753Y-141013788D01*
X99608116Y-140996788D01*
X99638009Y-140982650D01*
X99669143Y-140971510D01*
X99701219Y-140963476D01*
X99733929Y-140958624D01*
X99766956Y-140957001D01*
X100893044Y-140957001D01*
X100926071Y-140958624D01*
X100926071Y-140958624D01*
G37*
D13*
X100330000Y-141732001D03*
G04 #@! TD*
D12*
G04 #@! TO.C,R11*
G36*
X88734071Y-114542623D02*
X88766781Y-114547475D01*
X88798857Y-114555509D01*
X88829991Y-114566649D01*
X88859884Y-114580787D01*
X88888247Y-114597787D01*
X88914807Y-114617485D01*
X88939308Y-114639692D01*
X88961515Y-114664193D01*
X88981213Y-114690753D01*
X88998213Y-114719116D01*
X89012351Y-114749009D01*
X89023491Y-114780143D01*
X89031525Y-114812219D01*
X89036377Y-114844929D01*
X89038000Y-114877956D01*
X89038000Y-115754044D01*
X89036377Y-115787071D01*
X89031525Y-115819781D01*
X89023491Y-115851857D01*
X89012351Y-115882991D01*
X88998213Y-115912884D01*
X88981213Y-115941247D01*
X88961515Y-115967807D01*
X88939308Y-115992308D01*
X88914807Y-116014515D01*
X88888247Y-116034213D01*
X88859884Y-116051213D01*
X88829991Y-116065351D01*
X88798857Y-116076491D01*
X88766781Y-116084525D01*
X88734071Y-116089377D01*
X88701044Y-116091000D01*
X87574956Y-116091000D01*
X87541929Y-116089377D01*
X87509219Y-116084525D01*
X87477143Y-116076491D01*
X87446009Y-116065351D01*
X87416116Y-116051213D01*
X87387753Y-116034213D01*
X87361193Y-116014515D01*
X87336692Y-115992308D01*
X87314485Y-115967807D01*
X87294787Y-115941247D01*
X87277787Y-115912884D01*
X87263649Y-115882991D01*
X87252509Y-115851857D01*
X87244475Y-115819781D01*
X87239623Y-115787071D01*
X87238000Y-115754044D01*
X87238000Y-114877956D01*
X87239623Y-114844929D01*
X87244475Y-114812219D01*
X87252509Y-114780143D01*
X87263649Y-114749009D01*
X87277787Y-114719116D01*
X87294787Y-114690753D01*
X87314485Y-114664193D01*
X87336692Y-114639692D01*
X87361193Y-114617485D01*
X87387753Y-114597787D01*
X87416116Y-114580787D01*
X87446009Y-114566649D01*
X87477143Y-114555509D01*
X87509219Y-114547475D01*
X87541929Y-114542623D01*
X87574956Y-114541000D01*
X88701044Y-114541000D01*
X88734071Y-114542623D01*
X88734071Y-114542623D01*
G37*
D13*
X88138000Y-115316000D03*
D12*
G36*
X88734071Y-112492623D02*
X88766781Y-112497475D01*
X88798857Y-112505509D01*
X88829991Y-112516649D01*
X88859884Y-112530787D01*
X88888247Y-112547787D01*
X88914807Y-112567485D01*
X88939308Y-112589692D01*
X88961515Y-112614193D01*
X88981213Y-112640753D01*
X88998213Y-112669116D01*
X89012351Y-112699009D01*
X89023491Y-112730143D01*
X89031525Y-112762219D01*
X89036377Y-112794929D01*
X89038000Y-112827956D01*
X89038000Y-113704044D01*
X89036377Y-113737071D01*
X89031525Y-113769781D01*
X89023491Y-113801857D01*
X89012351Y-113832991D01*
X88998213Y-113862884D01*
X88981213Y-113891247D01*
X88961515Y-113917807D01*
X88939308Y-113942308D01*
X88914807Y-113964515D01*
X88888247Y-113984213D01*
X88859884Y-114001213D01*
X88829991Y-114015351D01*
X88798857Y-114026491D01*
X88766781Y-114034525D01*
X88734071Y-114039377D01*
X88701044Y-114041000D01*
X87574956Y-114041000D01*
X87541929Y-114039377D01*
X87509219Y-114034525D01*
X87477143Y-114026491D01*
X87446009Y-114015351D01*
X87416116Y-114001213D01*
X87387753Y-113984213D01*
X87361193Y-113964515D01*
X87336692Y-113942308D01*
X87314485Y-113917807D01*
X87294787Y-113891247D01*
X87277787Y-113862884D01*
X87263649Y-113832991D01*
X87252509Y-113801857D01*
X87244475Y-113769781D01*
X87239623Y-113737071D01*
X87238000Y-113704044D01*
X87238000Y-112827956D01*
X87239623Y-112794929D01*
X87244475Y-112762219D01*
X87252509Y-112730143D01*
X87263649Y-112699009D01*
X87277787Y-112669116D01*
X87294787Y-112640753D01*
X87314485Y-112614193D01*
X87336692Y-112589692D01*
X87361193Y-112567485D01*
X87387753Y-112547787D01*
X87416116Y-112530787D01*
X87446009Y-112516649D01*
X87477143Y-112505509D01*
X87509219Y-112497475D01*
X87541929Y-112492623D01*
X87574956Y-112491000D01*
X88701044Y-112491000D01*
X88734071Y-112492623D01*
X88734071Y-112492623D01*
G37*
D13*
X88138000Y-113266000D03*
G04 #@! TD*
D12*
G04 #@! TO.C,R12*
G36*
X85178071Y-114551623D02*
X85210781Y-114556475D01*
X85242857Y-114564509D01*
X85273991Y-114575649D01*
X85303884Y-114589787D01*
X85332247Y-114606787D01*
X85358807Y-114626485D01*
X85383308Y-114648692D01*
X85405515Y-114673193D01*
X85425213Y-114699753D01*
X85442213Y-114728116D01*
X85456351Y-114758009D01*
X85467491Y-114789143D01*
X85475525Y-114821219D01*
X85480377Y-114853929D01*
X85482000Y-114886956D01*
X85482000Y-115763044D01*
X85480377Y-115796071D01*
X85475525Y-115828781D01*
X85467491Y-115860857D01*
X85456351Y-115891991D01*
X85442213Y-115921884D01*
X85425213Y-115950247D01*
X85405515Y-115976807D01*
X85383308Y-116001308D01*
X85358807Y-116023515D01*
X85332247Y-116043213D01*
X85303884Y-116060213D01*
X85273991Y-116074351D01*
X85242857Y-116085491D01*
X85210781Y-116093525D01*
X85178071Y-116098377D01*
X85145044Y-116100000D01*
X84018956Y-116100000D01*
X83985929Y-116098377D01*
X83953219Y-116093525D01*
X83921143Y-116085491D01*
X83890009Y-116074351D01*
X83860116Y-116060213D01*
X83831753Y-116043213D01*
X83805193Y-116023515D01*
X83780692Y-116001308D01*
X83758485Y-115976807D01*
X83738787Y-115950247D01*
X83721787Y-115921884D01*
X83707649Y-115891991D01*
X83696509Y-115860857D01*
X83688475Y-115828781D01*
X83683623Y-115796071D01*
X83682000Y-115763044D01*
X83682000Y-114886956D01*
X83683623Y-114853929D01*
X83688475Y-114821219D01*
X83696509Y-114789143D01*
X83707649Y-114758009D01*
X83721787Y-114728116D01*
X83738787Y-114699753D01*
X83758485Y-114673193D01*
X83780692Y-114648692D01*
X83805193Y-114626485D01*
X83831753Y-114606787D01*
X83860116Y-114589787D01*
X83890009Y-114575649D01*
X83921143Y-114564509D01*
X83953219Y-114556475D01*
X83985929Y-114551623D01*
X84018956Y-114550000D01*
X85145044Y-114550000D01*
X85178071Y-114551623D01*
X85178071Y-114551623D01*
G37*
D13*
X84582000Y-115325000D03*
D12*
G36*
X85178071Y-112501623D02*
X85210781Y-112506475D01*
X85242857Y-112514509D01*
X85273991Y-112525649D01*
X85303884Y-112539787D01*
X85332247Y-112556787D01*
X85358807Y-112576485D01*
X85383308Y-112598692D01*
X85405515Y-112623193D01*
X85425213Y-112649753D01*
X85442213Y-112678116D01*
X85456351Y-112708009D01*
X85467491Y-112739143D01*
X85475525Y-112771219D01*
X85480377Y-112803929D01*
X85482000Y-112836956D01*
X85482000Y-113713044D01*
X85480377Y-113746071D01*
X85475525Y-113778781D01*
X85467491Y-113810857D01*
X85456351Y-113841991D01*
X85442213Y-113871884D01*
X85425213Y-113900247D01*
X85405515Y-113926807D01*
X85383308Y-113951308D01*
X85358807Y-113973515D01*
X85332247Y-113993213D01*
X85303884Y-114010213D01*
X85273991Y-114024351D01*
X85242857Y-114035491D01*
X85210781Y-114043525D01*
X85178071Y-114048377D01*
X85145044Y-114050000D01*
X84018956Y-114050000D01*
X83985929Y-114048377D01*
X83953219Y-114043525D01*
X83921143Y-114035491D01*
X83890009Y-114024351D01*
X83860116Y-114010213D01*
X83831753Y-113993213D01*
X83805193Y-113973515D01*
X83780692Y-113951308D01*
X83758485Y-113926807D01*
X83738787Y-113900247D01*
X83721787Y-113871884D01*
X83707649Y-113841991D01*
X83696509Y-113810857D01*
X83688475Y-113778781D01*
X83683623Y-113746071D01*
X83682000Y-113713044D01*
X83682000Y-112836956D01*
X83683623Y-112803929D01*
X83688475Y-112771219D01*
X83696509Y-112739143D01*
X83707649Y-112708009D01*
X83721787Y-112678116D01*
X83738787Y-112649753D01*
X83758485Y-112623193D01*
X83780692Y-112598692D01*
X83805193Y-112576485D01*
X83831753Y-112556787D01*
X83860116Y-112539787D01*
X83890009Y-112525649D01*
X83921143Y-112514509D01*
X83953219Y-112506475D01*
X83985929Y-112501623D01*
X84018956Y-112500000D01*
X85145044Y-112500000D01*
X85178071Y-112501623D01*
X85178071Y-112501623D01*
G37*
D13*
X84582000Y-113275000D03*
G04 #@! TD*
D30*
G04 #@! TO.C,U3*
X97621000Y-133731000D03*
X97621000Y-132461000D03*
X97621000Y-131191000D03*
X97621000Y-129921000D03*
X92371000Y-133731000D03*
X92371000Y-132461000D03*
X92371000Y-131191000D03*
X92371000Y-129921000D03*
G04 #@! TD*
D31*
G04 #@! TO.C,U4*
X91506000Y-122258000D03*
X92456000Y-122258000D03*
X93406000Y-122258000D03*
X93406000Y-120058000D03*
X91506000Y-120058000D03*
G04 #@! TD*
D32*
G04 #@! TO.C,J9*
X126110997Y-83058002D03*
X126110997Y-85090002D03*
X118490997Y-84074002D03*
D33*
X119760997Y-84709002D03*
X121030997Y-84709002D03*
X122300997Y-84709002D03*
X123570997Y-84709002D03*
X124840997Y-84709002D03*
X124840997Y-83439002D03*
X123570997Y-83439002D03*
X122300997Y-83439002D03*
X121030997Y-83439002D03*
X119760997Y-83439002D03*
G04 #@! TD*
D34*
G04 #@! TO.C,BT1*
X114098000Y-114300000D03*
X143458000Y-114300000D03*
G04 #@! TD*
M02*
