<svg version="1.1" xmlns="http://www.w3.org/2000/svg" xmlns:xlink="http://www.w3.org/1999/xlink" stroke-linecap="round" stroke-linejoin="round" stroke-width="0" fill-rule="evenodd" clip-rule="evenodd" id="bTxv3zUJF2ZK-Bkrpjz6_bottom" viewBox="76200 -152400 76200 76200" width="76.2mm" height="76.2mm" class="w-100 h-100"><defs><style>.bTxv3zUJF2ZK-Bkrpjz6_fr4 {color: #666666;}
.bTxv3zUJF2ZK-Bkrpjz6_cu {color: #cccccc;}
.bTxv3zUJF2ZK-Bkrpjz6_cf {color: #cc9933;}
.bTxv3zUJF2ZK-Bkrpjz6_sm {color: #004200; opacity: 0.75;}
.bTxv3zUJF2ZK-Bkrpjz6_ss {color: #ffffff;}
.bTxv3zUJF2ZK-Bkrpjz6_sp {color: #999999;}
.bTxv3zUJF2ZK-Bkrpjz6_out {color: #000000;}</style><rect x="-850" y="-850" width="1700" height="1700" id="VkCABs9Z7fX2KHdHVj9t_pad-10"/><rect x="-850" y="-850" width="1700" height="1700" rx="850" ry="850" id="VkCABs9Z7fX2KHdHVj9t_pad-11"/><circle cx="0" cy="0" r="500" id="VkCABs9Z7fX2KHdHVj9t_pad-12"/><circle cx="0" cy="0" r="725" id="VkCABs9Z7fX2KHdHVj9t_pad-13"/><rect x="-600" y="-950" width="1200" height="1900" rx="600" ry="600" id="VkCABs9Z7fX2KHdHVj9t_pad-14"/><circle cx="0" cy="0" r="400" id="VkCABs9Z7fX2KHdHVj9t_pad-15"/><rect x="-1050" y="-1050" width="2100" height="2100" id="sTY1Y7GiQl3yOhRL6f5N_pad-10"/><rect x="-1050" y="-1050" width="2100" height="2100" rx="1050" ry="1050" id="sTY1Y7GiQl3yOhRL6f5N_pad-11"/><circle cx="0" cy="0" r="1300" id="sTY1Y7GiQl3yOhRL6f5N_pad-12"/><circle cx="0" cy="0" r="700" id="sTY1Y7GiQl3yOhRL6f5N_pad-13"/><circle cx="0" cy="0" r="925" id="sTY1Y7GiQl3yOhRL6f5N_pad-14"/><rect x="-800" y="-1150" width="1600" height="2300" rx="800" ry="800" id="sTY1Y7GiQl3yOhRL6f5N_pad-15"/><circle cx="0" cy="0" r="695.3" id="sTY1Y7GiQl3yOhRL6f5N_pad-16"/><circle cx="0" cy="0" r="7.85" id="MQVluhy-Bwpow_D-1ESh_pad-1"/><circle cx="0" cy="0" r="16.75" id="MQVluhy-Bwpow_D-1ESh_pad-3"/><circle cx="0" cy="0" r="19.7" id="MQVluhy-Bwpow_D-1ESh_pad-4"/><circle cx="0" cy="0" r="17.7" id="TRUmRtHS2JfokIxpqJw__pad-1"/><circle cx="0" cy="0" r="19.5" id="TRUmRtHS2JfokIxpqJw__pad-2"/><circle cx="0" cy="0" r="43.3" id="TRUmRtHS2JfokIxpqJw__pad-3"/><g id="bTxv3zUJF2ZK-Bkrpjz6_bottom_copper"><use xlink:href="#VkCABs9Z7fX2KHdHVj9t_pad-10" x="77470" y="-82232.5"/><use xlink:href="#VkCABs9Z7fX2KHdHVj9t_pad-11" x="77470" y="-84772.5"/><use xlink:href="#VkCABs9Z7fX2KHdHVj9t_pad-11" x="77470" y="-87312.5"/><use xlink:href="#VkCABs9Z7fX2KHdHVj9t_pad-11" x="77470" y="-89852.5"/><use xlink:href="#VkCABs9Z7fX2KHdHVj9t_pad-11" x="77470" y="-108902.5"/><use xlink:href="#VkCABs9Z7fX2KHdHVj9t_pad-11" x="77470" y="-106362.5"/><use xlink:href="#VkCABs9Z7fX2KHdHVj9t_pad-11" x="77470" y="-103822.5"/><use xlink:href="#VkCABs9Z7fX2KHdHVj9t_pad-10" x="77470" y="-101282.5"/><use xlink:href="#VkCABs9Z7fX2KHdHVj9t_pad-10" x="77470" y="-120332.5"/><use xlink:href="#VkCABs9Z7fX2KHdHVj9t_pad-11" x="77470" y="-122872.5"/><use xlink:href="#VkCABs9Z7fX2KHdHVj9t_pad-11" x="77470" y="-125412.5"/><use xlink:href="#VkCABs9Z7fX2KHdHVj9t_pad-11" x="77470" y="-127952.5"/><use xlink:href="#VkCABs9Z7fX2KHdHVj9t_pad-11" x="77470" y="-147002.5"/><use xlink:href="#VkCABs9Z7fX2KHdHVj9t_pad-11" x="77470" y="-144462.5"/><use xlink:href="#VkCABs9Z7fX2KHdHVj9t_pad-11" x="77470" y="-141922.5"/><use xlink:href="#VkCABs9Z7fX2KHdHVj9t_pad-10" x="77470" y="-139382.5"/><use xlink:href="#VkCABs9Z7fX2KHdHVj9t_pad-10" x="151130" y="-82232.5"/><use xlink:href="#VkCABs9Z7fX2KHdHVj9t_pad-11" x="151130" y="-84772.5"/><use xlink:href="#VkCABs9Z7fX2KHdHVj9t_pad-11" x="151130" y="-87312.5"/><use xlink:href="#VkCABs9Z7fX2KHdHVj9t_pad-11" x="151130" y="-89852.5"/><use xlink:href="#VkCABs9Z7fX2KHdHVj9t_pad-11" x="151130" y="-108902.5"/><use xlink:href="#VkCABs9Z7fX2KHdHVj9t_pad-11" x="151130" y="-106362.5"/><use xlink:href="#VkCABs9Z7fX2KHdHVj9t_pad-11" x="151130" y="-103822.5"/><use xlink:href="#VkCABs9Z7fX2KHdHVj9t_pad-10" x="151130" y="-101282.5"/><use xlink:href="#VkCABs9Z7fX2KHdHVj9t_pad-10" x="151130" y="-120332.5"/><use xlink:href="#VkCABs9Z7fX2KHdHVj9t_pad-11" x="151130" y="-122872.5"/><use xlink:href="#VkCABs9Z7fX2KHdHVj9t_pad-11" x="151130" y="-125412.5"/><use xlink:href="#VkCABs9Z7fX2KHdHVj9t_pad-11" x="151130" y="-127952.5"/><use xlink:href="#VkCABs9Z7fX2KHdHVj9t_pad-11" x="151130" y="-147002.5"/><use xlink:href="#VkCABs9Z7fX2KHdHVj9t_pad-11" x="151130" y="-144462.5"/><use xlink:href="#VkCABs9Z7fX2KHdHVj9t_pad-11" x="151130" y="-141922.5"/><use xlink:href="#VkCABs9Z7fX2KHdHVj9t_pad-10" x="151130" y="-139382.5"/><use xlink:href="#VkCABs9Z7fX2KHdHVj9t_pad-12" x="110260" y="-147320"/><use xlink:href="#VkCABs9Z7fX2KHdHVj9t_pad-12" x="113260" y="-147320"/><use xlink:href="#VkCABs9Z7fX2KHdHVj9t_pad-13" x="144206.6" y="-80354.9"/><use xlink:href="#VkCABs9Z7fX2KHdHVj9t_pad-13" x="139206.6" y="-80354.9"/><use xlink:href="#VkCABs9Z7fX2KHdHVj9t_pad-14" x="145206.6" y="-77654.9"/><use xlink:href="#VkCABs9Z7fX2KHdHVj9t_pad-14" x="138206.6" y="-77654.9"/><use xlink:href="#VkCABs9Z7fX2KHdHVj9t_pad-10" x="115316" y="-136652"/><use xlink:href="#VkCABs9Z7fX2KHdHVj9t_pad-11" x="115316" y="-139192"/><use xlink:href="#VkCABs9Z7fX2KHdHVj9t_pad-15" x="96774" y="-90170"/><use xlink:href="#VkCABs9Z7fX2KHdHVj9t_pad-15" x="97663" y="-90932"/><use xlink:href="#VkCABs9Z7fX2KHdHVj9t_pad-15" x="98425" y="-91947.994"/><use xlink:href="#VkCABs9Z7fX2KHdHVj9t_pad-15" x="99568" y="-92710"/><use xlink:href="#VkCABs9Z7fX2KHdHVj9t_pad-15" x="97155" y="-103124"/><use xlink:href="#VkCABs9Z7fX2KHdHVj9t_pad-15" x="95810.48" y="-101763.99"/><use xlink:href="#VkCABs9Z7fX2KHdHVj9t_pad-15" x="96139" y="-98298"/><use xlink:href="#VkCABs9Z7fX2KHdHVj9t_pad-15" x="95377" y="-96266"/><use xlink:href="#VkCABs9Z7fX2KHdHVj9t_pad-15" x="98806" y="-118745"/><use xlink:href="#VkCABs9Z7fX2KHdHVj9t_pad-15" x="99060" y="-120142.002"/><use xlink:href="#VkCABs9Z7fX2KHdHVj9t_pad-15" x="98933" y="-121539"/><use xlink:href="#VkCABs9Z7fX2KHdHVj9t_pad-15" x="98747.307" y="-122621.133"/><use xlink:href="#VkCABs9Z7fX2KHdHVj9t_pad-15" x="104140" y="-124206"/><use xlink:href="#VkCABs9Z7fX2KHdHVj9t_pad-15" x="102179.221" y="-123880.989"/><use xlink:href="#VkCABs9Z7fX2KHdHVj9t_pad-15" x="101225.018" y="-123430.978"/><use xlink:href="#VkCABs9Z7fX2KHdHVj9t_pad-15" x="99656.67" y="-123107.026"/><use xlink:href="#VkCABs9Z7fX2KHdHVj9t_pad-15" x="99517.2" y="-99745.8"/><use xlink:href="#VkCABs9Z7fX2KHdHVj9t_pad-15" x="102387.4" y="-97993.2"/><use xlink:href="#VkCABs9Z7fX2KHdHVj9t_pad-15" x="104698.8" y="-96189.8"/><use xlink:href="#VkCABs9Z7fX2KHdHVj9t_pad-15" x="107721.4" y="-102362"/><use xlink:href="#VkCABs9Z7fX2KHdHVj9t_pad-15" x="97713.8" y="-85623.4"/><use xlink:href="#VkCABs9Z7fX2KHdHVj9t_pad-15" x="87172.8" y="-85369.4"/><use xlink:href="#VkCABs9Z7fX2KHdHVj9t_pad-15" x="146227.8" y="-117627.4"/><use xlink:href="#VkCABs9Z7fX2KHdHVj9t_pad-15" x="141655.8" y="-111404.4"/><use xlink:href="#VkCABs9Z7fX2KHdHVj9t_pad-15" x="101193.6" y="-112649"/><use xlink:href="#VkCABs9Z7fX2KHdHVj9t_pad-15" x="103657.4" y="-112623.6"/><use xlink:href="#VkCABs9Z7fX2KHdHVj9t_pad-15" x="97942.4" y="-96189.8"/><use xlink:href="#VkCABs9Z7fX2KHdHVj9t_pad-15" x="114503.2" y="-84995.001"/><use xlink:href="#VkCABs9Z7fX2KHdHVj9t_pad-15" x="82270.6" y="-87401.4"/><use xlink:href="#VkCABs9Z7fX2KHdHVj9t_pad-15" x="81686.4" y="-90347.8"/><use xlink:href="#VkCABs9Z7fX2KHdHVj9t_pad-15" x="80060.8" y="-91135.2"/><use xlink:href="#VkCABs9Z7fX2KHdHVj9t_pad-15" x="80492.6" y="-102387.4"/><use xlink:href="#VkCABs9Z7fX2KHdHVj9t_pad-15" x="79502" y="-104927.4"/><use xlink:href="#VkCABs9Z7fX2KHdHVj9t_pad-15" x="80289.4" y="-140563.6"/><use xlink:href="#VkCABs9Z7fX2KHdHVj9t_pad-15" x="143738.6" y="-121564.4"/><use xlink:href="#VkCABs9Z7fX2KHdHVj9t_pad-15" x="139628.99" y="-82113.01"/><use xlink:href="#VkCABs9Z7fX2KHdHVj9t_pad-15" x="79234.105" y="-144784.575"/><use xlink:href="#VkCABs9Z7fX2KHdHVj9t_pad-15" x="87376" y="-118618"/><use xlink:href="#VkCABs9Z7fX2KHdHVj9t_pad-15" x="84074" y="-117348"/><use xlink:href="#VkCABs9Z7fX2KHdHVj9t_pad-15" x="108712" y="-138176"/><use xlink:href="#VkCABs9Z7fX2KHdHVj9t_pad-15" x="97790" y="-147066"/><use xlink:href="#VkCABs9Z7fX2KHdHVj9t_pad-15" x="106680" y="-143256"/><use xlink:href="#VkCABs9Z7fX2KHdHVj9t_pad-15" x="104902" y="-137668"/><use xlink:href="#VkCABs9Z7fX2KHdHVj9t_pad-15" x="98552" y="-137160"/><use xlink:href="#VkCABs9Z7fX2KHdHVj9t_pad-15" x="101854" y="-137668"/><use xlink:href="#VkCABs9Z7fX2KHdHVj9t_pad-15" x="144018" y="-112268"/><use xlink:href="#VkCABs9Z7fX2KHdHVj9t_pad-15" x="145796" y="-113030"/><use xlink:href="#VkCABs9Z7fX2KHdHVj9t_pad-15" x="119126" y="-148590"/><use xlink:href="#VkCABs9Z7fX2KHdHVj9t_pad-15" x="150622" y="-116586"/><use xlink:href="#VkCABs9Z7fX2KHdHVj9t_pad-15" x="150622" y="-97028"/><use xlink:href="#VkCABs9Z7fX2KHdHVj9t_pad-15" x="146558" y="-82550"/><use xlink:href="#VkCABs9Z7fX2KHdHVj9t_pad-15" x="124968" y="-115316"/><use xlink:href="#VkCABs9Z7fX2KHdHVj9t_pad-15" x="137414" y="-127508"/><use xlink:href="#VkCABs9Z7fX2KHdHVj9t_pad-15" x="135890" y="-87884"/><use xlink:href="#VkCABs9Z7fX2KHdHVj9t_pad-15" x="137795" y="-93980"/><use xlink:href="#VkCABs9Z7fX2KHdHVj9t_pad-15" x="134493" y="-97409"/><use xlink:href="#VkCABs9Z7fX2KHdHVj9t_pad-15" x="130302" y="-97663"/><use xlink:href="#VkCABs9Z7fX2KHdHVj9t_pad-15" x="128651" y="-96520"/><use xlink:href="#VkCABs9Z7fX2KHdHVj9t_pad-15" x="142240" y="-93853"/><use xlink:href="#VkCABs9Z7fX2KHdHVj9t_pad-15" x="130556" y="-81788"/><use xlink:href="#VkCABs9Z7fX2KHdHVj9t_pad-15" x="116840" y="-83058"/><use xlink:href="#VkCABs9Z7fX2KHdHVj9t_pad-15" x="81661" y="-83185"/><use xlink:href="#VkCABs9Z7fX2KHdHVj9t_pad-15" x="90551" y="-83058"/><use xlink:href="#VkCABs9Z7fX2KHdHVj9t_pad-15" x="144145" y="-85217"/><use xlink:href="#VkCABs9Z7fX2KHdHVj9t_pad-15" x="95377" y="-132842"/><use xlink:href="#VkCABs9Z7fX2KHdHVj9t_pad-15" x="102997" y="-134366"/><use xlink:href="#VkCABs9Z7fX2KHdHVj9t_pad-15" x="146558" y="-88138"/><use xlink:href="#VkCABs9Z7fX2KHdHVj9t_pad-15" x="147193" y="-89916"/><use xlink:href="#VkCABs9Z7fX2KHdHVj9t_pad-15" x="148463" y="-91440"/><use xlink:href="#VkCABs9Z7fX2KHdHVj9t_pad-15" x="102997" y="-86868"/><use xlink:href="#VkCABs9Z7fX2KHdHVj9t_pad-15" x="116459" y="-85090"/><use xlink:href="#VkCABs9Z7fX2KHdHVj9t_pad-15" x="106680" y="-97536"/><use xlink:href="#VkCABs9Z7fX2KHdHVj9t_pad-15" x="96520" y="-114808"/><use xlink:href="#VkCABs9Z7fX2KHdHVj9t_pad-15" x="85344" y="-117602"/><use xlink:href="#VkCABs9Z7fX2KHdHVj9t_pad-15" x="127127" y="-94996.002"/><use xlink:href="#VkCABs9Z7fX2KHdHVj9t_pad-15" x="105537" y="-87031.99"/><use xlink:href="#VkCABs9Z7fX2KHdHVj9t_pad-15" x="123190" y="-85725"/><use xlink:href="#VkCABs9Z7fX2KHdHVj9t_pad-15" x="106807" y="-87085.01"/><use xlink:href="#VkCABs9Z7fX2KHdHVj9t_pad-15" x="117856" y="-85852"/><use xlink:href="#VkCABs9Z7fX2KHdHVj9t_pad-15" x="103632" y="-88646"/><use xlink:href="#VkCABs9Z7fX2KHdHVj9t_pad-15" x="131953" y="-88519"/><use xlink:href="#VkCABs9Z7fX2KHdHVj9t_pad-15" x="104902" y="-89408"/><use xlink:href="#VkCABs9Z7fX2KHdHVj9t_pad-15" x="120142" y="-89371.01"/><use xlink:href="#VkCABs9Z7fX2KHdHVj9t_pad-15" x="134492.996" y="-126365"/><use xlink:href="#VkCABs9Z7fX2KHdHVj9t_pad-15" x="133731" y="-133477.002"/><use xlink:href="#VkCABs9Z7fX2KHdHVj9t_pad-15" x="134668.133" y="-132619.993"/><use xlink:href="#VkCABs9Z7fX2KHdHVj9t_pad-15" x="135250.34" y="-129163.66"/><use xlink:href="#VkCABs9Z7fX2KHdHVj9t_pad-15" x="131953" y="-93472"/><use xlink:href="#VkCABs9Z7fX2KHdHVj9t_pad-15" x="126492" y="-93599"/><use xlink:href="#VkCABs9Z7fX2KHdHVj9t_pad-15" x="146812" y="-125476"/><use xlink:href="#VkCABs9Z7fX2KHdHVj9t_pad-15" x="116332" y="-125984"/><use xlink:href="#VkCABs9Z7fX2KHdHVj9t_pad-15" x="93218" y="-136906"/><use xlink:href="#VkCABs9Z7fX2KHdHVj9t_pad-15" x="95758" y="-135382"/><use xlink:href="#VkCABs9Z7fX2KHdHVj9t_pad-15" x="90170" y="-99060"/><use xlink:href="#VkCABs9Z7fX2KHdHVj9t_pad-15" x="82550" y="-100330"/><use xlink:href="#VkCABs9Z7fX2KHdHVj9t_pad-15" x="102362" y="-132842"/><use xlink:href="#VkCABs9Z7fX2KHdHVj9t_pad-15" x="101854" y="-142240"/><use xlink:href="#VkCABs9Z7fX2KHdHVj9t_pad-15" x="100076" y="-131318"/><use xlink:href="#VkCABs9Z7fX2KHdHVj9t_pad-15" x="117348" y="-133350"/><path d="M 78570 -82232.5 86507.5 -90170 96774 -90170 M 77470 -82232.5 78570 -82232.5 M 119613.988 -90170 97339.685 -90170 M 133534.004 -90170 133353.993 -90350.011 119793.999 -90350.011 M 151130 -82232.5 150030 -82232.5 M 97339.685 -90170 96774 -90170 M 142092.5 -90170 133534.004 -90170 M 150030 -82232.5 142092.5 -90170 M 119793.999 -90350.011 119613.988 -90170 M 144970.5 -90932 98228.685 -90932 M 151130 -84772.5 144970.5 -90932 M 98228.685 -90932 97663 -90932 M 97097.315 -90932 97663 -90932 M 83629.5 -90932 97097.315 -90932 M 77470 -84772.5 83629.5 -90932 M 77470 -87312.5 82105.494 -91947.994 M 151130 -87312.5 146494.506 -91947.994 M 82105.494 -91947.994 97859.315 -91947.994 M 98990.685 -91947.994 98425 -91947.994 M 146494.506 -91947.994 98990.685 -91947.994 M 97859.315 -91947.994 98425 -91947.994 M 148272.5 -92710 100133.685 -92710 M 151130 -89852.5 148272.5 -92710 M 100133.685 -92710 99568 -92710 M 99168.001 -93109.999 99568 -92710 M 77470 -89852.5 80727.499 -93109.999 99168.001 -93109.999 M 96393 -102489 97028 -103124 M 83883.5 -102489 96393 -102489 M 97028 -103124 97155 -103124 M 77470 -108902.5 83883.5 -102489 M 77470 -106362.5 79373.589 -106362.5 M 83972.099 -101763.99 95244.795 -101763.99 M 79373.589 -106362.5 83972.099 -101763.99 M 95244.795 -101763.99 95810.48 -101763.99 M 78672.081 -103822.5 77470 -103822.5 M 81277.178 -103822.5 78672.081 -103822.5 M 84192.667 -100907.011 81277.178 -103822.5 M 94164.989 -100907.011 84192.667 -100907.011 M 96139 -98298 96139 -98933 94164.989 -100907.011 M 95377 -97790 95377 -96266 M 92710 -100457 95377 -97790 M 84006.267 -100457 92710 -100457 M 77470 -101282.5 83180.768 -101282.499 84006.267 -100457 M 150030 -101282.5 151130 -101282.5 M 132440.5 -118872 150030 -101282.5 M 98806 -118872 132440.5 -118872 M 99060 -118745 98806 -118745 M 98806 -118872 99187 -118872 99060 -118745 M 97409 -120269 98806 -118872 M 96520 -121158 97409 -120269 M 77470 -120332.5 78295.5 -121158 96520 -121158 M 134810.498 -120142.002 99625.685 -120142.002 M 151130 -103822.5 134810.498 -120142.002 M 99625.685 -120142.002 99060 -120142.002 M 78319.999 -122022.501 97179.501 -122022.501 98660.001 -120542.001 M 77470 -122872.5 78319.999 -122022.501 M 98660.001 -120542.001 99060 -120142.002 M 136874.515 -120617.985 99854.015 -120617.985 99332.999 -121139.001 M 151130 -106362.5 136874.515 -120617.985 M 99332.999 -121139.001 98933 -121539 M 98756.436 -121539 98933 -121539 M 97359.436 -122936 98756.436 -121539 M 77470 -125412.5 79946.5 -122936 97359.436 -122936 M 98347.308 -123021.132 98747.307 -122621.133 M 97670.44 -123698 98347.308 -123021.132 M 77470 -127952.5 81724.5 -123698 97670.44 -123698 M 99069.561 -122621.133 98747.307 -122621.133 M 100622.698 -121067.996 99069.561 -122621.133 M 138964.504 -121067.996 100622.698 -121067.996 M 151130 -108902.5 138964.504 -121067.996 M 104394 -124460 104140 -124206 M 151130 -127952.5 147637.5 -124460 104394 -124460 M 103740.001 -124605.999 104140 -124206 M 78041.5 -147002.5 100438.001 -124605.999 M 77470 -147002.5 78041.5 -147002.5 M 100438.001 -124605.999 103740.001 -124605.999 M 78319.999 -143612.501 80795.089 -143612.501 M 101904.222 -124155.988 102179.221 -123880.989 M 77470 -144462.5 78319.999 -143612.501 M 151130 -125412.5 149198.49 -123480.99 102579.22 -123480.99 102179.221 -123880.989 M 80795.089 -143612.501 100251.601 -124155.988 101904.222 -124155.988 M 101783.496 -122872.5 101625.017 -123030.979 M 151130 -122872.5 101783.496 -122872.5 M 77470 -141922.5 81848.678 -141922.5 M 100659.333 -123430.978 101225.018 -123430.978 M 100065.201 -123705.977 100384.334 -123705.977 M 81848.678 -141922.5 100065.201 -123705.977 M 100384.334 -123705.977 100659.333 -123430.978 M 101625.017 -123030.979 101225.018 -123430.978 M 83180.767 -139382.5 96616.265 -125947.002 M 77470 -139382.5 83180.767 -139382.5 M 96816.694 -125947.002 99656.67 -123107.026 M 96616.265 -125947.002 96816.694 -125947.002 M 100901.685 -121862.011 99656.67 -123107.026 M 138806.9 -121862.011 100901.685 -121862.011 M 151130 -120332.5 140336.411 -120332.5 138806.9 -121862.011 M 84074 -117405.002 84074 -117348 M 87376 -118618 85286.998 -118618 84074 -117405.002 M 108712 -138176 108712 -141224 106680 -143256 M 102870 -147066 97790 -147066 M 106680 -143256 102870 -147066 M 102997 -86868 106045 -83820 115189 -83820 M 116059.001 -84690.001 116459 -85090 M 115189 -83820 116059.001 -84690.001 M 106680 -98101.685 106680 -97536 M 106680 -98298 106680 -98101.685 M 96520 -108458 106680 -98298 M 96520 -114808 96520 -108458 M 96520 -114808 93726 -117602 85909.685 -117602 85344 -117602 M 106680 -97536 124587.002 -97536 M 126727.001 -95396.001 127127 -94996.002 M 124587.002 -97536 126727.001 -95396.001 M 117634.998 -84999.998 116274.996 -86360 M 123190 -85725 122464.998 -84999.998 M 116274.996 -86360 106208.99 -86360 M 105936.999 -86631.991 105537 -87031.99 M 122464.998 -84999.998 117634.998 -84999.998 M 106208.99 -86360 105936.999 -86631.991 M 117144.997 -86251.999 117456.001 -86251.999 M 116311.986 -87085.01 117144.997 -86251.999 M 117456.001 -86251.999 117856 -85852 M 106807 -87085.01 116311.986 -87085.01 M 103632 -88646 131826 -88646 131953 -88519 M 104902 -89408 105029 -89535 M 120105.01 -89408 120142 -89371.01 M 104902 -89408 120105.01 -89408 M 133731 -127126.996 133731 -132911.317 133731 -133477.002 M 134492.996 -126365 133731 -127126.996 M 134850.341 -129563.659 135250.34 -129163.66 M 134668.133 -129745.867 134850.341 -129563.659 M 134668.133 -132619.993 134668.133 -129745.867 M 131953 -93472 126619 -93472 126492 -93599 M 117311.002 -125004.998 116731.999 -125584.001 116332 -125984 M 146812 -125476 146340.998 -125004.998 117311.002 -125004.998 M 93218 -136906 94742 -135382 95758 -135382 M 83058 -99822 82550 -100330 M 90170 -99060 89408 -99822 83058 -99822 M 102870 -133350 102362 -132842 M 100076 -131883.685 100076 -131318 M 101092 -132899.685 100076 -131883.685 M 101854 -142240 101092 -141478 101092 -132899.685 M 117348 -137160 115316 -139192 M 117348 -133350 117348 -137160" fill="none" stroke-width="250"/><path d="M 115454.569 -125397.72 115297 -125778.126 115297 -126189.874 115454.569 -126570.28 115745.72 -126861.431 116126.126 -127019 116537.874 -127019 116918.28 -126861.431 117209.431 -126570.28 117367 -126189.874 117367 -126023.801 117625.804 -125764.998 133629.287 -125764.998 133615.565 -125778.72 133457.996 -126159.126 133457.996 -126325.199 133246.53 -126536.665 133183.071 -126579.067 133015.096 -126830.46 132971 -127052.145 132971 -127052.149 132956.112 -127126.996 132971 -127201.843 132971.001 -132773.29 132853.569 -132890.722 132696 -133271.128 132696 -133682.876 132853.569 -134063.282 133144.72 -134354.433 133525.126 -134512.002 133936.874 -134512.002 134317.28 -134354.433 134608.431 -134063.282 134766 -133682.876 134766 -133654.993 134874.007 -133654.993 135254.413 -133497.424 135545.564 -133206.273 135552.887 -133188.593 145955.677 -133188.593 145978.164 -133878.453 146198.901 -134411.359 146476.132 -134522.263 147521.395 -133477 147880.605 -133477 148925.868 -134522.263 149203.099 -134411.359 149446.323 -133765.407 149423.836 -133075.547 149203.099 -132542.641 148925.868 -132431.737 147880.605 -133477 147521.395 -133477 146476.132 -132431.737 146198.901 -132542.641 145955.677 -133188.593 135552.887 -133188.593 135703.133 -132825.867 135703.133 -132414.119 135636.036 -132252.132 146655.737 -132252.132 147701 -133297.395 148746.263 -132252.132 148635.359 -131974.901 147989.407 -131731.677 147299.547 -131754.164 146766.641 -131974.901 146655.737 -132252.132 135636.036 -132252.132 135545.564 -132033.713 135428.133 -131916.282 135428.133 -130198.66 135456.214 -130198.66 135836.62 -130041.091 136127.771 -129749.94 136285.34 -129369.534 136285.34 -128957.786 136127.771 -128577.38 135836.62 -128286.229 135456.214 -128128.66 135044.466 -128128.66 134664.06 -128286.229 134491 -128459.289 134491 -127441.797 134532.797 -127400 134698.87 -127400 135079.276 -127242.431 135370.427 -126951.28 135527.996 -126570.874 135527.996 -126159.126 135370.427 -125778.72 135356.705 -125764.998 145811.431 -125764.998 145934.569 -126062.28 146225.72 -126353.431 146606.126 -126511 147017.874 -126511 147398.28 -126353.431 147689.431 -126062.28 147828.716 -125726.017 149688.791 -127586.092 149615.908 -127952.5 149731.161 -128531.918 150059.375 -129023.125 150550.582 -129351.339 150983.744 -129437.5 151276.256 -129437.5 151690 -129355.201 151690 -137885.06 150280 -137885.06 150032.235 -137934.343 149822.191 -138074.691 149681.843 -138284.735 149632.56 -138532.5 149632.56 -140232.5 149681.843 -140480.265 149822.191 -140690.309 150032.235 -140830.657 150077.619 -140839.684 150059.375 -140851.875 149731.161 -141343.082 149615.908 -141922.5 149731.161 -142501.918 150059.375 -142993.125 150357.761 -143192.5 150059.375 -143391.875 149731.161 -143883.082 149615.908 -144462.5 149731.161 -145041.918 150059.375 -145533.125 150357.761 -145732.5 150059.375 -145931.875 149731.161 -146423.082 149615.908 -147002.5 149731.161 -147581.918 150059.375 -148073.125 150550.582 -148401.339 150983.744 -148487.5 151276.256 -148487.5 151690 -148405.201 151690 -150328.773 151673.751 -150381.922 151672.423 -150390.803 151610.774 -150821.276 151474.352 -151121.322 151259.2 -151371.018 150982.614 -151550.292 150642.479 -151652.013 150440.53 -151667.021 150336.016 -151690 78271.227 -151690 78218.078 -151673.751 78209.197 -151672.423 77778.724 -151610.774 77478.678 -151474.352 77228.982 -151259.2 77049.708 -150982.614 76947.987 -150642.479 76932.979 -150440.53 76910 -150336.016 76910 -148405.201 77323.744 -148487.5 77616.256 -148487.5 78049.418 -148401.339 78540.625 -148073.125 78868.839 -147581.918 78951.264 -147167.537 79024.567 -147094.234 109125 -147094.234 109125 -147545.766 109297.793 -147962.926 109617.074 -148282.207 110034.234 -148455 110485.766 -148455 110902.926 -148282.207 111222.207 -147962.926 111395 -147545.766 111395 -147094.234 112125 -147094.234 112125 -147545.766 112297.793 -147962.926 112617.074 -148282.207 113034.234 -148455 113485.766 -148455 113902.926 -148282.207 114222.207 -147962.926 114395 -147545.766 114395 -147094.234 114222.207 -146677.074 113902.926 -146357.793 113485.766 -146185 113034.234 -146185 112617.074 -146357.793 112297.793 -146677.074 112125 -147094.234 111395 -147094.234 111222.207 -146677.074 110902.926 -146357.793 110485.766 -146185 110034.234 -146185 109617.074 -146357.793 109297.793 -146677.074 109125 -147094.234 79024.567 -147094.234 89418.675 -136700.126 92183 -136700.126 92183 -137111.874 92340.569 -137492.28 92631.72 -137783.431 93012.126 -137941 93423.874 -137941 93804.28 -137783.431 94095.431 -137492.28 94253 -137111.874 94253 -136945.802 95055.546 -136143.257 95171.72 -136259.431 95552.126 -136417 95963.874 -136417 96344.28 -136259.431 96635.431 -135968.28 96793 -135587.874 96793 -135176.126 96635.431 -134795.72 96344.28 -134504.569 95963.874 -134347 95552.126 -134347 95171.72 -134504.569 95054.289 -134622 94816.846 -134622 94741.999 -134607.112 94667.152 -134622 94667.148 -134622 94445.463 -134666.096 94382.902 -134707.898 94257.526 -134791.671 94257.524 -134791.673 94194.071 -134834.071 94151.673 -134897.524 93178.198 -135871 93012.126 -135871 92631.72 -136028.569 92340.569 -136319.72 92183 -136700.126 89418.675 -136700.126 95006.675 -131112.126 99041 -131112.126 99041 -131523.874 99198.569 -131904.28 99331.687 -132037.398 99360.096 -132180.221 99528.071 -132431.614 99591.53 -132474.016 100332.001 -133214.488 100332 -141403.153 100317.112 -141478 100332 -141552.847 100332 -141552.851 100376.096 -141774.536 100544.071 -142025.929 100607.53 -142068.331 100819 -142279.801 100819 -142445.874 100976.569 -142826.28 101267.72 -143117.431 101648.126 -143275 102059.874 -143275 102440.28 -143117.431 102731.431 -142826.28 102889 -142445.874 102889 -142034.126 102731.431 -141653.72 102440.28 -141362.569 102059.874 -141205 101893.801 -141205 101852 -141163.199 101852 -139192 113801.908 -139192 113917.161 -139771.418 114245.375 -140262.625 114736.582 -140590.839 115169.744 -140677 115462.256 -140677 115895.418 -140590.839 116386.625 -140262.625 116714.839 -139771.418 116830.092 -139192 116757.209 -138825.592 117832.473 -137750.329 117895.929 -137707.929 118063.904 -137456.537 118108 -137234.852 118108 -137234.847 118122.888 -137160 118108 -137085.153 118108 -134701.868 146655.737 -134701.868 146766.641 -134979.099 147412.593 -135222.323 148102.453 -135199.836 148635.359 -134979.099 148746.263 -134701.868 147701 -133656.605 146655.737 -134701.868 118108 -134701.868 118108 -134053.711 118225.431 -133936.28 118383 -133555.874 118383 -133144.126 118225.431 -132763.72 117934.28 -132472.569 117553.874 -132315 117142.126 -132315 116761.72 -132472.569 116470.569 -132763.72 116313 -133144.126 116313 -133555.874 116470.569 -133936.28 116588 -134053.711 116588.001 -135325.975 116525.698 -135263.673 116292.309 -135167 115601.75 -135167 115443 -135325.75 115443 -136525 115463 -136525 115463 -136779 115443 -136779 115443 -136799 115189 -136799 115189 -136779 113989.75 -136779 113831 -136937.75 113831 -137628.31 113927.673 -137861.699 114106.302 -138040.327 114267.033 -138106.904 114245.375 -138121.375 113917.161 -138612.582 113801.908 -139192 101852 -139192 101852 -135675.69 113831 -135675.69 113831 -136366.25 113989.75 -136525 115189 -136525 115189 -135325.75 115030.25 -135167 114339.691 -135167 114106.302 -135263.673 113927.673 -135442.301 113831 -135675.69 101852 -135675.69 101852 -134701.868 108555.737 -134701.868 108666.641 -134979.099 109312.593 -135222.323 110002.453 -135199.836 110535.359 -134979.099 110646.263 -134701.868 109601 -133656.605 108555.737 -134701.868 101852 -134701.868 101852 -133751.027 102156.126 -133877 102322.197 -133877 102385.526 -133940.329 102573.462 -134065.903 102869.999 -134124.888 103166.536 -134065.903 103417.928 -133897.928 103585.903 -133646.536 103644.888 -133349.999 103612.783 -133188.593 107855.677 -133188.593 107878.164 -133878.453 108098.901 -134411.359 108376.132 -134522.263 109421.395 -133477 109780.605 -133477 110825.868 -134522.263 111103.099 -134411.359 111346.323 -133765.407 111323.836 -133075.547 111103.099 -132542.641 110825.868 -132431.737 109780.605 -133477 109421.395 -133477 108376.132 -132431.737 108098.901 -132542.641 107855.677 -133188.593 103612.783 -133188.593 103585.903 -133053.462 103460.329 -132865.526 103397 -132802.197 103397 -132636.126 103239.431 -132255.72 103235.843 -132252.132 108555.737 -132252.132 109601 -133297.395 110646.263 -132252.132 110535.359 -131974.901 109889.407 -131731.677 109199.547 -131754.164 108666.641 -131974.901 108555.737 -132252.132 103235.843 -132252.132 102948.28 -131964.569 102567.874 -131807 102156.126 -131807 101775.72 -131964.569 101503.703 -132236.586 101017.271 -131750.155 101111 -131523.874 101111 -131112.126 100953.431 -130731.72 100662.28 -130440.569 100281.874 -130283 99870.126 -130283 99489.72 -130440.569 99198.569 -130731.72 99041 -131112.126 95006.675 -131112.126 100752.804 -125365.999 103665.154 -125365.999 103740.001 -125380.887 103814.848 -125365.999 103814.853 -125365.999 104036.538 -125321.903 104157.618 -125241 104345.874 -125241 104371.456 -125230.404 104393.999 -125234.888 104468.846 -125220 115632.289 -125220 115454.569 -125397.72 115454.569 -125397.72"/><path d="M 115454.569 -125397.72 115297 -125778.126 115297 -126189.874 115454.569 -126570.28 115745.72 -126861.431 116126.126 -127019 116537.874 -127019 116918.28 -126861.431 117209.431 -126570.28 117367 -126189.874 117367 -126023.801 117625.804 -125764.998 133629.287 -125764.998 133615.565 -125778.72 133457.996 -126159.126 133457.996 -126325.199 133246.53 -126536.665 133183.071 -126579.067 133015.096 -126830.46 132971 -127052.145 132971 -127052.149 132956.112 -127126.996 132971 -127201.843 132971.001 -132773.29 132853.569 -132890.722 132696 -133271.128 132696 -133682.876 132853.569 -134063.282 133144.72 -134354.433 133525.126 -134512.002 133936.874 -134512.002 134317.28 -134354.433 134608.431 -134063.282 134766 -133682.876 134766 -133654.993 134874.007 -133654.993 135254.413 -133497.424 135545.564 -133206.273 135552.887 -133188.593 145955.677 -133188.593 145978.164 -133878.453 146198.901 -134411.359 146476.132 -134522.263 147521.395 -133477 147880.605 -133477 148925.868 -134522.263 149203.099 -134411.359 149446.323 -133765.407 149423.836 -133075.547 149203.099 -132542.641 148925.868 -132431.737 147880.605 -133477 147521.395 -133477 146476.132 -132431.737 146198.901 -132542.641 145955.677 -133188.593 135552.887 -133188.593 135703.133 -132825.867 135703.133 -132414.119 135636.036 -132252.132 146655.737 -132252.132 147701 -133297.395 148746.263 -132252.132 148635.359 -131974.901 147989.407 -131731.677 147299.547 -131754.164 146766.641 -131974.901 146655.737 -132252.132 135636.036 -132252.132 135545.564 -132033.713 135428.133 -131916.282 135428.133 -130198.66 135456.214 -130198.66 135836.62 -130041.091 136127.771 -129749.94 136285.34 -129369.534 136285.34 -128957.786 136127.771 -128577.38 135836.62 -128286.229 135456.214 -128128.66 135044.466 -128128.66 134664.06 -128286.229 134491 -128459.289 134491 -127441.797 134532.797 -127400 134698.87 -127400 135079.276 -127242.431 135370.427 -126951.28 135527.996 -126570.874 135527.996 -126159.126 135370.427 -125778.72 135356.705 -125764.998 145811.431 -125764.998 145934.569 -126062.28 146225.72 -126353.431 146606.126 -126511 147017.874 -126511 147398.28 -126353.431 147689.431 -126062.28 147828.716 -125726.017 149688.791 -127586.092 149615.908 -127952.5 149731.161 -128531.918 150059.375 -129023.125 150550.582 -129351.339 150983.744 -129437.5 151276.256 -129437.5 151690 -129355.201 151690 -137885.06 150280 -137885.06 150032.235 -137934.343 149822.191 -138074.691 149681.843 -138284.735 149632.56 -138532.5 149632.56 -140232.5 149681.843 -140480.265 149822.191 -140690.309 150032.235 -140830.657 150077.619 -140839.684 150059.375 -140851.875 149731.161 -141343.082 149615.908 -141922.5 149731.161 -142501.918 150059.375 -142993.125 150357.761 -143192.5 150059.375 -143391.875 149731.161 -143883.082 149615.908 -144462.5 149731.161 -145041.918 150059.375 -145533.125 150357.761 -145732.5 150059.375 -145931.875 149731.161 -146423.082 149615.908 -147002.5 149731.161 -147581.918 150059.375 -148073.125 150550.582 -148401.339 150983.744 -148487.5 151276.256 -148487.5 151690 -148405.201 151690 -150328.773 151673.751 -150381.922 151672.423 -150390.803 151610.774 -150821.276 151474.352 -151121.322 151259.2 -151371.018 150982.614 -151550.292 150642.479 -151652.013 150440.53 -151667.021 150336.016 -151690 78271.227 -151690 78218.078 -151673.751 78209.197 -151672.423 77778.724 -151610.774 77478.678 -151474.352 77228.982 -151259.2 77049.708 -150982.614 76947.987 -150642.479 76932.979 -150440.53 76910 -150336.016 76910 -148405.201 77323.744 -148487.5 77616.256 -148487.5 78049.418 -148401.339 78540.625 -148073.125 78868.839 -147581.918 78951.264 -147167.537 79024.567 -147094.234 109125 -147094.234 109125 -147545.766 109297.793 -147962.926 109617.074 -148282.207 110034.234 -148455 110485.766 -148455 110902.926 -148282.207 111222.207 -147962.926 111395 -147545.766 111395 -147094.234 112125 -147094.234 112125 -147545.766 112297.793 -147962.926 112617.074 -148282.207 113034.234 -148455 113485.766 -148455 113902.926 -148282.207 114222.207 -147962.926 114395 -147545.766 114395 -147094.234 114222.207 -146677.074 113902.926 -146357.793 113485.766 -146185 113034.234 -146185 112617.074 -146357.793 112297.793 -146677.074 112125 -147094.234 111395 -147094.234 111222.207 -146677.074 110902.926 -146357.793 110485.766 -146185 110034.234 -146185 109617.074 -146357.793 109297.793 -146677.074 109125 -147094.234 79024.567 -147094.234 89418.675 -136700.126 92183 -136700.126 92183 -137111.874 92340.569 -137492.28 92631.72 -137783.431 93012.126 -137941 93423.874 -137941 93804.28 -137783.431 94095.431 -137492.28 94253 -137111.874 94253 -136945.802 95055.546 -136143.257 95171.72 -136259.431 95552.126 -136417 95963.874 -136417 96344.28 -136259.431 96635.431 -135968.28 96793 -135587.874 96793 -135176.126 96635.431 -134795.72 96344.28 -134504.569 95963.874 -134347 95552.126 -134347 95171.72 -134504.569 95054.289 -134622 94816.846 -134622 94741.999 -134607.112 94667.152 -134622 94667.148 -134622 94445.463 -134666.096 94382.902 -134707.898 94257.526 -134791.671 94257.524 -134791.673 94194.071 -134834.071 94151.673 -134897.524 93178.198 -135871 93012.126 -135871 92631.72 -136028.569 92340.569 -136319.72 92183 -136700.126 89418.675 -136700.126 95006.675 -131112.126 99041 -131112.126 99041 -131523.874 99198.569 -131904.28 99331.687 -132037.398 99360.096 -132180.221 99528.071 -132431.614 99591.53 -132474.016 100332.001 -133214.488 100332 -141403.153 100317.112 -141478 100332 -141552.847 100332 -141552.851 100376.096 -141774.536 100544.071 -142025.929 100607.53 -142068.331 100819 -142279.801 100819 -142445.874 100976.569 -142826.28 101267.72 -143117.431 101648.126 -143275 102059.874 -143275 102440.28 -143117.431 102731.431 -142826.28 102889 -142445.874 102889 -142034.126 102731.431 -141653.72 102440.28 -141362.569 102059.874 -141205 101893.801 -141205 101852 -141163.199 101852 -139192 113801.908 -139192 113917.161 -139771.418 114245.375 -140262.625 114736.582 -140590.839 115169.744 -140677 115462.256 -140677 115895.418 -140590.839 116386.625 -140262.625 116714.839 -139771.418 116830.092 -139192 116757.209 -138825.592 117832.473 -137750.329 117895.929 -137707.929 118063.904 -137456.537 118108 -137234.852 118108 -137234.847 118122.888 -137160 118108 -137085.153 118108 -134701.868 146655.737 -134701.868 146766.641 -134979.099 147412.593 -135222.323 148102.453 -135199.836 148635.359 -134979.099 148746.263 -134701.868 147701 -133656.605 146655.737 -134701.868 118108 -134701.868 118108 -134053.711 118225.431 -133936.28 118383 -133555.874 118383 -133144.126 118225.431 -132763.72 117934.28 -132472.569 117553.874 -132315 117142.126 -132315 116761.72 -132472.569 116470.569 -132763.72 116313 -133144.126 116313 -133555.874 116470.569 -133936.28 116588 -134053.711 116588.001 -135325.975 116525.698 -135263.673 116292.309 -135167 115601.75 -135167 115443 -135325.75 115443 -136525 115463 -136525 115463 -136779 115443 -136779 115443 -136799 115189 -136799 115189 -136779 113989.75 -136779 113831 -136937.75 113831 -137628.31 113927.673 -137861.699 114106.302 -138040.327 114267.033 -138106.904 114245.375 -138121.375 113917.161 -138612.582 113801.908 -139192 101852 -139192 101852 -135675.69 113831 -135675.69 113831 -136366.25 113989.75 -136525 115189 -136525 115189 -135325.75 115030.25 -135167 114339.691 -135167 114106.302 -135263.673 113927.673 -135442.301 113831 -135675.69 101852 -135675.69 101852 -134701.868 108555.737 -134701.868 108666.641 -134979.099 109312.593 -135222.323 110002.453 -135199.836 110535.359 -134979.099 110646.263 -134701.868 109601 -133656.605 108555.737 -134701.868 101852 -134701.868 101852 -133751.027 102156.126 -133877 102322.197 -133877 102385.526 -133940.329 102573.462 -134065.903 102869.999 -134124.888 103166.536 -134065.903 103417.928 -133897.928 103585.903 -133646.536 103644.888 -133349.999 103612.783 -133188.593 107855.677 -133188.593 107878.164 -133878.453 108098.901 -134411.359 108376.132 -134522.263 109421.395 -133477 109780.605 -133477 110825.868 -134522.263 111103.099 -134411.359 111346.323 -133765.407 111323.836 -133075.547 111103.099 -132542.641 110825.868 -132431.737 109780.605 -133477 109421.395 -133477 108376.132 -132431.737 108098.901 -132542.641 107855.677 -133188.593 103612.783 -133188.593 103585.903 -133053.462 103460.329 -132865.526 103397 -132802.197 103397 -132636.126 103239.431 -132255.72 103235.843 -132252.132 108555.737 -132252.132 109601 -133297.395 110646.263 -132252.132 110535.359 -131974.901 109889.407 -131731.677 109199.547 -131754.164 108666.641 -131974.901 108555.737 -132252.132 103235.843 -132252.132 102948.28 -131964.569 102567.874 -131807 102156.126 -131807 101775.72 -131964.569 101503.703 -132236.586 101017.271 -131750.155 101111 -131523.874 101111 -131112.126 100953.431 -130731.72 100662.28 -130440.569 100281.874 -130283 99870.126 -130283 99489.72 -130440.569 99198.569 -130731.72 99041 -131112.126 95006.675 -131112.126 100752.804 -125365.999 103665.154 -125365.999 103740.001 -125380.887 103814.848 -125365.999 103814.853 -125365.999 104036.538 -125321.903 104157.618 -125241 104345.874 -125241 104371.456 -125230.404 104393.999 -125234.888 104468.846 -125220 115632.289 -125220 115454.569 -125397.72" fill="none" stroke-width="254"/><path d="M 78751.156 -145218.043 78868.839 -145041.918 78984.092 -144462.5 78966.19 -144372.501 79596.698 -144372.501 78751.156 -145218.043 78751.156 -145218.043"/><path d="M 78751.156 -145218.043 78868.839 -145041.918 78984.092 -144462.5 78966.19 -144372.501 79596.698 -144372.501 78751.156 -145218.043" fill="none" stroke-width="254"/><path d="M 81533.877 -141162.5 78748.178 -141162.5 78540.625 -140851.875 78522.381 -140839.684 78567.765 -140830.657 78777.809 -140690.309 78918.157 -140480.265 78967.44 -140232.5 78967.44 -140142.5 82553.877 -140142.5 81533.877 -141162.5 81533.877 -141162.5"/><path d="M 81533.877 -141162.5 78748.178 -141162.5 78540.625 -140851.875 78522.381 -140839.684 78567.765 -140830.657 78777.809 -140690.309 78918.157 -140480.265 78967.44 -140232.5 78967.44 -140142.5 82553.877 -140142.5 81533.877 -141162.5" fill="none" stroke-width="254"/><path d="M 96492.08 -125196.815 96319.728 -125231.098 96319.726 -125231.099 96319.727 -125231.099 96131.791 -125356.673 96131.789 -125356.675 96068.336 -125399.073 96025.938 -125462.526 82865.966 -138622.5 78967.44 -138622.5 78967.44 -138532.5 78918.157 -138284.735 78777.809 -138074.691 78567.765 -137934.343 78320 -137885.06 76910 -137885.06 76910 -134701.868 79980.737 -134701.868 80091.641 -134979.099 80737.593 -135222.323 81427.453 -135199.836 81960.359 -134979.099 82071.263 -134701.868 81026 -133656.605 79980.737 -134701.868 76910 -134701.868 76910 -133188.593 79280.677 -133188.593 79303.164 -133878.453 79523.901 -134411.359 79801.132 -134522.263 80846.395 -133477 81205.605 -133477 82250.868 -134522.263 82528.099 -134411.359 82771.323 -133765.407 82748.836 -133075.547 82528.099 -132542.641 82250.868 -132431.737 81205.605 -133477 80846.395 -133477 79801.132 -132431.737 79523.901 -132542.641 79280.677 -133188.593 76910 -133188.593 76910 -132252.132 79980.737 -132252.132 81026 -133297.395 82071.263 -132252.132 81960.359 -131974.901 81314.407 -131731.677 80624.547 -131754.164 80091.641 -131974.901 79980.737 -132252.132 76910 -132252.132 76910 -129355.201 77323.744 -129437.5 77616.256 -129437.5 78049.418 -129351.339 78540.625 -129023.125 78868.839 -128531.918 78984.092 -127952.5 78911.209 -127586.092 82039.302 -124458 97230.895 -124458 96492.08 -125196.815 96492.08 -125196.815"/><path d="M 96492.08 -125196.815 96319.728 -125231.098 96319.726 -125231.099 96319.727 -125231.099 96131.791 -125356.673 96131.789 -125356.675 96068.336 -125399.073 96025.938 -125462.526 82865.966 -138622.5 78967.44 -138622.5 78967.44 -138532.5 78918.157 -138284.735 78777.809 -138074.691 78567.765 -137934.343 78320 -137885.06 76910 -137885.06 76910 -134701.868 79980.737 -134701.868 80091.641 -134979.099 80737.593 -135222.323 81427.453 -135199.836 81960.359 -134979.099 82071.263 -134701.868 81026 -133656.605 79980.737 -134701.868 76910 -134701.868 76910 -133188.593 79280.677 -133188.593 79303.164 -133878.453 79523.901 -134411.359 79801.132 -134522.263 80846.395 -133477 81205.605 -133477 82250.868 -134522.263 82528.099 -134411.359 82771.323 -133765.407 82748.836 -133075.547 82528.099 -132542.641 82250.868 -132431.737 81205.605 -133477 80846.395 -133477 79801.132 -132431.737 79523.901 -132542.641 79280.677 -133188.593 76910 -133188.593 76910 -132252.132 79980.737 -132252.132 81026 -133297.395 82071.263 -132252.132 81960.359 -131974.901 81314.407 -131731.677 80624.547 -131754.164 80091.641 -131974.901 79980.737 -132252.132 76910 -132252.132 76910 -129355.201 77323.744 -129437.5 77616.256 -129437.5 78049.418 -129351.339 78540.625 -129023.125 78868.839 -128531.918 78984.092 -127952.5 78911.209 -127586.092 82039.302 -124458 97230.895 -124458 96492.08 -125196.815" fill="none" stroke-width="254"/><path d="M 149632.56 -121182.5 149681.843 -121430.265 149822.191 -121640.309 150032.235 -121780.657 150077.619 -121789.684 150059.375 -121801.875 149851.822 -122112.5 139631.212 -122112.5 140651.213 -121092.5 149632.56 -121092.5 149632.56 -121182.5 149632.56 -121182.5"/><path d="M 149632.56 -121182.5 149681.843 -121430.265 149822.191 -121640.309 150032.235 -121780.657 150077.619 -121789.684 150059.375 -121801.875 149851.822 -122112.5 139631.212 -122112.5 140651.213 -121092.5 149632.56 -121092.5 149632.56 -121182.5" fill="none" stroke-width="254"/><path d="M 151690.001 -99785.06 150280 -99785.06 150032.235 -99834.343 149822.191 -99974.691 149681.843 -100184.735 149632.56 -100432.5 149632.56 -100634.017 149545.526 -100692.171 149545.524 -100692.173 149482.071 -100734.571 149439.673 -100798.024 132125.699 -118112 99636.711 -118112 99392.28 -117867.569 99011.874 -117710 98600.126 -117710 98219.72 -117867.569 97928.569 -118158.72 97771 -118539.126 97771 -118832.198 96924.53 -119678.669 96924.527 -119678.671 96205.199 -120398 78967.44 -120398 78967.44 -119482.5 78918.157 -119234.735 78777.809 -119024.691 78567.765 -118884.343 78320 -118835.06 76910 -118835.06 76910 -110305.201 77323.744 -110387.5 77616.256 -110387.5 78049.418 -110301.339 78540.625 -109973.125 78868.839 -109481.918 78984.092 -108902.5 78911.209 -108536.092 84198.302 -103249 96078.199 -103249 96120 -103290.801 96120 -103329.874 96277.569 -103710.28 96568.72 -104001.431 96949.126 -104159 97360.874 -104159 97741.28 -104001.431 98032.431 -103710.28 98190 -103329.874 98190 -102918.126 98032.431 -102537.72 97741.28 -102246.569 97360.874 -102089 97067.801 -102089 96983.331 -102004.53 96940.929 -101941.071 96845.48 -101877.294 96845.48 -101558.116 96687.911 -101177.71 96396.76 -100886.559 96016.354 -100728.99 95604.606 -100728.99 95285.728 -100861.073 96623.473 -99523.329 96686.929 -99480.929 96854.904 -99229.537 96899 -99007.852 96899 -99007.848 96900.524 -99000.187 97016.431 -98884.28 97174 -98503.874 97174 -98092.126 97016.431 -97711.72 96725.28 -97420.569 96344.874 -97263 96137 -97263 96137 -96969.711 96254.431 -96852.28 96412 -96471.874 96412 -96060.126 96254.431 -95679.72 95963.28 -95388.569 95582.874 -95231 95171.126 -95231 94790.72 -95388.569 94499.569 -95679.72 94342 -96060.126 94342 -96471.874 94499.569 -96852.28 94617.001 -96969.712 94617 -97475.198 92395.199 -99697 90996.711 -99697 91047.431 -99646.28 91205 -99265.874 91205 -98854.126 91047.431 -98473.72 90756.28 -98182.569 90375.874 -98025 89964.126 -98025 89583.72 -98182.569 89292.569 -98473.72 89135 -98854.126 89135 -99020.199 89093.199 -99062 83132.846 -99062 83057.999 -99047.112 82983.152 -99062 82983.148 -99062 82761.463 -99106.096 82761.461 -99106.097 82761.462 -99106.097 82573.526 -99231.671 82573.524 -99231.673 82510.071 -99274.071 82496.087 -99295 82344.126 -99295 81963.72 -99452.569 81672.569 -99743.72 81515 -100124.126 81515 -100522.5 78967.44 -100522.5 78967.44 -100432.5 78918.157 -100184.735 78777.809 -99974.691 78567.765 -99834.343 78320 -99785.06 76910 -99785.06 76910 -96601.868 79980.737 -96601.868 80091.641 -96879.099 80737.593 -97122.323 81427.453 -97099.836 81960.359 -96879.099 82071.263 -96601.868 81026 -95556.605 79980.737 -96601.868 76910 -96601.868 76910 -95088.593 79280.677 -95088.593 79303.164 -95778.453 79523.901 -96311.359 79801.132 -96422.263 80846.395 -95377 81205.605 -95377 82250.868 -96422.263 82528.099 -96311.359 82771.323 -95665.407 82752.521 -95088.593 117380.677 -95088.593 117403.164 -95778.453 117623.901 -96311.359 117901.132 -96422.263 118946.395 -95377 119305.605 -95377 120350.868 -96422.263 120628.099 -96311.359 120871.323 -95665.407 120848.836 -94975.547 120628.099 -94442.641 120350.868 -94331.737 119305.605 -95377 118946.395 -95377 117901.132 -94331.737 117623.901 -94442.641 117380.677 -95088.593 82752.521 -95088.593 82748.836 -94975.547 82528.099 -94442.641 82250.868 -94331.737 81205.605 -95377 80846.395 -95377 79801.132 -94331.737 79523.901 -94442.641 79280.677 -95088.593 76910 -95088.593 76910 -91255.201 77323.744 -91337.5 77616.256 -91337.5 77836.408 -91293.709 80137.17 -93594.472 80179.57 -93657.928 80346.378 -93769.386 80091.641 -93874.901 79980.737 -94152.132 81026 -95197.395 82071.263 -94152.132 118080.737 -94152.132 119126 -95197.395 120171.263 -94152.132 120060.359 -93874.901 119414.407 -93631.677 118724.547 -93654.164 118191.641 -93874.901 118080.737 -94152.132 82071.263 -94152.132 81960.359 -93874.901 81947.34 -93869.999 99093.154 -93869.999 99168.001 -93884.887 99242.848 -93869.999 99242.853 -93869.999 99464.538 -93825.903 99585.618 -93745 99773.874 -93745 100154.28 -93587.431 100271.711 -93470 125457 -93470 125457 -93804.874 125614.569 -94185.28 125905.72 -94476.431 126175.628 -94588.231 126092 -94790.128 126092 -94956.2 124272.201 -96776 120101.603 -96776 120171.263 -96601.868 119126 -95556.605 118080.737 -96601.868 118150.397 -96776 107383.711 -96776 107266.28 -96658.569 106885.874 -96501 106474.126 -96501 106093.72 -96658.569 105802.569 -96949.72 105645 -97330.126 105645 -97741.874 105796.228 -98106.97 96035.528 -107867.671 95972.072 -107910.071 95929.672 -107973.527 95929.671 -107973.528 95804.097 -108161.463 95745.112 -108458 95760.001 -108532.852 95760 -114104.289 95642.569 -114221.72 95485 -114602.126 95485 -114768.198 93411.199 -116842 86047.711 -116842 85930.28 -116724.569 85549.874 -116567 85138.126 -116567 84757.72 -116724.569 84466.569 -117015.72 84309 -117396.126 84309 -117807.874 84466.569 -118188.28 84757.72 -118479.431 85138.126 -118637 85549.874 -118637 85930.28 -118479.431 86047.711 -118362 93651.153 -118362 93726 -118376.888 93800.847 -118362 93800.852 -118362 94022.537 -118317.904 94273.929 -118149.929 94316.331 -118086.47 96559.802 -115843 96725.874 -115843 97106.28 -115685.431 97397.431 -115394.28 97555 -115013.874 97555 -114602.126 97397.431 -114221.72 97280 -114104.289 97280 -108772.801 107164.473 -98888.329 107227.929 -98845.929 107367.89 -98636.463 107395.904 -98594.538 107405.48 -98546.395 107440 -98372.852 107440 -98372.848 107454.888 -98298 107454.49 -98296 124512.155 -98296 124587.002 -98310.888 124661.849 -98296 124661.854 -98296 124883.539 -98251.904 125134.931 -98083.929 125177.333 -98020.47 126595.935 -96601.868 146655.737 -96601.868 146766.641 -96879.099 147412.593 -97122.323 148102.453 -97099.836 148635.359 -96879.099 148746.263 -96601.868 147701 -95556.605 146655.737 -96601.868 126595.935 -96601.868 127166.802 -96031.002 127332.874 -96031.002 127713.28 -95873.433 128004.431 -95582.282 128162 -95201.876 128162 -95088.593 145955.677 -95088.593 145978.164 -95778.453 146198.901 -96311.359 146476.132 -96422.263 147521.395 -95377 147880.605 -95377 148925.868 -96422.263 149203.099 -96311.359 149446.323 -95665.407 149423.836 -94975.547 149203.099 -94442.641 148925.868 -94331.737 147880.605 -95377 147521.395 -95377 146476.132 -94331.737 146198.901 -94442.641 145955.677 -95088.593 128162 -95088.593 128162 -94790.128 128004.431 -94409.722 127826.709 -94232 131249.289 -94232 131366.72 -94349.431 131747.126 -94507 132158.874 -94507 132539.28 -94349.431 132736.579 -94152.132 146655.737 -94152.132 147701 -95197.395 148746.263 -94152.132 148635.359 -93874.901 147989.407 -93631.677 147299.547 -93654.164 146766.641 -93874.901 146655.737 -94152.132 132736.579 -94152.132 132830.431 -94058.28 132988 -93677.874 132988 -93470 148197.653 -93470 148272.5 -93484.888 148347.347 -93470 148347.352 -93470 148569.037 -93425.904 148820.429 -93257.929 148862.831 -93194.47 150763.592 -91293.709 150983.744 -91337.5 151276.256 -91337.5 151690.001 -91255.201 151690.001 -99785.06 151690.001 -99785.06"/><path d="M 151690.001 -99785.06 150280 -99785.06 150032.235 -99834.343 149822.191 -99974.691 149681.843 -100184.735 149632.56 -100432.5 149632.56 -100634.017 149545.526 -100692.171 149545.524 -100692.173 149482.071 -100734.571 149439.673 -100798.024 132125.699 -118112 99636.711 -118112 99392.28 -117867.569 99011.874 -117710 98600.126 -117710 98219.72 -117867.569 97928.569 -118158.72 97771 -118539.126 97771 -118832.198 96924.53 -119678.669 96924.527 -119678.671 96205.199 -120398 78967.44 -120398 78967.44 -119482.5 78918.157 -119234.735 78777.809 -119024.691 78567.765 -118884.343 78320 -118835.06 76910 -118835.06 76910 -110305.201 77323.744 -110387.5 77616.256 -110387.5 78049.418 -110301.339 78540.625 -109973.125 78868.839 -109481.918 78984.092 -108902.5 78911.209 -108536.092 84198.302 -103249 96078.199 -103249 96120 -103290.801 96120 -103329.874 96277.569 -103710.28 96568.72 -104001.431 96949.126 -104159 97360.874 -104159 97741.28 -104001.431 98032.431 -103710.28 98190 -103329.874 98190 -102918.126 98032.431 -102537.72 97741.28 -102246.569 97360.874 -102089 97067.801 -102089 96983.331 -102004.53 96940.929 -101941.071 96845.48 -101877.294 96845.48 -101558.116 96687.911 -101177.71 96396.76 -100886.559 96016.354 -100728.99 95604.606 -100728.99 95285.728 -100861.073 96623.473 -99523.329 96686.929 -99480.929 96854.904 -99229.537 96899 -99007.852 96899 -99007.848 96900.524 -99000.187 97016.431 -98884.28 97174 -98503.874 97174 -98092.126 97016.431 -97711.72 96725.28 -97420.569 96344.874 -97263 96137 -97263 96137 -96969.711 96254.431 -96852.28 96412 -96471.874 96412 -96060.126 96254.431 -95679.72 95963.28 -95388.569 95582.874 -95231 95171.126 -95231 94790.72 -95388.569 94499.569 -95679.72 94342 -96060.126 94342 -96471.874 94499.569 -96852.28 94617.001 -96969.712 94617 -97475.198 92395.199 -99697 90996.711 -99697 91047.431 -99646.28 91205 -99265.874 91205 -98854.126 91047.431 -98473.72 90756.28 -98182.569 90375.874 -98025 89964.126 -98025 89583.72 -98182.569 89292.569 -98473.72 89135 -98854.126 89135 -99020.199 89093.199 -99062 83132.846 -99062 83057.999 -99047.112 82983.152 -99062 82983.148 -99062 82761.463 -99106.096 82761.461 -99106.097 82761.462 -99106.097 82573.526 -99231.671 82573.524 -99231.673 82510.071 -99274.071 82496.087 -99295 82344.126 -99295 81963.72 -99452.569 81672.569 -99743.72 81515 -100124.126 81515 -100522.5 78967.44 -100522.5 78967.44 -100432.5 78918.157 -100184.735 78777.809 -99974.691 78567.765 -99834.343 78320 -99785.06 76910 -99785.06 76910 -96601.868 79980.737 -96601.868 80091.641 -96879.099 80737.593 -97122.323 81427.453 -97099.836 81960.359 -96879.099 82071.263 -96601.868 81026 -95556.605 79980.737 -96601.868 76910 -96601.868 76910 -95088.593 79280.677 -95088.593 79303.164 -95778.453 79523.901 -96311.359 79801.132 -96422.263 80846.395 -95377 81205.605 -95377 82250.868 -96422.263 82528.099 -96311.359 82771.323 -95665.407 82752.521 -95088.593 117380.677 -95088.593 117403.164 -95778.453 117623.901 -96311.359 117901.132 -96422.263 118946.395 -95377 119305.605 -95377 120350.868 -96422.263 120628.099 -96311.359 120871.323 -95665.407 120848.836 -94975.547 120628.099 -94442.641 120350.868 -94331.737 119305.605 -95377 118946.395 -95377 117901.132 -94331.737 117623.901 -94442.641 117380.677 -95088.593 82752.521 -95088.593 82748.836 -94975.547 82528.099 -94442.641 82250.868 -94331.737 81205.605 -95377 80846.395 -95377 79801.132 -94331.737 79523.901 -94442.641 79280.677 -95088.593 76910 -95088.593 76910 -91255.201 77323.744 -91337.5 77616.256 -91337.5 77836.408 -91293.709 80137.17 -93594.472 80179.57 -93657.928 80346.378 -93769.386 80091.641 -93874.901 79980.737 -94152.132 81026 -95197.395 82071.263 -94152.132 118080.737 -94152.132 119126 -95197.395 120171.263 -94152.132 120060.359 -93874.901 119414.407 -93631.677 118724.547 -93654.164 118191.641 -93874.901 118080.737 -94152.132 82071.263 -94152.132 81960.359 -93874.901 81947.34 -93869.999 99093.154 -93869.999 99168.001 -93884.887 99242.848 -93869.999 99242.853 -93869.999 99464.538 -93825.903 99585.618 -93745 99773.874 -93745 100154.28 -93587.431 100271.711 -93470 125457 -93470 125457 -93804.874 125614.569 -94185.28 125905.72 -94476.431 126175.628 -94588.231 126092 -94790.128 126092 -94956.2 124272.201 -96776 120101.603 -96776 120171.263 -96601.868 119126 -95556.605 118080.737 -96601.868 118150.397 -96776 107383.711 -96776 107266.28 -96658.569 106885.874 -96501 106474.126 -96501 106093.72 -96658.569 105802.569 -96949.72 105645 -97330.126 105645 -97741.874 105796.228 -98106.97 96035.528 -107867.671 95972.072 -107910.071 95929.672 -107973.527 95929.671 -107973.528 95804.097 -108161.463 95745.112 -108458 95760.001 -108532.852 95760 -114104.289 95642.569 -114221.72 95485 -114602.126 95485 -114768.198 93411.199 -116842 86047.711 -116842 85930.28 -116724.569 85549.874 -116567 85138.126 -116567 84757.72 -116724.569 84466.569 -117015.72 84309 -117396.126 84309 -117807.874 84466.569 -118188.28 84757.72 -118479.431 85138.126 -118637 85549.874 -118637 85930.28 -118479.431 86047.711 -118362 93651.153 -118362 93726 -118376.888 93800.847 -118362 93800.852 -118362 94022.537 -118317.904 94273.929 -118149.929 94316.331 -118086.47 96559.802 -115843 96725.874 -115843 97106.28 -115685.431 97397.431 -115394.28 97555 -115013.874 97555 -114602.126 97397.431 -114221.72 97280 -114104.289 97280 -108772.801 107164.473 -98888.329 107227.929 -98845.929 107367.89 -98636.463 107395.904 -98594.538 107405.48 -98546.395 107440 -98372.852 107440 -98372.848 107454.888 -98298 107454.49 -98296 124512.155 -98296 124587.002 -98310.888 124661.849 -98296 124661.854 -98296 124883.539 -98251.904 125134.931 -98083.929 125177.333 -98020.47 126595.935 -96601.868 146655.737 -96601.868 146766.641 -96879.099 147412.593 -97122.323 148102.453 -97099.836 148635.359 -96879.099 148746.263 -96601.868 147701 -95556.605 146655.737 -96601.868 126595.935 -96601.868 127166.802 -96031.002 127332.874 -96031.002 127713.28 -95873.433 128004.431 -95582.282 128162 -95201.876 128162 -95088.593 145955.677 -95088.593 145978.164 -95778.453 146198.901 -96311.359 146476.132 -96422.263 147521.395 -95377 147880.605 -95377 148925.868 -96422.263 149203.099 -96311.359 149446.323 -95665.407 149423.836 -94975.547 149203.099 -94442.641 148925.868 -94331.737 147880.605 -95377 147521.395 -95377 146476.132 -94331.737 146198.901 -94442.641 145955.677 -95088.593 128162 -95088.593 128162 -94790.128 128004.431 -94409.722 127826.709 -94232 131249.289 -94232 131366.72 -94349.431 131747.126 -94507 132158.874 -94507 132539.28 -94349.431 132736.579 -94152.132 146655.737 -94152.132 147701 -95197.395 148746.263 -94152.132 148635.359 -93874.901 147989.407 -93631.677 147299.547 -93654.164 146766.641 -93874.901 146655.737 -94152.132 132736.579 -94152.132 132830.431 -94058.28 132988 -93677.874 132988 -93470 148197.653 -93470 148272.5 -93484.888 148347.347 -93470 148347.352 -93470 148569.037 -93425.904 148820.429 -93257.929 148862.831 -93194.47 150763.592 -91293.709 150983.744 -91337.5 151276.256 -91337.5 151690.001 -91255.201 151690.001 -99785.06" fill="none" stroke-width="254"/><path d="M 149688.791 -109268.907 138649.703 -120307.996 138259.305 -120307.996 149624.02 -108943.282 149688.791 -109268.907 149688.791 -109268.907"/><path d="M 149688.791 -109268.907 138649.703 -120307.996 138259.305 -120307.996 149624.02 -108943.282 149688.791 -109268.907" fill="none" stroke-width="254"/><path d="M 151690 -118835.06 150280 -118835.06 150032.235 -118884.343 149822.191 -119024.691 149681.843 -119234.735 149632.56 -119482.5 149632.56 -119572.5 141534.801 -119572.5 150763.593 -110343.709 150983.744 -110387.5 151276.256 -110387.5 151690.001 -110305.201 151690 -118835.06 151690 -118835.06"/><path d="M 151690 -118835.06 150280 -118835.06 150032.235 -118884.343 149822.191 -119024.691 149681.843 -119234.735 149632.56 -119482.5 149632.56 -119572.5 141534.801 -119572.5 150763.593 -110343.709 150983.744 -110387.5 151276.256 -110387.5 151690.001 -110305.201 151690 -118835.06" fill="none" stroke-width="254"/><path d="M 149822.191 -102590.309 150032.235 -102730.657 150077.619 -102739.684 150059.375 -102751.875 149731.161 -103243.082 149615.908 -103822.5 149688.791 -104188.907 134495.697 -119382.002 133013.771 -119382.002 133030.831 -119356.47 149812.098 -102575.204 149822.191 -102590.309 149822.191 -102590.309"/><path d="M 149822.191 -102590.309 150032.235 -102730.657 150077.619 -102739.684 150059.375 -102751.875 149731.161 -103243.082 149615.908 -103822.5 149688.791 -104188.907 134495.697 -119382.002 133013.771 -119382.002 133030.831 -119356.47 149812.098 -102575.204 149822.191 -102590.309" fill="none" stroke-width="254"/><path d="M 79058.788 -105602.5 78748.178 -105602.5 78540.625 -105291.875 78242.239 -105092.5 78540.625 -104893.125 78748.178 -104582.5 80078.788 -104582.5 79058.788 -105602.5 79058.788 -105602.5"/><path d="M 79058.788 -105602.5 78748.178 -105602.5 78540.625 -105291.875 78242.239 -105092.5 78540.625 -104893.125 78748.178 -104582.5 80078.788 -104582.5 79058.788 -105602.5" fill="none" stroke-width="254"/><path d="M 80962.377 -103062.5 78748.178 -103062.5 78540.625 -102751.875 78522.381 -102739.684 78567.765 -102730.657 78777.809 -102590.309 78918.157 -102380.265 78967.44 -102132.5 78967.44 -102042.499 81982.378 -102042.498 80962.377 -103062.5 80962.377 -103062.5"/><path d="M 80962.377 -103062.5 78748.178 -103062.5 78540.625 -102751.875 78522.381 -102739.684 78567.765 -102730.657 78777.809 -102590.309 78918.157 -102380.265 78967.44 -102132.5 78967.44 -102042.499 81982.378 -102042.498 80962.377 -103062.5" fill="none" stroke-width="254"/><path d="M 81432.696 -92349.999 81042.301 -92349.999 78911.209 -90218.908 78975.98 -89893.282 81432.696 -92349.999 81432.696 -92349.999"/><path d="M 81432.696 -92349.999 81042.301 -92349.999 78911.209 -90218.908 78975.98 -89893.282 81432.696 -92349.999" fill="none" stroke-width="254"/><path d="M 149688.791 -90218.908 147957.699 -91950 147567.301 -91950 149624.02 -89893.282 149688.791 -90218.908 149688.791 -90218.908"/><path d="M 149688.791 -90218.908 147957.699 -91950 147567.301 -91950 149624.02 -89893.282 149688.791 -90218.908" fill="none" stroke-width="254"/><path d="M 149688.791 -87678.907 146179.705 -91187.994 145789.307 -91187.994 149624.02 -87353.282 149688.791 -87678.907 149688.791 -87678.907"/><path d="M 149688.791 -87678.907 146179.705 -91187.994 145789.307 -91187.994 149624.02 -87353.282 149688.791 -87678.907" fill="none" stroke-width="254"/><path d="M 82810.691 -91187.994 82420.297 -91187.994 78911.209 -87678.908 78975.98 -87353.282 82810.691 -91187.994 82810.691 -91187.994"/><path d="M 82810.691 -91187.994 82420.297 -91187.994 78911.209 -87678.908 78975.98 -87353.282 82810.691 -91187.994" fill="none" stroke-width="254"/><path d="M 149822.191 -83540.309 150032.235 -83680.657 150077.619 -83689.684 150059.375 -83701.875 149731.161 -84193.082 149615.908 -84772.5 149688.791 -85138.907 144655.699 -90172 143165.301 -90172 149812.098 -83525.204 149822.191 -83540.309 149822.191 -83540.309"/><path d="M 149822.191 -83540.309 150032.235 -83680.657 150077.619 -83689.684 150059.375 -83701.875 149731.161 -84193.082 149615.908 -84772.5 149688.791 -85138.907 144655.699 -90172 143165.301 -90172 149812.098 -83525.204 149822.191 -83540.309" fill="none" stroke-width="254"/><path d="M 85434.698 -90172 83944.303 -90172 78911.209 -85138.908 78984.092 -84772.5 78868.839 -84193.082 78540.625 -83701.875 78522.381 -83689.684 78567.765 -83680.657 78777.809 -83540.309 78787.902 -83525.203 85434.698 -90172 85434.698 -90172"/><path d="M 85434.698 -90172 83944.303 -90172 78911.209 -85138.908 78984.092 -84772.5 78868.839 -84193.082 78540.625 -83701.875 78522.381 -83689.684 78567.765 -83680.657 78777.809 -83540.309 78787.902 -83525.203 85434.698 -90172" fill="none" stroke-width="254"/><path d="M 81153 -82550 81162.667 -82598.601 81190.197 -82639.803 81231.399 -82667.333 81280 -82677 125045.385 -82677 124980.697 -82833.171 124980.697 -83282.833 125152.775 -83698.266 125470.733 -84016.224 125610.221 -84074.002 125470.733 -84131.78 125152.775 -84449.738 124980.697 -84865.171 124980.697 -85314.833 125152.775 -85730.266 125470.733 -86048.224 125886.166 -86220.302 126335.828 -86220.302 126751.261 -86048.224 127069.219 -85730.266 127241.297 -85314.833 127241.297 -84865.171 127069.219 -84449.738 126751.261 -84131.78 126611.773 -84074.002 126751.261 -84016.224 127069.219 -83698.266 127241.297 -83282.833 127241.297 -82833.171 127176.609 -82677 129032 -82677 129080.601 -82667.333 129121.803 -82639.803 130354.606 -81407 138335.37 -81407 138436.222 -81507.852 138936.079 -81714.9 139477.121 -81714.9 139976.978 -81507.852 140077.83 -81407 143335.37 -81407 143436.222 -81507.852 143936.079 -81714.9 144477.121 -81714.9 144976.978 -81507.852 145077.83 -81407 149632.56 -81407 149632.56 -81584.017 149482.071 -81684.571 149439.671 -81748.027 141777.699 -89410 133608.851 -89410 133534.004 -89395.112 133459.157 -89410 133459.152 -89410 133237.467 -89454.096 133034.056 -89590.011 121171.563 -89590.011 121177 -89576.884 121177 -89406 131389.822 -89406 131747.126 -89554 132158.874 -89554 132539.28 -89396.431 132830.431 -89105.28 132988 -88724.874 132988 -88313.126 132830.431 -87932.72 132539.28 -87641.569 132158.874 -87484 131747.126 -87484 131366.72 -87641.569 131122.289 -87886 107469.721 -87886 107510.711 -87845.01 116237.139 -87845.01 116311.986 -87859.898 116386.833 -87845.01 116386.838 -87845.01 116608.523 -87800.914 116859.915 -87632.939 116902.317 -87569.481 117446.751 -87025.047 117456.001 -87026.887 117530.848 -87011.999 117530.853 -87011.999 117752.538 -86967.903 117873.618 -86887 118061.874 -86887 118442.28 -86729.431 118733.431 -86438.28 118891 -86057.874 118891 -85759.998 122150.197 -85759.998 122155 -85764.801 122155 -85930.874 122312.569 -86311.28 122603.72 -86602.431 122984.126 -86760 123395.874 -86760 123776.28 -86602.431 124067.431 -86311.28 124225 -85930.874 124225 -85519.126 124067.431 -85138.72 123776.28 -84847.569 123395.874 -84690 123229.801 -84690 123055.329 -84515.528 123012.927 -84452.069 122761.535 -84284.094 122539.85 -84239.998 122539.845 -84239.998 122464.998 -84225.11 122390.151 -84239.998 119621.297 -84239.998 119621.297 -83849.171 119449.219 -83433.738 119131.261 -83115.78 118715.828 -82943.702 118266.166 -82943.702 117850.733 -83115.78 117532.775 -83433.738 117360.697 -83849.171 117360.697 -84279.671 117338.461 -84284.094 117205.588 -84372.877 117045.28 -84212.569 116664.874 -84055 116498.802 -84055 115779.331 -83335.53 115736.929 -83272.071 115485.537 -83104.096 115263.852 -83060 115263.847 -83060 115189 -83045.112 115114.153 -83060 106119.847 -83060 106045 -83045.112 105970.153 -83060 105970.148 -83060 105748.463 -83104.096 105497.071 -83272.071 105454.671 -83335.527 102957.199 -85833 102791.126 -85833 102410.72 -85990.569 102119.569 -86281.72 101962 -86662.126 101962 -87073.874 102119.569 -87454.28 102410.72 -87745.431 102791.126 -87903 102911.289 -87903 102754.569 -88059.72 102597 -88440.126 102597 -88851.874 102754.569 -89232.28 102932.289 -89410 97477.711 -89410 97360.28 -89292.569 96979.874 -89135 96568.126 -89135 96187.72 -89292.569 96070.289 -89410 86822.302 -89410 79160.331 -81748.03 79117.929 -81684.571 78967.44 -81584.017 78967.44 -81407 81153 -81407 81153 -82550 81153 -82550"/><path d="M 81153 -82550 81162.667 -82598.601 81190.197 -82639.803 81231.399 -82667.333 81280 -82677 125045.385 -82677 124980.697 -82833.171 124980.697 -83282.833 125152.775 -83698.266 125470.733 -84016.224 125610.221 -84074.002 125470.733 -84131.78 125152.775 -84449.738 124980.697 -84865.171 124980.697 -85314.833 125152.775 -85730.266 125470.733 -86048.224 125886.166 -86220.302 126335.828 -86220.302 126751.261 -86048.224 127069.219 -85730.266 127241.297 -85314.833 127241.297 -84865.171 127069.219 -84449.738 126751.261 -84131.78 126611.773 -84074.002 126751.261 -84016.224 127069.219 -83698.266 127241.297 -83282.833 127241.297 -82833.171 127176.609 -82677 129032 -82677 129080.601 -82667.333 129121.803 -82639.803 130354.606 -81407 138335.37 -81407 138436.222 -81507.852 138936.079 -81714.9 139477.121 -81714.9 139976.978 -81507.852 140077.83 -81407 143335.37 -81407 143436.222 -81507.852 143936.079 -81714.9 144477.121 -81714.9 144976.978 -81507.852 145077.83 -81407 149632.56 -81407 149632.56 -81584.017 149482.071 -81684.571 149439.671 -81748.027 141777.699 -89410 133608.851 -89410 133534.004 -89395.112 133459.157 -89410 133459.152 -89410 133237.467 -89454.096 133034.056 -89590.011 121171.563 -89590.011 121177 -89576.884 121177 -89406 131389.822 -89406 131747.126 -89554 132158.874 -89554 132539.28 -89396.431 132830.431 -89105.28 132988 -88724.874 132988 -88313.126 132830.431 -87932.72 132539.28 -87641.569 132158.874 -87484 131747.126 -87484 131366.72 -87641.569 131122.289 -87886 107469.721 -87886 107510.711 -87845.01 116237.139 -87845.01 116311.986 -87859.898 116386.833 -87845.01 116386.838 -87845.01 116608.523 -87800.914 116859.915 -87632.939 116902.317 -87569.481 117446.751 -87025.047 117456.001 -87026.887 117530.848 -87011.999 117530.853 -87011.999 117752.538 -86967.903 117873.618 -86887 118061.874 -86887 118442.28 -86729.431 118733.431 -86438.28 118891 -86057.874 118891 -85759.998 122150.197 -85759.998 122155 -85764.801 122155 -85930.874 122312.569 -86311.28 122603.72 -86602.431 122984.126 -86760 123395.874 -86760 123776.28 -86602.431 124067.431 -86311.28 124225 -85930.874 124225 -85519.126 124067.431 -85138.72 123776.28 -84847.569 123395.874 -84690 123229.801 -84690 123055.329 -84515.528 123012.927 -84452.069 122761.535 -84284.094 122539.85 -84239.998 122539.845 -84239.998 122464.998 -84225.11 122390.151 -84239.998 119621.297 -84239.998 119621.297 -83849.171 119449.219 -83433.738 119131.261 -83115.78 118715.828 -82943.702 118266.166 -82943.702 117850.733 -83115.78 117532.775 -83433.738 117360.697 -83849.171 117360.697 -84279.671 117338.461 -84284.094 117205.588 -84372.877 117045.28 -84212.569 116664.874 -84055 116498.802 -84055 115779.331 -83335.53 115736.929 -83272.071 115485.537 -83104.096 115263.852 -83060 115263.847 -83060 115189 -83045.112 115114.153 -83060 106119.847 -83060 106045 -83045.112 105970.153 -83060 105970.148 -83060 105748.463 -83104.096 105497.071 -83272.071 105454.671 -83335.527 102957.199 -85833 102791.126 -85833 102410.72 -85990.569 102119.569 -86281.72 101962 -86662.126 101962 -87073.874 102119.569 -87454.28 102410.72 -87745.431 102791.126 -87903 102911.289 -87903 102754.569 -88059.72 102597 -88440.126 102597 -88851.874 102754.569 -89232.28 102932.289 -89410 97477.711 -89410 97360.28 -89292.569 96979.874 -89135 96568.126 -89135 96187.72 -89292.569 96070.289 -89410 86822.302 -89410 79160.331 -81748.03 79117.929 -81684.571 78967.44 -81584.017 78967.44 -81407 81153 -81407 81153 -82550" fill="none" stroke-width="254"/><path d="M 115424 -85129.802 115424 -85295.874 115549.973 -85600 106283.836 -85600 106208.989 -85585.112 106134.142 -85600 106134.138 -85600 105912.453 -85644.096 105661.061 -85812.071 105618.66 -85875.528 105497.199 -85996.99 105331.126 -85996.99 104950.72 -86154.559 104659.569 -86445.71 104502 -86826.116 104502 -87237.864 104659.569 -87618.27 104927.299 -87886 104335.711 -87886 104218.28 -87768.569 103837.874 -87611 103717.711 -87611 103874.431 -87454.28 104032 -87073.874 104032 -86907.801 106359.802 -84580 114874.199 -84580 115424 -85129.802 115424 -85129.802"/><path d="M 115424 -85129.802 115424 -85295.874 115549.973 -85600 106283.836 -85600 106208.989 -85585.112 106134.142 -85600 106134.138 -85600 105912.453 -85644.096 105661.061 -85812.071 105618.66 -85875.528 105497.199 -85996.99 105331.126 -85996.99 104950.72 -86154.559 104659.569 -86445.71 104502 -86826.116 104502 -87237.864 104659.569 -87618.27 104927.299 -87886 104335.711 -87886 104218.28 -87768.569 103837.874 -87611 103717.711 -87611 103874.431 -87454.28 104032 -87073.874 104032 -86907.801 106359.802 -84580 114874.199 -84580 115424 -85129.802" fill="none" stroke-width="254"/></g><g id="bTxv3zUJF2ZK-Bkrpjz6_bottom_soldermask"><use xlink:href="#sTY1Y7GiQl3yOhRL6f5N_pad-10" x="77470" y="-82232.5"/><use xlink:href="#sTY1Y7GiQl3yOhRL6f5N_pad-11" x="77470" y="-84772.5"/><use xlink:href="#sTY1Y7GiQl3yOhRL6f5N_pad-11" x="77470" y="-87312.5"/><use xlink:href="#sTY1Y7GiQl3yOhRL6f5N_pad-11" x="77470" y="-89852.5"/><use xlink:href="#sTY1Y7GiQl3yOhRL6f5N_pad-11" x="77470" y="-108902.5"/><use xlink:href="#sTY1Y7GiQl3yOhRL6f5N_pad-11" x="77470" y="-106362.5"/><use xlink:href="#sTY1Y7GiQl3yOhRL6f5N_pad-11" x="77470" y="-103822.5"/><use xlink:href="#sTY1Y7GiQl3yOhRL6f5N_pad-10" x="77470" y="-101282.5"/><use xlink:href="#sTY1Y7GiQl3yOhRL6f5N_pad-10" x="77470" y="-120332.5"/><use xlink:href="#sTY1Y7GiQl3yOhRL6f5N_pad-11" x="77470" y="-122872.5"/><use xlink:href="#sTY1Y7GiQl3yOhRL6f5N_pad-11" x="77470" y="-125412.5"/><use xlink:href="#sTY1Y7GiQl3yOhRL6f5N_pad-11" x="77470" y="-127952.5"/><use xlink:href="#sTY1Y7GiQl3yOhRL6f5N_pad-11" x="77470" y="-147002.5"/><use xlink:href="#sTY1Y7GiQl3yOhRL6f5N_pad-11" x="77470" y="-144462.5"/><use xlink:href="#sTY1Y7GiQl3yOhRL6f5N_pad-11" x="77470" y="-141922.5"/><use xlink:href="#sTY1Y7GiQl3yOhRL6f5N_pad-10" x="77470" y="-139382.5"/><use xlink:href="#sTY1Y7GiQl3yOhRL6f5N_pad-10" x="151130" y="-82232.5"/><use xlink:href="#sTY1Y7GiQl3yOhRL6f5N_pad-11" x="151130" y="-84772.5"/><use xlink:href="#sTY1Y7GiQl3yOhRL6f5N_pad-11" x="151130" y="-87312.5"/><use xlink:href="#sTY1Y7GiQl3yOhRL6f5N_pad-11" x="151130" y="-89852.5"/><use xlink:href="#sTY1Y7GiQl3yOhRL6f5N_pad-11" x="151130" y="-108902.5"/><use xlink:href="#sTY1Y7GiQl3yOhRL6f5N_pad-11" x="151130" y="-106362.5"/><use xlink:href="#sTY1Y7GiQl3yOhRL6f5N_pad-11" x="151130" y="-103822.5"/><use xlink:href="#sTY1Y7GiQl3yOhRL6f5N_pad-10" x="151130" y="-101282.5"/><use xlink:href="#sTY1Y7GiQl3yOhRL6f5N_pad-10" x="151130" y="-120332.5"/><use xlink:href="#sTY1Y7GiQl3yOhRL6f5N_pad-11" x="151130" y="-122872.5"/><use xlink:href="#sTY1Y7GiQl3yOhRL6f5N_pad-11" x="151130" y="-125412.5"/><use xlink:href="#sTY1Y7GiQl3yOhRL6f5N_pad-11" x="151130" y="-127952.5"/><use xlink:href="#sTY1Y7GiQl3yOhRL6f5N_pad-11" x="151130" y="-147002.5"/><use xlink:href="#sTY1Y7GiQl3yOhRL6f5N_pad-11" x="151130" y="-144462.5"/><use xlink:href="#sTY1Y7GiQl3yOhRL6f5N_pad-11" x="151130" y="-141922.5"/><use xlink:href="#sTY1Y7GiQl3yOhRL6f5N_pad-10" x="151130" y="-139382.5"/><use xlink:href="#sTY1Y7GiQl3yOhRL6f5N_pad-12" x="81026" y="-133477"/><use xlink:href="#sTY1Y7GiQl3yOhRL6f5N_pad-12" x="147701" y="-95377"/><use xlink:href="#sTY1Y7GiQl3yOhRL6f5N_pad-12" x="147701" y="-133477"/><use xlink:href="#sTY1Y7GiQl3yOhRL6f5N_pad-12" x="109601" y="-133477"/><use xlink:href="#sTY1Y7GiQl3yOhRL6f5N_pad-12" x="119126" y="-95377"/><use xlink:href="#sTY1Y7GiQl3yOhRL6f5N_pad-12" x="81026" y="-95377"/><use xlink:href="#sTY1Y7GiQl3yOhRL6f5N_pad-13" x="110260" y="-147320"/><use xlink:href="#sTY1Y7GiQl3yOhRL6f5N_pad-13" x="113260" y="-147320"/><use xlink:href="#sTY1Y7GiQl3yOhRL6f5N_pad-14" x="144206.6" y="-80354.9"/><use xlink:href="#sTY1Y7GiQl3yOhRL6f5N_pad-14" x="139206.6" y="-80354.9"/><use xlink:href="#sTY1Y7GiQl3yOhRL6f5N_pad-15" x="145206.6" y="-77654.9"/><use xlink:href="#sTY1Y7GiQl3yOhRL6f5N_pad-15" x="138206.6" y="-77654.9"/><use xlink:href="#sTY1Y7GiQl3yOhRL6f5N_pad-10" x="115316" y="-136652"/><use xlink:href="#sTY1Y7GiQl3yOhRL6f5N_pad-11" x="115316" y="-139192"/><use xlink:href="#sTY1Y7GiQl3yOhRL6f5N_pad-16" x="126110.997" y="-83058.002"/><use xlink:href="#sTY1Y7GiQl3yOhRL6f5N_pad-16" x="126110.997" y="-85090.002"/><use xlink:href="#sTY1Y7GiQl3yOhRL6f5N_pad-16" x="118490.997" y="-84074.002"/></g><g id="bTxv3zUJF2ZK-Bkrpjz6_bottom_drill1" transform="scale(25.4,25.4)"><use xlink:href="#MQVluhy-Bwpow_D-1ESh_pad-1" x="3119.5" y="-5700.2"/><use xlink:href="#MQVluhy-Bwpow_D-1ESh_pad-1" x="3130" y="-4131"/><use xlink:href="#MQVluhy-Bwpow_D-1ESh_pad-1" x="3152" y="-3588"/><use xlink:href="#MQVluhy-Bwpow_D-1ESh_pad-1" x="3161" y="-5534"/><use xlink:href="#MQVluhy-Bwpow_D-1ESh_pad-1" x="3169" y="-4031"/><use xlink:href="#MQVluhy-Bwpow_D-1ESh_pad-1" x="3215" y="-3275"/><use xlink:href="#MQVluhy-Bwpow_D-1ESh_pad-1" x="3216" y="-3557"/><use xlink:href="#MQVluhy-Bwpow_D-1ESh_pad-1" x="3239" y="-3441"/><use xlink:href="#MQVluhy-Bwpow_D-1ESh_pad-1" x="3250" y="-3950"/><use xlink:href="#MQVluhy-Bwpow_D-1ESh_pad-1" x="3310" y="-4620"/><use xlink:href="#MQVluhy-Bwpow_D-1ESh_pad-1" x="3360" y="-4630"/><use xlink:href="#MQVluhy-Bwpow_D-1ESh_pad-1" x="3432" y="-3361"/><use xlink:href="#MQVluhy-Bwpow_D-1ESh_pad-1" x="3440" y="-4670"/><use xlink:href="#MQVluhy-Bwpow_D-1ESh_pad-1" x="3550" y="-3900"/><use xlink:href="#MQVluhy-Bwpow_D-1ESh_pad-1" x="3565" y="-3270"/><use xlink:href="#MQVluhy-Bwpow_D-1ESh_pad-1" x="3670" y="-5390"/><use xlink:href="#MQVluhy-Bwpow_D-1ESh_pad-1" x="3755" y="-3790"/><use xlink:href="#MQVluhy-Bwpow_D-1ESh_pad-1" x="3755" y="-5230"/><use xlink:href="#MQVluhy-Bwpow_D-1ESh_pad-1" x="3770" y="-5330"/><use xlink:href="#MQVluhy-Bwpow_D-1ESh_pad-1" x="3772.1" y="-4006.5"/><use xlink:href="#MQVluhy-Bwpow_D-1ESh_pad-1" x="3785" y="-3870"/><use xlink:href="#MQVluhy-Bwpow_D-1ESh_pad-1" x="3800" y="-4520"/><use xlink:href="#MQVluhy-Bwpow_D-1ESh_pad-1" x="3810" y="-3550"/><use xlink:href="#MQVluhy-Bwpow_D-1ESh_pad-1" x="3825" y="-4060"/><use xlink:href="#MQVluhy-Bwpow_D-1ESh_pad-1" x="3845" y="-3580"/><use xlink:href="#MQVluhy-Bwpow_D-1ESh_pad-1" x="3847" y="-3371"/><use xlink:href="#MQVluhy-Bwpow_D-1ESh_pad-1" x="3850" y="-5790"/><use xlink:href="#MQVluhy-Bwpow_D-1ESh_pad-1" x="3856" y="-3787"/><use xlink:href="#MQVluhy-Bwpow_D-1ESh_pad-1" x="3875" y="-3620"/><use xlink:href="#MQVluhy-Bwpow_D-1ESh_pad-1" x="3880" y="-5400"/><use xlink:href="#MQVluhy-Bwpow_D-1ESh_pad-1" x="3887.7" y="-4827.6"/><use xlink:href="#MQVluhy-Bwpow_D-1ESh_pad-1" x="3890" y="-4675"/><use xlink:href="#MQVluhy-Bwpow_D-1ESh_pad-1" x="3895" y="-4785"/><use xlink:href="#MQVluhy-Bwpow_D-1ESh_pad-1" x="3900" y="-4730"/><use xlink:href="#MQVluhy-Bwpow_D-1ESh_pad-1" x="3918" y="-3927"/><use xlink:href="#MQVluhy-Bwpow_D-1ESh_pad-1" x="3920" y="-3650"/><use xlink:href="#MQVluhy-Bwpow_D-1ESh_pad-1" x="3923.5" y="-4846.7"/><use xlink:href="#MQVluhy-Bwpow_D-1ESh_pad-1" x="3940" y="-5170"/><use xlink:href="#MQVluhy-Bwpow_D-1ESh_pad-1" x="3984" y="-4435"/><use xlink:href="#MQVluhy-Bwpow_D-1ESh_pad-1" x="3985.2" y="-4859.5"/><use xlink:href="#MQVluhy-Bwpow_D-1ESh_pad-1" x="4010" y="-5420"/><use xlink:href="#MQVluhy-Bwpow_D-1ESh_pad-1" x="4010" y="-5600"/><use xlink:href="#MQVluhy-Bwpow_D-1ESh_pad-1" x="4022.8" y="-4877.2"/><use xlink:href="#MQVluhy-Bwpow_D-1ESh_pad-1" x="4030" y="-5230"/><use xlink:href="#MQVluhy-Bwpow_D-1ESh_pad-1" x="4031" y="-3858"/><use xlink:href="#MQVluhy-Bwpow_D-1ESh_pad-1" x="4055" y="-3420"/><use xlink:href="#MQVluhy-Bwpow_D-1ESh_pad-1" x="4055" y="-5290"/><use xlink:href="#MQVluhy-Bwpow_D-1ESh_pad-1" x="4080" y="-3490"/><use xlink:href="#MQVluhy-Bwpow_D-1ESh_pad-1" x="4081" y="-4434"/><use xlink:href="#MQVluhy-Bwpow_D-1ESh_pad-1" x="4100" y="-4890"/><use xlink:href="#MQVluhy-Bwpow_D-1ESh_pad-1" x="4122" y="-3787"/><use xlink:href="#MQVluhy-Bwpow_D-1ESh_pad-1" x="4130" y="-3520"/><use xlink:href="#MQVluhy-Bwpow_D-1ESh_pad-1" x="4130" y="-5420"/><use xlink:href="#MQVluhy-Bwpow_D-1ESh_pad-1" x="4155" y="-3426.5"/><use xlink:href="#MQVluhy-Bwpow_D-1ESh_pad-1" x="4200" y="-3840"/><use xlink:href="#MQVluhy-Bwpow_D-1ESh_pad-1" x="4200" y="-5640"/><use xlink:href="#MQVluhy-Bwpow_D-1ESh_pad-1" x="4205" y="-3428.5"/><use xlink:href="#MQVluhy-Bwpow_D-1ESh_pad-1" x="4241" y="-4030"/><use xlink:href="#MQVluhy-Bwpow_D-1ESh_pad-1" x="4280" y="-5440"/><use xlink:href="#MQVluhy-Bwpow_D-1ESh_pad-1" x="4508" y="-3346.3"/><use xlink:href="#MQVluhy-Bwpow_D-1ESh_pad-1" x="4580" y="-4960"/><use xlink:href="#MQVluhy-Bwpow_D-1ESh_pad-1" x="4585" y="-3350"/><use xlink:href="#MQVluhy-Bwpow_D-1ESh_pad-1" x="4600" y="-3270"/><use xlink:href="#MQVluhy-Bwpow_D-1ESh_pad-1" x="4620" y="-5250"/><use xlink:href="#MQVluhy-Bwpow_D-1ESh_pad-1" x="4640" y="-3380"/><use xlink:href="#MQVluhy-Bwpow_D-1ESh_pad-1" x="4690" y="-5850"/><use xlink:href="#MQVluhy-Bwpow_D-1ESh_pad-1" x="4730" y="-3518.5"/><use xlink:href="#MQVluhy-Bwpow_D-1ESh_pad-1" x="4850" y="-3375"/><use xlink:href="#MQVluhy-Bwpow_D-1ESh_pad-1" x="4920" y="-4540"/><use xlink:href="#MQVluhy-Bwpow_D-1ESh_pad-1" x="4980" y="-3685"/><use xlink:href="#MQVluhy-Bwpow_D-1ESh_pad-1" x="5005" y="-3740"/><use xlink:href="#MQVluhy-Bwpow_D-1ESh_pad-1" x="5065" y="-3800"/><use xlink:href="#MQVluhy-Bwpow_D-1ESh_pad-1" x="5130" y="-3845"/><use xlink:href="#MQVluhy-Bwpow_D-1ESh_pad-1" x="5140" y="-3220"/><use xlink:href="#MQVluhy-Bwpow_D-1ESh_pad-1" x="5195" y="-3485"/><use xlink:href="#MQVluhy-Bwpow_D-1ESh_pad-1" x="5195" y="-3680"/><use xlink:href="#MQVluhy-Bwpow_D-1ESh_pad-1" x="5265" y="-5255"/><use xlink:href="#MQVluhy-Bwpow_D-1ESh_pad-1" x="5295" y="-4975"/><use xlink:href="#MQVluhy-Bwpow_D-1ESh_pad-1" x="5295" y="-3835"/><use xlink:href="#MQVluhy-Bwpow_D-1ESh_pad-1" x="5301.9" y="-5221.3"/><use xlink:href="#MQVluhy-Bwpow_D-1ESh_pad-1" x="5324.8" y="-5085.2"/><use xlink:href="#MQVluhy-Bwpow_D-1ESh_pad-1" x="5350" y="-3460"/><use xlink:href="#MQVluhy-Bwpow_D-1ESh_pad-1" x="5410" y="-5020"/><use xlink:href="#MQVluhy-Bwpow_D-1ESh_pad-1" x="5425" y="-3700"/><use xlink:href="#MQVluhy-Bwpow_D-1ESh_pad-1" x="5497.2" y="-3232.8"/><use xlink:href="#MQVluhy-Bwpow_D-1ESh_pad-1" x="5577" y="-4386"/><use xlink:href="#MQVluhy-Bwpow_D-1ESh_pad-1" x="5600" y="-3695"/><use xlink:href="#MQVluhy-Bwpow_D-1ESh_pad-1" x="5659" y="-4786"/><use xlink:href="#MQVluhy-Bwpow_D-1ESh_pad-1" x="5670" y="-4420"/><use xlink:href="#MQVluhy-Bwpow_D-1ESh_pad-1" x="5675" y="-3355"/><use xlink:href="#MQVluhy-Bwpow_D-1ESh_pad-1" x="5740" y="-4450"/><use xlink:href="#MQVluhy-Bwpow_D-1ESh_pad-1" x="5757" y="-4631"/><use xlink:href="#MQVluhy-Bwpow_D-1ESh_pad-1" x="5770" y="-3250"/><use xlink:href="#MQVluhy-Bwpow_D-1ESh_pad-1" x="5770" y="-3470"/><use xlink:href="#MQVluhy-Bwpow_D-1ESh_pad-1" x="5780" y="-4940"/><use xlink:href="#MQVluhy-Bwpow_D-1ESh_pad-1" x="5795" y="-3540"/><use xlink:href="#MQVluhy-Bwpow_D-1ESh_pad-1" x="5845" y="-3600"/><use xlink:href="#MQVluhy-Bwpow_D-1ESh_pad-1" x="5930" y="-3820"/><use xlink:href="#MQVluhy-Bwpow_D-1ESh_pad-1" x="5930" y="-4590"/><use xlink:href="#MQVluhy-Bwpow_D-1ESh_pad-3" x="5480.6" y="-3163.6"/><use xlink:href="#MQVluhy-Bwpow_D-1ESh_pad-3" x="5677.4" y="-3163.6"/><use xlink:href="#MQVluhy-Bwpow_D-1ESh_pad-4" x="3050" y="-3237.5"/><use xlink:href="#MQVluhy-Bwpow_D-1ESh_pad-4" x="3050" y="-3337.5"/><use xlink:href="#MQVluhy-Bwpow_D-1ESh_pad-4" x="3050" y="-3437.5"/><use xlink:href="#MQVluhy-Bwpow_D-1ESh_pad-4" x="3050" y="-3537.5"/><use xlink:href="#MQVluhy-Bwpow_D-1ESh_pad-4" x="3050" y="-5487.5"/><use xlink:href="#MQVluhy-Bwpow_D-1ESh_pad-4" x="3050" y="-5587.5"/><use xlink:href="#MQVluhy-Bwpow_D-1ESh_pad-4" x="3050" y="-5687.5"/><use xlink:href="#MQVluhy-Bwpow_D-1ESh_pad-4" x="3050" y="-5787.5"/><use xlink:href="#MQVluhy-Bwpow_D-1ESh_pad-4" x="5950" y="-3987.5"/><use xlink:href="#MQVluhy-Bwpow_D-1ESh_pad-4" x="5950" y="-4087.5"/><use xlink:href="#MQVluhy-Bwpow_D-1ESh_pad-4" x="5950" y="-4187.5"/><use xlink:href="#MQVluhy-Bwpow_D-1ESh_pad-4" x="5950" y="-4287.5"/><use xlink:href="#MQVluhy-Bwpow_D-1ESh_pad-4" x="5950" y="-4737.5"/><use xlink:href="#MQVluhy-Bwpow_D-1ESh_pad-4" x="5950" y="-4837.5"/><use xlink:href="#MQVluhy-Bwpow_D-1ESh_pad-4" x="5950" y="-4937.5"/><use xlink:href="#MQVluhy-Bwpow_D-1ESh_pad-4" x="5950" y="-5037.5"/><use xlink:href="#MQVluhy-Bwpow_D-1ESh_pad-4" x="3050" y="-4737.5"/><use xlink:href="#MQVluhy-Bwpow_D-1ESh_pad-4" x="3050" y="-4837.5"/><use xlink:href="#MQVluhy-Bwpow_D-1ESh_pad-4" x="3050" y="-4937.5"/><use xlink:href="#MQVluhy-Bwpow_D-1ESh_pad-4" x="3050" y="-5037.5"/><use xlink:href="#MQVluhy-Bwpow_D-1ESh_pad-4" x="5950" y="-3237.5"/><use xlink:href="#MQVluhy-Bwpow_D-1ESh_pad-4" x="5950" y="-3337.5"/><use xlink:href="#MQVluhy-Bwpow_D-1ESh_pad-4" x="5950" y="-3437.5"/><use xlink:href="#MQVluhy-Bwpow_D-1ESh_pad-4" x="5950" y="-3537.5"/><use xlink:href="#MQVluhy-Bwpow_D-1ESh_pad-4" x="5950" y="-5487.5"/><use xlink:href="#MQVluhy-Bwpow_D-1ESh_pad-4" x="5950" y="-5587.5"/><use xlink:href="#MQVluhy-Bwpow_D-1ESh_pad-4" x="5950" y="-5687.5"/><use xlink:href="#MQVluhy-Bwpow_D-1ESh_pad-4" x="5950" y="-5787.5"/><use xlink:href="#MQVluhy-Bwpow_D-1ESh_pad-4" x="3050" y="-3987.5"/><use xlink:href="#MQVluhy-Bwpow_D-1ESh_pad-4" x="3050" y="-4087.5"/><use xlink:href="#MQVluhy-Bwpow_D-1ESh_pad-4" x="3050" y="-4187.5"/><use xlink:href="#MQVluhy-Bwpow_D-1ESh_pad-4" x="3050" y="-4287.5"/><use xlink:href="#MQVluhy-Bwpow_D-1ESh_pad-4" x="4540" y="-5380"/><use xlink:href="#MQVluhy-Bwpow_D-1ESh_pad-4" x="4540" y="-5480"/><path d="M 5441.2 -3071.1 5441.2 -3043.5 M 5716.8 -3043.5 5716.8 -3071.1" fill="none" stroke-width="23.6"/></g><g id="bTxv3zUJF2ZK-Bkrpjz6_bottom_drill2" transform="scale(25.4,25.4)"><use xlink:href="#TRUmRtHS2JfokIxpqJw__pad-1" x="4340.9" y="-5800"/><use xlink:href="#TRUmRtHS2JfokIxpqJw__pad-1" x="4459.1" y="-5800"/><use xlink:href="#TRUmRtHS2JfokIxpqJw__pad-2" x="4665" y="-3310"/><use xlink:href="#TRUmRtHS2JfokIxpqJw__pad-2" x="4965" y="-3270"/><use xlink:href="#TRUmRtHS2JfokIxpqJw__pad-2" x="4965" y="-3350"/><use xlink:href="#TRUmRtHS2JfokIxpqJw__pad-3" x="3190" y="-3755"/><use xlink:href="#TRUmRtHS2JfokIxpqJw__pad-3" x="4690" y="-3755"/><use xlink:href="#TRUmRtHS2JfokIxpqJw__pad-3" x="5815" y="-3755"/><use xlink:href="#TRUmRtHS2JfokIxpqJw__pad-3" x="5815" y="-5255"/><use xlink:href="#TRUmRtHS2JfokIxpqJw__pad-3" x="4315" y="-5255"/><use xlink:href="#TRUmRtHS2JfokIxpqJw__pad-3" x="3190" y="-5255"/></g><clipPath id="bTxv3zUJF2ZK-Bkrpjz6_bottom_outline"><path d="M 78105 -152400 A 1905 1905 0 0 0 76200 -150495 L 76200 -78105 A 1905 1905 0 0 0 78105 -76200 L 150495 -76200 A 1905 1905 0 0 0 152400 -78105 L 152400 -150495 A 1905 1905 0 0 0 150495 -152400 L 78105 -152400" fill="none" stroke-width="200"/></clipPath><mask id="bTxv3zUJF2ZK-Bkrpjz6_bottom_mech-mask"><g fill="#000" stroke="#000"><rect x="76200" y="-152400" width="76200" height="76200" fill="#fff"/><use xlink:href="#bTxv3zUJF2ZK-Bkrpjz6_bottom_drill1"/><use xlink:href="#bTxv3zUJF2ZK-Bkrpjz6_bottom_drill2"/></g></mask><mask id="bTxv3zUJF2ZK-Bkrpjz6_bottom_cf-mask"><g fill="#fff" stroke="#fff"><use xlink:href="#bTxv3zUJF2ZK-Bkrpjz6_bottom_soldermask"/></g></mask><mask id="bTxv3zUJF2ZK-Bkrpjz6_bottom_sm-mask"><g fill="#000" stroke="#000"><rect x="76200" y="-152400" width="76200" height="76200" fill="#fff"/><use xlink:href="#bTxv3zUJF2ZK-Bkrpjz6_bottom_soldermask"/></g></mask></defs><g transform="translate(0,-228600) scale(1,-1)"><g mask="url(#bTxv3zUJF2ZK-Bkrpjz6_bottom_mech-mask)" clip-path="url(#bTxv3zUJF2ZK-Bkrpjz6_bottom_outline)" transform="translate(228600,0) scale(-1,1)"><rect x="76200" y="-152400" width="76200" height="76200" fill="currentColor" class="bTxv3zUJF2ZK-Bkrpjz6_fr4"/><use xlink:href="#bTxv3zUJF2ZK-Bkrpjz6_bottom_copper" fill="currentColor" stroke="currentColor" class="bTxv3zUJF2ZK-Bkrpjz6_cu"/><use xlink:href="#bTxv3zUJF2ZK-Bkrpjz6_bottom_copper" fill="currentColor" stroke="currentColor" class="bTxv3zUJF2ZK-Bkrpjz6_cf" mask="url(#bTxv3zUJF2ZK-Bkrpjz6_bottom_cf-mask)"/><g mask="url(#bTxv3zUJF2ZK-Bkrpjz6_bottom_sm-mask)"><rect x="76200" y="-152400" width="76200" height="76200" fill="currentColor" class="bTxv3zUJF2ZK-Bkrpjz6_sm"/></g></g></g></svg>