<svg version="1.1" xmlns="http://www.w3.org/2000/svg" xmlns:xlink="http://www.w3.org/1999/xlink" stroke-linecap="round" stroke-linejoin="round" stroke-width="0" fill-rule="evenodd" clip-rule="evenodd" id="jS_V8BuIu5BZxILdYopF_bottom" viewBox="93961.533 -141562.775 20000 32000" width="20mm" height="32mm" class="w-100 h-100"><defs><style>.jS_V8BuIu5BZxILdYopF_fr4 {color: #666666;}
.jS_V8BuIu5BZxILdYopF_cu {color: #cccccc;}
.jS_V8BuIu5BZxILdYopF_cf {color: #cc9933;}
.jS_V8BuIu5BZxILdYopF_sm {color: #004200; opacity: 0.75;}
.jS_V8BuIu5BZxILdYopF_ss {color: #ffffff;}
.jS_V8BuIu5BZxILdYopF_sp {color: #999999;}
.jS_V8BuIu5BZxILdYopF_out {color: #000000;}</style><rect x="-500" y="-325" width="1000" height="650" id="ZddszFmMI73lhUbjuAf__pad-10"/><rect x="-325" y="-500" width="650" height="1000" id="ZddszFmMI73lhUbjuAf__pad-11"/><rect x="-150" y="-725" width="300" height="1450" id="ZddszFmMI73lhUbjuAf__pad-12"/><rect x="-300" y="-725" width="600" height="1450" id="ZddszFmMI73lhUbjuAf__pad-13"/><rect x="-500" y="-325" width="1000" height="650" id="t39ZlLSLYxz9zUiEWcIA_pad-10"/><rect x="-500" y="-325" width="1000" height="650" id="t39ZlLSLYxz9zUiEWcIA_pad-11"/><rect x="-325" y="-500" width="650" height="1000" id="t39ZlLSLYxz9zUiEWcIA_pad-12"/><rect x="-325" y="-500" width="650" height="1000" id="t39ZlLSLYxz9zUiEWcIA_pad-13"/><circle cx="0" cy="0" r="500" id="t39ZlLSLYxz9zUiEWcIA_pad-14"/><circle cx="0" cy="0" r="635" id="t39ZlLSLYxz9zUiEWcIA_pad-15"/><rect x="-625" y="-625" width="1250" height="1250" id="t39ZlLSLYxz9zUiEWcIA_pad-16"/><circle cx="0" cy="0" r="550" id="t39ZlLSLYxz9zUiEWcIA_pad-17"/><rect x="-500" y="-800" width="1000" height="1600" rx="500" ry="500" id="t39ZlLSLYxz9zUiEWcIA_pad-19"/><rect x="-500" y="-1050" width="1000" height="2100" rx="500" ry="500" id="t39ZlLSLYxz9zUiEWcIA_pad-20"/><rect x="-150" y="-725" width="300" height="1450" id="t39ZlLSLYxz9zUiEWcIA_pad-21"/><rect x="-300" y="-725" width="600" height="1450" id="t39ZlLSLYxz9zUiEWcIA_pad-22"/><rect x="-850" y="-850" width="1700" height="1700" id="t39ZlLSLYxz9zUiEWcIA_pad-23"/><rect x="-850" y="-850" width="1700" height="1700" rx="850" ry="850" id="t39ZlLSLYxz9zUiEWcIA_pad-24"/><circle cx="0" cy="0" r="300" id="t39ZlLSLYxz9zUiEWcIA_pad-25"/><circle cx="0" cy="0" r="12.8" id="LRVdfwoKR-uHEOwXr68m_pad-1"/><circle cx="0" cy="0" r="7.85" id="e7hGI0dGywVQhX84M4U9_pad-1"/><circle cx="0" cy="0" r="9.85" id="e7hGI0dGywVQhX84M4U9_pad-2"/><circle cx="0" cy="0" r="15.75" id="e7hGI0dGywVQhX84M4U9_pad-4"/><circle cx="0" cy="0" r="16.25" id="e7hGI0dGywVQhX84M4U9_pad-5"/><circle cx="0" cy="0" r="19.7" id="e7hGI0dGywVQhX84M4U9_pad-6"/><g id="jS_V8BuIu5BZxILdYopF_bottom_solderpaste"><use xlink:href="#ZddszFmMI73lhUbjuAf__pad-10" x="97682.533" y="-126322.775"/><use xlink:href="#ZddszFmMI73lhUbjuAf__pad-10" x="97682.533" y="-127592.775"/><use xlink:href="#ZddszFmMI73lhUbjuAf__pad-10" x="97682.533" y="-128862.775"/><use xlink:href="#ZddszFmMI73lhUbjuAf__pad-10" x="97682.533" y="-130132.775"/><use xlink:href="#ZddszFmMI73lhUbjuAf__pad-10" x="97682.533" y="-131402.775"/><use xlink:href="#ZddszFmMI73lhUbjuAf__pad-10" x="97682.533" y="-132672.775"/><use xlink:href="#ZddszFmMI73lhUbjuAf__pad-10" x="97682.533" y="-133942.775"/><use xlink:href="#ZddszFmMI73lhUbjuAf__pad-10" x="97682.533" y="-135212.775"/><use xlink:href="#ZddszFmMI73lhUbjuAf__pad-10" x="97682.533" y="-136482.775"/><use xlink:href="#ZddszFmMI73lhUbjuAf__pad-10" x="97682.533" y="-137752.775"/><use xlink:href="#ZddszFmMI73lhUbjuAf__pad-10" x="109920.533" y="-130132.775"/><use xlink:href="#ZddszFmMI73lhUbjuAf__pad-10" x="109920.533" y="-137752.775"/><use xlink:href="#ZddszFmMI73lhUbjuAf__pad-10" x="109920.533" y="-131402.775"/><use xlink:href="#ZddszFmMI73lhUbjuAf__pad-10" x="109920.533" y="-136482.775"/><use xlink:href="#ZddszFmMI73lhUbjuAf__pad-10" x="109920.533" y="-135212.775"/><use xlink:href="#ZddszFmMI73lhUbjuAf__pad-10" x="109920.533" y="-133942.775"/><use xlink:href="#ZddszFmMI73lhUbjuAf__pad-10" x="109920.533" y="-128862.775"/><use xlink:href="#ZddszFmMI73lhUbjuAf__pad-10" x="109920.533" y="-132672.775"/><use xlink:href="#ZddszFmMI73lhUbjuAf__pad-10" x="109920.533" y="-127592.775"/><use xlink:href="#ZddszFmMI73lhUbjuAf__pad-10" x="109920.533" y="-126322.775"/><use xlink:href="#ZddszFmMI73lhUbjuAf__pad-11" x="106951.533" y="-124103.775"/><use xlink:href="#ZddszFmMI73lhUbjuAf__pad-11" x="99331.533" y="-124103.775"/><use xlink:href="#ZddszFmMI73lhUbjuAf__pad-11" x="105681.533" y="-124103.775"/><use xlink:href="#ZddszFmMI73lhUbjuAf__pad-11" x="100601.533" y="-124103.775"/><use xlink:href="#ZddszFmMI73lhUbjuAf__pad-11" x="101871.533" y="-124103.775"/><use xlink:href="#ZddszFmMI73lhUbjuAf__pad-11" x="103141.533" y="-124103.775"/><use xlink:href="#ZddszFmMI73lhUbjuAf__pad-11" x="108221.533" y="-124103.775"/><use xlink:href="#ZddszFmMI73lhUbjuAf__pad-11" x="104411.533" y="-124103.775"/><use xlink:href="#ZddszFmMI73lhUbjuAf__pad-12" x="103551.533" y="-117257.775"/><use xlink:href="#ZddszFmMI73lhUbjuAf__pad-12" x="104051.533" y="-117257.775"/><use xlink:href="#ZddszFmMI73lhUbjuAf__pad-12" x="104551.533" y="-117257.775"/><use xlink:href="#ZddszFmMI73lhUbjuAf__pad-12" x="103051.533" y="-117257.775"/><use xlink:href="#ZddszFmMI73lhUbjuAf__pad-12" x="105051.533" y="-117257.775"/><use xlink:href="#ZddszFmMI73lhUbjuAf__pad-12" x="102551.533" y="-117257.775"/><use xlink:href="#ZddszFmMI73lhUbjuAf__pad-12" x="105551.533" y="-117257.775"/><use xlink:href="#ZddszFmMI73lhUbjuAf__pad-12" x="102051.533" y="-117257.775"/><use xlink:href="#ZddszFmMI73lhUbjuAf__pad-13" x="101351.533" y="-117257.775"/><use xlink:href="#ZddszFmMI73lhUbjuAf__pad-13" x="106251.533" y="-117257.775"/><use xlink:href="#ZddszFmMI73lhUbjuAf__pad-13" x="100576.533" y="-117257.775"/><use xlink:href="#ZddszFmMI73lhUbjuAf__pad-13" x="107026.533" y="-117257.775"/></g><g id="jS_V8BuIu5BZxILdYopF_bottom_soldermask"><path d="M 111606.756 -139682.178 111722.317 -139730.045 111826.325 -139799.541 111914.767 -139887.983 111984.263 -139991.991 112032.13 -140107.552 112056.533 -140230.234 112056.533 -140355.316 112032.13 -140477.998 111984.263 -140593.559 111914.767 -140697.567 111826.325 -140786.009 111722.317 -140855.505 111606.756 -140903.372 111484.075 -140927.775 111358.991 -140927.775 111236.31 -140903.372 111120.749 -140855.505 111016.741 -140786.009 110928.299 -140697.567 110858.803 -140593.559 110810.936 -140477.998 110786.533 -140355.316 110786.533 -140230.234 110810.936 -140107.552 110858.803 -139991.991 110928.299 -139887.983 111016.741 -139799.541 111120.749 -139730.045 111236.31 -139682.178 111358.991 -139657.775 111484.075 -139657.775 111606.756 -139682.178 111606.756 -139682.178"/><path d="M 96366.756 -139682.178 96482.317 -139730.045 96586.325 -139799.541 96674.767 -139887.983 96744.263 -139991.991 96792.13 -140107.552 96816.533 -140230.234 96816.533 -140355.316 96792.13 -140477.998 96744.263 -140593.559 96674.767 -140697.567 96586.325 -140786.009 96482.317 -140855.505 96366.756 -140903.372 96244.075 -140927.775 96118.991 -140927.775 95996.31 -140903.372 95880.749 -140855.505 95776.741 -140786.009 95688.299 -140697.567 95618.803 -140593.559 95570.936 -140477.998 95546.533 -140355.316 95546.533 -140230.234 95570.936 -140107.552 95618.803 -139991.991 95688.299 -139887.983 95776.741 -139799.541 95880.749 -139730.045 95996.31 -139682.178 96118.991 -139657.775 96244.075 -139657.775 96366.756 -139682.178 96366.756 -139682.178"/><path d="M 96366.756 -137142.178 96482.317 -137190.045 96586.325 -137259.541 96674.767 -137347.983 96744.263 -137451.991 96792.13 -137567.552 96816.533 -137690.234 96816.533 -137815.316 96792.13 -137937.998 96744.263 -138053.559 96674.767 -138157.567 96586.325 -138246.009 96482.317 -138315.505 96366.756 -138363.372 96244.075 -138387.775 96118.991 -138387.775 95996.31 -138363.372 95880.749 -138315.505 95776.741 -138246.009 95688.299 -138157.567 95618.803 -138053.559 95570.936 -137937.998 95546.533 -137815.316 95546.533 -137690.234 95570.936 -137567.552 95618.803 -137451.991 95688.299 -137347.983 95776.741 -137259.541 95880.749 -137190.045 95996.31 -137142.178 96118.991 -137117.775 96244.075 -137117.775 96366.756 -137142.178 96366.756 -137142.178"/><path d="M 111606.756 -137142.178 111722.317 -137190.045 111826.325 -137259.541 111914.767 -137347.983 111984.263 -137451.991 112032.13 -137567.552 112056.533 -137690.234 112056.533 -137815.316 112032.13 -137937.998 111984.263 -138053.559 111914.767 -138157.567 111826.325 -138246.009 111722.317 -138315.505 111606.756 -138363.372 111484.075 -138387.775 111358.991 -138387.775 111236.31 -138363.372 111120.749 -138315.505 111016.741 -138246.009 110928.299 -138157.567 110858.803 -138053.559 110810.936 -137937.998 110786.533 -137815.316 110786.533 -137690.234 110810.936 -137567.552 110858.803 -137451.991 110928.299 -137347.983 111016.741 -137259.541 111120.749 -137190.045 111236.31 -137142.178 111358.991 -137117.775 111484.075 -137117.775 111606.756 -137142.178 111606.756 -137142.178"/><path d="M 110420.533 -138077.775 109420.533 -138077.775 109420.533 -137427.775 110420.533 -137427.775 110420.533 -138077.775 110420.533 -138077.775"/><path d="M 98182.533 -138077.775 97182.533 -138077.775 97182.533 -137427.775 98182.533 -137427.775 98182.533 -138077.775 98182.533 -138077.775"/><path d="M 108342.533 -137569.775 107342.533 -137569.775 107342.533 -136919.775 108342.533 -136919.775 108342.533 -137569.775 108342.533 -137569.775"/><path d="M 113723.351 -136482.775 112945.533 -137260.593 112167.715 -136482.775 112945.533 -135704.957 113723.351 -136482.775 113723.351 -136482.775"/><path d="M 98182.533 -136807.775 97182.533 -136807.775 97182.533 -136157.775 98182.533 -136157.775 98182.533 -136807.775 98182.533 -136807.775"/><path d="M 110420.533 -136807.775 109420.533 -136807.775 109420.533 -136157.775 110420.533 -136157.775 110420.533 -136807.775 110420.533 -136807.775"/><path d="M 108342.533 -136299.775 107342.533 -136299.775 107342.533 -135649.775 108342.533 -135649.775 108342.533 -136299.775 108342.533 -136299.775"/><path d="M 96366.756 -134602.178 96482.317 -134650.045 96586.325 -134719.541 96674.767 -134807.983 96744.263 -134911.991 96792.13 -135027.552 96816.533 -135150.234 96816.533 -135275.316 96792.13 -135397.998 96744.263 -135513.559 96674.767 -135617.567 96586.325 -135706.009 96482.317 -135775.505 96366.756 -135823.372 96244.075 -135847.775 96118.991 -135847.775 95996.31 -135823.372 95880.749 -135775.505 95776.741 -135706.009 95688.299 -135617.567 95618.803 -135513.559 95570.936 -135397.998 95546.533 -135275.316 95546.533 -135150.234 95570.936 -135027.552 95618.803 -134911.991 95688.299 -134807.983 95776.741 -134719.541 95880.749 -134650.045 95996.31 -134602.178 96118.991 -134577.775 96244.075 -134577.775 96366.756 -134602.178 96366.756 -134602.178"/><path d="M 111606.756 -134602.178 111722.317 -134650.045 111826.325 -134719.541 111914.767 -134807.983 111984.263 -134911.991 112032.13 -135027.552 112056.533 -135150.234 112056.533 -135275.316 112032.13 -135397.998 111984.263 -135513.559 111914.767 -135617.567 111826.325 -135706.009 111722.317 -135775.505 111606.756 -135823.372 111484.075 -135847.775 111358.991 -135847.775 111236.31 -135823.372 111120.749 -135775.505 111016.741 -135706.009 110928.299 -135617.567 110858.803 -135513.559 110810.936 -135397.998 110786.533 -135275.316 110786.533 -135150.234 110810.936 -135027.552 110858.803 -134911.991 110928.299 -134807.983 111016.741 -134719.541 111120.749 -134650.045 111236.31 -134602.178 111358.991 -134577.775 111484.075 -134577.775 111606.756 -134602.178 111606.756 -134602.178"/><path d="M 98182.533 -135537.775 97182.533 -135537.775 97182.533 -134887.775 98182.533 -134887.775 98182.533 -135537.775 98182.533 -135537.775"/><path d="M 110420.533 -135537.775 109420.533 -135537.775 109420.533 -134887.775 110420.533 -134887.775 110420.533 -135537.775 110420.533 -135537.775"/><path d="M 108342.533 -135029.775 107342.533 -135029.775 107342.533 -134379.775 108342.533 -134379.775 108342.533 -135029.775 108342.533 -135029.775"/><path d="M 113723.351 -133942.775 112945.533 -134720.593 112167.715 -133942.775 112945.533 -133164.957 113723.351 -133942.775 113723.351 -133942.775"/><path d="M 110420.533 -134267.775 109420.533 -134267.775 109420.533 -133617.775 110420.533 -133617.775 110420.533 -134267.775 110420.533 -134267.775"/><path d="M 98182.533 -134267.775 97182.533 -134267.775 97182.533 -133617.775 98182.533 -133617.775 98182.533 -134267.775 98182.533 -134267.775"/><path d="M 108342.533 -133759.775 107342.533 -133759.775 107342.533 -133109.775 108342.533 -133109.775 108342.533 -133759.775 108342.533 -133759.775"/><path d="M 111606.756 -132062.178 111722.317 -132110.045 111826.325 -132179.541 111914.767 -132267.983 111984.263 -132371.991 112032.13 -132487.552 112056.533 -132610.234 112056.533 -132735.316 112032.13 -132857.998 111984.263 -132973.559 111914.767 -133077.567 111826.325 -133166.009 111722.317 -133235.505 111606.756 -133283.372 111484.075 -133307.775 111358.991 -133307.775 111236.31 -133283.372 111120.749 -133235.505 111016.741 -133166.009 110928.299 -133077.567 110858.803 -132973.559 110810.936 -132857.998 110786.533 -132735.316 110786.533 -132610.234 110810.936 -132487.552 110858.803 -132371.991 110928.299 -132267.983 111016.741 -132179.541 111120.749 -132110.045 111236.31 -132062.178 111358.991 -132037.775 111484.075 -132037.775 111606.756 -132062.178 111606.756 -132062.178"/><path d="M 96366.756 -132062.178 96482.317 -132110.045 96586.325 -132179.541 96674.767 -132267.983 96744.263 -132371.991 96792.13 -132487.552 96816.533 -132610.234 96816.533 -132735.316 96792.13 -132857.998 96744.263 -132973.559 96674.767 -133077.567 96586.325 -133166.009 96482.317 -133235.505 96366.756 -133283.372 96244.075 -133307.775 96118.991 -133307.775 95996.31 -133283.372 95880.749 -133235.505 95776.741 -133166.009 95688.299 -133077.567 95618.803 -132973.559 95570.936 -132857.998 95546.533 -132735.316 95546.533 -132610.234 95570.936 -132487.552 95618.803 -132371.991 95688.299 -132267.983 95776.741 -132179.541 95880.749 -132110.045 95996.31 -132062.178 96118.991 -132037.775 96244.075 -132037.775 96366.756 -132062.178 96366.756 -132062.178"/><path d="M 110420.533 -132997.775 109420.533 -132997.775 109420.533 -132347.775 110420.533 -132347.775 110420.533 -132997.775 110420.533 -132997.775"/><path d="M 98182.533 -132997.775 97182.533 -132997.775 97182.533 -132347.775 98182.533 -132347.775 98182.533 -132997.775 98182.533 -132997.775"/><path d="M 108342.533 -132489.775 107342.533 -132489.775 107342.533 -131839.775 108342.533 -131839.775 108342.533 -132489.775 108342.533 -132489.775"/><path d="M 113723.351 -131402.775 112945.533 -132180.593 112167.715 -131402.775 112945.533 -130624.957 113723.351 -131402.775 113723.351 -131402.775"/><path d="M 110420.533 -131727.775 109420.533 -131727.775 109420.533 -131077.775 110420.533 -131077.775 110420.533 -131727.775 110420.533 -131727.775"/><path d="M 98182.533 -131727.775 97182.533 -131727.775 97182.533 -131077.775 98182.533 -131077.775 98182.533 -131727.775 98182.533 -131727.775"/><path d="M 108342.533 -131219.775 107342.533 -131219.775 107342.533 -130569.775 108342.533 -130569.775 108342.533 -131219.775 108342.533 -131219.775"/><path d="M 96366.756 -129522.178 96482.317 -129570.045 96586.325 -129639.541 96674.767 -129727.983 96744.263 -129831.991 96792.13 -129947.552 96816.533 -130070.234 96816.533 -130195.316 96792.13 -130317.998 96744.263 -130433.559 96674.767 -130537.567 96586.325 -130626.009 96482.317 -130695.505 96366.756 -130743.372 96244.075 -130767.775 96118.991 -130767.775 95996.31 -130743.372 95880.749 -130695.505 95776.741 -130626.009 95688.299 -130537.567 95618.803 -130433.559 95570.936 -130317.998 95546.533 -130195.316 95546.533 -130070.234 95570.936 -129947.552 95618.803 -129831.991 95688.299 -129727.983 95776.741 -129639.541 95880.749 -129570.045 95996.31 -129522.178 96118.991 -129497.775 96244.075 -129497.775 96366.756 -129522.178 96366.756 -129522.178"/><path d="M 111606.756 -129522.178 111722.317 -129570.045 111826.325 -129639.541 111914.767 -129727.983 111984.263 -129831.991 112032.13 -129947.552 112056.533 -130070.234 112056.533 -130195.316 112032.13 -130317.998 111984.263 -130433.559 111914.767 -130537.567 111826.325 -130626.009 111722.317 -130695.505 111606.756 -130743.372 111484.075 -130767.775 111358.991 -130767.775 111236.31 -130743.372 111120.749 -130695.505 111016.741 -130626.009 110928.299 -130537.567 110858.803 -130433.559 110810.936 -130317.998 110786.533 -130195.316 110786.533 -130070.234 110810.936 -129947.552 110858.803 -129831.991 110928.299 -129727.983 111016.741 -129639.541 111120.749 -129570.045 111236.31 -129522.178 111358.991 -129497.775 111484.075 -129497.775 111606.756 -129522.178 111606.756 -129522.178"/><path d="M 98182.533 -130457.775 97182.533 -130457.775 97182.533 -129807.775 98182.533 -129807.775 98182.533 -130457.775 98182.533 -130457.775"/><path d="M 110420.533 -130457.775 109420.533 -130457.775 109420.533 -129807.775 110420.533 -129807.775 110420.533 -130457.775 110420.533 -130457.775"/><path d="M 108342.533 -129949.775 107342.533 -129949.775 107342.533 -129299.775 108342.533 -129299.775 108342.533 -129949.775 108342.533 -129949.775"/><path d="M 113723.351 -128862.775 112945.533 -129640.593 112167.715 -128862.775 112945.533 -128084.957 113723.351 -128862.775 113723.351 -128862.775"/><path d="M 110420.533 -129187.775 109420.533 -129187.775 109420.533 -128537.775 110420.533 -128537.775 110420.533 -129187.775 110420.533 -129187.775"/><path d="M 98182.533 -129187.775 97182.533 -129187.775 97182.533 -128537.775 98182.533 -128537.775 98182.533 -129187.775 98182.533 -129187.775"/><path d="M 108342.533 -128679.775 107342.533 -128679.775 107342.533 -128029.775 108342.533 -128029.775 108342.533 -128679.775 108342.533 -128679.775"/><path d="M 96366.756 -126982.178 96482.317 -127030.045 96586.325 -127099.541 96674.767 -127187.983 96744.263 -127291.991 96792.13 -127407.552 96816.533 -127530.234 96816.533 -127655.316 96792.13 -127777.998 96744.263 -127893.559 96674.767 -127997.567 96586.325 -128086.009 96482.317 -128155.505 96366.756 -128203.372 96244.075 -128227.775 96118.991 -128227.775 95996.31 -128203.372 95880.749 -128155.505 95776.741 -128086.009 95688.299 -127997.567 95618.803 -127893.559 95570.936 -127777.998 95546.533 -127655.316 95546.533 -127530.234 95570.936 -127407.552 95618.803 -127291.991 95688.299 -127187.983 95776.741 -127099.541 95880.749 -127030.045 95996.31 -126982.178 96118.991 -126957.775 96244.075 -126957.775 96366.756 -126982.178 96366.756 -126982.178"/><path d="M 111606.756 -126982.178 111722.317 -127030.045 111826.325 -127099.541 111914.767 -127187.983 111984.263 -127291.991 112032.13 -127407.552 112056.533 -127530.234 112056.533 -127655.316 112032.13 -127777.998 111984.263 -127893.559 111914.767 -127997.567 111826.325 -128086.009 111722.317 -128155.505 111606.756 -128203.372 111484.075 -128227.775 111358.991 -128227.775 111236.31 -128203.372 111120.749 -128155.505 111016.741 -128086.009 110928.299 -127997.567 110858.803 -127893.559 110810.936 -127777.998 110786.533 -127655.316 110786.533 -127530.234 110810.936 -127407.552 110858.803 -127291.991 110928.299 -127187.983 111016.741 -127099.541 111120.749 -127030.045 111236.31 -126982.178 111358.991 -126957.775 111484.075 -126957.775 111606.756 -126982.178 111606.756 -126982.178"/><path d="M 110420.533 -127917.775 109420.533 -127917.775 109420.533 -127267.775 110420.533 -127267.775 110420.533 -127917.775 110420.533 -127917.775"/><path d="M 98182.533 -127917.775 97182.533 -127917.775 97182.533 -127267.775 98182.533 -127267.775 98182.533 -127917.775 98182.533 -127917.775"/><path d="M 98182.533 -126647.775 97182.533 -126647.775 97182.533 -125997.775 98182.533 -125997.775 98182.533 -126647.775 98182.533 -126647.775"/><path d="M 110420.533 -126647.775 109420.533 -126647.775 109420.533 -125997.775 110420.533 -125997.775 110420.533 -126647.775 110420.533 -126647.775"/><path d="M 101563.533 -126314.775 100913.533 -126314.775 100913.533 -125314.775 101563.533 -125314.775 101563.533 -126314.775 101563.533 -126314.775"/><path d="M 107913.533 -126314.775 107263.533 -126314.775 107263.533 -125314.775 107913.533 -125314.775 107913.533 -126314.775 107913.533 -126314.775"/><path d="M 106643.533 -126314.775 105993.533 -126314.775 105993.533 -125314.775 106643.533 -125314.775 106643.533 -126314.775 106643.533 -126314.775"/><path d="M 105373.533 -126314.775 104723.533 -126314.775 104723.533 -125314.775 105373.533 -125314.775 105373.533 -126314.775 105373.533 -126314.775"/><path d="M 104103.533 -126314.775 103453.533 -126314.775 103453.533 -125314.775 104103.533 -125314.775 104103.533 -126314.775 104103.533 -126314.775"/><path d="M 102833.533 -126314.775 102183.533 -126314.775 102183.533 -125314.775 102833.533 -125314.775 102833.533 -126314.775 102833.533 -126314.775"/><path d="M 100293.533 -126314.775 99643.533 -126314.775 99643.533 -125314.775 100293.533 -125314.775 100293.533 -126314.775 100293.533 -126314.775"/><path d="M 96366.756 -124442.178 96482.317 -124490.045 96586.325 -124559.541 96674.767 -124647.983 96744.263 -124751.991 96792.13 -124867.552 96816.533 -124990.234 96816.533 -125115.316 96792.13 -125237.998 96744.263 -125353.559 96674.767 -125457.567 96586.325 -125546.009 96482.317 -125615.505 96366.756 -125663.372 96244.075 -125687.775 96118.991 -125687.775 95996.31 -125663.372 95880.749 -125615.505 95776.741 -125546.009 95688.299 -125457.567 95618.803 -125353.559 95570.936 -125237.998 95546.533 -125115.316 95546.533 -124990.234 95570.936 -124867.552 95618.803 -124751.991 95688.299 -124647.983 95776.741 -124559.541 95880.749 -124490.045 95996.31 -124442.178 96118.991 -124417.775 96244.075 -124417.775 96366.756 -124442.178 96366.756 -124442.178"/><path d="M 111606.756 -124442.178 111722.317 -124490.045 111826.325 -124559.541 111914.767 -124647.983 111984.263 -124751.991 112032.13 -124867.552 112056.533 -124990.234 112056.533 -125115.316 112032.13 -125237.998 111984.263 -125353.559 111914.767 -125457.567 111826.325 -125546.009 111722.317 -125615.505 111606.756 -125663.372 111484.075 -125687.775 111358.991 -125687.775 111236.31 -125663.372 111120.749 -125615.505 111016.741 -125546.009 110928.299 -125457.567 110858.803 -125353.559 110810.936 -125237.998 110786.533 -125115.316 110786.533 -124990.234 110810.936 -124867.552 110858.803 -124751.991 110928.299 -124647.983 111016.741 -124559.541 111120.749 -124490.045 111236.31 -124442.178 111358.991 -124417.775 111484.075 -124417.775 111606.756 -124442.178 111606.756 -124442.178"/><path d="M 106006.533 -124603.775 105356.533 -124603.775 105356.533 -123603.775 106006.533 -123603.775 106006.533 -124603.775 106006.533 -124603.775"/><path d="M 104736.533 -124603.775 104086.533 -124603.775 104086.533 -123603.775 104736.533 -123603.775 104736.533 -124603.775 104736.533 -124603.775"/><path d="M 103466.533 -124603.775 102816.533 -124603.775 102816.533 -123603.775 103466.533 -123603.775 103466.533 -124603.775 103466.533 -124603.775"/><path d="M 108546.533 -124603.775 107896.533 -124603.775 107896.533 -123603.775 108546.533 -123603.775 108546.533 -124603.775 108546.533 -124603.775"/><path d="M 99656.533 -124603.775 99006.533 -124603.775 99006.533 -123603.775 99656.533 -123603.775 99656.533 -124603.775 99656.533 -124603.775"/><path d="M 100926.533 -124603.775 100276.533 -124603.775 100276.533 -123603.775 100926.533 -123603.775 100926.533 -124603.775 100926.533 -124603.775"/><path d="M 102196.533 -124603.775 101546.533 -124603.775 101546.533 -123603.775 102196.533 -123603.775 102196.533 -124603.775 102196.533 -124603.775"/><path d="M 107276.533 -124603.775 106626.533 -124603.775 106626.533 -123603.775 107276.533 -123603.775 107276.533 -124603.775 107276.533 -124603.775"/><path d="M 96366.756 -121902.178 96482.317 -121950.045 96586.325 -122019.541 96674.767 -122107.983 96744.263 -122211.991 96792.13 -122327.552 96816.533 -122450.234 96816.533 -122575.316 96792.13 -122697.998 96744.263 -122813.559 96674.767 -122917.567 96586.325 -123006.009 96482.317 -123075.505 96366.756 -123123.372 96244.075 -123147.775 96118.991 -123147.775 95996.31 -123123.372 95880.749 -123075.505 95776.741 -123006.009 95688.299 -122917.567 95618.803 -122813.559 95570.936 -122697.998 95546.533 -122575.316 95546.533 -122450.234 95570.936 -122327.552 95618.803 -122211.991 95688.299 -122107.983 95776.741 -122019.541 95880.749 -121950.045 95996.31 -121902.178 96118.991 -121877.775 96244.075 -121877.775 96366.756 -121902.178 96366.756 -121902.178"/><path d="M 111606.756 -121902.178 111722.317 -121950.045 111826.325 -122019.541 111914.767 -122107.983 111984.263 -122211.991 112032.13 -122327.552 112056.533 -122450.234 112056.533 -122575.316 112032.13 -122697.998 111984.263 -122813.559 111914.767 -122917.567 111826.325 -123006.009 111722.317 -123075.505 111606.756 -123123.372 111484.075 -123147.775 111358.991 -123147.775 111236.31 -123123.372 111120.749 -123075.505 111016.741 -123006.009 110928.299 -122917.567 110858.803 -122813.559 110810.936 -122697.998 110786.533 -122575.316 110786.533 -122450.234 110810.936 -122327.552 110858.803 -122211.991 110928.299 -122107.983 111016.741 -122019.541 111120.749 -121950.045 111236.31 -121902.178 111358.991 -121877.775 111484.075 -121877.775 111606.756 -121902.178 111606.756 -121902.178"/><path d="M 111606.756 -119362.178 111722.317 -119410.045 111826.325 -119479.541 111914.767 -119567.983 111984.263 -119671.991 112032.13 -119787.552 112056.533 -119910.234 112056.533 -120035.316 112032.13 -120157.998 111984.263 -120273.559 111914.767 -120377.567 111826.325 -120466.009 111722.317 -120535.505 111606.756 -120583.372 111484.075 -120607.775 111358.991 -120607.775 111236.31 -120583.372 111120.749 -120535.505 111016.741 -120466.009 110928.299 -120377.567 110858.803 -120273.559 110810.936 -120157.998 110786.533 -120035.316 110786.533 -119910.234 110810.936 -119787.552 110858.803 -119671.991 110928.299 -119567.983 111016.741 -119479.541 111120.749 -119410.045 111236.31 -119362.178 111358.991 -119337.775 111484.075 -119337.775 111606.756 -119362.178 111606.756 -119362.178"/><path d="M 96366.756 -119362.178 96482.317 -119410.045 96586.325 -119479.541 96674.767 -119567.983 96744.263 -119671.991 96792.13 -119787.552 96816.533 -119910.234 96816.533 -120035.316 96792.13 -120157.998 96744.263 -120273.559 96674.767 -120377.567 96586.325 -120466.009 96482.317 -120535.505 96366.756 -120583.372 96244.075 -120607.775 96118.991 -120607.775 95996.31 -120583.372 95880.749 -120535.505 95776.741 -120466.009 95688.299 -120377.567 95618.803 -120273.559 95570.936 -120157.998 95546.533 -120035.316 95546.533 -119910.234 95570.936 -119787.552 95618.803 -119671.991 95688.299 -119567.983 95776.741 -119479.541 95880.749 -119410.045 95996.31 -119362.178 96118.991 -119337.775 96244.075 -119337.775 96366.756 -119362.178 96366.756 -119362.178"/><path d="M 111606.756 -116822.178 111722.317 -116870.045 111826.325 -116939.541 111914.767 -117027.983 111984.263 -117131.991 112032.13 -117247.552 112056.533 -117370.234 112056.533 -117495.316 112032.13 -117617.998 111984.263 -117733.559 111914.767 -117837.567 111826.325 -117926.009 111722.317 -117995.505 111606.756 -118043.372 111484.075 -118067.775 111358.991 -118067.775 111236.31 -118043.372 111120.749 -117995.505 111016.741 -117926.009 110928.299 -117837.567 110858.803 -117733.559 110810.936 -117617.998 110786.533 -117495.316 110786.533 -117370.234 110810.936 -117247.552 110858.803 -117131.991 110928.299 -117027.983 111016.741 -116939.541 111120.749 -116870.045 111236.31 -116822.178 111358.991 -116797.775 111484.075 -116797.775 111606.756 -116822.178 111606.756 -116822.178"/><path d="M 96366.756 -116822.178 96482.317 -116870.045 96586.325 -116939.541 96674.767 -117027.983 96744.263 -117131.991 96792.13 -117247.552 96816.533 -117370.234 96816.533 -117495.316 96792.13 -117617.998 96744.263 -117733.559 96674.767 -117837.567 96586.325 -117926.009 96482.317 -117995.505 96366.756 -118043.372 96244.075 -118067.775 96118.991 -118067.775 95996.31 -118043.372 95880.749 -117995.505 95776.741 -117926.009 95688.299 -117837.567 95618.803 -117733.559 95570.936 -117617.998 95546.533 -117495.316 95546.533 -117370.234 95570.936 -117247.552 95618.803 -117131.991 95688.299 -117027.983 95776.741 -116939.541 95880.749 -116870.045 95996.31 -116822.178 96118.991 -116797.775 96244.075 -116797.775 96366.756 -116822.178 96366.756 -116822.178"/><path d="M 107326.533 -117982.775 100276.533 -117982.775 100276.533 -116532.775 107326.533 -116532.775 107326.533 -117982.775 107326.533 -117982.775"/><path d="M 99579.547 -115300.009 99673.8 -115328.6 99714.596 -115350.406 99760.662 -115375.029 99836.797 -115437.511 99836.798 -115437.513 99836.8 -115437.514 99878.047 -115487.775 99899.279 -115513.646 99905.22 -115524.761 99945.708 -115600.507 99974.299 -115694.76 99981.533 -115768.211 99981.533 -116917.339 99974.299 -116990.79 99945.708 -117085.043 99920.89 -117131.472 99899.279 -117171.904 99836.797 -117248.039 99760.662 -117310.521 99720.23 -117332.132 99673.801 -117356.95 99579.548 -117385.541 99481.533 -117395.194 99383.519 -117385.541 99289.266 -117356.95 99242.837 -117332.132 99202.405 -117310.521 99126.27 -117248.039 99063.788 -117171.904 99042.177 -117131.472 99017.359 -117085.043 98988.768 -116990.79 98981.534 -116917.339 98981.533 -115768.212 98988.767 -115694.761 99017.358 -115600.508 99057.846 -115524.761 99063.787 -115513.646 99126.269 -115437.511 99126.271 -115437.51 99126.272 -115437.508 99202.403 -115375.03 99202.402 -115375.03 99202.404 -115375.029 99242.836 -115353.418 99289.265 -115328.6 99383.518 -115300.009 99481.533 -115290.356 99579.547 -115300.009 99579.547 -115300.009"/><path d="M 108219.547 -115300.009 108313.8 -115328.6 108354.596 -115350.406 108400.662 -115375.029 108476.797 -115437.511 108476.798 -115437.513 108476.8 -115437.514 108518.047 -115487.775 108539.279 -115513.646 108545.22 -115524.761 108585.708 -115600.507 108614.299 -115694.76 108621.533 -115768.211 108621.533 -116917.339 108614.299 -116990.79 108585.708 -117085.043 108560.89 -117131.472 108539.279 -117171.904 108476.797 -117248.039 108400.662 -117310.521 108360.23 -117332.132 108313.801 -117356.95 108219.548 -117385.541 108121.533 -117395.194 108023.519 -117385.541 107929.266 -117356.95 107882.837 -117332.132 107842.405 -117310.521 107766.27 -117248.039 107703.788 -117171.904 107682.177 -117131.472 107657.359 -117085.043 107628.768 -116990.79 107621.534 -116917.339 107621.533 -115768.212 107628.767 -115694.761 107657.358 -115600.508 107697.846 -115524.761 107703.787 -115513.646 107766.269 -115437.511 107766.271 -115437.51 107766.272 -115437.508 107842.403 -115375.03 107842.402 -115375.03 107842.404 -115375.029 107882.836 -115353.418 107929.265 -115328.6 108023.518 -115300.009 108121.533 -115290.356 108219.547 -115300.009 108219.547 -115300.009"/><path d="M 101006.332 -115500.264 101038.646 -115513.649 101065.474 -115524.761 101065.475 -115524.762 101065.478 -115524.763 101118.709 -115560.331 101163.977 -115605.599 101199.545 -115658.83 101224.044 -115717.976 101236.533 -115780.765 101236.533 -115844.785 101224.044 -115907.574 101199.545 -115966.72 101163.977 -116019.951 101118.709 -116065.219 101065.478 -116100.787 101065.475 -116100.788 101065.474 -116100.789 101052.076 -116106.338 101006.332 -116125.286 100943.543 -116137.775 100879.523 -116137.775 100816.734 -116125.286 100770.99 -116106.338 100757.592 -116100.789 100757.591 -116100.788 100757.588 -116100.787 100704.357 -116065.219 100659.089 -116019.951 100623.521 -115966.72 100599.022 -115907.574 100586.533 -115844.785 100586.533 -115780.765 100599.022 -115717.976 100623.521 -115658.83 100659.089 -115605.599 100704.357 -115560.331 100757.588 -115524.763 100757.591 -115524.762 100757.592 -115524.761 100784.42 -115513.649 100816.734 -115500.264 100879.523 -115487.775 100943.543 -115487.775 101006.332 -115500.264 101006.332 -115500.264"/><path d="M 106786.332 -115500.264 106818.646 -115513.649 106845.474 -115524.761 106845.475 -115524.762 106845.478 -115524.763 106898.709 -115560.331 106943.977 -115605.599 106979.545 -115658.83 107004.044 -115717.976 107016.533 -115780.765 107016.533 -115844.785 107004.044 -115907.574 106979.545 -115966.72 106943.977 -116019.951 106898.709 -116065.219 106845.478 -116100.787 106845.475 -116100.788 106845.474 -116100.789 106832.076 -116106.338 106786.332 -116125.286 106723.543 -116137.775 106659.523 -116137.775 106596.734 -116125.286 106550.99 -116106.338 106537.592 -116100.789 106537.591 -116100.788 106537.588 -116100.787 106484.357 -116065.219 106439.089 -116019.951 106403.521 -115966.72 106379.022 -115907.574 106366.533 -115844.785 106366.533 -115780.765 106379.022 -115717.976 106403.521 -115658.83 106439.089 -115605.599 106484.357 -115560.331 106537.588 -115524.763 106537.591 -115524.762 106537.592 -115524.761 106564.42 -115513.649 106596.734 -115500.264 106659.523 -115487.775 106723.543 -115487.775 106786.332 -115500.264 106786.332 -115500.264"/><path d="M 97999.163 -114055.074 98159.388 -114103.678 98307.053 -114182.606 98436.482 -114288.826 98542.702 -114418.255 98621.63 -114565.92 98670.234 -114726.145 98686.645 -114892.775 98670.234 -115059.405 98621.63 -115219.63 98542.702 -115367.295 98436.482 -115496.724 98307.053 -115602.944 98159.388 -115681.872 97999.163 -115730.476 97874.285 -115742.775 97790.781 -115742.775 97665.903 -115730.476 97505.678 -115681.872 97358.013 -115602.944 97228.584 -115496.724 97122.364 -115367.295 97063.826 -115257.777 97043.436 -115219.63 97035.528 -115193.559 97013.807 -115121.957 97004.43 -115099.318 96990.816 -115078.943 96973.489 -115061.616 96953.114 -115048.002 96930.475 -115038.625 96906.441 -115033.845 96881.937 -115033.845 96857.904 -115038.626 96835.265 -115048.003 96814.89 -115061.617 96797.563 -115078.944 96778.705 -115110.408 96744.263 -115193.56 96674.767 -115297.567 96586.325 -115386.009 96482.317 -115455.505 96366.756 -115503.372 96244.075 -115527.775 96118.991 -115527.775 95996.31 -115503.372 95880.749 -115455.505 95776.741 -115386.009 95688.299 -115297.567 95618.803 -115193.559 95570.936 -115077.998 95546.533 -114955.316 95546.533 -114830.234 95570.936 -114707.552 95618.803 -114591.991 95688.299 -114487.983 95776.741 -114399.541 95880.749 -114330.045 95996.31 -114282.178 96118.991 -114257.775 96244.075 -114257.775 96366.756 -114282.178 96482.317 -114330.045 96586.325 -114399.541 96674.767 -114487.983 96744.263 -114591.99 96778.705 -114675.142 96790.256 -114696.753 96805.801 -114715.695 96824.743 -114731.24 96846.354 -114742.792 96869.803 -114749.905 96894.19 -114752.307 96918.576 -114749.905 96942.025 -114742.792 96963.636 -114731.241 96982.578 -114715.696 96998.123 -114696.754 97013.807 -114663.593 97043.436 -114565.921 97043.436 -114565.92 97085.093 -114487.986 97122.364 -114418.255 97228.584 -114288.826 97358.013 -114182.606 97505.678 -114103.678 97665.903 -114055.074 97790.781 -114042.775 97874.285 -114042.775 97999.163 -114055.074 97999.163 -114055.074"/><path d="M 111606.756 -114282.178 111722.317 -114330.045 111826.325 -114399.541 111914.767 -114487.983 111984.263 -114591.991 112032.13 -114707.552 112056.533 -114830.234 112056.533 -114955.316 112032.13 -115077.998 111984.263 -115193.559 111914.767 -115297.567 111826.325 -115386.009 111722.317 -115455.505 111606.756 -115503.372 111484.075 -115527.775 111358.991 -115527.775 111236.31 -115503.372 111120.749 -115455.505 111016.741 -115386.009 110928.299 -115297.567 110858.803 -115193.559 110810.936 -115077.998 110786.533 -114955.316 110786.533 -114830.234 110810.936 -114707.552 110858.803 -114591.991 110928.299 -114487.983 111016.741 -114399.541 111120.749 -114330.045 111236.31 -114282.178 111358.991 -114257.775 111484.075 -114257.775 111606.756 -114282.178 111606.756 -114282.178"/><path d="M 98682.533 -113202.775 96982.533 -113202.775 96982.533 -113102.775 96980.131 -113078.389 96973.018 -113054.94 96961.467 -113033.329 96945.921 -113014.387 96926.979 -112998.841 96905.368 -112987.29 96881.919 -112980.177 96857.533 -112977.775 95556.533 -112977.775 95556.533 -111727.775 96857.533 -111727.775 96881.919 -111725.373 96905.368 -111718.26 96926.979 -111706.709 96945.921 -111691.163 96961.467 -111672.221 96973.018 -111650.61 96980.131 -111627.161 96982.533 -111602.775 96982.533 -111502.775 98682.533 -111502.775 98682.533 -113202.775 98682.533 -113202.775"/><path d="M 111606.756 -111742.178 111722.317 -111790.045 111826.325 -111859.541 111914.767 -111947.983 111984.263 -112051.991 112032.13 -112167.552 112056.533 -112290.234 112056.533 -112415.316 112032.13 -112537.998 111984.263 -112653.559 111914.767 -112757.567 111826.325 -112846.009 111722.317 -112915.505 111606.756 -112963.372 111484.075 -112987.775 111358.991 -112987.775 111236.31 -112963.372 111120.749 -112915.505 111016.741 -112846.009 110928.299 -112757.567 110858.803 -112653.559 110810.936 -112537.998 110786.533 -112415.316 110786.533 -112290.234 110810.936 -112167.552 110858.803 -112051.991 110928.299 -111947.983 111016.741 -111859.541 111120.749 -111790.045 111236.31 -111742.178 111358.991 -111717.775 111484.075 -111717.775 111606.756 -111742.178 111606.756 -111742.178"/><path d="M 99579.547 -111370.009 99673.8 -111398.6 99714.596 -111420.406 99760.662 -111445.029 99836.797 -111507.511 99836.798 -111507.513 99836.8 -111507.514 99883.659 -111564.612 99899.279 -111583.646 99920.89 -111624.078 99945.708 -111670.507 99974.299 -111764.76 99981.533 -111838.211 99981.533 -112487.339 99974.299 -112560.79 99945.708 -112655.043 99920.89 -112701.472 99899.279 -112741.904 99836.797 -112818.039 99760.662 -112880.521 99720.23 -112902.132 99673.801 -112926.95 99579.548 -112955.541 99481.533 -112965.194 99383.519 -112955.541 99289.266 -112926.95 99242.837 -112902.132 99202.405 -112880.521 99126.27 -112818.039 99076.642 -112757.567 99063.79 -112741.907 99017.357 -112655.04 98988.767 -112560.79 98981.533 -112487.339 98981.533 -111838.212 98988.767 -111764.761 99017.358 -111670.508 99040.528 -111627.161 99063.787 -111583.646 99126.269 -111507.511 99126.271 -111507.51 99126.272 -111507.508 99202.403 -111445.03 99202.402 -111445.03 99202.404 -111445.029 99242.836 -111423.418 99289.265 -111398.6 99383.518 -111370.009 99481.533 -111360.356 99579.547 -111370.009 99579.547 -111370.009"/><path d="M 108219.547 -111370.009 108313.8 -111398.6 108354.596 -111420.406 108400.662 -111445.029 108476.797 -111507.511 108476.798 -111507.513 108476.8 -111507.514 108523.659 -111564.612 108539.279 -111583.646 108560.89 -111624.078 108585.708 -111670.507 108614.299 -111764.76 108621.533 -111838.211 108621.533 -112487.339 108614.299 -112560.79 108585.708 -112655.043 108560.89 -112701.472 108539.279 -112741.904 108476.797 -112818.039 108400.662 -112880.521 108360.23 -112902.132 108313.801 -112926.95 108219.548 -112955.541 108121.533 -112965.194 108023.519 -112955.541 107929.266 -112926.95 107882.837 -112902.132 107842.405 -112880.521 107766.27 -112818.039 107716.642 -112757.567 107703.79 -112741.907 107657.357 -112655.04 107628.767 -112560.79 107621.533 -112487.339 107621.533 -111838.212 107628.767 -111764.761 107657.358 -111670.508 107680.528 -111627.161 107703.787 -111583.646 107766.269 -111507.511 107766.271 -111507.51 107766.272 -111507.508 107842.403 -111445.03 107842.402 -111445.03 107842.404 -111445.029 107882.836 -111423.418 107929.265 -111398.6 108023.518 -111370.009 108121.533 -111360.356 108219.547 -111370.009 108219.547 -111370.009"/><path d="M 111567.378 -110093.99 111658.372 -110131.681 111739.173 -110185.671 111740.267 -110186.402 111809.906 -110256.041 111864.628 -110337.938 111902.318 -110428.93 111921.533 -110525.53 111921.533 -110624.02 111902.318 -110720.62 111864.628 -110811.612 111809.906 -110893.509 111740.267 -110963.148 111740.264 -110963.15 111658.372 -111017.869 111567.378 -111055.56 111470.779 -111074.775 111372.287 -111074.775 111275.688 -111055.56 111184.694 -111017.869 111102.802 -110963.15 111102.799 -110963.148 111033.16 -110893.509 110978.438 -110811.612 110940.748 -110720.62 110921.533 -110624.02 110921.533 -110525.53 110940.748 -110428.93 110978.438 -110337.938 111033.16 -110256.041 111102.799 -110186.402 111103.893 -110185.671 111184.694 -110131.681 111275.688 -110093.99 111372.287 -110074.775 111470.779 -110074.775 111567.378 -110093.99 111567.378 -110093.99"/></g><g id="jS_V8BuIu5BZxILdYopF_bottom_silkscreen"><path d="M 97179.533 -113399.775 96671.533 -113272.775 M 97169.533 -113795.775 96661.533 -113922.775" fill="none" stroke-width="200"/><path d="M 107692.39 -121660.132 107728.104 -121695.846 107835.247 -121731.56 107906.675 -121731.56 108013.818 -121695.846 108085.247 -121624.417 108120.961 -121552.989 108156.675 -121410.132 108156.675 -121302.989 108120.961 -121160.132 108085.247 -121088.703 108013.818 -121017.275 107906.675 -120981.56 107835.247 -120981.56 107728.104 -121017.275 107692.39 -121052.989 M 107263.818 -121731.56 107335.247 -121695.846 107370.961 -121660.132 107406.675 -121588.703 107406.675 -121374.417 107370.961 -121302.989 107335.247 -121267.275 107263.818 -121231.56 107156.675 -121231.56 107085.247 -121267.275 107049.533 -121302.989 107013.818 -121374.417 107013.818 -121588.703 107049.533 -121660.132 107085.247 -121695.846 107156.675 -121731.56 107263.818 -121731.56 M 106692.39 -121231.56 106692.39 -121731.56 M 106692.39 -121302.989 106656.675 -121267.275 106585.247 -121231.56 106478.104 -121231.56 106406.675 -121267.275 106370.961 -121338.703 106370.961 -121731.56 M 106120.961 -121231.56 105835.247 -121231.56 M 106013.818 -120981.56 106013.818 -121624.417 105978.104 -121695.846 105906.675 -121731.56 105835.247 -121731.56 M 105263.818 -121731.56 105263.818 -121338.703 105299.533 -121267.275 105370.961 -121231.56 105513.818 -121231.56 105585.247 -121267.275 M 105263.818 -121695.846 105335.247 -121731.56 105513.818 -121731.56 105585.247 -121695.846 105620.961 -121624.417 105620.961 -121552.989 105585.247 -121481.56 105513.818 -121445.846 105335.247 -121445.846 105263.818 -121410.132 M 104906.675 -121731.56 104906.675 -121231.56 M 104906.675 -120981.56 104942.39 -121017.275 104906.675 -121052.989 104870.961 -121017.275 104906.675 -120981.56 104906.675 -121052.989 M 104549.533 -121231.56 104549.533 -121731.56 M 104549.533 -121302.989 104513.818 -121267.275 104442.39 -121231.56 104335.247 -121231.56 104263.818 -121267.275 104228.104 -121338.703 104228.104 -121731.56 M 103906.675 -121695.846 103835.247 -121731.56 103692.39 -121731.56 103620.961 -121695.846 103585.247 -121624.417 103585.247 -121588.703 103620.961 -121517.275 103692.39 -121481.56 103799.533 -121481.56 103870.961 -121445.846 103906.675 -121374.417 103906.675 -121338.703 103870.961 -121267.275 103799.533 -121231.56 103692.39 -121231.56 103620.961 -121267.275 M 102442.39 -121338.703 102692.39 -121338.703 M 102692.39 -121731.56 102692.39 -120981.56 102335.247 -120981.56 M 101620.961 -121660.132 101656.675 -121695.846 101763.818 -121731.56 101835.247 -121731.56 101942.39 -121695.846 102013.818 -121624.417 102049.533 -121552.989 102085.247 -121410.132 102085.247 -121302.989 102049.533 -121160.132 102013.818 -121088.703 101942.39 -121017.275 101835.247 -120981.56 101763.818 -120981.56 101656.675 -121017.275 101620.961 -121052.989 M 100870.961 -121660.132 100906.675 -121695.846 101013.818 -121731.56 101085.247 -121731.56 101192.39 -121695.846 101263.818 -121624.417 101299.533 -121552.989 101335.247 -121410.132 101335.247 -121302.989 101299.533 -121160.132 101263.818 -121088.703 101192.39 -121017.275 101085.247 -120981.56 101013.818 -120981.56 100906.675 -121017.275 100870.961 -121052.989 M 99978.104 -121731.56 99978.104 -120981.56 M 99620.961 -121731.56 99620.961 -120981.56 99442.39 -120981.56 99335.247 -121017.275 99263.818 -121088.703 99228.104 -121160.132 99192.39 -121302.989 99192.39 -121410.132 99228.104 -121552.989 99263.818 -121624.417 99335.247 -121695.846 99442.39 -121731.56 99620.961 -121731.56 M 106799.533 -122277.989 106763.818 -122242.275 106692.39 -122206.56 106513.818 -122206.56 106442.39 -122242.275 106406.675 -122277.989 106370.961 -122349.417 106370.961 -122420.846 106406.675 -122527.989 106835.247 -122956.56 106370.961 -122956.56 M 106085.247 -122742.275 105728.104 -122742.275 M 106156.675 -122956.56 105906.675 -122206.56 105656.675 -122956.56 M 105049.533 -122956.56 105406.675 -122956.56 105406.675 -122206.56 M 104799.533 -122956.56 104799.533 -122206.56 104513.818 -122206.56 104442.39 -122242.275 104406.675 -122277.989 104370.961 -122349.417 104370.961 -122456.56 104406.675 -122527.989 104442.39 -122563.703 104513.818 -122599.417 104799.533 -122599.417 M 104049.533 -122956.56 104049.533 -122206.56 M 104049.533 -122563.703 103620.961 -122563.703 M 103620.961 -122956.56 103620.961 -122206.56 M 103263.818 -122670.846 102692.39 -122670.846 M 102335.247 -122563.703 102085.247 -122563.703 M 101978.104 -122956.56 102335.247 -122956.56 102335.247 -122206.56 101978.104 -122206.56 M 101728.104 -122206.56 101228.104 -122206.56 101549.533 -122956.56 M 101013.818 -122206.56 100549.533 -122206.56 100799.533 -122492.275 100692.39 -122492.275 100620.961 -122527.989 100585.247 -122563.703 100549.533 -122635.132 100549.533 -122813.703 100585.247 -122885.132 100620.961 -122920.846 100692.39 -122956.56 100906.675 -122956.56 100978.104 -122920.846 101013.818 -122885.132 M 107538.247 -110235.489 107288.247 -110592.632 M 107109.675 -110235.489 107109.675 -110985.489 107395.39 -110985.489 107466.818 -110949.775 107502.533 -110914.06 107538.247 -110842.632 107538.247 -110735.489 107502.533 -110664.06 107466.818 -110628.346 107395.39 -110592.632 107109.675 -110592.632 M 107859.675 -110628.346 108109.675 -110628.346 M 108216.818 -110235.489 107859.675 -110235.489 107859.675 -110985.489 108216.818 -110985.489 M 108502.533 -110271.203 108609.675 -110235.489 108788.247 -110235.489 108859.675 -110271.203 108895.39 -110306.917 108931.104 -110378.346 108931.104 -110449.775 108895.39 -110521.203 108859.675 -110556.917 108788.247 -110592.632 108645.39 -110628.346 108573.961 -110664.06 108538.247 -110699.775 108502.533 -110771.203 108502.533 -110842.632 108538.247 -110914.06 108573.961 -110949.775 108645.39 -110985.489 108823.961 -110985.489 108931.104 -110949.775 M 109252.533 -110628.346 109502.533 -110628.346 M 109609.675 -110235.489 109252.533 -110235.489 109252.533 -110985.489 109609.675 -110985.489 M 109823.961 -110985.489 110252.533 -110985.489 M 110038.247 -110235.489 110038.247 -110985.489" fill="none" stroke-width="100"/><path d="M 112374.033 -122639.775 113961.533 -122639.775 M 112374.033 -127973.775 112374.033 -122639.775 M 111548.533 -128799.275 112374.033 -127973.775 M 112882.033 -130132.775 111548.533 -128799.275 M 111612.033 -131402.775 112882.033 -130132.775 M 112818.533 -132736.275 111612.033 -131402.775 M 112755.033 -132799.775 112818.533 -132736.275 M 111612.033 -133942.775 112755.033 -132799.775 M 112818.533 -135212.775 111612.033 -133942.775 M 111548.533 -136482.775 112818.533 -135212.775 M 112374.033 -137308.275 111548.533 -136482.775 M 112374.033 -141562.775 112374.033 -137308.275" fill="none" stroke-width="200"/><path d="M 113467.39 -138100.203 113503.104 -138064.489 113538.818 -137957.346 113538.818 -137885.917 113503.104 -137778.775 113431.675 -137707.346 113360.247 -137671.632 113217.39 -137635.917 113110.247 -137635.917 112967.39 -137671.632 112895.961 -137707.346 112824.533 -137778.775 112788.818 -137885.917 112788.818 -137957.346 112824.533 -138064.489 112860.247 -138100.203 M 113538.818 -138778.775 113538.818 -138421.632 112788.818 -138421.632 M 113538.818 -139028.775 112788.818 -139028.775 M 113538.818 -139457.346 113110.247 -139135.917 M 112788.818 -139457.346 113217.39 -139028.775 M 113538.818 -140350.203 112788.818 -140350.203 M 112788.818 -140850.203 112788.818 -140993.06 112824.533 -141064.489 112895.961 -141135.917 113038.818 -141171.632 113288.818 -141171.632 113431.675 -141135.917 113503.104 -141064.489 113538.818 -140993.06 113538.818 -140850.203 113503.104 -140778.775 113431.675 -140707.346 113288.818 -140671.632 113038.818 -140671.632 112895.961 -140707.346 112824.533 -140778.775 112788.818 -140850.203 M 107303.533 -118925.703 107196.39 -118961.417 107160.675 -118997.132 107124.961 -119068.56 107124.961 -119175.703 107160.675 -119247.132 107196.39 -119282.846 107267.818 -119318.56 107553.533 -119318.56 107553.533 -118568.56 107303.533 -118568.56 107232.104 -118604.275 107196.39 -118639.989 107160.675 -118711.417 107160.675 -118782.846 107196.39 -118854.275 107232.104 -118889.989 107303.533 -118925.703 107553.533 -118925.703 M 106696.39 -119318.56 106767.818 -119282.846 106803.533 -119211.417 106803.533 -118568.56 M 106089.247 -118818.56 106089.247 -119318.56 M 106410.675 -118818.56 106410.675 -119211.417 106374.961 -119282.846 106303.533 -119318.56 106196.39 -119318.56 106124.961 -119282.846 106089.247 -119247.132 M 105446.39 -119282.846 105517.818 -119318.56 105660.675 -119318.56 105732.104 -119282.846 105767.818 -119211.417 105767.818 -118925.703 105732.104 -118854.275 105660.675 -118818.56 105517.818 -118818.56 105446.39 -118854.275 105410.675 -118925.703 105410.675 -118997.132 105767.818 -119068.56 M 105089.247 -119318.56 105089.247 -118568.56 104839.247 -119104.275 104589.247 -118568.56 104589.247 -119318.56 M 104232.104 -119318.56 104232.104 -118818.56 M 104232.104 -118568.56 104267.818 -118604.275 104232.104 -118639.989 104196.39 -118604.275 104232.104 -118568.56 104232.104 -118639.989 M 103553.533 -119282.846 103624.961 -119318.56 103767.818 -119318.56 103839.247 -119282.846 103874.961 -119247.132 103910.675 -119175.703 103910.675 -118961.417 103874.961 -118889.989 103839.247 -118854.275 103767.818 -118818.56 103624.961 -118818.56 103553.533 -118854.275 M 103232.104 -119318.56 103232.104 -118818.56 M 103232.104 -118961.417 103196.39 -118889.989 103160.675 -118854.275 103089.247 -118818.56 103017.818 -118818.56 M 102660.675 -119318.56 102732.104 -119282.846 102767.818 -119247.132 102803.533 -119175.703 102803.533 -118961.417 102767.818 -118889.989 102732.104 -118854.275 102660.675 -118818.56 102553.533 -118818.56 102482.104 -118854.275 102446.39 -118889.989 102410.675 -118961.417 102410.675 -119175.703 102446.39 -119247.132 102482.104 -119282.846 102553.533 -119318.56 102660.675 -119318.56 M 101982.104 -118889.989 102053.533 -118854.275 102089.247 -118818.56 102124.961 -118747.132 102124.961 -118711.417 102089.247 -118639.989 102053.533 -118604.275 101982.104 -118568.56 101839.247 -118568.56 101767.818 -118604.275 101732.104 -118639.989 101696.39 -118711.417 101696.39 -118747.132 101732.104 -118818.56 101767.818 -118854.275 101839.247 -118889.989 101982.104 -118889.989 102053.533 -118925.703 102089.247 -118961.417 102124.961 -119032.846 102124.961 -119175.703 102089.247 -119247.132 102053.533 -119282.846 101982.104 -119318.56 101839.247 -119318.56 101767.818 -119282.846 101732.104 -119247.132 101696.39 -119175.703 101696.39 -119032.846 101732.104 -118961.417 101767.818 -118925.703 101839.247 -118889.989 M 101053.533 -118818.56 101053.533 -119318.56 M 101232.104 -118532.846 101410.675 -119068.56 100946.39 -119068.56 M 100517.818 -118568.56 100446.39 -118568.56 100374.961 -118604.275 100339.247 -118639.989 100303.533 -118711.417 100267.818 -118854.275 100267.818 -119032.846 100303.533 -119175.703 100339.247 -119247.132 100374.961 -119282.846 100446.39 -119318.56 100517.818 -119318.56 100589.247 -119282.846 100624.961 -119247.132 100660.675 -119175.703 100696.39 -119032.846 100696.39 -118854.275 100660.675 -118711.417 100624.961 -118639.989 100589.247 -118604.275 100517.818 -118568.56 M 104249.961 -120543.56 104678.533 -120543.56 M 104464.247 -120543.56 104464.247 -119793.56 104535.675 -119900.703 104607.104 -119972.132 104678.533 -120007.846 M 103928.533 -120472.132 103892.818 -120507.846 103928.533 -120543.56 103964.247 -120507.846 103928.533 -120472.132 103928.533 -120543.56 M 103428.533 -119793.56 103357.104 -119793.56 103285.675 -119829.275 103249.961 -119864.989 103214.247 -119936.417 103178.533 -120079.275 103178.533 -120257.846 103214.247 -120400.703 103249.961 -120472.132 103285.675 -120507.846 103357.104 -120543.56 103428.533 -120543.56 103499.961 -120507.846 103535.675 -120472.132 103571.39 -120400.703 103607.104 -120257.846 103607.104 -120079.275 103571.39 -119936.417 103535.675 -119864.989 103499.961 -119829.275 103428.533 -119793.56 M 112788.818 -122941.703 113538.818 -123191.703 112788.818 -123441.703 M 113467.39 -124120.275 113503.104 -124084.56 113538.818 -123977.417 113538.818 -123905.989 113503.104 -123798.846 113431.675 -123727.417 113360.247 -123691.703 113217.39 -123655.989 113110.247 -123655.989 112967.39 -123691.703 112895.961 -123727.417 112824.533 -123798.846 112788.818 -123905.989 112788.818 -123977.417 112824.533 -124084.56 112860.247 -124120.275 M 113467.39 -124870.275 113503.104 -124834.56 113538.818 -124727.417 113538.818 -124655.989 113503.104 -124548.846 113431.675 -124477.417 113360.247 -124441.703 113217.39 -124405.989 113110.247 -124405.989 112967.39 -124441.703 112895.961 -124477.417 112824.533 -124548.846 112788.818 -124655.989 112788.818 -124727.417 112824.533 -124834.56 112860.247 -124870.275 M 112824.533 -126155.989 112788.818 -126084.56 112788.818 -125977.417 112824.533 -125870.275 112895.961 -125798.846 112967.39 -125763.132 113110.247 -125727.417 113217.39 -125727.417 113360.247 -125763.132 113431.675 -125798.846 113503.104 -125870.275 113538.818 -125977.417 113538.818 -126048.846 113503.104 -126155.989 113467.39 -126191.703 113217.39 -126191.703 113217.39 -126048.846 M 113538.818 -126513.132 112788.818 -126513.132 113538.818 -126941.703 112788.818 -126941.703 M 113538.818 -127298.846 112788.818 -127298.846 112788.818 -127477.417 112824.533 -127584.56 112895.961 -127655.989 112967.39 -127691.703 113110.247 -127727.417 113217.39 -127727.417 113360.247 -127691.703 113431.675 -127655.989 113503.104 -127584.56 113538.818 -127477.417 113538.818 -127298.846" fill="none" stroke-width="100"/><path d="M 112121.533 -110574.775 A 700 700 0 0 1 110721.533 -110574.775 700 700 0 0 1 112121.533 -110574.775" fill="none" stroke-width="120"/><path d="M 104562.97 -130921.93 104562.97 -131731.454 104515.351 -131826.692 104467.732 -131874.311 104372.494 -131921.93 104182.018 -131921.93 104086.78 -131874.311 104039.161 -131826.692 103991.542 -131731.454 103991.542 -130921.93 M 103039.161 -130921.93 103515.351 -130921.93 103562.97 -131398.121 103515.351 -131350.502 103420.113 -131302.883 103182.018 -131302.883 103086.78 -131350.502 103039.161 -131398.121 102991.542 -131493.359 102991.542 -131731.454 103039.161 -131826.692 103086.78 -131874.311 103182.018 -131921.93 103420.113 -131921.93 103515.351 -131874.311 103562.97 -131826.692 M 112722.533 -116835.941 112689.199 -116769.275 112689.199 -116669.275 112722.533 -116569.275 112789.199 -116502.608 112855.866 -116469.275 112989.199 -116435.941 113089.199 -116435.941 113222.533 -116469.275 113289.199 -116502.608 113355.866 -116569.275 113389.199 -116669.275 113389.199 -116735.941 113355.866 -116835.941 113322.533 -116869.275 113089.199 -116869.275 113089.199 -116735.941 M 113389.199 -117169.275 112689.199 -117169.275 113389.199 -117569.275 112689.199 -117569.275 M 113389.199 -117902.608 112689.199 -117902.608 112689.199 -118069.275 112722.533 -118169.275 112789.199 -118235.941 112855.866 -118269.275 112989.199 -118302.608 113089.199 -118302.608 113222.533 -118269.275 113289.199 -118235.941 113355.866 -118169.275 113389.199 -118069.275 113389.199 -117902.608 M 112659.033 -119375.941 112625.699 -119309.275 112625.699 -119209.275 112659.033 -119109.275 112725.699 -119042.608 112792.366 -119009.275 112925.699 -118975.941 113025.699 -118975.941 113159.033 -119009.275 113225.699 -119042.608 113292.366 -119109.275 113325.699 -119209.275 113325.699 -119275.941 113292.366 -119375.941 113259.033 -119409.275 113025.699 -119409.275 113025.699 -119275.941 M 113325.699 -119709.275 112625.699 -119709.275 113325.699 -120109.275 112625.699 -120109.275 M 113325.699 -120442.608 112625.699 -120442.608 112625.699 -120609.275 112659.033 -120709.275 112725.699 -120775.941 112792.366 -120809.275 112925.699 -120842.608 113025.699 -120842.608 113159.033 -120809.275 113225.699 -120775.941 113292.366 -120709.275 113325.699 -120609.275 113325.699 -120442.608 M 95044.866 -121059.441 94344.866 -120826.108 95044.866 -120592.775 M 94344.866 -120259.441 94378.199 -120326.108 94411.533 -120359.441 94478.199 -120392.775 94678.199 -120392.775 94744.866 -120359.441 94778.199 -120326.108 94811.533 -120259.441 94811.533 -120159.441 94778.199 -120092.775 94744.866 -120059.441 94678.199 -120026.108 94478.199 -120026.108 94411.533 -120059.441 94378.199 -120092.775 94344.866 -120159.441 94344.866 -120259.441 M 94811.533 -119426.108 94344.866 -119426.108 M 94811.533 -119726.108 94444.866 -119726.108 94378.199 -119692.775 94344.866 -119626.108 94344.866 -119526.108 94378.199 -119459.441 94411.533 -119426.108 M 94811.533 -119192.775 94811.533 -118926.108 M 95044.866 -119092.775 94444.866 -119092.775 94378.199 -119059.441 94344.866 -118992.775 94344.866 -118926.108 M 94294.866 -117826.108 94628.199 -118059.441 M 94294.866 -118226.108 94994.866 -118226.108 94994.866 -117959.441 94961.533 -117892.775 94928.199 -117859.441 94861.533 -117826.108 94761.533 -117826.108 94694.866 -117859.441 94661.533 -117892.775 94628.199 -117959.441 94628.199 -118226.108 M 94328.199 -117559.441 94294.866 -117459.441 94294.866 -117292.775 94328.199 -117226.108 94361.533 -117192.775 94428.199 -117159.441 94494.866 -117159.441 94561.533 -117192.775 94594.866 -117226.108 94628.199 -117292.775 94661.533 -117426.108 94694.866 -117492.775 94728.199 -117526.108 94794.866 -117559.441 94861.533 -117559.441 94928.199 -117526.108 94961.533 -117492.775 94994.866 -117426.108 94994.866 -117259.441 94961.533 -117159.441 M 94994.866 -116959.441 94994.866 -116559.441 M 94294.866 -116759.441 94994.866 -116759.441 M 94921.533 -115366.108 94954.866 -115432.775 94954.866 -115532.775 94921.533 -115632.775 94854.866 -115699.441 94788.199 -115732.775 94654.866 -115766.108 94554.866 -115766.108 94421.533 -115732.775 94354.866 -115699.441 94288.199 -115632.775 94254.866 -115532.775 94254.866 -115466.108 94288.199 -115366.108 94321.533 -115332.775 94554.866 -115332.775 94554.866 -115466.108 M 94254.866 -115032.775 94954.866 -115032.775 94254.866 -114632.775 94954.866 -114632.775 M 94254.866 -114299.441 94954.866 -114299.441 94954.866 -114132.775 94921.533 -114032.775 94854.866 -113966.108 94788.199 -113932.775 94654.866 -113899.441 94554.866 -113899.441 94421.533 -113932.775 94354.866 -113966.108 94288.199 -114032.775 94254.866 -114132.775 94254.866 -114299.441 M 94274.866 -112796.108 94608.199 -113029.441 M 94274.866 -113196.108 94974.866 -113196.108 94974.866 -112929.441 94941.533 -112862.775 94908.199 -112829.441 94841.533 -112796.108 94741.533 -112796.108 94674.866 -112829.441 94641.533 -112862.775 94608.199 -112929.441 94608.199 -113196.108 M 94474.866 -112529.441 94474.866 -112196.108 M 94274.866 -112596.108 94974.866 -112362.775 94274.866 -112129.441 M 94974.866 -111962.775 94274.866 -111796.108 94774.866 -111662.775 94274.866 -111529.441 94974.866 -111362.775" fill="none" stroke-width="150"/></g><g id="jS_V8BuIu5BZxILdYopF_bottom_copper"><use xlink:href="#t39ZlLSLYxz9zUiEWcIA_pad-10" x="107842.533" y="-128354.775"/><use xlink:href="#t39ZlLSLYxz9zUiEWcIA_pad-11" x="97682.533" y="-126322.775"/><use xlink:href="#t39ZlLSLYxz9zUiEWcIA_pad-11" x="97682.533" y="-127592.775"/><use xlink:href="#t39ZlLSLYxz9zUiEWcIA_pad-11" x="97682.533" y="-128862.775"/><use xlink:href="#t39ZlLSLYxz9zUiEWcIA_pad-11" x="97682.533" y="-130132.775"/><use xlink:href="#t39ZlLSLYxz9zUiEWcIA_pad-11" x="97682.533" y="-131402.775"/><use xlink:href="#t39ZlLSLYxz9zUiEWcIA_pad-11" x="97682.533" y="-132672.775"/><use xlink:href="#t39ZlLSLYxz9zUiEWcIA_pad-11" x="97682.533" y="-133942.775"/><use xlink:href="#t39ZlLSLYxz9zUiEWcIA_pad-11" x="97682.533" y="-135212.775"/><use xlink:href="#t39ZlLSLYxz9zUiEWcIA_pad-11" x="97682.533" y="-136482.775"/><use xlink:href="#t39ZlLSLYxz9zUiEWcIA_pad-11" x="97682.533" y="-137752.775"/><use xlink:href="#t39ZlLSLYxz9zUiEWcIA_pad-11" x="109920.533" y="-130132.775"/><use xlink:href="#t39ZlLSLYxz9zUiEWcIA_pad-11" x="109920.533" y="-137752.775"/><use xlink:href="#t39ZlLSLYxz9zUiEWcIA_pad-11" x="109920.533" y="-131402.775"/><use xlink:href="#t39ZlLSLYxz9zUiEWcIA_pad-11" x="109920.533" y="-136482.775"/><use xlink:href="#t39ZlLSLYxz9zUiEWcIA_pad-11" x="109920.533" y="-135212.775"/><use xlink:href="#t39ZlLSLYxz9zUiEWcIA_pad-11" x="109920.533" y="-133942.775"/><use xlink:href="#t39ZlLSLYxz9zUiEWcIA_pad-11" x="109920.533" y="-128862.775"/><use xlink:href="#t39ZlLSLYxz9zUiEWcIA_pad-11" x="109920.533" y="-132672.775"/><use xlink:href="#t39ZlLSLYxz9zUiEWcIA_pad-11" x="109920.533" y="-127592.775"/><use xlink:href="#t39ZlLSLYxz9zUiEWcIA_pad-11" x="109920.533" y="-126322.775"/><use xlink:href="#t39ZlLSLYxz9zUiEWcIA_pad-12" x="106951.533" y="-124103.775"/><use xlink:href="#t39ZlLSLYxz9zUiEWcIA_pad-12" x="99331.533" y="-124103.775"/><use xlink:href="#t39ZlLSLYxz9zUiEWcIA_pad-12" x="105681.533" y="-124103.775"/><use xlink:href="#t39ZlLSLYxz9zUiEWcIA_pad-12" x="100601.533" y="-124103.775"/><use xlink:href="#t39ZlLSLYxz9zUiEWcIA_pad-12" x="101871.533" y="-124103.775"/><use xlink:href="#t39ZlLSLYxz9zUiEWcIA_pad-12" x="103141.533" y="-124103.775"/><use xlink:href="#t39ZlLSLYxz9zUiEWcIA_pad-12" x="108221.533" y="-124103.775"/><use xlink:href="#t39ZlLSLYxz9zUiEWcIA_pad-12" x="104411.533" y="-124103.775"/><use xlink:href="#t39ZlLSLYxz9zUiEWcIA_pad-10" x="107842.533" y="-129624.775"/><use xlink:href="#t39ZlLSLYxz9zUiEWcIA_pad-10" x="107842.533" y="-130894.775"/><use xlink:href="#t39ZlLSLYxz9zUiEWcIA_pad-10" x="107842.533" y="-132164.775"/><use xlink:href="#t39ZlLSLYxz9zUiEWcIA_pad-10" x="107842.533" y="-133434.775"/><use xlink:href="#t39ZlLSLYxz9zUiEWcIA_pad-10" x="107842.533" y="-134704.775"/><use xlink:href="#t39ZlLSLYxz9zUiEWcIA_pad-10" x="107842.533" y="-135974.775"/><use xlink:href="#t39ZlLSLYxz9zUiEWcIA_pad-10" x="107842.533" y="-137244.775"/><use xlink:href="#t39ZlLSLYxz9zUiEWcIA_pad-13" x="101238.533" y="-125814.775"/><use xlink:href="#t39ZlLSLYxz9zUiEWcIA_pad-13" x="99968.533" y="-125814.775"/><use xlink:href="#t39ZlLSLYxz9zUiEWcIA_pad-13" x="105048.533" y="-125814.775"/><use xlink:href="#t39ZlLSLYxz9zUiEWcIA_pad-13" x="102508.533" y="-125814.775"/><use xlink:href="#t39ZlLSLYxz9zUiEWcIA_pad-13" x="106318.533" y="-125814.775"/><use xlink:href="#t39ZlLSLYxz9zUiEWcIA_pad-13" x="107588.533" y="-125814.775"/><use xlink:href="#t39ZlLSLYxz9zUiEWcIA_pad-13" x="103778.533" y="-125814.775"/><use xlink:href="#t39ZlLSLYxz9zUiEWcIA_pad-14" x="111421.533" y="-110574.775"/><use xlink:href="#t39ZlLSLYxz9zUiEWcIA_pad-15" x="111421.533" y="-112352.775"/><use xlink:href="#t39ZlLSLYxz9zUiEWcIA_pad-15" x="111421.533" y="-114892.775"/><use xlink:href="#t39ZlLSLYxz9zUiEWcIA_pad-15" x="111421.533" y="-117432.775"/><use xlink:href="#t39ZlLSLYxz9zUiEWcIA_pad-15" x="111421.533" y="-119972.775"/><use xlink:href="#t39ZlLSLYxz9zUiEWcIA_pad-15" x="111421.533" y="-122512.775"/><use xlink:href="#t39ZlLSLYxz9zUiEWcIA_pad-15" x="111421.533" y="-125052.775"/><use xlink:href="#t39ZlLSLYxz9zUiEWcIA_pad-15" x="111421.533" y="-127592.775"/><use xlink:href="#t39ZlLSLYxz9zUiEWcIA_pad-15" x="111421.533" y="-130132.775"/><use xlink:href="#t39ZlLSLYxz9zUiEWcIA_pad-15" x="111421.533" y="-132672.775"/><use xlink:href="#t39ZlLSLYxz9zUiEWcIA_pad-15" x="111421.533" y="-135212.775"/><use xlink:href="#t39ZlLSLYxz9zUiEWcIA_pad-15" x="111421.533" y="-137752.775"/><use xlink:href="#t39ZlLSLYxz9zUiEWcIA_pad-15" x="111421.533" y="-140292.775"/><use xlink:href="#t39ZlLSLYxz9zUiEWcIA_pad-15" x="96181.533" y="-140292.775"/><use xlink:href="#t39ZlLSLYxz9zUiEWcIA_pad-15" x="96181.533" y="-137752.775"/><use xlink:href="#t39ZlLSLYxz9zUiEWcIA_pad-15" x="96181.533" y="-135212.775"/><use xlink:href="#t39ZlLSLYxz9zUiEWcIA_pad-15" x="96181.533" y="-132672.775"/><use xlink:href="#t39ZlLSLYxz9zUiEWcIA_pad-15" x="96181.533" y="-130132.775"/><use xlink:href="#t39ZlLSLYxz9zUiEWcIA_pad-15" x="96181.533" y="-127592.775"/><use xlink:href="#t39ZlLSLYxz9zUiEWcIA_pad-15" x="96181.533" y="-125052.775"/><use xlink:href="#t39ZlLSLYxz9zUiEWcIA_pad-15" x="96181.533" y="-122512.775"/><use xlink:href="#t39ZlLSLYxz9zUiEWcIA_pad-15" x="96181.533" y="-119972.775"/><use xlink:href="#t39ZlLSLYxz9zUiEWcIA_pad-15" x="96181.533" y="-117432.775"/><use xlink:href="#t39ZlLSLYxz9zUiEWcIA_pad-15" x="96181.533" y="-114892.775"/><use xlink:href="#t39ZlLSLYxz9zUiEWcIA_pad-16" x="96181.533" y="-112352.775"/><use xlink:href="#t39ZlLSLYxz9zUiEWcIA_pad-17" x="112945.533" y="-133942.775"/><path d="M 112945.533 -134720.592 112167.716 -133942.775 112945.533 -133164.958 113723.35 -133942.775 112945.533 -134720.592 112945.533 -134720.592"/><use xlink:href="#t39ZlLSLYxz9zUiEWcIA_pad-17" x="112945.533" y="-136482.775"/><path d="M 112945.533 -137260.592 112167.716 -136482.775 112945.533 -135704.958 113723.35 -136482.775 112945.533 -137260.592 112945.533 -137260.592"/><use xlink:href="#t39ZlLSLYxz9zUiEWcIA_pad-17" x="112945.533" y="-128862.775"/><path d="M 112945.533 -129640.592 112167.716 -128862.775 112945.533 -128084.958 113723.35 -128862.775 112945.533 -129640.592 112945.533 -129640.592"/><use xlink:href="#t39ZlLSLYxz9zUiEWcIA_pad-17" x="112945.533" y="-131402.775"/><path d="M 112945.533 -132180.592 112167.716 -131402.775 112945.533 -130624.958 113723.35 -131402.775 112945.533 -132180.592 112945.533 -132180.592"/><use xlink:href="#t39ZlLSLYxz9zUiEWcIA_pad-19" x="108121.533" y="-112162.775"/><use xlink:href="#t39ZlLSLYxz9zUiEWcIA_pad-19" x="99481.533" y="-112162.775"/><use xlink:href="#t39ZlLSLYxz9zUiEWcIA_pad-20" x="108121.533" y="-116342.775"/><use xlink:href="#t39ZlLSLYxz9zUiEWcIA_pad-20" x="99481.533" y="-116342.775"/><use xlink:href="#t39ZlLSLYxz9zUiEWcIA_pad-21" x="103551.533" y="-117257.775"/><use xlink:href="#t39ZlLSLYxz9zUiEWcIA_pad-21" x="104051.533" y="-117257.775"/><use xlink:href="#t39ZlLSLYxz9zUiEWcIA_pad-21" x="104551.533" y="-117257.775"/><use xlink:href="#t39ZlLSLYxz9zUiEWcIA_pad-21" x="103051.533" y="-117257.775"/><use xlink:href="#t39ZlLSLYxz9zUiEWcIA_pad-21" x="105051.533" y="-117257.775"/><use xlink:href="#t39ZlLSLYxz9zUiEWcIA_pad-21" x="102551.533" y="-117257.775"/><use xlink:href="#t39ZlLSLYxz9zUiEWcIA_pad-21" x="105551.533" y="-117257.775"/><use xlink:href="#t39ZlLSLYxz9zUiEWcIA_pad-21" x="102051.533" y="-117257.775"/><use xlink:href="#t39ZlLSLYxz9zUiEWcIA_pad-22" x="101351.533" y="-117257.775"/><use xlink:href="#t39ZlLSLYxz9zUiEWcIA_pad-22" x="106251.533" y="-117257.775"/><use xlink:href="#t39ZlLSLYxz9zUiEWcIA_pad-22" x="100576.533" y="-117257.775"/><use xlink:href="#t39ZlLSLYxz9zUiEWcIA_pad-22" x="107026.533" y="-117257.775"/><use xlink:href="#t39ZlLSLYxz9zUiEWcIA_pad-23" x="97832.533" y="-112352.775"/><use xlink:href="#t39ZlLSLYxz9zUiEWcIA_pad-24" x="97832.533" y="-114892.775"/><use xlink:href="#t39ZlLSLYxz9zUiEWcIA_pad-25" x="105706.533" y="-123147.775"/><use xlink:href="#t39ZlLSLYxz9zUiEWcIA_pad-25" x="102023.533" y="-132037.775"/><use xlink:href="#t39ZlLSLYxz9zUiEWcIA_pad-25" x="109743.368" y="-123578.871"/><use xlink:href="#t39ZlLSLYxz9zUiEWcIA_pad-25" x="106595.533" y="-112479.775"/><use xlink:href="#t39ZlLSLYxz9zUiEWcIA_pad-25" x="101490.033" y="-112479.775"/><use xlink:href="#t39ZlLSLYxz9zUiEWcIA_pad-25" x="98861.537" y="-132362.771"/><use xlink:href="#t39ZlLSLYxz9zUiEWcIA_pad-25" x="102161.533" y="-128462.775"/><use xlink:href="#t39ZlLSLYxz9zUiEWcIA_pad-25" x="98861.537" y="-119062.775"/><use xlink:href="#t39ZlLSLYxz9zUiEWcIA_pad-25" x="99061.533" y="-122262.769"/><use xlink:href="#t39ZlLSLYxz9zUiEWcIA_pad-25" x="107103.533" y="-123147.775"/><use xlink:href="#t39ZlLSLYxz9zUiEWcIA_pad-25" x="104436.533" y="-123274.775"/><use xlink:href="#t39ZlLSLYxz9zUiEWcIA_pad-25" x="94995.261" y="-110785.503"/><use xlink:href="#t39ZlLSLYxz9zUiEWcIA_pad-25" x="110481.733" y="-113622.775"/><use xlink:href="#t39ZlLSLYxz9zUiEWcIA_pad-25" x="110380.133" y="-111489.175"/><use xlink:href="#t39ZlLSLYxz9zUiEWcIA_pad-25" x="110061.533" y="-125362.775"/><use xlink:href="#t39ZlLSLYxz9zUiEWcIA_pad-25" x="98682.535" y="-128735.775"/><use xlink:href="#t39ZlLSLYxz9zUiEWcIA_pad-25" x="101571.523" y="-119337.775"/><use xlink:href="#t39ZlLSLYxz9zUiEWcIA_pad-25" x="102661.533" y="-130562.775"/><use xlink:href="#t39ZlLSLYxz9zUiEWcIA_pad-25" x="105361.533" y="-127062.775"/><use xlink:href="#t39ZlLSLYxz9zUiEWcIA_pad-25" x="106469.43" y="-132693.794"/><use xlink:href="#t39ZlLSLYxz9zUiEWcIA_pad-25" x="99861.533" y="-122362.773"/><use xlink:href="#t39ZlLSLYxz9zUiEWcIA_pad-25" x="108455.43" y="-123280.958"/><use xlink:href="#t39ZlLSLYxz9zUiEWcIA_pad-25" x="103081.533" y="-115602.775"/><use xlink:href="#t39ZlLSLYxz9zUiEWcIA_pad-25" x="104381.545" y="-115672.783"/><use xlink:href="#t39ZlLSLYxz9zUiEWcIA_pad-25" x="104631.709" y="-131761.48"/><use xlink:href="#t39ZlLSLYxz9zUiEWcIA_pad-25" x="105961.533" y="-130462.775"/><use xlink:href="#t39ZlLSLYxz9zUiEWcIA_pad-25" x="104690.533" y="-137600.375"/><use xlink:href="#t39ZlLSLYxz9zUiEWcIA_pad-25" x="98467.533" y="-138768.775"/><use xlink:href="#t39ZlLSLYxz9zUiEWcIA_pad-25" x="102515.379" y="-113914.609"/><use xlink:href="#t39ZlLSLYxz9zUiEWcIA_pad-25" x="105466.522" y="-113892.754"/><use xlink:href="#t39ZlLSLYxz9zUiEWcIA_pad-25" x="102658.535" y="-120861.775"/><path d="M 105681.533 -124103.775 105681.533 -123172.775 105706.533 -123147.775 M 109712.835 -119972.775 110523.508 -119972.775 M 108061.835 -121623.775 109712.835 -119972.775 M 105706.533 -123147.775 107230.533 -121623.775 M 108113.533 -125814.775 109743.368 -124184.94 109743.368 -124003.135 M 107588.533 -125814.775 108113.533 -125814.775 M 109743.368 -124003.135 109743.368 -123578.871 M 110167.632 -123578.871 109743.368 -123578.871 M 111331.431 -123578.871 110167.632 -123578.871 M 112945.533 -130196.275 111802.533 -129053.275 111802.533 -128595.577 112356.534 -128041.576 112356.534 -124603.974 M 112945.533 -131402.775 112945.533 -130196.275 M 112356.534 -124603.974 111331.431 -123578.871 M 107230.533 -121623.775 107357.533 -121623.775 108061.835 -121623.775 M 110523.508 -119972.775 111421.533 -119972.775 M 109066.533 -119972.775 110523.508 -119972.775 M 107026.533 -117932.775 109066.533 -119972.775 M 107026.533 -117507.775 107026.533 -117932.775 M 107321.523 -117212.785 107026.533 -117507.775 M 107321.523 -114039.785 107321.523 -117212.785 M 107294.033 -114067.275 107321.523 -114039.785 M 102277.533 -112606.775 105833.533 -112606.775 M 101496.523 -113387.785 102277.533 -112606.775 M 96181.533 -110574.775 96054.533 -110574.775 M 106595.533 -112904.039 106595.533 -113368.775 M 106595.533 -112479.775 106595.533 -112904.039 M 105833.533 -112606.775 106595.533 -113368.775 107294.033 -114067.275 M 101496.523 -112486.265 101490.033 -112479.775 M 101496.523 -113387.785 101496.523 -112486.265 M 109771.529 -115782.771 109771.529 -111590.775 M 111421.533 -117432.775 109771.529 -115782.771 M 110714.427 -110574.775 111421.533 -110574.775 M 109872.133 -110574.775 110714.427 -110574.775 M 109770.533 -110676.375 109872.133 -110574.775 M 109771.529 -111590.775 109770.533 -111589.779 109770.533 -110676.375 M 109618.133 -110574.775 96054.533 -110574.775 M 109771.529 -111590.775 109771.529 -110728.171 109618.133 -110574.775 M 95184.544 -113895.786 95546.534 -114257.776 96181.533 -114892.775 M 95184.544 -111444.764 95184.544 -113895.786 M 96054.533 -110574.775 95184.544 -111444.764 M 98561.538 -132662.77 98861.537 -132362.771 M 99186.533 -132037.775 99161.536 -132062.772 98861.537 -132362.771 M 102023.533 -132037.775 99186.533 -132037.775 M 98551.533 -132672.775 98561.538 -132662.77 M 97682.533 -132672.775 98551.533 -132672.775 M 102023.533 -132037.775 102023.533 -128600.775 102161.533 -128462.775 M 96181.533 -114892.775 98861.537 -117572.779 M 98861.537 -118638.511 98861.537 -119062.775 M 98861.537 -117572.779 98861.537 -118638.511 M 100261.533 -117662.779 99161.536 -118762.776 M 100261.533 -114622.775 100261.533 -115441.391 M 101496.523 -113387.785 100261.533 -114622.775 M 100261.533 -115441.391 100281.543 -115461.401 M 99161.536 -118762.776 98861.537 -119062.775 M 100281.543 -115461.401 100281.543 -117224.149 100261.533 -117244.159 100261.533 -117662.779 M 108754.533 -132473.773 109200.53 -132027.776 M 102023.533 -132037.775 103279.622 -133293.864 M 107222.144 -132799.775 108754.533 -132799.775 M 106728.055 -133293.864 107222.144 -132799.775 M 103279.622 -133293.864 106728.055 -133293.864 M 111285.535 -131402.775 112138.426 -131402.775 112945.533 -131402.775 M 109200.53 -132027.776 110660.534 -132027.776 111285.535 -131402.775 M 108754.533 -132799.775 108754.533 -132473.773 M 99061.533 -122687.033 99061.533 -122262.769 M 99331.533 -122957.033 99061.533 -122687.033 M 99331.533 -124103.775 99331.533 -122957.033 M 106951.533 -124278.775 106951.533 -124103.775 M 106326.532 -124903.776 106951.533 -124278.775 M 105036.534 -124903.776 106326.532 -124903.776 M 104411.533 -124278.775 105036.534 -124903.776 M 104411.533 -124103.775 104411.533 -124278.775 M 106951.533 -124103.775 106951.533 -123299.775 107103.533 -123147.775 M 104411.533 -123299.775 104436.533 -123274.775 M 104411.533 -124103.775 104411.533 -123299.775 M 112945.533 -128055.668 112945.533 -128862.775 M 112843.933 -127954.068 112945.533 -128055.668 M 112843.933 -122551.373 112843.933 -127954.068 M 112597.834 -122305.274 112843.933 -122551.373 M 107103.533 -123147.775 108754.533 -121496.775 M 110696.607 -121496.775 110856.908 -121336.474 111986.158 -121336.474 M 108754.533 -121496.775 110696.607 -121496.775 M 111986.158 -121336.474 112597.834 -121948.15 112597.834 -122305.274 M 111294.533 -136482.775 112945.533 -136482.775 M 108881.533 -134281.775 108881.533 -136808.777 109180.532 -137107.776 M 109220.533 -133942.775 108881.533 -134281.775 M 109180.532 -137107.776 110669.532 -137107.776 111294.533 -136482.775 M 109920.533 -133942.775 109220.533 -133942.775 M 110481.733 -111590.775 110380.133 -111489.175 M 110481.733 -113622.775 110481.733 -111590.775 M 94784.533 -110996.231 94995.261 -110785.503 M 96181.533 -117432.775 94784.533 -116035.775 94784.533 -110996.231 M 109920.533 -126322.775 109920.533 -125503.775 110061.533 -125362.775 M 111422 -112353 111422 -112079.8 M 96181.533 -130132.775 97682.533 -130132.775 M 97451.533 -128862.775 97682.533 -128862.775 M 96181.533 -127592.775 97451.533 -128862.775 M 95013.133 -123681.175 96181.533 -122512.775 M 95013.133 -125789.375 95013.133 -123681.175 M 97682.533 -126322.775 95546.533 -126322.775 95013.133 -125789.375 M 97682.533 -127592.775 98682.535 -128592.777 98682.535 -128735.775 M 109920.533 -137752.775 111421.533 -137752.775 M 111365.533 -135212.775 111421.533 -135212.775 M 110095.533 -136482.775 111365.533 -135212.775 M 109920.533 -136482.775 110095.533 -136482.775 M 112138.426 -133942.775 112945.533 -133942.775 M 111365.533 -133942.775 112138.426 -133942.775 M 109920.533 -135212.775 110095.533 -135212.775 111365.533 -133942.775 M 101571.523 -118913.511 101571.523 -119337.775 M 101915.378 -113635.332 101915.378 -116018.93 M 101571.523 -116362.785 101571.523 -118913.511 M 102435.935 -113114.775 101915.378 -113635.332 M 106066.532 -116397.774 106066.532 -113601.774 M 106251.533 -117507.775 106251.533 -116582.775 M 105579.533 -113114.775 102435.935 -113114.775 M 106251.533 -116582.775 106066.532 -116397.774 M 106066.532 -113601.774 105579.533 -113114.775 M 101915.378 -116018.93 101571.523 -116362.785 M 101351.533 -116582.775 101571.523 -116362.785 M 101351.533 -117257.775 101351.533 -116582.775 M 105661.532 -127362.774 105361.533 -127062.775 M 105891.533 -127592.775 105661.532 -127362.774 M 109920.533 -127592.775 105891.533 -127592.775 M 104368.288 -132693.794 106045.166 -132693.794 M 102661.533 -130987.039 104368.288 -132693.794 M 102661.533 -130562.775 102661.533 -130987.039 M 106045.166 -132693.794 106469.43 -132693.794 M 100601.533 -124103.775 100601.533 -123102.773 100161.532 -122662.772 99861.533 -122362.773 M 108344.35 -123280.958 108455.43 -123280.958 M 108221.533 -124103.775 108221.533 -123403.775 108344.35 -123280.958 M 103551.533 -118432.775 103551.533 -117507.775 M 103551.533 -122254.775 103551.533 -118432.775 M 102516.532 -123289.776 103551.533 -122254.775 M 102747.532 -125014.774 102516.532 -124783.774 M 103073.534 -125014.774 102747.532 -125014.774 M 102516.532 -124783.774 102516.532 -123289.776 M 103133.534 -125074.774 103073.534 -125014.774 M 103133.534 -127053.186 103133.534 -125074.774 M 109220.533 -130132.775 109103.532 -130249.776 M 109920.533 -130132.775 109220.533 -130132.775 M 109103.532 -130249.776 106839.534 -130249.776 106029.543 -129439.785 105520.133 -129439.785 103133.534 -127053.186 M 105041.535 -115962.778 104551.533 -116452.78 M 103731.535 -115350.769 104059.531 -115022.773 104703.535 -115022.773 105041.535 -115360.773 M 103731.535 -115914.777 103731.535 -115350.769 M 104551.533 -116452.78 104551.533 -117257.775 M 103551.533 -116094.779 103731.535 -115914.777 M 103551.533 -117257.775 103551.533 -116094.779 M 105041.535 -115360.773 105041.535 -115962.778 M 109103.532 -128979.776 109220.533 -128862.775 109920.533 -128862.775 M 105706.533 -128979.776 109103.532 -128979.776 M 105706.533 -128989.775 105706.533 -128979.776 M 104423.532 -125094.772 104423.532 -127696.775 M 104343.534 -125014.774 104423.532 -125094.772 M 103957.53 -125014.774 104343.534 -125014.774 M 103766.534 -123056.772 103766.534 -124823.778 103957.53 -125014.774 M 104040.531 -118771.773 104040.531 -122782.775 M 104051.533 -118760.771 104040.531 -118771.773 M 104040.531 -122782.775 103766.534 -123056.772 M 104423.532 -127696.775 105706.533 -128979.776 M 104051.533 -117507.775 104051.533 -118760.771 M 103051.533 -117257.775 103051.533 -116261.189 M 103051.533 -115632.775 103081.533 -115602.775 M 103051.533 -116261.189 103051.533 -115632.775 M 104051.533 -117257.775 104051.533 -116231.19 M 104381.545 -115901.178 104381.545 -115672.783 M 104051.533 -116231.19 104381.545 -115901.178 M 96385.6 -132469.4 96182 -132673 M 97451.533 -131402.775 97682.533 -131402.775 M 96181.533 -132672.775 97451.533 -131402.775 M 97682.533 -138791.775 96181.533 -140292.775 M 97682.533 -137752.775 97682.533 -138791.775 M 110786.534 -139657.776 111421.533 -140292.775 M 110430.534 -139657.776 110786.534 -139657.776 M 108017.533 -137244.775 110430.534 -139657.776 M 107842.533 -137244.775 108017.533 -137244.775 M 97079.558 -125052.775 96181.533 -125052.775 M 98681.533 -125052.775 97079.558 -125052.775 M 99443.533 -125814.775 98681.533 -125052.775 M 99968.533 -125814.775 99443.533 -125814.775 M 110786.534 -130767.774 111421.533 -130132.775 M 110151.533 -131402.775 110786.534 -130767.774 M 109920.533 -131402.775 110151.533 -131402.775 M 104631.709 -131761.48 105930.414 -130462.775 105961.533 -130462.775 M 104771.933 -137600.375 104690.533 -137600.375 M 107842.533 -134704.775 107667.533 -134704.775 104771.933 -137600.375 M 111422 -132075 111422 -132673 M 109920.533 -132672.775 111421.533 -132672.775 M 98482.534 -138753.774 98467.533 -138768.775 M 98482.534 -137107.776 98482.534 -138753.774 M 97682.533 -136482.775 97857.533 -136482.775 98482.534 -137107.776 M 96182 -134615 96182 -135213 M 96181.533 -135212.775 97682.533 -135212.775 M 98412.535 -135847.775 96952.531 -135847.775 M 96181.533 -136854.75 96181.533 -137752.775 M 98482.534 -135777.776 98412.535 -135847.775 M 96181.533 -136618.773 96181.533 -136854.75 M 98482.534 -134742.776 98482.534 -135777.776 M 97682.533 -133942.775 98482.534 -134742.776 M 96952.531 -135847.775 96181.533 -136618.773 M 99481.533 -115342.775 99481.533 -112412.775 M 99481.533 -116592.775 99481.533 -115342.775 M 100181.533 -112412.775 99481.533 -112412.775 M 101181.533 -111412.775 100181.533 -112412.775 M 106421.533 -111412.775 101181.533 -111412.775 M 107421.533 -112412.775 106421.533 -111412.775 M 108121.533 -112412.775 107421.533 -112412.775 M 108121.533 -113412.775 108121.533 -116592.775 M 108121.533 -112412.775 108121.533 -113412.775 M 102515.379 -114338.873 102515.379 -113914.609 M 102551.533 -117507.775 102515.379 -117471.621 M 102551.533 -117257.775 102551.533 -116062.775 M 102515.379 -115280.927 102515.379 -114338.873 M 102481.532 -115314.774 102515.379 -115280.927 M 102481.532 -115992.774 102481.532 -115314.774 M 102551.533 -116062.775 102481.532 -115992.774 M 105551.533 -114402.029 105466.522 -114317.018 105466.522 -113892.754 M 105551.533 -117507.775 105551.533 -114402.029 M 96182 -119973 96516 -119639 M 97070.533 -120861.775 102234.271 -120861.775 M 96181.533 -119972.775 97070.533 -120861.775 M 102234.271 -120861.775 102658.535 -120861.775" fill="none" stroke-width="200"/></g><g id="jS_V8BuIu5BZxILdYopF_bottom_drill1" transform="scale(25.4,25.4)"><use xlink:href="#LRVdfwoKR-uHEOwXr68m_pad-1" x="3972.9" y="-4559.6"/><use xlink:href="#LRVdfwoKR-uHEOwXr68m_pad-1" x="4200.5" y="-4559.6"/></g><g id="jS_V8BuIu5BZxILdYopF_bottom_drill2" transform="scale(25.4,25.4)"><use xlink:href="#e7hGI0dGywVQhX84M4U9_pad-1" x="3740" y="-4361.6"/><use xlink:href="#e7hGI0dGywVQhX84M4U9_pad-1" x="3876.7" y="-5463.3"/><use xlink:href="#e7hGI0dGywVQhX84M4U9_pad-1" x="3885.1" y="-5068.3"/><use xlink:href="#e7hGI0dGywVQhX84M4U9_pad-1" x="3892.2" y="-4687.5"/><use xlink:href="#e7hGI0dGywVQhX84M4U9_pad-1" x="3892.2" y="-5211.1"/><use xlink:href="#e7hGI0dGywVQhX84M4U9_pad-1" x="3900.1" y="-4813.5"/><use xlink:href="#e7hGI0dGywVQhX84M4U9_pad-1" x="3931.6" y="-4817.4"/><use xlink:href="#e7hGI0dGywVQhX84M4U9_pad-1" x="3995.7" y="-4428.3"/><use xlink:href="#e7hGI0dGywVQhX84M4U9_pad-1" x="3998.9" y="-4698.3"/><use xlink:href="#e7hGI0dGywVQhX84M4U9_pad-1" x="4016.7" y="-5198.3"/><use xlink:href="#e7hGI0dGywVQhX84M4U9_pad-1" x="4022.1" y="-5057.6"/><use xlink:href="#e7hGI0dGywVQhX84M4U9_pad-1" x="4036" y="-4484.8"/><use xlink:href="#e7hGI0dGywVQhX84M4U9_pad-1" x="4041.7" y="-4758.3"/><use xlink:href="#e7hGI0dGywVQhX84M4U9_pad-1" x="4041.8" y="-5140.3"/><use xlink:href="#e7hGI0dGywVQhX84M4U9_pad-1" x="4058.3" y="-4551.3"/><use xlink:href="#e7hGI0dGywVQhX84M4U9_pad-1" x="4109.5" y="-4554"/><use xlink:href="#e7hGI0dGywVQhX84M4U9_pad-1" x="4111.7" y="-4853.3"/><use xlink:href="#e7hGI0dGywVQhX84M4U9_pad-1" x="4119.4" y="-5187.5"/><use xlink:href="#e7hGI0dGywVQhX84M4U9_pad-1" x="4121.7" y="-5417.3"/><use xlink:href="#e7hGI0dGywVQhX84M4U9_pad-1" x="4148.1" y="-5002.5"/><use xlink:href="#e7hGI0dGywVQhX84M4U9_pad-1" x="4152.2" y="-4484"/><use xlink:href="#e7hGI0dGywVQhX84M4U9_pad-1" x="4161.7" y="-4848.3"/><use xlink:href="#e7hGI0dGywVQhX84M4U9_pad-1" x="4171.7" y="-5136.3"/><use xlink:href="#e7hGI0dGywVQhX84M4U9_pad-1" x="4191.7" y="-5224.2"/><use xlink:href="#e7hGI0dGywVQhX84M4U9_pad-1" x="4196.7" y="-4428.3"/><use xlink:href="#e7hGI0dGywVQhX84M4U9_pad-1" x="4216.7" y="-4848.3"/><use xlink:href="#e7hGI0dGywVQhX84M4U9_pad-1" x="4269.9" y="-4853.6"/><use xlink:href="#e7hGI0dGywVQhX84M4U9_pad-1" x="4320.6" y="-4865.3"/><use xlink:href="#e7hGI0dGywVQhX84M4U9_pad-1" x="4333.1" y="-4935.5"/><use xlink:href="#e7hGI0dGywVQhX84M4U9_pad-1" x="4345.7" y="-4389.3"/><use xlink:href="#e7hGI0dGywVQhX84M4U9_pad-1" x="4349.7" y="-4473.3"/><use xlink:href="#e7hGI0dGywVQhX84M4U9_pad-2" x="3935.8" y="-4953.3"/><use xlink:href="#e7hGI0dGywVQhX84M4U9_pad-2" x="3985.8" y="-4953.3"/><use xlink:href="#e7hGI0dGywVQhX84M4U9_pad-2" x="4035.8" y="-4953.3"/><use xlink:href="#e7hGI0dGywVQhX84M4U9_pad-2" x="4085.8" y="-4953.3"/><use xlink:href="#e7hGI0dGywVQhX84M4U9_pad-2" x="4135.8" y="-4953.3"/><use xlink:href="#e7hGI0dGywVQhX84M4U9_pad-2" x="4185.8" y="-4953.3"/><use xlink:href="#e7hGI0dGywVQhX84M4U9_pad-2" x="4235.8" y="-4953.3"/><use xlink:href="#e7hGI0dGywVQhX84M4U9_pad-2" x="4245.8" y="-5053.3"/><use xlink:href="#e7hGI0dGywVQhX84M4U9_pad-2" x="4245.8" y="-5103.3"/><use xlink:href="#e7hGI0dGywVQhX84M4U9_pad-2" x="4245.8" y="-5153.3"/><use xlink:href="#e7hGI0dGywVQhX84M4U9_pad-2" x="4245.8" y="-5203.3"/><use xlink:href="#e7hGI0dGywVQhX84M4U9_pad-2" x="4245.8" y="-5253.3"/><use xlink:href="#e7hGI0dGywVQhX84M4U9_pad-2" x="4245.8" y="-5303.3"/><use xlink:href="#e7hGI0dGywVQhX84M4U9_pad-2" x="4245.8" y="-5353.3"/><use xlink:href="#e7hGI0dGywVQhX84M4U9_pad-2" x="4245.8" y="-5403.3"/><use xlink:href="#e7hGI0dGywVQhX84M4U9_pad-4" x="4446.7" y="-5173.3"/><use xlink:href="#e7hGI0dGywVQhX84M4U9_pad-4" x="4446.7" y="-5073.3"/><use xlink:href="#e7hGI0dGywVQhX84M4U9_pad-4" x="4446.7" y="-5273.3"/><use xlink:href="#e7hGI0dGywVQhX84M4U9_pad-4" x="4446.7" y="-5373.3"/><use xlink:href="#e7hGI0dGywVQhX84M4U9_pad-5" x="3786.7" y="-4423.3"/><use xlink:href="#e7hGI0dGywVQhX84M4U9_pad-5" x="3786.7" y="-4523.3"/><use xlink:href="#e7hGI0dGywVQhX84M4U9_pad-5" x="3786.7" y="-4623.3"/><use xlink:href="#e7hGI0dGywVQhX84M4U9_pad-5" x="3786.7" y="-4723.3"/><use xlink:href="#e7hGI0dGywVQhX84M4U9_pad-5" x="3786.7" y="-4823.3"/><use xlink:href="#e7hGI0dGywVQhX84M4U9_pad-5" x="3786.7" y="-4923.3"/><use xlink:href="#e7hGI0dGywVQhX84M4U9_pad-5" x="3786.7" y="-5023.3"/><use xlink:href="#e7hGI0dGywVQhX84M4U9_pad-5" x="3786.7" y="-5123.3"/><use xlink:href="#e7hGI0dGywVQhX84M4U9_pad-5" x="3786.7" y="-5223.3"/><use xlink:href="#e7hGI0dGywVQhX84M4U9_pad-5" x="3786.7" y="-5323.3"/><use xlink:href="#e7hGI0dGywVQhX84M4U9_pad-5" x="3786.7" y="-5423.3"/><use xlink:href="#e7hGI0dGywVQhX84M4U9_pad-5" x="3786.7" y="-5523.3"/><use xlink:href="#e7hGI0dGywVQhX84M4U9_pad-5" x="4386.7" y="-4423.3"/><use xlink:href="#e7hGI0dGywVQhX84M4U9_pad-5" x="4386.7" y="-4523.3"/><use xlink:href="#e7hGI0dGywVQhX84M4U9_pad-5" x="4386.7" y="-4623.3"/><use xlink:href="#e7hGI0dGywVQhX84M4U9_pad-5" x="4386.7" y="-4723.3"/><use xlink:href="#e7hGI0dGywVQhX84M4U9_pad-5" x="4386.7" y="-4823.3"/><use xlink:href="#e7hGI0dGywVQhX84M4U9_pad-5" x="4386.7" y="-4923.3"/><use xlink:href="#e7hGI0dGywVQhX84M4U9_pad-5" x="4386.7" y="-5023.3"/><use xlink:href="#e7hGI0dGywVQhX84M4U9_pad-5" x="4386.7" y="-5123.3"/><use xlink:href="#e7hGI0dGywVQhX84M4U9_pad-5" x="4386.7" y="-5223.3"/><use xlink:href="#e7hGI0dGywVQhX84M4U9_pad-5" x="4386.7" y="-5323.3"/><use xlink:href="#e7hGI0dGywVQhX84M4U9_pad-5" x="4386.7" y="-5423.3"/><use xlink:href="#e7hGI0dGywVQhX84M4U9_pad-5" x="4386.7" y="-5523.3"/><use xlink:href="#e7hGI0dGywVQhX84M4U9_pad-6" x="3851.7" y="-4423.3"/><use xlink:href="#e7hGI0dGywVQhX84M4U9_pad-6" x="3851.7" y="-4523.3"/><path d="M 3916.6 -4404 3916.6 -4427.7 M 3916.6 -4558.8 3916.6 -4602.1 M 4256.8 -4404 4256.8 -4427.7 M 4256.8 -4558.8 4256.8 -4602.1" fill="none" stroke-width="23.6"/></g><clipPath id="jS_V8BuIu5BZxILdYopF_bottom_outline"><path d="M 113961.533 -141562.775 93961.533 -141562.775 93961.533 -109562.775 113961.533 -109562.775 113961.533 -141562.775" fill="none" stroke-width="150"/></clipPath><mask id="jS_V8BuIu5BZxILdYopF_bottom_mech-mask"><g fill="#000" stroke="#000"><rect x="93961.533" y="-141562.775" width="20000" height="32000" fill="#fff"/><use xlink:href="#jS_V8BuIu5BZxILdYopF_bottom_drill1"/><use xlink:href="#jS_V8BuIu5BZxILdYopF_bottom_drill2"/></g></mask><mask id="jS_V8BuIu5BZxILdYopF_bottom_cf-mask"><g fill="#fff" stroke="#fff"><use xlink:href="#jS_V8BuIu5BZxILdYopF_bottom_soldermask"/></g></mask><mask id="jS_V8BuIu5BZxILdYopF_bottom_sm-mask"><g fill="#000" stroke="#000"><rect x="93961.533" y="-141562.775" width="20000" height="32000" fill="#fff"/><use xlink:href="#jS_V8BuIu5BZxILdYopF_bottom_soldermask"/></g></mask></defs><g transform="translate(0,-251125.55) scale(1,-1)"><g mask="url(#jS_V8BuIu5BZxILdYopF_bottom_mech-mask)" clip-path="url(#jS_V8BuIu5BZxILdYopF_bottom_outline)" transform="translate(207923.066,0) scale(-1,1)"><rect x="93961.533" y="-141562.775" width="20000" height="32000" fill="currentColor" class="jS_V8BuIu5BZxILdYopF_fr4"/><use xlink:href="#jS_V8BuIu5BZxILdYopF_bottom_copper" fill="currentColor" stroke="currentColor" class="jS_V8BuIu5BZxILdYopF_cu"/><use xlink:href="#jS_V8BuIu5BZxILdYopF_bottom_copper" fill="currentColor" stroke="currentColor" class="jS_V8BuIu5BZxILdYopF_cf" mask="url(#jS_V8BuIu5BZxILdYopF_bottom_cf-mask)"/><g mask="url(#jS_V8BuIu5BZxILdYopF_bottom_sm-mask)"><rect x="93961.533" y="-141562.775" width="20000" height="32000" fill="currentColor" class="jS_V8BuIu5BZxILdYopF_sm"/><use xlink:href="#jS_V8BuIu5BZxILdYopF_bottom_silkscreen" fill="currentColor" stroke="currentColor" class="jS_V8BuIu5BZxILdYopF_ss"/></g><use xlink:href="#jS_V8BuIu5BZxILdYopF_bottom_solderpaste" fill="currentColor" stroke="currentColor" class="jS_V8BuIu5BZxILdYopF_sp"/></g></g></svg>