G04 #@! TF.GenerationSoftware,KiCad,Pcbnew,(5.0.0)*
G04 #@! TF.CreationDate,2018-09-27T10:12:34-06:00*
G04 #@! TF.ProjectId,NRF52832 Base,4E5246353238333220426173652E6B69,rev?*
G04 #@! TF.SameCoordinates,Original*
G04 #@! TF.FileFunction,Soldermask,Top*
G04 #@! TF.FilePolarity,Negative*
%FSLAX46Y46*%
G04 Gerber Fmt 4.6, Leading zero omitted, Abs format (unit mm)*
G04 Created by KiCad (PCBNEW (5.0.0)) date 09/27/18 10:12:34*
%MOMM*%
%LPD*%
G01*
G04 APERTURE LIST*
%ADD10C,0.100000*%
%ADD11C,0.990000*%
%ADD12C,1.275000*%
%ADD13R,1.200000X1.300000*%
%ADD14R,2.200000X1.400000*%
%ADD15R,1.050000X0.600000*%
%ADD16R,0.600000X1.050000*%
%ADD17R,4.800000X4.800000*%
%ADD18R,0.900000X0.900000*%
%ADD19R,0.900000X1.300000*%
%ADD20R,2.152600X2.152600*%
%ADD21C,2.152600*%
%ADD22R,2.100000X2.100000*%
%ADD23O,2.100000X2.100000*%
%ADD24C,1.375000*%
%ADD25R,1.460000X1.050000*%
G04 APERTURE END LIST*
D10*
G04 #@! TO.C,C1*
G36*
X138668879Y-87413452D02*
X138692905Y-87417016D01*
X138716465Y-87422917D01*
X138739334Y-87431100D01*
X138761291Y-87441484D01*
X138782124Y-87453971D01*
X138801632Y-87468440D01*
X138819629Y-87484751D01*
X138835940Y-87502748D01*
X138850409Y-87522256D01*
X138862896Y-87543089D01*
X138873280Y-87565046D01*
X138881463Y-87587915D01*
X138887364Y-87611475D01*
X138890928Y-87635501D01*
X138892120Y-87659760D01*
X138892120Y-88204760D01*
X138890928Y-88229019D01*
X138887364Y-88253045D01*
X138881463Y-88276605D01*
X138873280Y-88299474D01*
X138862896Y-88321431D01*
X138850409Y-88342264D01*
X138835940Y-88361772D01*
X138819629Y-88379769D01*
X138801632Y-88396080D01*
X138782124Y-88410549D01*
X138761291Y-88423036D01*
X138739334Y-88433420D01*
X138716465Y-88441603D01*
X138692905Y-88447504D01*
X138668879Y-88451068D01*
X138644620Y-88452260D01*
X138149620Y-88452260D01*
X138125361Y-88451068D01*
X138101335Y-88447504D01*
X138077775Y-88441603D01*
X138054906Y-88433420D01*
X138032949Y-88423036D01*
X138012116Y-88410549D01*
X137992608Y-88396080D01*
X137974611Y-88379769D01*
X137958300Y-88361772D01*
X137943831Y-88342264D01*
X137931344Y-88321431D01*
X137920960Y-88299474D01*
X137912777Y-88276605D01*
X137906876Y-88253045D01*
X137903312Y-88229019D01*
X137902120Y-88204760D01*
X137902120Y-87659760D01*
X137903312Y-87635501D01*
X137906876Y-87611475D01*
X137912777Y-87587915D01*
X137920960Y-87565046D01*
X137931344Y-87543089D01*
X137943831Y-87522256D01*
X137958300Y-87502748D01*
X137974611Y-87484751D01*
X137992608Y-87468440D01*
X138012116Y-87453971D01*
X138032949Y-87441484D01*
X138054906Y-87431100D01*
X138077775Y-87422917D01*
X138101335Y-87417016D01*
X138125361Y-87413452D01*
X138149620Y-87412260D01*
X138644620Y-87412260D01*
X138668879Y-87413452D01*
X138668879Y-87413452D01*
G37*
D11*
X138397120Y-87932260D03*
D10*
G36*
X139638879Y-87413452D02*
X139662905Y-87417016D01*
X139686465Y-87422917D01*
X139709334Y-87431100D01*
X139731291Y-87441484D01*
X139752124Y-87453971D01*
X139771632Y-87468440D01*
X139789629Y-87484751D01*
X139805940Y-87502748D01*
X139820409Y-87522256D01*
X139832896Y-87543089D01*
X139843280Y-87565046D01*
X139851463Y-87587915D01*
X139857364Y-87611475D01*
X139860928Y-87635501D01*
X139862120Y-87659760D01*
X139862120Y-88204760D01*
X139860928Y-88229019D01*
X139857364Y-88253045D01*
X139851463Y-88276605D01*
X139843280Y-88299474D01*
X139832896Y-88321431D01*
X139820409Y-88342264D01*
X139805940Y-88361772D01*
X139789629Y-88379769D01*
X139771632Y-88396080D01*
X139752124Y-88410549D01*
X139731291Y-88423036D01*
X139709334Y-88433420D01*
X139686465Y-88441603D01*
X139662905Y-88447504D01*
X139638879Y-88451068D01*
X139614620Y-88452260D01*
X139119620Y-88452260D01*
X139095361Y-88451068D01*
X139071335Y-88447504D01*
X139047775Y-88441603D01*
X139024906Y-88433420D01*
X139002949Y-88423036D01*
X138982116Y-88410549D01*
X138962608Y-88396080D01*
X138944611Y-88379769D01*
X138928300Y-88361772D01*
X138913831Y-88342264D01*
X138901344Y-88321431D01*
X138890960Y-88299474D01*
X138882777Y-88276605D01*
X138876876Y-88253045D01*
X138873312Y-88229019D01*
X138872120Y-88204760D01*
X138872120Y-87659760D01*
X138873312Y-87635501D01*
X138876876Y-87611475D01*
X138882777Y-87587915D01*
X138890960Y-87565046D01*
X138901344Y-87543089D01*
X138913831Y-87522256D01*
X138928300Y-87502748D01*
X138944611Y-87484751D01*
X138962608Y-87468440D01*
X138982116Y-87453971D01*
X139002949Y-87441484D01*
X139024906Y-87431100D01*
X139047775Y-87422917D01*
X139071335Y-87417016D01*
X139095361Y-87413452D01*
X139119620Y-87412260D01*
X139614620Y-87412260D01*
X139638879Y-87413452D01*
X139638879Y-87413452D01*
G37*
D11*
X139367120Y-87932260D03*
G04 #@! TD*
D10*
G04 #@! TO.C,C2*
G36*
X137088459Y-84337252D02*
X137112485Y-84340816D01*
X137136045Y-84346717D01*
X137158914Y-84354900D01*
X137180871Y-84365284D01*
X137201704Y-84377771D01*
X137221212Y-84392240D01*
X137239209Y-84408551D01*
X137255520Y-84426548D01*
X137269989Y-84446056D01*
X137282476Y-84466889D01*
X137292860Y-84488846D01*
X137301043Y-84511715D01*
X137306944Y-84535275D01*
X137310508Y-84559301D01*
X137311700Y-84583560D01*
X137311700Y-85078560D01*
X137310508Y-85102819D01*
X137306944Y-85126845D01*
X137301043Y-85150405D01*
X137292860Y-85173274D01*
X137282476Y-85195231D01*
X137269989Y-85216064D01*
X137255520Y-85235572D01*
X137239209Y-85253569D01*
X137221212Y-85269880D01*
X137201704Y-85284349D01*
X137180871Y-85296836D01*
X137158914Y-85307220D01*
X137136045Y-85315403D01*
X137112485Y-85321304D01*
X137088459Y-85324868D01*
X137064200Y-85326060D01*
X136519200Y-85326060D01*
X136494941Y-85324868D01*
X136470915Y-85321304D01*
X136447355Y-85315403D01*
X136424486Y-85307220D01*
X136402529Y-85296836D01*
X136381696Y-85284349D01*
X136362188Y-85269880D01*
X136344191Y-85253569D01*
X136327880Y-85235572D01*
X136313411Y-85216064D01*
X136300924Y-85195231D01*
X136290540Y-85173274D01*
X136282357Y-85150405D01*
X136276456Y-85126845D01*
X136272892Y-85102819D01*
X136271700Y-85078560D01*
X136271700Y-84583560D01*
X136272892Y-84559301D01*
X136276456Y-84535275D01*
X136282357Y-84511715D01*
X136290540Y-84488846D01*
X136300924Y-84466889D01*
X136313411Y-84446056D01*
X136327880Y-84426548D01*
X136344191Y-84408551D01*
X136362188Y-84392240D01*
X136381696Y-84377771D01*
X136402529Y-84365284D01*
X136424486Y-84354900D01*
X136447355Y-84346717D01*
X136470915Y-84340816D01*
X136494941Y-84337252D01*
X136519200Y-84336060D01*
X137064200Y-84336060D01*
X137088459Y-84337252D01*
X137088459Y-84337252D01*
G37*
D11*
X136791700Y-84831060D03*
D10*
G36*
X137088459Y-85307252D02*
X137112485Y-85310816D01*
X137136045Y-85316717D01*
X137158914Y-85324900D01*
X137180871Y-85335284D01*
X137201704Y-85347771D01*
X137221212Y-85362240D01*
X137239209Y-85378551D01*
X137255520Y-85396548D01*
X137269989Y-85416056D01*
X137282476Y-85436889D01*
X137292860Y-85458846D01*
X137301043Y-85481715D01*
X137306944Y-85505275D01*
X137310508Y-85529301D01*
X137311700Y-85553560D01*
X137311700Y-86048560D01*
X137310508Y-86072819D01*
X137306944Y-86096845D01*
X137301043Y-86120405D01*
X137292860Y-86143274D01*
X137282476Y-86165231D01*
X137269989Y-86186064D01*
X137255520Y-86205572D01*
X137239209Y-86223569D01*
X137221212Y-86239880D01*
X137201704Y-86254349D01*
X137180871Y-86266836D01*
X137158914Y-86277220D01*
X137136045Y-86285403D01*
X137112485Y-86291304D01*
X137088459Y-86294868D01*
X137064200Y-86296060D01*
X136519200Y-86296060D01*
X136494941Y-86294868D01*
X136470915Y-86291304D01*
X136447355Y-86285403D01*
X136424486Y-86277220D01*
X136402529Y-86266836D01*
X136381696Y-86254349D01*
X136362188Y-86239880D01*
X136344191Y-86223569D01*
X136327880Y-86205572D01*
X136313411Y-86186064D01*
X136300924Y-86165231D01*
X136290540Y-86143274D01*
X136282357Y-86120405D01*
X136276456Y-86096845D01*
X136272892Y-86072819D01*
X136271700Y-86048560D01*
X136271700Y-85553560D01*
X136272892Y-85529301D01*
X136276456Y-85505275D01*
X136282357Y-85481715D01*
X136290540Y-85458846D01*
X136300924Y-85436889D01*
X136313411Y-85416056D01*
X136327880Y-85396548D01*
X136344191Y-85378551D01*
X136362188Y-85362240D01*
X136381696Y-85347771D01*
X136402529Y-85335284D01*
X136424486Y-85324900D01*
X136447355Y-85316717D01*
X136470915Y-85310816D01*
X136494941Y-85307252D01*
X136519200Y-85306060D01*
X137064200Y-85306060D01*
X137088459Y-85307252D01*
X137088459Y-85307252D01*
G37*
D11*
X136791700Y-85801060D03*
G04 #@! TD*
D10*
G04 #@! TO.C,C3*
G36*
X136793819Y-89429952D02*
X136817845Y-89433516D01*
X136841405Y-89439417D01*
X136864274Y-89447600D01*
X136886231Y-89457984D01*
X136907064Y-89470471D01*
X136926572Y-89484940D01*
X136944569Y-89501251D01*
X136960880Y-89519248D01*
X136975349Y-89538756D01*
X136987836Y-89559589D01*
X136998220Y-89581546D01*
X137006403Y-89604415D01*
X137012304Y-89627975D01*
X137015868Y-89652001D01*
X137017060Y-89676260D01*
X137017060Y-90171260D01*
X137015868Y-90195519D01*
X137012304Y-90219545D01*
X137006403Y-90243105D01*
X136998220Y-90265974D01*
X136987836Y-90287931D01*
X136975349Y-90308764D01*
X136960880Y-90328272D01*
X136944569Y-90346269D01*
X136926572Y-90362580D01*
X136907064Y-90377049D01*
X136886231Y-90389536D01*
X136864274Y-90399920D01*
X136841405Y-90408103D01*
X136817845Y-90414004D01*
X136793819Y-90417568D01*
X136769560Y-90418760D01*
X136224560Y-90418760D01*
X136200301Y-90417568D01*
X136176275Y-90414004D01*
X136152715Y-90408103D01*
X136129846Y-90399920D01*
X136107889Y-90389536D01*
X136087056Y-90377049D01*
X136067548Y-90362580D01*
X136049551Y-90346269D01*
X136033240Y-90328272D01*
X136018771Y-90308764D01*
X136006284Y-90287931D01*
X135995900Y-90265974D01*
X135987717Y-90243105D01*
X135981816Y-90219545D01*
X135978252Y-90195519D01*
X135977060Y-90171260D01*
X135977060Y-89676260D01*
X135978252Y-89652001D01*
X135981816Y-89627975D01*
X135987717Y-89604415D01*
X135995900Y-89581546D01*
X136006284Y-89559589D01*
X136018771Y-89538756D01*
X136033240Y-89519248D01*
X136049551Y-89501251D01*
X136067548Y-89484940D01*
X136087056Y-89470471D01*
X136107889Y-89457984D01*
X136129846Y-89447600D01*
X136152715Y-89439417D01*
X136176275Y-89433516D01*
X136200301Y-89429952D01*
X136224560Y-89428760D01*
X136769560Y-89428760D01*
X136793819Y-89429952D01*
X136793819Y-89429952D01*
G37*
D11*
X136497060Y-89923760D03*
D10*
G36*
X136793819Y-90399952D02*
X136817845Y-90403516D01*
X136841405Y-90409417D01*
X136864274Y-90417600D01*
X136886231Y-90427984D01*
X136907064Y-90440471D01*
X136926572Y-90454940D01*
X136944569Y-90471251D01*
X136960880Y-90489248D01*
X136975349Y-90508756D01*
X136987836Y-90529589D01*
X136998220Y-90551546D01*
X137006403Y-90574415D01*
X137012304Y-90597975D01*
X137015868Y-90622001D01*
X137017060Y-90646260D01*
X137017060Y-91141260D01*
X137015868Y-91165519D01*
X137012304Y-91189545D01*
X137006403Y-91213105D01*
X136998220Y-91235974D01*
X136987836Y-91257931D01*
X136975349Y-91278764D01*
X136960880Y-91298272D01*
X136944569Y-91316269D01*
X136926572Y-91332580D01*
X136907064Y-91347049D01*
X136886231Y-91359536D01*
X136864274Y-91369920D01*
X136841405Y-91378103D01*
X136817845Y-91384004D01*
X136793819Y-91387568D01*
X136769560Y-91388760D01*
X136224560Y-91388760D01*
X136200301Y-91387568D01*
X136176275Y-91384004D01*
X136152715Y-91378103D01*
X136129846Y-91369920D01*
X136107889Y-91359536D01*
X136087056Y-91347049D01*
X136067548Y-91332580D01*
X136049551Y-91316269D01*
X136033240Y-91298272D01*
X136018771Y-91278764D01*
X136006284Y-91257931D01*
X135995900Y-91235974D01*
X135987717Y-91213105D01*
X135981816Y-91189545D01*
X135978252Y-91165519D01*
X135977060Y-91141260D01*
X135977060Y-90646260D01*
X135978252Y-90622001D01*
X135981816Y-90597975D01*
X135987717Y-90574415D01*
X135995900Y-90551546D01*
X136006284Y-90529589D01*
X136018771Y-90508756D01*
X136033240Y-90489248D01*
X136049551Y-90471251D01*
X136067548Y-90454940D01*
X136087056Y-90440471D01*
X136107889Y-90427984D01*
X136129846Y-90417600D01*
X136152715Y-90409417D01*
X136176275Y-90403516D01*
X136200301Y-90399952D01*
X136224560Y-90398760D01*
X136769560Y-90398760D01*
X136793819Y-90399952D01*
X136793819Y-90399952D01*
G37*
D11*
X136497060Y-90893760D03*
G04 #@! TD*
D10*
G04 #@! TO.C,C4*
G36*
X124754759Y-87238192D02*
X124778785Y-87241756D01*
X124802345Y-87247657D01*
X124825214Y-87255840D01*
X124847171Y-87266224D01*
X124868004Y-87278711D01*
X124887512Y-87293180D01*
X124905509Y-87309491D01*
X124921820Y-87327488D01*
X124936289Y-87346996D01*
X124948776Y-87367829D01*
X124959160Y-87389786D01*
X124967343Y-87412655D01*
X124973244Y-87436215D01*
X124976808Y-87460241D01*
X124978000Y-87484500D01*
X124978000Y-88029500D01*
X124976808Y-88053759D01*
X124973244Y-88077785D01*
X124967343Y-88101345D01*
X124959160Y-88124214D01*
X124948776Y-88146171D01*
X124936289Y-88167004D01*
X124921820Y-88186512D01*
X124905509Y-88204509D01*
X124887512Y-88220820D01*
X124868004Y-88235289D01*
X124847171Y-88247776D01*
X124825214Y-88258160D01*
X124802345Y-88266343D01*
X124778785Y-88272244D01*
X124754759Y-88275808D01*
X124730500Y-88277000D01*
X124235500Y-88277000D01*
X124211241Y-88275808D01*
X124187215Y-88272244D01*
X124163655Y-88266343D01*
X124140786Y-88258160D01*
X124118829Y-88247776D01*
X124097996Y-88235289D01*
X124078488Y-88220820D01*
X124060491Y-88204509D01*
X124044180Y-88186512D01*
X124029711Y-88167004D01*
X124017224Y-88146171D01*
X124006840Y-88124214D01*
X123998657Y-88101345D01*
X123992756Y-88077785D01*
X123989192Y-88053759D01*
X123988000Y-88029500D01*
X123988000Y-87484500D01*
X123989192Y-87460241D01*
X123992756Y-87436215D01*
X123998657Y-87412655D01*
X124006840Y-87389786D01*
X124017224Y-87367829D01*
X124029711Y-87346996D01*
X124044180Y-87327488D01*
X124060491Y-87309491D01*
X124078488Y-87293180D01*
X124097996Y-87278711D01*
X124118829Y-87266224D01*
X124140786Y-87255840D01*
X124163655Y-87247657D01*
X124187215Y-87241756D01*
X124211241Y-87238192D01*
X124235500Y-87237000D01*
X124730500Y-87237000D01*
X124754759Y-87238192D01*
X124754759Y-87238192D01*
G37*
D11*
X124483000Y-87757000D03*
D10*
G36*
X125724759Y-87238192D02*
X125748785Y-87241756D01*
X125772345Y-87247657D01*
X125795214Y-87255840D01*
X125817171Y-87266224D01*
X125838004Y-87278711D01*
X125857512Y-87293180D01*
X125875509Y-87309491D01*
X125891820Y-87327488D01*
X125906289Y-87346996D01*
X125918776Y-87367829D01*
X125929160Y-87389786D01*
X125937343Y-87412655D01*
X125943244Y-87436215D01*
X125946808Y-87460241D01*
X125948000Y-87484500D01*
X125948000Y-88029500D01*
X125946808Y-88053759D01*
X125943244Y-88077785D01*
X125937343Y-88101345D01*
X125929160Y-88124214D01*
X125918776Y-88146171D01*
X125906289Y-88167004D01*
X125891820Y-88186512D01*
X125875509Y-88204509D01*
X125857512Y-88220820D01*
X125838004Y-88235289D01*
X125817171Y-88247776D01*
X125795214Y-88258160D01*
X125772345Y-88266343D01*
X125748785Y-88272244D01*
X125724759Y-88275808D01*
X125700500Y-88277000D01*
X125205500Y-88277000D01*
X125181241Y-88275808D01*
X125157215Y-88272244D01*
X125133655Y-88266343D01*
X125110786Y-88258160D01*
X125088829Y-88247776D01*
X125067996Y-88235289D01*
X125048488Y-88220820D01*
X125030491Y-88204509D01*
X125014180Y-88186512D01*
X124999711Y-88167004D01*
X124987224Y-88146171D01*
X124976840Y-88124214D01*
X124968657Y-88101345D01*
X124962756Y-88077785D01*
X124959192Y-88053759D01*
X124958000Y-88029500D01*
X124958000Y-87484500D01*
X124959192Y-87460241D01*
X124962756Y-87436215D01*
X124968657Y-87412655D01*
X124976840Y-87389786D01*
X124987224Y-87367829D01*
X124999711Y-87346996D01*
X125014180Y-87327488D01*
X125030491Y-87309491D01*
X125048488Y-87293180D01*
X125067996Y-87278711D01*
X125088829Y-87266224D01*
X125110786Y-87255840D01*
X125133655Y-87247657D01*
X125157215Y-87241756D01*
X125181241Y-87238192D01*
X125205500Y-87237000D01*
X125700500Y-87237000D01*
X125724759Y-87238192D01*
X125724759Y-87238192D01*
G37*
D11*
X125453000Y-87757000D03*
G04 #@! TD*
D10*
G04 #@! TO.C,C5*
G36*
X129202159Y-94680392D02*
X129226185Y-94683956D01*
X129249745Y-94689857D01*
X129272614Y-94698040D01*
X129294571Y-94708424D01*
X129315404Y-94720911D01*
X129334912Y-94735380D01*
X129352909Y-94751691D01*
X129369220Y-94769688D01*
X129383689Y-94789196D01*
X129396176Y-94810029D01*
X129406560Y-94831986D01*
X129414743Y-94854855D01*
X129420644Y-94878415D01*
X129424208Y-94902441D01*
X129425400Y-94926700D01*
X129425400Y-95471700D01*
X129424208Y-95495959D01*
X129420644Y-95519985D01*
X129414743Y-95543545D01*
X129406560Y-95566414D01*
X129396176Y-95588371D01*
X129383689Y-95609204D01*
X129369220Y-95628712D01*
X129352909Y-95646709D01*
X129334912Y-95663020D01*
X129315404Y-95677489D01*
X129294571Y-95689976D01*
X129272614Y-95700360D01*
X129249745Y-95708543D01*
X129226185Y-95714444D01*
X129202159Y-95718008D01*
X129177900Y-95719200D01*
X128682900Y-95719200D01*
X128658641Y-95718008D01*
X128634615Y-95714444D01*
X128611055Y-95708543D01*
X128588186Y-95700360D01*
X128566229Y-95689976D01*
X128545396Y-95677489D01*
X128525888Y-95663020D01*
X128507891Y-95646709D01*
X128491580Y-95628712D01*
X128477111Y-95609204D01*
X128464624Y-95588371D01*
X128454240Y-95566414D01*
X128446057Y-95543545D01*
X128440156Y-95519985D01*
X128436592Y-95495959D01*
X128435400Y-95471700D01*
X128435400Y-94926700D01*
X128436592Y-94902441D01*
X128440156Y-94878415D01*
X128446057Y-94854855D01*
X128454240Y-94831986D01*
X128464624Y-94810029D01*
X128477111Y-94789196D01*
X128491580Y-94769688D01*
X128507891Y-94751691D01*
X128525888Y-94735380D01*
X128545396Y-94720911D01*
X128566229Y-94708424D01*
X128588186Y-94698040D01*
X128611055Y-94689857D01*
X128634615Y-94683956D01*
X128658641Y-94680392D01*
X128682900Y-94679200D01*
X129177900Y-94679200D01*
X129202159Y-94680392D01*
X129202159Y-94680392D01*
G37*
D11*
X128930400Y-95199200D03*
D10*
G36*
X128232159Y-94680392D02*
X128256185Y-94683956D01*
X128279745Y-94689857D01*
X128302614Y-94698040D01*
X128324571Y-94708424D01*
X128345404Y-94720911D01*
X128364912Y-94735380D01*
X128382909Y-94751691D01*
X128399220Y-94769688D01*
X128413689Y-94789196D01*
X128426176Y-94810029D01*
X128436560Y-94831986D01*
X128444743Y-94854855D01*
X128450644Y-94878415D01*
X128454208Y-94902441D01*
X128455400Y-94926700D01*
X128455400Y-95471700D01*
X128454208Y-95495959D01*
X128450644Y-95519985D01*
X128444743Y-95543545D01*
X128436560Y-95566414D01*
X128426176Y-95588371D01*
X128413689Y-95609204D01*
X128399220Y-95628712D01*
X128382909Y-95646709D01*
X128364912Y-95663020D01*
X128345404Y-95677489D01*
X128324571Y-95689976D01*
X128302614Y-95700360D01*
X128279745Y-95708543D01*
X128256185Y-95714444D01*
X128232159Y-95718008D01*
X128207900Y-95719200D01*
X127712900Y-95719200D01*
X127688641Y-95718008D01*
X127664615Y-95714444D01*
X127641055Y-95708543D01*
X127618186Y-95700360D01*
X127596229Y-95689976D01*
X127575396Y-95677489D01*
X127555888Y-95663020D01*
X127537891Y-95646709D01*
X127521580Y-95628712D01*
X127507111Y-95609204D01*
X127494624Y-95588371D01*
X127484240Y-95566414D01*
X127476057Y-95543545D01*
X127470156Y-95519985D01*
X127466592Y-95495959D01*
X127465400Y-95471700D01*
X127465400Y-94926700D01*
X127466592Y-94902441D01*
X127470156Y-94878415D01*
X127476057Y-94854855D01*
X127484240Y-94831986D01*
X127494624Y-94810029D01*
X127507111Y-94789196D01*
X127521580Y-94769688D01*
X127537891Y-94751691D01*
X127555888Y-94735380D01*
X127575396Y-94720911D01*
X127596229Y-94708424D01*
X127618186Y-94698040D01*
X127641055Y-94689857D01*
X127664615Y-94683956D01*
X127688641Y-94680392D01*
X127712900Y-94679200D01*
X128207900Y-94679200D01*
X128232159Y-94680392D01*
X128232159Y-94680392D01*
G37*
D11*
X127960400Y-95199200D03*
G04 #@! TD*
D10*
G04 #@! TO.C,C7*
G36*
X139641559Y-89016192D02*
X139665585Y-89019756D01*
X139689145Y-89025657D01*
X139712014Y-89033840D01*
X139733971Y-89044224D01*
X139754804Y-89056711D01*
X139774312Y-89071180D01*
X139792309Y-89087491D01*
X139808620Y-89105488D01*
X139823089Y-89124996D01*
X139835576Y-89145829D01*
X139845960Y-89167786D01*
X139854143Y-89190655D01*
X139860044Y-89214215D01*
X139863608Y-89238241D01*
X139864800Y-89262500D01*
X139864800Y-89807500D01*
X139863608Y-89831759D01*
X139860044Y-89855785D01*
X139854143Y-89879345D01*
X139845960Y-89902214D01*
X139835576Y-89924171D01*
X139823089Y-89945004D01*
X139808620Y-89964512D01*
X139792309Y-89982509D01*
X139774312Y-89998820D01*
X139754804Y-90013289D01*
X139733971Y-90025776D01*
X139712014Y-90036160D01*
X139689145Y-90044343D01*
X139665585Y-90050244D01*
X139641559Y-90053808D01*
X139617300Y-90055000D01*
X139122300Y-90055000D01*
X139098041Y-90053808D01*
X139074015Y-90050244D01*
X139050455Y-90044343D01*
X139027586Y-90036160D01*
X139005629Y-90025776D01*
X138984796Y-90013289D01*
X138965288Y-89998820D01*
X138947291Y-89982509D01*
X138930980Y-89964512D01*
X138916511Y-89945004D01*
X138904024Y-89924171D01*
X138893640Y-89902214D01*
X138885457Y-89879345D01*
X138879556Y-89855785D01*
X138875992Y-89831759D01*
X138874800Y-89807500D01*
X138874800Y-89262500D01*
X138875992Y-89238241D01*
X138879556Y-89214215D01*
X138885457Y-89190655D01*
X138893640Y-89167786D01*
X138904024Y-89145829D01*
X138916511Y-89124996D01*
X138930980Y-89105488D01*
X138947291Y-89087491D01*
X138965288Y-89071180D01*
X138984796Y-89056711D01*
X139005629Y-89044224D01*
X139027586Y-89033840D01*
X139050455Y-89025657D01*
X139074015Y-89019756D01*
X139098041Y-89016192D01*
X139122300Y-89015000D01*
X139617300Y-89015000D01*
X139641559Y-89016192D01*
X139641559Y-89016192D01*
G37*
D11*
X139369800Y-89535000D03*
D10*
G36*
X138671559Y-89016192D02*
X138695585Y-89019756D01*
X138719145Y-89025657D01*
X138742014Y-89033840D01*
X138763971Y-89044224D01*
X138784804Y-89056711D01*
X138804312Y-89071180D01*
X138822309Y-89087491D01*
X138838620Y-89105488D01*
X138853089Y-89124996D01*
X138865576Y-89145829D01*
X138875960Y-89167786D01*
X138884143Y-89190655D01*
X138890044Y-89214215D01*
X138893608Y-89238241D01*
X138894800Y-89262500D01*
X138894800Y-89807500D01*
X138893608Y-89831759D01*
X138890044Y-89855785D01*
X138884143Y-89879345D01*
X138875960Y-89902214D01*
X138865576Y-89924171D01*
X138853089Y-89945004D01*
X138838620Y-89964512D01*
X138822309Y-89982509D01*
X138804312Y-89998820D01*
X138784804Y-90013289D01*
X138763971Y-90025776D01*
X138742014Y-90036160D01*
X138719145Y-90044343D01*
X138695585Y-90050244D01*
X138671559Y-90053808D01*
X138647300Y-90055000D01*
X138152300Y-90055000D01*
X138128041Y-90053808D01*
X138104015Y-90050244D01*
X138080455Y-90044343D01*
X138057586Y-90036160D01*
X138035629Y-90025776D01*
X138014796Y-90013289D01*
X137995288Y-89998820D01*
X137977291Y-89982509D01*
X137960980Y-89964512D01*
X137946511Y-89945004D01*
X137934024Y-89924171D01*
X137923640Y-89902214D01*
X137915457Y-89879345D01*
X137909556Y-89855785D01*
X137905992Y-89831759D01*
X137904800Y-89807500D01*
X137904800Y-89262500D01*
X137905992Y-89238241D01*
X137909556Y-89214215D01*
X137915457Y-89190655D01*
X137923640Y-89167786D01*
X137934024Y-89145829D01*
X137946511Y-89124996D01*
X137960980Y-89105488D01*
X137977291Y-89087491D01*
X137995288Y-89071180D01*
X138014796Y-89056711D01*
X138035629Y-89044224D01*
X138057586Y-89033840D01*
X138080455Y-89025657D01*
X138104015Y-89019756D01*
X138128041Y-89016192D01*
X138152300Y-89015000D01*
X138647300Y-89015000D01*
X138671559Y-89016192D01*
X138671559Y-89016192D01*
G37*
D11*
X138399800Y-89535000D03*
G04 #@! TD*
D10*
G04 #@! TO.C,C8*
G36*
X135831159Y-85284392D02*
X135855185Y-85287956D01*
X135878745Y-85293857D01*
X135901614Y-85302040D01*
X135923571Y-85312424D01*
X135944404Y-85324911D01*
X135963912Y-85339380D01*
X135981909Y-85355691D01*
X135998220Y-85373688D01*
X136012689Y-85393196D01*
X136025176Y-85414029D01*
X136035560Y-85435986D01*
X136043743Y-85458855D01*
X136049644Y-85482415D01*
X136053208Y-85506441D01*
X136054400Y-85530700D01*
X136054400Y-86025700D01*
X136053208Y-86049959D01*
X136049644Y-86073985D01*
X136043743Y-86097545D01*
X136035560Y-86120414D01*
X136025176Y-86142371D01*
X136012689Y-86163204D01*
X135998220Y-86182712D01*
X135981909Y-86200709D01*
X135963912Y-86217020D01*
X135944404Y-86231489D01*
X135923571Y-86243976D01*
X135901614Y-86254360D01*
X135878745Y-86262543D01*
X135855185Y-86268444D01*
X135831159Y-86272008D01*
X135806900Y-86273200D01*
X135261900Y-86273200D01*
X135237641Y-86272008D01*
X135213615Y-86268444D01*
X135190055Y-86262543D01*
X135167186Y-86254360D01*
X135145229Y-86243976D01*
X135124396Y-86231489D01*
X135104888Y-86217020D01*
X135086891Y-86200709D01*
X135070580Y-86182712D01*
X135056111Y-86163204D01*
X135043624Y-86142371D01*
X135033240Y-86120414D01*
X135025057Y-86097545D01*
X135019156Y-86073985D01*
X135015592Y-86049959D01*
X135014400Y-86025700D01*
X135014400Y-85530700D01*
X135015592Y-85506441D01*
X135019156Y-85482415D01*
X135025057Y-85458855D01*
X135033240Y-85435986D01*
X135043624Y-85414029D01*
X135056111Y-85393196D01*
X135070580Y-85373688D01*
X135086891Y-85355691D01*
X135104888Y-85339380D01*
X135124396Y-85324911D01*
X135145229Y-85312424D01*
X135167186Y-85302040D01*
X135190055Y-85293857D01*
X135213615Y-85287956D01*
X135237641Y-85284392D01*
X135261900Y-85283200D01*
X135806900Y-85283200D01*
X135831159Y-85284392D01*
X135831159Y-85284392D01*
G37*
D11*
X135534400Y-85778200D03*
D10*
G36*
X135831159Y-84314392D02*
X135855185Y-84317956D01*
X135878745Y-84323857D01*
X135901614Y-84332040D01*
X135923571Y-84342424D01*
X135944404Y-84354911D01*
X135963912Y-84369380D01*
X135981909Y-84385691D01*
X135998220Y-84403688D01*
X136012689Y-84423196D01*
X136025176Y-84444029D01*
X136035560Y-84465986D01*
X136043743Y-84488855D01*
X136049644Y-84512415D01*
X136053208Y-84536441D01*
X136054400Y-84560700D01*
X136054400Y-85055700D01*
X136053208Y-85079959D01*
X136049644Y-85103985D01*
X136043743Y-85127545D01*
X136035560Y-85150414D01*
X136025176Y-85172371D01*
X136012689Y-85193204D01*
X135998220Y-85212712D01*
X135981909Y-85230709D01*
X135963912Y-85247020D01*
X135944404Y-85261489D01*
X135923571Y-85273976D01*
X135901614Y-85284360D01*
X135878745Y-85292543D01*
X135855185Y-85298444D01*
X135831159Y-85302008D01*
X135806900Y-85303200D01*
X135261900Y-85303200D01*
X135237641Y-85302008D01*
X135213615Y-85298444D01*
X135190055Y-85292543D01*
X135167186Y-85284360D01*
X135145229Y-85273976D01*
X135124396Y-85261489D01*
X135104888Y-85247020D01*
X135086891Y-85230709D01*
X135070580Y-85212712D01*
X135056111Y-85193204D01*
X135043624Y-85172371D01*
X135033240Y-85150414D01*
X135025057Y-85127545D01*
X135019156Y-85103985D01*
X135015592Y-85079959D01*
X135014400Y-85055700D01*
X135014400Y-84560700D01*
X135015592Y-84536441D01*
X135019156Y-84512415D01*
X135025057Y-84488855D01*
X135033240Y-84465986D01*
X135043624Y-84444029D01*
X135056111Y-84423196D01*
X135070580Y-84403688D01*
X135086891Y-84385691D01*
X135104888Y-84369380D01*
X135124396Y-84354911D01*
X135145229Y-84342424D01*
X135167186Y-84332040D01*
X135190055Y-84323857D01*
X135213615Y-84317956D01*
X135237641Y-84314392D01*
X135261900Y-84313200D01*
X135806900Y-84313200D01*
X135831159Y-84314392D01*
X135831159Y-84314392D01*
G37*
D11*
X135534400Y-84808200D03*
G04 #@! TD*
D10*
G04 #@! TO.C,C9*
G36*
X124657493Y-84924535D02*
X124688435Y-84929125D01*
X124718778Y-84936725D01*
X124748230Y-84947263D01*
X124776508Y-84960638D01*
X124803338Y-84976719D01*
X124828463Y-84995353D01*
X124851640Y-85016360D01*
X124872647Y-85039537D01*
X124891281Y-85064662D01*
X124907362Y-85091492D01*
X124920737Y-85119770D01*
X124931275Y-85149222D01*
X124938875Y-85179565D01*
X124943465Y-85210507D01*
X124945000Y-85241750D01*
X124945000Y-85954250D01*
X124943465Y-85985493D01*
X124938875Y-86016435D01*
X124931275Y-86046778D01*
X124920737Y-86076230D01*
X124907362Y-86104508D01*
X124891281Y-86131338D01*
X124872647Y-86156463D01*
X124851640Y-86179640D01*
X124828463Y-86200647D01*
X124803338Y-86219281D01*
X124776508Y-86235362D01*
X124748230Y-86248737D01*
X124718778Y-86259275D01*
X124688435Y-86266875D01*
X124657493Y-86271465D01*
X124626250Y-86273000D01*
X123988750Y-86273000D01*
X123957507Y-86271465D01*
X123926565Y-86266875D01*
X123896222Y-86259275D01*
X123866770Y-86248737D01*
X123838492Y-86235362D01*
X123811662Y-86219281D01*
X123786537Y-86200647D01*
X123763360Y-86179640D01*
X123742353Y-86156463D01*
X123723719Y-86131338D01*
X123707638Y-86104508D01*
X123694263Y-86076230D01*
X123683725Y-86046778D01*
X123676125Y-86016435D01*
X123671535Y-85985493D01*
X123670000Y-85954250D01*
X123670000Y-85241750D01*
X123671535Y-85210507D01*
X123676125Y-85179565D01*
X123683725Y-85149222D01*
X123694263Y-85119770D01*
X123707638Y-85091492D01*
X123723719Y-85064662D01*
X123742353Y-85039537D01*
X123763360Y-85016360D01*
X123786537Y-84995353D01*
X123811662Y-84976719D01*
X123838492Y-84960638D01*
X123866770Y-84947263D01*
X123896222Y-84936725D01*
X123926565Y-84929125D01*
X123957507Y-84924535D01*
X123988750Y-84923000D01*
X124626250Y-84923000D01*
X124657493Y-84924535D01*
X124657493Y-84924535D01*
G37*
D12*
X124307500Y-85598000D03*
D10*
G36*
X126232493Y-84924535D02*
X126263435Y-84929125D01*
X126293778Y-84936725D01*
X126323230Y-84947263D01*
X126351508Y-84960638D01*
X126378338Y-84976719D01*
X126403463Y-84995353D01*
X126426640Y-85016360D01*
X126447647Y-85039537D01*
X126466281Y-85064662D01*
X126482362Y-85091492D01*
X126495737Y-85119770D01*
X126506275Y-85149222D01*
X126513875Y-85179565D01*
X126518465Y-85210507D01*
X126520000Y-85241750D01*
X126520000Y-85954250D01*
X126518465Y-85985493D01*
X126513875Y-86016435D01*
X126506275Y-86046778D01*
X126495737Y-86076230D01*
X126482362Y-86104508D01*
X126466281Y-86131338D01*
X126447647Y-86156463D01*
X126426640Y-86179640D01*
X126403463Y-86200647D01*
X126378338Y-86219281D01*
X126351508Y-86235362D01*
X126323230Y-86248737D01*
X126293778Y-86259275D01*
X126263435Y-86266875D01*
X126232493Y-86271465D01*
X126201250Y-86273000D01*
X125563750Y-86273000D01*
X125532507Y-86271465D01*
X125501565Y-86266875D01*
X125471222Y-86259275D01*
X125441770Y-86248737D01*
X125413492Y-86235362D01*
X125386662Y-86219281D01*
X125361537Y-86200647D01*
X125338360Y-86179640D01*
X125317353Y-86156463D01*
X125298719Y-86131338D01*
X125282638Y-86104508D01*
X125269263Y-86076230D01*
X125258725Y-86046778D01*
X125251125Y-86016435D01*
X125246535Y-85985493D01*
X125245000Y-85954250D01*
X125245000Y-85241750D01*
X125246535Y-85210507D01*
X125251125Y-85179565D01*
X125258725Y-85149222D01*
X125269263Y-85119770D01*
X125282638Y-85091492D01*
X125298719Y-85064662D01*
X125317353Y-85039537D01*
X125338360Y-85016360D01*
X125361537Y-84995353D01*
X125386662Y-84976719D01*
X125413492Y-84960638D01*
X125441770Y-84947263D01*
X125471222Y-84936725D01*
X125501565Y-84929125D01*
X125532507Y-84924535D01*
X125563750Y-84923000D01*
X126201250Y-84923000D01*
X126232493Y-84924535D01*
X126232493Y-84924535D01*
G37*
D12*
X125882500Y-85598000D03*
G04 #@! TD*
D10*
G04 #@! TO.C,C10*
G36*
X127832493Y-84721335D02*
X127863435Y-84725925D01*
X127893778Y-84733525D01*
X127923230Y-84744063D01*
X127951508Y-84757438D01*
X127978338Y-84773519D01*
X128003463Y-84792153D01*
X128026640Y-84813160D01*
X128047647Y-84836337D01*
X128066281Y-84861462D01*
X128082362Y-84888292D01*
X128095737Y-84916570D01*
X128106275Y-84946022D01*
X128113875Y-84976365D01*
X128118465Y-85007307D01*
X128120000Y-85038550D01*
X128120000Y-85751050D01*
X128118465Y-85782293D01*
X128113875Y-85813235D01*
X128106275Y-85843578D01*
X128095737Y-85873030D01*
X128082362Y-85901308D01*
X128066281Y-85928138D01*
X128047647Y-85953263D01*
X128026640Y-85976440D01*
X128003463Y-85997447D01*
X127978338Y-86016081D01*
X127951508Y-86032162D01*
X127923230Y-86045537D01*
X127893778Y-86056075D01*
X127863435Y-86063675D01*
X127832493Y-86068265D01*
X127801250Y-86069800D01*
X127163750Y-86069800D01*
X127132507Y-86068265D01*
X127101565Y-86063675D01*
X127071222Y-86056075D01*
X127041770Y-86045537D01*
X127013492Y-86032162D01*
X126986662Y-86016081D01*
X126961537Y-85997447D01*
X126938360Y-85976440D01*
X126917353Y-85953263D01*
X126898719Y-85928138D01*
X126882638Y-85901308D01*
X126869263Y-85873030D01*
X126858725Y-85843578D01*
X126851125Y-85813235D01*
X126846535Y-85782293D01*
X126845000Y-85751050D01*
X126845000Y-85038550D01*
X126846535Y-85007307D01*
X126851125Y-84976365D01*
X126858725Y-84946022D01*
X126869263Y-84916570D01*
X126882638Y-84888292D01*
X126898719Y-84861462D01*
X126917353Y-84836337D01*
X126938360Y-84813160D01*
X126961537Y-84792153D01*
X126986662Y-84773519D01*
X127013492Y-84757438D01*
X127041770Y-84744063D01*
X127071222Y-84733525D01*
X127101565Y-84725925D01*
X127132507Y-84721335D01*
X127163750Y-84719800D01*
X127801250Y-84719800D01*
X127832493Y-84721335D01*
X127832493Y-84721335D01*
G37*
D12*
X127482500Y-85394800D03*
D10*
G36*
X129407493Y-84721335D02*
X129438435Y-84725925D01*
X129468778Y-84733525D01*
X129498230Y-84744063D01*
X129526508Y-84757438D01*
X129553338Y-84773519D01*
X129578463Y-84792153D01*
X129601640Y-84813160D01*
X129622647Y-84836337D01*
X129641281Y-84861462D01*
X129657362Y-84888292D01*
X129670737Y-84916570D01*
X129681275Y-84946022D01*
X129688875Y-84976365D01*
X129693465Y-85007307D01*
X129695000Y-85038550D01*
X129695000Y-85751050D01*
X129693465Y-85782293D01*
X129688875Y-85813235D01*
X129681275Y-85843578D01*
X129670737Y-85873030D01*
X129657362Y-85901308D01*
X129641281Y-85928138D01*
X129622647Y-85953263D01*
X129601640Y-85976440D01*
X129578463Y-85997447D01*
X129553338Y-86016081D01*
X129526508Y-86032162D01*
X129498230Y-86045537D01*
X129468778Y-86056075D01*
X129438435Y-86063675D01*
X129407493Y-86068265D01*
X129376250Y-86069800D01*
X128738750Y-86069800D01*
X128707507Y-86068265D01*
X128676565Y-86063675D01*
X128646222Y-86056075D01*
X128616770Y-86045537D01*
X128588492Y-86032162D01*
X128561662Y-86016081D01*
X128536537Y-85997447D01*
X128513360Y-85976440D01*
X128492353Y-85953263D01*
X128473719Y-85928138D01*
X128457638Y-85901308D01*
X128444263Y-85873030D01*
X128433725Y-85843578D01*
X128426125Y-85813235D01*
X128421535Y-85782293D01*
X128420000Y-85751050D01*
X128420000Y-85038550D01*
X128421535Y-85007307D01*
X128426125Y-84976365D01*
X128433725Y-84946022D01*
X128444263Y-84916570D01*
X128457638Y-84888292D01*
X128473719Y-84861462D01*
X128492353Y-84836337D01*
X128513360Y-84813160D01*
X128536537Y-84792153D01*
X128561662Y-84773519D01*
X128588492Y-84757438D01*
X128616770Y-84744063D01*
X128646222Y-84733525D01*
X128676565Y-84725925D01*
X128707507Y-84721335D01*
X128738750Y-84719800D01*
X129376250Y-84719800D01*
X129407493Y-84721335D01*
X129407493Y-84721335D01*
G37*
D12*
X129057500Y-85394800D03*
G04 #@! TD*
D10*
G04 #@! TO.C,C11*
G36*
X123182219Y-87421072D02*
X123206245Y-87424636D01*
X123229805Y-87430537D01*
X123252674Y-87438720D01*
X123274631Y-87449104D01*
X123295464Y-87461591D01*
X123314972Y-87476060D01*
X123332969Y-87492371D01*
X123349280Y-87510368D01*
X123363749Y-87529876D01*
X123376236Y-87550709D01*
X123386620Y-87572666D01*
X123394803Y-87595535D01*
X123400704Y-87619095D01*
X123404268Y-87643121D01*
X123405460Y-87667380D01*
X123405460Y-88212380D01*
X123404268Y-88236639D01*
X123400704Y-88260665D01*
X123394803Y-88284225D01*
X123386620Y-88307094D01*
X123376236Y-88329051D01*
X123363749Y-88349884D01*
X123349280Y-88369392D01*
X123332969Y-88387389D01*
X123314972Y-88403700D01*
X123295464Y-88418169D01*
X123274631Y-88430656D01*
X123252674Y-88441040D01*
X123229805Y-88449223D01*
X123206245Y-88455124D01*
X123182219Y-88458688D01*
X123157960Y-88459880D01*
X122662960Y-88459880D01*
X122638701Y-88458688D01*
X122614675Y-88455124D01*
X122591115Y-88449223D01*
X122568246Y-88441040D01*
X122546289Y-88430656D01*
X122525456Y-88418169D01*
X122505948Y-88403700D01*
X122487951Y-88387389D01*
X122471640Y-88369392D01*
X122457171Y-88349884D01*
X122444684Y-88329051D01*
X122434300Y-88307094D01*
X122426117Y-88284225D01*
X122420216Y-88260665D01*
X122416652Y-88236639D01*
X122415460Y-88212380D01*
X122415460Y-87667380D01*
X122416652Y-87643121D01*
X122420216Y-87619095D01*
X122426117Y-87595535D01*
X122434300Y-87572666D01*
X122444684Y-87550709D01*
X122457171Y-87529876D01*
X122471640Y-87510368D01*
X122487951Y-87492371D01*
X122505948Y-87476060D01*
X122525456Y-87461591D01*
X122546289Y-87449104D01*
X122568246Y-87438720D01*
X122591115Y-87430537D01*
X122614675Y-87424636D01*
X122638701Y-87421072D01*
X122662960Y-87419880D01*
X123157960Y-87419880D01*
X123182219Y-87421072D01*
X123182219Y-87421072D01*
G37*
D11*
X122910460Y-87939880D03*
D10*
G36*
X122212219Y-87421072D02*
X122236245Y-87424636D01*
X122259805Y-87430537D01*
X122282674Y-87438720D01*
X122304631Y-87449104D01*
X122325464Y-87461591D01*
X122344972Y-87476060D01*
X122362969Y-87492371D01*
X122379280Y-87510368D01*
X122393749Y-87529876D01*
X122406236Y-87550709D01*
X122416620Y-87572666D01*
X122424803Y-87595535D01*
X122430704Y-87619095D01*
X122434268Y-87643121D01*
X122435460Y-87667380D01*
X122435460Y-88212380D01*
X122434268Y-88236639D01*
X122430704Y-88260665D01*
X122424803Y-88284225D01*
X122416620Y-88307094D01*
X122406236Y-88329051D01*
X122393749Y-88349884D01*
X122379280Y-88369392D01*
X122362969Y-88387389D01*
X122344972Y-88403700D01*
X122325464Y-88418169D01*
X122304631Y-88430656D01*
X122282674Y-88441040D01*
X122259805Y-88449223D01*
X122236245Y-88455124D01*
X122212219Y-88458688D01*
X122187960Y-88459880D01*
X121692960Y-88459880D01*
X121668701Y-88458688D01*
X121644675Y-88455124D01*
X121621115Y-88449223D01*
X121598246Y-88441040D01*
X121576289Y-88430656D01*
X121555456Y-88418169D01*
X121535948Y-88403700D01*
X121517951Y-88387389D01*
X121501640Y-88369392D01*
X121487171Y-88349884D01*
X121474684Y-88329051D01*
X121464300Y-88307094D01*
X121456117Y-88284225D01*
X121450216Y-88260665D01*
X121446652Y-88236639D01*
X121445460Y-88212380D01*
X121445460Y-87667380D01*
X121446652Y-87643121D01*
X121450216Y-87619095D01*
X121456117Y-87595535D01*
X121464300Y-87572666D01*
X121474684Y-87550709D01*
X121487171Y-87529876D01*
X121501640Y-87510368D01*
X121517951Y-87492371D01*
X121535948Y-87476060D01*
X121555456Y-87461591D01*
X121576289Y-87449104D01*
X121598246Y-87438720D01*
X121621115Y-87430537D01*
X121644675Y-87424636D01*
X121668701Y-87421072D01*
X121692960Y-87419880D01*
X122187960Y-87419880D01*
X122212219Y-87421072D01*
X122212219Y-87421072D01*
G37*
D11*
X121940460Y-87939880D03*
G04 #@! TD*
D10*
G04 #@! TO.C,C12*
G36*
X122176659Y-92648392D02*
X122200685Y-92651956D01*
X122224245Y-92657857D01*
X122247114Y-92666040D01*
X122269071Y-92676424D01*
X122289904Y-92688911D01*
X122309412Y-92703380D01*
X122327409Y-92719691D01*
X122343720Y-92737688D01*
X122358189Y-92757196D01*
X122370676Y-92778029D01*
X122381060Y-92799986D01*
X122389243Y-92822855D01*
X122395144Y-92846415D01*
X122398708Y-92870441D01*
X122399900Y-92894700D01*
X122399900Y-93439700D01*
X122398708Y-93463959D01*
X122395144Y-93487985D01*
X122389243Y-93511545D01*
X122381060Y-93534414D01*
X122370676Y-93556371D01*
X122358189Y-93577204D01*
X122343720Y-93596712D01*
X122327409Y-93614709D01*
X122309412Y-93631020D01*
X122289904Y-93645489D01*
X122269071Y-93657976D01*
X122247114Y-93668360D01*
X122224245Y-93676543D01*
X122200685Y-93682444D01*
X122176659Y-93686008D01*
X122152400Y-93687200D01*
X121657400Y-93687200D01*
X121633141Y-93686008D01*
X121609115Y-93682444D01*
X121585555Y-93676543D01*
X121562686Y-93668360D01*
X121540729Y-93657976D01*
X121519896Y-93645489D01*
X121500388Y-93631020D01*
X121482391Y-93614709D01*
X121466080Y-93596712D01*
X121451611Y-93577204D01*
X121439124Y-93556371D01*
X121428740Y-93534414D01*
X121420557Y-93511545D01*
X121414656Y-93487985D01*
X121411092Y-93463959D01*
X121409900Y-93439700D01*
X121409900Y-92894700D01*
X121411092Y-92870441D01*
X121414656Y-92846415D01*
X121420557Y-92822855D01*
X121428740Y-92799986D01*
X121439124Y-92778029D01*
X121451611Y-92757196D01*
X121466080Y-92737688D01*
X121482391Y-92719691D01*
X121500388Y-92703380D01*
X121519896Y-92688911D01*
X121540729Y-92676424D01*
X121562686Y-92666040D01*
X121585555Y-92657857D01*
X121609115Y-92651956D01*
X121633141Y-92648392D01*
X121657400Y-92647200D01*
X122152400Y-92647200D01*
X122176659Y-92648392D01*
X122176659Y-92648392D01*
G37*
D11*
X121904900Y-93167200D03*
D10*
G36*
X123146659Y-92648392D02*
X123170685Y-92651956D01*
X123194245Y-92657857D01*
X123217114Y-92666040D01*
X123239071Y-92676424D01*
X123259904Y-92688911D01*
X123279412Y-92703380D01*
X123297409Y-92719691D01*
X123313720Y-92737688D01*
X123328189Y-92757196D01*
X123340676Y-92778029D01*
X123351060Y-92799986D01*
X123359243Y-92822855D01*
X123365144Y-92846415D01*
X123368708Y-92870441D01*
X123369900Y-92894700D01*
X123369900Y-93439700D01*
X123368708Y-93463959D01*
X123365144Y-93487985D01*
X123359243Y-93511545D01*
X123351060Y-93534414D01*
X123340676Y-93556371D01*
X123328189Y-93577204D01*
X123313720Y-93596712D01*
X123297409Y-93614709D01*
X123279412Y-93631020D01*
X123259904Y-93645489D01*
X123239071Y-93657976D01*
X123217114Y-93668360D01*
X123194245Y-93676543D01*
X123170685Y-93682444D01*
X123146659Y-93686008D01*
X123122400Y-93687200D01*
X122627400Y-93687200D01*
X122603141Y-93686008D01*
X122579115Y-93682444D01*
X122555555Y-93676543D01*
X122532686Y-93668360D01*
X122510729Y-93657976D01*
X122489896Y-93645489D01*
X122470388Y-93631020D01*
X122452391Y-93614709D01*
X122436080Y-93596712D01*
X122421611Y-93577204D01*
X122409124Y-93556371D01*
X122398740Y-93534414D01*
X122390557Y-93511545D01*
X122384656Y-93487985D01*
X122381092Y-93463959D01*
X122379900Y-93439700D01*
X122379900Y-92894700D01*
X122381092Y-92870441D01*
X122384656Y-92846415D01*
X122390557Y-92822855D01*
X122398740Y-92799986D01*
X122409124Y-92778029D01*
X122421611Y-92757196D01*
X122436080Y-92737688D01*
X122452391Y-92719691D01*
X122470388Y-92703380D01*
X122489896Y-92688911D01*
X122510729Y-92676424D01*
X122532686Y-92666040D01*
X122555555Y-92657857D01*
X122579115Y-92651956D01*
X122603141Y-92648392D01*
X122627400Y-92647200D01*
X123122400Y-92647200D01*
X123146659Y-92648392D01*
X123146659Y-92648392D01*
G37*
D11*
X122874900Y-93167200D03*
G04 #@! TD*
D10*
G04 #@! TO.C,L1*
G36*
X143552759Y-87875192D02*
X143576785Y-87878756D01*
X143600345Y-87884657D01*
X143623214Y-87892840D01*
X143645171Y-87903224D01*
X143666004Y-87915711D01*
X143685512Y-87930180D01*
X143703509Y-87946491D01*
X143719820Y-87964488D01*
X143734289Y-87983996D01*
X143746776Y-88004829D01*
X143757160Y-88026786D01*
X143765343Y-88049655D01*
X143771244Y-88073215D01*
X143774808Y-88097241D01*
X143776000Y-88121500D01*
X143776000Y-88616500D01*
X143774808Y-88640759D01*
X143771244Y-88664785D01*
X143765343Y-88688345D01*
X143757160Y-88711214D01*
X143746776Y-88733171D01*
X143734289Y-88754004D01*
X143719820Y-88773512D01*
X143703509Y-88791509D01*
X143685512Y-88807820D01*
X143666004Y-88822289D01*
X143645171Y-88834776D01*
X143623214Y-88845160D01*
X143600345Y-88853343D01*
X143576785Y-88859244D01*
X143552759Y-88862808D01*
X143528500Y-88864000D01*
X142983500Y-88864000D01*
X142959241Y-88862808D01*
X142935215Y-88859244D01*
X142911655Y-88853343D01*
X142888786Y-88845160D01*
X142866829Y-88834776D01*
X142845996Y-88822289D01*
X142826488Y-88807820D01*
X142808491Y-88791509D01*
X142792180Y-88773512D01*
X142777711Y-88754004D01*
X142765224Y-88733171D01*
X142754840Y-88711214D01*
X142746657Y-88688345D01*
X142740756Y-88664785D01*
X142737192Y-88640759D01*
X142736000Y-88616500D01*
X142736000Y-88121500D01*
X142737192Y-88097241D01*
X142740756Y-88073215D01*
X142746657Y-88049655D01*
X142754840Y-88026786D01*
X142765224Y-88004829D01*
X142777711Y-87983996D01*
X142792180Y-87964488D01*
X142808491Y-87946491D01*
X142826488Y-87930180D01*
X142845996Y-87915711D01*
X142866829Y-87903224D01*
X142888786Y-87892840D01*
X142911655Y-87884657D01*
X142935215Y-87878756D01*
X142959241Y-87875192D01*
X142983500Y-87874000D01*
X143528500Y-87874000D01*
X143552759Y-87875192D01*
X143552759Y-87875192D01*
G37*
D11*
X143256000Y-88369000D03*
D10*
G36*
X143552759Y-86905192D02*
X143576785Y-86908756D01*
X143600345Y-86914657D01*
X143623214Y-86922840D01*
X143645171Y-86933224D01*
X143666004Y-86945711D01*
X143685512Y-86960180D01*
X143703509Y-86976491D01*
X143719820Y-86994488D01*
X143734289Y-87013996D01*
X143746776Y-87034829D01*
X143757160Y-87056786D01*
X143765343Y-87079655D01*
X143771244Y-87103215D01*
X143774808Y-87127241D01*
X143776000Y-87151500D01*
X143776000Y-87646500D01*
X143774808Y-87670759D01*
X143771244Y-87694785D01*
X143765343Y-87718345D01*
X143757160Y-87741214D01*
X143746776Y-87763171D01*
X143734289Y-87784004D01*
X143719820Y-87803512D01*
X143703509Y-87821509D01*
X143685512Y-87837820D01*
X143666004Y-87852289D01*
X143645171Y-87864776D01*
X143623214Y-87875160D01*
X143600345Y-87883343D01*
X143576785Y-87889244D01*
X143552759Y-87892808D01*
X143528500Y-87894000D01*
X142983500Y-87894000D01*
X142959241Y-87892808D01*
X142935215Y-87889244D01*
X142911655Y-87883343D01*
X142888786Y-87875160D01*
X142866829Y-87864776D01*
X142845996Y-87852289D01*
X142826488Y-87837820D01*
X142808491Y-87821509D01*
X142792180Y-87803512D01*
X142777711Y-87784004D01*
X142765224Y-87763171D01*
X142754840Y-87741214D01*
X142746657Y-87718345D01*
X142740756Y-87694785D01*
X142737192Y-87670759D01*
X142736000Y-87646500D01*
X142736000Y-87151500D01*
X142737192Y-87127241D01*
X142740756Y-87103215D01*
X142746657Y-87079655D01*
X142754840Y-87056786D01*
X142765224Y-87034829D01*
X142777711Y-87013996D01*
X142792180Y-86994488D01*
X142808491Y-86976491D01*
X142826488Y-86960180D01*
X142845996Y-86945711D01*
X142866829Y-86933224D01*
X142888786Y-86922840D01*
X142911655Y-86914657D01*
X142935215Y-86908756D01*
X142959241Y-86905192D01*
X142983500Y-86904000D01*
X143528500Y-86904000D01*
X143552759Y-86905192D01*
X143552759Y-86905192D01*
G37*
D11*
X143256000Y-87399000D03*
G04 #@! TD*
D13*
G04 #@! TO.C,Y1*
X138294020Y-84890380D03*
X138294020Y-86290380D03*
X139394020Y-86290380D03*
X139394020Y-84890380D03*
G04 #@! TD*
D14*
G04 #@! TO.C,Y2*
X122412760Y-89351800D03*
X122412760Y-91851800D03*
G04 #@! TD*
D15*
G04 #@! TO.C,U1*
X128520000Y-88478000D03*
X128520000Y-88878000D03*
X128520000Y-89278000D03*
X128520000Y-89678000D03*
X128520000Y-90078000D03*
X128520000Y-90478000D03*
X128520000Y-90878000D03*
X128520000Y-91278000D03*
X128520000Y-91678000D03*
X128520000Y-92078000D03*
X128520000Y-92478000D03*
X128520000Y-92878000D03*
D16*
X129245000Y-93603000D03*
X129645000Y-93603000D03*
X130045000Y-93603000D03*
X130445000Y-93603000D03*
X130845000Y-93603000D03*
X131245000Y-93603000D03*
X131645000Y-93603000D03*
X132045000Y-93603000D03*
X132445000Y-93603000D03*
X132845000Y-93603000D03*
X133245000Y-93603000D03*
X133645000Y-93603000D03*
D15*
X134370000Y-92878000D03*
X134370000Y-92478000D03*
X134370000Y-92078000D03*
X134370000Y-91678000D03*
X134370000Y-91278000D03*
X134370000Y-90878000D03*
X134370000Y-90478000D03*
X134370000Y-90078000D03*
X134370000Y-89678000D03*
X134370000Y-89278000D03*
X134370000Y-88878000D03*
X134370000Y-88478000D03*
D16*
X133645000Y-87753000D03*
X133245000Y-87753000D03*
X132845000Y-87753000D03*
X132445000Y-87753000D03*
X132045000Y-87753000D03*
X131645000Y-87753000D03*
X131245000Y-87753000D03*
X130845000Y-87753000D03*
X130445000Y-87753000D03*
X130045000Y-87753000D03*
X129645000Y-87753000D03*
X129245000Y-87753000D03*
D17*
X131445000Y-90678000D03*
G04 #@! TD*
D18*
G04 #@! TO.C,AE1*
X143514000Y-86370000D03*
D19*
X143514000Y-84270000D03*
G04 #@! TD*
D20*
G04 #@! TO.C,U2*
X113030000Y-97155000D03*
D21*
X115570000Y-97155000D03*
X118110000Y-97155000D03*
X120650000Y-97155000D03*
X123190000Y-97155000D03*
X125730000Y-97155000D03*
X128270000Y-97155000D03*
X130810000Y-97155000D03*
X133350000Y-97155000D03*
X135890000Y-97155000D03*
X138430000Y-97155000D03*
X140970000Y-97155000D03*
X140970000Y-81915000D03*
X138430000Y-81915000D03*
X135890000Y-81915000D03*
X133350000Y-81915000D03*
X130810000Y-81915000D03*
X128270000Y-81915000D03*
X125730000Y-81915000D03*
X123190000Y-81915000D03*
X120650000Y-81915000D03*
X118110000Y-81915000D03*
X115570000Y-81915000D03*
X113030000Y-81915000D03*
G04 #@! TD*
D22*
G04 #@! TO.C,J1*
X115570000Y-91440000D03*
D23*
X113030000Y-91440000D03*
X115570000Y-88900000D03*
X113030000Y-88900000D03*
X115570000Y-86360000D03*
X113030000Y-86360000D03*
G04 #@! TD*
D10*
G04 #@! TO.C,C6*
G36*
X113739943Y-93488055D02*
X113773312Y-93493005D01*
X113806035Y-93501202D01*
X113837797Y-93512566D01*
X113868293Y-93526990D01*
X113897227Y-93544332D01*
X113924323Y-93564428D01*
X113949318Y-93587082D01*
X113971972Y-93612077D01*
X113992068Y-93639173D01*
X114009410Y-93668107D01*
X114023834Y-93698603D01*
X114035198Y-93730365D01*
X114043395Y-93763088D01*
X114048345Y-93796457D01*
X114050000Y-93830150D01*
X114050000Y-94942650D01*
X114048345Y-94976343D01*
X114043395Y-95009712D01*
X114035198Y-95042435D01*
X114023834Y-95074197D01*
X114009410Y-95104693D01*
X113992068Y-95133627D01*
X113971972Y-95160723D01*
X113949318Y-95185718D01*
X113924323Y-95208372D01*
X113897227Y-95228468D01*
X113868293Y-95245810D01*
X113837797Y-95260234D01*
X113806035Y-95271598D01*
X113773312Y-95279795D01*
X113739943Y-95284745D01*
X113706250Y-95286400D01*
X113018750Y-95286400D01*
X112985057Y-95284745D01*
X112951688Y-95279795D01*
X112918965Y-95271598D01*
X112887203Y-95260234D01*
X112856707Y-95245810D01*
X112827773Y-95228468D01*
X112800677Y-95208372D01*
X112775682Y-95185718D01*
X112753028Y-95160723D01*
X112732932Y-95133627D01*
X112715590Y-95104693D01*
X112701166Y-95074197D01*
X112689802Y-95042435D01*
X112681605Y-95009712D01*
X112676655Y-94976343D01*
X112675000Y-94942650D01*
X112675000Y-93830150D01*
X112676655Y-93796457D01*
X112681605Y-93763088D01*
X112689802Y-93730365D01*
X112701166Y-93698603D01*
X112715590Y-93668107D01*
X112732932Y-93639173D01*
X112753028Y-93612077D01*
X112775682Y-93587082D01*
X112800677Y-93564428D01*
X112827773Y-93544332D01*
X112856707Y-93526990D01*
X112887203Y-93512566D01*
X112918965Y-93501202D01*
X112951688Y-93493005D01*
X112985057Y-93488055D01*
X113018750Y-93486400D01*
X113706250Y-93486400D01*
X113739943Y-93488055D01*
X113739943Y-93488055D01*
G37*
D24*
X113362500Y-94386400D03*
D10*
G36*
X115614943Y-93488055D02*
X115648312Y-93493005D01*
X115681035Y-93501202D01*
X115712797Y-93512566D01*
X115743293Y-93526990D01*
X115772227Y-93544332D01*
X115799323Y-93564428D01*
X115824318Y-93587082D01*
X115846972Y-93612077D01*
X115867068Y-93639173D01*
X115884410Y-93668107D01*
X115898834Y-93698603D01*
X115910198Y-93730365D01*
X115918395Y-93763088D01*
X115923345Y-93796457D01*
X115925000Y-93830150D01*
X115925000Y-94942650D01*
X115923345Y-94976343D01*
X115918395Y-95009712D01*
X115910198Y-95042435D01*
X115898834Y-95074197D01*
X115884410Y-95104693D01*
X115867068Y-95133627D01*
X115846972Y-95160723D01*
X115824318Y-95185718D01*
X115799323Y-95208372D01*
X115772227Y-95228468D01*
X115743293Y-95245810D01*
X115712797Y-95260234D01*
X115681035Y-95271598D01*
X115648312Y-95279795D01*
X115614943Y-95284745D01*
X115581250Y-95286400D01*
X114893750Y-95286400D01*
X114860057Y-95284745D01*
X114826688Y-95279795D01*
X114793965Y-95271598D01*
X114762203Y-95260234D01*
X114731707Y-95245810D01*
X114702773Y-95228468D01*
X114675677Y-95208372D01*
X114650682Y-95185718D01*
X114628028Y-95160723D01*
X114607932Y-95133627D01*
X114590590Y-95104693D01*
X114576166Y-95074197D01*
X114564802Y-95042435D01*
X114556605Y-95009712D01*
X114551655Y-94976343D01*
X114550000Y-94942650D01*
X114550000Y-93830150D01*
X114551655Y-93796457D01*
X114556605Y-93763088D01*
X114564802Y-93730365D01*
X114576166Y-93698603D01*
X114590590Y-93668107D01*
X114607932Y-93639173D01*
X114628028Y-93612077D01*
X114650682Y-93587082D01*
X114675677Y-93564428D01*
X114702773Y-93544332D01*
X114731707Y-93526990D01*
X114762203Y-93512566D01*
X114793965Y-93501202D01*
X114826688Y-93493005D01*
X114860057Y-93488055D01*
X114893750Y-93486400D01*
X115581250Y-93486400D01*
X115614943Y-93488055D01*
X115614943Y-93488055D01*
G37*
D24*
X115237500Y-94386400D03*
G04 #@! TD*
D25*
G04 #@! TO.C,U3*
X118026000Y-89474000D03*
X118026000Y-90424000D03*
X118026000Y-91374000D03*
X120226000Y-91374000D03*
X120226000Y-89474000D03*
G04 #@! TD*
D10*
G04 #@! TO.C,C13*
G36*
X118914759Y-92391592D02*
X118938785Y-92395156D01*
X118962345Y-92401057D01*
X118985214Y-92409240D01*
X119007171Y-92419624D01*
X119028004Y-92432111D01*
X119047512Y-92446580D01*
X119065509Y-92462891D01*
X119081820Y-92480888D01*
X119096289Y-92500396D01*
X119108776Y-92521229D01*
X119119160Y-92543186D01*
X119127343Y-92566055D01*
X119133244Y-92589615D01*
X119136808Y-92613641D01*
X119138000Y-92637900D01*
X119138000Y-93132900D01*
X119136808Y-93157159D01*
X119133244Y-93181185D01*
X119127343Y-93204745D01*
X119119160Y-93227614D01*
X119108776Y-93249571D01*
X119096289Y-93270404D01*
X119081820Y-93289912D01*
X119065509Y-93307909D01*
X119047512Y-93324220D01*
X119028004Y-93338689D01*
X119007171Y-93351176D01*
X118985214Y-93361560D01*
X118962345Y-93369743D01*
X118938785Y-93375644D01*
X118914759Y-93379208D01*
X118890500Y-93380400D01*
X118345500Y-93380400D01*
X118321241Y-93379208D01*
X118297215Y-93375644D01*
X118273655Y-93369743D01*
X118250786Y-93361560D01*
X118228829Y-93351176D01*
X118207996Y-93338689D01*
X118188488Y-93324220D01*
X118170491Y-93307909D01*
X118154180Y-93289912D01*
X118139711Y-93270404D01*
X118127224Y-93249571D01*
X118116840Y-93227614D01*
X118108657Y-93204745D01*
X118102756Y-93181185D01*
X118099192Y-93157159D01*
X118098000Y-93132900D01*
X118098000Y-92637900D01*
X118099192Y-92613641D01*
X118102756Y-92589615D01*
X118108657Y-92566055D01*
X118116840Y-92543186D01*
X118127224Y-92521229D01*
X118139711Y-92500396D01*
X118154180Y-92480888D01*
X118170491Y-92462891D01*
X118188488Y-92446580D01*
X118207996Y-92432111D01*
X118228829Y-92419624D01*
X118250786Y-92409240D01*
X118273655Y-92401057D01*
X118297215Y-92395156D01*
X118321241Y-92391592D01*
X118345500Y-92390400D01*
X118890500Y-92390400D01*
X118914759Y-92391592D01*
X118914759Y-92391592D01*
G37*
D11*
X118618000Y-92885400D03*
D10*
G36*
X118914759Y-93361592D02*
X118938785Y-93365156D01*
X118962345Y-93371057D01*
X118985214Y-93379240D01*
X119007171Y-93389624D01*
X119028004Y-93402111D01*
X119047512Y-93416580D01*
X119065509Y-93432891D01*
X119081820Y-93450888D01*
X119096289Y-93470396D01*
X119108776Y-93491229D01*
X119119160Y-93513186D01*
X119127343Y-93536055D01*
X119133244Y-93559615D01*
X119136808Y-93583641D01*
X119138000Y-93607900D01*
X119138000Y-94102900D01*
X119136808Y-94127159D01*
X119133244Y-94151185D01*
X119127343Y-94174745D01*
X119119160Y-94197614D01*
X119108776Y-94219571D01*
X119096289Y-94240404D01*
X119081820Y-94259912D01*
X119065509Y-94277909D01*
X119047512Y-94294220D01*
X119028004Y-94308689D01*
X119007171Y-94321176D01*
X118985214Y-94331560D01*
X118962345Y-94339743D01*
X118938785Y-94345644D01*
X118914759Y-94349208D01*
X118890500Y-94350400D01*
X118345500Y-94350400D01*
X118321241Y-94349208D01*
X118297215Y-94345644D01*
X118273655Y-94339743D01*
X118250786Y-94331560D01*
X118228829Y-94321176D01*
X118207996Y-94308689D01*
X118188488Y-94294220D01*
X118170491Y-94277909D01*
X118154180Y-94259912D01*
X118139711Y-94240404D01*
X118127224Y-94219571D01*
X118116840Y-94197614D01*
X118108657Y-94174745D01*
X118102756Y-94151185D01*
X118099192Y-94127159D01*
X118098000Y-94102900D01*
X118098000Y-93607900D01*
X118099192Y-93583641D01*
X118102756Y-93559615D01*
X118108657Y-93536055D01*
X118116840Y-93513186D01*
X118127224Y-93491229D01*
X118139711Y-93470396D01*
X118154180Y-93450888D01*
X118170491Y-93432891D01*
X118188488Y-93416580D01*
X118207996Y-93402111D01*
X118228829Y-93389624D01*
X118250786Y-93379240D01*
X118273655Y-93371057D01*
X118297215Y-93365156D01*
X118321241Y-93361592D01*
X118345500Y-93360400D01*
X118890500Y-93360400D01*
X118914759Y-93361592D01*
X118914759Y-93361592D01*
G37*
D11*
X118618000Y-93855400D03*
G04 #@! TD*
D10*
G04 #@! TO.C,R1*
G36*
X120032359Y-93361592D02*
X120056385Y-93365156D01*
X120079945Y-93371057D01*
X120102814Y-93379240D01*
X120124771Y-93389624D01*
X120145604Y-93402111D01*
X120165112Y-93416580D01*
X120183109Y-93432891D01*
X120199420Y-93450888D01*
X120213889Y-93470396D01*
X120226376Y-93491229D01*
X120236760Y-93513186D01*
X120244943Y-93536055D01*
X120250844Y-93559615D01*
X120254408Y-93583641D01*
X120255600Y-93607900D01*
X120255600Y-94102900D01*
X120254408Y-94127159D01*
X120250844Y-94151185D01*
X120244943Y-94174745D01*
X120236760Y-94197614D01*
X120226376Y-94219571D01*
X120213889Y-94240404D01*
X120199420Y-94259912D01*
X120183109Y-94277909D01*
X120165112Y-94294220D01*
X120145604Y-94308689D01*
X120124771Y-94321176D01*
X120102814Y-94331560D01*
X120079945Y-94339743D01*
X120056385Y-94345644D01*
X120032359Y-94349208D01*
X120008100Y-94350400D01*
X119463100Y-94350400D01*
X119438841Y-94349208D01*
X119414815Y-94345644D01*
X119391255Y-94339743D01*
X119368386Y-94331560D01*
X119346429Y-94321176D01*
X119325596Y-94308689D01*
X119306088Y-94294220D01*
X119288091Y-94277909D01*
X119271780Y-94259912D01*
X119257311Y-94240404D01*
X119244824Y-94219571D01*
X119234440Y-94197614D01*
X119226257Y-94174745D01*
X119220356Y-94151185D01*
X119216792Y-94127159D01*
X119215600Y-94102900D01*
X119215600Y-93607900D01*
X119216792Y-93583641D01*
X119220356Y-93559615D01*
X119226257Y-93536055D01*
X119234440Y-93513186D01*
X119244824Y-93491229D01*
X119257311Y-93470396D01*
X119271780Y-93450888D01*
X119288091Y-93432891D01*
X119306088Y-93416580D01*
X119325596Y-93402111D01*
X119346429Y-93389624D01*
X119368386Y-93379240D01*
X119391255Y-93371057D01*
X119414815Y-93365156D01*
X119438841Y-93361592D01*
X119463100Y-93360400D01*
X120008100Y-93360400D01*
X120032359Y-93361592D01*
X120032359Y-93361592D01*
G37*
D11*
X119735600Y-93855400D03*
D10*
G36*
X120032359Y-92391592D02*
X120056385Y-92395156D01*
X120079945Y-92401057D01*
X120102814Y-92409240D01*
X120124771Y-92419624D01*
X120145604Y-92432111D01*
X120165112Y-92446580D01*
X120183109Y-92462891D01*
X120199420Y-92480888D01*
X120213889Y-92500396D01*
X120226376Y-92521229D01*
X120236760Y-92543186D01*
X120244943Y-92566055D01*
X120250844Y-92589615D01*
X120254408Y-92613641D01*
X120255600Y-92637900D01*
X120255600Y-93132900D01*
X120254408Y-93157159D01*
X120250844Y-93181185D01*
X120244943Y-93204745D01*
X120236760Y-93227614D01*
X120226376Y-93249571D01*
X120213889Y-93270404D01*
X120199420Y-93289912D01*
X120183109Y-93307909D01*
X120165112Y-93324220D01*
X120145604Y-93338689D01*
X120124771Y-93351176D01*
X120102814Y-93361560D01*
X120079945Y-93369743D01*
X120056385Y-93375644D01*
X120032359Y-93379208D01*
X120008100Y-93380400D01*
X119463100Y-93380400D01*
X119438841Y-93379208D01*
X119414815Y-93375644D01*
X119391255Y-93369743D01*
X119368386Y-93361560D01*
X119346429Y-93351176D01*
X119325596Y-93338689D01*
X119306088Y-93324220D01*
X119288091Y-93307909D01*
X119271780Y-93289912D01*
X119257311Y-93270404D01*
X119244824Y-93249571D01*
X119234440Y-93227614D01*
X119226257Y-93204745D01*
X119220356Y-93181185D01*
X119216792Y-93157159D01*
X119215600Y-93132900D01*
X119215600Y-92637900D01*
X119216792Y-92613641D01*
X119220356Y-92589615D01*
X119226257Y-92566055D01*
X119234440Y-92543186D01*
X119244824Y-92521229D01*
X119257311Y-92500396D01*
X119271780Y-92480888D01*
X119288091Y-92462891D01*
X119306088Y-92446580D01*
X119325596Y-92432111D01*
X119346429Y-92419624D01*
X119368386Y-92409240D01*
X119391255Y-92401057D01*
X119414815Y-92395156D01*
X119438841Y-92391592D01*
X119463100Y-92390400D01*
X120008100Y-92390400D01*
X120032359Y-92391592D01*
X120032359Y-92391592D01*
G37*
D11*
X119735600Y-92885400D03*
G04 #@! TD*
D10*
G04 #@! TO.C,R2*
G36*
X117695559Y-93255192D02*
X117719585Y-93258756D01*
X117743145Y-93264657D01*
X117766014Y-93272840D01*
X117787971Y-93283224D01*
X117808804Y-93295711D01*
X117828312Y-93310180D01*
X117846309Y-93326491D01*
X117862620Y-93344488D01*
X117877089Y-93363996D01*
X117889576Y-93384829D01*
X117899960Y-93406786D01*
X117908143Y-93429655D01*
X117914044Y-93453215D01*
X117917608Y-93477241D01*
X117918800Y-93501500D01*
X117918800Y-93996500D01*
X117917608Y-94020759D01*
X117914044Y-94044785D01*
X117908143Y-94068345D01*
X117899960Y-94091214D01*
X117889576Y-94113171D01*
X117877089Y-94134004D01*
X117862620Y-94153512D01*
X117846309Y-94171509D01*
X117828312Y-94187820D01*
X117808804Y-94202289D01*
X117787971Y-94214776D01*
X117766014Y-94225160D01*
X117743145Y-94233343D01*
X117719585Y-94239244D01*
X117695559Y-94242808D01*
X117671300Y-94244000D01*
X117126300Y-94244000D01*
X117102041Y-94242808D01*
X117078015Y-94239244D01*
X117054455Y-94233343D01*
X117031586Y-94225160D01*
X117009629Y-94214776D01*
X116988796Y-94202289D01*
X116969288Y-94187820D01*
X116951291Y-94171509D01*
X116934980Y-94153512D01*
X116920511Y-94134004D01*
X116908024Y-94113171D01*
X116897640Y-94091214D01*
X116889457Y-94068345D01*
X116883556Y-94044785D01*
X116879992Y-94020759D01*
X116878800Y-93996500D01*
X116878800Y-93501500D01*
X116879992Y-93477241D01*
X116883556Y-93453215D01*
X116889457Y-93429655D01*
X116897640Y-93406786D01*
X116908024Y-93384829D01*
X116920511Y-93363996D01*
X116934980Y-93344488D01*
X116951291Y-93326491D01*
X116969288Y-93310180D01*
X116988796Y-93295711D01*
X117009629Y-93283224D01*
X117031586Y-93272840D01*
X117054455Y-93264657D01*
X117078015Y-93258756D01*
X117102041Y-93255192D01*
X117126300Y-93254000D01*
X117671300Y-93254000D01*
X117695559Y-93255192D01*
X117695559Y-93255192D01*
G37*
D11*
X117398800Y-93749000D03*
D10*
G36*
X117695559Y-94225192D02*
X117719585Y-94228756D01*
X117743145Y-94234657D01*
X117766014Y-94242840D01*
X117787971Y-94253224D01*
X117808804Y-94265711D01*
X117828312Y-94280180D01*
X117846309Y-94296491D01*
X117862620Y-94314488D01*
X117877089Y-94333996D01*
X117889576Y-94354829D01*
X117899960Y-94376786D01*
X117908143Y-94399655D01*
X117914044Y-94423215D01*
X117917608Y-94447241D01*
X117918800Y-94471500D01*
X117918800Y-94966500D01*
X117917608Y-94990759D01*
X117914044Y-95014785D01*
X117908143Y-95038345D01*
X117899960Y-95061214D01*
X117889576Y-95083171D01*
X117877089Y-95104004D01*
X117862620Y-95123512D01*
X117846309Y-95141509D01*
X117828312Y-95157820D01*
X117808804Y-95172289D01*
X117787971Y-95184776D01*
X117766014Y-95195160D01*
X117743145Y-95203343D01*
X117719585Y-95209244D01*
X117695559Y-95212808D01*
X117671300Y-95214000D01*
X117126300Y-95214000D01*
X117102041Y-95212808D01*
X117078015Y-95209244D01*
X117054455Y-95203343D01*
X117031586Y-95195160D01*
X117009629Y-95184776D01*
X116988796Y-95172289D01*
X116969288Y-95157820D01*
X116951291Y-95141509D01*
X116934980Y-95123512D01*
X116920511Y-95104004D01*
X116908024Y-95083171D01*
X116897640Y-95061214D01*
X116889457Y-95038345D01*
X116883556Y-95014785D01*
X116879992Y-94990759D01*
X116878800Y-94966500D01*
X116878800Y-94471500D01*
X116879992Y-94447241D01*
X116883556Y-94423215D01*
X116889457Y-94399655D01*
X116897640Y-94376786D01*
X116908024Y-94354829D01*
X116920511Y-94333996D01*
X116934980Y-94314488D01*
X116951291Y-94296491D01*
X116969288Y-94280180D01*
X116988796Y-94265711D01*
X117009629Y-94253224D01*
X117031586Y-94242840D01*
X117054455Y-94234657D01*
X117078015Y-94228756D01*
X117102041Y-94225192D01*
X117126300Y-94224000D01*
X117671300Y-94224000D01*
X117695559Y-94225192D01*
X117695559Y-94225192D01*
G37*
D11*
X117398800Y-94719000D03*
G04 #@! TD*
D10*
G04 #@! TO.C,R3*
G36*
X120035159Y-94756592D02*
X120059185Y-94760156D01*
X120082745Y-94766057D01*
X120105614Y-94774240D01*
X120127571Y-94784624D01*
X120148404Y-94797111D01*
X120167912Y-94811580D01*
X120185909Y-94827891D01*
X120202220Y-94845888D01*
X120216689Y-94865396D01*
X120229176Y-94886229D01*
X120239560Y-94908186D01*
X120247743Y-94931055D01*
X120253644Y-94954615D01*
X120257208Y-94978641D01*
X120258400Y-95002900D01*
X120258400Y-95547900D01*
X120257208Y-95572159D01*
X120253644Y-95596185D01*
X120247743Y-95619745D01*
X120239560Y-95642614D01*
X120229176Y-95664571D01*
X120216689Y-95685404D01*
X120202220Y-95704912D01*
X120185909Y-95722909D01*
X120167912Y-95739220D01*
X120148404Y-95753689D01*
X120127571Y-95766176D01*
X120105614Y-95776560D01*
X120082745Y-95784743D01*
X120059185Y-95790644D01*
X120035159Y-95794208D01*
X120010900Y-95795400D01*
X119515900Y-95795400D01*
X119491641Y-95794208D01*
X119467615Y-95790644D01*
X119444055Y-95784743D01*
X119421186Y-95776560D01*
X119399229Y-95766176D01*
X119378396Y-95753689D01*
X119358888Y-95739220D01*
X119340891Y-95722909D01*
X119324580Y-95704912D01*
X119310111Y-95685404D01*
X119297624Y-95664571D01*
X119287240Y-95642614D01*
X119279057Y-95619745D01*
X119273156Y-95596185D01*
X119269592Y-95572159D01*
X119268400Y-95547900D01*
X119268400Y-95002900D01*
X119269592Y-94978641D01*
X119273156Y-94954615D01*
X119279057Y-94931055D01*
X119287240Y-94908186D01*
X119297624Y-94886229D01*
X119310111Y-94865396D01*
X119324580Y-94845888D01*
X119340891Y-94827891D01*
X119358888Y-94811580D01*
X119378396Y-94797111D01*
X119399229Y-94784624D01*
X119421186Y-94774240D01*
X119444055Y-94766057D01*
X119467615Y-94760156D01*
X119491641Y-94756592D01*
X119515900Y-94755400D01*
X120010900Y-94755400D01*
X120035159Y-94756592D01*
X120035159Y-94756592D01*
G37*
D11*
X119763400Y-95275400D03*
D10*
G36*
X119065159Y-94756592D02*
X119089185Y-94760156D01*
X119112745Y-94766057D01*
X119135614Y-94774240D01*
X119157571Y-94784624D01*
X119178404Y-94797111D01*
X119197912Y-94811580D01*
X119215909Y-94827891D01*
X119232220Y-94845888D01*
X119246689Y-94865396D01*
X119259176Y-94886229D01*
X119269560Y-94908186D01*
X119277743Y-94931055D01*
X119283644Y-94954615D01*
X119287208Y-94978641D01*
X119288400Y-95002900D01*
X119288400Y-95547900D01*
X119287208Y-95572159D01*
X119283644Y-95596185D01*
X119277743Y-95619745D01*
X119269560Y-95642614D01*
X119259176Y-95664571D01*
X119246689Y-95685404D01*
X119232220Y-95704912D01*
X119215909Y-95722909D01*
X119197912Y-95739220D01*
X119178404Y-95753689D01*
X119157571Y-95766176D01*
X119135614Y-95776560D01*
X119112745Y-95784743D01*
X119089185Y-95790644D01*
X119065159Y-95794208D01*
X119040900Y-95795400D01*
X118545900Y-95795400D01*
X118521641Y-95794208D01*
X118497615Y-95790644D01*
X118474055Y-95784743D01*
X118451186Y-95776560D01*
X118429229Y-95766176D01*
X118408396Y-95753689D01*
X118388888Y-95739220D01*
X118370891Y-95722909D01*
X118354580Y-95704912D01*
X118340111Y-95685404D01*
X118327624Y-95664571D01*
X118317240Y-95642614D01*
X118309057Y-95619745D01*
X118303156Y-95596185D01*
X118299592Y-95572159D01*
X118298400Y-95547900D01*
X118298400Y-95002900D01*
X118299592Y-94978641D01*
X118303156Y-94954615D01*
X118309057Y-94931055D01*
X118317240Y-94908186D01*
X118327624Y-94886229D01*
X118340111Y-94865396D01*
X118354580Y-94845888D01*
X118370891Y-94827891D01*
X118388888Y-94811580D01*
X118408396Y-94797111D01*
X118429229Y-94784624D01*
X118451186Y-94774240D01*
X118474055Y-94766057D01*
X118497615Y-94760156D01*
X118521641Y-94756592D01*
X118545900Y-94755400D01*
X119040900Y-94755400D01*
X119065159Y-94756592D01*
X119065159Y-94756592D01*
G37*
D11*
X118793400Y-95275400D03*
G04 #@! TD*
M02*
