G04 #@! TF.FileFunction,Soldermask,Top*
%FSLAX46Y46*%
G04 Gerber Fmt 4.6, Leading zero omitted, Abs format (unit mm)*
G04 Created by KiCad (PCBNEW 4.0.7) date 05/30/18 17:56:51*
%MOMM*%
%LPD*%
G01*
G04 APERTURE LIST*
%ADD10C,0.100000*%
%ADD11O,2.400000X1.100000*%
%ADD12O,1.100000X2.400000*%
%ADD13R,2.152600X2.152600*%
%ADD14C,2.152600*%
%ADD15R,2.100000X2.100000*%
%ADD16O,2.100000X2.100000*%
%ADD17R,1.900000X1.650000*%
G04 APERTURE END LIST*
D10*
D11*
X139792990Y-71476880D03*
X139792990Y-83576880D03*
D12*
X147942980Y-86876880D03*
X149042980Y-86876880D03*
X145742980Y-86876880D03*
D11*
X139792990Y-74776880D03*
X139792990Y-75876880D03*
X139792990Y-76976880D03*
X139792990Y-78076880D03*
X139792990Y-79176880D03*
X139792990Y-80276880D03*
X139792990Y-82476880D03*
D12*
X142442980Y-86876880D03*
X143542980Y-86876880D03*
X144642980Y-86876880D03*
D11*
X139792990Y-72576880D03*
X139792990Y-81376880D03*
X139792990Y-73676880D03*
D12*
X146842980Y-86876880D03*
D11*
X157192980Y-72576880D03*
D12*
X153442980Y-86876880D03*
X154542980Y-86876880D03*
D11*
X157192980Y-83576880D03*
X157192980Y-82476880D03*
X157192980Y-81376880D03*
X157192980Y-80276880D03*
X157192980Y-78076880D03*
X157192980Y-76976880D03*
X157192980Y-75876880D03*
X157192980Y-74776880D03*
X157192980Y-73676880D03*
D12*
X151242980Y-86876880D03*
D11*
X157192980Y-79176880D03*
D12*
X152342980Y-86876880D03*
D11*
X157192980Y-71476880D03*
D12*
X150142980Y-86876880D03*
D13*
X140881100Y-117449600D03*
D14*
X140881100Y-114909600D03*
X140881100Y-112369600D03*
X140881100Y-109829600D03*
X140881100Y-107289600D03*
X140881100Y-104749600D03*
X140881100Y-102209600D03*
X140881100Y-99669600D03*
X140881100Y-97129600D03*
X140881100Y-94589600D03*
X140881100Y-92049600D03*
X140881100Y-89509600D03*
X156121100Y-89509600D03*
X156121100Y-92049600D03*
X156121100Y-94589600D03*
X156121100Y-97129600D03*
X156121100Y-99669600D03*
X156121100Y-102209600D03*
X156121100Y-104749600D03*
X156121100Y-107289600D03*
X156121100Y-109829600D03*
X156121100Y-112369600D03*
X156121100Y-114909600D03*
X156121100Y-117449600D03*
D15*
X147066000Y-95758000D03*
D16*
X149606000Y-95758000D03*
X147066000Y-98298000D03*
X149606000Y-98298000D03*
X147066000Y-100838000D03*
X149606000Y-100838000D03*
X147066000Y-103378000D03*
X149606000Y-103378000D03*
X147066000Y-105918000D03*
X149606000Y-105918000D03*
X147066000Y-108458000D03*
X149606000Y-108458000D03*
D15*
X152400000Y-116840000D03*
D16*
X149860000Y-116840000D03*
X147320000Y-116840000D03*
X144780000Y-116840000D03*
D17*
X147157120Y-112623600D03*
X149657120Y-112623600D03*
M02*
