G04 #@! TF.FileFunction,Legend,Top*
%FSLAX46Y46*%
G04 Gerber Fmt 4.6, Leading zero omitted, Abs format (unit mm)*
G04 Created by KiCad (PCBNEW 4.0.7) date 05/30/18 17:56:51*
%MOMM*%
%LPD*%
G01*
G04 APERTURE LIST*
%ADD10C,0.100000*%
%ADD11C,0.300000*%
%ADD12C,0.381000*%
%ADD13C,0.120000*%
%ADD14C,0.150000*%
G04 APERTURE END LIST*
D10*
X151410682Y-108694350D02*
X151124968Y-108694350D01*
X151267825Y-108694350D02*
X151267825Y-108194350D01*
X151220206Y-108265779D01*
X151172587Y-108313398D01*
X151124968Y-108337208D01*
X151863063Y-108194350D02*
X151624968Y-108194350D01*
X151601158Y-108432446D01*
X151624968Y-108408636D01*
X151672587Y-108384827D01*
X151791634Y-108384827D01*
X151839253Y-108408636D01*
X151863063Y-108432446D01*
X151886872Y-108480065D01*
X151886872Y-108599112D01*
X151863063Y-108646731D01*
X151839253Y-108670541D01*
X151791634Y-108694350D01*
X151672587Y-108694350D01*
X151624968Y-108670541D01*
X151601158Y-108646731D01*
X151410682Y-106189910D02*
X151124968Y-106189910D01*
X151267825Y-106189910D02*
X151267825Y-105689910D01*
X151220206Y-105761339D01*
X151172587Y-105808958D01*
X151124968Y-105832768D01*
X151839253Y-105689910D02*
X151744015Y-105689910D01*
X151696396Y-105713720D01*
X151672587Y-105737530D01*
X151624968Y-105808958D01*
X151601158Y-105904196D01*
X151601158Y-106094672D01*
X151624968Y-106142291D01*
X151648777Y-106166101D01*
X151696396Y-106189910D01*
X151791634Y-106189910D01*
X151839253Y-106166101D01*
X151863063Y-106142291D01*
X151886872Y-106094672D01*
X151886872Y-105975625D01*
X151863063Y-105928006D01*
X151839253Y-105904196D01*
X151791634Y-105880387D01*
X151696396Y-105880387D01*
X151648777Y-105904196D01*
X151624968Y-105928006D01*
X151601158Y-105975625D01*
X151446242Y-103535610D02*
X151160528Y-103535610D01*
X151303385Y-103535610D02*
X151303385Y-103035610D01*
X151255766Y-103107039D01*
X151208147Y-103154658D01*
X151160528Y-103178468D01*
X151612909Y-103035610D02*
X151946242Y-103035610D01*
X151731956Y-103535610D01*
X151410682Y-100954970D02*
X151124968Y-100954970D01*
X151267825Y-100954970D02*
X151267825Y-100454970D01*
X151220206Y-100526399D01*
X151172587Y-100574018D01*
X151124968Y-100597828D01*
X151696396Y-100669256D02*
X151648777Y-100645447D01*
X151624968Y-100621637D01*
X151601158Y-100574018D01*
X151601158Y-100550209D01*
X151624968Y-100502590D01*
X151648777Y-100478780D01*
X151696396Y-100454970D01*
X151791634Y-100454970D01*
X151839253Y-100478780D01*
X151863063Y-100502590D01*
X151886872Y-100550209D01*
X151886872Y-100574018D01*
X151863063Y-100621637D01*
X151839253Y-100645447D01*
X151791634Y-100669256D01*
X151696396Y-100669256D01*
X151648777Y-100693066D01*
X151624968Y-100716875D01*
X151601158Y-100764494D01*
X151601158Y-100859732D01*
X151624968Y-100907351D01*
X151648777Y-100931161D01*
X151696396Y-100954970D01*
X151791634Y-100954970D01*
X151839253Y-100931161D01*
X151863063Y-100907351D01*
X151886872Y-100859732D01*
X151886872Y-100764494D01*
X151863063Y-100716875D01*
X151839253Y-100693066D01*
X151791634Y-100669256D01*
X151446242Y-98486090D02*
X151160528Y-98486090D01*
X151303385Y-98486090D02*
X151303385Y-97986090D01*
X151255766Y-98057519D01*
X151208147Y-98105138D01*
X151160528Y-98128948D01*
X151684337Y-98486090D02*
X151779575Y-98486090D01*
X151827194Y-98462281D01*
X151851004Y-98438471D01*
X151898623Y-98367043D01*
X151922432Y-98271805D01*
X151922432Y-98081329D01*
X151898623Y-98033710D01*
X151874813Y-98009900D01*
X151827194Y-97986090D01*
X151731956Y-97986090D01*
X151684337Y-98009900D01*
X151660528Y-98033710D01*
X151636718Y-98081329D01*
X151636718Y-98200376D01*
X151660528Y-98247995D01*
X151684337Y-98271805D01*
X151731956Y-98295614D01*
X151827194Y-98295614D01*
X151874813Y-98271805D01*
X151898623Y-98247995D01*
X151922432Y-98200376D01*
X151160528Y-95526730D02*
X151184338Y-95502920D01*
X151231957Y-95479110D01*
X151351004Y-95479110D01*
X151398623Y-95502920D01*
X151422433Y-95526730D01*
X151446242Y-95574349D01*
X151446242Y-95621968D01*
X151422433Y-95693396D01*
X151136719Y-95979110D01*
X151446242Y-95979110D01*
X151755766Y-95479110D02*
X151803385Y-95479110D01*
X151851004Y-95502920D01*
X151874813Y-95526730D01*
X151898623Y-95574349D01*
X151922432Y-95669587D01*
X151922432Y-95788634D01*
X151898623Y-95883872D01*
X151874813Y-95931491D01*
X151851004Y-95955301D01*
X151803385Y-95979110D01*
X151755766Y-95979110D01*
X151708147Y-95955301D01*
X151684337Y-95931491D01*
X151660528Y-95883872D01*
X151636718Y-95788634D01*
X151636718Y-95669587D01*
X151660528Y-95574349D01*
X151684337Y-95526730D01*
X151708147Y-95502920D01*
X151755766Y-95479110D01*
X144879108Y-103194990D02*
X144902918Y-103171180D01*
X144950537Y-103147370D01*
X145069584Y-103147370D01*
X145117203Y-103171180D01*
X145141013Y-103194990D01*
X145164822Y-103242609D01*
X145164822Y-103290228D01*
X145141013Y-103361656D01*
X144855299Y-103647370D01*
X145164822Y-103647370D01*
X145593393Y-103314037D02*
X145593393Y-103647370D01*
X145474346Y-103123561D02*
X145355298Y-103480704D01*
X145664822Y-103480704D01*
X144767348Y-100726110D02*
X144791158Y-100702300D01*
X144838777Y-100678490D01*
X144957824Y-100678490D01*
X145005443Y-100702300D01*
X145029253Y-100726110D01*
X145053062Y-100773729D01*
X145053062Y-100821348D01*
X145029253Y-100892776D01*
X144743539Y-101178490D01*
X145053062Y-101178490D01*
X145219729Y-100678490D02*
X145529252Y-100678490D01*
X145362586Y-100868967D01*
X145434014Y-100868967D01*
X145481633Y-100892776D01*
X145505443Y-100916586D01*
X145529252Y-100964205D01*
X145529252Y-101083252D01*
X145505443Y-101130871D01*
X145481633Y-101154681D01*
X145434014Y-101178490D01*
X145291157Y-101178490D01*
X145243538Y-101154681D01*
X145219729Y-101130871D01*
X144729248Y-98107370D02*
X144753058Y-98083560D01*
X144800677Y-98059750D01*
X144919724Y-98059750D01*
X144967343Y-98083560D01*
X144991153Y-98107370D01*
X145014962Y-98154989D01*
X145014962Y-98202608D01*
X144991153Y-98274036D01*
X144705439Y-98559750D01*
X145014962Y-98559750D01*
X145205438Y-98107370D02*
X145229248Y-98083560D01*
X145276867Y-98059750D01*
X145395914Y-98059750D01*
X145443533Y-98083560D01*
X145467343Y-98107370D01*
X145491152Y-98154989D01*
X145491152Y-98202608D01*
X145467343Y-98274036D01*
X145181629Y-98559750D01*
X145491152Y-98559750D01*
X144841008Y-95676590D02*
X144864818Y-95652780D01*
X144912437Y-95628970D01*
X145031484Y-95628970D01*
X145079103Y-95652780D01*
X145102913Y-95676590D01*
X145126722Y-95724209D01*
X145126722Y-95771828D01*
X145102913Y-95843256D01*
X144817199Y-96128970D01*
X145126722Y-96128970D01*
X145602912Y-96128970D02*
X145317198Y-96128970D01*
X145460055Y-96128970D02*
X145460055Y-95628970D01*
X145412436Y-95700399D01*
X145364817Y-95748018D01*
X145317198Y-95771828D01*
X138609439Y-89421210D02*
X138918962Y-89421210D01*
X138752296Y-89611687D01*
X138823724Y-89611687D01*
X138871343Y-89635496D01*
X138895153Y-89659306D01*
X138918962Y-89706925D01*
X138918962Y-89825972D01*
X138895153Y-89873591D01*
X138871343Y-89897401D01*
X138823724Y-89921210D01*
X138680867Y-89921210D01*
X138633248Y-89897401D01*
X138609439Y-89873591D01*
X139228486Y-89421210D02*
X139276105Y-89421210D01*
X139323724Y-89445020D01*
X139347533Y-89468830D01*
X139371343Y-89516449D01*
X139395152Y-89611687D01*
X139395152Y-89730734D01*
X139371343Y-89825972D01*
X139347533Y-89873591D01*
X139323724Y-89897401D01*
X139276105Y-89921210D01*
X139228486Y-89921210D01*
X139180867Y-89897401D01*
X139157057Y-89873591D01*
X139133248Y-89825972D01*
X139109438Y-89730734D01*
X139109438Y-89611687D01*
X139133248Y-89516449D01*
X139157057Y-89468830D01*
X139180867Y-89445020D01*
X139228486Y-89421210D01*
X138714196Y-92001850D02*
X138761815Y-92001850D01*
X138809434Y-92025660D01*
X138833243Y-92049470D01*
X138857053Y-92097089D01*
X138880862Y-92192327D01*
X138880862Y-92311374D01*
X138857053Y-92406612D01*
X138833243Y-92454231D01*
X138809434Y-92478041D01*
X138761815Y-92501850D01*
X138714196Y-92501850D01*
X138666577Y-92478041D01*
X138642767Y-92454231D01*
X138618958Y-92406612D01*
X138595148Y-92311374D01*
X138595148Y-92192327D01*
X138618958Y-92097089D01*
X138642767Y-92049470D01*
X138666577Y-92025660D01*
X138714196Y-92001850D01*
X139190386Y-92001850D02*
X139238005Y-92001850D01*
X139285624Y-92025660D01*
X139309433Y-92049470D01*
X139333243Y-92097089D01*
X139357052Y-92192327D01*
X139357052Y-92311374D01*
X139333243Y-92406612D01*
X139309433Y-92454231D01*
X139285624Y-92478041D01*
X139238005Y-92501850D01*
X139190386Y-92501850D01*
X139142767Y-92478041D01*
X139118957Y-92454231D01*
X139095148Y-92406612D01*
X139071338Y-92311374D01*
X139071338Y-92192327D01*
X139095148Y-92097089D01*
X139118957Y-92049470D01*
X139142767Y-92025660D01*
X139190386Y-92001850D01*
X138790396Y-94432630D02*
X138838015Y-94432630D01*
X138885634Y-94456440D01*
X138909443Y-94480250D01*
X138933253Y-94527869D01*
X138957062Y-94623107D01*
X138957062Y-94742154D01*
X138933253Y-94837392D01*
X138909443Y-94885011D01*
X138885634Y-94908821D01*
X138838015Y-94932630D01*
X138790396Y-94932630D01*
X138742777Y-94908821D01*
X138718967Y-94885011D01*
X138695158Y-94837392D01*
X138671348Y-94742154D01*
X138671348Y-94623107D01*
X138695158Y-94527869D01*
X138718967Y-94480250D01*
X138742777Y-94456440D01*
X138790396Y-94432630D01*
X139433252Y-94932630D02*
X139147538Y-94932630D01*
X139290395Y-94932630D02*
X139290395Y-94432630D01*
X139242776Y-94504059D01*
X139195157Y-94551678D01*
X139147538Y-94575488D01*
X138714196Y-96939610D02*
X138761815Y-96939610D01*
X138809434Y-96963420D01*
X138833243Y-96987230D01*
X138857053Y-97034849D01*
X138880862Y-97130087D01*
X138880862Y-97249134D01*
X138857053Y-97344372D01*
X138833243Y-97391991D01*
X138809434Y-97415801D01*
X138761815Y-97439610D01*
X138714196Y-97439610D01*
X138666577Y-97415801D01*
X138642767Y-97391991D01*
X138618958Y-97344372D01*
X138595148Y-97249134D01*
X138595148Y-97130087D01*
X138618958Y-97034849D01*
X138642767Y-96987230D01*
X138666577Y-96963420D01*
X138714196Y-96939610D01*
X139071338Y-96987230D02*
X139095148Y-96963420D01*
X139142767Y-96939610D01*
X139261814Y-96939610D01*
X139309433Y-96963420D01*
X139333243Y-96987230D01*
X139357052Y-97034849D01*
X139357052Y-97082468D01*
X139333243Y-97153896D01*
X139047529Y-97439610D01*
X139357052Y-97439610D01*
X138678636Y-99593910D02*
X138726255Y-99593910D01*
X138773874Y-99617720D01*
X138797683Y-99641530D01*
X138821493Y-99689149D01*
X138845302Y-99784387D01*
X138845302Y-99903434D01*
X138821493Y-99998672D01*
X138797683Y-100046291D01*
X138773874Y-100070101D01*
X138726255Y-100093910D01*
X138678636Y-100093910D01*
X138631017Y-100070101D01*
X138607207Y-100046291D01*
X138583398Y-99998672D01*
X138559588Y-99903434D01*
X138559588Y-99784387D01*
X138583398Y-99689149D01*
X138607207Y-99641530D01*
X138631017Y-99617720D01*
X138678636Y-99593910D01*
X139011969Y-99593910D02*
X139321492Y-99593910D01*
X139154826Y-99784387D01*
X139226254Y-99784387D01*
X139273873Y-99808196D01*
X139297683Y-99832006D01*
X139321492Y-99879625D01*
X139321492Y-99998672D01*
X139297683Y-100046291D01*
X139273873Y-100070101D01*
X139226254Y-100093910D01*
X139083397Y-100093910D01*
X139035778Y-100070101D01*
X139011969Y-100046291D01*
X138714196Y-102098350D02*
X138761815Y-102098350D01*
X138809434Y-102122160D01*
X138833243Y-102145970D01*
X138857053Y-102193589D01*
X138880862Y-102288827D01*
X138880862Y-102407874D01*
X138857053Y-102503112D01*
X138833243Y-102550731D01*
X138809434Y-102574541D01*
X138761815Y-102598350D01*
X138714196Y-102598350D01*
X138666577Y-102574541D01*
X138642767Y-102550731D01*
X138618958Y-102503112D01*
X138595148Y-102407874D01*
X138595148Y-102288827D01*
X138618958Y-102193589D01*
X138642767Y-102145970D01*
X138666577Y-102122160D01*
X138714196Y-102098350D01*
X139309433Y-102265017D02*
X139309433Y-102598350D01*
X139190386Y-102074541D02*
X139071338Y-102431684D01*
X139380862Y-102431684D01*
X138559588Y-104764710D02*
X138583398Y-104740900D01*
X138631017Y-104717090D01*
X138750064Y-104717090D01*
X138797683Y-104740900D01*
X138821493Y-104764710D01*
X138845302Y-104812329D01*
X138845302Y-104859948D01*
X138821493Y-104931376D01*
X138535779Y-105217090D01*
X138845302Y-105217090D01*
X139083397Y-105217090D02*
X139178635Y-105217090D01*
X139226254Y-105193281D01*
X139250064Y-105169471D01*
X139297683Y-105098043D01*
X139321492Y-105002805D01*
X139321492Y-104812329D01*
X139297683Y-104764710D01*
X139273873Y-104740900D01*
X139226254Y-104717090D01*
X139131016Y-104717090D01*
X139083397Y-104740900D01*
X139059588Y-104764710D01*
X139035778Y-104812329D01*
X139035778Y-104931376D01*
X139059588Y-104978995D01*
X139083397Y-105002805D01*
X139131016Y-105026614D01*
X139226254Y-105026614D01*
X139273873Y-105002805D01*
X139297683Y-104978995D01*
X139321492Y-104931376D01*
X138633248Y-107233590D02*
X138657058Y-107209780D01*
X138704677Y-107185970D01*
X138823724Y-107185970D01*
X138871343Y-107209780D01*
X138895153Y-107233590D01*
X138918962Y-107281209D01*
X138918962Y-107328828D01*
X138895153Y-107400256D01*
X138609439Y-107685970D01*
X138918962Y-107685970D01*
X139204676Y-107400256D02*
X139157057Y-107376447D01*
X139133248Y-107352637D01*
X139109438Y-107305018D01*
X139109438Y-107281209D01*
X139133248Y-107233590D01*
X139157057Y-107209780D01*
X139204676Y-107185970D01*
X139299914Y-107185970D01*
X139347533Y-107209780D01*
X139371343Y-107233590D01*
X139395152Y-107281209D01*
X139395152Y-107305018D01*
X139371343Y-107352637D01*
X139347533Y-107376447D01*
X139299914Y-107400256D01*
X139204676Y-107400256D01*
X139157057Y-107424066D01*
X139133248Y-107447875D01*
X139109438Y-107495494D01*
X139109438Y-107590732D01*
X139133248Y-107638351D01*
X139157057Y-107662161D01*
X139204676Y-107685970D01*
X139299914Y-107685970D01*
X139347533Y-107662161D01*
X139371343Y-107638351D01*
X139395152Y-107590732D01*
X139395152Y-107495494D01*
X139371343Y-107447875D01*
X139347533Y-107424066D01*
X139299914Y-107400256D01*
X138685354Y-109652310D02*
X138852021Y-110152310D01*
X139018687Y-109652310D01*
X139471068Y-110104691D02*
X139447258Y-110128501D01*
X139375830Y-110152310D01*
X139328211Y-110152310D01*
X139256782Y-110128501D01*
X139209163Y-110080882D01*
X139185354Y-110033263D01*
X139161544Y-109938025D01*
X139161544Y-109866596D01*
X139185354Y-109771358D01*
X139209163Y-109723739D01*
X139256782Y-109676120D01*
X139328211Y-109652310D01*
X139375830Y-109652310D01*
X139447258Y-109676120D01*
X139471068Y-109699930D01*
X139971068Y-110104691D02*
X139947258Y-110128501D01*
X139875830Y-110152310D01*
X139828211Y-110152310D01*
X139756782Y-110128501D01*
X139709163Y-110080882D01*
X139685354Y-110033263D01*
X139661544Y-109938025D01*
X139661544Y-109866596D01*
X139685354Y-109771358D01*
X139709163Y-109723739D01*
X139756782Y-109676120D01*
X139828211Y-109652310D01*
X139875830Y-109652310D01*
X139947258Y-109676120D01*
X139971068Y-109699930D01*
X138595148Y-112280570D02*
X138618958Y-112256760D01*
X138666577Y-112232950D01*
X138785624Y-112232950D01*
X138833243Y-112256760D01*
X138857053Y-112280570D01*
X138880862Y-112328189D01*
X138880862Y-112375808D01*
X138857053Y-112447236D01*
X138571339Y-112732950D01*
X138880862Y-112732950D01*
X139333243Y-112232950D02*
X139095148Y-112232950D01*
X139071338Y-112471046D01*
X139095148Y-112447236D01*
X139142767Y-112423427D01*
X139261814Y-112423427D01*
X139309433Y-112447236D01*
X139333243Y-112471046D01*
X139357052Y-112518665D01*
X139357052Y-112637712D01*
X139333243Y-112685331D01*
X139309433Y-112709141D01*
X139261814Y-112732950D01*
X139142767Y-112732950D01*
X139095148Y-112709141D01*
X139071338Y-112685331D01*
X138783107Y-114763740D02*
X138735488Y-114739930D01*
X138664060Y-114739930D01*
X138592631Y-114763740D01*
X138545012Y-114811359D01*
X138521203Y-114858978D01*
X138497393Y-114954216D01*
X138497393Y-115025645D01*
X138521203Y-115120883D01*
X138545012Y-115168502D01*
X138592631Y-115216121D01*
X138664060Y-115239930D01*
X138711679Y-115239930D01*
X138783107Y-115216121D01*
X138806917Y-115192311D01*
X138806917Y-115025645D01*
X138711679Y-115025645D01*
X139021203Y-115239930D02*
X139021203Y-114739930D01*
X139306917Y-115239930D01*
X139306917Y-114739930D01*
X139545013Y-115239930D02*
X139545013Y-114739930D01*
X139664060Y-114739930D01*
X139735489Y-114763740D01*
X139783108Y-114811359D01*
X139806917Y-114858978D01*
X139830727Y-114954216D01*
X139830727Y-115025645D01*
X139806917Y-115120883D01*
X139783108Y-115168502D01*
X139735489Y-115216121D01*
X139664060Y-115239930D01*
X139545013Y-115239930D01*
X157991822Y-117670710D02*
X157706108Y-117670710D01*
X157848965Y-117670710D02*
X157848965Y-117170710D01*
X157801346Y-117242139D01*
X157753727Y-117289758D01*
X157706108Y-117313568D01*
X158420393Y-117337377D02*
X158420393Y-117670710D01*
X158301346Y-117146901D02*
X158182298Y-117504044D01*
X158491822Y-117504044D01*
X157953722Y-115209450D02*
X157668008Y-115209450D01*
X157810865Y-115209450D02*
X157810865Y-114709450D01*
X157763246Y-114780879D01*
X157715627Y-114828498D01*
X157668008Y-114852308D01*
X158120389Y-114709450D02*
X158429912Y-114709450D01*
X158263246Y-114899927D01*
X158334674Y-114899927D01*
X158382293Y-114923736D01*
X158406103Y-114947546D01*
X158429912Y-114995165D01*
X158429912Y-115114212D01*
X158406103Y-115161831D01*
X158382293Y-115185641D01*
X158334674Y-115209450D01*
X158191817Y-115209450D01*
X158144198Y-115185641D01*
X158120389Y-115161831D01*
X157594347Y-112002760D02*
X157546728Y-111978950D01*
X157475300Y-111978950D01*
X157403871Y-112002760D01*
X157356252Y-112050379D01*
X157332443Y-112097998D01*
X157308633Y-112193236D01*
X157308633Y-112264665D01*
X157332443Y-112359903D01*
X157356252Y-112407522D01*
X157403871Y-112455141D01*
X157475300Y-112478950D01*
X157522919Y-112478950D01*
X157594347Y-112455141D01*
X157618157Y-112431331D01*
X157618157Y-112264665D01*
X157522919Y-112264665D01*
X157832443Y-112478950D02*
X157832443Y-111978950D01*
X158118157Y-112478950D01*
X158118157Y-111978950D01*
X158356253Y-112478950D02*
X158356253Y-111978950D01*
X158475300Y-111978950D01*
X158546729Y-112002760D01*
X158594348Y-112050379D01*
X158618157Y-112097998D01*
X158641967Y-112193236D01*
X158641967Y-112264665D01*
X158618157Y-112359903D01*
X158594348Y-112407522D01*
X158546729Y-112455141D01*
X158475300Y-112478950D01*
X158356253Y-112478950D01*
X157556247Y-109536420D02*
X157508628Y-109512610D01*
X157437200Y-109512610D01*
X157365771Y-109536420D01*
X157318152Y-109584039D01*
X157294343Y-109631658D01*
X157270533Y-109726896D01*
X157270533Y-109798325D01*
X157294343Y-109893563D01*
X157318152Y-109941182D01*
X157365771Y-109988801D01*
X157437200Y-110012610D01*
X157484819Y-110012610D01*
X157556247Y-109988801D01*
X157580057Y-109964991D01*
X157580057Y-109798325D01*
X157484819Y-109798325D01*
X157794343Y-110012610D02*
X157794343Y-109512610D01*
X158080057Y-110012610D01*
X158080057Y-109512610D01*
X158318153Y-110012610D02*
X158318153Y-109512610D01*
X158437200Y-109512610D01*
X158508629Y-109536420D01*
X158556248Y-109584039D01*
X158580057Y-109631658D01*
X158603867Y-109726896D01*
X158603867Y-109798325D01*
X158580057Y-109893563D01*
X158556248Y-109941182D01*
X158508629Y-109988801D01*
X158437200Y-110012610D01*
X158318153Y-110012610D01*
X158029922Y-107505630D02*
X157744208Y-107505630D01*
X157887065Y-107505630D02*
X157887065Y-107005630D01*
X157839446Y-107077059D01*
X157791827Y-107124678D01*
X157744208Y-107148488D01*
X158220398Y-107053250D02*
X158244208Y-107029440D01*
X158291827Y-107005630D01*
X158410874Y-107005630D01*
X158458493Y-107029440D01*
X158482303Y-107053250D01*
X158506112Y-107100869D01*
X158506112Y-107148488D01*
X158482303Y-107219916D01*
X158196589Y-107505630D01*
X158506112Y-107505630D01*
X158029922Y-104963090D02*
X157744208Y-104963090D01*
X157887065Y-104963090D02*
X157887065Y-104463090D01*
X157839446Y-104534519D01*
X157791827Y-104582138D01*
X157744208Y-104605948D01*
X158506112Y-104963090D02*
X158220398Y-104963090D01*
X158363255Y-104963090D02*
X158363255Y-104463090D01*
X158315636Y-104534519D01*
X158268017Y-104582138D01*
X158220398Y-104605948D01*
X157825156Y-101956110D02*
X157872775Y-101956110D01*
X157920394Y-101979920D01*
X157944203Y-102003730D01*
X157968013Y-102051349D01*
X157991822Y-102146587D01*
X157991822Y-102265634D01*
X157968013Y-102360872D01*
X157944203Y-102408491D01*
X157920394Y-102432301D01*
X157872775Y-102456110D01*
X157825156Y-102456110D01*
X157777537Y-102432301D01*
X157753727Y-102408491D01*
X157729918Y-102360872D01*
X157706108Y-102265634D01*
X157706108Y-102146587D01*
X157729918Y-102051349D01*
X157753727Y-102003730D01*
X157777537Y-101979920D01*
X157825156Y-101956110D01*
X158444203Y-101956110D02*
X158206108Y-101956110D01*
X158182298Y-102194206D01*
X158206108Y-102170396D01*
X158253727Y-102146587D01*
X158372774Y-102146587D01*
X158420393Y-102170396D01*
X158444203Y-102194206D01*
X158468012Y-102241825D01*
X158468012Y-102360872D01*
X158444203Y-102408491D01*
X158420393Y-102432301D01*
X158372774Y-102456110D01*
X158253727Y-102456110D01*
X158206108Y-102432301D01*
X158182298Y-102408491D01*
X157863256Y-99339910D02*
X157910875Y-99339910D01*
X157958494Y-99363720D01*
X157982303Y-99387530D01*
X158006113Y-99435149D01*
X158029922Y-99530387D01*
X158029922Y-99649434D01*
X158006113Y-99744672D01*
X157982303Y-99792291D01*
X157958494Y-99816101D01*
X157910875Y-99839910D01*
X157863256Y-99839910D01*
X157815637Y-99816101D01*
X157791827Y-99792291D01*
X157768018Y-99744672D01*
X157744208Y-99649434D01*
X157744208Y-99530387D01*
X157768018Y-99435149D01*
X157791827Y-99387530D01*
X157815637Y-99363720D01*
X157863256Y-99339910D01*
X158458493Y-99339910D02*
X158363255Y-99339910D01*
X158315636Y-99363720D01*
X158291827Y-99387530D01*
X158244208Y-99458958D01*
X158220398Y-99554196D01*
X158220398Y-99744672D01*
X158244208Y-99792291D01*
X158268017Y-99816101D01*
X158315636Y-99839910D01*
X158410874Y-99839910D01*
X158458493Y-99816101D01*
X158482303Y-99792291D01*
X158506112Y-99744672D01*
X158506112Y-99625625D01*
X158482303Y-99578006D01*
X158458493Y-99554196D01*
X158410874Y-99530387D01*
X158315636Y-99530387D01*
X158268017Y-99554196D01*
X158244208Y-99578006D01*
X158220398Y-99625625D01*
X157787056Y-96982790D02*
X157834675Y-96982790D01*
X157882294Y-97006600D01*
X157906103Y-97030410D01*
X157929913Y-97078029D01*
X157953722Y-97173267D01*
X157953722Y-97292314D01*
X157929913Y-97387552D01*
X157906103Y-97435171D01*
X157882294Y-97458981D01*
X157834675Y-97482790D01*
X157787056Y-97482790D01*
X157739437Y-97458981D01*
X157715627Y-97435171D01*
X157691818Y-97387552D01*
X157668008Y-97292314D01*
X157668008Y-97173267D01*
X157691818Y-97078029D01*
X157715627Y-97030410D01*
X157739437Y-97006600D01*
X157787056Y-96982790D01*
X158120389Y-96982790D02*
X158453722Y-96982790D01*
X158239436Y-97482790D01*
X157787056Y-94328490D02*
X157834675Y-94328490D01*
X157882294Y-94352300D01*
X157906103Y-94376110D01*
X157929913Y-94423729D01*
X157953722Y-94518967D01*
X157953722Y-94638014D01*
X157929913Y-94733252D01*
X157906103Y-94780871D01*
X157882294Y-94804681D01*
X157834675Y-94828490D01*
X157787056Y-94828490D01*
X157739437Y-94804681D01*
X157715627Y-94780871D01*
X157691818Y-94733252D01*
X157668008Y-94638014D01*
X157668008Y-94518967D01*
X157691818Y-94423729D01*
X157715627Y-94376110D01*
X157739437Y-94352300D01*
X157787056Y-94328490D01*
X158239436Y-94542776D02*
X158191817Y-94518967D01*
X158168008Y-94495157D01*
X158144198Y-94447538D01*
X158144198Y-94423729D01*
X158168008Y-94376110D01*
X158191817Y-94352300D01*
X158239436Y-94328490D01*
X158334674Y-94328490D01*
X158382293Y-94352300D01*
X158406103Y-94376110D01*
X158429912Y-94423729D01*
X158429912Y-94447538D01*
X158406103Y-94495157D01*
X158382293Y-94518967D01*
X158334674Y-94542776D01*
X158239436Y-94542776D01*
X158191817Y-94566586D01*
X158168008Y-94590395D01*
X158144198Y-94638014D01*
X158144198Y-94733252D01*
X158168008Y-94780871D01*
X158191817Y-94804681D01*
X158239436Y-94828490D01*
X158334674Y-94828490D01*
X158382293Y-94804681D01*
X158406103Y-94780871D01*
X158429912Y-94733252D01*
X158429912Y-94638014D01*
X158406103Y-94590395D01*
X158382293Y-94566586D01*
X158334674Y-94542776D01*
X157748956Y-91747850D02*
X157796575Y-91747850D01*
X157844194Y-91771660D01*
X157868003Y-91795470D01*
X157891813Y-91843089D01*
X157915622Y-91938327D01*
X157915622Y-92057374D01*
X157891813Y-92152612D01*
X157868003Y-92200231D01*
X157844194Y-92224041D01*
X157796575Y-92247850D01*
X157748956Y-92247850D01*
X157701337Y-92224041D01*
X157677527Y-92200231D01*
X157653718Y-92152612D01*
X157629908Y-92057374D01*
X157629908Y-91938327D01*
X157653718Y-91843089D01*
X157677527Y-91795470D01*
X157701337Y-91771660D01*
X157748956Y-91747850D01*
X158153717Y-92247850D02*
X158248955Y-92247850D01*
X158296574Y-92224041D01*
X158320384Y-92200231D01*
X158368003Y-92128803D01*
X158391812Y-92033565D01*
X158391812Y-91843089D01*
X158368003Y-91795470D01*
X158344193Y-91771660D01*
X158296574Y-91747850D01*
X158201336Y-91747850D01*
X158153717Y-91771660D01*
X158129908Y-91795470D01*
X158106098Y-91843089D01*
X158106098Y-91962136D01*
X158129908Y-92009755D01*
X158153717Y-92033565D01*
X158201336Y-92057374D01*
X158296574Y-92057374D01*
X158344193Y-92033565D01*
X158368003Y-92009755D01*
X158391812Y-91962136D01*
X157953722Y-89778970D02*
X157668008Y-89778970D01*
X157810865Y-89778970D02*
X157810865Y-89278970D01*
X157763246Y-89350399D01*
X157715627Y-89398018D01*
X157668008Y-89421828D01*
X158263246Y-89278970D02*
X158310865Y-89278970D01*
X158358484Y-89302780D01*
X158382293Y-89326590D01*
X158406103Y-89374209D01*
X158429912Y-89469447D01*
X158429912Y-89588494D01*
X158406103Y-89683732D01*
X158382293Y-89731351D01*
X158358484Y-89755161D01*
X158310865Y-89778970D01*
X158263246Y-89778970D01*
X158215627Y-89755161D01*
X158191817Y-89731351D01*
X158168008Y-89683732D01*
X158144198Y-89588494D01*
X158144198Y-89469447D01*
X158168008Y-89374209D01*
X158191817Y-89326590D01*
X158215627Y-89302780D01*
X158263246Y-89278970D01*
X144405000Y-106616428D02*
X144369286Y-106687857D01*
X144369286Y-106795000D01*
X144405000Y-106902143D01*
X144476429Y-106973571D01*
X144547857Y-107009286D01*
X144690714Y-107045000D01*
X144797857Y-107045000D01*
X144940714Y-107009286D01*
X145012143Y-106973571D01*
X145083571Y-106902143D01*
X145119286Y-106795000D01*
X145119286Y-106723571D01*
X145083571Y-106616428D01*
X145047857Y-106580714D01*
X144797857Y-106580714D01*
X144797857Y-106723571D01*
X145119286Y-106259286D02*
X144369286Y-106259286D01*
X145119286Y-105830714D01*
X144369286Y-105830714D01*
X145119286Y-105473572D02*
X144369286Y-105473572D01*
X144369286Y-105295000D01*
X144405000Y-105187857D01*
X144476429Y-105116429D01*
X144547857Y-105080714D01*
X144690714Y-105045000D01*
X144797857Y-105045000D01*
X144940714Y-105080714D01*
X145012143Y-105116429D01*
X145083571Y-105187857D01*
X145119286Y-105295000D01*
X145119286Y-105473572D01*
X144369286Y-109584999D02*
X145119286Y-109334999D01*
X144369286Y-109084999D01*
X145047857Y-108406428D02*
X145083571Y-108442142D01*
X145119286Y-108549285D01*
X145119286Y-108620714D01*
X145083571Y-108727857D01*
X145012143Y-108799285D01*
X144940714Y-108835000D01*
X144797857Y-108870714D01*
X144690714Y-108870714D01*
X144547857Y-108835000D01*
X144476429Y-108799285D01*
X144405000Y-108727857D01*
X144369286Y-108620714D01*
X144369286Y-108549285D01*
X144405000Y-108442142D01*
X144440714Y-108406428D01*
X145047857Y-107656428D02*
X145083571Y-107692142D01*
X145119286Y-107799285D01*
X145119286Y-107870714D01*
X145083571Y-107977857D01*
X145012143Y-108049285D01*
X144940714Y-108085000D01*
X144797857Y-108120714D01*
X144690714Y-108120714D01*
X144547857Y-108085000D01*
X144476429Y-108049285D01*
X144405000Y-107977857D01*
X144369286Y-107870714D01*
X144369286Y-107799285D01*
X144405000Y-107692142D01*
X144440714Y-107656428D01*
D11*
X143197144Y-76878571D02*
X143197144Y-75378571D01*
X144054287Y-76878571D01*
X144054287Y-75378571D01*
X145625716Y-76878571D02*
X145125716Y-76164286D01*
X144768573Y-76878571D02*
X144768573Y-75378571D01*
X145340001Y-75378571D01*
X145482859Y-75450000D01*
X145554287Y-75521429D01*
X145625716Y-75664286D01*
X145625716Y-75878571D01*
X145554287Y-76021429D01*
X145482859Y-76092857D01*
X145340001Y-76164286D01*
X144768573Y-76164286D01*
X146768573Y-76092857D02*
X146268573Y-76092857D01*
X146268573Y-76878571D02*
X146268573Y-75378571D01*
X146982859Y-75378571D01*
X148268573Y-75378571D02*
X147554287Y-75378571D01*
X147482858Y-76092857D01*
X147554287Y-76021429D01*
X147697144Y-75950000D01*
X148054287Y-75950000D01*
X148197144Y-76021429D01*
X148268573Y-76092857D01*
X148340001Y-76235714D01*
X148340001Y-76592857D01*
X148268573Y-76735714D01*
X148197144Y-76807143D01*
X148054287Y-76878571D01*
X147697144Y-76878571D01*
X147554287Y-76807143D01*
X147482858Y-76735714D01*
X149768572Y-76878571D02*
X148911429Y-76878571D01*
X149340001Y-76878571D02*
X149340001Y-75378571D01*
X149197144Y-75592857D01*
X149054286Y-75735714D01*
X148911429Y-75807143D01*
X150625715Y-76021429D02*
X150482857Y-75950000D01*
X150411429Y-75878571D01*
X150340000Y-75735714D01*
X150340000Y-75664286D01*
X150411429Y-75521429D01*
X150482857Y-75450000D01*
X150625715Y-75378571D01*
X150911429Y-75378571D01*
X151054286Y-75450000D01*
X151125715Y-75521429D01*
X151197143Y-75664286D01*
X151197143Y-75735714D01*
X151125715Y-75878571D01*
X151054286Y-75950000D01*
X150911429Y-76021429D01*
X150625715Y-76021429D01*
X150482857Y-76092857D01*
X150411429Y-76164286D01*
X150340000Y-76307143D01*
X150340000Y-76592857D01*
X150411429Y-76735714D01*
X150482857Y-76807143D01*
X150625715Y-76878571D01*
X150911429Y-76878571D01*
X151054286Y-76807143D01*
X151125715Y-76735714D01*
X151197143Y-76592857D01*
X151197143Y-76307143D01*
X151125715Y-76164286D01*
X151054286Y-76092857D01*
X150911429Y-76021429D01*
X151768571Y-75521429D02*
X151840000Y-75450000D01*
X151982857Y-75378571D01*
X152340000Y-75378571D01*
X152482857Y-75450000D01*
X152554286Y-75521429D01*
X152625714Y-75664286D01*
X152625714Y-75807143D01*
X152554286Y-76021429D01*
X151697143Y-76878571D01*
X152625714Y-76878571D01*
X153197142Y-75521429D02*
X153268571Y-75450000D01*
X153411428Y-75378571D01*
X153768571Y-75378571D01*
X153911428Y-75450000D01*
X153982857Y-75521429D01*
X154054285Y-75664286D01*
X154054285Y-75807143D01*
X153982857Y-76021429D01*
X153125714Y-76878571D01*
X154054285Y-76878571D01*
D10*
X146054286Y-78722143D02*
X146054286Y-79079286D01*
X145804286Y-78329286D02*
X146054286Y-78722143D01*
X146304286Y-78329286D01*
X146768571Y-78329286D02*
X146768571Y-78865000D01*
X146732857Y-78972143D01*
X146661428Y-79043571D01*
X146554285Y-79079286D01*
X146482857Y-79079286D01*
X147125714Y-78793571D02*
X147697143Y-78793571D01*
X148447143Y-79079286D02*
X148018571Y-79079286D01*
X148232857Y-79079286D02*
X148232857Y-78329286D01*
X148161428Y-78436429D01*
X148090000Y-78507857D01*
X148018571Y-78543571D01*
X149090000Y-78579286D02*
X149090000Y-79079286D01*
X148911429Y-78293571D02*
X148732857Y-78829286D01*
X149197143Y-78829286D01*
X149625715Y-78329286D02*
X149697143Y-78329286D01*
X149768572Y-78365000D01*
X149804286Y-78400714D01*
X149840000Y-78472143D01*
X149875715Y-78615000D01*
X149875715Y-78793571D01*
X149840000Y-78936429D01*
X149804286Y-79007857D01*
X149768572Y-79043571D01*
X149697143Y-79079286D01*
X149625715Y-79079286D01*
X149554286Y-79043571D01*
X149518572Y-79007857D01*
X149482857Y-78936429D01*
X149447143Y-78793571D01*
X149447143Y-78615000D01*
X149482857Y-78472143D01*
X149518572Y-78400714D01*
X149554286Y-78365000D01*
X149625715Y-78329286D01*
X150590001Y-79079286D02*
X150161429Y-79079286D01*
X150375715Y-79079286D02*
X150375715Y-78329286D01*
X150304286Y-78436429D01*
X150232858Y-78507857D01*
X150161429Y-78543571D01*
X151268572Y-78329286D02*
X150911429Y-78329286D01*
X150875715Y-78686429D01*
X150911429Y-78650714D01*
X150982858Y-78615000D01*
X151161429Y-78615000D01*
X151232858Y-78650714D01*
X151268572Y-78686429D01*
X151304287Y-78757857D01*
X151304287Y-78936429D01*
X151268572Y-79007857D01*
X151232858Y-79043571D01*
X151161429Y-79079286D01*
X150982858Y-79079286D01*
X150911429Y-79043571D01*
X150875715Y-79007857D01*
X145125713Y-69439286D02*
X145125713Y-69975000D01*
X145089999Y-70082143D01*
X145018570Y-70153571D01*
X144911427Y-70189286D01*
X144839999Y-70189286D01*
X145839999Y-70189286D02*
X145482856Y-70189286D01*
X145482856Y-69439286D01*
X146518571Y-70117857D02*
X146482857Y-70153571D01*
X146375714Y-70189286D01*
X146304285Y-70189286D01*
X146197142Y-70153571D01*
X146125714Y-70082143D01*
X146089999Y-70010714D01*
X146054285Y-69867857D01*
X146054285Y-69760714D01*
X146089999Y-69617857D01*
X146125714Y-69546429D01*
X146197142Y-69475000D01*
X146304285Y-69439286D01*
X146375714Y-69439286D01*
X146482857Y-69475000D01*
X146518571Y-69510714D01*
X147054285Y-69439286D02*
X147054285Y-69975000D01*
X147018571Y-70082143D01*
X146947142Y-70153571D01*
X146839999Y-70189286D01*
X146768571Y-70189286D01*
X147768571Y-70189286D02*
X147411428Y-70189286D01*
X147411428Y-69439286D01*
X148447143Y-70117857D02*
X148411429Y-70153571D01*
X148304286Y-70189286D01*
X148232857Y-70189286D01*
X148125714Y-70153571D01*
X148054286Y-70082143D01*
X148018571Y-70010714D01*
X147982857Y-69867857D01*
X147982857Y-69760714D01*
X148018571Y-69617857D01*
X148054286Y-69546429D01*
X148125714Y-69475000D01*
X148232857Y-69439286D01*
X148304286Y-69439286D01*
X148411429Y-69475000D01*
X148447143Y-69510714D01*
X148982857Y-69439286D02*
X148982857Y-69975000D01*
X148947143Y-70082143D01*
X148875714Y-70153571D01*
X148768571Y-70189286D01*
X148697143Y-70189286D01*
X149697143Y-70189286D02*
X149340000Y-70189286D01*
X149340000Y-69439286D01*
X150375715Y-70117857D02*
X150340001Y-70153571D01*
X150232858Y-70189286D01*
X150161429Y-70189286D01*
X150054286Y-70153571D01*
X149982858Y-70082143D01*
X149947143Y-70010714D01*
X149911429Y-69867857D01*
X149911429Y-69760714D01*
X149947143Y-69617857D01*
X149982858Y-69546429D01*
X150054286Y-69475000D01*
X150161429Y-69439286D01*
X150232858Y-69439286D01*
X150340001Y-69475000D01*
X150375715Y-69510714D01*
X150911429Y-69439286D02*
X150911429Y-69975000D01*
X150875715Y-70082143D01*
X150804286Y-70153571D01*
X150697143Y-70189286D01*
X150625715Y-70189286D01*
X151625715Y-70189286D02*
X151268572Y-70189286D01*
X151268572Y-69439286D01*
X152304287Y-70117857D02*
X152268573Y-70153571D01*
X152161430Y-70189286D01*
X152090001Y-70189286D01*
X151982858Y-70153571D01*
X151911430Y-70082143D01*
X151875715Y-70010714D01*
X151840001Y-69867857D01*
X151840001Y-69760714D01*
X151875715Y-69617857D01*
X151911430Y-69546429D01*
X151982858Y-69475000D01*
X152090001Y-69439286D01*
X152161430Y-69439286D01*
X152268573Y-69475000D01*
X152304287Y-69510714D01*
X152703571Y-115381286D02*
X152739286Y-115274143D01*
X152739286Y-115095572D01*
X152703571Y-115024143D01*
X152667857Y-114988429D01*
X152596429Y-114952714D01*
X152525000Y-114952714D01*
X152453571Y-114988429D01*
X152417857Y-115024143D01*
X152382143Y-115095572D01*
X152346429Y-115238429D01*
X152310714Y-115309857D01*
X152275000Y-115345572D01*
X152203571Y-115381286D01*
X152132143Y-115381286D01*
X152060714Y-115345572D01*
X152025000Y-115309857D01*
X151989286Y-115238429D01*
X151989286Y-115059857D01*
X152025000Y-114952714D01*
X151989286Y-114702714D02*
X152739286Y-114524143D01*
X152203571Y-114381286D01*
X152739286Y-114238428D01*
X151989286Y-114059857D01*
X152739286Y-113774143D02*
X151989286Y-113774143D01*
X151989286Y-113595571D01*
X152025000Y-113488428D01*
X152096429Y-113417000D01*
X152167857Y-113381285D01*
X152310714Y-113345571D01*
X152417857Y-113345571D01*
X152560714Y-113381285D01*
X152632143Y-113417000D01*
X152703571Y-113488428D01*
X152739286Y-113595571D01*
X152739286Y-113774143D01*
X152739286Y-113024143D02*
X151989286Y-113024143D01*
X151989286Y-112524142D02*
X151989286Y-112381285D01*
X152025000Y-112309857D01*
X152096429Y-112238428D01*
X152239286Y-112202714D01*
X152489286Y-112202714D01*
X152632143Y-112238428D01*
X152703571Y-112309857D01*
X152739286Y-112381285D01*
X152739286Y-112524142D01*
X152703571Y-112595571D01*
X152632143Y-112667000D01*
X152489286Y-112702714D01*
X152239286Y-112702714D01*
X152096429Y-112667000D01*
X152025000Y-112595571D01*
X151989286Y-112524142D01*
X150163571Y-115559857D02*
X150199286Y-115452714D01*
X150199286Y-115274143D01*
X150163571Y-115202714D01*
X150127857Y-115167000D01*
X150056429Y-115131285D01*
X149985000Y-115131285D01*
X149913571Y-115167000D01*
X149877857Y-115202714D01*
X149842143Y-115274143D01*
X149806429Y-115417000D01*
X149770714Y-115488428D01*
X149735000Y-115524143D01*
X149663571Y-115559857D01*
X149592143Y-115559857D01*
X149520714Y-115524143D01*
X149485000Y-115488428D01*
X149449286Y-115417000D01*
X149449286Y-115238428D01*
X149485000Y-115131285D01*
X149449286Y-114881285D02*
X150199286Y-114702714D01*
X149663571Y-114559857D01*
X150199286Y-114416999D01*
X149449286Y-114238428D01*
X150199286Y-113952714D02*
X149449286Y-113952714D01*
X149449286Y-113774142D01*
X149485000Y-113666999D01*
X149556429Y-113595571D01*
X149627857Y-113559856D01*
X149770714Y-113524142D01*
X149877857Y-113524142D01*
X150020714Y-113559856D01*
X150092143Y-113595571D01*
X150163571Y-113666999D01*
X150199286Y-113774142D01*
X150199286Y-113952714D01*
X150127857Y-112774142D02*
X150163571Y-112809856D01*
X150199286Y-112916999D01*
X150199286Y-112988428D01*
X150163571Y-113095571D01*
X150092143Y-113166999D01*
X150020714Y-113202714D01*
X149877857Y-113238428D01*
X149770714Y-113238428D01*
X149627857Y-113202714D01*
X149556429Y-113166999D01*
X149485000Y-113095571D01*
X149449286Y-112988428D01*
X149449286Y-112916999D01*
X149485000Y-112809856D01*
X149520714Y-112774142D01*
X150199286Y-112452714D02*
X149449286Y-112452714D01*
X150199286Y-112024142D02*
X149770714Y-112345571D01*
X149449286Y-112024142D02*
X149877857Y-112452714D01*
X146748572Y-114687000D02*
X146677143Y-114651286D01*
X146570000Y-114651286D01*
X146462857Y-114687000D01*
X146391429Y-114758429D01*
X146355714Y-114829857D01*
X146320000Y-114972714D01*
X146320000Y-115079857D01*
X146355714Y-115222714D01*
X146391429Y-115294143D01*
X146462857Y-115365571D01*
X146570000Y-115401286D01*
X146641429Y-115401286D01*
X146748572Y-115365571D01*
X146784286Y-115329857D01*
X146784286Y-115079857D01*
X146641429Y-115079857D01*
X147105714Y-115401286D02*
X147105714Y-114651286D01*
X147534286Y-115401286D01*
X147534286Y-114651286D01*
X147891428Y-115401286D02*
X147891428Y-114651286D01*
X148070000Y-114651286D01*
X148177143Y-114687000D01*
X148248571Y-114758429D01*
X148284286Y-114829857D01*
X148320000Y-114972714D01*
X148320000Y-115079857D01*
X148284286Y-115222714D01*
X148248571Y-115294143D01*
X148177143Y-115365571D01*
X148070000Y-115401286D01*
X147891428Y-115401286D01*
X143780001Y-114651286D02*
X144030001Y-115401286D01*
X144280001Y-114651286D01*
X144958572Y-115329857D02*
X144922858Y-115365571D01*
X144815715Y-115401286D01*
X144744286Y-115401286D01*
X144637143Y-115365571D01*
X144565715Y-115294143D01*
X144530000Y-115222714D01*
X144494286Y-115079857D01*
X144494286Y-114972714D01*
X144530000Y-114829857D01*
X144565715Y-114758429D01*
X144637143Y-114687000D01*
X144744286Y-114651286D01*
X144815715Y-114651286D01*
X144922858Y-114687000D01*
X144958572Y-114722714D01*
X145708572Y-115329857D02*
X145672858Y-115365571D01*
X145565715Y-115401286D01*
X145494286Y-115401286D01*
X145387143Y-115365571D01*
X145315715Y-115294143D01*
X145280000Y-115222714D01*
X145244286Y-115079857D01*
X145244286Y-114972714D01*
X145280000Y-114829857D01*
X145315715Y-114758429D01*
X145387143Y-114687000D01*
X145494286Y-114651286D01*
X145565715Y-114651286D01*
X145672858Y-114687000D01*
X145708572Y-114722714D01*
D12*
X142151100Y-116179600D02*
X139611100Y-116179600D01*
X142151100Y-118719600D02*
X142151100Y-116179600D01*
X157391100Y-88239600D02*
X157391100Y-118719600D01*
X139611100Y-88239600D02*
X157391100Y-88239600D01*
X139611100Y-118719600D02*
X139611100Y-88239600D01*
X157391100Y-118719600D02*
X139611100Y-118719600D01*
D13*
X145736000Y-109788000D02*
X150936000Y-109788000D01*
X145736000Y-97028000D02*
X145736000Y-109788000D01*
X150936000Y-94428000D02*
X150936000Y-109788000D01*
X145736000Y-97028000D02*
X148336000Y-97028000D01*
X148336000Y-97028000D02*
X148336000Y-94428000D01*
X148336000Y-94428000D02*
X150936000Y-94428000D01*
X145736000Y-95758000D02*
X145736000Y-94428000D01*
X145736000Y-94428000D02*
X147066000Y-94428000D01*
X143450000Y-115510000D02*
X143450000Y-118170000D01*
X151130000Y-115510000D02*
X143450000Y-115510000D01*
X151130000Y-118170000D02*
X143450000Y-118170000D01*
X151130000Y-115510000D02*
X151130000Y-118170000D01*
X152400000Y-115510000D02*
X153730000Y-115510000D01*
X153730000Y-115510000D02*
X153730000Y-116840000D01*
X148907120Y-111773600D02*
X147907120Y-111773600D01*
X147907120Y-113473600D02*
X148907120Y-113473600D01*
D10*
X142937767Y-117512267D02*
X142704433Y-117178933D01*
X142537767Y-117512267D02*
X142537767Y-116812267D01*
X142804433Y-116812267D01*
X142871100Y-116845600D01*
X142904433Y-116878933D01*
X142937767Y-116945600D01*
X142937767Y-117045600D01*
X142904433Y-117112267D01*
X142871100Y-117145600D01*
X142804433Y-117178933D01*
X142537767Y-117178933D01*
X143204433Y-117312267D02*
X143537767Y-117312267D01*
X143137767Y-117512267D02*
X143371100Y-116812267D01*
X143604433Y-117512267D01*
X143771100Y-116812267D02*
X143937767Y-117512267D01*
X144071100Y-117012267D01*
X144204433Y-117512267D01*
X144371100Y-116812267D01*
X142379767Y-114559600D02*
X142313101Y-114526267D01*
X142213101Y-114526267D01*
X142113101Y-114559600D01*
X142046434Y-114626267D01*
X142013101Y-114692933D01*
X141979767Y-114826267D01*
X141979767Y-114926267D01*
X142013101Y-115059600D01*
X142046434Y-115126267D01*
X142113101Y-115192933D01*
X142213101Y-115226267D01*
X142279767Y-115226267D01*
X142379767Y-115192933D01*
X142413101Y-115159600D01*
X142413101Y-114926267D01*
X142279767Y-114926267D01*
X142713101Y-115226267D02*
X142713101Y-114526267D01*
X143113101Y-115226267D01*
X143113101Y-114526267D01*
X143446434Y-115226267D02*
X143446434Y-114526267D01*
X143613100Y-114526267D01*
X143713100Y-114559600D01*
X143779767Y-114626267D01*
X143813100Y-114692933D01*
X143846434Y-114826267D01*
X143846434Y-114926267D01*
X143813100Y-115059600D01*
X143779767Y-115126267D01*
X143713100Y-115192933D01*
X143613100Y-115226267D01*
X143446434Y-115226267D01*
X142529767Y-112686267D02*
X142296433Y-112352933D01*
X142129767Y-112686267D02*
X142129767Y-111986267D01*
X142396433Y-111986267D01*
X142463100Y-112019600D01*
X142496433Y-112052933D01*
X142529767Y-112119600D01*
X142529767Y-112219600D01*
X142496433Y-112286267D01*
X142463100Y-112319600D01*
X142396433Y-112352933D01*
X142129767Y-112352933D01*
X142796433Y-112652933D02*
X142896433Y-112686267D01*
X143063100Y-112686267D01*
X143129767Y-112652933D01*
X143163100Y-112619600D01*
X143196433Y-112552933D01*
X143196433Y-112486267D01*
X143163100Y-112419600D01*
X143129767Y-112386267D01*
X143063100Y-112352933D01*
X142929767Y-112319600D01*
X142863100Y-112286267D01*
X142829767Y-112252933D01*
X142796433Y-112186267D01*
X142796433Y-112119600D01*
X142829767Y-112052933D01*
X142863100Y-112019600D01*
X142929767Y-111986267D01*
X143096433Y-111986267D01*
X143196433Y-112019600D01*
X143396434Y-111986267D02*
X143796434Y-111986267D01*
X143596434Y-112686267D02*
X143596434Y-111986267D01*
X141979767Y-109446267D02*
X142213100Y-110146267D01*
X142446433Y-109446267D01*
X143079767Y-110079600D02*
X143046433Y-110112933D01*
X142946433Y-110146267D01*
X142879767Y-110146267D01*
X142779767Y-110112933D01*
X142713100Y-110046267D01*
X142679767Y-109979600D01*
X142646433Y-109846267D01*
X142646433Y-109746267D01*
X142679767Y-109612933D01*
X142713100Y-109546267D01*
X142779767Y-109479600D01*
X142879767Y-109446267D01*
X142946433Y-109446267D01*
X143046433Y-109479600D01*
X143079767Y-109512933D01*
X143779767Y-110079600D02*
X143746433Y-110112933D01*
X143646433Y-110146267D01*
X143579767Y-110146267D01*
X143479767Y-110112933D01*
X143413100Y-110046267D01*
X143379767Y-109979600D01*
X143346433Y-109846267D01*
X143346433Y-109746267D01*
X143379767Y-109612933D01*
X143413100Y-109546267D01*
X143479767Y-109479600D01*
X143579767Y-109446267D01*
X143646433Y-109446267D01*
X143746433Y-109479600D01*
X143779767Y-109512933D01*
X142171767Y-107239600D02*
X141938434Y-107239600D01*
X141938434Y-107606267D02*
X141938434Y-106906267D01*
X142271767Y-106906267D01*
X142838434Y-107139600D02*
X142838434Y-107606267D01*
X142671767Y-106872933D02*
X142505100Y-107372933D01*
X142938434Y-107372933D01*
X142171767Y-104699600D02*
X141938434Y-104699600D01*
X141938434Y-105066267D02*
X141938434Y-104366267D01*
X142271767Y-104366267D01*
X142871767Y-104366267D02*
X142538434Y-104366267D01*
X142505100Y-104699600D01*
X142538434Y-104666267D01*
X142605100Y-104632933D01*
X142771767Y-104632933D01*
X142838434Y-104666267D01*
X142871767Y-104699600D01*
X142905100Y-104766267D01*
X142905100Y-104932933D01*
X142871767Y-104999600D01*
X142838434Y-105032933D01*
X142771767Y-105066267D01*
X142605100Y-105066267D01*
X142538434Y-105032933D01*
X142505100Y-104999600D01*
X142171767Y-99619600D02*
X141938434Y-99619600D01*
X141938434Y-99986267D02*
X141938434Y-99286267D01*
X142271767Y-99286267D01*
X142471767Y-99286267D02*
X142938434Y-99286267D01*
X142638434Y-99986267D01*
X142171767Y-102159600D02*
X141938434Y-102159600D01*
X141938434Y-102526267D02*
X141938434Y-101826267D01*
X142271767Y-101826267D01*
X142838434Y-101826267D02*
X142705100Y-101826267D01*
X142638434Y-101859600D01*
X142605100Y-101892933D01*
X142538434Y-101992933D01*
X142505100Y-102126267D01*
X142505100Y-102392933D01*
X142538434Y-102459600D01*
X142571767Y-102492933D01*
X142638434Y-102526267D01*
X142771767Y-102526267D01*
X142838434Y-102492933D01*
X142871767Y-102459600D01*
X142905100Y-102392933D01*
X142905100Y-102226267D01*
X142871767Y-102159600D01*
X142838434Y-102126267D01*
X142771767Y-102092933D01*
X142638434Y-102092933D01*
X142571767Y-102126267D01*
X142538434Y-102159600D01*
X142505100Y-102226267D01*
X142121767Y-97079600D02*
X142221767Y-97112933D01*
X142255100Y-97146267D01*
X142288434Y-97212933D01*
X142288434Y-97312933D01*
X142255100Y-97379600D01*
X142221767Y-97412933D01*
X142155100Y-97446267D01*
X141888434Y-97446267D01*
X141888434Y-96746267D01*
X142121767Y-96746267D01*
X142188434Y-96779600D01*
X142221767Y-96812933D01*
X142255100Y-96879600D01*
X142255100Y-96946267D01*
X142221767Y-97012933D01*
X142188434Y-97046267D01*
X142121767Y-97079600D01*
X141888434Y-97079600D01*
X142955100Y-97446267D02*
X142555100Y-97446267D01*
X142755100Y-97446267D02*
X142755100Y-96746267D01*
X142688434Y-96846267D01*
X142621767Y-96912933D01*
X142555100Y-96946267D01*
X142121767Y-94539600D02*
X142221767Y-94572933D01*
X142255100Y-94606267D01*
X142288434Y-94672933D01*
X142288434Y-94772933D01*
X142255100Y-94839600D01*
X142221767Y-94872933D01*
X142155100Y-94906267D01*
X141888434Y-94906267D01*
X141888434Y-94206267D01*
X142121767Y-94206267D01*
X142188434Y-94239600D01*
X142221767Y-94272933D01*
X142255100Y-94339600D01*
X142255100Y-94406267D01*
X142221767Y-94472933D01*
X142188434Y-94506267D01*
X142121767Y-94539600D01*
X141888434Y-94539600D01*
X142521767Y-94206267D02*
X142955100Y-94206267D01*
X142721767Y-94472933D01*
X142821767Y-94472933D01*
X142888434Y-94506267D01*
X142921767Y-94539600D01*
X142955100Y-94606267D01*
X142955100Y-94772933D01*
X142921767Y-94839600D01*
X142888434Y-94872933D01*
X142821767Y-94906267D01*
X142621767Y-94906267D01*
X142555100Y-94872933D01*
X142521767Y-94839600D01*
X142121767Y-91999600D02*
X142221767Y-92032933D01*
X142255100Y-92066267D01*
X142288434Y-92132933D01*
X142288434Y-92232933D01*
X142255100Y-92299600D01*
X142221767Y-92332933D01*
X142155100Y-92366267D01*
X141888434Y-92366267D01*
X141888434Y-91666267D01*
X142121767Y-91666267D01*
X142188434Y-91699600D01*
X142221767Y-91732933D01*
X142255100Y-91799600D01*
X142255100Y-91866267D01*
X142221767Y-91932933D01*
X142188434Y-91966267D01*
X142121767Y-91999600D01*
X141888434Y-91999600D01*
X142555100Y-91732933D02*
X142588434Y-91699600D01*
X142655100Y-91666267D01*
X142821767Y-91666267D01*
X142888434Y-91699600D01*
X142921767Y-91732933D01*
X142955100Y-91799600D01*
X142955100Y-91866267D01*
X142921767Y-91966267D01*
X142521767Y-92366267D01*
X142955100Y-92366267D01*
X142121767Y-89459600D02*
X142221767Y-89492933D01*
X142255100Y-89526267D01*
X142288434Y-89592933D01*
X142288434Y-89692933D01*
X142255100Y-89759600D01*
X142221767Y-89792933D01*
X142155100Y-89826267D01*
X141888434Y-89826267D01*
X141888434Y-89126267D01*
X142121767Y-89126267D01*
X142188434Y-89159600D01*
X142221767Y-89192933D01*
X142255100Y-89259600D01*
X142255100Y-89326267D01*
X142221767Y-89392933D01*
X142188434Y-89426267D01*
X142121767Y-89459600D01*
X141888434Y-89459600D01*
X142888434Y-89126267D02*
X142755100Y-89126267D01*
X142688434Y-89159600D01*
X142655100Y-89192933D01*
X142588434Y-89292933D01*
X142555100Y-89426267D01*
X142555100Y-89692933D01*
X142588434Y-89759600D01*
X142621767Y-89792933D01*
X142688434Y-89826267D01*
X142821767Y-89826267D01*
X142888434Y-89792933D01*
X142921767Y-89759600D01*
X142955100Y-89692933D01*
X142955100Y-89526267D01*
X142921767Y-89459600D01*
X142888434Y-89426267D01*
X142821767Y-89392933D01*
X142688434Y-89392933D01*
X142621767Y-89426267D01*
X142588434Y-89459600D01*
X142555100Y-89526267D01*
X154080434Y-117766267D02*
X154080434Y-117066267D01*
X154247100Y-117066267D01*
X154347100Y-117099600D01*
X154413767Y-117166267D01*
X154447100Y-117232933D01*
X154480434Y-117366267D01*
X154480434Y-117466267D01*
X154447100Y-117599600D01*
X154413767Y-117666267D01*
X154347100Y-117732933D01*
X154247100Y-117766267D01*
X154080434Y-117766267D01*
X154713767Y-117066267D02*
X155147100Y-117066267D01*
X154913767Y-117332933D01*
X155013767Y-117332933D01*
X155080434Y-117366267D01*
X155113767Y-117399600D01*
X155147100Y-117466267D01*
X155147100Y-117632933D01*
X155113767Y-117699600D01*
X155080434Y-117732933D01*
X155013767Y-117766267D01*
X154813767Y-117766267D01*
X154747100Y-117732933D01*
X154713767Y-117699600D01*
X154080434Y-115226267D02*
X154080434Y-114526267D01*
X154247100Y-114526267D01*
X154347100Y-114559600D01*
X154413767Y-114626267D01*
X154447100Y-114692933D01*
X154480434Y-114826267D01*
X154480434Y-114926267D01*
X154447100Y-115059600D01*
X154413767Y-115126267D01*
X154347100Y-115192933D01*
X154247100Y-115226267D01*
X154080434Y-115226267D01*
X154747100Y-114592933D02*
X154780434Y-114559600D01*
X154847100Y-114526267D01*
X155013767Y-114526267D01*
X155080434Y-114559600D01*
X155113767Y-114592933D01*
X155147100Y-114659600D01*
X155147100Y-114726267D01*
X155113767Y-114826267D01*
X154713767Y-115226267D01*
X155147100Y-115226267D01*
X153555767Y-112019600D02*
X153489101Y-111986267D01*
X153389101Y-111986267D01*
X153289101Y-112019600D01*
X153222434Y-112086267D01*
X153189101Y-112152933D01*
X153155767Y-112286267D01*
X153155767Y-112386267D01*
X153189101Y-112519600D01*
X153222434Y-112586267D01*
X153289101Y-112652933D01*
X153389101Y-112686267D01*
X153455767Y-112686267D01*
X153555767Y-112652933D01*
X153589101Y-112619600D01*
X153589101Y-112386267D01*
X153455767Y-112386267D01*
X153889101Y-112686267D02*
X153889101Y-111986267D01*
X154289101Y-112686267D01*
X154289101Y-111986267D01*
X154622434Y-112686267D02*
X154622434Y-111986267D01*
X154789100Y-111986267D01*
X154889100Y-112019600D01*
X154955767Y-112086267D01*
X154989100Y-112152933D01*
X155022434Y-112286267D01*
X155022434Y-112386267D01*
X154989100Y-112519600D01*
X154955767Y-112586267D01*
X154889100Y-112652933D01*
X154789100Y-112686267D01*
X154622434Y-112686267D01*
X153555767Y-109479600D02*
X153489101Y-109446267D01*
X153389101Y-109446267D01*
X153289101Y-109479600D01*
X153222434Y-109546267D01*
X153189101Y-109612933D01*
X153155767Y-109746267D01*
X153155767Y-109846267D01*
X153189101Y-109979600D01*
X153222434Y-110046267D01*
X153289101Y-110112933D01*
X153389101Y-110146267D01*
X153455767Y-110146267D01*
X153555767Y-110112933D01*
X153589101Y-110079600D01*
X153589101Y-109846267D01*
X153455767Y-109846267D01*
X153889101Y-110146267D02*
X153889101Y-109446267D01*
X154289101Y-110146267D01*
X154289101Y-109446267D01*
X154622434Y-110146267D02*
X154622434Y-109446267D01*
X154789100Y-109446267D01*
X154889100Y-109479600D01*
X154955767Y-109546267D01*
X154989100Y-109612933D01*
X155022434Y-109746267D01*
X155022434Y-109846267D01*
X154989100Y-109979600D01*
X154955767Y-110046267D01*
X154889100Y-110112933D01*
X154789100Y-110146267D01*
X154622434Y-110146267D01*
X154080434Y-107606267D02*
X154080434Y-106906267D01*
X154247100Y-106906267D01*
X154347100Y-106939600D01*
X154413767Y-107006267D01*
X154447100Y-107072933D01*
X154480434Y-107206267D01*
X154480434Y-107306267D01*
X154447100Y-107439600D01*
X154413767Y-107506267D01*
X154347100Y-107572933D01*
X154247100Y-107606267D01*
X154080434Y-107606267D01*
X155147100Y-107606267D02*
X154747100Y-107606267D01*
X154947100Y-107606267D02*
X154947100Y-106906267D01*
X154880434Y-107006267D01*
X154813767Y-107072933D01*
X154747100Y-107106267D01*
X154080434Y-105066267D02*
X154080434Y-104366267D01*
X154247100Y-104366267D01*
X154347100Y-104399600D01*
X154413767Y-104466267D01*
X154447100Y-104532933D01*
X154480434Y-104666267D01*
X154480434Y-104766267D01*
X154447100Y-104899600D01*
X154413767Y-104966267D01*
X154347100Y-105032933D01*
X154247100Y-105066267D01*
X154080434Y-105066267D01*
X154913767Y-104366267D02*
X154980434Y-104366267D01*
X155047100Y-104399600D01*
X155080434Y-104432933D01*
X155113767Y-104499600D01*
X155147100Y-104632933D01*
X155147100Y-104799600D01*
X155113767Y-104932933D01*
X155080434Y-104999600D01*
X155047100Y-105032933D01*
X154980434Y-105066267D01*
X154913767Y-105066267D01*
X154847100Y-105032933D01*
X154813767Y-104999600D01*
X154780434Y-104932933D01*
X154747100Y-104799600D01*
X154747100Y-104632933D01*
X154780434Y-104499600D01*
X154813767Y-104432933D01*
X154847100Y-104399600D01*
X154913767Y-104366267D01*
X154080434Y-102526267D02*
X154080434Y-101826267D01*
X154247100Y-101826267D01*
X154347100Y-101859600D01*
X154413767Y-101926267D01*
X154447100Y-101992933D01*
X154480434Y-102126267D01*
X154480434Y-102226267D01*
X154447100Y-102359600D01*
X154413767Y-102426267D01*
X154347100Y-102492933D01*
X154247100Y-102526267D01*
X154080434Y-102526267D01*
X155080434Y-102059600D02*
X155080434Y-102526267D01*
X154913767Y-101792933D02*
X154747100Y-102292933D01*
X155180434Y-102292933D01*
X154480434Y-99919600D02*
X154447100Y-99952933D01*
X154347100Y-99986267D01*
X154280434Y-99986267D01*
X154180434Y-99952933D01*
X154113767Y-99886267D01*
X154080434Y-99819600D01*
X154047100Y-99686267D01*
X154047100Y-99586267D01*
X154080434Y-99452933D01*
X154113767Y-99386267D01*
X154180434Y-99319600D01*
X154280434Y-99286267D01*
X154347100Y-99286267D01*
X154447100Y-99319600D01*
X154480434Y-99352933D01*
X155080434Y-99286267D02*
X154947100Y-99286267D01*
X154880434Y-99319600D01*
X154847100Y-99352933D01*
X154780434Y-99452933D01*
X154747100Y-99586267D01*
X154747100Y-99852933D01*
X154780434Y-99919600D01*
X154813767Y-99952933D01*
X154880434Y-99986267D01*
X155013767Y-99986267D01*
X155080434Y-99952933D01*
X155113767Y-99919600D01*
X155147100Y-99852933D01*
X155147100Y-99686267D01*
X155113767Y-99619600D01*
X155080434Y-99586267D01*
X155013767Y-99552933D01*
X154880434Y-99552933D01*
X154813767Y-99586267D01*
X154780434Y-99619600D01*
X154747100Y-99686267D01*
X154080434Y-97446267D02*
X154080434Y-96746267D01*
X154247100Y-96746267D01*
X154347100Y-96779600D01*
X154413767Y-96846267D01*
X154447100Y-96912933D01*
X154480434Y-97046267D01*
X154480434Y-97146267D01*
X154447100Y-97279600D01*
X154413767Y-97346267D01*
X154347100Y-97412933D01*
X154247100Y-97446267D01*
X154080434Y-97446267D01*
X154713767Y-96746267D02*
X155180434Y-96746267D01*
X154880434Y-97446267D01*
X154113767Y-94539600D02*
X154347100Y-94539600D01*
X154447100Y-94906267D02*
X154113767Y-94906267D01*
X154113767Y-94206267D01*
X154447100Y-94206267D01*
X155047100Y-94206267D02*
X154913766Y-94206267D01*
X154847100Y-94239600D01*
X154813766Y-94272933D01*
X154747100Y-94372933D01*
X154713766Y-94506267D01*
X154713766Y-94772933D01*
X154747100Y-94839600D01*
X154780433Y-94872933D01*
X154847100Y-94906267D01*
X154980433Y-94906267D01*
X155047100Y-94872933D01*
X155080433Y-94839600D01*
X155113766Y-94772933D01*
X155113766Y-94606267D01*
X155080433Y-94539600D01*
X155047100Y-94506267D01*
X154980433Y-94472933D01*
X154847100Y-94472933D01*
X154780433Y-94506267D01*
X154747100Y-94539600D01*
X154713766Y-94606267D01*
X154313767Y-91999600D02*
X154413767Y-92032933D01*
X154447100Y-92066267D01*
X154480434Y-92132933D01*
X154480434Y-92232933D01*
X154447100Y-92299600D01*
X154413767Y-92332933D01*
X154347100Y-92366267D01*
X154080434Y-92366267D01*
X154080434Y-91666267D01*
X154313767Y-91666267D01*
X154380434Y-91699600D01*
X154413767Y-91732933D01*
X154447100Y-91799600D01*
X154447100Y-91866267D01*
X154413767Y-91932933D01*
X154380434Y-91966267D01*
X154313767Y-91999600D01*
X154080434Y-91999600D01*
X155080434Y-91899600D02*
X155080434Y-92366267D01*
X154913767Y-91632933D02*
X154747100Y-92132933D01*
X155180434Y-92132933D01*
X154313767Y-89459600D02*
X154413767Y-89492933D01*
X154447100Y-89526267D01*
X154480434Y-89592933D01*
X154480434Y-89692933D01*
X154447100Y-89759600D01*
X154413767Y-89792933D01*
X154347100Y-89826267D01*
X154080434Y-89826267D01*
X154080434Y-89126267D01*
X154313767Y-89126267D01*
X154380434Y-89159600D01*
X154413767Y-89192933D01*
X154447100Y-89259600D01*
X154447100Y-89326267D01*
X154413767Y-89392933D01*
X154380434Y-89426267D01*
X154313767Y-89459600D01*
X154080434Y-89459600D01*
X155113767Y-89126267D02*
X154780434Y-89126267D01*
X154747100Y-89459600D01*
X154780434Y-89426267D01*
X154847100Y-89392933D01*
X155013767Y-89392933D01*
X155080434Y-89426267D01*
X155113767Y-89459600D01*
X155147100Y-89526267D01*
X155147100Y-89692933D01*
X155113767Y-89759600D01*
X155080434Y-89792933D01*
X155013767Y-89826267D01*
X154847100Y-89826267D01*
X154780434Y-89792933D01*
X154747100Y-89759600D01*
D14*
X154182381Y-117173333D02*
X154896667Y-117173333D01*
X155039524Y-117220953D01*
X155134762Y-117316191D01*
X155182381Y-117459048D01*
X155182381Y-117554286D01*
X155182381Y-116173333D02*
X155182381Y-116744762D01*
X155182381Y-116459048D02*
X154182381Y-116459048D01*
X154325238Y-116554286D01*
X154420476Y-116649524D01*
X154468095Y-116744762D01*
X146859501Y-111325981D02*
X146288072Y-111325981D01*
X146573786Y-111325981D02*
X146573786Y-110325981D01*
X146478548Y-110468838D01*
X146383310Y-110564076D01*
X146288072Y-110611695D01*
X147478548Y-110325981D02*
X147573787Y-110325981D01*
X147669025Y-110373600D01*
X147716644Y-110421219D01*
X147764263Y-110516457D01*
X147811882Y-110706933D01*
X147811882Y-110945029D01*
X147764263Y-111135505D01*
X147716644Y-111230743D01*
X147669025Y-111278362D01*
X147573787Y-111325981D01*
X147478548Y-111325981D01*
X147383310Y-111278362D01*
X147335691Y-111230743D01*
X147288072Y-111135505D01*
X147240453Y-110945029D01*
X147240453Y-110706933D01*
X147288072Y-110516457D01*
X147335691Y-110421219D01*
X147383310Y-110373600D01*
X147478548Y-110325981D01*
X148669025Y-110659314D02*
X148669025Y-111325981D01*
X148240453Y-110659314D02*
X148240453Y-111183124D01*
X148288072Y-111278362D01*
X148383310Y-111325981D01*
X148526168Y-111325981D01*
X148621406Y-111278362D01*
X148669025Y-111230743D01*
X149478549Y-110802171D02*
X149145215Y-110802171D01*
X149145215Y-111325981D02*
X149145215Y-110325981D01*
X149621406Y-110325981D01*
X150526168Y-111325981D02*
X149954739Y-111325981D01*
X150240453Y-111325981D02*
X150240453Y-110325981D01*
X150145215Y-110468838D01*
X150049977Y-110564076D01*
X149954739Y-110611695D01*
M02*
