G04 #@! TF.FileFunction,Legend,Bot*
%FSLAX46Y46*%
G04 Gerber Fmt 4.6, Leading zero omitted, Abs format (unit mm)*
G04 Created by KiCad (PCBNEW 4.0.7) date 05/30/18 17:56:51*
%MOMM*%
%LPD*%
G01*
G04 APERTURE LIST*
%ADD10C,0.100000*%
%ADD11C,0.300000*%
%ADD12C,0.381000*%
%ADD13C,0.203200*%
G04 APERTURE END LIST*
D10*
D11*
X150875714Y-69028571D02*
X150375714Y-70528571D01*
X149875714Y-69028571D01*
X148590000Y-70528571D02*
X149447143Y-70528571D01*
X149018571Y-70528571D02*
X149018571Y-69028571D01*
X149161428Y-69242857D01*
X149304286Y-69385714D01*
X149447143Y-69457143D01*
X147947143Y-70385714D02*
X147875715Y-70457143D01*
X147947143Y-70528571D01*
X148018572Y-70457143D01*
X147947143Y-70385714D01*
X147947143Y-70528571D01*
X146947143Y-69028571D02*
X146804286Y-69028571D01*
X146661429Y-69100000D01*
X146590000Y-69171429D01*
X146518571Y-69314286D01*
X146447143Y-69600000D01*
X146447143Y-69957143D01*
X146518571Y-70242857D01*
X146590000Y-70385714D01*
X146661429Y-70457143D01*
X146804286Y-70528571D01*
X146947143Y-70528571D01*
X147090000Y-70457143D01*
X147161429Y-70385714D01*
X147232857Y-70242857D01*
X147304286Y-69957143D01*
X147304286Y-69600000D01*
X147232857Y-69314286D01*
X147161429Y-69171429D01*
X147090000Y-69100000D01*
X146947143Y-69028571D01*
X154625713Y-67202857D02*
X154411427Y-67274286D01*
X154339999Y-67345714D01*
X154268570Y-67488571D01*
X154268570Y-67702857D01*
X154339999Y-67845714D01*
X154411427Y-67917143D01*
X154554285Y-67988571D01*
X155125713Y-67988571D01*
X155125713Y-66488571D01*
X154625713Y-66488571D01*
X154482856Y-66560000D01*
X154411427Y-66631429D01*
X154339999Y-66774286D01*
X154339999Y-66917143D01*
X154411427Y-67060000D01*
X154482856Y-67131429D01*
X154625713Y-67202857D01*
X155125713Y-67202857D01*
X153411427Y-67988571D02*
X153554285Y-67917143D01*
X153625713Y-67774286D01*
X153625713Y-66488571D01*
X152197142Y-66988571D02*
X152197142Y-67988571D01*
X152839999Y-66988571D02*
X152839999Y-67774286D01*
X152768571Y-67917143D01*
X152625713Y-67988571D01*
X152411428Y-67988571D01*
X152268571Y-67917143D01*
X152197142Y-67845714D01*
X150911428Y-67917143D02*
X151054285Y-67988571D01*
X151339999Y-67988571D01*
X151482856Y-67917143D01*
X151554285Y-67774286D01*
X151554285Y-67202857D01*
X151482856Y-67060000D01*
X151339999Y-66988571D01*
X151054285Y-66988571D01*
X150911428Y-67060000D01*
X150839999Y-67202857D01*
X150839999Y-67345714D01*
X151554285Y-67488571D01*
X150197142Y-67988571D02*
X150197142Y-66488571D01*
X149697142Y-67560000D01*
X149197142Y-66488571D01*
X149197142Y-67988571D01*
X148482856Y-67988571D02*
X148482856Y-66988571D01*
X148482856Y-66488571D02*
X148554285Y-66560000D01*
X148482856Y-66631429D01*
X148411428Y-66560000D01*
X148482856Y-66488571D01*
X148482856Y-66631429D01*
X147125713Y-67917143D02*
X147268570Y-67988571D01*
X147554284Y-67988571D01*
X147697142Y-67917143D01*
X147768570Y-67845714D01*
X147839999Y-67702857D01*
X147839999Y-67274286D01*
X147768570Y-67131429D01*
X147697142Y-67060000D01*
X147554284Y-66988571D01*
X147268570Y-66988571D01*
X147125713Y-67060000D01*
X146482856Y-67988571D02*
X146482856Y-66988571D01*
X146482856Y-67274286D02*
X146411428Y-67131429D01*
X146339999Y-67060000D01*
X146197142Y-66988571D01*
X146054285Y-66988571D01*
X145339999Y-67988571D02*
X145482857Y-67917143D01*
X145554285Y-67845714D01*
X145625714Y-67702857D01*
X145625714Y-67274286D01*
X145554285Y-67131429D01*
X145482857Y-67060000D01*
X145339999Y-66988571D01*
X145125714Y-66988571D01*
X144982857Y-67060000D01*
X144911428Y-67131429D01*
X144839999Y-67274286D01*
X144839999Y-67702857D01*
X144911428Y-67845714D01*
X144982857Y-67917143D01*
X145125714Y-67988571D01*
X145339999Y-67988571D01*
X143482856Y-66488571D02*
X144197142Y-66488571D01*
X144268571Y-67202857D01*
X144197142Y-67131429D01*
X144054285Y-67060000D01*
X143697142Y-67060000D01*
X143554285Y-67131429D01*
X143482856Y-67202857D01*
X143411428Y-67345714D01*
X143411428Y-67702857D01*
X143482856Y-67845714D01*
X143554285Y-67917143D01*
X143697142Y-67988571D01*
X144054285Y-67988571D01*
X144197142Y-67917143D01*
X144268571Y-67845714D01*
X141982857Y-67988571D02*
X142840000Y-67988571D01*
X142411428Y-67988571D02*
X142411428Y-66488571D01*
X142554285Y-66702857D01*
X142697143Y-66845714D01*
X142840000Y-66917143D01*
D12*
X157391100Y-118719600D02*
X139611100Y-118719600D01*
X139611100Y-118719600D02*
X139611100Y-88239600D01*
X139611100Y-88239600D02*
X157391100Y-88239600D01*
X157391100Y-88239600D02*
X157391100Y-118719600D01*
X142151100Y-118719600D02*
X142151100Y-116179600D01*
X142151100Y-116179600D02*
X139611100Y-116179600D01*
D13*
X153043346Y-90117144D02*
X153043346Y-88847144D01*
X152462774Y-88847144D01*
X152317632Y-88907620D01*
X152245060Y-88968096D01*
X152172489Y-89089049D01*
X152172489Y-89270477D01*
X152245060Y-89391430D01*
X152317632Y-89451906D01*
X152462774Y-89512382D01*
X153043346Y-89512382D01*
X151519346Y-90117144D02*
X151519346Y-89270477D01*
X151519346Y-89512382D02*
X151446774Y-89391430D01*
X151374203Y-89330953D01*
X151229060Y-89270477D01*
X151083917Y-89270477D01*
X150358203Y-90117144D02*
X150503345Y-90056668D01*
X150575917Y-89996191D01*
X150648488Y-89875239D01*
X150648488Y-89512382D01*
X150575917Y-89391430D01*
X150503345Y-89330953D01*
X150358203Y-89270477D01*
X150140488Y-89270477D01*
X149995345Y-89330953D01*
X149922774Y-89391430D01*
X149850203Y-89512382D01*
X149850203Y-89875239D01*
X149922774Y-89996191D01*
X149995345Y-90056668D01*
X150140488Y-90117144D01*
X150358203Y-90117144D01*
X149197060Y-90117144D02*
X149197060Y-88847144D01*
X148689060Y-89754287D01*
X148181060Y-88847144D01*
X148181060Y-90117144D01*
X147455346Y-90117144D02*
X147455346Y-89270477D01*
X147455346Y-88847144D02*
X147527917Y-88907620D01*
X147455346Y-88968096D01*
X147382774Y-88907620D01*
X147455346Y-88847144D01*
X147455346Y-88968096D01*
X146076489Y-90056668D02*
X146221632Y-90117144D01*
X146511918Y-90117144D01*
X146657060Y-90056668D01*
X146729632Y-89996191D01*
X146802203Y-89875239D01*
X146802203Y-89512382D01*
X146729632Y-89391430D01*
X146657060Y-89330953D01*
X146511918Y-89270477D01*
X146221632Y-89270477D01*
X146076489Y-89330953D01*
X145423346Y-90117144D02*
X145423346Y-89270477D01*
X145423346Y-89512382D02*
X145350774Y-89391430D01*
X145278203Y-89330953D01*
X145133060Y-89270477D01*
X144987917Y-89270477D01*
X144262203Y-90117144D02*
X144407345Y-90056668D01*
X144479917Y-89996191D01*
X144552488Y-89875239D01*
X144552488Y-89512382D01*
X144479917Y-89391430D01*
X144407345Y-89330953D01*
X144262203Y-89270477D01*
X144044488Y-89270477D01*
X143899345Y-89330953D01*
X143826774Y-89391430D01*
X143754203Y-89512382D01*
X143754203Y-89875239D01*
X143826774Y-89996191D01*
X143899345Y-90056668D01*
X144044488Y-90117144D01*
X144262203Y-90117144D01*
D10*
X154880433Y-89459600D02*
X154780433Y-89492933D01*
X154747100Y-89526267D01*
X154713766Y-89592933D01*
X154713766Y-89692933D01*
X154747100Y-89759600D01*
X154780433Y-89792933D01*
X154847100Y-89826267D01*
X155113766Y-89826267D01*
X155113766Y-89126267D01*
X154880433Y-89126267D01*
X154813766Y-89159600D01*
X154780433Y-89192933D01*
X154747100Y-89259600D01*
X154747100Y-89326267D01*
X154780433Y-89392933D01*
X154813766Y-89426267D01*
X154880433Y-89459600D01*
X155113766Y-89459600D01*
X154080433Y-89126267D02*
X154413766Y-89126267D01*
X154447100Y-89459600D01*
X154413766Y-89426267D01*
X154347100Y-89392933D01*
X154180433Y-89392933D01*
X154113766Y-89426267D01*
X154080433Y-89459600D01*
X154047100Y-89526267D01*
X154047100Y-89692933D01*
X154080433Y-89759600D01*
X154113766Y-89792933D01*
X154180433Y-89826267D01*
X154347100Y-89826267D01*
X154413766Y-89792933D01*
X154447100Y-89759600D01*
X154880433Y-91999600D02*
X154780433Y-92032933D01*
X154747100Y-92066267D01*
X154713766Y-92132933D01*
X154713766Y-92232933D01*
X154747100Y-92299600D01*
X154780433Y-92332933D01*
X154847100Y-92366267D01*
X155113766Y-92366267D01*
X155113766Y-91666267D01*
X154880433Y-91666267D01*
X154813766Y-91699600D01*
X154780433Y-91732933D01*
X154747100Y-91799600D01*
X154747100Y-91866267D01*
X154780433Y-91932933D01*
X154813766Y-91966267D01*
X154880433Y-91999600D01*
X155113766Y-91999600D01*
X154113766Y-91899600D02*
X154113766Y-92366267D01*
X154280433Y-91632933D02*
X154447100Y-92132933D01*
X154013766Y-92132933D01*
X155080433Y-94539600D02*
X154847100Y-94539600D01*
X154747100Y-94906267D02*
X155080433Y-94906267D01*
X155080433Y-94206267D01*
X154747100Y-94206267D01*
X154147100Y-94206267D02*
X154280434Y-94206267D01*
X154347100Y-94239600D01*
X154380434Y-94272933D01*
X154447100Y-94372933D01*
X154480434Y-94506267D01*
X154480434Y-94772933D01*
X154447100Y-94839600D01*
X154413767Y-94872933D01*
X154347100Y-94906267D01*
X154213767Y-94906267D01*
X154147100Y-94872933D01*
X154113767Y-94839600D01*
X154080434Y-94772933D01*
X154080434Y-94606267D01*
X154113767Y-94539600D01*
X154147100Y-94506267D01*
X154213767Y-94472933D01*
X154347100Y-94472933D01*
X154413767Y-94506267D01*
X154447100Y-94539600D01*
X154480434Y-94606267D01*
X155113766Y-97446267D02*
X155113766Y-96746267D01*
X154947100Y-96746267D01*
X154847100Y-96779600D01*
X154780433Y-96846267D01*
X154747100Y-96912933D01*
X154713766Y-97046267D01*
X154713766Y-97146267D01*
X154747100Y-97279600D01*
X154780433Y-97346267D01*
X154847100Y-97412933D01*
X154947100Y-97446267D01*
X155113766Y-97446267D01*
X154480433Y-96746267D02*
X154013766Y-96746267D01*
X154313766Y-97446267D01*
X154713766Y-99919600D02*
X154747100Y-99952933D01*
X154847100Y-99986267D01*
X154913766Y-99986267D01*
X155013766Y-99952933D01*
X155080433Y-99886267D01*
X155113766Y-99819600D01*
X155147100Y-99686267D01*
X155147100Y-99586267D01*
X155113766Y-99452933D01*
X155080433Y-99386267D01*
X155013766Y-99319600D01*
X154913766Y-99286267D01*
X154847100Y-99286267D01*
X154747100Y-99319600D01*
X154713766Y-99352933D01*
X154113766Y-99286267D02*
X154247100Y-99286267D01*
X154313766Y-99319600D01*
X154347100Y-99352933D01*
X154413766Y-99452933D01*
X154447100Y-99586267D01*
X154447100Y-99852933D01*
X154413766Y-99919600D01*
X154380433Y-99952933D01*
X154313766Y-99986267D01*
X154180433Y-99986267D01*
X154113766Y-99952933D01*
X154080433Y-99919600D01*
X154047100Y-99852933D01*
X154047100Y-99686267D01*
X154080433Y-99619600D01*
X154113766Y-99586267D01*
X154180433Y-99552933D01*
X154313766Y-99552933D01*
X154380433Y-99586267D01*
X154413766Y-99619600D01*
X154447100Y-99686267D01*
X155113766Y-102526267D02*
X155113766Y-101826267D01*
X154947100Y-101826267D01*
X154847100Y-101859600D01*
X154780433Y-101926267D01*
X154747100Y-101992933D01*
X154713766Y-102126267D01*
X154713766Y-102226267D01*
X154747100Y-102359600D01*
X154780433Y-102426267D01*
X154847100Y-102492933D01*
X154947100Y-102526267D01*
X155113766Y-102526267D01*
X154113766Y-102059600D02*
X154113766Y-102526267D01*
X154280433Y-101792933D02*
X154447100Y-102292933D01*
X154013766Y-102292933D01*
X155113766Y-105066267D02*
X155113766Y-104366267D01*
X154947100Y-104366267D01*
X154847100Y-104399600D01*
X154780433Y-104466267D01*
X154747100Y-104532933D01*
X154713766Y-104666267D01*
X154713766Y-104766267D01*
X154747100Y-104899600D01*
X154780433Y-104966267D01*
X154847100Y-105032933D01*
X154947100Y-105066267D01*
X155113766Y-105066267D01*
X154280433Y-104366267D02*
X154213766Y-104366267D01*
X154147100Y-104399600D01*
X154113766Y-104432933D01*
X154080433Y-104499600D01*
X154047100Y-104632933D01*
X154047100Y-104799600D01*
X154080433Y-104932933D01*
X154113766Y-104999600D01*
X154147100Y-105032933D01*
X154213766Y-105066267D01*
X154280433Y-105066267D01*
X154347100Y-105032933D01*
X154380433Y-104999600D01*
X154413766Y-104932933D01*
X154447100Y-104799600D01*
X154447100Y-104632933D01*
X154413766Y-104499600D01*
X154380433Y-104432933D01*
X154347100Y-104399600D01*
X154280433Y-104366267D01*
X155113766Y-107606267D02*
X155113766Y-106906267D01*
X154947100Y-106906267D01*
X154847100Y-106939600D01*
X154780433Y-107006267D01*
X154747100Y-107072933D01*
X154713766Y-107206267D01*
X154713766Y-107306267D01*
X154747100Y-107439600D01*
X154780433Y-107506267D01*
X154847100Y-107572933D01*
X154947100Y-107606267D01*
X155113766Y-107606267D01*
X154047100Y-107606267D02*
X154447100Y-107606267D01*
X154247100Y-107606267D02*
X154247100Y-106906267D01*
X154313766Y-107006267D01*
X154380433Y-107072933D01*
X154447100Y-107106267D01*
X154622433Y-109479600D02*
X154689099Y-109446267D01*
X154789099Y-109446267D01*
X154889099Y-109479600D01*
X154955766Y-109546267D01*
X154989099Y-109612933D01*
X155022433Y-109746267D01*
X155022433Y-109846267D01*
X154989099Y-109979600D01*
X154955766Y-110046267D01*
X154889099Y-110112933D01*
X154789099Y-110146267D01*
X154722433Y-110146267D01*
X154622433Y-110112933D01*
X154589099Y-110079600D01*
X154589099Y-109846267D01*
X154722433Y-109846267D01*
X154289099Y-110146267D02*
X154289099Y-109446267D01*
X153889099Y-110146267D01*
X153889099Y-109446267D01*
X153555766Y-110146267D02*
X153555766Y-109446267D01*
X153389100Y-109446267D01*
X153289100Y-109479600D01*
X153222433Y-109546267D01*
X153189100Y-109612933D01*
X153155766Y-109746267D01*
X153155766Y-109846267D01*
X153189100Y-109979600D01*
X153222433Y-110046267D01*
X153289100Y-110112933D01*
X153389100Y-110146267D01*
X153555766Y-110146267D01*
X154622433Y-112019600D02*
X154689099Y-111986267D01*
X154789099Y-111986267D01*
X154889099Y-112019600D01*
X154955766Y-112086267D01*
X154989099Y-112152933D01*
X155022433Y-112286267D01*
X155022433Y-112386267D01*
X154989099Y-112519600D01*
X154955766Y-112586267D01*
X154889099Y-112652933D01*
X154789099Y-112686267D01*
X154722433Y-112686267D01*
X154622433Y-112652933D01*
X154589099Y-112619600D01*
X154589099Y-112386267D01*
X154722433Y-112386267D01*
X154289099Y-112686267D02*
X154289099Y-111986267D01*
X153889099Y-112686267D01*
X153889099Y-111986267D01*
X153555766Y-112686267D02*
X153555766Y-111986267D01*
X153389100Y-111986267D01*
X153289100Y-112019600D01*
X153222433Y-112086267D01*
X153189100Y-112152933D01*
X153155766Y-112286267D01*
X153155766Y-112386267D01*
X153189100Y-112519600D01*
X153222433Y-112586267D01*
X153289100Y-112652933D01*
X153389100Y-112686267D01*
X153555766Y-112686267D01*
X155113766Y-115226267D02*
X155113766Y-114526267D01*
X154947100Y-114526267D01*
X154847100Y-114559600D01*
X154780433Y-114626267D01*
X154747100Y-114692933D01*
X154713766Y-114826267D01*
X154713766Y-114926267D01*
X154747100Y-115059600D01*
X154780433Y-115126267D01*
X154847100Y-115192933D01*
X154947100Y-115226267D01*
X155113766Y-115226267D01*
X154447100Y-114592933D02*
X154413766Y-114559600D01*
X154347100Y-114526267D01*
X154180433Y-114526267D01*
X154113766Y-114559600D01*
X154080433Y-114592933D01*
X154047100Y-114659600D01*
X154047100Y-114726267D01*
X154080433Y-114826267D01*
X154480433Y-115226267D01*
X154047100Y-115226267D01*
X155113766Y-117766267D02*
X155113766Y-117066267D01*
X154947100Y-117066267D01*
X154847100Y-117099600D01*
X154780433Y-117166267D01*
X154747100Y-117232933D01*
X154713766Y-117366267D01*
X154713766Y-117466267D01*
X154747100Y-117599600D01*
X154780433Y-117666267D01*
X154847100Y-117732933D01*
X154947100Y-117766267D01*
X155113766Y-117766267D01*
X154480433Y-117066267D02*
X154047100Y-117066267D01*
X154280433Y-117332933D01*
X154180433Y-117332933D01*
X154113766Y-117366267D01*
X154080433Y-117399600D01*
X154047100Y-117466267D01*
X154047100Y-117632933D01*
X154080433Y-117699600D01*
X154113766Y-117732933D01*
X154180433Y-117766267D01*
X154380433Y-117766267D01*
X154447100Y-117732933D01*
X154480433Y-117699600D01*
X142688433Y-89459600D02*
X142588433Y-89492933D01*
X142555100Y-89526267D01*
X142521766Y-89592933D01*
X142521766Y-89692933D01*
X142555100Y-89759600D01*
X142588433Y-89792933D01*
X142655100Y-89826267D01*
X142921766Y-89826267D01*
X142921766Y-89126267D01*
X142688433Y-89126267D01*
X142621766Y-89159600D01*
X142588433Y-89192933D01*
X142555100Y-89259600D01*
X142555100Y-89326267D01*
X142588433Y-89392933D01*
X142621766Y-89426267D01*
X142688433Y-89459600D01*
X142921766Y-89459600D01*
X141921766Y-89126267D02*
X142055100Y-89126267D01*
X142121766Y-89159600D01*
X142155100Y-89192933D01*
X142221766Y-89292933D01*
X142255100Y-89426267D01*
X142255100Y-89692933D01*
X142221766Y-89759600D01*
X142188433Y-89792933D01*
X142121766Y-89826267D01*
X141988433Y-89826267D01*
X141921766Y-89792933D01*
X141888433Y-89759600D01*
X141855100Y-89692933D01*
X141855100Y-89526267D01*
X141888433Y-89459600D01*
X141921766Y-89426267D01*
X141988433Y-89392933D01*
X142121766Y-89392933D01*
X142188433Y-89426267D01*
X142221766Y-89459600D01*
X142255100Y-89526267D01*
X142688433Y-91999600D02*
X142588433Y-92032933D01*
X142555100Y-92066267D01*
X142521766Y-92132933D01*
X142521766Y-92232933D01*
X142555100Y-92299600D01*
X142588433Y-92332933D01*
X142655100Y-92366267D01*
X142921766Y-92366267D01*
X142921766Y-91666267D01*
X142688433Y-91666267D01*
X142621766Y-91699600D01*
X142588433Y-91732933D01*
X142555100Y-91799600D01*
X142555100Y-91866267D01*
X142588433Y-91932933D01*
X142621766Y-91966267D01*
X142688433Y-91999600D01*
X142921766Y-91999600D01*
X142255100Y-91732933D02*
X142221766Y-91699600D01*
X142155100Y-91666267D01*
X141988433Y-91666267D01*
X141921766Y-91699600D01*
X141888433Y-91732933D01*
X141855100Y-91799600D01*
X141855100Y-91866267D01*
X141888433Y-91966267D01*
X142288433Y-92366267D01*
X141855100Y-92366267D01*
X142688433Y-94539600D02*
X142588433Y-94572933D01*
X142555100Y-94606267D01*
X142521766Y-94672933D01*
X142521766Y-94772933D01*
X142555100Y-94839600D01*
X142588433Y-94872933D01*
X142655100Y-94906267D01*
X142921766Y-94906267D01*
X142921766Y-94206267D01*
X142688433Y-94206267D01*
X142621766Y-94239600D01*
X142588433Y-94272933D01*
X142555100Y-94339600D01*
X142555100Y-94406267D01*
X142588433Y-94472933D01*
X142621766Y-94506267D01*
X142688433Y-94539600D01*
X142921766Y-94539600D01*
X142288433Y-94206267D02*
X141855100Y-94206267D01*
X142088433Y-94472933D01*
X141988433Y-94472933D01*
X141921766Y-94506267D01*
X141888433Y-94539600D01*
X141855100Y-94606267D01*
X141855100Y-94772933D01*
X141888433Y-94839600D01*
X141921766Y-94872933D01*
X141988433Y-94906267D01*
X142188433Y-94906267D01*
X142255100Y-94872933D01*
X142288433Y-94839600D01*
X142688433Y-97079600D02*
X142588433Y-97112933D01*
X142555100Y-97146267D01*
X142521766Y-97212933D01*
X142521766Y-97312933D01*
X142555100Y-97379600D01*
X142588433Y-97412933D01*
X142655100Y-97446267D01*
X142921766Y-97446267D01*
X142921766Y-96746267D01*
X142688433Y-96746267D01*
X142621766Y-96779600D01*
X142588433Y-96812933D01*
X142555100Y-96879600D01*
X142555100Y-96946267D01*
X142588433Y-97012933D01*
X142621766Y-97046267D01*
X142688433Y-97079600D01*
X142921766Y-97079600D01*
X141855100Y-97446267D02*
X142255100Y-97446267D01*
X142055100Y-97446267D02*
X142055100Y-96746267D01*
X142121766Y-96846267D01*
X142188433Y-96912933D01*
X142255100Y-96946267D01*
X142638433Y-102159600D02*
X142871766Y-102159600D01*
X142871766Y-102526267D02*
X142871766Y-101826267D01*
X142538433Y-101826267D01*
X141971766Y-101826267D02*
X142105100Y-101826267D01*
X142171766Y-101859600D01*
X142205100Y-101892933D01*
X142271766Y-101992933D01*
X142305100Y-102126267D01*
X142305100Y-102392933D01*
X142271766Y-102459600D01*
X142238433Y-102492933D01*
X142171766Y-102526267D01*
X142038433Y-102526267D01*
X141971766Y-102492933D01*
X141938433Y-102459600D01*
X141905100Y-102392933D01*
X141905100Y-102226267D01*
X141938433Y-102159600D01*
X141971766Y-102126267D01*
X142038433Y-102092933D01*
X142171766Y-102092933D01*
X142238433Y-102126267D01*
X142271766Y-102159600D01*
X142305100Y-102226267D01*
X142638433Y-99619600D02*
X142871766Y-99619600D01*
X142871766Y-99986267D02*
X142871766Y-99286267D01*
X142538433Y-99286267D01*
X142338433Y-99286267D02*
X141871766Y-99286267D01*
X142171766Y-99986267D01*
X142638433Y-104699600D02*
X142871766Y-104699600D01*
X142871766Y-105066267D02*
X142871766Y-104366267D01*
X142538433Y-104366267D01*
X141938433Y-104366267D02*
X142271766Y-104366267D01*
X142305100Y-104699600D01*
X142271766Y-104666267D01*
X142205100Y-104632933D01*
X142038433Y-104632933D01*
X141971766Y-104666267D01*
X141938433Y-104699600D01*
X141905100Y-104766267D01*
X141905100Y-104932933D01*
X141938433Y-104999600D01*
X141971766Y-105032933D01*
X142038433Y-105066267D01*
X142205100Y-105066267D01*
X142271766Y-105032933D01*
X142305100Y-104999600D01*
X142638433Y-107239600D02*
X142871766Y-107239600D01*
X142871766Y-107606267D02*
X142871766Y-106906267D01*
X142538433Y-106906267D01*
X141971766Y-107139600D02*
X141971766Y-107606267D01*
X142138433Y-106872933D02*
X142305100Y-107372933D01*
X141871766Y-107372933D01*
X143846433Y-109446267D02*
X143613100Y-110146267D01*
X143379767Y-109446267D01*
X142746433Y-110079600D02*
X142779767Y-110112933D01*
X142879767Y-110146267D01*
X142946433Y-110146267D01*
X143046433Y-110112933D01*
X143113100Y-110046267D01*
X143146433Y-109979600D01*
X143179767Y-109846267D01*
X143179767Y-109746267D01*
X143146433Y-109612933D01*
X143113100Y-109546267D01*
X143046433Y-109479600D01*
X142946433Y-109446267D01*
X142879767Y-109446267D01*
X142779767Y-109479600D01*
X142746433Y-109512933D01*
X142046433Y-110079600D02*
X142079767Y-110112933D01*
X142179767Y-110146267D01*
X142246433Y-110146267D01*
X142346433Y-110112933D01*
X142413100Y-110046267D01*
X142446433Y-109979600D01*
X142479767Y-109846267D01*
X142479767Y-109746267D01*
X142446433Y-109612933D01*
X142413100Y-109546267D01*
X142346433Y-109479600D01*
X142246433Y-109446267D01*
X142179767Y-109446267D01*
X142079767Y-109479600D01*
X142046433Y-109512933D01*
X143296433Y-112686267D02*
X143529767Y-112352933D01*
X143696433Y-112686267D02*
X143696433Y-111986267D01*
X143429767Y-111986267D01*
X143363100Y-112019600D01*
X143329767Y-112052933D01*
X143296433Y-112119600D01*
X143296433Y-112219600D01*
X143329767Y-112286267D01*
X143363100Y-112319600D01*
X143429767Y-112352933D01*
X143696433Y-112352933D01*
X143029767Y-112652933D02*
X142929767Y-112686267D01*
X142763100Y-112686267D01*
X142696433Y-112652933D01*
X142663100Y-112619600D01*
X142629767Y-112552933D01*
X142629767Y-112486267D01*
X142663100Y-112419600D01*
X142696433Y-112386267D01*
X142763100Y-112352933D01*
X142896433Y-112319600D01*
X142963100Y-112286267D01*
X142996433Y-112252933D01*
X143029767Y-112186267D01*
X143029767Y-112119600D01*
X142996433Y-112052933D01*
X142963100Y-112019600D01*
X142896433Y-111986267D01*
X142729767Y-111986267D01*
X142629767Y-112019600D01*
X142429766Y-111986267D02*
X142029766Y-111986267D01*
X142229766Y-112686267D02*
X142229766Y-111986267D01*
X143446433Y-114559600D02*
X143513099Y-114526267D01*
X143613099Y-114526267D01*
X143713099Y-114559600D01*
X143779766Y-114626267D01*
X143813099Y-114692933D01*
X143846433Y-114826267D01*
X143846433Y-114926267D01*
X143813099Y-115059600D01*
X143779766Y-115126267D01*
X143713099Y-115192933D01*
X143613099Y-115226267D01*
X143546433Y-115226267D01*
X143446433Y-115192933D01*
X143413099Y-115159600D01*
X143413099Y-114926267D01*
X143546433Y-114926267D01*
X143113099Y-115226267D02*
X143113099Y-114526267D01*
X142713099Y-115226267D01*
X142713099Y-114526267D01*
X142379766Y-115226267D02*
X142379766Y-114526267D01*
X142213100Y-114526267D01*
X142113100Y-114559600D01*
X142046433Y-114626267D01*
X142013100Y-114692933D01*
X141979766Y-114826267D01*
X141979766Y-114926267D01*
X142013100Y-115059600D01*
X142046433Y-115126267D01*
X142113100Y-115192933D01*
X142213100Y-115226267D01*
X142379766Y-115226267D01*
X143904433Y-117512267D02*
X144137767Y-117178933D01*
X144304433Y-117512267D02*
X144304433Y-116812267D01*
X144037767Y-116812267D01*
X143971100Y-116845600D01*
X143937767Y-116878933D01*
X143904433Y-116945600D01*
X143904433Y-117045600D01*
X143937767Y-117112267D01*
X143971100Y-117145600D01*
X144037767Y-117178933D01*
X144304433Y-117178933D01*
X143637767Y-117312267D02*
X143304433Y-117312267D01*
X143704433Y-117512267D02*
X143471100Y-116812267D01*
X143237767Y-117512267D01*
X143071100Y-116812267D02*
X142904433Y-117512267D01*
X142771100Y-117012267D01*
X142637767Y-117512267D01*
X142471100Y-116812267D01*
M02*
