M48
;DRILL file {KiCad 4.0.7} date 05/30/18 17:56:53
;FORMAT={-:-/ absolute / inch / decimal}
FMAT,2
INCH,TZ
T1C0.016
T2C0.039
T3C0.043
%
G90
G05
M72
T1
X5.575Y-3.325
X5.59Y-2.84
X5.6146Y-3.265
X5.6304Y-3.235
X5.65Y-2.875
X5.65Y-2.925
X5.65Y-3.1
X5.675Y-3.075
X5.7Y-3.05
X5.8673Y-3.585
X5.87Y-2.895
X5.88Y-2.94
X5.8965Y-3.6098
X5.9Y-2.985
X5.93Y-3.635
X5.935Y-3.035
X5.97Y-3.135
X5.99Y-3.165
X6.0403Y-3.2311
X6.05Y-3.005
X6.0592Y-3.2563
X6.0791Y-3.2808
X6.08Y-3.045
X6.0958Y-3.3075
T2
X5.7Y-4.6
X5.79Y-3.77
X5.79Y-3.87
X5.79Y-3.97
X5.79Y-4.07
X5.79Y-4.17
X5.79Y-4.27
X5.8Y-4.6
X5.89Y-3.77
X5.89Y-3.87
X5.89Y-3.97
X5.89Y-4.07
X5.89Y-4.17
X5.89Y-4.27
X5.9Y-4.6
X6.Y-4.6
T3
X5.5465Y-3.524
X5.5465Y-3.624
X5.5465Y-3.724
X5.5465Y-3.824
X5.5465Y-3.924
X5.5465Y-4.024
X5.5465Y-4.124
X5.5465Y-4.224
X5.5465Y-4.324
X5.5465Y-4.424
X5.5465Y-4.524
X5.5465Y-4.624
X6.1465Y-3.524
X6.1465Y-3.624
X6.1465Y-3.724
X6.1465Y-3.824
X6.1465Y-3.924
X6.1465Y-4.024
X6.1465Y-4.124
X6.1465Y-4.224
X6.1465Y-4.324
X6.1465Y-4.424
X6.1465Y-4.524
X6.1465Y-4.624
T0
M30
