G04 #@! TF.FileFunction,Copper,L2,Bot,Signal*
%FSLAX46Y46*%
G04 Gerber Fmt 4.6, Leading zero omitted, Abs format (unit mm)*
G04 Created by KiCad (PCBNEW 4.0.7) date 04/15/18 04:59:30*
%MOMM*%
%LPD*%
G01*
G04 APERTURE LIST*
%ADD10C,0.100000*%
%ADD11R,3.250000X3.250000*%
%ADD12R,1.700000X1.700000*%
%ADD13O,1.700000X1.700000*%
%ADD14C,1.000000*%
%ADD15R,1.250000X0.900000*%
%ADD16R,0.900000X0.900000*%
%ADD17C,0.600000*%
%ADD18C,1.000000*%
%ADD19C,0.254000*%
G04 APERTURE END LIST*
D10*
D11*
X162559999Y-104394000D03*
X162559999Y-129286000D03*
X162559999Y-116840000D03*
D12*
X177800000Y-104140000D03*
D13*
X177800000Y-106680000D03*
X177800000Y-109220000D03*
X177800000Y-111760000D03*
X177800000Y-114300000D03*
X177800000Y-116840000D03*
D14*
X177800004Y-124919998D03*
X177800004Y-121919998D03*
X177800000Y-121920000D03*
X177800000Y-124920000D03*
D15*
X175725000Y-124170000D03*
X175725000Y-125670000D03*
X175725000Y-121170000D03*
D16*
X178900000Y-119720000D03*
X176700000Y-119720000D03*
X176700000Y-127120000D03*
X178900000Y-127120000D03*
D17*
X162559999Y-114215000D03*
X172085000Y-125095000D03*
D18*
X162559999Y-116840000D02*
X162559999Y-114215000D01*
X162559999Y-104394000D02*
X162559999Y-107019000D01*
X162559999Y-107019000D02*
X157480000Y-112098999D01*
X157480000Y-112098999D02*
X157480000Y-124460000D01*
X162306000Y-129286000D02*
X162559999Y-129286000D01*
X157480000Y-124460000D02*
X162306000Y-129286000D01*
X162559999Y-129286000D02*
X170434000Y-129286000D01*
X170434000Y-129286000D02*
X173355000Y-126365000D01*
X173355000Y-125095000D02*
X174280000Y-124170000D01*
X174280000Y-124170000D02*
X175725000Y-124170000D01*
X173355000Y-126365000D02*
X173355000Y-125095000D01*
X174100000Y-119720000D02*
X174100000Y-121175000D01*
X172085000Y-123190000D02*
X172085000Y-124670736D01*
X174100000Y-121175000D02*
X172085000Y-123190000D01*
X172085000Y-124670736D02*
X172085000Y-125095000D01*
X174100000Y-119720000D02*
X174100000Y-121170000D01*
X174100000Y-121170000D02*
X175725000Y-121170000D01*
X177800000Y-114300000D02*
X176597919Y-114300000D01*
X176597919Y-114300000D02*
X174100000Y-116797919D01*
X174100000Y-116797919D02*
X174100000Y-119720000D01*
X175950000Y-104140000D02*
X177800000Y-104140000D01*
D19*
G36*
X178494989Y-102462152D02*
X178814993Y-102675972D01*
X178650000Y-102642560D01*
X176950000Y-102642560D01*
X176714683Y-102686838D01*
X176498559Y-102825910D01*
X176376192Y-103005000D01*
X175950000Y-103005000D01*
X175515654Y-103091397D01*
X175147434Y-103337434D01*
X174901397Y-103705654D01*
X174815000Y-104140000D01*
X174901397Y-104574346D01*
X175147434Y-104942566D01*
X175515654Y-105188603D01*
X175950000Y-105275000D01*
X176378808Y-105275000D01*
X176485910Y-105441441D01*
X176698110Y-105586431D01*
X176765541Y-105600086D01*
X176720853Y-105629946D01*
X176398946Y-106111715D01*
X176285907Y-106680000D01*
X176398946Y-107248285D01*
X176720853Y-107730054D01*
X177050026Y-107950000D01*
X176720853Y-108169946D01*
X176398946Y-108651715D01*
X176285907Y-109220000D01*
X176398946Y-109788285D01*
X176720853Y-110270054D01*
X177050026Y-110490000D01*
X176720853Y-110709946D01*
X176398946Y-111191715D01*
X176285907Y-111760000D01*
X176398946Y-112328285D01*
X176720853Y-112810054D01*
X177050026Y-113030000D01*
X176847984Y-113165000D01*
X176597919Y-113165000D01*
X176163573Y-113251397D01*
X175795353Y-113497434D01*
X173297434Y-115995353D01*
X173051397Y-116363573D01*
X172965000Y-116797919D01*
X172965000Y-120704868D01*
X171282434Y-122387434D01*
X171036397Y-122755654D01*
X170950000Y-123190000D01*
X170950000Y-125095000D01*
X171036397Y-125529346D01*
X171282434Y-125897566D01*
X171650654Y-126143603D01*
X171918072Y-126196796D01*
X169963868Y-128151000D01*
X164832439Y-128151000D01*
X164832439Y-127661000D01*
X164788161Y-127425683D01*
X164649089Y-127209559D01*
X164436889Y-127064569D01*
X164184999Y-127013560D01*
X161638692Y-127013560D01*
X158615000Y-123989868D01*
X158615000Y-117125750D01*
X160299999Y-117125750D01*
X160299999Y-118591309D01*
X160396672Y-118824698D01*
X160575300Y-119003327D01*
X160808689Y-119100000D01*
X162274249Y-119100000D01*
X162432999Y-118941250D01*
X162432999Y-116967000D01*
X162686999Y-116967000D01*
X162686999Y-118941250D01*
X162845749Y-119100000D01*
X164311309Y-119100000D01*
X164544698Y-119003327D01*
X164723326Y-118824698D01*
X164819999Y-118591309D01*
X164819999Y-117125750D01*
X164661249Y-116967000D01*
X162686999Y-116967000D01*
X162432999Y-116967000D01*
X160458749Y-116967000D01*
X160299999Y-117125750D01*
X158615000Y-117125750D01*
X158615000Y-115088691D01*
X160299999Y-115088691D01*
X160299999Y-116554250D01*
X160458749Y-116713000D01*
X162432999Y-116713000D01*
X162432999Y-114738750D01*
X162686999Y-114738750D01*
X162686999Y-116713000D01*
X164661249Y-116713000D01*
X164819999Y-116554250D01*
X164819999Y-115088691D01*
X164723326Y-114855302D01*
X164544698Y-114676673D01*
X164311309Y-114580000D01*
X162845749Y-114580000D01*
X162686999Y-114738750D01*
X162432999Y-114738750D01*
X162274249Y-114580000D01*
X160808689Y-114580000D01*
X160575300Y-114676673D01*
X160396672Y-114855302D01*
X160299999Y-115088691D01*
X158615000Y-115088691D01*
X158615000Y-112569131D01*
X163362565Y-107821567D01*
X163608602Y-107453346D01*
X163649391Y-107248285D01*
X163694999Y-107019000D01*
X163694999Y-106666440D01*
X164184999Y-106666440D01*
X164420316Y-106622162D01*
X164636440Y-106483090D01*
X164781430Y-106270890D01*
X164832439Y-106019000D01*
X164832439Y-102769000D01*
X164788161Y-102533683D01*
X164649089Y-102317559D01*
X164638026Y-102310000D01*
X177730069Y-102310000D01*
X178494989Y-102462152D01*
X178494989Y-102462152D01*
G37*
X178494989Y-102462152D02*
X178814993Y-102675972D01*
X178650000Y-102642560D01*
X176950000Y-102642560D01*
X176714683Y-102686838D01*
X176498559Y-102825910D01*
X176376192Y-103005000D01*
X175950000Y-103005000D01*
X175515654Y-103091397D01*
X175147434Y-103337434D01*
X174901397Y-103705654D01*
X174815000Y-104140000D01*
X174901397Y-104574346D01*
X175147434Y-104942566D01*
X175515654Y-105188603D01*
X175950000Y-105275000D01*
X176378808Y-105275000D01*
X176485910Y-105441441D01*
X176698110Y-105586431D01*
X176765541Y-105600086D01*
X176720853Y-105629946D01*
X176398946Y-106111715D01*
X176285907Y-106680000D01*
X176398946Y-107248285D01*
X176720853Y-107730054D01*
X177050026Y-107950000D01*
X176720853Y-108169946D01*
X176398946Y-108651715D01*
X176285907Y-109220000D01*
X176398946Y-109788285D01*
X176720853Y-110270054D01*
X177050026Y-110490000D01*
X176720853Y-110709946D01*
X176398946Y-111191715D01*
X176285907Y-111760000D01*
X176398946Y-112328285D01*
X176720853Y-112810054D01*
X177050026Y-113030000D01*
X176847984Y-113165000D01*
X176597919Y-113165000D01*
X176163573Y-113251397D01*
X175795353Y-113497434D01*
X173297434Y-115995353D01*
X173051397Y-116363573D01*
X172965000Y-116797919D01*
X172965000Y-120704868D01*
X171282434Y-122387434D01*
X171036397Y-122755654D01*
X170950000Y-123190000D01*
X170950000Y-125095000D01*
X171036397Y-125529346D01*
X171282434Y-125897566D01*
X171650654Y-126143603D01*
X171918072Y-126196796D01*
X169963868Y-128151000D01*
X164832439Y-128151000D01*
X164832439Y-127661000D01*
X164788161Y-127425683D01*
X164649089Y-127209559D01*
X164436889Y-127064569D01*
X164184999Y-127013560D01*
X161638692Y-127013560D01*
X158615000Y-123989868D01*
X158615000Y-117125750D01*
X160299999Y-117125750D01*
X160299999Y-118591309D01*
X160396672Y-118824698D01*
X160575300Y-119003327D01*
X160808689Y-119100000D01*
X162274249Y-119100000D01*
X162432999Y-118941250D01*
X162432999Y-116967000D01*
X162686999Y-116967000D01*
X162686999Y-118941250D01*
X162845749Y-119100000D01*
X164311309Y-119100000D01*
X164544698Y-119003327D01*
X164723326Y-118824698D01*
X164819999Y-118591309D01*
X164819999Y-117125750D01*
X164661249Y-116967000D01*
X162686999Y-116967000D01*
X162432999Y-116967000D01*
X160458749Y-116967000D01*
X160299999Y-117125750D01*
X158615000Y-117125750D01*
X158615000Y-115088691D01*
X160299999Y-115088691D01*
X160299999Y-116554250D01*
X160458749Y-116713000D01*
X162432999Y-116713000D01*
X162432999Y-114738750D01*
X162686999Y-114738750D01*
X162686999Y-116713000D01*
X164661249Y-116713000D01*
X164819999Y-116554250D01*
X164819999Y-115088691D01*
X164723326Y-114855302D01*
X164544698Y-114676673D01*
X164311309Y-114580000D01*
X162845749Y-114580000D01*
X162686999Y-114738750D01*
X162432999Y-114738750D01*
X162274249Y-114580000D01*
X160808689Y-114580000D01*
X160575300Y-114676673D01*
X160396672Y-114855302D01*
X160299999Y-115088691D01*
X158615000Y-115088691D01*
X158615000Y-112569131D01*
X163362565Y-107821567D01*
X163608602Y-107453346D01*
X163649391Y-107248285D01*
X163694999Y-107019000D01*
X163694999Y-106666440D01*
X164184999Y-106666440D01*
X164420316Y-106622162D01*
X164636440Y-106483090D01*
X164781430Y-106270890D01*
X164832439Y-106019000D01*
X164832439Y-102769000D01*
X164788161Y-102533683D01*
X164649089Y-102317559D01*
X164638026Y-102310000D01*
X177730069Y-102310000D01*
X178494989Y-102462152D01*
M02*
