M48
;DRILL file {KiCad (5.0.0)} date 10/05/18 17:45:00
;FORMAT={-:-/ absolute / inch / decimal}
FMAT,2
INCH,TZ
T1C0.0472
T2C0.0669
T3C0.0866
T4C0.1339
%
G90
G05
M72
T1
X5.4195Y-5.0404
X4.6695Y-4.2904
X3.9195Y-4.2904
X4.6695Y-5.0404
X4.6695Y-3.5404
X3.9195Y-5.0404
X5.4195Y-5.7904
X4.6695Y-5.7904
X3.1695Y-4.2904
X3.1695Y-5.0404
X3.1695Y-5.7904
X5.4195Y-4.2904
X3.9195Y-5.7904
X5.4195Y-3.5404
X3.1695Y-3.5404
X3.9195Y-3.5404
T2
X3.9085Y-4.125
X4.3415Y-4.125
X4.6585Y-4.875
X5.0915Y-4.875
X4.6585Y-3.375
X5.0915Y-3.375
X3.9085Y-4.875
X4.3415Y-4.875
X5.4085Y-5.625
X5.8415Y-5.625
X4.6585Y-5.625
X5.0915Y-5.625
X3.1585Y-4.125
X3.5915Y-4.125
X3.1585Y-4.875
X3.5915Y-4.875
X3.1585Y-5.625
X3.5915Y-5.625
X5.4085Y-4.125
X5.8415Y-4.125
X5.4085Y-4.875
X5.8415Y-4.875
X3.9085Y-5.625
X4.3415Y-5.625
X4.6585Y-4.125
X5.0915Y-4.125
X5.4085Y-3.375
X5.8415Y-3.375
X3.1585Y-3.375
X3.5915Y-3.375
X3.9085Y-3.375
X4.3415Y-3.375
T3
X3.19Y-3.755
X4.315Y-5.255
X5.815Y-3.755
X4.69Y-3.755
X5.815Y-5.255
X3.19Y-5.255
T4
X5.625Y-5.625
X4.875Y-5.625
X3.375Y-4.125
X3.375Y-4.875
X3.375Y-5.625
X5.625Y-4.125
X5.625Y-4.875
X4.125Y-5.625
X4.875Y-4.125
X5.625Y-3.375
X3.375Y-3.375
X4.125Y-3.375
X4.125Y-4.125
X4.875Y-4.875
X4.875Y-3.375
X4.125Y-4.875
T0
M30
