G04 #@! TF.GenerationSoftware,KiCad,Pcbnew,(5.0.0)*
G04 #@! TF.CreationDate,2018-10-05T17:44:57-06:00*
G04 #@! TF.ProjectId,4x4_backpack,3478345F6261636B7061636B2E6B6963,rev?*
G04 #@! TF.SameCoordinates,Original*
G04 #@! TF.FileFunction,Legend,Top*
G04 #@! TF.FilePolarity,Positive*
%FSLAX46Y46*%
G04 Gerber Fmt 4.6, Leading zero omitted, Abs format (unit mm)*
G04 Created by KiCad (PCBNEW (5.0.0)) date 10/05/18 17:44:57*
%MOMM*%
%LPD*%
G01*
G04 APERTURE LIST*
%ADD10C,1.000000*%
%ADD11C,0.120000*%
%ADD12C,0.200000*%
%ADD13C,0.150000*%
G04 APERTURE END LIST*
D10*
X93426190Y-93543571D02*
X93426190Y-96876904D01*
X92235714Y-91638809D02*
X91045238Y-95210238D01*
X94140476Y-95210238D01*
X95569047Y-96876904D02*
X98188095Y-93543571D01*
X95569047Y-93543571D02*
X98188095Y-96876904D01*
X102235714Y-93543571D02*
X102235714Y-96876904D01*
X101045238Y-91638809D02*
X99854761Y-95210238D01*
X102950000Y-95210238D01*
X111521428Y-96400714D02*
X111283333Y-96638809D01*
X110569047Y-96876904D01*
X110092857Y-96876904D01*
X109378571Y-96638809D01*
X108902380Y-96162619D01*
X108664285Y-95686428D01*
X108426190Y-94734047D01*
X108426190Y-94019761D01*
X108664285Y-93067380D01*
X108902380Y-92591190D01*
X109378571Y-92115000D01*
X110092857Y-91876904D01*
X110569047Y-91876904D01*
X111283333Y-92115000D01*
X111521428Y-92353095D01*
X113664285Y-96876904D02*
X113664285Y-91876904D01*
X115807142Y-96876904D02*
X115807142Y-94257857D01*
X115569047Y-93781666D01*
X115092857Y-93543571D01*
X114378571Y-93543571D01*
X113902380Y-93781666D01*
X113664285Y-94019761D01*
X118902380Y-96876904D02*
X118426190Y-96638809D01*
X118188095Y-96400714D01*
X117949999Y-95924523D01*
X117949999Y-94495952D01*
X118188095Y-94019761D01*
X118426190Y-93781666D01*
X118902380Y-93543571D01*
X119616666Y-93543571D01*
X120092857Y-93781666D01*
X120330952Y-94019761D01*
X120569047Y-94495952D01*
X120569047Y-95924523D01*
X120330952Y-96400714D01*
X120092857Y-96638809D01*
X119616666Y-96876904D01*
X118902380Y-96876904D01*
X124854761Y-96638809D02*
X124378571Y-96876904D01*
X123426190Y-96876904D01*
X122949999Y-96638809D01*
X122711904Y-96400714D01*
X122473809Y-95924523D01*
X122473809Y-94495952D01*
X122711904Y-94019761D01*
X122949999Y-93781666D01*
X123426190Y-93543571D01*
X124378571Y-93543571D01*
X124854761Y-93781666D01*
D11*
G04 #@! TO.C,J1*
X76140000Y-91182500D02*
X78800000Y-91182500D01*
X76140000Y-83502500D02*
X76140000Y-91182500D01*
X78800000Y-83502500D02*
X78800000Y-91182500D01*
X76140000Y-83502500D02*
X78800000Y-83502500D01*
X76140000Y-82232500D02*
X76140000Y-80902500D01*
X76140000Y-80902500D02*
X77470000Y-80902500D01*
G04 #@! TO.C,J2*
X76140000Y-99952500D02*
X77470000Y-99952500D01*
X76140000Y-101282500D02*
X76140000Y-99952500D01*
X76140000Y-102552500D02*
X78800000Y-102552500D01*
X78800000Y-102552500D02*
X78800000Y-110232500D01*
X76140000Y-102552500D02*
X76140000Y-110232500D01*
X76140000Y-110232500D02*
X78800000Y-110232500D01*
G04 #@! TO.C,J3*
X76140000Y-129282500D02*
X78800000Y-129282500D01*
X76140000Y-121602500D02*
X76140000Y-129282500D01*
X78800000Y-121602500D02*
X78800000Y-129282500D01*
X76140000Y-121602500D02*
X78800000Y-121602500D01*
X76140000Y-120332500D02*
X76140000Y-119002500D01*
X76140000Y-119002500D02*
X77470000Y-119002500D01*
G04 #@! TO.C,J4*
X76140000Y-138052500D02*
X77470000Y-138052500D01*
X76140000Y-139382500D02*
X76140000Y-138052500D01*
X76140000Y-140652500D02*
X78800000Y-140652500D01*
X78800000Y-140652500D02*
X78800000Y-148332500D01*
X76140000Y-140652500D02*
X76140000Y-148332500D01*
X76140000Y-148332500D02*
X78800000Y-148332500D01*
G04 #@! TO.C,J5*
X149800000Y-91182500D02*
X152460000Y-91182500D01*
X149800000Y-83502500D02*
X149800000Y-91182500D01*
X152460000Y-83502500D02*
X152460000Y-91182500D01*
X149800000Y-83502500D02*
X152460000Y-83502500D01*
X149800000Y-82232500D02*
X149800000Y-80902500D01*
X149800000Y-80902500D02*
X151130000Y-80902500D01*
G04 #@! TO.C,J6*
X149800000Y-99952500D02*
X151130000Y-99952500D01*
X149800000Y-101282500D02*
X149800000Y-99952500D01*
X149800000Y-102552500D02*
X152460000Y-102552500D01*
X152460000Y-102552500D02*
X152460000Y-110232500D01*
X149800000Y-102552500D02*
X149800000Y-110232500D01*
X149800000Y-110232500D02*
X152460000Y-110232500D01*
G04 #@! TO.C,J7*
X149800000Y-129282500D02*
X152460000Y-129282500D01*
X149800000Y-121602500D02*
X149800000Y-129282500D01*
X152460000Y-121602500D02*
X152460000Y-129282500D01*
X149800000Y-121602500D02*
X152460000Y-121602500D01*
X149800000Y-120332500D02*
X149800000Y-119002500D01*
X149800000Y-119002500D02*
X151130000Y-119002500D01*
G04 #@! TO.C,J8*
X149800000Y-138052500D02*
X151130000Y-138052500D01*
X149800000Y-139382500D02*
X149800000Y-138052500D01*
X149800000Y-140652500D02*
X152460000Y-140652500D01*
X152460000Y-140652500D02*
X152460000Y-148332500D01*
X149800000Y-140652500D02*
X149800000Y-148332500D01*
X149800000Y-148332500D02*
X152460000Y-148332500D01*
D12*
G04 #@! TO.C,D1*
X96450000Y-83560000D02*
X96450000Y-89360000D01*
X94050000Y-83560000D02*
X96450000Y-83560000D01*
X94050000Y-89360000D02*
X94050000Y-83560000D01*
X94050000Y-89285000D02*
X96450000Y-89285000D01*
X94050000Y-89160000D02*
X96450000Y-89160000D01*
X96450000Y-89385000D02*
X94050000Y-89385000D01*
X94050000Y-88985000D02*
X96450000Y-88985000D01*
X94050000Y-88810000D02*
X96450000Y-88810000D01*
X94050000Y-88635000D02*
X96450000Y-88635000D01*
G04 #@! TO.C,D2*
X115500000Y-83560000D02*
X115500000Y-89360000D01*
X113100000Y-83560000D02*
X115500000Y-83560000D01*
X113100000Y-89360000D02*
X113100000Y-83560000D01*
X113100000Y-89285000D02*
X115500000Y-89285000D01*
X113100000Y-89160000D02*
X115500000Y-89160000D01*
X115500000Y-89385000D02*
X113100000Y-89385000D01*
X113100000Y-88985000D02*
X115500000Y-88985000D01*
X113100000Y-88810000D02*
X115500000Y-88810000D01*
X113100000Y-88635000D02*
X115500000Y-88635000D01*
G04 #@! TO.C,D3*
X130880000Y-88635000D02*
X133280000Y-88635000D01*
X130880000Y-88810000D02*
X133280000Y-88810000D01*
X130880000Y-88985000D02*
X133280000Y-88985000D01*
X133280000Y-89385000D02*
X130880000Y-89385000D01*
X130880000Y-89160000D02*
X133280000Y-89160000D01*
X130880000Y-89285000D02*
X133280000Y-89285000D01*
X130880000Y-89360000D02*
X130880000Y-83560000D01*
X130880000Y-83560000D02*
X133280000Y-83560000D01*
X133280000Y-83560000D02*
X133280000Y-89360000D01*
G04 #@! TO.C,D4*
X133420000Y-88635000D02*
X135820000Y-88635000D01*
X133420000Y-88810000D02*
X135820000Y-88810000D01*
X133420000Y-88985000D02*
X135820000Y-88985000D01*
X135820000Y-89385000D02*
X133420000Y-89385000D01*
X133420000Y-89160000D02*
X135820000Y-89160000D01*
X133420000Y-89285000D02*
X135820000Y-89285000D01*
X133420000Y-89360000D02*
X133420000Y-83560000D01*
X133420000Y-83560000D02*
X135820000Y-83560000D01*
X135820000Y-83560000D02*
X135820000Y-89360000D01*
G04 #@! TO.C,D5*
X96450000Y-102610000D02*
X96450000Y-108410000D01*
X94050000Y-102610000D02*
X96450000Y-102610000D01*
X94050000Y-108410000D02*
X94050000Y-102610000D01*
X94050000Y-108335000D02*
X96450000Y-108335000D01*
X94050000Y-108210000D02*
X96450000Y-108210000D01*
X96450000Y-108435000D02*
X94050000Y-108435000D01*
X94050000Y-108035000D02*
X96450000Y-108035000D01*
X94050000Y-107860000D02*
X96450000Y-107860000D01*
X94050000Y-107685000D02*
X96450000Y-107685000D01*
G04 #@! TO.C,D6*
X113100000Y-107685000D02*
X115500000Y-107685000D01*
X113100000Y-107860000D02*
X115500000Y-107860000D01*
X113100000Y-108035000D02*
X115500000Y-108035000D01*
X115500000Y-108435000D02*
X113100000Y-108435000D01*
X113100000Y-108210000D02*
X115500000Y-108210000D01*
X113100000Y-108335000D02*
X115500000Y-108335000D01*
X113100000Y-108410000D02*
X113100000Y-102610000D01*
X113100000Y-102610000D02*
X115500000Y-102610000D01*
X115500000Y-102610000D02*
X115500000Y-108410000D01*
G04 #@! TO.C,D7*
X133280000Y-102610000D02*
X133280000Y-108410000D01*
X130880000Y-102610000D02*
X133280000Y-102610000D01*
X130880000Y-108410000D02*
X130880000Y-102610000D01*
X130880000Y-108335000D02*
X133280000Y-108335000D01*
X130880000Y-108210000D02*
X133280000Y-108210000D01*
X133280000Y-108435000D02*
X130880000Y-108435000D01*
X130880000Y-108035000D02*
X133280000Y-108035000D01*
X130880000Y-107860000D02*
X133280000Y-107860000D01*
X130880000Y-107685000D02*
X133280000Y-107685000D01*
G04 #@! TO.C,D8*
X133420000Y-107685000D02*
X135820000Y-107685000D01*
X133420000Y-107860000D02*
X135820000Y-107860000D01*
X133420000Y-108035000D02*
X135820000Y-108035000D01*
X135820000Y-108435000D02*
X133420000Y-108435000D01*
X133420000Y-108210000D02*
X135820000Y-108210000D01*
X133420000Y-108335000D02*
X135820000Y-108335000D01*
X133420000Y-108410000D02*
X133420000Y-102610000D01*
X133420000Y-102610000D02*
X135820000Y-102610000D01*
X135820000Y-102610000D02*
X135820000Y-108410000D01*
G04 #@! TO.C,D9*
X94050000Y-126735000D02*
X96450000Y-126735000D01*
X94050000Y-126910000D02*
X96450000Y-126910000D01*
X94050000Y-127085000D02*
X96450000Y-127085000D01*
X96450000Y-127485000D02*
X94050000Y-127485000D01*
X94050000Y-127260000D02*
X96450000Y-127260000D01*
X94050000Y-127385000D02*
X96450000Y-127385000D01*
X94050000Y-127460000D02*
X94050000Y-121660000D01*
X94050000Y-121660000D02*
X96450000Y-121660000D01*
X96450000Y-121660000D02*
X96450000Y-127460000D01*
G04 #@! TO.C,D10*
X115500000Y-121660000D02*
X115500000Y-127460000D01*
X113100000Y-121660000D02*
X115500000Y-121660000D01*
X113100000Y-127460000D02*
X113100000Y-121660000D01*
X113100000Y-127385000D02*
X115500000Y-127385000D01*
X113100000Y-127260000D02*
X115500000Y-127260000D01*
X115500000Y-127485000D02*
X113100000Y-127485000D01*
X113100000Y-127085000D02*
X115500000Y-127085000D01*
X113100000Y-126910000D02*
X115500000Y-126910000D01*
X113100000Y-126735000D02*
X115500000Y-126735000D01*
G04 #@! TO.C,D11*
X130880000Y-126735000D02*
X133280000Y-126735000D01*
X130880000Y-126910000D02*
X133280000Y-126910000D01*
X130880000Y-127085000D02*
X133280000Y-127085000D01*
X133280000Y-127485000D02*
X130880000Y-127485000D01*
X130880000Y-127260000D02*
X133280000Y-127260000D01*
X130880000Y-127385000D02*
X133280000Y-127385000D01*
X130880000Y-127460000D02*
X130880000Y-121660000D01*
X130880000Y-121660000D02*
X133280000Y-121660000D01*
X133280000Y-121660000D02*
X133280000Y-127460000D01*
G04 #@! TO.C,D12*
X135820000Y-121660000D02*
X135820000Y-127460000D01*
X133420000Y-121660000D02*
X135820000Y-121660000D01*
X133420000Y-127460000D02*
X133420000Y-121660000D01*
X133420000Y-127385000D02*
X135820000Y-127385000D01*
X133420000Y-127260000D02*
X135820000Y-127260000D01*
X135820000Y-127485000D02*
X133420000Y-127485000D01*
X133420000Y-127085000D02*
X135820000Y-127085000D01*
X133420000Y-126910000D02*
X135820000Y-126910000D01*
X133420000Y-126735000D02*
X135820000Y-126735000D01*
G04 #@! TO.C,D13*
X96450000Y-140710000D02*
X96450000Y-146510000D01*
X94050000Y-140710000D02*
X96450000Y-140710000D01*
X94050000Y-146510000D02*
X94050000Y-140710000D01*
X94050000Y-146435000D02*
X96450000Y-146435000D01*
X94050000Y-146310000D02*
X96450000Y-146310000D01*
X96450000Y-146535000D02*
X94050000Y-146535000D01*
X94050000Y-146135000D02*
X96450000Y-146135000D01*
X94050000Y-145960000D02*
X96450000Y-145960000D01*
X94050000Y-145785000D02*
X96450000Y-145785000D01*
G04 #@! TO.C,D14*
X113100000Y-145785000D02*
X115500000Y-145785000D01*
X113100000Y-145960000D02*
X115500000Y-145960000D01*
X113100000Y-146135000D02*
X115500000Y-146135000D01*
X115500000Y-146535000D02*
X113100000Y-146535000D01*
X113100000Y-146310000D02*
X115500000Y-146310000D01*
X113100000Y-146435000D02*
X115500000Y-146435000D01*
X113100000Y-146510000D02*
X113100000Y-140710000D01*
X113100000Y-140710000D02*
X115500000Y-140710000D01*
X115500000Y-140710000D02*
X115500000Y-146510000D01*
G04 #@! TO.C,D15*
X130880000Y-145785000D02*
X133280000Y-145785000D01*
X130880000Y-145960000D02*
X133280000Y-145960000D01*
X130880000Y-146135000D02*
X133280000Y-146135000D01*
X133280000Y-146535000D02*
X130880000Y-146535000D01*
X130880000Y-146310000D02*
X133280000Y-146310000D01*
X130880000Y-146435000D02*
X133280000Y-146435000D01*
X130880000Y-146510000D02*
X130880000Y-140710000D01*
X130880000Y-140710000D02*
X133280000Y-140710000D01*
X133280000Y-140710000D02*
X133280000Y-146510000D01*
G04 #@! TO.C,D16*
X135820000Y-140710000D02*
X135820000Y-146510000D01*
X133420000Y-140710000D02*
X135820000Y-140710000D01*
X133420000Y-146510000D02*
X133420000Y-140710000D01*
X133420000Y-146435000D02*
X135820000Y-146435000D01*
X133420000Y-146310000D02*
X135820000Y-146310000D01*
X135820000Y-146535000D02*
X133420000Y-146535000D01*
X133420000Y-146135000D02*
X135820000Y-146135000D01*
X133420000Y-145960000D02*
X135820000Y-145960000D01*
X133420000Y-145785000D02*
X135820000Y-145785000D01*
G04 #@! TO.C,J1*
D13*
X77136666Y-79354880D02*
X77136666Y-80069166D01*
X77089047Y-80212023D01*
X76993809Y-80307261D01*
X76850952Y-80354880D01*
X76755714Y-80354880D01*
X78136666Y-80354880D02*
X77565238Y-80354880D01*
X77850952Y-80354880D02*
X77850952Y-79354880D01*
X77755714Y-79497738D01*
X77660476Y-79592976D01*
X77565238Y-79640595D01*
G04 #@! TO.C,J2*
X77136666Y-98404880D02*
X77136666Y-99119166D01*
X77089047Y-99262023D01*
X76993809Y-99357261D01*
X76850952Y-99404880D01*
X76755714Y-99404880D01*
X77565238Y-98500119D02*
X77612857Y-98452500D01*
X77708095Y-98404880D01*
X77946190Y-98404880D01*
X78041428Y-98452500D01*
X78089047Y-98500119D01*
X78136666Y-98595357D01*
X78136666Y-98690595D01*
X78089047Y-98833452D01*
X77517619Y-99404880D01*
X78136666Y-99404880D01*
G04 #@! TO.C,J3*
X77136666Y-117454880D02*
X77136666Y-118169166D01*
X77089047Y-118312023D01*
X76993809Y-118407261D01*
X76850952Y-118454880D01*
X76755714Y-118454880D01*
X77517619Y-117454880D02*
X78136666Y-117454880D01*
X77803333Y-117835833D01*
X77946190Y-117835833D01*
X78041428Y-117883452D01*
X78089047Y-117931071D01*
X78136666Y-118026309D01*
X78136666Y-118264404D01*
X78089047Y-118359642D01*
X78041428Y-118407261D01*
X77946190Y-118454880D01*
X77660476Y-118454880D01*
X77565238Y-118407261D01*
X77517619Y-118359642D01*
G04 #@! TO.C,J4*
X77136666Y-136504880D02*
X77136666Y-137219166D01*
X77089047Y-137362023D01*
X76993809Y-137457261D01*
X76850952Y-137504880D01*
X76755714Y-137504880D01*
X78041428Y-136838214D02*
X78041428Y-137504880D01*
X77803333Y-136457261D02*
X77565238Y-137171547D01*
X78184285Y-137171547D01*
G04 #@! TO.C,J5*
X150796666Y-79859879D02*
X150796666Y-80574165D01*
X150749047Y-80717022D01*
X150653809Y-80812260D01*
X150510952Y-80859879D01*
X150415714Y-80859879D01*
X151749047Y-79859879D02*
X151272857Y-79859879D01*
X151225238Y-80336070D01*
X151272857Y-80288451D01*
X151368095Y-80240832D01*
X151606190Y-80240832D01*
X151701428Y-80288451D01*
X151749047Y-80336070D01*
X151796666Y-80431308D01*
X151796666Y-80669403D01*
X151749047Y-80764641D01*
X151701428Y-80812260D01*
X151606190Y-80859879D01*
X151368095Y-80859879D01*
X151272857Y-80812260D01*
X151225238Y-80764641D01*
G04 #@! TO.C,J6*
X150796666Y-98404880D02*
X150796666Y-99119166D01*
X150749047Y-99262023D01*
X150653809Y-99357261D01*
X150510952Y-99404880D01*
X150415714Y-99404880D01*
X151701428Y-98404880D02*
X151510952Y-98404880D01*
X151415714Y-98452500D01*
X151368095Y-98500119D01*
X151272857Y-98642976D01*
X151225238Y-98833452D01*
X151225238Y-99214404D01*
X151272857Y-99309642D01*
X151320476Y-99357261D01*
X151415714Y-99404880D01*
X151606190Y-99404880D01*
X151701428Y-99357261D01*
X151749047Y-99309642D01*
X151796666Y-99214404D01*
X151796666Y-98976309D01*
X151749047Y-98881071D01*
X151701428Y-98833452D01*
X151606190Y-98785833D01*
X151415714Y-98785833D01*
X151320476Y-98833452D01*
X151272857Y-98881071D01*
X151225238Y-98976309D01*
G04 #@! TO.C,J7*
X150796666Y-117454880D02*
X150796666Y-118169166D01*
X150749047Y-118312023D01*
X150653809Y-118407261D01*
X150510952Y-118454880D01*
X150415714Y-118454880D01*
X151177619Y-117454880D02*
X151844285Y-117454880D01*
X151415714Y-118454880D01*
G04 #@! TO.C,J8*
X150796666Y-136504880D02*
X150796666Y-137219166D01*
X150749047Y-137362023D01*
X150653809Y-137457261D01*
X150510952Y-137504880D01*
X150415714Y-137504880D01*
X151415714Y-136933452D02*
X151320476Y-136885833D01*
X151272857Y-136838214D01*
X151225238Y-136742976D01*
X151225238Y-136695357D01*
X151272857Y-136600119D01*
X151320476Y-136552500D01*
X151415714Y-136504880D01*
X151606190Y-136504880D01*
X151701428Y-136552500D01*
X151749047Y-136600119D01*
X151796666Y-136695357D01*
X151796666Y-136742976D01*
X151749047Y-136838214D01*
X151701428Y-136885833D01*
X151606190Y-136933452D01*
X151415714Y-136933452D01*
X151320476Y-136981071D01*
X151272857Y-137028690D01*
X151225238Y-137123928D01*
X151225238Y-137314404D01*
X151272857Y-137409642D01*
X151320476Y-137457261D01*
X151415714Y-137504880D01*
X151606190Y-137504880D01*
X151701428Y-137457261D01*
X151749047Y-137409642D01*
X151796666Y-137314404D01*
X151796666Y-137123928D01*
X151749047Y-137028690D01*
X151701428Y-136981071D01*
X151606190Y-136933452D01*
G04 #@! TO.C,D1*
X97536904Y-86950476D02*
X96736904Y-86950476D01*
X96736904Y-86760000D01*
X96775000Y-86645714D01*
X96851190Y-86569523D01*
X96927380Y-86531428D01*
X97079761Y-86493333D01*
X97194047Y-86493333D01*
X97346428Y-86531428D01*
X97422619Y-86569523D01*
X97498809Y-86645714D01*
X97536904Y-86760000D01*
X97536904Y-86950476D01*
X97536904Y-85731428D02*
X97536904Y-86188571D01*
X97536904Y-85960000D02*
X96736904Y-85960000D01*
X96851190Y-86036190D01*
X96927380Y-86112380D01*
X96965476Y-86188571D01*
G04 #@! TO.C,D2*
X116586904Y-86950476D02*
X115786904Y-86950476D01*
X115786904Y-86760000D01*
X115825000Y-86645714D01*
X115901190Y-86569523D01*
X115977380Y-86531428D01*
X116129761Y-86493333D01*
X116244047Y-86493333D01*
X116396428Y-86531428D01*
X116472619Y-86569523D01*
X116548809Y-86645714D01*
X116586904Y-86760000D01*
X116586904Y-86950476D01*
X115863095Y-86188571D02*
X115825000Y-86150476D01*
X115786904Y-86074285D01*
X115786904Y-85883809D01*
X115825000Y-85807619D01*
X115863095Y-85769523D01*
X115939285Y-85731428D01*
X116015476Y-85731428D01*
X116129761Y-85769523D01*
X116586904Y-86226666D01*
X116586904Y-85731428D01*
G04 #@! TO.C,D3*
X134366904Y-86950476D02*
X133566904Y-86950476D01*
X133566904Y-86760000D01*
X133605000Y-86645714D01*
X133681190Y-86569523D01*
X133757380Y-86531428D01*
X133909761Y-86493333D01*
X134024047Y-86493333D01*
X134176428Y-86531428D01*
X134252619Y-86569523D01*
X134328809Y-86645714D01*
X134366904Y-86760000D01*
X134366904Y-86950476D01*
X133566904Y-86226666D02*
X133566904Y-85731428D01*
X133871666Y-85998095D01*
X133871666Y-85883809D01*
X133909761Y-85807619D01*
X133947857Y-85769523D01*
X134024047Y-85731428D01*
X134214523Y-85731428D01*
X134290714Y-85769523D01*
X134328809Y-85807619D01*
X134366904Y-85883809D01*
X134366904Y-86112380D01*
X134328809Y-86188571D01*
X134290714Y-86226666D01*
G04 #@! TO.C,D4*
X136906904Y-86950476D02*
X136106904Y-86950476D01*
X136106904Y-86760000D01*
X136145000Y-86645714D01*
X136221190Y-86569523D01*
X136297380Y-86531428D01*
X136449761Y-86493333D01*
X136564047Y-86493333D01*
X136716428Y-86531428D01*
X136792619Y-86569523D01*
X136868809Y-86645714D01*
X136906904Y-86760000D01*
X136906904Y-86950476D01*
X136373571Y-85807619D02*
X136906904Y-85807619D01*
X136068809Y-85998095D02*
X136640238Y-86188571D01*
X136640238Y-85693333D01*
G04 #@! TO.C,D5*
X97536904Y-106000476D02*
X96736904Y-106000476D01*
X96736904Y-105810000D01*
X96775000Y-105695714D01*
X96851190Y-105619523D01*
X96927380Y-105581428D01*
X97079761Y-105543333D01*
X97194047Y-105543333D01*
X97346428Y-105581428D01*
X97422619Y-105619523D01*
X97498809Y-105695714D01*
X97536904Y-105810000D01*
X97536904Y-106000476D01*
X96736904Y-104819523D02*
X96736904Y-105200476D01*
X97117857Y-105238571D01*
X97079761Y-105200476D01*
X97041666Y-105124285D01*
X97041666Y-104933809D01*
X97079761Y-104857619D01*
X97117857Y-104819523D01*
X97194047Y-104781428D01*
X97384523Y-104781428D01*
X97460714Y-104819523D01*
X97498809Y-104857619D01*
X97536904Y-104933809D01*
X97536904Y-105124285D01*
X97498809Y-105200476D01*
X97460714Y-105238571D01*
G04 #@! TO.C,D6*
X116586904Y-106000476D02*
X115786904Y-106000476D01*
X115786904Y-105810000D01*
X115825000Y-105695714D01*
X115901190Y-105619523D01*
X115977380Y-105581428D01*
X116129761Y-105543333D01*
X116244047Y-105543333D01*
X116396428Y-105581428D01*
X116472619Y-105619523D01*
X116548809Y-105695714D01*
X116586904Y-105810000D01*
X116586904Y-106000476D01*
X115786904Y-104857619D02*
X115786904Y-105010000D01*
X115825000Y-105086190D01*
X115863095Y-105124285D01*
X115977380Y-105200476D01*
X116129761Y-105238571D01*
X116434523Y-105238571D01*
X116510714Y-105200476D01*
X116548809Y-105162380D01*
X116586904Y-105086190D01*
X116586904Y-104933809D01*
X116548809Y-104857619D01*
X116510714Y-104819523D01*
X116434523Y-104781428D01*
X116244047Y-104781428D01*
X116167857Y-104819523D01*
X116129761Y-104857619D01*
X116091666Y-104933809D01*
X116091666Y-105086190D01*
X116129761Y-105162380D01*
X116167857Y-105200476D01*
X116244047Y-105238571D01*
G04 #@! TO.C,D7*
X134366904Y-106000476D02*
X133566904Y-106000476D01*
X133566904Y-105810000D01*
X133605000Y-105695714D01*
X133681190Y-105619523D01*
X133757380Y-105581428D01*
X133909761Y-105543333D01*
X134024047Y-105543333D01*
X134176428Y-105581428D01*
X134252619Y-105619523D01*
X134328809Y-105695714D01*
X134366904Y-105810000D01*
X134366904Y-106000476D01*
X133566904Y-105276666D02*
X133566904Y-104743333D01*
X134366904Y-105086190D01*
G04 #@! TO.C,D8*
X136906904Y-106000476D02*
X136106904Y-106000476D01*
X136106904Y-105810000D01*
X136145000Y-105695714D01*
X136221190Y-105619523D01*
X136297380Y-105581428D01*
X136449761Y-105543333D01*
X136564047Y-105543333D01*
X136716428Y-105581428D01*
X136792619Y-105619523D01*
X136868809Y-105695714D01*
X136906904Y-105810000D01*
X136906904Y-106000476D01*
X136449761Y-105086190D02*
X136411666Y-105162380D01*
X136373571Y-105200476D01*
X136297380Y-105238571D01*
X136259285Y-105238571D01*
X136183095Y-105200476D01*
X136145000Y-105162380D01*
X136106904Y-105086190D01*
X136106904Y-104933809D01*
X136145000Y-104857619D01*
X136183095Y-104819523D01*
X136259285Y-104781428D01*
X136297380Y-104781428D01*
X136373571Y-104819523D01*
X136411666Y-104857619D01*
X136449761Y-104933809D01*
X136449761Y-105086190D01*
X136487857Y-105162380D01*
X136525952Y-105200476D01*
X136602142Y-105238571D01*
X136754523Y-105238571D01*
X136830714Y-105200476D01*
X136868809Y-105162380D01*
X136906904Y-105086190D01*
X136906904Y-104933809D01*
X136868809Y-104857619D01*
X136830714Y-104819523D01*
X136754523Y-104781428D01*
X136602142Y-104781428D01*
X136525952Y-104819523D01*
X136487857Y-104857619D01*
X136449761Y-104933809D01*
G04 #@! TO.C,D9*
X97536904Y-125050476D02*
X96736904Y-125050476D01*
X96736904Y-124860000D01*
X96775000Y-124745714D01*
X96851190Y-124669523D01*
X96927380Y-124631428D01*
X97079761Y-124593333D01*
X97194047Y-124593333D01*
X97346428Y-124631428D01*
X97422619Y-124669523D01*
X97498809Y-124745714D01*
X97536904Y-124860000D01*
X97536904Y-125050476D01*
X97536904Y-124212380D02*
X97536904Y-124060000D01*
X97498809Y-123983809D01*
X97460714Y-123945714D01*
X97346428Y-123869523D01*
X97194047Y-123831428D01*
X96889285Y-123831428D01*
X96813095Y-123869523D01*
X96775000Y-123907619D01*
X96736904Y-123983809D01*
X96736904Y-124136190D01*
X96775000Y-124212380D01*
X96813095Y-124250476D01*
X96889285Y-124288571D01*
X97079761Y-124288571D01*
X97155952Y-124250476D01*
X97194047Y-124212380D01*
X97232142Y-124136190D01*
X97232142Y-123983809D01*
X97194047Y-123907619D01*
X97155952Y-123869523D01*
X97079761Y-123831428D01*
G04 #@! TO.C,D10*
X116586904Y-125431428D02*
X115786904Y-125431428D01*
X115786904Y-125240952D01*
X115825000Y-125126666D01*
X115901190Y-125050476D01*
X115977380Y-125012380D01*
X116129761Y-124974285D01*
X116244047Y-124974285D01*
X116396428Y-125012380D01*
X116472619Y-125050476D01*
X116548809Y-125126666D01*
X116586904Y-125240952D01*
X116586904Y-125431428D01*
X116586904Y-124212380D02*
X116586904Y-124669523D01*
X116586904Y-124440952D02*
X115786904Y-124440952D01*
X115901190Y-124517142D01*
X115977380Y-124593333D01*
X116015476Y-124669523D01*
X115786904Y-123717142D02*
X115786904Y-123640952D01*
X115825000Y-123564761D01*
X115863095Y-123526666D01*
X115939285Y-123488571D01*
X116091666Y-123450476D01*
X116282142Y-123450476D01*
X116434523Y-123488571D01*
X116510714Y-123526666D01*
X116548809Y-123564761D01*
X116586904Y-123640952D01*
X116586904Y-123717142D01*
X116548809Y-123793333D01*
X116510714Y-123831428D01*
X116434523Y-123869523D01*
X116282142Y-123907619D01*
X116091666Y-123907619D01*
X115939285Y-123869523D01*
X115863095Y-123831428D01*
X115825000Y-123793333D01*
X115786904Y-123717142D01*
G04 #@! TO.C,D11*
X134366904Y-125431428D02*
X133566904Y-125431428D01*
X133566904Y-125240952D01*
X133605000Y-125126666D01*
X133681190Y-125050476D01*
X133757380Y-125012380D01*
X133909761Y-124974285D01*
X134024047Y-124974285D01*
X134176428Y-125012380D01*
X134252619Y-125050476D01*
X134328809Y-125126666D01*
X134366904Y-125240952D01*
X134366904Y-125431428D01*
X134366904Y-124212380D02*
X134366904Y-124669523D01*
X134366904Y-124440952D02*
X133566904Y-124440952D01*
X133681190Y-124517142D01*
X133757380Y-124593333D01*
X133795476Y-124669523D01*
X134366904Y-123450476D02*
X134366904Y-123907619D01*
X134366904Y-123679047D02*
X133566904Y-123679047D01*
X133681190Y-123755238D01*
X133757380Y-123831428D01*
X133795476Y-123907619D01*
G04 #@! TO.C,D12*
X136906904Y-125431428D02*
X136106904Y-125431428D01*
X136106904Y-125240952D01*
X136145000Y-125126666D01*
X136221190Y-125050476D01*
X136297380Y-125012380D01*
X136449761Y-124974285D01*
X136564047Y-124974285D01*
X136716428Y-125012380D01*
X136792619Y-125050476D01*
X136868809Y-125126666D01*
X136906904Y-125240952D01*
X136906904Y-125431428D01*
X136906904Y-124212380D02*
X136906904Y-124669523D01*
X136906904Y-124440952D02*
X136106904Y-124440952D01*
X136221190Y-124517142D01*
X136297380Y-124593333D01*
X136335476Y-124669523D01*
X136183095Y-123907619D02*
X136145000Y-123869523D01*
X136106904Y-123793333D01*
X136106904Y-123602857D01*
X136145000Y-123526666D01*
X136183095Y-123488571D01*
X136259285Y-123450476D01*
X136335476Y-123450476D01*
X136449761Y-123488571D01*
X136906904Y-123945714D01*
X136906904Y-123450476D01*
G04 #@! TO.C,D13*
X97536904Y-144481428D02*
X96736904Y-144481428D01*
X96736904Y-144290952D01*
X96775000Y-144176666D01*
X96851190Y-144100476D01*
X96927380Y-144062380D01*
X97079761Y-144024285D01*
X97194047Y-144024285D01*
X97346428Y-144062380D01*
X97422619Y-144100476D01*
X97498809Y-144176666D01*
X97536904Y-144290952D01*
X97536904Y-144481428D01*
X97536904Y-143262380D02*
X97536904Y-143719523D01*
X97536904Y-143490952D02*
X96736904Y-143490952D01*
X96851190Y-143567142D01*
X96927380Y-143643333D01*
X96965476Y-143719523D01*
X96736904Y-142995714D02*
X96736904Y-142500476D01*
X97041666Y-142767142D01*
X97041666Y-142652857D01*
X97079761Y-142576666D01*
X97117857Y-142538571D01*
X97194047Y-142500476D01*
X97384523Y-142500476D01*
X97460714Y-142538571D01*
X97498809Y-142576666D01*
X97536904Y-142652857D01*
X97536904Y-142881428D01*
X97498809Y-142957619D01*
X97460714Y-142995714D01*
G04 #@! TO.C,D14*
X116586904Y-144481428D02*
X115786904Y-144481428D01*
X115786904Y-144290952D01*
X115825000Y-144176666D01*
X115901190Y-144100476D01*
X115977380Y-144062380D01*
X116129761Y-144024285D01*
X116244047Y-144024285D01*
X116396428Y-144062380D01*
X116472619Y-144100476D01*
X116548809Y-144176666D01*
X116586904Y-144290952D01*
X116586904Y-144481428D01*
X116586904Y-143262380D02*
X116586904Y-143719523D01*
X116586904Y-143490952D02*
X115786904Y-143490952D01*
X115901190Y-143567142D01*
X115977380Y-143643333D01*
X116015476Y-143719523D01*
X116053571Y-142576666D02*
X116586904Y-142576666D01*
X115748809Y-142767142D02*
X116320238Y-142957619D01*
X116320238Y-142462380D01*
G04 #@! TO.C,D15*
X134366904Y-144481428D02*
X133566904Y-144481428D01*
X133566904Y-144290952D01*
X133605000Y-144176666D01*
X133681190Y-144100476D01*
X133757380Y-144062380D01*
X133909761Y-144024285D01*
X134024047Y-144024285D01*
X134176428Y-144062380D01*
X134252619Y-144100476D01*
X134328809Y-144176666D01*
X134366904Y-144290952D01*
X134366904Y-144481428D01*
X134366904Y-143262380D02*
X134366904Y-143719523D01*
X134366904Y-143490952D02*
X133566904Y-143490952D01*
X133681190Y-143567142D01*
X133757380Y-143643333D01*
X133795476Y-143719523D01*
X133566904Y-142538571D02*
X133566904Y-142919523D01*
X133947857Y-142957619D01*
X133909761Y-142919523D01*
X133871666Y-142843333D01*
X133871666Y-142652857D01*
X133909761Y-142576666D01*
X133947857Y-142538571D01*
X134024047Y-142500476D01*
X134214523Y-142500476D01*
X134290714Y-142538571D01*
X134328809Y-142576666D01*
X134366904Y-142652857D01*
X134366904Y-142843333D01*
X134328809Y-142919523D01*
X134290714Y-142957619D01*
G04 #@! TO.C,D16*
X136906904Y-144481428D02*
X136106904Y-144481428D01*
X136106904Y-144290952D01*
X136145000Y-144176666D01*
X136221190Y-144100476D01*
X136297380Y-144062380D01*
X136449761Y-144024285D01*
X136564047Y-144024285D01*
X136716428Y-144062380D01*
X136792619Y-144100476D01*
X136868809Y-144176666D01*
X136906904Y-144290952D01*
X136906904Y-144481428D01*
X136906904Y-143262380D02*
X136906904Y-143719523D01*
X136906904Y-143490952D02*
X136106904Y-143490952D01*
X136221190Y-143567142D01*
X136297380Y-143643333D01*
X136335476Y-143719523D01*
X136106904Y-142576666D02*
X136106904Y-142729047D01*
X136145000Y-142805238D01*
X136183095Y-142843333D01*
X136297380Y-142919523D01*
X136449761Y-142957619D01*
X136754523Y-142957619D01*
X136830714Y-142919523D01*
X136868809Y-142881428D01*
X136906904Y-142805238D01*
X136906904Y-142652857D01*
X136868809Y-142576666D01*
X136830714Y-142538571D01*
X136754523Y-142500476D01*
X136564047Y-142500476D01*
X136487857Y-142538571D01*
X136449761Y-142576666D01*
X136411666Y-142652857D01*
X136411666Y-142805238D01*
X136449761Y-142881428D01*
X136487857Y-142919523D01*
X136564047Y-142957619D01*
G04 #@! TD*
M02*
