M48
;DRILL file {KiCad (5.0.0)} date 10/05/18 17:45:00
;FORMAT={-:-/ absolute / inch / decimal}
FMAT,2
INCH,TZ
T1C0.0157
T2C0.0276
T3C0.0394
T4C0.0472
%
G90
G05
M72
T1
X3.275Y-3.55
X3.3Y-3.975
X3.35Y-5.775
X3.375Y-4.325
X3.525Y-3.15
X3.725Y-3.075
X3.975Y-4.625
X4.125Y-4.4
X4.25Y-3.15
X4.25Y-4.125
X4.25Y-5.75
X4.675Y-4.2
X4.75Y-4.4
X4.775Y-4.625
X4.975Y-3.15
X4.975Y-5.775
X5.225Y-3.1
X5.45Y-3.95
X5.45Y-4.675
X5.475Y-3.175
X5.5Y-5.525
X5.525Y-5.375
X5.6Y-5.775
X5.675Y-5.5
X5.6965Y-3.525
X5.825Y-5.8
X5.875Y-4.6
X5.9Y-3.65
T2
X4.5Y-5.4965
X4.5Y-5.8035
X5.2Y-4.7465
X5.2Y-5.0535
X3.75Y-3.9965
X3.75Y-4.3035
X4.5Y-3.9965
X4.5Y-4.3035
X5.2Y-5.4965
X5.2Y-5.8035
X5.3Y-3.9965
X5.3Y-4.3035
X3.75Y-4.7465
X3.75Y-5.0535
X5.3Y-3.2465
X5.3Y-3.5535
X5.3Y-5.4965
X5.3Y-5.8035
X5.2Y-3.9965
X5.2Y-4.3035
X3.75Y-5.4965
X3.75Y-5.8035
X4.5Y-3.2465
X4.5Y-3.5535
X5.2Y-3.2465
X5.2Y-3.5535
X4.5Y-4.7465
X4.5Y-5.0535
X3.75Y-3.2465
X3.75Y-3.5535
X5.3Y-4.7465
X5.3Y-5.0535
T3
X3.05Y-3.2375
X3.05Y-3.3375
X3.05Y-3.4375
X3.05Y-3.5375
X5.95Y-3.2375
X5.95Y-3.3375
X5.95Y-3.4375
X5.95Y-3.5375
X3.05Y-3.9875
X3.05Y-4.0875
X3.05Y-4.1875
X3.05Y-4.2875
X5.95Y-4.7375
X5.95Y-4.8375
X5.95Y-4.9375
X5.95Y-5.0375
X5.95Y-3.9875
X5.95Y-4.0875
X5.95Y-4.1875
X5.95Y-4.2875
X5.95Y-5.4875
X5.95Y-5.5875
X5.95Y-5.6875
X5.95Y-5.7875
X3.05Y-4.7375
X3.05Y-4.8375
X3.05Y-4.9375
X3.05Y-5.0375
X3.05Y-5.4875
X3.05Y-5.5875
X3.05Y-5.6875
X3.05Y-5.7875
T4
X3.375Y-3.1427
X3.5719Y-3.2254
X4.125Y-3.1427
X4.3219Y-3.2254
X4.125Y-3.8927
X4.3219Y-3.9754
X4.875Y-4.6427
X5.0719Y-4.7254
X4.875Y-3.1427
X5.0719Y-3.2254
X4.125Y-4.6427
X4.3219Y-4.7254
X5.625Y-5.3927
X5.8219Y-5.4754
X4.875Y-5.3927
X5.0719Y-5.4754
X3.375Y-3.8927
X3.5719Y-3.9754
X3.375Y-4.6427
X3.5719Y-4.7254
X3.375Y-5.3927
X3.5719Y-5.4754
X5.625Y-3.8927
X5.8219Y-3.9754
X5.625Y-4.6427
X5.8219Y-4.7254
X4.125Y-5.3927
X4.3219Y-5.4754
X4.875Y-3.8927
X5.0719Y-3.9754
X5.625Y-3.1427
X5.8219Y-3.2254
T0
M30
