G04 #@! TF.FileFunction,Legend,Top*
%FSLAX46Y46*%
G04 Gerber Fmt 4.6, Leading zero omitted, Abs format (unit mm)*
G04 Created by KiCad (PCBNEW 4.0.7) date 06/14/18 18:00:22*
%MOMM*%
%LPD*%
G01*
G04 APERTURE LIST*
%ADD10C,0.100000*%
%ADD11C,0.200000*%
%ADD12C,0.381000*%
%ADD13C,0.120000*%
%ADD14C,0.150000*%
G04 APERTURE END LIST*
D10*
X102993812Y-110974286D02*
X102827146Y-110974286D01*
X102827146Y-111236190D02*
X102827146Y-110736190D01*
X103065241Y-110736190D01*
X103327145Y-111236190D02*
X103279526Y-111212381D01*
X103255717Y-111188571D01*
X103231907Y-111140952D01*
X103231907Y-110998095D01*
X103255717Y-110950476D01*
X103279526Y-110926667D01*
X103327145Y-110902857D01*
X103398574Y-110902857D01*
X103446193Y-110926667D01*
X103470002Y-110950476D01*
X103493812Y-110998095D01*
X103493812Y-111140952D01*
X103470002Y-111188571D01*
X103446193Y-111212381D01*
X103398574Y-111236190D01*
X103327145Y-111236190D01*
X103708098Y-111236190D02*
X103708098Y-110902857D01*
X103708098Y-110998095D02*
X103731907Y-110950476D01*
X103755717Y-110926667D01*
X103803336Y-110902857D01*
X103850955Y-110902857D01*
X104374764Y-111093333D02*
X104612859Y-111093333D01*
X104327145Y-111236190D02*
X104493812Y-110736190D01*
X104660478Y-111236190D01*
X104803335Y-111212381D02*
X104850954Y-111236190D01*
X104946192Y-111236190D01*
X104993811Y-111212381D01*
X105017621Y-111164762D01*
X105017621Y-111140952D01*
X104993811Y-111093333D01*
X104946192Y-111069524D01*
X104874764Y-111069524D01*
X104827145Y-111045714D01*
X104803335Y-110998095D01*
X104803335Y-110974286D01*
X104827145Y-110926667D01*
X104874764Y-110902857D01*
X104946192Y-110902857D01*
X104993811Y-110926667D01*
X105208097Y-111212381D02*
X105255716Y-111236190D01*
X105350954Y-111236190D01*
X105398573Y-111212381D01*
X105422383Y-111164762D01*
X105422383Y-111140952D01*
X105398573Y-111093333D01*
X105350954Y-111069524D01*
X105279526Y-111069524D01*
X105231907Y-111045714D01*
X105208097Y-110998095D01*
X105208097Y-110974286D01*
X105231907Y-110926667D01*
X105279526Y-110902857D01*
X105350954Y-110902857D01*
X105398573Y-110926667D01*
X105827145Y-111212381D02*
X105779526Y-111236190D01*
X105684288Y-111236190D01*
X105636669Y-111212381D01*
X105612859Y-111164762D01*
X105612859Y-110974286D01*
X105636669Y-110926667D01*
X105684288Y-110902857D01*
X105779526Y-110902857D01*
X105827145Y-110926667D01*
X105850954Y-110974286D01*
X105850954Y-111021905D01*
X105612859Y-111069524D01*
X106065240Y-111236190D02*
X106065240Y-110902857D01*
X106065240Y-110950476D02*
X106089049Y-110926667D01*
X106136668Y-110902857D01*
X106208097Y-110902857D01*
X106255716Y-110926667D01*
X106279525Y-110974286D01*
X106279525Y-111236190D01*
X106279525Y-110974286D02*
X106303335Y-110926667D01*
X106350954Y-110902857D01*
X106422382Y-110902857D01*
X106470002Y-110926667D01*
X106493811Y-110974286D01*
X106493811Y-111236190D01*
X106731907Y-111236190D02*
X106731907Y-110736190D01*
X106731907Y-110926667D02*
X106779526Y-110902857D01*
X106874764Y-110902857D01*
X106922383Y-110926667D01*
X106946192Y-110950476D01*
X106970002Y-110998095D01*
X106970002Y-111140952D01*
X106946192Y-111188571D01*
X106922383Y-111212381D01*
X106874764Y-111236190D01*
X106779526Y-111236190D01*
X106731907Y-111212381D01*
X107255716Y-111236190D02*
X107208097Y-111212381D01*
X107184288Y-111164762D01*
X107184288Y-110736190D01*
X107398574Y-110902857D02*
X107517621Y-111236190D01*
X107636669Y-110902857D02*
X107517621Y-111236190D01*
X107470002Y-111355238D01*
X107446193Y-111379048D01*
X107398574Y-111402857D01*
X108208097Y-111236190D02*
X108208097Y-110736190D01*
X108446192Y-110902857D02*
X108446192Y-111236190D01*
X108446192Y-110950476D02*
X108470001Y-110926667D01*
X108517620Y-110902857D01*
X108589049Y-110902857D01*
X108636668Y-110926667D01*
X108660477Y-110974286D01*
X108660477Y-111236190D01*
X108874763Y-111212381D02*
X108922382Y-111236190D01*
X109017620Y-111236190D01*
X109065239Y-111212381D01*
X109089049Y-111164762D01*
X109089049Y-111140952D01*
X109065239Y-111093333D01*
X109017620Y-111069524D01*
X108946192Y-111069524D01*
X108898573Y-111045714D01*
X108874763Y-110998095D01*
X108874763Y-110974286D01*
X108898573Y-110926667D01*
X108946192Y-110902857D01*
X109017620Y-110902857D01*
X109065239Y-110926667D01*
X109231906Y-110902857D02*
X109422382Y-110902857D01*
X109303335Y-110736190D02*
X109303335Y-111164762D01*
X109327144Y-111212381D01*
X109374763Y-111236190D01*
X109422382Y-111236190D01*
X109589049Y-111236190D02*
X109589049Y-110902857D01*
X109589049Y-110998095D02*
X109612858Y-110950476D01*
X109636668Y-110926667D01*
X109684287Y-110902857D01*
X109731906Y-110902857D01*
X110112858Y-110902857D02*
X110112858Y-111236190D01*
X109898573Y-110902857D02*
X109898573Y-111164762D01*
X109922382Y-111212381D01*
X109970001Y-111236190D01*
X110041430Y-111236190D01*
X110089049Y-111212381D01*
X110112858Y-111188571D01*
X110565239Y-111212381D02*
X110517620Y-111236190D01*
X110422382Y-111236190D01*
X110374763Y-111212381D01*
X110350954Y-111188571D01*
X110327144Y-111140952D01*
X110327144Y-110998095D01*
X110350954Y-110950476D01*
X110374763Y-110926667D01*
X110422382Y-110902857D01*
X110517620Y-110902857D01*
X110565239Y-110926667D01*
X110708096Y-110902857D02*
X110898572Y-110902857D01*
X110779525Y-110736190D02*
X110779525Y-111164762D01*
X110803334Y-111212381D01*
X110850953Y-111236190D01*
X110898572Y-111236190D01*
X111065239Y-111236190D02*
X111065239Y-110902857D01*
X111065239Y-110736190D02*
X111041429Y-110760000D01*
X111065239Y-110783810D01*
X111089048Y-110760000D01*
X111065239Y-110736190D01*
X111065239Y-110783810D01*
X111374762Y-111236190D02*
X111327143Y-111212381D01*
X111303334Y-111188571D01*
X111279524Y-111140952D01*
X111279524Y-110998095D01*
X111303334Y-110950476D01*
X111327143Y-110926667D01*
X111374762Y-110902857D01*
X111446191Y-110902857D01*
X111493810Y-110926667D01*
X111517619Y-110950476D01*
X111541429Y-110998095D01*
X111541429Y-111140952D01*
X111517619Y-111188571D01*
X111493810Y-111212381D01*
X111446191Y-111236190D01*
X111374762Y-111236190D01*
X111755715Y-110902857D02*
X111755715Y-111236190D01*
X111755715Y-110950476D02*
X111779524Y-110926667D01*
X111827143Y-110902857D01*
X111898572Y-110902857D01*
X111946191Y-110926667D01*
X111970000Y-110974286D01*
X111970000Y-111236190D01*
X112184286Y-111212381D02*
X112231905Y-111236190D01*
X112327143Y-111236190D01*
X112374762Y-111212381D01*
X112398572Y-111164762D01*
X112398572Y-111140952D01*
X112374762Y-111093333D01*
X112327143Y-111069524D01*
X112255715Y-111069524D01*
X112208096Y-111045714D01*
X112184286Y-110998095D01*
X112184286Y-110974286D01*
X112208096Y-110926667D01*
X112255715Y-110902857D01*
X112327143Y-110902857D01*
X112374762Y-110926667D01*
X112636667Y-111212381D02*
X112636667Y-111236190D01*
X112612858Y-111283810D01*
X112589048Y-111307619D01*
X113231905Y-111236190D02*
X113231905Y-110902857D01*
X113231905Y-110998095D02*
X113255714Y-110950476D01*
X113279524Y-110926667D01*
X113327143Y-110902857D01*
X113374762Y-110902857D01*
X113731905Y-111212381D02*
X113684286Y-111236190D01*
X113589048Y-111236190D01*
X113541429Y-111212381D01*
X113517619Y-111164762D01*
X113517619Y-110974286D01*
X113541429Y-110926667D01*
X113589048Y-110902857D01*
X113684286Y-110902857D01*
X113731905Y-110926667D01*
X113755714Y-110974286D01*
X113755714Y-111021905D01*
X113517619Y-111069524D01*
X113898571Y-110902857D02*
X114089047Y-110902857D01*
X113970000Y-111236190D02*
X113970000Y-110807619D01*
X113993809Y-110760000D01*
X114041428Y-110736190D01*
X114089047Y-110736190D01*
X114446190Y-111212381D02*
X114398571Y-111236190D01*
X114303333Y-111236190D01*
X114255714Y-111212381D01*
X114231904Y-111164762D01*
X114231904Y-110974286D01*
X114255714Y-110926667D01*
X114303333Y-110902857D01*
X114398571Y-110902857D01*
X114446190Y-110926667D01*
X114469999Y-110974286D01*
X114469999Y-111021905D01*
X114231904Y-111069524D01*
X114684285Y-111236190D02*
X114684285Y-110902857D01*
X114684285Y-110998095D02*
X114708094Y-110950476D01*
X114731904Y-110926667D01*
X114779523Y-110902857D01*
X114827142Y-110902857D01*
X115303332Y-110902857D02*
X115493808Y-110902857D01*
X115374761Y-110736190D02*
X115374761Y-111164762D01*
X115398570Y-111212381D01*
X115446189Y-111236190D01*
X115493808Y-111236190D01*
X115731903Y-111236190D02*
X115684284Y-111212381D01*
X115660475Y-111188571D01*
X115636665Y-111140952D01*
X115636665Y-110998095D01*
X115660475Y-110950476D01*
X115684284Y-110926667D01*
X115731903Y-110902857D01*
X115803332Y-110902857D01*
X115850951Y-110926667D01*
X115874760Y-110950476D01*
X115898570Y-110998095D01*
X115898570Y-111140952D01*
X115874760Y-111188571D01*
X115850951Y-111212381D01*
X115803332Y-111236190D01*
X115731903Y-111236190D01*
X116112856Y-111188571D02*
X116136665Y-111212381D01*
X116112856Y-111236190D01*
X116089046Y-111212381D01*
X116112856Y-111188571D01*
X116112856Y-111236190D01*
X116112856Y-110926667D02*
X116136665Y-110950476D01*
X116112856Y-110974286D01*
X116089046Y-110950476D01*
X116112856Y-110926667D01*
X116112856Y-110974286D01*
X102720001Y-112086190D02*
X102720001Y-111586190D01*
X102934286Y-112086190D02*
X102934286Y-111824286D01*
X102910477Y-111776667D01*
X102862858Y-111752857D01*
X102791429Y-111752857D01*
X102743810Y-111776667D01*
X102720001Y-111800476D01*
X103100953Y-111752857D02*
X103291429Y-111752857D01*
X103172382Y-111586190D02*
X103172382Y-112014762D01*
X103196191Y-112062381D01*
X103243810Y-112086190D01*
X103291429Y-112086190D01*
X103386667Y-111752857D02*
X103577143Y-111752857D01*
X103458096Y-111586190D02*
X103458096Y-112014762D01*
X103481905Y-112062381D01*
X103529524Y-112086190D01*
X103577143Y-112086190D01*
X103743810Y-111752857D02*
X103743810Y-112252857D01*
X103743810Y-111776667D02*
X103791429Y-111752857D01*
X103886667Y-111752857D01*
X103934286Y-111776667D01*
X103958095Y-111800476D01*
X103981905Y-111848095D01*
X103981905Y-111990952D01*
X103958095Y-112038571D01*
X103934286Y-112062381D01*
X103886667Y-112086190D01*
X103791429Y-112086190D01*
X103743810Y-112062381D01*
X104172381Y-112062381D02*
X104220000Y-112086190D01*
X104315238Y-112086190D01*
X104362857Y-112062381D01*
X104386667Y-112014762D01*
X104386667Y-111990952D01*
X104362857Y-111943333D01*
X104315238Y-111919524D01*
X104243810Y-111919524D01*
X104196191Y-111895714D01*
X104172381Y-111848095D01*
X104172381Y-111824286D01*
X104196191Y-111776667D01*
X104243810Y-111752857D01*
X104315238Y-111752857D01*
X104362857Y-111776667D01*
X104600953Y-112038571D02*
X104624762Y-112062381D01*
X104600953Y-112086190D01*
X104577143Y-112062381D01*
X104600953Y-112038571D01*
X104600953Y-112086190D01*
X104600953Y-111776667D02*
X104624762Y-111800476D01*
X104600953Y-111824286D01*
X104577143Y-111800476D01*
X104600953Y-111776667D01*
X104600953Y-111824286D01*
X105196190Y-111562381D02*
X104767619Y-112205238D01*
X105720000Y-111562381D02*
X105291429Y-112205238D01*
X106100953Y-111752857D02*
X106100953Y-112157619D01*
X106077144Y-112205238D01*
X106053334Y-112229048D01*
X106005715Y-112252857D01*
X105934287Y-112252857D01*
X105886668Y-112229048D01*
X106100953Y-112062381D02*
X106053334Y-112086190D01*
X105958096Y-112086190D01*
X105910477Y-112062381D01*
X105886668Y-112038571D01*
X105862858Y-111990952D01*
X105862858Y-111848095D01*
X105886668Y-111800476D01*
X105910477Y-111776667D01*
X105958096Y-111752857D01*
X106053334Y-111752857D01*
X106100953Y-111776667D01*
X106339049Y-112086190D02*
X106339049Y-111752857D01*
X106339049Y-111586190D02*
X106315239Y-111610000D01*
X106339049Y-111633810D01*
X106362858Y-111610000D01*
X106339049Y-111586190D01*
X106339049Y-111633810D01*
X106505715Y-111752857D02*
X106696191Y-111752857D01*
X106577144Y-111586190D02*
X106577144Y-112014762D01*
X106600953Y-112062381D01*
X106648572Y-112086190D01*
X106696191Y-112086190D01*
X106862858Y-112086190D02*
X106862858Y-111586190D01*
X107077143Y-112086190D02*
X107077143Y-111824286D01*
X107053334Y-111776667D01*
X107005715Y-111752857D01*
X106934286Y-111752857D01*
X106886667Y-111776667D01*
X106862858Y-111800476D01*
X107529524Y-111752857D02*
X107529524Y-112086190D01*
X107315239Y-111752857D02*
X107315239Y-112014762D01*
X107339048Y-112062381D01*
X107386667Y-112086190D01*
X107458096Y-112086190D01*
X107505715Y-112062381D01*
X107529524Y-112038571D01*
X107767620Y-112086190D02*
X107767620Y-111586190D01*
X107767620Y-111776667D02*
X107815239Y-111752857D01*
X107910477Y-111752857D01*
X107958096Y-111776667D01*
X107981905Y-111800476D01*
X108005715Y-111848095D01*
X108005715Y-111990952D01*
X107981905Y-112038571D01*
X107958096Y-112062381D01*
X107910477Y-112086190D01*
X107815239Y-112086190D01*
X107767620Y-112062381D01*
X108220001Y-112038571D02*
X108243810Y-112062381D01*
X108220001Y-112086190D01*
X108196191Y-112062381D01*
X108220001Y-112038571D01*
X108220001Y-112086190D01*
X108672381Y-112062381D02*
X108624762Y-112086190D01*
X108529524Y-112086190D01*
X108481905Y-112062381D01*
X108458096Y-112038571D01*
X108434286Y-111990952D01*
X108434286Y-111848095D01*
X108458096Y-111800476D01*
X108481905Y-111776667D01*
X108529524Y-111752857D01*
X108624762Y-111752857D01*
X108672381Y-111776667D01*
X108958095Y-112086190D02*
X108910476Y-112062381D01*
X108886667Y-112038571D01*
X108862857Y-111990952D01*
X108862857Y-111848095D01*
X108886667Y-111800476D01*
X108910476Y-111776667D01*
X108958095Y-111752857D01*
X109029524Y-111752857D01*
X109077143Y-111776667D01*
X109100952Y-111800476D01*
X109124762Y-111848095D01*
X109124762Y-111990952D01*
X109100952Y-112038571D01*
X109077143Y-112062381D01*
X109029524Y-112086190D01*
X108958095Y-112086190D01*
X109339048Y-112086190D02*
X109339048Y-111752857D01*
X109339048Y-111800476D02*
X109362857Y-111776667D01*
X109410476Y-111752857D01*
X109481905Y-111752857D01*
X109529524Y-111776667D01*
X109553333Y-111824286D01*
X109553333Y-112086190D01*
X109553333Y-111824286D02*
X109577143Y-111776667D01*
X109624762Y-111752857D01*
X109696190Y-111752857D01*
X109743810Y-111776667D01*
X109767619Y-111824286D01*
X109767619Y-112086190D01*
X110362857Y-111562381D02*
X109934286Y-112205238D01*
X110529525Y-111752857D02*
X110529525Y-112181429D01*
X110505715Y-112229048D01*
X110458096Y-112252857D01*
X110434287Y-112252857D01*
X110529525Y-111586190D02*
X110505715Y-111610000D01*
X110529525Y-111633810D01*
X110553334Y-111610000D01*
X110529525Y-111586190D01*
X110529525Y-111633810D01*
X110767620Y-111752857D02*
X110767620Y-112252857D01*
X110767620Y-111776667D02*
X110815239Y-111752857D01*
X110910477Y-111752857D01*
X110958096Y-111776667D01*
X110981905Y-111800476D01*
X111005715Y-111848095D01*
X111005715Y-111990952D01*
X110981905Y-112038571D01*
X110958096Y-112062381D01*
X110910477Y-112086190D01*
X110815239Y-112086190D01*
X110767620Y-112062381D01*
X111434286Y-112062381D02*
X111386667Y-112086190D01*
X111291429Y-112086190D01*
X111243810Y-112062381D01*
X111220001Y-112038571D01*
X111196191Y-111990952D01*
X111196191Y-111848095D01*
X111220001Y-111800476D01*
X111243810Y-111776667D01*
X111291429Y-111752857D01*
X111386667Y-111752857D01*
X111434286Y-111776667D01*
X111720000Y-112086190D02*
X111672381Y-112062381D01*
X111648572Y-112038571D01*
X111624762Y-111990952D01*
X111624762Y-111848095D01*
X111648572Y-111800476D01*
X111672381Y-111776667D01*
X111720000Y-111752857D01*
X111791429Y-111752857D01*
X111839048Y-111776667D01*
X111862857Y-111800476D01*
X111886667Y-111848095D01*
X111886667Y-111990952D01*
X111862857Y-112038571D01*
X111839048Y-112062381D01*
X111791429Y-112086190D01*
X111720000Y-112086190D01*
X112100953Y-111752857D02*
X112100953Y-112086190D01*
X112100953Y-111800476D02*
X112124762Y-111776667D01*
X112172381Y-111752857D01*
X112243810Y-111752857D01*
X112291429Y-111776667D01*
X112315238Y-111824286D01*
X112315238Y-112086190D01*
X112529524Y-112062381D02*
X112577143Y-112086190D01*
X112672381Y-112086190D01*
X112720000Y-112062381D01*
X112743810Y-112014762D01*
X112743810Y-111990952D01*
X112720000Y-111943333D01*
X112672381Y-111919524D01*
X112600953Y-111919524D01*
X112553334Y-111895714D01*
X112529524Y-111848095D01*
X112529524Y-111824286D01*
X112553334Y-111776667D01*
X112600953Y-111752857D01*
X112672381Y-111752857D01*
X112720000Y-111776667D01*
X112886667Y-111752857D02*
X113077143Y-111752857D01*
X112958096Y-111586190D02*
X112958096Y-112014762D01*
X112981905Y-112062381D01*
X113029524Y-112086190D01*
X113077143Y-112086190D01*
X113458095Y-112086190D02*
X113458095Y-111824286D01*
X113434286Y-111776667D01*
X113386667Y-111752857D01*
X113291429Y-111752857D01*
X113243810Y-111776667D01*
X113458095Y-112062381D02*
X113410476Y-112086190D01*
X113291429Y-112086190D01*
X113243810Y-112062381D01*
X113220000Y-112014762D01*
X113220000Y-111967143D01*
X113243810Y-111919524D01*
X113291429Y-111895714D01*
X113410476Y-111895714D01*
X113458095Y-111871905D01*
X113696191Y-111752857D02*
X113696191Y-112086190D01*
X113696191Y-111800476D02*
X113720000Y-111776667D01*
X113767619Y-111752857D01*
X113839048Y-111752857D01*
X113886667Y-111776667D01*
X113910476Y-111824286D01*
X113910476Y-112086190D01*
X114077143Y-111752857D02*
X114267619Y-111752857D01*
X114148572Y-111586190D02*
X114148572Y-112014762D01*
X114172381Y-112062381D01*
X114220000Y-112086190D01*
X114267619Y-112086190D01*
X114434286Y-112086190D02*
X114434286Y-111752857D01*
X114434286Y-111586190D02*
X114410476Y-111610000D01*
X114434286Y-111633810D01*
X114458095Y-111610000D01*
X114434286Y-111586190D01*
X114434286Y-111633810D01*
X114672381Y-111752857D02*
X114672381Y-112086190D01*
X114672381Y-111800476D02*
X114696190Y-111776667D01*
X114743809Y-111752857D01*
X114815238Y-111752857D01*
X114862857Y-111776667D01*
X114886666Y-111824286D01*
X114886666Y-112086190D01*
X115315238Y-112062381D02*
X115267619Y-112086190D01*
X115172381Y-112086190D01*
X115124762Y-112062381D01*
X115100952Y-112014762D01*
X115100952Y-111824286D01*
X115124762Y-111776667D01*
X115172381Y-111752857D01*
X115267619Y-111752857D01*
X115315238Y-111776667D01*
X115339047Y-111824286D01*
X115339047Y-111871905D01*
X115100952Y-111919524D01*
X115767618Y-112086190D02*
X115767618Y-111824286D01*
X115743809Y-111776667D01*
X115696190Y-111752857D01*
X115600952Y-111752857D01*
X115553333Y-111776667D01*
X115767618Y-112062381D02*
X115719999Y-112086190D01*
X115600952Y-112086190D01*
X115553333Y-112062381D01*
X115529523Y-112014762D01*
X115529523Y-111967143D01*
X115553333Y-111919524D01*
X115600952Y-111895714D01*
X115719999Y-111895714D01*
X115767618Y-111871905D01*
X116219999Y-111752857D02*
X116219999Y-112086190D01*
X116005714Y-111752857D02*
X116005714Y-112014762D01*
X116029523Y-112062381D01*
X116077142Y-112086190D01*
X116148571Y-112086190D01*
X116196190Y-112062381D01*
X116219999Y-112038571D01*
X107089047Y-112412381D02*
X106660476Y-113055238D01*
X107255715Y-112936190D02*
X107255715Y-112436190D01*
X107541429Y-112936190D01*
X107541429Y-112436190D01*
X108065239Y-112936190D02*
X107898572Y-112698095D01*
X107779525Y-112936190D02*
X107779525Y-112436190D01*
X107970001Y-112436190D01*
X108017620Y-112460000D01*
X108041429Y-112483810D01*
X108065239Y-112531429D01*
X108065239Y-112602857D01*
X108041429Y-112650476D01*
X108017620Y-112674286D01*
X107970001Y-112698095D01*
X107779525Y-112698095D01*
X108446191Y-112674286D02*
X108279525Y-112674286D01*
X108279525Y-112936190D02*
X108279525Y-112436190D01*
X108517620Y-112436190D01*
X108946191Y-112436190D02*
X108708096Y-112436190D01*
X108684286Y-112674286D01*
X108708096Y-112650476D01*
X108755715Y-112626667D01*
X108874762Y-112626667D01*
X108922381Y-112650476D01*
X108946191Y-112674286D01*
X108970000Y-112721905D01*
X108970000Y-112840952D01*
X108946191Y-112888571D01*
X108922381Y-112912381D01*
X108874762Y-112936190D01*
X108755715Y-112936190D01*
X108708096Y-112912381D01*
X108684286Y-112888571D01*
X109160476Y-112483810D02*
X109184286Y-112460000D01*
X109231905Y-112436190D01*
X109350952Y-112436190D01*
X109398571Y-112460000D01*
X109422381Y-112483810D01*
X109446190Y-112531429D01*
X109446190Y-112579048D01*
X109422381Y-112650476D01*
X109136667Y-112936190D01*
X109446190Y-112936190D01*
X109660476Y-112745714D02*
X110041428Y-112745714D01*
X110446190Y-112674286D02*
X110517619Y-112698095D01*
X110541428Y-112721905D01*
X110565238Y-112769524D01*
X110565238Y-112840952D01*
X110541428Y-112888571D01*
X110517619Y-112912381D01*
X110470000Y-112936190D01*
X110279524Y-112936190D01*
X110279524Y-112436190D01*
X110446190Y-112436190D01*
X110493809Y-112460000D01*
X110517619Y-112483810D01*
X110541428Y-112531429D01*
X110541428Y-112579048D01*
X110517619Y-112626667D01*
X110493809Y-112650476D01*
X110446190Y-112674286D01*
X110279524Y-112674286D01*
X110850952Y-112936190D02*
X110803333Y-112912381D01*
X110779524Y-112888571D01*
X110755714Y-112840952D01*
X110755714Y-112698095D01*
X110779524Y-112650476D01*
X110803333Y-112626667D01*
X110850952Y-112602857D01*
X110922381Y-112602857D01*
X110970000Y-112626667D01*
X110993809Y-112650476D01*
X111017619Y-112698095D01*
X111017619Y-112840952D01*
X110993809Y-112888571D01*
X110970000Y-112912381D01*
X110922381Y-112936190D01*
X110850952Y-112936190D01*
X111446190Y-112936190D02*
X111446190Y-112674286D01*
X111422381Y-112626667D01*
X111374762Y-112602857D01*
X111279524Y-112602857D01*
X111231905Y-112626667D01*
X111446190Y-112912381D02*
X111398571Y-112936190D01*
X111279524Y-112936190D01*
X111231905Y-112912381D01*
X111208095Y-112864762D01*
X111208095Y-112817143D01*
X111231905Y-112769524D01*
X111279524Y-112745714D01*
X111398571Y-112745714D01*
X111446190Y-112721905D01*
X111684286Y-112936190D02*
X111684286Y-112602857D01*
X111684286Y-112698095D02*
X111708095Y-112650476D01*
X111731905Y-112626667D01*
X111779524Y-112602857D01*
X111827143Y-112602857D01*
X112208095Y-112936190D02*
X112208095Y-112436190D01*
X112208095Y-112912381D02*
X112160476Y-112936190D01*
X112065238Y-112936190D01*
X112017619Y-112912381D01*
X111993810Y-112888571D01*
X111970000Y-112840952D01*
X111970000Y-112698095D01*
X111993810Y-112650476D01*
X112017619Y-112626667D01*
X112065238Y-112602857D01*
X112160476Y-112602857D01*
X112208095Y-112626667D01*
X105422382Y-114374286D02*
X105255716Y-114374286D01*
X105255716Y-114636190D02*
X105255716Y-114136190D01*
X105493811Y-114136190D01*
X105755715Y-114636190D02*
X105708096Y-114612381D01*
X105684287Y-114588571D01*
X105660477Y-114540952D01*
X105660477Y-114398095D01*
X105684287Y-114350476D01*
X105708096Y-114326667D01*
X105755715Y-114302857D01*
X105827144Y-114302857D01*
X105874763Y-114326667D01*
X105898572Y-114350476D01*
X105922382Y-114398095D01*
X105922382Y-114540952D01*
X105898572Y-114588571D01*
X105874763Y-114612381D01*
X105827144Y-114636190D01*
X105755715Y-114636190D01*
X106136668Y-114636190D02*
X106136668Y-114302857D01*
X106136668Y-114398095D02*
X106160477Y-114350476D01*
X106184287Y-114326667D01*
X106231906Y-114302857D01*
X106279525Y-114302857D01*
X106993810Y-114374286D02*
X106827144Y-114374286D01*
X106827144Y-114636190D02*
X106827144Y-114136190D01*
X107065239Y-114136190D01*
X107255715Y-114636190D02*
X107255715Y-114302857D01*
X107255715Y-114136190D02*
X107231905Y-114160000D01*
X107255715Y-114183810D01*
X107279524Y-114160000D01*
X107255715Y-114136190D01*
X107255715Y-114183810D01*
X107493810Y-114636190D02*
X107493810Y-114302857D01*
X107493810Y-114398095D02*
X107517619Y-114350476D01*
X107541429Y-114326667D01*
X107589048Y-114302857D01*
X107636667Y-114302857D01*
X107803334Y-114636190D02*
X107803334Y-114302857D01*
X107803334Y-114350476D02*
X107827143Y-114326667D01*
X107874762Y-114302857D01*
X107946191Y-114302857D01*
X107993810Y-114326667D01*
X108017619Y-114374286D01*
X108017619Y-114636190D01*
X108017619Y-114374286D02*
X108041429Y-114326667D01*
X108089048Y-114302857D01*
X108160476Y-114302857D01*
X108208096Y-114326667D01*
X108231905Y-114374286D01*
X108231905Y-114636190D01*
X108422382Y-114302857D02*
X108517620Y-114636190D01*
X108612858Y-114398095D01*
X108708096Y-114636190D01*
X108803334Y-114302857D01*
X109208096Y-114636190D02*
X109208096Y-114374286D01*
X109184287Y-114326667D01*
X109136668Y-114302857D01*
X109041430Y-114302857D01*
X108993811Y-114326667D01*
X109208096Y-114612381D02*
X109160477Y-114636190D01*
X109041430Y-114636190D01*
X108993811Y-114612381D01*
X108970001Y-114564762D01*
X108970001Y-114517143D01*
X108993811Y-114469524D01*
X109041430Y-114445714D01*
X109160477Y-114445714D01*
X109208096Y-114421905D01*
X109446192Y-114636190D02*
X109446192Y-114302857D01*
X109446192Y-114398095D02*
X109470001Y-114350476D01*
X109493811Y-114326667D01*
X109541430Y-114302857D01*
X109589049Y-114302857D01*
X109946192Y-114612381D02*
X109898573Y-114636190D01*
X109803335Y-114636190D01*
X109755716Y-114612381D01*
X109731906Y-114564762D01*
X109731906Y-114374286D01*
X109755716Y-114326667D01*
X109803335Y-114302857D01*
X109898573Y-114302857D01*
X109946192Y-114326667D01*
X109970001Y-114374286D01*
X109970001Y-114421905D01*
X109731906Y-114469524D01*
X110208096Y-114612381D02*
X110208096Y-114636190D01*
X110184287Y-114683810D01*
X110160477Y-114707619D01*
X110803334Y-114636190D02*
X110803334Y-114302857D01*
X110803334Y-114398095D02*
X110827143Y-114350476D01*
X110850953Y-114326667D01*
X110898572Y-114302857D01*
X110946191Y-114302857D01*
X111303334Y-114612381D02*
X111255715Y-114636190D01*
X111160477Y-114636190D01*
X111112858Y-114612381D01*
X111089048Y-114564762D01*
X111089048Y-114374286D01*
X111112858Y-114326667D01*
X111160477Y-114302857D01*
X111255715Y-114302857D01*
X111303334Y-114326667D01*
X111327143Y-114374286D01*
X111327143Y-114421905D01*
X111089048Y-114469524D01*
X111470000Y-114302857D02*
X111660476Y-114302857D01*
X111541429Y-114636190D02*
X111541429Y-114207619D01*
X111565238Y-114160000D01*
X111612857Y-114136190D01*
X111660476Y-114136190D01*
X112017619Y-114612381D02*
X111970000Y-114636190D01*
X111874762Y-114636190D01*
X111827143Y-114612381D01*
X111803333Y-114564762D01*
X111803333Y-114374286D01*
X111827143Y-114326667D01*
X111874762Y-114302857D01*
X111970000Y-114302857D01*
X112017619Y-114326667D01*
X112041428Y-114374286D01*
X112041428Y-114421905D01*
X111803333Y-114469524D01*
X112255714Y-114636190D02*
X112255714Y-114302857D01*
X112255714Y-114398095D02*
X112279523Y-114350476D01*
X112303333Y-114326667D01*
X112350952Y-114302857D01*
X112398571Y-114302857D01*
X112874761Y-114302857D02*
X113065237Y-114302857D01*
X112946190Y-114136190D02*
X112946190Y-114564762D01*
X112969999Y-114612381D01*
X113017618Y-114636190D01*
X113065237Y-114636190D01*
X113303332Y-114636190D02*
X113255713Y-114612381D01*
X113231904Y-114588571D01*
X113208094Y-114540952D01*
X113208094Y-114398095D01*
X113231904Y-114350476D01*
X113255713Y-114326667D01*
X113303332Y-114302857D01*
X113374761Y-114302857D01*
X113422380Y-114326667D01*
X113446189Y-114350476D01*
X113469999Y-114398095D01*
X113469999Y-114540952D01*
X113446189Y-114588571D01*
X113422380Y-114612381D01*
X113374761Y-114636190D01*
X113303332Y-114636190D01*
X113684285Y-114588571D02*
X113708094Y-114612381D01*
X113684285Y-114636190D01*
X113660475Y-114612381D01*
X113684285Y-114588571D01*
X113684285Y-114636190D01*
X113684285Y-114326667D02*
X113708094Y-114350476D01*
X113684285Y-114374286D01*
X113660475Y-114350476D01*
X113684285Y-114326667D01*
X113684285Y-114374286D01*
X102720001Y-115486190D02*
X102720001Y-114986190D01*
X102934286Y-115486190D02*
X102934286Y-115224286D01*
X102910477Y-115176667D01*
X102862858Y-115152857D01*
X102791429Y-115152857D01*
X102743810Y-115176667D01*
X102720001Y-115200476D01*
X103100953Y-115152857D02*
X103291429Y-115152857D01*
X103172382Y-114986190D02*
X103172382Y-115414762D01*
X103196191Y-115462381D01*
X103243810Y-115486190D01*
X103291429Y-115486190D01*
X103386667Y-115152857D02*
X103577143Y-115152857D01*
X103458096Y-114986190D02*
X103458096Y-115414762D01*
X103481905Y-115462381D01*
X103529524Y-115486190D01*
X103577143Y-115486190D01*
X103743810Y-115152857D02*
X103743810Y-115652857D01*
X103743810Y-115176667D02*
X103791429Y-115152857D01*
X103886667Y-115152857D01*
X103934286Y-115176667D01*
X103958095Y-115200476D01*
X103981905Y-115248095D01*
X103981905Y-115390952D01*
X103958095Y-115438571D01*
X103934286Y-115462381D01*
X103886667Y-115486190D01*
X103791429Y-115486190D01*
X103743810Y-115462381D01*
X104172381Y-115462381D02*
X104220000Y-115486190D01*
X104315238Y-115486190D01*
X104362857Y-115462381D01*
X104386667Y-115414762D01*
X104386667Y-115390952D01*
X104362857Y-115343333D01*
X104315238Y-115319524D01*
X104243810Y-115319524D01*
X104196191Y-115295714D01*
X104172381Y-115248095D01*
X104172381Y-115224286D01*
X104196191Y-115176667D01*
X104243810Y-115152857D01*
X104315238Y-115152857D01*
X104362857Y-115176667D01*
X104600953Y-115438571D02*
X104624762Y-115462381D01*
X104600953Y-115486190D01*
X104577143Y-115462381D01*
X104600953Y-115438571D01*
X104600953Y-115486190D01*
X104600953Y-115176667D02*
X104624762Y-115200476D01*
X104600953Y-115224286D01*
X104577143Y-115200476D01*
X104600953Y-115176667D01*
X104600953Y-115224286D01*
X105196190Y-114962381D02*
X104767619Y-115605238D01*
X105720000Y-114962381D02*
X105291429Y-115605238D01*
X106100953Y-115152857D02*
X106100953Y-115557619D01*
X106077144Y-115605238D01*
X106053334Y-115629048D01*
X106005715Y-115652857D01*
X105934287Y-115652857D01*
X105886668Y-115629048D01*
X106100953Y-115462381D02*
X106053334Y-115486190D01*
X105958096Y-115486190D01*
X105910477Y-115462381D01*
X105886668Y-115438571D01*
X105862858Y-115390952D01*
X105862858Y-115248095D01*
X105886668Y-115200476D01*
X105910477Y-115176667D01*
X105958096Y-115152857D01*
X106053334Y-115152857D01*
X106100953Y-115176667D01*
X106339049Y-115486190D02*
X106339049Y-115152857D01*
X106339049Y-114986190D02*
X106315239Y-115010000D01*
X106339049Y-115033810D01*
X106362858Y-115010000D01*
X106339049Y-114986190D01*
X106339049Y-115033810D01*
X106505715Y-115152857D02*
X106696191Y-115152857D01*
X106577144Y-114986190D02*
X106577144Y-115414762D01*
X106600953Y-115462381D01*
X106648572Y-115486190D01*
X106696191Y-115486190D01*
X106862858Y-115486190D02*
X106862858Y-114986190D01*
X107077143Y-115486190D02*
X107077143Y-115224286D01*
X107053334Y-115176667D01*
X107005715Y-115152857D01*
X106934286Y-115152857D01*
X106886667Y-115176667D01*
X106862858Y-115200476D01*
X107529524Y-115152857D02*
X107529524Y-115486190D01*
X107315239Y-115152857D02*
X107315239Y-115414762D01*
X107339048Y-115462381D01*
X107386667Y-115486190D01*
X107458096Y-115486190D01*
X107505715Y-115462381D01*
X107529524Y-115438571D01*
X107767620Y-115486190D02*
X107767620Y-114986190D01*
X107767620Y-115176667D02*
X107815239Y-115152857D01*
X107910477Y-115152857D01*
X107958096Y-115176667D01*
X107981905Y-115200476D01*
X108005715Y-115248095D01*
X108005715Y-115390952D01*
X107981905Y-115438571D01*
X107958096Y-115462381D01*
X107910477Y-115486190D01*
X107815239Y-115486190D01*
X107767620Y-115462381D01*
X108220001Y-115438571D02*
X108243810Y-115462381D01*
X108220001Y-115486190D01*
X108196191Y-115462381D01*
X108220001Y-115438571D01*
X108220001Y-115486190D01*
X108672381Y-115462381D02*
X108624762Y-115486190D01*
X108529524Y-115486190D01*
X108481905Y-115462381D01*
X108458096Y-115438571D01*
X108434286Y-115390952D01*
X108434286Y-115248095D01*
X108458096Y-115200476D01*
X108481905Y-115176667D01*
X108529524Y-115152857D01*
X108624762Y-115152857D01*
X108672381Y-115176667D01*
X108958095Y-115486190D02*
X108910476Y-115462381D01*
X108886667Y-115438571D01*
X108862857Y-115390952D01*
X108862857Y-115248095D01*
X108886667Y-115200476D01*
X108910476Y-115176667D01*
X108958095Y-115152857D01*
X109029524Y-115152857D01*
X109077143Y-115176667D01*
X109100952Y-115200476D01*
X109124762Y-115248095D01*
X109124762Y-115390952D01*
X109100952Y-115438571D01*
X109077143Y-115462381D01*
X109029524Y-115486190D01*
X108958095Y-115486190D01*
X109339048Y-115486190D02*
X109339048Y-115152857D01*
X109339048Y-115200476D02*
X109362857Y-115176667D01*
X109410476Y-115152857D01*
X109481905Y-115152857D01*
X109529524Y-115176667D01*
X109553333Y-115224286D01*
X109553333Y-115486190D01*
X109553333Y-115224286D02*
X109577143Y-115176667D01*
X109624762Y-115152857D01*
X109696190Y-115152857D01*
X109743810Y-115176667D01*
X109767619Y-115224286D01*
X109767619Y-115486190D01*
X110362857Y-114962381D02*
X109934286Y-115605238D01*
X110529525Y-115152857D02*
X110529525Y-115581429D01*
X110505715Y-115629048D01*
X110458096Y-115652857D01*
X110434287Y-115652857D01*
X110529525Y-114986190D02*
X110505715Y-115010000D01*
X110529525Y-115033810D01*
X110553334Y-115010000D01*
X110529525Y-114986190D01*
X110529525Y-115033810D01*
X110767620Y-115152857D02*
X110767620Y-115652857D01*
X110767620Y-115176667D02*
X110815239Y-115152857D01*
X110910477Y-115152857D01*
X110958096Y-115176667D01*
X110981905Y-115200476D01*
X111005715Y-115248095D01*
X111005715Y-115390952D01*
X110981905Y-115438571D01*
X110958096Y-115462381D01*
X110910477Y-115486190D01*
X110815239Y-115486190D01*
X110767620Y-115462381D01*
X111434286Y-115462381D02*
X111386667Y-115486190D01*
X111291429Y-115486190D01*
X111243810Y-115462381D01*
X111220001Y-115438571D01*
X111196191Y-115390952D01*
X111196191Y-115248095D01*
X111220001Y-115200476D01*
X111243810Y-115176667D01*
X111291429Y-115152857D01*
X111386667Y-115152857D01*
X111434286Y-115176667D01*
X111720000Y-115486190D02*
X111672381Y-115462381D01*
X111648572Y-115438571D01*
X111624762Y-115390952D01*
X111624762Y-115248095D01*
X111648572Y-115200476D01*
X111672381Y-115176667D01*
X111720000Y-115152857D01*
X111791429Y-115152857D01*
X111839048Y-115176667D01*
X111862857Y-115200476D01*
X111886667Y-115248095D01*
X111886667Y-115390952D01*
X111862857Y-115438571D01*
X111839048Y-115462381D01*
X111791429Y-115486190D01*
X111720000Y-115486190D01*
X112100953Y-115152857D02*
X112100953Y-115486190D01*
X112100953Y-115200476D02*
X112124762Y-115176667D01*
X112172381Y-115152857D01*
X112243810Y-115152857D01*
X112291429Y-115176667D01*
X112315238Y-115224286D01*
X112315238Y-115486190D01*
X112529524Y-115462381D02*
X112577143Y-115486190D01*
X112672381Y-115486190D01*
X112720000Y-115462381D01*
X112743810Y-115414762D01*
X112743810Y-115390952D01*
X112720000Y-115343333D01*
X112672381Y-115319524D01*
X112600953Y-115319524D01*
X112553334Y-115295714D01*
X112529524Y-115248095D01*
X112529524Y-115224286D01*
X112553334Y-115176667D01*
X112600953Y-115152857D01*
X112672381Y-115152857D01*
X112720000Y-115176667D01*
X112886667Y-115152857D02*
X113077143Y-115152857D01*
X112958096Y-114986190D02*
X112958096Y-115414762D01*
X112981905Y-115462381D01*
X113029524Y-115486190D01*
X113077143Y-115486190D01*
X113458095Y-115486190D02*
X113458095Y-115224286D01*
X113434286Y-115176667D01*
X113386667Y-115152857D01*
X113291429Y-115152857D01*
X113243810Y-115176667D01*
X113458095Y-115462381D02*
X113410476Y-115486190D01*
X113291429Y-115486190D01*
X113243810Y-115462381D01*
X113220000Y-115414762D01*
X113220000Y-115367143D01*
X113243810Y-115319524D01*
X113291429Y-115295714D01*
X113410476Y-115295714D01*
X113458095Y-115271905D01*
X113696191Y-115152857D02*
X113696191Y-115486190D01*
X113696191Y-115200476D02*
X113720000Y-115176667D01*
X113767619Y-115152857D01*
X113839048Y-115152857D01*
X113886667Y-115176667D01*
X113910476Y-115224286D01*
X113910476Y-115486190D01*
X114077143Y-115152857D02*
X114267619Y-115152857D01*
X114148572Y-114986190D02*
X114148572Y-115414762D01*
X114172381Y-115462381D01*
X114220000Y-115486190D01*
X114267619Y-115486190D01*
X114434286Y-115486190D02*
X114434286Y-115152857D01*
X114434286Y-114986190D02*
X114410476Y-115010000D01*
X114434286Y-115033810D01*
X114458095Y-115010000D01*
X114434286Y-114986190D01*
X114434286Y-115033810D01*
X114672381Y-115152857D02*
X114672381Y-115486190D01*
X114672381Y-115200476D02*
X114696190Y-115176667D01*
X114743809Y-115152857D01*
X114815238Y-115152857D01*
X114862857Y-115176667D01*
X114886666Y-115224286D01*
X114886666Y-115486190D01*
X115315238Y-115462381D02*
X115267619Y-115486190D01*
X115172381Y-115486190D01*
X115124762Y-115462381D01*
X115100952Y-115414762D01*
X115100952Y-115224286D01*
X115124762Y-115176667D01*
X115172381Y-115152857D01*
X115267619Y-115152857D01*
X115315238Y-115176667D01*
X115339047Y-115224286D01*
X115339047Y-115271905D01*
X115100952Y-115319524D01*
X115767618Y-115486190D02*
X115767618Y-115224286D01*
X115743809Y-115176667D01*
X115696190Y-115152857D01*
X115600952Y-115152857D01*
X115553333Y-115176667D01*
X115767618Y-115462381D02*
X115719999Y-115486190D01*
X115600952Y-115486190D01*
X115553333Y-115462381D01*
X115529523Y-115414762D01*
X115529523Y-115367143D01*
X115553333Y-115319524D01*
X115600952Y-115295714D01*
X115719999Y-115295714D01*
X115767618Y-115271905D01*
X116219999Y-115152857D02*
X116219999Y-115486190D01*
X116005714Y-115152857D02*
X116005714Y-115414762D01*
X116029523Y-115462381D01*
X116077142Y-115486190D01*
X116148571Y-115486190D01*
X116196190Y-115462381D01*
X116219999Y-115438571D01*
X106993809Y-115812381D02*
X106565238Y-116455238D01*
X107327143Y-116074286D02*
X107398572Y-116098095D01*
X107422381Y-116121905D01*
X107446191Y-116169524D01*
X107446191Y-116240952D01*
X107422381Y-116288571D01*
X107398572Y-116312381D01*
X107350953Y-116336190D01*
X107160477Y-116336190D01*
X107160477Y-115836190D01*
X107327143Y-115836190D01*
X107374762Y-115860000D01*
X107398572Y-115883810D01*
X107422381Y-115931429D01*
X107422381Y-115979048D01*
X107398572Y-116026667D01*
X107374762Y-116050476D01*
X107327143Y-116074286D01*
X107160477Y-116074286D01*
X107731905Y-116336190D02*
X107684286Y-116312381D01*
X107660477Y-116264762D01*
X107660477Y-115836190D01*
X108136667Y-116002857D02*
X108136667Y-116336190D01*
X107922382Y-116002857D02*
X107922382Y-116264762D01*
X107946191Y-116312381D01*
X107993810Y-116336190D01*
X108065239Y-116336190D01*
X108112858Y-116312381D01*
X108136667Y-116288571D01*
X108565239Y-116312381D02*
X108517620Y-116336190D01*
X108422382Y-116336190D01*
X108374763Y-116312381D01*
X108350953Y-116264762D01*
X108350953Y-116074286D01*
X108374763Y-116026667D01*
X108422382Y-116002857D01*
X108517620Y-116002857D01*
X108565239Y-116026667D01*
X108589048Y-116074286D01*
X108589048Y-116121905D01*
X108350953Y-116169524D01*
X108803334Y-116336190D02*
X108803334Y-115836190D01*
X108970000Y-116193333D01*
X109136667Y-115836190D01*
X109136667Y-116336190D01*
X109374763Y-116336190D02*
X109374763Y-116002857D01*
X109374763Y-115836190D02*
X109350953Y-115860000D01*
X109374763Y-115883810D01*
X109398572Y-115860000D01*
X109374763Y-115836190D01*
X109374763Y-115883810D01*
X109827143Y-116312381D02*
X109779524Y-116336190D01*
X109684286Y-116336190D01*
X109636667Y-116312381D01*
X109612858Y-116288571D01*
X109589048Y-116240952D01*
X109589048Y-116098095D01*
X109612858Y-116050476D01*
X109636667Y-116026667D01*
X109684286Y-116002857D01*
X109779524Y-116002857D01*
X109827143Y-116026667D01*
X110041429Y-116336190D02*
X110041429Y-116002857D01*
X110041429Y-116098095D02*
X110065238Y-116050476D01*
X110089048Y-116026667D01*
X110136667Y-116002857D01*
X110184286Y-116002857D01*
X110422381Y-116336190D02*
X110374762Y-116312381D01*
X110350953Y-116288571D01*
X110327143Y-116240952D01*
X110327143Y-116098095D01*
X110350953Y-116050476D01*
X110374762Y-116026667D01*
X110422381Y-116002857D01*
X110493810Y-116002857D01*
X110541429Y-116026667D01*
X110565238Y-116050476D01*
X110589048Y-116098095D01*
X110589048Y-116240952D01*
X110565238Y-116288571D01*
X110541429Y-116312381D01*
X110493810Y-116336190D01*
X110422381Y-116336190D01*
X110684286Y-116383810D02*
X111065238Y-116383810D01*
X111350952Y-116074286D02*
X111422381Y-116098095D01*
X111446190Y-116121905D01*
X111470000Y-116169524D01*
X111470000Y-116240952D01*
X111446190Y-116288571D01*
X111422381Y-116312381D01*
X111374762Y-116336190D01*
X111184286Y-116336190D01*
X111184286Y-115836190D01*
X111350952Y-115836190D01*
X111398571Y-115860000D01*
X111422381Y-115883810D01*
X111446190Y-115931429D01*
X111446190Y-115979048D01*
X111422381Y-116026667D01*
X111398571Y-116050476D01*
X111350952Y-116074286D01*
X111184286Y-116074286D01*
X111922381Y-116336190D02*
X111684286Y-116336190D01*
X111684286Y-115836190D01*
X112089048Y-116074286D02*
X112255714Y-116074286D01*
X112327143Y-116336190D02*
X112089048Y-116336190D01*
X112089048Y-115836190D01*
X112327143Y-115836190D01*
X105759286Y-104423929D02*
X105509286Y-104423929D01*
X105509286Y-104816786D02*
X105509286Y-104066786D01*
X105866429Y-104066786D01*
X106259286Y-104816786D02*
X106187858Y-104781071D01*
X106152143Y-104745357D01*
X106116429Y-104673929D01*
X106116429Y-104459643D01*
X106152143Y-104388214D01*
X106187858Y-104352500D01*
X106259286Y-104316786D01*
X106366429Y-104316786D01*
X106437858Y-104352500D01*
X106473572Y-104388214D01*
X106509286Y-104459643D01*
X106509286Y-104673929D01*
X106473572Y-104745357D01*
X106437858Y-104781071D01*
X106366429Y-104816786D01*
X106259286Y-104816786D01*
X106830714Y-104816786D02*
X106830714Y-104316786D01*
X106830714Y-104459643D02*
X106866429Y-104388214D01*
X106902143Y-104352500D01*
X106973572Y-104316786D01*
X107045000Y-104316786D01*
X108187858Y-104316786D02*
X108187858Y-104816786D01*
X107866429Y-104316786D02*
X107866429Y-104709643D01*
X107902144Y-104781071D01*
X107973572Y-104816786D01*
X108080715Y-104816786D01*
X108152144Y-104781071D01*
X108187858Y-104745357D01*
X108509286Y-104781071D02*
X108580715Y-104816786D01*
X108723572Y-104816786D01*
X108795000Y-104781071D01*
X108830715Y-104709643D01*
X108830715Y-104673929D01*
X108795000Y-104602500D01*
X108723572Y-104566786D01*
X108616429Y-104566786D01*
X108545000Y-104531071D01*
X108509286Y-104459643D01*
X108509286Y-104423929D01*
X108545000Y-104352500D01*
X108616429Y-104316786D01*
X108723572Y-104316786D01*
X108795000Y-104352500D01*
X109437858Y-104781071D02*
X109366429Y-104816786D01*
X109223572Y-104816786D01*
X109152143Y-104781071D01*
X109116429Y-104709643D01*
X109116429Y-104423929D01*
X109152143Y-104352500D01*
X109223572Y-104316786D01*
X109366429Y-104316786D01*
X109437858Y-104352500D01*
X109473572Y-104423929D01*
X109473572Y-104495357D01*
X109116429Y-104566786D01*
X110295001Y-104316786D02*
X110437858Y-104816786D01*
X110580715Y-104459643D01*
X110723572Y-104816786D01*
X110866429Y-104316786D01*
X111152143Y-104816786D02*
X111152143Y-104316786D01*
X111152143Y-104066786D02*
X111116429Y-104102500D01*
X111152143Y-104138214D01*
X111187858Y-104102500D01*
X111152143Y-104066786D01*
X111152143Y-104138214D01*
X111402144Y-104316786D02*
X111687858Y-104316786D01*
X111509286Y-104066786D02*
X111509286Y-104709643D01*
X111545001Y-104781071D01*
X111616429Y-104816786D01*
X111687858Y-104816786D01*
X111937857Y-104816786D02*
X111937857Y-104066786D01*
X112259286Y-104816786D02*
X112259286Y-104423929D01*
X112223572Y-104352500D01*
X112152143Y-104316786D01*
X112045000Y-104316786D01*
X111973572Y-104352500D01*
X111937857Y-104388214D01*
X104223571Y-106041786D02*
X104223571Y-105291786D01*
X104652143Y-106041786D01*
X104652143Y-105291786D01*
X105437857Y-106041786D02*
X105187857Y-105684643D01*
X105009285Y-106041786D02*
X105009285Y-105291786D01*
X105295000Y-105291786D01*
X105366428Y-105327500D01*
X105402143Y-105363214D01*
X105437857Y-105434643D01*
X105437857Y-105541786D01*
X105402143Y-105613214D01*
X105366428Y-105648929D01*
X105295000Y-105684643D01*
X105009285Y-105684643D01*
X106009285Y-105648929D02*
X105759285Y-105648929D01*
X105759285Y-106041786D02*
X105759285Y-105291786D01*
X106116428Y-105291786D01*
X106759285Y-105291786D02*
X106402142Y-105291786D01*
X106366428Y-105648929D01*
X106402142Y-105613214D01*
X106473571Y-105577500D01*
X106652142Y-105577500D01*
X106723571Y-105613214D01*
X106759285Y-105648929D01*
X106795000Y-105720357D01*
X106795000Y-105898929D01*
X106759285Y-105970357D01*
X106723571Y-106006071D01*
X106652142Y-106041786D01*
X106473571Y-106041786D01*
X106402142Y-106006071D01*
X106366428Y-105970357D01*
X107080714Y-105363214D02*
X107116428Y-105327500D01*
X107187857Y-105291786D01*
X107366428Y-105291786D01*
X107437857Y-105327500D01*
X107473571Y-105363214D01*
X107509286Y-105434643D01*
X107509286Y-105506071D01*
X107473571Y-105613214D01*
X107045000Y-106041786D01*
X107509286Y-106041786D01*
X107937857Y-105613214D02*
X107866429Y-105577500D01*
X107830714Y-105541786D01*
X107795000Y-105470357D01*
X107795000Y-105434643D01*
X107830714Y-105363214D01*
X107866429Y-105327500D01*
X107937857Y-105291786D01*
X108080714Y-105291786D01*
X108152143Y-105327500D01*
X108187857Y-105363214D01*
X108223572Y-105434643D01*
X108223572Y-105470357D01*
X108187857Y-105541786D01*
X108152143Y-105577500D01*
X108080714Y-105613214D01*
X107937857Y-105613214D01*
X107866429Y-105648929D01*
X107830714Y-105684643D01*
X107795000Y-105756071D01*
X107795000Y-105898929D01*
X107830714Y-105970357D01*
X107866429Y-106006071D01*
X107937857Y-106041786D01*
X108080714Y-106041786D01*
X108152143Y-106006071D01*
X108187857Y-105970357D01*
X108223572Y-105898929D01*
X108223572Y-105756071D01*
X108187857Y-105684643D01*
X108152143Y-105648929D01*
X108080714Y-105613214D01*
X108473572Y-105291786D02*
X108937858Y-105291786D01*
X108687858Y-105577500D01*
X108795000Y-105577500D01*
X108866429Y-105613214D01*
X108902143Y-105648929D01*
X108937858Y-105720357D01*
X108937858Y-105898929D01*
X108902143Y-105970357D01*
X108866429Y-106006071D01*
X108795000Y-106041786D01*
X108580715Y-106041786D01*
X108509286Y-106006071D01*
X108473572Y-105970357D01*
X109223572Y-105363214D02*
X109259286Y-105327500D01*
X109330715Y-105291786D01*
X109509286Y-105291786D01*
X109580715Y-105327500D01*
X109616429Y-105363214D01*
X109652144Y-105434643D01*
X109652144Y-105506071D01*
X109616429Y-105613214D01*
X109187858Y-106041786D01*
X109652144Y-106041786D01*
X110545001Y-106041786D02*
X110545001Y-105291786D01*
X110795001Y-105827500D01*
X111045001Y-105291786D01*
X111045001Y-106041786D01*
X111509287Y-106041786D02*
X111437859Y-106006071D01*
X111402144Y-105970357D01*
X111366430Y-105898929D01*
X111366430Y-105684643D01*
X111402144Y-105613214D01*
X111437859Y-105577500D01*
X111509287Y-105541786D01*
X111616430Y-105541786D01*
X111687859Y-105577500D01*
X111723573Y-105613214D01*
X111759287Y-105684643D01*
X111759287Y-105898929D01*
X111723573Y-105970357D01*
X111687859Y-106006071D01*
X111616430Y-106041786D01*
X111509287Y-106041786D01*
X112402144Y-106041786D02*
X112402144Y-105291786D01*
X112402144Y-106006071D02*
X112330715Y-106041786D01*
X112187858Y-106041786D01*
X112116430Y-106006071D01*
X112080715Y-105970357D01*
X112045001Y-105898929D01*
X112045001Y-105684643D01*
X112080715Y-105613214D01*
X112116430Y-105577500D01*
X112187858Y-105541786D01*
X112330715Y-105541786D01*
X112402144Y-105577500D01*
X113080715Y-105541786D02*
X113080715Y-106041786D01*
X112759286Y-105541786D02*
X112759286Y-105934643D01*
X112795001Y-106006071D01*
X112866429Y-106041786D01*
X112973572Y-106041786D01*
X113045001Y-106006071D01*
X113080715Y-105970357D01*
X113545000Y-106041786D02*
X113473572Y-106006071D01*
X113437857Y-105934643D01*
X113437857Y-105291786D01*
X114116429Y-106006071D02*
X114045000Y-106041786D01*
X113902143Y-106041786D01*
X113830714Y-106006071D01*
X113795000Y-105934643D01*
X113795000Y-105648929D01*
X113830714Y-105577500D01*
X113902143Y-105541786D01*
X114045000Y-105541786D01*
X114116429Y-105577500D01*
X114152143Y-105648929D01*
X114152143Y-105720357D01*
X113795000Y-105791786D01*
X104451190Y-130632856D02*
X104451190Y-130870951D01*
X103951190Y-130870951D01*
X104451190Y-130466189D02*
X104117857Y-130466189D01*
X103951190Y-130466189D02*
X103975000Y-130489999D01*
X103998810Y-130466189D01*
X103975000Y-130442380D01*
X103951190Y-130466189D01*
X103998810Y-130466189D01*
X104451190Y-130228094D02*
X103951190Y-130228094D01*
X103951190Y-130037618D01*
X103975000Y-129989999D01*
X103998810Y-129966190D01*
X104046429Y-129942380D01*
X104117857Y-129942380D01*
X104165476Y-129966190D01*
X104189286Y-129989999D01*
X104213095Y-130037618D01*
X104213095Y-130228094D01*
X104451190Y-129656666D02*
X104427381Y-129704285D01*
X104403571Y-129728094D01*
X104355952Y-129751904D01*
X104213095Y-129751904D01*
X104165476Y-129728094D01*
X104141667Y-129704285D01*
X104117857Y-129656666D01*
X104117857Y-129585237D01*
X104141667Y-129537618D01*
X104165476Y-129513809D01*
X104213095Y-129489999D01*
X104355952Y-129489999D01*
X104403571Y-129513809D01*
X104427381Y-129537618D01*
X104451190Y-129585237D01*
X104451190Y-129656666D01*
X104189286Y-128728095D02*
X104213095Y-128656666D01*
X104236905Y-128632857D01*
X104284524Y-128609047D01*
X104355952Y-128609047D01*
X104403571Y-128632857D01*
X104427381Y-128656666D01*
X104451190Y-128704285D01*
X104451190Y-128894761D01*
X103951190Y-128894761D01*
X103951190Y-128728095D01*
X103975000Y-128680476D01*
X103998810Y-128656666D01*
X104046429Y-128632857D01*
X104094048Y-128632857D01*
X104141667Y-128656666D01*
X104165476Y-128680476D01*
X104189286Y-128728095D01*
X104189286Y-128894761D01*
X104451190Y-128180476D02*
X104189286Y-128180476D01*
X104141667Y-128204285D01*
X104117857Y-128251904D01*
X104117857Y-128347142D01*
X104141667Y-128394761D01*
X104427381Y-128180476D02*
X104451190Y-128228095D01*
X104451190Y-128347142D01*
X104427381Y-128394761D01*
X104379762Y-128418571D01*
X104332143Y-128418571D01*
X104284524Y-128394761D01*
X104260714Y-128347142D01*
X104260714Y-128228095D01*
X104236905Y-128180476D01*
X104117857Y-128013809D02*
X104117857Y-127823333D01*
X103951190Y-127942380D02*
X104379762Y-127942380D01*
X104427381Y-127918571D01*
X104451190Y-127870952D01*
X104451190Y-127823333D01*
X104117857Y-127728095D02*
X104117857Y-127537619D01*
X103951190Y-127656666D02*
X104379762Y-127656666D01*
X104427381Y-127632857D01*
X104451190Y-127585238D01*
X104451190Y-127537619D01*
X104427381Y-127180476D02*
X104451190Y-127228095D01*
X104451190Y-127323333D01*
X104427381Y-127370952D01*
X104379762Y-127394762D01*
X104189286Y-127394762D01*
X104141667Y-127370952D01*
X104117857Y-127323333D01*
X104117857Y-127228095D01*
X104141667Y-127180476D01*
X104189286Y-127156667D01*
X104236905Y-127156667D01*
X104284524Y-127394762D01*
X104451190Y-126942381D02*
X104117857Y-126942381D01*
X104213095Y-126942381D02*
X104165476Y-126918572D01*
X104141667Y-126894762D01*
X104117857Y-126847143D01*
X104117857Y-126799524D01*
X104117857Y-126680476D02*
X104451190Y-126561429D01*
X104117857Y-126442381D02*
X104451190Y-126561429D01*
X104570238Y-126609048D01*
X104594048Y-126632857D01*
X104617857Y-126680476D01*
X105253571Y-129537619D02*
X105277381Y-129561429D01*
X105301190Y-129632857D01*
X105301190Y-129680476D01*
X105277381Y-129751905D01*
X105229762Y-129799524D01*
X105182143Y-129823333D01*
X105086905Y-129847143D01*
X105015476Y-129847143D01*
X104920238Y-129823333D01*
X104872619Y-129799524D01*
X104825000Y-129751905D01*
X104801190Y-129680476D01*
X104801190Y-129632857D01*
X104825000Y-129561429D01*
X104848810Y-129537619D01*
X105301190Y-129323333D02*
X104801190Y-129323333D01*
X105301190Y-129109048D02*
X105039286Y-129109048D01*
X104991667Y-129132857D01*
X104967857Y-129180476D01*
X104967857Y-129251905D01*
X104991667Y-129299524D01*
X105015476Y-129323333D01*
X105301190Y-128656667D02*
X105039286Y-128656667D01*
X104991667Y-128680476D01*
X104967857Y-128728095D01*
X104967857Y-128823333D01*
X104991667Y-128870952D01*
X105277381Y-128656667D02*
X105301190Y-128704286D01*
X105301190Y-128823333D01*
X105277381Y-128870952D01*
X105229762Y-128894762D01*
X105182143Y-128894762D01*
X105134524Y-128870952D01*
X105110714Y-128823333D01*
X105110714Y-128704286D01*
X105086905Y-128656667D01*
X105301190Y-128418571D02*
X104967857Y-128418571D01*
X105063095Y-128418571D02*
X105015476Y-128394762D01*
X104991667Y-128370952D01*
X104967857Y-128323333D01*
X104967857Y-128275714D01*
X104967857Y-127894762D02*
X105372619Y-127894762D01*
X105420238Y-127918571D01*
X105444048Y-127942381D01*
X105467857Y-127990000D01*
X105467857Y-128061428D01*
X105444048Y-128109047D01*
X105277381Y-127894762D02*
X105301190Y-127942381D01*
X105301190Y-128037619D01*
X105277381Y-128085238D01*
X105253571Y-128109047D01*
X105205952Y-128132857D01*
X105063095Y-128132857D01*
X105015476Y-128109047D01*
X104991667Y-128085238D01*
X104967857Y-128037619D01*
X104967857Y-127942381D01*
X104991667Y-127894762D01*
X105277381Y-127466190D02*
X105301190Y-127513809D01*
X105301190Y-127609047D01*
X105277381Y-127656666D01*
X105229762Y-127680476D01*
X105039286Y-127680476D01*
X104991667Y-127656666D01*
X104967857Y-127609047D01*
X104967857Y-127513809D01*
X104991667Y-127466190D01*
X105039286Y-127442381D01*
X105086905Y-127442381D01*
X105134524Y-127680476D01*
X105301190Y-127228095D02*
X104967857Y-127228095D01*
X105063095Y-127228095D02*
X105015476Y-127204286D01*
X104991667Y-127180476D01*
X104967857Y-127132857D01*
X104967857Y-127085238D01*
X99776190Y-132924284D02*
X99276190Y-132924284D01*
X99276190Y-132733808D01*
X99300000Y-132686189D01*
X99323810Y-132662380D01*
X99371429Y-132638570D01*
X99442857Y-132638570D01*
X99490476Y-132662380D01*
X99514286Y-132686189D01*
X99538095Y-132733808D01*
X99538095Y-132924284D01*
X99276190Y-132329046D02*
X99276190Y-132281427D01*
X99300000Y-132233808D01*
X99323810Y-132209999D01*
X99371429Y-132186189D01*
X99466667Y-132162380D01*
X99585714Y-132162380D01*
X99680952Y-132186189D01*
X99728571Y-132209999D01*
X99752381Y-132233808D01*
X99776190Y-132281427D01*
X99776190Y-132329046D01*
X99752381Y-132376665D01*
X99728571Y-132400475D01*
X99680952Y-132424284D01*
X99585714Y-132448094D01*
X99466667Y-132448094D01*
X99371429Y-132424284D01*
X99323810Y-132400475D01*
X99300000Y-132376665D01*
X99276190Y-132329046D01*
X99728571Y-131948094D02*
X99752381Y-131924285D01*
X99776190Y-131948094D01*
X99752381Y-131971904D01*
X99728571Y-131948094D01*
X99776190Y-131948094D01*
X99776190Y-131448095D02*
X99776190Y-131733809D01*
X99776190Y-131590952D02*
X99276190Y-131590952D01*
X99347619Y-131638571D01*
X99395238Y-131686190D01*
X99419048Y-131733809D01*
X99323810Y-131257619D02*
X99300000Y-131233809D01*
X99276190Y-131186190D01*
X99276190Y-131067143D01*
X99300000Y-131019524D01*
X99323810Y-130995714D01*
X99371429Y-130971905D01*
X99419048Y-130971905D01*
X99490476Y-130995714D01*
X99776190Y-131281428D01*
X99776190Y-130971905D01*
X99786190Y-130384284D02*
X99286190Y-130384284D01*
X99286190Y-130193808D01*
X99310000Y-130146189D01*
X99333810Y-130122380D01*
X99381429Y-130098570D01*
X99452857Y-130098570D01*
X99500476Y-130122380D01*
X99524286Y-130146189D01*
X99548095Y-130193808D01*
X99548095Y-130384284D01*
X99286190Y-129789046D02*
X99286190Y-129741427D01*
X99310000Y-129693808D01*
X99333810Y-129669999D01*
X99381429Y-129646189D01*
X99476667Y-129622380D01*
X99595714Y-129622380D01*
X99690952Y-129646189D01*
X99738571Y-129669999D01*
X99762381Y-129693808D01*
X99786190Y-129741427D01*
X99786190Y-129789046D01*
X99762381Y-129836665D01*
X99738571Y-129860475D01*
X99690952Y-129884284D01*
X99595714Y-129908094D01*
X99476667Y-129908094D01*
X99381429Y-129884284D01*
X99333810Y-129860475D01*
X99310000Y-129836665D01*
X99286190Y-129789046D01*
X99738571Y-129408094D02*
X99762381Y-129384285D01*
X99786190Y-129408094D01*
X99762381Y-129431904D01*
X99738571Y-129408094D01*
X99786190Y-129408094D01*
X99786190Y-128908095D02*
X99786190Y-129193809D01*
X99786190Y-129050952D02*
X99286190Y-129050952D01*
X99357619Y-129098571D01*
X99405238Y-129146190D01*
X99429048Y-129193809D01*
X99452857Y-128479524D02*
X99786190Y-128479524D01*
X99262381Y-128598571D02*
X99619524Y-128717619D01*
X99619524Y-128408095D01*
X99846190Y-127784284D02*
X99346190Y-127784284D01*
X99346190Y-127593808D01*
X99370000Y-127546189D01*
X99393810Y-127522380D01*
X99441429Y-127498570D01*
X99512857Y-127498570D01*
X99560476Y-127522380D01*
X99584286Y-127546189D01*
X99608095Y-127593808D01*
X99608095Y-127784284D01*
X99346190Y-127189046D02*
X99346190Y-127141427D01*
X99370000Y-127093808D01*
X99393810Y-127069999D01*
X99441429Y-127046189D01*
X99536667Y-127022380D01*
X99655714Y-127022380D01*
X99750952Y-127046189D01*
X99798571Y-127069999D01*
X99822381Y-127093808D01*
X99846190Y-127141427D01*
X99846190Y-127189046D01*
X99822381Y-127236665D01*
X99798571Y-127260475D01*
X99750952Y-127284284D01*
X99655714Y-127308094D01*
X99536667Y-127308094D01*
X99441429Y-127284284D01*
X99393810Y-127260475D01*
X99370000Y-127236665D01*
X99346190Y-127189046D01*
X99798571Y-126808094D02*
X99822381Y-126784285D01*
X99846190Y-126808094D01*
X99822381Y-126831904D01*
X99798571Y-126808094D01*
X99846190Y-126808094D01*
X99846190Y-126308095D02*
X99846190Y-126593809D01*
X99846190Y-126450952D02*
X99346190Y-126450952D01*
X99417619Y-126498571D01*
X99465238Y-126546190D01*
X99489048Y-126593809D01*
X99346190Y-126141428D02*
X99346190Y-125831905D01*
X99536667Y-125998571D01*
X99536667Y-125927143D01*
X99560476Y-125879524D01*
X99584286Y-125855714D01*
X99631905Y-125831905D01*
X99750952Y-125831905D01*
X99798571Y-125855714D01*
X99822381Y-125879524D01*
X99846190Y-125927143D01*
X99846190Y-126070000D01*
X99822381Y-126117619D01*
X99798571Y-126141428D01*
X119096190Y-140554284D02*
X118596190Y-140554284D01*
X118596190Y-140363808D01*
X118620000Y-140316189D01*
X118643810Y-140292380D01*
X118691429Y-140268570D01*
X118762857Y-140268570D01*
X118810476Y-140292380D01*
X118834286Y-140316189D01*
X118858095Y-140363808D01*
X118858095Y-140554284D01*
X118596190Y-139959046D02*
X118596190Y-139911427D01*
X118620000Y-139863808D01*
X118643810Y-139839999D01*
X118691429Y-139816189D01*
X118786667Y-139792380D01*
X118905714Y-139792380D01*
X119000952Y-139816189D01*
X119048571Y-139839999D01*
X119072381Y-139863808D01*
X119096190Y-139911427D01*
X119096190Y-139959046D01*
X119072381Y-140006665D01*
X119048571Y-140030475D01*
X119000952Y-140054284D01*
X118905714Y-140078094D01*
X118786667Y-140078094D01*
X118691429Y-140054284D01*
X118643810Y-140030475D01*
X118620000Y-140006665D01*
X118596190Y-139959046D01*
X119048571Y-139578094D02*
X119072381Y-139554285D01*
X119096190Y-139578094D01*
X119072381Y-139601904D01*
X119048571Y-139578094D01*
X119096190Y-139578094D01*
X118643810Y-139363809D02*
X118620000Y-139339999D01*
X118596190Y-139292380D01*
X118596190Y-139173333D01*
X118620000Y-139125714D01*
X118643810Y-139101904D01*
X118691429Y-139078095D01*
X118739048Y-139078095D01*
X118810476Y-139101904D01*
X119096190Y-139387618D01*
X119096190Y-139078095D01*
X118596190Y-138649524D02*
X118596190Y-138744762D01*
X118620000Y-138792381D01*
X118643810Y-138816190D01*
X118715238Y-138863809D01*
X118810476Y-138887619D01*
X119000952Y-138887619D01*
X119048571Y-138863809D01*
X119072381Y-138840000D01*
X119096190Y-138792381D01*
X119096190Y-138697143D01*
X119072381Y-138649524D01*
X119048571Y-138625714D01*
X119000952Y-138601905D01*
X118881905Y-138601905D01*
X118834286Y-138625714D01*
X118810476Y-138649524D01*
X118786667Y-138697143D01*
X118786667Y-138792381D01*
X118810476Y-138840000D01*
X118834286Y-138863809D01*
X118881905Y-138887619D01*
X119046190Y-143044284D02*
X118546190Y-143044284D01*
X118546190Y-142853808D01*
X118570000Y-142806189D01*
X118593810Y-142782380D01*
X118641429Y-142758570D01*
X118712857Y-142758570D01*
X118760476Y-142782380D01*
X118784286Y-142806189D01*
X118808095Y-142853808D01*
X118808095Y-143044284D01*
X118546190Y-142449046D02*
X118546190Y-142401427D01*
X118570000Y-142353808D01*
X118593810Y-142329999D01*
X118641429Y-142306189D01*
X118736667Y-142282380D01*
X118855714Y-142282380D01*
X118950952Y-142306189D01*
X118998571Y-142329999D01*
X119022381Y-142353808D01*
X119046190Y-142401427D01*
X119046190Y-142449046D01*
X119022381Y-142496665D01*
X118998571Y-142520475D01*
X118950952Y-142544284D01*
X118855714Y-142568094D01*
X118736667Y-142568094D01*
X118641429Y-142544284D01*
X118593810Y-142520475D01*
X118570000Y-142496665D01*
X118546190Y-142449046D01*
X118998571Y-142068094D02*
X119022381Y-142044285D01*
X119046190Y-142068094D01*
X119022381Y-142091904D01*
X118998571Y-142068094D01*
X119046190Y-142068094D01*
X118593810Y-141853809D02*
X118570000Y-141829999D01*
X118546190Y-141782380D01*
X118546190Y-141663333D01*
X118570000Y-141615714D01*
X118593810Y-141591904D01*
X118641429Y-141568095D01*
X118689048Y-141568095D01*
X118760476Y-141591904D01*
X119046190Y-141877618D01*
X119046190Y-141568095D01*
X118546190Y-141115714D02*
X118546190Y-141353809D01*
X118784286Y-141377619D01*
X118760476Y-141353809D01*
X118736667Y-141306190D01*
X118736667Y-141187143D01*
X118760476Y-141139524D01*
X118784286Y-141115714D01*
X118831905Y-141091905D01*
X118950952Y-141091905D01*
X118998571Y-141115714D01*
X119022381Y-141139524D01*
X119046190Y-141187143D01*
X119046190Y-141306190D01*
X119022381Y-141353809D01*
X118998571Y-141377619D01*
X99806190Y-142944284D02*
X99306190Y-142944284D01*
X99306190Y-142753808D01*
X99330000Y-142706189D01*
X99353810Y-142682380D01*
X99401429Y-142658570D01*
X99472857Y-142658570D01*
X99520476Y-142682380D01*
X99544286Y-142706189D01*
X99568095Y-142753808D01*
X99568095Y-142944284D01*
X99306190Y-142349046D02*
X99306190Y-142301427D01*
X99330000Y-142253808D01*
X99353810Y-142229999D01*
X99401429Y-142206189D01*
X99496667Y-142182380D01*
X99615714Y-142182380D01*
X99710952Y-142206189D01*
X99758571Y-142229999D01*
X99782381Y-142253808D01*
X99806190Y-142301427D01*
X99806190Y-142349046D01*
X99782381Y-142396665D01*
X99758571Y-142420475D01*
X99710952Y-142444284D01*
X99615714Y-142468094D01*
X99496667Y-142468094D01*
X99401429Y-142444284D01*
X99353810Y-142420475D01*
X99330000Y-142396665D01*
X99306190Y-142349046D01*
X99758571Y-141968094D02*
X99782381Y-141944285D01*
X99806190Y-141968094D01*
X99782381Y-141991904D01*
X99758571Y-141968094D01*
X99806190Y-141968094D01*
X99306190Y-141634761D02*
X99306190Y-141587142D01*
X99330000Y-141539523D01*
X99353810Y-141515714D01*
X99401429Y-141491904D01*
X99496667Y-141468095D01*
X99615714Y-141468095D01*
X99710952Y-141491904D01*
X99758571Y-141515714D01*
X99782381Y-141539523D01*
X99806190Y-141587142D01*
X99806190Y-141634761D01*
X99782381Y-141682380D01*
X99758571Y-141706190D01*
X99710952Y-141729999D01*
X99615714Y-141753809D01*
X99496667Y-141753809D01*
X99401429Y-141729999D01*
X99353810Y-141706190D01*
X99330000Y-141682380D01*
X99306190Y-141634761D01*
X99306190Y-141015714D02*
X99306190Y-141253809D01*
X99544286Y-141277619D01*
X99520476Y-141253809D01*
X99496667Y-141206190D01*
X99496667Y-141087143D01*
X99520476Y-141039524D01*
X99544286Y-141015714D01*
X99591905Y-140991905D01*
X99710952Y-140991905D01*
X99758571Y-141015714D01*
X99782381Y-141039524D01*
X99806190Y-141087143D01*
X99806190Y-141206190D01*
X99782381Y-141253809D01*
X99758571Y-141277619D01*
X99846190Y-140374284D02*
X99346190Y-140374284D01*
X99346190Y-140183808D01*
X99370000Y-140136189D01*
X99393810Y-140112380D01*
X99441429Y-140088570D01*
X99512857Y-140088570D01*
X99560476Y-140112380D01*
X99584286Y-140136189D01*
X99608095Y-140183808D01*
X99608095Y-140374284D01*
X99346190Y-139779046D02*
X99346190Y-139731427D01*
X99370000Y-139683808D01*
X99393810Y-139659999D01*
X99441429Y-139636189D01*
X99536667Y-139612380D01*
X99655714Y-139612380D01*
X99750952Y-139636189D01*
X99798571Y-139659999D01*
X99822381Y-139683808D01*
X99846190Y-139731427D01*
X99846190Y-139779046D01*
X99822381Y-139826665D01*
X99798571Y-139850475D01*
X99750952Y-139874284D01*
X99655714Y-139898094D01*
X99536667Y-139898094D01*
X99441429Y-139874284D01*
X99393810Y-139850475D01*
X99370000Y-139826665D01*
X99346190Y-139779046D01*
X99798571Y-139398094D02*
X99822381Y-139374285D01*
X99846190Y-139398094D01*
X99822381Y-139421904D01*
X99798571Y-139398094D01*
X99846190Y-139398094D01*
X99346190Y-139064761D02*
X99346190Y-139017142D01*
X99370000Y-138969523D01*
X99393810Y-138945714D01*
X99441429Y-138921904D01*
X99536667Y-138898095D01*
X99655714Y-138898095D01*
X99750952Y-138921904D01*
X99798571Y-138945714D01*
X99822381Y-138969523D01*
X99846190Y-139017142D01*
X99846190Y-139064761D01*
X99822381Y-139112380D01*
X99798571Y-139136190D01*
X99750952Y-139159999D01*
X99655714Y-139183809D01*
X99536667Y-139183809D01*
X99441429Y-139159999D01*
X99393810Y-139136190D01*
X99370000Y-139112380D01*
X99346190Y-139064761D01*
X99512857Y-138469524D02*
X99846190Y-138469524D01*
X99322381Y-138588571D02*
X99679524Y-138707619D01*
X99679524Y-138398095D01*
X99846190Y-137824284D02*
X99346190Y-137824284D01*
X99346190Y-137633808D01*
X99370000Y-137586189D01*
X99393810Y-137562380D01*
X99441429Y-137538570D01*
X99512857Y-137538570D01*
X99560476Y-137562380D01*
X99584286Y-137586189D01*
X99608095Y-137633808D01*
X99608095Y-137824284D01*
X99346190Y-137229046D02*
X99346190Y-137181427D01*
X99370000Y-137133808D01*
X99393810Y-137109999D01*
X99441429Y-137086189D01*
X99536667Y-137062380D01*
X99655714Y-137062380D01*
X99750952Y-137086189D01*
X99798571Y-137109999D01*
X99822381Y-137133808D01*
X99846190Y-137181427D01*
X99846190Y-137229046D01*
X99822381Y-137276665D01*
X99798571Y-137300475D01*
X99750952Y-137324284D01*
X99655714Y-137348094D01*
X99536667Y-137348094D01*
X99441429Y-137324284D01*
X99393810Y-137300475D01*
X99370000Y-137276665D01*
X99346190Y-137229046D01*
X99798571Y-136848094D02*
X99822381Y-136824285D01*
X99846190Y-136848094D01*
X99822381Y-136871904D01*
X99798571Y-136848094D01*
X99846190Y-136848094D01*
X99346190Y-136514761D02*
X99346190Y-136467142D01*
X99370000Y-136419523D01*
X99393810Y-136395714D01*
X99441429Y-136371904D01*
X99536667Y-136348095D01*
X99655714Y-136348095D01*
X99750952Y-136371904D01*
X99798571Y-136395714D01*
X99822381Y-136419523D01*
X99846190Y-136467142D01*
X99846190Y-136514761D01*
X99822381Y-136562380D01*
X99798571Y-136586190D01*
X99750952Y-136609999D01*
X99655714Y-136633809D01*
X99536667Y-136633809D01*
X99441429Y-136609999D01*
X99393810Y-136586190D01*
X99370000Y-136562380D01*
X99346190Y-136514761D01*
X99346190Y-136181428D02*
X99346190Y-135871905D01*
X99536667Y-136038571D01*
X99536667Y-135967143D01*
X99560476Y-135919524D01*
X99584286Y-135895714D01*
X99631905Y-135871905D01*
X99750952Y-135871905D01*
X99798571Y-135895714D01*
X99822381Y-135919524D01*
X99846190Y-135967143D01*
X99846190Y-136110000D01*
X99822381Y-136157619D01*
X99798571Y-136181428D01*
X99846190Y-135324284D02*
X99346190Y-135324284D01*
X99346190Y-135133808D01*
X99370000Y-135086189D01*
X99393810Y-135062380D01*
X99441429Y-135038570D01*
X99512857Y-135038570D01*
X99560476Y-135062380D01*
X99584286Y-135086189D01*
X99608095Y-135133808D01*
X99608095Y-135324284D01*
X99346190Y-134729046D02*
X99346190Y-134681427D01*
X99370000Y-134633808D01*
X99393810Y-134609999D01*
X99441429Y-134586189D01*
X99536667Y-134562380D01*
X99655714Y-134562380D01*
X99750952Y-134586189D01*
X99798571Y-134609999D01*
X99822381Y-134633808D01*
X99846190Y-134681427D01*
X99846190Y-134729046D01*
X99822381Y-134776665D01*
X99798571Y-134800475D01*
X99750952Y-134824284D01*
X99655714Y-134848094D01*
X99536667Y-134848094D01*
X99441429Y-134824284D01*
X99393810Y-134800475D01*
X99370000Y-134776665D01*
X99346190Y-134729046D01*
X99798571Y-134348094D02*
X99822381Y-134324285D01*
X99846190Y-134348094D01*
X99822381Y-134371904D01*
X99798571Y-134348094D01*
X99846190Y-134348094D01*
X99346190Y-134014761D02*
X99346190Y-133967142D01*
X99370000Y-133919523D01*
X99393810Y-133895714D01*
X99441429Y-133871904D01*
X99536667Y-133848095D01*
X99655714Y-133848095D01*
X99750952Y-133871904D01*
X99798571Y-133895714D01*
X99822381Y-133919523D01*
X99846190Y-133967142D01*
X99846190Y-134014761D01*
X99822381Y-134062380D01*
X99798571Y-134086190D01*
X99750952Y-134109999D01*
X99655714Y-134133809D01*
X99536667Y-134133809D01*
X99441429Y-134109999D01*
X99393810Y-134086190D01*
X99370000Y-134062380D01*
X99346190Y-134014761D01*
X99393810Y-133657619D02*
X99370000Y-133633809D01*
X99346190Y-133586190D01*
X99346190Y-133467143D01*
X99370000Y-133419524D01*
X99393810Y-133395714D01*
X99441429Y-133371905D01*
X99489048Y-133371905D01*
X99560476Y-133395714D01*
X99846190Y-133681428D01*
X99846190Y-133371905D01*
X99866190Y-125214284D02*
X99366190Y-125214284D01*
X99366190Y-125023808D01*
X99390000Y-124976189D01*
X99413810Y-124952380D01*
X99461429Y-124928570D01*
X99532857Y-124928570D01*
X99580476Y-124952380D01*
X99604286Y-124976189D01*
X99628095Y-125023808D01*
X99628095Y-125214284D01*
X99366190Y-124619046D02*
X99366190Y-124571427D01*
X99390000Y-124523808D01*
X99413810Y-124499999D01*
X99461429Y-124476189D01*
X99556667Y-124452380D01*
X99675714Y-124452380D01*
X99770952Y-124476189D01*
X99818571Y-124499999D01*
X99842381Y-124523808D01*
X99866190Y-124571427D01*
X99866190Y-124619046D01*
X99842381Y-124666665D01*
X99818571Y-124690475D01*
X99770952Y-124714284D01*
X99675714Y-124738094D01*
X99556667Y-124738094D01*
X99461429Y-124714284D01*
X99413810Y-124690475D01*
X99390000Y-124666665D01*
X99366190Y-124619046D01*
X99818571Y-124238094D02*
X99842381Y-124214285D01*
X99866190Y-124238094D01*
X99842381Y-124261904D01*
X99818571Y-124238094D01*
X99866190Y-124238094D01*
X99866190Y-123738095D02*
X99866190Y-124023809D01*
X99866190Y-123880952D02*
X99366190Y-123880952D01*
X99437619Y-123928571D01*
X99485238Y-123976190D01*
X99509048Y-124023809D01*
X99866190Y-123261905D02*
X99866190Y-123547619D01*
X99866190Y-123404762D02*
X99366190Y-123404762D01*
X99437619Y-123452381D01*
X99485238Y-123500000D01*
X99509048Y-123547619D01*
X119106190Y-125164284D02*
X118606190Y-125164284D01*
X118606190Y-124973808D01*
X118630000Y-124926189D01*
X118653810Y-124902380D01*
X118701429Y-124878570D01*
X118772857Y-124878570D01*
X118820476Y-124902380D01*
X118844286Y-124926189D01*
X118868095Y-124973808D01*
X118868095Y-125164284D01*
X118606190Y-124569046D02*
X118606190Y-124521427D01*
X118630000Y-124473808D01*
X118653810Y-124449999D01*
X118701429Y-124426189D01*
X118796667Y-124402380D01*
X118915714Y-124402380D01*
X119010952Y-124426189D01*
X119058571Y-124449999D01*
X119082381Y-124473808D01*
X119106190Y-124521427D01*
X119106190Y-124569046D01*
X119082381Y-124616665D01*
X119058571Y-124640475D01*
X119010952Y-124664284D01*
X118915714Y-124688094D01*
X118796667Y-124688094D01*
X118701429Y-124664284D01*
X118653810Y-124640475D01*
X118630000Y-124616665D01*
X118606190Y-124569046D01*
X119058571Y-124188094D02*
X119082381Y-124164285D01*
X119106190Y-124188094D01*
X119082381Y-124211904D01*
X119058571Y-124188094D01*
X119106190Y-124188094D01*
X119106190Y-123688095D02*
X119106190Y-123973809D01*
X119106190Y-123830952D02*
X118606190Y-123830952D01*
X118677619Y-123878571D01*
X118725238Y-123926190D01*
X118749048Y-123973809D01*
X118606190Y-123259524D02*
X118606190Y-123354762D01*
X118630000Y-123402381D01*
X118653810Y-123426190D01*
X118725238Y-123473809D01*
X118820476Y-123497619D01*
X119010952Y-123497619D01*
X119058571Y-123473809D01*
X119082381Y-123450000D01*
X119106190Y-123402381D01*
X119106190Y-123307143D01*
X119082381Y-123259524D01*
X119058571Y-123235714D01*
X119010952Y-123211905D01*
X118891905Y-123211905D01*
X118844286Y-123235714D01*
X118820476Y-123259524D01*
X118796667Y-123307143D01*
X118796667Y-123402381D01*
X118820476Y-123450000D01*
X118844286Y-123473809D01*
X118891905Y-123497619D01*
X119106190Y-127764284D02*
X118606190Y-127764284D01*
X118606190Y-127573808D01*
X118630000Y-127526189D01*
X118653810Y-127502380D01*
X118701429Y-127478570D01*
X118772857Y-127478570D01*
X118820476Y-127502380D01*
X118844286Y-127526189D01*
X118868095Y-127573808D01*
X118868095Y-127764284D01*
X118606190Y-127169046D02*
X118606190Y-127121427D01*
X118630000Y-127073808D01*
X118653810Y-127049999D01*
X118701429Y-127026189D01*
X118796667Y-127002380D01*
X118915714Y-127002380D01*
X119010952Y-127026189D01*
X119058571Y-127049999D01*
X119082381Y-127073808D01*
X119106190Y-127121427D01*
X119106190Y-127169046D01*
X119082381Y-127216665D01*
X119058571Y-127240475D01*
X119010952Y-127264284D01*
X118915714Y-127288094D01*
X118796667Y-127288094D01*
X118701429Y-127264284D01*
X118653810Y-127240475D01*
X118630000Y-127216665D01*
X118606190Y-127169046D01*
X119058571Y-126788094D02*
X119082381Y-126764285D01*
X119106190Y-126788094D01*
X119082381Y-126811904D01*
X119058571Y-126788094D01*
X119106190Y-126788094D01*
X119106190Y-126288095D02*
X119106190Y-126573809D01*
X119106190Y-126430952D02*
X118606190Y-126430952D01*
X118677619Y-126478571D01*
X118725238Y-126526190D01*
X118749048Y-126573809D01*
X118606190Y-125835714D02*
X118606190Y-126073809D01*
X118844286Y-126097619D01*
X118820476Y-126073809D01*
X118796667Y-126026190D01*
X118796667Y-125907143D01*
X118820476Y-125859524D01*
X118844286Y-125835714D01*
X118891905Y-125811905D01*
X119010952Y-125811905D01*
X119058571Y-125835714D01*
X119082381Y-125859524D01*
X119106190Y-125907143D01*
X119106190Y-126026190D01*
X119082381Y-126073809D01*
X119058571Y-126097619D01*
X119116190Y-130324284D02*
X118616190Y-130324284D01*
X118616190Y-130133808D01*
X118640000Y-130086189D01*
X118663810Y-130062380D01*
X118711429Y-130038570D01*
X118782857Y-130038570D01*
X118830476Y-130062380D01*
X118854286Y-130086189D01*
X118878095Y-130133808D01*
X118878095Y-130324284D01*
X118616190Y-129729046D02*
X118616190Y-129681427D01*
X118640000Y-129633808D01*
X118663810Y-129609999D01*
X118711429Y-129586189D01*
X118806667Y-129562380D01*
X118925714Y-129562380D01*
X119020952Y-129586189D01*
X119068571Y-129609999D01*
X119092381Y-129633808D01*
X119116190Y-129681427D01*
X119116190Y-129729046D01*
X119092381Y-129776665D01*
X119068571Y-129800475D01*
X119020952Y-129824284D01*
X118925714Y-129848094D01*
X118806667Y-129848094D01*
X118711429Y-129824284D01*
X118663810Y-129800475D01*
X118640000Y-129776665D01*
X118616190Y-129729046D01*
X119068571Y-129348094D02*
X119092381Y-129324285D01*
X119116190Y-129348094D01*
X119092381Y-129371904D01*
X119068571Y-129348094D01*
X119116190Y-129348094D01*
X118616190Y-129157618D02*
X118616190Y-128848095D01*
X118806667Y-129014761D01*
X118806667Y-128943333D01*
X118830476Y-128895714D01*
X118854286Y-128871904D01*
X118901905Y-128848095D01*
X119020952Y-128848095D01*
X119068571Y-128871904D01*
X119092381Y-128895714D01*
X119116190Y-128943333D01*
X119116190Y-129086190D01*
X119092381Y-129133809D01*
X119068571Y-129157618D01*
X118616190Y-128538571D02*
X118616190Y-128490952D01*
X118640000Y-128443333D01*
X118663810Y-128419524D01*
X118711429Y-128395714D01*
X118806667Y-128371905D01*
X118925714Y-128371905D01*
X119020952Y-128395714D01*
X119068571Y-128419524D01*
X119092381Y-128443333D01*
X119116190Y-128490952D01*
X119116190Y-128538571D01*
X119092381Y-128586190D01*
X119068571Y-128610000D01*
X119020952Y-128633809D01*
X118925714Y-128657619D01*
X118806667Y-128657619D01*
X118711429Y-128633809D01*
X118663810Y-128610000D01*
X118640000Y-128586190D01*
X118616190Y-128538571D01*
X119136190Y-132814284D02*
X118636190Y-132814284D01*
X118636190Y-132623808D01*
X118660000Y-132576189D01*
X118683810Y-132552380D01*
X118731429Y-132528570D01*
X118802857Y-132528570D01*
X118850476Y-132552380D01*
X118874286Y-132576189D01*
X118898095Y-132623808D01*
X118898095Y-132814284D01*
X118636190Y-132219046D02*
X118636190Y-132171427D01*
X118660000Y-132123808D01*
X118683810Y-132099999D01*
X118731429Y-132076189D01*
X118826667Y-132052380D01*
X118945714Y-132052380D01*
X119040952Y-132076189D01*
X119088571Y-132099999D01*
X119112381Y-132123808D01*
X119136190Y-132171427D01*
X119136190Y-132219046D01*
X119112381Y-132266665D01*
X119088571Y-132290475D01*
X119040952Y-132314284D01*
X118945714Y-132338094D01*
X118826667Y-132338094D01*
X118731429Y-132314284D01*
X118683810Y-132290475D01*
X118660000Y-132266665D01*
X118636190Y-132219046D01*
X119088571Y-131838094D02*
X119112381Y-131814285D01*
X119136190Y-131838094D01*
X119112381Y-131861904D01*
X119088571Y-131838094D01*
X119136190Y-131838094D01*
X118683810Y-131623809D02*
X118660000Y-131599999D01*
X118636190Y-131552380D01*
X118636190Y-131433333D01*
X118660000Y-131385714D01*
X118683810Y-131361904D01*
X118731429Y-131338095D01*
X118779048Y-131338095D01*
X118850476Y-131361904D01*
X119136190Y-131647618D01*
X119136190Y-131338095D01*
X119136190Y-131100000D02*
X119136190Y-131004762D01*
X119112381Y-130957143D01*
X119088571Y-130933333D01*
X119017143Y-130885714D01*
X118921905Y-130861905D01*
X118731429Y-130861905D01*
X118683810Y-130885714D01*
X118660000Y-130909524D01*
X118636190Y-130957143D01*
X118636190Y-131052381D01*
X118660000Y-131100000D01*
X118683810Y-131123809D01*
X118731429Y-131147619D01*
X118850476Y-131147619D01*
X118898095Y-131123809D01*
X118921905Y-131100000D01*
X118945714Y-131052381D01*
X118945714Y-130957143D01*
X118921905Y-130909524D01*
X118898095Y-130885714D01*
X118850476Y-130861905D01*
X119076190Y-135404284D02*
X118576190Y-135404284D01*
X118576190Y-135213808D01*
X118600000Y-135166189D01*
X118623810Y-135142380D01*
X118671429Y-135118570D01*
X118742857Y-135118570D01*
X118790476Y-135142380D01*
X118814286Y-135166189D01*
X118838095Y-135213808D01*
X118838095Y-135404284D01*
X118576190Y-134809046D02*
X118576190Y-134761427D01*
X118600000Y-134713808D01*
X118623810Y-134689999D01*
X118671429Y-134666189D01*
X118766667Y-134642380D01*
X118885714Y-134642380D01*
X118980952Y-134666189D01*
X119028571Y-134689999D01*
X119052381Y-134713808D01*
X119076190Y-134761427D01*
X119076190Y-134809046D01*
X119052381Y-134856665D01*
X119028571Y-134880475D01*
X118980952Y-134904284D01*
X118885714Y-134928094D01*
X118766667Y-134928094D01*
X118671429Y-134904284D01*
X118623810Y-134880475D01*
X118600000Y-134856665D01*
X118576190Y-134809046D01*
X119028571Y-134428094D02*
X119052381Y-134404285D01*
X119076190Y-134428094D01*
X119052381Y-134451904D01*
X119028571Y-134428094D01*
X119076190Y-134428094D01*
X118623810Y-134213809D02*
X118600000Y-134189999D01*
X118576190Y-134142380D01*
X118576190Y-134023333D01*
X118600000Y-133975714D01*
X118623810Y-133951904D01*
X118671429Y-133928095D01*
X118719048Y-133928095D01*
X118790476Y-133951904D01*
X119076190Y-134237618D01*
X119076190Y-133928095D01*
X118790476Y-133642381D02*
X118766667Y-133690000D01*
X118742857Y-133713809D01*
X118695238Y-133737619D01*
X118671429Y-133737619D01*
X118623810Y-133713809D01*
X118600000Y-133690000D01*
X118576190Y-133642381D01*
X118576190Y-133547143D01*
X118600000Y-133499524D01*
X118623810Y-133475714D01*
X118671429Y-133451905D01*
X118695238Y-133451905D01*
X118742857Y-133475714D01*
X118766667Y-133499524D01*
X118790476Y-133547143D01*
X118790476Y-133642381D01*
X118814286Y-133690000D01*
X118838095Y-133713809D01*
X118885714Y-133737619D01*
X118980952Y-133737619D01*
X119028571Y-133713809D01*
X119052381Y-133690000D01*
X119076190Y-133642381D01*
X119076190Y-133547143D01*
X119052381Y-133499524D01*
X119028571Y-133475714D01*
X118980952Y-133451905D01*
X118885714Y-133451905D01*
X118838095Y-133475714D01*
X118814286Y-133499524D01*
X118790476Y-133547143D01*
X119086190Y-137924284D02*
X118586190Y-137924284D01*
X118586190Y-137733808D01*
X118610000Y-137686189D01*
X118633810Y-137662380D01*
X118681429Y-137638570D01*
X118752857Y-137638570D01*
X118800476Y-137662380D01*
X118824286Y-137686189D01*
X118848095Y-137733808D01*
X118848095Y-137924284D01*
X118586190Y-137329046D02*
X118586190Y-137281427D01*
X118610000Y-137233808D01*
X118633810Y-137209999D01*
X118681429Y-137186189D01*
X118776667Y-137162380D01*
X118895714Y-137162380D01*
X118990952Y-137186189D01*
X119038571Y-137209999D01*
X119062381Y-137233808D01*
X119086190Y-137281427D01*
X119086190Y-137329046D01*
X119062381Y-137376665D01*
X119038571Y-137400475D01*
X118990952Y-137424284D01*
X118895714Y-137448094D01*
X118776667Y-137448094D01*
X118681429Y-137424284D01*
X118633810Y-137400475D01*
X118610000Y-137376665D01*
X118586190Y-137329046D01*
X119038571Y-136948094D02*
X119062381Y-136924285D01*
X119086190Y-136948094D01*
X119062381Y-136971904D01*
X119038571Y-136948094D01*
X119086190Y-136948094D01*
X118633810Y-136733809D02*
X118610000Y-136709999D01*
X118586190Y-136662380D01*
X118586190Y-136543333D01*
X118610000Y-136495714D01*
X118633810Y-136471904D01*
X118681429Y-136448095D01*
X118729048Y-136448095D01*
X118800476Y-136471904D01*
X119086190Y-136757618D01*
X119086190Y-136448095D01*
X118586190Y-136281428D02*
X118586190Y-135948095D01*
X119086190Y-136162381D01*
X119116190Y-150564284D02*
X118616190Y-150564284D01*
X118616190Y-150373808D01*
X118640000Y-150326189D01*
X118663810Y-150302380D01*
X118711429Y-150278570D01*
X118782857Y-150278570D01*
X118830476Y-150302380D01*
X118854286Y-150326189D01*
X118878095Y-150373808D01*
X118878095Y-150564284D01*
X118616190Y-149969046D02*
X118616190Y-149921427D01*
X118640000Y-149873808D01*
X118663810Y-149849999D01*
X118711429Y-149826189D01*
X118806667Y-149802380D01*
X118925714Y-149802380D01*
X119020952Y-149826189D01*
X119068571Y-149849999D01*
X119092381Y-149873808D01*
X119116190Y-149921427D01*
X119116190Y-149969046D01*
X119092381Y-150016665D01*
X119068571Y-150040475D01*
X119020952Y-150064284D01*
X118925714Y-150088094D01*
X118806667Y-150088094D01*
X118711429Y-150064284D01*
X118663810Y-150040475D01*
X118640000Y-150016665D01*
X118616190Y-149969046D01*
X119068571Y-149588094D02*
X119092381Y-149564285D01*
X119116190Y-149588094D01*
X119092381Y-149611904D01*
X119068571Y-149588094D01*
X119116190Y-149588094D01*
X118616190Y-149254761D02*
X118616190Y-149207142D01*
X118640000Y-149159523D01*
X118663810Y-149135714D01*
X118711429Y-149111904D01*
X118806667Y-149088095D01*
X118925714Y-149088095D01*
X119020952Y-149111904D01*
X119068571Y-149135714D01*
X119092381Y-149159523D01*
X119116190Y-149207142D01*
X119116190Y-149254761D01*
X119092381Y-149302380D01*
X119068571Y-149326190D01*
X119020952Y-149349999D01*
X118925714Y-149373809D01*
X118806667Y-149373809D01*
X118711429Y-149349999D01*
X118663810Y-149326190D01*
X118640000Y-149302380D01*
X118616190Y-149254761D01*
X118616190Y-148921428D02*
X118616190Y-148588095D01*
X119116190Y-148802381D01*
X119056190Y-153084284D02*
X118556190Y-153084284D01*
X118556190Y-152893808D01*
X118580000Y-152846189D01*
X118603810Y-152822380D01*
X118651429Y-152798570D01*
X118722857Y-152798570D01*
X118770476Y-152822380D01*
X118794286Y-152846189D01*
X118818095Y-152893808D01*
X118818095Y-153084284D01*
X118556190Y-152489046D02*
X118556190Y-152441427D01*
X118580000Y-152393808D01*
X118603810Y-152369999D01*
X118651429Y-152346189D01*
X118746667Y-152322380D01*
X118865714Y-152322380D01*
X118960952Y-152346189D01*
X119008571Y-152369999D01*
X119032381Y-152393808D01*
X119056190Y-152441427D01*
X119056190Y-152489046D01*
X119032381Y-152536665D01*
X119008571Y-152560475D01*
X118960952Y-152584284D01*
X118865714Y-152608094D01*
X118746667Y-152608094D01*
X118651429Y-152584284D01*
X118603810Y-152560475D01*
X118580000Y-152536665D01*
X118556190Y-152489046D01*
X119008571Y-152108094D02*
X119032381Y-152084285D01*
X119056190Y-152108094D01*
X119032381Y-152131904D01*
X119008571Y-152108094D01*
X119056190Y-152108094D01*
X119056190Y-151608095D02*
X119056190Y-151893809D01*
X119056190Y-151750952D02*
X118556190Y-151750952D01*
X118627619Y-151798571D01*
X118675238Y-151846190D01*
X118699048Y-151893809D01*
X118556190Y-151441428D02*
X118556190Y-151108095D01*
X119056190Y-151322381D01*
X107348572Y-127735000D02*
X107277143Y-127699286D01*
X107170000Y-127699286D01*
X107062857Y-127735000D01*
X106991429Y-127806429D01*
X106955714Y-127877857D01*
X106920000Y-128020714D01*
X106920000Y-128127857D01*
X106955714Y-128270714D01*
X106991429Y-128342143D01*
X107062857Y-128413571D01*
X107170000Y-128449286D01*
X107241429Y-128449286D01*
X107348572Y-128413571D01*
X107384286Y-128377857D01*
X107384286Y-128127857D01*
X107241429Y-128127857D01*
X107705714Y-128449286D02*
X107705714Y-127699286D01*
X108134286Y-128449286D01*
X108134286Y-127699286D01*
X108491428Y-128449286D02*
X108491428Y-127699286D01*
X108670000Y-127699286D01*
X108777143Y-127735000D01*
X108848571Y-127806429D01*
X108884286Y-127877857D01*
X108920000Y-128020714D01*
X108920000Y-128127857D01*
X108884286Y-128270714D01*
X108848571Y-128342143D01*
X108777143Y-128413571D01*
X108670000Y-128449286D01*
X108491428Y-128449286D01*
X107173572Y-130259286D02*
X107602143Y-130259286D01*
X107387857Y-131009286D02*
X107387857Y-130259286D01*
X107780715Y-130259286D02*
X108280715Y-131009286D01*
X108280715Y-130259286D02*
X107780715Y-131009286D01*
X108566429Y-131009286D02*
X108566429Y-130259286D01*
X108745001Y-130259286D01*
X108852144Y-130295000D01*
X108923572Y-130366429D01*
X108959287Y-130437857D01*
X108995001Y-130580714D01*
X108995001Y-130687857D01*
X108959287Y-130830714D01*
X108923572Y-130902143D01*
X108852144Y-130973571D01*
X108745001Y-131009286D01*
X108566429Y-131009286D01*
X113490000Y-131229286D02*
X113240000Y-130872143D01*
X113061428Y-131229286D02*
X113061428Y-130479286D01*
X113347143Y-130479286D01*
X113418571Y-130515000D01*
X113454286Y-130550714D01*
X113490000Y-130622143D01*
X113490000Y-130729286D01*
X113454286Y-130800714D01*
X113418571Y-130836429D01*
X113347143Y-130872143D01*
X113061428Y-130872143D01*
X113740000Y-130479286D02*
X114240000Y-131229286D01*
X114240000Y-130479286D02*
X113740000Y-131229286D01*
X114525714Y-131229286D02*
X114525714Y-130479286D01*
X114704286Y-130479286D01*
X114811429Y-130515000D01*
X114882857Y-130586429D01*
X114918572Y-130657857D01*
X114954286Y-130800714D01*
X114954286Y-130907857D01*
X114918572Y-131050714D01*
X114882857Y-131122143D01*
X114811429Y-131193571D01*
X114704286Y-131229286D01*
X114525714Y-131229286D01*
X113040001Y-127449286D02*
X113290001Y-128199286D01*
X113540001Y-127449286D01*
X114218572Y-128127857D02*
X114182858Y-128163571D01*
X114075715Y-128199286D01*
X114004286Y-128199286D01*
X113897143Y-128163571D01*
X113825715Y-128092143D01*
X113790000Y-128020714D01*
X113754286Y-127877857D01*
X113754286Y-127770714D01*
X113790000Y-127627857D01*
X113825715Y-127556429D01*
X113897143Y-127485000D01*
X114004286Y-127449286D01*
X114075715Y-127449286D01*
X114182858Y-127485000D01*
X114218572Y-127520714D01*
X114968572Y-128127857D02*
X114932858Y-128163571D01*
X114825715Y-128199286D01*
X114754286Y-128199286D01*
X114647143Y-128163571D01*
X114575715Y-128092143D01*
X114540000Y-128020714D01*
X114504286Y-127877857D01*
X114504286Y-127770714D01*
X114540000Y-127627857D01*
X114575715Y-127556429D01*
X114647143Y-127485000D01*
X114754286Y-127449286D01*
X114825715Y-127449286D01*
X114932858Y-127485000D01*
X114968572Y-127520714D01*
X112972143Y-125773571D02*
X113079286Y-125809286D01*
X113257857Y-125809286D01*
X113329286Y-125773571D01*
X113365000Y-125737857D01*
X113400715Y-125666429D01*
X113400715Y-125595000D01*
X113365000Y-125523571D01*
X113329286Y-125487857D01*
X113257857Y-125452143D01*
X113115000Y-125416429D01*
X113043572Y-125380714D01*
X113007857Y-125345000D01*
X112972143Y-125273571D01*
X112972143Y-125202143D01*
X113007857Y-125130714D01*
X113043572Y-125095000D01*
X113115000Y-125059286D01*
X113293572Y-125059286D01*
X113400715Y-125095000D01*
X113650715Y-125059286D02*
X113829286Y-125809286D01*
X113972143Y-125273571D01*
X114115001Y-125809286D01*
X114293572Y-125059286D01*
X114579286Y-125809286D02*
X114579286Y-125059286D01*
X114757858Y-125059286D01*
X114865001Y-125095000D01*
X114936429Y-125166429D01*
X114972144Y-125237857D01*
X115007858Y-125380714D01*
X115007858Y-125487857D01*
X114972144Y-125630714D01*
X114936429Y-125702143D01*
X114865001Y-125773571D01*
X114757858Y-125809286D01*
X114579286Y-125809286D01*
X115757858Y-125737857D02*
X115722144Y-125773571D01*
X115615001Y-125809286D01*
X115543572Y-125809286D01*
X115436429Y-125773571D01*
X115365001Y-125702143D01*
X115329286Y-125630714D01*
X115293572Y-125487857D01*
X115293572Y-125380714D01*
X115329286Y-125237857D01*
X115365001Y-125166429D01*
X115436429Y-125095000D01*
X115543572Y-125059286D01*
X115615001Y-125059286D01*
X115722144Y-125095000D01*
X115757858Y-125130714D01*
X116079286Y-125809286D02*
X116079286Y-125059286D01*
X116507858Y-125809286D02*
X116186429Y-125380714D01*
X116507858Y-125059286D02*
X116079286Y-125487857D01*
X105780714Y-125703571D02*
X105887857Y-125739286D01*
X106066428Y-125739286D01*
X106137857Y-125703571D01*
X106173571Y-125667857D01*
X106209286Y-125596429D01*
X106209286Y-125525000D01*
X106173571Y-125453571D01*
X106137857Y-125417857D01*
X106066428Y-125382143D01*
X105923571Y-125346429D01*
X105852143Y-125310714D01*
X105816428Y-125275000D01*
X105780714Y-125203571D01*
X105780714Y-125132143D01*
X105816428Y-125060714D01*
X105852143Y-125025000D01*
X105923571Y-124989286D01*
X106102143Y-124989286D01*
X106209286Y-125025000D01*
X106459286Y-124989286D02*
X106637857Y-125739286D01*
X106780714Y-125203571D01*
X106923572Y-125739286D01*
X107102143Y-124989286D01*
X107387857Y-125739286D02*
X107387857Y-124989286D01*
X107566429Y-124989286D01*
X107673572Y-125025000D01*
X107745000Y-125096429D01*
X107780715Y-125167857D01*
X107816429Y-125310714D01*
X107816429Y-125417857D01*
X107780715Y-125560714D01*
X107745000Y-125632143D01*
X107673572Y-125703571D01*
X107566429Y-125739286D01*
X107387857Y-125739286D01*
X108137857Y-125739286D02*
X108137857Y-124989286D01*
X108637858Y-124989286D02*
X108780715Y-124989286D01*
X108852143Y-125025000D01*
X108923572Y-125096429D01*
X108959286Y-125239286D01*
X108959286Y-125489286D01*
X108923572Y-125632143D01*
X108852143Y-125703571D01*
X108780715Y-125739286D01*
X108637858Y-125739286D01*
X108566429Y-125703571D01*
X108495000Y-125632143D01*
X108459286Y-125489286D01*
X108459286Y-125239286D01*
X108495000Y-125096429D01*
X108566429Y-125025000D01*
X108637858Y-124989286D01*
X104433571Y-135578571D02*
X104433571Y-135007142D01*
X104719286Y-135292856D02*
X104147857Y-135292856D01*
X104326429Y-134400000D02*
X104362143Y-134292857D01*
X104397857Y-134257142D01*
X104469286Y-134221428D01*
X104576429Y-134221428D01*
X104647857Y-134257142D01*
X104683571Y-134292857D01*
X104719286Y-134364285D01*
X104719286Y-134650000D01*
X103969286Y-134650000D01*
X103969286Y-134400000D01*
X104005000Y-134328571D01*
X104040714Y-134292857D01*
X104112143Y-134257142D01*
X104183571Y-134257142D01*
X104255000Y-134292857D01*
X104290714Y-134328571D01*
X104326429Y-134400000D01*
X104326429Y-134650000D01*
X104719286Y-133578571D02*
X104326429Y-133578571D01*
X104255000Y-133614285D01*
X104219286Y-133685714D01*
X104219286Y-133828571D01*
X104255000Y-133900000D01*
X104683571Y-133578571D02*
X104719286Y-133650000D01*
X104719286Y-133828571D01*
X104683571Y-133900000D01*
X104612143Y-133935714D01*
X104540714Y-133935714D01*
X104469286Y-133900000D01*
X104433571Y-133828571D01*
X104433571Y-133650000D01*
X104397857Y-133578571D01*
X104219286Y-133328571D02*
X104219286Y-133042857D01*
X103969286Y-133221429D02*
X104612143Y-133221429D01*
X104683571Y-133185714D01*
X104719286Y-133114286D01*
X104719286Y-133042857D01*
X104219286Y-132900000D02*
X104219286Y-132614286D01*
X103969286Y-132792858D02*
X104612143Y-132792858D01*
X104683571Y-132757143D01*
X104719286Y-132685715D01*
X104719286Y-132614286D01*
X104245000Y-137481428D02*
X104209286Y-137552857D01*
X104209286Y-137660000D01*
X104245000Y-137767143D01*
X104316429Y-137838571D01*
X104387857Y-137874286D01*
X104530714Y-137910000D01*
X104637857Y-137910000D01*
X104780714Y-137874286D01*
X104852143Y-137838571D01*
X104923571Y-137767143D01*
X104959286Y-137660000D01*
X104959286Y-137588571D01*
X104923571Y-137481428D01*
X104887857Y-137445714D01*
X104637857Y-137445714D01*
X104637857Y-137588571D01*
X104959286Y-137124286D02*
X104209286Y-137124286D01*
X104959286Y-136695714D01*
X104209286Y-136695714D01*
X104959286Y-136338572D02*
X104209286Y-136338572D01*
X104209286Y-136160000D01*
X104245000Y-136052857D01*
X104316429Y-135981429D01*
X104387857Y-135945714D01*
X104530714Y-135910000D01*
X104637857Y-135910000D01*
X104780714Y-135945714D01*
X104852143Y-135981429D01*
X104923571Y-136052857D01*
X104959286Y-136160000D01*
X104959286Y-136338572D01*
X104696286Y-147714466D02*
X104696286Y-148250180D01*
X104660572Y-148357323D01*
X104589143Y-148428751D01*
X104482000Y-148464466D01*
X104410572Y-148464466D01*
X105374858Y-147964466D02*
X105374858Y-148464466D01*
X105053429Y-147964466D02*
X105053429Y-148357323D01*
X105089144Y-148428751D01*
X105160572Y-148464466D01*
X105267715Y-148464466D01*
X105339144Y-148428751D01*
X105374858Y-148393037D01*
X105732000Y-148464466D02*
X105732000Y-147964466D01*
X105732000Y-148035894D02*
X105767715Y-148000180D01*
X105839143Y-147964466D01*
X105946286Y-147964466D01*
X106017715Y-148000180D01*
X106053429Y-148071609D01*
X106053429Y-148464466D01*
X106053429Y-148071609D02*
X106089143Y-148000180D01*
X106160572Y-147964466D01*
X106267715Y-147964466D01*
X106339143Y-148000180D01*
X106374858Y-148071609D01*
X106374858Y-148464466D01*
X106732000Y-147964466D02*
X106732000Y-148714466D01*
X106732000Y-148000180D02*
X106803429Y-147964466D01*
X106946286Y-147964466D01*
X107017715Y-148000180D01*
X107053429Y-148035894D01*
X107089143Y-148107323D01*
X107089143Y-148321609D01*
X107053429Y-148393037D01*
X107017715Y-148428751D01*
X106946286Y-148464466D01*
X106803429Y-148464466D01*
X106732000Y-148428751D01*
X107874858Y-147964466D02*
X108160572Y-147964466D01*
X107982000Y-148464466D02*
X107982000Y-147821609D01*
X108017715Y-147750180D01*
X108089143Y-147714466D01*
X108160572Y-147714466D01*
X108517714Y-148464466D02*
X108446286Y-148428751D01*
X108410571Y-148393037D01*
X108374857Y-148321609D01*
X108374857Y-148107323D01*
X108410571Y-148035894D01*
X108446286Y-148000180D01*
X108517714Y-147964466D01*
X108624857Y-147964466D01*
X108696286Y-148000180D01*
X108732000Y-148035894D01*
X108767714Y-148107323D01*
X108767714Y-148321609D01*
X108732000Y-148393037D01*
X108696286Y-148428751D01*
X108624857Y-148464466D01*
X108517714Y-148464466D01*
X109089142Y-148464466D02*
X109089142Y-147964466D01*
X109089142Y-148107323D02*
X109124857Y-148035894D01*
X109160571Y-148000180D01*
X109232000Y-147964466D01*
X109303428Y-147964466D01*
X110124857Y-148464466D02*
X110124857Y-147714466D01*
X110303429Y-147714466D01*
X110410572Y-147750180D01*
X110482000Y-147821609D01*
X110517715Y-147893037D01*
X110553429Y-148035894D01*
X110553429Y-148143037D01*
X110517715Y-148285894D01*
X110482000Y-148357323D01*
X110410572Y-148428751D01*
X110303429Y-148464466D01*
X110124857Y-148464466D01*
X110767715Y-147714466D02*
X111196286Y-147714466D01*
X110982000Y-148464466D02*
X110982000Y-147714466D01*
X111874858Y-148464466D02*
X111624858Y-148107323D01*
X111446286Y-148464466D02*
X111446286Y-147714466D01*
X111732001Y-147714466D01*
X111803429Y-147750180D01*
X111839144Y-147785894D01*
X111874858Y-147857323D01*
X111874858Y-147964466D01*
X111839144Y-148035894D01*
X111803429Y-148071609D01*
X111732001Y-148107323D01*
X111446286Y-148107323D01*
X113196287Y-148464466D02*
X112946287Y-148107323D01*
X112767715Y-148464466D02*
X112767715Y-147714466D01*
X113053430Y-147714466D01*
X113124858Y-147750180D01*
X113160573Y-147785894D01*
X113196287Y-147857323D01*
X113196287Y-147964466D01*
X113160573Y-148035894D01*
X113124858Y-148071609D01*
X113053430Y-148107323D01*
X112767715Y-148107323D01*
X113803430Y-148428751D02*
X113732001Y-148464466D01*
X113589144Y-148464466D01*
X113517715Y-148428751D01*
X113482001Y-148357323D01*
X113482001Y-148071609D01*
X113517715Y-148000180D01*
X113589144Y-147964466D01*
X113732001Y-147964466D01*
X113803430Y-148000180D01*
X113839144Y-148071609D01*
X113839144Y-148143037D01*
X113482001Y-148214466D01*
X114124858Y-148428751D02*
X114196287Y-148464466D01*
X114339144Y-148464466D01*
X114410572Y-148428751D01*
X114446287Y-148357323D01*
X114446287Y-148321609D01*
X114410572Y-148250180D01*
X114339144Y-148214466D01*
X114232001Y-148214466D01*
X114160572Y-148178751D01*
X114124858Y-148107323D01*
X114124858Y-148071609D01*
X114160572Y-148000180D01*
X114232001Y-147964466D01*
X114339144Y-147964466D01*
X114410572Y-148000180D01*
X115053430Y-148428751D02*
X114982001Y-148464466D01*
X114839144Y-148464466D01*
X114767715Y-148428751D01*
X114732001Y-148357323D01*
X114732001Y-148071609D01*
X114767715Y-148000180D01*
X114839144Y-147964466D01*
X114982001Y-147964466D01*
X115053430Y-148000180D01*
X115089144Y-148071609D01*
X115089144Y-148143037D01*
X114732001Y-148214466D01*
X115303430Y-147964466D02*
X115589144Y-147964466D01*
X115410572Y-147714466D02*
X115410572Y-148357323D01*
X115446287Y-148428751D01*
X115517715Y-148464466D01*
X115589144Y-148464466D01*
D11*
X104600952Y-99147381D02*
X104600952Y-99861667D01*
X104553332Y-100004524D01*
X104458094Y-100099762D01*
X104315237Y-100147381D01*
X104219999Y-100147381D01*
X105553333Y-100147381D02*
X105077142Y-100147381D01*
X105077142Y-99147381D01*
X106458095Y-100052143D02*
X106410476Y-100099762D01*
X106267619Y-100147381D01*
X106172381Y-100147381D01*
X106029523Y-100099762D01*
X105934285Y-100004524D01*
X105886666Y-99909286D01*
X105839047Y-99718810D01*
X105839047Y-99575952D01*
X105886666Y-99385476D01*
X105934285Y-99290238D01*
X106029523Y-99195000D01*
X106172381Y-99147381D01*
X106267619Y-99147381D01*
X106410476Y-99195000D01*
X106458095Y-99242619D01*
X107172381Y-99147381D02*
X107172381Y-99861667D01*
X107124761Y-100004524D01*
X107029523Y-100099762D01*
X106886666Y-100147381D01*
X106791428Y-100147381D01*
X108124762Y-100147381D02*
X107648571Y-100147381D01*
X107648571Y-99147381D01*
X109029524Y-100052143D02*
X108981905Y-100099762D01*
X108839048Y-100147381D01*
X108743810Y-100147381D01*
X108600952Y-100099762D01*
X108505714Y-100004524D01*
X108458095Y-99909286D01*
X108410476Y-99718810D01*
X108410476Y-99575952D01*
X108458095Y-99385476D01*
X108505714Y-99290238D01*
X108600952Y-99195000D01*
X108743810Y-99147381D01*
X108839048Y-99147381D01*
X108981905Y-99195000D01*
X109029524Y-99242619D01*
X109743810Y-99147381D02*
X109743810Y-99861667D01*
X109696190Y-100004524D01*
X109600952Y-100099762D01*
X109458095Y-100147381D01*
X109362857Y-100147381D01*
X110696191Y-100147381D02*
X110220000Y-100147381D01*
X110220000Y-99147381D01*
X111600953Y-100052143D02*
X111553334Y-100099762D01*
X111410477Y-100147381D01*
X111315239Y-100147381D01*
X111172381Y-100099762D01*
X111077143Y-100004524D01*
X111029524Y-99909286D01*
X110981905Y-99718810D01*
X110981905Y-99575952D01*
X111029524Y-99385476D01*
X111077143Y-99290238D01*
X111172381Y-99195000D01*
X111315239Y-99147381D01*
X111410477Y-99147381D01*
X111553334Y-99195000D01*
X111600953Y-99242619D01*
X112315239Y-99147381D02*
X112315239Y-99861667D01*
X112267619Y-100004524D01*
X112172381Y-100099762D01*
X112029524Y-100147381D01*
X111934286Y-100147381D01*
X113267620Y-100147381D02*
X112791429Y-100147381D01*
X112791429Y-99147381D01*
X114172382Y-100052143D02*
X114124763Y-100099762D01*
X113981906Y-100147381D01*
X113886668Y-100147381D01*
X113743810Y-100099762D01*
X113648572Y-100004524D01*
X113600953Y-99909286D01*
X113553334Y-99718810D01*
X113553334Y-99575952D01*
X113600953Y-99385476D01*
X113648572Y-99290238D01*
X113743810Y-99195000D01*
X113886668Y-99147381D01*
X113981906Y-99147381D01*
X114124763Y-99195000D01*
X114172382Y-99242619D01*
D12*
X102870000Y-150876000D02*
X100330000Y-150876000D01*
X102870000Y-153416000D02*
X102870000Y-150876000D01*
X118110000Y-122936000D02*
X118110000Y-153416000D01*
X100330000Y-122936000D02*
X118110000Y-122936000D01*
X100330000Y-153416000D02*
X100330000Y-122936000D01*
X118110000Y-153416000D02*
X100330000Y-153416000D01*
D13*
X105269200Y-149208980D02*
X105719200Y-149208980D01*
X105269200Y-151058980D02*
X105269200Y-149208980D01*
X113069200Y-153608980D02*
X113069200Y-153358980D01*
X105269200Y-153608980D02*
X105269200Y-153358980D01*
X113069200Y-151058980D02*
X113069200Y-149208980D01*
X113069200Y-149208980D02*
X112619200Y-149208980D01*
X107469200Y-148658980D02*
X107919200Y-148658980D01*
X107469200Y-148658980D02*
X107469200Y-149108980D01*
X110213360Y-135602820D02*
X110213360Y-136532820D01*
X110213360Y-138762820D02*
X110213360Y-137832820D01*
X110213360Y-138762820D02*
X112373360Y-138762820D01*
X110213360Y-135602820D02*
X111673360Y-135602820D01*
X115284620Y-137761280D02*
X115284620Y-136761280D01*
X113584620Y-136761280D02*
X113584620Y-137761280D01*
X111502760Y-133396620D02*
X110502760Y-133396620D01*
X110502760Y-135096620D02*
X111502760Y-135096620D01*
X104742940Y-138037880D02*
X107402940Y-138037880D01*
X104742940Y-135437880D02*
X104742940Y-138037880D01*
X107402940Y-135437880D02*
X107402940Y-138037880D01*
X104742940Y-135437880D02*
X107402940Y-135437880D01*
X104742940Y-134167880D02*
X104742940Y-132837880D01*
X104742940Y-132837880D02*
X106072940Y-132837880D01*
X112840060Y-143213980D02*
X111640060Y-143213980D01*
X111640060Y-141453980D02*
X112840060Y-141453980D01*
X111567520Y-133188600D02*
X110367520Y-133188600D01*
X110367520Y-131428600D02*
X111567520Y-131428600D01*
X112754980Y-143582020D02*
X111754980Y-143582020D01*
X111754980Y-145282020D02*
X112754980Y-145282020D01*
X106920600Y-145289160D02*
X105720600Y-145289160D01*
X105720600Y-143529160D02*
X106920600Y-143529160D01*
X106778360Y-141552560D02*
X105778360Y-141552560D01*
X105778360Y-143252560D02*
X106778360Y-143252560D01*
X113559900Y-123305260D02*
X108359900Y-123305260D01*
X113559900Y-128445260D02*
X113559900Y-123305260D01*
X108359900Y-131045260D02*
X108359900Y-123305260D01*
X113559900Y-128445260D02*
X110959900Y-128445260D01*
X110959900Y-128445260D02*
X110959900Y-131045260D01*
X110959900Y-131045260D02*
X108359900Y-131045260D01*
X113559900Y-129715260D02*
X113559900Y-131045260D01*
X113559900Y-131045260D02*
X112229900Y-131045260D01*
X108450000Y-140360000D02*
X108450000Y-138360000D01*
X108450000Y-138360000D02*
X104550000Y-138360000D01*
X108450000Y-140360000D02*
X104550000Y-140360000D01*
D10*
X103656667Y-152208667D02*
X103423333Y-151875333D01*
X103256667Y-152208667D02*
X103256667Y-151508667D01*
X103523333Y-151508667D01*
X103590000Y-151542000D01*
X103623333Y-151575333D01*
X103656667Y-151642000D01*
X103656667Y-151742000D01*
X103623333Y-151808667D01*
X103590000Y-151842000D01*
X103523333Y-151875333D01*
X103256667Y-151875333D01*
X103923333Y-152008667D02*
X104256667Y-152008667D01*
X103856667Y-152208667D02*
X104090000Y-151508667D01*
X104323333Y-152208667D01*
X104490000Y-151508667D02*
X104656667Y-152208667D01*
X104790000Y-151708667D01*
X104923333Y-152208667D01*
X105090000Y-151508667D01*
X103098667Y-149256000D02*
X103032001Y-149222667D01*
X102932001Y-149222667D01*
X102832001Y-149256000D01*
X102765334Y-149322667D01*
X102732001Y-149389333D01*
X102698667Y-149522667D01*
X102698667Y-149622667D01*
X102732001Y-149756000D01*
X102765334Y-149822667D01*
X102832001Y-149889333D01*
X102932001Y-149922667D01*
X102998667Y-149922667D01*
X103098667Y-149889333D01*
X103132001Y-149856000D01*
X103132001Y-149622667D01*
X102998667Y-149622667D01*
X103432001Y-149922667D02*
X103432001Y-149222667D01*
X103832001Y-149922667D01*
X103832001Y-149222667D01*
X104165334Y-149922667D02*
X104165334Y-149222667D01*
X104332000Y-149222667D01*
X104432000Y-149256000D01*
X104498667Y-149322667D01*
X104532000Y-149389333D01*
X104565334Y-149522667D01*
X104565334Y-149622667D01*
X104532000Y-149756000D01*
X104498667Y-149822667D01*
X104432000Y-149889333D01*
X104332000Y-149922667D01*
X104165334Y-149922667D01*
X103248667Y-147382667D02*
X103015333Y-147049333D01*
X102848667Y-147382667D02*
X102848667Y-146682667D01*
X103115333Y-146682667D01*
X103182000Y-146716000D01*
X103215333Y-146749333D01*
X103248667Y-146816000D01*
X103248667Y-146916000D01*
X103215333Y-146982667D01*
X103182000Y-147016000D01*
X103115333Y-147049333D01*
X102848667Y-147049333D01*
X103515333Y-147349333D02*
X103615333Y-147382667D01*
X103782000Y-147382667D01*
X103848667Y-147349333D01*
X103882000Y-147316000D01*
X103915333Y-147249333D01*
X103915333Y-147182667D01*
X103882000Y-147116000D01*
X103848667Y-147082667D01*
X103782000Y-147049333D01*
X103648667Y-147016000D01*
X103582000Y-146982667D01*
X103548667Y-146949333D01*
X103515333Y-146882667D01*
X103515333Y-146816000D01*
X103548667Y-146749333D01*
X103582000Y-146716000D01*
X103648667Y-146682667D01*
X103815333Y-146682667D01*
X103915333Y-146716000D01*
X104115334Y-146682667D02*
X104515334Y-146682667D01*
X104315334Y-147382667D02*
X104315334Y-146682667D01*
X102698667Y-144142667D02*
X102932000Y-144842667D01*
X103165333Y-144142667D01*
X103798667Y-144776000D02*
X103765333Y-144809333D01*
X103665333Y-144842667D01*
X103598667Y-144842667D01*
X103498667Y-144809333D01*
X103432000Y-144742667D01*
X103398667Y-144676000D01*
X103365333Y-144542667D01*
X103365333Y-144442667D01*
X103398667Y-144309333D01*
X103432000Y-144242667D01*
X103498667Y-144176000D01*
X103598667Y-144142667D01*
X103665333Y-144142667D01*
X103765333Y-144176000D01*
X103798667Y-144209333D01*
X104498667Y-144776000D02*
X104465333Y-144809333D01*
X104365333Y-144842667D01*
X104298667Y-144842667D01*
X104198667Y-144809333D01*
X104132000Y-144742667D01*
X104098667Y-144676000D01*
X104065333Y-144542667D01*
X104065333Y-144442667D01*
X104098667Y-144309333D01*
X104132000Y-144242667D01*
X104198667Y-144176000D01*
X104298667Y-144142667D01*
X104365333Y-144142667D01*
X104465333Y-144176000D01*
X104498667Y-144209333D01*
X102890667Y-141936000D02*
X102657334Y-141936000D01*
X102657334Y-142302667D02*
X102657334Y-141602667D01*
X102990667Y-141602667D01*
X103557334Y-141836000D02*
X103557334Y-142302667D01*
X103390667Y-141569333D02*
X103224000Y-142069333D01*
X103657334Y-142069333D01*
X102890667Y-139396000D02*
X102657334Y-139396000D01*
X102657334Y-139762667D02*
X102657334Y-139062667D01*
X102990667Y-139062667D01*
X103590667Y-139062667D02*
X103257334Y-139062667D01*
X103224000Y-139396000D01*
X103257334Y-139362667D01*
X103324000Y-139329333D01*
X103490667Y-139329333D01*
X103557334Y-139362667D01*
X103590667Y-139396000D01*
X103624000Y-139462667D01*
X103624000Y-139629333D01*
X103590667Y-139696000D01*
X103557334Y-139729333D01*
X103490667Y-139762667D01*
X103324000Y-139762667D01*
X103257334Y-139729333D01*
X103224000Y-139696000D01*
X102890667Y-134316000D02*
X102657334Y-134316000D01*
X102657334Y-134682667D02*
X102657334Y-133982667D01*
X102990667Y-133982667D01*
X103190667Y-133982667D02*
X103657334Y-133982667D01*
X103357334Y-134682667D01*
X102890667Y-136856000D02*
X102657334Y-136856000D01*
X102657334Y-137222667D02*
X102657334Y-136522667D01*
X102990667Y-136522667D01*
X103557334Y-136522667D02*
X103424000Y-136522667D01*
X103357334Y-136556000D01*
X103324000Y-136589333D01*
X103257334Y-136689333D01*
X103224000Y-136822667D01*
X103224000Y-137089333D01*
X103257334Y-137156000D01*
X103290667Y-137189333D01*
X103357334Y-137222667D01*
X103490667Y-137222667D01*
X103557334Y-137189333D01*
X103590667Y-137156000D01*
X103624000Y-137089333D01*
X103624000Y-136922667D01*
X103590667Y-136856000D01*
X103557334Y-136822667D01*
X103490667Y-136789333D01*
X103357334Y-136789333D01*
X103290667Y-136822667D01*
X103257334Y-136856000D01*
X103224000Y-136922667D01*
X102840667Y-131776000D02*
X102940667Y-131809333D01*
X102974000Y-131842667D01*
X103007334Y-131909333D01*
X103007334Y-132009333D01*
X102974000Y-132076000D01*
X102940667Y-132109333D01*
X102874000Y-132142667D01*
X102607334Y-132142667D01*
X102607334Y-131442667D01*
X102840667Y-131442667D01*
X102907334Y-131476000D01*
X102940667Y-131509333D01*
X102974000Y-131576000D01*
X102974000Y-131642667D01*
X102940667Y-131709333D01*
X102907334Y-131742667D01*
X102840667Y-131776000D01*
X102607334Y-131776000D01*
X103674000Y-132142667D02*
X103274000Y-132142667D01*
X103474000Y-132142667D02*
X103474000Y-131442667D01*
X103407334Y-131542667D01*
X103340667Y-131609333D01*
X103274000Y-131642667D01*
X102840667Y-129236000D02*
X102940667Y-129269333D01*
X102974000Y-129302667D01*
X103007334Y-129369333D01*
X103007334Y-129469333D01*
X102974000Y-129536000D01*
X102940667Y-129569333D01*
X102874000Y-129602667D01*
X102607334Y-129602667D01*
X102607334Y-128902667D01*
X102840667Y-128902667D01*
X102907334Y-128936000D01*
X102940667Y-128969333D01*
X102974000Y-129036000D01*
X102974000Y-129102667D01*
X102940667Y-129169333D01*
X102907334Y-129202667D01*
X102840667Y-129236000D01*
X102607334Y-129236000D01*
X103240667Y-128902667D02*
X103674000Y-128902667D01*
X103440667Y-129169333D01*
X103540667Y-129169333D01*
X103607334Y-129202667D01*
X103640667Y-129236000D01*
X103674000Y-129302667D01*
X103674000Y-129469333D01*
X103640667Y-129536000D01*
X103607334Y-129569333D01*
X103540667Y-129602667D01*
X103340667Y-129602667D01*
X103274000Y-129569333D01*
X103240667Y-129536000D01*
X102840667Y-126696000D02*
X102940667Y-126729333D01*
X102974000Y-126762667D01*
X103007334Y-126829333D01*
X103007334Y-126929333D01*
X102974000Y-126996000D01*
X102940667Y-127029333D01*
X102874000Y-127062667D01*
X102607334Y-127062667D01*
X102607334Y-126362667D01*
X102840667Y-126362667D01*
X102907334Y-126396000D01*
X102940667Y-126429333D01*
X102974000Y-126496000D01*
X102974000Y-126562667D01*
X102940667Y-126629333D01*
X102907334Y-126662667D01*
X102840667Y-126696000D01*
X102607334Y-126696000D01*
X103274000Y-126429333D02*
X103307334Y-126396000D01*
X103374000Y-126362667D01*
X103540667Y-126362667D01*
X103607334Y-126396000D01*
X103640667Y-126429333D01*
X103674000Y-126496000D01*
X103674000Y-126562667D01*
X103640667Y-126662667D01*
X103240667Y-127062667D01*
X103674000Y-127062667D01*
X102840667Y-124156000D02*
X102940667Y-124189333D01*
X102974000Y-124222667D01*
X103007334Y-124289333D01*
X103007334Y-124389333D01*
X102974000Y-124456000D01*
X102940667Y-124489333D01*
X102874000Y-124522667D01*
X102607334Y-124522667D01*
X102607334Y-123822667D01*
X102840667Y-123822667D01*
X102907334Y-123856000D01*
X102940667Y-123889333D01*
X102974000Y-123956000D01*
X102974000Y-124022667D01*
X102940667Y-124089333D01*
X102907334Y-124122667D01*
X102840667Y-124156000D01*
X102607334Y-124156000D01*
X103607334Y-123822667D02*
X103474000Y-123822667D01*
X103407334Y-123856000D01*
X103374000Y-123889333D01*
X103307334Y-123989333D01*
X103274000Y-124122667D01*
X103274000Y-124389333D01*
X103307334Y-124456000D01*
X103340667Y-124489333D01*
X103407334Y-124522667D01*
X103540667Y-124522667D01*
X103607334Y-124489333D01*
X103640667Y-124456000D01*
X103674000Y-124389333D01*
X103674000Y-124222667D01*
X103640667Y-124156000D01*
X103607334Y-124122667D01*
X103540667Y-124089333D01*
X103407334Y-124089333D01*
X103340667Y-124122667D01*
X103307334Y-124156000D01*
X103274000Y-124222667D01*
X114799334Y-152462667D02*
X114799334Y-151762667D01*
X114966000Y-151762667D01*
X115066000Y-151796000D01*
X115132667Y-151862667D01*
X115166000Y-151929333D01*
X115199334Y-152062667D01*
X115199334Y-152162667D01*
X115166000Y-152296000D01*
X115132667Y-152362667D01*
X115066000Y-152429333D01*
X114966000Y-152462667D01*
X114799334Y-152462667D01*
X115432667Y-151762667D02*
X115866000Y-151762667D01*
X115632667Y-152029333D01*
X115732667Y-152029333D01*
X115799334Y-152062667D01*
X115832667Y-152096000D01*
X115866000Y-152162667D01*
X115866000Y-152329333D01*
X115832667Y-152396000D01*
X115799334Y-152429333D01*
X115732667Y-152462667D01*
X115532667Y-152462667D01*
X115466000Y-152429333D01*
X115432667Y-152396000D01*
X114799334Y-149922667D02*
X114799334Y-149222667D01*
X114966000Y-149222667D01*
X115066000Y-149256000D01*
X115132667Y-149322667D01*
X115166000Y-149389333D01*
X115199334Y-149522667D01*
X115199334Y-149622667D01*
X115166000Y-149756000D01*
X115132667Y-149822667D01*
X115066000Y-149889333D01*
X114966000Y-149922667D01*
X114799334Y-149922667D01*
X115466000Y-149289333D02*
X115499334Y-149256000D01*
X115566000Y-149222667D01*
X115732667Y-149222667D01*
X115799334Y-149256000D01*
X115832667Y-149289333D01*
X115866000Y-149356000D01*
X115866000Y-149422667D01*
X115832667Y-149522667D01*
X115432667Y-149922667D01*
X115866000Y-149922667D01*
X114274667Y-146716000D02*
X114208001Y-146682667D01*
X114108001Y-146682667D01*
X114008001Y-146716000D01*
X113941334Y-146782667D01*
X113908001Y-146849333D01*
X113874667Y-146982667D01*
X113874667Y-147082667D01*
X113908001Y-147216000D01*
X113941334Y-147282667D01*
X114008001Y-147349333D01*
X114108001Y-147382667D01*
X114174667Y-147382667D01*
X114274667Y-147349333D01*
X114308001Y-147316000D01*
X114308001Y-147082667D01*
X114174667Y-147082667D01*
X114608001Y-147382667D02*
X114608001Y-146682667D01*
X115008001Y-147382667D01*
X115008001Y-146682667D01*
X115341334Y-147382667D02*
X115341334Y-146682667D01*
X115508000Y-146682667D01*
X115608000Y-146716000D01*
X115674667Y-146782667D01*
X115708000Y-146849333D01*
X115741334Y-146982667D01*
X115741334Y-147082667D01*
X115708000Y-147216000D01*
X115674667Y-147282667D01*
X115608000Y-147349333D01*
X115508000Y-147382667D01*
X115341334Y-147382667D01*
X114274667Y-144176000D02*
X114208001Y-144142667D01*
X114108001Y-144142667D01*
X114008001Y-144176000D01*
X113941334Y-144242667D01*
X113908001Y-144309333D01*
X113874667Y-144442667D01*
X113874667Y-144542667D01*
X113908001Y-144676000D01*
X113941334Y-144742667D01*
X114008001Y-144809333D01*
X114108001Y-144842667D01*
X114174667Y-144842667D01*
X114274667Y-144809333D01*
X114308001Y-144776000D01*
X114308001Y-144542667D01*
X114174667Y-144542667D01*
X114608001Y-144842667D02*
X114608001Y-144142667D01*
X115008001Y-144842667D01*
X115008001Y-144142667D01*
X115341334Y-144842667D02*
X115341334Y-144142667D01*
X115508000Y-144142667D01*
X115608000Y-144176000D01*
X115674667Y-144242667D01*
X115708000Y-144309333D01*
X115741334Y-144442667D01*
X115741334Y-144542667D01*
X115708000Y-144676000D01*
X115674667Y-144742667D01*
X115608000Y-144809333D01*
X115508000Y-144842667D01*
X115341334Y-144842667D01*
X114799334Y-142302667D02*
X114799334Y-141602667D01*
X114966000Y-141602667D01*
X115066000Y-141636000D01*
X115132667Y-141702667D01*
X115166000Y-141769333D01*
X115199334Y-141902667D01*
X115199334Y-142002667D01*
X115166000Y-142136000D01*
X115132667Y-142202667D01*
X115066000Y-142269333D01*
X114966000Y-142302667D01*
X114799334Y-142302667D01*
X115866000Y-142302667D02*
X115466000Y-142302667D01*
X115666000Y-142302667D02*
X115666000Y-141602667D01*
X115599334Y-141702667D01*
X115532667Y-141769333D01*
X115466000Y-141802667D01*
X114799334Y-139762667D02*
X114799334Y-139062667D01*
X114966000Y-139062667D01*
X115066000Y-139096000D01*
X115132667Y-139162667D01*
X115166000Y-139229333D01*
X115199334Y-139362667D01*
X115199334Y-139462667D01*
X115166000Y-139596000D01*
X115132667Y-139662667D01*
X115066000Y-139729333D01*
X114966000Y-139762667D01*
X114799334Y-139762667D01*
X115632667Y-139062667D02*
X115699334Y-139062667D01*
X115766000Y-139096000D01*
X115799334Y-139129333D01*
X115832667Y-139196000D01*
X115866000Y-139329333D01*
X115866000Y-139496000D01*
X115832667Y-139629333D01*
X115799334Y-139696000D01*
X115766000Y-139729333D01*
X115699334Y-139762667D01*
X115632667Y-139762667D01*
X115566000Y-139729333D01*
X115532667Y-139696000D01*
X115499334Y-139629333D01*
X115466000Y-139496000D01*
X115466000Y-139329333D01*
X115499334Y-139196000D01*
X115532667Y-139129333D01*
X115566000Y-139096000D01*
X115632667Y-139062667D01*
X114799334Y-137222667D02*
X114799334Y-136522667D01*
X114966000Y-136522667D01*
X115066000Y-136556000D01*
X115132667Y-136622667D01*
X115166000Y-136689333D01*
X115199334Y-136822667D01*
X115199334Y-136922667D01*
X115166000Y-137056000D01*
X115132667Y-137122667D01*
X115066000Y-137189333D01*
X114966000Y-137222667D01*
X114799334Y-137222667D01*
X115799334Y-136756000D02*
X115799334Y-137222667D01*
X115632667Y-136489333D02*
X115466000Y-136989333D01*
X115899334Y-136989333D01*
X115199334Y-134616000D02*
X115166000Y-134649333D01*
X115066000Y-134682667D01*
X114999334Y-134682667D01*
X114899334Y-134649333D01*
X114832667Y-134582667D01*
X114799334Y-134516000D01*
X114766000Y-134382667D01*
X114766000Y-134282667D01*
X114799334Y-134149333D01*
X114832667Y-134082667D01*
X114899334Y-134016000D01*
X114999334Y-133982667D01*
X115066000Y-133982667D01*
X115166000Y-134016000D01*
X115199334Y-134049333D01*
X115799334Y-133982667D02*
X115666000Y-133982667D01*
X115599334Y-134016000D01*
X115566000Y-134049333D01*
X115499334Y-134149333D01*
X115466000Y-134282667D01*
X115466000Y-134549333D01*
X115499334Y-134616000D01*
X115532667Y-134649333D01*
X115599334Y-134682667D01*
X115732667Y-134682667D01*
X115799334Y-134649333D01*
X115832667Y-134616000D01*
X115866000Y-134549333D01*
X115866000Y-134382667D01*
X115832667Y-134316000D01*
X115799334Y-134282667D01*
X115732667Y-134249333D01*
X115599334Y-134249333D01*
X115532667Y-134282667D01*
X115499334Y-134316000D01*
X115466000Y-134382667D01*
X114799334Y-132142667D02*
X114799334Y-131442667D01*
X114966000Y-131442667D01*
X115066000Y-131476000D01*
X115132667Y-131542667D01*
X115166000Y-131609333D01*
X115199334Y-131742667D01*
X115199334Y-131842667D01*
X115166000Y-131976000D01*
X115132667Y-132042667D01*
X115066000Y-132109333D01*
X114966000Y-132142667D01*
X114799334Y-132142667D01*
X115432667Y-131442667D02*
X115899334Y-131442667D01*
X115599334Y-132142667D01*
X114832667Y-129236000D02*
X115066000Y-129236000D01*
X115166000Y-129602667D02*
X114832667Y-129602667D01*
X114832667Y-128902667D01*
X115166000Y-128902667D01*
X115766000Y-128902667D02*
X115632666Y-128902667D01*
X115566000Y-128936000D01*
X115532666Y-128969333D01*
X115466000Y-129069333D01*
X115432666Y-129202667D01*
X115432666Y-129469333D01*
X115466000Y-129536000D01*
X115499333Y-129569333D01*
X115566000Y-129602667D01*
X115699333Y-129602667D01*
X115766000Y-129569333D01*
X115799333Y-129536000D01*
X115832666Y-129469333D01*
X115832666Y-129302667D01*
X115799333Y-129236000D01*
X115766000Y-129202667D01*
X115699333Y-129169333D01*
X115566000Y-129169333D01*
X115499333Y-129202667D01*
X115466000Y-129236000D01*
X115432666Y-129302667D01*
X115032667Y-126696000D02*
X115132667Y-126729333D01*
X115166000Y-126762667D01*
X115199334Y-126829333D01*
X115199334Y-126929333D01*
X115166000Y-126996000D01*
X115132667Y-127029333D01*
X115066000Y-127062667D01*
X114799334Y-127062667D01*
X114799334Y-126362667D01*
X115032667Y-126362667D01*
X115099334Y-126396000D01*
X115132667Y-126429333D01*
X115166000Y-126496000D01*
X115166000Y-126562667D01*
X115132667Y-126629333D01*
X115099334Y-126662667D01*
X115032667Y-126696000D01*
X114799334Y-126696000D01*
X115799334Y-126596000D02*
X115799334Y-127062667D01*
X115632667Y-126329333D02*
X115466000Y-126829333D01*
X115899334Y-126829333D01*
X115032667Y-124156000D02*
X115132667Y-124189333D01*
X115166000Y-124222667D01*
X115199334Y-124289333D01*
X115199334Y-124389333D01*
X115166000Y-124456000D01*
X115132667Y-124489333D01*
X115066000Y-124522667D01*
X114799334Y-124522667D01*
X114799334Y-123822667D01*
X115032667Y-123822667D01*
X115099334Y-123856000D01*
X115132667Y-123889333D01*
X115166000Y-123956000D01*
X115166000Y-124022667D01*
X115132667Y-124089333D01*
X115099334Y-124122667D01*
X115032667Y-124156000D01*
X114799334Y-124156000D01*
X115832667Y-123822667D02*
X115499334Y-123822667D01*
X115466000Y-124156000D01*
X115499334Y-124122667D01*
X115566000Y-124089333D01*
X115732667Y-124089333D01*
X115799334Y-124122667D01*
X115832667Y-124156000D01*
X115866000Y-124222667D01*
X115866000Y-124389333D01*
X115832667Y-124456000D01*
X115799334Y-124489333D01*
X115732667Y-124522667D01*
X115566000Y-124522667D01*
X115499334Y-124489333D01*
X115466000Y-124456000D01*
D14*
X108458095Y-101306381D02*
X108458095Y-102115905D01*
X108505714Y-102211143D01*
X108553333Y-102258762D01*
X108648571Y-102306381D01*
X108839048Y-102306381D01*
X108934286Y-102258762D01*
X108981905Y-102211143D01*
X109029524Y-102115905D01*
X109029524Y-101306381D01*
X110029524Y-102306381D02*
X109458095Y-102306381D01*
X109743809Y-102306381D02*
X109743809Y-101306381D01*
X109648571Y-101449238D01*
X109553333Y-101544476D01*
X109458095Y-101592095D01*
X103981905Y-107108571D02*
X104315239Y-107108571D01*
X104458096Y-107632381D02*
X103981905Y-107632381D01*
X103981905Y-106632381D01*
X104458096Y-106632381D01*
X104791429Y-106632381D02*
X105458096Y-106632381D01*
X105029524Y-107632381D01*
X105743810Y-106632381D02*
X106362858Y-106632381D01*
X106029524Y-107013333D01*
X106172382Y-107013333D01*
X106267620Y-107060952D01*
X106315239Y-107108571D01*
X106362858Y-107203810D01*
X106362858Y-107441905D01*
X106315239Y-107537143D01*
X106267620Y-107584762D01*
X106172382Y-107632381D01*
X105886667Y-107632381D01*
X105791429Y-107584762D01*
X105743810Y-107537143D01*
X106791429Y-107251429D02*
X107553334Y-107251429D01*
X107981905Y-106727619D02*
X108029524Y-106680000D01*
X108124762Y-106632381D01*
X108362858Y-106632381D01*
X108458096Y-106680000D01*
X108505715Y-106727619D01*
X108553334Y-106822857D01*
X108553334Y-106918095D01*
X108505715Y-107060952D01*
X107934286Y-107632381D01*
X108553334Y-107632381D01*
X109505715Y-106680000D02*
X109410477Y-106632381D01*
X109267620Y-106632381D01*
X109124762Y-106680000D01*
X109029524Y-106775238D01*
X108981905Y-106870476D01*
X108934286Y-107060952D01*
X108934286Y-107203810D01*
X108981905Y-107394286D01*
X109029524Y-107489524D01*
X109124762Y-107584762D01*
X109267620Y-107632381D01*
X109362858Y-107632381D01*
X109505715Y-107584762D01*
X109553334Y-107537143D01*
X109553334Y-107203810D01*
X109362858Y-107203810D01*
X110410477Y-106965714D02*
X110410477Y-107632381D01*
X110172381Y-106584762D02*
X109934286Y-107299048D01*
X110553334Y-107299048D01*
X110934286Y-107632381D02*
X110934286Y-106632381D01*
X111267620Y-107346667D01*
X111600953Y-106632381D01*
X111600953Y-107632381D01*
X112267619Y-106632381D02*
X112362858Y-106632381D01*
X112458096Y-106680000D01*
X112505715Y-106727619D01*
X112553334Y-106822857D01*
X112600953Y-107013333D01*
X112600953Y-107251429D01*
X112553334Y-107441905D01*
X112505715Y-107537143D01*
X112458096Y-107584762D01*
X112362858Y-107632381D01*
X112267619Y-107632381D01*
X112172381Y-107584762D01*
X112124762Y-107537143D01*
X112077143Y-107441905D01*
X112029524Y-107251429D01*
X112029524Y-107013333D01*
X112077143Y-106822857D01*
X112124762Y-106727619D01*
X112172381Y-106680000D01*
X112267619Y-106632381D01*
X113458096Y-106965714D02*
X113458096Y-107632381D01*
X113220000Y-106584762D02*
X112981905Y-107299048D01*
X113600953Y-107299048D01*
X113934286Y-107584762D02*
X114077143Y-107632381D01*
X114315239Y-107632381D01*
X114410477Y-107584762D01*
X114458096Y-107537143D01*
X114505715Y-107441905D01*
X114505715Y-107346667D01*
X114458096Y-107251429D01*
X114410477Y-107203810D01*
X114315239Y-107156190D01*
X114124762Y-107108571D01*
X114029524Y-107060952D01*
X113981905Y-107013333D01*
X113934286Y-106918095D01*
X113934286Y-106822857D01*
X113981905Y-106727619D01*
X114029524Y-106680000D01*
X114124762Y-106632381D01*
X114362858Y-106632381D01*
X114505715Y-106680000D01*
D10*
X108168571Y-139399286D02*
X108168571Y-138649286D01*
X108347143Y-138649286D01*
X108454286Y-138685000D01*
X108525714Y-138756429D01*
X108561429Y-138827857D01*
X108597143Y-138970714D01*
X108597143Y-139077857D01*
X108561429Y-139220714D01*
X108525714Y-139292143D01*
X108454286Y-139363571D01*
X108347143Y-139399286D01*
X108168571Y-139399286D01*
X108918571Y-139399286D02*
X108918571Y-138649286D01*
X109168571Y-139185000D01*
X109418571Y-138649286D01*
X109418571Y-139399286D01*
X110168572Y-138685000D02*
X110097143Y-138649286D01*
X109990000Y-138649286D01*
X109882857Y-138685000D01*
X109811429Y-138756429D01*
X109775714Y-138827857D01*
X109740000Y-138970714D01*
X109740000Y-139077857D01*
X109775714Y-139220714D01*
X109811429Y-139292143D01*
X109882857Y-139363571D01*
X109990000Y-139399286D01*
X110061429Y-139399286D01*
X110168572Y-139363571D01*
X110204286Y-139327857D01*
X110204286Y-139077857D01*
X110061429Y-139077857D01*
X110454286Y-138649286D02*
X110918572Y-138649286D01*
X110668572Y-138935000D01*
X110775714Y-138935000D01*
X110847143Y-138970714D01*
X110882857Y-139006429D01*
X110918572Y-139077857D01*
X110918572Y-139256429D01*
X110882857Y-139327857D01*
X110847143Y-139363571D01*
X110775714Y-139399286D01*
X110561429Y-139399286D01*
X110490000Y-139363571D01*
X110454286Y-139327857D01*
X111561429Y-138899286D02*
X111561429Y-139399286D01*
X111382858Y-138613571D02*
X111204286Y-139149286D01*
X111668572Y-139149286D01*
X112347144Y-139399286D02*
X111918572Y-139399286D01*
X112132858Y-139399286D02*
X112132858Y-138649286D01*
X112061429Y-138756429D01*
X111990001Y-138827857D01*
X111918572Y-138863571D01*
X113025715Y-138649286D02*
X112668572Y-138649286D01*
X112632858Y-139006429D01*
X112668572Y-138970714D01*
X112740001Y-138935000D01*
X112918572Y-138935000D01*
X112990001Y-138970714D01*
X113025715Y-139006429D01*
X113061430Y-139077857D01*
X113061430Y-139256429D01*
X113025715Y-139327857D01*
X112990001Y-139363571D01*
X112918572Y-139399286D01*
X112740001Y-139399286D01*
X112668572Y-139363571D01*
X112632858Y-139327857D01*
X113382858Y-138649286D02*
X113382858Y-139256429D01*
X113418573Y-139327857D01*
X113454287Y-139363571D01*
X113525716Y-139399286D01*
X113668573Y-139399286D01*
X113740001Y-139363571D01*
X113775716Y-139327857D01*
X113811430Y-139256429D01*
X113811430Y-138649286D01*
X113638526Y-137920391D02*
X113638526Y-138348963D01*
X113638526Y-138134677D02*
X112888526Y-138134677D01*
X112995669Y-138206106D01*
X113067097Y-138277534D01*
X113102811Y-138348963D01*
X112888526Y-137456105D02*
X112888526Y-137384677D01*
X112924240Y-137313248D01*
X112959954Y-137277534D01*
X113031383Y-137241820D01*
X113174240Y-137206105D01*
X113352811Y-137206105D01*
X113495669Y-137241820D01*
X113567097Y-137277534D01*
X113602811Y-137313248D01*
X113638526Y-137384677D01*
X113638526Y-137456105D01*
X113602811Y-137527534D01*
X113567097Y-137563248D01*
X113495669Y-137598963D01*
X113352811Y-137634677D01*
X113174240Y-137634677D01*
X113031383Y-137598963D01*
X112959954Y-137563248D01*
X112924240Y-137527534D01*
X112888526Y-137456105D01*
X113138526Y-136563248D02*
X113638526Y-136563248D01*
X113138526Y-136884677D02*
X113531383Y-136884677D01*
X113602811Y-136848962D01*
X113638526Y-136777534D01*
X113638526Y-136670391D01*
X113602811Y-136598962D01*
X113567097Y-136563248D01*
X113245669Y-135956106D02*
X113245669Y-136206106D01*
X113638526Y-136206106D02*
X112888526Y-136206106D01*
X112888526Y-135848963D01*
X113546429Y-134069286D02*
X113117857Y-134069286D01*
X113332143Y-134069286D02*
X113332143Y-133319286D01*
X113260714Y-133426429D01*
X113189286Y-133497857D01*
X113117857Y-133533571D01*
X114010715Y-133319286D02*
X114082143Y-133319286D01*
X114153572Y-133355000D01*
X114189286Y-133390714D01*
X114225000Y-133462143D01*
X114260715Y-133605000D01*
X114260715Y-133783571D01*
X114225000Y-133926429D01*
X114189286Y-133997857D01*
X114153572Y-134033571D01*
X114082143Y-134069286D01*
X114010715Y-134069286D01*
X113939286Y-134033571D01*
X113903572Y-133997857D01*
X113867857Y-133926429D01*
X113832143Y-133783571D01*
X113832143Y-133605000D01*
X113867857Y-133462143D01*
X113903572Y-133390714D01*
X113939286Y-133355000D01*
X114010715Y-133319286D01*
X114903572Y-133569286D02*
X114903572Y-134069286D01*
X114582143Y-133569286D02*
X114582143Y-133962143D01*
X114617858Y-134033571D01*
X114689286Y-134069286D01*
X114796429Y-134069286D01*
X114867858Y-134033571D01*
X114903572Y-133997857D01*
X115510714Y-133676429D02*
X115260714Y-133676429D01*
X115260714Y-134069286D02*
X115260714Y-133319286D01*
X115617857Y-133319286D01*
X111400620Y-141266106D02*
X110972048Y-141266106D01*
X111186334Y-141266106D02*
X111186334Y-140516106D01*
X111114905Y-140623249D01*
X111043477Y-140694677D01*
X110972048Y-140730391D01*
X111864906Y-140516106D02*
X111936334Y-140516106D01*
X112007763Y-140551820D01*
X112043477Y-140587534D01*
X112079191Y-140658963D01*
X112114906Y-140801820D01*
X112114906Y-140980391D01*
X112079191Y-141123249D01*
X112043477Y-141194677D01*
X112007763Y-141230391D01*
X111936334Y-141266106D01*
X111864906Y-141266106D01*
X111793477Y-141230391D01*
X111757763Y-141194677D01*
X111722048Y-141123249D01*
X111686334Y-140980391D01*
X111686334Y-140801820D01*
X111722048Y-140658963D01*
X111757763Y-140587534D01*
X111793477Y-140551820D01*
X111864906Y-140516106D01*
X112579192Y-140516106D02*
X112650620Y-140516106D01*
X112722049Y-140551820D01*
X112757763Y-140587534D01*
X112793477Y-140658963D01*
X112829192Y-140801820D01*
X112829192Y-140980391D01*
X112793477Y-141123249D01*
X112757763Y-141194677D01*
X112722049Y-141230391D01*
X112650620Y-141266106D01*
X112579192Y-141266106D01*
X112507763Y-141230391D01*
X112472049Y-141194677D01*
X112436334Y-141123249D01*
X112400620Y-140980391D01*
X112400620Y-140801820D01*
X112436334Y-140658963D01*
X112472049Y-140587534D01*
X112507763Y-140551820D01*
X112579192Y-140516106D01*
X113150620Y-141266106D02*
X113150620Y-140516106D01*
X113579192Y-141266106D02*
X113257763Y-140837534D01*
X113579192Y-140516106D02*
X113150620Y-140944677D01*
X113722143Y-133099286D02*
X113293571Y-133099286D01*
X113507857Y-133099286D02*
X113507857Y-132349286D01*
X113436428Y-132456429D01*
X113365000Y-132527857D01*
X113293571Y-132563571D01*
X114186429Y-132349286D02*
X114257857Y-132349286D01*
X114329286Y-132385000D01*
X114365000Y-132420714D01*
X114400714Y-132492143D01*
X114436429Y-132635000D01*
X114436429Y-132813571D01*
X114400714Y-132956429D01*
X114365000Y-133027857D01*
X114329286Y-133063571D01*
X114257857Y-133099286D01*
X114186429Y-133099286D01*
X114115000Y-133063571D01*
X114079286Y-133027857D01*
X114043571Y-132956429D01*
X114007857Y-132813571D01*
X114007857Y-132635000D01*
X114043571Y-132492143D01*
X114079286Y-132420714D01*
X114115000Y-132385000D01*
X114186429Y-132349286D01*
X114757857Y-133099286D02*
X114757857Y-132349286D01*
X115186429Y-133099286D02*
X114865000Y-132670714D01*
X115186429Y-132349286D02*
X114757857Y-132777857D01*
X111632069Y-146092106D02*
X111203497Y-146092106D01*
X111417783Y-146092106D02*
X111417783Y-145342106D01*
X111346354Y-145449249D01*
X111274926Y-145520677D01*
X111203497Y-145556391D01*
X112096355Y-145342106D02*
X112167783Y-145342106D01*
X112239212Y-145377820D01*
X112274926Y-145413534D01*
X112310640Y-145484963D01*
X112346355Y-145627820D01*
X112346355Y-145806391D01*
X112310640Y-145949249D01*
X112274926Y-146020677D01*
X112239212Y-146056391D01*
X112167783Y-146092106D01*
X112096355Y-146092106D01*
X112024926Y-146056391D01*
X111989212Y-146020677D01*
X111953497Y-145949249D01*
X111917783Y-145806391D01*
X111917783Y-145627820D01*
X111953497Y-145484963D01*
X111989212Y-145413534D01*
X112024926Y-145377820D01*
X112096355Y-145342106D01*
X112989212Y-145592106D02*
X112989212Y-146092106D01*
X112667783Y-145592106D02*
X112667783Y-145984963D01*
X112703498Y-146056391D01*
X112774926Y-146092106D01*
X112882069Y-146092106D01*
X112953498Y-146056391D01*
X112989212Y-146020677D01*
X113596354Y-145699249D02*
X113346354Y-145699249D01*
X113346354Y-146092106D02*
X113346354Y-145342106D01*
X113703497Y-145342106D01*
X106204326Y-146186086D02*
X105775754Y-146186086D01*
X105990040Y-146186086D02*
X105990040Y-145436086D01*
X105918611Y-145543229D01*
X105847183Y-145614657D01*
X105775754Y-145650371D01*
X106525754Y-146186086D02*
X106525754Y-145436086D01*
X106954326Y-146186086D02*
X106632897Y-145757514D01*
X106954326Y-145436086D02*
X106525754Y-145864657D01*
X105414838Y-140587226D02*
X105486266Y-140587226D01*
X105557695Y-140622940D01*
X105593409Y-140658654D01*
X105629123Y-140730083D01*
X105664838Y-140872940D01*
X105664838Y-141051511D01*
X105629123Y-141194369D01*
X105593409Y-141265797D01*
X105557695Y-141301511D01*
X105486266Y-141337226D01*
X105414838Y-141337226D01*
X105343409Y-141301511D01*
X105307695Y-141265797D01*
X105271980Y-141194369D01*
X105236266Y-141051511D01*
X105236266Y-140872940D01*
X105271980Y-140730083D01*
X105307695Y-140658654D01*
X105343409Y-140622940D01*
X105414838Y-140587226D01*
X105986266Y-141265797D02*
X106021981Y-141301511D01*
X105986266Y-141337226D01*
X105950552Y-141301511D01*
X105986266Y-141265797D01*
X105986266Y-141337226D01*
X106736267Y-141337226D02*
X106307695Y-141337226D01*
X106521981Y-141337226D02*
X106521981Y-140587226D01*
X106450552Y-140694369D01*
X106379124Y-140765797D01*
X106307695Y-140801511D01*
X107379124Y-140837226D02*
X107379124Y-141337226D01*
X107057695Y-140837226D02*
X107057695Y-141230083D01*
X107093410Y-141301511D01*
X107164838Y-141337226D01*
X107271981Y-141337226D01*
X107343410Y-141301511D01*
X107379124Y-141265797D01*
X107986266Y-140944369D02*
X107736266Y-140944369D01*
X107736266Y-141337226D02*
X107736266Y-140587226D01*
X108093409Y-140587226D01*
X105876428Y-139789286D02*
X105876428Y-139039286D01*
X106055000Y-139039286D01*
X106162143Y-139075000D01*
X106233571Y-139146429D01*
X106269286Y-139217857D01*
X106305000Y-139360714D01*
X106305000Y-139467857D01*
X106269286Y-139610714D01*
X106233571Y-139682143D01*
X106162143Y-139753571D01*
X106055000Y-139789286D01*
X105876428Y-139789286D01*
X107019286Y-139789286D02*
X106590714Y-139789286D01*
X106805000Y-139789286D02*
X106805000Y-139039286D01*
X106733571Y-139146429D01*
X106662143Y-139217857D01*
X106590714Y-139253571D01*
M02*
