G04 #@! TF.GenerationSoftware,KiCad,Pcbnew,(5.0.0)*
G04 #@! TF.CreationDate,2020-04-28T11:04:28-06:00*
G04 #@! TF.ProjectId,panel,70616E656C2E6B696361645F70636200,rev?*
G04 #@! TF.SameCoordinates,Original*
G04 #@! TF.FileFunction,Soldermask,Top*
G04 #@! TF.FilePolarity,Negative*
%FSLAX46Y46*%
G04 Gerber Fmt 4.6, Leading zero omitted, Abs format (unit mm)*
G04 Created by KiCad (PCBNEW (5.0.0)) date 04/28/20 11:04:28*
%MOMM*%
%LPD*%
G01*
G04 APERTURE LIST*
%ADD10C,0.908000*%
%ADD11C,0.100000*%
%ADD12C,0.990000*%
%ADD13C,0.402000*%
%ADD14O,2.100000X2.100000*%
%ADD15R,2.100000X2.100000*%
%ADD16R,2.600000X1.120000*%
%ADD17R,1.120000X2.600000*%
%ADD18R,0.908000X1.543000*%
%ADD19O,1.873200X1.009600*%
%ADD20C,2.152600*%
%ADD21R,2.152600X2.152600*%
%ADD22R,1.600000X2.300000*%
%ADD23O,1.600000X2.300000*%
%ADD24R,1.900000X2.300000*%
%ADD25C,1.850000*%
%ADD26R,0.800000X1.750000*%
%ADD27C,1.552000*%
%ADD28C,1.500000*%
G04 APERTURE END LIST*
D10*
G04 #@! TO.C,REF\002A\002A*
X114294340Y-86484000D03*
X114294340Y-88516000D03*
X114294340Y-87500000D03*
G04 #@! TD*
G04 #@! TO.C,REF\002A\002A*
X89294340Y-86484000D03*
X89294340Y-88516000D03*
X89294340Y-87500000D03*
G04 #@! TD*
G04 #@! TO.C,REF\002A\002A*
X92300000Y-87500000D03*
X92300000Y-86484000D03*
X92300000Y-88516000D03*
G04 #@! TD*
G04 #@! TO.C,REF\002A\002A*
X67300000Y-87500000D03*
X67300000Y-86484000D03*
X67300000Y-88516000D03*
G04 #@! TD*
G04 #@! TO.C,REF\002A\002A*
X114294340Y-47499999D03*
X114294340Y-48515999D03*
X114294340Y-46483999D03*
G04 #@! TD*
G04 #@! TO.C,REF\002A\002A*
X89294340Y-47499999D03*
X89294340Y-48515999D03*
X89294340Y-46483999D03*
G04 #@! TD*
G04 #@! TO.C,REF\002A\002A*
X92300000Y-48516000D03*
X92300000Y-46484000D03*
X92300000Y-47500000D03*
G04 #@! TD*
G04 #@! TO.C,REF\002A\002A*
X67300000Y-48516000D03*
X67300000Y-46484000D03*
X67300000Y-47500000D03*
G04 #@! TD*
D11*
G04 #@! TO.C,R7*
G36*
X98135099Y-97909932D02*
X98159125Y-97913496D01*
X98182685Y-97919397D01*
X98205554Y-97927580D01*
X98227511Y-97937964D01*
X98248344Y-97950451D01*
X98267852Y-97964920D01*
X98285849Y-97981231D01*
X98302160Y-97999228D01*
X98316629Y-98018736D01*
X98329116Y-98039569D01*
X98339500Y-98061526D01*
X98347683Y-98084395D01*
X98353584Y-98107955D01*
X98357148Y-98131981D01*
X98358340Y-98156240D01*
X98358340Y-98651240D01*
X98357148Y-98675499D01*
X98353584Y-98699525D01*
X98347683Y-98723085D01*
X98339500Y-98745954D01*
X98329116Y-98767911D01*
X98316629Y-98788744D01*
X98302160Y-98808252D01*
X98285849Y-98826249D01*
X98267852Y-98842560D01*
X98248344Y-98857029D01*
X98227511Y-98869516D01*
X98205554Y-98879900D01*
X98182685Y-98888083D01*
X98159125Y-98893984D01*
X98135099Y-98897548D01*
X98110840Y-98898740D01*
X97565840Y-98898740D01*
X97541581Y-98897548D01*
X97517555Y-98893984D01*
X97493995Y-98888083D01*
X97471126Y-98879900D01*
X97449169Y-98869516D01*
X97428336Y-98857029D01*
X97408828Y-98842560D01*
X97390831Y-98826249D01*
X97374520Y-98808252D01*
X97360051Y-98788744D01*
X97347564Y-98767911D01*
X97337180Y-98745954D01*
X97328997Y-98723085D01*
X97323096Y-98699525D01*
X97319532Y-98675499D01*
X97318340Y-98651240D01*
X97318340Y-98156240D01*
X97319532Y-98131981D01*
X97323096Y-98107955D01*
X97328997Y-98084395D01*
X97337180Y-98061526D01*
X97347564Y-98039569D01*
X97360051Y-98018736D01*
X97374520Y-97999228D01*
X97390831Y-97981231D01*
X97408828Y-97964920D01*
X97428336Y-97950451D01*
X97449169Y-97937964D01*
X97471126Y-97927580D01*
X97493995Y-97919397D01*
X97517555Y-97913496D01*
X97541581Y-97909932D01*
X97565840Y-97908740D01*
X98110840Y-97908740D01*
X98135099Y-97909932D01*
X98135099Y-97909932D01*
G37*
D12*
X97838340Y-98403740D03*
D11*
G36*
X98135099Y-96939932D02*
X98159125Y-96943496D01*
X98182685Y-96949397D01*
X98205554Y-96957580D01*
X98227511Y-96967964D01*
X98248344Y-96980451D01*
X98267852Y-96994920D01*
X98285849Y-97011231D01*
X98302160Y-97029228D01*
X98316629Y-97048736D01*
X98329116Y-97069569D01*
X98339500Y-97091526D01*
X98347683Y-97114395D01*
X98353584Y-97137955D01*
X98357148Y-97161981D01*
X98358340Y-97186240D01*
X98358340Y-97681240D01*
X98357148Y-97705499D01*
X98353584Y-97729525D01*
X98347683Y-97753085D01*
X98339500Y-97775954D01*
X98329116Y-97797911D01*
X98316629Y-97818744D01*
X98302160Y-97838252D01*
X98285849Y-97856249D01*
X98267852Y-97872560D01*
X98248344Y-97887029D01*
X98227511Y-97899516D01*
X98205554Y-97909900D01*
X98182685Y-97918083D01*
X98159125Y-97923984D01*
X98135099Y-97927548D01*
X98110840Y-97928740D01*
X97565840Y-97928740D01*
X97541581Y-97927548D01*
X97517555Y-97923984D01*
X97493995Y-97918083D01*
X97471126Y-97909900D01*
X97449169Y-97899516D01*
X97428336Y-97887029D01*
X97408828Y-97872560D01*
X97390831Y-97856249D01*
X97374520Y-97838252D01*
X97360051Y-97818744D01*
X97347564Y-97797911D01*
X97337180Y-97775954D01*
X97328997Y-97753085D01*
X97323096Y-97729525D01*
X97319532Y-97705499D01*
X97318340Y-97681240D01*
X97318340Y-97186240D01*
X97319532Y-97161981D01*
X97323096Y-97137955D01*
X97328997Y-97114395D01*
X97337180Y-97091526D01*
X97347564Y-97069569D01*
X97360051Y-97048736D01*
X97374520Y-97029228D01*
X97390831Y-97011231D01*
X97408828Y-96994920D01*
X97428336Y-96980451D01*
X97449169Y-96967964D01*
X97471126Y-96957580D01*
X97493995Y-96949397D01*
X97517555Y-96943496D01*
X97541581Y-96939932D01*
X97565840Y-96938740D01*
X98110840Y-96938740D01*
X98135099Y-96939932D01*
X98135099Y-96939932D01*
G37*
D12*
X97838340Y-97433740D03*
G04 #@! TD*
D11*
G04 #@! TO.C,R7*
G36*
X73135099Y-97909932D02*
X73159125Y-97913496D01*
X73182685Y-97919397D01*
X73205554Y-97927580D01*
X73227511Y-97937964D01*
X73248344Y-97950451D01*
X73267852Y-97964920D01*
X73285849Y-97981231D01*
X73302160Y-97999228D01*
X73316629Y-98018736D01*
X73329116Y-98039569D01*
X73339500Y-98061526D01*
X73347683Y-98084395D01*
X73353584Y-98107955D01*
X73357148Y-98131981D01*
X73358340Y-98156240D01*
X73358340Y-98651240D01*
X73357148Y-98675499D01*
X73353584Y-98699525D01*
X73347683Y-98723085D01*
X73339500Y-98745954D01*
X73329116Y-98767911D01*
X73316629Y-98788744D01*
X73302160Y-98808252D01*
X73285849Y-98826249D01*
X73267852Y-98842560D01*
X73248344Y-98857029D01*
X73227511Y-98869516D01*
X73205554Y-98879900D01*
X73182685Y-98888083D01*
X73159125Y-98893984D01*
X73135099Y-98897548D01*
X73110840Y-98898740D01*
X72565840Y-98898740D01*
X72541581Y-98897548D01*
X72517555Y-98893984D01*
X72493995Y-98888083D01*
X72471126Y-98879900D01*
X72449169Y-98869516D01*
X72428336Y-98857029D01*
X72408828Y-98842560D01*
X72390831Y-98826249D01*
X72374520Y-98808252D01*
X72360051Y-98788744D01*
X72347564Y-98767911D01*
X72337180Y-98745954D01*
X72328997Y-98723085D01*
X72323096Y-98699525D01*
X72319532Y-98675499D01*
X72318340Y-98651240D01*
X72318340Y-98156240D01*
X72319532Y-98131981D01*
X72323096Y-98107955D01*
X72328997Y-98084395D01*
X72337180Y-98061526D01*
X72347564Y-98039569D01*
X72360051Y-98018736D01*
X72374520Y-97999228D01*
X72390831Y-97981231D01*
X72408828Y-97964920D01*
X72428336Y-97950451D01*
X72449169Y-97937964D01*
X72471126Y-97927580D01*
X72493995Y-97919397D01*
X72517555Y-97913496D01*
X72541581Y-97909932D01*
X72565840Y-97908740D01*
X73110840Y-97908740D01*
X73135099Y-97909932D01*
X73135099Y-97909932D01*
G37*
D12*
X72838340Y-98403740D03*
D11*
G36*
X73135099Y-96939932D02*
X73159125Y-96943496D01*
X73182685Y-96949397D01*
X73205554Y-96957580D01*
X73227511Y-96967964D01*
X73248344Y-96980451D01*
X73267852Y-96994920D01*
X73285849Y-97011231D01*
X73302160Y-97029228D01*
X73316629Y-97048736D01*
X73329116Y-97069569D01*
X73339500Y-97091526D01*
X73347683Y-97114395D01*
X73353584Y-97137955D01*
X73357148Y-97161981D01*
X73358340Y-97186240D01*
X73358340Y-97681240D01*
X73357148Y-97705499D01*
X73353584Y-97729525D01*
X73347683Y-97753085D01*
X73339500Y-97775954D01*
X73329116Y-97797911D01*
X73316629Y-97818744D01*
X73302160Y-97838252D01*
X73285849Y-97856249D01*
X73267852Y-97872560D01*
X73248344Y-97887029D01*
X73227511Y-97899516D01*
X73205554Y-97909900D01*
X73182685Y-97918083D01*
X73159125Y-97923984D01*
X73135099Y-97927548D01*
X73110840Y-97928740D01*
X72565840Y-97928740D01*
X72541581Y-97927548D01*
X72517555Y-97923984D01*
X72493995Y-97918083D01*
X72471126Y-97909900D01*
X72449169Y-97899516D01*
X72428336Y-97887029D01*
X72408828Y-97872560D01*
X72390831Y-97856249D01*
X72374520Y-97838252D01*
X72360051Y-97818744D01*
X72347564Y-97797911D01*
X72337180Y-97775954D01*
X72328997Y-97753085D01*
X72323096Y-97729525D01*
X72319532Y-97705499D01*
X72318340Y-97681240D01*
X72318340Y-97186240D01*
X72319532Y-97161981D01*
X72323096Y-97137955D01*
X72328997Y-97114395D01*
X72337180Y-97091526D01*
X72347564Y-97069569D01*
X72360051Y-97048736D01*
X72374520Y-97029228D01*
X72390831Y-97011231D01*
X72408828Y-96994920D01*
X72428336Y-96980451D01*
X72449169Y-96967964D01*
X72471126Y-96957580D01*
X72493995Y-96949397D01*
X72517555Y-96943496D01*
X72541581Y-96939932D01*
X72565840Y-96938740D01*
X73110840Y-96938740D01*
X73135099Y-96939932D01*
X73135099Y-96939932D01*
G37*
D12*
X72838340Y-97433740D03*
G04 #@! TD*
D13*
G04 #@! TO.C,JP2*
X109080380Y-49788000D03*
X109080380Y-50688000D03*
X109080380Y-50688000D03*
X109080380Y-49788000D03*
G04 #@! TD*
G04 #@! TO.C,JP2*
X84080380Y-49788000D03*
X84080380Y-50688000D03*
X84080380Y-50688000D03*
X84080380Y-49788000D03*
G04 #@! TD*
D14*
G04 #@! TO.C,J2*
X103769240Y-70685000D03*
X106309240Y-70685000D03*
X103769240Y-73225000D03*
X106309240Y-73225000D03*
X103769240Y-75765000D03*
D15*
X106309240Y-75765000D03*
G04 #@! TD*
D14*
G04 #@! TO.C,J2*
X78769240Y-70685000D03*
X81309240Y-70685000D03*
X78769240Y-73225000D03*
X81309240Y-73225000D03*
X78769240Y-75765000D03*
D15*
X81309240Y-75765000D03*
G04 #@! TD*
D16*
G04 #@! TO.C,U1*
X94663340Y-65175740D03*
X94663340Y-63905740D03*
X94663340Y-62635740D03*
X94663340Y-61365740D03*
X94663340Y-60095740D03*
X94663340Y-58825740D03*
X94663340Y-57555740D03*
X94663340Y-56285740D03*
X94663340Y-55015740D03*
X94663340Y-53745740D03*
X94663340Y-52475740D03*
X94663340Y-51205740D03*
X94663340Y-49935740D03*
X94663340Y-48665740D03*
X94663340Y-46125740D03*
X94663340Y-44855740D03*
X112189340Y-44855740D03*
X112189340Y-46125740D03*
X112189340Y-48665740D03*
X112189340Y-49935740D03*
X112189340Y-51205740D03*
X112189340Y-52475740D03*
X112189340Y-53745740D03*
X112189340Y-55015740D03*
X112189340Y-56285740D03*
X112189340Y-57555740D03*
X112189340Y-58825740D03*
X112189340Y-60095740D03*
X112189340Y-61365740D03*
X112189340Y-62635740D03*
X112189340Y-63905740D03*
X112189340Y-65175740D03*
D17*
X96441340Y-66953740D03*
X97711340Y-66953740D03*
X98981340Y-66953740D03*
X100251340Y-66953740D03*
X101521340Y-66953740D03*
X102791340Y-66953740D03*
X104061340Y-66953740D03*
X105331340Y-66953740D03*
X106601340Y-66953740D03*
X107871340Y-66953740D03*
X109141340Y-66953740D03*
X110411340Y-66953740D03*
G04 #@! TD*
D16*
G04 #@! TO.C,U1*
X69663340Y-65175740D03*
X69663340Y-63905740D03*
X69663340Y-62635740D03*
X69663340Y-61365740D03*
X69663340Y-60095740D03*
X69663340Y-58825740D03*
X69663340Y-57555740D03*
X69663340Y-56285740D03*
X69663340Y-55015740D03*
X69663340Y-53745740D03*
X69663340Y-52475740D03*
X69663340Y-51205740D03*
X69663340Y-49935740D03*
X69663340Y-48665740D03*
X69663340Y-46125740D03*
X69663340Y-44855740D03*
X87189340Y-44855740D03*
X87189340Y-46125740D03*
X87189340Y-48665740D03*
X87189340Y-49935740D03*
X87189340Y-51205740D03*
X87189340Y-52475740D03*
X87189340Y-53745740D03*
X87189340Y-55015740D03*
X87189340Y-56285740D03*
X87189340Y-57555740D03*
X87189340Y-58825740D03*
X87189340Y-60095740D03*
X87189340Y-61365740D03*
X87189340Y-62635740D03*
X87189340Y-63905740D03*
X87189340Y-65175740D03*
D17*
X71441340Y-66953740D03*
X72711340Y-66953740D03*
X73981340Y-66953740D03*
X75251340Y-66953740D03*
X76521340Y-66953740D03*
X77791340Y-66953740D03*
X79061340Y-66953740D03*
X80331340Y-66953740D03*
X81601340Y-66953740D03*
X82871340Y-66953740D03*
X84141340Y-66953740D03*
X85411340Y-66953740D03*
G04 #@! TD*
D18*
G04 #@! TO.C,U4*
X100632340Y-86638740D03*
X99362340Y-92988740D03*
X100632340Y-92988740D03*
X101902340Y-92988740D03*
X103172340Y-92988740D03*
X104442340Y-92988740D03*
X105712340Y-92988740D03*
X106982340Y-92988740D03*
X108252340Y-92988740D03*
X108252340Y-86638740D03*
X106982340Y-86638740D03*
X105712340Y-86638740D03*
X104442340Y-86638740D03*
X103172340Y-86638740D03*
X101902340Y-86638740D03*
X99362340Y-86638740D03*
G04 #@! TD*
G04 #@! TO.C,U4*
X75632340Y-86638740D03*
X74362340Y-92988740D03*
X75632340Y-92988740D03*
X76902340Y-92988740D03*
X78172340Y-92988740D03*
X79442340Y-92988740D03*
X80712340Y-92988740D03*
X81982340Y-92988740D03*
X83252340Y-92988740D03*
X83252340Y-86638740D03*
X81982340Y-86638740D03*
X80712340Y-86638740D03*
X79442340Y-86638740D03*
X78172340Y-86638740D03*
X76902340Y-86638740D03*
X74362340Y-86638740D03*
G04 #@! TD*
D19*
G04 #@! TO.C,U6*
X100632340Y-84225740D03*
X100632340Y-82955740D03*
X100632340Y-81685740D03*
X100632340Y-80415740D03*
X106220340Y-80415740D03*
X106220340Y-81685740D03*
X106220340Y-82955740D03*
X106220340Y-84225740D03*
G04 #@! TD*
G04 #@! TO.C,U6*
X75632340Y-84225740D03*
X75632340Y-82955740D03*
X75632340Y-81685740D03*
X75632340Y-80415740D03*
X81220340Y-80415740D03*
X81220340Y-81685740D03*
X81220340Y-82955740D03*
X81220340Y-84225740D03*
G04 #@! TD*
D14*
G04 #@! TO.C,J3*
X97838340Y-93115740D03*
D15*
X97838340Y-95655740D03*
G04 #@! TD*
D14*
G04 #@! TO.C,J3*
X72838340Y-93115740D03*
D15*
X72838340Y-95655740D03*
G04 #@! TD*
D20*
G04 #@! TO.C,U2*
X110919340Y-98195740D03*
X110919340Y-95655740D03*
X110919340Y-93115740D03*
X110919340Y-90575740D03*
X110919340Y-88035740D03*
X110919340Y-85495740D03*
X110919340Y-82955740D03*
X110919340Y-80415740D03*
X110919340Y-77875740D03*
X110919340Y-75335740D03*
X110919340Y-72795740D03*
X110919340Y-70255740D03*
X95679340Y-70255740D03*
X95679340Y-72795740D03*
X95679340Y-75335740D03*
X95679340Y-77875740D03*
X95679340Y-80415740D03*
X95679340Y-82955740D03*
X95679340Y-85495740D03*
X95679340Y-88035740D03*
X95679340Y-90575740D03*
X95679340Y-93115740D03*
X95679340Y-95655740D03*
D21*
X95679340Y-98195740D03*
G04 #@! TD*
D20*
G04 #@! TO.C,U2*
X85919340Y-98195740D03*
X85919340Y-95655740D03*
X85919340Y-93115740D03*
X85919340Y-90575740D03*
X85919340Y-88035740D03*
X85919340Y-85495740D03*
X85919340Y-82955740D03*
X85919340Y-80415740D03*
X85919340Y-77875740D03*
X85919340Y-75335740D03*
X85919340Y-72795740D03*
X85919340Y-70255740D03*
X70679340Y-70255740D03*
X70679340Y-72795740D03*
X70679340Y-75335740D03*
X70679340Y-77875740D03*
X70679340Y-80415740D03*
X70679340Y-82955740D03*
X70679340Y-85495740D03*
X70679340Y-88035740D03*
X70679340Y-90575740D03*
X70679340Y-93115740D03*
X70679340Y-95655740D03*
D21*
X70679340Y-98195740D03*
G04 #@! TD*
D22*
G04 #@! TO.C,J1*
X100348540Y-98258720D03*
X106148540Y-98258720D03*
D23*
X106748540Y-98258720D03*
X99748540Y-98258720D03*
D24*
X102248540Y-98258720D03*
D25*
X105748540Y-95558720D03*
D26*
X103248540Y-95558720D03*
X103898540Y-95558720D03*
X104548540Y-95558720D03*
X101948540Y-95558720D03*
X102598540Y-95558720D03*
D25*
X100748540Y-95558720D03*
D24*
X104248540Y-98258720D03*
G04 #@! TD*
D22*
G04 #@! TO.C,J1*
X75348540Y-98258720D03*
X81148540Y-98258720D03*
D23*
X81748540Y-98258720D03*
X74748540Y-98258720D03*
D24*
X77248540Y-98258720D03*
D25*
X80748540Y-95558720D03*
D26*
X78248540Y-95558720D03*
X78898540Y-95558720D03*
X79548540Y-95558720D03*
X76948540Y-95558720D03*
X77598540Y-95558720D03*
D25*
X75748540Y-95558720D03*
D24*
X79248540Y-98258720D03*
G04 #@! TD*
D10*
G04 #@! TO.C,REF\002A\002A*
X117300000Y-87500000D03*
X117300000Y-86484000D03*
X117300000Y-88516000D03*
G04 #@! TD*
G04 #@! TO.C,REF\002A\002A*
X117300000Y-48516000D03*
X117300000Y-46484000D03*
X117300000Y-47500000D03*
G04 #@! TD*
G04 #@! TO.C,REF\002A\002A*
X64294340Y-87500000D03*
X64294340Y-88516000D03*
X64294340Y-86484000D03*
G04 #@! TD*
G04 #@! TO.C,REF\002A\002A*
X64294340Y-46483999D03*
X64294340Y-48515999D03*
X64294340Y-47499999D03*
G04 #@! TD*
G04 #@! TO.C,REF\002A\002A*
X42300000Y-47500000D03*
X42300000Y-46484000D03*
X42300000Y-48516000D03*
G04 #@! TD*
G04 #@! TO.C,REF\002A\002A*
X42300000Y-88516000D03*
X42300000Y-86484000D03*
X42300000Y-87500000D03*
G04 #@! TD*
G04 #@! TO.C,REF\002A\002A*
X40200000Y-87500000D03*
X40200000Y-88516000D03*
X40200000Y-86484000D03*
G04 #@! TD*
D27*
G04 #@! TO.C,Ref\002A\002A*
X120000000Y-32500000D03*
G04 #@! TD*
G04 #@! TO.C,Ref\002A\002A*
X120000000Y-105000000D03*
G04 #@! TD*
G04 #@! TO.C,Ref\002A\002A*
X37500000Y-105000000D03*
G04 #@! TD*
D28*
G04 #@! TO.C,REF\002A\002A*
X120000000Y-37500000D03*
G04 #@! TD*
G04 #@! TO.C,REF\002A\002A*
X37500000Y-100000000D03*
G04 #@! TD*
D18*
G04 #@! TO.C,U4*
X49362340Y-86638740D03*
X51902340Y-86638740D03*
X53172340Y-86638740D03*
X54442340Y-86638740D03*
X55712340Y-86638740D03*
X56982340Y-86638740D03*
X58252340Y-86638740D03*
X58252340Y-92988740D03*
X56982340Y-92988740D03*
X55712340Y-92988740D03*
X54442340Y-92988740D03*
X53172340Y-92988740D03*
X51902340Y-92988740D03*
X50632340Y-92988740D03*
X49362340Y-92988740D03*
X50632340Y-86638740D03*
G04 #@! TD*
D21*
G04 #@! TO.C,U2*
X45679340Y-98195740D03*
D20*
X45679340Y-95655740D03*
X45679340Y-93115740D03*
X45679340Y-90575740D03*
X45679340Y-88035740D03*
X45679340Y-85495740D03*
X45679340Y-82955740D03*
X45679340Y-80415740D03*
X45679340Y-77875740D03*
X45679340Y-75335740D03*
X45679340Y-72795740D03*
X45679340Y-70255740D03*
X60919340Y-70255740D03*
X60919340Y-72795740D03*
X60919340Y-75335740D03*
X60919340Y-77875740D03*
X60919340Y-80415740D03*
X60919340Y-82955740D03*
X60919340Y-85495740D03*
X60919340Y-88035740D03*
X60919340Y-90575740D03*
X60919340Y-93115740D03*
X60919340Y-95655740D03*
X60919340Y-98195740D03*
G04 #@! TD*
D13*
G04 #@! TO.C,JP2*
X59080380Y-49788000D03*
X59080380Y-50688000D03*
X59080380Y-50688000D03*
X59080380Y-49788000D03*
G04 #@! TD*
D17*
G04 #@! TO.C,U1*
X60411340Y-66953740D03*
X59141340Y-66953740D03*
X57871340Y-66953740D03*
X56601340Y-66953740D03*
X55331340Y-66953740D03*
X54061340Y-66953740D03*
X52791340Y-66953740D03*
X51521340Y-66953740D03*
X50251340Y-66953740D03*
X48981340Y-66953740D03*
X47711340Y-66953740D03*
X46441340Y-66953740D03*
D16*
X62189340Y-65175740D03*
X62189340Y-63905740D03*
X62189340Y-62635740D03*
X62189340Y-61365740D03*
X62189340Y-60095740D03*
X62189340Y-58825740D03*
X62189340Y-57555740D03*
X62189340Y-56285740D03*
X62189340Y-55015740D03*
X62189340Y-53745740D03*
X62189340Y-52475740D03*
X62189340Y-51205740D03*
X62189340Y-49935740D03*
X62189340Y-48665740D03*
X62189340Y-46125740D03*
X62189340Y-44855740D03*
X44663340Y-44855740D03*
X44663340Y-46125740D03*
X44663340Y-48665740D03*
X44663340Y-49935740D03*
X44663340Y-51205740D03*
X44663340Y-52475740D03*
X44663340Y-53745740D03*
X44663340Y-55015740D03*
X44663340Y-56285740D03*
X44663340Y-57555740D03*
X44663340Y-58825740D03*
X44663340Y-60095740D03*
X44663340Y-61365740D03*
X44663340Y-62635740D03*
X44663340Y-63905740D03*
X44663340Y-65175740D03*
G04 #@! TD*
D24*
G04 #@! TO.C,J1*
X54248540Y-98258720D03*
D25*
X50748540Y-95558720D03*
D26*
X52598540Y-95558720D03*
X51948540Y-95558720D03*
X54548540Y-95558720D03*
X53898540Y-95558720D03*
X53248540Y-95558720D03*
D25*
X55748540Y-95558720D03*
D24*
X52248540Y-98258720D03*
D23*
X49748540Y-98258720D03*
X56748540Y-98258720D03*
D22*
X56148540Y-98258720D03*
X50348540Y-98258720D03*
G04 #@! TD*
D15*
G04 #@! TO.C,J3*
X47838340Y-95655740D03*
D14*
X47838340Y-93115740D03*
G04 #@! TD*
D15*
G04 #@! TO.C,J2*
X56309240Y-75765000D03*
D14*
X53769240Y-75765000D03*
X56309240Y-73225000D03*
X53769240Y-73225000D03*
X56309240Y-70685000D03*
X53769240Y-70685000D03*
G04 #@! TD*
D19*
G04 #@! TO.C,U6*
X56220340Y-84225740D03*
X56220340Y-82955740D03*
X56220340Y-81685740D03*
X56220340Y-80415740D03*
X50632340Y-80415740D03*
X50632340Y-81685740D03*
X50632340Y-82955740D03*
X50632340Y-84225740D03*
G04 #@! TD*
D11*
G04 #@! TO.C,R7*
G36*
X48135099Y-96939932D02*
X48159125Y-96943496D01*
X48182685Y-96949397D01*
X48205554Y-96957580D01*
X48227511Y-96967964D01*
X48248344Y-96980451D01*
X48267852Y-96994920D01*
X48285849Y-97011231D01*
X48302160Y-97029228D01*
X48316629Y-97048736D01*
X48329116Y-97069569D01*
X48339500Y-97091526D01*
X48347683Y-97114395D01*
X48353584Y-97137955D01*
X48357148Y-97161981D01*
X48358340Y-97186240D01*
X48358340Y-97681240D01*
X48357148Y-97705499D01*
X48353584Y-97729525D01*
X48347683Y-97753085D01*
X48339500Y-97775954D01*
X48329116Y-97797911D01*
X48316629Y-97818744D01*
X48302160Y-97838252D01*
X48285849Y-97856249D01*
X48267852Y-97872560D01*
X48248344Y-97887029D01*
X48227511Y-97899516D01*
X48205554Y-97909900D01*
X48182685Y-97918083D01*
X48159125Y-97923984D01*
X48135099Y-97927548D01*
X48110840Y-97928740D01*
X47565840Y-97928740D01*
X47541581Y-97927548D01*
X47517555Y-97923984D01*
X47493995Y-97918083D01*
X47471126Y-97909900D01*
X47449169Y-97899516D01*
X47428336Y-97887029D01*
X47408828Y-97872560D01*
X47390831Y-97856249D01*
X47374520Y-97838252D01*
X47360051Y-97818744D01*
X47347564Y-97797911D01*
X47337180Y-97775954D01*
X47328997Y-97753085D01*
X47323096Y-97729525D01*
X47319532Y-97705499D01*
X47318340Y-97681240D01*
X47318340Y-97186240D01*
X47319532Y-97161981D01*
X47323096Y-97137955D01*
X47328997Y-97114395D01*
X47337180Y-97091526D01*
X47347564Y-97069569D01*
X47360051Y-97048736D01*
X47374520Y-97029228D01*
X47390831Y-97011231D01*
X47408828Y-96994920D01*
X47428336Y-96980451D01*
X47449169Y-96967964D01*
X47471126Y-96957580D01*
X47493995Y-96949397D01*
X47517555Y-96943496D01*
X47541581Y-96939932D01*
X47565840Y-96938740D01*
X48110840Y-96938740D01*
X48135099Y-96939932D01*
X48135099Y-96939932D01*
G37*
D12*
X47838340Y-97433740D03*
D11*
G36*
X48135099Y-97909932D02*
X48159125Y-97913496D01*
X48182685Y-97919397D01*
X48205554Y-97927580D01*
X48227511Y-97937964D01*
X48248344Y-97950451D01*
X48267852Y-97964920D01*
X48285849Y-97981231D01*
X48302160Y-97999228D01*
X48316629Y-98018736D01*
X48329116Y-98039569D01*
X48339500Y-98061526D01*
X48347683Y-98084395D01*
X48353584Y-98107955D01*
X48357148Y-98131981D01*
X48358340Y-98156240D01*
X48358340Y-98651240D01*
X48357148Y-98675499D01*
X48353584Y-98699525D01*
X48347683Y-98723085D01*
X48339500Y-98745954D01*
X48329116Y-98767911D01*
X48316629Y-98788744D01*
X48302160Y-98808252D01*
X48285849Y-98826249D01*
X48267852Y-98842560D01*
X48248344Y-98857029D01*
X48227511Y-98869516D01*
X48205554Y-98879900D01*
X48182685Y-98888083D01*
X48159125Y-98893984D01*
X48135099Y-98897548D01*
X48110840Y-98898740D01*
X47565840Y-98898740D01*
X47541581Y-98897548D01*
X47517555Y-98893984D01*
X47493995Y-98888083D01*
X47471126Y-98879900D01*
X47449169Y-98869516D01*
X47428336Y-98857029D01*
X47408828Y-98842560D01*
X47390831Y-98826249D01*
X47374520Y-98808252D01*
X47360051Y-98788744D01*
X47347564Y-98767911D01*
X47337180Y-98745954D01*
X47328997Y-98723085D01*
X47323096Y-98699525D01*
X47319532Y-98675499D01*
X47318340Y-98651240D01*
X47318340Y-98156240D01*
X47319532Y-98131981D01*
X47323096Y-98107955D01*
X47328997Y-98084395D01*
X47337180Y-98061526D01*
X47347564Y-98039569D01*
X47360051Y-98018736D01*
X47374520Y-97999228D01*
X47390831Y-97981231D01*
X47408828Y-97964920D01*
X47428336Y-97950451D01*
X47449169Y-97937964D01*
X47471126Y-97927580D01*
X47493995Y-97919397D01*
X47517555Y-97913496D01*
X47541581Y-97909932D01*
X47565840Y-97908740D01*
X48110840Y-97908740D01*
X48135099Y-97909932D01*
X48135099Y-97909932D01*
G37*
D12*
X47838340Y-98403740D03*
G04 #@! TD*
D28*
G04 #@! TO.C,REF\002A\002A*
X42500000Y-32500000D03*
G04 #@! TD*
D27*
G04 #@! TO.C,Ref\002A\002A*
X37500000Y-32500000D03*
G04 #@! TD*
D10*
G04 #@! TO.C,REF\002A\002A*
X40200000Y-46484000D03*
X40200000Y-48516000D03*
X40200000Y-47500000D03*
G04 #@! TD*
M02*
