G04 #@! TF.GenerationSoftware,KiCad,Pcbnew,(5.0.0)*
G04 #@! TF.CreationDate,2020-04-28T11:04:28-06:00*
G04 #@! TF.ProjectId,panel,70616E656C2E6B696361645F70636200,rev?*
G04 #@! TF.SameCoordinates,Original*
G04 #@! TF.FileFunction,Profile,NP*
%FSLAX46Y46*%
G04 Gerber Fmt 4.6, Leading zero omitted, Abs format (unit mm)*
G04 Created by KiCad (PCBNEW (5.0.0)) date 04/28/20 11:04:28*
%MOMM*%
%LPD*%
G01*
G04 APERTURE LIST*
%ADD10C,0.150000*%
G04 APERTURE END LIST*
D10*
X92500000Y-49000000D02*
X89094340Y-49000000D01*
X92500000Y-46000000D02*
X89094340Y-46000000D01*
X117500000Y-46000000D02*
X117500000Y-35000000D01*
X117500000Y-102500000D02*
X117500000Y-89000000D01*
X114094340Y-46000000D02*
X117500000Y-46000000D01*
X114094340Y-49000000D02*
X117500000Y-49000000D01*
X114094340Y-86000000D02*
X117500000Y-86000000D01*
X114094340Y-89000000D02*
X117500000Y-89000000D01*
X92500000Y-86000000D02*
X89094340Y-86000000D01*
X92500000Y-89000000D02*
X89094340Y-89000000D01*
X64094340Y-89000000D02*
X67500000Y-89000000D01*
X64094340Y-86000000D02*
X67500000Y-86000000D01*
X64094340Y-49000000D02*
X67500000Y-49000000D01*
X67500000Y-46000000D02*
X64094340Y-46000000D01*
X114094340Y-37500000D02*
X114094340Y-46000000D01*
X89094340Y-37500000D02*
X89094340Y-46000000D01*
X114094340Y-49000000D02*
X114094340Y-86000000D01*
X89094340Y-49000000D02*
X89094340Y-86000000D01*
X92500000Y-89000000D02*
X92500000Y-99719740D01*
X67500000Y-89000000D02*
X67500000Y-99719740D01*
X92500000Y-46000000D02*
X92500000Y-37500000D01*
X67500000Y-46000000D02*
X67500000Y-37500000D01*
X114094340Y-89000000D02*
X114094340Y-99719740D01*
X89094340Y-89000000D02*
X89094340Y-99719740D01*
X92500000Y-86000000D02*
X92500000Y-49000000D01*
X67500000Y-86000000D02*
X67500000Y-49000000D01*
X92504340Y-37489740D02*
X114094340Y-37489740D01*
X67504340Y-37489740D02*
X89094340Y-37489740D01*
X114094340Y-99719740D02*
X92504340Y-99719740D01*
X89094340Y-99719740D02*
X67504340Y-99719740D01*
X64094340Y-37500000D02*
X64094340Y-46000000D01*
X64094340Y-49000000D02*
X64094340Y-86000000D01*
X42500000Y-89000000D02*
X42500000Y-99719740D01*
X42500000Y-46000000D02*
X40000000Y-46000000D01*
X40000000Y-49000000D02*
X42500000Y-49000000D01*
X40000000Y-86000000D02*
X42500000Y-86000000D01*
X40000000Y-89000000D02*
X42500000Y-89000000D01*
X40000000Y-102000000D02*
X40000000Y-102500000D01*
X40000000Y-89000000D02*
X40000000Y-102000000D01*
X40000000Y-46000000D02*
X40000000Y-35000000D01*
X42500000Y-46000000D02*
X42500000Y-37500000D01*
X40000000Y-86000000D02*
X40000000Y-49000000D01*
X117500000Y-102500000D02*
X40000000Y-102500000D01*
X117500000Y-49000000D02*
X117500000Y-86000000D01*
X122500000Y-107500000D02*
X122500000Y-30000000D01*
X35000000Y-107500000D02*
X122500000Y-107500000D01*
X35000000Y-30000000D02*
X35000000Y-107500000D01*
X40000000Y-35000000D02*
X117500000Y-35000000D01*
X35000000Y-30000000D02*
X122500000Y-30000000D01*
X64094340Y-99719740D02*
X42504340Y-99719740D01*
X64094340Y-89000000D02*
X64094340Y-99719740D01*
X42504340Y-37489740D02*
X64094340Y-37489740D01*
X42500000Y-86000000D02*
X42500000Y-49000000D01*
M02*
