G04 #@! TF.FileFunction,Copper,L2,Bot,Signal*
%FSLAX46Y46*%
G04 Gerber Fmt 4.6, Leading zero omitted, Abs format (unit mm)*
G04 Created by KiCad (PCBNEW 4.0.7) date 07/05/18 14:51:19*
%MOMM*%
%LPD*%
G01*
G04 APERTURE LIST*
%ADD10C,0.100000*%
%ADD11C,1.450000*%
%ADD12O,1.200000X1.900000*%
%ADD13R,1.700000X1.700000*%
%ADD14O,1.700000X1.700000*%
%ADD15C,0.600000*%
%ADD16C,0.500000*%
%ADD17C,0.254000*%
G04 APERTURE END LIST*
D10*
D11*
X106720000Y-150812000D03*
X111720000Y-150812000D03*
D12*
X105720000Y-153512000D03*
X112720000Y-153512000D03*
D13*
X114300000Y-134620000D03*
D14*
X116840000Y-134620000D03*
D13*
X116840000Y-144780000D03*
D14*
X116840000Y-147320000D03*
X116840000Y-149860000D03*
X116840000Y-152400000D03*
D13*
X101600000Y-144780000D03*
D14*
X101600000Y-147320000D03*
X101600000Y-149860000D03*
X101600000Y-152400000D03*
D15*
X113385600Y-149047200D03*
X103530400Y-149148800D03*
X112572800Y-139649200D03*
X109728000Y-137769600D03*
D16*
X103530400Y-149148800D02*
X113284000Y-149148800D01*
X113284000Y-149148800D02*
X113385600Y-149047200D01*
X110845600Y-137769600D02*
X112572800Y-139496800D01*
X112572800Y-139496800D02*
X112572800Y-139649200D01*
X110152264Y-137769600D02*
X110845600Y-137769600D01*
X109728000Y-137769600D02*
X110152264Y-137769600D01*
D17*
G36*
X117400000Y-133262650D02*
X117196890Y-133178524D01*
X116967000Y-133299845D01*
X116967000Y-134493000D01*
X116987000Y-134493000D01*
X116987000Y-134747000D01*
X116967000Y-134747000D01*
X116967000Y-135940155D01*
X117196890Y-136061476D01*
X117400000Y-135977350D01*
X117400000Y-143295000D01*
X117125750Y-143295000D01*
X116967000Y-143453750D01*
X116967000Y-144653000D01*
X116987000Y-144653000D01*
X116987000Y-144907000D01*
X116967000Y-144907000D01*
X116967000Y-147193000D01*
X116987000Y-147193000D01*
X116987000Y-147447000D01*
X116967000Y-147447000D01*
X116967000Y-149733000D01*
X116987000Y-149733000D01*
X116987000Y-149987000D01*
X116967000Y-149987000D01*
X116967000Y-152273000D01*
X116987000Y-152273000D01*
X116987000Y-152527000D01*
X116967000Y-152527000D01*
X116967000Y-153720819D01*
X117196892Y-153841486D01*
X117400000Y-153746101D01*
X117400000Y-154230000D01*
X113887977Y-154230000D01*
X113955000Y-153893052D01*
X113955000Y-153130948D01*
X113880596Y-152756890D01*
X115398524Y-152756890D01*
X115568355Y-153166924D01*
X115958642Y-153595183D01*
X116483108Y-153841486D01*
X116713000Y-153720819D01*
X116713000Y-152527000D01*
X115519845Y-152527000D01*
X115398524Y-152756890D01*
X113880596Y-152756890D01*
X113860991Y-152658334D01*
X113593277Y-152257671D01*
X113192614Y-151989957D01*
X112720000Y-151895948D01*
X112519148Y-151935900D01*
X112872280Y-151583384D01*
X113079763Y-151083708D01*
X113080236Y-150542666D01*
X112945628Y-150216890D01*
X115398524Y-150216890D01*
X115568355Y-150626924D01*
X115958642Y-151055183D01*
X116117954Y-151130000D01*
X115958642Y-151204817D01*
X115568355Y-151633076D01*
X115398524Y-152043110D01*
X115519845Y-152273000D01*
X116713000Y-152273000D01*
X116713000Y-149987000D01*
X115519845Y-149987000D01*
X115398524Y-150216890D01*
X112945628Y-150216890D01*
X112873624Y-150042628D01*
X112491384Y-149659720D01*
X111991708Y-149452237D01*
X111450666Y-149451764D01*
X110950628Y-149658376D01*
X110567720Y-150040616D01*
X110360237Y-150540292D01*
X110359764Y-151081334D01*
X110566376Y-151581372D01*
X110948616Y-151964280D01*
X111448292Y-152171763D01*
X111974605Y-152172223D01*
X111846723Y-152257671D01*
X111579009Y-152658334D01*
X111485000Y-153130948D01*
X111485000Y-153893052D01*
X111552023Y-154230000D01*
X106887977Y-154230000D01*
X106955000Y-153893052D01*
X106955000Y-153130948D01*
X106860991Y-152658334D01*
X106593277Y-152257671D01*
X106464728Y-152171777D01*
X106989334Y-152172236D01*
X107489372Y-151965624D01*
X107872280Y-151583384D01*
X108079763Y-151083708D01*
X108080236Y-150542666D01*
X107873624Y-150042628D01*
X107491384Y-149659720D01*
X106991708Y-149452237D01*
X106450666Y-149451764D01*
X105950628Y-149658376D01*
X105567720Y-150040616D01*
X105360237Y-150540292D01*
X105359764Y-151081334D01*
X105566376Y-151581372D01*
X105920145Y-151935759D01*
X105720000Y-151895948D01*
X105247386Y-151989957D01*
X104846723Y-152257671D01*
X104579009Y-152658334D01*
X104485000Y-153130948D01*
X104485000Y-153893052D01*
X104552023Y-154230000D01*
X101040000Y-154230000D01*
X101040000Y-153779396D01*
X101570907Y-153885000D01*
X101629093Y-153885000D01*
X102197378Y-153771961D01*
X102679147Y-153450054D01*
X103001054Y-152968285D01*
X103114093Y-152400000D01*
X103001054Y-151831715D01*
X102679147Y-151349946D01*
X102349974Y-151130000D01*
X102679147Y-150910054D01*
X103001054Y-150428285D01*
X103114093Y-149860000D01*
X103001054Y-149291715D01*
X102679147Y-148809946D01*
X102349974Y-148590000D01*
X102679147Y-148370054D01*
X103001054Y-147888285D01*
X103043103Y-147676890D01*
X115398524Y-147676890D01*
X115568355Y-148086924D01*
X115958642Y-148515183D01*
X116117954Y-148590000D01*
X115958642Y-148664817D01*
X115568355Y-149093076D01*
X115398524Y-149503110D01*
X115519845Y-149733000D01*
X116713000Y-149733000D01*
X116713000Y-147447000D01*
X115519845Y-147447000D01*
X115398524Y-147676890D01*
X103043103Y-147676890D01*
X103114093Y-147320000D01*
X103001054Y-146751715D01*
X102679147Y-146269946D01*
X102637548Y-146242150D01*
X102685317Y-146233162D01*
X102901441Y-146094090D01*
X103046431Y-145881890D01*
X103097440Y-145630000D01*
X103097440Y-145065750D01*
X115355000Y-145065750D01*
X115355000Y-145756310D01*
X115451673Y-145989699D01*
X115630302Y-146168327D01*
X115839878Y-146255136D01*
X115568355Y-146553076D01*
X115398524Y-146963110D01*
X115519845Y-147193000D01*
X116713000Y-147193000D01*
X116713000Y-144907000D01*
X115513750Y-144907000D01*
X115355000Y-145065750D01*
X103097440Y-145065750D01*
X103097440Y-143930000D01*
X103073674Y-143803690D01*
X115355000Y-143803690D01*
X115355000Y-144494250D01*
X115513750Y-144653000D01*
X116713000Y-144653000D01*
X116713000Y-143453750D01*
X116554250Y-143295000D01*
X115863691Y-143295000D01*
X115630302Y-143391673D01*
X115451673Y-143570301D01*
X115355000Y-143803690D01*
X103073674Y-143803690D01*
X103053162Y-143694683D01*
X102914090Y-143478559D01*
X102701890Y-143333569D01*
X102450000Y-143282560D01*
X101040000Y-143282560D01*
X101040000Y-137954767D01*
X108792838Y-137954767D01*
X108934883Y-138298543D01*
X109197673Y-138561792D01*
X109541201Y-138704438D01*
X109913167Y-138704762D01*
X110034569Y-138654600D01*
X110479020Y-138654600D01*
X111637656Y-139813236D01*
X111637638Y-139834367D01*
X111779683Y-140178143D01*
X112042473Y-140441392D01*
X112386001Y-140584038D01*
X112757967Y-140584362D01*
X113101743Y-140442317D01*
X113364992Y-140179527D01*
X113507638Y-139835999D01*
X113507962Y-139464033D01*
X113398666Y-139199516D01*
X113390433Y-139158126D01*
X113390433Y-139158125D01*
X113367191Y-139123341D01*
X113365917Y-139120257D01*
X113363539Y-139117874D01*
X113198590Y-138871010D01*
X113198587Y-138871008D01*
X111471390Y-137143810D01*
X111222350Y-136977408D01*
X111184275Y-136951967D01*
X111128084Y-136940790D01*
X110845600Y-136884599D01*
X110845595Y-136884600D01*
X110034822Y-136884600D01*
X109914799Y-136834762D01*
X109542833Y-136834438D01*
X109199057Y-136976483D01*
X108935808Y-137239273D01*
X108793162Y-137582801D01*
X108792838Y-137954767D01*
X101040000Y-137954767D01*
X101040000Y-133770000D01*
X112802560Y-133770000D01*
X112802560Y-135470000D01*
X112846838Y-135705317D01*
X112985910Y-135921441D01*
X113198110Y-136066431D01*
X113450000Y-136117440D01*
X115150000Y-136117440D01*
X115385317Y-136073162D01*
X115601441Y-135934090D01*
X115746431Y-135721890D01*
X115768301Y-135613893D01*
X116073076Y-135891645D01*
X116483110Y-136061476D01*
X116713000Y-135940155D01*
X116713000Y-134747000D01*
X116693000Y-134747000D01*
X116693000Y-134493000D01*
X116713000Y-134493000D01*
X116713000Y-133299845D01*
X116483110Y-133178524D01*
X116073076Y-133348355D01*
X115770063Y-133624501D01*
X115753162Y-133534683D01*
X115614090Y-133318559D01*
X115401890Y-133173569D01*
X115150000Y-133122560D01*
X113450000Y-133122560D01*
X113214683Y-133166838D01*
X112998559Y-133305910D01*
X112853569Y-133518110D01*
X112802560Y-133770000D01*
X101040000Y-133770000D01*
X101040000Y-132790000D01*
X117400000Y-132790000D01*
X117400000Y-133262650D01*
X117400000Y-133262650D01*
G37*
X117400000Y-133262650D02*
X117196890Y-133178524D01*
X116967000Y-133299845D01*
X116967000Y-134493000D01*
X116987000Y-134493000D01*
X116987000Y-134747000D01*
X116967000Y-134747000D01*
X116967000Y-135940155D01*
X117196890Y-136061476D01*
X117400000Y-135977350D01*
X117400000Y-143295000D01*
X117125750Y-143295000D01*
X116967000Y-143453750D01*
X116967000Y-144653000D01*
X116987000Y-144653000D01*
X116987000Y-144907000D01*
X116967000Y-144907000D01*
X116967000Y-147193000D01*
X116987000Y-147193000D01*
X116987000Y-147447000D01*
X116967000Y-147447000D01*
X116967000Y-149733000D01*
X116987000Y-149733000D01*
X116987000Y-149987000D01*
X116967000Y-149987000D01*
X116967000Y-152273000D01*
X116987000Y-152273000D01*
X116987000Y-152527000D01*
X116967000Y-152527000D01*
X116967000Y-153720819D01*
X117196892Y-153841486D01*
X117400000Y-153746101D01*
X117400000Y-154230000D01*
X113887977Y-154230000D01*
X113955000Y-153893052D01*
X113955000Y-153130948D01*
X113880596Y-152756890D01*
X115398524Y-152756890D01*
X115568355Y-153166924D01*
X115958642Y-153595183D01*
X116483108Y-153841486D01*
X116713000Y-153720819D01*
X116713000Y-152527000D01*
X115519845Y-152527000D01*
X115398524Y-152756890D01*
X113880596Y-152756890D01*
X113860991Y-152658334D01*
X113593277Y-152257671D01*
X113192614Y-151989957D01*
X112720000Y-151895948D01*
X112519148Y-151935900D01*
X112872280Y-151583384D01*
X113079763Y-151083708D01*
X113080236Y-150542666D01*
X112945628Y-150216890D01*
X115398524Y-150216890D01*
X115568355Y-150626924D01*
X115958642Y-151055183D01*
X116117954Y-151130000D01*
X115958642Y-151204817D01*
X115568355Y-151633076D01*
X115398524Y-152043110D01*
X115519845Y-152273000D01*
X116713000Y-152273000D01*
X116713000Y-149987000D01*
X115519845Y-149987000D01*
X115398524Y-150216890D01*
X112945628Y-150216890D01*
X112873624Y-150042628D01*
X112491384Y-149659720D01*
X111991708Y-149452237D01*
X111450666Y-149451764D01*
X110950628Y-149658376D01*
X110567720Y-150040616D01*
X110360237Y-150540292D01*
X110359764Y-151081334D01*
X110566376Y-151581372D01*
X110948616Y-151964280D01*
X111448292Y-152171763D01*
X111974605Y-152172223D01*
X111846723Y-152257671D01*
X111579009Y-152658334D01*
X111485000Y-153130948D01*
X111485000Y-153893052D01*
X111552023Y-154230000D01*
X106887977Y-154230000D01*
X106955000Y-153893052D01*
X106955000Y-153130948D01*
X106860991Y-152658334D01*
X106593277Y-152257671D01*
X106464728Y-152171777D01*
X106989334Y-152172236D01*
X107489372Y-151965624D01*
X107872280Y-151583384D01*
X108079763Y-151083708D01*
X108080236Y-150542666D01*
X107873624Y-150042628D01*
X107491384Y-149659720D01*
X106991708Y-149452237D01*
X106450666Y-149451764D01*
X105950628Y-149658376D01*
X105567720Y-150040616D01*
X105360237Y-150540292D01*
X105359764Y-151081334D01*
X105566376Y-151581372D01*
X105920145Y-151935759D01*
X105720000Y-151895948D01*
X105247386Y-151989957D01*
X104846723Y-152257671D01*
X104579009Y-152658334D01*
X104485000Y-153130948D01*
X104485000Y-153893052D01*
X104552023Y-154230000D01*
X101040000Y-154230000D01*
X101040000Y-153779396D01*
X101570907Y-153885000D01*
X101629093Y-153885000D01*
X102197378Y-153771961D01*
X102679147Y-153450054D01*
X103001054Y-152968285D01*
X103114093Y-152400000D01*
X103001054Y-151831715D01*
X102679147Y-151349946D01*
X102349974Y-151130000D01*
X102679147Y-150910054D01*
X103001054Y-150428285D01*
X103114093Y-149860000D01*
X103001054Y-149291715D01*
X102679147Y-148809946D01*
X102349974Y-148590000D01*
X102679147Y-148370054D01*
X103001054Y-147888285D01*
X103043103Y-147676890D01*
X115398524Y-147676890D01*
X115568355Y-148086924D01*
X115958642Y-148515183D01*
X116117954Y-148590000D01*
X115958642Y-148664817D01*
X115568355Y-149093076D01*
X115398524Y-149503110D01*
X115519845Y-149733000D01*
X116713000Y-149733000D01*
X116713000Y-147447000D01*
X115519845Y-147447000D01*
X115398524Y-147676890D01*
X103043103Y-147676890D01*
X103114093Y-147320000D01*
X103001054Y-146751715D01*
X102679147Y-146269946D01*
X102637548Y-146242150D01*
X102685317Y-146233162D01*
X102901441Y-146094090D01*
X103046431Y-145881890D01*
X103097440Y-145630000D01*
X103097440Y-145065750D01*
X115355000Y-145065750D01*
X115355000Y-145756310D01*
X115451673Y-145989699D01*
X115630302Y-146168327D01*
X115839878Y-146255136D01*
X115568355Y-146553076D01*
X115398524Y-146963110D01*
X115519845Y-147193000D01*
X116713000Y-147193000D01*
X116713000Y-144907000D01*
X115513750Y-144907000D01*
X115355000Y-145065750D01*
X103097440Y-145065750D01*
X103097440Y-143930000D01*
X103073674Y-143803690D01*
X115355000Y-143803690D01*
X115355000Y-144494250D01*
X115513750Y-144653000D01*
X116713000Y-144653000D01*
X116713000Y-143453750D01*
X116554250Y-143295000D01*
X115863691Y-143295000D01*
X115630302Y-143391673D01*
X115451673Y-143570301D01*
X115355000Y-143803690D01*
X103073674Y-143803690D01*
X103053162Y-143694683D01*
X102914090Y-143478559D01*
X102701890Y-143333569D01*
X102450000Y-143282560D01*
X101040000Y-143282560D01*
X101040000Y-137954767D01*
X108792838Y-137954767D01*
X108934883Y-138298543D01*
X109197673Y-138561792D01*
X109541201Y-138704438D01*
X109913167Y-138704762D01*
X110034569Y-138654600D01*
X110479020Y-138654600D01*
X111637656Y-139813236D01*
X111637638Y-139834367D01*
X111779683Y-140178143D01*
X112042473Y-140441392D01*
X112386001Y-140584038D01*
X112757967Y-140584362D01*
X113101743Y-140442317D01*
X113364992Y-140179527D01*
X113507638Y-139835999D01*
X113507962Y-139464033D01*
X113398666Y-139199516D01*
X113390433Y-139158126D01*
X113390433Y-139158125D01*
X113367191Y-139123341D01*
X113365917Y-139120257D01*
X113363539Y-139117874D01*
X113198590Y-138871010D01*
X113198587Y-138871008D01*
X111471390Y-137143810D01*
X111222350Y-136977408D01*
X111184275Y-136951967D01*
X111128084Y-136940790D01*
X110845600Y-136884599D01*
X110845595Y-136884600D01*
X110034822Y-136884600D01*
X109914799Y-136834762D01*
X109542833Y-136834438D01*
X109199057Y-136976483D01*
X108935808Y-137239273D01*
X108793162Y-137582801D01*
X108792838Y-137954767D01*
X101040000Y-137954767D01*
X101040000Y-133770000D01*
X112802560Y-133770000D01*
X112802560Y-135470000D01*
X112846838Y-135705317D01*
X112985910Y-135921441D01*
X113198110Y-136066431D01*
X113450000Y-136117440D01*
X115150000Y-136117440D01*
X115385317Y-136073162D01*
X115601441Y-135934090D01*
X115746431Y-135721890D01*
X115768301Y-135613893D01*
X116073076Y-135891645D01*
X116483110Y-136061476D01*
X116713000Y-135940155D01*
X116713000Y-134747000D01*
X116693000Y-134747000D01*
X116693000Y-134493000D01*
X116713000Y-134493000D01*
X116713000Y-133299845D01*
X116483110Y-133178524D01*
X116073076Y-133348355D01*
X115770063Y-133624501D01*
X115753162Y-133534683D01*
X115614090Y-133318559D01*
X115401890Y-133173569D01*
X115150000Y-133122560D01*
X113450000Y-133122560D01*
X113214683Y-133166838D01*
X112998559Y-133305910D01*
X112853569Y-133518110D01*
X112802560Y-133770000D01*
X101040000Y-133770000D01*
X101040000Y-132790000D01*
X117400000Y-132790000D01*
X117400000Y-133262650D01*
M02*
