G04 #@! TF.FileFunction,Copper,L1,Top,Signal*
%FSLAX46Y46*%
G04 Gerber Fmt 4.6, Leading zero omitted, Abs format (unit mm)*
G04 Created by KiCad (PCBNEW 4.0.7) date 07/05/18 14:51:19*
%MOMM*%
%LPD*%
G01*
G04 APERTURE LIST*
%ADD10C,0.100000*%
%ADD11R,1.500000X1.900000*%
%ADD12C,1.450000*%
%ADD13R,0.400000X1.350000*%
%ADD14O,1.200000X1.900000*%
%ADD15R,1.200000X1.900000*%
%ADD16R,1.560000X0.650000*%
%ADD17R,0.900000X0.800000*%
%ADD18R,1.500000X1.250000*%
%ADD19R,1.700000X1.700000*%
%ADD20O,1.700000X1.700000*%
%ADD21R,1.500000X1.300000*%
%ADD22R,1.300000X1.500000*%
%ADD23O,1.473200X0.609600*%
%ADD24R,0.900000X1.200000*%
%ADD25C,0.600000*%
%ADD26C,0.250000*%
%ADD27C,0.500000*%
G04 APERTURE END LIST*
D10*
D11*
X110220000Y-153512000D03*
D12*
X106720000Y-150812000D03*
D13*
X108570000Y-150812000D03*
X107920000Y-150812000D03*
X110520000Y-150812000D03*
X109870000Y-150812000D03*
X109220000Y-150812000D03*
D12*
X111720000Y-150812000D03*
D11*
X108220000Y-153512000D03*
D14*
X105720000Y-153512000D03*
X112720000Y-153512000D03*
D15*
X112120000Y-153512000D03*
X106320000Y-153512000D03*
D16*
X105109000Y-141666000D03*
X105109000Y-140716000D03*
X105109000Y-139766000D03*
X102409000Y-139766000D03*
X102409000Y-141666000D03*
D17*
X108728000Y-138877000D03*
X108728000Y-140777000D03*
X110728000Y-139827000D03*
D18*
X103245600Y-135991600D03*
X105745600Y-135991600D03*
X111232000Y-136017000D03*
X108732000Y-136017000D03*
D19*
X114300000Y-134620000D03*
D20*
X116840000Y-134620000D03*
D21*
X113585000Y-138430000D03*
X116285000Y-138430000D03*
D22*
X113411000Y-144700000D03*
X113411000Y-147400000D03*
D18*
X113685000Y-140970000D03*
X116185000Y-140970000D03*
D23*
X110617000Y-148209000D03*
X110617000Y-146939000D03*
X110617000Y-145669000D03*
X110617000Y-144399000D03*
X105029000Y-144399000D03*
X105029000Y-145669000D03*
X105029000Y-146939000D03*
X105029000Y-148209000D03*
D24*
X107951000Y-142494000D03*
X111251000Y-142494000D03*
D19*
X116840000Y-144780000D03*
D20*
X116840000Y-147320000D03*
X116840000Y-149860000D03*
X116840000Y-152400000D03*
D19*
X101600000Y-144780000D03*
D20*
X101600000Y-147320000D03*
X101600000Y-149860000D03*
X101600000Y-152400000D03*
D25*
X113385600Y-149047200D03*
X103530400Y-149148800D03*
X112572800Y-139649200D03*
X109728000Y-137769600D03*
D26*
X110520000Y-150812000D02*
X110520000Y-148306000D01*
X110520000Y-148306000D02*
X110617000Y-148209000D01*
D27*
X113385600Y-149047200D02*
X113385600Y-147425400D01*
X113385600Y-147425400D02*
X113411000Y-147400000D01*
X105029000Y-146939000D02*
X104597200Y-146939000D01*
X104597200Y-146939000D02*
X103530400Y-148005800D01*
X103530400Y-148005800D02*
X103530400Y-148208338D01*
X103530400Y-148208338D02*
X103530400Y-149148800D01*
X105109000Y-140716000D02*
X106074002Y-140716000D01*
X106074002Y-140716000D02*
X106339001Y-140451001D01*
X106339001Y-140451001D02*
X106339001Y-139534999D01*
X106339001Y-139534999D02*
X108732000Y-137142000D01*
X108732000Y-137142000D02*
X108732000Y-136017000D01*
X108732000Y-136017000D02*
X105771000Y-136017000D01*
X105771000Y-136017000D02*
X105745600Y-135991600D01*
X116185000Y-140970000D02*
X116185000Y-144125000D01*
X116185000Y-144125000D02*
X116840000Y-144780000D01*
X116285000Y-138430000D02*
X116285000Y-140870000D01*
X116285000Y-140870000D02*
X116185000Y-140970000D01*
X116840000Y-134620000D02*
X116840000Y-137875000D01*
X116840000Y-137875000D02*
X116285000Y-138430000D01*
X105029000Y-146939000D02*
X105029000Y-145669000D01*
X110185200Y-148209000D02*
X110617000Y-148209000D01*
X109093000Y-146761200D02*
X109093000Y-147116800D01*
X109093000Y-147116800D02*
X110185200Y-148209000D01*
X110185200Y-145669000D02*
X109093000Y-146761200D01*
X110617000Y-145669000D02*
X110185200Y-145669000D01*
X116840000Y-147320000D02*
X113491000Y-147320000D01*
X113491000Y-147320000D02*
X113411000Y-147400000D01*
X110617000Y-148209000D02*
X112602000Y-148209000D01*
X112602000Y-148209000D02*
X113411000Y-147400000D01*
X104013000Y-140716000D02*
X103639001Y-141089999D01*
X103639001Y-141089999D02*
X103639001Y-144710801D01*
X103639001Y-144710801D02*
X104597200Y-145669000D01*
X104597200Y-145669000D02*
X105029000Y-145669000D01*
X105109000Y-140716000D02*
X104013000Y-140716000D01*
X105109000Y-140716000D02*
X105109000Y-140541001D01*
X116840000Y-147320000D02*
X116840000Y-144780000D01*
X116840000Y-149860000D02*
X116840000Y-147320000D01*
X116840000Y-152400000D02*
X116840000Y-149860000D01*
X101600000Y-149860000D02*
X101600000Y-152400000D01*
X101600000Y-147320000D02*
X101600000Y-149860000D01*
X101600000Y-144780000D02*
X101600000Y-147320000D01*
X102409000Y-141666000D02*
X102409000Y-143971000D01*
X102409000Y-143971000D02*
X101600000Y-144780000D01*
X106320000Y-153512000D02*
X106320000Y-151212000D01*
X106320000Y-151212000D02*
X106720000Y-150812000D01*
X112120000Y-153512000D02*
X112120000Y-151212000D01*
X112120000Y-151212000D02*
X111720000Y-150812000D01*
X110220000Y-153512000D02*
X112120000Y-153512000D01*
X108220000Y-153512000D02*
X110220000Y-153512000D01*
X105720000Y-153512000D02*
X108220000Y-153512000D01*
D26*
X107920000Y-150812000D02*
X107920000Y-149887000D01*
X107920000Y-149887000D02*
X107920000Y-148336000D01*
D27*
X112572800Y-139649200D02*
X112572800Y-139857800D01*
X112572800Y-139857800D02*
X113685000Y-140970000D01*
X108728000Y-138877000D02*
X108728000Y-138769600D01*
X108728000Y-138769600D02*
X109728000Y-137769600D01*
X111251000Y-142494000D02*
X112161000Y-142494000D01*
X112161000Y-142494000D02*
X113685000Y-140970000D01*
X110617000Y-144399000D02*
X110617000Y-143128000D01*
X110617000Y-143128000D02*
X111251000Y-142494000D01*
X107920000Y-148336000D02*
X107920000Y-146664200D01*
X105029000Y-148209000D02*
X105460800Y-148209000D01*
X105460800Y-148209000D02*
X105587800Y-148336000D01*
X105587800Y-148336000D02*
X107920000Y-148336000D01*
X107920000Y-146664200D02*
X110185200Y-144399000D01*
X110185200Y-144399000D02*
X110617000Y-144399000D01*
X113585000Y-138430000D02*
X113585000Y-140870000D01*
X113585000Y-140870000D02*
X113685000Y-140970000D01*
D26*
X109345802Y-134670800D02*
X104691400Y-134670800D01*
X104691400Y-134670800D02*
X103370600Y-135991600D01*
X103370600Y-135991600D02*
X103245600Y-135991600D01*
X109982000Y-136906000D02*
X109982000Y-135306998D01*
X109982000Y-135306998D02*
X109345802Y-134670800D01*
X110490000Y-137414000D02*
X109982000Y-136906000D01*
X110490000Y-138125200D02*
X110490000Y-137414000D01*
X109503001Y-139112199D02*
X110490000Y-138125200D01*
X108728000Y-140777000D02*
X108778000Y-140777000D01*
X108778000Y-140777000D02*
X109503001Y-140051999D01*
X109503001Y-140051999D02*
X109503001Y-139112199D01*
D27*
X103245600Y-135991600D02*
X103245600Y-137902600D01*
X103245600Y-137902600D02*
X105109000Y-139766000D01*
X108728000Y-140777000D02*
X108728000Y-141717000D01*
X108728000Y-141717000D02*
X107951000Y-142494000D01*
X105109000Y-141666000D02*
X107123000Y-141666000D01*
X107123000Y-141666000D02*
X107951000Y-142494000D01*
X110728000Y-139827000D02*
X110728000Y-140727000D01*
X110728000Y-140727000D02*
X109220000Y-142235000D01*
X109220000Y-142235000D02*
X109220000Y-143085002D01*
X109220000Y-143085002D02*
X107906002Y-144399000D01*
X107906002Y-144399000D02*
X106265600Y-144399000D01*
X106265600Y-144399000D02*
X105029000Y-144399000D01*
X110728000Y-139827000D02*
X110728000Y-138927000D01*
X110728000Y-138927000D02*
X111232000Y-138423000D01*
X111232000Y-138423000D02*
X111232000Y-137704000D01*
X111232000Y-136017000D02*
X111232000Y-137704000D01*
X114300000Y-134620000D02*
X111252000Y-134620000D01*
X111232000Y-136017000D02*
X111232000Y-134892000D01*
X111232000Y-134892000D02*
X111252000Y-134872000D01*
X111252000Y-134872000D02*
X111252000Y-134620000D01*
X114062000Y-134382000D02*
X114300000Y-134620000D01*
X110617000Y-146939000D02*
X111172000Y-146939000D01*
X111172000Y-146939000D02*
X113411000Y-144700000D01*
M02*
