M48
;DRILL file {KiCad 4.0.7} date 07/20/18 22:40:31
;FORMAT={-:-/ absolute / inch / decimal}
FMAT,2
INCH,TZ
T1C0.012
T2C0.016
T3C0.024
T4C0.033
T5C0.039
T6C0.043
%
G90
G05
M72
T1
X4.0736Y-5.9264
X4.0736Y-5.9264
X4.0736Y-5.9618
X4.0736Y-5.9618
X4.5276Y-4.0842
X4.5276Y-4.0842
X4.5276Y-4.1196
X4.5276Y-4.1196
T2
X3.9778Y-4.7359
X4.0214Y-4.6185
X4.0296Y-4.5328
X4.03Y-3.89
X4.03Y-3.94
X4.0316Y-4.5774
X4.0349Y-4.1601
X4.06Y-3.89
X4.06Y-3.94
X4.0758Y-4.8677
X4.0843Y-4.6928
X4.1089Y-4.6688
X4.126Y-4.6258
X4.1266Y-4.52
X4.1295Y-4.5762
X4.15Y-4.995
X4.15Y-5.825
X4.1603Y-4.6685
X4.1644Y-4.1656
X4.19Y-5.22
X4.1972Y-5.4529
X4.21Y-5.6
X4.2223Y-4.165
X4.2242Y-4.9335
X4.31Y-3.89
X4.31Y-3.94
X4.33Y-5.825
X4.3366Y-4.4782
X4.3999Y-4.2521
X4.4104Y-4.3367
X4.4202Y-4.2779
X4.4394Y-4.3654
X4.4713Y-4.3808
X4.4877Y-4.412
X4.5055Y-4.4643
X4.5055Y-4.5084
X4.5279Y-4.6912
X4.57Y-3.89
X4.57Y-3.94
X4.5756Y-4.5777
X4.5938Y-4.6034
X4.6151Y-4.7339
T4
X4.1996Y-5.8862
X4.3964Y-5.8862
T5
X4.1761Y-5.2822
X4.1761Y-5.3822
X4.3185Y-4.9069
X4.3185Y-5.0069
X4.3185Y-5.1069
X4.4185Y-4.9069
X4.4185Y-5.0069
X4.4185Y-5.1069
T6
X4.Y-4.89
X4.Y-4.99
X4.Y-5.09
X4.Y-5.19
X4.Y-5.29
X4.Y-5.39
X4.Y-5.49
X4.Y-5.59
X4.Y-5.69
X4.Y-5.79
X4.Y-5.89
X4.Y-5.99
X4.6Y-4.89
X4.6Y-4.99
X4.6Y-5.09
X4.6Y-5.19
X4.6Y-5.29
X4.6Y-5.39
X4.6Y-5.49
X4.6Y-5.59
X4.6Y-5.69
X4.6Y-5.79
X4.6Y-5.89
X4.6Y-5.99
T3
X4.1602Y-6.0063G85X4.1602Y-5.9787
G05
X4.4358Y-5.9787G85X4.4358Y-6.0063
G05
T0
M30
