G04 #@! TF.GenerationSoftware,KiCad,Pcbnew,(5.0.0)*
G04 #@! TF.CreationDate,2018-10-05T18:25:32-06:00*
G04 #@! TF.ProjectId,4x4_backpack,3478345F6261636B7061636B2E6B6963,rev?*
G04 #@! TF.SameCoordinates,Original*
G04 #@! TF.FileFunction,Copper,L1,Top,Signal*
G04 #@! TF.FilePolarity,Positive*
%FSLAX46Y46*%
G04 Gerber Fmt 4.6, Leading zero omitted, Abs format (unit mm)*
G04 Created by KiCad (PCBNEW (5.0.0)) date 10/05/18 18:25:32*
%MOMM*%
%LPD*%
G01*
G04 APERTURE LIST*
G04 #@! TA.AperFunction,NonConductor*
%ADD10C,0.254000*%
G04 #@! TD*
G04 APERTURE END LIST*
D10*
G36*
X153882084Y-157161650D02*
X74031077Y-155037253D01*
X72548905Y-76200000D01*
X75476091Y-76200000D01*
X75490000Y-76269926D01*
X75490001Y-152330069D01*
X75476091Y-152400000D01*
X75531195Y-152677028D01*
X75688119Y-152911881D01*
X75922972Y-153068805D01*
X76130074Y-153110000D01*
X76130075Y-153110000D01*
X76200000Y-153123909D01*
X76269926Y-153110000D01*
X152330074Y-153110000D01*
X152400000Y-153123909D01*
X152469925Y-153110000D01*
X152469926Y-153110000D01*
X152677028Y-153068805D01*
X152911881Y-152911881D01*
X153068805Y-152677028D01*
X153123909Y-152400000D01*
X153110000Y-152330074D01*
X153110000Y-76269926D01*
X153123909Y-76200000D01*
X153068805Y-75922972D01*
X152911881Y-75688119D01*
X152677028Y-75531195D01*
X152469926Y-75490000D01*
X152400000Y-75476091D01*
X152330075Y-75490000D01*
X76269925Y-75490000D01*
X76200000Y-75476091D01*
X76130074Y-75490000D01*
X75922972Y-75531195D01*
X75688119Y-75688119D01*
X75531195Y-75922972D01*
X75476091Y-76200000D01*
X72548905Y-76200000D01*
X72514328Y-74360881D01*
X154689835Y-74259598D01*
X153882084Y-157161650D01*
X153882084Y-157161650D01*
G37*
X153882084Y-157161650D02*
X74031077Y-155037253D01*
X72548905Y-76200000D01*
X75476091Y-76200000D01*
X75490000Y-76269926D01*
X75490001Y-152330069D01*
X75476091Y-152400000D01*
X75531195Y-152677028D01*
X75688119Y-152911881D01*
X75922972Y-153068805D01*
X76130074Y-153110000D01*
X76130075Y-153110000D01*
X76200000Y-153123909D01*
X76269926Y-153110000D01*
X152330074Y-153110000D01*
X152400000Y-153123909D01*
X152469925Y-153110000D01*
X152469926Y-153110000D01*
X152677028Y-153068805D01*
X152911881Y-152911881D01*
X153068805Y-152677028D01*
X153123909Y-152400000D01*
X153110000Y-152330074D01*
X153110000Y-76269926D01*
X153123909Y-76200000D01*
X153068805Y-75922972D01*
X152911881Y-75688119D01*
X152677028Y-75531195D01*
X152469926Y-75490000D01*
X152400000Y-75476091D01*
X152330075Y-75490000D01*
X76269925Y-75490000D01*
X76200000Y-75476091D01*
X76130074Y-75490000D01*
X75922972Y-75531195D01*
X75688119Y-75688119D01*
X75531195Y-75922972D01*
X75476091Y-76200000D01*
X72548905Y-76200000D01*
X72514328Y-74360881D01*
X154689835Y-74259598D01*
X153882084Y-157161650D01*
G36*
X151690000Y-151690000D02*
X76910000Y-151690000D01*
X76910000Y-116923820D01*
X78099911Y-116923820D01*
X78113821Y-116993751D01*
X78113820Y-130669024D01*
X78102451Y-130726180D01*
X78113820Y-130783336D01*
X78113820Y-130796105D01*
X78155015Y-131003207D01*
X78311939Y-131238060D01*
X78546792Y-131394985D01*
X78823820Y-131450089D01*
X78893745Y-131436180D01*
X80112640Y-131436180D01*
X79759974Y-131582259D01*
X79131259Y-132210974D01*
X78791000Y-133032431D01*
X78791000Y-133921569D01*
X79131259Y-134743026D01*
X79652053Y-135263820D01*
X78893746Y-135263820D01*
X78823820Y-135249911D01*
X78753895Y-135263820D01*
X78753894Y-135263820D01*
X78546792Y-135305015D01*
X78311939Y-135461939D01*
X78155015Y-135696792D01*
X78099911Y-135973820D01*
X78113821Y-136043751D01*
X78113820Y-149719024D01*
X78102451Y-149776180D01*
X78113820Y-149833336D01*
X78113820Y-149846105D01*
X78155015Y-150053207D01*
X78311939Y-150288060D01*
X78546792Y-150444985D01*
X78823820Y-150500089D01*
X78893745Y-150486180D01*
X92556255Y-150486180D01*
X92626180Y-150500089D01*
X92903208Y-150444985D01*
X93138061Y-150288061D01*
X93294985Y-150053208D01*
X93336180Y-149846106D01*
X93336180Y-149846105D01*
X93350089Y-149776180D01*
X93336180Y-149706254D01*
X93336180Y-136043746D01*
X93350089Y-135973820D01*
X93294985Y-135696792D01*
X93138061Y-135461939D01*
X92903208Y-135305015D01*
X92696106Y-135263820D01*
X92696105Y-135263820D01*
X92626180Y-135249911D01*
X92556254Y-135263820D01*
X82399947Y-135263820D01*
X82920741Y-134743026D01*
X83261000Y-133921569D01*
X83261000Y-133032431D01*
X82920741Y-132210974D01*
X82292026Y-131582259D01*
X81939360Y-131436180D01*
X92556255Y-131436180D01*
X92626180Y-131450089D01*
X92903208Y-131394985D01*
X93138061Y-131238061D01*
X93294985Y-131003208D01*
X93336180Y-130796106D01*
X93336180Y-130796105D01*
X93350089Y-130726180D01*
X93336180Y-130656254D01*
X93336180Y-116993746D01*
X93350089Y-116923820D01*
X97149911Y-116923820D01*
X97163821Y-116993751D01*
X97163820Y-130669024D01*
X97152451Y-130726180D01*
X97163820Y-130783336D01*
X97163820Y-130796105D01*
X97205015Y-131003207D01*
X97361939Y-131238060D01*
X97596792Y-131394985D01*
X97873820Y-131450089D01*
X97943745Y-131436180D01*
X108687640Y-131436180D01*
X108334974Y-131582259D01*
X107706259Y-132210974D01*
X107366000Y-133032431D01*
X107366000Y-133921569D01*
X107706259Y-134743026D01*
X108227053Y-135263820D01*
X97943746Y-135263820D01*
X97873820Y-135249911D01*
X97803895Y-135263820D01*
X97803894Y-135263820D01*
X97596792Y-135305015D01*
X97361939Y-135461939D01*
X97205015Y-135696792D01*
X97149911Y-135973820D01*
X97163821Y-136043751D01*
X97163820Y-149719024D01*
X97152451Y-149776180D01*
X97163820Y-149833336D01*
X97163820Y-149846105D01*
X97205015Y-150053207D01*
X97361939Y-150288060D01*
X97596792Y-150444985D01*
X97873820Y-150500089D01*
X97943745Y-150486180D01*
X111606255Y-150486180D01*
X111676180Y-150500089D01*
X111953208Y-150444985D01*
X112188061Y-150288061D01*
X112344985Y-150053208D01*
X112386180Y-149846106D01*
X112386180Y-149846105D01*
X112400089Y-149776180D01*
X112386180Y-149706254D01*
X112386180Y-136043746D01*
X112400089Y-135973820D01*
X116202451Y-135973820D01*
X116216361Y-136043751D01*
X116216360Y-149719024D01*
X116204991Y-149776180D01*
X116216360Y-149833336D01*
X116216360Y-149846105D01*
X116257555Y-150053207D01*
X116414479Y-150288060D01*
X116649332Y-150444985D01*
X116926360Y-150500089D01*
X116996285Y-150486180D01*
X130658795Y-150486180D01*
X130728720Y-150500089D01*
X131005748Y-150444985D01*
X131240601Y-150288061D01*
X131397525Y-150053208D01*
X131438720Y-149846106D01*
X131438720Y-149846105D01*
X131452629Y-149776180D01*
X131438720Y-149706254D01*
X131438720Y-136043746D01*
X131452629Y-135973820D01*
X131397525Y-135696792D01*
X131240601Y-135461939D01*
X131005748Y-135305015D01*
X130798646Y-135263820D01*
X130798645Y-135263820D01*
X130728720Y-135249911D01*
X130658794Y-135263820D01*
X116996286Y-135263820D01*
X116926360Y-135249911D01*
X116856435Y-135263820D01*
X116856434Y-135263820D01*
X116649332Y-135305015D01*
X116414479Y-135461939D01*
X116257555Y-135696792D01*
X116202451Y-135973820D01*
X112400089Y-135973820D01*
X112344985Y-135696792D01*
X112188061Y-135461939D01*
X111953208Y-135305015D01*
X111746106Y-135263820D01*
X111746105Y-135263820D01*
X111676180Y-135249911D01*
X111606254Y-135263820D01*
X110974947Y-135263820D01*
X111495741Y-134743026D01*
X111836000Y-133921569D01*
X111836000Y-133032431D01*
X111495741Y-132210974D01*
X110867026Y-131582259D01*
X110514360Y-131436180D01*
X111606255Y-131436180D01*
X111676180Y-131450089D01*
X111953208Y-131394985D01*
X112188061Y-131238061D01*
X112344985Y-131003208D01*
X112386180Y-130796106D01*
X112386180Y-130796105D01*
X112400089Y-130726180D01*
X112386180Y-130656254D01*
X112386180Y-116993746D01*
X112400089Y-116923820D01*
X116202451Y-116923820D01*
X116216361Y-116993751D01*
X116216360Y-130669024D01*
X116204991Y-130726180D01*
X116216360Y-130783336D01*
X116216360Y-130796105D01*
X116257555Y-131003207D01*
X116414479Y-131238060D01*
X116649332Y-131394985D01*
X116926360Y-131450089D01*
X116996285Y-131436180D01*
X130658795Y-131436180D01*
X130728720Y-131450089D01*
X131005748Y-131394985D01*
X131240601Y-131238061D01*
X131397525Y-131003208D01*
X131438720Y-130796106D01*
X131438720Y-130796105D01*
X131452629Y-130726180D01*
X131438720Y-130656254D01*
X131438720Y-116993746D01*
X131452629Y-116923820D01*
X135252451Y-116923820D01*
X135266361Y-116993751D01*
X135266360Y-130669024D01*
X135254991Y-130726180D01*
X135266360Y-130783336D01*
X135266360Y-130796105D01*
X135307555Y-131003207D01*
X135464479Y-131238060D01*
X135699332Y-131394985D01*
X135976360Y-131450089D01*
X136046285Y-131436180D01*
X146787640Y-131436180D01*
X146434974Y-131582259D01*
X145806259Y-132210974D01*
X145466000Y-133032431D01*
X145466000Y-133921569D01*
X145806259Y-134743026D01*
X146327053Y-135263820D01*
X136046286Y-135263820D01*
X135976360Y-135249911D01*
X135906435Y-135263820D01*
X135906434Y-135263820D01*
X135699332Y-135305015D01*
X135464479Y-135461939D01*
X135307555Y-135696792D01*
X135252451Y-135973820D01*
X135266361Y-136043751D01*
X135266360Y-149719024D01*
X135254991Y-149776180D01*
X135266360Y-149833336D01*
X135266360Y-149846105D01*
X135307555Y-150053207D01*
X135464479Y-150288060D01*
X135699332Y-150444985D01*
X135976360Y-150500089D01*
X136046285Y-150486180D01*
X149708795Y-150486180D01*
X149778720Y-150500089D01*
X150055748Y-150444985D01*
X150290601Y-150288061D01*
X150447525Y-150053208D01*
X150488720Y-149846106D01*
X150488720Y-149846105D01*
X150502629Y-149776180D01*
X150488720Y-149706254D01*
X150488720Y-136043746D01*
X150502629Y-135973820D01*
X150447525Y-135696792D01*
X150290601Y-135461939D01*
X150055748Y-135305015D01*
X149848646Y-135263820D01*
X149848645Y-135263820D01*
X149778720Y-135249911D01*
X149708794Y-135263820D01*
X149074947Y-135263820D01*
X149595741Y-134743026D01*
X149936000Y-133921569D01*
X149936000Y-133032431D01*
X149595741Y-132210974D01*
X148967026Y-131582259D01*
X148614360Y-131436180D01*
X149708795Y-131436180D01*
X149778720Y-131450089D01*
X150055748Y-131394985D01*
X150290601Y-131238061D01*
X150447525Y-131003208D01*
X150488720Y-130796106D01*
X150488720Y-130796105D01*
X150502629Y-130726180D01*
X150488720Y-130656254D01*
X150488720Y-116993746D01*
X150502629Y-116923820D01*
X150447525Y-116646792D01*
X150290601Y-116411939D01*
X150055748Y-116255015D01*
X149848646Y-116213820D01*
X149848645Y-116213820D01*
X149778720Y-116199911D01*
X149708794Y-116213820D01*
X136046286Y-116213820D01*
X135976360Y-116199911D01*
X135906435Y-116213820D01*
X135906434Y-116213820D01*
X135699332Y-116255015D01*
X135464479Y-116411939D01*
X135307555Y-116646792D01*
X135252451Y-116923820D01*
X131452629Y-116923820D01*
X131397525Y-116646792D01*
X131240601Y-116411939D01*
X131005748Y-116255015D01*
X130798646Y-116213820D01*
X130798645Y-116213820D01*
X130728720Y-116199911D01*
X130658794Y-116213820D01*
X116996286Y-116213820D01*
X116926360Y-116199911D01*
X116856435Y-116213820D01*
X116856434Y-116213820D01*
X116649332Y-116255015D01*
X116414479Y-116411939D01*
X116257555Y-116646792D01*
X116202451Y-116923820D01*
X112400089Y-116923820D01*
X112344985Y-116646792D01*
X112188061Y-116411939D01*
X111953208Y-116255015D01*
X111746106Y-116213820D01*
X111746105Y-116213820D01*
X111676180Y-116199911D01*
X111606254Y-116213820D01*
X97943746Y-116213820D01*
X97873820Y-116199911D01*
X97803895Y-116213820D01*
X97803894Y-116213820D01*
X97596792Y-116255015D01*
X97361939Y-116411939D01*
X97205015Y-116646792D01*
X97149911Y-116923820D01*
X93350089Y-116923820D01*
X93294985Y-116646792D01*
X93138061Y-116411939D01*
X92903208Y-116255015D01*
X92696106Y-116213820D01*
X92696105Y-116213820D01*
X92626180Y-116199911D01*
X92556254Y-116213820D01*
X78893746Y-116213820D01*
X78823820Y-116199911D01*
X78753895Y-116213820D01*
X78753894Y-116213820D01*
X78546792Y-116255015D01*
X78311939Y-116411939D01*
X78155015Y-116646792D01*
X78099911Y-116923820D01*
X76910000Y-116923820D01*
X76910000Y-78823820D01*
X78097371Y-78823820D01*
X78111281Y-78893751D01*
X78111280Y-92569024D01*
X78099911Y-92626180D01*
X78111280Y-92683336D01*
X78111280Y-92696105D01*
X78152475Y-92903207D01*
X78309399Y-93138060D01*
X78544252Y-93294985D01*
X78821280Y-93350089D01*
X78891205Y-93336180D01*
X80112640Y-93336180D01*
X79759974Y-93482259D01*
X79131259Y-94110974D01*
X78791000Y-94932431D01*
X78791000Y-95821569D01*
X79131259Y-96643026D01*
X79652053Y-97163820D01*
X78891206Y-97163820D01*
X78821280Y-97149911D01*
X78751355Y-97163820D01*
X78751354Y-97163820D01*
X78544252Y-97205015D01*
X78309399Y-97361939D01*
X78152475Y-97596792D01*
X78097371Y-97873820D01*
X78111281Y-97943751D01*
X78111280Y-111619024D01*
X78099911Y-111676180D01*
X78111280Y-111733336D01*
X78111280Y-111746105D01*
X78152475Y-111953207D01*
X78309399Y-112188060D01*
X78544252Y-112344985D01*
X78821280Y-112400089D01*
X78891205Y-112386180D01*
X92553715Y-112386180D01*
X92623640Y-112400089D01*
X92900668Y-112344985D01*
X93135521Y-112188061D01*
X93292445Y-111953208D01*
X93333640Y-111746106D01*
X93333640Y-111746105D01*
X93347549Y-111676180D01*
X93333640Y-111606254D01*
X93333640Y-97943746D01*
X93347549Y-97873820D01*
X97147371Y-97873820D01*
X97161281Y-97943751D01*
X97161280Y-111619024D01*
X97149911Y-111676180D01*
X97161280Y-111733336D01*
X97161280Y-111746105D01*
X97202475Y-111953207D01*
X97359399Y-112188060D01*
X97594252Y-112344985D01*
X97871280Y-112400089D01*
X97941205Y-112386180D01*
X111603715Y-112386180D01*
X111673640Y-112400089D01*
X111950668Y-112344985D01*
X112185521Y-112188061D01*
X112342445Y-111953208D01*
X112383640Y-111746106D01*
X112383640Y-111746105D01*
X112397549Y-111676180D01*
X112383640Y-111606254D01*
X112383640Y-97943746D01*
X112397549Y-97873820D01*
X112342445Y-97596792D01*
X112185521Y-97361939D01*
X111950668Y-97205015D01*
X111743566Y-97163820D01*
X111743565Y-97163820D01*
X111673640Y-97149911D01*
X111603714Y-97163820D01*
X97941206Y-97163820D01*
X97871280Y-97149911D01*
X97801355Y-97163820D01*
X97801354Y-97163820D01*
X97594252Y-97205015D01*
X97359399Y-97361939D01*
X97202475Y-97596792D01*
X97147371Y-97873820D01*
X93347549Y-97873820D01*
X93292445Y-97596792D01*
X93135521Y-97361939D01*
X92900668Y-97205015D01*
X92693566Y-97163820D01*
X92693565Y-97163820D01*
X92623640Y-97149911D01*
X92553714Y-97163820D01*
X82399947Y-97163820D01*
X82920741Y-96643026D01*
X83261000Y-95821569D01*
X83261000Y-94932431D01*
X82920741Y-94110974D01*
X82292026Y-93482259D01*
X81939360Y-93336180D01*
X92553715Y-93336180D01*
X92623640Y-93350089D01*
X92900668Y-93294985D01*
X93135521Y-93138061D01*
X93292445Y-92903208D01*
X93333640Y-92696106D01*
X93333640Y-92696105D01*
X93347549Y-92626180D01*
X93333640Y-92556254D01*
X93333640Y-78893746D01*
X93347549Y-78823820D01*
X97147371Y-78823820D01*
X97161281Y-78893751D01*
X97161280Y-92569024D01*
X97149911Y-92626180D01*
X97161280Y-92683336D01*
X97161280Y-92696105D01*
X97202475Y-92903207D01*
X97359399Y-93138060D01*
X97594252Y-93294985D01*
X97871280Y-93350089D01*
X97941205Y-93336180D01*
X111603715Y-93336180D01*
X111673640Y-93350089D01*
X111950668Y-93294985D01*
X112185521Y-93138061D01*
X112342445Y-92903208D01*
X112383640Y-92696106D01*
X112383640Y-92696105D01*
X112397549Y-92626180D01*
X112383640Y-92556254D01*
X112383640Y-78893746D01*
X112397549Y-78823820D01*
X116199911Y-78823820D01*
X116213821Y-78893751D01*
X116213820Y-92569024D01*
X116202451Y-92626180D01*
X116213820Y-92683336D01*
X116213820Y-92696105D01*
X116255015Y-92903207D01*
X116411939Y-93138060D01*
X116646792Y-93294985D01*
X116923820Y-93350089D01*
X116993745Y-93336180D01*
X118212640Y-93336180D01*
X117859974Y-93482259D01*
X117231259Y-94110974D01*
X116891000Y-94932431D01*
X116891000Y-95821569D01*
X117231259Y-96643026D01*
X117752053Y-97163820D01*
X116993746Y-97163820D01*
X116923820Y-97149911D01*
X116853895Y-97163820D01*
X116853894Y-97163820D01*
X116646792Y-97205015D01*
X116411939Y-97361939D01*
X116255015Y-97596792D01*
X116199911Y-97873820D01*
X116213821Y-97943751D01*
X116213820Y-111619024D01*
X116202451Y-111676180D01*
X116213820Y-111733336D01*
X116213820Y-111746105D01*
X116255015Y-111953207D01*
X116411939Y-112188060D01*
X116646792Y-112344985D01*
X116923820Y-112400089D01*
X116993745Y-112386180D01*
X130656255Y-112386180D01*
X130726180Y-112400089D01*
X131003208Y-112344985D01*
X131238061Y-112188061D01*
X131394985Y-111953208D01*
X131436180Y-111746106D01*
X131436180Y-111746105D01*
X131450089Y-111676180D01*
X131436180Y-111606254D01*
X131436180Y-97943746D01*
X131450089Y-97873820D01*
X131394985Y-97596792D01*
X131238061Y-97361939D01*
X131003208Y-97205015D01*
X130796106Y-97163820D01*
X130796105Y-97163820D01*
X130726180Y-97149911D01*
X130656254Y-97163820D01*
X120499947Y-97163820D01*
X121020741Y-96643026D01*
X121361000Y-95821569D01*
X121361000Y-94932431D01*
X121020741Y-94110974D01*
X120392026Y-93482259D01*
X120039360Y-93336180D01*
X130656255Y-93336180D01*
X130726180Y-93350089D01*
X131003208Y-93294985D01*
X131238061Y-93138061D01*
X131394985Y-92903208D01*
X131436180Y-92696106D01*
X131436180Y-92696105D01*
X131450089Y-92626180D01*
X131436180Y-92556254D01*
X131436180Y-78893746D01*
X131450089Y-78823820D01*
X135249911Y-78823820D01*
X135263821Y-78893751D01*
X135263820Y-92569024D01*
X135252451Y-92626180D01*
X135263820Y-92683336D01*
X135263820Y-92696105D01*
X135305015Y-92903207D01*
X135461939Y-93138060D01*
X135696792Y-93294985D01*
X135973820Y-93350089D01*
X136043745Y-93336180D01*
X146787640Y-93336180D01*
X146434974Y-93482259D01*
X145806259Y-94110974D01*
X145466000Y-94932431D01*
X145466000Y-95821569D01*
X145806259Y-96643026D01*
X146327053Y-97163820D01*
X136043746Y-97163820D01*
X135973820Y-97149911D01*
X135903895Y-97163820D01*
X135903894Y-97163820D01*
X135696792Y-97205015D01*
X135461939Y-97361939D01*
X135305015Y-97596792D01*
X135249911Y-97873820D01*
X135263821Y-97943751D01*
X135263820Y-111619024D01*
X135252451Y-111676180D01*
X135263820Y-111733336D01*
X135263820Y-111746105D01*
X135305015Y-111953207D01*
X135461939Y-112188060D01*
X135696792Y-112344985D01*
X135973820Y-112400089D01*
X136043745Y-112386180D01*
X149706255Y-112386180D01*
X149776180Y-112400089D01*
X150053208Y-112344985D01*
X150288061Y-112188061D01*
X150444985Y-111953208D01*
X150486180Y-111746106D01*
X150486180Y-111746105D01*
X150500089Y-111676180D01*
X150486180Y-111606254D01*
X150486180Y-97943746D01*
X150500089Y-97873820D01*
X150444985Y-97596792D01*
X150288061Y-97361939D01*
X150053208Y-97205015D01*
X149846106Y-97163820D01*
X149846105Y-97163820D01*
X149776180Y-97149911D01*
X149706254Y-97163820D01*
X149074947Y-97163820D01*
X149595741Y-96643026D01*
X149936000Y-95821569D01*
X149936000Y-94932431D01*
X149595741Y-94110974D01*
X148967026Y-93482259D01*
X148614360Y-93336180D01*
X149706255Y-93336180D01*
X149776180Y-93350089D01*
X150053208Y-93294985D01*
X150288061Y-93138061D01*
X150444985Y-92903208D01*
X150486180Y-92696106D01*
X150486180Y-92696105D01*
X150500089Y-92626180D01*
X150486180Y-92556254D01*
X150486180Y-78893746D01*
X150500089Y-78823820D01*
X150444985Y-78546792D01*
X150288061Y-78311939D01*
X150053208Y-78155015D01*
X149846106Y-78113820D01*
X149846105Y-78113820D01*
X149776180Y-78099911D01*
X149706254Y-78113820D01*
X136043746Y-78113820D01*
X135973820Y-78099911D01*
X135903895Y-78113820D01*
X135903894Y-78113820D01*
X135696792Y-78155015D01*
X135461939Y-78311939D01*
X135305015Y-78546792D01*
X135249911Y-78823820D01*
X131450089Y-78823820D01*
X131394985Y-78546792D01*
X131238061Y-78311939D01*
X131003208Y-78155015D01*
X130796106Y-78113820D01*
X130796105Y-78113820D01*
X130726180Y-78099911D01*
X130656254Y-78113820D01*
X116993746Y-78113820D01*
X116923820Y-78099911D01*
X116853895Y-78113820D01*
X116853894Y-78113820D01*
X116646792Y-78155015D01*
X116411939Y-78311939D01*
X116255015Y-78546792D01*
X116199911Y-78823820D01*
X112397549Y-78823820D01*
X112342445Y-78546792D01*
X112185521Y-78311939D01*
X111950668Y-78155015D01*
X111743566Y-78113820D01*
X111743565Y-78113820D01*
X111673640Y-78099911D01*
X111603714Y-78113820D01*
X97941206Y-78113820D01*
X97871280Y-78099911D01*
X97801355Y-78113820D01*
X97801354Y-78113820D01*
X97594252Y-78155015D01*
X97359399Y-78311939D01*
X97202475Y-78546792D01*
X97147371Y-78823820D01*
X93347549Y-78823820D01*
X93292445Y-78546792D01*
X93135521Y-78311939D01*
X92900668Y-78155015D01*
X92693566Y-78113820D01*
X92693565Y-78113820D01*
X92623640Y-78099911D01*
X92553714Y-78113820D01*
X78891206Y-78113820D01*
X78821280Y-78099911D01*
X78751355Y-78113820D01*
X78751354Y-78113820D01*
X78544252Y-78155015D01*
X78309399Y-78311939D01*
X78152475Y-78546792D01*
X78097371Y-78823820D01*
X76910000Y-78823820D01*
X76910000Y-76910000D01*
X151690001Y-76910000D01*
X151690000Y-151690000D01*
X151690000Y-151690000D01*
G37*
X151690000Y-151690000D02*
X76910000Y-151690000D01*
X76910000Y-116923820D01*
X78099911Y-116923820D01*
X78113821Y-116993751D01*
X78113820Y-130669024D01*
X78102451Y-130726180D01*
X78113820Y-130783336D01*
X78113820Y-130796105D01*
X78155015Y-131003207D01*
X78311939Y-131238060D01*
X78546792Y-131394985D01*
X78823820Y-131450089D01*
X78893745Y-131436180D01*
X80112640Y-131436180D01*
X79759974Y-131582259D01*
X79131259Y-132210974D01*
X78791000Y-133032431D01*
X78791000Y-133921569D01*
X79131259Y-134743026D01*
X79652053Y-135263820D01*
X78893746Y-135263820D01*
X78823820Y-135249911D01*
X78753895Y-135263820D01*
X78753894Y-135263820D01*
X78546792Y-135305015D01*
X78311939Y-135461939D01*
X78155015Y-135696792D01*
X78099911Y-135973820D01*
X78113821Y-136043751D01*
X78113820Y-149719024D01*
X78102451Y-149776180D01*
X78113820Y-149833336D01*
X78113820Y-149846105D01*
X78155015Y-150053207D01*
X78311939Y-150288060D01*
X78546792Y-150444985D01*
X78823820Y-150500089D01*
X78893745Y-150486180D01*
X92556255Y-150486180D01*
X92626180Y-150500089D01*
X92903208Y-150444985D01*
X93138061Y-150288061D01*
X93294985Y-150053208D01*
X93336180Y-149846106D01*
X93336180Y-149846105D01*
X93350089Y-149776180D01*
X93336180Y-149706254D01*
X93336180Y-136043746D01*
X93350089Y-135973820D01*
X93294985Y-135696792D01*
X93138061Y-135461939D01*
X92903208Y-135305015D01*
X92696106Y-135263820D01*
X92696105Y-135263820D01*
X92626180Y-135249911D01*
X92556254Y-135263820D01*
X82399947Y-135263820D01*
X82920741Y-134743026D01*
X83261000Y-133921569D01*
X83261000Y-133032431D01*
X82920741Y-132210974D01*
X82292026Y-131582259D01*
X81939360Y-131436180D01*
X92556255Y-131436180D01*
X92626180Y-131450089D01*
X92903208Y-131394985D01*
X93138061Y-131238061D01*
X93294985Y-131003208D01*
X93336180Y-130796106D01*
X93336180Y-130796105D01*
X93350089Y-130726180D01*
X93336180Y-130656254D01*
X93336180Y-116993746D01*
X93350089Y-116923820D01*
X97149911Y-116923820D01*
X97163821Y-116993751D01*
X97163820Y-130669024D01*
X97152451Y-130726180D01*
X97163820Y-130783336D01*
X97163820Y-130796105D01*
X97205015Y-131003207D01*
X97361939Y-131238060D01*
X97596792Y-131394985D01*
X97873820Y-131450089D01*
X97943745Y-131436180D01*
X108687640Y-131436180D01*
X108334974Y-131582259D01*
X107706259Y-132210974D01*
X107366000Y-133032431D01*
X107366000Y-133921569D01*
X107706259Y-134743026D01*
X108227053Y-135263820D01*
X97943746Y-135263820D01*
X97873820Y-135249911D01*
X97803895Y-135263820D01*
X97803894Y-135263820D01*
X97596792Y-135305015D01*
X97361939Y-135461939D01*
X97205015Y-135696792D01*
X97149911Y-135973820D01*
X97163821Y-136043751D01*
X97163820Y-149719024D01*
X97152451Y-149776180D01*
X97163820Y-149833336D01*
X97163820Y-149846105D01*
X97205015Y-150053207D01*
X97361939Y-150288060D01*
X97596792Y-150444985D01*
X97873820Y-150500089D01*
X97943745Y-150486180D01*
X111606255Y-150486180D01*
X111676180Y-150500089D01*
X111953208Y-150444985D01*
X112188061Y-150288061D01*
X112344985Y-150053208D01*
X112386180Y-149846106D01*
X112386180Y-149846105D01*
X112400089Y-149776180D01*
X112386180Y-149706254D01*
X112386180Y-136043746D01*
X112400089Y-135973820D01*
X116202451Y-135973820D01*
X116216361Y-136043751D01*
X116216360Y-149719024D01*
X116204991Y-149776180D01*
X116216360Y-149833336D01*
X116216360Y-149846105D01*
X116257555Y-150053207D01*
X116414479Y-150288060D01*
X116649332Y-150444985D01*
X116926360Y-150500089D01*
X116996285Y-150486180D01*
X130658795Y-150486180D01*
X130728720Y-150500089D01*
X131005748Y-150444985D01*
X131240601Y-150288061D01*
X131397525Y-150053208D01*
X131438720Y-149846106D01*
X131438720Y-149846105D01*
X131452629Y-149776180D01*
X131438720Y-149706254D01*
X131438720Y-136043746D01*
X131452629Y-135973820D01*
X131397525Y-135696792D01*
X131240601Y-135461939D01*
X131005748Y-135305015D01*
X130798646Y-135263820D01*
X130798645Y-135263820D01*
X130728720Y-135249911D01*
X130658794Y-135263820D01*
X116996286Y-135263820D01*
X116926360Y-135249911D01*
X116856435Y-135263820D01*
X116856434Y-135263820D01*
X116649332Y-135305015D01*
X116414479Y-135461939D01*
X116257555Y-135696792D01*
X116202451Y-135973820D01*
X112400089Y-135973820D01*
X112344985Y-135696792D01*
X112188061Y-135461939D01*
X111953208Y-135305015D01*
X111746106Y-135263820D01*
X111746105Y-135263820D01*
X111676180Y-135249911D01*
X111606254Y-135263820D01*
X110974947Y-135263820D01*
X111495741Y-134743026D01*
X111836000Y-133921569D01*
X111836000Y-133032431D01*
X111495741Y-132210974D01*
X110867026Y-131582259D01*
X110514360Y-131436180D01*
X111606255Y-131436180D01*
X111676180Y-131450089D01*
X111953208Y-131394985D01*
X112188061Y-131238061D01*
X112344985Y-131003208D01*
X112386180Y-130796106D01*
X112386180Y-130796105D01*
X112400089Y-130726180D01*
X112386180Y-130656254D01*
X112386180Y-116993746D01*
X112400089Y-116923820D01*
X116202451Y-116923820D01*
X116216361Y-116993751D01*
X116216360Y-130669024D01*
X116204991Y-130726180D01*
X116216360Y-130783336D01*
X116216360Y-130796105D01*
X116257555Y-131003207D01*
X116414479Y-131238060D01*
X116649332Y-131394985D01*
X116926360Y-131450089D01*
X116996285Y-131436180D01*
X130658795Y-131436180D01*
X130728720Y-131450089D01*
X131005748Y-131394985D01*
X131240601Y-131238061D01*
X131397525Y-131003208D01*
X131438720Y-130796106D01*
X131438720Y-130796105D01*
X131452629Y-130726180D01*
X131438720Y-130656254D01*
X131438720Y-116993746D01*
X131452629Y-116923820D01*
X135252451Y-116923820D01*
X135266361Y-116993751D01*
X135266360Y-130669024D01*
X135254991Y-130726180D01*
X135266360Y-130783336D01*
X135266360Y-130796105D01*
X135307555Y-131003207D01*
X135464479Y-131238060D01*
X135699332Y-131394985D01*
X135976360Y-131450089D01*
X136046285Y-131436180D01*
X146787640Y-131436180D01*
X146434974Y-131582259D01*
X145806259Y-132210974D01*
X145466000Y-133032431D01*
X145466000Y-133921569D01*
X145806259Y-134743026D01*
X146327053Y-135263820D01*
X136046286Y-135263820D01*
X135976360Y-135249911D01*
X135906435Y-135263820D01*
X135906434Y-135263820D01*
X135699332Y-135305015D01*
X135464479Y-135461939D01*
X135307555Y-135696792D01*
X135252451Y-135973820D01*
X135266361Y-136043751D01*
X135266360Y-149719024D01*
X135254991Y-149776180D01*
X135266360Y-149833336D01*
X135266360Y-149846105D01*
X135307555Y-150053207D01*
X135464479Y-150288060D01*
X135699332Y-150444985D01*
X135976360Y-150500089D01*
X136046285Y-150486180D01*
X149708795Y-150486180D01*
X149778720Y-150500089D01*
X150055748Y-150444985D01*
X150290601Y-150288061D01*
X150447525Y-150053208D01*
X150488720Y-149846106D01*
X150488720Y-149846105D01*
X150502629Y-149776180D01*
X150488720Y-149706254D01*
X150488720Y-136043746D01*
X150502629Y-135973820D01*
X150447525Y-135696792D01*
X150290601Y-135461939D01*
X150055748Y-135305015D01*
X149848646Y-135263820D01*
X149848645Y-135263820D01*
X149778720Y-135249911D01*
X149708794Y-135263820D01*
X149074947Y-135263820D01*
X149595741Y-134743026D01*
X149936000Y-133921569D01*
X149936000Y-133032431D01*
X149595741Y-132210974D01*
X148967026Y-131582259D01*
X148614360Y-131436180D01*
X149708795Y-131436180D01*
X149778720Y-131450089D01*
X150055748Y-131394985D01*
X150290601Y-131238061D01*
X150447525Y-131003208D01*
X150488720Y-130796106D01*
X150488720Y-130796105D01*
X150502629Y-130726180D01*
X150488720Y-130656254D01*
X150488720Y-116993746D01*
X150502629Y-116923820D01*
X150447525Y-116646792D01*
X150290601Y-116411939D01*
X150055748Y-116255015D01*
X149848646Y-116213820D01*
X149848645Y-116213820D01*
X149778720Y-116199911D01*
X149708794Y-116213820D01*
X136046286Y-116213820D01*
X135976360Y-116199911D01*
X135906435Y-116213820D01*
X135906434Y-116213820D01*
X135699332Y-116255015D01*
X135464479Y-116411939D01*
X135307555Y-116646792D01*
X135252451Y-116923820D01*
X131452629Y-116923820D01*
X131397525Y-116646792D01*
X131240601Y-116411939D01*
X131005748Y-116255015D01*
X130798646Y-116213820D01*
X130798645Y-116213820D01*
X130728720Y-116199911D01*
X130658794Y-116213820D01*
X116996286Y-116213820D01*
X116926360Y-116199911D01*
X116856435Y-116213820D01*
X116856434Y-116213820D01*
X116649332Y-116255015D01*
X116414479Y-116411939D01*
X116257555Y-116646792D01*
X116202451Y-116923820D01*
X112400089Y-116923820D01*
X112344985Y-116646792D01*
X112188061Y-116411939D01*
X111953208Y-116255015D01*
X111746106Y-116213820D01*
X111746105Y-116213820D01*
X111676180Y-116199911D01*
X111606254Y-116213820D01*
X97943746Y-116213820D01*
X97873820Y-116199911D01*
X97803895Y-116213820D01*
X97803894Y-116213820D01*
X97596792Y-116255015D01*
X97361939Y-116411939D01*
X97205015Y-116646792D01*
X97149911Y-116923820D01*
X93350089Y-116923820D01*
X93294985Y-116646792D01*
X93138061Y-116411939D01*
X92903208Y-116255015D01*
X92696106Y-116213820D01*
X92696105Y-116213820D01*
X92626180Y-116199911D01*
X92556254Y-116213820D01*
X78893746Y-116213820D01*
X78823820Y-116199911D01*
X78753895Y-116213820D01*
X78753894Y-116213820D01*
X78546792Y-116255015D01*
X78311939Y-116411939D01*
X78155015Y-116646792D01*
X78099911Y-116923820D01*
X76910000Y-116923820D01*
X76910000Y-78823820D01*
X78097371Y-78823820D01*
X78111281Y-78893751D01*
X78111280Y-92569024D01*
X78099911Y-92626180D01*
X78111280Y-92683336D01*
X78111280Y-92696105D01*
X78152475Y-92903207D01*
X78309399Y-93138060D01*
X78544252Y-93294985D01*
X78821280Y-93350089D01*
X78891205Y-93336180D01*
X80112640Y-93336180D01*
X79759974Y-93482259D01*
X79131259Y-94110974D01*
X78791000Y-94932431D01*
X78791000Y-95821569D01*
X79131259Y-96643026D01*
X79652053Y-97163820D01*
X78891206Y-97163820D01*
X78821280Y-97149911D01*
X78751355Y-97163820D01*
X78751354Y-97163820D01*
X78544252Y-97205015D01*
X78309399Y-97361939D01*
X78152475Y-97596792D01*
X78097371Y-97873820D01*
X78111281Y-97943751D01*
X78111280Y-111619024D01*
X78099911Y-111676180D01*
X78111280Y-111733336D01*
X78111280Y-111746105D01*
X78152475Y-111953207D01*
X78309399Y-112188060D01*
X78544252Y-112344985D01*
X78821280Y-112400089D01*
X78891205Y-112386180D01*
X92553715Y-112386180D01*
X92623640Y-112400089D01*
X92900668Y-112344985D01*
X93135521Y-112188061D01*
X93292445Y-111953208D01*
X93333640Y-111746106D01*
X93333640Y-111746105D01*
X93347549Y-111676180D01*
X93333640Y-111606254D01*
X93333640Y-97943746D01*
X93347549Y-97873820D01*
X97147371Y-97873820D01*
X97161281Y-97943751D01*
X97161280Y-111619024D01*
X97149911Y-111676180D01*
X97161280Y-111733336D01*
X97161280Y-111746105D01*
X97202475Y-111953207D01*
X97359399Y-112188060D01*
X97594252Y-112344985D01*
X97871280Y-112400089D01*
X97941205Y-112386180D01*
X111603715Y-112386180D01*
X111673640Y-112400089D01*
X111950668Y-112344985D01*
X112185521Y-112188061D01*
X112342445Y-111953208D01*
X112383640Y-111746106D01*
X112383640Y-111746105D01*
X112397549Y-111676180D01*
X112383640Y-111606254D01*
X112383640Y-97943746D01*
X112397549Y-97873820D01*
X112342445Y-97596792D01*
X112185521Y-97361939D01*
X111950668Y-97205015D01*
X111743566Y-97163820D01*
X111743565Y-97163820D01*
X111673640Y-97149911D01*
X111603714Y-97163820D01*
X97941206Y-97163820D01*
X97871280Y-97149911D01*
X97801355Y-97163820D01*
X97801354Y-97163820D01*
X97594252Y-97205015D01*
X97359399Y-97361939D01*
X97202475Y-97596792D01*
X97147371Y-97873820D01*
X93347549Y-97873820D01*
X93292445Y-97596792D01*
X93135521Y-97361939D01*
X92900668Y-97205015D01*
X92693566Y-97163820D01*
X92693565Y-97163820D01*
X92623640Y-97149911D01*
X92553714Y-97163820D01*
X82399947Y-97163820D01*
X82920741Y-96643026D01*
X83261000Y-95821569D01*
X83261000Y-94932431D01*
X82920741Y-94110974D01*
X82292026Y-93482259D01*
X81939360Y-93336180D01*
X92553715Y-93336180D01*
X92623640Y-93350089D01*
X92900668Y-93294985D01*
X93135521Y-93138061D01*
X93292445Y-92903208D01*
X93333640Y-92696106D01*
X93333640Y-92696105D01*
X93347549Y-92626180D01*
X93333640Y-92556254D01*
X93333640Y-78893746D01*
X93347549Y-78823820D01*
X97147371Y-78823820D01*
X97161281Y-78893751D01*
X97161280Y-92569024D01*
X97149911Y-92626180D01*
X97161280Y-92683336D01*
X97161280Y-92696105D01*
X97202475Y-92903207D01*
X97359399Y-93138060D01*
X97594252Y-93294985D01*
X97871280Y-93350089D01*
X97941205Y-93336180D01*
X111603715Y-93336180D01*
X111673640Y-93350089D01*
X111950668Y-93294985D01*
X112185521Y-93138061D01*
X112342445Y-92903208D01*
X112383640Y-92696106D01*
X112383640Y-92696105D01*
X112397549Y-92626180D01*
X112383640Y-92556254D01*
X112383640Y-78893746D01*
X112397549Y-78823820D01*
X116199911Y-78823820D01*
X116213821Y-78893751D01*
X116213820Y-92569024D01*
X116202451Y-92626180D01*
X116213820Y-92683336D01*
X116213820Y-92696105D01*
X116255015Y-92903207D01*
X116411939Y-93138060D01*
X116646792Y-93294985D01*
X116923820Y-93350089D01*
X116993745Y-93336180D01*
X118212640Y-93336180D01*
X117859974Y-93482259D01*
X117231259Y-94110974D01*
X116891000Y-94932431D01*
X116891000Y-95821569D01*
X117231259Y-96643026D01*
X117752053Y-97163820D01*
X116993746Y-97163820D01*
X116923820Y-97149911D01*
X116853895Y-97163820D01*
X116853894Y-97163820D01*
X116646792Y-97205015D01*
X116411939Y-97361939D01*
X116255015Y-97596792D01*
X116199911Y-97873820D01*
X116213821Y-97943751D01*
X116213820Y-111619024D01*
X116202451Y-111676180D01*
X116213820Y-111733336D01*
X116213820Y-111746105D01*
X116255015Y-111953207D01*
X116411939Y-112188060D01*
X116646792Y-112344985D01*
X116923820Y-112400089D01*
X116993745Y-112386180D01*
X130656255Y-112386180D01*
X130726180Y-112400089D01*
X131003208Y-112344985D01*
X131238061Y-112188061D01*
X131394985Y-111953208D01*
X131436180Y-111746106D01*
X131436180Y-111746105D01*
X131450089Y-111676180D01*
X131436180Y-111606254D01*
X131436180Y-97943746D01*
X131450089Y-97873820D01*
X131394985Y-97596792D01*
X131238061Y-97361939D01*
X131003208Y-97205015D01*
X130796106Y-97163820D01*
X130796105Y-97163820D01*
X130726180Y-97149911D01*
X130656254Y-97163820D01*
X120499947Y-97163820D01*
X121020741Y-96643026D01*
X121361000Y-95821569D01*
X121361000Y-94932431D01*
X121020741Y-94110974D01*
X120392026Y-93482259D01*
X120039360Y-93336180D01*
X130656255Y-93336180D01*
X130726180Y-93350089D01*
X131003208Y-93294985D01*
X131238061Y-93138061D01*
X131394985Y-92903208D01*
X131436180Y-92696106D01*
X131436180Y-92696105D01*
X131450089Y-92626180D01*
X131436180Y-92556254D01*
X131436180Y-78893746D01*
X131450089Y-78823820D01*
X135249911Y-78823820D01*
X135263821Y-78893751D01*
X135263820Y-92569024D01*
X135252451Y-92626180D01*
X135263820Y-92683336D01*
X135263820Y-92696105D01*
X135305015Y-92903207D01*
X135461939Y-93138060D01*
X135696792Y-93294985D01*
X135973820Y-93350089D01*
X136043745Y-93336180D01*
X146787640Y-93336180D01*
X146434974Y-93482259D01*
X145806259Y-94110974D01*
X145466000Y-94932431D01*
X145466000Y-95821569D01*
X145806259Y-96643026D01*
X146327053Y-97163820D01*
X136043746Y-97163820D01*
X135973820Y-97149911D01*
X135903895Y-97163820D01*
X135903894Y-97163820D01*
X135696792Y-97205015D01*
X135461939Y-97361939D01*
X135305015Y-97596792D01*
X135249911Y-97873820D01*
X135263821Y-97943751D01*
X135263820Y-111619024D01*
X135252451Y-111676180D01*
X135263820Y-111733336D01*
X135263820Y-111746105D01*
X135305015Y-111953207D01*
X135461939Y-112188060D01*
X135696792Y-112344985D01*
X135973820Y-112400089D01*
X136043745Y-112386180D01*
X149706255Y-112386180D01*
X149776180Y-112400089D01*
X150053208Y-112344985D01*
X150288061Y-112188061D01*
X150444985Y-111953208D01*
X150486180Y-111746106D01*
X150486180Y-111746105D01*
X150500089Y-111676180D01*
X150486180Y-111606254D01*
X150486180Y-97943746D01*
X150500089Y-97873820D01*
X150444985Y-97596792D01*
X150288061Y-97361939D01*
X150053208Y-97205015D01*
X149846106Y-97163820D01*
X149846105Y-97163820D01*
X149776180Y-97149911D01*
X149706254Y-97163820D01*
X149074947Y-97163820D01*
X149595741Y-96643026D01*
X149936000Y-95821569D01*
X149936000Y-94932431D01*
X149595741Y-94110974D01*
X148967026Y-93482259D01*
X148614360Y-93336180D01*
X149706255Y-93336180D01*
X149776180Y-93350089D01*
X150053208Y-93294985D01*
X150288061Y-93138061D01*
X150444985Y-92903208D01*
X150486180Y-92696106D01*
X150486180Y-92696105D01*
X150500089Y-92626180D01*
X150486180Y-92556254D01*
X150486180Y-78893746D01*
X150500089Y-78823820D01*
X150444985Y-78546792D01*
X150288061Y-78311939D01*
X150053208Y-78155015D01*
X149846106Y-78113820D01*
X149846105Y-78113820D01*
X149776180Y-78099911D01*
X149706254Y-78113820D01*
X136043746Y-78113820D01*
X135973820Y-78099911D01*
X135903895Y-78113820D01*
X135903894Y-78113820D01*
X135696792Y-78155015D01*
X135461939Y-78311939D01*
X135305015Y-78546792D01*
X135249911Y-78823820D01*
X131450089Y-78823820D01*
X131394985Y-78546792D01*
X131238061Y-78311939D01*
X131003208Y-78155015D01*
X130796106Y-78113820D01*
X130796105Y-78113820D01*
X130726180Y-78099911D01*
X130656254Y-78113820D01*
X116993746Y-78113820D01*
X116923820Y-78099911D01*
X116853895Y-78113820D01*
X116853894Y-78113820D01*
X116646792Y-78155015D01*
X116411939Y-78311939D01*
X116255015Y-78546792D01*
X116199911Y-78823820D01*
X112397549Y-78823820D01*
X112342445Y-78546792D01*
X112185521Y-78311939D01*
X111950668Y-78155015D01*
X111743566Y-78113820D01*
X111743565Y-78113820D01*
X111673640Y-78099911D01*
X111603714Y-78113820D01*
X97941206Y-78113820D01*
X97871280Y-78099911D01*
X97801355Y-78113820D01*
X97801354Y-78113820D01*
X97594252Y-78155015D01*
X97359399Y-78311939D01*
X97202475Y-78546792D01*
X97147371Y-78823820D01*
X93347549Y-78823820D01*
X93292445Y-78546792D01*
X93135521Y-78311939D01*
X92900668Y-78155015D01*
X92693566Y-78113820D01*
X92693565Y-78113820D01*
X92623640Y-78099911D01*
X92553714Y-78113820D01*
X78891206Y-78113820D01*
X78821280Y-78099911D01*
X78751355Y-78113820D01*
X78751354Y-78113820D01*
X78544252Y-78155015D01*
X78309399Y-78311939D01*
X78152475Y-78546792D01*
X78097371Y-78823820D01*
X76910000Y-78823820D01*
X76910000Y-76910000D01*
X151690001Y-76910000D01*
X151690000Y-151690000D01*
G36*
X110966181Y-149066180D02*
X98583820Y-149066180D01*
X98583820Y-136683820D01*
X110966180Y-136683820D01*
X110966181Y-149066180D01*
X110966181Y-149066180D01*
G37*
X110966181Y-149066180D02*
X98583820Y-149066180D01*
X98583820Y-136683820D01*
X110966180Y-136683820D01*
X110966181Y-149066180D01*
G36*
X110966181Y-130016180D02*
X98583820Y-130016180D01*
X98583820Y-117633820D01*
X110966180Y-117633820D01*
X110966181Y-130016180D01*
X110966181Y-130016180D01*
G37*
X110966181Y-130016180D02*
X98583820Y-130016180D01*
X98583820Y-117633820D01*
X110966180Y-117633820D01*
X110966181Y-130016180D01*
G36*
X130018721Y-149066180D02*
X117636360Y-149066180D01*
X117636360Y-136683820D01*
X130018720Y-136683820D01*
X130018721Y-149066180D01*
X130018721Y-149066180D01*
G37*
X130018721Y-149066180D02*
X117636360Y-149066180D01*
X117636360Y-136683820D01*
X130018720Y-136683820D01*
X130018721Y-149066180D01*
G36*
X91916181Y-149066180D02*
X79533820Y-149066180D01*
X79533820Y-136683820D01*
X91916180Y-136683820D01*
X91916181Y-149066180D01*
X91916181Y-149066180D01*
G37*
X91916181Y-149066180D02*
X79533820Y-149066180D01*
X79533820Y-136683820D01*
X91916180Y-136683820D01*
X91916181Y-149066180D01*
G36*
X91916181Y-130016180D02*
X79533820Y-130016180D01*
X79533820Y-117633820D01*
X91916180Y-117633820D01*
X91916181Y-130016180D01*
X91916181Y-130016180D01*
G37*
X91916181Y-130016180D02*
X79533820Y-130016180D01*
X79533820Y-117633820D01*
X91916180Y-117633820D01*
X91916181Y-130016180D01*
G36*
X149068721Y-149066180D02*
X136686360Y-149066180D01*
X136686360Y-136683820D01*
X149068720Y-136683820D01*
X149068721Y-149066180D01*
X149068721Y-149066180D01*
G37*
X149068721Y-149066180D02*
X136686360Y-149066180D01*
X136686360Y-136683820D01*
X149068720Y-136683820D01*
X149068721Y-149066180D01*
G36*
X149068721Y-130016180D02*
X136686360Y-130016180D01*
X136686360Y-117633820D01*
X149068720Y-117633820D01*
X149068721Y-130016180D01*
X149068721Y-130016180D01*
G37*
X149068721Y-130016180D02*
X136686360Y-130016180D01*
X136686360Y-117633820D01*
X149068720Y-117633820D01*
X149068721Y-130016180D01*
G36*
X130018721Y-130016180D02*
X117636360Y-130016180D01*
X117636360Y-117633820D01*
X130018720Y-117633820D01*
X130018721Y-130016180D01*
X130018721Y-130016180D01*
G37*
X130018721Y-130016180D02*
X117636360Y-130016180D01*
X117636360Y-117633820D01*
X130018720Y-117633820D01*
X130018721Y-130016180D01*
G36*
X130016181Y-110966180D02*
X117633820Y-110966180D01*
X117633820Y-98583820D01*
X130016180Y-98583820D01*
X130016181Y-110966180D01*
X130016181Y-110966180D01*
G37*
X130016181Y-110966180D02*
X117633820Y-110966180D01*
X117633820Y-98583820D01*
X130016180Y-98583820D01*
X130016181Y-110966180D01*
G36*
X130016181Y-91916180D02*
X117633820Y-91916180D01*
X117633820Y-79533820D01*
X130016180Y-79533820D01*
X130016181Y-91916180D01*
X130016181Y-91916180D01*
G37*
X130016181Y-91916180D02*
X117633820Y-91916180D01*
X117633820Y-79533820D01*
X130016180Y-79533820D01*
X130016181Y-91916180D01*
G36*
X149066181Y-110966180D02*
X136683820Y-110966180D01*
X136683820Y-98583820D01*
X149066180Y-98583820D01*
X149066181Y-110966180D01*
X149066181Y-110966180D01*
G37*
X149066181Y-110966180D02*
X136683820Y-110966180D01*
X136683820Y-98583820D01*
X149066180Y-98583820D01*
X149066181Y-110966180D01*
G36*
X149066181Y-91916180D02*
X136683820Y-91916180D01*
X136683820Y-79533820D01*
X149066180Y-79533820D01*
X149066181Y-91916180D01*
X149066181Y-91916180D01*
G37*
X149066181Y-91916180D02*
X136683820Y-91916180D01*
X136683820Y-79533820D01*
X149066180Y-79533820D01*
X149066181Y-91916180D01*
G36*
X110963641Y-110966180D02*
X98581280Y-110966180D01*
X98581280Y-98583820D01*
X110963640Y-98583820D01*
X110963641Y-110966180D01*
X110963641Y-110966180D01*
G37*
X110963641Y-110966180D02*
X98581280Y-110966180D01*
X98581280Y-98583820D01*
X110963640Y-98583820D01*
X110963641Y-110966180D01*
G36*
X91913641Y-110966180D02*
X79531280Y-110966180D01*
X79531280Y-98583820D01*
X91913640Y-98583820D01*
X91913641Y-110966180D01*
X91913641Y-110966180D01*
G37*
X91913641Y-110966180D02*
X79531280Y-110966180D01*
X79531280Y-98583820D01*
X91913640Y-98583820D01*
X91913641Y-110966180D01*
G36*
X91913641Y-91916180D02*
X79531280Y-91916180D01*
X79531280Y-79533820D01*
X91913640Y-79533820D01*
X91913641Y-91916180D01*
X91913641Y-91916180D01*
G37*
X91913641Y-91916180D02*
X79531280Y-91916180D01*
X79531280Y-79533820D01*
X91913640Y-79533820D01*
X91913641Y-91916180D01*
G36*
X110963641Y-91916180D02*
X98581280Y-91916180D01*
X98581280Y-79533820D01*
X110963640Y-79533820D01*
X110963641Y-91916180D01*
X110963641Y-91916180D01*
G37*
X110963641Y-91916180D02*
X98581280Y-91916180D01*
X98581280Y-79533820D01*
X110963640Y-79533820D01*
X110963641Y-91916180D01*
M02*
