M48
;DRILL file {KiCad (5.0.0)} date 11/22/20 21:52:33
;FORMAT={-:-/ absolute / inch / decimal}
FMAT,2
INCH,TZ
T1C0.0200
T2C0.0315
T3C0.0354
T4C0.0390
T5C0.0454
T6C0.0669
T7C0.0689
T8C0.0866
T9C0.1570
%
G90
G05
M72
T1
X1.5827Y-1.771
X1.5827Y-1.811
X1.5827Y-1.851
X7.778Y-4.0348
X7.778Y-4.0748
X7.778Y-4.1148
X4.748Y-4.0387
X4.748Y-4.0787
X4.748Y-4.1187
X1.6457Y-1.771
X1.6457Y-1.811
X1.6457Y-1.851
X4.668Y-4.0387
X4.668Y-4.0787
X4.668Y-4.1187
X7.8661Y-4.0348
X7.8661Y-4.0748
X7.8661Y-4.1148
X1.6457Y-4.0151
X1.6457Y-4.0551
X1.6457Y-4.0951
X4.8813Y-1.4488
X4.9213Y-1.4488
X4.9613Y-1.4488
X7.7808Y-1.8301
X7.7808Y-1.8701
X7.7808Y-1.9101
X4.748Y-1.7711
X4.748Y-1.8111
X4.748Y-1.8511
X4.4521Y-4.5591
X4.4921Y-4.5591
X4.5321Y-4.5591
X4.8813Y-1.3858
X4.9213Y-1.3858
X4.9613Y-1.3858
X1.5827Y-4.0151
X1.5827Y-4.0551
X1.5827Y-4.0951
X4.4528Y-4.4646
X4.4928Y-4.4646
X4.5328Y-4.4646
X4.663Y-1.771
X4.663Y-1.811
X4.663Y-1.851
X7.8661Y-1.8301
X7.8661Y-1.8701
X7.8661Y-1.9101
T2
X2.9841Y-3.497
X2.2341Y-4.247
X2.9841Y-1.997
X2.2341Y-3.497
X4.4841Y-2.747
X3.7341Y-2.747
X3.7341Y-4.247
X2.9841Y-2.747
X3.7341Y-3.497
X4.4841Y-1.997
X2.2341Y-1.997
X2.2341Y-2.747
X2.9841Y-4.247
X3.7341Y-1.997
X4.4841Y-4.247
X4.4841Y-3.497
T3
X6.1047Y-4.2567
X6.2228Y-4.2567
T4
X6.4288Y-1.7667
X6.7288Y-1.7267
X6.7288Y-1.8067
T5
X1.4764Y-4.6614
X1.4764Y-1.2795
X7.978Y-1.2795
X7.978Y-4.6614
T6
X4.062Y-4.0817
X4.4951Y-4.0817
X4.062Y-3.3317
X4.4951Y-3.3317
X2.562Y-3.3317
X2.9951Y-3.3317
X1.812Y-4.0817
X2.2451Y-4.0817
X2.562Y-1.8317
X2.9951Y-1.8317
X1.812Y-3.3317
X2.2451Y-3.3317
X4.062Y-2.5817
X4.4951Y-2.5817
X3.312Y-2.5817
X3.7451Y-2.5817
X3.312Y-4.0817
X3.7451Y-4.0817
X2.562Y-2.5817
X2.9951Y-2.5817
X3.312Y-3.3317
X3.7451Y-3.3317
X4.062Y-1.8317
X4.4951Y-1.8317
X1.812Y-1.8317
X2.2451Y-1.8317
X1.812Y-2.5817
X2.2451Y-2.5817
X2.562Y-4.0817
X2.9951Y-4.0817
X3.312Y-1.8317
X3.7451Y-1.8317
T7
X1.8285Y-3.3317
X2.2285Y-3.3317
X4.0785Y-2.5817
X4.4785Y-2.5817
X3.3285Y-2.5817
X3.7285Y-2.5817
X3.3285Y-4.0817
X3.7285Y-4.0817
X2.5785Y-2.5817
X2.9785Y-2.5817
X3.3285Y-3.3317
X3.7285Y-3.3317
X4.0785Y-1.8317
X4.4785Y-1.8317
X1.8285Y-1.8317
X2.2285Y-1.8317
X1.8285Y-2.5817
X2.2285Y-2.5817
X2.5785Y-4.0817
X2.9785Y-4.0817
X3.3285Y-1.8317
X3.7285Y-1.8317
X4.0785Y-4.0817
X4.4785Y-4.0817
X4.0785Y-3.3317
X4.4785Y-3.3317
X2.5785Y-3.3317
X2.9785Y-3.3317
X1.8285Y-4.0817
X2.2285Y-4.0817
X2.5785Y-1.8317
X2.9785Y-1.8317
T8
X6.0788Y-3.7117
X6.4538Y-2.2117
X4.9538Y-3.7117
X4.4685Y-2.2017
X4.4685Y-3.7017
X1.8435Y-3.7017
X3.3435Y-3.7017
X2.9685Y-2.2017
X1.8435Y-2.2017
X7.5788Y-3.7117
X4.9538Y-2.2117
X7.5788Y-2.2117
T9
X2.0285Y-4.0817
X2.7785Y-1.8317
X2.0285Y-3.3317
X4.2785Y-2.5817
X3.5285Y-2.5817
X3.5285Y-4.0817
X2.7785Y-2.5817
X3.5285Y-3.3317
X4.2785Y-1.8317
X2.0285Y-1.8317
X2.0285Y-2.5817
X2.7785Y-4.0817
X3.5285Y-1.8317
X4.2785Y-4.0817
X4.2785Y-3.3317
X2.7785Y-3.3317
T0
M30
