G04 #@! TF.FileFunction,Soldermask,Bot*
%FSLAX46Y46*%
G04 Gerber Fmt 4.6, Leading zero omitted, Abs format (unit mm)*
G04 Created by KiCad (PCBNEW 4.0.7) date 09/16/18 15:06:07*
%MOMM*%
%LPD*%
G01*
G04 APERTURE LIST*
%ADD10C,0.100000*%
%ADD11R,1.900000X1.650000*%
%ADD12C,0.402000*%
%ADD13R,1.900000X1.700000*%
%ADD14C,1.850000*%
%ADD15O,1.600000X2.300000*%
%ADD16R,2.100000X2.100000*%
%ADD17O,2.100000X2.100000*%
%ADD18R,2.152600X2.152600*%
%ADD19C,2.152600*%
G04 APERTURE END LIST*
D10*
D11*
X100691000Y-96520000D03*
X98191000Y-96520000D03*
X100564000Y-93091000D03*
X98064000Y-93091000D03*
D12*
X112268000Y-104775000D03*
X111368000Y-104775000D03*
X111368000Y-104775000D03*
X112268000Y-104775000D03*
D13*
X100664000Y-94869000D03*
X97964000Y-94869000D03*
D11*
X111506000Y-92837000D03*
X114006000Y-92837000D03*
D14*
X106669200Y-149508980D03*
X111669200Y-149508980D03*
D15*
X105669200Y-152208980D03*
X112669200Y-152208980D03*
D16*
X106072940Y-134167880D03*
D17*
X106072940Y-136707880D03*
D16*
X112229900Y-129715260D03*
D17*
X109689900Y-129715260D03*
X112229900Y-127175260D03*
X109689900Y-127175260D03*
X112229900Y-124635260D03*
X109689900Y-124635260D03*
D12*
X99060000Y-116194000D03*
X99060000Y-117094000D03*
X99060000Y-117094000D03*
X99060000Y-116194000D03*
D18*
X116713000Y-111506000D03*
D19*
X116713000Y-114046000D03*
X116713000Y-116586000D03*
X116713000Y-119126000D03*
X116713000Y-121666000D03*
X116713000Y-124206000D03*
X116713000Y-126746000D03*
X116713000Y-129286000D03*
X116713000Y-131826000D03*
X116713000Y-134366000D03*
X116713000Y-136906000D03*
X116713000Y-139446000D03*
X101473000Y-136906000D03*
X101473000Y-139446000D03*
X101473000Y-141952000D03*
X101473000Y-144526000D03*
X101473000Y-147066000D03*
X101473000Y-149606000D03*
X101493000Y-152146000D03*
X116713000Y-152146000D03*
X116713000Y-149606000D03*
X116713000Y-147066000D03*
X116713000Y-144526000D03*
X116713000Y-141986000D03*
X101473000Y-134366000D03*
X101473000Y-131826000D03*
X101473000Y-129286000D03*
X101473000Y-126746000D03*
X101473000Y-124206000D03*
X101473000Y-121666000D03*
X101473000Y-119126000D03*
X101473000Y-116586000D03*
X101473000Y-114046000D03*
X101473000Y-111506000D03*
M02*
