G04 #@! TF.FileFunction,Legend,Top*
%FSLAX46Y46*%
G04 Gerber Fmt 4.6, Leading zero omitted, Abs format (unit mm)*
G04 Created by KiCad (PCBNEW 4.0.7) date 09/16/18 15:06:07*
%MOMM*%
%LPD*%
G01*
G04 APERTURE LIST*
%ADD10C,0.100000*%
%ADD11C,0.200000*%
%ADD12C,0.125000*%
%ADD13C,0.120000*%
%ADD14C,0.150000*%
%ADD15C,0.381000*%
G04 APERTURE END LIST*
D10*
D11*
X108966000Y-144018000D02*
X108712000Y-144018000D01*
X108966000Y-141986000D02*
X108966000Y-144018000D01*
X108839000Y-141986000D02*
X108966000Y-141986000D01*
X108839000Y-144018000D02*
X108839000Y-141986000D01*
X108712000Y-144018000D02*
X108839000Y-144018000D01*
X108712000Y-141986000D02*
X108712000Y-144018000D01*
D12*
X93702429Y-126727857D02*
X93702429Y-126977857D01*
X94095286Y-126977857D02*
X93345286Y-126977857D01*
X93345286Y-126620714D01*
X94095286Y-126335000D02*
X93595286Y-126335000D01*
X93345286Y-126335000D02*
X93381000Y-126370714D01*
X93416714Y-126335000D01*
X93381000Y-126299285D01*
X93345286Y-126335000D01*
X93416714Y-126335000D01*
X94095286Y-125977857D02*
X93595286Y-125977857D01*
X93738143Y-125977857D02*
X93666714Y-125942142D01*
X93631000Y-125906428D01*
X93595286Y-125834999D01*
X93595286Y-125763571D01*
X94095286Y-125513571D02*
X93595286Y-125513571D01*
X93666714Y-125513571D02*
X93631000Y-125477856D01*
X93595286Y-125406428D01*
X93595286Y-125299285D01*
X93631000Y-125227856D01*
X93702429Y-125192142D01*
X94095286Y-125192142D01*
X93702429Y-125192142D02*
X93631000Y-125156428D01*
X93595286Y-125084999D01*
X93595286Y-124977856D01*
X93631000Y-124906428D01*
X93702429Y-124870713D01*
X94095286Y-124870713D01*
X93595286Y-124584999D02*
X94095286Y-124442142D01*
X93738143Y-124299285D01*
X94095286Y-124156428D01*
X93595286Y-124013571D01*
X94095286Y-123406428D02*
X93702429Y-123406428D01*
X93631000Y-123442142D01*
X93595286Y-123513571D01*
X93595286Y-123656428D01*
X93631000Y-123727857D01*
X94059571Y-123406428D02*
X94095286Y-123477857D01*
X94095286Y-123656428D01*
X94059571Y-123727857D01*
X93988143Y-123763571D01*
X93916714Y-123763571D01*
X93845286Y-123727857D01*
X93809571Y-123656428D01*
X93809571Y-123477857D01*
X93773857Y-123406428D01*
X94095286Y-123049286D02*
X93595286Y-123049286D01*
X93738143Y-123049286D02*
X93666714Y-123013571D01*
X93631000Y-122977857D01*
X93595286Y-122906428D01*
X93595286Y-122835000D01*
X94059571Y-122299285D02*
X94095286Y-122370714D01*
X94095286Y-122513571D01*
X94059571Y-122585000D01*
X93988143Y-122620714D01*
X93702429Y-122620714D01*
X93631000Y-122585000D01*
X93595286Y-122513571D01*
X93595286Y-122370714D01*
X93631000Y-122299285D01*
X93702429Y-122263571D01*
X93773857Y-122263571D01*
X93845286Y-122620714D01*
X94023857Y-121942143D02*
X94059571Y-121906428D01*
X94095286Y-121942143D01*
X94059571Y-121977857D01*
X94023857Y-121942143D01*
X94095286Y-121942143D01*
X93631000Y-121942143D02*
X93666714Y-121906428D01*
X93702429Y-121942143D01*
X93666714Y-121977857D01*
X93631000Y-121942143D01*
X93702429Y-121942143D01*
X95345286Y-129745712D02*
X94595286Y-129745712D01*
X95345286Y-129424283D02*
X94952429Y-129424283D01*
X94881000Y-129459997D01*
X94845286Y-129531426D01*
X94845286Y-129638569D01*
X94881000Y-129709997D01*
X94916714Y-129745712D01*
X94845286Y-129174283D02*
X94845286Y-128888569D01*
X94595286Y-129067141D02*
X95238143Y-129067141D01*
X95309571Y-129031426D01*
X95345286Y-128959998D01*
X95345286Y-128888569D01*
X94845286Y-128745712D02*
X94845286Y-128459998D01*
X94595286Y-128638570D02*
X95238143Y-128638570D01*
X95309571Y-128602855D01*
X95345286Y-128531427D01*
X95345286Y-128459998D01*
X94845286Y-128209999D02*
X95595286Y-128209999D01*
X94881000Y-128209999D02*
X94845286Y-128138570D01*
X94845286Y-127995713D01*
X94881000Y-127924284D01*
X94916714Y-127888570D01*
X94988143Y-127852856D01*
X95202429Y-127852856D01*
X95273857Y-127888570D01*
X95309571Y-127924284D01*
X95345286Y-127995713D01*
X95345286Y-128138570D01*
X95309571Y-128209999D01*
X95309571Y-127567142D02*
X95345286Y-127495713D01*
X95345286Y-127352856D01*
X95309571Y-127281428D01*
X95238143Y-127245713D01*
X95202429Y-127245713D01*
X95131000Y-127281428D01*
X95095286Y-127352856D01*
X95095286Y-127459999D01*
X95059571Y-127531428D01*
X94988143Y-127567142D01*
X94952429Y-127567142D01*
X94881000Y-127531428D01*
X94845286Y-127459999D01*
X94845286Y-127352856D01*
X94881000Y-127281428D01*
X95273857Y-126924285D02*
X95309571Y-126888570D01*
X95345286Y-126924285D01*
X95309571Y-126959999D01*
X95273857Y-126924285D01*
X95345286Y-126924285D01*
X94881000Y-126924285D02*
X94916714Y-126888570D01*
X94952429Y-126924285D01*
X94916714Y-126959999D01*
X94881000Y-126924285D01*
X94952429Y-126924285D01*
X94559571Y-126031427D02*
X95523857Y-126674284D01*
X94559571Y-125245713D02*
X95523857Y-125888570D01*
X94845286Y-124674285D02*
X95452429Y-124674285D01*
X95523857Y-124709999D01*
X95559571Y-124745714D01*
X95595286Y-124817142D01*
X95595286Y-124924285D01*
X95559571Y-124995714D01*
X95309571Y-124674285D02*
X95345286Y-124745714D01*
X95345286Y-124888571D01*
X95309571Y-124959999D01*
X95273857Y-124995714D01*
X95202429Y-125031428D01*
X94988143Y-125031428D01*
X94916714Y-124995714D01*
X94881000Y-124959999D01*
X94845286Y-124888571D01*
X94845286Y-124745714D01*
X94881000Y-124674285D01*
X95345286Y-124317143D02*
X94845286Y-124317143D01*
X94595286Y-124317143D02*
X94631000Y-124352857D01*
X94666714Y-124317143D01*
X94631000Y-124281428D01*
X94595286Y-124317143D01*
X94666714Y-124317143D01*
X94845286Y-124067142D02*
X94845286Y-123781428D01*
X94595286Y-123960000D02*
X95238143Y-123960000D01*
X95309571Y-123924285D01*
X95345286Y-123852857D01*
X95345286Y-123781428D01*
X95345286Y-123531429D02*
X94595286Y-123531429D01*
X95345286Y-123210000D02*
X94952429Y-123210000D01*
X94881000Y-123245714D01*
X94845286Y-123317143D01*
X94845286Y-123424286D01*
X94881000Y-123495714D01*
X94916714Y-123531429D01*
X94845286Y-122531429D02*
X95345286Y-122531429D01*
X94845286Y-122852858D02*
X95238143Y-122852858D01*
X95309571Y-122817143D01*
X95345286Y-122745715D01*
X95345286Y-122638572D01*
X95309571Y-122567143D01*
X95273857Y-122531429D01*
X95345286Y-122174287D02*
X94595286Y-122174287D01*
X94881000Y-122174287D02*
X94845286Y-122102858D01*
X94845286Y-121960001D01*
X94881000Y-121888572D01*
X94916714Y-121852858D01*
X94988143Y-121817144D01*
X95202429Y-121817144D01*
X95273857Y-121852858D01*
X95309571Y-121888572D01*
X95345286Y-121960001D01*
X95345286Y-122102858D01*
X95309571Y-122174287D01*
X95273857Y-121495716D02*
X95309571Y-121460001D01*
X95345286Y-121495716D01*
X95309571Y-121531430D01*
X95273857Y-121495716D01*
X95345286Y-121495716D01*
X95309571Y-120817144D02*
X95345286Y-120888573D01*
X95345286Y-121031430D01*
X95309571Y-121102858D01*
X95273857Y-121138573D01*
X95202429Y-121174287D01*
X94988143Y-121174287D01*
X94916714Y-121138573D01*
X94881000Y-121102858D01*
X94845286Y-121031430D01*
X94845286Y-120888573D01*
X94881000Y-120817144D01*
X95345286Y-120388573D02*
X95309571Y-120460001D01*
X95273857Y-120495716D01*
X95202429Y-120531430D01*
X94988143Y-120531430D01*
X94916714Y-120495716D01*
X94881000Y-120460001D01*
X94845286Y-120388573D01*
X94845286Y-120281430D01*
X94881000Y-120210001D01*
X94916714Y-120174287D01*
X94988143Y-120138573D01*
X95202429Y-120138573D01*
X95273857Y-120174287D01*
X95309571Y-120210001D01*
X95345286Y-120281430D01*
X95345286Y-120388573D01*
X95345286Y-119817145D02*
X94845286Y-119817145D01*
X94916714Y-119817145D02*
X94881000Y-119781430D01*
X94845286Y-119710002D01*
X94845286Y-119602859D01*
X94881000Y-119531430D01*
X94952429Y-119495716D01*
X95345286Y-119495716D01*
X94952429Y-119495716D02*
X94881000Y-119460002D01*
X94845286Y-119388573D01*
X94845286Y-119281430D01*
X94881000Y-119210002D01*
X94952429Y-119174287D01*
X95345286Y-119174287D01*
X95809571Y-128584997D02*
X96773857Y-129227854D01*
X96095286Y-128334998D02*
X96738143Y-128334998D01*
X96809571Y-128370712D01*
X96845286Y-128442140D01*
X96845286Y-128477855D01*
X95845286Y-128334998D02*
X95881000Y-128370712D01*
X95916714Y-128334998D01*
X95881000Y-128299283D01*
X95845286Y-128334998D01*
X95916714Y-128334998D01*
X96095286Y-127977855D02*
X96845286Y-127977855D01*
X96131000Y-127977855D02*
X96095286Y-127906426D01*
X96095286Y-127763569D01*
X96131000Y-127692140D01*
X96166714Y-127656426D01*
X96238143Y-127620712D01*
X96452429Y-127620712D01*
X96523857Y-127656426D01*
X96559571Y-127692140D01*
X96595286Y-127763569D01*
X96595286Y-127906426D01*
X96559571Y-127977855D01*
X96559571Y-126977855D02*
X96595286Y-127049284D01*
X96595286Y-127192141D01*
X96559571Y-127263569D01*
X96523857Y-127299284D01*
X96452429Y-127334998D01*
X96238143Y-127334998D01*
X96166714Y-127299284D01*
X96131000Y-127263569D01*
X96095286Y-127192141D01*
X96095286Y-127049284D01*
X96131000Y-126977855D01*
X96595286Y-126549284D02*
X96559571Y-126620712D01*
X96523857Y-126656427D01*
X96452429Y-126692141D01*
X96238143Y-126692141D01*
X96166714Y-126656427D01*
X96131000Y-126620712D01*
X96095286Y-126549284D01*
X96095286Y-126442141D01*
X96131000Y-126370712D01*
X96166714Y-126334998D01*
X96238143Y-126299284D01*
X96452429Y-126299284D01*
X96523857Y-126334998D01*
X96559571Y-126370712D01*
X96595286Y-126442141D01*
X96595286Y-126549284D01*
X96095286Y-125977856D02*
X96595286Y-125977856D01*
X96166714Y-125977856D02*
X96131000Y-125942141D01*
X96095286Y-125870713D01*
X96095286Y-125763570D01*
X96131000Y-125692141D01*
X96202429Y-125656427D01*
X96595286Y-125656427D01*
X96559571Y-125334999D02*
X96595286Y-125263570D01*
X96595286Y-125120713D01*
X96559571Y-125049285D01*
X96488143Y-125013570D01*
X96452429Y-125013570D01*
X96381000Y-125049285D01*
X96345286Y-125120713D01*
X96345286Y-125227856D01*
X96309571Y-125299285D01*
X96238143Y-125334999D01*
X96202429Y-125334999D01*
X96131000Y-125299285D01*
X96095286Y-125227856D01*
X96095286Y-125120713D01*
X96131000Y-125049285D01*
X96095286Y-124799284D02*
X96095286Y-124513570D01*
X95845286Y-124692142D02*
X96488143Y-124692142D01*
X96559571Y-124656427D01*
X96595286Y-124584999D01*
X96595286Y-124513570D01*
X96595286Y-123942142D02*
X96202429Y-123942142D01*
X96131000Y-123977856D01*
X96095286Y-124049285D01*
X96095286Y-124192142D01*
X96131000Y-124263571D01*
X96559571Y-123942142D02*
X96595286Y-124013571D01*
X96595286Y-124192142D01*
X96559571Y-124263571D01*
X96488143Y-124299285D01*
X96416714Y-124299285D01*
X96345286Y-124263571D01*
X96309571Y-124192142D01*
X96309571Y-124013571D01*
X96273857Y-123942142D01*
X96095286Y-123585000D02*
X96595286Y-123585000D01*
X96166714Y-123585000D02*
X96131000Y-123549285D01*
X96095286Y-123477857D01*
X96095286Y-123370714D01*
X96131000Y-123299285D01*
X96202429Y-123263571D01*
X96595286Y-123263571D01*
X96095286Y-123013571D02*
X96095286Y-122727857D01*
X95845286Y-122906429D02*
X96488143Y-122906429D01*
X96559571Y-122870714D01*
X96595286Y-122799286D01*
X96595286Y-122727857D01*
X96595286Y-122477858D02*
X96095286Y-122477858D01*
X95845286Y-122477858D02*
X95881000Y-122513572D01*
X95916714Y-122477858D01*
X95881000Y-122442143D01*
X95845286Y-122477858D01*
X95916714Y-122477858D01*
X96095286Y-122120715D02*
X96595286Y-122120715D01*
X96166714Y-122120715D02*
X96131000Y-122085000D01*
X96095286Y-122013572D01*
X96095286Y-121906429D01*
X96131000Y-121835000D01*
X96202429Y-121799286D01*
X96595286Y-121799286D01*
X96559571Y-121156429D02*
X96595286Y-121227858D01*
X96595286Y-121370715D01*
X96559571Y-121442144D01*
X96488143Y-121477858D01*
X96202429Y-121477858D01*
X96131000Y-121442144D01*
X96095286Y-121370715D01*
X96095286Y-121227858D01*
X96131000Y-121156429D01*
X96202429Y-121120715D01*
X96273857Y-121120715D01*
X96345286Y-121477858D01*
X96595286Y-120477858D02*
X96202429Y-120477858D01*
X96131000Y-120513572D01*
X96095286Y-120585001D01*
X96095286Y-120727858D01*
X96131000Y-120799287D01*
X96559571Y-120477858D02*
X96595286Y-120549287D01*
X96595286Y-120727858D01*
X96559571Y-120799287D01*
X96488143Y-120835001D01*
X96416714Y-120835001D01*
X96345286Y-120799287D01*
X96309571Y-120727858D01*
X96309571Y-120549287D01*
X96273857Y-120477858D01*
X96095286Y-119799287D02*
X96595286Y-119799287D01*
X96095286Y-120120716D02*
X96488143Y-120120716D01*
X96559571Y-120085001D01*
X96595286Y-120013573D01*
X96595286Y-119906430D01*
X96559571Y-119835001D01*
X96523857Y-119799287D01*
X97059571Y-128174285D02*
X98023857Y-128817142D01*
X97452429Y-127674286D02*
X97488143Y-127567143D01*
X97523857Y-127531428D01*
X97595286Y-127495714D01*
X97702429Y-127495714D01*
X97773857Y-127531428D01*
X97809571Y-127567143D01*
X97845286Y-127638571D01*
X97845286Y-127924286D01*
X97095286Y-127924286D01*
X97095286Y-127674286D01*
X97131000Y-127602857D01*
X97166714Y-127567143D01*
X97238143Y-127531428D01*
X97309571Y-127531428D01*
X97381000Y-127567143D01*
X97416714Y-127602857D01*
X97452429Y-127674286D01*
X97452429Y-127924286D01*
X97845286Y-127067143D02*
X97809571Y-127138571D01*
X97738143Y-127174286D01*
X97095286Y-127174286D01*
X97345286Y-126460000D02*
X97845286Y-126460000D01*
X97345286Y-126781429D02*
X97738143Y-126781429D01*
X97809571Y-126745714D01*
X97845286Y-126674286D01*
X97845286Y-126567143D01*
X97809571Y-126495714D01*
X97773857Y-126460000D01*
X97809571Y-125817143D02*
X97845286Y-125888572D01*
X97845286Y-126031429D01*
X97809571Y-126102858D01*
X97738143Y-126138572D01*
X97452429Y-126138572D01*
X97381000Y-126102858D01*
X97345286Y-126031429D01*
X97345286Y-125888572D01*
X97381000Y-125817143D01*
X97452429Y-125781429D01*
X97523857Y-125781429D01*
X97595286Y-126138572D01*
X97845286Y-125460001D02*
X97095286Y-125460001D01*
X97631000Y-125210001D01*
X97095286Y-124960001D01*
X97845286Y-124960001D01*
X97845286Y-124602858D02*
X97345286Y-124602858D01*
X97095286Y-124602858D02*
X97131000Y-124638572D01*
X97166714Y-124602858D01*
X97131000Y-124567143D01*
X97095286Y-124602858D01*
X97166714Y-124602858D01*
X97809571Y-123924286D02*
X97845286Y-123995715D01*
X97845286Y-124138572D01*
X97809571Y-124210000D01*
X97773857Y-124245715D01*
X97702429Y-124281429D01*
X97488143Y-124281429D01*
X97416714Y-124245715D01*
X97381000Y-124210000D01*
X97345286Y-124138572D01*
X97345286Y-123995715D01*
X97381000Y-123924286D01*
X97845286Y-123602858D02*
X97345286Y-123602858D01*
X97488143Y-123602858D02*
X97416714Y-123567143D01*
X97381000Y-123531429D01*
X97345286Y-123460000D01*
X97345286Y-123388572D01*
X97845286Y-123031429D02*
X97809571Y-123102857D01*
X97773857Y-123138572D01*
X97702429Y-123174286D01*
X97488143Y-123174286D01*
X97416714Y-123138572D01*
X97381000Y-123102857D01*
X97345286Y-123031429D01*
X97345286Y-122924286D01*
X97381000Y-122852857D01*
X97416714Y-122817143D01*
X97488143Y-122781429D01*
X97702429Y-122781429D01*
X97773857Y-122817143D01*
X97809571Y-122852857D01*
X97845286Y-122924286D01*
X97845286Y-123031429D01*
X97916714Y-122638572D02*
X97916714Y-122067143D01*
X97452429Y-121638572D02*
X97488143Y-121531429D01*
X97523857Y-121495714D01*
X97595286Y-121460000D01*
X97702429Y-121460000D01*
X97773857Y-121495714D01*
X97809571Y-121531429D01*
X97845286Y-121602857D01*
X97845286Y-121888572D01*
X97095286Y-121888572D01*
X97095286Y-121638572D01*
X97131000Y-121567143D01*
X97166714Y-121531429D01*
X97238143Y-121495714D01*
X97309571Y-121495714D01*
X97381000Y-121531429D01*
X97416714Y-121567143D01*
X97452429Y-121638572D01*
X97452429Y-121888572D01*
X97845286Y-120781429D02*
X97845286Y-121138572D01*
X97095286Y-121138572D01*
X97452429Y-120531429D02*
X97452429Y-120281429D01*
X97845286Y-120174286D02*
X97845286Y-120531429D01*
X97095286Y-120531429D01*
X97095286Y-120174286D01*
D10*
X106521929Y-102470714D02*
X106521929Y-102720714D01*
X106914786Y-102720714D02*
X106164786Y-102720714D01*
X106164786Y-102363571D01*
X106914786Y-101970714D02*
X106879071Y-102042142D01*
X106843357Y-102077857D01*
X106771929Y-102113571D01*
X106557643Y-102113571D01*
X106486214Y-102077857D01*
X106450500Y-102042142D01*
X106414786Y-101970714D01*
X106414786Y-101863571D01*
X106450500Y-101792142D01*
X106486214Y-101756428D01*
X106557643Y-101720714D01*
X106771929Y-101720714D01*
X106843357Y-101756428D01*
X106879071Y-101792142D01*
X106914786Y-101863571D01*
X106914786Y-101970714D01*
X106914786Y-101399286D02*
X106414786Y-101399286D01*
X106557643Y-101399286D02*
X106486214Y-101363571D01*
X106450500Y-101327857D01*
X106414786Y-101256428D01*
X106414786Y-101185000D01*
X106414786Y-100042142D02*
X106914786Y-100042142D01*
X106414786Y-100363571D02*
X106807643Y-100363571D01*
X106879071Y-100327856D01*
X106914786Y-100256428D01*
X106914786Y-100149285D01*
X106879071Y-100077856D01*
X106843357Y-100042142D01*
X106879071Y-99720714D02*
X106914786Y-99649285D01*
X106914786Y-99506428D01*
X106879071Y-99435000D01*
X106807643Y-99399285D01*
X106771929Y-99399285D01*
X106700500Y-99435000D01*
X106664786Y-99506428D01*
X106664786Y-99613571D01*
X106629071Y-99685000D01*
X106557643Y-99720714D01*
X106521929Y-99720714D01*
X106450500Y-99685000D01*
X106414786Y-99613571D01*
X106414786Y-99506428D01*
X106450500Y-99435000D01*
X106879071Y-98792142D02*
X106914786Y-98863571D01*
X106914786Y-99006428D01*
X106879071Y-99077857D01*
X106807643Y-99113571D01*
X106521929Y-99113571D01*
X106450500Y-99077857D01*
X106414786Y-99006428D01*
X106414786Y-98863571D01*
X106450500Y-98792142D01*
X106521929Y-98756428D01*
X106593357Y-98756428D01*
X106664786Y-99113571D01*
X106414786Y-97934999D02*
X106914786Y-97792142D01*
X106557643Y-97649285D01*
X106914786Y-97506428D01*
X106414786Y-97363571D01*
X106914786Y-97077857D02*
X106414786Y-97077857D01*
X106164786Y-97077857D02*
X106200500Y-97113571D01*
X106236214Y-97077857D01*
X106200500Y-97042142D01*
X106164786Y-97077857D01*
X106236214Y-97077857D01*
X106414786Y-96827856D02*
X106414786Y-96542142D01*
X106164786Y-96720714D02*
X106807643Y-96720714D01*
X106879071Y-96684999D01*
X106914786Y-96613571D01*
X106914786Y-96542142D01*
X106914786Y-96292143D02*
X106164786Y-96292143D01*
X106914786Y-95970714D02*
X106521929Y-95970714D01*
X106450500Y-96006428D01*
X106414786Y-96077857D01*
X106414786Y-96185000D01*
X106450500Y-96256428D01*
X106486214Y-96292143D01*
X108139786Y-104006429D02*
X107389786Y-104006429D01*
X108139786Y-103577857D01*
X107389786Y-103577857D01*
X108139786Y-102792143D02*
X107782643Y-103042143D01*
X108139786Y-103220715D02*
X107389786Y-103220715D01*
X107389786Y-102935000D01*
X107425500Y-102863572D01*
X107461214Y-102827857D01*
X107532643Y-102792143D01*
X107639786Y-102792143D01*
X107711214Y-102827857D01*
X107746929Y-102863572D01*
X107782643Y-102935000D01*
X107782643Y-103220715D01*
X107746929Y-102220715D02*
X107746929Y-102470715D01*
X108139786Y-102470715D02*
X107389786Y-102470715D01*
X107389786Y-102113572D01*
X107389786Y-101470715D02*
X107389786Y-101827858D01*
X107746929Y-101863572D01*
X107711214Y-101827858D01*
X107675500Y-101756429D01*
X107675500Y-101577858D01*
X107711214Y-101506429D01*
X107746929Y-101470715D01*
X107818357Y-101435000D01*
X107996929Y-101435000D01*
X108068357Y-101470715D01*
X108104071Y-101506429D01*
X108139786Y-101577858D01*
X108139786Y-101756429D01*
X108104071Y-101827858D01*
X108068357Y-101863572D01*
X107461214Y-101149286D02*
X107425500Y-101113572D01*
X107389786Y-101042143D01*
X107389786Y-100863572D01*
X107425500Y-100792143D01*
X107461214Y-100756429D01*
X107532643Y-100720714D01*
X107604071Y-100720714D01*
X107711214Y-100756429D01*
X108139786Y-101185000D01*
X108139786Y-100720714D01*
X107711214Y-100292143D02*
X107675500Y-100363571D01*
X107639786Y-100399286D01*
X107568357Y-100435000D01*
X107532643Y-100435000D01*
X107461214Y-100399286D01*
X107425500Y-100363571D01*
X107389786Y-100292143D01*
X107389786Y-100149286D01*
X107425500Y-100077857D01*
X107461214Y-100042143D01*
X107532643Y-100006428D01*
X107568357Y-100006428D01*
X107639786Y-100042143D01*
X107675500Y-100077857D01*
X107711214Y-100149286D01*
X107711214Y-100292143D01*
X107746929Y-100363571D01*
X107782643Y-100399286D01*
X107854071Y-100435000D01*
X107996929Y-100435000D01*
X108068357Y-100399286D01*
X108104071Y-100363571D01*
X108139786Y-100292143D01*
X108139786Y-100149286D01*
X108104071Y-100077857D01*
X108068357Y-100042143D01*
X107996929Y-100006428D01*
X107854071Y-100006428D01*
X107782643Y-100042143D01*
X107746929Y-100077857D01*
X107711214Y-100149286D01*
X107389786Y-99756428D02*
X107389786Y-99292142D01*
X107675500Y-99542142D01*
X107675500Y-99435000D01*
X107711214Y-99363571D01*
X107746929Y-99327857D01*
X107818357Y-99292142D01*
X107996929Y-99292142D01*
X108068357Y-99327857D01*
X108104071Y-99363571D01*
X108139786Y-99435000D01*
X108139786Y-99649285D01*
X108104071Y-99720714D01*
X108068357Y-99756428D01*
X107461214Y-99006428D02*
X107425500Y-98970714D01*
X107389786Y-98899285D01*
X107389786Y-98720714D01*
X107425500Y-98649285D01*
X107461214Y-98613571D01*
X107532643Y-98577856D01*
X107604071Y-98577856D01*
X107711214Y-98613571D01*
X108139786Y-99042142D01*
X108139786Y-98577856D01*
X108139786Y-97684999D02*
X107389786Y-97684999D01*
X107925500Y-97434999D01*
X107389786Y-97184999D01*
X108139786Y-97184999D01*
X108139786Y-96720713D02*
X108104071Y-96792141D01*
X108068357Y-96827856D01*
X107996929Y-96863570D01*
X107782643Y-96863570D01*
X107711214Y-96827856D01*
X107675500Y-96792141D01*
X107639786Y-96720713D01*
X107639786Y-96613570D01*
X107675500Y-96542141D01*
X107711214Y-96506427D01*
X107782643Y-96470713D01*
X107996929Y-96470713D01*
X108068357Y-96506427D01*
X108104071Y-96542141D01*
X108139786Y-96613570D01*
X108139786Y-96720713D01*
X108139786Y-95827856D02*
X107389786Y-95827856D01*
X108104071Y-95827856D02*
X108139786Y-95899285D01*
X108139786Y-96042142D01*
X108104071Y-96113570D01*
X108068357Y-96149285D01*
X107996929Y-96184999D01*
X107782643Y-96184999D01*
X107711214Y-96149285D01*
X107675500Y-96113570D01*
X107639786Y-96042142D01*
X107639786Y-95899285D01*
X107675500Y-95827856D01*
X107639786Y-95149285D02*
X108139786Y-95149285D01*
X107639786Y-95470714D02*
X108032643Y-95470714D01*
X108104071Y-95434999D01*
X108139786Y-95363571D01*
X108139786Y-95256428D01*
X108104071Y-95184999D01*
X108068357Y-95149285D01*
X108139786Y-94685000D02*
X108104071Y-94756428D01*
X108032643Y-94792143D01*
X107389786Y-94792143D01*
X108104071Y-94113571D02*
X108139786Y-94185000D01*
X108139786Y-94327857D01*
X108104071Y-94399286D01*
X108032643Y-94435000D01*
X107746929Y-94435000D01*
X107675500Y-94399286D01*
X107639786Y-94327857D01*
X107639786Y-94185000D01*
X107675500Y-94113571D01*
X107746929Y-94077857D01*
X107818357Y-94077857D01*
X107889786Y-94435000D01*
X107124572Y-126498000D02*
X107053143Y-126462286D01*
X106946000Y-126462286D01*
X106838857Y-126498000D01*
X106767429Y-126569429D01*
X106731714Y-126640857D01*
X106696000Y-126783714D01*
X106696000Y-126890857D01*
X106731714Y-127033714D01*
X106767429Y-127105143D01*
X106838857Y-127176571D01*
X106946000Y-127212286D01*
X107017429Y-127212286D01*
X107124572Y-127176571D01*
X107160286Y-127140857D01*
X107160286Y-126890857D01*
X107017429Y-126890857D01*
X107481714Y-127212286D02*
X107481714Y-126462286D01*
X107910286Y-127212286D01*
X107910286Y-126462286D01*
X108267428Y-127212286D02*
X108267428Y-126462286D01*
X108446000Y-126462286D01*
X108553143Y-126498000D01*
X108624571Y-126569429D01*
X108660286Y-126640857D01*
X108696000Y-126783714D01*
X108696000Y-126890857D01*
X108660286Y-127033714D01*
X108624571Y-127105143D01*
X108553143Y-127176571D01*
X108446000Y-127212286D01*
X108267428Y-127212286D01*
X107173572Y-130259286D02*
X107602143Y-130259286D01*
X107387857Y-131009286D02*
X107387857Y-130259286D01*
X107780715Y-130259286D02*
X108280715Y-131009286D01*
X108280715Y-130259286D02*
X107780715Y-131009286D01*
X108566429Y-131009286D02*
X108566429Y-130259286D01*
X108745001Y-130259286D01*
X108852144Y-130295000D01*
X108923572Y-130366429D01*
X108959287Y-130437857D01*
X108995001Y-130580714D01*
X108995001Y-130687857D01*
X108959287Y-130830714D01*
X108923572Y-130902143D01*
X108852144Y-130973571D01*
X108745001Y-131009286D01*
X108566429Y-131009286D01*
X113490000Y-131229286D02*
X113240000Y-130872143D01*
X113061428Y-131229286D02*
X113061428Y-130479286D01*
X113347143Y-130479286D01*
X113418571Y-130515000D01*
X113454286Y-130550714D01*
X113490000Y-130622143D01*
X113490000Y-130729286D01*
X113454286Y-130800714D01*
X113418571Y-130836429D01*
X113347143Y-130872143D01*
X113061428Y-130872143D01*
X113740000Y-130479286D02*
X114240000Y-131229286D01*
X114240000Y-130479286D02*
X113740000Y-131229286D01*
X114525714Y-131229286D02*
X114525714Y-130479286D01*
X114704286Y-130479286D01*
X114811429Y-130515000D01*
X114882857Y-130586429D01*
X114918572Y-130657857D01*
X114954286Y-130800714D01*
X114954286Y-130907857D01*
X114918572Y-131050714D01*
X114882857Y-131122143D01*
X114811429Y-131193571D01*
X114704286Y-131229286D01*
X114525714Y-131229286D01*
X113040001Y-127449286D02*
X113290001Y-128199286D01*
X113540001Y-127449286D01*
X114218572Y-128127857D02*
X114182858Y-128163571D01*
X114075715Y-128199286D01*
X114004286Y-128199286D01*
X113897143Y-128163571D01*
X113825715Y-128092143D01*
X113790000Y-128020714D01*
X113754286Y-127877857D01*
X113754286Y-127770714D01*
X113790000Y-127627857D01*
X113825715Y-127556429D01*
X113897143Y-127485000D01*
X114004286Y-127449286D01*
X114075715Y-127449286D01*
X114182858Y-127485000D01*
X114218572Y-127520714D01*
X114968572Y-128127857D02*
X114932858Y-128163571D01*
X114825715Y-128199286D01*
X114754286Y-128199286D01*
X114647143Y-128163571D01*
X114575715Y-128092143D01*
X114540000Y-128020714D01*
X114504286Y-127877857D01*
X114504286Y-127770714D01*
X114540000Y-127627857D01*
X114575715Y-127556429D01*
X114647143Y-127485000D01*
X114754286Y-127449286D01*
X114825715Y-127449286D01*
X114932858Y-127485000D01*
X114968572Y-127520714D01*
X112972143Y-125773571D02*
X113079286Y-125809286D01*
X113257857Y-125809286D01*
X113329286Y-125773571D01*
X113365000Y-125737857D01*
X113400715Y-125666429D01*
X113400715Y-125595000D01*
X113365000Y-125523571D01*
X113329286Y-125487857D01*
X113257857Y-125452143D01*
X113115000Y-125416429D01*
X113043572Y-125380714D01*
X113007857Y-125345000D01*
X112972143Y-125273571D01*
X112972143Y-125202143D01*
X113007857Y-125130714D01*
X113043572Y-125095000D01*
X113115000Y-125059286D01*
X113293572Y-125059286D01*
X113400715Y-125095000D01*
X113650715Y-125059286D02*
X113829286Y-125809286D01*
X113972143Y-125273571D01*
X114115001Y-125809286D01*
X114293572Y-125059286D01*
X114579286Y-125809286D02*
X114579286Y-125059286D01*
X114757858Y-125059286D01*
X114865001Y-125095000D01*
X114936429Y-125166429D01*
X114972144Y-125237857D01*
X115007858Y-125380714D01*
X115007858Y-125487857D01*
X114972144Y-125630714D01*
X114936429Y-125702143D01*
X114865001Y-125773571D01*
X114757858Y-125809286D01*
X114579286Y-125809286D01*
X115757858Y-125737857D02*
X115722144Y-125773571D01*
X115615001Y-125809286D01*
X115543572Y-125809286D01*
X115436429Y-125773571D01*
X115365001Y-125702143D01*
X115329286Y-125630714D01*
X115293572Y-125487857D01*
X115293572Y-125380714D01*
X115329286Y-125237857D01*
X115365001Y-125166429D01*
X115436429Y-125095000D01*
X115543572Y-125059286D01*
X115615001Y-125059286D01*
X115722144Y-125095000D01*
X115757858Y-125130714D01*
X116079286Y-125809286D02*
X116079286Y-125059286D01*
X116507858Y-125809286D02*
X116186429Y-125380714D01*
X116507858Y-125059286D02*
X116079286Y-125487857D01*
X105598714Y-124636571D02*
X105705857Y-124672286D01*
X105884428Y-124672286D01*
X105955857Y-124636571D01*
X105991571Y-124600857D01*
X106027286Y-124529429D01*
X106027286Y-124458000D01*
X105991571Y-124386571D01*
X105955857Y-124350857D01*
X105884428Y-124315143D01*
X105741571Y-124279429D01*
X105670143Y-124243714D01*
X105634428Y-124208000D01*
X105598714Y-124136571D01*
X105598714Y-124065143D01*
X105634428Y-123993714D01*
X105670143Y-123958000D01*
X105741571Y-123922286D01*
X105920143Y-123922286D01*
X106027286Y-123958000D01*
X106277286Y-123922286D02*
X106455857Y-124672286D01*
X106598714Y-124136571D01*
X106741572Y-124672286D01*
X106920143Y-123922286D01*
X107205857Y-124672286D02*
X107205857Y-123922286D01*
X107384429Y-123922286D01*
X107491572Y-123958000D01*
X107563000Y-124029429D01*
X107598715Y-124100857D01*
X107634429Y-124243714D01*
X107634429Y-124350857D01*
X107598715Y-124493714D01*
X107563000Y-124565143D01*
X107491572Y-124636571D01*
X107384429Y-124672286D01*
X107205857Y-124672286D01*
X107955857Y-124672286D02*
X107955857Y-123922286D01*
X108455858Y-123922286D02*
X108598715Y-123922286D01*
X108670143Y-123958000D01*
X108741572Y-124029429D01*
X108777286Y-124172286D01*
X108777286Y-124422286D01*
X108741572Y-124565143D01*
X108670143Y-124636571D01*
X108598715Y-124672286D01*
X108455858Y-124672286D01*
X108384429Y-124636571D01*
X108313000Y-124565143D01*
X108277286Y-124422286D01*
X108277286Y-124172286D01*
X108313000Y-124029429D01*
X108384429Y-123958000D01*
X108455858Y-123922286D01*
X104433571Y-135578571D02*
X104433571Y-135007142D01*
X104719286Y-135292856D02*
X104147857Y-135292856D01*
X104326429Y-134400000D02*
X104362143Y-134292857D01*
X104397857Y-134257142D01*
X104469286Y-134221428D01*
X104576429Y-134221428D01*
X104647857Y-134257142D01*
X104683571Y-134292857D01*
X104719286Y-134364285D01*
X104719286Y-134650000D01*
X103969286Y-134650000D01*
X103969286Y-134400000D01*
X104005000Y-134328571D01*
X104040714Y-134292857D01*
X104112143Y-134257142D01*
X104183571Y-134257142D01*
X104255000Y-134292857D01*
X104290714Y-134328571D01*
X104326429Y-134400000D01*
X104326429Y-134650000D01*
X104719286Y-133578571D02*
X104326429Y-133578571D01*
X104255000Y-133614285D01*
X104219286Y-133685714D01*
X104219286Y-133828571D01*
X104255000Y-133900000D01*
X104683571Y-133578571D02*
X104719286Y-133650000D01*
X104719286Y-133828571D01*
X104683571Y-133900000D01*
X104612143Y-133935714D01*
X104540714Y-133935714D01*
X104469286Y-133900000D01*
X104433571Y-133828571D01*
X104433571Y-133650000D01*
X104397857Y-133578571D01*
X104219286Y-133328571D02*
X104219286Y-133042857D01*
X103969286Y-133221429D02*
X104612143Y-133221429D01*
X104683571Y-133185714D01*
X104719286Y-133114286D01*
X104719286Y-133042857D01*
X104219286Y-132900000D02*
X104219286Y-132614286D01*
X103969286Y-132792858D02*
X104612143Y-132792858D01*
X104683571Y-132757143D01*
X104719286Y-132685715D01*
X104719286Y-132614286D01*
X104245000Y-137481428D02*
X104209286Y-137552857D01*
X104209286Y-137660000D01*
X104245000Y-137767143D01*
X104316429Y-137838571D01*
X104387857Y-137874286D01*
X104530714Y-137910000D01*
X104637857Y-137910000D01*
X104780714Y-137874286D01*
X104852143Y-137838571D01*
X104923571Y-137767143D01*
X104959286Y-137660000D01*
X104959286Y-137588571D01*
X104923571Y-137481428D01*
X104887857Y-137445714D01*
X104637857Y-137445714D01*
X104637857Y-137588571D01*
X104959286Y-137124286D02*
X104209286Y-137124286D01*
X104959286Y-136695714D01*
X104209286Y-136695714D01*
X104959286Y-136338572D02*
X104209286Y-136338572D01*
X104209286Y-136160000D01*
X104245000Y-136052857D01*
X104316429Y-135981429D01*
X104387857Y-135945714D01*
X104530714Y-135910000D01*
X104637857Y-135910000D01*
X104780714Y-135945714D01*
X104852143Y-135981429D01*
X104923571Y-136052857D01*
X104959286Y-136160000D01*
X104959286Y-136338572D01*
D11*
X117562381Y-103552048D02*
X118276667Y-103552048D01*
X118419524Y-103599668D01*
X118514762Y-103694906D01*
X118562381Y-103837763D01*
X118562381Y-103933001D01*
X118562381Y-102599667D02*
X118562381Y-103075858D01*
X117562381Y-103075858D01*
X118467143Y-101694905D02*
X118514762Y-101742524D01*
X118562381Y-101885381D01*
X118562381Y-101980619D01*
X118514762Y-102123477D01*
X118419524Y-102218715D01*
X118324286Y-102266334D01*
X118133810Y-102313953D01*
X117990952Y-102313953D01*
X117800476Y-102266334D01*
X117705238Y-102218715D01*
X117610000Y-102123477D01*
X117562381Y-101980619D01*
X117562381Y-101885381D01*
X117610000Y-101742524D01*
X117657619Y-101694905D01*
X117562381Y-100980619D02*
X118276667Y-100980619D01*
X118419524Y-101028239D01*
X118514762Y-101123477D01*
X118562381Y-101266334D01*
X118562381Y-101361572D01*
X118562381Y-100028238D02*
X118562381Y-100504429D01*
X117562381Y-100504429D01*
X118467143Y-99123476D02*
X118514762Y-99171095D01*
X118562381Y-99313952D01*
X118562381Y-99409190D01*
X118514762Y-99552048D01*
X118419524Y-99647286D01*
X118324286Y-99694905D01*
X118133810Y-99742524D01*
X117990952Y-99742524D01*
X117800476Y-99694905D01*
X117705238Y-99647286D01*
X117610000Y-99552048D01*
X117562381Y-99409190D01*
X117562381Y-99313952D01*
X117610000Y-99171095D01*
X117657619Y-99123476D01*
X117562381Y-98409190D02*
X118276667Y-98409190D01*
X118419524Y-98456810D01*
X118514762Y-98552048D01*
X118562381Y-98694905D01*
X118562381Y-98790143D01*
X118562381Y-97456809D02*
X118562381Y-97933000D01*
X117562381Y-97933000D01*
X118467143Y-96552047D02*
X118514762Y-96599666D01*
X118562381Y-96742523D01*
X118562381Y-96837761D01*
X118514762Y-96980619D01*
X118419524Y-97075857D01*
X118324286Y-97123476D01*
X118133810Y-97171095D01*
X117990952Y-97171095D01*
X117800476Y-97123476D01*
X117705238Y-97075857D01*
X117610000Y-96980619D01*
X117562381Y-96837761D01*
X117562381Y-96742523D01*
X117610000Y-96599666D01*
X117657619Y-96552047D01*
X117562381Y-95837761D02*
X118276667Y-95837761D01*
X118419524Y-95885381D01*
X118514762Y-95980619D01*
X118562381Y-96123476D01*
X118562381Y-96218714D01*
X118562381Y-94885380D02*
X118562381Y-95361571D01*
X117562381Y-95361571D01*
X118467143Y-93980618D02*
X118514762Y-94028237D01*
X118562381Y-94171094D01*
X118562381Y-94266332D01*
X118514762Y-94409190D01*
X118419524Y-94504428D01*
X118324286Y-94552047D01*
X118133810Y-94599666D01*
X117990952Y-94599666D01*
X117800476Y-94552047D01*
X117705238Y-94504428D01*
X117610000Y-94409190D01*
X117562381Y-94266332D01*
X117562381Y-94171094D01*
X117610000Y-94028237D01*
X117657619Y-93980618D01*
D13*
X92241000Y-91067000D02*
X92241000Y-92067000D01*
X93941000Y-92067000D02*
X93941000Y-91067000D01*
X105629000Y-122546000D02*
X104429000Y-122546000D01*
X104429000Y-120786000D02*
X105629000Y-120786000D01*
X105269200Y-149208980D02*
X105719200Y-149208980D01*
X105269200Y-151058980D02*
X105269200Y-149208980D01*
X113069200Y-153608980D02*
X113069200Y-153358980D01*
X105269200Y-153608980D02*
X105269200Y-153358980D01*
X113069200Y-151058980D02*
X113069200Y-149208980D01*
X113069200Y-149208980D02*
X112619200Y-149208980D01*
X107469200Y-148658980D02*
X107919200Y-148658980D01*
X107469200Y-148658980D02*
X107469200Y-149108980D01*
X107081000Y-130614000D02*
X107081000Y-128814000D01*
X103861000Y-128814000D02*
X103861000Y-131264000D01*
X113213000Y-144147000D02*
X112283000Y-144147000D01*
X110053000Y-144147000D02*
X110983000Y-144147000D01*
X110053000Y-144147000D02*
X110053000Y-146307000D01*
X113213000Y-144147000D02*
X113213000Y-145607000D01*
X115023000Y-146042000D02*
X115023000Y-145042000D01*
X113323000Y-145042000D02*
X113323000Y-146042000D01*
X105672000Y-141439000D02*
X106672000Y-141439000D01*
X106672000Y-139739000D02*
X105672000Y-139739000D01*
X104742940Y-138037880D02*
X107402940Y-138037880D01*
X104742940Y-135437880D02*
X104742940Y-138037880D01*
X107402940Y-135437880D02*
X107402940Y-138037880D01*
X104742940Y-135437880D02*
X107402940Y-135437880D01*
X104742940Y-134167880D02*
X104742940Y-132837880D01*
X104742940Y-132837880D02*
X106072940Y-132837880D01*
X105953000Y-144154000D02*
X107153000Y-144154000D01*
X107153000Y-145914000D02*
X105953000Y-145914000D01*
X110144000Y-131835000D02*
X111344000Y-131835000D01*
X111344000Y-133595000D02*
X110144000Y-133595000D01*
X106053000Y-147789000D02*
X107053000Y-147789000D01*
X107053000Y-146089000D02*
X106053000Y-146089000D01*
X113559900Y-123305260D02*
X108359900Y-123305260D01*
X113559900Y-128445260D02*
X113559900Y-123305260D01*
X108359900Y-131045260D02*
X108359900Y-123305260D01*
X113559900Y-128445260D02*
X110959900Y-128445260D01*
X110959900Y-128445260D02*
X110959900Y-131045260D01*
X110959900Y-131045260D02*
X108359900Y-131045260D01*
X113559900Y-129715260D02*
X113559900Y-131045260D01*
X113559900Y-131045260D02*
X112229900Y-131045260D01*
D14*
X113030000Y-136652000D02*
G75*
G03X113030000Y-136652000I-127000J0D01*
G01*
X113538000Y-136017000D02*
X108458000Y-136017000D01*
X113538000Y-139319000D02*
X108458000Y-139319000D01*
X113538000Y-135509000D02*
X108458000Y-135509000D01*
X113538000Y-135509000D02*
X113538000Y-139319000D01*
X108458000Y-135509000D02*
X108458000Y-139319000D01*
D13*
X107149000Y-118483000D02*
X107149000Y-117483000D01*
X105449000Y-117483000D02*
X105449000Y-118483000D01*
X104766000Y-117383000D02*
X104766000Y-118583000D01*
X103006000Y-118583000D02*
X103006000Y-117383000D01*
X107451000Y-118630000D02*
X107451000Y-117430000D01*
X109211000Y-117430000D02*
X109211000Y-118630000D01*
X108549000Y-144002000D02*
X108549000Y-142002000D01*
X108549000Y-142002000D02*
X104649000Y-142002000D01*
X108549000Y-144002000D02*
X104649000Y-144002000D01*
D15*
X115443000Y-112776000D02*
X117983000Y-112776000D01*
X115443000Y-110236000D02*
X115443000Y-112776000D01*
X100203000Y-153416000D02*
X100203000Y-110236000D01*
X117983000Y-153416000D02*
X100203000Y-153416000D01*
X117983000Y-110236000D02*
X117983000Y-153416000D01*
X100203000Y-110236000D02*
X117983000Y-110236000D01*
D14*
X114260381Y-99821905D02*
X115069905Y-99821905D01*
X115165143Y-99774286D01*
X115212762Y-99726667D01*
X115260381Y-99631429D01*
X115260381Y-99440952D01*
X115212762Y-99345714D01*
X115165143Y-99298095D01*
X115069905Y-99250476D01*
X114260381Y-99250476D01*
X115260381Y-98250476D02*
X115260381Y-98821905D01*
X115260381Y-98536191D02*
X114260381Y-98536191D01*
X114403238Y-98631429D01*
X114498476Y-98726667D01*
X114546095Y-98821905D01*
X109410571Y-104298095D02*
X109410571Y-103964761D01*
X109934381Y-103821904D02*
X109934381Y-104298095D01*
X108934381Y-104298095D01*
X108934381Y-103821904D01*
X108934381Y-103488571D02*
X108934381Y-102821904D01*
X109934381Y-103250476D01*
X108934381Y-102536190D02*
X108934381Y-101917142D01*
X109315333Y-102250476D01*
X109315333Y-102107618D01*
X109362952Y-102012380D01*
X109410571Y-101964761D01*
X109505810Y-101917142D01*
X109743905Y-101917142D01*
X109839143Y-101964761D01*
X109886762Y-102012380D01*
X109934381Y-102107618D01*
X109934381Y-102393333D01*
X109886762Y-102488571D01*
X109839143Y-102536190D01*
X109553429Y-101488571D02*
X109553429Y-100726666D01*
X109029619Y-100298095D02*
X108982000Y-100250476D01*
X108934381Y-100155238D01*
X108934381Y-99917142D01*
X108982000Y-99821904D01*
X109029619Y-99774285D01*
X109124857Y-99726666D01*
X109220095Y-99726666D01*
X109362952Y-99774285D01*
X109934381Y-100345714D01*
X109934381Y-99726666D01*
X108982000Y-98774285D02*
X108934381Y-98869523D01*
X108934381Y-99012380D01*
X108982000Y-99155238D01*
X109077238Y-99250476D01*
X109172476Y-99298095D01*
X109362952Y-99345714D01*
X109505810Y-99345714D01*
X109696286Y-99298095D01*
X109791524Y-99250476D01*
X109886762Y-99155238D01*
X109934381Y-99012380D01*
X109934381Y-98917142D01*
X109886762Y-98774285D01*
X109839143Y-98726666D01*
X109505810Y-98726666D01*
X109505810Y-98917142D01*
X109267714Y-97869523D02*
X109934381Y-97869523D01*
X108886762Y-98107619D02*
X109601048Y-98345714D01*
X109601048Y-97726666D01*
X109934381Y-97345714D02*
X108934381Y-97345714D01*
X109648667Y-97012380D01*
X108934381Y-96679047D01*
X109934381Y-96679047D01*
X108934381Y-96012381D02*
X108934381Y-95917142D01*
X108982000Y-95821904D01*
X109029619Y-95774285D01*
X109124857Y-95726666D01*
X109315333Y-95679047D01*
X109553429Y-95679047D01*
X109743905Y-95726666D01*
X109839143Y-95774285D01*
X109886762Y-95821904D01*
X109934381Y-95917142D01*
X109934381Y-96012381D01*
X109886762Y-96107619D01*
X109839143Y-96155238D01*
X109743905Y-96202857D01*
X109553429Y-96250476D01*
X109315333Y-96250476D01*
X109124857Y-96202857D01*
X109029619Y-96155238D01*
X108982000Y-96107619D01*
X108934381Y-96012381D01*
X109267714Y-94821904D02*
X109934381Y-94821904D01*
X108886762Y-95060000D02*
X109601048Y-95298095D01*
X109601048Y-94679047D01*
X109886762Y-94345714D02*
X109934381Y-94202857D01*
X109934381Y-93964761D01*
X109886762Y-93869523D01*
X109839143Y-93821904D01*
X109743905Y-93774285D01*
X109648667Y-93774285D01*
X109553429Y-93821904D01*
X109505810Y-93869523D01*
X109458190Y-93964761D01*
X109410571Y-94155238D01*
X109362952Y-94250476D01*
X109315333Y-94298095D01*
X109220095Y-94345714D01*
X109124857Y-94345714D01*
X109029619Y-94298095D01*
X108982000Y-94250476D01*
X108934381Y-94155238D01*
X108934381Y-93917142D01*
X108982000Y-93774285D01*
D10*
X93478546Y-96061511D02*
X93478546Y-96490083D01*
X93478546Y-96275797D02*
X92728546Y-96275797D01*
X92835689Y-96347226D01*
X92907117Y-96418654D01*
X92942831Y-96490083D01*
X92728546Y-95597225D02*
X92728546Y-95525797D01*
X92764260Y-95454368D01*
X92799974Y-95418654D01*
X92871403Y-95382940D01*
X93014260Y-95347225D01*
X93192831Y-95347225D01*
X93335689Y-95382940D01*
X93407117Y-95418654D01*
X93442831Y-95454368D01*
X93478546Y-95525797D01*
X93478546Y-95597225D01*
X93442831Y-95668654D01*
X93407117Y-95704368D01*
X93335689Y-95740083D01*
X93192831Y-95775797D01*
X93014260Y-95775797D01*
X92871403Y-95740083D01*
X92799974Y-95704368D01*
X92764260Y-95668654D01*
X92728546Y-95597225D01*
X92978546Y-94704368D02*
X93478546Y-94704368D01*
X92978546Y-95025797D02*
X93371403Y-95025797D01*
X93442831Y-94990082D01*
X93478546Y-94918654D01*
X93478546Y-94811511D01*
X93442831Y-94740082D01*
X93407117Y-94704368D01*
X93085689Y-94097226D02*
X93085689Y-94347226D01*
X93478546Y-94347226D02*
X92728546Y-94347226D01*
X92728546Y-93990083D01*
X108000131Y-122025605D02*
X107571559Y-122025605D01*
X107785845Y-122025605D02*
X107785845Y-121275605D01*
X107714416Y-121382748D01*
X107642988Y-121454176D01*
X107571559Y-121489890D01*
X108464417Y-121275605D02*
X108535845Y-121275605D01*
X108607274Y-121311319D01*
X108642988Y-121347033D01*
X108678702Y-121418462D01*
X108714417Y-121561319D01*
X108714417Y-121739890D01*
X108678702Y-121882748D01*
X108642988Y-121954176D01*
X108607274Y-121989890D01*
X108535845Y-122025605D01*
X108464417Y-122025605D01*
X108392988Y-121989890D01*
X108357274Y-121954176D01*
X108321559Y-121882748D01*
X108285845Y-121739890D01*
X108285845Y-121561319D01*
X108321559Y-121418462D01*
X108357274Y-121347033D01*
X108392988Y-121311319D01*
X108464417Y-121275605D01*
X109035845Y-122025605D02*
X109035845Y-121275605D01*
X109107274Y-121739890D02*
X109321560Y-122025605D01*
X109321560Y-121525605D02*
X109035845Y-121811319D01*
X105366333Y-130111189D02*
X105366333Y-129873094D01*
X105509190Y-130158808D02*
X105009190Y-129992141D01*
X105509190Y-129825475D01*
X105509190Y-129658808D02*
X105009190Y-129658808D01*
X105009190Y-129468332D01*
X105033000Y-129420713D01*
X105056810Y-129396904D01*
X105104429Y-129373094D01*
X105175857Y-129373094D01*
X105223476Y-129396904D01*
X105247286Y-129420713D01*
X105271095Y-129468332D01*
X105271095Y-129658808D01*
X105056810Y-129182618D02*
X105033000Y-129158808D01*
X105009190Y-129111189D01*
X105009190Y-128992142D01*
X105033000Y-128944523D01*
X105056810Y-128920713D01*
X105104429Y-128896904D01*
X105152048Y-128896904D01*
X105223476Y-128920713D01*
X105509190Y-129206427D01*
X105509190Y-128896904D01*
X105509190Y-128420714D02*
X105509190Y-128706428D01*
X105509190Y-128563571D02*
X105009190Y-128563571D01*
X105080619Y-128611190D01*
X105128238Y-128658809D01*
X105152048Y-128706428D01*
X105509190Y-127944524D02*
X105509190Y-128230238D01*
X105509190Y-128087381D02*
X105009190Y-128087381D01*
X105080619Y-128135000D01*
X105128238Y-128182619D01*
X105152048Y-128230238D01*
X105056810Y-127754048D02*
X105033000Y-127730238D01*
X105009190Y-127682619D01*
X105009190Y-127563572D01*
X105033000Y-127515953D01*
X105056810Y-127492143D01*
X105104429Y-127468334D01*
X105152048Y-127468334D01*
X105223476Y-127492143D01*
X105509190Y-127777857D01*
X105509190Y-127468334D01*
X105509190Y-127254048D02*
X105009190Y-127254048D01*
X105509190Y-126968334D02*
X105223476Y-127182620D01*
X105009190Y-126968334D02*
X105294905Y-127254048D01*
X105318714Y-126754048D02*
X105318714Y-126373096D01*
X105009190Y-126182619D02*
X105009190Y-125873096D01*
X105199667Y-126039762D01*
X105199667Y-125968334D01*
X105223476Y-125920715D01*
X105247286Y-125896905D01*
X105294905Y-125873096D01*
X105413952Y-125873096D01*
X105461571Y-125896905D01*
X105485381Y-125920715D01*
X105509190Y-125968334D01*
X105509190Y-126111191D01*
X105485381Y-126158810D01*
X105461571Y-126182619D01*
X105461571Y-125658810D02*
X105485381Y-125635001D01*
X105509190Y-125658810D01*
X105485381Y-125682620D01*
X105461571Y-125658810D01*
X105509190Y-125658810D01*
X105009190Y-125468334D02*
X105009190Y-125158811D01*
X105199667Y-125325477D01*
X105199667Y-125254049D01*
X105223476Y-125206430D01*
X105247286Y-125182620D01*
X105294905Y-125158811D01*
X105413952Y-125158811D01*
X105461571Y-125182620D01*
X105485381Y-125206430D01*
X105509190Y-125254049D01*
X105509190Y-125396906D01*
X105485381Y-125444525D01*
X105461571Y-125468334D01*
D14*
X113323619Y-143224238D02*
X113276000Y-143319476D01*
X113180762Y-143414714D01*
X113037905Y-143557571D01*
X112990286Y-143652810D01*
X112990286Y-143748048D01*
X113228381Y-143700429D02*
X113180762Y-143795667D01*
X113085524Y-143890905D01*
X112895048Y-143938524D01*
X112561714Y-143938524D01*
X112371238Y-143890905D01*
X112276000Y-143795667D01*
X112228381Y-143700429D01*
X112228381Y-143509952D01*
X112276000Y-143414714D01*
X112371238Y-143319476D01*
X112561714Y-143271857D01*
X112895048Y-143271857D01*
X113085524Y-143319476D01*
X113180762Y-143414714D01*
X113228381Y-143509952D01*
X113228381Y-143700429D01*
X113228381Y-142319476D02*
X113228381Y-142890905D01*
X113228381Y-142605191D02*
X112228381Y-142605191D01*
X112371238Y-142700429D01*
X112466476Y-142795667D01*
X112514095Y-142890905D01*
D10*
X114258286Y-142916571D02*
X114258286Y-143345143D01*
X114258286Y-143130857D02*
X113508286Y-143130857D01*
X113615429Y-143202286D01*
X113686857Y-143273714D01*
X113722571Y-143345143D01*
X113508286Y-142452285D02*
X113508286Y-142380857D01*
X113544000Y-142309428D01*
X113579714Y-142273714D01*
X113651143Y-142238000D01*
X113794000Y-142202285D01*
X113972571Y-142202285D01*
X114115429Y-142238000D01*
X114186857Y-142273714D01*
X114222571Y-142309428D01*
X114258286Y-142380857D01*
X114258286Y-142452285D01*
X114222571Y-142523714D01*
X114186857Y-142559428D01*
X114115429Y-142595143D01*
X113972571Y-142630857D01*
X113794000Y-142630857D01*
X113651143Y-142595143D01*
X113579714Y-142559428D01*
X113544000Y-142523714D01*
X113508286Y-142452285D01*
X113758286Y-141559428D02*
X114258286Y-141559428D01*
X113758286Y-141880857D02*
X114151143Y-141880857D01*
X114222571Y-141845142D01*
X114258286Y-141773714D01*
X114258286Y-141666571D01*
X114222571Y-141595142D01*
X114186857Y-141559428D01*
X113865429Y-140952286D02*
X113865429Y-141202286D01*
X114258286Y-141202286D02*
X113508286Y-141202286D01*
X113508286Y-140845143D01*
X105368429Y-139531286D02*
X104939857Y-139531286D01*
X105154143Y-139531286D02*
X105154143Y-138781286D01*
X105082714Y-138888429D01*
X105011286Y-138959857D01*
X104939857Y-138995571D01*
X105832715Y-138781286D02*
X105904143Y-138781286D01*
X105975572Y-138817000D01*
X106011286Y-138852714D01*
X106047000Y-138924143D01*
X106082715Y-139067000D01*
X106082715Y-139245571D01*
X106047000Y-139388429D01*
X106011286Y-139459857D01*
X105975572Y-139495571D01*
X105904143Y-139531286D01*
X105832715Y-139531286D01*
X105761286Y-139495571D01*
X105725572Y-139459857D01*
X105689857Y-139388429D01*
X105654143Y-139245571D01*
X105654143Y-139067000D01*
X105689857Y-138924143D01*
X105725572Y-138852714D01*
X105761286Y-138817000D01*
X105832715Y-138781286D01*
X106725572Y-139031286D02*
X106725572Y-139531286D01*
X106404143Y-139031286D02*
X106404143Y-139424143D01*
X106439858Y-139495571D01*
X106511286Y-139531286D01*
X106618429Y-139531286D01*
X106689858Y-139495571D01*
X106725572Y-139459857D01*
X107332714Y-139138429D02*
X107082714Y-139138429D01*
X107082714Y-139531286D02*
X107082714Y-138781286D01*
X107439857Y-138781286D01*
X109234000Y-145119286D02*
X108805428Y-145119286D01*
X109019714Y-145119286D02*
X109019714Y-144369286D01*
X108948285Y-144476429D01*
X108876857Y-144547857D01*
X108805428Y-144583571D01*
X109698286Y-144369286D02*
X109769714Y-144369286D01*
X109841143Y-144405000D01*
X109876857Y-144440714D01*
X109912571Y-144512143D01*
X109948286Y-144655000D01*
X109948286Y-144833571D01*
X109912571Y-144976429D01*
X109876857Y-145047857D01*
X109841143Y-145083571D01*
X109769714Y-145119286D01*
X109698286Y-145119286D01*
X109626857Y-145083571D01*
X109591143Y-145047857D01*
X109555428Y-144976429D01*
X109519714Y-144833571D01*
X109519714Y-144655000D01*
X109555428Y-144512143D01*
X109591143Y-144440714D01*
X109626857Y-144405000D01*
X109698286Y-144369286D01*
X110412572Y-144369286D02*
X110484000Y-144369286D01*
X110555429Y-144405000D01*
X110591143Y-144440714D01*
X110626857Y-144512143D01*
X110662572Y-144655000D01*
X110662572Y-144833571D01*
X110626857Y-144976429D01*
X110591143Y-145047857D01*
X110555429Y-145083571D01*
X110484000Y-145119286D01*
X110412572Y-145119286D01*
X110341143Y-145083571D01*
X110305429Y-145047857D01*
X110269714Y-144976429D01*
X110234000Y-144833571D01*
X110234000Y-144655000D01*
X110269714Y-144512143D01*
X110305429Y-144440714D01*
X110341143Y-144405000D01*
X110412572Y-144369286D01*
X110984000Y-145119286D02*
X110984000Y-144369286D01*
X111412572Y-145119286D02*
X111091143Y-144690714D01*
X111412572Y-144369286D02*
X110984000Y-144797857D01*
X110353143Y-131911286D02*
X109924571Y-131911286D01*
X110138857Y-131911286D02*
X110138857Y-131161286D01*
X110067428Y-131268429D01*
X109996000Y-131339857D01*
X109924571Y-131375571D01*
X110817429Y-131161286D02*
X110888857Y-131161286D01*
X110960286Y-131197000D01*
X110996000Y-131232714D01*
X111031714Y-131304143D01*
X111067429Y-131447000D01*
X111067429Y-131625571D01*
X111031714Y-131768429D01*
X110996000Y-131839857D01*
X110960286Y-131875571D01*
X110888857Y-131911286D01*
X110817429Y-131911286D01*
X110746000Y-131875571D01*
X110710286Y-131839857D01*
X110674571Y-131768429D01*
X110638857Y-131625571D01*
X110638857Y-131447000D01*
X110674571Y-131304143D01*
X110710286Y-131232714D01*
X110746000Y-131197000D01*
X110817429Y-131161286D01*
X111388857Y-131911286D02*
X111388857Y-131161286D01*
X111817429Y-131911286D02*
X111496000Y-131482714D01*
X111817429Y-131161286D02*
X111388857Y-131589857D01*
X109051429Y-147913286D02*
X108622857Y-147913286D01*
X108837143Y-147913286D02*
X108837143Y-147163286D01*
X108765714Y-147270429D01*
X108694286Y-147341857D01*
X108622857Y-147377571D01*
X109515715Y-147163286D02*
X109587143Y-147163286D01*
X109658572Y-147199000D01*
X109694286Y-147234714D01*
X109730000Y-147306143D01*
X109765715Y-147449000D01*
X109765715Y-147627571D01*
X109730000Y-147770429D01*
X109694286Y-147841857D01*
X109658572Y-147877571D01*
X109587143Y-147913286D01*
X109515715Y-147913286D01*
X109444286Y-147877571D01*
X109408572Y-147841857D01*
X109372857Y-147770429D01*
X109337143Y-147627571D01*
X109337143Y-147449000D01*
X109372857Y-147306143D01*
X109408572Y-147234714D01*
X109444286Y-147199000D01*
X109515715Y-147163286D01*
X110408572Y-147413286D02*
X110408572Y-147913286D01*
X110087143Y-147413286D02*
X110087143Y-147806143D01*
X110122858Y-147877571D01*
X110194286Y-147913286D01*
X110301429Y-147913286D01*
X110372858Y-147877571D01*
X110408572Y-147841857D01*
X111015714Y-147520429D02*
X110765714Y-147520429D01*
X110765714Y-147913286D02*
X110765714Y-147163286D01*
X111122857Y-147163286D01*
X110442131Y-136236246D02*
X110442131Y-136843389D01*
X110477846Y-136914817D01*
X110513560Y-136950531D01*
X110584989Y-136986246D01*
X110727846Y-136986246D01*
X110799274Y-136950531D01*
X110834989Y-136914817D01*
X110870703Y-136843389D01*
X110870703Y-136236246D01*
X111549274Y-136236246D02*
X111406417Y-136236246D01*
X111334988Y-136271960D01*
X111299274Y-136307674D01*
X111227845Y-136414817D01*
X111192131Y-136557674D01*
X111192131Y-136843389D01*
X111227845Y-136914817D01*
X111263560Y-136950531D01*
X111334988Y-136986246D01*
X111477845Y-136986246D01*
X111549274Y-136950531D01*
X111584988Y-136914817D01*
X111620703Y-136843389D01*
X111620703Y-136664817D01*
X111584988Y-136593389D01*
X111549274Y-136557674D01*
X111477845Y-136521960D01*
X111334988Y-136521960D01*
X111263560Y-136557674D01*
X111227845Y-136593389D01*
X111192131Y-136664817D01*
X108982683Y-137218007D02*
X109411254Y-137218007D01*
X109196968Y-137968007D02*
X109196968Y-137218007D01*
X109661254Y-137968007D02*
X109661254Y-137218007D01*
X109946969Y-137218007D01*
X110018397Y-137253721D01*
X110054112Y-137289435D01*
X110089826Y-137360864D01*
X110089826Y-137468007D01*
X110054112Y-137539435D01*
X110018397Y-137575150D01*
X109946969Y-137610864D01*
X109661254Y-137610864D01*
X110732683Y-137468007D02*
X110732683Y-137968007D01*
X110554112Y-137182292D02*
X110375540Y-137718007D01*
X110839826Y-137718007D01*
X111268398Y-137218007D02*
X111339826Y-137218007D01*
X111411255Y-137253721D01*
X111446969Y-137289435D01*
X111482683Y-137360864D01*
X111518398Y-137503721D01*
X111518398Y-137682292D01*
X111482683Y-137825150D01*
X111446969Y-137896578D01*
X111411255Y-137932292D01*
X111339826Y-137968007D01*
X111268398Y-137968007D01*
X111196969Y-137932292D01*
X111161255Y-137896578D01*
X111125540Y-137825150D01*
X111089826Y-137682292D01*
X111089826Y-137503721D01*
X111125540Y-137360864D01*
X111161255Y-137289435D01*
X111196969Y-137253721D01*
X111268398Y-137218007D01*
X112196969Y-137218007D02*
X111839826Y-137218007D01*
X111804112Y-137575150D01*
X111839826Y-137539435D01*
X111911255Y-137503721D01*
X112089826Y-137503721D01*
X112161255Y-137539435D01*
X112196969Y-137575150D01*
X112232684Y-137646578D01*
X112232684Y-137825150D01*
X112196969Y-137896578D01*
X112161255Y-137932292D01*
X112089826Y-137968007D01*
X111911255Y-137968007D01*
X111839826Y-137932292D01*
X111804112Y-137896578D01*
X112875541Y-137218007D02*
X112732684Y-137218007D01*
X112661255Y-137253721D01*
X112625541Y-137289435D01*
X112554112Y-137396578D01*
X112518398Y-137539435D01*
X112518398Y-137825150D01*
X112554112Y-137896578D01*
X112589827Y-137932292D01*
X112661255Y-137968007D01*
X112804112Y-137968007D01*
X112875541Y-137932292D01*
X112911255Y-137896578D01*
X112946970Y-137825150D01*
X112946970Y-137646578D01*
X112911255Y-137575150D01*
X112875541Y-137539435D01*
X112804112Y-137503721D01*
X112661255Y-137503721D01*
X112589827Y-137539435D01*
X112554112Y-137575150D01*
X112518398Y-137646578D01*
X106638286Y-114619428D02*
X106638286Y-115048000D01*
X106638286Y-114833714D02*
X105888286Y-114833714D01*
X105995429Y-114905143D01*
X106066857Y-114976571D01*
X106102571Y-115048000D01*
X106138286Y-114298000D02*
X106638286Y-114298000D01*
X106209714Y-114298000D02*
X106174000Y-114262285D01*
X106138286Y-114190857D01*
X106138286Y-114083714D01*
X106174000Y-114012285D01*
X106245429Y-113976571D01*
X106638286Y-113976571D01*
X106245429Y-113369429D02*
X106245429Y-113619429D01*
X106638286Y-113619429D02*
X105888286Y-113619429D01*
X105888286Y-113262286D01*
X103763694Y-114825715D02*
X103727980Y-114897143D01*
X103692266Y-114932858D01*
X103620837Y-114968572D01*
X103585123Y-114968572D01*
X103513694Y-114932858D01*
X103477980Y-114897143D01*
X103442266Y-114825715D01*
X103442266Y-114682858D01*
X103477980Y-114611429D01*
X103513694Y-114575715D01*
X103585123Y-114540000D01*
X103620837Y-114540000D01*
X103692266Y-114575715D01*
X103727980Y-114611429D01*
X103763694Y-114682858D01*
X103763694Y-114825715D01*
X103799409Y-114897143D01*
X103835123Y-114932858D01*
X103906551Y-114968572D01*
X104049409Y-114968572D01*
X104120837Y-114932858D01*
X104156551Y-114897143D01*
X104192266Y-114825715D01*
X104192266Y-114682858D01*
X104156551Y-114611429D01*
X104120837Y-114575715D01*
X104049409Y-114540000D01*
X103906551Y-114540000D01*
X103835123Y-114575715D01*
X103799409Y-114611429D01*
X103763694Y-114682858D01*
X103442266Y-114075714D02*
X103442266Y-114004286D01*
X103477980Y-113932857D01*
X103513694Y-113897143D01*
X103585123Y-113861429D01*
X103727980Y-113825714D01*
X103906551Y-113825714D01*
X104049409Y-113861429D01*
X104120837Y-113897143D01*
X104156551Y-113932857D01*
X104192266Y-114004286D01*
X104192266Y-114075714D01*
X104156551Y-114147143D01*
X104120837Y-114182857D01*
X104049409Y-114218572D01*
X103906551Y-114254286D01*
X103727980Y-114254286D01*
X103585123Y-114218572D01*
X103513694Y-114182857D01*
X103477980Y-114147143D01*
X103442266Y-114075714D01*
X103442266Y-113182857D02*
X103442266Y-113325714D01*
X103477980Y-113397143D01*
X103513694Y-113432857D01*
X103620837Y-113504286D01*
X103763694Y-113540000D01*
X104049409Y-113540000D01*
X104120837Y-113504286D01*
X104156551Y-113468571D01*
X104192266Y-113397143D01*
X104192266Y-113254286D01*
X104156551Y-113182857D01*
X104120837Y-113147143D01*
X104049409Y-113111428D01*
X103870837Y-113111428D01*
X103799409Y-113147143D01*
X103763694Y-113182857D01*
X103727980Y-113254286D01*
X103727980Y-113397143D01*
X103763694Y-113468571D01*
X103799409Y-113504286D01*
X103870837Y-113540000D01*
X104192266Y-112790000D02*
X103442266Y-112790000D01*
X104192266Y-112361428D02*
X103763694Y-112682857D01*
X103442266Y-112361428D02*
X103870837Y-112790000D01*
X107991714Y-114942857D02*
X107956000Y-114907143D01*
X107920286Y-114835714D01*
X107920286Y-114657143D01*
X107956000Y-114585714D01*
X107991714Y-114550000D01*
X108063143Y-114514285D01*
X108134571Y-114514285D01*
X108241714Y-114550000D01*
X108670286Y-114978571D01*
X108670286Y-114514285D01*
X108670286Y-114192857D02*
X107920286Y-114192857D01*
X108456000Y-113942857D01*
X107920286Y-113692857D01*
X108670286Y-113692857D01*
X105745428Y-143300286D02*
X105745428Y-142550286D01*
X105924000Y-142550286D01*
X106031143Y-142586000D01*
X106102571Y-142657429D01*
X106138286Y-142728857D01*
X106174000Y-142871714D01*
X106174000Y-142978857D01*
X106138286Y-143121714D01*
X106102571Y-143193143D01*
X106031143Y-143264571D01*
X105924000Y-143300286D01*
X105745428Y-143300286D01*
X106888286Y-143300286D02*
X106459714Y-143300286D01*
X106674000Y-143300286D02*
X106674000Y-142550286D01*
X106602571Y-142657429D01*
X106531143Y-142728857D01*
X106459714Y-142764571D01*
M02*
