<svg version="1.1" xmlns="http://www.w3.org/2000/svg" xmlns:xlink="http://www.w3.org/1999/xlink" stroke-linecap="round" stroke-linejoin="round" stroke-width="0" fill-rule="evenodd" clip-rule="evenodd" id="t-54tEWkvTAUzmZG_A_n_top" viewBox="98425 -153670 21590 62230" width="21.59mm" height="62.23mm" class="w-100 h-100"><defs><style>.t-54tEWkvTAUzmZG_A_n_fr4 {color: #666666;}
.t-54tEWkvTAUzmZG_A_n_cu {color: #cccccc;}
.t-54tEWkvTAUzmZG_A_n_cf {color: #cc9933;}
.t-54tEWkvTAUzmZG_A_n_sm {color: #004200; opacity: 0.75;}
.t-54tEWkvTAUzmZG_A_n_ss {color: #ffffff;}
.t-54tEWkvTAUzmZG_A_n_sp {color: #999999;}
.t-54tEWkvTAUzmZG_A_n_out {color: #000000;}</style><rect x="-876.3" y="-876.3" width="1752.6" height="1752.6" id="Cpj4JHxOwwyi0mWyIhM8_pad-12"/><circle cx="0" cy="0" r="876.3" id="Cpj4JHxOwwyi0mWyIhM8_pad-13"/><rect x="-750" y="-625" width="1500" height="1250" id="Cpj4JHxOwwyi0mWyIhM8_pad-14"/><circle cx="0" cy="0" r="200" id="Cpj4JHxOwwyi0mWyIhM8_pad-15"/><rect x="-750" y="-650" width="1500" height="1300" id="Cpj4JHxOwwyi0mWyIhM8_pad-16"/><rect x="-900" y="-550" width="1800" height="1100" id="Cpj4JHxOwwyi0mWyIhM8_pad-17"/><rect x="-360" y="-1100" width="720" height="2200" id="Cpj4JHxOwwyi0mWyIhM8_pad-18"/><rect x="-1100" y="-360" width="2200" height="720" id="Cpj4JHxOwwyi0mWyIhM8_pad-19"/><rect x="-850" y="-850" width="1700" height="1700" id="Cpj4JHxOwwyi0mWyIhM8_pad-20"/><rect x="-850" y="-850" width="1700" height="1700" rx="850" ry="850" id="Cpj4JHxOwwyi0mWyIhM8_pad-21"/><circle cx="0" cy="0" r="300" id="Cpj4JHxOwwyi0mWyIhM8_pad-22"/><rect x="-1076.3" y="-1076.3" width="2152.6" height="2152.6" id="ZiA7HBn3Fw024BlGaE4c_pad-11"/><circle cx="0" cy="0" r="1076.3" id="ZiA7HBn3Fw024BlGaE4c_pad-12"/><rect x="-950" y="-825" width="1900" height="1650" id="ZiA7HBn3Fw024BlGaE4c_pad-13"/><circle cx="0" cy="0" r="201" id="ZiA7HBn3Fw024BlGaE4c_pad-14"/><rect x="-950" y="-850" width="1900" height="1700" id="ZiA7HBn3Fw024BlGaE4c_pad-15"/><rect x="-1100" y="-750" width="2200" height="1500" id="ZiA7HBn3Fw024BlGaE4c_pad-16"/><rect x="-560" y="-1300" width="1120" height="2600" id="ZiA7HBn3Fw024BlGaE4c_pad-17"/><rect x="-1300" y="-560" width="2600" height="1120" id="ZiA7HBn3Fw024BlGaE4c_pad-18"/><rect x="-1050" y="-1050" width="2100" height="2100" id="ZiA7HBn3Fw024BlGaE4c_pad-19"/><rect x="-1050" y="-1050" width="2100" height="2100" rx="1050" ry="1050" id="ZiA7HBn3Fw024BlGaE4c_pad-20"/><circle cx="0" cy="0" r="6" id="yff8OID-QJZo_QgWJnBU_pad-1"/><circle cx="0" cy="0" r="8" id="yff8OID-QJZo_QgWJnBU_pad-2"/><circle cx="0" cy="0" r="19.5" id="yff8OID-QJZo_QgWJnBU_pad-3"/><circle cx="0" cy="0" r="21.5" id="yff8OID-QJZo_QgWJnBU_pad-4"/><g id="t-54tEWkvTAUzmZG_A_n_top_copper"><path d="M 113550 -104806 113595.2 -105062.5 113725.5 -105288.1 113925 -105455.5 114169.8 -105544.6 114430.2 -105544.6 114675 -105455.5 114874.5 -105288.1 115004.8 -105062.5 115050 -104806 113550 -104806 113550 -104806"/><path d="M 113550 -104806 113595.2 -105062.5 113725.5 -105288.1 113925 -105455.5 114169.8 -105544.6 114430.2 -105544.6 114675 -105455.5 114874.5 -105288.1 115004.8 -105062.5 115050 -104806 113550 -104806" fill="none" stroke-width="10"/><path d="M 115050 -104606 115004.8 -104349.5 114874.5 -104123.9 114675 -103956.5 114430.2 -103867.4 114169.8 -103867.4 113925 -103956.5 113725.5 -104123.9 113595.2 -104349.5 113550 -104606 115050 -104606 115050 -104606"/><path d="M 115050 -104606 115004.8 -104349.5 114874.5 -104123.9 114675 -103956.5 114430.2 -103867.4 114169.8 -103867.4 113925 -103956.5 113725.5 -104123.9 113595.2 -104349.5 113550 -104606 115050 -104606" fill="none" stroke-width="10"/><use xlink:href="#Cpj4JHxOwwyi0mWyIhM8_pad-12" x="101600" y="-152146"/><use xlink:href="#Cpj4JHxOwwyi0mWyIhM8_pad-13" x="101600" y="-149606"/><use xlink:href="#Cpj4JHxOwwyi0mWyIhM8_pad-13" x="101600" y="-147066"/><use xlink:href="#Cpj4JHxOwwyi0mWyIhM8_pad-13" x="101600" y="-144526"/><use xlink:href="#Cpj4JHxOwwyi0mWyIhM8_pad-13" x="101600" y="-141986"/><use xlink:href="#Cpj4JHxOwwyi0mWyIhM8_pad-13" x="101600" y="-139446"/><use xlink:href="#Cpj4JHxOwwyi0mWyIhM8_pad-13" x="101600" y="-136906"/><use xlink:href="#Cpj4JHxOwwyi0mWyIhM8_pad-13" x="101600" y="-134366"/><use xlink:href="#Cpj4JHxOwwyi0mWyIhM8_pad-13" x="101600" y="-131826"/><use xlink:href="#Cpj4JHxOwwyi0mWyIhM8_pad-13" x="101600" y="-129286"/><use xlink:href="#Cpj4JHxOwwyi0mWyIhM8_pad-13" x="101600" y="-126746"/><use xlink:href="#Cpj4JHxOwwyi0mWyIhM8_pad-13" x="101600" y="-124206"/><use xlink:href="#Cpj4JHxOwwyi0mWyIhM8_pad-13" x="116840" y="-124206"/><use xlink:href="#Cpj4JHxOwwyi0mWyIhM8_pad-13" x="116840" y="-126746"/><use xlink:href="#Cpj4JHxOwwyi0mWyIhM8_pad-13" x="116840" y="-129286"/><use xlink:href="#Cpj4JHxOwwyi0mWyIhM8_pad-13" x="116840" y="-131826"/><use xlink:href="#Cpj4JHxOwwyi0mWyIhM8_pad-13" x="116840" y="-134366"/><use xlink:href="#Cpj4JHxOwwyi0mWyIhM8_pad-13" x="116840" y="-136906"/><use xlink:href="#Cpj4JHxOwwyi0mWyIhM8_pad-13" x="116840" y="-139446"/><use xlink:href="#Cpj4JHxOwwyi0mWyIhM8_pad-13" x="116840" y="-141986"/><use xlink:href="#Cpj4JHxOwwyi0mWyIhM8_pad-13" x="116840" y="-144526"/><use xlink:href="#Cpj4JHxOwwyi0mWyIhM8_pad-13" x="116840" y="-147066"/><use xlink:href="#Cpj4JHxOwwyi0mWyIhM8_pad-13" x="116840" y="-149606"/><use xlink:href="#Cpj4JHxOwwyi0mWyIhM8_pad-13" x="116840" y="-152146"/><use xlink:href="#Cpj4JHxOwwyi0mWyIhM8_pad-14" x="107275" y="-125857"/><use xlink:href="#Cpj4JHxOwwyi0mWyIhM8_pad-14" x="104775" y="-125857"/><use xlink:href="#Cpj4JHxOwwyi0mWyIhM8_pad-15" x="114300" y="-104256"/><use xlink:href="#Cpj4JHxOwwyi0mWyIhM8_pad-15" x="114300" y="-105156"/><use xlink:href="#Cpj4JHxOwwyi0mWyIhM8_pad-15" x="114300" y="-105156"/><use xlink:href="#Cpj4JHxOwwyi0mWyIhM8_pad-15" x="114300" y="-104256"/><use xlink:href="#Cpj4JHxOwwyi0mWyIhM8_pad-16" x="112555" y="-125857"/><use xlink:href="#Cpj4JHxOwwyi0mWyIhM8_pad-16" x="109855" y="-125857"/><use xlink:href="#Cpj4JHxOwwyi0mWyIhM8_pad-17" x="112308.5" y="-144153.5"/><use xlink:href="#Cpj4JHxOwwyi0mWyIhM8_pad-17" x="106108.5" y="-144153.5"/><use xlink:href="#Cpj4JHxOwwyi0mWyIhM8_pad-17" x="112308.5" y="-140453.5"/><use xlink:href="#Cpj4JHxOwwyi0mWyIhM8_pad-17" x="106108.5" y="-140453.5"/><use xlink:href="#Cpj4JHxOwwyi0mWyIhM8_pad-17" x="106120" y="-146740"/><use xlink:href="#Cpj4JHxOwwyi0mWyIhM8_pad-17" x="112320" y="-146740"/><use xlink:href="#Cpj4JHxOwwyi0mWyIhM8_pad-17" x="106120" y="-150440"/><use xlink:href="#Cpj4JHxOwwyi0mWyIhM8_pad-17" x="112320" y="-150440"/><use xlink:href="#Cpj4JHxOwwyi0mWyIhM8_pad-18" x="116332" y="-120904"/><use xlink:href="#Cpj4JHxOwwyi0mWyIhM8_pad-18" x="115062" y="-120904"/><use xlink:href="#Cpj4JHxOwwyi0mWyIhM8_pad-18" x="113792" y="-120904"/><use xlink:href="#Cpj4JHxOwwyi0mWyIhM8_pad-18" x="112522" y="-120904"/><use xlink:href="#Cpj4JHxOwwyi0mWyIhM8_pad-18" x="111252" y="-120904"/><use xlink:href="#Cpj4JHxOwwyi0mWyIhM8_pad-18" x="109982" y="-120904"/><use xlink:href="#Cpj4JHxOwwyi0mWyIhM8_pad-18" x="108712" y="-120904"/><use xlink:href="#Cpj4JHxOwwyi0mWyIhM8_pad-18" x="107442" y="-120904"/><use xlink:href="#Cpj4JHxOwwyi0mWyIhM8_pad-18" x="106172" y="-120904"/><use xlink:href="#Cpj4JHxOwwyi0mWyIhM8_pad-18" x="104902" y="-120904"/><use xlink:href="#Cpj4JHxOwwyi0mWyIhM8_pad-18" x="103632" y="-120904"/><use xlink:href="#Cpj4JHxOwwyi0mWyIhM8_pad-18" x="102362" y="-120904"/><use xlink:href="#Cpj4JHxOwwyi0mWyIhM8_pad-19" x="118110" y="-119126"/><use xlink:href="#Cpj4JHxOwwyi0mWyIhM8_pad-19" x="118110" y="-117856"/><use xlink:href="#Cpj4JHxOwwyi0mWyIhM8_pad-19" x="118110" y="-116586"/><use xlink:href="#Cpj4JHxOwwyi0mWyIhM8_pad-19" x="118110" y="-115316"/><use xlink:href="#Cpj4JHxOwwyi0mWyIhM8_pad-19" x="118110" y="-114046"/><use xlink:href="#Cpj4JHxOwwyi0mWyIhM8_pad-19" x="118110" y="-112776"/><use xlink:href="#Cpj4JHxOwwyi0mWyIhM8_pad-19" x="118110" y="-111506"/><use xlink:href="#Cpj4JHxOwwyi0mWyIhM8_pad-19" x="118110" y="-110236"/><use xlink:href="#Cpj4JHxOwwyi0mWyIhM8_pad-19" x="118110" y="-108966"/><use xlink:href="#Cpj4JHxOwwyi0mWyIhM8_pad-19" x="118110" y="-107696"/><use xlink:href="#Cpj4JHxOwwyi0mWyIhM8_pad-19" x="118110" y="-106426"/><use xlink:href="#Cpj4JHxOwwyi0mWyIhM8_pad-19" x="118110" y="-105156"/><use xlink:href="#Cpj4JHxOwwyi0mWyIhM8_pad-19" x="118110" y="-103886"/><use xlink:href="#Cpj4JHxOwwyi0mWyIhM8_pad-19" x="118110" y="-102616"/><use xlink:href="#Cpj4JHxOwwyi0mWyIhM8_pad-19" x="118110" y="-100076"/><use xlink:href="#Cpj4JHxOwwyi0mWyIhM8_pad-19" x="118110" y="-98806"/><use xlink:href="#Cpj4JHxOwwyi0mWyIhM8_pad-19" x="100584" y="-98806"/><use xlink:href="#Cpj4JHxOwwyi0mWyIhM8_pad-19" x="100584" y="-100076"/><use xlink:href="#Cpj4JHxOwwyi0mWyIhM8_pad-19" x="100584" y="-102616"/><use xlink:href="#Cpj4JHxOwwyi0mWyIhM8_pad-19" x="100584" y="-103886"/><use xlink:href="#Cpj4JHxOwwyi0mWyIhM8_pad-19" x="100584" y="-105156"/><use xlink:href="#Cpj4JHxOwwyi0mWyIhM8_pad-19" x="100584" y="-106426"/><use xlink:href="#Cpj4JHxOwwyi0mWyIhM8_pad-19" x="100584" y="-107696"/><use xlink:href="#Cpj4JHxOwwyi0mWyIhM8_pad-19" x="100584" y="-108966"/><use xlink:href="#Cpj4JHxOwwyi0mWyIhM8_pad-19" x="100584" y="-110236"/><use xlink:href="#Cpj4JHxOwwyi0mWyIhM8_pad-19" x="100584" y="-111506"/><use xlink:href="#Cpj4JHxOwwyi0mWyIhM8_pad-19" x="100584" y="-112776"/><use xlink:href="#Cpj4JHxOwwyi0mWyIhM8_pad-19" x="100584" y="-114046"/><use xlink:href="#Cpj4JHxOwwyi0mWyIhM8_pad-19" x="100584" y="-115316"/><use xlink:href="#Cpj4JHxOwwyi0mWyIhM8_pad-19" x="100584" y="-116586"/><use xlink:href="#Cpj4JHxOwwyi0mWyIhM8_pad-19" x="100584" y="-117856"/><use xlink:href="#Cpj4JHxOwwyi0mWyIhM8_pad-19" x="100584" y="-119126"/><use xlink:href="#Cpj4JHxOwwyi0mWyIhM8_pad-20" x="110490" y="-137160"/><use xlink:href="#Cpj4JHxOwwyi0mWyIhM8_pad-21" x="107950" y="-137160"/><use xlink:href="#Cpj4JHxOwwyi0mWyIhM8_pad-21" x="110490" y="-134620"/><use xlink:href="#Cpj4JHxOwwyi0mWyIhM8_pad-21" x="107950" y="-134620"/><use xlink:href="#Cpj4JHxOwwyi0mWyIhM8_pad-21" x="110490" y="-132080"/><use xlink:href="#Cpj4JHxOwwyi0mWyIhM8_pad-21" x="107950" y="-132080"/><use xlink:href="#Cpj4JHxOwwyi0mWyIhM8_pad-22" x="111125" y="-144153.5"/><use xlink:href="#Cpj4JHxOwwyi0mWyIhM8_pad-22" x="102616" y="-118618"/><use xlink:href="#Cpj4JHxOwwyi0mWyIhM8_pad-22" x="100076" y="-121412"/><use xlink:href="#Cpj4JHxOwwyi0mWyIhM8_pad-22" x="103251" y="-125095"/><use xlink:href="#Cpj4JHxOwwyi0mWyIhM8_pad-22" x="107442" y="-144018"/><use xlink:href="#Cpj4JHxOwwyi0mWyIhM8_pad-22" x="113538" y="-150368"/><use xlink:href="#Cpj4JHxOwwyi0mWyIhM8_pad-22" x="103124" y="-100076"/><use xlink:href="#Cpj4JHxOwwyi0mWyIhM8_pad-22" x="102362" y="-100076"/><use xlink:href="#Cpj4JHxOwwyi0mWyIhM8_pad-22" x="109474" y="-100076"/><use xlink:href="#Cpj4JHxOwwyi0mWyIhM8_pad-22" x="116078" y="-100076"/><use xlink:href="#Cpj4JHxOwwyi0mWyIhM8_pad-22" x="116078" y="-98806"/><use xlink:href="#Cpj4JHxOwwyi0mWyIhM8_pad-22" x="109474" y="-98806"/><use xlink:href="#Cpj4JHxOwwyi0mWyIhM8_pad-22" x="103124" y="-98806"/><use xlink:href="#Cpj4JHxOwwyi0mWyIhM8_pad-22" x="102362" y="-98806"/><use xlink:href="#Cpj4JHxOwwyi0mWyIhM8_pad-22" x="104774.982" y="-150558.5"/><use xlink:href="#Cpj4JHxOwwyi0mWyIhM8_pad-22" x="104140" y="-115570"/><use xlink:href="#Cpj4JHxOwwyi0mWyIhM8_pad-22" x="107188" y="-113411.008"/><use xlink:href="#Cpj4JHxOwwyi0mWyIhM8_pad-22" x="109982" y="-106426"/><use xlink:href="#Cpj4JHxOwwyi0mWyIhM8_pad-22" x="114333.02" y="-123842.782"/><use xlink:href="#Cpj4JHxOwwyi0mWyIhM8_pad-22" x="110012.48" y="-127692.819"/><use xlink:href="#Cpj4JHxOwwyi0mWyIhM8_pad-22" x="114670.84" y="-116471.7"/><use xlink:href="#Cpj4JHxOwwyi0mWyIhM8_pad-22" x="111115.01" y="-146740"/><use xlink:href="#Cpj4JHxOwwyi0mWyIhM8_pad-22" x="104775" y="-146740"/><use xlink:href="#Cpj4JHxOwwyi0mWyIhM8_pad-22" x="111760" y="-107315"/><use xlink:href="#Cpj4JHxOwwyi0mWyIhM8_pad-22" x="104775" y="-116840"/><use xlink:href="#Cpj4JHxOwwyi0mWyIhM8_pad-22" x="114935" y="-142875"/><use xlink:href="#Cpj4JHxOwwyi0mWyIhM8_pad-22" x="111115.01" y="-140453.5"/><use xlink:href="#Cpj4JHxOwwyi0mWyIhM8_pad-22" x="107442" y="-140453.5"/><use xlink:href="#Cpj4JHxOwwyi0mWyIhM8_pad-22" x="115570" y="-113538.002"/><use xlink:href="#Cpj4JHxOwwyi0mWyIhM8_pad-22" x="104775" y="-129029.46"/><use xlink:href="#Cpj4JHxOwwyi0mWyIhM8_pad-22" x="109867.915" y="-124106.021"/><use xlink:href="#Cpj4JHxOwwyi0mWyIhM8_pad-22" x="107981.389" y="-123087.32"/><use xlink:href="#Cpj4JHxOwwyi0mWyIhM8_pad-22" x="106917.88" y="-124206.004"/><use xlink:href="#Cpj4JHxOwwyi0mWyIhM8_pad-22" x="106160.576" y="-123948.109"/><use xlink:href="#Cpj4JHxOwwyi0mWyIhM8_pad-22" x="104976.278" y="-123603.443"/><use xlink:href="#Cpj4JHxOwwyi0mWyIhM8_pad-22" x="104239.847" y="-123961.99"/><use xlink:href="#Cpj4JHxOwwyi0mWyIhM8_pad-22" x="115176.3" y="-127944.88"/><use xlink:href="#Cpj4JHxOwwyi0mWyIhM8_pad-22" x="115062" y="-118364"/><use xlink:href="#Cpj4JHxOwwyi0mWyIhM8_pad-22" x="116332" y="-116840"/><use xlink:href="#Cpj4JHxOwwyi0mWyIhM8_pad-22" x="115869.72" y="-115742.72"/><use xlink:href="#Cpj4JHxOwwyi0mWyIhM8_pad-22" x="110041.021" y="-108204"/><use xlink:href="#Cpj4JHxOwwyi0mWyIhM8_pad-22" x="110236" y="-109982"/><use xlink:href="#Cpj4JHxOwwyi0mWyIhM8_pad-22" x="110744" y="-111252"/><use xlink:href="#Cpj4JHxOwwyi0mWyIhM8_pad-22" x="111506" y="-112522"/><use xlink:href="#Cpj4JHxOwwyi0mWyIhM8_pad-22" x="112356.9" y="-117088.92"/><use xlink:href="#Cpj4JHxOwwyi0mWyIhM8_pad-22" x="112717.58" y="-115392.2"/><use xlink:href="#Cpj4JHxOwwyi0mWyIhM8_pad-22" x="108617.903" y="-124289.363"/><use xlink:href="#Cpj4JHxOwwyi0mWyIhM8_pad-22" x="109296.2" y="-139291.06"/><use xlink:href="#Cpj4JHxOwwyi0mWyIhM8_pad-22" x="115854.48" y="-112435.64"/><use xlink:href="#Cpj4JHxOwwyi0mWyIhM8_pad-22" x="115211.86" y="-129821.94"/><use xlink:href="#Cpj4JHxOwwyi0mWyIhM8_pad-22" x="103505" y="-104775"/><path d="M 107442 -144018 110989.5 -144018 111125 -144153.5 M 112308.5 -144153.5 111125 -144153.5 M 106108.5 -144153.5 104958.5 -144153.5 104267 -143462 104267 -136779 106426 -134620 107950 -134620 M 100584 -119126 102108 -119126 102616 -118618 M 104775 -125857 104013 -125857 103251 -125095 M 112308.5 -144153.5 116467.5 -144153.5 116840 -144526 M 112320 -150440 106120 -150440 M 112320 -150440 113466 -150440 113538 -150368 M 106120 -150440 104893.482 -150440 104774.982 -150558.5" fill="none" stroke-width="250"/><path d="M 112331.5 -144081.5 112879.226 -144153.5" fill="none" stroke-width="200"/><path d="M 112308.5 -144153.5 112879.226 -144153.5 M 106108.5 -144153.5 107306.5 -144153.5 107442 -144018 M 114300 -103146 114300 -104256 M 100584 -100076 102362 -100076 M 109474 -100076 103124 -100076 M 118110 -100076 116078 -100076 M 116078 -98806 118110 -98806 M 103124 -98806 109474 -98806 M 100584 -98806 102362 -98806 M 100584 -119126 100076 -119634 100076 -121412 M 99314 -147320 101600 -149606 M 100076 -121412 99314 -122174 99314 -147320 M 100584 -100076 100584 -102616 M 100584 -98806 100584 -100076 M 118110 -100076 118110 -98806 M 114300 -103146 117370 -100076 118110 -100076" fill="none" stroke-width="250"/><path d="M 104350.718 -150558.5 104774.982 -150558.5 M 102552.5 -150558.5 104350.718 -150558.5 M 101600 -149606 102552.5 -150558.5 M 116395.5 -144081.5 116840 -144526 M 116840 -147066 116840 -145826.725 116840 -144526 M 113466 -150440 116840 -147066" fill="none" stroke-width="200"/><path d="M 100584 -115316 103886 -115316 104140 -115570 M 100584 -115316 101324 -115316 M 107188 -113835.272 107188 -113411.008 M 105029 -117856 107188 -115697 107188 -113835.272 M 100584 -117856 105029 -117856 M 107275 -125857 109755 -125857 109855 -125857 M 105664 -133350 109220 -133350 110490 -134620 M 103632 -135382 105664 -133350 M 103632 -142494 103632 -135382 M 101600 -144526 103632 -142494 M 103886 -124587 102362 -123063 102362 -120904 M 105880 -124587 103886 -124587 M 107275 -125857 107150 -125857 105880 -124587 M 101600 -144526 99822 -142748 99822 -122682 101600 -120904 101854 -120904 102362 -120904 102362 -120164 M 118110 -106426 109982 -106426 M 114033.021 -124142.781 114333.02 -123842.782 M 112455 -125857 112455 -125720.802 114033.021 -124142.781 M 110312.479 -127392.82 110012.48 -127692.819 M 112455 -125857 111848.299 -125857 110312.479 -127392.82 M 118110 -108966 117370 -108966 114724.18 -111611.82 114724.18 -116293.9 114608.61 -116409.47 114670.84 -116471.7 M 112555 -125857 112455 -125857 M 112320 -146740 111115.01 -146740 M 106120 -146740 104775 -146740 M 106120 -146740 112320 -146740" fill="none" stroke-width="250"/><path d="M 104775 -146740 101926 -146740 101600 -147066" fill="none" stroke-width="200"/><path d="M 112059.999 -107614.999 111760 -107315 M 112141 -107696 112059.999 -107614.999 M 118110 -107696 112141 -107696 M 104521 -116586 104775 -116840 M 100584 -116586 104521 -116586 M 100584 -116586 101324 -116586 M 110815.011 -140753.499 111115.01 -140453.5 M 107839.282 -140850.782 110717.728 -140850.782 110815.011 -140753.499 M 107442 -140453.5 107839.282 -140850.782 M 115229.478 -111766.522 115229.478 -113197.48 M 116760 -110236 115229.478 -111766.522 M 115270.001 -113238.003 115570 -113538.002 M 115229.478 -113197.48 115270.001 -113238.003 M 118110 -110236 116760 -110236 M 114935 -142875 112513.5 -140453.5 111115.01 -140453.5 M 112308.5 -140453.5 111115.01 -140453.5 M 107258.5 -140453.5 107442 -140453.5 M 106108.5 -140453.5 107258.5 -140453.5 M 115638.699 -123629.375 115638.699 -125532.965 M 105199.264 -129029.46 104775 -129029.46 M 112142.204 -129029.46 105199.264 -129029.46 M 115638.699 -125532.965 112142.204 -129029.46 M 116332 -122936.074 115638.699 -123629.375 M 116332 -120904 116332 -122936.074 M 115188.688 -123442.975 115188.688 -125346.566 112217.425 -128317.829 M 115062 -121644 115672 -122254 M 112217.425 -128317.829 105112.832 -128317.829 M 115062 -120904 115062 -121644 M 105112.832 -128317.829 102476.299 -125681.296 M 102476.299 -125082.299 101600 -124206 M 102476.299 -125681.296 102476.299 -125082.299 M 115672 -122959.663 115188.688 -123442.975 M 115672 -122254 115672 -122959.663 M 111252 -122721.936 110167.914 -123806.022 M 111252 -120904 111252 -122721.936 M 110167.914 -123806.022 109867.915 -124106.021 M 108281.388 -122787.321 107981.389 -123087.32 M 108712 -122356.709 108281.388 -122787.321 M 108712 -120904 108712 -122356.709 M 108712 -120904 108712 -120164 M 106917.88 -122778.12 106917.88 -124206.004 M 107442 -120904 107442 -122254 106917.88 -122778.12 M 106172 -120904 106172 -123936.685 106160.576 -123948.109 M 104902 -123529.165 104976.278 -123603.443 M 104902 -120904 104902 -123529.165 M 103632 -120904 103632 -123354.143 103939.848 -123661.991 104239.847 -123961.99 M 103632 -120904 103632 -121644 M 117416.625 -125407.301 118110 -124713.926 118110 -119736 M 101600 -126746 104648 -129794 M 118110 -119736 118110 -119126 M 112014.074 -129794 116400.773 -125407.301 M 104648 -129794 112014.074 -129794 M 116400.773 -125407.301 117416.625 -125407.301 M 102616 -130302 112819.18 -130302 M 101600 -129286 102616 -130302 M 112819.18 -130302 114876.301 -128244.879 115176.3 -127944.88 M 115062 -118364 115570 -117856 118110 -117856 M 118110 -116586 116586 -116586 116332 -116840 M 116169.719 -115442.721 115869.72 -115742.72 M 116296.44 -115316 116169.719 -115442.721 M 118110 -115316 116296.44 -115316 M 108263.021 -106426 109741.022 -107904.001 110041.021 -108204 M 100584 -106426 108263.021 -106426 M 100584 -107696 107950 -107696 M 109936.001 -109682.001 110236 -109982 M 107950 -107696 109936.001 -109682.001 M 100584 -108966 108294.996 -108966 M 110280.997 -110952.001 110444.001 -110952.001 M 108294.996 -108966 110280.997 -110952.001 M 110444.001 -110952.001 110744 -111252 M 108802.996 -110236 110788.997 -112222.001 M 100584 -110236 108802.996 -110236 M 110788.997 -112222.001 111206.001 -112222.001 111506 -112522 M 113489.74 -113568.036 113489.74 -115956.08 M 109417.465 -111506 111109.987 -113198.522 113120.226 -113198.522 M 113489.74 -115956.08 112656.899 -116788.921 M 113120.226 -113198.522 113489.74 -113568.036 M 100584 -111506 109417.465 -111506 M 112656.899 -116788.921 112356.9 -117088.92 M 108685.996 -112658.998 111419.198 -115392.2 112293.316 -115392.2 M 100584 -112776 106770.996 -112776 M 106887.998 -112658.998 108685.996 -112658.998 M 112293.316 -115392.2 112717.58 -115392.2 M 106770.996 -112776 106887.998 -112658.998 M 114300 -105156 118110 -105156 M 108917.902 -123989.364 108617.903 -124289.363 M 109982 -122925.266 108917.902 -123989.364 M 109982 -120904 109982 -122925.266 M 109720.464 -139291.06 109296.2 -139291.06 M 115211.86 -129821.94 115211.86 -135963.66 111884.46 -139291.06 109720.464 -139291.06 M 115854.48 -112530.48 115854.48 -112435.64 M 118110 -114046 117370 -114046 115854.48 -112530.48 M 100584 -105156 103124 -105156 103505 -104775" fill="none" stroke-width="250"/><path d="M 119305 -152960 118138.409 -152960 118351.037 -152447.935 118351.562 -151846.703 118121.965 -151291.036 117707.302 -150875.649 118120.471 -150463.2 118351.037 -149907.935 118351.562 -149306.703 118121.965 -148751.036 117697.2 -148325.529 117663.408 -148311.497 117723.396 -148129.001 116840 -147245.605 115956.604 -148129.001 116016.447 -148311.056 115985.036 -148324.035 115559.529 -148748.8 115328.963 -149304.065 115328.438 -149905.297 115558.035 -150460.964 115972.698 -150876.351 115559.529 -151288.8 115328.963 -151844.065 115328.438 -152445.297 115541.109 -152960 103123.74 -152960 103123.74 -151269.7 103079.462 -151034.383 102940.39 -150818.259 102804.999 -150725.75 104585 -150725.75 104585 -151116.31 104681.673 -151349.699 104860.302 -151528.327 105093.691 -151625 105834.25 -151625 105993 -151466.25 105993 -150567 106247 -150567 106247 -151466.25 106405.75 -151625 107146.309 -151625 107379.698 -151528.327 107558.327 -151349.699 107655 -151116.31 107655 -150725.75 110785 -150725.75 110785 -151116.31 110881.673 -151349.699 111060.302 -151528.327 111293.691 -151625 112034.25 -151625 112193 -151466.25 112193 -150567 112447 -150567 112447 -151466.25 112605.75 -151625 113346.309 -151625 113579.698 -151528.327 113758.327 -151349.699 113855 -151116.31 113855 -150725.75 113696.25 -150567 112447 -150567 112193 -150567 110943.75 -150567 110785 -150725.75 107655 -150725.75 107496.25 -150567 106247 -150567 105993 -150567 104743.75 -150567 104585 -150725.75 102804.999 -150725.75 102728.19 -150673.269 102711.72 -150669.934 102777.631 -150604.023 102663.003 -150489.395 102917.027 -150405.896 103122.882 -149841.003 103119.537 -149763.69 104585 -149763.69 104585 -150154.25 104743.75 -150313 105993 -150313 105993 -149413.75 106247 -149413.75 106247 -150313 107496.25 -150313 107655 -150154.25 107655 -149763.69 110785 -149763.69 110785 -150154.25 110943.75 -150313 112193 -150313 112193 -149413.75 112447 -149413.75 112447 -150313 113696.25 -150313 113855 -150154.25 113855 -149763.69 113758.327 -149530.301 113579.698 -149351.673 113346.309 -149255 112605.75 -149255 112447 -149413.75 112193 -149413.75 112034.25 -149255 111293.691 -149255 111060.302 -149351.673 110881.673 -149530.301 110785 -149763.69 107655 -149763.69 107558.327 -149530.301 107379.698 -149351.673 107146.309 -149255 106405.75 -149255 106247 -149413.75 105993 -149413.75 105834.25 -149255 105093.691 -149255 104860.302 -149351.673 104681.673 -149530.301 104585 -149763.69 103119.537 -149763.69 103096.891 -149240.332 102917.027 -148806.104 102663.001 -148722.604 101779.605 -149606 101793.748 -149620.143 101614.143 -149799.748 101600 -149785.605 101585.858 -149799.748 101406.253 -149620.143 101420.395 -149606 100536.999 -148722.604 100282.973 -148806.104 100077.118 -149370.997 100103.109 -149971.668 100282.973 -150405.896 100536.997 -150489.395 100422.369 -150604.023 100486.254 -150667.908 100272.259 -150805.61 100127.269 -151017.81 100076.26 -151269.7 100076.26 -152960 99135 -152960 99135 -143061.51 99284.599 -143285.401 100128.367 -144129.169 100088.963 -144224.065 100088.438 -144825.297 100318.035 -145380.964 100732.698 -145796.351 100319.529 -146208.8 100088.963 -146764.065 100088.438 -147365.297 100318.035 -147920.964 100742.8 -148346.471 100776.592 -148360.503 100716.604 -148542.999 101600 -149426.395 102483.396 -148542.999 102423.553 -148360.944 102454.964 -148347.965 102880.471 -147923.2 103066.58 -147475 104187.581 -147475 104244.673 -147532.192 104588.201 -147674.838 104713.122 -147674.947 104755.91 -147741.441 104968.11 -147886.431 105220 -147937.44 107020 -147937.44 107255.317 -147893.162 107471.441 -147754.09 107616.431 -147541.89 107624.914 -147500 110552.547 -147500 110584.683 -147532.192 110907.525 -147666.248 110955.91 -147741.441 111168.11 -147886.431 111420 -147937.44 113220 -147937.44 113455.317 -147893.162 113671.441 -147754.09 113816.431 -147541.89 113867.44 -147290 113867.44 -146830.997 115317.118 -146830.997 115343.109 -147431.668 115522.973 -147865.896 115776.999 -147949.396 116660.395 -147066 117019.605 -147066 117903.001 -147949.396 118157.027 -147865.896 118362.882 -147301.003 118336.891 -146700.332 118157.027 -146266.104 117903.001 -146182.604 117019.605 -147066 116660.395 -147066 115776.999 -146182.604 115522.973 -146266.104 115317.118 -146830.997 113867.44 -146830.997 113867.44 -146190 113823.162 -145954.683 113684.09 -145738.559 113471.89 -145593.569 113449.333 -145589.001 115956.604 -145589.001 116024.646 -145796 115956.604 -146002.999 116840 -146886.395 117723.396 -146002.999 117655.354 -145796 117723.396 -145589.001 116840 -144705.605 115956.604 -145589.001 113449.333 -145589.001 113220 -145542.56 111420 -145542.56 111184.683 -145586.838 110968.559 -145725.91 110908.645 -145813.597 110586.067 -145946.883 110552.892 -145980 107627.926 -145980 107623.162 -145954.683 107484.09 -145738.559 107271.89 -145593.569 107020 -145542.56 105220 -145542.56 104984.683 -145586.838 104768.559 -145725.91 104714.556 -145804.947 104589.833 -145804.838 104246.057 -145946.883 104187.838 -146005 102676.288 -146005 102467.302 -145795.649 102880.471 -145383.2 103111.037 -144827.935 103111.376 -144439.25 104573.5 -144439.25 104573.5 -144829.81 104670.173 -145063.199 104848.802 -145241.827 105082.191 -145338.5 105822.75 -145338.5 105981.5 -145179.75 105981.5 -144280.5 106235.5 -144280.5 106235.5 -145179.75 106394.25 -145338.5 107134.809 -145338.5 107368.198 -145241.827 107546.827 -145063.199 107643.5 -144829.81 107643.5 -144439.25 110773.5 -144439.25 110773.5 -144829.81 110870.173 -145063.199 111048.802 -145241.827 111282.191 -145338.5 112022.75 -145338.5 112181.5 -145179.75 112181.5 -144280.5 112435.5 -144280.5 112435.5 -145179.75 112594.25 -145338.5 113334.809 -145338.5 113568.198 -145241.827 113746.827 -145063.199 113843.5 -144829.81 113843.5 -144439.25 113695.247 -144290.997 115317.118 -144290.997 115343.109 -144891.668 115522.973 -145325.896 115776.999 -145409.396 116660.395 -144526 117019.605 -144526 117903.001 -145409.396 118157.027 -145325.896 118362.882 -144761.003 118336.891 -144160.332 118157.027 -143726.104 117903.001 -143642.604 117019.605 -144526 116660.395 -144526 115776.999 -143642.604 115522.973 -143726.104 115317.118 -144290.997 113695.247 -144290.997 113684.75 -144280.5 112435.5 -144280.5 112181.5 -144280.5 110932.25 -144280.5 110773.5 -144439.25 107643.5 -144439.25 107484.75 -144280.5 106235.5 -144280.5 105981.5 -144280.5 104732.25 -144280.5 104573.5 -144439.25 103111.376 -144439.25 103111.562 -144226.703 103071.37 -144129.432 103723.612 -143477.19 104573.5 -143477.19 104573.5 -143867.75 104732.25 -144026.5 105981.5 -144026.5 105981.5 -143127.25 106235.5 -143127.25 106235.5 -144026.5 107484.75 -144026.5 107643.5 -143867.75 107643.5 -143477.19 110773.5 -143477.19 110773.5 -143867.75 110932.25 -144026.5 112181.5 -144026.5 112181.5 -143127.25 112435.5 -143127.25 112435.5 -144026.5 113684.75 -144026.5 113843.5 -143867.75 113843.5 -143477.19 113746.827 -143243.801 113568.198 -143065.173 113334.809 -142968.5 112594.25 -142968.5 112435.5 -143127.25 112181.5 -143127.25 112022.75 -142968.5 111282.191 -142968.5 111048.802 -143065.173 110870.173 -143243.801 110773.5 -143477.19 107643.5 -143477.19 107546.827 -143243.801 107368.198 -143065.173 107134.809 -142968.5 106394.25 -142968.5 106235.5 -143127.25 105981.5 -143127.25 105822.75 -142968.5 105082.191 -142968.5 104848.802 -143065.173 104670.173 -143243.801 104573.5 -143477.19 103723.612 -143477.19 104169.401 -143031.401 104334.148 -142784.839 104392 -142494 104392 -135696.802 105978.802 -134110 106571.94 -134110 106508.524 -134263.11 106629.845 -134493 107823 -134493 107823 -134473 108077 -134473 108077 -134493 108097 -134493 108097 -134747 108077 -134747 108077 -134767 107823 -134767 107823 -134747 106629.845 -134747 106508.524 -134976.89 106678.355 -135386.924 107068.642 -135815.183 107211.553 -135882.298 106870.853 -136109.946 106548.946 -136591.715 106435.907 -137160 106548.946 -137728.285 106870.853 -138210.054 107352.622 -138531.961 107920.907 -138645 107979.093 -138645 108547.378 -138531.961 109029.147 -138210.054 109029.971 -138208.821 109036.838 -138245.317 109108.633 -138356.89 108767.257 -138497.943 108504.008 -138760.733 108361.362 -139104.261 108361.038 -139476.227 108503.083 -139820.003 108765.873 -140083.252 108784.007 -140090.782 108303.8 -140090.782 108235.117 -139924.557 107972.327 -139661.308 107628.799 -139518.662 107515.384 -139518.563 107472.59 -139452.059 107260.39 -139307.069 107008.5 -139256.06 105208.5 -139256.06 104973.183 -139300.338 104757.059 -139439.41 104612.069 -139651.61 104561.06 -139903.5 104561.06 -141003.5 104605.338 -141238.817 104744.41 -141454.941 104956.61 -141599.931 105208.5 -141650.94 107008.5 -141650.94 107243.817 -141606.662 107439.962 -141480.446 107548.443 -141552.93 107839.282 -141610.782 110717.728 -141610.782 111008.567 -141552.93 111048.637 -141526.156 111156.61 -141599.931 111408.5 -141650.94 112636.138 -141650.94 113999.878 -143014.68 113999.838 -143060.167 114141.883 -143403.943 114404.673 -143667.192 114748.201 -143809.838 115120.167 -143810.162 115463.943 -143668.117 115727.192 -143405.327 115843.001 -143126.428 115982.8 -143266.471 116016.592 -143280.503 115956.604 -143462.999 116840 -144346.395 117723.396 -143462.999 117663.553 -143280.944 117694.964 -143267.965 118120.471 -142843.2 118351.037 -142287.935 118351.562 -141686.703 118121.965 -141131.036 117707.302 -140715.649 118120.471 -140303.2 118351.037 -139747.935 118351.562 -139146.703 118121.965 -138591.036 117707.302 -138175.649 118120.471 -137763.2 118351.037 -137207.935 118351.562 -136606.703 118121.965 -136051.036 117707.302 -135635.649 118120.471 -135223.2 118351.037 -134667.935 118351.562 -134066.703 118121.965 -133511.036 117707.302 -133095.649 118120.471 -132683.2 118351.037 -132127.935 118351.562 -131526.703 118121.965 -130971.036 117707.302 -130555.649 118120.471 -130143.2 118351.037 -129587.935 118351.562 -128986.703 118121.965 -128431.036 117707.302 -128015.649 118120.471 -127603.2 118351.037 -127047.935 118351.562 -126446.703 118121.965 -125891.036 118064.878 -125833.85 118647.401 -125251.327 118812.148 -125004.766 118870 -124713.926 118870 -120133.44 119210 -120133.44 119305 -120115.564 119305 -152960 119305 -152960"/><path d="M 119305 -152960 118138.409 -152960 118351.037 -152447.935 118351.562 -151846.703 118121.965 -151291.036 117707.302 -150875.649 118120.471 -150463.2 118351.037 -149907.935 118351.562 -149306.703 118121.965 -148751.036 117697.2 -148325.529 117663.408 -148311.497 117723.396 -148129.001 116840 -147245.605 115956.604 -148129.001 116016.447 -148311.056 115985.036 -148324.035 115559.529 -148748.8 115328.963 -149304.065 115328.438 -149905.297 115558.035 -150460.964 115972.698 -150876.351 115559.529 -151288.8 115328.963 -151844.065 115328.438 -152445.297 115541.109 -152960 103123.74 -152960 103123.74 -151269.7 103079.462 -151034.383 102940.39 -150818.259 102804.999 -150725.75 104585 -150725.75 104585 -151116.31 104681.673 -151349.699 104860.302 -151528.327 105093.691 -151625 105834.25 -151625 105993 -151466.25 105993 -150567 106247 -150567 106247 -151466.25 106405.75 -151625 107146.309 -151625 107379.698 -151528.327 107558.327 -151349.699 107655 -151116.31 107655 -150725.75 110785 -150725.75 110785 -151116.31 110881.673 -151349.699 111060.302 -151528.327 111293.691 -151625 112034.25 -151625 112193 -151466.25 112193 -150567 112447 -150567 112447 -151466.25 112605.75 -151625 113346.309 -151625 113579.698 -151528.327 113758.327 -151349.699 113855 -151116.31 113855 -150725.75 113696.25 -150567 112447 -150567 112193 -150567 110943.75 -150567 110785 -150725.75 107655 -150725.75 107496.25 -150567 106247 -150567 105993 -150567 104743.75 -150567 104585 -150725.75 102804.999 -150725.75 102728.19 -150673.269 102711.72 -150669.934 102777.631 -150604.023 102663.003 -150489.395 102917.027 -150405.896 103122.882 -149841.003 103119.537 -149763.69 104585 -149763.69 104585 -150154.25 104743.75 -150313 105993 -150313 105993 -149413.75 106247 -149413.75 106247 -150313 107496.25 -150313 107655 -150154.25 107655 -149763.69 110785 -149763.69 110785 -150154.25 110943.75 -150313 112193 -150313 112193 -149413.75 112447 -149413.75 112447 -150313 113696.25 -150313 113855 -150154.25 113855 -149763.69 113758.327 -149530.301 113579.698 -149351.673 113346.309 -149255 112605.75 -149255 112447 -149413.75 112193 -149413.75 112034.25 -149255 111293.691 -149255 111060.302 -149351.673 110881.673 -149530.301 110785 -149763.69 107655 -149763.69 107558.327 -149530.301 107379.698 -149351.673 107146.309 -149255 106405.75 -149255 106247 -149413.75 105993 -149413.75 105834.25 -149255 105093.691 -149255 104860.302 -149351.673 104681.673 -149530.301 104585 -149763.69 103119.537 -149763.69 103096.891 -149240.332 102917.027 -148806.104 102663.001 -148722.604 101779.605 -149606 101793.748 -149620.143 101614.143 -149799.748 101600 -149785.605 101585.858 -149799.748 101406.253 -149620.143 101420.395 -149606 100536.999 -148722.604 100282.973 -148806.104 100077.118 -149370.997 100103.109 -149971.668 100282.973 -150405.896 100536.997 -150489.395 100422.369 -150604.023 100486.254 -150667.908 100272.259 -150805.61 100127.269 -151017.81 100076.26 -151269.7 100076.26 -152960 99135 -152960 99135 -143061.51 99284.599 -143285.401 100128.367 -144129.169 100088.963 -144224.065 100088.438 -144825.297 100318.035 -145380.964 100732.698 -145796.351 100319.529 -146208.8 100088.963 -146764.065 100088.438 -147365.297 100318.035 -147920.964 100742.8 -148346.471 100776.592 -148360.503 100716.604 -148542.999 101600 -149426.395 102483.396 -148542.999 102423.553 -148360.944 102454.964 -148347.965 102880.471 -147923.2 103066.58 -147475 104187.581 -147475 104244.673 -147532.192 104588.201 -147674.838 104713.122 -147674.947 104755.91 -147741.441 104968.11 -147886.431 105220 -147937.44 107020 -147937.44 107255.317 -147893.162 107471.441 -147754.09 107616.431 -147541.89 107624.914 -147500 110552.547 -147500 110584.683 -147532.192 110907.525 -147666.248 110955.91 -147741.441 111168.11 -147886.431 111420 -147937.44 113220 -147937.44 113455.317 -147893.162 113671.441 -147754.09 113816.431 -147541.89 113867.44 -147290 113867.44 -146830.997 115317.118 -146830.997 115343.109 -147431.668 115522.973 -147865.896 115776.999 -147949.396 116660.395 -147066 117019.605 -147066 117903.001 -147949.396 118157.027 -147865.896 118362.882 -147301.003 118336.891 -146700.332 118157.027 -146266.104 117903.001 -146182.604 117019.605 -147066 116660.395 -147066 115776.999 -146182.604 115522.973 -146266.104 115317.118 -146830.997 113867.44 -146830.997 113867.44 -146190 113823.162 -145954.683 113684.09 -145738.559 113471.89 -145593.569 113449.333 -145589.001 115956.604 -145589.001 116024.646 -145796 115956.604 -146002.999 116840 -146886.395 117723.396 -146002.999 117655.354 -145796 117723.396 -145589.001 116840 -144705.605 115956.604 -145589.001 113449.333 -145589.001 113220 -145542.56 111420 -145542.56 111184.683 -145586.838 110968.559 -145725.91 110908.645 -145813.597 110586.067 -145946.883 110552.892 -145980 107627.926 -145980 107623.162 -145954.683 107484.09 -145738.559 107271.89 -145593.569 107020 -145542.56 105220 -145542.56 104984.683 -145586.838 104768.559 -145725.91 104714.556 -145804.947 104589.833 -145804.838 104246.057 -145946.883 104187.838 -146005 102676.288 -146005 102467.302 -145795.649 102880.471 -145383.2 103111.037 -144827.935 103111.376 -144439.25 104573.5 -144439.25 104573.5 -144829.81 104670.173 -145063.199 104848.802 -145241.827 105082.191 -145338.5 105822.75 -145338.5 105981.5 -145179.75 105981.5 -144280.5 106235.5 -144280.5 106235.5 -145179.75 106394.25 -145338.5 107134.809 -145338.5 107368.198 -145241.827 107546.827 -145063.199 107643.5 -144829.81 107643.5 -144439.25 110773.5 -144439.25 110773.5 -144829.81 110870.173 -145063.199 111048.802 -145241.827 111282.191 -145338.5 112022.75 -145338.5 112181.5 -145179.75 112181.5 -144280.5 112435.5 -144280.5 112435.5 -145179.75 112594.25 -145338.5 113334.809 -145338.5 113568.198 -145241.827 113746.827 -145063.199 113843.5 -144829.81 113843.5 -144439.25 113695.247 -144290.997 115317.118 -144290.997 115343.109 -144891.668 115522.973 -145325.896 115776.999 -145409.396 116660.395 -144526 117019.605 -144526 117903.001 -145409.396 118157.027 -145325.896 118362.882 -144761.003 118336.891 -144160.332 118157.027 -143726.104 117903.001 -143642.604 117019.605 -144526 116660.395 -144526 115776.999 -143642.604 115522.973 -143726.104 115317.118 -144290.997 113695.247 -144290.997 113684.75 -144280.5 112435.5 -144280.5 112181.5 -144280.5 110932.25 -144280.5 110773.5 -144439.25 107643.5 -144439.25 107484.75 -144280.5 106235.5 -144280.5 105981.5 -144280.5 104732.25 -144280.5 104573.5 -144439.25 103111.376 -144439.25 103111.562 -144226.703 103071.37 -144129.432 103723.612 -143477.19 104573.5 -143477.19 104573.5 -143867.75 104732.25 -144026.5 105981.5 -144026.5 105981.5 -143127.25 106235.5 -143127.25 106235.5 -144026.5 107484.75 -144026.5 107643.5 -143867.75 107643.5 -143477.19 110773.5 -143477.19 110773.5 -143867.75 110932.25 -144026.5 112181.5 -144026.5 112181.5 -143127.25 112435.5 -143127.25 112435.5 -144026.5 113684.75 -144026.5 113843.5 -143867.75 113843.5 -143477.19 113746.827 -143243.801 113568.198 -143065.173 113334.809 -142968.5 112594.25 -142968.5 112435.5 -143127.25 112181.5 -143127.25 112022.75 -142968.5 111282.191 -142968.5 111048.802 -143065.173 110870.173 -143243.801 110773.5 -143477.19 107643.5 -143477.19 107546.827 -143243.801 107368.198 -143065.173 107134.809 -142968.5 106394.25 -142968.5 106235.5 -143127.25 105981.5 -143127.25 105822.75 -142968.5 105082.191 -142968.5 104848.802 -143065.173 104670.173 -143243.801 104573.5 -143477.19 103723.612 -143477.19 104169.401 -143031.401 104334.148 -142784.839 104392 -142494 104392 -135696.802 105978.802 -134110 106571.94 -134110 106508.524 -134263.11 106629.845 -134493 107823 -134493 107823 -134473 108077 -134473 108077 -134493 108097 -134493 108097 -134747 108077 -134747 108077 -134767 107823 -134767 107823 -134747 106629.845 -134747 106508.524 -134976.89 106678.355 -135386.924 107068.642 -135815.183 107211.553 -135882.298 106870.853 -136109.946 106548.946 -136591.715 106435.907 -137160 106548.946 -137728.285 106870.853 -138210.054 107352.622 -138531.961 107920.907 -138645 107979.093 -138645 108547.378 -138531.961 109029.147 -138210.054 109029.971 -138208.821 109036.838 -138245.317 109108.633 -138356.89 108767.257 -138497.943 108504.008 -138760.733 108361.362 -139104.261 108361.038 -139476.227 108503.083 -139820.003 108765.873 -140083.252 108784.007 -140090.782 108303.8 -140090.782 108235.117 -139924.557 107972.327 -139661.308 107628.799 -139518.662 107515.384 -139518.563 107472.59 -139452.059 107260.39 -139307.069 107008.5 -139256.06 105208.5 -139256.06 104973.183 -139300.338 104757.059 -139439.41 104612.069 -139651.61 104561.06 -139903.5 104561.06 -141003.5 104605.338 -141238.817 104744.41 -141454.941 104956.61 -141599.931 105208.5 -141650.94 107008.5 -141650.94 107243.817 -141606.662 107439.962 -141480.446 107548.443 -141552.93 107839.282 -141610.782 110717.728 -141610.782 111008.567 -141552.93 111048.637 -141526.156 111156.61 -141599.931 111408.5 -141650.94 112636.138 -141650.94 113999.878 -143014.68 113999.838 -143060.167 114141.883 -143403.943 114404.673 -143667.192 114748.201 -143809.838 115120.167 -143810.162 115463.943 -143668.117 115727.192 -143405.327 115843.001 -143126.428 115982.8 -143266.471 116016.592 -143280.503 115956.604 -143462.999 116840 -144346.395 117723.396 -143462.999 117663.553 -143280.944 117694.964 -143267.965 118120.471 -142843.2 118351.037 -142287.935 118351.562 -141686.703 118121.965 -141131.036 117707.302 -140715.649 118120.471 -140303.2 118351.037 -139747.935 118351.562 -139146.703 118121.965 -138591.036 117707.302 -138175.649 118120.471 -137763.2 118351.037 -137207.935 118351.562 -136606.703 118121.965 -136051.036 117707.302 -135635.649 118120.471 -135223.2 118351.037 -134667.935 118351.562 -134066.703 118121.965 -133511.036 117707.302 -133095.649 118120.471 -132683.2 118351.037 -132127.935 118351.562 -131526.703 118121.965 -130971.036 117707.302 -130555.649 118120.471 -130143.2 118351.037 -129587.935 118351.562 -128986.703 118121.965 -128431.036 117707.302 -128015.649 118120.471 -127603.2 118351.037 -127047.935 118351.562 -126446.703 118121.965 -125891.036 118064.878 -125833.85 118647.401 -125251.327 118812.148 -125004.766 118870 -124713.926 118870 -120133.44 119210 -120133.44 119305 -120115.564 119305 -152960" fill="none" stroke-width="254"/><path d="M 104902 -125730 104922 -125730 104922 -125984 104902 -125984 104902 -126004 104648 -126004 104648 -125984 104628 -125984 104628 -125730 104648 -125730 104648 -125710 104902 -125710 104902 -125730 104902 -125730"/><path d="M 104902 -125730 104922 -125730 104922 -125984 104902 -125984 104902 -126004 104648 -126004 104648 -125984 104628 -125984 104628 -125730 104648 -125730 104648 -125710 104902 -125710 104902 -125730" fill="none" stroke-width="254"/><path d="M 103348.599 -125124.401 103390 -125152.064 103390 -125520.195 103236.299 -125366.494 103236.299 -125082.299 103218.868 -124994.67 103348.599 -125124.401 103348.599 -125124.401"/><path d="M 103348.599 -125124.401 103390 -125152.064 103390 -125520.195 103236.299 -125366.494 103236.299 -125082.299 103218.868 -124994.67 103348.599 -125124.401" fill="none" stroke-width="254"/><path d="M 110881.797 -115929.601 111128.358 -116094.348 111419.198 -116152.2 112155.117 -116152.2 112161.07 -116158.164 111827.957 -116295.803 111564.708 -116558.593 111422.062 -116902.121 111421.738 -117274.087 111563.783 -117617.863 111826.573 -117881.112 112170.101 -118023.758 112542.067 -118024.082 112885.843 -117882.037 113149.092 -117619.247 113291.738 -117275.719 113291.779 -117228.843 113773.125 -116747.497 113877.723 -117000.643 114140.513 -117263.892 114484.041 -117406.538 114856.007 -117406.862 115006.531 -117344.667 114922.32 -117428.878 114876.833 -117428.838 114533.057 -117570.883 114269.808 -117833.673 114127.162 -118177.201 114126.838 -118549.167 114268.883 -118892.943 114531.673 -119156.192 114585.397 -119178.5 114466.683 -119200.838 114429.272 -119224.912 114403.89 -119207.569 114152 -119156.56 113432 -119156.56 113196.683 -119200.838 113159.272 -119224.912 113133.89 -119207.569 112882 -119156.56 112162 -119156.56 111926.683 -119200.838 111889.272 -119224.912 111863.89 -119207.569 111612 -119156.56 110892 -119156.56 110656.683 -119200.838 110619.272 -119224.912 110593.89 -119207.569 110342 -119156.56 109622 -119156.56 109386.683 -119200.838 109349.272 -119224.912 109323.89 -119207.569 109072 -119156.56 108352 -119156.56 108116.683 -119200.838 108079.272 -119224.912 108053.89 -119207.569 107802 -119156.56 107082 -119156.56 106846.683 -119200.838 106809.272 -119224.912 106783.89 -119207.569 106532 -119156.56 105812 -119156.56 105576.683 -119200.838 105539.272 -119224.912 105513.89 -119207.569 105262 -119156.56 104542 -119156.56 104306.683 -119200.838 104269.272 -119224.912 104243.89 -119207.569 103992 -119156.56 103272 -119156.56 103036.683 -119200.838 102999.272 -119224.912 102973.89 -119207.569 102722 -119156.56 102002 -119156.56 101766.683 -119200.838 101685.621 -119253 100711 -119253 100711 -119962.25 100869.75 -120121 101354.56 -120121 101354.56 -120192.821 101309.161 -120201.852 101062.599 -120366.599 99284.599 -122144.599 99135 -122368.49 99135 -120028.758 99357.691 -120121 100298.25 -120121 100457 -119962.25 100457 -119253 100437 -119253 100437 -118999 100457 -118999 100457 -118979 100711 -118979 100711 -118999 102160.25 -118999 102319 -118840.25 102319 -118639.69 102309.187 -118616 105029 -118616 105319.839 -118558.148 105566.401 -118393.401 107725.401 -116234.401 107890.148 -115987.839 107948 -115697 107948 -113973.471 107980.192 -113941.335 108122.838 -113597.807 108122.994 -113418.998 108371.194 -113418.998 110881.797 -115929.601 110881.797 -115929.601"/><path d="M 110881.797 -115929.601 111128.358 -116094.348 111419.198 -116152.2 112155.117 -116152.2 112161.07 -116158.164 111827.957 -116295.803 111564.708 -116558.593 111422.062 -116902.121 111421.738 -117274.087 111563.783 -117617.863 111826.573 -117881.112 112170.101 -118023.758 112542.067 -118024.082 112885.843 -117882.037 113149.092 -117619.247 113291.738 -117275.719 113291.779 -117228.843 113773.125 -116747.497 113877.723 -117000.643 114140.513 -117263.892 114484.041 -117406.538 114856.007 -117406.862 115006.531 -117344.667 114922.32 -117428.878 114876.833 -117428.838 114533.057 -117570.883 114269.808 -117833.673 114127.162 -118177.201 114126.838 -118549.167 114268.883 -118892.943 114531.673 -119156.192 114585.397 -119178.5 114466.683 -119200.838 114429.272 -119224.912 114403.89 -119207.569 114152 -119156.56 113432 -119156.56 113196.683 -119200.838 113159.272 -119224.912 113133.89 -119207.569 112882 -119156.56 112162 -119156.56 111926.683 -119200.838 111889.272 -119224.912 111863.89 -119207.569 111612 -119156.56 110892 -119156.56 110656.683 -119200.838 110619.272 -119224.912 110593.89 -119207.569 110342 -119156.56 109622 -119156.56 109386.683 -119200.838 109349.272 -119224.912 109323.89 -119207.569 109072 -119156.56 108352 -119156.56 108116.683 -119200.838 108079.272 -119224.912 108053.89 -119207.569 107802 -119156.56 107082 -119156.56 106846.683 -119200.838 106809.272 -119224.912 106783.89 -119207.569 106532 -119156.56 105812 -119156.56 105576.683 -119200.838 105539.272 -119224.912 105513.89 -119207.569 105262 -119156.56 104542 -119156.56 104306.683 -119200.838 104269.272 -119224.912 104243.89 -119207.569 103992 -119156.56 103272 -119156.56 103036.683 -119200.838 102999.272 -119224.912 102973.89 -119207.569 102722 -119156.56 102002 -119156.56 101766.683 -119200.838 101685.621 -119253 100711 -119253 100711 -119962.25 100869.75 -120121 101354.56 -120121 101354.56 -120192.821 101309.161 -120201.852 101062.599 -120366.599 99284.599 -122144.599 99135 -122368.49 99135 -120028.758 99357.691 -120121 100298.25 -120121 100457 -119962.25 100457 -119253 100437 -119253 100437 -118999 100457 -118999 100457 -118979 100711 -118979 100711 -118999 102160.25 -118999 102319 -118840.25 102319 -118639.69 102309.187 -118616 105029 -118616 105319.839 -118558.148 105566.401 -118393.401 107725.401 -116234.401 107890.148 -115987.839 107948 -115697 107948 -113973.471 107980.192 -113941.335 108122.838 -113597.807 108122.994 -113418.998 108371.194 -113418.998 110881.797 -115929.601" fill="none" stroke-width="254"/><path d="M 116471.673 -98086.301 116375 -98319.69 116375 -98520.25 116533.75 -98679 117983 -98679 117983 -98659 118237 -98659 118237 -98679 118257 -98679 118257 -98933 118237 -98933 118237 -99949 118257 -99949 118257 -100203 118237 -100203 118237 -100912.25 118395.75 -101071 119305 -101071 119305 -101627.798 119210 -101608.56 117010 -101608.56 116774.683 -101652.838 116558.559 -101791.91 116413.569 -102004.11 116362.56 -102256 116362.56 -102976 116406.838 -103211.317 116430.912 -103248.728 116413.569 -103274.11 116362.56 -103526 116362.56 -104246 116390.784 -104396 115662.855 -104396 115635.089 -104238.432 115594.779 -104134.743 115559.003 -104029.408 115428.703 -103803.808 115355.436 -103720.291 115285.884 -103633.631 115086.384 -103466.231 114988.926 -103412.764 114893.893 -103355.097 114649.093 -103265.997 114539.227 -103249.087 114430.2 -103227.4 114169.8 -103227.4 114060.773 -103249.087 113950.907 -103265.997 113706.107 -103355.097 113611.069 -103412.767 113513.617 -103466.231 113314.116 -103633.631 113244.564 -103720.291 113171.297 -103803.809 113040.997 -104029.408 113005.221 -104134.743 112964.911 -104238.432 112919.711 -104494.932 112920.94 -104550.999 112910 -104606 112923.651 -104674.629 112924.339 -104706 112923.651 -104737.371 112910 -104806 112920.94 -104861.001 112919.711 -104917.068 112964.911 -105173.568 113005.221 -105277.257 113040.997 -105382.592 113171.297 -105608.191 113222.011 -105666 110544.463 -105666 110512.327 -105633.808 110168.799 -105491.162 109796.833 -105490.838 109453.057 -105632.883 109189.808 -105895.673 109077.636 -106165.813 108800.422 -105888.599 108553.86 -105723.852 108263.021 -105666 103797.047 -105666 104033.943 -105568.117 104297.192 -105305.327 104439.838 -104961.799 104440.162 -104589.833 104298.117 -104246.057 104035.327 -103982.808 103691.799 -103840.162 103319.833 -103839.838 102976.057 -103981.883 102712.808 -104244.673 102649.971 -104396 102301.064 -104396 102331.44 -104246 102331.44 -103526 102287.162 -103290.683 102259.062 -103247.014 102319 -103102.31 102319 -102901.75 102160.25 -102743 100711 -102743 100711 -102763 100457 -102763 100457 -102743 100437 -102743 100437 -102489 100457 -102489 100457 -101779.75 100711 -101779.75 100711 -102489 102160.25 -102489 102319 -102330.25 102319 -102129.69 102222.327 -101896.301 102043.698 -101717.673 101810.309 -101621 100869.75 -101621 100711 -101779.75 100457 -101779.75 100298.25 -101621 99357.691 -101621 99135 -101713.242 99135 -100978.758 99357.691 -101071 100298.25 -101071 100457 -100912.25 100457 -100203 100711 -100203 100711 -100912.25 100869.75 -101071 101810.309 -101071 102043.698 -100974.327 102222.327 -100795.699 102319 -100562.31 102319 -100361.75 116375 -100361.75 116375 -100562.31 116471.673 -100795.699 116650.302 -100974.327 116883.691 -101071 117824.25 -101071 117983 -100912.25 117983 -100203 116533.75 -100203 116375 -100361.75 102319 -100361.75 102160.25 -100203 100711 -100203 100457 -100203 100437 -100203 100437 -99949 100457 -99949 100457 -98933 100711 -98933 100711 -99949 102160.25 -99949 102319 -99790.25 102319 -99589.69 102257.411 -99441 102319 -99292.31 102319 -99091.75 116375 -99091.75 116375 -99292.31 116436.589 -99441 116375 -99589.69 116375 -99790.25 116533.75 -99949 117983 -99949 117983 -98933 116533.75 -98933 116375 -99091.75 102319 -99091.75 102160.25 -98933 100711 -98933 100457 -98933 100437 -98933 100437 -98679 100457 -98679 100457 -98659 100711 -98659 100711 -98679 102160.25 -98679 102319 -98520.25 102319 -98319.69 102222.327 -98086.301 102053.025 -97917 116640.975 -97917 116471.673 -98086.301 116471.673 -98086.301"/><path d="M 116471.673 -98086.301 116375 -98319.69 116375 -98520.25 116533.75 -98679 117983 -98679 117983 -98659 118237 -98659 118237 -98679 118257 -98679 118257 -98933 118237 -98933 118237 -99949 118257 -99949 118257 -100203 118237 -100203 118237 -100912.25 118395.75 -101071 119305 -101071 119305 -101627.798 119210 -101608.56 117010 -101608.56 116774.683 -101652.838 116558.559 -101791.91 116413.569 -102004.11 116362.56 -102256 116362.56 -102976 116406.838 -103211.317 116430.912 -103248.728 116413.569 -103274.11 116362.56 -103526 116362.56 -104246 116390.784 -104396 115662.855 -104396 115635.089 -104238.432 115594.779 -104134.743 115559.003 -104029.408 115428.703 -103803.808 115355.436 -103720.291 115285.884 -103633.631 115086.384 -103466.231 114988.926 -103412.764 114893.893 -103355.097 114649.093 -103265.997 114539.227 -103249.087 114430.2 -103227.4 114169.8 -103227.4 114060.773 -103249.087 113950.907 -103265.997 113706.107 -103355.097 113611.069 -103412.767 113513.617 -103466.231 113314.116 -103633.631 113244.564 -103720.291 113171.297 -103803.809 113040.997 -104029.408 113005.221 -104134.743 112964.911 -104238.432 112919.711 -104494.932 112920.94 -104550.999 112910 -104606 112923.651 -104674.629 112924.339 -104706 112923.651 -104737.371 112910 -104806 112920.94 -104861.001 112919.711 -104917.068 112964.911 -105173.568 113005.221 -105277.257 113040.997 -105382.592 113171.297 -105608.191 113222.011 -105666 110544.463 -105666 110512.327 -105633.808 110168.799 -105491.162 109796.833 -105490.838 109453.057 -105632.883 109189.808 -105895.673 109077.636 -106165.813 108800.422 -105888.599 108553.86 -105723.852 108263.021 -105666 103797.047 -105666 104033.943 -105568.117 104297.192 -105305.327 104439.838 -104961.799 104440.162 -104589.833 104298.117 -104246.057 104035.327 -103982.808 103691.799 -103840.162 103319.833 -103839.838 102976.057 -103981.883 102712.808 -104244.673 102649.971 -104396 102301.064 -104396 102331.44 -104246 102331.44 -103526 102287.162 -103290.683 102259.062 -103247.014 102319 -103102.31 102319 -102901.75 102160.25 -102743 100711 -102743 100711 -102763 100457 -102763 100457 -102743 100437 -102743 100437 -102489 100457 -102489 100457 -101779.75 100711 -101779.75 100711 -102489 102160.25 -102489 102319 -102330.25 102319 -102129.69 102222.327 -101896.301 102043.698 -101717.673 101810.309 -101621 100869.75 -101621 100711 -101779.75 100457 -101779.75 100298.25 -101621 99357.691 -101621 99135 -101713.242 99135 -100978.758 99357.691 -101071 100298.25 -101071 100457 -100912.25 100457 -100203 100711 -100203 100711 -100912.25 100869.75 -101071 101810.309 -101071 102043.698 -100974.327 102222.327 -100795.699 102319 -100562.31 102319 -100361.75 116375 -100361.75 116375 -100562.31 116471.673 -100795.699 116650.302 -100974.327 116883.691 -101071 117824.25 -101071 117983 -100912.25 117983 -100203 116533.75 -100203 116375 -100361.75 102319 -100361.75 102160.25 -100203 100711 -100203 100457 -100203 100437 -100203 100437 -99949 100457 -99949 100457 -98933 100711 -98933 100711 -99949 102160.25 -99949 102319 -99790.25 102319 -99589.69 102257.411 -99441 102319 -99292.31 102319 -99091.75 116375 -99091.75 116375 -99292.31 116436.589 -99441 116375 -99589.69 116375 -99790.25 116533.75 -99949 117983 -99949 117983 -98933 116533.75 -98933 116375 -99091.75 102319 -99091.75 102160.25 -98933 100711 -98933 100457 -98933 100437 -98933 100437 -98679 100457 -98679 100457 -98659 100711 -98659 100711 -98679 102160.25 -98679 102319 -98520.25 102319 -98319.69 102222.327 -98086.301 102053.025 -97917 116640.975 -97917 116471.673 -98086.301" fill="none" stroke-width="254"/></g><g id="t-54tEWkvTAUzmZG_A_n_top_silkscreen"><path d="M 103925.953 -130579.762 104068.81 -130627.381 104306.906 -130627.381 104402.144 -130579.762 104449.763 -130532.143 104497.382 -130436.905 104497.382 -130341.667 104449.763 -130246.429 104402.144 -130198.81 104306.906 -130151.19 104116.429 -130103.571 104021.191 -130055.952 103973.572 -130008.333 103925.953 -129913.095 103925.953 -129817.857 103973.572 -129722.619 104021.191 -129675 104116.429 -129627.381 104354.525 -129627.381 104497.382 -129675 M 104830.715 -129627.381 105068.81 -130627.381 105259.287 -129913.095 105449.763 -130627.381 105687.858 -129627.381 M 106068.81 -130627.381 106068.81 -129627.381 106306.905 -129627.381 106449.763 -129675 106545.001 -129770.238 106592.62 -129865.476 106640.239 -130055.952 106640.239 -130198.81 106592.62 -130389.286 106545.001 -130484.524 106449.763 -130579.762 106306.905 -130627.381 106068.81 -130627.381 M 107068.81 -130627.381 107068.81 -129627.381 M 107735.476 -129627.381 107925.953 -129627.381 108021.191 -129675 108116.429 -129770.238 108164.048 -129960.714 108164.048 -130294.048 108116.429 -130484.524 108021.191 -130579.762 107925.953 -130627.381 107735.476 -130627.381 107640.238 -130579.762 107545 -130484.524 107497.381 -130294.048 107497.381 -129960.714 107545 -129770.238 107640.238 -129675 107735.476 -129627.381 M 104148.095 -136612.381 104719.524 -136612.381 M 104433.809 -137612.381 104433.809 -136612.381 M 104957.619 -136612.381 105624.286 -137612.381 M 105624.286 -136612.381 104957.619 -137612.381 M 106005.238 -137612.381 106005.238 -136612.381 106243.333 -136612.381 106386.191 -136660 106481.429 -136755.238 106529.048 -136850.476 106576.667 -137040.952 106576.667 -137183.81 106529.048 -137374.286 106481.429 -137469.524 106386.191 -137564.762 106243.333 -137612.381 106005.238 -137612.381 M 104648.096 -134120 104552.858 -134072.381 104410.001 -134072.381 104267.143 -134120 104171.905 -134215.238 104124.286 -134310.476 104076.667 -134500.952 104076.667 -134643.81 104124.286 -134834.286 104171.905 -134929.524 104267.143 -135024.762 104410.001 -135072.381 104505.239 -135072.381 104648.096 -135024.762 104695.715 -134977.143 104695.715 -134643.81 104505.239 -134643.81 M 105124.286 -135072.381 105124.286 -134072.381 105695.715 -135072.381 105695.715 -134072.381 M 106171.905 -135072.381 106171.905 -134072.381 106410 -134072.381 106552.858 -134120 106648.096 -134215.238 106695.715 -134310.476 106743.334 -134500.952 106743.334 -134643.81 106695.715 -134834.286 106648.096 -134929.524 106552.858 -135024.762 106410 -135072.381 106171.905 -135072.381 M 110268.095 -130579.762 110410.952 -130627.381 110649.048 -130627.381 110744.286 -130579.762 110791.905 -130532.143 110839.524 -130436.905 110839.524 -130341.667 110791.905 -130246.429 110744.286 -130198.81 110649.048 -130151.19 110458.571 -130103.571 110363.333 -130055.952 110315.714 -130008.333 110268.095 -129913.095 110268.095 -129817.857 110315.714 -129722.619 110363.333 -129675 110458.571 -129627.381 110696.667 -129627.381 110839.524 -129675 M 111172.857 -129627.381 111410.952 -130627.381 111601.429 -129913.095 111791.905 -130627.381 112030 -129627.381 M 112410.952 -130627.381 112410.952 -129627.381 112649.047 -129627.381 112791.905 -129675 112887.143 -129770.238 112934.762 -129865.476 112982.381 -130055.952 112982.381 -130198.81 112934.762 -130389.286 112887.143 -130484.524 112791.905 -130579.762 112649.047 -130627.381 112410.952 -130627.381 M 113982.381 -130532.143 113934.762 -130579.762 113791.905 -130627.381 113696.667 -130627.381 113553.809 -130579.762 113458.571 -130484.524 113410.952 -130389.286 113363.333 -130198.81 113363.333 -130055.952 113410.952 -129865.476 113458.571 -129770.238 113553.809 -129675 113696.667 -129627.381 113791.905 -129627.381 113934.762 -129675 113982.381 -129722.619 M 114887.143 -130627.381 114410.952 -130627.381 114410.952 -129627.381 M 115220.476 -130627.381 115220.476 -129627.381 M 115791.905 -130627.381 115363.333 -130055.952 M 115791.905 -129627.381 115220.476 -130198.81 M 111696.667 -134072.381 112030 -135072.381 112363.334 -134072.381 M 113268.096 -134977.143 113220.477 -135024.762 113077.62 -135072.381 112982.382 -135072.381 112839.524 -135024.762 112744.286 -134929.524 112696.667 -134834.286 112649.048 -134643.81 112649.048 -134500.952 112696.667 -134310.476 112744.286 -134215.238 112839.524 -134120 112982.382 -134072.381 113077.62 -134072.381 113220.477 -134120 113268.096 -134167.619 M 114268.096 -134977.143 114220.477 -135024.762 114077.62 -135072.381 113982.382 -135072.381 113839.524 -135024.762 113744.286 -134929.524 113696.667 -134834.286 113649.048 -134643.81 113649.048 -134500.952 113696.667 -134310.476 113744.286 -134215.238 113839.524 -134120 113982.382 -134072.381 114077.62 -134072.381 114220.477 -134120 114268.096 -134167.619 M 112363.334 -137612.381 112030 -137136.19 M 111791.905 -137612.381 111791.905 -136612.381 112172.858 -136612.381 112268.096 -136660 112315.715 -136707.619 112363.334 -136802.857 112363.334 -136945.714 112315.715 -137040.952 112268.096 -137088.571 112172.858 -137136.19 111791.905 -137136.19 M 112696.667 -136612.381 113363.334 -137612.381 M 113363.334 -136612.381 112696.667 -137612.381 M 113744.286 -137612.381 113744.286 -136612.381 113982.381 -136612.381 114125.239 -136660 114220.477 -136755.238 114268.096 -136850.476 114315.715 -137040.952 114315.715 -137183.81 114268.096 -137374.286 114220.477 -137469.524 114125.239 -137564.762 113982.381 -137612.381 113744.286 -137612.381 M 104600.952 -99147.381 104600.952 -99861.667 104553.332 -100004.524 104458.094 -100099.762 104315.237 -100147.381 104219.999 -100147.381 M 105553.333 -100147.381 105077.142 -100147.381 105077.142 -99147.381 M 106458.095 -100052.143 106410.476 -100099.762 106267.619 -100147.381 106172.381 -100147.381 106029.523 -100099.762 105934.285 -100004.524 105886.666 -99909.286 105839.047 -99718.81 105839.047 -99575.952 105886.666 -99385.476 105934.285 -99290.238 106029.523 -99195 106172.381 -99147.381 106267.619 -99147.381 106410.476 -99195 106458.095 -99242.619 M 107172.381 -99147.381 107172.381 -99861.667 107124.761 -100004.524 107029.523 -100099.762 106886.666 -100147.381 106791.428 -100147.381 M 108124.762 -100147.381 107648.571 -100147.381 107648.571 -99147.381 M 109029.524 -100052.143 108981.905 -100099.762 108839.048 -100147.381 108743.81 -100147.381 108600.952 -100099.762 108505.714 -100004.524 108458.095 -99909.286 108410.476 -99718.81 108410.476 -99575.952 108458.095 -99385.476 108505.714 -99290.238 108600.952 -99195 108743.81 -99147.381 108839.048 -99147.381 108981.905 -99195 109029.524 -99242.619 M 109743.81 -99147.381 109743.81 -99861.667 109696.19 -100004.524 109600.952 -100099.762 109458.095 -100147.381 109362.857 -100147.381 M 110696.191 -100147.381 110220 -100147.381 110220 -99147.381 M 111600.953 -100052.143 111553.334 -100099.762 111410.477 -100147.381 111315.239 -100147.381 111172.381 -100099.762 111077.143 -100004.524 111029.524 -99909.286 110981.905 -99718.81 110981.905 -99575.952 111029.524 -99385.476 111077.143 -99290.238 111172.381 -99195 111315.239 -99147.381 111410.477 -99147.381 111553.334 -99195 111600.953 -99242.619 M 112315.239 -99147.381 112315.239 -99861.667 112267.619 -100004.524 112172.381 -100099.762 112029.524 -100147.381 111934.286 -100147.381 M 113267.62 -100147.381 112791.429 -100147.381 112791.429 -99147.381 M 114172.382 -100052.143 114124.763 -100099.762 113981.906 -100147.381 113886.668 -100147.381 113743.81 -100099.762 113648.572 -100004.524 113600.953 -99909.286 113553.334 -99718.81 113553.334 -99575.952 113600.953 -99385.476 113648.572 -99290.238 113743.81 -99195 113886.668 -99147.381 113981.906 -99147.381 114124.763 -99195 114172.382 -99242.619 M 107767.619 -152852.381 107434.285 -152376.19 M 107196.19 -152852.381 107196.19 -151852.381 107577.143 -151852.381 107672.381 -151900 107720 -151947.619 107767.619 -152042.857 107767.619 -152185.714 107720 -152280.952 107672.381 -152328.571 107577.143 -152376.19 107196.19 -152376.19 M 108196.19 -152328.571 108529.524 -152328.571 M 108672.381 -152852.381 108196.19 -152852.381 108196.19 -151852.381 108672.381 -151852.381 M 109053.333 -152804.762 109196.19 -152852.381 109434.286 -152852.381 109529.524 -152804.762 109577.143 -152757.143 109624.762 -152661.905 109624.762 -152566.667 109577.143 -152471.429 109529.524 -152423.81 109434.286 -152376.19 109243.809 -152328.571 109148.571 -152280.952 109100.952 -152233.333 109053.333 -152138.095 109053.333 -152042.857 109100.952 -151947.619 109148.571 -151900 109243.809 -151852.381 109481.905 -151852.381 109624.762 -151900 M 110053.333 -152328.571 110386.667 -152328.571 M 110529.524 -152852.381 110053.333 -152852.381 110053.333 -151852.381 110529.524 -151852.381 M 110815.238 -151852.381 111386.667 -151852.381 M 111100.952 -152852.381 111100.952 -151852.381" fill="none" stroke-width="200"/><path d="M 102870 -150876 100330 -150876 M 102870 -153416 102870 -150876 M 118110 -122936 118110 -153416 M 100330 -122936 118110 -122936 M 100330 -153416 100330 -122936 M 118110 -153416 100330 -153416" fill="none" stroke-width="381"/><path d="M 105525 -126707 106525 -126707 M 106525 -125007 105525 -125007 M 110605 -124977 111805 -124977 M 111805 -126737 110605 -126737 M 110908.5 -140003.5 110458.5 -139553.5 M 107508.5 -140003.5 107958.5 -139553.5 M 107508.5 -144603.5 107958.5 -145053.5 M 110908.5 -144603.5 110458.5 -145053.5 M 106458.5 -143303.5 106458.5 -141303.5 M 110458.5 -139553.5 107958.5 -139553.5 M 111958.5 -143303.5 111958.5 -141303.5 M 110458.5 -145053.5 107958.5 -145053.5 M 107520 -150890 107970 -151340 M 110920 -150890 110470 -151340 M 110920 -146290 110470 -145840 M 107520 -146290 107970 -145840 M 111970 -147590 111970 -149590 M 107970 -151340 110470 -151340 M 106470 -147590 106470 -149590 M 107970 -145840 110470 -145840 M 111820 -130750 106620 -130750 M 111820 -135890 111820 -130750 M 106620 -138490 106620 -130750 M 111820 -135890 109220 -135890 109220 -138490 106620 -138490 M 111820 -137160 111820 -138490 110490 -138490" fill="none" stroke-width="120"/><path d="M 103656.667 -152208.667 103423.333 -151875.333 M 103256.667 -152208.667 103256.667 -151508.667 103523.333 -151508.667 103590 -151542 103623.333 -151575.333 103656.667 -151642 103656.667 -151742 103623.333 -151808.667 103590 -151842 103523.333 -151875.333 103256.667 -151875.333 M 103923.333 -152008.667 104256.667 -152008.667 M 103856.667 -152208.667 104090 -151508.667 104323.333 -152208.667 M 104490 -151508.667 104656.667 -152208.667 104790 -151708.667 104923.333 -152208.667 105090 -151508.667 M 103098.667 -149256 103032.001 -149222.667 102932.001 -149222.667 102832.001 -149256 102765.334 -149322.667 102732.001 -149389.333 102698.667 -149522.667 102698.667 -149622.667 102732.001 -149756 102765.334 -149822.667 102832.001 -149889.333 102932.001 -149922.667 102998.667 -149922.667 103098.667 -149889.333 103132.001 -149856 103132.001 -149622.667 102998.667 -149622.667 M 103432.001 -149922.667 103432.001 -149222.667 103832.001 -149922.667 103832.001 -149222.667 M 104165.334 -149922.667 104165.334 -149222.667 104332 -149222.667 104432 -149256 104498.667 -149322.667 104532 -149389.333 104565.334 -149522.667 104565.334 -149622.667 104532 -149756 104498.667 -149822.667 104432 -149889.333 104332 -149922.667 104165.334 -149922.667 M 103248.667 -147382.667 103015.333 -147049.333 M 102848.667 -147382.667 102848.667 -146682.667 103115.333 -146682.667 103182 -146716 103215.333 -146749.333 103248.667 -146816 103248.667 -146916 103215.333 -146982.667 103182 -147016 103115.333 -147049.333 102848.667 -147049.333 M 103515.333 -147349.333 103615.333 -147382.667 103782 -147382.667 103848.667 -147349.333 103882 -147316 103915.333 -147249.333 103915.333 -147182.667 103882 -147116 103848.667 -147082.667 103782 -147049.333 103648.667 -147016 103582 -146982.667 103548.667 -146949.333 103515.333 -146882.667 103515.333 -146816 103548.667 -146749.333 103582 -146716 103648.667 -146682.667 103815.333 -146682.667 103915.333 -146716 M 104115.334 -146682.667 104515.334 -146682.667 M 104315.334 -147382.667 104315.334 -146682.667 M 102698.667 -144142.667 102932 -144842.667 103165.333 -144142.667 M 103798.667 -144776 103765.333 -144809.333 103665.333 -144842.667 103598.667 -144842.667 103498.667 -144809.333 103432 -144742.667 103398.667 -144676 103365.333 -144542.667 103365.333 -144442.667 103398.667 -144309.333 103432 -144242.667 103498.667 -144176 103598.667 -144142.667 103665.333 -144142.667 103765.333 -144176 103798.667 -144209.333 M 104498.667 -144776 104465.333 -144809.333 104365.333 -144842.667 104298.667 -144842.667 104198.667 -144809.333 104132 -144742.667 104098.667 -144676 104065.333 -144542.667 104065.333 -144442.667 104098.667 -144309.333 104132 -144242.667 104198.667 -144176 104298.667 -144142.667 104365.333 -144142.667 104465.333 -144176 104498.667 -144209.333 M 102890.667 -141936 102657.334 -141936 M 102657.334 -142302.667 102657.334 -141602.667 102990.667 -141602.667 M 103557.334 -141836 103557.334 -142302.667 M 103390.667 -141569.333 103224 -142069.333 103657.334 -142069.333 M 102890.667 -139396 102657.334 -139396 M 102657.334 -139762.667 102657.334 -139062.667 102990.667 -139062.667 M 103590.667 -139062.667 103257.334 -139062.667 103224 -139396 103257.334 -139362.667 103324 -139329.333 103490.667 -139329.333 103557.334 -139362.667 103590.667 -139396 103624 -139462.667 103624 -139629.333 103590.667 -139696 103557.334 -139729.333 103490.667 -139762.667 103324 -139762.667 103257.334 -139729.333 103224 -139696 M 102890.667 -134316 102657.334 -134316 M 102657.334 -134682.667 102657.334 -133982.667 102990.667 -133982.667 M 103190.667 -133982.667 103657.334 -133982.667 103357.334 -134682.667 M 102890.667 -136856 102657.334 -136856 M 102657.334 -137222.667 102657.334 -136522.667 102990.667 -136522.667 M 103557.334 -136522.667 103424 -136522.667 103357.334 -136556 103324 -136589.333 103257.334 -136689.333 103224 -136822.667 103224 -137089.333 103257.334 -137156 103290.667 -137189.333 103357.334 -137222.667 103490.667 -137222.667 103557.334 -137189.333 103590.667 -137156 103624 -137089.333 103624 -136922.667 103590.667 -136856 103557.334 -136822.667 103490.667 -136789.333 103357.334 -136789.333 103290.667 -136822.667 103257.334 -136856 103224 -136922.667 M 102840.667 -131776 102940.667 -131809.333 102974 -131842.667 103007.334 -131909.333 103007.334 -132009.333 102974 -132076 102940.667 -132109.333 102874 -132142.667 102607.334 -132142.667 102607.334 -131442.667 102840.667 -131442.667 102907.334 -131476 102940.667 -131509.333 102974 -131576 102974 -131642.667 102940.667 -131709.333 102907.334 -131742.667 102840.667 -131776 102607.334 -131776 M 103674 -132142.667 103274 -132142.667 M 103474 -132142.667 103474 -131442.667 103407.334 -131542.667 103340.667 -131609.333 103274 -131642.667 M 102840.667 -129236 102940.667 -129269.333 102974 -129302.667 103007.334 -129369.333 103007.334 -129469.333 102974 -129536 102940.667 -129569.333 102874 -129602.667 102607.334 -129602.667 102607.334 -128902.667 102840.667 -128902.667 102907.334 -128936 102940.667 -128969.333 102974 -129036 102974 -129102.667 102940.667 -129169.333 102907.334 -129202.667 102840.667 -129236 102607.334 -129236 M 103240.667 -128902.667 103674 -128902.667 103440.667 -129169.333 103540.667 -129169.333 103607.334 -129202.667 103640.667 -129236 103674 -129302.667 103674 -129469.333 103640.667 -129536 103607.334 -129569.333 103540.667 -129602.667 103340.667 -129602.667 103274 -129569.333 103240.667 -129536 M 102840.667 -126696 102940.667 -126729.333 102974 -126762.667 103007.334 -126829.333 103007.334 -126929.333 102974 -126996 102940.667 -127029.333 102874 -127062.667 102607.334 -127062.667 102607.334 -126362.667 102840.667 -126362.667 102907.334 -126396 102940.667 -126429.333 102974 -126496 102974 -126562.667 102940.667 -126629.333 102907.334 -126662.667 102840.667 -126696 102607.334 -126696 M 103274 -126429.333 103307.334 -126396 103374 -126362.667 103540.667 -126362.667 103607.334 -126396 103640.667 -126429.333 103674 -126496 103674 -126562.667 103640.667 -126662.667 103240.667 -127062.667 103674 -127062.667 M 102840.667 -124156 102940.667 -124189.333 102974 -124222.667 103007.334 -124289.333 103007.334 -124389.333 102974 -124456 102940.667 -124489.333 102874 -124522.667 102607.334 -124522.667 102607.334 -123822.667 102840.667 -123822.667 102907.334 -123856 102940.667 -123889.333 102974 -123956 102974 -124022.667 102940.667 -124089.333 102907.334 -124122.667 102840.667 -124156 102607.334 -124156 M 103607.334 -123822.667 103474 -123822.667 103407.334 -123856 103374 -123889.333 103307.334 -123989.333 103274 -124122.667 103274 -124389.333 103307.334 -124456 103340.667 -124489.333 103407.334 -124522.667 103540.667 -124522.667 103607.334 -124489.333 103640.667 -124456 103674 -124389.333 103674 -124222.667 103640.667 -124156 103607.334 -124122.667 103540.667 -124089.333 103407.334 -124089.333 103340.667 -124122.667 103307.334 -124156 103274 -124222.667 M 114799.334 -152462.667 114799.334 -151762.667 114966 -151762.667 115066 -151796 115132.667 -151862.667 115166 -151929.333 115199.334 -152062.667 115199.334 -152162.667 115166 -152296 115132.667 -152362.667 115066 -152429.333 114966 -152462.667 114799.334 -152462.667 M 115432.667 -151762.667 115866 -151762.667 115632.667 -152029.333 115732.667 -152029.333 115799.334 -152062.667 115832.667 -152096 115866 -152162.667 115866 -152329.333 115832.667 -152396 115799.334 -152429.333 115732.667 -152462.667 115532.667 -152462.667 115466 -152429.333 115432.667 -152396 M 114799.334 -149922.667 114799.334 -149222.667 114966 -149222.667 115066 -149256 115132.667 -149322.667 115166 -149389.333 115199.334 -149522.667 115199.334 -149622.667 115166 -149756 115132.667 -149822.667 115066 -149889.333 114966 -149922.667 114799.334 -149922.667 M 115466 -149289.333 115499.334 -149256 115566 -149222.667 115732.667 -149222.667 115799.334 -149256 115832.667 -149289.333 115866 -149356 115866 -149422.667 115832.667 -149522.667 115432.667 -149922.667 115866 -149922.667 M 114274.667 -146716 114208.001 -146682.667 114108.001 -146682.667 114008.001 -146716 113941.334 -146782.667 113908.001 -146849.333 113874.667 -146982.667 113874.667 -147082.667 113908.001 -147216 113941.334 -147282.667 114008.001 -147349.333 114108.001 -147382.667 114174.667 -147382.667 114274.667 -147349.333 114308.001 -147316 114308.001 -147082.667 114174.667 -147082.667 M 114608.001 -147382.667 114608.001 -146682.667 115008.001 -147382.667 115008.001 -146682.667 M 115341.334 -147382.667 115341.334 -146682.667 115508 -146682.667 115608 -146716 115674.667 -146782.667 115708 -146849.333 115741.334 -146982.667 115741.334 -147082.667 115708 -147216 115674.667 -147282.667 115608 -147349.333 115508 -147382.667 115341.334 -147382.667 M 114274.667 -144176 114208.001 -144142.667 114108.001 -144142.667 114008.001 -144176 113941.334 -144242.667 113908.001 -144309.333 113874.667 -144442.667 113874.667 -144542.667 113908.001 -144676 113941.334 -144742.667 114008.001 -144809.333 114108.001 -144842.667 114174.667 -144842.667 114274.667 -144809.333 114308.001 -144776 114308.001 -144542.667 114174.667 -144542.667 M 114608.001 -144842.667 114608.001 -144142.667 115008.001 -144842.667 115008.001 -144142.667 M 115341.334 -144842.667 115341.334 -144142.667 115508 -144142.667 115608 -144176 115674.667 -144242.667 115708 -144309.333 115741.334 -144442.667 115741.334 -144542.667 115708 -144676 115674.667 -144742.667 115608 -144809.333 115508 -144842.667 115341.334 -144842.667 M 114799.334 -142302.667 114799.334 -141602.667 114966 -141602.667 115066 -141636 115132.667 -141702.667 115166 -141769.333 115199.334 -141902.667 115199.334 -142002.667 115166 -142136 115132.667 -142202.667 115066 -142269.333 114966 -142302.667 114799.334 -142302.667 M 115866 -142302.667 115466 -142302.667 M 115666 -142302.667 115666 -141602.667 115599.334 -141702.667 115532.667 -141769.333 115466 -141802.667 M 114799.334 -139762.667 114799.334 -139062.667 114966 -139062.667 115066 -139096 115132.667 -139162.667 115166 -139229.333 115199.334 -139362.667 115199.334 -139462.667 115166 -139596 115132.667 -139662.667 115066 -139729.333 114966 -139762.667 114799.334 -139762.667 M 115632.667 -139062.667 115699.334 -139062.667 115766 -139096 115799.334 -139129.333 115832.667 -139196 115866 -139329.333 115866 -139496 115832.667 -139629.333 115799.334 -139696 115766 -139729.333 115699.334 -139762.667 115632.667 -139762.667 115566 -139729.333 115532.667 -139696 115499.334 -139629.333 115466 -139496 115466 -139329.333 115499.334 -139196 115532.667 -139129.333 115566 -139096 115632.667 -139062.667 M 114799.334 -137222.667 114799.334 -136522.667 114966 -136522.667 115066 -136556 115132.667 -136622.667 115166 -136689.333 115199.334 -136822.667 115199.334 -136922.667 115166 -137056 115132.667 -137122.667 115066 -137189.333 114966 -137222.667 114799.334 -137222.667 M 115799.334 -136756 115799.334 -137222.667 M 115632.667 -136489.333 115466 -136989.333 115899.334 -136989.333 M 115199.334 -134616 115166 -134649.333 115066 -134682.667 114999.334 -134682.667 114899.334 -134649.333 114832.667 -134582.667 114799.334 -134516 114766 -134382.667 114766 -134282.667 114799.334 -134149.333 114832.667 -134082.667 114899.334 -134016 114999.334 -133982.667 115066 -133982.667 115166 -134016 115199.334 -134049.333 M 115799.334 -133982.667 115666 -133982.667 115599.334 -134016 115566 -134049.333 115499.334 -134149.333 115466 -134282.667 115466 -134549.333 115499.334 -134616 115532.667 -134649.333 115599.334 -134682.667 115732.667 -134682.667 115799.334 -134649.333 115832.667 -134616 115866 -134549.333 115866 -134382.667 115832.667 -134316 115799.334 -134282.667 115732.667 -134249.333 115599.334 -134249.333 115532.667 -134282.667 115499.334 -134316 115466 -134382.667 M 114799.334 -132142.667 114799.334 -131442.667 114966 -131442.667 115066 -131476 115132.667 -131542.667 115166 -131609.333 115199.334 -131742.667 115199.334 -131842.667 115166 -131976 115132.667 -132042.667 115066 -132109.333 114966 -132142.667 114799.334 -132142.667 M 115432.667 -131442.667 115899.334 -131442.667 115599.334 -132142.667 M 114832.667 -129236 115066 -129236 M 115166 -129602.667 114832.667 -129602.667 114832.667 -128902.667 115166 -128902.667 M 115766 -128902.667 115632.666 -128902.667 115566 -128936 115532.666 -128969.333 115466 -129069.333 115432.666 -129202.667 115432.666 -129469.333 115466 -129536 115499.333 -129569.333 115566 -129602.667 115699.333 -129602.667 115766 -129569.333 115799.333 -129536 115832.666 -129469.333 115832.666 -129302.667 115799.333 -129236 115766 -129202.667 115699.333 -129169.333 115566 -129169.333 115499.333 -129202.667 115466 -129236 115432.666 -129302.667 M 115032.667 -126696 115132.667 -126729.333 115166 -126762.667 115199.334 -126829.333 115199.334 -126929.333 115166 -126996 115132.667 -127029.333 115066 -127062.667 114799.334 -127062.667 114799.334 -126362.667 115032.667 -126362.667 115099.334 -126396 115132.667 -126429.333 115166 -126496 115166 -126562.667 115132.667 -126629.333 115099.334 -126662.667 115032.667 -126696 114799.334 -126696 M 115799.334 -126596 115799.334 -127062.667 M 115632.667 -126329.333 115466 -126829.333 115899.334 -126829.333 M 115032.667 -124156 115132.667 -124189.333 115166 -124222.667 115199.334 -124289.333 115199.334 -124389.333 115166 -124456 115132.667 -124489.333 115066 -124522.667 114799.334 -124522.667 114799.334 -123822.667 115032.667 -123822.667 115099.334 -123856 115132.667 -123889.333 115166 -123956 115166 -124022.667 115132.667 -124089.333 115099.334 -124122.667 115032.667 -124156 114799.334 -124156 M 115832.667 -123822.667 115499.334 -123822.667 115466 -124156 115499.334 -124122.667 115566 -124089.333 115732.667 -124089.333 115799.334 -124122.667 115832.667 -124156 115866 -124222.667 115866 -124389.333 115832.667 -124456 115799.334 -124489.333 115732.667 -124522.667 115566 -124522.667 115499.334 -124489.333 115466 -124456" fill="none" stroke-width="100"/><path d="M 104953.572 -124559.381 104382.143 -124559.381 M 104667.857 -124559.381 104667.857 -123559.381 104572.619 -123702.238 104477.381 -123797.476 104382.143 -123845.095 M 105572.619 -123559.381 105667.858 -123559.381 105763.096 -123607 105810.715 -123654.619 105858.334 -123749.857 105905.953 -123940.333 105905.953 -124178.429 105858.334 -124368.905 105810.715 -124464.143 105763.096 -124511.762 105667.858 -124559.381 105572.619 -124559.381 105477.381 -124511.762 105429.762 -124464.143 105382.143 -124368.905 105334.524 -124178.429 105334.524 -123940.333 105382.143 -123749.857 105429.762 -123654.619 105477.381 -123607 105572.619 -123559.381 M 106763.096 -123892.714 106763.096 -124559.381 M 106334.524 -123892.714 106334.524 -124416.524 106382.143 -124511.762 106477.381 -124559.381 106620.239 -124559.381 106715.477 -124511.762 106763.096 -124464.143 M 107572.62 -124035.571 107239.286 -124035.571 M 107239.286 -124559.381 107239.286 -123559.381 107715.477 -123559.381 M 110609.762 -124559.381 110038.333 -124559.381 M 110324.047 -124559.381 110324.047 -123559.381 110228.809 -123702.238 110133.571 -123797.476 110038.333 -123845.095 M 111228.809 -123559.381 111324.048 -123559.381 111419.286 -123607 111466.905 -123654.619 111514.524 -123749.857 111562.143 -123940.333 111562.143 -124178.429 111514.524 -124368.905 111466.905 -124464.143 111419.286 -124511.762 111324.048 -124559.381 111228.809 -124559.381 111133.571 -124511.762 111085.952 -124464.143 111038.333 -124368.905 110990.714 -124178.429 110990.714 -123940.333 111038.333 -123749.857 111085.952 -123654.619 111133.571 -123607 111228.809 -123559.381 M 111990.714 -124559.381 111990.714 -123559.381 M 112085.952 -124178.429 112371.667 -124559.381 M 112371.667 -123892.714 111990.714 -124273.667 M 108005.714 -139517.381 108005.714 -138517.381 108243.809 -138517.381 108386.667 -138565 108481.905 -138660.238 108529.524 -138755.476 108577.143 -138945.952 108577.143 -139088.81 108529.524 -139279.286 108481.905 -139374.524 108386.667 -139469.762 108243.809 -139517.381 108005.714 -139517.381 M 109339.048 -138993.571 109005.714 -138993.571 M 109005.714 -139517.381 109005.714 -138517.381 109481.905 -138517.381 M 109862.857 -138517.381 109862.857 -139326.905 109910.476 -139422.143 109958.095 -139469.762 110053.333 -139517.381 110243.81 -139517.381 110339.048 -139469.762 110386.667 -139422.143 110434.286 -139326.905 110434.286 -138517.381 M 107767.619 -152792.381 107434.285 -152316.19 M 107196.19 -152792.381 107196.19 -151792.381 107577.143 -151792.381 107672.381 -151840 107720 -151887.619 107767.619 -151982.857 107767.619 -152125.714 107720 -152220.952 107672.381 -152268.571 107577.143 -152316.19 107196.19 -152316.19 M 108196.19 -152268.571 108529.524 -152268.571 M 108672.381 -152792.381 108196.19 -152792.381 108196.19 -151792.381 108672.381 -151792.381 M 109053.333 -152744.762 109196.19 -152792.381 109434.286 -152792.381 109529.524 -152744.762 109577.143 -152697.143 109624.762 -152601.905 109624.762 -152506.667 109577.143 -152411.429 109529.524 -152363.81 109434.286 -152316.19 109243.809 -152268.571 109148.571 -152220.952 109100.952 -152173.333 109053.333 -152078.095 109053.333 -151982.857 109100.952 -151887.619 109148.571 -151840 109243.809 -151792.381 109481.905 -151792.381 109624.762 -151840 M 110053.333 -152268.571 110386.667 -152268.571 M 110529.524 -152792.381 110053.333 -152792.381 110053.333 -151792.381 110529.524 -151792.381 M 110815.238 -151792.381 111386.667 -151792.381 M 111100.952 -152792.381 111100.952 -151792.381 M 108458.095 -101306.381 108458.095 -102115.905 108505.714 -102211.143 108553.333 -102258.762 108648.571 -102306.381 108839.048 -102306.381 108934.286 -102258.762 108981.905 -102211.143 109029.524 -102115.905 109029.524 -101306.381 M 110029.524 -102306.381 109458.095 -102306.381 M 109743.809 -102306.381 109743.809 -101306.381 109648.571 -101449.238 109553.333 -101544.476 109458.095 -101592.095 M 103981.905 -107108.571 104315.239 -107108.571 M 104458.096 -107632.381 103981.905 -107632.381 103981.905 -106632.381 104458.096 -106632.381 M 104791.429 -106632.381 105458.096 -106632.381 105029.524 -107632.381 M 105743.81 -106632.381 106362.858 -106632.381 106029.524 -107013.333 106172.382 -107013.333 106267.62 -107060.952 106315.239 -107108.571 106362.858 -107203.81 106362.858 -107441.905 106315.239 -107537.143 106267.62 -107584.762 106172.382 -107632.381 105886.667 -107632.381 105791.429 -107584.762 105743.81 -107537.143 M 106791.429 -107251.429 107553.334 -107251.429 M 107981.905 -106727.619 108029.524 -106680 108124.762 -106632.381 108362.858 -106632.381 108458.096 -106680 108505.715 -106727.619 108553.334 -106822.857 108553.334 -106918.095 108505.715 -107060.952 107934.286 -107632.381 108553.334 -107632.381 M 109505.715 -106680 109410.477 -106632.381 109267.62 -106632.381 109124.762 -106680 109029.524 -106775.238 108981.905 -106870.476 108934.286 -107060.952 108934.286 -107203.81 108981.905 -107394.286 109029.524 -107489.524 109124.762 -107584.762 109267.62 -107632.381 109362.858 -107632.381 109505.715 -107584.762 109553.334 -107537.143 109553.334 -107203.81 109362.858 -107203.81 M 110410.477 -106965.714 110410.477 -107632.381 M 110172.381 -106584.762 109934.286 -107299.048 110553.334 -107299.048 M 110934.286 -107632.381 110934.286 -106632.381 111267.62 -107346.667 111600.953 -106632.381 111600.953 -107632.381 M 112267.619 -106632.381 112362.858 -106632.381 112458.096 -106680 112505.715 -106727.619 112553.334 -106822.857 112600.953 -107013.333 112600.953 -107251.429 112553.334 -107441.905 112505.715 -107537.143 112458.096 -107584.762 112362.858 -107632.381 112267.619 -107632.381 112172.381 -107584.762 112124.762 -107537.143 112077.143 -107441.905 112029.524 -107251.429 112029.524 -107013.333 112077.143 -106822.857 112124.762 -106727.619 112172.381 -106680 112267.619 -106632.381 M 113458.096 -106965.714 113458.096 -107632.381 M 113220 -106584.762 112981.905 -107299.048 113600.953 -107299.048 M 113934.286 -107584.762 114077.143 -107632.381 114315.239 -107632.381 114410.477 -107584.762 114458.096 -107537.143 114505.715 -107441.905 114505.715 -107346.667 114458.096 -107251.429 114410.477 -107203.81 114315.239 -107156.19 114124.762 -107108.571 114029.524 -107060.952 113981.905 -107013.333 113934.286 -106918.095 113934.286 -106822.857 113981.905 -106727.619 114029.524 -106680 114124.762 -106632.381 114362.858 -106632.381 114505.715 -106680" fill="none" stroke-width="150"/></g><g id="t-54tEWkvTAUzmZG_A_n_top_soldermask"><use xlink:href="#ZiA7HBn3Fw024BlGaE4c_pad-11" x="101600" y="-152146"/><use xlink:href="#ZiA7HBn3Fw024BlGaE4c_pad-12" x="101600" y="-149606"/><use xlink:href="#ZiA7HBn3Fw024BlGaE4c_pad-12" x="101600" y="-147066"/><use xlink:href="#ZiA7HBn3Fw024BlGaE4c_pad-12" x="101600" y="-144526"/><use xlink:href="#ZiA7HBn3Fw024BlGaE4c_pad-12" x="101600" y="-141986"/><use xlink:href="#ZiA7HBn3Fw024BlGaE4c_pad-12" x="101600" y="-139446"/><use xlink:href="#ZiA7HBn3Fw024BlGaE4c_pad-12" x="101600" y="-136906"/><use xlink:href="#ZiA7HBn3Fw024BlGaE4c_pad-12" x="101600" y="-134366"/><use xlink:href="#ZiA7HBn3Fw024BlGaE4c_pad-12" x="101600" y="-131826"/><use xlink:href="#ZiA7HBn3Fw024BlGaE4c_pad-12" x="101600" y="-129286"/><use xlink:href="#ZiA7HBn3Fw024BlGaE4c_pad-12" x="101600" y="-126746"/><use xlink:href="#ZiA7HBn3Fw024BlGaE4c_pad-12" x="101600" y="-124206"/><use xlink:href="#ZiA7HBn3Fw024BlGaE4c_pad-12" x="116840" y="-124206"/><use xlink:href="#ZiA7HBn3Fw024BlGaE4c_pad-12" x="116840" y="-126746"/><use xlink:href="#ZiA7HBn3Fw024BlGaE4c_pad-12" x="116840" y="-129286"/><use xlink:href="#ZiA7HBn3Fw024BlGaE4c_pad-12" x="116840" y="-131826"/><use xlink:href="#ZiA7HBn3Fw024BlGaE4c_pad-12" x="116840" y="-134366"/><use xlink:href="#ZiA7HBn3Fw024BlGaE4c_pad-12" x="116840" y="-136906"/><use xlink:href="#ZiA7HBn3Fw024BlGaE4c_pad-12" x="116840" y="-139446"/><use xlink:href="#ZiA7HBn3Fw024BlGaE4c_pad-12" x="116840" y="-141986"/><use xlink:href="#ZiA7HBn3Fw024BlGaE4c_pad-12" x="116840" y="-144526"/><use xlink:href="#ZiA7HBn3Fw024BlGaE4c_pad-12" x="116840" y="-147066"/><use xlink:href="#ZiA7HBn3Fw024BlGaE4c_pad-12" x="116840" y="-149606"/><use xlink:href="#ZiA7HBn3Fw024BlGaE4c_pad-12" x="116840" y="-152146"/><use xlink:href="#ZiA7HBn3Fw024BlGaE4c_pad-13" x="107275" y="-125857"/><use xlink:href="#ZiA7HBn3Fw024BlGaE4c_pad-13" x="104775" y="-125857"/><use xlink:href="#ZiA7HBn3Fw024BlGaE4c_pad-14" x="114300" y="-104256"/><use xlink:href="#ZiA7HBn3Fw024BlGaE4c_pad-14" x="114300" y="-105156"/><use xlink:href="#ZiA7HBn3Fw024BlGaE4c_pad-14" x="114300" y="-105156"/><use xlink:href="#ZiA7HBn3Fw024BlGaE4c_pad-14" x="114300" y="-104256"/><use xlink:href="#ZiA7HBn3Fw024BlGaE4c_pad-15" x="112555" y="-125857"/><use xlink:href="#ZiA7HBn3Fw024BlGaE4c_pad-15" x="109855" y="-125857"/><use xlink:href="#ZiA7HBn3Fw024BlGaE4c_pad-16" x="112308.5" y="-144153.5"/><use xlink:href="#ZiA7HBn3Fw024BlGaE4c_pad-16" x="106108.5" y="-144153.5"/><use xlink:href="#ZiA7HBn3Fw024BlGaE4c_pad-16" x="112308.5" y="-140453.5"/><use xlink:href="#ZiA7HBn3Fw024BlGaE4c_pad-16" x="106108.5" y="-140453.5"/><use xlink:href="#ZiA7HBn3Fw024BlGaE4c_pad-16" x="106120" y="-146740"/><use xlink:href="#ZiA7HBn3Fw024BlGaE4c_pad-16" x="112320" y="-146740"/><use xlink:href="#ZiA7HBn3Fw024BlGaE4c_pad-16" x="106120" y="-150440"/><use xlink:href="#ZiA7HBn3Fw024BlGaE4c_pad-16" x="112320" y="-150440"/><use xlink:href="#ZiA7HBn3Fw024BlGaE4c_pad-17" x="116332" y="-120904"/><use xlink:href="#ZiA7HBn3Fw024BlGaE4c_pad-17" x="115062" y="-120904"/><use xlink:href="#ZiA7HBn3Fw024BlGaE4c_pad-17" x="113792" y="-120904"/><use xlink:href="#ZiA7HBn3Fw024BlGaE4c_pad-17" x="112522" y="-120904"/><use xlink:href="#ZiA7HBn3Fw024BlGaE4c_pad-17" x="111252" y="-120904"/><use xlink:href="#ZiA7HBn3Fw024BlGaE4c_pad-17" x="109982" y="-120904"/><use xlink:href="#ZiA7HBn3Fw024BlGaE4c_pad-17" x="108712" y="-120904"/><use xlink:href="#ZiA7HBn3Fw024BlGaE4c_pad-17" x="107442" y="-120904"/><use xlink:href="#ZiA7HBn3Fw024BlGaE4c_pad-17" x="106172" y="-120904"/><use xlink:href="#ZiA7HBn3Fw024BlGaE4c_pad-17" x="104902" y="-120904"/><use xlink:href="#ZiA7HBn3Fw024BlGaE4c_pad-17" x="103632" y="-120904"/><use xlink:href="#ZiA7HBn3Fw024BlGaE4c_pad-17" x="102362" y="-120904"/><use xlink:href="#ZiA7HBn3Fw024BlGaE4c_pad-18" x="118110" y="-119126"/><use xlink:href="#ZiA7HBn3Fw024BlGaE4c_pad-18" x="118110" y="-117856"/><use xlink:href="#ZiA7HBn3Fw024BlGaE4c_pad-18" x="118110" y="-116586"/><use xlink:href="#ZiA7HBn3Fw024BlGaE4c_pad-18" x="118110" y="-115316"/><use xlink:href="#ZiA7HBn3Fw024BlGaE4c_pad-18" x="118110" y="-114046"/><use xlink:href="#ZiA7HBn3Fw024BlGaE4c_pad-18" x="118110" y="-112776"/><use xlink:href="#ZiA7HBn3Fw024BlGaE4c_pad-18" x="118110" y="-111506"/><use xlink:href="#ZiA7HBn3Fw024BlGaE4c_pad-18" x="118110" y="-110236"/><use xlink:href="#ZiA7HBn3Fw024BlGaE4c_pad-18" x="118110" y="-108966"/><use xlink:href="#ZiA7HBn3Fw024BlGaE4c_pad-18" x="118110" y="-107696"/><use xlink:href="#ZiA7HBn3Fw024BlGaE4c_pad-18" x="118110" y="-106426"/><use xlink:href="#ZiA7HBn3Fw024BlGaE4c_pad-18" x="118110" y="-105156"/><use xlink:href="#ZiA7HBn3Fw024BlGaE4c_pad-18" x="118110" y="-103886"/><use xlink:href="#ZiA7HBn3Fw024BlGaE4c_pad-18" x="118110" y="-102616"/><use xlink:href="#ZiA7HBn3Fw024BlGaE4c_pad-18" x="118110" y="-100076"/><use xlink:href="#ZiA7HBn3Fw024BlGaE4c_pad-18" x="118110" y="-98806"/><use xlink:href="#ZiA7HBn3Fw024BlGaE4c_pad-18" x="100584" y="-98806"/><use xlink:href="#ZiA7HBn3Fw024BlGaE4c_pad-18" x="100584" y="-100076"/><use xlink:href="#ZiA7HBn3Fw024BlGaE4c_pad-18" x="100584" y="-102616"/><use xlink:href="#ZiA7HBn3Fw024BlGaE4c_pad-18" x="100584" y="-103886"/><use xlink:href="#ZiA7HBn3Fw024BlGaE4c_pad-18" x="100584" y="-105156"/><use xlink:href="#ZiA7HBn3Fw024BlGaE4c_pad-18" x="100584" y="-106426"/><use xlink:href="#ZiA7HBn3Fw024BlGaE4c_pad-18" x="100584" y="-107696"/><use xlink:href="#ZiA7HBn3Fw024BlGaE4c_pad-18" x="100584" y="-108966"/><use xlink:href="#ZiA7HBn3Fw024BlGaE4c_pad-18" x="100584" y="-110236"/><use xlink:href="#ZiA7HBn3Fw024BlGaE4c_pad-18" x="100584" y="-111506"/><use xlink:href="#ZiA7HBn3Fw024BlGaE4c_pad-18" x="100584" y="-112776"/><use xlink:href="#ZiA7HBn3Fw024BlGaE4c_pad-18" x="100584" y="-114046"/><use xlink:href="#ZiA7HBn3Fw024BlGaE4c_pad-18" x="100584" y="-115316"/><use xlink:href="#ZiA7HBn3Fw024BlGaE4c_pad-18" x="100584" y="-116586"/><use xlink:href="#ZiA7HBn3Fw024BlGaE4c_pad-18" x="100584" y="-117856"/><use xlink:href="#ZiA7HBn3Fw024BlGaE4c_pad-18" x="100584" y="-119126"/><use xlink:href="#ZiA7HBn3Fw024BlGaE4c_pad-19" x="110490" y="-137160"/><use xlink:href="#ZiA7HBn3Fw024BlGaE4c_pad-20" x="107950" y="-137160"/><use xlink:href="#ZiA7HBn3Fw024BlGaE4c_pad-20" x="110490" y="-134620"/><use xlink:href="#ZiA7HBn3Fw024BlGaE4c_pad-20" x="107950" y="-134620"/><use xlink:href="#ZiA7HBn3Fw024BlGaE4c_pad-20" x="110490" y="-132080"/><use xlink:href="#ZiA7HBn3Fw024BlGaE4c_pad-20" x="107950" y="-132080"/></g><g id="t-54tEWkvTAUzmZG_A_n_top_drill1" transform="scale(25.4,25.4)"><use xlink:href="#yff8OID-QJZo_QgWJnBU_pad-1" x="4500" y="-4104.6"/><use xlink:href="#yff8OID-QJZo_QgWJnBU_pad-1" x="4500" y="-4104.6"/><use xlink:href="#yff8OID-QJZo_QgWJnBU_pad-1" x="4500" y="-4140"/><use xlink:href="#yff8OID-QJZo_QgWJnBU_pad-1" x="4500" y="-4140"/><use xlink:href="#yff8OID-QJZo_QgWJnBU_pad-2" x="3940" y="-4780"/><use xlink:href="#yff8OID-QJZo_QgWJnBU_pad-2" x="4030" y="-3890"/><use xlink:href="#yff8OID-QJZo_QgWJnBU_pad-2" x="4030" y="-3940"/><use xlink:href="#yff8OID-QJZo_QgWJnBU_pad-2" x="4040" y="-4670"/><use xlink:href="#yff8OID-QJZo_QgWJnBU_pad-2" x="4060" y="-3890"/><use xlink:href="#yff8OID-QJZo_QgWJnBU_pad-2" x="4060" y="-3940"/><use xlink:href="#yff8OID-QJZo_QgWJnBU_pad-2" x="4065" y="-4925"/><use xlink:href="#yff8OID-QJZo_QgWJnBU_pad-2" x="4075" y="-4125"/><use xlink:href="#yff8OID-QJZo_QgWJnBU_pad-2" x="4100" y="-4550"/><use xlink:href="#yff8OID-QJZo_QgWJnBU_pad-2" x="4103.9" y="-4880.4"/><use xlink:href="#yff8OID-QJZo_QgWJnBU_pad-2" x="4125" y="-5927.5"/><use xlink:href="#yff8OID-QJZo_QgWJnBU_pad-2" x="4125" y="-4600"/><use xlink:href="#yff8OID-QJZo_QgWJnBU_pad-2" x="4125" y="-5079.9"/><use xlink:href="#yff8OID-QJZo_QgWJnBU_pad-2" x="4125" y="-5777.2"/><use xlink:href="#yff8OID-QJZo_QgWJnBU_pad-2" x="4132.9" y="-4866.3"/><use xlink:href="#yff8OID-QJZo_QgWJnBU_pad-2" x="4179.6" y="-4879.8"/><use xlink:href="#yff8OID-QJZo_QgWJnBU_pad-2" x="4209.4" y="-4890"/><use xlink:href="#yff8OID-QJZo_QgWJnBU_pad-2" x="4220" y="-4465"/><use xlink:href="#yff8OID-QJZo_QgWJnBU_pad-2" x="4230" y="-5529.7"/><use xlink:href="#yff8OID-QJZo_QgWJnBU_pad-2" x="4230" y="-5670"/><use xlink:href="#yff8OID-QJZo_QgWJnBU_pad-2" x="4251.2" y="-4846"/><use xlink:href="#yff8OID-QJZo_QgWJnBU_pad-2" x="4276.3" y="-4893.3"/><use xlink:href="#yff8OID-QJZo_QgWJnBU_pad-2" x="4303" y="-5483.9"/><use xlink:href="#yff8OID-QJZo_QgWJnBU_pad-2" x="4310" y="-3890"/><use xlink:href="#yff8OID-QJZo_QgWJnBU_pad-2" x="4310" y="-3940"/><use xlink:href="#yff8OID-QJZo_QgWJnBU_pad-2" x="4325.5" y="-4886.1"/><use xlink:href="#yff8OID-QJZo_QgWJnBU_pad-2" x="4330" y="-4190"/><use xlink:href="#yff8OID-QJZo_QgWJnBU_pad-2" x="4331.2" y="-5027.3"/><use xlink:href="#yff8OID-QJZo_QgWJnBU_pad-2" x="4332.3" y="-4260"/><use xlink:href="#yff8OID-QJZo_QgWJnBU_pad-2" x="4340" y="-4330"/><use xlink:href="#yff8OID-QJZo_QgWJnBU_pad-2" x="4360" y="-4380"/><use xlink:href="#yff8OID-QJZo_QgWJnBU_pad-2" x="4374.6" y="-5529.7"/><use xlink:href="#yff8OID-QJZo_QgWJnBU_pad-2" x="4374.6" y="-5777.2"/><use xlink:href="#yff8OID-QJZo_QgWJnBU_pad-2" x="4375" y="-5675.3"/><use xlink:href="#yff8OID-QJZo_QgWJnBU_pad-2" x="4390" y="-4430"/><use xlink:href="#yff8OID-QJZo_QgWJnBU_pad-2" x="4400" y="-4225"/><use xlink:href="#yff8OID-QJZo_QgWJnBU_pad-2" x="4423.5" y="-4609.8"/><use xlink:href="#yff8OID-QJZo_QgWJnBU_pad-2" x="4437.7" y="-4543"/><use xlink:href="#yff8OID-QJZo_QgWJnBU_pad-2" x="4470" y="-5920"/><use xlink:href="#yff8OID-QJZo_QgWJnBU_pad-2" x="4501.3" y="-4875.7"/><use xlink:href="#yff8OID-QJZo_QgWJnBU_pad-2" x="4514.6" y="-4585.5"/><use xlink:href="#yff8OID-QJZo_QgWJnBU_pad-2" x="4525" y="-5625"/><use xlink:href="#yff8OID-QJZo_QgWJnBU_pad-2" x="4530" y="-4660"/><use xlink:href="#yff8OID-QJZo_QgWJnBU_pad-2" x="4534.5" y="-5037.2"/><use xlink:href="#yff8OID-QJZo_QgWJnBU_pad-2" x="4535.9" y="-5111.1"/><use xlink:href="#yff8OID-QJZo_QgWJnBU_pad-2" x="4550" y="-4470"/><use xlink:href="#yff8OID-QJZo_QgWJnBU_pad-2" x="4561.2" y="-4426.6"/><use xlink:href="#yff8OID-QJZo_QgWJnBU_pad-2" x="4561.8" y="-4556.8"/><use xlink:href="#yff8OID-QJZo_QgWJnBU_pad-2" x="4570" y="-3890"/><use xlink:href="#yff8OID-QJZo_QgWJnBU_pad-2" x="4570" y="-3940"/><use xlink:href="#yff8OID-QJZo_QgWJnBU_pad-2" x="4580" y="-4600"/><use xlink:href="#yff8OID-QJZo_QgWJnBU_pad-3" x="4250" y="-5200"/><use xlink:href="#yff8OID-QJZo_QgWJnBU_pad-3" x="4250" y="-5300"/><use xlink:href="#yff8OID-QJZo_QgWJnBU_pad-3" x="4250" y="-5400"/><use xlink:href="#yff8OID-QJZo_QgWJnBU_pad-3" x="4350" y="-5200"/><use xlink:href="#yff8OID-QJZo_QgWJnBU_pad-3" x="4350" y="-5300"/><use xlink:href="#yff8OID-QJZo_QgWJnBU_pad-3" x="4350" y="-5400"/><use xlink:href="#yff8OID-QJZo_QgWJnBU_pad-4" x="4000" y="-4890"/><use xlink:href="#yff8OID-QJZo_QgWJnBU_pad-4" x="4000" y="-4990"/><use xlink:href="#yff8OID-QJZo_QgWJnBU_pad-4" x="4000" y="-5090"/><use xlink:href="#yff8OID-QJZo_QgWJnBU_pad-4" x="4000" y="-5190"/><use xlink:href="#yff8OID-QJZo_QgWJnBU_pad-4" x="4000" y="-5290"/><use xlink:href="#yff8OID-QJZo_QgWJnBU_pad-4" x="4000" y="-5390"/><use xlink:href="#yff8OID-QJZo_QgWJnBU_pad-4" x="4000" y="-5490"/><use xlink:href="#yff8OID-QJZo_QgWJnBU_pad-4" x="4000" y="-5590"/><use xlink:href="#yff8OID-QJZo_QgWJnBU_pad-4" x="4000" y="-5690"/><use xlink:href="#yff8OID-QJZo_QgWJnBU_pad-4" x="4000" y="-5790"/><use xlink:href="#yff8OID-QJZo_QgWJnBU_pad-4" x="4000" y="-5890"/><use xlink:href="#yff8OID-QJZo_QgWJnBU_pad-4" x="4000" y="-5990"/><use xlink:href="#yff8OID-QJZo_QgWJnBU_pad-4" x="4600" y="-4890"/><use xlink:href="#yff8OID-QJZo_QgWJnBU_pad-4" x="4600" y="-4990"/><use xlink:href="#yff8OID-QJZo_QgWJnBU_pad-4" x="4600" y="-5090"/><use xlink:href="#yff8OID-QJZo_QgWJnBU_pad-4" x="4600" y="-5190"/><use xlink:href="#yff8OID-QJZo_QgWJnBU_pad-4" x="4600" y="-5290"/><use xlink:href="#yff8OID-QJZo_QgWJnBU_pad-4" x="4600" y="-5390"/><use xlink:href="#yff8OID-QJZo_QgWJnBU_pad-4" x="4600" y="-5490"/><use xlink:href="#yff8OID-QJZo_QgWJnBU_pad-4" x="4600" y="-5590"/><use xlink:href="#yff8OID-QJZo_QgWJnBU_pad-4" x="4600" y="-5690"/><use xlink:href="#yff8OID-QJZo_QgWJnBU_pad-4" x="4600" y="-5790"/><use xlink:href="#yff8OID-QJZo_QgWJnBU_pad-4" x="4600" y="-5890"/><use xlink:href="#yff8OID-QJZo_QgWJnBU_pad-4" x="4600" y="-5990"/></g><clipPath id="t-54tEWkvTAUzmZG_A_n_top_outline"><path d="M 120015 -153670 98425 -153670 98425 -91440 120015 -91440 120015 -153670" fill="none" stroke-width="150"/></clipPath><mask id="t-54tEWkvTAUzmZG_A_n_top_mech-mask"><g fill="#000" stroke="#000"><rect x="98425" y="-153670" width="21590" height="62230" fill="#fff"/><use xlink:href="#t-54tEWkvTAUzmZG_A_n_top_drill1"/></g></mask><mask id="t-54tEWkvTAUzmZG_A_n_top_cf-mask"><g fill="#fff" stroke="#fff"><use xlink:href="#t-54tEWkvTAUzmZG_A_n_top_soldermask"/></g></mask><mask id="t-54tEWkvTAUzmZG_A_n_top_sm-mask"><g fill="#000" stroke="#000"><rect x="98425" y="-153670" width="21590" height="62230" fill="#fff"/><use xlink:href="#t-54tEWkvTAUzmZG_A_n_top_soldermask"/></g></mask></defs><g transform="translate(0,-245110) scale(1,-1)"><g mask="url(#t-54tEWkvTAUzmZG_A_n_top_mech-mask)" clip-path="url(#t-54tEWkvTAUzmZG_A_n_top_outline)"><rect x="98425" y="-153670" width="21590" height="62230" fill="currentColor" class="t-54tEWkvTAUzmZG_A_n_fr4"/><use xlink:href="#t-54tEWkvTAUzmZG_A_n_top_copper" fill="currentColor" stroke="currentColor" class="t-54tEWkvTAUzmZG_A_n_cu"/><use xlink:href="#t-54tEWkvTAUzmZG_A_n_top_copper" fill="currentColor" stroke="currentColor" class="t-54tEWkvTAUzmZG_A_n_cf" mask="url(#t-54tEWkvTAUzmZG_A_n_top_cf-mask)"/><g mask="url(#t-54tEWkvTAUzmZG_A_n_top_sm-mask)"><rect x="98425" y="-153670" width="21590" height="62230" fill="currentColor" class="t-54tEWkvTAUzmZG_A_n_sm"/><use xlink:href="#t-54tEWkvTAUzmZG_A_n_top_silkscreen" fill="currentColor" stroke="currentColor" class="t-54tEWkvTAUzmZG_A_n_ss"/></g></g></g></svg>